<svg xmlns="http://www.w3.org/2000/svg" xmlns:xlink="http://www.w3.org/1999/xlink">
  <defs/>
  <g>
    <path stroke="none" fill="#FF99CC" d="M170.75 91.9 Q157.7 82.4 141.1 81.6 L140.7 81.55 140.95 81.55 138 81.5 Q114.6 81.5 98.1 98.1 81.5 114.6 81.5 138 L81.55 140.95 81.55 140.7 81.6 141.1 Q82.4 157.7 91.9 170.75 L92.5 171.6 93.25 172.6 98.1 177.95 98.15 178 103.25 182.6 104.35 183.45 104.45 183.5 Q118.95 194.35 138 194.45 161.4 194.45 177.95 177.95 194.45 161.4 194.45 138 194.35 118.95 183.5 104.45 L183.45 104.35 182.6 103.25 178 98.15 177.95 98.1 Q175.25 95.4 172.6 93.25 L171.6 92.5 170.75 91.9 M212.55 53 L213.3 53.7 213.3 53.75 217.95 58.15 222.25 62.65 222.25 62.7 222.55 63 217.25 58.55 212.55 53 M62.8 222.4 L62.7 222.3 62.65 222.3 58.15 218 53.75 213.35 53.15 212.75 52.95 212.55 58.55 217.3 Q35 187.5 35 148 35 101.2 68.15 68.15 101.2 35 148 35 187.5 34.95 217.25 58.55 241.05 88.35 241 128 241 174.85 207.95 208 174.85 241 128 241 88.35 241.05 58.55 217.3 L62.8 222.4"/>
    <path stroke="none" fill="#FFADD6" d="M62.8 222.4 L58.55 217.3 Q88.35 241.05 128 241 174.85 241 207.95 208 241 174.85 241 128 241.05 88.35 217.25 58.55 L222.55 63 Q251.05 94.6 251 138 251 184.85 217.95 218 184.85 251 138 251 94.55 251.05 62.95 222.55 L62.8 222.4 M212.55 53 L217.25 58.55 Q187.5 34.95 148 35 101.2 35 68.15 68.15 35 101.2 35 148 35 187.5 58.55 217.3 L52.95 212.55 Q25 181.05 25 138 25 91.2 58.15 58.15 91.2 25 138 25 181.05 24.95 212.55 53"/>
    <path stroke="none" fill="#EEEEEE" d="M481 128 Q481 174.85 447.95 208 414.85 241 368 241 328.35 241.05 298.55 217.3 275 187.5 275 148 275 101.2 308.15 68.15 341.2 35 388 35 427.5 34.95 457.25 58.55 481.05 88.35 481 128 M410.75 91.9 Q397.7 82.4 381.1 81.6 L380.75 81.55 378 81.5 Q354.6 81.5 338.1 98.1 321.5 114.6 321.5 138 L321.55 140.95 321.55 140.75 321.6 141.1 Q322.4 157.7 331.9 170.75 L332.5 171.6 333.25 172.6 Q335.4 175.25 338.1 177.95 L338.15 178 Q340.6 180.4 343.25 182.6 L344.35 183.45 344.45 183.5 Q358.95 194.35 378 194.45 401.4 194.45 417.95 177.95 434.45 161.4 434.45 138 434.35 118.95 423.5 104.45 L423.45 104.35 422.6 103.25 418 98.15 417.95 98.1 412.6 93.25 411.6 92.5 410.75 91.9"/>
    <path stroke="none" fill="#FFFFFF" d="M453.3 53.75 L457.95 58.15 462.25 62.65 462.25 62.7 462.55 63 Q491.05 94.6 491 138 491 184.85 457.95 218 424.85 251 378 251 334.55 251.05 302.95 222.55 L302.8 222.4 302.7 222.3 302.65 222.3 298.15 218 293.75 213.35 293.15 212.75 292.95 212.55 Q265 181.05 265 138 265 91.2 298.15 58.15 331.2 25 378 25 421.05 24.95 452.55 53 L453.3 53.7 453.3 53.75 M481 128 Q481.05 88.35 457.25 58.55 427.5 34.95 388 35 341.2 35 308.15 68.15 275 101.2 275 148 275 187.5 298.55 217.3 328.35 241.05 368 241 414.85 241 447.95 208 481 174.85 481 128"/>
    <path stroke="none" fill="#E2BB89" d="M452.55 293 L453.3 293.7 453.3 293.75 457.95 298.15 462.25 302.65 462.25 302.7 462.55 303 Q491.05 334.6 491 378 491 424.85 457.95 458 424.85 491 378 491 334.55 491.05 302.95 462.55 L302.8 462.4 302.7 462.3 302.65 462.3 298.15 458 293.75 453.35 293.15 452.75 292.95 452.55 Q265 421.05 265 378 265 331.2 298.15 298.15 331.2 265 378 265 421.05 264.95 452.55 293 M481 368 Q481.05 328.35 457.25 298.55 427.5 274.95 388 275 341.2 275 308.15 308.15 275 341.2 275 388 275 427.5 298.55 457.3 328.35 481.05 368 481 414.85 481 447.95 448 481 414.85 481 368"/>
    <path stroke="none" fill="#DBB17D" d="M481 368 Q481 414.85 447.95 448 414.85 481 368 481 328.35 481.05 298.55 457.3 275 427.5 275 388 275 341.2 308.15 308.15 341.2 275 388 275 427.5 274.95 457.25 298.55 481.05 328.35 481 368 M378 321.5 Q354.6 321.5 338.1 338.1 321.5 354.6 321.5 378 L321.55 380.8 321.6 381.1 Q322.4 397.7 331.9 410.75 L332.5 411.6 333.25 412.6 Q335.4 415.25 338.1 417.95 L338.15 418 Q340.6 420.4 343.25 422.6 L344.35 423.45 344.45 423.5 Q358.95 434.35 378 434.45 401.4 434.45 417.95 417.95 434.45 401.4 434.45 378 434.35 358.95 423.5 344.45 L423.45 344.35 422.6 343.25 418 338.15 417.95 338.1 412.6 333.25 411.6 332.5 410.75 331.9 Q397.7 322.4 381.1 321.6 L380.75 321.55 378 321.5"/>
    <path stroke="none" fill="#6D5F49" d="M25 378 Q25 331.2 58.15 298.15 91.2 265 138 265 181.05 264.95 212.55 293 L213.3 293.7 213.3 293.75 217.95 298.15 222.25 302.65 222.25 302.7 222.55 303 Q251.05 334.6 251 378 251 424.85 217.95 458 184.85 491 138 491 94.55 491.05 62.95 462.55 L62.8 462.4 62.7 462.3 62.65 462.3 58.15 458 53.75 453.35 53.15 452.75 52.95 452.55 Q25 421.05 25 378 M68.15 308.15 Q35 341.2 35 388 35 427.5 58.55 457.3 88.35 481.05 128 481 174.85 481 207.95 448 241 414.85 241 368 241.05 328.35 217.25 298.55 187.5 274.95 148 275 101.2 275 68.15 308.15"/>
    <path stroke="none" fill="#5F4F38" d="M68.15 308.15 Q101.2 275 148 275 187.5 274.95 217.25 298.55 241.05 328.35 241 368 241 414.85 207.95 448 174.85 481 128 481 88.35 481.05 58.55 457.3 35 427.5 35 388 35 341.2 68.15 308.15 M140.75 321.55 L138 321.5 Q114.6 321.5 98.1 338.1 81.5 354.6 81.5 378 L81.55 380.95 81.55 380.75 81.6 381.1 Q82.4 397.7 91.9 410.75 L92.5 411.6 93.25 412.6 98.1 417.95 98.15 418 103.25 422.6 104.35 423.45 104.45 423.5 Q118.95 434.35 138 434.45 161.4 434.45 177.95 417.95 194.45 401.4 194.45 378 194.35 358.95 183.5 344.45 L183.45 344.35 182.6 343.25 178 338.15 177.95 338.1 Q175.25 335.4 172.6 333.25 L171.6 332.5 170.75 331.9 Q157.7 322.4 141.1 321.6 L140.75 321.55"/>
    <path stroke="none" fill="#6D5F49" d="M1009 48 L1008.5 48.55 1008.05 48 Q973.85 20 928 20 875 20 837.5 57.5 800 95 800 148 800 193.8 828 228.05 L829.5 229.25 828.85 229.9 827.5 228.55 822.6 223.45 Q790 187.45 790 138 790 85 827.5 47.5 865 10 918 10 967.45 10 1003.35 42.6 L1008.5 47.5 1009 48 M920.35 96.55 L921.1 96.55 Q936.05 96.55 947.45 105.1 L950.25 107.35 952.6 109.6 Q955.1 112.05 957.1 114.75 965.65 126.15 965.65 141.1 965.65 159.6 952.6 172.6 939.6 185.65 921.1 185.65 906.15 185.65 894.75 177.1 L889.6 172.6 887.65 170.55 885.1 167.45 Q876.55 156.05 876.55 141.1 L876.55 140.35 Q877.15 152.8 884.45 162.5 886.3 164.95 888.65 167.3 L889.8 168.4 Q891.55 170.05 893.45 171.5 904.05 179.45 918 179.45 935.2 179.45 947.3 167.3 959.45 155.2 959.45 138 959.45 124.05 951.5 113.45 L948.15 109.5 947.3 108.65 Q944.95 106.3 942.5 104.45 932.8 97.15 920.35 96.55"/>
    <path stroke="none" fill="#5F4F38" d="M920.35 96.55 L918 96.5 Q900.8 96.5 888.65 108.65 876.5 120.8 876.5 138 L876.55 140.35 876.55 141.1 Q876.55 156.05 885.1 167.45 L887.65 170.55 889.6 172.6 894.75 177.1 Q906.15 185.65 921.1 185.65 939.6 185.65 952.6 172.6 965.65 159.6 965.65 141.1 965.65 126.15 957.1 114.75 955.1 112.05 952.6 109.6 L950.25 107.35 947.45 105.1 Q936.05 96.55 921.1 96.55 L920.35 96.55 M829.5 229.25 L828 228.05 Q800 193.8 800 148 800 95 837.5 57.5 875 20 928 20 973.85 20 1008.05 48 L1008.5 48.55 Q1036 82.55 1036 128 1036 181.05 998.5 218.55 961.05 256 908 256 863.2 256 829.5 229.25"/>
    <path stroke="none" fill="#382F23" d="M1011.8 45.15 L1016.3 49.9 1016.35 49.95 Q1050 87 1050 138 1050 192.7 1011.35 231.4 972.7 270 918 270 867 270 829.95 236.4 L826.05 232.75 824.7 231.4 819.65 226.15 819.65 226.1 Q786 189 786 138 786 83.35 824.7 44.7 863.35 6 918 6 969 6 1006.05 39.65 L1011.35 44.7 1011.8 45.15 M1009 48 L1008.5 47.5 1003.35 42.6 Q967.45 10 918 10 865 10 827.5 47.5 790 85 790 138 790 187.45 822.6 223.45 L827.5 228.55 828.85 229.9 832.6 233.4 Q868.55 266 918 266 971.05 266 1008.5 228.55 1046 191.05 1046 138 1046 88.55 1013.35 52.6 L1009 48 M876.55 140.35 L876.5 138 Q876.5 120.8 888.65 108.65 900.8 96.5 918 96.5 L920.35 96.55 Q932.8 97.15 942.5 104.45 944.95 106.3 947.3 108.65 L948.15 109.5 951.5 113.45 Q959.45 124.05 959.45 138 959.45 155.2 947.3 167.3 935.2 179.45 918 179.45 904.05 179.45 893.45 171.5 891.55 170.05 889.8 168.4 L888.65 167.3 Q886.3 164.95 884.45 162.5 877.15 152.8 876.55 140.35 M887.65 160.1 L891.5 164.5 892.6 165.55 895.85 168.3 895.9 168.35 Q905.45 175.45 918 175.45 933.55 175.45 944.5 164.5 955.45 153.55 955.45 138 955.45 125.45 948.35 115.9 L948.3 115.85 945.3 112.35 944.5 111.5 940.1 107.65 Q930.55 100.5 918 100.5 902.45 100.5 891.5 111.5 880.5 122.45 880.5 138 880.5 150.55 887.65 160.1"/>
    <path stroke="none" fill="#4D402D" d="M1008.5 48.55 L1009 48 1013.35 52.6 Q1046 88.55 1046 138 1046 191.05 1008.5 228.55 971.05 266 918 266 868.55 266 832.6 233.4 L828.85 229.9 829.5 229.25 Q863.2 256 908 256 961.05 256 998.5 218.55 1036 181.05 1036 128 1036 82.55 1008.5 48.55"/>
    <path stroke="none" fill="#8E6F49" d="M736.35 49.95 Q770 87 770 138 770 192.7 731.35 231.4 692.7 270 638 270 587 270 549.95 236.4 L544.7 231.4 539.65 226.15 539.65 226.1 Q506 189 506 138 506 83.35 544.7 44.7 583.35 6 638 6 689 6 726.05 39.65 L731.35 44.7 736.3 49.9 736.35 49.95 M733.35 52.6 L728.5 47.5 723.35 42.6 Q687.45 10 638 10 585 10 547.5 47.5 510 85 510 138 510 187.45 542.6 223.45 L547.5 228.55 552.6 233.4 Q588.55 266 638 266 691.05 266 728.5 228.55 766 191.05 766 138 766 88.55 733.35 52.6 M668.3 115.85 L664.5 111.5 660.1 107.65 Q650.55 100.5 638 100.5 622.45 100.5 611.5 111.5 600.5 122.45 600.5 138 600.5 150.55 607.65 160.1 L611.5 164.5 615.85 168.3 615.9 168.35 Q625.45 175.45 638 175.45 653.55 175.45 664.5 164.5 675.45 153.55 675.45 138 675.45 125.45 668.35 115.9 L668.3 115.85 M640.35 96.55 Q652.8 97.15 662.5 104.45 L667.3 108.65 Q669.6 110.95 671.5 113.45 679.45 124.05 679.45 138 679.45 155.2 667.3 167.3 655.2 179.45 638 179.45 624.05 179.45 613.45 171.5 L608.65 167.3 Q606.3 164.95 604.45 162.5 597.15 152.8 596.55 140.35 L596.5 138 Q596.5 120.8 608.65 108.65 620.8 96.5 638 96.5 L640.35 96.55"/>
    <path stroke="none" fill="#E2BE91" d="M640.35 96.55 L638 96.5 Q620.8 96.5 608.65 108.65 596.5 120.8 596.5 138 L596.55 140.35 596.55 141.1 Q596.55 156.05 605.1 167.45 607.05 170.1 609.6 172.6 L614.75 177.1 Q626.15 185.65 641.1 185.65 659.6 185.65 672.6 172.6 685.65 159.6 685.65 141.1 685.65 126.15 677.1 114.75 675.1 112.05 672.6 109.6 670.1 107.05 667.45 105.1 656.05 96.55 641.1 96.55 L640.35 96.55 M728.05 48 L723.35 42.6 728.5 47.5 733.35 52.6 728.05 48 Q756 82.2 756 128 756 181.05 718.5 218.55 681.05 256 628 256 582.2 256 548 228.05 L552.6 233.4 547.5 228.55 542.6 223.45 548 228.05 Q520 193.8 520 148 520 95 557.5 57.5 595 20 648 20 693.85 20 728.05 48"/>
    <path stroke="none" fill="#EECDA4" d="M728.05 48 Q693.85 20 648 20 595 20 557.5 57.5 520 95 520 148 520 193.8 548 228.05 L542.6 223.45 Q510 187.45 510 138 510 85 547.5 47.5 585 10 638 10 687.45 10 723.35 42.6 L728.05 48 M640.35 96.55 L641.1 96.55 Q656.05 96.55 667.45 105.1 670.1 107.05 672.6 109.6 675.1 112.05 677.1 114.75 685.65 126.15 685.65 141.1 685.65 159.6 672.6 172.6 659.6 185.65 641.1 185.65 626.15 185.65 614.75 177.1 L609.6 172.6 Q607.05 170.1 605.1 167.45 596.55 156.05 596.55 141.1 L596.55 140.35 Q597.15 152.8 604.45 162.5 606.3 164.95 608.65 167.3 L613.45 171.5 Q624.05 179.45 638 179.45 655.2 179.45 667.3 167.3 679.45 155.2 679.45 138 679.45 124.05 671.5 113.45 669.6 110.95 667.3 108.65 L662.5 104.45 Q652.8 97.15 640.35 96.55"/>
    <path stroke="none" fill="#D4AF80" d="M728.05 48 L733.35 52.6 Q766 88.55 766 138 766 191.05 728.5 228.55 691.05 266 638 266 588.55 266 552.6 233.4 L548 228.05 Q582.2 256 628 256 681.05 256 718.5 218.55 756 181.05 756 128 756 82.2 728.05 48"/>
    <path stroke="none" fill="#FFCC00" d="M660.3 325.3 Q660.95 326.45 660.55 327.9 660.25 329.25 659 330 L648.45 336.05 Q647.25 336.75 645.9 336.4 644.5 336 643.8 334.9 643.1 333.65 643.55 332.2 643.85 330.85 645.05 330.1 L655.55 324.05 Q656.85 323.3 658.15 323.6 659.6 324.05 660.3 325.3 M690.35 385 Q691.45 384 692.85 384 694.2 384 695.25 385.05 696.3 386 696.25 387.45 L696.25 399.6 Q696.25 401 695.3 402 694.25 403 692.9 403.05 691.5 403.05 690.45 401.95 689.45 401 689.4 399.55 L689.4 387.45 Q689.4 385.95 690.35 385 M652.05 478.55 Q653.35 477.8 654.65 478.1 656.1 478.55 656.8 479.8 657.45 480.95 657.05 482.4 656.75 483.75 655.5 484.5 L644.95 490.55 Q643.75 491.25 642.4 490.9 641 490.5 640.3 489.4 639.6 488.15 640.05 486.7 640.35 485.35 641.55 484.6 L652.05 478.55 M544.15 344.1 Q545.6 344.55 546.3 345.8 546.95 346.95 546.55 348.4 546.25 349.75 545 350.5 L534.45 356.55 Q533.25 357.25 531.9 356.9 530.5 356.5 529.8 355.4 529.1 354.15 529.55 352.7 529.85 351.35 531.05 350.6 L541.55 344.55 Q542.85 343.8 544.15 344.1 M605.75 303.55 Q606.8 304.5 606.75 305.95 L606.75 318.1 Q606.75 319.5 605.8 320.5 604.75 321.5 603.4 321.55 602 321.55 600.95 320.45 599.95 319.5 599.9 318.05 L599.9 305.95 Q599.9 304.45 600.85 303.5 601.95 302.5 603.35 302.5 604.7 302.5 605.75 303.55 M534.3 439.5 Q535.4 438.5 536.8 438.5 538.15 438.5 539.2 439.55 540.25 440.5 540.2 441.95 L540.2 454.1 Q540.2 455.5 539.25 456.5 538.2 457.5 536.85 457.55 535.45 457.55 534.4 456.45 533.4 455.5 533.35 454.05 L533.35 441.95 Q533.35 440.45 534.3 439.5"/>
    <path stroke="none" fill="#FF6600" d="M711.55 365.75 Q711.6 367.2 710.65 368.2 709.65 369.2 708.15 369.15 706.75 369.2 705.7 368.2 L697.15 359.6 Q696.1 358.55 696.1 357.2 696.15 355.75 697.15 354.75 698.1 353.8 699.55 353.8 701 353.75 702 354.8 L710.6 363.4 Q711.6 364.4 711.55 365.75 M683.7 330.35 Q684.1 331.7 683.4 332.95 L677.3 343.45 Q676.6 344.7 675.25 345.05 673.85 345.45 672.65 344.75 671.45 344.05 671.1 342.6 670.7 341.25 671.4 340 L677.5 329.5 Q678.2 328.25 679.55 327.9 680.95 327.55 682.15 328.25 683.35 328.95 683.7 330.35 M557.55 316.9 Q558.95 316.55 560.15 317.25 561.35 317.95 561.7 319.35 562.1 320.7 561.4 321.95 L555.3 332.45 Q554.6 333.7 553.25 334.05 551.85 334.45 550.65 333.75 549.45 333.05 549.1 331.6 548.7 330.25 549.4 329 L555.5 318.5 Q556.2 317.25 557.55 316.9 M634.2 293.25 Q635.15 292.3 636.6 292.3 638.05 292.25 639.05 293.3 L647.65 301.9 Q648.65 302.9 648.6 304.25 648.65 305.7 647.7 306.7 646.7 307.7 645.2 307.65 643.8 307.7 642.75 306.7 L634.2 298.1 Q633.15 297.05 633.15 295.7 633.2 294.25 634.2 293.25 M541.25 388.2 L532.7 379.6 Q531.65 378.55 531.65 377.2 531.7 375.75 532.7 374.75 533.65 373.8 535.1 373.8 536.55 373.75 537.55 374.8 L546.15 383.4 Q547.15 384.4 547.1 385.75 547.15 387.2 546.2 388.2 545.2 389.2 543.7 389.15 542.3 389.2 541.25 388.2 M571.2 458.65 Q569.8 458.7 568.75 457.7 L560.2 449.1 Q559.15 448.05 559.15 446.7 559.2 445.25 560.2 444.25 561.15 443.3 562.6 443.3 564.05 443.25 565.05 444.3 L573.65 452.9 Q574.65 453.9 574.6 455.25 574.65 456.7 573.7 457.7 572.7 458.7 571.2 458.65 M530.2 410.85 Q530.6 412.2 529.9 413.45 L523.8 423.95 Q523.1 425.2 521.75 425.55 520.35 425.95 519.15 425.25 517.95 424.55 517.6 423.1 517.2 421.75 517.9 420.5 L524 410 Q524.7 408.75 526.05 408.4 527.45 408.05 528.65 408.75 529.85 409.45 530.2 410.85 M616.6 459.8 Q618.05 459.75 619.05 460.8 L627.65 469.4 Q628.65 470.4 628.6 471.75 628.65 473.2 627.7 474.2 626.7 475.2 625.2 475.15 623.8 475.2 622.75 474.2 L614.2 465.6 Q613.15 464.55 613.15 463.2 613.2 461.75 614.2 460.75 615.15 459.8 616.6 459.8 M603.5 486.5 Q604.2 485.25 605.55 484.9 606.95 484.55 608.15 485.25 609.35 485.95 609.7 487.35 610.1 488.7 609.4 489.95 L603.3 500.45 Q602.6 501.7 601.25 502.05 599.85 502.45 598.65 501.75 597.45 501.05 597.1 499.6 596.7 498.25 597.4 497 L603.5 486.5"/>
    <path stroke="none" fill="#FFCCFF" d="M671.4 448.8 L681.9 454.85 Q683.2 455.65 683.55 456.9 683.95 458.35 683.2 459.6 L681.65 460.95 681.05 461.15 Q679.75 461.55 678.5 460.85 L667.95 454.7 Q666.75 454 666.4 452.7 666.05 451.3 666.65 450.15 667.35 448.9 668.85 448.55 L671.3 448.75 671.4 448.8 M701.15 423.9 Q702.65 423.6 703.75 424.2 705.1 424.95 705.45 426.4 705.65 427.4 705.3 428.45 L705 429 Q704.35 430.2 703 430.55 L691.2 433.7 Q689.85 434.05 688.7 433.35 687.45 432.6 687.05 431.4 686.65 430 687.45 428.7 688.1 427.55 689.35 427.1 L689.45 427.1 701.15 423.9 M579.65 328.25 L579.75 328.3 590.25 334.35 Q591.55 335.15 591.9 336.4 592.3 337.85 591.55 339.1 L590 340.45 589.4 340.65 Q588.1 341.05 586.85 340.35 L576.3 334.2 Q575.1 333.5 574.75 332.2 574.4 330.8 575 329.65 575.7 328.4 577.2 328.05 L579.65 328.25 M567.4 479.1 L567.5 479.1 579.2 475.9 Q580.7 475.6 581.8 476.2 583.15 476.95 583.5 478.4 583.7 479.4 583.35 480.45 L583.05 481 Q582.4 482.2 581.05 482.55 L569.25 485.7 Q567.9 486.05 566.75 485.35 565.5 484.6 565.1 483.4 564.7 482 565.5 480.7 566.15 479.55 567.4 479.1 M546.15 415.25 L546.25 415.3 556.75 421.35 Q558.05 422.15 558.4 423.4 558.8 424.85 558.05 426.1 557.5 427 556.5 427.45 L555.9 427.65 Q554.6 428.05 553.35 427.35 L542.8 421.2 Q541.6 420.5 541.25 419.2 540.9 417.8 541.5 416.65 542.2 415.4 543.7 415.05 L546.15 415.25"/>
    <path stroke="none" fill="#A879E0" d="M809.9 318.05 L809.9 305.95 Q809.9 304.45 810.85 303.5 811.95 302.5 813.35 302.5 814.7 302.5 815.75 303.55 816.8 304.5 816.75 305.95 L816.75 318.1 Q816.75 319.5 815.8 320.5 814.75 321.5 813.4 321.55 812 321.55 810.95 320.45 809.95 319.5 809.9 318.05 M751.55 344.55 Q752.85 343.8 754.15 344.1 755.6 344.55 756.3 345.8 756.95 346.95 756.55 348.4 756.25 349.75 755 350.5 L744.45 356.55 Q743.25 357.25 741.9 356.9 740.5 356.5 739.8 355.4 739.1 354.15 739.55 352.7 739.85 351.35 741.05 350.6 L751.55 344.55 M870.3 325.3 Q870.95 326.45 870.55 327.9 870.25 329.25 869 330 L858.45 336.05 Q857.25 336.75 855.9 336.4 854.5 336 853.8 334.9 853.1 333.65 853.55 332.2 853.85 330.85 855.05 330.1 L865.55 324.05 Q866.85 323.3 868.15 323.6 869.6 324.05 870.3 325.3 M899.4 387.45 Q899.4 385.95 900.35 385 901.45 384 902.85 384 904.2 384 905.25 385.05 906.3 386 906.25 387.45 L906.25 399.6 Q906.25 401 905.3 402 904.25 403 902.9 403.05 901.5 403.05 900.45 401.95 899.45 401 899.4 399.55 L899.4 387.45 M850.3 489.4 Q849.6 488.15 850.05 486.7 850.35 485.35 851.55 484.6 L862.05 478.55 Q863.35 477.8 864.65 478.1 866.1 478.55 866.8 479.8 867.45 480.95 867.05 482.4 866.75 483.75 865.5 484.5 L854.95 490.55 Q853.75 491.25 852.4 490.9 851 490.5 850.3 489.4 M746.8 438.5 Q748.15 438.5 749.2 439.55 750.25 440.5 750.2 441.95 L750.2 454.1 Q750.2 455.5 749.25 456.5 748.2 457.5 746.85 457.55 745.45 457.55 744.4 456.45 743.4 455.5 743.35 454.05 L743.35 441.95 Q743.35 440.45 744.3 439.5 745.4 438.5 746.8 438.5"/>
    <path stroke="none" fill="#66CC99" d="M770.15 317.25 Q771.35 317.95 771.7 319.35 772.1 320.7 771.4 321.95 L765.3 332.45 Q764.6 333.7 763.25 334.05 761.85 334.45 760.65 333.75 759.45 333.05 759.1 331.6 758.7 330.25 759.4 329 L765.5 318.5 Q766.2 317.25 767.55 316.9 768.95 316.55 770.15 317.25 M844.2 293.25 Q845.15 292.3 846.6 292.3 848.05 292.25 849.05 293.3 L857.65 301.9 Q858.65 302.9 858.6 304.25 858.65 305.7 857.7 306.7 856.7 307.7 855.2 307.65 853.8 307.7 852.75 306.7 L844.2 298.1 Q843.15 297.05 843.15 295.7 843.2 294.25 844.2 293.25 M742.7 374.75 Q743.65 373.8 745.1 373.8 746.55 373.75 747.55 374.8 L756.15 383.4 Q757.15 384.4 757.1 385.75 757.15 387.2 756.2 388.2 755.2 389.2 753.7 389.15 752.3 389.2 751.25 388.2 L742.7 379.6 Q741.65 378.55 741.65 377.2 741.7 375.75 742.7 374.75 M921.55 365.75 Q921.6 367.2 920.65 368.2 919.65 369.2 918.15 369.15 916.75 369.2 915.7 368.2 L907.15 359.6 Q906.1 358.55 906.1 357.2 906.15 355.75 907.15 354.75 908.1 353.8 909.55 353.8 911 353.75 912 354.8 L920.6 363.4 Q921.6 364.4 921.55 365.75 M882.65 344.75 Q881.45 344.05 881.1 342.6 880.7 341.25 881.4 340 L887.5 329.5 Q888.2 328.25 889.55 327.9 890.95 327.55 892.15 328.25 893.35 328.95 893.7 330.35 894.1 331.7 893.4 332.95 L887.3 343.45 Q886.6 344.7 885.25 345.05 883.85 345.45 882.65 344.75 M813.5 486.5 Q814.2 485.25 815.55 484.9 816.95 484.55 818.15 485.25 819.35 485.95 819.7 487.35 820.1 488.7 819.4 489.95 L813.3 500.45 Q812.6 501.7 811.25 502.05 809.85 502.45 808.65 501.75 807.45 501.05 807.1 499.6 806.7 498.25 807.4 497 L813.5 486.5 M826.6 459.8 Q828.05 459.75 829.05 460.8 L837.65 469.4 Q838.65 470.4 838.6 471.75 838.65 473.2 837.7 474.2 836.7 475.2 835.2 475.15 833.8 475.2 832.75 474.2 L824.2 465.6 Q823.15 464.55 823.15 463.2 823.2 461.75 824.2 460.75 825.15 459.8 826.6 459.8 M772.6 443.3 Q774.05 443.25 775.05 444.3 L783.65 452.9 Q784.65 453.9 784.6 455.25 784.65 456.7 783.7 457.7 782.7 458.7 781.2 458.65 779.8 458.7 778.75 457.7 L770.2 449.1 Q769.15 448.05 769.15 446.7 769.2 445.25 770.2 444.25 771.15 443.3 772.6 443.3 M740.2 410.85 Q740.6 412.2 739.9 413.45 L733.8 423.95 Q733.1 425.2 731.75 425.55 730.35 425.95 729.15 425.25 727.95 424.55 727.6 423.1 727.2 421.75 727.9 420.5 L734 410 Q734.7 408.75 736.05 408.4 737.45 408.05 738.65 408.75 739.85 409.45 740.2 410.85"/>
    <path stroke="none" fill="#FFCCFF" d="M786.3 334.2 Q785.1 333.5 784.75 332.2 784.4 330.8 785 329.65 785.7 328.4 787.2 328.05 L789.65 328.25 789.75 328.3 800.25 334.35 Q801.55 335.15 801.9 336.4 802.3 337.85 801.55 339.1 L800 340.45 799.4 340.65 Q798.1 341.05 796.85 340.35 L786.3 334.2 M891.9 454.85 Q893.2 455.65 893.55 456.9 893.95 458.35 893.2 459.6 892.65 460.5 891.65 460.95 L891.05 461.15 Q889.75 461.55 888.5 460.85 L877.95 454.7 Q876.75 454 876.4 452.7 876.05 451.3 876.65 450.15 877.35 448.9 878.85 448.55 L881.3 448.75 881.4 448.8 891.9 454.85 M899.45 427.1 L911.15 423.9 Q912.65 423.6 913.75 424.2 915.1 424.95 915.45 426.4 915.65 427.4 915.3 428.45 L915 429 Q914.35 430.2 913 430.55 L901.2 433.7 Q899.85 434.05 898.7 433.35 897.45 432.6 897.05 431.4 896.65 430 897.45 428.7 898.1 427.55 899.35 427.1 L899.45 427.1 M756.15 415.25 L756.25 415.3 766.75 421.35 Q768.05 422.15 768.4 423.4 768.8 424.85 768.05 426.1 767.5 427 766.5 427.45 L765.9 427.65 Q764.6 428.05 763.35 427.35 L752.8 421.2 Q751.6 420.5 751.25 419.2 750.9 417.8 751.5 416.65 752.2 415.4 753.7 415.05 L756.15 415.25 M776.75 485.35 Q775.5 484.6 775.1 483.4 774.7 482 775.5 480.7 776.15 479.55 777.4 479.1 L777.5 479.1 789.2 475.9 Q790.7 475.6 791.8 476.2 793.15 476.95 793.5 478.4 793.7 479.4 793.35 480.45 L793.05 481 Q792.4 482.2 791.05 482.55 L779.25 485.7 Q777.9 486.05 776.75 485.35"/>
    <path stroke="none" fill="#F3E5D4" d="M867.05 712.4 Q866.75 713.75 865.5 714.5 L854.95 720.55 Q853.75 721.25 852.4 720.9 851 720.5 850.3 719.4 849.6 718.15 850.05 716.7 850.35 715.35 851.55 714.6 L862.05 708.55 Q863.35 707.8 864.65 708.1 866.1 708.55 866.8 709.8 867.45 710.95 867.05 712.4 M824.2 690.75 Q825.15 689.8 826.6 689.8 828.05 689.75 829.05 690.8 L837.65 699.4 Q838.65 700.4 838.6 701.75 838.65 703.2 837.7 704.2 836.7 705.2 835.2 705.15 833.8 705.2 832.75 704.2 L824.2 695.6 Q823.15 694.55 823.15 693.2 823.2 691.75 824.2 690.75 M891.9 684.85 Q893.2 685.65 893.55 686.9 893.95 688.35 893.2 689.6 892.65 690.5 891.65 690.95 L891.05 691.15 Q889.75 691.55 888.5 690.85 L877.95 684.7 Q876.75 684 876.4 682.7 876.05 681.3 876.65 680.15 877.35 678.9 878.85 678.55 L881.3 678.75 881.4 678.8 891.9 684.85 M913.75 654.2 Q915.1 654.95 915.45 656.4 915.65 657.4 915.3 658.45 L915 659 Q914.35 660.2 913 660.55 L901.2 663.7 Q899.85 664.05 898.7 663.35 897.45 662.6 897.05 661.4 896.65 660 897.45 658.7 898.1 657.55 899.35 657.1 L899.45 657.1 911.15 653.9 Q912.65 653.6 913.75 654.2 M902.85 614 Q904.2 614 905.25 615.05 906.3 616 906.25 617.45 L906.25 629.6 Q906.25 631 905.3 632 904.25 633 902.9 633.05 901.5 633.05 900.45 631.95 899.45 631 899.4 629.55 L899.4 617.45 Q899.4 615.95 900.35 615 901.45 614 902.85 614 M807.1 729.6 Q806.7 728.25 807.4 727 L813.5 716.5 Q814.2 715.25 815.55 714.9 816.95 714.55 818.15 715.25 819.35 715.95 819.7 717.35 820.1 718.7 819.4 719.95 L813.3 730.45 Q812.6 731.7 811.25 732.05 809.85 732.45 808.65 731.75 807.45 731.05 807.1 729.6 M793.35 710.45 L793.05 711 Q792.4 712.2 791.05 712.55 L779.25 715.7 Q777.9 716.05 776.75 715.35 775.5 714.6 775.1 713.4 774.7 712 775.5 710.7 776.15 709.55 777.4 709.1 L777.5 709.1 789.2 705.9 Q790.7 705.6 791.8 706.2 793.15 706.95 793.5 708.4 793.7 709.4 793.35 710.45 M770.2 674.25 Q771.15 673.3 772.6 673.3 774.05 673.25 775.05 674.3 L783.65 682.9 Q784.65 683.9 784.6 685.25 784.65 686.7 783.7 687.7 782.7 688.7 781.2 688.65 779.8 688.7 778.75 687.7 L770.2 679.1 Q769.15 678.05 769.15 676.7 769.2 675.25 770.2 674.25 M746.8 668.5 Q748.15 668.5 749.2 669.55 750.25 670.5 750.2 671.95 L750.2 684.1 Q750.2 685.5 749.25 686.5 748.2 687.5 746.85 687.55 745.45 687.55 744.4 686.45 743.4 685.5 743.35 684.05 L743.35 671.95 Q743.35 670.45 744.3 669.5 745.4 668.5 746.8 668.5 M766.75 651.35 Q768.05 652.15 768.4 653.4 768.8 654.85 768.05 656.1 767.5 657 766.5 657.45 L765.9 657.65 Q764.6 658.05 763.35 657.35 L752.8 651.2 Q751.6 650.5 751.25 649.2 750.9 647.8 751.5 646.65 752.2 645.4 753.7 645.05 L756.15 645.25 756.25 645.3 766.75 651.35 M740.2 640.85 Q740.6 642.2 739.9 643.45 L733.8 653.95 Q733.1 655.2 731.75 655.55 730.35 655.95 729.15 655.25 727.95 654.55 727.6 653.1 727.2 651.75 727.9 650.5 L734 640 Q734.7 638.75 736.05 638.4 737.45 638.05 738.65 638.75 739.85 639.45 740.2 640.85 M757.1 615.75 Q757.15 617.2 756.2 618.2 755.2 619.2 753.7 619.15 752.3 619.2 751.25 618.2 L742.7 609.6 Q741.65 608.55 741.65 607.2 741.7 605.75 742.7 604.75 743.65 603.8 745.1 603.8 746.55 603.75 747.55 604.8 L756.15 613.4 Q757.15 614.4 757.1 615.75 M789.75 558.3 L800.25 564.35 Q801.55 565.15 801.9 566.4 802.3 567.85 801.55 569.1 L800 570.45 799.4 570.65 Q798.1 571.05 796.85 570.35 L786.3 564.2 Q785.1 563.5 784.75 562.2 784.4 560.8 785 559.65 785.7 558.4 787.2 558.05 L789.65 558.25 789.75 558.3 M739.55 582.7 Q739.85 581.35 741.05 580.6 L751.55 574.55 Q752.85 573.8 754.15 574.1 755.6 574.55 756.3 575.8 756.95 576.95 756.55 578.4 756.25 579.75 755 580.5 L744.45 586.55 Q743.25 587.25 741.9 586.9 740.5 586.5 739.8 585.4 739.1 584.15 739.55 582.7 M760.65 563.75 Q759.45 563.05 759.1 561.6 758.7 560.25 759.4 559 L765.5 548.5 Q766.2 547.25 767.55 546.9 768.95 546.55 770.15 547.25 771.35 547.95 771.7 549.35 772.1 550.7 771.4 551.95 L765.3 562.45 Q764.6 563.7 763.25 564.05 761.85 564.45 760.65 563.75 M906.1 587.2 Q906.15 585.75 907.15 584.75 908.1 583.8 909.55 583.8 911 583.75 912 584.8 L920.6 593.4 Q921.6 594.4 921.55 595.75 921.6 597.2 920.65 598.2 919.65 599.2 918.15 599.15 916.75 599.2 915.7 598.2 L907.15 589.6 Q906.1 588.55 906.1 587.2 M865.55 554.05 Q866.85 553.3 868.15 553.6 869.6 554.05 870.3 555.3 870.95 556.45 870.55 557.9 870.25 559.25 869 560 L858.45 566.05 Q857.25 566.75 855.9 566.4 854.5 566 853.8 564.9 853.1 563.65 853.55 562.2 853.85 560.85 855.05 560.1 L865.55 554.05 M887.5 559.5 Q888.2 558.25 889.55 557.9 890.95 557.55 892.15 558.25 893.35 558.95 893.7 560.35 894.1 561.7 893.4 562.95 L887.3 573.45 Q886.6 574.7 885.25 575.05 883.85 575.45 882.65 574.75 881.45 574.05 881.1 572.6 880.7 571.25 881.4 570 L887.5 559.5 M813.35 532.5 Q814.7 532.5 815.75 533.55 816.8 534.5 816.75 535.95 L816.75 548.1 Q816.75 549.5 815.8 550.5 814.75 551.5 813.4 551.55 812 551.55 810.95 550.45 809.95 549.5 809.9 548.05 L809.9 535.95 Q809.9 534.45 810.85 533.5 811.95 532.5 813.35 532.5 M857.65 531.9 Q858.65 532.9 858.6 534.25 858.65 535.7 857.7 536.7 856.7 537.7 855.2 537.65 853.8 537.7 852.75 536.7 L844.2 528.1 Q843.15 527.05 843.15 525.7 843.2 524.25 844.2 523.25 845.15 522.3 846.6 522.3 848.05 522.25 849.05 523.3 L857.65 531.9"/>
    <path stroke="none" fill="#5F4F38" d="M608.15 715.25 Q609.35 715.95 609.7 717.35 610.1 718.7 609.4 719.95 L603.3 730.45 Q602.6 731.7 601.25 732.05 599.85 732.45 598.65 731.75 597.45 731.05 597.1 729.6 596.7 728.25 597.4 727 L603.5 716.5 Q604.2 715.25 605.55 714.9 606.95 714.55 608.15 715.25 M566.75 715.35 Q565.5 714.6 565.1 713.4 564.7 712 565.5 710.7 566.15 709.55 567.4 709.1 L567.5 709.1 579.2 705.9 Q580.7 705.6 581.8 706.2 583.15 706.95 583.5 708.4 583.7 709.4 583.35 710.45 L583.05 711 Q582.4 712.2 581.05 712.55 L569.25 715.7 Q567.9 716.05 566.75 715.35 M536.8 668.5 Q538.15 668.5 539.2 669.55 540.25 670.5 540.2 671.95 L540.2 684.1 Q540.2 685.5 539.25 686.5 538.2 687.5 536.85 687.55 535.45 687.55 534.4 686.45 533.4 685.5 533.35 684.05 L533.35 671.95 Q533.35 670.45 534.3 669.5 535.4 668.5 536.8 668.5 M558.4 653.4 Q558.8 654.85 558.05 656.1 557.5 657 556.5 657.45 L555.9 657.65 Q554.6 658.05 553.35 657.35 L542.8 651.2 Q541.6 650.5 541.25 649.2 540.9 647.8 541.5 646.65 542.2 645.4 543.7 645.05 L546.15 645.25 546.25 645.3 556.75 651.35 Q558.05 652.15 558.4 653.4 M528.65 638.75 Q529.85 639.45 530.2 640.85 530.6 642.2 529.9 643.45 L523.8 653.95 Q523.1 655.2 521.75 655.55 520.35 655.95 519.15 655.25 517.95 654.55 517.6 653.1 517.2 651.75 517.9 650.5 L524 640 Q524.7 638.75 526.05 638.4 527.45 638.05 528.65 638.75 M532.7 604.75 Q533.65 603.8 535.1 603.8 536.55 603.75 537.55 604.8 L546.15 613.4 Q547.15 614.4 547.1 615.75 547.15 617.2 546.2 618.2 545.2 619.2 543.7 619.15 542.3 619.2 541.25 618.2 L532.7 609.6 Q531.65 608.55 531.65 607.2 531.7 605.75 532.7 604.75 M614.2 690.75 Q615.15 689.8 616.6 689.8 618.05 689.75 619.05 690.8 L627.65 699.4 Q628.65 700.4 628.6 701.75 628.65 703.2 627.7 704.2 626.7 705.2 625.2 705.15 623.8 705.2 622.75 704.2 L614.2 695.6 Q613.15 694.55 613.15 693.2 613.2 691.75 614.2 690.75 M573.65 682.9 Q574.65 683.9 574.6 685.25 574.65 686.7 573.7 687.7 572.7 688.7 571.2 688.65 569.8 688.7 568.75 687.7 L560.2 679.1 Q559.15 678.05 559.15 676.7 559.2 675.25 560.2 674.25 561.15 673.3 562.6 673.3 564.05 673.25 565.05 674.3 L573.65 682.9 M590.25 564.35 Q591.55 565.15 591.9 566.4 592.3 567.85 591.55 569.1 L590 570.45 589.4 570.65 Q588.1 571.05 586.85 570.35 L576.3 564.2 Q575.1 563.5 574.75 562.2 574.4 560.8 575 559.65 575.7 558.4 577.2 558.05 L579.65 558.25 579.75 558.3 590.25 564.35 M600.85 533.5 Q601.95 532.5 603.35 532.5 604.7 532.5 605.75 533.55 606.8 534.5 606.75 535.95 L606.75 548.1 Q606.75 549.5 605.8 550.5 604.75 551.5 603.4 551.55 602 551.55 600.95 550.45 599.95 549.5 599.9 548.05 L599.9 535.95 Q599.9 534.45 600.85 533.5 M645.2 537.65 Q643.8 537.7 642.75 536.7 L634.2 528.1 Q633.15 527.05 633.15 525.7 633.2 524.25 634.2 523.25 635.15 522.3 636.6 522.3 638.05 522.25 639.05 523.3 L647.65 531.9 Q648.65 532.9 648.6 534.25 648.65 535.7 647.7 536.7 646.7 537.7 645.2 537.65 M544.15 574.1 Q545.6 574.55 546.3 575.8 546.95 576.95 546.55 578.4 546.25 579.75 545 580.5 L534.45 586.55 Q533.25 587.25 531.9 586.9 530.5 586.5 529.8 585.4 529.1 584.15 529.55 582.7 529.85 581.35 531.05 580.6 L541.55 574.55 Q542.85 573.8 544.15 574.1 M561.7 549.35 Q562.1 550.7 561.4 551.95 L555.3 562.45 Q554.6 563.7 553.25 564.05 551.85 564.45 550.65 563.75 549.45 563.05 549.1 561.6 548.7 560.25 549.4 559 L555.5 548.5 Q556.2 547.25 557.55 546.9 558.95 546.55 560.15 547.25 561.35 547.95 561.7 549.35 M656.8 709.8 Q657.45 710.95 657.05 712.4 656.75 713.75 655.5 714.5 L644.95 720.55 Q643.75 721.25 642.4 720.9 641 720.5 640.3 719.4 639.6 718.15 640.05 716.7 640.35 715.35 641.55 714.6 L652.05 708.55 Q653.35 707.8 654.65 708.1 656.1 708.55 656.8 709.8 M667.95 684.7 Q666.75 684 666.4 682.7 666.05 681.3 666.65 680.15 667.35 678.9 668.85 678.55 L671.3 678.75 671.4 678.8 681.9 684.85 Q683.2 685.65 683.55 686.9 683.95 688.35 683.2 689.6 L681.65 690.95 681.05 691.15 Q679.75 691.55 678.5 690.85 L667.95 684.7 M687.05 661.4 Q686.65 660 687.45 658.7 688.1 657.55 689.35 657.1 L689.45 657.1 701.15 653.9 Q702.65 653.6 703.75 654.2 705.1 654.95 705.45 656.4 705.65 657.4 705.3 658.45 L705 659 Q704.35 660.2 703 660.55 L691.2 663.7 Q689.85 664.05 688.7 663.35 687.45 662.6 687.05 661.4 M692.85 614 Q694.2 614 695.25 615.05 696.3 616 696.25 617.45 L696.25 629.6 Q696.25 631 695.3 632 694.25 633 692.9 633.05 691.5 633.05 690.45 631.95 689.45 631 689.4 629.55 L689.4 617.45 Q689.4 615.95 690.35 615 691.45 614 692.85 614 M697.15 584.75 Q698.1 583.8 699.55 583.8 701 583.75 702 584.8 L710.6 593.4 Q711.6 594.4 711.55 595.75 711.6 597.2 710.65 598.2 709.65 599.2 708.15 599.15 706.75 599.2 705.7 598.2 L697.15 589.6 Q696.1 588.55 696.1 587.2 696.15 585.75 697.15 584.75 M660.55 557.9 Q660.25 559.25 659 560 L648.45 566.05 Q647.25 566.75 645.9 566.4 644.5 566 643.8 564.9 643.1 563.65 643.55 562.2 643.85 560.85 645.05 560.1 L655.55 554.05 Q656.85 553.3 658.15 553.6 659.6 554.05 660.3 555.3 660.95 556.45 660.55 557.9 M682.15 558.25 Q683.35 558.95 683.7 560.35 684.1 561.7 683.4 562.95 L677.3 573.45 Q676.6 574.7 675.25 575.05 673.85 575.45 672.65 574.75 671.45 574.05 671.1 572.6 670.7 571.25 671.4 570 L677.5 559.5 Q678.2 558.25 679.55 557.9 680.95 557.55 682.15 558.25"/>
    <path stroke="none" fill="#2A2010" d="M1296.35 49.95 Q1330 87 1330 138 1330 192.7 1291.35 231.4 1252.7 270 1198 270 1147 270 1109.95 236.4 L1106.05 232.75 1104.7 231.4 1099.65 226.15 1099.65 226.1 Q1066 189 1066 138 1066 83.35 1104.7 44.7 1143.35 6 1198 6 1249 6 1286.05 39.65 L1291.35 44.7 1291.8 45.15 1296.3 49.9 1296.35 49.95 M1289 48 L1288.5 47.5 1283.35 42.6 Q1247.45 10 1198 10 1145 10 1107.5 47.5 1070 85 1070 138 1070 187.45 1102.6 223.45 L1107.5 228.55 1108.85 229.9 1112.6 233.4 Q1148.55 266 1198 266 1251.05 266 1288.5 228.55 1326 191.05 1326 138 1326 88.55 1293.35 52.6 L1289 48"/>
    <path stroke="none" fill="#625138" d="M1289 48 L1288.5 48.55 1288.05 48 Q1253.85 20 1208 20 1155 20 1117.5 57.5 1080 95 1080 148 1080 193.8 1108 228.05 L1109.5 229.25 1108.85 229.9 1107.5 228.55 1102.6 223.45 Q1070 187.45 1070 138 1070 85 1107.5 47.5 1145 10 1198 10 1247.45 10 1283.35 42.6 L1288.5 47.5 1289 48 M1200.35 96.55 L1201.1 96.55 Q1216.05 96.55 1227.45 105.1 1228.85 106.15 1230.25 107.35 L1232.6 109.6 Q1235.1 112.05 1237.1 114.75 1245.65 126.15 1245.65 141.1 1245.65 159.6 1232.6 172.6 1219.6 185.65 1201.1 185.65 1186.15 185.65 1174.75 177.1 L1169.6 172.6 1167.65 170.55 1165.1 167.45 Q1156.55 156.05 1156.55 141.1 L1156.55 140.35 Q1157.15 152.8 1164.45 162.5 1166.3 164.95 1168.65 167.3 L1169.8 168.4 1173.45 171.5 Q1184.05 179.45 1198 179.45 1215.2 179.45 1227.3 167.3 1239.45 155.2 1239.45 138 1239.45 124.05 1231.5 113.45 L1228.15 109.5 1227.3 108.65 Q1224.95 106.3 1222.5 104.45 1212.8 97.15 1200.35 96.55"/>
    <path stroke="none" fill="#3A2E1B" d="M1108.85 229.9 L1109.5 229.25 Q1143.2 256 1188 256 1241.05 256 1278.5 218.55 1316 181.05 1316 128 1316 82.55 1288.5 48.55 L1289 48 1293.35 52.6 Q1326 88.55 1326 138 1326 191.05 1288.5 228.55 1251.05 266 1198 266 1148.55 266 1112.6 233.4 L1108.85 229.9"/>
    <path stroke="none" fill="#483A25" d="M1109.5 229.25 L1108 228.05 Q1080 193.8 1080 148 1080 95 1117.5 57.5 1155 20 1208 20 1253.85 20 1288.05 48 L1288.5 48.55 Q1316 82.55 1316 128 1316 181.05 1278.5 218.55 1241.05 256 1188 256 1143.2 256 1109.5 229.25 M1156.55 140.35 L1156.55 141.1 Q1156.55 156.05 1165.1 167.45 L1167.65 170.55 1169.6 172.6 1174.75 177.1 Q1186.15 185.65 1201.1 185.65 1219.6 185.65 1232.6 172.6 1245.65 159.6 1245.65 141.1 1245.65 126.15 1237.1 114.75 1235.1 112.05 1232.6 109.6 L1230.25 107.35 Q1228.85 106.15 1227.45 105.1 1216.05 96.55 1201.1 96.55 L1200.35 96.55 1198 96.5 Q1180.8 96.5 1168.65 108.65 1156.5 120.8 1156.5 138 L1156.55 140.35"/>
    <path stroke="none" fill="#382F23" d="M1156.55 140.35 L1156.5 138 Q1156.5 120.8 1168.65 108.65 1180.8 96.5 1198 96.5 L1200.35 96.55 Q1212.8 97.15 1222.5 104.45 1224.95 106.3 1227.3 108.65 L1228.15 109.5 1231.5 113.45 Q1239.45 124.05 1239.45 138 1239.45 155.2 1227.3 167.3 1215.2 179.45 1198 179.45 1184.05 179.45 1173.45 171.5 L1169.8 168.4 1168.65 167.3 Q1166.3 164.95 1164.45 162.5 1157.15 152.8 1156.55 140.35 M1160.5 138 Q1160.5 150.55 1167.65 160.1 L1171.5 164.5 1172.6 165.55 1175.85 168.3 1175.9 168.35 Q1185.45 175.45 1198 175.45 1213.55 175.45 1224.5 164.5 1235.45 153.55 1235.45 138 1235.45 125.45 1228.35 115.9 L1228.3 115.85 1225.3 112.35 1224.5 111.5 1220.1 107.65 Q1210.55 100.5 1198 100.5 1182.45 100.5 1171.5 111.5 1160.5 122.45 1160.5 138"/>
    <path stroke="none" fill="#ECAB5B" d="M1074 296.05 Q1074.25 296.45 1074.15 296.9 L1072.15 306.65 1071.75 307.35 1071.1 307.65 1063.3 308.45 1062.6 308.3 1062.15 307.8 1058.45 301.55 Q1058.25 301.2 1058.3 300.9 L1058.5 300.25 1063.5 292.95 1064.15 292.4 Q1064.5 292.25 1064.95 292.4 L1073.35 295.45 1074 296.05 M986.45 380.6 Q986.6 381.15 986.35 381.7 L980.8 392.75 980.1 393.45 979.2 393.6 969.65 392 968.85 391.65 968.45 390.9 966.05 382.2 Q965.9 381.75 966.05 381.4 966.15 380.9 966.5 380.65 L974.85 373.5 Q975.25 373.15 975.8 373.1 976.3 373.05 976.75 373.35 L985.85 379.75 986.45 380.6 M1010.85 379.45 L1016.6 386.2 1016.95 386.95 1016.75 387.75 1011.6 395.05 Q1011.3 395.4 1010.9 395.55 L1010 395.45 1001.1 391 1000.55 390.45 Q1000.35 390.05 1000.45 389.7 L1001.7 382 1002 381.35 Q1002.25 381.1 1002.6 381.05 L1009.6 379.1 1010.25 379.1 Q1010.65 379.2 1010.85 379.45 M1133.2 308.6 L1133.8 308.95 1139.55 315.7 1139.9 316.45 1139.7 317.25 1134.55 324.55 1133.85 325.05 1132.95 324.95 1124.05 320.5 1123.5 319.95 Q1123.3 319.55 1123.4 319.2 L1124.65 311.5 1124.95 310.85 1125.55 310.55 1132.55 308.6 1133.2 308.6 M1107.9 341.25 Q1107.85 340.75 1108.15 340.3 L1114.55 331.2 Q1114.9 330.75 1115.4 330.6 L1116.5 330.7 1127.55 336.25 1128.25 336.95 Q1128.5 337.4 1128.4 337.85 L1126.8 347.4 1126.45 348.2 1125.7 348.6 1117 351 1116.2 351 1115.45 350.55 1108.3 342.2 Q1107.95 341.8 1107.9 341.25 M1137.4 442.6 L1138.5 442.7 1149.55 448.25 1150.25 448.95 1150.4 449.85 1148.8 459.4 1148.45 460.2 Q1148.15 460.5 1147.7 460.6 L1139 463 1138.2 463 Q1137.7 462.9 1137.45 462.55 L1130.3 454.2 Q1129.95 453.8 1129.9 453.25 1129.85 452.75 1130.15 452.3 L1136.55 443.2 Q1136.9 442.75 1137.4 442.6 M1061.2 492.35 L1070.3 498.75 Q1070.75 499.1 1070.9 499.6 1071.05 500.15 1070.8 500.7 L1065.25 511.75 1064.55 512.45 1063.65 512.6 1054.1 511 1053.3 510.65 1052.9 509.9 1050.5 501.2 Q1050.35 500.75 1050.5 500.4 1050.6 499.9 1050.95 499.65 L1059.3 492.5 Q1059.7 492.15 1060.25 492.1 1060.75 492.05 1061.2 492.35 M993.75 461.75 L988.6 469.05 987.9 469.55 987 469.45 978.1 465 977.55 464.45 Q977.35 464.05 977.45 463.7 L978.7 456 979 455.35 Q979.25 455.1 979.6 455.05 L986.6 453.1 987.25 453.1 987.85 453.45 993.6 460.2 993.95 460.95 993.75 461.75"/>
    <path stroke="none" fill="#FAB867" d="M1044.2 318.85 L1053.3 325.25 1053.9 326.1 Q1054.05 326.65 1053.8 327.2 L1048.25 338.25 1047.55 338.95 1046.65 339.1 1037.1 337.5 Q1036.65 337.4 1036.3 337.15 L1035.9 336.4 1033.5 327.7 Q1033.35 327.25 1033.5 326.9 1033.6 326.4 1033.95 326.15 L1042.3 319 Q1042.7 318.65 1043.25 318.6 1043.75 318.55 1044.2 318.85 M1157.25 356.1 Q1157.75 356.05 1158.2 356.35 L1167.3 362.75 1167.9 363.6 Q1168.05 364.15 1167.8 364.7 L1162.25 375.75 1161.55 376.45 1160.65 376.6 1151.1 375 1150.3 374.65 1149.9 373.9 1147.5 365.2 Q1147.35 364.75 1147.5 364.4 1147.6 363.9 1147.95 363.65 L1156.3 356.5 Q1156.7 356.15 1157.25 356.1 M1082.8 461.95 L1088.55 468.7 1088.9 469.45 1088.7 470.25 1083.55 477.55 1082.85 478.05 1081.95 477.95 1073.05 473.5 1072.5 472.95 Q1072.3 472.55 1072.4 472.2 L1073.65 464.5 1073.95 463.85 1074.55 463.55 1081.55 461.6 1082.2 461.6 Q1082.6 461.7 1082.8 461.95 M997.45 409.6 L998.55 409.7 1009.6 415.25 1010.3 415.95 Q1010.55 416.4 1010.45 416.85 L1008.85 426.4 1008.5 427.2 Q1008.2 427.5 1007.75 427.6 L999.05 430 998.25 430 Q997.75 429.9 997.5 429.55 L990.35 421.2 Q990 420.8 989.95 420.25 989.9 419.75 990.2 419.3 L996.6 410.2 Q996.95 409.75 997.45 409.6"/>
    <path stroke="none" fill="#DB9E50" d="M990.1 332.55 L997.1 330.6 997.75 330.6 998.35 330.95 1004.1 337.7 1004.45 338.45 1004.25 339.25 999.1 346.55 998.4 347.05 997.5 346.95 988.6 342.5 988.05 341.95 Q987.85 341.55 987.95 341.2 L989.2 333.5 989.5 332.85 Q989.75 332.6 990.1 332.55 M1093.7 317.25 L1088.55 324.55 1087.85 325.05 1086.95 324.95 1078.05 320.5 1077.5 319.95 Q1077.3 319.55 1077.4 319.2 L1078.65 311.5 1078.95 310.85 1079.55 310.55 1086.55 308.6 1087.2 308.6 1087.8 308.95 1093.55 315.7 1093.9 316.45 1093.7 317.25 M1130.1 394.25 L1135.1 386.95 Q1135.3 386.6 1135.75 386.4 1136.1 386.25 1136.55 386.4 L1144.95 389.45 1145.6 390.05 1145.75 390.9 1143.75 400.65 1143.35 401.35 1142.7 401.65 1134.9 402.45 1134.2 402.3 Q1133.9 402.15 1133.75 401.8 L1130.05 395.55 1129.9 394.9 1130.1 394.25 M1160.2 406.6 Q1160.6 406.7 1160.8 406.95 L1166.55 413.7 1166.9 414.45 1166.7 415.25 1161.55 422.55 1160.85 423.05 1159.95 422.95 1151.05 418.5 1150.5 417.95 Q1150.3 417.55 1150.4 417.2 L1151.65 409.5 1151.95 408.85 1152.55 408.55 1159.55 406.6 1160.2 406.6 M1105.95 481.65 L1114.3 474.5 Q1114.7 474.15 1115.25 474.1 1115.75 474.05 1116.2 474.35 L1125.3 480.75 1125.9 481.6 Q1126.05 482.15 1125.8 482.7 L1120.25 493.75 1119.55 494.45 1118.65 494.6 1109.1 493 1108.3 492.65 1107.9 491.9 1105.5 483.2 Q1105.35 482.75 1105.5 482.4 1105.6 481.9 1105.95 481.65 M1022 464.2 L1033.05 469.75 1033.75 470.45 Q1034 470.9 1033.9 471.35 L1032.3 480.9 1031.95 481.7 1031.2 482.1 1022.5 484.5 1021.7 484.5 1020.95 484.05 1013.8 475.7 Q1013.45 475.3 1013.4 474.75 1013.35 474.25 1013.65 473.8 L1020.05 464.7 Q1020.4 464.25 1020.9 464.1 L1022 464.2"/>
    <path stroke="none" fill="#FFFFFF" d="M319.95 969.2 Q313.25 965.65 304.7 963.9 300.6 963.05 297.25 961.5 292.45 959.25 289.15 955.55 288 953.65 287.25 951.5 285.2 945.65 286 938.3 287.15 928.2 285.25 919.6 281.85 911.9 275 904.4 268.1 896.9 267.3 888.25 268.1 879.7 275 872.15 281.85 864.7 285.25 856.9 287.15 848.4 286 838.3 284.9 828.15 289.15 821.05 294.75 814.7 304.7 812.65 314.7 810.65 322.1 806.2 328.55 800.5 333.5 791.65 338.55 782.8 346.35 779.45 354.4 777.65 363.6 781.85 372.9 786.05 381.7 786.8 390.6 786.1 399.85 781.85 409.05 777.65 417.1 779.45 418.2 779.9 419.25 780.5 424.85 783.65 428.9 789.95 L429.2 790.5 429.9 791.65 Q431.65 794.75 433.55 797.45 L431.35 796.2 Q427.85 793.1 424.75 789.05 417.7 788.25 409.85 791.85 400.6 796.1 391.7 796.8 382.9 796.05 373.6 791.85 364.4 787.65 356.35 789.45 348.55 792.8 343.5 801.65 338.55 810.5 332.1 816.2 324.7 820.65 314.7 822.65 304.75 824.7 299.15 831.05 294.9 838.15 296 848.3 297.15 858.4 295.25 866.9 291.85 874.7 285 882.15 278.1 889.7 277.3 898.25 278.1 906.9 285 914.4 291.85 921.9 295.25 929.6 297.15 938.2 296 948.3 295.65 951.35 295.85 954.15 305.1 956.2 312.1 960.4 316.35 964.1 319.95 969.2 M443.55 807.45 Q450.3 810.95 458.8 812.65 L459.45 812.8 Q463.1 813.6 466.15 815.05 470.95 817.3 474.25 821.05 L476.15 825.05 477 827.95 Q478 832.65 477.4 838.3 476.25 848.4 478.25 856.9 481.55 864.7 488.45 872.15 L491.5 875.95 Q495.5 881.8 496.1 888.25 495.3 896.85 488.45 904.4 481.55 911.9 478.25 919.6 476.25 928.2 477.4 938.3 478.5 948.35 474.25 955.55 468.7 961.9 458.8 963.9 448.85 965.9 441.35 970.4 434.9 976.05 429.9 984.85 424.9 993.8 417.1 997.15 409.05 998.9 399.85 994.7 390.6 990.5 381.7 989.7 372.9 990.5 363.6 994.7 354.4 998.9 346.35 997.15 345.25 996.7 344.25 996.15 338.4 992.85 334.25 986.15 L333.5 984.85 329.95 979.2 332.1 980.4 Q335.65 983.5 338.75 987.55 345.75 988.3 353.6 984.7 362.9 980.5 371.7 979.7 380.6 980.5 389.85 984.7 399.05 988.9 407.1 987.15 414.9 983.8 419.9 974.85 424.9 966.05 431.35 960.4 438.85 955.9 448.8 953.9 458.7 951.9 464.25 945.55 468.5 938.35 467.4 928.3 466.25 918.2 468.25 909.6 471.55 901.9 478.45 894.4 485.3 886.85 486.1 878.25 L485.8 875.95 Q484.35 868.7 478.45 862.15 471.55 854.7 468.25 846.9 466.25 838.4 467.4 828.3 L467.45 827.95 467.6 822.4 Q458.4 820.35 451.35 816.2 447.15 812.5 443.55 807.45"/>
    <path stroke="none" fill="#EEEEEE" d="M443.55 807.45 Q447.15 812.5 451.35 816.2 458.4 820.35 467.6 822.4 L467.45 827.95 467.4 828.3 Q466.25 838.4 468.25 846.9 471.55 854.7 478.45 862.15 484.35 868.7 485.8 875.95 L486.1 878.25 Q485.3 886.85 478.45 894.4 471.55 901.9 468.25 909.6 466.25 918.2 467.4 928.3 468.5 938.35 464.25 945.55 458.7 951.9 448.8 953.9 438.85 955.9 431.35 960.4 424.9 966.05 419.9 974.85 414.9 983.8 407.1 987.15 399.05 988.9 389.85 984.7 380.6 980.5 371.7 979.7 362.9 980.5 353.6 984.7 345.75 988.3 338.75 987.55 335.65 983.5 332.1 980.4 L329.95 979.2 Q326.35 974.1 322.1 970.4 L319.95 969.2 Q316.35 964.1 312.1 960.4 305.1 956.2 295.85 954.15 295.65 951.35 296 948.3 297.15 938.2 295.25 929.6 291.85 921.9 285 914.4 278.1 906.9 277.3 898.25 278.1 889.7 285 882.15 291.85 874.7 295.25 866.9 297.15 858.4 296 848.3 294.9 838.15 299.15 831.05 304.75 824.7 314.7 822.65 324.7 820.65 332.1 816.2 338.55 810.5 343.5 801.65 348.55 792.8 356.35 789.45 364.4 787.65 373.6 791.85 382.9 796.05 391.7 796.8 400.6 796.1 409.85 791.85 417.7 788.25 424.75 789.05 427.85 793.1 431.35 796.2 L433.55 797.45 Q437.15 802.5 441.35 806.2 L443.55 807.45 M410.65 830.3 L409.15 827.95 Q406.5 824.5 402.95 823 L402.25 822.85 Q397.75 822.15 392.6 824.45 387.1 826.95 381.7 827.4 376.45 826.95 370.85 824.45 365.35 821.95 360.5 823 355.85 825 352.8 830.3 349.8 835.55 346 839 L345.95 839.05 Q341.5 841.75 335.5 842.9 329.55 844.15 326.15 847.95 323.65 852.25 324.3 858.3 325 864.35 323.85 869.45 321.8 874.15 317.7 878.6 313.55 883.15 313.1 888.25 313.55 893.45 317.7 897.95 321.8 902.45 323.85 907.1 325 912.25 324.3 918.3 324 921.05 324.35 923.45 324.8 926.3 326.15 928.65 329.2 932.1 334.35 933.45 L335.5 933.7 Q339.35 934.45 342.6 935.9 344.35 936.65 345.95 937.6 348.85 940.15 351.25 943.75 L352.6 945.9 352.8 946.25 Q355.85 951.6 360.5 953.6 L361.25 953.75 Q365.75 954.45 370.85 952.15 376.45 949.65 381.7 949.2 387.1 949.65 392.6 952.15 398.15 954.65 402.95 953.6 407.65 951.6 410.65 946.25 413.65 941 417.5 937.6 422 934.85 427.95 933.7 433.9 932.5 437.3 928.65 439.85 924.35 439.15 918.3 438.5 912.25 439.65 907.1 441.65 902.45 445.75 897.95 449.9 893.45 450.35 888.25 450 884.45 447.65 880.95 L445.75 878.6 443.5 875.95 Q441.05 872.75 439.65 869.45 438.5 864.35 439.15 858.3 439.45 855.55 439.15 853.2 438.7 850.3 437.3 847.95 434.25 844.55 429.15 843.2 L427.95 842.9 Q424.15 842.15 420.95 840.8 419.1 840 417.5 839.05 414.6 836.45 412.25 832.85 L410.95 830.8 410.65 830.3"/>
    <path stroke="none" fill="#FFADD6" d="M79.95 969.2 Q73.25 965.65 64.7 963.9 60.6 963.05 57.25 961.5 52.45 959.25 49.15 955.55 48 953.65 47.25 951.5 45.2 945.65 46 938.3 47.15 928.2 45.25 919.6 41.85 911.9 35 904.4 28.1 896.9 27.3 888.25 28.1 879.7 35 872.15 41.85 864.7 45.25 856.9 47.15 848.4 46 838.3 44.9 828.15 49.15 821.05 54.75 814.7 64.7 812.65 74.7 810.65 82.1 806.2 88.55 800.5 93.5 791.65 98.55 782.8 106.35 779.45 114.4 777.65 123.6 781.85 132.9 786.05 141.7 786.8 150.6 786.1 159.85 781.85 169.05 777.65 177.1 779.45 L179.25 780.5 Q184.85 783.65 188.9 789.95 L189.2 790.5 189.9 791.65 Q191.65 794.75 193.55 797.45 L191.35 796.2 Q187.85 793.1 184.75 789.05 177.7 788.25 169.85 791.85 160.6 796.1 151.7 796.8 142.9 796.05 133.6 791.85 124.4 787.65 116.35 789.45 108.55 792.8 103.5 801.65 98.55 810.5 92.1 816.2 84.7 820.65 74.7 822.65 64.75 824.7 59.15 831.05 54.9 838.15 56 848.3 57.15 858.4 55.25 866.9 51.85 874.7 45 882.15 38.1 889.7 37.3 898.25 38.1 906.9 45 914.4 51.85 921.9 55.25 929.6 57.15 938.2 56 948.3 55.65 951.35 55.85 954.15 65.1 956.2 72.1 960.4 76.35 964.1 79.95 969.2 M203.55 807.45 Q210.3 810.95 218.8 812.65 L219.45 812.8 Q223.1 813.6 226.15 815.05 230.95 817.3 234.25 821.05 L236.15 825.05 237 827.95 Q238 832.65 237.4 838.3 236.25 848.4 238.25 856.9 241.55 864.7 248.45 872.15 L251.5 875.95 Q255.5 881.8 256.1 888.25 255.3 896.85 248.45 904.4 241.55 911.9 238.25 919.6 236.25 928.2 237.4 938.3 238.5 948.35 234.25 955.55 228.7 961.9 218.8 963.9 208.85 965.9 201.35 970.4 194.9 976.05 189.9 984.85 184.9 993.8 177.1 997.15 169.05 998.9 159.85 994.7 150.6 990.5 141.7 989.7 132.9 990.5 123.6 994.7 114.4 998.9 106.35 997.15 L104.25 996.15 Q98.4 992.85 94.25 986.15 L93.5 984.85 Q91.8 981.8 89.95 979.2 L92.1 980.4 Q95.65 983.5 98.75 987.55 105.75 988.3 113.6 984.7 122.9 980.5 131.7 979.7 140.6 980.5 149.85 984.7 159.05 988.9 167.1 987.15 174.9 983.8 179.9 974.85 184.9 966.05 191.35 960.4 198.85 955.9 208.8 953.9 218.7 951.9 224.25 945.55 228.5 938.35 227.4 928.3 226.25 918.2 228.25 909.6 231.55 901.9 238.45 894.4 245.3 886.85 246.1 878.25 L245.8 875.95 Q244.35 868.7 238.45 862.15 231.55 854.7 228.25 846.9 226.25 838.4 227.4 828.3 L227.45 827.95 227.6 822.4 Q218.4 820.35 211.35 816.2 207.15 812.5 203.55 807.45"/>
    <path stroke="none" fill="#FF99CC" d="M79.95 969.2 Q76.35 964.1 72.1 960.4 65.1 956.2 55.85 954.15 55.65 951.35 56 948.3 57.15 938.2 55.25 929.6 51.85 921.9 45 914.4 38.1 906.9 37.3 898.25 38.1 889.7 45 882.15 51.85 874.7 55.25 866.9 57.15 858.4 56 848.3 54.9 838.15 59.15 831.05 64.75 824.7 74.7 822.65 84.7 820.65 92.1 816.2 98.55 810.5 103.5 801.65 108.55 792.8 116.35 789.45 124.4 787.65 133.6 791.85 142.9 796.05 151.7 796.8 160.6 796.1 169.85 791.85 177.7 788.25 184.75 789.05 187.85 793.1 191.35 796.2 L193.55 797.45 Q197.15 802.5 201.35 806.2 L203.55 807.45 Q207.15 812.5 211.35 816.2 218.4 820.35 227.6 822.4 L227.45 827.95 227.4 828.3 Q226.25 838.4 228.25 846.9 231.55 854.7 238.45 862.15 244.35 868.7 245.8 875.95 L246.1 878.25 Q245.3 886.85 238.45 894.4 231.55 901.9 228.25 909.6 226.25 918.2 227.4 928.3 228.5 938.35 224.25 945.55 218.7 951.9 208.8 953.9 198.85 955.9 191.35 960.4 184.9 966.05 179.9 974.85 174.9 983.8 167.1 987.15 159.05 988.9 149.85 984.7 140.6 980.5 131.7 979.7 122.9 980.5 113.6 984.7 105.75 988.3 98.75 987.55 95.65 983.5 92.1 980.4 L89.95 979.2 Q86.35 974.1 82.1 970.4 L79.95 969.2 M170.95 830.8 L170.65 830.3 169.15 827.95 Q166.5 824.5 162.95 823 L162.25 822.85 Q157.75 822.15 152.6 824.45 147.1 826.95 141.7 827.4 136.45 826.95 130.85 824.45 125.35 821.95 120.5 823 115.85 825 112.8 830.3 109.8 835.55 106 839 L105.95 839.05 Q101.5 841.75 95.5 842.9 89.55 844.15 86.15 847.95 83.65 852.25 84.3 858.3 85 864.35 83.85 869.45 81.8 874.15 77.7 878.6 73.55 883.15 73.1 888.25 73.55 893.45 77.7 897.95 81.8 902.45 83.85 907.1 85 912.25 84.3 918.3 84 921.05 84.35 923.45 84.8 926.3 86.15 928.65 89.2 932.1 94.35 933.45 L95.5 933.7 Q99.35 934.45 102.6 935.9 L105.95 937.6 Q108.85 940.15 111.25 943.75 L112.6 945.9 112.8 946.25 Q115.85 951.6 120.5 953.6 L121.25 953.75 Q125.75 954.45 130.85 952.15 136.45 949.65 141.7 949.2 147.1 949.65 152.6 952.15 158.15 954.65 162.95 953.6 167.65 951.6 170.65 946.25 173.65 941 177.5 937.6 182 934.85 187.95 933.7 193.9 932.5 197.3 928.65 199.85 924.35 199.15 918.3 198.5 912.25 199.65 907.1 201.65 902.45 205.75 897.95 209.9 893.45 210.35 888.25 210 884.45 207.65 880.95 L205.75 878.6 203.5 875.95 Q201.05 872.75 199.65 869.45 198.5 864.35 199.15 858.3 199.45 855.55 199.15 853.2 198.7 850.3 197.3 847.95 194.25 844.55 189.15 843.2 L187.95 842.9 Q184.15 842.15 180.95 840.8 179.1 840 177.5 839.05 174.6 836.45 172.25 832.85 L170.95 830.8"/>
    <path stroke="none" fill="#6D5F49" d="M79.95 1209.2 Q73.25 1205.65 64.7 1203.9 60.6 1203.05 57.25 1201.5 52.45 1199.25 49.15 1195.55 48 1193.65 47.25 1191.5 45.2 1185.65 46 1178.3 47.15 1168.2 45.25 1159.6 41.85 1151.9 35 1144.4 28.1 1136.9 27.3 1128.25 28.1 1119.7 35 1112.15 41.85 1104.7 45.25 1096.9 47.15 1088.4 46 1078.3 44.9 1068.15 49.15 1061.05 54.75 1054.7 64.7 1052.65 74.7 1050.65 82.1 1046.2 88.55 1040.5 93.5 1031.65 98.55 1022.8 106.35 1019.45 114.4 1017.65 123.6 1021.85 132.9 1026.05 141.7 1026.8 150.6 1026.1 159.85 1021.85 169.05 1017.65 177.1 1019.45 L179.25 1020.5 Q184.85 1023.65 188.9 1029.95 L189.2 1030.5 189.9 1031.65 Q191.65 1034.75 193.55 1037.45 L191.35 1036.2 Q187.85 1033.1 184.75 1029.05 177.7 1028.25 169.85 1031.85 160.6 1036.1 151.7 1036.8 142.9 1036.05 133.6 1031.85 124.4 1027.65 116.35 1029.45 108.55 1032.8 103.5 1041.65 98.55 1050.5 92.1 1056.2 84.7 1060.65 74.7 1062.65 64.75 1064.7 59.15 1071.05 54.9 1078.15 56 1088.3 57.15 1098.4 55.25 1106.9 51.85 1114.7 45 1122.15 38.1 1129.7 37.3 1138.25 38.1 1146.9 45 1154.4 51.85 1161.9 55.25 1169.6 57.15 1178.2 56 1188.3 55.65 1191.35 55.85 1194.15 65.1 1196.2 72.1 1200.4 76.35 1204.1 79.95 1209.2 M203.55 1047.45 Q210.3 1050.95 218.8 1052.65 L219.45 1052.8 Q223.1 1053.6 226.15 1055.05 230.95 1057.3 234.25 1061.05 L236.15 1065.05 237 1067.95 Q238 1072.65 237.4 1078.3 236.25 1088.4 238.25 1096.9 241.55 1104.7 248.45 1112.15 L251.5 1115.95 Q255.5 1121.8 256.1 1128.25 255.3 1136.85 248.45 1144.4 241.55 1151.9 238.25 1159.6 236.25 1168.2 237.4 1178.3 238.5 1188.35 234.25 1195.55 228.7 1201.9 218.8 1203.9 208.85 1205.9 201.35 1210.4 194.9 1216.05 189.9 1224.85 184.9 1233.8 177.1 1237.15 169.05 1238.9 159.85 1234.7 150.6 1230.5 141.7 1229.7 132.9 1230.5 123.6 1234.7 114.4 1238.9 106.35 1237.15 L104.25 1236.15 Q98.4 1232.85 94.25 1226.15 L93.5 1224.85 Q91.8 1221.8 89.95 1219.2 L92.1 1220.4 Q95.65 1223.5 98.75 1227.55 105.75 1228.3 113.6 1224.7 122.9 1220.5 131.7 1219.7 140.6 1220.5 149.85 1224.7 159.05 1228.9 167.1 1227.15 174.9 1223.8 179.9 1214.85 184.9 1206.05 191.35 1200.4 198.85 1195.9 208.8 1193.9 218.7 1191.9 224.25 1185.55 228.5 1178.35 227.4 1168.3 226.25 1158.2 228.25 1149.6 231.55 1141.9 238.45 1134.4 245.3 1126.85 246.1 1118.25 L245.8 1115.95 Q244.35 1108.7 238.45 1102.15 231.55 1094.7 228.25 1086.9 226.25 1078.4 227.4 1068.3 L227.45 1067.95 227.6 1062.4 Q218.4 1060.35 211.35 1056.2 207.15 1052.5 203.55 1047.45"/>
    <path stroke="none" fill="#5F4F38" d="M203.55 1047.45 Q207.15 1052.5 211.35 1056.2 218.4 1060.35 227.6 1062.4 L227.45 1067.95 227.4 1068.3 Q226.25 1078.4 228.25 1086.9 231.55 1094.7 238.45 1102.15 244.35 1108.7 245.8 1115.95 L246.1 1118.25 Q245.3 1126.85 238.45 1134.4 231.55 1141.9 228.25 1149.6 226.25 1158.2 227.4 1168.3 228.5 1178.35 224.25 1185.55 218.7 1191.9 208.8 1193.9 198.85 1195.9 191.35 1200.4 184.9 1206.05 179.9 1214.85 174.9 1223.8 167.1 1227.15 159.05 1228.9 149.85 1224.7 140.6 1220.5 131.7 1219.7 122.9 1220.5 113.6 1224.7 105.75 1228.3 98.75 1227.55 95.65 1223.5 92.1 1220.4 L89.95 1219.2 Q86.35 1214.1 82.1 1210.4 L79.95 1209.2 Q76.35 1204.1 72.1 1200.4 65.1 1196.2 55.85 1194.15 55.65 1191.35 56 1188.3 57.15 1178.2 55.25 1169.6 51.85 1161.9 45 1154.4 38.1 1146.9 37.3 1138.25 38.1 1129.7 45 1122.15 51.85 1114.7 55.25 1106.9 57.15 1098.4 56 1088.3 54.9 1078.15 59.15 1071.05 64.75 1064.7 74.7 1062.65 84.7 1060.65 92.1 1056.2 98.55 1050.5 103.5 1041.65 108.55 1032.8 116.35 1029.45 124.4 1027.65 133.6 1031.85 142.9 1036.05 151.7 1036.8 160.6 1036.1 169.85 1031.85 177.7 1028.25 184.75 1029.05 187.85 1033.1 191.35 1036.2 L193.55 1037.45 Q197.15 1042.5 201.35 1046.2 L203.55 1047.45 M105.95 1079.05 Q101.5 1081.75 95.5 1082.9 89.55 1084.15 86.15 1087.95 83.65 1092.25 84.3 1098.3 85 1104.35 83.85 1109.45 81.8 1114.15 77.7 1118.6 73.55 1123.15 73.1 1128.25 73.55 1133.45 77.7 1137.95 81.8 1142.45 83.85 1147.1 85 1152.25 84.3 1158.3 84 1161.05 84.35 1163.45 84.8 1166.3 86.15 1168.65 89.2 1172.1 94.35 1173.45 L95.5 1173.7 Q99.35 1174.45 102.6 1175.9 L105.95 1177.6 Q108.85 1180.15 111.25 1183.75 L112.6 1185.9 112.8 1186.25 Q115.85 1191.6 120.5 1193.6 L121.25 1193.75 Q125.75 1194.45 130.85 1192.15 136.45 1189.65 141.7 1189.2 147.1 1189.65 152.6 1192.15 158.15 1194.65 162.95 1193.6 167.65 1191.6 170.65 1186.25 173.65 1181 177.5 1177.6 182 1174.85 187.95 1173.7 193.9 1172.5 197.3 1168.65 199.85 1164.35 199.15 1158.3 198.5 1152.25 199.65 1147.1 201.65 1142.45 205.75 1137.95 209.9 1133.45 210.35 1128.25 210 1124.45 207.65 1120.95 L205.75 1118.6 203.5 1115.95 Q201.05 1112.75 199.65 1109.45 198.5 1104.35 199.15 1098.3 199.45 1095.55 199.15 1093.2 198.7 1090.3 197.3 1087.95 194.25 1084.55 189.15 1083.2 L187.95 1082.9 Q184.15 1082.15 180.95 1080.8 179.1 1080 177.5 1079.05 174.6 1076.45 172.25 1072.85 L170.95 1070.8 170.65 1070.3 169.15 1067.95 Q166.5 1064.5 162.95 1063 L162.25 1062.85 Q157.75 1062.15 152.6 1064.45 147.1 1066.95 141.7 1067.4 136.45 1066.95 130.85 1064.45 125.35 1061.95 120.5 1063 115.85 1065 112.8 1070.3 109.8 1075.55 106 1079 L105.95 1079.05"/>
    <path stroke="none" fill="#E2BB89" d="M433.55 1037.45 L431.35 1036.2 Q427.85 1033.1 424.75 1029.05 417.7 1028.25 409.85 1031.85 400.6 1036.1 391.7 1036.8 382.9 1036.05 373.6 1031.85 364.4 1027.65 356.35 1029.45 348.55 1032.8 343.5 1041.65 338.55 1050.5 332.1 1056.2 324.7 1060.65 314.7 1062.65 304.75 1064.7 299.15 1071.05 294.9 1078.15 296 1088.3 297.15 1098.4 295.25 1106.9 291.85 1114.7 285 1122.15 278.1 1129.7 277.3 1138.25 278.1 1146.9 285 1154.4 291.85 1161.9 295.25 1169.6 297.15 1178.2 296 1188.3 295.65 1191.35 295.85 1194.15 305.1 1196.2 312.1 1200.4 316.35 1204.1 319.95 1209.2 313.25 1205.65 304.7 1203.9 300.6 1203.05 297.25 1201.5 292.45 1199.25 289.15 1195.55 288 1193.65 287.25 1191.5 285.2 1185.65 286 1178.3 287.15 1168.2 285.25 1159.6 281.85 1151.9 275 1144.4 268.1 1136.9 267.3 1128.25 268.1 1119.7 275 1112.15 281.85 1104.7 285.25 1096.9 287.15 1088.4 286 1078.3 284.9 1068.15 289.15 1061.05 294.75 1054.7 304.7 1052.65 314.7 1050.65 322.1 1046.2 328.55 1040.5 333.5 1031.65 338.55 1022.8 346.35 1019.45 354.4 1017.65 363.6 1021.85 372.9 1026.05 381.7 1026.8 390.6 1026.1 399.85 1021.85 409.05 1017.65 417.1 1019.45 418.2 1019.9 419.25 1020.5 424.85 1023.65 428.9 1029.95 L429.2 1030.5 429.9 1031.65 Q431.65 1034.75 433.55 1037.45 M329.95 1219.2 L332.1 1220.4 Q335.65 1223.5 338.75 1227.55 345.75 1228.3 353.6 1224.7 362.9 1220.5 371.7 1219.7 380.6 1220.5 389.85 1224.7 399.05 1228.9 407.1 1227.15 414.9 1223.8 419.9 1214.85 424.9 1206.05 431.35 1200.4 438.85 1195.9 448.8 1193.9 458.7 1191.9 464.25 1185.55 468.5 1178.35 467.4 1168.3 466.25 1158.2 468.25 1149.6 471.55 1141.9 478.45 1134.4 485.3 1126.85 486.1 1118.25 L485.8 1115.95 Q484.35 1108.7 478.45 1102.15 471.55 1094.7 468.25 1086.9 466.25 1078.4 467.4 1068.3 L467.45 1067.95 467.6 1062.4 Q458.4 1060.35 451.35 1056.2 447.15 1052.5 443.55 1047.45 450.3 1050.95 458.8 1052.65 L459.45 1052.8 Q463.1 1053.6 466.15 1055.05 470.95 1057.3 474.25 1061.05 L476.15 1065.05 477 1067.95 Q478 1072.65 477.4 1078.3 476.25 1088.4 478.25 1096.9 481.55 1104.7 488.45 1112.15 L491.5 1115.95 Q495.5 1121.8 496.1 1128.25 495.3 1136.85 488.45 1144.4 481.55 1151.9 478.25 1159.6 476.25 1168.2 477.4 1178.3 478.5 1188.35 474.25 1195.55 468.7 1201.9 458.8 1203.9 448.85 1205.9 441.35 1210.4 434.9 1216.05 429.9 1224.85 424.9 1233.8 417.1 1237.15 409.05 1238.9 399.85 1234.7 390.6 1230.5 381.7 1229.7 372.9 1230.5 363.6 1234.7 354.4 1238.9 346.35 1237.15 345.25 1236.7 344.25 1236.15 338.4 1232.85 334.25 1226.15 L333.5 1224.85 329.95 1219.2"/>
    <path stroke="none" fill="#DBB17D" d="M319.95 1209.2 Q316.35 1204.1 312.1 1200.4 305.1 1196.2 295.85 1194.15 295.65 1191.35 296 1188.3 297.15 1178.2 295.25 1169.6 291.85 1161.9 285 1154.4 278.1 1146.9 277.3 1138.25 278.1 1129.7 285 1122.15 291.85 1114.7 295.25 1106.9 297.15 1098.4 296 1088.3 294.9 1078.15 299.15 1071.05 304.75 1064.7 314.7 1062.65 324.7 1060.65 332.1 1056.2 338.55 1050.5 343.5 1041.65 348.55 1032.8 356.35 1029.45 364.4 1027.65 373.6 1031.85 382.9 1036.05 391.7 1036.8 400.6 1036.1 409.85 1031.85 417.7 1028.25 424.75 1029.05 427.85 1033.1 431.35 1036.2 L433.55 1037.45 Q437.15 1042.5 441.35 1046.2 L443.55 1047.45 Q447.15 1052.5 451.35 1056.2 458.4 1060.35 467.6 1062.4 L467.45 1067.95 467.4 1068.3 Q466.25 1078.4 468.25 1086.9 471.55 1094.7 478.45 1102.15 484.35 1108.7 485.8 1115.95 L486.1 1118.25 Q485.3 1126.85 478.45 1134.4 471.55 1141.9 468.25 1149.6 466.25 1158.2 467.4 1168.3 468.5 1178.35 464.25 1185.55 458.7 1191.9 448.8 1193.9 438.85 1195.9 431.35 1200.4 424.9 1206.05 419.9 1214.85 414.9 1223.8 407.1 1227.15 399.05 1228.9 389.85 1224.7 380.6 1220.5 371.7 1219.7 362.9 1220.5 353.6 1224.7 345.75 1228.3 338.75 1227.55 335.65 1223.5 332.1 1220.4 L329.95 1219.2 Q326.35 1214.1 322.1 1210.4 L319.95 1209.2 M420.95 1080.8 Q419.1 1080 417.5 1079.05 414.6 1076.45 412.25 1072.85 L410.95 1070.8 410.65 1070.3 409.15 1067.95 Q406.5 1064.5 402.95 1063 L402.25 1062.85 Q397.75 1062.15 392.6 1064.45 387.1 1066.95 381.7 1067.4 376.45 1066.95 370.85 1064.45 365.35 1061.95 360.5 1063 355.85 1065 352.8 1070.3 349.8 1075.55 346 1079 L345.95 1079.05 Q341.5 1081.75 335.5 1082.9 329.55 1084.15 326.15 1087.95 323.65 1092.25 324.3 1098.3 325 1104.35 323.85 1109.45 321.8 1114.15 317.7 1118.6 313.55 1123.15 313.1 1128.25 313.55 1133.45 317.7 1137.95 321.8 1142.45 323.85 1147.1 325 1152.25 324.3 1158.3 324 1161.05 324.35 1163.45 324.8 1166.3 326.15 1168.65 329.2 1172.1 334.35 1173.45 L335.5 1173.7 Q339.35 1174.45 342.6 1175.9 344.35 1176.65 345.95 1177.6 348.85 1180.15 351.25 1183.75 L352.6 1185.9 352.8 1186.25 Q355.85 1191.6 360.5 1193.6 L361.25 1193.75 Q365.75 1194.45 370.85 1192.15 376.45 1189.65 381.7 1189.2 387.1 1189.65 392.6 1192.15 398.15 1194.65 402.95 1193.6 407.65 1191.6 410.65 1186.25 413.65 1181 417.5 1177.6 422 1174.85 427.95 1173.7 433.9 1172.5 437.3 1168.65 439.85 1164.35 439.15 1158.3 438.5 1152.25 439.65 1147.1 441.65 1142.45 445.75 1137.95 449.9 1133.45 450.35 1128.25 450 1124.45 447.65 1120.95 L445.75 1118.6 443.5 1115.95 Q441.05 1112.75 439.65 1109.45 438.5 1104.35 439.15 1098.3 439.45 1095.55 439.15 1093.2 438.7 1090.3 437.3 1087.95 434.25 1084.55 429.15 1083.2 L427.95 1082.9 Q424.15 1082.15 420.95 1080.8"/>
    <path stroke="none" fill="#FFFFFF" fill-opacity="0.2" d="M665.45 754.7 L662.65 755.8 Q649.55 761.5 637.3 768.8 L625.15 775.8 Q618.85 779.3 612.4 782.6 578.4 799.85 540.8 805.35 L532.95 806.25 Q538.85 796.25 547.05 787.25 L549.9 786.75 Q569.75 782.5 588.5 774.75 601.95 769.1 614.4 761.85 619.75 758.7 625.15 755.7 630.5 752.7 635.95 749.8 651.45 750.35 665.45 754.7 M706.4 778.4 L706.4 778.45 709.25 781.1 Q685.4 786.45 662.65 795.8 651.25 800.75 640.5 806.95 L634.2 806.3 633.85 806.25 631.1 806.2 Q607.7 806.2 591.2 822.8 585.2 828.75 581.35 835.65 561.65 842.3 540.8 845.35 529.6 846.45 518.95 848.3 520 839.15 522.45 830.6 L524.65 830.3 Q537.45 828.95 549.9 826.75 569.75 822.5 588.5 814.75 601.95 809.1 614.4 801.85 619.75 798.7 625.15 795.7 632.35 791.65 639.65 787.8 665 774.75 692.35 767.45 699.25 772 705.65 777.7 L706.4 778.4 M574.65 859.95 L574.6 862.7 574.65 865.5 574.7 865.8 Q575 871.75 576.4 877.25 559 882.7 540.8 885.35 530.55 886.35 520.75 888 518.95 879.85 518.4 871.25 L524.65 870.3 Q537.45 868.95 549.9 866.75 562.5 864.05 574.65 859.95 M528.05 909.95 L549.9 906.75 Q568.1 902.85 585.4 896.05 L585.6 896.3 586.35 897.3 Q588.5 899.95 591.2 902.65 L591.25 902.7 596.35 907.3 597.45 908.15 597.55 908.2 598.7 909.05 Q570.9 920.95 540.8 925.35 L537.05 925.75 Q531.8 918.15 528.05 909.95 M555.8 947 L555.75 947 554.4 945.75 Q571.9 941.6 588.5 934.75 601.95 929.1 614.4 921.85 617.5 920 620.65 918.25 L631.1 919.15 Q654.5 919.15 671.05 902.65 676.45 897.2 680.15 891.05 694.95 886.3 710.35 883.3 L736 878.95 743.25 877.3 Q742.15 886.65 739.6 895.4 L729.05 897.35 Q694.8 902.6 662.65 915.8 649.55 921.5 637.3 928.8 L625.15 935.8 Q618.85 939.3 612.4 942.6 592.4 952.75 571.2 958.85 563.3 953.8 556.05 947.25 L555.9 947.1 555.8 947 M625.15 955.7 Q632.35 951.65 639.65 947.8 673.25 930.5 710.35 923.3 L728.75 920.25 Q722.4 930.75 713.5 940.2 687.45 945.6 662.65 955.8 649.55 961.5 637.3 968.8 631.5 972.3 625.55 975.6 610.65 974.95 597.25 970.9 606.05 966.7 614.4 961.85 619.75 958.7 625.15 955.7 M736 838.95 L741.55 837.7 Q743.3 845.85 743.85 854.5 L729.05 857.35 Q707.85 860.6 687.45 866.9 L687.55 862.7 Q687.5 855.65 686 849.25 698 845.7 710.35 843.3 L736 838.95 M729.05 817.35 Q702.6 821.4 677.4 830.2 L676.6 829.15 676.55 829.05 675.7 827.95 671.1 822.85 671.05 822.8 665.7 817.95 664.7 817.2 664.1 816.75 Q686.5 807.95 710.35 803.3 L725.85 800.75 Q730.9 808.25 734.6 816.4 L729.05 817.35"/>
    <path stroke="none" fill="#000000" fill-opacity="0.10196078431372549" d="M787.05 787.25 L789.9 786.75 Q809.75 782.5 828.5 774.75 841.95 769.1 854.4 761.85 859.75 758.7 865.15 755.7 870.5 752.7 875.95 749.8 891.45 750.35 905.45 754.7 L902.65 755.8 Q889.55 761.5 877.3 768.8 L865.15 775.8 Q858.85 779.3 852.4 782.6 818.4 799.85 780.8 805.35 L772.95 806.25 Q778.85 796.25 787.05 787.25 M946.4 778.4 L946.4 778.45 949.25 781.1 Q925.4 786.45 902.65 795.8 891.25 800.75 880.5 806.95 L874.2 806.3 873.85 806.25 871.1 806.2 Q847.7 806.2 831.2 822.8 825.2 828.75 821.35 835.65 801.65 842.3 780.8 845.35 769.6 846.45 758.95 848.3 760 839.15 762.45 830.6 L764.65 830.3 789.9 826.75 Q809.75 822.5 828.5 814.75 841.95 809.1 854.4 801.85 859.75 798.7 865.15 795.7 872.35 791.65 879.65 787.8 905 774.75 932.35 767.45 939.25 772 945.65 777.7 L946.4 778.4 M976 878.95 L983.25 877.3 Q982.15 886.65 979.6 895.4 L969.05 897.35 Q934.8 902.6 902.65 915.8 889.55 921.5 877.3 928.8 L865.15 935.8 Q858.85 939.3 852.4 942.6 832.4 952.75 811.2 958.85 803.3 953.8 796.05 947.25 L795.9 947.1 795.8 947 795.75 947 794.4 945.75 Q811.9 941.6 828.5 934.75 841.95 929.1 854.4 921.85 857.5 920 860.65 918.25 L871.1 919.15 Q894.5 919.15 911.05 902.65 916.45 897.2 920.15 891.05 934.95 886.3 950.35 883.3 L976 878.95 M976 838.95 L981.55 837.7 Q983.3 845.85 983.85 854.5 L969.05 857.35 Q947.85 860.6 927.45 866.9 L927.55 862.7 Q927.5 855.65 926 849.25 938 845.7 950.35 843.3 L976 838.95 M965.85 800.75 Q970.9 808.25 974.6 816.4 L969.05 817.35 Q942.6 821.4 917.4 830.2 L916.6 829.15 916.55 829.05 915.7 827.95 911.1 822.85 911.05 822.8 905.7 817.95 904.7 817.2 904.1 816.75 Q926.5 807.95 950.35 803.3 L965.85 800.75 M814.65 859.95 L814.6 862.7 814.65 865.5 814.7 865.8 Q815 871.75 816.4 877.25 799 882.7 780.8 885.35 L760.75 888 Q758.95 879.85 758.4 871.25 L764.65 870.3 789.9 866.75 Q802.5 864.05 814.65 859.95 M831.25 902.7 L836.35 907.3 837.45 908.15 837.55 908.2 838.7 909.05 Q810.9 920.95 780.8 925.35 L777.05 925.75 Q771.8 918.15 768.05 909.95 L789.9 906.75 Q808.1 902.85 825.4 896.05 L825.6 896.3 826.35 897.3 Q828.5 899.95 831.2 902.65 L831.25 902.7 M865.55 975.6 Q850.65 974.95 837.25 970.9 846.05 966.7 854.4 961.85 859.75 958.7 865.15 955.7 872.35 951.65 879.65 947.8 913.25 930.5 950.35 923.3 L968.75 920.25 Q962.4 930.75 953.5 940.2 927.45 945.6 902.65 955.8 889.55 961.5 877.3 968.8 871.5 972.3 865.55 975.6"/>
    <path stroke="none" fill="#413524" d="M1147.5 601.9 L1147.4 601.9 1147.3 602.1 1147.5 601.9 M1055.7 686.45 Q1057.35 687.5 1057.3 688.9 1057.25 689.75 1055.95 690.55 1050.2 694.05 1044.95 698.4 1039 703.55 1032.15 707.5 1030.25 708.55 1028.4 709.7 1032.5 707.8 1036.8 706.45 1042.45 704.35 1047.55 701.25 1055.55 697.05 1064.45 695.65 L1077.3 695.05 Q1085 694.6 1091.75 690.95 1097.3 687.5 1103.45 685.1 1111.8 682.05 1120.75 681.95 1127.05 682.15 1133.25 680.7 1138.15 679.75 1140.75 682.95 1143.35 686.1 1142.7 690.15 1142.1 694.15 1137.35 695.65 1132.1 696.8 1127 696.95 L1116.7 697.6 Q1107 699.55 1098.7 704.75 1090.1 709.05 1080.55 710.2 L1068.8 710.6 Q1061.35 711.55 1055.25 715 1049.2 718.45 1042.35 720.9 1034.9 723.25 1028.15 727.15 1022.65 730.9 1016.2 732.15 1011.9 732.55 1009.2 729.75 1006.45 726.95 1006.1 722.9 1006.1 715.4 1009.45 708.6 1012.05 702.95 1016.4 699.55 1020.75 696.15 1026 693.15 1032.2 689.2 1037.95 685.85 1041.65 683.8 1045.15 683.8 1051.55 683.8 1055.7 686.45 M1144.6 581.4 Q1150.85 581.15 1155.55 586.65 1160.15 592.2 1162.15 599.45 1164.15 606.75 1158.55 612.6 1153.65 616.8 1147.55 618.95 1141.5 621.05 1135.95 624.2 1129 629.35 1122.15 634.8 1117.7 637.65 1114.15 638.9 1112.45 639.45 1111.8 638.4 1109.15 634.05 1109.15 628.75 1109.15 626.3 1109.8 624.7 L1109.9 624.45 1116.25 620.05 Q1122.85 614.3 1130.25 609.65 1136.55 606.5 1143.1 604.05 1145 603.4 1147 602.15 L1145.95 599.75 1144.65 597.6 1143.8 596.85 1143.45 596.9 1143.05 597.1 1142 597.6 1139.65 598.95 Q1134.35 602.6 1128.55 605.55 1121.75 608.6 1114.55 610.55 1109 612.1 1104.7 612.85 1102.75 613.25 1101.85 612.2 1097.15 606.8 1097.15 601 1097.15 600.4 1098.1 599.9 1101.4 598.2 1105.75 596.75 1114.05 594.9 1121.8 591.7 L1132.65 585.15 Q1138.35 581.7 1144.6 581.4 M959.45 638.3 Q954.95 631.65 959.45 626.85 964 622.1 970.05 620.1 976.5 618.2 982.65 615.5 989.2 611.5 995.95 607.7 1002.8 604.65 1009.3 601.4 1015.75 598.15 1021.2 592.7 1031.5 580.65 1045.45 573.15 L1047.1 572.5 1037.3 573.15 Q1029.85 572.5 1022.8 575.1 L1013.1 580.3 Q1004.55 584.25 995.15 584.2 L983 584.75 Q978.1 585.55 975.45 582.35 972.85 579.15 973.5 575.2 974.1 571.2 978.9 569.8 984.65 568.3 990.6 568.5 994.4 568.85 998.25 568.65 1003.05 567.95 1006.8 565.9 1010.5 563.85 1014.65 561.85 1025.05 557.1 1036.4 557.65 1045.25 558.5 1053 554.2 1057.1 551.55 1061.6 549.7 1066.3 548.35 1070.85 546.65 L1079.25 541.9 Q1083.7 539.25 1088.25 539.1 1096.4 539.75 1097.4 545.95 1098.4 552.05 1095.1 559.05 1091.9 566.05 1087.25 569.15 1082.25 571.7 1077 574 1070.25 578.3 1063.25 582.25 1056.35 585.25 1049.9 588.5 1043.45 591.8 1038.05 597.25 1027.75 609.3 1013.75 616.8 1007.6 619.25 1001.7 622.1 996.35 625.55 990.85 628.55 997.75 625.4 1005.1 623.45 1007.9 622.7 1009.2 623.1 1011.8 622.85 1012.8 625 1014.4 628.5 1014.4 631.9 1014.4 634.55 1010.6 636.35 L997.25 642.55 Q991.9 645.75 986.15 647.9 978.75 649.85 971.45 647.05 964.05 644.25 959.45 638.3"/>
    <path stroke="none" fill="#F5F5F5" d="M1321.75 690.95 Q1327.3 687.5 1333.45 685.1 1341.8 682.05 1350.75 681.95 1357.05 682.15 1363.25 680.7 1368.15 679.75 1370.75 682.95 1373.35 686.1 1372.7 690.15 1372.1 694.15 1367.35 695.65 1362.1 696.8 1357 696.95 L1346.7 697.6 Q1337 699.55 1328.7 704.75 1320.1 709.05 1310.55 710.2 L1298.8 710.6 Q1291.35 711.55 1285.25 715 1279.2 718.45 1272.35 720.9 1264.9 723.25 1258.15 727.15 1252.65 730.9 1246.2 732.15 1241.9 732.55 1239.2 729.75 1236.45 726.95 1236.1 722.9 1236.1 715.4 1239.45 708.6 1242.05 702.95 1246.4 699.55 1250.75 696.15 1256 693.15 1262.2 689.2 1267.95 685.85 1271.65 683.8 1275.15 683.8 1281.55 683.8 1285.7 686.45 1287.35 687.5 1287.3 688.9 1287.25 689.75 1285.95 690.55 1280.2 694.05 1274.95 698.4 1269 703.55 1262.15 707.5 L1258.4 709.7 Q1262.5 707.8 1266.8 706.45 1272.45 704.35 1277.55 701.25 1285.55 697.05 1294.45 695.65 L1307.3 695.05 Q1315 694.6 1321.75 690.95 M1377.3 602.1 L1377.5 601.9 1377.4 601.9 1377.3 602.1 M1362.65 585.15 Q1368.35 581.7 1374.6 581.4 1380.85 581.15 1385.55 586.65 1390.15 592.2 1392.15 599.45 1394.15 606.75 1388.55 612.6 1383.65 616.8 1377.55 618.95 1371.5 621.05 1365.95 624.2 L1352.15 634.8 Q1347.7 637.65 1344.15 638.9 1342.45 639.45 1341.8 638.4 1339.15 634.05 1339.15 628.75 1339.15 626.3 1339.8 624.7 L1339.9 624.45 1346.25 620.05 Q1352.85 614.3 1360.25 609.65 1366.55 606.5 1373.1 604.05 1375 603.4 1377 602.15 L1375.95 599.75 1374.65 597.6 1373.8 596.85 1373.45 596.9 1373.05 597.1 1372 597.6 1369.65 598.95 Q1364.35 602.6 1358.55 605.55 1351.75 608.6 1344.55 610.55 1339 612.1 1334.7 612.85 1332.75 613.25 1331.85 612.2 1327.15 606.8 1327.15 601 1327.15 600.4 1328.1 599.9 1331.4 598.2 1335.75 596.75 1344.05 594.9 1351.8 591.7 L1362.65 585.15 M1309.25 541.9 Q1313.7 539.25 1318.25 539.1 1326.4 539.75 1327.4 545.95 1328.4 552.05 1325.1 559.05 1321.9 566.05 1317.25 569.15 L1307 574 1293.25 582.25 Q1286.35 585.25 1279.9 588.5 1273.45 591.8 1268.05 597.25 1257.75 609.3 1243.75 616.8 1237.6 619.25 1231.7 622.1 1226.35 625.55 1220.85 628.55 1227.75 625.4 1235.1 623.45 L1239.2 623.1 Q1241.8 622.85 1242.8 625 1244.4 628.5 1244.4 631.9 1244.4 634.55 1240.6 636.35 L1227.25 642.55 Q1221.9 645.75 1216.15 647.9 1208.75 649.85 1201.45 647.05 1194.05 644.25 1189.45 638.3 1184.95 631.65 1189.45 626.85 1194 622.1 1200.05 620.1 1206.5 618.2 1212.65 615.5 1219.2 611.5 1225.95 607.7 1232.8 604.65 1239.3 601.4 1245.75 598.15 1251.2 592.7 1261.5 580.65 1275.45 573.15 L1277.1 572.5 1267.3 573.15 Q1259.85 572.5 1252.8 575.1 L1243.1 580.3 Q1234.55 584.25 1225.15 584.2 L1213 584.75 Q1208.1 585.55 1205.45 582.35 1202.85 579.15 1203.5 575.2 1204.1 571.2 1208.9 569.8 1214.65 568.3 1220.6 568.5 1224.4 568.85 1228.25 568.65 1233.05 567.95 1236.8 565.9 L1244.65 561.85 Q1255.05 557.1 1266.4 557.65 1275.25 558.5 1283 554.2 1287.1 551.55 1291.6 549.7 L1300.85 546.65 1309.25 541.9"/>
    <path stroke="none" fill="#FFCC00" d="M321.6 621.1 Q322.4 637.7 331.9 650.75 L332.5 651.6 333.25 652.6 Q335.4 655.25 338.1 657.95 L338.15 658 Q340.6 660.4 343.25 662.6 L344.35 663.45 344.45 663.5 Q358.95 674.35 378 674.45 401.4 674.45 417.95 657.95 434.45 641.4 434.45 618 434.35 598.95 423.5 584.45 L423.45 584.35 422.6 583.25 418 578.15 417.95 578.1 412.6 573.25 411.6 572.5 410.75 571.9 Q397.7 562.4 381.1 561.6 L380.75 561.55 378 561.5 Q354.6 561.5 338.1 578.1 321.5 594.6 321.5 618 L321.55 620.8 321.6 621.1 M275 628 Q275 581.2 308.15 548.15 341.2 515 388 515 427.5 514.95 457.25 538.55 481.05 568.35 481 608 481 654.85 447.95 688 414.85 721 368 721 328.35 721.05 298.55 697.3 275 667.5 275 628"/>
    <path stroke="none" fill="#FADB5E" d="M275 628 Q275 667.5 298.55 697.3 328.35 721.05 368 721 414.85 721 447.95 688 481 654.85 481 608 481.05 568.35 457.25 538.55 427.5 514.95 388 515 341.2 515 308.15 548.15 275 581.2 275 628 M293.15 692.75 L292.95 692.55 Q265 661.05 265 618 265 571.2 298.15 538.15 331.2 505 378 505 421.05 504.95 452.55 533 L453.3 533.7 453.3 533.75 457.95 538.15 462.25 542.65 462.25 542.7 462.55 543 Q491.05 574.6 491 618 491 664.85 457.95 698 424.85 731 378 731 334.55 731.05 302.95 702.55 L302.8 702.4 302.7 702.3 302.65 702.3 298.15 698 293.75 693.35 293.15 692.75"/>
    <path stroke="none" fill="#88E5B6" d="M148 515 Q101.2 515 68.15 548.15 35 581.2 35 628 35 667.5 58.55 697.3 88.35 721.05 128 721 174.85 721 207.95 688 241 654.85 241 608 241.05 568.35 217.25 538.55 187.5 514.95 148 515 M222.25 542.7 L222.55 543 Q251.05 574.6 251 618 251 664.85 217.95 698 184.85 731 138 731 94.55 731.05 62.95 702.55 L62.8 702.4 62.7 702.3 62.65 702.3 58.15 698 53.75 693.35 53.15 692.75 52.95 692.55 Q25 661.05 25 618 25 571.2 58.15 538.15 91.2 505 138 505 181.05 504.95 212.55 533 L213.3 533.7 213.3 533.75 217.95 538.15 222.25 542.65 222.25 542.7"/>
    <path stroke="none" fill="#66CC99" d="M182.6 583.25 L178 578.15 177.95 578.1 Q175.25 575.4 172.6 573.25 L171.6 572.5 170.75 571.9 Q157.7 562.4 141.1 561.6 L140.75 561.55 138 561.5 Q114.6 561.5 98.1 578.1 81.5 594.6 81.5 618 L81.55 620.8 81.6 621.1 Q82.4 637.7 91.9 650.75 L92.5 651.6 93.25 652.6 98.1 657.95 98.15 658 103.25 662.6 104.35 663.45 104.45 663.5 Q118.95 674.35 138 674.45 161.4 674.45 177.95 657.95 194.45 641.4 194.45 618 194.35 598.95 183.5 584.45 L183.45 584.35 182.6 583.25 M148 515 Q187.5 514.95 217.25 538.55 241.05 568.35 241 608 241 654.85 207.95 688 174.85 721 128 721 88.35 721.05 58.55 697.3 35 667.5 35 628 35 581.2 68.15 548.15 101.2 515 148 515"/>
  </g>
</svg>