
<svg xmlns="http://www.w3.org/2000/svg" version="1.1" xmlns:xlink="http://www.w3.org/1999/xlink" preserveAspectRatio="none" x="0px" y="0px" width="512px" height="512px" viewBox="0 0 512 512">
<defs>
<g id="Layer0_0_FILL">
<path fill="#9EDDE7" stroke="none" d="
M 512 0
L 0 0 0 512 512 512 512 0 Z"/>
</g>

<g id="Layer0_1_FILL">
<path fill="#FFFFFF" fill-opacity="0.2" stroke="none" d="
M 256 -144
L 256 -174
Q 122.45 -219.35 0 -174 -133.55 -128.6 -256 -174
L -256 -144
Q -133.55 -116 0 -144 122.45 -172 256 -144 Z"/>
</g>

<g id="Layer0_2_FILL">
<path fill="#FFFFFF" stroke="none" d="
M 103.85 -110.65
Q 92.35 -110.65 83.8 -103.55 70.7 -114.25 53.2 -114.25 32.9 -114.25 18.55 -99.95 15.05 -96.35 12.35 -92.5 -0.1 -102 -16.45 -102 -27.55 -102 -36.85 -97.6 -37.6 -98.55 -38.45 -99.4 -43.6 -104.55 -50.85 -104.55 -57.4 -104.55 -62.25 -100.35 -70.95 -107.2 -81.55 -109.45 -81.45 -110.5 -81.45 -111.5 -81.45 -123.75 -90.1 -132.35 -98.75 -141 -110.95 -141 -123.2 -141 -131.8 -132.35 -133.15 -131.05 -134.25 -129.65 -142.9 -134.3 -153.55 -134.3 -170.55 -134.3 -182.55 -122.3 -191.2 -113.65 -193.6 -102.45 -204.15 -101.15 -212 -93.35 -218.6 -86.75 -220.5 -78.2 -222.15 -78.35 -223.75 -78.35 -224.7 -78.35 -225.6 -78.3 -226 -89.4 -234 -97.35 -242.35 -105.75 -254.2 -105.75 -255.1 -105.75 -256 -105.65
L -256 121.95 256 121.95 256 -90.15
Q 256 -92.35 256.05 -94.55
L 256.05 -105.65
Q 247.35 -104.75 243.55 -97.5 238.85 -105.3 232 -112.15 210.45 -133.7 180 -133.7 149.5 -133.7 127.95 -112.15 124.6 -108.75 121.75 -105.2 113.95 -110.65 103.85 -110.65 Z"/>
</g>

<g id="Layer0_3_FILL">
<path fill="#8BC2CB" fill-opacity="0.4980392156862745" stroke="none" d="
M 256 -18.05
Q 128.05 -70.85 0 -18.05 -127.95 34.75 -256 -18.05
L -256 186 256 186 256 -18.05 Z"/>
</g>

<g id="Layer0_4_FILL">
<path fill="#8BC2CB" stroke="none" d="
M 256 256
L 256 51.95
Q 127.95 104.75 0 51.95 -128.05 -0.85 -256 51.95
L -256 256 256 256 Z"/>
</g>

<g id="Layer0_5_FILL">
<path fill="#8BC2CB" stroke="none" d="
M 151.6 -85.25
Q 140.55 -71.45 135.75 -50.25
L 140.85 -44.9
Q 125.05 -25.75 121.7 3.5
L 129.45 7.1
Q 114.5 24.85 110.05 51.95
L 155.4 51.95 151.6 106.05 178.5 106.05 174.7 51.95 220.05 51.95
Q 215.6 24.85 200.6 7.1
L 208.4 3.5
Q 205.05 -25.75 189.25 -44.9
L 194.35 -50.25
Q 189.55 -71.45 178.5 -85.25
L 183.55 -88.85
Q 177.3 -107.2 165.05 -117.25 152.8 -107.2 146.5 -88.85
L 151.6 -85.25 Z"/>
</g>

<g id="Layer0_6_FILL">
<path fill="#8BC2CB" stroke="none" d="
M 75.5 -12
Q 72.3 -21.35 66.05 -26.45 59.85 -21.35 56.6 -12
L 59.2 -10.15
Q 53.6 -3.15 51.15 7.65
L 53.75 10.35
Q 45.7 20.1 44 35
L 47.95 36.85
Q 40.35 45.9 38.05 59.7
L 61.15 59.7 59.2 87.2 72.9 87.2 71 59.7 94.05 59.7
Q 91.8 45.9 84.15 36.85
L 88.15 35
Q 86.45 20.1 78.4 10.35
L 81 7.65
Q 78.55 -3.15 72.9 -10.15
L 75.5 -12 Z"/>
</g>

<g id="Layer0_7_FILL">
<path fill="#8BC2CB" stroke="none" d="
M -177.5 -56
Q -180.7 -65.35 -186.95 -70.45 -193.15 -65.35 -196.4 -56
L -193.8 -54.15
Q -199.4 -47.15 -201.85 -36.35
L -199.25 -33.65
Q -207.3 -23.9 -209 -9
L -205.05 -7.15
Q -212.65 1.9 -214.95 15.7
L -191.85 15.7 -193.8 43.2 -180.1 43.2 -182 15.7 -158.95 15.7
Q -161.2 1.9 -168.85 -7.15
L -164.85 -9
Q -166.55 -23.9 -174.6 -33.65
L -172 -36.35
Q -174.45 -47.15 -180.1 -54.15
L -177.5 -56 Z"/>
</g>

<g id="Layer0_8_FILL">
<path fill="#C5E1E5" stroke="none" d="
M 10.2 -35.6
Q 8.25 -41.3 4.45 -44.45 0.65 -41.3 -1.35 -35.6
L 0.25 -34.5
Q -3.15 -30.2 -4.65 -23.6
L -3.05 -21.95
Q -8 -16 -9 -6.9
L -6.6 -5.75
Q -11.25 -0.25 -12.65 8.2
L 1.45 8.2 0.25 25 8.65 25 7.45 8.2 21.55 8.2
Q 20.15 -0.25 15.5 -5.75
L 17.95 -6.9
Q 16.9 -16 12 -21.95
L 13.55 -23.6
Q 12.1 -30.2 8.65 -34.5
L 10.2 -35.6 Z"/>
</g>

<g id="Layer0_9_FILL">
<path fill="#C5E1E5" stroke="none" d="
M -38.35 -56.5
L -36.8 -57.6
Q -38.75 -63.3 -42.55 -66.45 -46.35 -63.3 -48.35 -57.6
L -46.75 -56.5
Q -50.15 -52.2 -51.65 -45.6
L -50.05 -43.95
Q -55 -38 -56 -28.9
L -53.6 -27.75
Q -58.25 -22.25 -59.65 -13.8
L -45.55 -13.8 -46.75 3 -38.35 3 -39.55 -13.8 -25.45 -13.8
Q -26.85 -22.25 -31.5 -27.75
L -29.05 -28.9
Q -30.1 -38 -35 -43.95
L -33.45 -45.6
Q -34.9 -52.2 -38.35 -56.5 Z"/>
</g>

<g id="Layer0_10_FILL">
<path fill="#C5E1E5" stroke="none" d="
M 237.35 -53.05
Q 235.4 -58.75 231.6 -61.9 227.8 -58.75 225.8 -53.05
L 227.4 -51.95
Q 224 -47.65 222.5 -41.05
L 224.1 -39.4
Q 219.15 -33.45 218.15 -24.35
L 220.55 -23.2
Q 215.9 -17.7 214.5 -9.25
L 228.6 -9.25 227.4 7.55 235.8 7.55 234.6 -9.25 248.7 -9.25
Q 247.3 -17.7 242.65 -23.2
L 245.1 -24.35
Q 244.05 -33.45 239.15 -39.4
L 240.7 -41.05
Q 239.25 -47.65 235.8 -51.95
L 237.35 -53.05 Z"/>
</g>

<g id="Layer0_11_FILL">
<path fill="#C5E1E5" stroke="none" d="
M -245.5 -12.35
L -243.1 -11.2
Q -247.75 -5.7 -249.15 2.75
L -235.05 2.75 -236.25 19.55 -227.85 19.55 -229.05 2.75 -214.95 2.75
Q -216.35 -5.7 -221 -11.2
L -218.55 -12.35
Q -219.6 -21.45 -224.5 -27.4
L -222.95 -29.05
Q -224.4 -35.65 -227.85 -39.95
L -226.3 -41.05
Q -228.25 -46.75 -232.05 -49.9 -235.85 -46.75 -237.85 -41.05
L -236.25 -39.95
Q -239.65 -35.65 -241.15 -29.05
L -239.55 -27.4
Q -244.5 -21.45 -245.5 -12.35 Z"/>
</g>

<g id="Layer0_12_FILL">
<path fill="#8BC2CB" stroke="none" d="
M -133 17.2
Q -135.05 12.5 -142.1 14.1 -137.95 22.05 -137.6 30.6
L -122.35 30.6
Q -122.15 24.15 -120.1 17.7 -123.95 17.5 -125.95 20.95
L -125.95 -0.5
Q -131.9 6.8 -133 17.2 Z"/>
</g>

<g id="Layer0_13_FILL">
<path fill="#8BC2CB" stroke="none" d="
M -23.15 29.45
Q -26.4 33.4 -27 39.1 -28.15 36.55 -32 37.4 -29.7 41.75 -29.5 46.4
L -21.2 46.4
Q -21.1 42.9 -20 39.35 -22.1 39.25 -23.15 41.15
L -23.15 29.45 Z"/>
</g>

<g id="Layer0_14_FILL">
<path fill="#8BC2CB" stroke="none" d="
M 200.5 65.6
Q 199.35 63.05 195.5 63.9 197.8 68.25 198 72.9
L 206.3 72.9
Q 206.4 69.4 207.5 65.85 205.4 65.75 204.35 67.65
L 204.35 55.95
Q 201.1 59.9 200.5 65.6 Z"/>
</g>

<g id="Layer0_15_FILL">
<path fill="#C5E1E5" stroke="none" d="
M -104.65 5.1
Q -105.8 2.55 -109.65 3.4 -107.35 7.75 -107.15 12.4
L -98.85 12.4
Q -98.75 8.9 -97.65 5.35 -99.75 5.25 -100.8 7.15
L -100.8 -4.55
Q -104.05 -0.6 -104.65 5.1 Z"/>
</g>

<g id="Layer0_16_FILL">
<path fill="#C5E1E5" stroke="none" d="
M 106.8 -47.4
Q 105.65 -49.95 101.8 -49.1 104.1 -44.75 104.3 -40.1
L 112.6 -40.1
Q 112.7 -43.6 113.8 -47.15 111.7 -47.25 110.65 -45.35
L 110.65 -57.05
Q 107.4 -53.1 106.8 -47.4 Z"/>
</g>
</defs>

<g transform="matrix( 1, 0, 0, 1, 0,0) ">
<use xlink:href="#Layer0_0_FILL"/>
</g>

<g transform="matrix( 1, 0, 0, 1, 256,256) ">
<use xlink:href="#Layer0_1_FILL"/>
</g>

<g transform="matrix( 1, 0, 0, 1, 256,256) ">
<use xlink:href="#Layer0_2_FILL"/>
</g>

<g transform="matrix( 1, 0, 0, 1, 256,256) ">
<use xlink:href="#Layer0_3_FILL"/>
</g>

<g transform="matrix( 1, 0, 0, 1, 256,256) ">
<use xlink:href="#Layer0_4_FILL"/>
</g>

<g transform="matrix( 1, 0, 0, 1, 256,256) ">
<use xlink:href="#Layer0_5_FILL"/>
</g>

<g transform="matrix( 1, 0, 0, 1, 256,256) ">
<use xlink:href="#Layer0_6_FILL"/>
</g>

<g transform="matrix( 1, 0, 0, 1, 256,256) ">
<use xlink:href="#Layer0_7_FILL"/>
</g>

<g transform="matrix( 1, 0, 0, 1, 256,256) ">
<use xlink:href="#Layer0_8_FILL"/>
</g>

<g transform="matrix( 1, 0, 0, 1, 256,256) ">
<use xlink:href="#Layer0_9_FILL"/>
</g>

<g transform="matrix( 1, 0, 0, 1, 256,256) ">
<use xlink:href="#Layer0_10_FILL"/>
</g>

<g transform="matrix( 1, 0, 0, 1, 256,256) ">
<use xlink:href="#Layer0_11_FILL"/>
</g>

<g transform="matrix( 1, 0, 0, 1, 256,256) ">
<use xlink:href="#Layer0_12_FILL"/>
</g>

<g transform="matrix( 1, 0, 0, 1, 256,256) ">
<use xlink:href="#Layer0_13_FILL"/>
</g>

<g transform="matrix( 1, 0, 0, 1, 256,256) ">
<use xlink:href="#Layer0_14_FILL"/>
</g>

<g transform="matrix( 1, 0, 0, 1, 256,256) ">
<use xlink:href="#Layer0_15_FILL"/>
</g>

<g transform="matrix( 1, 0, 0, 1, 256,256) ">
<use xlink:href="#Layer0_16_FILL"/>
</g>
</svg>
