
<svg xmlns="http://www.w3.org/2000/svg" version="1.1" xmlns:xlink="http://www.w3.org/1999/xlink" preserveAspectRatio="none" x="0px" y="0px" width="400px" height="500px" viewBox="0 0 400 500">
<defs>
<g id="Layer0_0_MEMBER_0_FILL">
<path fill="#464646" stroke="none" d="
M 775 49
L 775 28 769 28
Q 765.1 28 765 31.8
L 765 45.2
Q 765.1 49 769 49
L 775 49
M 826 31.8
Q 825.9 28 822 28
L 816 28 816 49 822 49
Q 825.9 49 826 45.2
L 826 31.8
M 778 28
L 778 49 794 49 794 28 778 28
M 813 49
L 813 28 797 28 797 49 813 49 Z"/>

<path fill="#545454" stroke="none" d="
M 822 28
Q 825.9 28 826 31.8
L 826 29
Q 826 25 822 25
L 769 25
Q 765 25 765 29
L 765 31.8
Q 765.1 28 769 28
L 775 28 775 49 769 49
Q 765.1 49 765 45.2
L 765 48
Q 765 49.15 765.35 50 766.15 52 769 52
L 822 52
Q 824.8 52 825.65 50 826 49.2 826 48.1 826 48.05 826 48
L 826 45.2
Q 825.9 49 822 49
L 816 49 816 28 822 28
M 813 28
L 813 49 797 49 797 28 813 28
M 778 49
L 778 28 794 28 794 49 778 49 Z"/>
</g>

<g id="Layer0_0_MEMBER_1_FILL">
<path fill="#464646" stroke="none" d="
M 469 78
Q 465.1 78 465 81.8
L 465 95.2
Q 465.1 99 469 99
L 475 99 475 78 469 78
M 518 81.8
Q 517.9 78 514 78
L 508 78 508 99 514 99
Q 517.9 99 518 95.2
L 518 81.8
M 490 99
L 490 78 478 78 478 99 490 99
M 505 78
L 493 78 493 99 505 99 505 78 Z"/>

<path fill="#545454" stroke="none" d="
M 518 79
Q 518 75 514 75
L 469 75
Q 465 75 465 79
L 465 81.8
Q 465.1 78 469 78
L 475 78 475 99 469 99
Q 465.1 99 465 95.2
L 465 98
Q 465 99.15 465.35 100 466.15 102 469 102
L 514 102
Q 516.8 102 517.65 100 518 99.2 518 98.1 518 98.05 518 98
L 518 95.2
Q 517.9 99 514 99
L 508 99 508 78 514 78
Q 517.9 78 518 81.8
L 518 79
M 493 78
L 505 78 505 99 493 99 493 78
M 490 78
L 490 99 478 99 478 78 490 78 Z"/>
</g>

<g id="Layer0_0_MEMBER_2_FILL">
<path fill="#464646" stroke="none" d="
M 465 31.8
L 465 45.2
Q 465.1 49 469 49
L 475 49 475 28 469 28
Q 465.1 28 465 31.8
M 514 28
L 508 28 508 49 514 49
Q 517.9 49 518 45.2
L 518 31.8
Q 517.9 28 514 28
M 490 49
L 490 28 478 28 478 49 490 49
M 505 49
L 505 28 493 28 493 49 505 49 Z"/>

<path fill="#545454" stroke="none" d="
M 518 31.8
L 518 29
Q 518 25 514 25
L 469 25
Q 465 25 465 29
L 465 31.8
Q 465.1 28 469 28
L 475 28 475 49 469 49
Q 465.1 49 465 45.2
L 465 48
Q 465 49.15 465.35 50 466.15 52 469 52
L 514 52
Q 516.8 52 517.65 50 518 49.2 518 48.1 518 48.05 518 48
L 518 45.2
Q 517.9 49 514 49
L 508 49 508 28 514 28
Q 517.9 28 518 31.8
M 505 28
L 505 49 493 49 493 28 505 28
M 490 28
L 490 49 478 49 478 28 490 28 Z"/>
</g>

<g id="Layer0_0_MEMBER_3_FILL">
<path fill="#A4B4C6" stroke="none" d="
M 509 49
Q 509 43.2 503.4 43
L 464.65 43
Q 459 43.2 459 49
L 459 78
Q 459 83.8 464.65 84
L 503.4 84
Q 509 83.8 509 78
L 509 49 Z"/>

<path fill="#BBCADB" stroke="none" d="
M 511 49
Q 511 43.2 505.4 43
L 503.4 43
Q 509 43.2 509 49
L 509 78
Q 509 83.8 503.4 84
L 505.4 84
Q 511 83.8 511 78
L 511 49 Z"/>

<path fill="#94A2B1" stroke="none" d="
M 533 49
Q 533 43 527 43
L 505.4 43
Q 511 43.2 511 49
L 511 78
Q 511 83.8 505.4 84
L 527 84
Q 533 84 533 78
L 533 49 Z"/>
</g>

<g id="Layer0_0_MEMBER_3_MEMBER_0_FILL">
<path fill="#FFFFFF" stroke="none" d="
M 519.7 69
Q 519 70.05 519 71.45
L 519 71.55
Q 519 72.95 519.7 74 520.45 75 521.5 75 522.5 75 523.25 74 524 72.95 524 71.55
L 524 71.45
Q 524 70.05 523.25 69 522.5 68 521.5 68 520.45 68 519.7 69
M 523.25 54
Q 522.5 53 521.5 53 520.45 53 519.7 54 519 55.05 519 56.45
L 519 56.55
Q 519 57.95 519.7 59 520.45 60 521.5 60 522.5 60 523.25 59 524 57.95 524 56.55
L 524 56.45
Q 524 55.05 523.25 54 Z"/>
</g>

<g id="Layer0_0_MEMBER_4_FILL">
<path fill="#464646" stroke="none" d="
M 614 78
L 608 78 608 99 614 99
Q 617.9 99 618 95.2
L 618 81.8
Q 617.9 78 614 78
M 575 78
L 569 78
Q 565.1 78 565 81.8
L 565 95.2
Q 565.1 99 569 99
L 575 99 575 78
M 605 78
L 593 78 593 99 605 99 605 78
M 590 78
L 578 78 578 99 590 99 590 78 Z"/>

<path fill="#545454" stroke="none" d="
M 569 78
L 575 78 575 99 569 99
Q 565.1 99 565 95.2
L 565 98
Q 565 99.15 565.35 100 566.15 102 569 102
L 614 102
Q 616.8 102 617.65 100 618 99.2 618 98.1 618 98.05 618 98
L 618 95.2
Q 617.9 99 614 99
L 608 99 608 78 614 78
Q 617.9 78 618 81.8
L 618 79
Q 618 75 614 75
L 569 75
Q 565 75 565 79
L 565 81.8
Q 565.1 78 569 78
M 578 78
L 590 78 590 99 578 99 578 78
M 593 78
L 605 78 605 99 593 99 593 78 Z"/>
</g>

<g id="Layer0_0_MEMBER_5_FILL">
<path fill="#464646" stroke="none" d="
M 569 49
L 575 49 575 28 569 28
Q 565.1 28 565 31.8
L 565 45.2
Q 565.1 49 569 49
M 614 28
L 608 28 608 49 614 49
Q 617.9 49 618 45.2
L 618 31.8
Q 617.9 28 614 28
M 593 49
L 605 49 605 28 593 28 593 49
M 578 28
L 578 49 590 49 590 28 578 28 Z"/>

<path fill="#545454" stroke="none" d="
M 618 31.8
L 618 29
Q 618 25 614 25
L 569 25
Q 565 25 565 29
L 565 31.8
Q 565.1 28 569 28
L 575 28 575 49 569 49
Q 565.1 49 565 45.2
L 565 48
Q 565 49.15 565.35 50 566.15 52 569 52
L 614 52
Q 616.8 52 617.65 50 618 49.2 618 48.1 618 48.05 618 48
L 618 45.2
Q 617.9 49 614 49
L 608 49 608 28 614 28
Q 617.9 28 618 31.8
M 578 49
L 578 28 590 28 590 49 578 49
M 605 49
L 593 49 593 28 605 28 605 49 Z"/>
</g>

<g id="Layer0_0_MEMBER_6_FILL">
<path fill="#80D4BA" stroke="none" d="
M 615 49
Q 615 43.2 609.4 43
L 564.65 43
Q 559 43.2 559 49
L 559 78
Q 559 83.8 564.65 84
L 609.4 84
Q 615 83.8 615 78
L 615 49 Z"/>

<path fill="#9AE9D0" stroke="none" d="
M 617 49
Q 617 43.2 611.4 43
L 609.4 43
Q 615 43.2 615 49
L 615 78
Q 615 83.8 609.4 84
L 611.4 84
Q 617 83.8 617 78
L 617 49 Z"/>

<path fill="#6FC4A9" stroke="none" d="
M 627 43
L 611.4 43
Q 617 43.2 617 49
L 617 78
Q 617 83.8 611.4 84
L 627 84
Q 633 84 633 78
L 633 49
Q 633 43 627 43 Z"/>
</g>

<g id="Layer0_0_MEMBER_6_MEMBER_0_FILL">
<path fill="#FFFFFF" stroke="none" d="
M 628 56.55
L 628 56.45
Q 628 55.05 627.25 54 626.5 53 625.5 53 624.45 53 623.7 54 623 55.05 623 56.45
L 623 56.55
Q 623 57.95 623.7 59 624.45 60 625.5 60 626.5 60 627.25 59 628 57.95 628 56.55
M 628 71.55
L 628 71.45
Q 628 70.05 627.25 69 626.5 68 625.5 68 624.45 68 623.7 69 623 70.05 623 71.45
L 623 71.55
Q 623 72.95 623.7 74 624.45 75 625.5 75 626.5 75 627.25 74 628 72.95 628 71.55 Z"/>
</g>

<g id="Layer0_0_MEMBER_7_FILL">
<path fill="#464646" stroke="none" d="
M 714 78
L 708 78 708 99 714 99
Q 717.9 99 718 95.2
L 718 81.8
Q 717.9 78 714 78
M 669 78
Q 665.1 78 665 81.8
L 665 95.2
Q 665.1 99 669 99
L 675 99 675 78 669 78
M 690 78
L 678 78 678 99 690 99 690 78
M 705 78
L 693 78 693 99 705 99 705 78 Z"/>

<path fill="#545454" stroke="none" d="
M 665 79
L 665 81.8
Q 665.1 78 669 78
L 675 78 675 99 669 99
Q 665.1 99 665 95.2
L 665 98
Q 665 99.15 665.35 100 666.15 102 669 102
L 714 102
Q 716.8 102 717.65 100 718 99.2 718 98.1 718 98.05 718 98
L 718 95.2
Q 717.9 99 714 99
L 708 99 708 78 714 78
Q 717.9 78 718 81.8
L 718 79
Q 718 75 714 75
L 669 75
Q 665 75 665 79
M 693 78
L 705 78 705 99 693 99 693 78
M 678 78
L 690 78 690 99 678 99 678 78 Z"/>
</g>

<g id="Layer0_0_MEMBER_8_FILL">
<path fill="#464646" stroke="none" d="
M 665 31.8
L 665 45.2
Q 665.1 49 669 49
L 675 49 675 28 669 28
Q 665.1 28 665 31.8
M 708 28
L 708 49 714 49
Q 717.9 49 718 45.2
L 718 31.8
Q 717.9 28 714 28
L 708 28
M 690 49
L 690 28 678 28 678 49 690 49
M 693 49
L 705 49 705 28 693 28 693 49 Z"/>

<path fill="#545454" stroke="none" d="
M 708 49
L 708 28 714 28
Q 717.9 28 718 31.8
L 718 29
Q 718 25 714 25
L 669 25
Q 665 25 665 29
L 665 31.8
Q 665.1 28 669 28
L 675 28 675 49 669 49
Q 665.1 49 665 45.2
L 665 48
Q 665 49.15 665.35 50 666.15 52 669 52
L 714 52
Q 716.8 52 717.65 50 718 49.2 718 48.1 718 48.05 718 48
L 718 45.2
Q 717.9 49 714 49
L 708 49
M 705 49
L 693 49 693 28 705 28 705 49
M 690 28
L 690 49 678 49 678 28 690 28 Z"/>
</g>

<g id="Layer0_0_MEMBER_9_FILL">
<path fill="#FFCC00" stroke="none" d="
M 709 39
Q 709 33.2 703.4 33
L 664.65 33
Q 659 33.2 659 39
L 659 88
Q 659 90.534765625 660.05 92 661.4693359375 93.8875 664.65 94
L 703.4 94
Q 706.5525390625 93.8875 707.9 92 709 90.534765625 709 88
L 709 39 Z"/>

<path fill="#FFDE5B" stroke="none" d="
M 705.4 33
L 703.4 33
Q 709 33.2 709 39
L 709 88
Q 709 90.534765625 707.9 92 706.5525390625 93.8875 703.4 94
L 705.4 94
Q 708.5525390625 93.8875 709.9 92 711 90.534765625 711 88
L 711 39
Q 711 33.2 705.4 33 Z"/>

<path fill="#E7B900" stroke="none" d="
M 733 39
Q 733 34.9380859375 730.25 33.6 728.9380859375 33 727 33
L 705.4 33
Q 711 33.2 711 39
L 711 88
Q 711 90.534765625 709.9 92 708.5525390625 93.8875 705.4 94
L 727 94
Q 733 94 733 88
L 733 39 Z"/>
</g>

<g id="Layer0_0_MEMBER_9_MEMBER_0_FILL">
<path fill="#FFFFFF" stroke="none" d="
M 719 77.55
Q 719 78.95 719.7 80 720.45 81 721.5 81 722.5 81 723.25 80 724 78.95 724 77.55
L 724 77.45
Q 724 76.05 723.25 75 722.5 74 721.5 74 720.45 74 719.7 75 719 76.05 719 77.45
L 719 77.55
M 723.25 48
Q 722.5 47 721.5 47 720.45 47 719.7 48 719 49.05 719 50.45
L 719 50.55
Q 719 51.95 719.7 53 720.45 54 721.5 54 722.5 54 723.25 53 724 51.95 724 50.55
L 724 50.45
Q 724 49.05 723.25 48 Z"/>
</g>

<g id="Layer0_0_MEMBER_10_FILL">
<path fill="#464646" stroke="none" d="
M 769 78
Q 765.1 78 765 81.8
L 765 95.2
Q 765.1 99 769 99
L 775 99 775 78 769 78
M 822 78
L 816 78 816 99 822 99
Q 825.9 99 826 95.2
L 826 81.8
Q 825.9 78 822 78
M 794 78
L 778 78 778 99 794 99 794 78
M 813 99
L 813 78 797 78 797 99 813 99 Z"/>

<path fill="#545454" stroke="none" d="
M 816 78
L 822 78
Q 825.9 78 826 81.8
L 826 79
Q 826 75 822 75
L 769 75
Q 765 75 765 79
L 765 81.8
Q 765.1 78 769 78
L 775 78 775 99 769 99
Q 765.1 99 765 95.2
L 765 98
Q 765 99.15 765.35 100 766.15 102 769 102
L 822 102
Q 824.8 102 825.65 100 826 99.2 826 98.1 826 98.05 826 98
L 826 95.2
Q 825.9 99 822 99
L 816 99 816 78
M 813 78
L 813 99 797 99 797 78 813 78
M 778 78
L 794 78 794 99 778 99 778 78 Z"/>
</g>

<g id="Layer0_0_MEMBER_11_FILL">
<path fill="#E9895E" stroke="none" d="
M 809 49
Q 809 43.2 803.4 43
L 764.65 43
Q 759 43.2 759 49
L 759 78
Q 759 83.8 764.65 84
L 803.4 84
Q 809 83.8 809 78
L 809 49 Z"/>

<path fill="#F3A07A" stroke="none" d="
M 811 78
L 811 49
Q 811 43.2 805.4 43
L 803.4 43
Q 809 43.2 809 49
L 809 78
Q 809 83.8 803.4 84
L 805.4 84
Q 811 83.8 811 78 Z"/>

<path fill="#D77A50" stroke="none" d="
M 833 49
Q 833 43 827 43
L 805.4 43
Q 811 43.2 811 49
L 811 78
Q 811 83.8 805.4 84
L 827 84
Q 833 84 833 78
L 833 49 Z"/>
</g>

<g id="Layer0_0_MEMBER_11_MEMBER_0_FILL">
<path fill="#FFFFFF" stroke="none" d="
M 819.7 69
Q 819 70.05 819 71.45
L 819 71.55
Q 819 72.95 819.7 74 820.45 75 821.5 75 822.5 75 823.25 74 824 72.95 824 71.55
L 824 71.45
Q 824 70.05 823.25 69 822.5 68 821.5 68 820.45 68 819.7 69
M 821.5 60
Q 822.5 60 823.25 59 824 57.95 824 56.55
L 824 56.45
Q 824 55.05 823.25 54 822.5 53 821.5 53 820.45 53 819.7 54 819 55.05 819 56.45
L 819 56.55
Q 819 57.95 819.7 59 820.45 60 821.5 60 Z"/>
</g>

<g id="Layer0_0_MEMBER_12_FILL">
<path fill="#464646" stroke="none" d="
M 769 128
Q 765.1 128 765 131.8
L 765 145.2
Q 765.1 149 769 149
L 775 149 775 128 769 128
M 822 128
L 816 128 816 149 822 149
Q 825.9 149 826 145.2
L 826 131.8
Q 825.9 128 822 128
M 794 128
L 778 128 778 149 794 149 794 128
M 813 149
L 813 128 797 128 797 149 813 149 Z"/>

<path fill="#545454" stroke="none" d="
M 816 128
L 822 128
Q 825.9 128 826 131.8
L 826 129
Q 826 125 822 125
L 769 125
Q 765 125 765 129
L 765 131.8
Q 765.1 128 769 128
L 775 128 775 149 769 149
Q 765.1 149 765 145.2
L 765 148
Q 765 149.15 765.35 150 766.15 152 769 152
L 822 152
Q 824.8 152 825.65 150 826 149.2 826 148.1 826 148.05 826 148
L 826 145.2
Q 825.9 149 822 149
L 816 149 816 128
M 813 128
L 813 149 797 149 797 128 813 128
M 778 128
L 794 128 794 149 778 149 778 128 Z"/>
</g>

<g id="Layer0_0_MEMBER_13_FILL">
<path fill="#464646" stroke="none" d="
M 469 178
Q 465.1 178 465 181.8
L 465 195.2
Q 465.1 199 469 199
L 475 199 475 178 469 178
M 514 178
L 508 178 508 199 514 199
Q 517.9 199 518 195.2
L 518 181.8
Q 517.9 178 514 178
M 490 178
L 478 178 478 199 490 199 490 178
M 505 178
L 493 178 493 199 505 199 505 178 Z"/>

<path fill="#545454" stroke="none" d="
M 518 179
Q 518 175 514 175
L 469 175
Q 465 175 465 179
L 465 181.8
Q 465.1 178 469 178
L 475 178 475 199 469 199
Q 465.1 199 465 195.2
L 465 198
Q 465 199.15 465.35 200 466.15 202 469 202
L 514 202
Q 516.8 202 517.65 200 518 199.2 518 198.1 518 198.05 518 198
L 518 195.2
Q 517.9 199 514 199
L 508 199 508 178 514 178
Q 517.9 178 518 181.8
L 518 179
M 493 178
L 505 178 505 199 493 199 493 178
M 478 178
L 490 178 490 199 478 199 478 178 Z"/>
</g>

<g id="Layer0_0_MEMBER_14_FILL">
<path fill="#464646" stroke="none" d="
M 469 128
Q 465.1 128 465 131.8
L 465 145.2
Q 465.1 149 469 149
L 475 149 475 128 469 128
M 518 131.8
Q 517.9 128 514 128
L 508 128 508 149 514 149
Q 517.9 149 518 145.2
L 518 131.8
M 490 149
L 490 128 478 128 478 149 490 149
M 505 128
L 493 128 493 149 505 149 505 128 Z"/>

<path fill="#545454" stroke="none" d="
M 514 128
Q 517.9 128 518 131.8
L 518 129
Q 518 125 514 125
L 469 125
Q 465 125 465 129
L 465 131.8
Q 465.1 128 469 128
L 475 128 475 149 469 149
Q 465.1 149 465 145.2
L 465 148
Q 465 149.15 465.35 150 466.15 152 469 152
L 514 152
Q 516.8 152 517.65 150 518 149.2 518 148.1 518 148.05 518 148
L 518 145.2
Q 517.9 149 514 149
L 508 149 508 128 514 128
M 493 128
L 505 128 505 149 493 149 493 128
M 490 128
L 490 149 478 149 478 128 490 128 Z"/>
</g>

<g id="Layer0_0_MEMBER_15_FILL">
<path fill="#94A2B1" stroke="none" d="
M 533 178
L 533 149
Q 533 143 527 143
L 464.65 143
Q 459 143.2 459 149
L 459 178
Q 459 183.8 464.65 184
L 527 184
Q 533 184 533 178 Z"/>
</g>

<g id="Layer0_0_MEMBER_16_FILL">
<path fill="#464646" stroke="none" d="
M 614 178
L 608 178 608 199 614 199
Q 617.9 199 618 195.2
L 618 181.8
Q 617.9 178 614 178
M 565 181.8
L 565 195.2
Q 565.1 199 569 199
L 575 199 575 178 569 178
Q 565.1 178 565 181.8
M 605 178
L 593 178 593 199 605 199 605 178
M 590 178
L 578 178 578 199 590 199 590 178 Z"/>

<path fill="#545454" stroke="none" d="
M 565 179
L 565 181.8
Q 565.1 178 569 178
L 575 178 575 199 569 199
Q 565.1 199 565 195.2
L 565 198
Q 565 199.15 565.35 200 566.15 202 569 202
L 614 202
Q 616.8 202 617.65 200 618 199.2 618 198.1 618 198.05 618 198
L 618 195.2
Q 617.9 199 614 199
L 608 199 608 178 614 178
Q 617.9 178 618 181.8
L 618 179
Q 618 175 614 175
L 569 175
Q 565 175 565 179
M 578 178
L 590 178 590 199 578 199 578 178
M 593 178
L 605 178 605 199 593 199 593 178 Z"/>
</g>

<g id="Layer0_0_MEMBER_17_FILL">
<path fill="#464646" stroke="none" d="
M 618 131.8
Q 617.9 128 614 128
L 608 128 608 149 614 149
Q 617.9 149 618 145.2
L 618 131.8
M 565 131.8
L 565 145.2
Q 565.1 149 569 149
L 575 149 575 128 569 128
Q 565.1 128 565 131.8
M 605 128
L 593 128 593 149 605 149 605 128
M 590 128
L 578 128 578 149 590 149 590 128 Z"/>

<path fill="#545454" stroke="none" d="
M 565 129
L 565 131.8
Q 565.1 128 569 128
L 575 128 575 149 569 149
Q 565.1 149 565 145.2
L 565 148
Q 565 149.15 565.35 150 566.15 152 569 152
L 614 152
Q 616.8 152 617.65 150 618 149.2 618 148.1 618 148.05 618 148
L 618 145.2
Q 617.9 149 614 149
L 608 149 608 128 614 128
Q 617.9 128 618 131.8
L 618 129
Q 618 125 614 125
L 569 125
Q 565 125 565 129
M 578 128
L 590 128 590 149 578 149 578 128
M 593 128
L 605 128 605 149 593 149 593 128 Z"/>
</g>

<g id="Layer0_0_MEMBER_18_FILL">
<path fill="#6FC4A9" stroke="none" d="
M 559 178
Q 559 183.8 564.65 184
L 627 184
Q 633 184 633 178
L 633 149
Q 633 143 627 143
L 564.65 143
Q 559 143.2 559 149
L 559 178 Z"/>
</g>

<g id="Layer0_0_MEMBER_19_FILL">
<path fill="#464646" stroke="none" d="
M 714 178
L 708 178 708 199 714 199
Q 717.9 199 718 195.2
L 718 181.8
Q 717.9 178 714 178
M 669 178
Q 665.1 178 665 181.8
L 665 195.2
Q 665.1 199 669 199
L 675 199 675 178 669 178
M 690 178
L 678 178 678 199 690 199 690 178
M 705 178
L 693 178 693 199 705 199 705 178 Z"/>

<path fill="#545454" stroke="none" d="
M 665 179
L 665 181.8
Q 665.1 178 669 178
L 675 178 675 199 669 199
Q 665.1 199 665 195.2
L 665 198
Q 665 199.15 665.35 200 666.15 202 669 202
L 714 202
Q 716.8 202 717.65 200 718 199.2 718 198.1 718 198.05 718 198
L 718 195.2
Q 717.9 199 714 199
L 708 199 708 178 714 178
Q 717.9 178 718 181.8
L 718 179
Q 718 175 714 175
L 669 175
Q 665 175 665 179
M 693 178
L 705 178 705 199 693 199 693 178
M 678 178
L 690 178 690 199 678 199 678 178 Z"/>
</g>

<g id="Layer0_0_MEMBER_20_FILL">
<path fill="#464646" stroke="none" d="
M 669 128
Q 665.1 128 665 131.8
L 665 145.2
Q 665.1 149 669 149
L 675 149 675 128 669 128
M 714 128
L 708 128 708 149 714 149
Q 717.9 149 718 145.2
L 718 131.8
Q 717.9 128 714 128
M 690 128
L 678 128 678 149 690 149 690 128
M 705 128
L 693 128 693 149 705 149 705 128 Z"/>

<path fill="#545454" stroke="none" d="
M 708 128
L 714 128
Q 717.9 128 718 131.8
L 718 129
Q 718 125 714 125
L 669 125
Q 665 125 665 129
L 665 131.8
Q 665.1 128 669 128
L 675 128 675 149 669 149
Q 665.1 149 665 145.2
L 665 148
Q 665 149.15 665.35 150 666.15 152 669 152
L 714 152
Q 716.8 152 717.65 150 718 149.2 718 148.1 718 148.05 718 148
L 718 145.2
Q 717.9 149 714 149
L 708 149 708 128
M 693 128
L 705 128 705 149 693 149 693 128
M 678 128
L 690 128 690 149 678 149 678 128 Z"/>
</g>

<g id="Layer0_0_MEMBER_21_FILL">
<path fill="#E7B900" stroke="none" d="
M 664.65 133
Q 659 133.2 659 139
L 659 188
Q 659 193.8 664.65 194
L 727 194
Q 733 194 733 188
L 733 139
Q 733 133 727 133
L 664.65 133 Z"/>
</g>

<g id="Layer0_0_MEMBER_22_FILL">
<path fill="#464646" stroke="none" d="
M 769 178
Q 765.1 178 765 181.8
L 765 195.2
Q 765.1 199 769 199
L 775 199 775 178 769 178
M 822 178
L 816 178 816 199 822 199
Q 825.9 199 826 195.2
L 826 181.8
Q 825.9 178 822 178
M 813 178
L 797 178 797 199 813 199 813 178
M 794 178
L 778 178 778 199 794 199 794 178 Z"/>

<path fill="#545454" stroke="none" d="
M 816 178
L 822 178
Q 825.9 178 826 181.8
L 826 179
Q 826 175 822 175
L 769 175
Q 765 175 765 179
L 765 181.8
Q 765.1 178 769 178
L 775 178 775 199 769 199
Q 765.1 199 765 195.2
L 765 198
Q 765 199.15 765.35 200 766.15 202 769 202
L 822 202
Q 824.8 202 825.65 200 826 199.2 826 198.1 826 198.05 826 198
L 826 195.2
Q 825.9 199 822 199
L 816 199 816 178
M 778 178
L 794 178 794 199 778 199 778 178
M 797 178
L 813 178 813 199 797 199 797 178 Z"/>
</g>

<g id="Layer0_0_MEMBER_23_FILL">
<path fill="#D77A50" stroke="none" d="
M 833 178
L 833 149
Q 833 143 827 143
L 764.65 143
Q 759 143.2 759 149
L 759 178
Q 759 183.8 764.65 184
L 827 184
Q 833 184 833 178 Z"/>
</g>

<g id="Layer0_0_MEMBER_24_FILL">
<path fill="#464646" stroke="none" d="
M 463 408
Q 459.1 408 459 411.8
L 459 425.2
Q 459.1 429 463 429
L 469 429 469 408 463 408
M 512 411.8
Q 511.9 408 508 408
L 502 408 502 429 508 429
Q 511.9 429 512 425.2
L 512 411.8
M 484 408
L 472 408 472 429 484 429 484 408
M 499 408
L 487 408 487 429 499 429 499 408 Z"/>

<path fill="#545454" stroke="none" d="
M 508 408
Q 511.9 408 512 411.8
L 512 409
Q 512 405 508 405
L 463 405
Q 459 405 459 409
L 459 411.8
Q 459.1 408 463 408
L 469 408 469 429 463 429
Q 459.1 429 459 425.2
L 459 428
Q 459 429.15 459.35 430 460.15 432 463 432
L 508 432
Q 510.8 432 511.65 430 512 429.2 512 428.1 512 428.05 512 428
L 512 425.2
Q 511.9 429 508 429
L 502 429 502 408 508 408
M 487 408
L 499 408 499 429 487 429 487 408
M 472 408
L 484 408 484 429 472 429 472 408 Z"/>
</g>

<g id="Layer0_0_MEMBER_25_FILL">
<path fill="#464646" stroke="none" d="
M 463 458
Q 459.1 458 459 461.8
L 459 475.2
Q 459.1 479 463 479
L 469 479 469 458 463 458
M 520 461.8
Q 519.9 458 516 458
L 510 458 510 479 516 479
Q 519.9 479 520 475.2
L 520 461.8
M 488 479
L 488 458 472 458 472 479 488 479
M 491 458
L 491 479 507 479 507 458 491 458 Z"/>

<path fill="#545454" stroke="none" d="
M 520 461.8
L 520 459
Q 520 455 516 455
L 463 455
Q 459 455 459 459
L 459 461.8
Q 459.1 458 463 458
L 469 458 469 479 463 479
Q 459.1 479 459 475.2
L 459 478
Q 459 479.15 459.35 480 460.15 482 463 482
L 516 482
Q 518.8 482 519.65 480 520 479.2 520 478.1 520 478.05 520 478
L 520 475.2
Q 519.9 479 516 479
L 510 479 510 458 516 458
Q 519.9 458 520 461.8
M 491 479
L 491 458 507 458 507 479 491 479
M 488 458
L 488 479 472 479 472 458 488 458 Z"/>
</g>

<g id="Layer0_0_MEMBER_26_FILL">
<path fill="#94A2B1" stroke="none" d="
M 464.65 323
Q 459 323.2 459 329
L 459 358
Q 459 363.8 464.65 364
L 527 364
Q 533 364 533 358
L 533 329
Q 533 323 527 323
L 464.65 323 Z"/>
</g>

<g id="Layer0_0_MEMBER_27_FILL">
<path fill="#6FC4A9" stroke="none" d="
M 564.65 323
Q 559 323.2 559 329
L 559 358
Q 559 363.8 564.65 364
L 627 364
Q 633 364 633 358
L 633 329
Q 633 323 627 323
L 564.65 323 Z"/>
</g>

<g id="Layer0_0_MEMBER_28_FILL">
<path fill="#E7B900" stroke="none" d="
M 664.65 313
Q 659 313.2 659 319
L 659 368
Q 659 373.8 664.65 374
L 727 374
Q 733 374 733 368
L 733 319
Q 733 313 727 313
L 664.65 313 Z"/>
</g>

<g id="Layer0_0_MEMBER_29_FILL">
<path fill="#D77A50" stroke="none" d="
M 764.65 323
Q 759 323.2 759 329
L 759 358
Q 759 363.8 764.65 364
L 827 364
Q 833 364 833 358
L 833 329
Q 833 323 827 323
L 764.65 323 Z"/>
</g>

<g id="Layer0_0_MEMBER_30_FILL">
<path fill="#BBCADB" stroke="none" d="
M 511 242
Q 511 236.2 505.4 236
L 503.4 236
Q 509 236.2 509 242
L 509 271
Q 509 276.8 503.4 277
L 505.4 277
Q 511 276.8 511 271
L 511 242 Z"/>

<path fill="#94A2B1" stroke="none" d="
M 533 242
Q 533 236 527 236
L 505.4 236
Q 511 236.2 511 242
L 511 271
Q 511 276.8 505.4 277
L 527 277
Q 533 277 533 271
L 533 242 Z"/>

<path fill="#A4B4C6" stroke="none" d="
M 464.65 236
Q 459 236.2 459 242
L 459 271
Q 459 276.8 464.65 277
L 503.4 277
Q 509 276.8 509 271
L 509 242
Q 509 236.2 503.4 236
L 464.65 236 Z"/>
</g>

<g id="Layer0_0_MEMBER_30_MEMBER_0_FILL">
<path fill="#FFFFFF" stroke="none" d="
M 524 264.55
L 524 264.45
Q 524 263.05 523.25 262 522.5 261 521.5 261 520.45 261 519.7 262 519 263.05 519 264.45
L 519 264.55
Q 519 265.95 519.7 267 520.45 268 521.5 268 522.5 268 523.25 267 524 265.95 524 264.55
M 521.5 246
Q 520.45 246 519.7 247 519 248.05 519 249.45
L 519 249.55
Q 519 250.95 519.7 252 520.45 253 521.5 253 522.5 253 523.25 252 524 250.95 524 249.55
L 524 249.45
Q 524 248.05 523.25 247 522.5 246 521.5 246 Z"/>
</g>

<g id="Layer0_0_MEMBER_31_FILL">
<path fill="#80D4BA" stroke="none" d="
M 615 242
Q 615 236.2 609.4 236
L 564.65 236
Q 559 236.2 559 242
L 559 271
Q 559 276.8 564.65 277
L 609.4 277
Q 615 276.8 615 271
L 615 242 Z"/>

<path fill="#9AE9D0" stroke="none" d="
M 617 242
Q 617 236.2 611.4 236
L 609.4 236
Q 615 236.2 615 242
L 615 271
Q 615 276.8 609.4 277
L 611.4 277
Q 617 276.8 617 271
L 617 242 Z"/>

<path fill="#6FC4A9" stroke="none" d="
M 627 236
L 611.4 236
Q 617 236.2 617 242
L 617 271
Q 617 276.8 611.4 277
L 627 277
Q 633 277 633 271
L 633 242
Q 633 236 627 236 Z"/>
</g>

<g id="Layer0_0_MEMBER_31_MEMBER_0_FILL">
<path fill="#FFFFFF" stroke="none" d="
M 628 264.55
L 628 264.45
Q 628 263.05 627.25 262 626.5 261 625.5 261 624.45 261 623.7 262 623 263.05 623 264.45
L 623 264.55
Q 623 265.95 623.7 267 624.45 268 625.5 268 626.5 268 627.25 267 628 265.95 628 264.55
M 627.25 247
Q 626.5 246 625.5 246 624.45 246 623.7 247 623 248.05 623 249.45
L 623 249.55
Q 623 250.95 623.7 252 624.45 253 625.5 253 626.5 253 627.25 252 628 250.95 628 249.55
L 628 249.45
Q 628 248.05 627.25 247 Z"/>
</g>

<g id="Layer0_0_MEMBER_32_FILL">
<path fill="#FFCC00" stroke="none" d="
M 709 232
Q 709 226.2 703.4 226
L 664.65 226
Q 659 226.2 659 232
L 659 281
Q 659 283.55 660.1 285 661.45 286.9 664.65 287
L 703.4 287
Q 706.55 286.9 707.95 285 709 283.55 709 281
L 709 232 Z"/>

<path fill="#FFDE5B" stroke="none" d="
M 705.4 226
L 703.4 226
Q 709 226.2 709 232
L 709 281
Q 709 283.55 707.95 285 706.55 286.9 703.4 287
L 705.4 287
Q 708.55 286.9 709.95 285 711 283.55 711 281
L 711 232
Q 711 226.2 705.4 226 Z"/>

<path fill="#E7B900" stroke="none" d="
M 733 232
Q 733 227.95 730.25 226.65 728.95 226 727 226
L 705.4 226
Q 711 226.2 711 232
L 711 281
Q 711 283.55 709.95 285 708.55 286.9 705.4 287
L 727 287
Q 733 287 733 281
L 733 232 Z"/>
</g>

<g id="Layer0_0_MEMBER_32_MEMBER_0_FILL">
<path fill="#FFFFFF" stroke="none" d="
M 724 270.45
Q 724 269.05 723.25 268 722.5 267 721.5 267 720.45 267 719.7 268 719 269.05 719 270.45
L 719 270.55
Q 719 271.95 719.7 273 720.45 274 721.5 274 722.5 274 723.25 273 724 271.95 724 270.55
L 724 270.45
M 721.5 240
Q 720.45 240 719.7 241 719 242.05 719 243.45
L 719 243.55
Q 719 244.95 719.7 246 720.45 247 721.5 247 722.5 247 723.25 246 724 244.95 724 243.55
L 724 243.45
Q 724 242.05 723.25 241 722.5 240 721.5 240 Z"/>
</g>

<g id="Layer0_0_MEMBER_33_FILL">
<path fill="#D77A50" stroke="none" d="
M 833 242
Q 833 236 827 236
L 805.4 236
Q 811 236.2 811 242
L 811 271
Q 811 276.8 805.4 277
L 827 277
Q 833 277 833 271
L 833 242 Z"/>

<path fill="#E9895E" stroke="none" d="
M 809 242
Q 809 236.2 803.4 236
L 764.65 236
Q 759 236.2 759 242
L 759 271
Q 759 276.8 764.65 277
L 803.4 277
Q 809 276.8 809 271
L 809 242 Z"/>

<path fill="#F3A07A" stroke="none" d="
M 805.4 236
L 803.4 236
Q 809 236.2 809 242
L 809 271
Q 809 276.8 803.4 277
L 805.4 277
Q 811 276.8 811 271
L 811 242
Q 811 236.2 805.4 236 Z"/>
</g>

<g id="Layer0_0_MEMBER_33_MEMBER_0_FILL">
<path fill="#FFFFFF" stroke="none" d="
M 819.7 262
Q 819 263.05 819 264.45
L 819 264.55
Q 819 265.95 819.7 267 820.45 268 821.5 268 822.5 268 823.25 267 824 265.95 824 264.55
L 824 264.45
Q 824 263.05 823.25 262 822.5 261 821.5 261 820.45 261 819.7 262
M 821.5 246
Q 820.45 246 819.7 247 819 248.05 819 249.45
L 819 249.55
Q 819 250.95 819.7 252 820.45 253 821.5 253 822.5 253 823.25 252 824 250.95 824 249.55
L 824 249.45
Q 824 248.05 823.25 247 822.5 246 821.5 246 Z"/>
</g>
</defs>

<g transform="matrix( 1, 0, 0, 1, -449,-15) ">
<use xlink:href="#Layer0_0_MEMBER_0_FILL"/>
</g>

<g transform="matrix( 1, 0, 0, 1, -449,-15) ">
<use xlink:href="#Layer0_0_MEMBER_1_FILL"/>
</g>

<g transform="matrix( 1, 0, 0, 1, -449,-15) ">
<use xlink:href="#Layer0_0_MEMBER_2_FILL"/>
</g>

<g transform="matrix( 1, 0, 0, 1, -449,-15) ">
<use xlink:href="#Layer0_0_MEMBER_3_FILL"/>
</g>

<g transform="matrix( 1, 0, 0, 1, -449,-15) ">
<use xlink:href="#Layer0_0_MEMBER_3_MEMBER_0_FILL"/>
</g>

<g transform="matrix( 1, 0, 0, 1, -449,-15) ">
<use xlink:href="#Layer0_0_MEMBER_4_FILL"/>
</g>

<g transform="matrix( 1, 0, 0, 1, -449,-15) ">
<use xlink:href="#Layer0_0_MEMBER_5_FILL"/>
</g>

<g transform="matrix( 1, 0, 0, 1, -449,-15) ">
<use xlink:href="#Layer0_0_MEMBER_6_FILL"/>
</g>

<g transform="matrix( 1, 0, 0, 1, -449,-15) ">
<use xlink:href="#Layer0_0_MEMBER_6_MEMBER_0_FILL"/>
</g>

<g transform="matrix( 1, 0, 0, 1, -449,-15) ">
<use xlink:href="#Layer0_0_MEMBER_7_FILL"/>
</g>

<g transform="matrix( 1, 0, 0, 1, -449,-15) ">
<use xlink:href="#Layer0_0_MEMBER_8_FILL"/>
</g>

<g transform="matrix( 1, 0, 0, 1, -449,-15) ">
<use xlink:href="#Layer0_0_MEMBER_9_FILL"/>
</g>

<g transform="matrix( 1, 0, 0, 1, -449,-15) ">
<use xlink:href="#Layer0_0_MEMBER_9_MEMBER_0_FILL"/>
</g>

<g transform="matrix( 1, 0, 0, 1, -449,-15) ">
<use xlink:href="#Layer0_0_MEMBER_10_FILL"/>
</g>

<g transform="matrix( 1, 0, 0, 1, -449,-15) ">
<use xlink:href="#Layer0_0_MEMBER_11_FILL"/>
</g>

<g transform="matrix( 1, 0, 0, 1, -449,-15) ">
<use xlink:href="#Layer0_0_MEMBER_11_MEMBER_0_FILL"/>
</g>

<g transform="matrix( 1, 0, 0, 1, -449,-15) ">
<use xlink:href="#Layer0_0_MEMBER_12_FILL"/>
</g>

<g transform="matrix( 1, 0, 0, 1, -449,-15) ">
<use xlink:href="#Layer0_0_MEMBER_13_FILL"/>
</g>

<g transform="matrix( 1, 0, 0, 1, -449,-15) ">
<use xlink:href="#Layer0_0_MEMBER_14_FILL"/>
</g>

<g transform="matrix( 1, 0, 0, 1, -449,-15) ">
<use xlink:href="#Layer0_0_MEMBER_15_FILL"/>
</g>

<g transform="matrix( 1, 0, 0, 1, -449,-15) ">
<use xlink:href="#Layer0_0_MEMBER_16_FILL"/>
</g>

<g transform="matrix( 1, 0, 0, 1, -449,-15) ">
<use xlink:href="#Layer0_0_MEMBER_17_FILL"/>
</g>

<g transform="matrix( 1, 0, 0, 1, -449,-15) ">
<use xlink:href="#Layer0_0_MEMBER_18_FILL"/>
</g>

<g transform="matrix( 1, 0, 0, 1, -449,-15) ">
<use xlink:href="#Layer0_0_MEMBER_19_FILL"/>
</g>

<g transform="matrix( 1, 0, 0, 1, -449,-15) ">
<use xlink:href="#Layer0_0_MEMBER_20_FILL"/>
</g>

<g transform="matrix( 1, 0, 0, 1, -449,-15) ">
<use xlink:href="#Layer0_0_MEMBER_21_FILL"/>
</g>

<g transform="matrix( 1, 0, 0, 1, -449,-15) ">
<use xlink:href="#Layer0_0_MEMBER_22_FILL"/>
</g>

<g transform="matrix( 1, 0, 0, 1, -449,-15) ">
<use xlink:href="#Layer0_0_MEMBER_23_FILL"/>
</g>

<g transform="matrix( 1, 0, 0, 1, -449,-15) ">
<use xlink:href="#Layer0_0_MEMBER_24_FILL"/>
</g>

<g transform="matrix( 1, 0, 0, 1, -449,-15) ">
<use xlink:href="#Layer0_0_MEMBER_25_FILL"/>
</g>

<g transform="matrix( 1, 0, 0, 1, -449,-15) ">
<use xlink:href="#Layer0_0_MEMBER_26_FILL"/>
</g>

<g transform="matrix( 1, 0, 0, 1, -449,-15) ">
<use xlink:href="#Layer0_0_MEMBER_27_FILL"/>
</g>

<g transform="matrix( 1, 0, 0, 1, -449,-15) ">
<use xlink:href="#Layer0_0_MEMBER_28_FILL"/>
</g>

<g transform="matrix( 1, 0, 0, 1, -449,-15) ">
<use xlink:href="#Layer0_0_MEMBER_29_FILL"/>
</g>

<g transform="matrix( 1, 0, 0, 1, -449,-15) ">
<use xlink:href="#Layer0_0_MEMBER_30_FILL"/>
</g>

<g transform="matrix( 1, 0, 0, 1, -449,-15) ">
<use xlink:href="#Layer0_0_MEMBER_30_MEMBER_0_FILL"/>
</g>

<g transform="matrix( 1, 0, 0, 1, -449,-15) ">
<use xlink:href="#Layer0_0_MEMBER_31_FILL"/>
</g>

<g transform="matrix( 1, 0, 0, 1, -449,-15) ">
<use xlink:href="#Layer0_0_MEMBER_31_MEMBER_0_FILL"/>
</g>

<g transform="matrix( 1, 0, 0, 1, -449,-15) ">
<use xlink:href="#Layer0_0_MEMBER_32_FILL"/>
</g>

<g transform="matrix( 1, 0, 0, 1, -449,-15) ">
<use xlink:href="#Layer0_0_MEMBER_32_MEMBER_0_FILL"/>
</g>

<g transform="matrix( 1, 0, 0, 1, -449,-15) ">
<use xlink:href="#Layer0_0_MEMBER_33_FILL"/>
</g>

<g transform="matrix( 1, 0, 0, 1, -449,-15) ">
<use xlink:href="#Layer0_0_MEMBER_33_MEMBER_0_FILL"/>
</g>
</svg>
