
<svg xmlns="http://www.w3.org/2000/svg" version="1.1" xmlns:xlink="http://www.w3.org/1999/xlink" preserveAspectRatio="none" x="0px" y="0px" width="550px" height="400px" viewBox="0 0 550 400">
<defs>
<g id="Layer0_0_FILL">
<path fill="#333333" stroke="none" d="
M 457.85 441.2
Q 457.85 440.55 457.85 440 457.85 429.95 450.75 422.75 444.1 416.15 434.85 415.75 433.55 413.85 431.95 412.3 424.85 405.1 414.75 405.1 404.75 405.1 397.6 412.3 395.8 414.1 394.5 416.05 389.05 417.7 384.75 422 377.65 429.15 377.65 439.25 377.65 445.1 380 449.85 375.65 456 375.65 463.9 375.65 473.1 381.55 479.75 381.5 481.2 381.5 482.75 381.5 492.8 388.55 499.85 395.65 507 405.65 507 413.85 507 420 502.35 423.6 503.45 427.55 503.45 437.65 503.45 444.7 496.35 450.5 490.65 451.6 483.1 455.29140625 481.67109375 458.45 478.95 459.30625 478.24375 460.1 477.45 461.31640625 476.2419921875 462.3 474.95 467.25 468.6486328125 467.25 460.35 467.25 450.3 460.1 443.15 459.05 442.1 457.85 441.2
M 567.95 435.7
Q 568.05 434.7 568.05 433.65 568.05 426.5 563.05 421.4 557.95 416.4 550.8 416.4 546.65 416.4 543.15 418.05 539.1 415.55 534.05 415.55 526.9 415.55 521.8 420.55 520 422.4 518.9 424.4 513.2 425.1 508.95 429.25 504.3 434.05 504.05 440.6 502.55 441.4 501.3 442.65 496.3 447.75 496.3 454.9 496.3 462.05 501.3 467.15 503.35 469.1 505.65 470.35 505.65 477.5 510.65 482.55 514.95 486.85 520.75 487.55 521.95 489.65 523.85 491.55 528.9 496.55 536.05 496.55 543.15 496.55 548.3 491.55 549.7 490.05 550.75 488.4 553.8 489.65 557.35 489.65 564.5 489.65 569.55 484.65 574.55 479.55 574.55 472.4 574.55 467.5 572.2 463.5 572.25 463.45 572.25 463.4 577.35 458.3 577.35 451.15 577.35 444 572.25 438.9 570.3 436.9 567.95 435.7
M 314.6 412.4
Q 312.2 412.4 309.85 412.85 305.05 410.35 299.2 410.3 289.5 410.4 282.7 417.2 278.7 421.2 277 426.1 269.85 427.25 264.45 432.65 258.2 438.9 257.75 447.55 256.65 448.35 255.6 449.4 248.75 456.25 248.8 465.9 248.8 475.6 255.65 482.45 261.15 487.95 268.55 489.05 270.2 492.2 272.9 494.9 279.8 501.8 289.4 501.8 297.15 501.85 303.2 497.5 307.55 499.35 312.75 499.45 322.35 499.45 329.2 492.6 336.1 485.7 336.15 476.05 336.1 474.6 335.95 473.15 336.35 472.75 336.75 472.35 343.6 465.5 343.65 455.75 343.65 446.75 337.6 440.2 338 438 338 435.8 338 426.1 331.15 419.25 324.35 412.45 314.6 412.4
M 291.05 444.3
Q 294.25 441.55 295.6 437.6 295.85 436.95 296.4 436.4 297.4 435.4 298.8 435.4 298.85 435.4 298.9 435.4 299.65 435.35 300.25 435.7 304.7 438.05 309.7 437.2 310.25 437.1 310.9 437.1
L 311 437.1
Q 312.35 437.05 313.3 438 314.25 438.95 314.25 440.35 314.25 440.6 314.25 440.9 313.55 444.35 314.5 447.8 315.45 451.35 317.95 454.05 318.7 454.9 318.75 456.05
L 318.75 456.15
Q 318.7 457.6 317.7 458.6 317.4 458.9 317.1 459.2 314.65 461.7 313.5 465 312.35 468.3 312.85 471.75 312.85 471.85 312.85 471.95 312.85 472 312.85 472.05 312.8 473.5 311.8 474.5 310.9 475.4 309.65 475.45 308.85 475.45 308.25 475.25 304.45 473.5 300.4 473.95 296.3 474.35 293 476.85 292.25 477.4 291.25 477.3
L 291 477.3
Q 289.65 477.25 288.7 476.3 288.3 475.85 288 475.4 286.3 472.15 283.4 470.1 280.45 468 276.9 467.45 275.95 467.25 275.2 466.5 274.2 465.5 274.2 464.1
L 274.2 464
Q 274.2 462.7 275.15 461.75 275.2 461.7 275.3 461.65 277.9 459.65 279.45 456.75 281 453.8 281.2 450.6 281.3 449.4 282.15 448.55 282.85 447.85 283.75 447.65 287.8 447 291.05 444.3
M 663.25 431.35
Q 664.7 424.7 661.2 418.8 657.25 412.2 649.75 410.2 642.4 408.25 635.75 412.1 629.25 415.85 627.1 423.4 626 427.55 626.7 431.25 624.15 431.55 621.75 432.95 617.4 435.35 616.15 440 615.1 444.8 617.55 448.95 617.65 449.1 617.7 449.2 617.7 449.3 617.45 449.45 613.25 451.65 611.9 456.3 610.6 461.15 613.2 465.15 615.65 469.3 620.3 470.55 623.15 471.4 625.75 470.9 622.3 474.05 620.9 479.2 619 486.75 622.75 493.25 626.35 499.95 634.05 502 641.45 503.75 648.1 499.95 652.15 497.65 654.8 493.6 657 496.95 661.1 497.9 665.75 499.15 669.9 496.9 674.1 494.6 675.25 489.8 676.45 485.45 674.6 481.7
L 674.75 481.85
Q 682.3 483.65 689 479.7 695.5 476.2 697.5 468.6 699.4 461.1 695.55 454.45 691.8 447.95 684.45 446.1 683.15 445.75 681.85 445.4 682.85 444.05 683.4 442.15 684.55 437.35 682.1 433.35 679.65 429.15 674.95 428 670.35 426.65 666.15 428.95 664.55 430.2 663.25 431.35 Z"/>

<path fill="#FF3300" stroke="none" d="
M 521.8 300.55
Q 520 302.4 518.9 304.4 513.2 305.1 508.95 309.25 504.3 314.05 504.05 320.6 502.55 321.4 501.3 322.65 496.3 327.75 496.3 334.9 496.3 342.05 501.3 347.15 503.35 349.1 505.65 350.35 505.65 357.5 510.65 362.55 514.95 366.85 520.75 367.55 521.95 369.65 523.85 371.55 528.9 376.55 536.05 376.55 543.15 376.55 548.3 371.55 549.7 370.05 550.75 368.4 553.8 369.65 557.35 369.65 564.5 369.65 569.55 364.65 574.55 359.55 574.55 352.4 574.55 347.5 572.2 343.5 572.25 343.45 572.25 343.4 577.35 338.3 577.35 331.15 577.35 324 572.25 318.9 570.3 316.9 567.95 315.7 568.05 314.7 568.05 313.65 568.05 306.5 563.05 301.4 557.95 296.4 550.8 296.4 546.65 296.4 543.15 298.05 539.1 295.55 534.05 295.55 526.9 295.55 521.8 300.55
M 338 315.8
Q 338 306.1 331.15 299.25 324.35 292.45 314.6 292.4 312.2 292.4 309.85 292.85 305.05 290.35 299.2 290.3 289.5 290.4 282.7 297.2 278.7 301.2 277 306.1 269.85 307.25 264.45 312.65 258.2 318.9 257.75 327.55 256.65 328.35 255.6 329.4 248.75 336.25 248.8 345.9 248.8 355.6 255.65 362.45 261.15 367.95 268.55 369.05 270.2 372.2 272.9 374.9 279.8 381.8 289.4 381.8 297.15 381.85 303.2 377.5 307.55 379.35 312.75 379.45 322.35 379.45 329.2 372.6 336.1 365.7 336.15 356.05 336.1 354.6 335.95 353.15 336.35 352.75 336.75 352.35 343.6 345.5 343.65 335.75 343.65 326.75 337.6 320.2 338 318 338 315.8
M 309.7 317.2
Q 310.25 317.1 310.9 317.1
L 311 317.1
Q 312.35 317.05 313.3 318 314.25 318.95 314.25 320.35 314.25 320.6 314.25 320.9 313.55 324.35 314.5 327.8 315.45 331.35 317.95 334.05 318.7 334.9 318.75 336.05
L 318.75 336.15
Q 318.7 337.6 317.7 338.6 317.4 338.9 317.1 339.2 314.65 341.7 313.5 345 312.35 348.3 312.85 351.75 312.85 351.85 312.85 351.95 312.85 352 312.85 352.05 312.8 353.5 311.8 354.5 310.9 355.4 309.65 355.45 308.85 355.45 308.25 355.25 304.45 353.5 300.4 353.95 296.3 354.35 293 356.85 292.25 357.4 291.25 357.3
L 291 357.3
Q 289.65 357.25 288.7 356.3 288.3 355.85 288 355.4 286.3 352.15 283.4 350.1 280.45 348 276.9 347.45 275.95 347.25 275.2 346.5 274.2 345.5 274.2 344.1
L 274.2 344
Q 274.2 342.7 275.15 341.75 275.2 341.7 275.3 341.65 277.9 339.65 279.45 336.75 281 333.8 281.2 330.6 281.3 329.4 282.15 328.55 282.85 327.85 283.75 327.65 287.8 327 291.05 324.3 294.25 321.55 295.6 317.6 295.85 316.95 296.4 316.4 297.4 315.4 298.8 315.4 298.85 315.4 298.9 315.4 299.65 315.35 300.25 315.7 304.7 318.05 309.7 317.2
M 434.85 295.75
Q 433.55 293.85 431.95 292.3 424.85 285.1 414.75 285.1 404.75 285.1 397.6 292.3 395.8 294.1 394.5 296.05 389.05 297.7 384.75 302 377.65 309.15 377.65 319.25 377.65 325.1 380 329.85 375.65 336 375.65 343.9 375.65 353.1 381.55 359.75 381.5 361.2 381.5 362.75 381.5 372.8 388.55 379.85 395.65 387 405.65 387 413.85 387 420 382.35 423.6 383.45 427.55 383.45 437.65 383.45 444.7 376.35 450.5 370.65 451.6 363.1 456.25 361.3 460.1 357.45 467.25 350.35 467.25 340.35 467.25 330.3 460.1 323.15 459.05 322.1 457.85 321.2 457.85 320.55 457.85 320 457.85 309.95 450.75 302.75 444.1 296.15 434.85 295.75
M 666.15 308.95
Q 664.55 310.2 663.25 311.35 664.7 304.7 661.2 298.8 657.25 292.2 649.75 290.2 642.4 288.25 635.75 292.1 629.25 295.85 627.1 303.4 626 307.55 626.7 311.25 624.15 311.55 621.75 312.95 617.4 315.35 616.15 320 615.1 324.8 617.55 328.95 617.65 329.1 617.7 329.2 617.7 329.3 617.45 329.45 613.25 331.65 611.9 336.3 610.6 341.15 613.2 345.15 615.65 349.3 620.3 350.55 623.15 351.4 625.75 350.9 622.3 354.05 620.9 359.2 619 366.75 622.75 373.25 626.35 379.95 634.05 382 641.45 383.75 648.1 379.95 652.15 377.65 654.8 373.6 657 376.95 661.1 377.9 665.75 379.15 669.9 376.9 674.1 374.6 675.25 369.8 676.45 365.45 674.6 361.7
L 674.75 361.85
Q 682.3 363.65 689 359.7 695.5 356.2 697.5 348.6 699.4 341.1 695.55 334.45 691.8 327.95 684.45 326.1 683.15 325.75 681.85 325.4 682.85 324.05 683.4 322.15 684.55 317.35 682.1 313.35 679.65 309.15 674.95 308 670.35 306.65 666.15 308.95 Z"/>

<path fill="#F0721E" stroke="none" d="
M 397.6 172.3
Q 395.8 174.1 394.5 176.05 389.05 177.7 384.75 182 377.65 189.15 377.65 199.25 377.65 205.1 380 209.85 375.65 216 375.65 223.9 375.65 233.1 381.55 239.75 381.5 241.2 381.5 242.75 381.5 252.8 388.55 259.85 395.65 267 405.65 267 413.85 267 420 262.35 423.6 263.45 427.55 263.45 437.65 263.45 444.7 256.35 450.5 250.65 451.6 243.1 456.25 241.3 460.1 237.45 467.25 230.35 467.25 220.35 467.25 210.3 460.1 203.15 459.05 202.1 457.85 201.2 457.85 200.55 457.85 200 457.85 189.95 450.75 182.75 444.1 176.15 434.85 175.75 433.55 173.85 431.95 172.3 424.85 165.1 414.75 165.1 404.75 165.1 397.6 172.3
M 338 195.8
Q 338 186.1 331.15 179.25 324.35 172.45 314.6 172.4 312.2 172.4 309.85 172.85 305.05 170.35 299.2 170.3 289.5 170.4 282.7 177.2 278.7 181.2 277 186.1 269.85 187.25 264.45 192.65 258.2 198.9 257.75 207.55 256.65 208.35 255.6 209.4 248.75 216.25 248.8 225.9 248.8 235.6 255.65 242.45 261.15 247.95 268.55 249.05 270.2 252.2 272.9 254.9 279.8 261.8 289.4 261.8 297.15 261.85 303.2 257.5 307.55 259.35 312.75 259.45 322.35 259.45 329.2 252.6 336.1 245.7 336.15 236.05 336.1 234.6 335.95 233.15 336.35 232.75 336.75 232.35 343.6 225.5 343.65 215.75 343.65 206.75 337.6 200.2 338 198 338 195.8
M 295.6 197.6
Q 295.85 196.95 296.4 196.4 297.4 195.4 298.8 195.4 298.85 195.4 298.9 195.4 299.65 195.35 300.25 195.7 304.7 198.05 309.7 197.2 310.25 197.1 310.9 197.1
L 311 197.1
Q 312.35 197.05 313.3 198 314.25 198.95 314.25 200.35 314.25 200.6 314.25 200.9 313.55 204.35 314.5 207.8 315.45 211.35 317.95 214.05 318.7 214.9 318.75 216.05
L 318.75 216.15
Q 318.7 217.6 317.7 218.6 317.4 218.9 317.1 219.2 314.65 221.7 313.5 225 312.35 228.3 312.85 231.75 312.85 231.85 312.85 231.95 312.85 232 312.85 232.05 312.8 233.5 311.8 234.5 310.9 235.4 309.65 235.45 308.85 235.45 308.25 235.25 304.45 233.5 300.4 233.95 296.3 234.35 293 236.85 292.25 237.4 291.25 237.3
L 291 237.3
Q 289.65 237.25 288.7 236.3 288.3 235.85 288 235.4 286.3 232.15 283.4 230.1 280.45 228 276.9 227.45 275.95 227.25 275.2 226.5 274.2 225.5 274.2 224.1
L 274.2 224
Q 274.2 222.7 275.15 221.75 275.2 221.7 275.3 221.65 277.9 219.65 279.45 216.75 281 213.8 281.2 210.6 281.3 209.4 282.15 208.55 282.85 207.85 283.75 207.65 287.8 207 291.05 204.3 294.25 201.55 295.6 197.6
M 521.8 180.55
Q 520 182.4 518.9 184.4 513.2 185.1 508.95 189.25 504.3 194.05 504.05 200.6 502.55 201.4 501.3 202.65 496.3 207.75 496.3 214.9 496.3 222.05 501.3 227.15 503.35 229.1 505.65 230.35 505.65 237.5 510.65 242.55 514.95 246.85 520.75 247.55 521.95 249.65 523.85 251.55 528.9 256.55 536.05 256.55 543.15 256.55 548.3 251.55 549.7 250.05 550.75 248.4 553.8 249.65 557.35 249.65 564.5 249.65 569.55 244.65 574.55 239.55 574.55 232.4 574.55 227.5 572.2 223.5 572.25 223.45 572.25 223.4 577.35 218.3 577.35 211.15 577.35 204 572.25 198.9 570.3 196.9 567.95 195.7 568.05 194.7 568.05 193.65 568.05 186.5 563.05 181.4 557.95 176.4 550.8 176.4 546.65 176.4 543.15 178.05 539.1 175.55 534.05 175.55 526.9 175.55 521.8 180.55
M 663.25 191.35
Q 664.7 184.7 661.2 178.8 657.25 172.2 649.75 170.2 642.4 168.25 635.75 172.1 629.25 175.85 627.1 183.4 626 187.55 626.7 191.25 624.15 191.55 621.75 192.95 617.4 195.35 616.15 200 615.1 204.8 617.55 208.95 617.65 209.1 617.7 209.2 617.7 209.3 617.45 209.45 613.25 211.65 611.9 216.3 610.6 221.15 613.2 225.15 615.65 229.3 620.3 230.55 623.15 231.4 625.75 230.9 622.3 234.05 620.9 239.2 619 246.75 622.75 253.25 626.35 259.95 634.05 262 641.45 263.75 648.1 259.95 652.15 257.65 654.8 253.6 657 256.95 661.1 257.9 665.75 259.15 669.9 256.9 674.1 254.6 675.25 249.8 676.45 245.45 674.6 241.7
L 674.75 241.85
Q 682.3 243.65 689 239.7 695.5 236.2 697.5 228.6 699.4 221.1 695.55 214.45 691.8 207.95 684.45 206.1 683.15 205.75 681.85 205.4 682.85 204.05 683.4 202.15 684.55 197.35 682.1 193.35 679.65 189.15 674.95 188 670.35 186.65 666.15 188.95 664.55 190.2 663.25 191.35 Z"/>

<path fill="#FFCC00" stroke="none" d="
M 337.6 80.2
Q 338 78 338 75.8 338 66.1 331.15 59.25 324.35 52.45 314.6 52.4 312.2 52.4 309.85 52.85 305.05 50.35 299.2 50.3 289.5 50.4 282.7 57.2 278.7 61.2 277 66.1 269.85 67.25 264.45 72.65 258.2 78.9 257.75 87.55 256.65 88.35 255.6 89.4 248.75 96.25 248.8 105.9 248.8 115.6 255.65 122.45 261.15 127.95 268.55 129.05 270.2 132.2 272.9 134.9 279.8 141.8 289.4 141.8 297.15 141.85 303.2 137.5 307.55 139.35 312.75 139.45 322.35 139.45 329.2 132.6 336.1 125.7 336.15 116.05 336.1 114.6 335.95 113.15 336.35 112.75 336.75 112.35 343.6 105.5 343.65 95.75 343.65 86.75 337.6 80.2
M 279.45 96.75
Q 281 93.8 281.2 90.6 281.3 89.4 282.15 88.55 282.85 87.85 283.75 87.65 287.8 87 291.05 84.3 294.25 81.55 295.6 77.6 295.85 76.95 296.4 76.4 297.4 75.4 298.8 75.4 298.85 75.4 298.9 75.4 299.65 75.35 300.25 75.7 304.7 78.05 309.7 77.2 310.25 77.1 310.9 77.1
L 311 77.1
Q 312.35 77.05 313.3 78 314.25 78.95 314.25 80.35 314.25 80.6 314.25 80.9 313.55 84.35 314.5 87.8 315.45 91.35 317.95 94.05 318.7 94.9 318.75 96.05
L 318.75 96.15
Q 318.7 97.6 317.7 98.6 317.4 98.9 317.1 99.2 314.65 101.7 313.5 105 312.35 108.3 312.85 111.75 312.85 111.85 312.85 111.95 312.85 112 312.85 112.05 312.8 113.5 311.8 114.5 310.9 115.4 309.65 115.45 308.85 115.45 308.25 115.25 304.45 113.5 300.4 113.95 296.3 114.35 293 116.85 292.25 117.4 291.25 117.3
L 291 117.3
Q 289.65 117.25 288.7 116.3 288.3 115.85 288 115.4 286.3 112.15 283.4 110.1 280.45 108 276.9 107.45 275.95 107.25 275.2 106.5 274.2 105.5 274.2 104.1
L 274.2 104
Q 274.2 102.7 275.15 101.75 275.2 101.7 275.3 101.65 277.9 99.65 279.45 96.75
M 434.85 55.75
Q 433.55 53.85 431.95 52.3 424.85 45.1 414.75 45.1 404.75 45.1 397.6 52.3 395.8 54.1 394.5 56.05 389.05 57.7 384.75 62 377.65 69.15 377.65 79.25 377.65 85.1 380 89.85 375.65 96 375.65 103.9 375.65 113.1 381.55 119.75 381.5 121.2 381.5 122.75 381.5 132.8 388.55 139.85 395.65 147 405.65 147 413.85 147 420 142.35 423.6 143.45 427.55 143.45 437.65 143.45 444.7 136.35 450.5 130.65 451.6 123.1 456.25 121.3 460.1 117.45 467.25 110.35 467.25 100.35 467.25 90.3 460.1 83.15 459.05 82.1 457.85 81.2 457.85 80.55 457.85 80 457.85 69.95 450.75 62.75 444.1 56.15 434.85 55.75
M 572.25 78.9
Q 570.3 76.9 567.95 75.7 568.05 74.7 568.05 73.65 568.05 66.5 563.05 61.4 557.95 56.4 550.8 56.4 546.65 56.4 543.15 58.05 539.1 55.55 534.05 55.55 526.9 55.55 521.8 60.55 520 62.4 518.9 64.4 513.2 65.1 508.95 69.25 504.3 74.05 504.05 80.6 502.55 81.4 501.3 82.65 496.3 87.75 496.3 94.9 496.3 102.05 501.3 107.15 503.35 109.1 505.65 110.35 505.65 117.5 510.65 122.55 514.95 126.85 520.75 127.55 521.95 129.65 523.85 131.55 528.9 136.55 536.05 136.55 543.15 136.55 548.3 131.55 549.7 130.05 550.75 128.4 553.8 129.65 557.35 129.65 564.5 129.65 569.55 124.65 574.55 119.55 574.55 112.4 574.55 107.5 572.2 103.5 572.25 103.45 572.25 103.4 577.35 98.3 577.35 91.15 577.35 84 572.25 78.9
M 663.25 71.35
Q 664.7 64.7 661.2 58.8 657.25 52.2 649.75 50.2 642.4 48.25 635.75 52.1 629.25 55.85 627.1 63.4 626 67.55 626.7 71.25 624.15 71.55 621.75 72.95 617.4 75.35 616.15 80 615.1 84.8 617.55 88.95 617.65 89.1 617.7 89.2 617.7 89.3 617.45 89.45 613.25 91.65 611.9 96.3 610.6 101.15 613.2 105.15 615.65 109.3 620.3 110.55 623.15 111.4 625.75 110.9 622.3 114.05 620.9 119.2 619 126.75 622.75 133.25 626.35 139.95 634.05 142 641.45 143.75 648.1 139.95 652.15 137.65 654.8 133.6 657 136.95 661.1 137.9 665.75 139.15 669.9 136.9 674.1 134.6 675.25 129.8 676.45 125.45 674.6 121.7
L 674.75 121.85
Q 682.3 123.65 689 119.7 695.5 116.2 697.5 108.6 699.4 101.1 695.55 94.45 691.8 87.95 684.45 86.1 683.15 85.75 681.85 85.4 682.85 84.05 683.4 82.15 684.55 77.35 682.1 73.35 679.65 69.15 674.95 68 670.35 66.65 666.15 68.95 664.55 70.2 663.25 71.35 Z"/>
</g>

<g id="Layer0_1_FILL">
<path fill="#FFFFFF" stroke="none" d="
M 188.4 36.8
L 188.35 36.8
Q 188.35 36.85 188.25 36.95
L 134.55 82.15
Q 128.85 78.3 121.95 77.45
L 118.2 33.6
Q 118.2 33.55 118.15 33.55 118 33.45 117.9 33.3
L 117.85 33.3
Q 117.8 33.45 117.65 33.55 117.55 33.55 117.55 33.6
L 113.85 77.45
Q 106.9 78.3 101.25 82.15
L 47.5 36.95
Q 47.45 36.85 47.45 36.8 47.3 36.8 47.15 36.85 47.1 37 47.1 37.15 47.15 37.15 47.2 37.25
L 92.4 90.9
Q 88.4 96.8 87.65 104.05
L 48.65 107.35
Q 48.5 107.35 48.45 107.4 48.35 107.5 48.35 107.65
L 48.35 107.7
Q 48.5 107.8 48.6 107.95
L 48.65 107.95 87.65 111.3
Q 88.45 118.45 92.45 124.3
L 47.2 177.95
Q 47.15 178.05 47.1 178.05
L 47.1 178.1
Q 47.1 178.25 47.15 178.4 47.3 178.5 47.45 178.5 47.45 178.4 47.5 178.4
L 101.35 133.15
Q 106.1 136.25 111.65 137.35
L 117.65 207.4
Q 117.7 207.5 117.8 207.6 117.85 207.6 117.9 207.6 118.05 207.6 118.15 207.55
L 118.2 207.5 118.2 207.4 124.2 137.35
Q 130.6 136.05 135.95 132
L 163.75 155.4
Q 163.85 155.5 164 155.5 164.05 155.5 164.2 155.4 164.25 155.25 164.25 155.1
L 164.25 155.05
Q 164.2 155.05 164.2 154.95
L 140.9 127.35
Q 146.1 121.35 147.65 113.9
L 217.6 107.95
Q 217.75 107.95 217.85 107.8 217.9 107.8 217.9 107.7 217.9 107.65 217.9 107.55 217.9 107.5 217.9 107.4 217.75 107.25 217.6 107.25
L 147.65 101.35
Q 146.55 95.75 143.4 91
L 188.7 37.25
Q 188.7 37.15 188.75 37.15 188.75 37 188.7 36.85 188.55 36.8 188.4 36.8 Z"/>
</g>

<g id="Layer0_2_MEMBER_0_FILL">
<path fill="#FFFFFF" fill-opacity="0.2" stroke="none" d="
M 1049.5 53.55
Q 1018.5 53.55 996.55 75.5 974.6 97.45 974.6 128.45 974.6 159.45 996.55 181.4 1018.5 203.35 1049.5 203.35 1080.5 203.35 1102.45 181.4 1124.4 159.45 1124.4 128.45 1124.4 97.45 1102.45 75.5 1080.5 53.55 1049.5 53.55 Z"/>
</g>

<g id="Layer0_2_MEMBER_1_MEMBER_0_MEMBER_0_MEMBER_0_FILL">
<path fill="#F0721E" stroke="none" d="
M 1068.5 85.25
Q 1067.2 83.35 1065.6 81.8 1058.5 74.6 1048.4 74.6 1038.4 74.6 1031.25 81.8 1029.45 83.6 1028.15 85.55 1022.7 87.2 1018.4 91.5 1011.3 98.65 1011.3 108.75 1011.3 114.6 1013.65 119.35 1009.3 125.5 1009.3 133.4 1009.3 142.6 1015.2 149.25 1015.15 150.7 1015.15 152.25 1015.15 162.3 1022.2 169.35 1029.3 176.5 1039.3 176.5 1047.5 176.5 1053.65 171.85 1057.25 172.95 1061.2 172.95 1071.3 172.95 1078.35 165.85 1084.15 160.15 1085.25 152.6 1089.9 150.8 1093.75 146.95 1100.9 139.85 1100.9 129.85 1100.9 119.8 1093.75 112.65 1092.7 111.6 1091.5 110.7 1091.5 110.05 1091.5 109.5 1091.5 99.45 1084.4 92.25 1077.75 85.65 1068.5 85.25 Z"/>
</g>

<g id="Layer0_2_MEMBER_1_MEMBER_0_MEMBER_1_MEMBER_0_FILL">
<path fill="#F0721E" stroke="none" d="
M 992.7 84.4
Q 992.35 84.2 991.85 84.35 991.45 84.35 991.25 84.75 991 85.1 991.1 85.6 991.15 85.95 991.5 86.2
L 1030.65 117.15
Q 1030.85 117.3 1031.2 117.35 1031.45 117.45 1031.8 117.3 1032.1 117.15 1032.25 116.85
L 1037.3 109.1
Q 1037.5 108.8 1037.5 108.55 1037.5 108.25 1037.3 107.95 1037.15 107.7 1036.95 107.55
L 992.7 84.4 Z"/>
</g>

<g id="Layer0_2_MEMBER_1_MEMBER_0_MEMBER_1_MEMBER_1_FILL">
<path fill="#FFCC00" stroke="none" d="
M 1046.8 139.75
Q 1046.45 139.85 1046.35 140.15 1046.15 140.45 1046.15 140.7
L 1045.85 190.55
Q 1045.85 190.95 1046.15 191.3 1046.35 191.6 1046.8 191.6 1047.15 191.65 1047.5 191.45 1047.85 191.1 1047.95 190.75
L 1057.75 141.8
Q 1057.8 141.45 1057.75 141.2 1057.5 140.9 1057.25 140.7 1057.05 140.5 1056.75 140.45
L 1047.4 139.65
Q 1047.1 139.6 1046.8 139.75 Z"/>
</g>

<g id="Layer0_2_MEMBER_1_MEMBER_0_MEMBER_1_MEMBER_2_FILL">
<path fill="#FFCC00" stroke="none" d="
M 1104.2 71.4
Q 1104.2 71 1103.95 70.75 1103.6 70.4 1103.2 70.4 1102.75 70.4 1102.4 70.65
L 1064.55 103.25
Q 1064.25 103.45 1064.2 103.75 1064.05 104 1064.2 104.35 1064.25 104.65 1064.45 104.85
L 1071.2 111.4
Q 1071.4 111.6 1071.75 111.65 1072.05 111.75 1072.35 111.6 1072.6 111.5 1072.8 111.3
L 1104 72.2
Q 1104.2 71.85 1104.2 71.4 Z"/>
</g>

<g id="Layer0_2_MEMBER_1_MEMBER_0_MEMBER_2_MEMBER_0_FILL">
<path fill="#FFCC00" stroke="none" d="
M 1077.7 92.75
Q 1072.6 87.75 1065.45 87.75 1061.3 87.75 1057.8 89.4 1053.75 86.9 1048.7 86.9 1041.55 86.9 1036.45 91.9 1034.65 93.75 1033.55 95.75 1027.85 96.45 1023.6 100.6 1018.95 105.4 1018.7 111.95 1017.2 112.75 1015.95 114 1010.95 119.1 1010.95 126.25 1010.95 133.4 1015.95 138.5 1018 140.45 1020.3 141.7 1020.3 148.85 1025.3 153.9 1029.6 158.2 1035.4 158.9 1036.6 161 1038.5 162.9 1043.55 167.9 1050.7 167.9 1057.8 167.9 1062.95 162.9 1064.35 161.4 1065.4 159.75 1068.45 161 1072 161 1079.15 161 1084.2 156 1089.2 150.9 1089.2 143.75 1089.2 138.85 1086.85 134.85 1086.9 134.8 1086.9 134.75 1092 129.65 1092 122.5 1092 115.35 1086.9 110.25 1084.95 108.25 1082.6 107.05 1082.7 106.05 1082.7 105 1082.7 97.85 1077.7 92.75 Z"/>
</g>

<g id="Layer0_2_MEMBER_1_MEMBER_0_MEMBER_3_FILL">
<path fill="#FFFFFF" stroke="none" d="
M 1044.1 135.1
Q 1044.2 134.75 1044.05 134.45
L 1041.45 125.65
Q 1041.4 125.3 1041.2 125.05 1040.9 124.85 1040.65 124.85 1040.35 124.8 1040.1 124.95
L 993.6 143.15
Q 993.15 143.2 992.95 143.65 992.8 143.95 992.9 144.45 993.05 144.8 993.4 145 993.75 145.3 994.2 145.2
L 1043.2 135.85
Q 1043.5 135.7 1043.75 135.55 1044.05 135.35 1044.1 135.1 Z"/>
</g>

<g id="Layer0_2_MEMBER_1_MEMBER_0_MEMBER_4_FILL">
<path fill="#FFFFFF" stroke="none" d="
M 1058.15 126.05
Q 1057.8 126.1 1057.75 126.45
L 1053.3 134.45
Q 1053.1 134.65 1053.1 135 1053.1 135.35 1053.35 135.65 1053.5 135.85 1053.75 136
L 1099.55 156.15
Q 1099.9 156.25 1100.35 156.15 1100.75 155.95 1100.95 155.65 1101.1 155.25 1101.1 154.9 1100.95 154.4 1100.6 154.2
L 1059.35 126.05
Q 1059.05 125.85 1058.7 125.85 1058.35 125.85 1058.15 126.05 Z"/>
</g>

<g id="Layer0_2_MEMBER_1_MEMBER_0_MEMBER_5_FILL">
<path fill="#FFFFFF" stroke="none" d="
M 1050.45 71.05
Q 1050.1 70.8 1049.75 70.85 1049.25 70.85 1049 71.2 1048.7 71.4 1048.7 71.9
L 1047.4 121.85
Q 1047.4 122.15 1047.5 122.45 1047.65 122.7 1047.95 122.85 1048.3 122.9 1048.55 122.9
L 1057.75 122.3
Q 1058 122.3 1058.3 122.15 1058.55 121.95 1058.55 121.65 1058.85 121.4 1058.8 121.05
L 1050.8 71.75
Q 1050.8 71.3 1050.45 71.05 Z"/>
</g>

<g id="Layer0_2_MEMBER_1_MEMBER_1_FILL">
<path fill="#FFFFFF" stroke="none" d="
M 1033.6 128.7
Q 1033.6 136.7 1039.25 142.3 1044.8 147.95 1052.8 147.95 1060.7 147.95 1066.35 142.3 1072 136.7 1072 128.7 1072 120.75 1066.35 115.15 1060.7 109.5 1052.8 109.5 1044.8 109.5 1039.25 115.15 1033.6 120.75 1033.6 128.7 Z"/>
</g>

<g id="Layer0_3_MEMBER_0_FILL">
<path fill="#FFCC00" fill-opacity="0.5019607843137255" stroke="none" d="
M 888.75 57.75
Q 861.65 30.65 823.35 30.65 785.05 30.65 757.95 57.75 730.85 84.85 730.85 123.15 730.85 161.45 757.95 188.55 785.05 215.65 823.35 215.65 861.65 215.65 888.75 188.55 915.85 161.45 915.85 123.15 915.85 84.85 888.75 57.75
M 823.35 53.8
Q 852.1 53.8 872.4 74.1 892.75 94.45 892.75 123.15 892.75 151.9 872.4 172.2 852.1 192.55 823.35 192.55 794.65 192.55 774.3 172.2 754 151.9 754 123.15 754 94.45 774.3 74.1 794.65 53.8 823.35 53.8 Z"/>

<path fill="#FFFFFF" fill-opacity="0.30196078431372547" stroke="none" d="
M 872.4 74.1
Q 852.1 53.8 823.35 53.8 794.65 53.8 774.3 74.1 754 94.45 754 123.15 754 151.9 774.3 172.2 794.65 192.55 823.35 192.55 852.1 192.55 872.4 172.2 892.75 151.9 892.75 123.15 892.75 94.45 872.4 74.1 Z"/>
</g>

<g id="Layer0_3_MEMBER_1_MEMBER_0_FILL">
<path fill="#FFCC00" stroke="none" d="
M 849.2 88.3
Q 836.6 75.7 818.75 75.7 800.95 75.7 788.25 88.3 775.65 101.05 775.65 118.85 775.65 136.65 788.25 149.3 800.95 161.95 818.75 161.95 836.6 161.95 849.2 149.3 861.95 136.65 861.95 118.85 861.95 101.05 849.2 88.3 Z"/>
</g>

<g id="Layer0_3_MEMBER_1_MEMBER_1_FILL">
<path fill="#FFFFFF" stroke="none" d="
M 892.85 51.6
Q 892.85 51.65 892.75 51.75
L 831.85 103
Q 831.4 103.3 830.9 103.3 830.3 103.3 829.95 102.95 829.5 102.5 829.45 102
L 829.35 100.6 815.5 100.6 815.35 102
Q 815.25 102.5 814.9 102.95 814.45 103.3 813.95 103.3 813.35 103.3 812.95 103
L 752 51.75
Q 751.95 51.65 751.95 51.6 751.8 51.6 751.65 51.65 751.6 51.8 751.6 51.95 751.65 51.95 751.7 52.05
L 803 112.95
Q 803.3 113.4 803.3 113.95 803.3 114.45 802.9 114.9 802.5 115.3 801.95 115.35
L 798.35 115.65 798.35 129.2 801.95 129.5
Q 802.5 129.6 802.9 130.05 803.3 130.4 803.3 131 803.3 131.5 803 131.95
L 751.7 192.75
Q 751.65 192.85 751.6 192.85
L 751.6 192.9
Q 751.6 193.05 751.65 193.2 751.8 193.3 751.95 193.3 751.95 193.2 752 193.2
L 812.95 141.95
Q 813.35 141.55 813.95 141.55 814.45 141.55 814.9 142 815.25 142.35 815.35 142.95
L 822.15 222.2
Q 822.2 222.3 822.3 222.4 822.35 222.4 822.4 222.4 822.55 222.4 822.65 222.35
L 822.7 222.3 822.7 222.2 829.45 142.95
Q 829.5 142.35 829.95 142 830.3 141.55 830.9 141.55 831.4 141.55 831.85 141.95
L 835.1 144.7 835.1 135.85 845.15 135.85 841.85 131.95
Q 841.5 131.5 841.5 131 841.5 130.4 841.9 130.05 842.3 129.6 842.85 129.5
L 922.1 122.75
Q 922.25 122.75 922.35 122.6 922.4 122.6 922.4 122.5 922.4 122.45 922.4 122.35 922.4 122.3 922.4 122.2 922.25 122.05 922.1 122.05
L 842.85 115.35
Q 842.3 115.3 841.9 114.9 841.5 114.45 841.5 113.95 841.5 113.4 841.85 112.95
L 893.2 52.05
Q 893.2 51.95 893.25 51.95 893.25 51.8 893.2 51.65 893.05 51.6 892.9 51.6
L 892.85 51.6 Z"/>
</g>

<g id="Layer0_3_MEMBER_1_MEMBER_1_MEMBER_0_FILL">
<path fill="#FFFFFF" stroke="none" d="
M 822.4 48.1
L 822.35 48.1
Q 822.3 48.25 822.15 48.35 822.05 48.35 822.05 48.4
L 816.65 112.35 828.15 112.35 822.7 48.4
Q 822.7 48.35 822.65 48.35 822.5 48.25 822.4 48.1 Z"/>
</g>

<g id="Layer0_3_MEMBER_1_MEMBER_1_MEMBER_1_FILL">
<path fill="#FFFFFF" stroke="none" d="
M 835.45 130.35
L 830.6 130.35 830.6 138.55 868.25 170.2
Q 868.35 170.3 868.5 170.3 868.55 170.3 868.7 170.2 868.75 170.05 868.75 169.9
L 868.75 169.85
Q 868.7 169.85 868.7 169.75
L 835.45 130.35 Z"/>
</g>

<g id="Layer0_3_MEMBER_1_MEMBER_1_MEMBER_2_FILL">
<path fill="#FFFFFF" stroke="none" d="
M 817.1 128.2
L 817.1 116.7 753.15 122.15
Q 753 122.15 752.95 122.2 752.85 122.3 752.85 122.45
L 752.85 122.5
Q 753 122.6 753.1 122.75
L 753.15 122.75 817.1 128.2 Z"/>
</g>

<g id="Layer0_3_MEMBER_1_MEMBER_2_FILL">
<path fill="#FFFFFF" stroke="none" d="
M 822.35 152.75
Q 834.9 152.75 843.8 143.85 852.75 134.9 852.75 122.35 852.75 109.8 843.8 100.9 834.9 92 822.35 92 809.8 92 800.9 100.9 791.95 109.8 791.95 122.35 791.95 134.9 800.9 143.85 809.8 152.75 822.35 152.75 Z"/>
</g>

<g id="Layer0_4_MEMBER_0_FILL">
<path fill="#333333" stroke="none" d="
M 747.8 267.2
Q 741.5 273.65 741.5 282.55 741.5 287.75 743.65 292.05 739.7 297.45 739.7 304.5 739.7 312.7 745 318.65 744.9 319.95 744.9 321.3 744.9 330.25 751.2 336.5 757.55 342.85 766.5 342.85 773.75 342.85 779.2 338.7 782.35 339.75 785.95 339.75 794.95 339.75 801.2 333.4 806.35 328.4 807.35 321.6 811.5 319.95 814.9 316.65 821.25 310.35 821.25 301.4 821.25 292.4 814.9 286.05 813.95 285.15 812.95 284.3 812.95 283.75 812.95 283.25 812.95 274.3 806.6 267.9 800.7 262 792.45 261.65 791.3 260 789.8 258.55 783.5 252.2 774.55 252.2 765.65 252.2 759.25 258.55 757.65 260.15 756.45 261.9 751.7 263.4 747.8 267.2 Z"/>
</g>

<g id="Layer0_4_MEMBER_1_MEMBER_0_MEMBER_0_FILL">
<path fill="#F0721E" stroke="none" d="
M 753.15 274.1
Q 748.1 279.25 748.1 286.45 748.1 290.7 749.8 294.15 746.65 298.55 746.65 304.2 746.65 310.85 750.9 315.65 750.8 316.7 750.8 317.8 750.8 325.05 755.9 330.1 761 335.2 768.25 335.2 774.1 335.2 778.55 331.85 781.1 332.7 784 332.7 791.25 332.7 796.35 327.6 800.45 323.5 801.3 318 804.6 316.7 807.4 314 812.5 308.95 812.5 301.7 812.5 294.45 807.4 289.3 806.65 288.55 805.8 287.9 805.8 287.45 805.8 287 805.8 279.8 800.7 274.65 795.9 269.85 789.25 269.6 788.3 268.25 787.1 267.05 782 261.95 774.75 261.95 767.55 261.95 762.4 267.05 761.1 268.35 760.15 269.8 756.3 271 753.15 274.1 Z"/>
</g>

<g id="Layer0_4_MEMBER_1_MEMBER_1_MEMBER_0_FILL">
<path fill="#F0721E" stroke="none" d="
M 744.1 274.85
Q 743.95 275.1 744.05 275.45 744.1 275.7 744.3 275.9
L 772.5 298.15
Q 772.65 298.25 772.85 298.3 773.1 298.35 773.3 298.25 773.5 298.15 773.65 297.95
L 777.3 292.35
Q 777.4 292.15 777.4 291.95 777.4 291.7 777.3 291.55 777.15 291.3 777 291.25
L 745.2 274.6
Q 744.9 274.45 744.6 274.55 744.3 274.55 744.1 274.85 Z"/>
</g>

<g id="Layer0_4_MEMBER_1_MEMBER_1_MEMBER_1_FILL">
<path fill="#FFCC00" stroke="none" d="
M 782.45 292.8
Q 782.3 292.65 782.1 292.6
L 775.35 292
Q 775.1 292 774.9 292.1 774.65 292.25 774.6 292.4 774.45 292.55 774.45 292.8
L 774.2 328.65
Q 774.2 328.95 774.4 329.2 774.6 329.35 774.9 329.4 775.2 329.45 775.4 329.3 775.65 329.05 775.75 328.8
L 782.75 293.6
Q 782.8 293.35 782.75 293.15 782.65 292.9 782.45 292.8 Z"/>
</g>

<g id="Layer0_4_MEMBER_1_MEMBER_1_MEMBER_2_FILL">
<path fill="#FFCC00" stroke="none" d="
M 804.75 267.45
Q 804.4 267.45 804.2 267.65
L 776.9 291.05
Q 776.75 291.25 776.7 291.45 776.6 291.65 776.7 291.9 776.7 292.1 776.85 292.25
L 781.7 296.95
Q 781.85 297.05 782.1 297.15 782.3 297.2 782.55 297.1 782.75 297.05 782.9 296.9
L 805.35 268.75
Q 805.5 268.5 805.5 268.2 805.5 267.9 805.25 267.65 805 267.45 804.75 267.45 Z"/>
</g>

<g id="Layer0_4_MEMBER_1_MEMBER_2_MEMBER_0_FILL">
<path fill="#FFCC00" stroke="none" d="
M 761.65 283.5
Q 759.1 286.05 758.95 289.6 758.2 290.1 757.5 290.75 754.8 293.55 754.8 297.4 754.8 301.3 757.5 304.05 758.6 305.1 759.85 305.8 759.85 309.7 762.55 312.45 764.9 314.75 768.05 315.15 768.7 316.3 769.7 317.3 772.45 320.05 776.35 320.05 780.25 320.05 783 317.3 783.8 316.55 784.35 315.6 786 316.3 787.95 316.3 791.8 316.3 794.6 313.55 797.3 310.8 797.3 306.95 797.3 304.25 796 302.1 796 302.05 796.1 302 798.8 299.25 798.8 295.35 798.8 291.5 796.1 288.7 795 287.65 793.75 287 793.75 286.45 793.75 285.85 793.75 281.95 791.05 279.2 788.25 276.45 784.4 276.45 782.1 276.45 780.25 277.4 778.05 276.05 775.3 276.05 771.4 276.05 768.65 278.75 767.65 279.7 767.05 280.85 764 281.2 761.65 283.5 Z"/>
</g>

<g id="Layer0_4_MEMBER_1_MEMBER_3_FILL">
<path fill="#FFFFFF" stroke="none" d="
M 754.6 302.25
Q 754.3 302.3 754.15 302.6 754.05 302.85 754.15 303.15 754.25 303.45 754.5 303.6 754.7 303.75 755.05 303.75
L 777.95 299.4 777.95 293.1 754.6 302.25 Z"/>
</g>

<g id="Layer0_4_MEMBER_1_MEMBER_4_FILL">
<path fill="#FFFFFF" stroke="none" d="
M 796.85 309.45
Q 797.1 309.55 797.45 309.45 797.7 309.3 797.85 309.1 798 308.8 797.95 308.55 797.85 308.2 797.65 308.05
L 773.7 291.75 773.7 299.3 796.85 309.45 Z"/>
</g>

<g id="Layer0_4_MEMBER_1_MEMBER_5_FILL">
<path fill="#FFFFFF" stroke="none" d="
M 775.35 273.6
Q 775.15 273.75 775.1 274.1
L 774.4 301.5 781.1 301.5 776.65 274
Q 776.65 273.65 776.4 273.5 776.15 273.3 775.85 273.35 775.55 273.35 775.35 273.6 Z"/>
</g>

<g id="Layer0_4_MEMBER_2_FILL">
<path fill="#FFFFFF" stroke="none" d="
M 784.3 290.25
Q 781.25 287.25 776.95 287.25 772.7 287.25 769.6 290.25 766.6 293.25 766.6 297.6 766.6 301.85 769.6 304.9 772.7 307.95 776.95 307.95 781.25 307.95 784.3 304.9 787.3 301.85 787.3 297.6 787.3 293.25 784.3 290.25 Z"/>
</g>

<g id="Layer0_5_MEMBER_0_FILL">
<path fill="#333333" fill-opacity="0.7019607843137254" stroke="none" d="
M 927.65 263.95
Q 920.15 258.6 911.1 259.65 909.55 258.05 907.65 256.75 899.65 250.95 889.95 252.55 880.25 254.15 874.45 262.15 873 264.25 872 266.35 867.1 268.85 863.55 273.65 857.85 281.75 859.4 291.45 860.35 297.1 863.4 301.45 860.1 308 861.35 315.65 862.85 324.6 869.65 330.15 869.75 331.5 870 333 871.6 342.75 879.55 348.45 887.55 354.2 897.3 352.65 905.2 351.35 910.45 345.85 914.05 346.45 917.95 345.8 927.7 344.2 933.4 336.2 938.05 329.8 937.95 322.25 942.15 319.75 945.35 315.5 951.1 307.55 949.5 297.75 947.9 288.05 939.9 282.25 938.75 281.45 937.45 280.65 937.35 280.1 937.25 279.45 935.65 269.75 927.65 263.95 Z"/>
</g>

<g id="Layer0_5_MEMBER_1_FILL">
<path fill="#FFCC00" stroke="none" d="
M 906.25 285.8
Q 904.5 284.9 902.4 284.9 898.8 284.9 896.3 287.4
L 896.35 287.4
Q 895.7 288 895.25 288.65 892.85 289.15 891.05 291
L 891 291
Q 888.95 293.15 888.6 295.85 888.25 296.15 887.95 296.5
L 887.9 296.5
Q 885.4 299.05 885.4 302.6 885.4 306.15 887.95 308.7 888.55 309.35 889.25 309.8 889.5 312.8 891.7 315.05 893.6 316.85 896.05 317.4 896.45 318.1 897.1 318.7 899.65 321.2 903.25 321.2 906.85 321.2 909.35 318.7 909.6 318.45 909.85 318.15 910.85 318.4 911.95 318.4 915.55 318.4 918.05 315.9
L 918.1 315.9
Q 920.6 313.35 920.6 309.75 920.6 307.95 919.9 306.4 921.7 304.1 921.7 301.05 921.7 297.5 919.2 294.95 918.55 294.3 917.9 293.9 917.9 290.35 915.4 287.8
L 915.35 287.8
Q 912.85 285.25 909.3 285.25 907.6 285.25 906.25 285.8 Z"/>
</g>

<g id="Layer0_5_MEMBER_1_MEMBER_0_FILL">
<path fill="#F0721E" stroke="none" d="
M 916.15 271.15
Q 915.15 269.75 913.85 268.45 908.45 263 900.7 263 893 263 887.55 268.45 886.15 269.85 885.1 271.4 881 272.7 877.65 275.95 872.2 281.5 872.2 289.2 872.2 293.7 874.05 297.4 870.65 302.05 870.65 308.15 870.65 315.25 875.25 320.4 875.1 321.45 875.1 322.65 875.1 330.35 880.6 335.75 886.05 341.25 893.75 341.25 900 341.25 904.75 337.65 907.5 338.55 910.55 338.55 918.3 338.55 923.75 333.1 928.15 328.75 929.05 322.9 932.6 321.5 935.55 318.6 941 313.2 941 305.45 941 297.7 935.55 292.25 934.75 291.45 933.85 290.7 933.85 290.25 933.85 289.8 933.85 282.05 928.35 276.55 923.25 271.45 916.15 271.15
M 927.3 292.75
Q 927.3 293.1 927.3 293.45 928 294.05 928.6 294.7 932.95 298.95 932.95 305.1 932.95 311.15 928.6 315.4 926.3 317.7 923.5 318.75 922.8 323.4 919.35 326.8 915.1 331.1 908.95 331.1 906.6 331.1 904.4 330.4 900.7 333.2 895.8 333.2 889.7 333.2 885.4 328.9 881.15 324.65 881.15 318.6 881.15 317.65 881.25 316.8 877.65 312.75 877.65 307.2 877.65 302.4 880.25 298.75 878.85 295.85 878.85 292.3 878.85 286.25 883.1 281.9 885.75 279.3 889 278.3 889.8 277.1 890.9 276 895.2 271.7 901.25 271.7 907.3 271.7 911.6 276 912.6 277 913.4 278.1 919 278.35 923 282.35 927.3 286.7 927.3 292.75 Z"/>

<path fill="#FFCC00" stroke="none" d="
M 927.3 293.45
Q 927.3 293.1 927.3 292.75 927.3 286.7 923 282.35 919 278.35 913.4 278.1 912.6 277 911.6 276 907.3 271.7 901.25 271.7 895.2 271.7 890.9 276 889.8 277.1 889 278.3 885.75 279.3 883.1 281.9 878.85 286.25 878.85 292.3 878.85 295.85 880.25 298.75 877.65 302.4 877.65 307.2 877.65 312.75 881.25 316.8 881.15 317.65 881.15 318.6 881.15 324.65 885.4 328.9 889.7 333.2 895.8 333.2 900.7 333.2 904.4 330.4 906.6 331.1 908.95 331.1 915.1 331.1 919.35 326.8 922.8 323.4 923.5 318.75 926.3 317.7 928.6 315.4 932.95 311.15 932.95 305.1 932.95 298.95 928.6 294.7 928 294.05 927.3 293.45 Z"/>
</g>

<g id="Layer0_5_MEMBER_2_FILL">
<path fill="#FFFFFF" stroke="none" d="
M 897.3 303.35
Q 897.3 306.05 899.25 308 901.15 309.9 903.9 309.9 906.6 309.9 908.5 308 910.45 306.05 910.45 303.35 910.45 300.6 908.5 298.7 906.6 296.75 903.9 296.75 901.15 296.75 899.25 298.7 897.3 300.6 897.3 303.35 Z"/>
</g>

<g id="Layer0_6_MEMBER_0_FILL">
<path fill="#333333" fill-opacity="0.4" stroke="none" d="
M 1072.05 238.4
Q 1068.95 239.25 1066.25 240.55 1059.4 239.05 1051.95 240.95 1039.7 244.3 1033.4 255.2 1029.75 261.55 1029.3 268.3 1020.75 272.15 1015.75 280.8 1009.95 290.8 1012.2 301.85 1011.25 303.25 1010.25 304.95 1003.95 315.9 1007.2 328 1010.45 340.2 1021.4 346.55 1030.3 351.65 1039.85 350.45 1043.05 353.95 1047.4 356.45 1058.35 362.8 1070.5 359.55 1080.3 357 1086.3 349.4 1092.5 350.3 1099.1 348.7 1111.3 345.45 1117.6 334.45 1123.95 323.5 1120.65 311.35 1120.15 309.55 1119.45 307.75 1119.85 307.1 1120.25 306.4 1126.5 295.5 1123.35 283.25 1120.3 271.9 1110.4 265.6 1110.15 262.75 1109.35 259.9 1106.1 247.75 1095.25 241.5 1084.3 235.2 1072.05 238.4 Z"/>
</g>

<g id="Layer0_6_MEMBER_1_FILL">
<path fill="#F0721E" stroke="none" d="
M 1082.85 255.25
Q 1080.45 255.25 1078.1 255.7 1073.3 253.2 1067.45 253.15 1057.75 253.25 1050.95 260.05 1046.95 264.05 1045.25 268.95 1038.1 270.1 1032.7 275.5 1026.45 281.75 1026 290.4 1024.9 291.2 1023.85 292.25 1017 299.1 1017.05 308.75 1017.05 318.45 1023.9 325.3 1029.4 330.8 1036.8 331.9 1038.45 335.05 1041.15 337.75 1048.05 344.65 1057.65 344.65 1065.4 344.7 1071.45 340.35 1075.8 342.2 1081 342.3 1090.6 342.3 1097.45 335.45 1104.35 328.55 1104.4 318.9 1104.35 317.45 1104.2 316 1104.6 315.6 1105 315.2 1111.85 308.35 1111.9 298.6 1111.9 289.6 1105.85 283.05 1106.25 280.85 1106.25 278.65 1106.25 268.95 1099.4 262.1 1092.6 255.3 1082.85 255.25
M 1079.15 264.95
Q 1086.8 264.9 1092.15 270.25 1097.55 275.65 1097.5 283.3 1097.55 285.05 1097.2 286.7 1102 291.9 1102 299 1101.95 306.65 1096.55 312.05 1096.25 312.35 1095.95 312.65 1096.1 313.8 1096.1 314.9 1096.05 322.55 1090.65 327.95 1085.3 333.3 1077.7 333.3 1073.55 333.25 1070.2 331.7 1065.5 335.2 1059.35 335.15 1051.8 335.2 1046.35 329.75 1044.25 327.65 1042.95 325.15 1037.2 324.3 1032.85 319.95 1027.45 314.55 1027.45 306.95 1027.4 299.4 1032.8 294 1033.6 293.2 1034.45 292.55 1034.85 285.75 1039.8 280.8 1044 276.6 1049.6 275.7 1050.9 271.8 1054.05 268.65 1059.4 263.3 1067.05 263.25 1071.65 263.25 1075.45 265.25 1077.25 264.95 1079.15 264.95 Z"/>

<path fill="#F09D1E" stroke="none" d="
M 1092.15 270.25
Q 1086.8 264.9 1079.15 264.95 1077.25 264.95 1075.45 265.25 1071.65 263.25 1067.05 263.25 1059.4 263.3 1054.05 268.65 1050.9 271.8 1049.6 275.7 1044 276.6 1039.8 280.8 1034.85 285.75 1034.45 292.55 1033.6 293.2 1032.8 294 1027.4 299.4 1027.45 306.95 1027.45 314.55 1032.85 319.95 1037.2 324.3 1042.95 325.15 1044.25 327.65 1046.35 329.75 1051.8 335.2 1059.35 335.15 1065.5 335.2 1070.2 331.7 1073.55 333.25 1077.7 333.3 1085.3 333.3 1090.65 327.95 1096.05 322.55 1096.1 314.9 1096.1 313.8 1095.95 312.65 1096.25 312.35 1096.55 312.05 1101.95 306.65 1102 299 1102 291.9 1097.2 286.7 1097.55 285.05 1097.5 283.3 1097.55 275.65 1092.15 270.25
M 1067.05 278.25
Q 1067.1 278.25 1067.15 278.25 1067.9 278.2 1068.5 278.55 1072.95 280.9 1077.95 280.05 1078.5 279.95 1079.15 279.95
L 1079.25 279.95
Q 1080.6 279.9 1081.55 280.85 1082.5 281.8 1082.5 283.2 1082.5 283.45 1082.5 283.75 1081.8 287.2 1082.75 290.65 1083.7 294.2 1086.2 296.9 1086.95 297.75 1087 298.9
L 1087 299
Q 1086.95 300.45 1085.95 301.45 1085.65 301.75 1085.35 302.05 1082.9 304.55 1081.75 307.85 1080.6 311.15 1081.1 314.6 1081.1 314.7 1081.1 314.8 1081.1 314.85 1081.1 314.9 1081.05 316.35 1080.05 317.35 1079.15 318.25 1077.9 318.3 1077.1 318.3 1076.5 318.1 1072.7 316.35 1068.65 316.8 1064.55 317.2 1061.25 319.7 1060.5 320.25 1059.5 320.15
L 1059.25 320.15
Q 1057.9 320.1 1056.95 319.15 1056.55 318.7 1056.25 318.25 1054.55 315 1051.65 312.95 1048.7 310.85 1045.15 310.3 1044.2 310.1 1043.45 309.35 1042.45 308.35 1042.45 306.95
L 1042.45 306.85
Q 1042.45 305.55 1043.4 304.6 1043.45 304.55 1043.55 304.5 1046.15 302.5 1047.7 299.6 1049.25 296.65 1049.45 293.45 1049.55 292.25 1050.4 291.4 1051.1 290.7 1052 290.5 1056.05 289.85 1059.3 287.15 1062.5 284.4 1063.85 280.45 1064.1 279.8 1064.65 279.25 1065.65 278.25 1067.05 278.25 Z"/>
</g>

<g id="Layer0_7_MEMBER_0_FILL">
<path fill="#333333" fill-opacity="0.14901960784313725" stroke="none" d="
M 761.75 380.5
Q 757.25 387.2 756.25 394.55 746.6 398.15 740.45 407.3 733.25 417.8 734.9 430.1 733.8 431.6 732.55 433.4 724.75 444.95 727.5 458.5 730.15 472.15 741.65 479.9 751.05 486.2 761.65 485.6 764.85 489.7 769.45 492.75 781 500.5 794.55 497.9 805.55 495.9 812.65 487.95 819.45 489.4 826.85 488.1 840.45 485.55 848.2 473.9 855.95 462.35 853.3 448.75 852.85 446.75 852.3 444.65 852.75 444.05 853.25 443.3 860.95 431.8 858.45 418.15 855.9 405.4 845.5 397.8 845.45 394.6 844.75 391.45 842.15 377.75 830.7 370.15 819.15 362.4 805.45 365 801.95 365.65 798.95 366.85 791.5 364.75 783.15 366.3 769.45 369.05 761.75 380.5
M 812.2 432.75
L 812.15 432.8
Q 812.1 432.85 812.1 432.9 811.9 433.15 811.8 433.35 811.05 434.4 810.8 435.75 810.55 437 810.9 438.3 811.1 438.9 811.25 439.55 811.8 442.55 810.1 445.15 808.45 447.6 805.5 448.25 803.7 448.55 802.1 448.25 800.55 447.85 799 448.35 797.5 448.9 796.4 450.1 794.85 451.7 792.5 452.15 789.45 452.75 786.9 451
L 786.9 450.95
Q 785.85 450.35 785.15 449.4 784.2 448.3 782.9 447.65 781.5 447.05 780.05 447.15 777.75 447.25 775.75 445.9 773.25 444.15 772.65 441.15
L 772.6 441.1
Q 772.05 438.15 773.7 435.65 773.7 435.6 773.75 435.55 774.15 434.95 774.55 434.5 775.95 432.5 775.65 430.15 775.3 427.45 776.9 425.15 778.25 423.15 780.35 422.3 781.9 421.75 782.95 420.4 784 419.15 784.2 417.5 784.45 415.85 785.4 414.45
L 785.4 414.4
Q 787.1 411.9 790.1 411.3 792 410.9 793.7 411.35 795.65 411.95 797.55 411.15 798.3 410.9 799.1 410.75
L 799.05 410.75
Q 802.1 410.15 804.7 411.9
L 804.75 411.95
Q 807.25 413.55 807.8 416.55 807.85 416.65 807.85 416.8 808 417.45 808 418.1 808.05 419.5 808.7 420.75 809.3 421.95 810.45 422.8 812.7 424.45 813.3 427.15 813.3 427.2 813.3 427.25 813.75 430.2 812.2 432.75 Z"/>
</g>

<g id="Layer0_7_MEMBER_1_FILL">
<path fill="#F0721E" fill-opacity="0.5019607843137255" stroke="none" d="
M 800.8 380.95
Q 789.4 380.3 780.9 387.7 775.85 392.05 773.5 397.65 765 398.45 758.25 404.3 750.45 411.15 749.2 421.25 747.85 422.15 746.5 423.2 737.95 430.7 737.2 442.05 736.45 453.4 743.95 462 749.95 468.85 758.5 470.75 760.2 474.6 763.1 477.95 770.65 486.65 781.9 487.45 791 488.1 798.4 483.5 803.35 486 809.45 486.5 820.7 487.3 829.3 479.8 837.95 472.25 838.8 461 838.85 459.25 838.8 457.55 839.3 457.1 839.8 456.7 848.35 449.25 849.2 437.8 849.9 427.25 843.4 419.05 844 416.5 844.2 413.95 845 402.6 837.55 394 830.1 385.5 818.7 384.65 815.85 384.45 813.05 384.8 807.6 381.5 800.8 380.95
M 799.55 392.75
Q 804.9 393.1 809.2 395.75 811.3 395.55 813.55 395.7 822.55 396.3 828.3 402.95 834.25 409.7 833.55 418.7 833.5 420.75 832.95 422.65 838.2 429.1 837.6 437.45 836.95 446.45 830.15 452.3 829.75 452.65 829.4 452.95 829.45 454.35 829.35 455.65 828.7 464.6 821.9 470.45 815.25 476.3 806.35 475.7 801.45 475.3 797.65 473.2 791.9 476.95 784.7 476.35 775.85 475.85 769.85 468.95 767.6 466.4 766.25 463.35 759.55 461.9 754.85 456.4 748.95 449.65 749.55 440.8 750.1 431.9 756.9 425.95 757.9 425.15 758.9 424.4 759.9 416.55 766.1 411.1 771.4 406.55 778.1 405.9 779.9 401.5 783.8 398.05 790.55 392.15 799.55 392.75 Z"/>
</g>

<g id="Layer0_8_MEMBER_0_FILL">
<path fill="#333333" fill-opacity="0.14901960784313725" stroke="none" d="
M 991.25 395.8
Q 988.55 381.6 976.65 373.7 964.7 365.65 950.45 368.35 946.85 369.05 943.7 370.3 936 368.1 927.3 369.7 913.1 372.55 905.1 384.45 900.45 391.4 899.4 399.05 889.4 402.75 883 412.25 875.55 423.15 877.25 435.95 876.1 437.5 874.8 439.35 866.7 451.35 869.55 465.4 872.3 479.55 884.25 487.6 894 494.15 905 493.5 908.35 497.8 913.1 500.95 925.1 509 939.15 506.3 950.55 504.2 957.95 495.95 965 497.45 972.7 496.1 986.8 493.45 994.85 481.4 1002.9 469.4 1000.1 455.3 999.65 453.2 999.1 451.05 999.55 450.4 1000.05 449.65 1008.05 437.7 1005.45 423.5 1002.8 410.3 992.05 402.4 992 399.1 991.25 395.8
M 952.75 411.95
L 952.8 412
Q 956 414.1 956.75 418 956.8 418.15 956.8 418.35 957 419.15 957 420 957.05 421.8 957.9 423.4 958.7 425 960.15 426.1 963.1 428.25 963.85 431.8 963.85 431.85 963.85 431.9 964.5 435.7 962.45 439 962.45 439.05 962.4 439.1 962.35 439.15 962.35 439.2 962.1 439.5 961.95 439.8 960.95 441.15 960.65 442.9 960.35 444.55 960.8 446.2 961 447 961.2 447.8 961.95 451.7 959.75 455.05 957.55 458.3 953.75 459.1 951.45 459.5 949.35 459.1 947.35 458.6 945.35 459.3 943.35 459.95 941.95 461.5 939.95 463.6 936.9 464.2
L 936.85 464.2
Q 932.95 464.95 929.65 462.7
L 929.6 462.65
Q 928.25 461.8 927.35 460.65 926.15 459.15 924.4 458.35 922.65 457.55 920.75 457.7 917.8 457.8 915.2 456.05 911.9 453.8 911.15 449.9
L 911.1 449.85
Q 910.35 446 912.55 442.75 912.55 442.7 912.6 442.65 913.1 441.85 913.6 441.25 915.45 438.7 915.05 435.6 914.6 432.15 916.65 429.15 918.4 426.55 921.15 425.45 923.15 424.7 924.5 423 925.85 421.35 926.15 419.2 926.45 417.1 927.7 415.25
L 927.7 415.2
Q 929.9 411.95 933.8 411.15 936.25 410.65 938.45 411.25 940.95 412 943.45 411 944.4 410.65 945.5 410.45
L 945.4 410.45
Q 949.4 409.7 952.75 411.95 Z"/>
</g>

<g id="Layer0_8_MEMBER_1_FILL">
<path fill="#F0721E" fill-opacity="0.2" stroke="none" d="
M 964.1 389
Q 961.15 388.8 958.25 389.15 952.65 385.75 945.6 385.2 933.85 384.5 925.05 392.15 919.85 396.65 917.4 402.45 908.6 403.25 901.65 409.3 893.6 416.4 892.3 426.85 890.9 427.75 889.5 428.85 880.65 436.6 879.9 448.35 879.1 460.05 886.85 468.95 893.05 476 901.9 478 903.65 481.95 906.65 485.45 914.45 494.4 926.1 495.25 935.5 495.9 943.15 491.15 948.25 493.75 954.55 494.25 966.15 495.1 975.05 487.35 984 479.55 984.9 467.9 984.95 466.1 984.9 464.35 985.4 463.9 985.9 463.45 994.75 455.75 995.65 443.95 996.35 433.05 989.65 424.55 990.25 421.95 990.45 419.3 991.3 407.55 983.6 398.65 975.9 389.9 964.1 389
M 954.3 400.5
Q 956.45 400.3 958.8 400.45 968.1 401.05 974.05 407.9 980.2 414.9 979.45 424.2 979.4 426.3 978.85 428.3 984.25 434.95 983.65 443.6 982.95 452.9 975.95 458.9 975.55 459.3 975.15 459.6 975.2 461.05 975.1 462.4 974.45 471.65 967.4 477.7 960.55 483.7 951.35 483.1 946.3 482.7 942.35 480.5 936.4 484.4 928.95 483.75 919.85 483.25 913.65 476.15 911.3 473.5 909.9 470.35 903 468.85 898.15 463.15 892.05 456.2 892.65 447.05 893.2 437.85 900.25 431.7 901.3 430.85 902.3 430.1 903.35 422 909.75 416.35 915.25 411.65 922.15 410.95 924 406.45 928.05 402.85 935 396.75 944.3 397.4 949.85 397.75 954.3 400.5 Z"/>
</g>

<g id="Layer0_9_FILL">
<path fill="#333333" fill-opacity="0.10196078431372549" stroke="none" d="
M 1119.85 387.7
Q 1116.15 388.4 1112.9 389.7 1104.95 387.45 1095.95 389.1 1081.3 392.05 1073.05 404.3 1068.25 411.5 1067.15 419.4 1056.85 423.2 1050.25 433 1042.55 444.25 1044.3 457.5 1043.1 459.1 1041.75 461 1033.4 473.4 1036.35 487.9 1039.2 502.5 1051.55 510.8 1061.6 517.55 1072.95 516.9 1076.4 521.35 1081.3 524.6 1093.7 532.9 1108.2 530.1 1119.95 527.95 1127.6 519.4 1134.9 520.95 1142.85 519.55 1157.4 516.85 1165.7 504.4 1174 492 1171.1 477.45 1170.65 475.3 1170.1 473.05 1170.55 472.4 1171.05 471.6 1179.35 459.3 1176.65 444.65 1173.9 431 1162.8 422.85 1162.75 419.45 1162 416.05 1159.2 401.35 1146.9 393.2 1134.6 384.9 1119.85 387.7
M 1138.05 437.3
Q 1139.35 439.85 1141.6 441.55 1146.15 444.85 1147.3 450.35 1147.3 450.4 1147.35 450.5 1148.35 456.4 1145.15 461.55 1145.1 461.6 1145.1 461.65 1145 461.75 1144.95 461.8 1144.65 462.25 1144.35 462.75 1142.8 464.85 1142.4 467.55 1141.95 470.1 1142.55 472.7 1142.85 473.9 1143.25 475.15 1144.4 481.2 1140.95 486.35 1137.55 491.45 1131.7 492.65 1128.1 493.25 1124.85 492.65 1121.75 491.9 1118.65 492.95 1115.6 493.95 1113.45 496.35 1110.3 499.6 1105.6 500.5
L 1105.5 500.55
Q 1099.45 501.65 1094.35 498.2
L 1094.25 498.15
Q 1092.2 496.8 1090.8 495.05 1088.9 492.7 1086.25 491.5 1083.55 490.25 1080.6 490.45 1076.05 490.65 1071.95 487.9
L 1071.95 487.95
Q 1066.85 484.45 1065.7 478.4
L 1065.65 478.3
Q 1064.5 472.4 1067.85 467.3 1067.9 467.25 1067.95 467.15 1068.75 465.95 1069.5 465 1072.35 461 1071.75 456.25 1071.05 450.9 1074.2 446.3
L 1074.25 446.25
Q 1076.95 442.25 1081.2 440.55 1084.25 439.35 1086.35 436.75 1088.45 434.15 1088.9 430.85 1089.45 427.6 1091.35 424.7 1094.75 419.6 1100.8 418.4 1104.6 417.65 1107.95 418.55 1111.8 419.75 1115.7 418.15 1117.2 417.65 1118.85 417.3
L 1118.75 417.35
Q 1124.9 416.15 1130.15 419.65
L 1130.2 419.7
Q 1135.2 422.95 1136.35 428.95 1136.4 429.2 1136.4 429.5 1136.7 430.8 1136.7 432.05 1136.75 434.85 1138.05 437.3 Z"/>
</g>

<g id="Layer0_10_FILL">
<path fill="#333333" fill-opacity="0.050980392156862744" stroke="none" d="
M 846.75 590.95
Q 843.85 576.7 832.3 568.2 832.25 564.65 831.45 561.1 828.55 545.75 815.7 537.25 802.85 528.6 787.45 531.55 783.6 532.25 780.2 533.6 771.9 531.25 762.5 533 747.25 536.05 738.6 548.85 733.6 556.35 732.45 564.6 721.7 568.55 714.85 578.8 706.8 590.55 708.6 604.35 707.35 606.05 705.95 608 697.25 620.95 700.3 636.1 703.3 651.35 716.2 660 726.65 667.05 738.5 666.35 742.1 671 747.25 674.4 760.15 683.05 775.3 680.15 787.55 677.9 795.55 668.95 803.15 670.6 811.45 669.15 826.65 666.3 835.3 653.3 844 640.4 840.95 625.2 840.5 622.95 839.9 620.6 840.4 619.9 840.9 619.1 849.55 606.25 846.75 590.95
M 815.15 564.9
Q 815.55 566.7 815.6 568.45 815.65 572.35 817.45 575.8 819.25 579.3 822.35 581.65 828.7 586.25 830.3 593.9 830.3 594 830.35 594.1 831.75 602.35 827.35 609.5 827.3 609.55 827.25 609.65 827.1 609.75 827.05 609.85 826.6 610.5 826.25 611.15 824.05 614.1 823.45 617.85 822.85 621.4 823.75 625 824.15 626.7 824.65 628.45 826.3 636.85 821.5 644 816.75 651.05 808.6 652.8 803.6 653.6 799.05 652.75 794.75 651.7 790.45 653.15 786.2 654.55 783.2 657.9 778.85 662.45 772.3 663.7
L 772.2 663.75
Q 763.7 665.3 756.65 660.45
L 756.5 660.4
Q 753.65 658.55 751.65 656.1 749.05 652.85 745.35 651.2 741.6 649.45 737.45 649.7 731.15 650 725.45 646.15
L 725.45 646.2
Q 718.4 641.35 716.75 632.9
L 716.7 632.8
Q 715.1 624.55 719.8 617.45 719.85 617.4 719.9 617.3 721.05 615.6 722.1 614.3 726.05 608.75 725.2 602.15 724.2 594.65 728.6 588.25
L 728.65 588.2
Q 732.4 582.6 738.35 580.25 742.6 578.6 745.5 575 748.45 571.4 749.05 566.8 749.8 562.25 752.45 558.25
L 752.45 558.2
Q 757.2 551.15 765.6 549.4 770.85 548.4 775.55 549.7 780.95 551.3 786.35 549.1 788.4 548.4 790.75 547.9
L 790.6 547.95
Q 799.15 546.35 806.45 551.2
L 806.5 551.25
Q 813.45 555.8 815.05 564.15 815.1 564.5 815.15 564.9 Z"/>
</g>
</defs>

<g transform="matrix( 1, 0, 0, 1, 0,0) ">
<use xlink:href="#Layer0_0_FILL"/>
</g>

<g transform="matrix( 1, 0, 0, 1, 0,0) ">
<use xlink:href="#Layer0_1_FILL"/>
</g>

<g transform="matrix( 1, 0, 0, 1, 0,0) ">
<use xlink:href="#Layer0_2_MEMBER_0_FILL"/>
</g>

<g transform="matrix( 1, 0, 0, 1, 0,0) ">
<use xlink:href="#Layer0_2_MEMBER_1_MEMBER_0_MEMBER_0_MEMBER_0_FILL"/>
</g>

<g transform="matrix( 1, 0, 0, 1, 0,0) ">
<use xlink:href="#Layer0_2_MEMBER_1_MEMBER_0_MEMBER_1_MEMBER_0_FILL"/>
</g>

<g transform="matrix( 1, 0, 0, 1, 0,0) ">
<use xlink:href="#Layer0_2_MEMBER_1_MEMBER_0_MEMBER_1_MEMBER_1_FILL"/>
</g>

<g transform="matrix( 1, 0, 0, 1, 0,0) ">
<use xlink:href="#Layer0_2_MEMBER_1_MEMBER_0_MEMBER_1_MEMBER_2_FILL"/>
</g>

<g transform="matrix( 1, 0, 0, 1, 0,0) ">
<use xlink:href="#Layer0_2_MEMBER_1_MEMBER_0_MEMBER_2_MEMBER_0_FILL"/>
</g>

<g transform="matrix( 1, 0, 0, 1, 0,0) ">
<use xlink:href="#Layer0_2_MEMBER_1_MEMBER_0_MEMBER_3_FILL"/>
</g>

<g transform="matrix( 1, 0, 0, 1, 0,0) ">
<use xlink:href="#Layer0_2_MEMBER_1_MEMBER_0_MEMBER_4_FILL"/>
</g>

<g transform="matrix( 1, 0, 0, 1, 0,0) ">
<use xlink:href="#Layer0_2_MEMBER_1_MEMBER_0_MEMBER_5_FILL"/>
</g>

<g transform="matrix( 1, 0, 0, 1, 0,0) ">
<use xlink:href="#Layer0_2_MEMBER_1_MEMBER_1_FILL"/>
</g>

<g transform="matrix( 1, 0, 0, 1, 0,0) ">
<use xlink:href="#Layer0_3_MEMBER_0_FILL"/>
</g>

<g transform="matrix( 1, 0, 0, 1, 0,0) ">
<use xlink:href="#Layer0_3_MEMBER_1_MEMBER_0_FILL"/>
</g>

<g transform="matrix( 1, 0, 0, 1, 0,0) ">
<use xlink:href="#Layer0_3_MEMBER_1_MEMBER_1_FILL"/>
</g>

<g transform="matrix( 1, 0, 0, 1, 0,0) ">
<use xlink:href="#Layer0_3_MEMBER_1_MEMBER_1_MEMBER_0_FILL"/>
</g>

<g transform="matrix( 1, 0, 0, 1, 0,0) ">
<use xlink:href="#Layer0_3_MEMBER_1_MEMBER_1_MEMBER_1_FILL"/>
</g>

<g transform="matrix( 1, 0, 0, 1, 0,0) ">
<use xlink:href="#Layer0_3_MEMBER_1_MEMBER_1_MEMBER_2_FILL"/>
</g>

<g transform="matrix( 1, 0, 0, 1, 0,0) ">
<use xlink:href="#Layer0_3_MEMBER_1_MEMBER_2_FILL"/>
</g>

<g transform="matrix( 1, 0, 0, 1, 0,0) ">
<use xlink:href="#Layer0_4_MEMBER_0_FILL"/>
</g>

<g transform="matrix( 1, 0, 0, 1, 0,0) ">
<use xlink:href="#Layer0_4_MEMBER_1_MEMBER_0_MEMBER_0_FILL"/>
</g>

<g transform="matrix( 1, 0, 0, 1, 0,0) ">
<use xlink:href="#Layer0_4_MEMBER_1_MEMBER_1_MEMBER_0_FILL"/>
</g>

<g transform="matrix( 1, 0, 0, 1, 0,0) ">
<use xlink:href="#Layer0_4_MEMBER_1_MEMBER_1_MEMBER_1_FILL"/>
</g>

<g transform="matrix( 1, 0, 0, 1, 0,0) ">
<use xlink:href="#Layer0_4_MEMBER_1_MEMBER_1_MEMBER_2_FILL"/>
</g>

<g transform="matrix( 1, 0, 0, 1, 0,0) ">
<use xlink:href="#Layer0_4_MEMBER_1_MEMBER_2_MEMBER_0_FILL"/>
</g>

<g transform="matrix( 1, 0, 0, 1, 0,0) ">
<use xlink:href="#Layer0_4_MEMBER_1_MEMBER_3_FILL"/>
</g>

<g transform="matrix( 1, 0, 0, 1, 0,0) ">
<use xlink:href="#Layer0_4_MEMBER_1_MEMBER_4_FILL"/>
</g>

<g transform="matrix( 1, 0, 0, 1, 0,0) ">
<use xlink:href="#Layer0_4_MEMBER_1_MEMBER_5_FILL"/>
</g>

<g transform="matrix( 1, 0, 0, 1, 0,0) ">
<use xlink:href="#Layer0_4_MEMBER_2_FILL"/>
</g>

<g transform="matrix( 1, 0, 0, 1, 0,0) ">
<use xlink:href="#Layer0_5_MEMBER_0_FILL"/>
</g>

<g transform="matrix( 1, 0, 0, 1, 0,0) ">
<use xlink:href="#Layer0_5_MEMBER_1_FILL"/>
</g>

<g transform="matrix( 1, 0, 0, 1, 0,0) ">
<use xlink:href="#Layer0_5_MEMBER_1_MEMBER_0_FILL"/>
</g>

<g transform="matrix( 1, 0, 0, 1, 0,0) ">
<use xlink:href="#Layer0_5_MEMBER_2_FILL"/>
</g>

<g transform="matrix( 1, 0, 0, 1, 0,0) ">
<use xlink:href="#Layer0_6_MEMBER_0_FILL"/>
</g>

<g transform="matrix( 1, 0, 0, 1, 0,0) ">
<use xlink:href="#Layer0_6_MEMBER_1_FILL"/>
</g>

<g transform="matrix( 1, 0, 0, 1, 0,0) ">
<use xlink:href="#Layer0_7_MEMBER_0_FILL"/>
</g>

<g transform="matrix( 1, 0, 0, 1, 0,0) ">
<use xlink:href="#Layer0_7_MEMBER_1_FILL"/>
</g>

<g transform="matrix( 1, 0, 0, 1, 0,0) ">
<use xlink:href="#Layer0_8_MEMBER_0_FILL"/>
</g>

<g transform="matrix( 1, 0, 0, 1, 0,0) ">
<use xlink:href="#Layer0_8_MEMBER_1_FILL"/>
</g>

<g transform="matrix( 1, 0, 0, 1, 0,0) ">
<use xlink:href="#Layer0_9_FILL"/>
</g>

<g transform="matrix( 1, 0, 0, 1, 0,0) ">
<use xlink:href="#Layer0_10_FILL"/>
</g>
</svg>
