<?xml version="1.0" encoding="utf-8"?>
<!-- Generator: Adobe Illustrator 16.2.0, SVG Export Plug-In . SVG Version: 6.00 Build 0)  -->
<!DOCTYPE svg PUBLIC "-//W3C//DTD SVG 1.1//EN" "http://www.w3.org/Graphics/SVG/1.1/DTD/svg11.dtd">
<svg version="1.1" id="Layer_1" xmlns="http://www.w3.org/2000/svg" xmlns:xlink="http://www.w3.org/1999/xlink" x="0px" y="0px"
	 width="595.279px" height="841.891px" viewBox="0 0 595.279 841.891" enable-background="new 0 0 595.279 841.891"
	 xml:space="preserve">
<path fill="#6A6A6A" d="M1026.199,168.7h-0.1l0.05-0.05L1026.199,168.7"/>
<path fill="#D9D3BF" d="M1011,321.2l0.149,0.5l-0.05-0.05L1011,321.2"/>
<path fill="#8BB54A" d="M76,20.05L84,20v63.95L75.95,84L76,20.05 M27.95,84L20,83.95V20h7.95V84"/>
<path fill="#D9D3BF" d="M27.95,84V20H36v63.95L27.95,84 M76,20.05L75.95,84H68V20L76,20.05"/>
<path fill="#6A6A6A" d="M68,84l-32-0.05V20h32V84"/>
<path fill="#8BB54A" d="M20,108.05l0.05-8.05h63.9l-0.051,8L20,108.05 M83.95,156l0.05,8H20l0.05-7.95L83.95,156"/>
<path fill="#D9D3BF" d="M83.95,156l-63.9,0.05V148h63.9V156 M20.05,116L20,108.05L83.9,108l0.051,8H20.05"/>
<path fill="#6A6A6A" d="M20.05,116h63.9v32h-63.9V116"/>
<path fill="#D9D3BF" d="M484,36h-16V20l7.949,0.1l-0.05,8l8-0.05L484,36 M436.05,20.05L436,36l-15.9,0.05l-0.1-8l8,0.05v-8.05
	H436.05 M420.05,67.95h16v16H428v-7.9L420.05,76V67.95 M468,83.95V68l15.949-0.05V76h-8.05l0.05,8L468,83.95"/>
<path fill="#8BB54A" d="M483.9,28.05l-8,0.05l0.05-8l8-0.05L483.9,28.05 M428,20.05v8.05l-8-0.05l0.05-8H428 M428,83.95h-7.95V76
	l7.95,0.05V83.95 M483.949,76v7.95l-8,0.05l-0.05-8H483.949"/>
<path fill="#6A6A6A" d="M468,20v16h16l-0.051,31.95L468,68v15.95h-31.95v-16h-16l0.05-31.9L436,36l0.05-15.95L468,20"/>
<path fill="#D9D3BF" d="M323.949,28L324,28.05V36h-16V20l8,0.05l-0.051,8.05L323.949,28 M324,67.95V76h-8.051L316,83.95h-8V68
	L324,67.95 M276,83.95L268,84V20.1l8-0.05V83.95"/>
<path fill="#8BB54A" d="M324,76v7.95h-8L315.949,76H324 M268,84l-8-0.05v-63.9l8,0.05V84 M316,20.05h8L323.949,28l-8,0.1L316,20.05"
	/>
<path fill="#6A6A6A" d="M324,36v31.95L308,68v15.95h-32v-63.9L308,20v16H324"/>
<path fill="#8BB54A" d="M316,100.1l7.949-0.1v8.05h-8.05L316,100.1 M323.9,156l0.05,8l-63.899-0.05L260,156H323.9 M260.05,108.05v-8
	H268v8.05L260.05,108.05"/>
<path fill="#D9D3BF" d="M260.05,108.05l7.95,0.05v-8.05h8.05l-0.05,16h-15.95V108.05 M308,100l7.949,0.05L316,100.1l-0.101,7.95
	h8.05L324,116h-16V100 M323.949,148l-0.05,8H260l0.05-8.05L323.949,148"/>
<path fill="#6A6A6A" d="M323.949,148l-63.899-0.05v-31.9H276l0.05-16L308,100v16h16L323.949,148"/>
<path fill="#D9D3BF" d="M387.949,163.95v-16h16L403.9,156h-8l0.05,8L387.949,163.95 M404,116l-64-0.05l0.05-7.9l63.899-0.05L404,116
	 M340.05,147.95l16,0.05v15.95L348,164v-7.95l-8-0.05L340.05,147.95"/>
<path fill="#8BB54A" d="M395.949,164l-0.05-8h8l0.05,7.95L395.949,164 M340.05,108.05V100h63.899v8L340.05,108.05 M348,164
	l-7.95-0.05L340,156l8,0.05V164"/>
<path fill="#6A6A6A" d="M403.949,147.95h-16v16H356.05V148l-16-0.05l-0.05-32l64,0.05L403.949,147.95"/>
<path fill="#8BB54A" d="M396,84V20.05l8-0.05v63.95L396,84 M348.05,20.05L348,28.1l-8-0.1v-8L348.05,20.05 M340,76.05h7.949
	L348.05,84L340,83.95V76.05"/>
<path fill="#D9D3BF" d="M340,76.05V68h16l0.05,16h-8l-0.101-7.95H340 M388,20l8,0.05V84l-7.95-0.05L388,20 M356.05,20v15.95L340,36
	v-8l8,0.1l0.05-8.05L356.05,20"/>
<path fill="#6A6A6A" d="M356.05,20H388l0.05,63.95l-32,0.05L356,68h-16V36l16.05-0.05V20"/>
<path fill="#6A6A6A" d="M580,100l64,0.05v63.9L580,164V100"/>
<path fill="#D9D3BF" d="M500.05,316l-0.05-8h48.05v-32H500v-8l56,0.05v48L500.05,316"/>
<path fill="#8BB54A" d="M500.05,316l55.95,0.05v-48L500,268v-8h64.1l-0.05,64h-64V316"/>
<path fill="#6A6A6A" d="M500,308v-32h48.05v32H500"/>
<path fill="#8BB54A" d="M420.05,268.05V260h63.899v8L428,268.05v48h56V324h-63.95v-7.95L420,315.5v-46.85l0.1-0.55L420.05,268.05"/>
<path fill="#D9D3BF" d="M420.05,268.05l0.05,0.05l-0.1,0.55L420.05,268.05 M483.949,268l0.051,8h-47.95v32H484v8.05h-56v-48
	L483.949,268"/>
<path fill="#6A6A6A" d="M484,276v32h-47.95v-32H484"/>
<path fill="#8BB54A" d="M428,180.05l-0.051,56l48,0.05L476,180.05h8V244h-64v-64L428,180.05"/>
<path fill="#D9D3BF" d="M428,180.05l8-0.05v48h32v-47.95h8l-0.051,56.05l-48-0.05L428,180.05"/>
<path fill="#6A6A6A" d="M468,180.05V228h-32v-48L468,180.05"/>
<path fill="#8BB54A" d="M556,244l-0.051-55.95h-48L508,244h-8v-64h64.05L564,244.05L556,244"/>
<path fill="#D9D3BF" d="M556,244h-8v-48h-32v48h-8l-0.051-55.95h48L556,244"/>
<path fill="#6A6A6A" d="M516,244v-48h32v48H516"/>
<path fill="#D9D3BF" d="M555.949,164L548,163.95L547.949,100h8V164"/>
<path fill="#8BB54A" d="M555.949,164v-64h8L564,163.95L555.949,164"/>
<path fill="#6A6A6A" d="M548,163.95h-48l0.05-63.95h47.899L548,163.95"/>
<path fill="#D9D3BF" d="M83.95,188l0.05,8H20.05L20,188.05L83.95,188"/>
<path fill="#8BB54A" d="M83.95,188L20,188.05l0.05-8.05h63.9V188"/>
<path fill="#6A6A6A" d="M84,196v48H20l0.05-48H84"/>
<path fill="#6A6A6A" d="M36,260h48.05l-0.1,7.95L84,268v56H36V260"/>
<path fill="#D9D3BF" d="M36,260v64h-8v-64H36"/>
<path fill="#8BB54A" d="M28,324h-8v-64h8V324"/>
<path fill="#6A6A6A" d="M340,307.95v-47.9l64-0.05v48h-16v16l-32-0.05v-16H340"/>
<path fill="#8BB54A" d="M404,316v8h-8l-0.051-7.95L404,316 M340,316l7.949,0.05L348,324l-8-0.05V316"/>
<path fill="#D9D3BF" d="M340,316v-8.05h16v16l-8,0.05l-0.051-7.95L340,316 M388,324v-16h16v8l-8.051,0.05L396,324H388"/>
<path fill="#8BB54A" d="M315.949,180.1l8-0.05l-0.05,8l-8,0.05L315.949,180.1 M323.949,236v7.95l-8,0.05l-0.05-8H323.949"/>
<path fill="#D9D3BF" d="M323.949,236h-8.05l0.05,8L308,243.95v-16h16L323.949,236 M323.9,188.05h0.05V196l-16,0.05v-16l8,0.05
	l-0.05,8L323.9,188.05"/>
<path fill="#6A6A6A" d="M323.949,196L324,227.95h-16v16h-48V180l47.949,0.05v16L323.949,196"/>
<path fill="#D9D3BF" d="M324,268v8h-15.95L308,260h8l0.05,0.05l-0.101,8L324,268 M260.05,276l-0.05-7.95h7.95l0.05-8l8.05-0.05v16
	H260.05"/>
<path fill="#8BB54A" d="M316.05,260.05L324,260v8l-8.051,0.05L316.05,260.05 M260,268.05l0.05-8.05l7.95,0.05l-0.05,8H260"/>
<path fill="#6A6A6A" d="M324,276v48h-63.95v-48h16v-16H308l0.05,16H324"/>
<path fill="#D9D3BF" d="M163.8,188.05l0.15-0.05v8H116v48h-8.05l-0.051-55.95H163.8"/>
<path fill="#8BB54A" d="M163.8,188.05h-55.9L107.95,244H100v-64h63.95l-0.051,8L163.8,188.05"/>
<path fill="#6A6A6A" d="M163.95,196l0.05,48h-48v-48H163.95"/>
<path fill="#8BB54A" d="M723.949,163.95L660,164v-64l64,0.05L723.949,163.95"/>
<path fill="#6A6A6A" d="M420.1,148v-48h63.85L484,148H420.1"/>
<path fill="#8BB54A" d="M483.949,156.05L484,164h-63.95l-0.05-7.95H483.949"/>
<path fill="#D9D3BF" d="M483.949,156.05H420l0.1-8.05H484L483.949,156.05"/>
<path fill="#C59D76" d="M644,180.05v63.9L580,244v-64L644,180.05"/>
<path fill="#D8D19E" d="M724,180.05l-0.051,63.9L660,244v-64L724,180.05"/>
<path fill="#9CD5E2" d="M644,260.05v63.9L580,324v-64L644,260.05"/>
<path fill="#8BB54A" d="M20.05,436v-16h63.9v16H20.05 M83.95,468L84,484H20l0.05-16H83.95"/>
<path fill="#9CD5E2" d="M83.95,468h-63.9v-32h63.9V468"/>
<path fill="#D9D3BF" d="M163.9,428l0.051,8h-63.9l-0.05-7.95L163.9,428 M163.95,468v8l-63.9,0.05V468H163.95"/>
<path fill="#8BB54A" d="M100,428.05l0.05-8.05h63.9l-0.051,8L100,428.05 M163.95,476l0.05,8h-64l0.05-7.95L163.95,476"/>
<path fill="#9CD5E2" d="M163.95,436v32h-63.9v-32H163.95"/>
<path fill="#D9D3BF" d="M148,340l8,0.05L155.95,404H148V340 M107.95,404v-64H116v63.95L107.95,404"/>
<path fill="#8BB54A" d="M107.95,404l-7.95-0.05V340h7.95V404 M155.95,404l0.05-63.95l8-0.05v63.95L155.95,404"/>
<path fill="#9CD5E2" d="M148,340v64l-32-0.05V340H148"/>
<path fill="#8BB54A" d="M36,403.95H20V340h16V403.95 M68,340h16v63.95L68,404V340"/>
<path fill="#9CD5E2" d="M68,340v64l-32-0.05V340H68"/>
<path fill="#8BB54A" d="M20.05,596v-16h63.9v16H20.05"/>
<path fill="#9CD5E2" d="M20.05,596h63.9L84,644H20L20.05,596"/>
<path fill="#8BB54A" d="M163.95,628l0.05,16h-64l0.05-16H163.95"/>
<path fill="#9CD5E2" d="M163.95,628h-63.9v-48h63.9V628"/>
<path fill="#8BB54A" d="M148,500h16v63.95L148,564V500"/>
<path fill="#9CD5E2" d="M148,500v64l-48-0.05V500H148"/>
<path fill="#8BB54A" d="M36,564H20v-64h16V564"/>
<path fill="#9CD5E2" d="M36,564v-64h48v64H36"/>
<path fill="#D8D19E" d="M196,564h-16v-64h16V564"/>
<path fill="#9CD5E2" d="M196,564v-64h48v64H196"/>
<path fill="#D8D19E" d="M180.05,596v-16h63.9v16H180.05"/>
<path fill="#9CD5E2" d="M180.05,596h63.9l0.05,48h-64L180.05,596"/>
<path fill="#9CD5E2" d="M260.05,628v-48h63.899v48H260.05"/>
<path fill="#D8D19E" d="M260.05,628h63.899L324,644h-64L260.05,628"/>
<path fill="#9CD5E2" d="M308,500v64l-48-0.05V500H308"/>
<path fill="#D8D19E" d="M308,500h16v63.95L308,564V500"/>
<path fill="#D9D3BF" d="M340,188.05l7.949,0.05l0.051-8.05h8.05V196h-16L340,188.05 M340.05,227.95h16v16L348,244v-8h-8
	L340.05,227.95"/>
<path fill="#6A6A6A" d="M340.05,227.95V196h16v-15.95H404v63.9h-47.95v-16H340.05"/>
<path fill="#8BB54A" d="M348,180.05l-0.051,8.05L340,188.05l0.05-8.05L348,180.05 M340,236h8v8l-7.95-0.05L340,236"/>
<path fill="#D9D3BF" d="M108.05,260.1l8-0.05V308H164l-0.05,8.05H108v-55.9L108.05,260.1"/>
<path fill="#8BB54A" d="M108.05,260.1l-0.05,0.05v55.9h55.95L164,324h-63.95l-0.05-8l0.05,0.05l0.05-56L108.05,260.1"/>
<path fill="#6A6A6A" d="M116.05,260.05H156l0.05,0.05l7.9-0.1l0.05,48h-47.95V260.05"/>
<path fill="#D9D3BF" d="M227.95,260h8l-0.051,56h-55.85l-0.05-8.05h47.95V260"/>
<path fill="#6A6A6A" d="M227.95,260v47.95H180V260H227.95"/>
<path fill="#8BB54A" d="M180.05,316h55.85l0.051-56H244l-0.05,64L180,323.95L180.05,316"/>
<path fill="#8BB54A" d="M180,188.05l0.05-8.05h63.9l0.05,63.95l-8.05,0.05l-0.051-55.95H180"/>
<path fill="#D9D3BF" d="M180,188.05H235.9L235.95,244l-7.95-0.05V196h-47.95L180,188.05"/>
<path fill="#6A6A6A" d="M228,243.95h-47.95V196H228V243.95"/>
<path fill="#D9D3BF" d="M228,340l8,0.05L235.95,404H228V340 M187.95,404v-64H196v63.95L187.95,404"/>
<path fill="#9CD5E2" d="M187.95,404l-7.95-0.05V340h7.95V404 M235.95,404l0.05-63.95l8-0.05v63.95L235.95,404"/>
<path fill="#6A6A6A" d="M228,340v64l-32-0.05V340H228"/>
<path fill="#D9D3BF" d="M243.9,428l0.051,8h-63.9l-0.05-7.95L243.9,428 M243.95,468v8l-63.9,0.05V468H243.95"/>
<path fill="#9CD5E2" d="M180,428.05l0.05-8.05h63.9l-0.051,8L180,428.05 M243.95,476l0.05,8h-64l0.05-7.95L243.95,476"/>
<path fill="#6A6A6A" d="M243.95,436v32h-63.9v-32H243.95"/>
<path fill="#8BB54A" d="M163.9,28l-3.649,0.15c-36.4,0.267-53.834,18.867-52.3,55.8V84l-7.9-0.05L100,20h64L163.9,28 M163.95,76.05
	v7.9l-8,0.05v-0.4c0.1-4.4,1.583-6.934,4.449-7.6L163.95,76.05"/>
<path fill="#D9D3BF" d="M163.95,76.05L160.4,76c-2.866,0.667-4.35,3.2-4.449,7.6V84h-8l0.05-1.1c0.3-8.966,3.767-13.933,10.399-14.9
	h5.551V76.05 M163.9,28l0.051,7.95h-3.101h-1.2c-28,0.6-42.55,14.233-43.649,40.9v7.1L107.95,84v-0.05
	c-1.534-36.934,15.899-55.534,52.3-55.8L163.9,28"/>
<path fill="#6A6A6A" d="M116,83.95v-7.1c1.1-26.667,15.649-40.3,43.649-40.9h1.2h3.101V68H158.4
	c-6.633,0.967-10.1,5.934-10.399,14.9l-0.05,1.1L116,83.95"/>
<path fill="#8BB54A" d="M180.1,28l-0.1-8h64l-0.05,63.95l-7.9,0.05v-0.05c1.533-36.934-15.9-55.534-52.3-55.8L180.1,28 M188.05,84
	l-8-0.05v-7.9L183.6,76c2.867,0.667,4.351,3.2,4.45,7.6V84"/>
<path fill="#D9D3BF" d="M188.05,84v-0.4c-0.1-4.4-1.583-6.934-4.45-7.6l-3.55,0.05V68h5.55c6.634,0.967,10.101,5.934,10.4,14.9
	l0.05,1.1H188.05 M236.05,84L228,83.95v-7.1c-1.101-26.667-15.65-40.3-43.65-40.9h-1.2h-3.1L180.1,28l3.65,0.15
	c36.399,0.267,53.833,18.867,52.3,55.8V84"/>
<path fill="#6A6A6A" d="M228,83.95L196.05,84L196,82.9c-0.3-8.966-3.767-13.933-10.4-14.9h-5.55V35.95h3.1h1.2
	c28,0.6,42.55,14.233,43.65,40.9V83.95"/>
<path fill="#8BB54A" d="M163.9,156l0.101,8h-64l0.05-63.95l7.9-0.05v0.05c-1.534,36.934,15.899,55.534,52.3,55.8L163.9,156
	 M155.95,100l8,0.05v7.9L160.4,108c-2.866-0.667-4.35-3.2-4.449-7.6V100"/>
<path fill="#6A6A6A" d="M163.95,116v32.05h-3.101h-1.2c-28-0.6-42.55-14.233-43.649-40.9v-7.1l31.95-0.05l0.05,1.1
	c0.3,8.966,3.767,13.933,10.399,14.9H163.95"/>
<path fill="#D9D3BF" d="M163.95,116H158.4c-6.633-0.967-10.1-5.934-10.399-14.9l-0.05-1.1h8v0.4c0.1,4.4,1.583,6.934,4.449,7.6
	l3.551-0.05V116 M163.95,148.05L163.9,156l-3.649-0.15c-36.4-0.267-53.834-18.867-52.3-55.8V100l8.05,0.05v7.1
	c1.1,26.667,15.649,40.3,43.649,40.9h1.2H163.95"/>
<path fill="#8BB54A" d="M180.1,156l3.65-0.15c36.399-0.267,53.833-18.867,52.3-55.8V100l7.9,0.05L244,164h-64L180.1,156 M188.05,100
	v0.4c-0.1,4.4-1.583,6.934-4.45,7.6l-3.55-0.05v-7.9L188.05,100"/>
<path fill="#D9D3BF" d="M188.05,100h8l-0.05,1.1c-0.3,8.966-3.767,13.933-10.4,14.9h-5.55v-8.05l3.55,0.05
	c2.867-0.667,4.351-3.2,4.45-7.6V100 M180.05,148.05h3.1h1.2c28-0.6,42.55-14.233,43.65-40.9v-7.1l8.05-0.05v0.05
	c1.533,36.934-15.9,55.534-52.3,55.8L180.1,156L180.05,148.05"/>
<path fill="#6A6A6A" d="M180.05,148.05V116h5.55c6.634-0.967,10.101-5.934,10.4-14.9l0.05-1.1l31.95,0.05v7.1
	c-1.101,26.667-15.65,40.3-43.65,40.9h-1.2H180.05"/>
<path fill="#8BB54A" d="M483.949,355.95h-3.1h-1.2c-28,0.6-42.55,14.233-43.649,40.9v7.1h-15.95L420,340h64L483.949,355.95"/>
<path fill="#9CD5E2" d="M483.949,355.95v48H436v-7.1c1.1-26.667,15.649-40.3,43.649-40.9h1.2H483.949"/>
<path fill="#8BB54A" d="M548,403.95v-7.1c-1.101-26.667-15.65-40.3-43.65-40.9h-1.2h-3.1L500,340h64l-0.051,63.95H548"/>
<path fill="#9CD5E2" d="M548,403.95h-47.95v-48h3.1h1.2c28,0.6,42.55,14.233,43.65,40.9V403.95"/>
<path fill="#8BB54A" d="M436,420.05v7.101c1.1,26.666,15.649,40.3,43.649,40.899h1.2h3.1L484,484h-64l0.05-63.95H436"/>
<path fill="#9CD5E2" d="M436,420.05h47.949v48h-3.1h-1.2c-28-0.6-42.55-14.233-43.649-40.899V420.05"/>
<path fill="#8BB54A" d="M548,420.05h15.949L564,484h-64l0.05-15.95h3.1h1.2c28-0.6,42.55-14.233,43.65-40.899V420.05"/>
<path fill="#9CD5E2" d="M548,420.05v7.101c-1.101,26.666-15.65,40.3-43.65,40.899h-1.2h-3.1v-48H548"/>
<path fill="#D8D19E" d="M470.25,500H484l-0.051,15.95h-3.1h-1.2c-4.733,0.1-9.066,0.583-13,1.45
	c-16.366,3.466-26.184,13.3-29.45,29.5c-0.666,3.1-1.066,6.433-1.199,10v7.1h-15.95v-13.6
	C422.017,518.833,438.75,502.033,470.25,500"/>
<path fill="#9CD5E2" d="M436,564v-7.1c0.133-3.567,0.533-6.9,1.199-10c3.267-16.2,13.084-26.034,29.45-29.5
	c3.934-0.867,8.267-1.351,13-1.45h1.2h3.1V564H436"/>
<path fill="#8BB54A" d="M470.25,500c-31.5,2.033-48.233,18.833-50.2,50.4L420,500H470.25"/>
<path fill="#D8D19E" d="M548,564v-7.1c-0.134-3.567-0.534-6.9-1.2-10c-3.267-16.2-13.084-26.034-29.45-29.5
	c-3.934-0.867-8.267-1.351-13-1.45h-1.2h-3.1L500,500h13.75c31.5,2.033,48.232,18.833,50.199,50.4V564H548"/>
<path fill="#9CD5E2" d="M548,564h-47.95v-48.05h3.1h1.2c4.733,0.1,9.066,0.583,13,1.45c16.366,3.466,26.184,13.3,29.45,29.5
	c0.666,3.1,1.066,6.433,1.2,10V564"/>
<path fill="#8BB54A" d="M563.949,550.4c-1.967-31.567-18.699-48.367-50.199-50.4H564L563.949,550.4"/>
<path fill="#D8D19E" d="M436,580v7.1c0.133,3.567,0.533,6.9,1.199,10c3.267,16.2,13.084,26.034,29.45,29.5
	c3.934,0.867,8.267,1.351,13,1.45h1.2h3.1L484,644h-13.75c-31.5-2.033-48.233-18.833-50.2-50.4V580H436"/>
<path fill="#9CD5E2" d="M436,580h47.949v48.05h-3.1h-1.2c-4.733-0.1-9.066-0.583-13-1.45c-16.366-3.466-26.184-13.3-29.45-29.5
	c-0.666-3.1-1.066-6.433-1.199-10V580"/>
<path fill="#8BB54A" d="M420.05,593.6c1.967,31.567,18.7,48.367,50.2,50.4H420L420.05,593.6"/>
<path fill="#D8D19E" d="M500.05,628.05h3.1h1.2c4.733-0.1,9.066-0.583,13-1.45c16.366-3.466,26.184-13.3,29.45-29.5
	c0.666-3.1,1.066-6.433,1.2-10V580h15.949v13.6c-1.967,31.567-18.699,48.367-50.199,50.4H500L500.05,628.05"/>
<path fill="#9CD5E2" d="M500.05,628.05V580H548v7.1c-0.134,3.567-0.534,6.9-1.2,10c-3.267,16.2-13.084,26.034-29.45,29.5
	c-3.934,0.867-8.267,1.351-13,1.45h-1.2H500.05"/>
<path fill="#8BB54A" d="M513.75,644c31.5-2.033,48.232-18.833,50.199-50.4L564,644H513.75"/>
<path fill="#9CD5E2" d="M643.949,515.95V548h-5.55c-6.633,0.967-10.1,5.934-10.399,14.9l-0.051,1.1L596,563.95v-7.101
	c1.1-26.666,15.649-40.3,43.649-40.899h1.2H643.949"/>
<path fill="#D9D3BF" d="M643.949,515.95h-3.1h-1.2c-28,0.6-42.55,14.233-43.649,40.899v7.101l-8.051,0.05v-0.05
	c-1.533-36.934,15.9-55.533,52.301-55.8L643.9,508L643.949,515.95 M643.949,548v8.05L640.4,556c-2.866,0.667-4.35,3.2-4.45,7.6v0.4
	h-8l0.051-1.1c0.3-8.967,3.767-13.934,10.399-14.9H643.949"/>
<path fill="#8BB54A" d="M587.949,564l-7.899-0.05L580,500h64l-0.101,8l-3.649,0.15c-36.4,0.267-53.834,18.866-52.301,55.8V564
	 M643.949,556.05v7.9l-8,0.05v-0.4c0.101-4.399,1.584-6.933,4.45-7.6L643.949,556.05"/>
<path fill="#D9D3BF" d="M716.05,564l-8.05-0.05v-7.101c-1.101-26.666-15.65-40.3-43.65-40.899h-1.2h-3.1l0.05-7.95l3.65,0.15
	c36.399,0.267,53.833,18.866,52.3,55.8V564 M676.05,564h-8v-0.4c-0.101-4.399-1.584-6.933-4.45-7.6l-3.55,0.05V548h5.55
	c6.633,0.967,10.1,5.934,10.4,14.9L676.05,564"/>
<path fill="#9CD5E2" d="M676.05,564l-0.05-1.1c-0.301-8.967-3.768-13.934-10.4-14.9h-5.55v-32.05h3.1h1.2
	c28,0.6,42.55,14.233,43.65,40.899v7.101L676.05,564"/>
<path fill="#8BB54A" d="M660.1,508l-0.1-8h64l-0.051,63.95L716.05,564v-0.05c1.533-36.934-15.9-55.533-52.3-55.8L660.1,508
	 M668.05,564l-8-0.05v-7.9l3.55-0.05c2.866,0.667,4.35,3.2,4.45,7.6V564"/>
<path fill="#D9D3BF" d="M660.05,587.95l3.55,0.05c2.866-0.667,4.35-3.2,4.45-7.6V580h8l-0.05,1.1
	c-0.301,8.967-3.768,13.934-10.4,14.9h-5.55V587.95 M660.05,628.05h3.1h1.2c28-0.6,42.55-14.233,43.65-40.899v-7.101l8.05-0.05v0.05
	c1.533,36.934-15.9,55.533-52.3,55.8L660.1,636L660.05,628.05"/>
<path fill="#9CD5E2" d="M660.05,628.05V596h5.55c6.633-0.967,10.1-5.934,10.4-14.9l0.05-1.1l31.95,0.05v7.101
	c-1.101,26.666-15.65,40.3-43.65,40.899h-1.2H660.05"/>
<path fill="#8BB54A" d="M668.05,580v0.4c-0.101,4.399-1.584,6.933-4.45,7.6l-3.55-0.05v-7.9L668.05,580 M660.1,636l3.65-0.15
	c36.399-0.267,53.833-18.866,52.3-55.8V580l7.899,0.05L724,644h-64L660.1,636"/>
<path fill="#8BB54A" d="M587.949,580v0.05c-1.533,36.934,15.9,55.533,52.301,55.8L643.9,636l0.101,8h-64l0.05-63.95L587.949,580
	 M643.949,587.95L640.4,588c-2.866-0.667-4.35-3.2-4.45-7.6V580l8,0.05V587.95"/>
<path fill="#D9D3BF" d="M643.949,587.95V596h-5.55c-6.633-0.967-10.1-5.934-10.399-14.9l-0.051-1.1h8v0.4
	c0.101,4.399,1.584,6.933,4.45,7.6L643.949,587.95 M596,580.05v7.101c1.1,26.666,15.649,40.3,43.649,40.899h1.2h3.1L643.9,636
	l-3.649-0.15c-36.4-0.267-53.834-18.866-52.301-55.8V580L596,580.05"/>
<path fill="#9CD5E2" d="M596,580.05l31.949-0.05l0.051,1.1c0.3,8.967,3.767,13.934,10.399,14.9h5.55v32.05h-3.1h-1.2
	c-28-0.6-42.55-14.233-43.649-40.899V580.05"/>
<path fill="#8BB54A" d="M643.949,436h-5.55c-6.633-0.967-10.1-5.934-10.399-14.9l-0.051-1.1l16,0.05V436 M596,420.05v7.101
	c1.1,26.666,15.649,40.3,43.649,40.899h1.2h3.1L644,484h-64l0.05-63.95H596"/>
<path fill="#9CD5E2" d="M596,420.05l31.949-0.05l0.051,1.1c0.3,8.967,3.767,13.934,10.399,14.9h5.55v32.05h-3.1h-1.2
	c-28-0.6-42.55-14.233-43.649-40.899V420.05"/>
<path fill="#9CD5E2" d="M660.05,468.05V436h5.55c6.633-0.967,10.1-5.934,10.4-14.9l0.05-1.1l31.95,0.05v7.101
	c-1.101,26.666-15.65,40.3-43.65,40.899h-1.2H660.05"/>
<path fill="#8BB54A" d="M660.05,468.05h3.1h1.2c28-0.6,42.55-14.233,43.65-40.899v-7.101h15.949L724,484h-64L660.05,468.05
	 M660.05,436v-15.95l16-0.05l-0.05,1.1c-0.301,8.967-3.768,13.934-10.4,14.9H660.05"/>
<path fill="#8BB54A" d="M660.05,355.95L660,340h64l-0.051,63.95H708v-7.1c-1.101-26.667-15.65-40.3-43.65-40.9h-1.2H660.05
	 M676.05,404l-16-0.05V388h5.55c6.633,0.967,10.1,5.934,10.4,14.9L676.05,404"/>
<path fill="#9CD5E2" d="M676.05,404l-0.05-1.1c-0.301-8.967-3.768-13.934-10.4-14.9h-5.55v-32.05h3.1h1.2
	c28,0.6,42.55,14.233,43.65,40.9v7.1L676.05,404"/>
<path fill="#9CD5E2" d="M596,403.95v-7.1c1.1-26.667,15.649-40.3,43.649-40.9h1.2h3.1V388h-5.55
	c-6.633,0.967-10.1,5.934-10.399,14.9l-0.051,1.1L596,403.95"/>
<path fill="#8BB54A" d="M596,403.95h-15.95L580,340h64l-0.051,15.95h-3.1h-1.2c-28,0.6-42.55,14.233-43.649,40.9V403.95
	 M627.949,404l0.051-1.1c0.3-8.967,3.767-13.934,10.399-14.9h5.55v15.95L627.949,404"/>
<path fill="#8BB54A" d="M787.949,404l0.051-1.1c0.3-8.967,3.767-13.934,10.399-14.9h5.55v15.95L787.949,404"/>
<path fill="#9CD5E2" d="M787.949,404l-47.899-0.05L740,340h64l-0.051,48h-5.55c-6.633,0.967-10.1,5.934-10.399,14.9L787.949,404"/>
<path fill="#8BB54A" d="M820.05,388h5.55c6.633,0.967,10.1,5.934,10.4,14.9l0.05,1.1l-16-0.05V388"/>
<path fill="#9CD5E2" d="M820.05,388L820,340h64l-0.051,63.95L836.05,404l-0.05-1.1c-0.301-8.967-3.768-13.934-10.4-14.9H820.05"/>
<path fill="#8BB54A" d="M836.05,420l-0.05,1.1c-0.301,8.967-3.768,13.934-10.4,14.9h-5.55v-15.95L836.05,420"/>
<path fill="#9CD5E2" d="M836.05,420l47.899,0.05L884,484h-64l0.05-48h5.55c6.633-0.967,10.1-5.934,10.4-14.9L836.05,420"/>
<path fill="#8BB54A" d="M787.949,420l16,0.05V436h-5.55c-6.633-0.967-10.1-5.934-10.399-14.9L787.949,420"/>
<path fill="#9CD5E2" d="M787.949,420l0.051,1.1c0.3,8.967,3.767,13.934,10.399,14.9h5.55L804,484h-64l0.05-63.95L787.949,420"/>
<path fill="#D8D19E" d="M787.949,564l0.051-1.1c0.3-8.967,3.767-13.934,10.399-14.9h5.55v15.95L787.949,564"/>
<path fill="#9CD5E2" d="M787.949,564l-47.899-0.05L740,500h64l-0.051,48h-5.55c-6.633,0.967-10.1,5.934-10.399,14.9L787.949,564"/>
<path fill="#D8D19E" d="M787.949,580l16,0.05V596h-5.55c-6.633-0.967-10.1-5.934-10.399-14.9L787.949,580"/>
<path fill="#9CD5E2" d="M787.949,580l0.051,1.1c0.3,8.967,3.767,13.934,10.399,14.9h5.55L804,644h-64l0.05-63.95L787.949,580"/>
<path fill="#D8D19E" d="M836.05,580l-0.05,1.1c-0.301,8.967-3.768,13.934-10.4,14.9h-5.55v-15.95L836.05,580"/>
<path fill="#9CD5E2" d="M836.05,580l47.899,0.05L884,644h-64l0.05-48h5.55c6.633-0.967,10.1-5.934,10.4-14.9L836.05,580"/>
<path fill="#D8D19E" d="M836.05,564l-16-0.05V548h5.55c6.633,0.967,10.1,5.934,10.4,14.9L836.05,564"/>
<path fill="#9CD5E2" d="M836.05,564l-0.05-1.1c-0.301-8.967-3.768-13.934-10.4-14.9h-5.55L820,500h64l-0.051,63.95L836.05,564"/>
<path fill="#8BB54A" d="M323.949,436l-0.05-8H308v-8h16v63.95L308,484v-7.95l15.949-0.05v-8V436 M276,428.05h-16V420h16V428.05
	 M260.05,468v8.05H276v7.9h-16l0.05-17.45V468"/>
<path fill="#9CD5E2" d="M308,428l-32,0.05V420h32V428 M308,476.05V484l-32-0.05v-7.9H308"/>
<path fill="#D9D3BF" d="M308,476.05h-32h-15.95V468h63.899v8L308,476.05 M308,428H323.9l0.05,8H260.05v-1.1v-0.4V434l-0.05-5.95h16
	L308,428"/>
<path fill="#6A6A6A" d="M260.05,436h63.899v32H260.05v-1.5V466V436"/>
<path fill="#8BB54A" d="M403.949,436l-0.05-8H396v-7.95l8-0.05v63.95l-8.051,0.05l0.051-7.95l7.949-0.05v-8V436 M347.949,420v8.05
	H340V420H347.949 M340.05,466.5v1.5v8.05h7.899V484L340,483.95L340.05,466.5"/>
<path fill="#D9D3BF" d="M396,420.05V428h7.899l0.05,8H340.05v-1.1v-0.4V434l-0.05-5.95h7.949V420H356v8.05l32-0.05v-8L396,420.05
	 M403.949,468v8L396,476.05l-0.051,7.95H388v-7.95h-32v7.9l-8.051,0.05v-7.95h-7.899V468H403.949"/>
<path fill="#9CD5E2" d="M388,420v8l-32,0.05V420H388 M356,483.95v-7.9h32V484L356,483.95"/>
<path fill="#6A6A6A" d="M340.05,436h63.899v32H340.05v-1.5V466V436"/>
<path fill="#8BB54A" d="M316,340.05l7.949-0.05v16H316V340.05 M323.949,388L324,404h-8.051L316,388H323.949 M277.15,404h-2.25
	l1.101-0.05L277.15,404 M267.95,404H260l0.05-16h7.9V404 M260.05,356v-16h7.9v16H260.05"/>
<path fill="#D9D3BF" d="M308,340l6,0.05h0.5h1.5V356v32l-0.051,16H308V340 M274.9,404h-6.949v-16v-32v-16H276v63.95L274.9,404"/>
<path fill="#9CD5E2" d="M323.949,356v32H316v-32H323.949 M260.05,388v-32h7.9v32H260.05"/>
<path fill="#6A6A6A" d="M308,404h-30h-0.5h-0.351L276,403.95V340h32V404"/>
<path fill="#8BB54A" d="M396,340.05l7.949-0.05l-0.05,8H396V340.05 M403.949,396l0.051,8h-8.051v-8H403.949 M357.15,404h-2.25
	l1.101-0.05L357.15,404 M347.949,404H340l0.05-7.95h7.899V404 M340,348.05l0.05-8.05h7.899v8.05H340"/>
<path fill="#D9D3BF" d="M340,348.05h7.949V340H356v63.95L354.9,404h-6.95v-7.95h-7.899V388h7.899v-32h-7.899L340,348.05 M388,340
	l6,0.05h0.5h1.5V348h7.899l0.05,8H396l-0.051,32h8v8h-8v8H388V340"/>
<path fill="#9CD5E2" d="M403.949,356v32h-8L396,356H403.949 M340.05,388v-32h7.899v32H340.05"/>
<path fill="#6A6A6A" d="M388,404h-30h-0.5h-0.351L356,403.95V340h32V404"/>
<path fill="#9CD5E2" d="M820,228h3.05c8.267-0.533,12.6-5.717,13-15.55v-6.95c-0.9-5.833-4.45-9.083-10.65-9.75L820,195.8V180
	h63.949L884,244h-64V228"/>
<path fill="#B7E0EA" d="M820,228v-32.2l5.399-0.05c6.2,0.667,9.75,3.917,10.65,9.75v6.95c-0.4,9.833-4.733,15.017-13,15.55H820"/>
<path fill="#B7E0EA" d="M835.75,260.05L868,260l-0.051,3.05c-0.5,8.267-5.683,12.617-15.55,13.05l-6.899-0.05
	c-5.834-0.866-9.084-4.417-9.75-10.65V260.05"/>
<path fill="#9CD5E2" d="M835.75,260.05v5.35c0.666,6.233,3.916,9.784,9.75,10.65l6.899,0.05c9.867-0.434,15.05-4.784,15.55-13.05
	L868,260h16v64h-63.95L820,260L835.75,260.05"/>
<path fill="#9CD5E2" d="M804,308.25V324h-64v-64h64v16l-3.101,0.05c-8.233,0.5-12.566,5.667-13,15.5l0.05,6.9
	c0.867,5.866,4.4,9.117,10.601,9.75L804,308.25"/>
<path fill="#B7E0EA" d="M804,308.25l-5.45-0.05c-6.2-0.633-9.733-3.884-10.601-9.75l-0.05-6.9c0.434-9.833,4.767-15,13-15.5L804,276
	V308.25"/>
<path fill="#9CD5E2" d="M756,244h-16v-64h64v63.95L787.65,244l0.55-0.1v-5.35c-0.666-6.2-3.899-9.733-9.699-10.6l-6.95-0.05
	c-9.834,0.4-15.017,4.733-15.55,13V244"/>
<path fill="#B7E0EA" d="M756,244v-3.1c0.533-8.267,5.716-12.6,15.55-13l6.95,0.05c5.8,0.866,9.033,4.4,9.699,10.6v5.35l-0.55,0.1
	H756"/>
<path fill="#D9D3BF" d="M724,260.05l-0.051,63.9L660,324v-64L724,260.05"/>
</svg>
