<svg xmlns="http://www.w3.org/2000/svg" xmlns:xlink="http://www.w3.org/1999/xlink">
  <defs/>
  <g>
    <path stroke="none" fill="#FDD1A9" d="M0 48 L0 46 64 46 64 48 32 48 0 48"/>
    <path stroke="none" fill="#FCA759" d="M0 48 L32 48 32 56 0 56 0 48"/>
    <path stroke="none" fill="#FCB675" d="M32 48 L64 48 64 56 32 56 32 48"/>
    <path stroke="none" fill="#FDD1A9" d="M64 48 L64 46 128 46 128 48 96 48 64 48"/>
    <path stroke="none" fill="#FCB675" d="M96 48 L128 48 128 56 96 56 96 48"/>
    <path stroke="none" fill="#FCA759" d="M96 48 L96 56 64 56 64 48 96 48"/>
    <path stroke="none" fill="#FDD1A9" d="M101.95 34.85 L98.65 33.7 96 30.95 93.4 33.7 90.05 34.85 89 33.25 93.4 31.95 96 28 98.65 31.95 103 33.25 101.95 34.85"/>
    <path stroke="none" fill="#FCB675" d="M90.05 34.85 L93.4 33.7 96 30.95 98.65 33.7 101.95 34.85 100.25 37.2 91.75 37.2 90.05 34.85"/>
    <path stroke="none" fill="#FCA759" d="M91.75 37.2 L100.25 37.2 100.35 42 96 40 91.7 42 91.65 42 91.75 37.2"/>
    <path stroke="none" fill="#FDD1A9" d="M128 48 L128 46 192 46 192 48 160 48 128 48"/>
    <path stroke="none" fill="#FCB675" d="M160 48 L192 48 192 56 160 56 160 48"/>
    <path stroke="none" fill="#FCA759" d="M160 48 L160 56 128 56 128 48 160 48"/>
    <path stroke="none" fill="#FDD1A9" d="M192 48 L192 46 256 46 256 48 224 48 192 48"/>
    <path stroke="none" fill="#FCB675" d="M224 48 L256 48 256 56 224 56 224 48"/>
    <path stroke="none" fill="#FCA759" d="M224 48 L224 56 192 56 192 48 224 48"/>
    <path stroke="none" fill="#FDD1A9" d="M157.95 34.85 L154.65 33.7 152 30.95 149.4 33.7 146.05 34.85 145 33.25 149.4 31.95 152 28 154.65 31.95 159 33.25 157.95 34.85"/>
    <path stroke="none" fill="#FCB675" d="M157.95 34.85 L156.25 37.2 147.75 37.2 146.05 34.85 149.4 33.7 152 30.95 154.65 33.7 157.95 34.85"/>
    <path stroke="none" fill="#FCA759" d="M147.75 37.2 L156.25 37.2 156.35 42 152 40 147.7 42 147.65 42 147.75 37.2"/>
    <path stroke="none" fill="#FDD1A9" d="M162.05 34.85 L161 33.25 165.4 31.95 168 28 170.65 31.95 175 33.25 173.95 34.85 170.65 33.7 168 30.95 165.4 33.7 162.05 34.85"/>
    <path stroke="none" fill="#FCB675" d="M162.05 34.85 L165.4 33.7 168 30.95 170.65 33.7 173.95 34.85 172.25 37.2 163.75 37.2 162.05 34.85"/>
    <path stroke="none" fill="#FCA759" d="M172.25 37.2 L172.35 42 168 40 163.7 42 163.65 42 163.75 37.2 172.25 37.2"/>
    <path stroke="none" fill="#FDD1A9" d="M229.95 34.85 L226.65 33.7 224 30.95 221.4 33.7 218.05 34.85 217 33.25 221.4 31.95 224 28 226.65 31.95 231 33.25 229.95 34.85"/>
    <path stroke="none" fill="#FCB675" d="M229.95 34.85 L228.25 37.2 219.75 37.2 218.05 34.85 221.4 33.7 224 30.95 226.65 33.7 229.95 34.85"/>
    <path stroke="none" fill="#FCA759" d="M219.75 37.2 L228.25 37.2 228.35 42 224 40 219.7 42 219.65 42 219.75 37.2"/>
    <path stroke="none" fill="#FDD1A9" d="M202.05 34.85 L201 33.25 205.4 31.95 208 28 210.65 31.95 215 33.25 213.95 34.85 210.65 33.7 208 30.95 205.4 33.7 202.05 34.85"/>
    <path stroke="none" fill="#FCB675" d="M202.05 34.85 L205.4 33.7 208 30.95 210.65 33.7 213.95 34.85 212.25 37.2 203.75 37.2 202.05 34.85"/>
    <path stroke="none" fill="#FCA759" d="M212.25 37.2 L212.35 42 208 40 203.7 42 203.65 42 203.75 37.2 212.25 37.2"/>
    <path stroke="none" fill="#FDD1A9" d="M234.05 34.85 L233 33.25 237.4 31.95 240 28 242.65 31.95 247 33.25 245.95 34.85 242.65 33.7 240 30.95 237.4 33.7 234.05 34.85"/>
    <path stroke="none" fill="#FCA759" d="M244.25 37.2 L244.35 42 240 40 235.7 42 235.65 42 235.75 37.2 244.25 37.2"/>
    <path stroke="none" fill="#FCB675" d="M244.25 37.2 L235.75 37.2 234.05 34.85 237.4 33.7 240 30.95 242.65 33.7 245.95 34.85 244.25 37.2"/>
    <path stroke="none" fill="#FCB675" d="M288 32 L320 32 320 40 288 40 288 32"/>
    <path stroke="none" fill="#FDD1A9" d="M256 32 L256 30 320 30 320 32 288 32 256 32"/>
    <path stroke="none" fill="#FCA759" d="M256 32 L288 32 288 40 256 40 256 32"/>
    <path stroke="none" fill="#FCB675" d="M352 32 L384 32 384 40 352 40 352 32"/>
    <path stroke="none" fill="#FDD1A9" d="M352 32 L320 32 320 30 384 30 384 32 352 32"/>
    <path stroke="none" fill="#FCA759" d="M352 32 L352 40 320 40 320 32 352 32"/>
    <path stroke="none" fill="#FDD1A9" d="M346.05 18.85 L345 17.25 349.4 15.95 352 12 354.65 15.95 359 17.25 357.95 18.85 354.65 17.7 352 14.95 349.4 17.7 346.05 18.85"/>
    <path stroke="none" fill="#FCB675" d="M346.05 18.85 L349.4 17.7 352 14.95 354.65 17.7 357.95 18.85 356.25 21.2 347.75 21.2 346.05 18.85"/>
    <path stroke="none" fill="#FCA759" d="M356.25 21.2 L356.35 26 352 24 347.7 26 347.65 26 347.75 21.2 356.25 21.2"/>
    <path stroke="none" fill="#FCB675" d="M416 32 L448 32 448 40 416 40 416 32"/>
    <path stroke="none" fill="#FDD1A9" d="M416 32 L384 32 384 30 448 30 448 32 416 32"/>
    <path stroke="none" fill="#FCA759" d="M416 32 L416 40 384 40 384 32 416 32"/>
    <path stroke="none" fill="#FCB675" d="M480 32 L512 32 512 40 480 40 480 32"/>
    <path stroke="none" fill="#FDD1A9" d="M480 32 L448 32 448 30 512 30 512 32 480 32"/>
    <path stroke="none" fill="#FCA759" d="M480 32 L480 40 448 40 448 32 480 32"/>
    <path stroke="none" fill="#FDD1A9" d="M402.05 18.85 L401 17.25 405.4 15.95 408 12 410.65 15.95 415 17.25 413.95 18.85 410.65 17.7 408 14.95 405.4 17.7 402.05 18.85"/>
    <path stroke="none" fill="#FCB675" d="M402.05 18.85 L405.4 17.7 408 14.95 410.65 17.7 413.95 18.85 412.25 21.2 403.75 21.2 402.05 18.85"/>
    <path stroke="none" fill="#FCA759" d="M412.25 21.2 L412.35 26 408 24 403.7 26 403.65 26 403.75 21.2 412.25 21.2"/>
    <path stroke="none" fill="#FDD1A9" d="M429.95 18.85 L426.65 17.7 424 14.95 421.4 17.7 418.05 18.85 417 17.25 421.4 15.95 424 12 426.65 15.95 431 17.25 429.95 18.85"/>
    <path stroke="none" fill="#FCB675" d="M429.95 18.85 L428.25 21.2 419.75 21.2 418.05 18.85 421.4 17.7 424 14.95 426.65 17.7 429.95 18.85"/>
    <path stroke="none" fill="#FCA759" d="M419.75 21.2 L428.25 21.2 428.35 26 424 24 419.7 26 419.65 26 419.75 21.2"/>
    <path stroke="none" fill="#FCB675" d="M485.95 18.85 L484.25 21.2 475.75 21.2 474.05 18.85 477.4 17.7 480 14.95 482.65 17.7 485.95 18.85"/>
    <path stroke="none" fill="#FDD1A9" d="M485.95 18.85 L482.65 17.7 480 14.95 477.4 17.7 474.05 18.85 473 17.25 477.4 15.95 480 12 482.65 15.95 487 17.25 485.95 18.85"/>
    <path stroke="none" fill="#FCA759" d="M484.25 21.2 L484.35 26 480 24 475.7 26 475.65 26 475.75 21.2 484.25 21.2"/>
    <path stroke="none" fill="#FDD1A9" d="M469.95 18.85 L466.65 17.7 464 14.95 461.4 17.7 458.05 18.85 457 17.25 461.4 15.95 464 12 466.65 15.95 471 17.25 469.95 18.85"/>
    <path stroke="none" fill="#FCB675" d="M458.05 18.85 L461.4 17.7 464 14.95 466.65 17.7 469.95 18.85 468.25 21.2 459.75 21.2 458.05 18.85"/>
    <path stroke="none" fill="#FCA759" d="M459.75 21.2 L468.25 21.2 468.35 26 464 24 459.7 26 459.65 26 459.75 21.2"/>
    <path stroke="none" fill="#FCB675" d="M501.95 18.85 L500.25 21.2 491.75 21.2 490.05 18.85 493.4 17.7 496 14.95 498.65 17.7 501.95 18.85"/>
    <path stroke="none" fill="#FDD1A9" d="M501.95 18.85 L498.65 17.7 496 14.95 493.4 17.7 490.05 18.85 489 17.25 493.4 15.95 496 12 498.65 15.95 503 17.25 501.95 18.85"/>
    <path stroke="none" fill="#FCA759" d="M500.25 21.2 L500.35 26 496 24 491.7 26 491.65 26 491.75 21.2 500.25 21.2"/>
    <path stroke="none" fill="#FDD1A9" d="M256 48 L256 46 320 46 320 48 288 48 256 48"/>
    <path stroke="none" fill="#FCB675" d="M288 48 L320 48 320 56 288 56 288 48"/>
    <path stroke="none" fill="#FCA759" d="M288 48 L288 56 256 56 256 48 288 48"/>
    <path stroke="none" fill="#FDD1A9" d="M320 48 L320 46 384 46 384 48 352 48 320 48"/>
    <path stroke="none" fill="#FCB675" d="M352 48 L384 48 384 56 352 56 352 48"/>
    <path stroke="none" fill="#FCA759" d="M352 48 L352 56 320 56 320 48 352 48"/>
    <path stroke="none" fill="#FDD1A9" d="M384 48 L384 46 448 46 448 48 416 48 384 48"/>
    <path stroke="none" fill="#FCB675" d="M416 48 L448 48 448 56 416 56 416 48"/>
    <path stroke="none" fill="#FCA759" d="M416 48 L416 56 384 56 384 48 416 48"/>
    <path stroke="none" fill="#FDD1A9" d="M448 48 L448 46 512 46 512 48 480 48 448 48"/>
    <path stroke="none" fill="#FCB675" d="M480 48 L512 48 512 56 480 56 480 48"/>
    <path stroke="none" fill="#FCA759" d="M448 48 L480 48 480 56 448 56 448 48"/>
    <path stroke="none" fill="#FDD1A9" d="M512 48 L512 46 576 46 576 48 544 48 512 48"/>
    <path stroke="none" fill="#FCB675" d="M544 48 L576 48 576 56 544 56 544 48"/>
    <path stroke="none" fill="#FCA759" d="M544 48 L544 56 512 56 512 48 544 48"/>
    <path stroke="none" fill="#FCB675" d="M544 32 L576 32 576 40 544 40 544 32"/>
    <path stroke="none" fill="#FDD1A9" d="M544 32 L512 32 512 30 576 30 576 32 544 32"/>
    <path stroke="none" fill="#FCA759" d="M544 32 L544 40 512 40 512 32 544 32"/>
    <path stroke="none" fill="#FCB675" d="M544 16 L576 16 576 24 544 24 544 16"/>
    <path stroke="none" fill="#FDD1A9" d="M512 16 L512 14 576 14 576 16 544 16 512 16"/>
    <path stroke="none" fill="#FCA759" d="M512 16 L544 16 544 24 512 24 512 16"/>
    <path stroke="none" fill="#FCB675" d="M32 112 L64 104 64 112 32 120 32 112"/>
    <path stroke="none" fill="#FDD1A9" d="M32 112 L0 104 0 102 32 110 64 102 64 104 32 112"/>
    <path stroke="none" fill="#FCA759" d="M32 112 L32 120 0 112 0 104 32 112"/>
    <path stroke="none" fill="#FDD1A9" d="M96 112 L64 104 64 102 96 110 128 102 128 104 96 112"/>
    <path stroke="none" fill="#FCA759" d="M96 112 L96 120 64 112 64 104 96 112"/>
    <path stroke="none" fill="#FCB675" d="M96 112 L128 104 128 112 96 120 96 112"/>
    <path stroke="none" fill="#FDD1A9" d="M192 104 L160 112 128 104 128 102 160 110 192 102 192 104"/>
    <path stroke="none" fill="#FCB675" d="M192 104 L192 112 160 120 160 112 192 104"/>
    <path stroke="none" fill="#FCA759" d="M160 112 L160 120 128 112 128 104 160 112"/>
    <path stroke="none" fill="#FCB675" d="M224 120 L224 112 256 104 256 112 224 120"/>
    <path stroke="none" fill="#FCA759" d="M224 120 L192 112 192 104 224 112 224 120"/>
    <path stroke="none" fill="#FDD1A9" d="M256 104 L224 112 192 104 192 102 224 110 256 102 256 104"/>
    <path stroke="none" fill="#FDD1A9" d="M288 112 L256 104 256 102 288 110 320 102 320 104 288 112"/>
    <path stroke="none" fill="#FCB675" d="M288 112 L320 104 320 112 288 120 288 112"/>
    <path stroke="none" fill="#FCA759" d="M288 112 L288 120 256 112 256 104 288 112"/>
    <path stroke="none" fill="#FDD1A9" d="M288 96 L256 88 256 86 288 94 320 86 320 88 288 96"/>
    <path stroke="none" fill="#FCA759" d="M288 96 L288 104 256 96 256 88 288 96"/>
    <path stroke="none" fill="#FCB675" d="M288 96 L320 88 320 96 288 104 288 96"/>
    <path stroke="none" fill="#FDD1A9" d="M384 104 L352 112 320 104 320 102 352 110 384 102 384 104"/>
    <path stroke="none" fill="#FCB675" d="M384 104 L384 112 352 120 352 112 384 104"/>
    <path stroke="none" fill="#FCA759" d="M352 112 L352 120 320 112 320 104 352 112"/>
    <path stroke="none" fill="#FDD1A9" d="M352 96 L320 88 320 86 352 94 384 86 384 88 352 96"/>
    <path stroke="none" fill="#FCB675" d="M384 88 L384 96 352 104 352 96 384 88"/>
    <path stroke="none" fill="#FCA759" d="M352 96 L352 104 320 96 320 88 352 96"/>
    <path stroke="none" fill="#FDD1A9" d="M416 112 L384 104 384 102 416 110 448 102 448 104 416 112"/>
    <path stroke="none" fill="#FCA759" d="M416 112 L416 120 384 112 384 104 416 112"/>
    <path stroke="none" fill="#FCB675" d="M416 112 L448 104 448 112 416 120 416 112"/>
    <path stroke="none" fill="#FCB675" d="M416 96 L448 88 448 96 416 104 416 96"/>
    <path stroke="none" fill="#FDD1A9" d="M416 96 L384 88 384 86 416 94 448 86 448 88 416 96"/>
    <path stroke="none" fill="#FCA759" d="M416 96 L416 104 384 96 384 88 416 96"/>
    <path stroke="none" fill="#FDD1A9" d="M512 104 L480 112 448 104 448 102 480 110 512 102 512 104"/>
    <path stroke="none" fill="#FCB675" d="M512 104 L512 112 480 120 480 112 512 104"/>
    <path stroke="none" fill="#FCA759" d="M480 112 L480 120 448 112 448 104 480 112"/>
    <path stroke="none" fill="#FDD1A9" d="M512 88 L480 96 448 88 448 86 480 94 512 86 512 88"/>
    <path stroke="none" fill="#FCB675" d="M512 88 L512 96 480 104 480 96 512 88"/>
    <path stroke="none" fill="#FCA759" d="M480 96 L480 104 448 96 448 88 480 96"/>
    <path stroke="none" fill="#FCB675" d="M576 104 L576 112 544 120 544 112 576 104"/>
    <path stroke="none" fill="#FCA759" d="M544 112 L544 120 512 112 512 104 544 112"/>
    <path stroke="none" fill="#FDD1A9" d="M576 104 L544 112 512 104 512 102 544 110 576 102 576 104"/>
    <path stroke="none" fill="#FCB675" d="M544 96 L576 88 576 96 544 104 544 96"/>
    <path stroke="none" fill="#FDD1A9" d="M544 96 L512 88 512 86 544 94 576 86 576 88 544 96"/>
    <path stroke="none" fill="#FCA759" d="M544 96 L544 104 512 96 512 88 544 96"/>
    <path stroke="none" fill="#FCB675" d="M544 81 L576 73 576 81 544 89 544 81"/>
    <path stroke="none" fill="#FDD1A9" d="M544 81 L512 73 512 71 544 79 576 71 576 73 544 81"/>
    <path stroke="none" fill="#FCA759" d="M544 81 L544 89 512 81 512 73 544 81"/>
    <path stroke="none" fill="#FDD1A9" d="M90.05 98.85 L89 97.25 93.4 95.95 96 92 98.65 95.95 103 97.25 101.95 98.85 98.65 97.7 96 94.95 93.4 97.7 90.05 98.85"/>
    <path stroke="none" fill="#FCB675" d="M101.95 98.85 L100.25 101.2 91.75 101.2 90.05 98.85 93.4 97.7 96 94.95 98.65 97.7 101.95 98.85"/>
    <path stroke="none" fill="#FCA759" d="M100.25 101.2 L100.35 106 96 104 91.7 106 91.65 106 91.75 101.2 100.25 101.2"/>
    <path stroke="none" fill="#FDD1A9" d="M157.95 98.85 L154.65 97.7 152 94.95 149.4 97.7 146.05 98.85 145 97.25 149.4 95.95 152 92 154.65 95.95 159 97.25 157.95 98.85"/>
    <path stroke="none" fill="#FCB675" d="M157.95 98.85 L156.25 101.2 147.75 101.2 146.05 98.85 149.4 97.7 152 94.95 154.65 97.7 157.95 98.85"/>
    <path stroke="none" fill="#FCA759" d="M147.75 101.2 L156.25 101.2 156.35 106 152 104 147.7 106 147.65 106 147.75 101.2"/>
    <path stroke="none" fill="#FDD1A9" d="M173.95 98.85 L170.65 97.7 168 94.95 165.4 97.7 162.05 98.85 161 97.25 165.4 95.95 168 92 170.65 95.95 175 97.25 173.95 98.85"/>
    <path stroke="none" fill="#FCB675" d="M173.95 98.85 L172.25 101.2 163.75 101.2 162.05 98.85 165.4 97.7 168 94.95 170.65 97.7 173.95 98.85"/>
    <path stroke="none" fill="#FCA759" d="M163.75 101.2 L172.25 101.2 172.35 106 168 104 163.7 106 163.65 106 163.75 101.2"/>
    <path stroke="none" fill="#FDD1A9" d="M229.95 98.85 L226.65 97.7 224 94.95 221.4 97.7 218.05 98.85 217 97.25 221.4 95.95 224 92 226.65 95.95 231 97.25 229.95 98.85"/>
    <path stroke="none" fill="#FCB675" d="M229.95 98.85 L228.25 101.2 219.75 101.2 218.05 98.85 221.4 97.7 224 94.95 226.65 97.7 229.95 98.85"/>
    <path stroke="none" fill="#FCA759" d="M219.75 101.2 L228.25 101.2 228.35 106 224 104 219.7 106 219.65 106 219.75 101.2"/>
    <path stroke="none" fill="#FDD1A9" d="M234.05 90.85 L233 89.25 237.4 87.95 240 84 242.65 87.95 247 89.25 245.95 90.85 242.65 89.7 240 86.95 237.4 89.7 234.05 90.85"/>
    <path stroke="none" fill="#FCA759" d="M244.25 93.2 L244.35 98 240 96 235.7 98 235.65 98 235.75 93.2 244.25 93.2"/>
    <path stroke="none" fill="#FCB675" d="M244.25 93.2 L235.75 93.2 234.05 90.85 237.4 89.7 240 86.95 242.65 89.7 245.95 90.85 244.25 93.2"/>
    <path stroke="none" fill="#FDD1A9" d="M202.05 90.85 L201 89.25 205.4 87.95 208 84 210.65 87.95 215 89.25 213.95 90.85 210.65 89.7 208 86.95 205.4 89.7 202.05 90.85"/>
    <path stroke="none" fill="#FCB675" d="M202.05 90.85 L205.4 89.7 208 86.95 210.65 89.7 213.95 90.85 212.25 93.2 203.75 93.2 202.05 90.85"/>
    <path stroke="none" fill="#FCA759" d="M212.25 93.2 L212.35 98 208 96 203.7 98 203.65 98 203.75 93.2 212.25 93.2"/>
    <path stroke="none" fill="#FDD1A9" d="M282.05 82.85 L281 81.25 285.4 79.95 288 76 290.65 79.95 295 81.25 293.95 82.85 290.65 81.7 288 78.95 285.4 81.7 282.05 82.85"/>
    <path stroke="none" fill="#FCB675" d="M282.05 82.85 L285.4 81.7 288 78.95 290.65 81.7 293.95 82.85 292.25 85.2 283.75 85.2 282.05 82.85"/>
    <path stroke="none" fill="#FCA759" d="M292.25 85.2 L292.35 90 288 88 283.7 90 283.65 90 283.75 85.2 292.25 85.2"/>
    <path stroke="none" fill="#FDD1A9" d="M338.05 82.85 L337 81.25 341.4 79.95 344 76 346.65 79.95 351 81.25 349.95 82.85 346.65 81.7 344 78.95 341.4 81.7 338.05 82.85"/>
    <path stroke="none" fill="#FCB675" d="M338.05 82.85 L341.4 81.7 344 78.95 346.65 81.7 349.95 82.85 348.25 85.2 339.75 85.2 338.05 82.85"/>
    <path stroke="none" fill="#FCA759" d="M348.25 85.2 L348.35 90 344 88 339.7 90 339.65 90 339.75 85.2 348.25 85.2"/>
    <path stroke="none" fill="#FDD1A9" d="M365.95 82.85 L362.65 81.7 360 78.95 357.4 81.7 354.05 82.85 353 81.25 357.4 79.95 360 76 362.65 79.95 367 81.25 365.95 82.85"/>
    <path stroke="none" fill="#FCB675" d="M364.25 85.2 L355.75 85.2 354.05 82.85 357.4 81.7 360 78.95 362.65 81.7 365.95 82.85 364.25 85.2"/>
    <path stroke="none" fill="#FCA759" d="M364.25 85.2 L364.35 90 360 88 355.7 90 355.65 90 355.75 85.2 364.25 85.2"/>
    <path stroke="none" fill="#FDD1A9" d="M410.05 82.85 L409 81.25 413.4 79.95 416 76 418.65 79.95 423 81.25 421.95 82.85 418.65 81.7 416 78.95 413.4 81.7 410.05 82.85"/>
    <path stroke="none" fill="#FCB675" d="M410.05 82.85 L413.4 81.7 416 78.95 418.65 81.7 421.95 82.85 420.25 85.2 411.75 85.2 410.05 82.85"/>
    <path stroke="none" fill="#FCA759" d="M420.25 85.2 L420.35 90 416 88 411.7 90 411.65 90 411.75 85.2 420.25 85.2"/>
    <path stroke="none" fill="#FDD1A9" d="M437.95 74.85 L434.65 73.7 432 70.95 429.4 73.7 426.05 74.85 425 73.25 429.4 71.95 432 68 434.65 71.95 439 73.25 437.95 74.85"/>
    <path stroke="none" fill="#FCB675" d="M437.95 74.85 L436.25 77.2 427.75 77.2 426.05 74.85 429.4 73.7 432 70.95 434.65 73.7 437.95 74.85"/>
    <path stroke="none" fill="#FCA759" d="M427.75 77.2 L436.25 77.2 436.35 82 432 80 427.7 82 427.65 82 427.75 77.2"/>
    <path stroke="none" fill="#FDD1A9" d="M394.05 74.85 L393 73.25 397.4 71.95 400 68 402.65 71.95 407 73.25 405.95 74.85 402.65 73.7 400 70.95 397.4 73.7 394.05 74.85"/>
    <path stroke="none" fill="#FCB675" d="M394.05 74.85 L397.4 73.7 400 70.95 402.65 73.7 405.95 74.85 404.25 77.2 395.75 77.2 394.05 74.85"/>
    <path stroke="none" fill="#FCA759" d="M404.25 77.2 L404.35 82 400 80 395.7 82 395.65 82 395.75 77.2 404.25 77.2"/>
    <path stroke="none" fill="#FDD1A9" d="M192 144 L192 142 256 142 256 144 224 144 192 144"/>
    <path stroke="none" fill="#FCA759" d="M192 144 L224 144 224 152 192 152 192 144"/>
    <path stroke="none" fill="#FCB675" d="M224 144 L256 144 256 152 224 152 224 144"/>
    <path stroke="none" fill="#FDD1A9" d="M256 176 L224 176 192 176 192 174 256 174 256 176"/>
    <path stroke="none" fill="#FCA759" d="M224 184 L192 184 192 176 224 176 224 184"/>
    <path stroke="none" fill="#FCB675" d="M256 176 L256 184 224 184 224 176 256 176"/>
    <path stroke="none" fill="#FDD1A9" d="M218.05 162.85 L217 161.25 221.4 159.95 224 156 226.65 159.95 231 161.25 229.95 162.85 226.65 161.7 224 158.95 221.4 161.7 218.05 162.85"/>
    <path stroke="none" fill="#FCB675" d="M218.05 162.85 L221.4 161.7 224 158.95 226.65 161.7 229.95 162.85 228.25 165.2 219.75 165.2 218.05 162.85"/>
    <path stroke="none" fill="#FCA759" d="M228.25 165.2 L228.35 170 224 168 219.7 170 219.65 170 219.75 165.2 228.25 165.2"/>
    <path stroke="none" fill="#FDD1A9" d="M288 176 L256 168 256 166 288 174 320 166 320 168 288 176"/>
    <path stroke="none" fill="#FCA759" d="M288 176 L288 184 256 176 256 168 288 176"/>
    <path stroke="none" fill="#FCB675" d="M288 176 L320 168 320 176 288 184 288 176"/>
    <path stroke="none" fill="#FDD1A9" d="M282.05 162.85 L281 161.25 285.4 159.95 288 156 290.65 159.95 295 161.25 293.95 162.85 290.65 161.7 288 158.95 285.4 161.7 282.05 162.85"/>
    <path stroke="none" fill="#FCA759" d="M292.25 165.2 L292.35 170 288 168 283.7 170 283.65 170 283.75 165.2 292.25 165.2"/>
    <path stroke="none" fill="#FCB675" d="M292.25 165.2 L283.75 165.2 282.05 162.85 285.4 161.7 288 158.95 290.65 161.7 293.95 162.85 292.25 165.2"/>
    <path stroke="none" fill="#FDD1A9" d="M288 144 L256 152 256 150 288 142 320 150 320 152 288 144"/>
    <path stroke="none" fill="#FCA759" d="M288 144 L288 152 256 160 256 152 288 144"/>
    <path stroke="none" fill="#FCB675" d="M288 144 L320 152 320 160 288 152 288 144"/>
    <path stroke="none" fill="#FDD1A9" d="M320 144 L320 142 384 142 384 144 352 144 320 144"/>
    <path stroke="none" fill="#FCB675" d="M352 144 L384 144 384 152 352 152 352 144"/>
    <path stroke="none" fill="#FCA759" d="M352 144 L352 152 320 152 320 144 352 144"/>
    <path stroke="none" fill="#FCB675" d="M352 184 L352 176 384 168 384 176 352 184"/>
    <path stroke="none" fill="#FCA759" d="M352 184 L320 176 320 168 352 176 352 184"/>
    <path stroke="none" fill="#FDD1A9" d="M384 168 L352 176 320 168 320 166 352 174 384 166 384 168"/>
    <path stroke="none" fill="#FDD1A9" d="M192 184 L160 176 128 168 128 166 192 182 192 184"/>
    <path stroke="none" fill="#FCB675" d="M192 184 L192 192 160 184 160 176 192 184"/>
    <path stroke="none" fill="#FCA759" d="M160 176 L160 184 128 176 128 168 160 176"/>
    <path stroke="none" fill="#FDD1A9" d="M160 160 L128 152 128 150 192 166 192 168 160 160"/>
    <path stroke="none" fill="#FCB675" d="M160 160 L192 168 192 176 160 168 160 160"/>
    <path stroke="none" fill="#FCA759" d="M160 160 L160 168 128 160 128 152 160 160"/>
    <path stroke="none" fill="#FDD1A9" d="M192 152 L160 144 128 136 128 134 192 150 192 152"/>
    <path stroke="none" fill="#FCB675" d="M192 152 L192 160 160 152 160 144 192 152"/>
    <path stroke="none" fill="#FCA759" d="M160 144 L160 152 128 144 128 136 160 144"/>
    <path stroke="none" fill="#FDD1A9" d="M96 176 L64 168 64 166 128 182 128 184 96 176"/>
    <path stroke="none" fill="#FCA759" d="M96 176 L96 184 64 176 64 168 96 176"/>
    <path stroke="none" fill="#FCB675" d="M96 176 L128 184 128 192 96 184 96 176"/>
    <path stroke="none" fill="#FCA759" d="M96 160 L96 168 64 160 64 152 96 160"/>
    <path stroke="none" fill="#FDD1A9" d="M64 152 L64 150 128 166 128 168 96 160 64 152"/>
    <path stroke="none" fill="#FCB675" d="M96 160 L128 168 128 176 96 168 96 160"/>
    <path stroke="none" fill="#FCA759" d="M32 176 L32 184 0 176 0 168 32 176"/>
    <path stroke="none" fill="#FDD1A9" d="M32 176 L0 168 0 166 64 182 64 184 32 176"/>
    <path stroke="none" fill="#FCB675" d="M32 176 L64 184 64 192 32 184 32 176"/>
    <path stroke="none" fill="#FCA759" d="M352 168 L328 160 352 160 352 168"/>
    <path stroke="none" fill="#FCB675" d="M352 168 L352 160 376 160 352 168"/>
    <path stroke="none" fill="#FDD1A9" d="M328 160 L328 158 376 158 376 160 352 160 328 160"/>
    <path stroke="none" fill="#FCB675" d="M736 74 L736 66 768 66 768 74 736 74"/>
    <path stroke="none" fill="#FDD1A9" d="M768 66 L736 66 704 66 704 64 768 64 768 66"/>
    <path stroke="none" fill="#FCA759" d="M736 66 L736 74 704 74 704 66 736 66"/>
    <path stroke="none" fill="#FDD1A9" d="M736 120 L704 112 704 110 736 118 768 110 768 112 736 120"/>
    <path stroke="none" fill="#FCA759" d="M736 120 L736 128 704 120 704 112 736 120"/>
    <path stroke="none" fill="#FCB675" d="M736 120 L768 112 768 120 736 128 736 120"/>
    <path stroke="none" fill="#FDD1A9" d="M704 96 L704 94 736 102 768 94 768 96 736 104 704 96"/>
    <path stroke="none" fill="#FCB675" d="M736 104 L768 96 768 104 736 112 736 104"/>
    <path stroke="none" fill="#FCA759" d="M704 96 L736 104 736 112 704 104 704 96"/>
    <path stroke="none" fill="#FDD1A9" d="M768 81 L736 89 704 81 704 79 736 87 768 79 768 81"/>
    <path stroke="none" fill="#FCB675" d="M768 81 L768 89 736 97 736 89 768 81"/>
    <path stroke="none" fill="#FCA759" d="M736 89 L736 97 704 89 704 81 736 89"/>
    <path stroke="none" fill="#FCB675" d="M672 74 L672 66 704 66 704 74 672 74"/>
    <path stroke="none" fill="#FCA759" d="M672 74 L640 74 640 66 672 66 672 74"/>
    <path stroke="none" fill="#FDD1A9" d="M704 66 L672 66 640 66 640 64 704 64 704 66"/>
    <path stroke="none" fill="#FCB675" d="M672 120 L704 112 704 120 672 128 672 120"/>
    <path stroke="none" fill="#FDD1A9" d="M640 112 L640 110 672 118 704 110 704 112 672 120 640 112"/>
    <path stroke="none" fill="#FCA759" d="M640 112 L672 120 672 128 640 120 640 112"/>
    <path stroke="none" fill="#FDD1A9" d="M640 96 L640 94 672 102 704 94 704 96 672 104 640 96"/>
    <path stroke="none" fill="#FCB675" d="M672 104 L704 96 704 104 672 112 672 104"/>
    <path stroke="none" fill="#FCA759" d="M672 104 L672 112 640 104 640 96 672 104"/>
    <path stroke="none" fill="#FCA759" d="M576 66 L608 66 608 74 576 74 576 66"/>
    <path stroke="none" fill="#FDD1A9" d="M576 66 L576 64 640 64 640 66 608 66 576 66"/>
    <path stroke="none" fill="#FCB675" d="M608 66 L640 66 640 74 608 74 608 66"/>
    <path stroke="none" fill="#FCB675" d="M608 120 L640 112 640 120 608 128 608 120"/>
    <path stroke="none" fill="#FCA759" d="M608 120 L608 128 576 120 576 112 608 120"/>
    <path stroke="none" fill="#FDD1A9" d="M608 120 L576 112 576 110 608 118 640 110 640 112 608 120"/>
    <path stroke="none" fill="#FDD1A9" d="M512 136 L480 136 448 136 448 134 512 134 512 136"/>
    <path stroke="none" fill="#FCB675" d="M512 136 L512 144 480 152 480 136 512 136"/>
    <path stroke="none" fill="#FCA759" d="M480 136 L480 152 448 144 448 136 480 136"/>
    <path stroke="none" fill="#FDD1A9" d="M480 160 L448 152 448 150 480 158 512 150 512 152 480 160"/>
    <path stroke="none" fill="#FCB675" d="M480 160 L512 152 512 160 480 168 480 160"/>
    <path stroke="none" fill="#FCA759" d="M480 160 L480 168 448 160 448 152 480 160"/>
    <path stroke="none" fill="#FDD1A9" d="M544 136 L512 136 512 134 576 134 576 136 544 136"/>
    <path stroke="none" fill="#FCA759" d="M544 136 L544 152 512 144 512 136 544 136"/>
    <path stroke="none" fill="#FCB675" d="M544 136 L576 136 576 144 544 152 544 136"/>
    <path stroke="none" fill="#FDD1A9" d="M544 160 L512 152 512 150 544 158 576 150 576 152 544 160"/>
    <path stroke="none" fill="#FCA759" d="M544 160 L544 168 512 160 512 152 544 160"/>
    <path stroke="none" fill="#FCB675" d="M544 160 L576 152 576 160 544 168 544 160"/>
    <path stroke="none" fill="#FDD1A9" d="M544 176 L512 168 512 166 544 174 576 166 576 168 544 176"/>
    <path stroke="none" fill="#FCA759" d="M544 184 L512 176 512 168 544 176 544 184"/>
    <path stroke="none" fill="#FCB675" d="M544 184 L544 176 576 168 576 176 544 184"/>
    <path stroke="none" fill="#FCA759" d="M612.25 161.2 L612.35 166 608 164 603.7 166 603.65 166 603.75 161.2 612.25 161.2"/>
    <path stroke="none" fill="#FDD1A9" d="M602.05 158.85 L601 157.25 605.4 155.95 608 152 610.65 155.95 615 157.25 613.95 158.85 610.65 157.7 608 154.95 605.4 157.7 602.05 158.85"/>
    <path stroke="none" fill="#FCB675" d="M602.05 158.85 L605.4 157.7 608 154.95 610.65 157.7 613.95 158.85 612.25 161.2 603.75 161.2 602.05 158.85"/>
    <path stroke="none" fill="#FDD1A9" d="M666.05 150.85 L665 149.25 669.4 147.95 672 144 674.65 147.95 679 149.25 677.95 150.85 674.65 149.7 672 146.95 669.4 149.7 666.05 150.85"/>
    <path stroke="none" fill="#FCB675" d="M666.05 150.85 L669.4 149.7 672 146.95 674.65 149.7 677.95 150.85 676.25 153.2 667.75 153.2 666.05 150.85"/>
    <path stroke="none" fill="#FCA759" d="M676.25 153.2 L676.35 158 672 156 667.7 158 667.65 158 667.75 153.2 676.25 153.2"/>
    <path stroke="none" fill="#FDD1A9" d="M794.05 150.85 L793 149.25 797.4 147.95 800 144 802.65 147.95 807 149.25 805.95 150.85 802.65 149.7 800 146.95 797.4 149.7 794.05 150.85"/>
    <path stroke="none" fill="#FCB675" d="M794.05 150.85 L797.4 149.7 800 146.95 802.65 149.7 805.95 150.85 804.25 153.2 795.75 153.2 794.05 150.85"/>
    <path stroke="none" fill="#FCA759" d="M804.25 153.2 L804.35 158 800 156 795.7 158 795.65 158 795.75 153.2 804.25 153.2"/>
    <path stroke="none" fill="#FDD1A9" d="M797.95 166.85 L794.65 165.7 792 162.95 789.4 165.7 786.05 166.85 785 165.25 789.4 163.95 792 160 794.65 163.95 799 165.25 797.95 166.85"/>
    <path stroke="none" fill="#FCB675" d="M797.95 166.85 L796.25 169.2 787.75 169.2 786.05 166.85 789.4 165.7 792 162.95 794.65 165.7 797.95 166.85"/>
    <path stroke="none" fill="#FCA759" d="M787.75 169.2 L796.25 169.2 796.35 174 792 172 787.7 174 787.65 174 787.75 169.2"/>
    <path stroke="none" fill="#FDD1A9" d="M802.05 166.85 L801 165.25 805.4 163.95 808 160 810.65 163.95 815 165.25 813.95 166.85 810.65 165.7 808 162.95 805.4 165.7 802.05 166.85"/>
    <path stroke="none" fill="#FCB675" d="M802.05 166.85 L805.4 165.7 808 162.95 810.65 165.7 813.95 166.85 812.25 169.2 803.75 169.2 802.05 166.85"/>
    <path stroke="none" fill="#FCA759" d="M812.25 169.2 L812.35 174 808 172 803.7 174 803.65 174 803.75 169.2 812.25 169.2"/>
    <path stroke="none" fill="#FDD1A9" d="M677.95 166.85 L674.65 165.7 672 162.95 669.4 165.7 666.05 166.85 665 165.25 669.4 163.95 672 160 674.65 163.95 679 165.25 677.95 166.85"/>
    <path stroke="none" fill="#FCB675" d="M677.95 166.85 L676.25 169.2 667.75 169.2 666.05 166.85 669.4 165.7 672 162.95 674.65 165.7 677.95 166.85"/>
    <path stroke="none" fill="#FCA759" d="M667.75 169.2 L676.25 169.2 676.35 174 672 172 667.7 174 667.65 174 667.75 169.2"/>
    <path stroke="none" fill="#FDD1A9" d="M192 216 L184 216 160 224 136 216 128 216 128 214 136 214 160 222 184 214 192 214 192 216"/>
    <path stroke="none" fill="#FCA759" d="M160 224 L160 240 128 224 128 216 136 216 160 224"/>
    <path stroke="none" fill="#FCB675" d="M160 224 L184 216 192 216 192 224 160 240 160 224"/>
    <path stroke="none" fill="#FDD1A9" d="M224 224 L200 216 192 216 192 214 200 214 224 222 248 214 256 214 256 216 248 216 224 224"/>
    <path stroke="none" fill="#FCB675" d="M224 224 L248 216 256 216 256 224 224 240 224 224"/>
    <path stroke="none" fill="#FCA759" d="M224 224 L224 240 192 224 192 216 200 216 224 224"/>
    <path stroke="none" fill="#FDD1A9" d="M320 216 L312 216 288 224 264 216 256 216 256 214 264 214 288 222 312 214 320 214 320 216"/>
    <path stroke="none" fill="#FCB675" d="M320 216 L320 224 288 240 288 224 312 216 320 216"/>
    <path stroke="none" fill="#FCA759" d="M288 224 L288 240 256 224 256 216 264 216 288 224"/>
    <path stroke="none" fill="#FCB675" d="M352 224 L376 216 384 216 384 224 352 240 352 224"/>
    <path stroke="none" fill="#FDD1A9" d="M352 224 L328 216 320 216 320 214 328 214 352 222 376 214 384 214 384 216 376 216 352 224"/>
    <path stroke="none" fill="#FCA759" d="M352 224 L352 240 320 224 320 216 328 216 352 224"/>
    <path stroke="none" fill="#FDD1A9" d="M218.05 210.85 L217 209.25 221.4 207.95 224 204 226.65 207.95 231 209.25 229.95 210.85 226.65 209.7 224 206.95 221.4 209.7 218.05 210.85"/>
    <path stroke="none" fill="#FCB675" d="M218.05 210.85 L221.4 209.7 224 206.95 226.65 209.7 229.95 210.85 228.25 213.2 219.75 213.2 218.05 210.85"/>
    <path stroke="none" fill="#FCA759" d="M228.25 213.2 L228.35 218 224 216 219.7 218 219.65 218 219.75 213.2 228.25 213.2"/>
    <path stroke="none" fill="#FDD1A9" d="M274.05 210.85 L273 209.25 277.4 207.95 280 204 282.65 207.95 287 209.25 285.95 210.85 282.65 209.7 280 206.95 277.4 209.7 Q275.75 210.3 274.05 210.85"/>
    <path stroke="none" fill="#FCA759" d="M284.25 213.2 L284.35 218 280 216 275.7 218 275.65 218 275.75 213.2 284.25 213.2"/>
    <path stroke="none" fill="#FCB675" d="M284.25 213.2 L275.75 213.2 274.05 210.85 Q275.75 210.3 277.4 209.7 L280 206.95 282.65 209.7 285.95 210.85 284.25 213.2"/>
    <path stroke="none" fill="#FDD1A9" d="M301.95 210.85 L298.65 209.7 296 206.95 293.4 209.7 290.05 210.85 289 209.25 293.4 207.95 296 204 298.65 207.95 303 209.25 301.95 210.85"/>
    <path stroke="none" fill="#FCB675" d="M301.95 210.85 L300.25 213.2 291.75 213.2 290.05 210.85 293.4 209.7 296 206.95 298.65 209.7 301.95 210.85"/>
    <path stroke="none" fill="#FCA759" d="M291.75 213.2 L300.25 213.2 300.35 218 296 216 291.7 218 291.65 218 291.75 213.2"/>
    <path stroke="none" fill="#FCA759" d="M340.25 205.2 L340.35 210 336 208 331.7 210 331.65 210 331.75 205.2 340.25 205.2"/>
    <path stroke="none" fill="#FDD1A9" d="M330.05 202.85 L329 201.25 333.4 199.95 336 196 338.65 199.95 343 201.25 341.95 202.85 338.65 201.7 336 198.95 333.4 201.7 330.05 202.85"/>
    <path stroke="none" fill="#FCB675" d="M330.05 202.85 L333.4 201.7 336 198.95 338.65 201.7 341.95 202.85 340.25 205.2 331.75 205.2 330.05 202.85"/>
    <path stroke="none" fill="#FDD1A9" d="M346.05 210.85 L345 209.25 349.4 207.95 352 204 354.65 207.95 359 209.25 357.95 210.85 354.65 209.7 352 206.95 349.4 209.7 346.05 210.85"/>
    <path stroke="none" fill="#FCB675" d="M346.05 210.85 L349.4 209.7 352 206.95 354.65 209.7 357.95 210.85 356.25 213.2 347.75 213.2 346.05 210.85"/>
    <path stroke="none" fill="#FCA759" d="M356.25 213.2 L356.35 218 352 216 347.7 218 347.65 218 347.75 213.2 356.25 213.2"/>
    <path stroke="none" fill="#FCA759" d="M372.25 205.2 L372.35 210 368 208 363.7 210 363.65 210 363.75 205.2 372.25 205.2"/>
    <path stroke="none" fill="#FDD1A9" d="M362.05 202.85 L361 201.25 365.4 199.95 368 196 370.65 199.95 375 201.25 373.95 202.85 370.65 201.7 368 198.95 365.4 201.7 362.05 202.85"/>
    <path stroke="none" fill="#FCB675" d="M362.05 202.85 L365.4 201.7 368 198.95 370.65 201.7 373.95 202.85 372.25 205.2 363.75 205.2 362.05 202.85"/>
    <path stroke="none" fill="#FDD1A9" d="M272 288 L272 286 288 270 304 286 304 288 288 272 272 288"/>
    <path stroke="none" fill="#FCB675" d="M288 272 L304 288 288 304 288 272"/>
    <path stroke="none" fill="#FCA759" d="M288 272 L288 304 272 288 288 272"/>
    <path stroke="none" fill="#FDD1A9" d="M640 216 L640 214 704 214 704 216 672 216 640 216"/>
    <path stroke="none" fill="#FCB675" d="M704 216 L704 232 672 232 672 216 704 216"/>
    <path stroke="none" fill="#FCA759" d="M672 232 L640 232 640 216 672 216 672 232"/>
    <path stroke="none" fill="#FCB675" d="M736 200 L768 200 768 216 736 216 736 200"/>
    <path stroke="none" fill="#FDD1A9" d="M736 200 L704 200 704 198 768 198 768 200 736 200"/>
    <path stroke="none" fill="#FCA759" d="M736 200 L736 216 704 216 704 200 736 200"/>
    <path stroke="none" fill="#FDD1A9" d="M704 232 L704 230 768 230 768 232 736 232 704 232"/>
    <path stroke="none" fill="#FCB675" d="M736 232 L768 232 768 248 736 248 736 232"/>
    <path stroke="none" fill="#FCA759" d="M736 232 L736 248 704 248 704 232 736 232"/>
    <path stroke="none" fill="#FDD1A9" d="M96 376 L64 368 64 366 96 374 128 366 128 368 96 376"/>
    <path stroke="none" fill="#FCA759" d="M96 376 L96 384 64 376 64 368 96 376"/>
    <path stroke="none" fill="#FCB675" d="M96 384 L96 376 128 368 128 376 96 384"/>
    <path stroke="none" fill="#FCB675" d="M616 32 L608 40 608 24 616 32"/>
    <path stroke="none" fill="#FCA759" d="M608 40 L600 32 608 24 608 40"/>
    <path stroke="none" fill="#FDD1A9" d="M600 32 L600 30 608 22 616 30 616 32 608 24 600 32"/>
    <path stroke="none" fill="#FDD1A9" d="M704 56 L672 48 640 40 640 38 704 54 704 56"/>
    <path stroke="none" fill="#FCB675" d="M704 56 L704 64 672 56 672 48 704 56"/>
    <path stroke="none" fill="#FCA759" d="M672 48 L672 56 640 48 640 40 672 48"/>
    <path stroke="none" fill="#FDD1A9" d="M664 32 L664 30 672 22 680 30 680 32 672 24 664 32"/>
    <path stroke="none" fill="#FCB675" d="M680 32 L672 40 672 24 680 32"/>
    <path stroke="none" fill="#FCA759" d="M672 40 L664 32 672 24 672 40"/>
    <path stroke="none" fill="#FCB675" d="M736 48 L768 56 768 64 736 56 736 48"/>
    <path stroke="none" fill="#FDD1A9" d="M736 48 L704 40 704 38 768 54 768 56 736 48"/>
    <path stroke="none" fill="#FCA759" d="M736 48 L736 56 704 48 704 40 736 48"/>
    <path stroke="none" fill="#FCB675" d="M736 10 L768 18 768 26 736 18 736 10"/>
    <path stroke="none" fill="#FDD1A9" d="M736 10 L704 2 704 0 768 16 768 18 736 10"/>
    <path stroke="none" fill="#FCA759" d="M736 10 L736 18 704 10 704 2 736 10"/>
    <path stroke="none" fill="#FCB675" d="M744 32 L736 40 736 24 744 32"/>
    <path stroke="none" fill="#FCA759" d="M736 40 L728 32 736 24 736 40"/>
    <path stroke="none" fill="#FDD1A9" d="M728 32 L728 30 736 22 744 30 744 32 736 24 728 32"/>
    <path stroke="none" fill="#FDD1A9" d="M416 376 L384 368 384 366 416 374 448 366 448 368 416 376"/>
    <path stroke="none" fill="#FCA759" d="M416 376 L416 384 384 376 384 368 416 376"/>
    <path stroke="none" fill="#FCB675" d="M416 376 L448 368 448 376 416 384 416 376"/>
    <path stroke="none" fill="#FDD1A9" d="M512 368 L480 376 448 368 448 366 480 374 512 366 512 368"/>
    <path stroke="none" fill="#FCA759" d="M480 376 L480 384 448 376 448 368 480 376"/>
    <path stroke="none" fill="#FCB675" d="M480 384 L480 376 512 368 512 376 480 384"/>
    <path stroke="none" fill="#FDD1A9" d="M512 330 L480 322 448 330 448 328 480 320 512 328 512 330"/>
    <path stroke="none" fill="#FCA759" d="M480 322 L480 330 448 338 448 330 480 322"/>
    <path stroke="none" fill="#FCB675" d="M480 322 L512 330 512 338 480 330 480 322"/>
    <path stroke="none" fill="#FDD1A9" d="M544 376 L512 368 512 366 544 374 576 366 576 368 544 376"/>
    <path stroke="none" fill="#FCA759" d="M544 376 L544 384 512 376 512 368 544 376"/>
    <path stroke="none" fill="#FCB675" d="M544 376 L576 368 576 376 544 384 544 376"/>
    <path stroke="none" fill="#FCB675" d="M544 322 L576 330 576 338 544 330 544 322"/>
    <path stroke="none" fill="#FCA759" d="M544 322 L544 330 512 338 512 330 544 322"/>
    <path stroke="none" fill="#FDD1A9" d="M544 322 L512 330 512 328 544 320 576 328 576 330 544 322"/>
    <path stroke="none" fill="#FCB675" d="M560.05 350.85 L563.4 349.7 566 346.95 568.65 349.7 571.95 350.85 570.25 353.2 561.75 353.2 560.05 350.85"/>
    <path stroke="none" fill="#FCA759" d="M561.75 353.2 L570.25 353.2 570.35 358 566 356 561.7 358 561.65 358 561.75 353.2"/>
    <path stroke="none" fill="#FDD1A9" d="M571.95 350.85 L568.65 349.7 566 346.95 563.4 349.7 560.05 350.85 559 349.25 563.4 347.95 566 344 568.65 347.95 573 349.25 571.95 350.85"/>
    <path stroke="none" fill="#FCA759" d="M517.75 353.2 L526.25 353.2 526.35 358 522 356 517.7 358 517.65 358 517.75 353.2"/>
    <path stroke="none" fill="#FCB675" d="M517.75 353.2 L516.05 350.85 519.4 349.7 522 346.95 524.65 349.7 527.95 350.85 526.25 353.2 517.75 353.2"/>
    <path stroke="none" fill="#FDD1A9" d="M527.95 350.85 L524.65 349.7 522 346.95 519.4 349.7 516.05 350.85 515 349.25 519.4 347.95 522 344 524.65 347.95 529 349.25 527.95 350.85"/>
    <path stroke="none" fill="#FCA759" d="M732 347 L732 341 736 341 736 365 732 365 732 357 724 357 724 349 732 349 732 347"/>
    <path stroke="none" fill="#FDD1A9" d="M732 347 L732 349 724 349 724 347 732 347 M732 341 L732 339 740 339 740 341 736 341 732 341 M740 347 L748 347 748 349 740 349 740 347"/>
    <path stroke="none" fill="#FCB675" d="M740 347 L740 349 748 349 748 357 740 357 740 365 736 365 736 341 740 341 740 347"/>
    <path stroke="none" fill="#FDD1A9" d="M672 341 L668 341 668 339 676 339 676 341 672 341 M668 347 L668 349 660 349 660 347 668 347 M676 347 L684 347 684 349 676 349 676 347"/>
    <path stroke="none" fill="#FCB675" d="M676 347 L676 349 684 349 684 357 676 357 676 365 672 365 672 341 676 341 676 347"/>
    <path stroke="none" fill="#FCA759" d="M668 341 L672 341 672 365 668 365 668 357 660 357 660 349 668 349 668 347 668 341"/>
    <path stroke="none" fill="#FDD1A9" d="M640 322 L640 320 704 320 704 322 672 322 640 322"/>
    <path stroke="none" fill="#FCB675" d="M704 322 L704 330 672 330 672 322 704 322"/>
    <path stroke="none" fill="#FCA759" d="M672 330 L640 330 640 322 672 322 672 330"/>
    <path stroke="none" fill="#FDD1A9" d="M736 376 L704 368 704 366 736 374 768 366 768 368 736 376"/>
    <path stroke="none" fill="#FCA759" d="M736 376 L736 384 704 376 704 368 736 376"/>
    <path stroke="none" fill="#FCB675" d="M736 376 L768 368 768 376 736 384 736 376"/>
    <path stroke="none" fill="#FDD1A9" d="M704 322 L704 320 768 320 768 322 736 322 704 322"/>
    <path stroke="none" fill="#FCA759" d="M704 322 L736 322 736 330 704 330 704 322"/>
    <path stroke="none" fill="#FCB675" d="M768 322 L768 330 736 330 736 322 768 322"/>
    <path stroke="none" fill="#FDD1A9" d="M608 341 L604 341 604 339 612 339 612 341 608 341 M620 349 L612 349 612 347 620 347 620 349 M596 349 L596 347 604 347 604 349 596 349"/>
    <path stroke="none" fill="#FCB675" d="M608 341 L612 341 612 347 612 349 620 349 620 357 612 357 612 365 608 365 608 341"/>
    <path stroke="none" fill="#FCA759" d="M608 341 L608 365 604 365 604 357 596 357 596 349 604 349 604 347 604 341 608 341"/>
    <path stroke="none" fill="#FDD1A9" d="M608 276 L576 284 576 282 608 274 640 282 640 284 608 276"/>
    <path stroke="none" fill="#FCA759" d="M608 276 L608 284 576 292 576 284 608 276"/>
    <path stroke="none" fill="#FCB675" d="M608 276 L640 284 640 292 608 284 608 276"/>
    <path stroke="none" fill="#FDD1A9" d="M608 264 L576 272 576 270 608 262 640 270 640 272 608 264"/>
    <path stroke="none" fill="#FCA759" d="M608 264 L608 272 576 280 576 272 608 264"/>
    <path stroke="none" fill="#FCB675" d="M608 264 L640 272 640 280 608 272 608 264"/>
    <path stroke="none" fill="#FDD1A9" d="M602.05 298.85 L601 297.25 605.4 295.95 608 292 610.65 295.95 615 297.25 613.95 298.85 610.65 297.7 608 294.95 605.4 297.7 602.05 298.85"/>
    <path stroke="none" fill="#FCB675" d="M602.05 298.85 L605.4 297.7 608 294.95 610.65 297.7 613.95 298.85 612.25 301.2 603.75 301.2 602.05 298.85"/>
    <path stroke="none" fill="#FCA759" d="M612.25 301.2 L612.35 306 608 304 603.7 306 603.65 306 603.75 301.2 612.25 301.2"/>
    <path stroke="none" fill="#FCB675" d="M672 284 L672 276 704 284 704 292 672 284"/>
    <path stroke="none" fill="#FCA759" d="M672 284 L640 292 640 284 672 276 672 284"/>
    <path stroke="none" fill="#FDD1A9" d="M704 284 L672 276 640 284 640 282 672 274 704 282 704 284"/>
    <path stroke="none" fill="#FCB675" d="M704 272 L704 280 672 272 672 264 704 272"/>
    <path stroke="none" fill="#FCA759" d="M672 264 L672 272 640 280 640 272 672 264"/>
    <path stroke="none" fill="#FDD1A9" d="M704 272 L672 264 640 272 640 270 672 262 704 270 704 272"/>
    <path stroke="none" fill="#FDD1A9" d="M674.05 298.85 L673 297.25 677.4 295.95 680 292 682.65 295.95 687 297.25 685.95 298.85 682.65 297.7 680 294.95 677.4 297.7 674.05 298.85"/>
    <path stroke="none" fill="#FCB675" d="M674.05 298.85 L677.4 297.7 680 294.95 682.65 297.7 685.95 298.85 684.25 301.2 675.75 301.2 674.05 298.85"/>
    <path stroke="none" fill="#FCA759" d="M684.25 301.2 L684.35 306 680 304 675.7 306 675.65 306 675.75 301.2 684.25 301.2"/>
    <path stroke="none" fill="#FDD1A9" d="M658.05 298.85 L657 297.25 661.4 295.95 664 292 666.65 295.95 671 297.25 669.95 298.85 666.65 297.7 664 294.95 661.4 297.7 658.05 298.85"/>
    <path stroke="none" fill="#FCB675" d="M658.05 298.85 L661.4 297.7 664 294.95 666.65 297.7 669.95 298.85 668.25 301.2 659.75 301.2 658.05 298.85"/>
    <path stroke="none" fill="#FCA759" d="M668.25 301.2 L668.35 306 664 304 659.7 306 659.65 306 659.75 301.2 668.25 301.2"/>
    <path stroke="none" fill="#FDD1A9" d="M768 284 L736 276 704 284 704 282 736 274 768 282 768 284"/>
    <path stroke="none" fill="#FCB675" d="M736 284 L736 276 768 284 768 292 736 284"/>
    <path stroke="none" fill="#FCA759" d="M736 284 L704 292 704 284 736 276 736 284"/>
    <path stroke="none" fill="#FDD1A9" d="M768 272 L736 264 704 272 704 270 736 262 768 270 768 272"/>
    <path stroke="none" fill="#FCB675" d="M768 272 L768 280 736 272 736 264 768 272"/>
    <path stroke="none" fill="#FCA759" d="M736 264 L736 272 704 280 704 272 736 264"/>
    <path stroke="none" fill="#FDD1A9" d="M730.05 298.85 L729 297.25 733.4 295.95 736 292 738.65 295.95 743 297.25 741.95 298.85 738.65 297.7 736 294.95 733.4 297.7 730.05 298.85"/>
    <path stroke="none" fill="#FCB675" d="M730.05 298.85 L733.4 297.7 736 294.95 738.65 297.7 741.95 298.85 740.25 301.2 731.75 301.2 730.05 298.85"/>
    <path stroke="none" fill="#FCA759" d="M740.25 301.2 L740.35 306 736 304 731.7 306 731.65 306 731.75 301.2 740.25 301.2"/>
    <path stroke="none" fill="#FDD1A9" d="M725.95 306.85 L722.65 305.7 720 302.95 717.4 305.7 714.05 306.85 713 305.25 717.4 303.95 720 300 722.65 303.95 727 305.25 725.95 306.85"/>
    <path stroke="none" fill="#FCB675" d="M725.95 306.85 L724.25 309.2 715.75 309.2 714.05 306.85 717.4 305.7 720 302.95 722.65 305.7 725.95 306.85"/>
    <path stroke="none" fill="#FCA759" d="M715.75 309.2 L724.25 309.2 724.35 314 720 312 715.7 314 715.65 314 715.75 309.2"/>
    <path stroke="none" fill="#FDD1A9" d="M746.05 306.85 L745 305.25 749.4 303.95 752 300 754.65 303.95 759 305.25 757.95 306.85 754.65 305.7 752 302.95 749.4 305.7 746.05 306.85"/>
    <path stroke="none" fill="#FCB675" d="M746.05 306.85 L749.4 305.7 752 302.95 754.65 305.7 757.95 306.85 756.25 309.2 747.75 309.2 746.05 306.85"/>
    <path stroke="none" fill="#FCA759" d="M756.25 309.2 L756.35 314 752 312 747.7 314 747.65 314 747.75 309.2 756.25 309.2"/>
    <path stroke="none" fill="#FDD1A9" d="M352 344 L348 340 340 348 340 346 348 338 352 342 356 338 364 346 364 348 356 340 352 344 M364 356 L360 352 361 351 364 354 364 356 M340 356 L340 354 343 351 344 352 340 356"/>
    <path stroke="none" fill="#FCA759" d="M340 356 L344 352 343 351 340 348 348 340 352 344 352 360 348 364 340 356"/>
    <path stroke="none" fill="#FCB675" d="M352 344 L356 340 364 348 361 351 360 352 364 356 356 364 352 360 352 344"/>
    <path stroke="none" fill="#FDD1A9" d="M404 356 L404 354 407 351 408 352 404 356 M404 348 L404 346 412 338 416 342 420 338 428 346 428 348 420 340 416 344 412 340 404 348 M425 351 L428 354 428 356 424 352 425 351"/>
    <path stroke="none" fill="#FCA759" d="M407 351 L404 348 412 340 416 344 416 360 412 364 404 356 408 352 407 351"/>
    <path stroke="none" fill="#FCB675" d="M428 348 L425 351 424 352 428 356 420 364 416 360 416 344 420 340 428 348"/>
    <path stroke="none" fill="#FDD1A9" d="M480 344 L476 340 468 348 468 346 476 338 480 342 484 338 492 346 492 348 484 340 480 344 M471 351 L472 352 468 356 468 354 471 351 M489 351 L492 354 492 356 488 352 489 351"/>
    <path stroke="none" fill="#FCB675" d="M489 351 L488 352 492 356 484 364 480 360 480 344 484 340 492 348 489 351"/>
    <path stroke="none" fill="#FCA759" d="M468 348 L476 340 480 344 480 360 476 364 468 356 472 352 471 351 468 348"/>
    <path stroke="none" fill="#FDD1A9" d="M544 344 L540 340 532 348 532 346 540 338 544 342 548 338 556 346 556 348 548 340 544 344 M535 351 L536 352 532 356 532 354 535 351 M553 351 L556 354 556 356 552 352 553 351"/>
    <path stroke="none" fill="#FCB675" d="M544 344 L548 340 556 348 553 351 552 352 556 356 548 364 544 360 544 344"/>
    <path stroke="none" fill="#FCA759" d="M544 344 L544 360 540 364 532 356 536 352 535 351 532 348 540 340 544 344"/>
    <path stroke="none" fill="#FDD1A9" d="M416 136 L384 136 384 134 448 134 448 136 416 136"/>
    <path stroke="none" fill="#FCA759" d="M416 136 L416 152 384 144 384 136 416 136"/>
    <path stroke="none" fill="#FCB675" d="M416 136 L448 136 448 144 416 152 416 136"/>
    <path stroke="none" fill="#FDD1A9" d="M0 344 L0 342 24 342 32 334 40 342 64 342 64 344 40 344 32 336 24 344 0 344"/>
    <path stroke="none" fill="#FCB675" d="M64 344 L40 352 32 368 32 336 40 344 64 344"/>
    <path stroke="none" fill="#FCA759" d="M32 368 L24 352 0 344 24 344 32 336 32 368"/>
    <path stroke="none" fill="#FDD1A9" d="M64 344 L64 342 88 342 96 334 104 342 128 342 128 344 104 344 96 336 88 344 64 344"/>
    <path stroke="none" fill="#FCB675" d="M128 344 L104 352 96 368 96 336 104 344 128 344"/>
    <path stroke="none" fill="#FCA759" d="M96 368 L88 352 64 344 88 344 96 336 96 368"/>
    <path stroke="none" fill="#FCB675" d="M85.95 218.85 L84.25 221.2 75.75 221.2 74.05 218.85 77.4 217.7 80 214.95 82.65 217.7 85.95 218.85"/>
    <path stroke="none" fill="#FCA759" d="M84.25 221.2 L84.35 226 80 224 75.7 226 75.65 226 75.75 221.2 84.25 221.2"/>
    <path stroke="none" fill="#FDD1A9" d="M74.05 218.85 L73 217.25 77.4 215.95 80 212 82.65 215.95 87 217.25 85.95 218.85 82.65 217.7 80 214.95 77.4 217.7 74.05 218.85"/>
    <path stroke="none" fill="#FDD1A9" d="M106.05 218.85 L105 217.25 109.4 215.95 112 212 114.65 215.95 119 217.25 117.95 218.85 114.65 217.7 112 214.95 109.4 217.7 106.05 218.85"/>
    <path stroke="none" fill="#FCB675" d="M106.05 218.85 L109.4 217.7 112 214.95 114.65 217.7 117.95 218.85 116.25 221.2 107.75 221.2 106.05 218.85"/>
    <path stroke="none" fill="#FCA759" d="M116.25 221.2 L116.35 226 112 224 107.7 226 107.65 226 107.75 221.2 116.25 221.2"/>
    <path stroke="none" fill="#FDD1A9" d="M88.35 216.8 L87 214.75 92.65 213.05 96 208 99.4 213.05 105 214.75 103.65 216.8 99.4 215.3 96 211.75 92.65 215.3 88.35 216.8"/>
    <path stroke="none" fill="#FCB675" d="M88.35 216.8 L92.65 215.3 96 211.75 99.4 215.3 103.65 216.8 101.45 219.8 90.55 219.8 88.35 216.8"/>
    <path stroke="none" fill="#FCA759" d="M101.45 219.8 L101.55 226 96 224 90.45 226 90.4 226 90.55 219.8 101.45 219.8"/>
    <path stroke="none" fill="#FDD1A9" d="M64 232 L64 230 128 230 128 232 96 232 64 232"/>
    <path stroke="none" fill="#FCB675" d="M128 232 L128 240 96 240 96 232 128 232"/>
    <path stroke="none" fill="#FCA759" d="M96 240 L64 240 64 232 96 232 96 240"/>
    <path stroke="none" fill="#FDD1A9" d="M21.95 225.85 L18.65 224.7 16 221.95 13.4 224.7 10.05 225.85 9 224.25 13.4 222.95 16 219 18.65 222.95 23 224.25 21.95 225.85"/>
    <path stroke="none" fill="#FCB675" d="M10.05 225.85 L13.4 224.7 16 221.95 18.65 224.7 21.95 225.85 20.25 228.2 11.75 228.2 10.05 225.85"/>
    <path stroke="none" fill="#FCA759" d="M11.75 228.2 L20.25 228.2 20.35 233 16 231 11.7 233 11.65 233 11.75 228.2"/>
    <path stroke="none" fill="#FCB675" d="M43.75 228.2 L42.05 225.85 45.4 224.7 48 221.95 50.65 224.7 53.95 225.85 52.25 228.2 43.75 228.2"/>
    <path stroke="none" fill="#FDD1A9" d="M42.05 225.85 L41 224.25 45.4 222.95 48 219 50.65 222.95 55 224.25 53.95 225.85 50.65 224.7 48 221.95 45.4 224.7 42.05 225.85"/>
    <path stroke="none" fill="#FCA759" d="M52.25 228.2 L52.35 233 48 231 43.7 233 43.65 233 43.75 228.2 52.25 228.2"/>
    <path stroke="none" fill="#FDD1A9" d="M39.65 223.8 L35.4 222.3 32 218.75 28.65 222.3 24.35 223.8 23 221.75 28.65 220.05 32 215 35.4 220.05 41 221.75 39.65 223.8"/>
    <path stroke="none" fill="#FCB675" d="M39.65 223.8 L37.45 226.8 26.55 226.8 24.35 223.8 28.65 222.3 32 218.75 35.4 222.3 39.65 223.8"/>
    <path stroke="none" fill="#FCA759" d="M26.55 226.8 L37.45 226.8 37.55 233 32 231 26.45 233 26.4 233 26.55 226.8"/>
    <path stroke="none" fill="#FDD1A9" d="M24 288 L24 286 32 278 40 286 40 288 32 280 24 288"/>
    <path stroke="none" fill="#FCB675" d="M40 288 L32 296 32 280 40 288"/>
    <path stroke="none" fill="#FCA759" d="M32 296 L24 288 32 280 32 296"/>
    <path stroke="none" fill="#FDD1A9" d="M72 288 L72 286 80 278 88 286 88 288 80 280 72 288"/>
    <path stroke="none" fill="#FCA759" d="M72 288 L80 280 80 296 72 288"/>
    <path stroke="none" fill="#FCB675" d="M88 288 L80 296 80 280 88 288"/>
    <path stroke="none" fill="#FDD1A9" d="M136 288 L136 286 144 278 152 286 152 288 144 280 136 288"/>
    <path stroke="none" fill="#FCB675" d="M152 288 L144 296 144 280 152 288"/>
    <path stroke="none" fill="#FCA759" d="M144 296 L136 288 144 280 144 296"/>
    <path stroke="none" fill="#FDD1A9" d="M104 288 L104 286 112 278 120 286 120 288 112 280 104 288"/>
    <path stroke="none" fill="#FCB675" d="M120 288 L112 296 112 280 120 288"/>
    <path stroke="none" fill="#FCA759" d="M112 296 L104 288 112 280 112 296"/>
    <path stroke="none" fill="#FDD1A9" d="M168 288 L168 286 176 278 184 286 184 288 176 280 168 288"/>
    <path stroke="none" fill="#FCA759" d="M168 288 L176 280 176 296 168 288"/>
    <path stroke="none" fill="#FCB675" d="M184 288 L176 296 176 280 184 288"/>
    <path stroke="none" fill="#FDD1A9" d="M152 288 L152 286 160 278 168 286 168 288 160 280 152 288"/>
    <path stroke="none" fill="#FCB675" d="M168 288 L160 296 160 280 168 288"/>
    <path stroke="none" fill="#FCA759" d="M160 296 L152 288 160 280 160 296"/>
    <path stroke="none" fill="#FDD1A9" d="M224 272 L208 288 208 286 224 270 240 286 240 288 224 272"/>
    <path stroke="none" fill="#FCB675" d="M224 272 L240 288 224 304 224 272"/>
    <path stroke="none" fill="#FCA759" d="M224 272 L224 304 208 288 224 272"/>
    <path stroke="none" fill="#FCA759" d="M160 352 L160 360 136 366 136 374 136 376 160 376 160 384 128 384 128 360 160 352"/>
    <path stroke="none" fill="#FCB675" d="M160 352 L192 360 192 384 160 384 160 376 184 376 184 374 184 366 160 360 160 352"/>
    <path stroke="none" fill="#FDD1A9" d="M160 352 L128 360 128 358 160 350 192 358 192 360 160 352 M160 376 L136 376 136 374 184 374 184 376 160 376"/>
    <path stroke="none" fill="#FDD1A9" d="M224 376 L200 376 200 374 248 374 248 376 224 376 M224 352 L192 360 192 358 224 350 256 358 256 360 224 352"/>
    <path stroke="none" fill="#FCA759" d="M224 352 L224 360 200 366 200 374 200 376 224 376 224 384 192 384 192 360 224 352"/>
    <path stroke="none" fill="#FCB675" d="M224 352 L256 360 256 384 224 384 224 376 248 376 248 374 248 366 224 360 224 352"/>
    <path stroke="none" fill="#FCA759" d="M224 348 L192 356 192 348 224 340 224 348"/>
    <path stroke="none" fill="#FDD1A9" d="M224 340 L192 348 192 346 224 338 256 346 256 348 224 340"/>
    <path stroke="none" fill="#FCB675" d="M224 340 L256 348 256 356 224 348 224 340"/>
    <path stroke="none" fill="#FCA759" d="M288 384 L256 384 256 360 288 352 288 360 264 366 264 374 264 376 288 376 288 384"/>
    <path stroke="none" fill="#FDD1A9" d="M256 360 L256 358 288 350 320 358 320 360 288 352 256 360 M288 376 L264 376 264 374 312 374 312 376 288 376"/>
    <path stroke="none" fill="#FCB675" d="M320 360 L320 384 288 384 288 376 312 376 312 374 312 366 288 360 288 352 320 360"/>
    <path stroke="none" fill="#FDD1A9" d="M256 348 L256 346 288 338 320 346 320 348 288 340 256 348"/>
    <path stroke="none" fill="#FCA759" d="M256 348 L288 340 288 348 256 356 256 348"/>
    <path stroke="none" fill="#FCB675" d="M288 340 L320 348 320 356 288 348 288 340"/>
    <path stroke="none" fill="#FCB675" d="M288 336 L288 328 320 336 320 344 288 336"/>
    <path stroke="none" fill="#FDD1A9" d="M320 336 L288 328 256 336 256 334 288 326 320 334 320 336"/>
    <path stroke="none" fill="#FCA759" d="M288 328 L288 336 256 344 256 336 288 328"/>
    <path stroke="none" fill="#FDD1A9" d="M416 224 L392 216 384 216 384 214 392 214 416 222 440 214 448 214 448 216 440 216 416 224"/>
    <path stroke="none" fill="#FCB675" d="M448 216 L448 224 416 240 416 224 440 216 448 216"/>
    <path stroke="none" fill="#FCA759" d="M416 224 L416 240 384 224 384 216 392 216 416 224"/>
    <path stroke="none" fill="#FDD1A9" d="M512 216 L504 216 480 224 456 216 448 216 448 214 456 214 480 222 504 214 512 214 512 216"/>
    <path stroke="none" fill="#FCA759" d="M480 224 L480 240 448 224 448 216 456 216 480 224"/>
    <path stroke="none" fill="#FCB675" d="M480 224 L504 216 512 216 512 224 480 240 480 224"/>
    <path stroke="none" fill="#FDD1A9" d="M576 216 L568 216 544 224 520 216 512 216 512 214 520 214 544 222 568 214 576 214 576 216"/>
    <path stroke="none" fill="#FCB675" d="M576 216 L576 224 544 240 544 224 568 216 576 216"/>
    <path stroke="none" fill="#FCA759" d="M544 224 L544 240 512 224 512 216 520 216 544 224"/>
    <path stroke="none" fill="#FDD1A9" d="M640 216 L632 216 608 224 584 216 576 216 576 214 584 214 608 222 632 214 640 214 640 216"/>
    <path stroke="none" fill="#FCB675" d="M640 216 L640 224 608 240 608 224 632 216 640 216"/>
    <path stroke="none" fill="#FCA759" d="M608 224 L608 240 576 224 576 216 584 216 608 224"/>
    <path stroke="none" fill="#FDD1A9" d="M485.95 210.85 L482.65 209.7 480 206.95 477.4 209.7 474.05 210.85 473 209.25 477.4 207.95 480 204 482.65 207.95 487 209.25 485.95 210.85"/>
    <path stroke="none" fill="#FCB675" d="M485.95 210.85 L484.25 213.2 475.75 213.2 474.05 210.85 477.4 209.7 480 206.95 482.65 209.7 485.95 210.85"/>
    <path stroke="none" fill="#FCA759" d="M475.75 213.2 L484.25 213.2 484.35 218 480 216 475.7 218 475.65 218 475.75 213.2"/>
    <path stroke="none" fill="#FDD1A9" d="M530.05 210.85 L529 209.25 533.4 207.95 536 204 538.65 207.95 543 209.25 541.95 210.85 538.65 209.7 536 206.95 533.4 209.7 530.05 210.85"/>
    <path stroke="none" fill="#FCB675" d="M530.05 210.85 L533.4 209.7 536 206.95 538.65 209.7 541.95 210.85 540.25 213.2 531.75 213.2 530.05 210.85"/>
    <path stroke="none" fill="#FCA759" d="M540.25 213.2 L540.35 218 536 216 531.7 218 531.65 218 531.75 213.2 540.25 213.2"/>
    <path stroke="none" fill="#FDD1A9" d="M557.95 210.85 L554.65 209.7 552 206.95 549.4 209.7 546.05 210.85 545 209.25 549.4 207.95 552 204 554.65 207.95 559 209.25 557.95 210.85"/>
    <path stroke="none" fill="#FCB675" d="M557.95 210.85 L556.25 213.2 547.75 213.2 546.05 210.85 549.4 209.7 552 206.95 554.65 209.7 557.95 210.85"/>
    <path stroke="none" fill="#FCA759" d="M547.75 213.2 L556.25 213.2 556.35 218 552 216 547.7 218 547.65 218 547.75 213.2"/>
    <path stroke="none" fill="#FDD1A9" d="M586.05 202.85 L585 201.25 589.4 199.95 592 196 594.65 199.95 599 201.25 597.95 202.85 594.65 201.7 592 198.95 589.4 201.7 586.05 202.85"/>
    <path stroke="none" fill="#FCB675" d="M586.05 202.85 L589.4 201.7 592 198.95 594.65 201.7 597.95 202.85 596.25 205.2 587.75 205.2 586.05 202.85"/>
    <path stroke="none" fill="#FCA759" d="M596.25 205.2 L596.35 210 592 208 587.7 210 587.65 210 587.75 205.2 596.25 205.2"/>
    <path stroke="none" fill="#FDD1A9" d="M602.05 210.85 L601 209.25 605.4 207.95 608 204 610.65 207.95 615 209.25 613.95 210.85 610.65 209.7 608 206.95 605.4 209.7 602.05 210.85"/>
    <path stroke="none" fill="#FCB675" d="M613.95 210.85 L612.25 213.2 603.75 213.2 602.05 210.85 605.4 209.7 608 206.95 610.65 209.7 613.95 210.85"/>
    <path stroke="none" fill="#FCA759" d="M612.25 213.2 L612.35 218 608 216 603.7 218 603.65 218 603.75 213.2 612.25 213.2"/>
    <path stroke="none" fill="#FCB675" d="M629.95 202.85 L628.25 205.2 619.75 205.2 618.05 202.85 621.4 201.7 624 198.95 626.65 201.7 629.95 202.85"/>
    <path stroke="none" fill="#FDD1A9" d="M629.95 202.85 L626.65 201.7 624 198.95 621.4 201.7 618.05 202.85 617 201.25 621.4 199.95 624 196 626.65 199.95 631 201.25 629.95 202.85"/>
    <path stroke="none" fill="#FCA759" d="M628.25 205.2 L628.35 210 624 208 619.7 210 619.65 210 619.75 205.2 628.25 205.2"/>
    <path stroke="none" fill="#FCB675" d="M416 256 L416 248 448 248 448 256 416 256"/>
    <path stroke="none" fill="#FCA759" d="M416 256 L384 256 384 248 416 248 416 256"/>
    <path stroke="none" fill="#FDD1A9" d="M448 248 L416 248 384 248 384 246 448 246 448 248"/>
    <path stroke="none" fill="#FCA759" d="M480 248 L480 256 448 256 448 248 480 248"/>
    <path stroke="none" fill="#FDD1A9" d="M480 248 L448 248 448 246 512 246 512 248 480 248"/>
    <path stroke="none" fill="#FCB675" d="M480 248 L512 248 512 256 480 256 480 248"/>
    <path stroke="none" fill="#FCB675" d="M576 248 L576 256 544 256 544 248 576 248"/>
    <path stroke="none" fill="#FDD1A9" d="M576 248 L544 248 512 248 512 246 576 246 576 248"/>
    <path stroke="none" fill="#FCA759" d="M544 256 L512 256 512 248 544 248 544 256"/>
    <path stroke="none" fill="#FCA759" d="M576 248 L608 248 608 256 576 256 576 248"/>
    <path stroke="none" fill="#FCB675" d="M640 248 L640 256 608 256 608 248 640 248"/>
    <path stroke="none" fill="#FDD1A9" d="M576 248 L576 246 640 246 640 248 608 248 576 248"/>
    <path stroke="none" fill="#FDD1A9" d="M320 304 L288 312 256 304 256 302 288 310 320 302 320 304"/>
    <path stroke="none" fill="#FCB675" d="M320 304 L320 312 288 320 288 312 320 304"/>
    <path stroke="none" fill="#FCA759" d="M288 312 L288 320 256 312 256 304 288 312"/>
    <path stroke="none" fill="#FDD1A9" d="M288 258 L256 266 256 264 288 256 320 264 320 266 288 258"/>
    <path stroke="none" fill="#FCA759" d="M288 258 L288 266 256 274 256 266 288 258"/>
    <path stroke="none" fill="#FCB675" d="M288 258 L320 266 320 274 288 266 288 258"/>
    <path stroke="none" fill="#FDD1A9" d="M730.05 158.85 L729 157.25 733.4 155.95 736 152 738.65 155.95 743 157.25 741.95 158.85 738.65 157.7 736 154.95 733.4 157.7 730.05 158.85"/>
    <path stroke="none" fill="#FCB675" d="M741.95 158.85 L740.25 161.2 731.75 161.2 730.05 158.85 733.4 157.7 736 154.95 738.65 157.7 741.95 158.85"/>
    <path stroke="none" fill="#FCA759" d="M740.25 161.2 L740.35 166 736 164 731.7 166 731.65 166 731.75 161.2 740.25 161.2"/>
    <path stroke="none" fill="#FDD1A9" d="M730.05 143.85 L729 142.25 733.4 140.95 736 137 738.65 140.95 743 142.25 741.95 143.85 738.65 142.7 736 139.95 733.4 142.7 730.05 143.85"/>
    <path stroke="none" fill="#FCB675" d="M730.05 143.85 L733.4 142.7 736 139.95 738.65 142.7 741.95 143.85 740.25 146.2 731.75 146.2 730.05 143.85"/>
    <path stroke="none" fill="#FCA759" d="M740.25 146.2 L740.35 151 736 149 731.7 151 731.65 151 731.75 146.2 740.25 146.2"/>
    <path stroke="none" fill="#FDD1A9" d="M730.05 173.85 L729 172.25 733.4 170.95 736 167 738.65 170.95 743 172.25 741.95 173.85 738.65 172.7 736 169.95 733.4 172.7 730.05 173.85"/>
    <path stroke="none" fill="#FCB675" d="M730.05 173.85 L733.4 172.7 736 169.95 738.65 172.7 741.95 173.85 740.25 176.2 731.75 176.2 730.05 173.85"/>
    <path stroke="none" fill="#FCA759" d="M740.25 176.2 L740.35 181 736 179 731.7 181 731.65 181 731.75 176.2 740.25 176.2"/>
    <path stroke="none" fill="#FCB675" d="M800 232 L800 216 832 216 832 232 800 232"/>
    <path stroke="none" fill="#FCA759" d="M800 232 L768 232 768 216 800 216 800 232"/>
    <path stroke="none" fill="#FDD1A9" d="M832 216 L800 216 768 216 768 214 832 214 832 216"/>
    <path stroke="none" fill="#FCB675" d="M800 208 L800 200 832 200 832 208 800 208"/>
    <path stroke="none" fill="#FCA759" d="M800 208 L768 208 768 200 800 200 800 208"/>
    <path stroke="none" fill="#FDD1A9" d="M832 200 L800 200 768 200 768 198 832 198 832 200"/>
    <path stroke="none" fill="#FDD1A9" d="M800 240 L768 240 768 238 832 238 832 240 800 240"/>
    <path stroke="none" fill="#FCA759" d="M800 240 L800 248 768 248 768 240 800 240"/>
    <path stroke="none" fill="#FCB675" d="M800 240 L832 240 832 248 800 248 800 240"/>
    <path stroke="none" fill="#FDD1A9" d="M800 276 L768 284 768 282 800 274 832 282 832 284 800 276"/>
    <path stroke="none" fill="#FCA759" d="M800 276 L800 284 768 292 768 284 800 276"/>
    <path stroke="none" fill="#FCB675" d="M800 276 L832 284 832 292 800 284 800 276"/>
    <path stroke="none" fill="#FCA759" d="M768 272 L800 264 800 272 768 280 768 272"/>
    <path stroke="none" fill="#FDD1A9" d="M768 272 L768 270 800 262 832 270 832 272 800 264 768 272"/>
    <path stroke="none" fill="#FCB675" d="M800 264 L832 272 832 280 800 272 800 264"/>
    <path stroke="none" fill="#FDD1A9" d="M794.05 298.85 L793 297.25 797.4 295.95 800 292 802.65 295.95 807 297.25 805.95 298.85 802.65 297.7 800 294.95 797.4 297.7 794.05 298.85"/>
    <path stroke="none" fill="#FCB675" d="M805.95 298.85 L804.25 301.2 795.75 301.2 794.05 298.85 797.4 297.7 800 294.95 802.65 297.7 805.95 298.85"/>
    <path stroke="none" fill="#FCA759" d="M804.25 301.2 L804.35 306 800 304 795.7 306 795.65 306 795.75 301.2 804.25 301.2"/>
    <path stroke="none" fill="#FDD1A9" d="M778.05 298.85 L777 297.25 781.4 295.95 784 292 786.65 295.95 791 297.25 789.95 298.85 786.65 297.7 784 294.95 781.4 297.7 778.05 298.85"/>
    <path stroke="none" fill="#FCB675" d="M778.05 298.85 L781.4 297.7 784 294.95 786.65 297.7 789.95 298.85 788.25 301.2 779.75 301.2 778.05 298.85"/>
    <path stroke="none" fill="#FCA759" d="M788.25 301.2 L788.35 306 784 304 779.7 306 779.65 306 779.75 301.2 788.25 301.2"/>
    <path stroke="none" fill="#FDD1A9" d="M810.05 298.85 L809 297.25 813.4 295.95 816 292 818.65 295.95 823 297.25 821.95 298.85 818.65 297.7 816 294.95 813.4 297.7 810.05 298.85"/>
    <path stroke="none" fill="#FCA759" d="M820.25 301.2 L820.35 306 816 304 811.7 306 811.65 306 811.75 301.2 820.25 301.2"/>
    <path stroke="none" fill="#FCB675" d="M820.25 301.2 L811.75 301.2 810.05 298.85 813.4 297.7 816 294.95 818.65 297.7 821.95 298.85 820.25 301.2"/>
    <path stroke="none" fill="#FCB675" d="M800 320 L800 312 832 312 832 320 800 320"/>
    <path stroke="none" fill="#FCA759" d="M800 320 L768 320 768 312 800 312 800 320"/>
    <path stroke="none" fill="#FDD1A9" d="M832 312 L800 312 768 312 768 310 832 310 832 312"/>
    <path stroke="none" fill="#FDD1A9" d="M832 104 L800 112 768 104 768 102 800 110 832 102 832 104"/>
    <path stroke="none" fill="#FCB675" d="M832 104 L832 112 800 120 800 112 832 104"/>
    <path stroke="none" fill="#FCA759" d="M800 112 L800 120 768 112 768 104 800 112"/>
    <path stroke="none" fill="#FDD1A9" d="M768 88 L768 86 832 86 832 88 800 88 768 88"/>
    <path stroke="none" fill="#FCB675" d="M832 88 L832 96 800 96 800 88 832 88"/>
    <path stroke="none" fill="#FCA759" d="M800 96 L768 96 768 88 800 88 800 96"/>
    <path stroke="none" fill="#FCB675" d="M800 66 L832 66 832 82 800 82 800 66"/>
    <path stroke="none" fill="#FDD1A9" d="M800 66 L768 66 768 64 832 64 832 66 800 66"/>
    <path stroke="none" fill="#FCA759" d="M800 66 L800 82 768 82 768 66 800 66"/>
    <path stroke="none" fill="#FCB675" d="M800 48 L832 56 832 64 800 56 800 48"/>
    <path stroke="none" fill="#FDD1A9" d="M800 48 L768 40 768 38 832 54 832 56 800 48"/>
    <path stroke="none" fill="#FCA759" d="M800 48 L800 56 768 48 768 40 800 48"/>
    <path stroke="none" fill="#FDD1A9" d="M800 10 L768 2 768 0 832 16 832 18 800 10"/>
    <path stroke="none" fill="#FCB675" d="M832 18 L832 26 800 18 800 10 832 18"/>
    <path stroke="none" fill="#FCA759" d="M800 10 L800 18 768 10 768 2 800 10"/>
    <path stroke="none" fill="#FCA759" d="M800 40 L792 32 800 24 800 40"/>
    <path stroke="none" fill="#FCB675" d="M800 40 L800 24 808 32 800 40"/>
    <path stroke="none" fill="#FDD1A9" d="M792 32 L792 30 800 22 808 30 808 32 800 24 792 32"/>
    <path stroke="none" fill="#FDD1A9" d="M812 32 L812 30 816 26 820 30 820 32 816 28 812 32"/>
    <path stroke="none" fill="#FCB675" d="M820 32 L816 36 816 28 820 32"/>
    <path stroke="none" fill="#FCA759" d="M816 36 L812 32 816 28 816 36"/>
    <path stroke="none" fill="#FDD1A9" d="M780 32 L780 30 784 26 788 30 788 32 784 28 780 32"/>
    <path stroke="none" fill="#FCA759" d="M780 32 L784 28 784 36 780 32"/>
    <path stroke="none" fill="#FCB675" d="M788 32 L784 36 784 28 788 32"/>
    <path stroke="none" fill="#FDD1A9" d="M804 344 L800 344 796 344 796 342 804 342 804 344 M812 352 L804 352 804 350 812 350 812 352 M788 352 L788 350 796 350 796 352 788 352"/>
    <path stroke="none" fill="#FCA759" d="M788 352 L796 352 796 350 796 344 800 344 800 368 796 368 796 360 788 360 788 352"/>
    <path stroke="none" fill="#FCB675" d="M800 344 L804 344 804 350 804 352 812 352 812 360 804 360 804 368 800 368 800 344"/>
    <path stroke="none" fill="#FDD1A9" d="M800 376 L768 368 768 366 800 374 832 366 832 368 800 376"/>
    <path stroke="none" fill="#FCA759" d="M800 376 L800 384 768 376 768 368 800 376"/>
    <path stroke="none" fill="#FCB675" d="M800 384 L800 376 832 368 832 376 800 384"/>
    <path stroke="none" fill="#FCB675" d="M800 338 L800 322 832 322 832 338 800 338"/>
    <path stroke="none" fill="#FCA759" d="M800 338 L768 338 768 322 800 322 800 338"/>
    <path stroke="none" fill="#FDD1A9" d="M832 322 L800 322 768 322 768 320 832 320 832 322"/>
    <path stroke="none" fill="#FCB675" d="M352 288 L352 280 Q368.2 288.75 384 288 L384 296 Q368.2 296.75 352 288"/>
    <path stroke="none" fill="#FCA759" d="M352 288 Q335.8 296.75 320 296 L320 288 Q335.8 288.75 352 280 L352 288"/>
    <path stroke="none" fill="#FDD1A9" d="M384 288 Q368.2 288.75 352 280 335.8 288.75 320 288 L320 286 Q335.8 286.75 352 278 368.2 286.75 384 286 L384 288"/>
    <path stroke="none" fill="#FCB675" d="M416 272 Q432.2 280.75 448 280 L448 288 Q432.2 288.75 416 280 L416 272"/>
    <path stroke="none" fill="#FCA759" d="M416 272 L416 280 Q399.8 288.75 384 288 L384 280 Q399.8 280.75 416 272"/>
    <path stroke="none" fill="#FDD1A9" d="M416 272 Q399.8 280.75 384 280 L384 278 Q399.8 278.75 416 270 432.2 278.75 448 278 L448 280 Q432.2 280.75 416 272"/>
    <path stroke="none" fill="#FDD1A9" d="M384 296 L384 294 448 294 448 296 416 296 384 296"/>
    <path stroke="none" fill="#FCB675" d="M416 296 L448 296 448 304 416 304 416 296"/>
    <path stroke="none" fill="#FCA759" d="M416 296 L416 304 384 304 384 296 416 296"/>
    <path stroke="none" fill="#FDD1A9" d="M512 280 Q496.2 280.75 480 272 463.8 280.75 448 280 L448 278 Q463.8 278.75 480 270 496.2 278.75 512 278 L512 280"/>
    <path stroke="none" fill="#FCA759" d="M480 272 L480 280 Q463.8 288.75 448 288 L448 280 Q463.8 280.75 480 272"/>
    <path stroke="none" fill="#FCB675" d="M480 272 Q496.2 280.75 512 280 L512 288 Q496.2 288.75 480 280 L480 272"/>
    <path stroke="none" fill="#FDD1A9" d="M448 296 L448 294 512 294 512 296 480 296 448 296"/>
    <path stroke="none" fill="#FCA759" d="M448 296 L480 296 480 304 448 304 448 296"/>
    <path stroke="none" fill="#FCB675" d="M480 296 L512 296 512 304 480 304 480 296"/>
    <path stroke="none" fill="#FCA759" d="M448 312 L480 312 480 320 448 320 448 312"/>
    <path stroke="none" fill="#FDD1A9" d="M448 312 L448 310 512 310 512 312 480 312 448 312"/>
    <path stroke="none" fill="#FCB675" d="M480 312 L512 312 512 320 480 320 480 312"/>
    <path stroke="none" fill="#FDD1A9" d="M544 272 Q527.8 280.75 512 280 L512 278 Q527.8 278.75 544 270 560.2 278.75 576 278 L576 280 Q560.2 280.75 544 272"/>
    <path stroke="none" fill="#FCB675" d="M544 272 Q560.2 280.75 576 280 L576 288 Q560.2 288.75 544 280 L544 272"/>
    <path stroke="none" fill="#FCA759" d="M544 272 L544 280 Q527.8 288.75 512 288 L512 280 Q527.8 280.75 544 272"/>
    <path stroke="none" fill="#FDD1A9" d="M512 296 L512 294 576 294 576 296 544 296 512 296"/>
    <path stroke="none" fill="#FCA759" d="M512 296 L544 296 544 304 512 304 512 296"/>
    <path stroke="none" fill="#FCB675" d="M544 296 L576 296 576 304 544 304 544 296"/>
    <path stroke="none" fill="#FCB675" d="M544 320 L544 312 576 312 576 320 544 320"/>
    <path stroke="none" fill="#FCA759" d="M544 320 L512 320 512 312 544 312 544 320"/>
    <path stroke="none" fill="#FDD1A9" d="M576 312 L544 312 512 312 512 310 576 310 576 312"/>
    <path stroke="none" fill="#FDD1A9" d="M544 258 Q527.8 266.75 512 266 L512 264 Q527.8 264.75 544 256 560.2 264.75 576 264 L576 266 Q560.2 266.75 544 258"/>
    <path stroke="none" fill="#FCB675" d="M576 266 L576 274 Q560.2 274.75 544 266 L544 258 Q560.2 266.75 576 266"/>
    <path stroke="none" fill="#FCA759" d="M544 258 L544 266 Q527.8 274.75 512 274 L512 266 Q527.8 266.75 544 258"/>
  </g>
</svg>