
<svg xmlns="http://www.w3.org/2000/svg" version="1.1" xmlns:xlink="http://www.w3.org/1999/xlink" preserveAspectRatio="none" x="0px" y="0px" width="4500px" height="3200px" viewBox="0 0 4500 3200">
<defs>
<g id="Layer0_0_FILL">
<path fill="#D5EDF7" stroke="none" d="
M 912 -1023
L -112 -1023 -112 1 912 1 912 -1023 Z"/>
</g>

<g id="Layer0_1_FILL">
<path fill="#E6F4FA" stroke="none" d="
M 753.9 -514.15
Q 740.35 -514.15 730.75 -505.25 729.35 -503.9 728.1 -502.45 704.35 -523.15 671.3 -523.15 664.6 -523.15 658.25 -522.25 657.75 -522.75 657.25 -523.2 647.75 -532.15 634.15 -532.15 626.45 -532.15 619.95 -529.15
L 619.9 -529.15
Q 619.9 -529.4 619.95 -529.65 620.05 -530.7 620.05 -531.7 620.05 -532.15 620.05 -532.45 620.05 -532.95 620.05 -533.5 619.65 -545.45 610.45 -554 600.9 -562.9 587.35 -562.9 584.35 -562.9 581.65 -562.45 579.4 -569.55 573.35 -575.15 563.8 -584.05 550.25 -584.05 536.7 -584.05 527.15 -575.15 520.6 -569.05 518.5 -561.2 497.3 -557.15 480.65 -543.1 472.15 -549.3 460.8 -549.3 447.25 -549.3 437.65 -540.4 430.7 -533.9 428.8 -525.35 420.35 -527 411.2 -527 408.3 -527 405.4 -526.8 403.3 -534.5 396.85 -540.55 387.35 -549.45 373.75 -549.45 360.2 -549.45 350.6 -540.55 350.25 -540.15 350 -539.85 344.7 -548.15 336.9 -555.45 312.45 -578.2 277.9 -578.25 275.55 -583.6 270.85 -587.95 261.3 -596.85 247.7 -596.85 243.1 -596.85 239.1 -595.85 238.2 -606.85 229.55 -614.85 220 -623.75 206.45 -623.75 196.75 -623.75 189.25 -619.25 172.55 -626.95 152.45 -626.95 117.75 -626.95 93.3 -604.15 81.95 -593.6 75.9 -581.05 72.5 -581.7 68.75 -581.7 55.3 -581.7 45.65 -572.85 36.65 -564.45 36.2 -552.6 36.15 -552 36.15 -551.3 36.15 -550 36.25 -548.7 36.7 -543.3 39.05 -538.5 37.4 -535.05 36.65 -531.2 24.1 -525.65 13.45 -515.7 8.95 -511.5 5.25 -506.9 -2.4 -511.45 -12.15 -511.45 -25.7 -511.45 -35.2 -502.55 -42.35 -495.95 -44.15 -487.3 -44.95 -487.3 -45.75 -487.3 -65.25 -487.3 -81.5 -480 -88.4 -483.45 -96.7 -483.45 -105.15 -483.45 -112 -479.95
L -112 -228.1 912 -228.1 912 -476.7
Q 911.6 -492.45 900.4 -503.65 890.4 -513.65 876.9 -515.05 874.75 -518.15 871.95 -520.95 860.3 -532.6 843.95 -532.6 836.95 -532.6 830.85 -530.45 822.65 -527.65 816 -520.95 806.7 -511.7 804.85 -499.3 794.2 -498 784.7 -494.2 782.35 -500.35 777 -505.25 767.5 -514.15 753.9 -514.15 Z"/>
</g>

<g id="Layer0_2_FILL">
<path fill="#D5EDF7" stroke="none" d="
M 1976 -1023
L 952 -1023 952 1 1976 1 1976 -1023 Z"/>
</g>

<g id="Layer0_3_FILL">
<path fill="#E6F4FA" stroke="none" d="
M 1976 -596.7
Q 1975.6 -612.45 1964.4 -623.65 1954.4 -633.65 1940.9 -635.05 1938.75 -638.15 1935.95 -640.95 1924.3 -652.6 1907.95 -652.6 1900.95 -652.6 1894.85 -650.45 1886.65 -647.65 1880 -640.95 1870.7 -631.7 1868.85 -619.3 1858.2 -618 1848.7 -614.2 1846.35 -620.35 1841 -625.25 1831.5 -634.15 1817.9 -634.15 1804.35 -634.15 1794.75 -625.25 1793.35 -623.9 1792.1 -622.45 1768.35 -643.15 1735.3 -643.15 1728.6 -643.15 1722.25 -642.25 1721.75 -642.75 1721.25 -643.2 1711.75 -652.15 1698.15 -652.15 1690.45 -652.15 1683.95 -649.15
L 1683.9 -649.15
Q 1683.9 -649.4 1683.95 -649.65 1684.05 -650.7 1684.05 -651.7 1684.05 -652.15 1684.05 -652.45 1684.05 -652.95 1684.05 -653.5 1683.65 -665.45 1674.45 -674 1664.9 -682.9 1651.35 -682.9 1648.35 -682.9 1645.65 -682.45 1643.4 -689.55 1637.35 -695.15 1627.8 -704.05 1614.25 -704.05 1600.7 -704.05 1591.15 -695.15 1584.6 -689.05 1582.5 -681.2 1561.3 -677.15 1544.65 -663.1 1536.15 -669.3 1524.8 -669.3 1511.25 -669.3 1501.65 -660.4 1494.7 -653.9 1492.8 -645.35 1484.35 -647 1475.2 -647 1472.3 -647 1469.4 -646.8 1467.3 -654.5 1460.85 -660.55 1451.35 -669.45 1437.75 -669.45 1424.2 -669.45 1414.6 -660.55 1414.25 -660.15 1414 -659.85 1408.7 -668.15 1400.9 -675.45 1376.45 -698.2 1341.9 -698.25 1339.55 -703.6 1334.85 -707.95 1325.3 -716.85 1311.7 -716.85 1307.1 -716.85 1303.1 -715.85 1302.2 -726.85 1293.55 -734.85 1284 -743.75 1270.45 -743.75 1260.75 -743.75 1253.25 -739.25 1236.55 -746.95 1216.45 -746.95 1181.75 -746.95 1157.3 -724.15 1145.95 -713.6 1139.9 -701.05 1136.5 -701.7 1132.75 -701.7 1119.3 -701.7 1109.65 -692.85 1100.65 -684.45 1100.2 -672.6 1100.15 -672 1100.15 -671.3 1100.15 -670 1100.25 -668.7 1100.7 -663.3 1103.05 -658.5 1101.4 -655.05 1100.65 -651.2 1088.1 -645.65 1077.45 -635.7 1072.95 -631.5 1069.25 -626.9 1061.6 -631.45 1051.85 -631.45 1038.3 -631.45 1028.8 -622.55 1021.65 -615.95 1019.85 -607.3 1019.05 -607.3 1018.25 -607.3 998.75 -607.3 982.5 -600 975.6 -603.45 967.3 -603.45 958.85 -603.45 952 -599.95
L 952 -348.1 1976 -348.1 1976 -596.7 Z"/>
</g>

<g id="Layer0_4_FILL">
<path fill="#D5EDF7" stroke="none" d="
M 1976 -301
L 1976 -470.55 1933.2 -429.1 1788.6 -569.15
Q 1774.7 -580.75 1763.4 -569.15
L 1634.5 -444.35 1590.5 -486.9
Q 1579.75 -496.05 1571.55 -486.9
L 1523.8 -440.7 1457.8 -504.6
Q 1448.25 -513.1 1440.05 -504.6
L 1390.4 -456.5 1260.2 -582.6
Q 1249.1 -593.65 1237.85 -582.6
L 1125.55 -470.55 1075.25 -519.25
Q 1066.45 -528.1 1057.65 -519.25
L 979.7 -443.75 952 -470.55 952 -301 1976 -301 Z"/>
</g>

<g id="Layer0_5_FILL">
<path fill="#B6D9E7" stroke="none" d="
M 1433.1 -361.95
Q 1376.65 -335.3 1313.6 -334.85 1250.65 -334.3 1191.75 -355.7 1134.65 -376.6 1075.3 -390.6 1013.25 -405.1 952.05 -388.3
L 952.05 1 1976 1 1976 -388.3
Q 1941.1 -375.9 1907.45 -360.5 1848.5 -333.5 1786.9 -356.25 1729.8 -377.4 1671.5 -394.85 1611.65 -412.7 1550.25 -400.6 1488.95 -388.5 1433.1 -361.95 Z"/>
</g>

<g id="Layer0_6_FILL">
<path fill="#D5EDF7" stroke="none" d="
M 3040 1
L 3040 -1023 2016 -1023 2016 1 3040 1 Z"/>
</g>

<g id="Layer0_7_FILL">
<path fill="#E6F4FA" stroke="none" d="
M 3004.9 -555.05
Q 3002.75 -558.15 2999.95 -560.95 2988.3 -572.6 2971.95 -572.6 2964.95 -572.6 2958.85 -570.45 2950.65 -567.65 2944 -560.95 2934.7 -551.7 2932.85 -539.3 2922.2 -538 2912.7 -534.2 2910.35 -540.35 2905 -545.25 2895.5 -554.15 2881.9 -554.15 2868.35 -554.15 2858.75 -545.25 2857.35 -543.9 2856.1 -542.45 2832.35 -563.15 2799.3 -563.15 2792.6 -563.15 2786.25 -562.25 2785.75 -562.75 2785.25 -563.2 2775.75 -572.15 2762.15 -572.15 2754.45 -572.15 2747.95 -569.15
L 2747.9 -569.15
Q 2747.9 -569.4 2747.95 -569.65 2748.05 -570.7 2748.05 -571.7 2748.05 -572.15 2748.05 -572.45 2748.05 -572.95 2748.05 -573.5 2747.65 -585.45 2738.45 -594 2728.9 -602.9 2715.35 -602.9 2712.35 -602.9 2709.65 -602.45 2707.4 -609.55 2701.35 -615.15 2691.8 -624.05 2678.25 -624.05 2664.7 -624.05 2655.15 -615.15 2648.6 -609.05 2646.5 -601.2 2625.3 -597.15 2608.65 -583.1 2600.15 -589.3 2588.8 -589.3 2575.25 -589.3 2565.65 -580.4 2558.7 -573.9 2556.8 -565.35 2548.35 -567 2539.2 -567 2536.3 -567 2533.4 -566.8 2531.3 -574.5 2524.85 -580.55 2515.35 -589.45 2501.75 -589.45 2488.2 -589.45 2478.6 -580.55 2478.25 -580.15 2478 -579.85 2472.7 -588.15 2464.9 -595.45 2440.45 -618.2 2405.9 -618.25 2403.55 -623.6 2398.85 -627.95 2389.3 -636.85 2375.7 -636.85 2371.1 -636.85 2367.1 -635.85 2366.2 -646.85 2357.55 -654.85 2348 -663.75 2334.45 -663.75 2324.75 -663.75 2317.25 -659.25 2300.55 -666.95 2280.45 -666.95 2245.75 -666.95 2221.3 -644.15 2209.95 -633.6 2203.9 -621.05 2200.5 -621.7 2196.75 -621.7 2183.3 -621.7 2173.65 -612.85 2164.65 -604.45 2164.2 -592.6 2164.15 -592 2164.15 -591.3 2164.15 -590 2164.25 -588.7 2164.7 -583.3 2167.05 -578.5 2165.4 -575.05 2164.65 -571.2 2152.1 -565.65 2141.45 -555.7 2136.95 -551.5 2133.25 -546.9 2125.6 -551.45 2115.85 -551.45 2102.3 -551.45 2092.8 -542.55 2085.65 -535.95 2083.85 -527.3 2083.05 -527.3 2082.25 -527.3 2062.75 -527.3 2046.5 -520 2039.6 -523.45 2031.3 -523.45 2022.85 -523.45 2016 -519.95
L 2016 -268.1 3040 -268.1 3040 -516.7
Q 3039.6 -532.45 3028.4 -543.65 3018.4 -553.65 3004.9 -555.05 Z"/>
</g>

<g id="Layer0_8_FILL">
<path fill="#D5EDF7" stroke="none" d="
M 3039.95 -424.3
Q 2978.75 -441.1 2916.7 -426.6 2857.35 -412.6 2800.25 -391.7 2741.35 -370.3 2678.4 -370.85 2615.35 -371.3 2558.9 -397.95 2503.05 -424.5 2441.75 -436.6 2380.35 -448.7 2320.5 -430.85 2262.2 -413.4 2205.1 -392.25 2143.5 -369.5 2084.55 -396.5 2050.9 -411.9 2016 -424.3
L 2016 -35 3039.95 -35 3039.95 -424.3 Z"/>
</g>

<g id="Layer0_9_FILL">
<path fill="#B6D9E7" stroke="none" d="
M 2850.9 -356.25
Q 2793.8 -377.4 2735.5 -394.85 2675.65 -412.7 2614.25 -400.6 2552.95 -388.5 2497.1 -361.95 2440.65 -335.3 2377.6 -334.85 2314.65 -334.3 2255.75 -355.7 2198.65 -376.6 2139.3 -390.6 2077.25 -405.1 2016.05 -388.3
L 2016.05 1 3040 1 3040 -388.3
Q 3005.1 -375.9 2971.45 -360.5 2912.5 -333.5 2850.9 -356.25 Z"/>
</g>

<g id="Layer0_10_FILL">
<path fill="#D5EDF7" stroke="none" d="
M 4104 -1023
L 3080 -1023 3080 1 4104 1 4104 -1023 Z"/>
</g>

<g id="Layer0_11_FILL">
<path fill="#E6F4FA" stroke="none" d="
M 4068.9 -635.05
Q 4066.75 -638.15 4063.95 -640.95 4052.3 -652.6 4035.95 -652.6 4028.95 -652.6 4022.85 -650.45 4014.65 -647.65 4008 -640.95 3998.7 -631.7 3996.85 -619.3 3986.2 -618 3976.7 -614.2 3974.35 -620.35 3969 -625.25 3959.5 -634.15 3945.9 -634.15 3932.35 -634.15 3922.75 -625.25 3921.35 -623.9 3920.1 -622.45 3896.35 -643.15 3863.3 -643.15 3856.6 -643.15 3850.25 -642.25 3849.75 -642.75 3849.25 -643.2 3839.75 -652.15 3826.15 -652.15 3818.45 -652.15 3811.95 -649.15
L 3811.9 -649.15
Q 3811.9 -649.4 3811.95 -649.65 3812.05 -650.7 3812.05 -651.7 3812.05 -652.15 3812.05 -652.45 3812.05 -652.95 3812.05 -653.5 3811.65 -665.45 3802.45 -674 3792.9 -682.9 3779.35 -682.9 3776.35 -682.9 3773.65 -682.45 3771.4 -689.55 3765.35 -695.15 3755.8 -704.05 3742.25 -704.05 3728.7 -704.05 3719.15 -695.15 3712.6 -689.05 3710.5 -681.2 3689.3 -677.15 3672.65 -663.1 3664.15 -669.3 3652.8 -669.3 3639.25 -669.3 3629.65 -660.4 3622.7 -653.9 3620.8 -645.35 3612.35 -647 3603.2 -647 3600.3 -647 3597.4 -646.8 3595.3 -654.5 3588.85 -660.55 3579.35 -669.45 3565.75 -669.45 3552.2 -669.45 3542.6 -660.55 3542.25 -660.15 3542 -659.85 3536.7 -668.15 3528.9 -675.45 3504.45 -698.2 3469.9 -698.25 3467.55 -703.6 3462.85 -707.95 3453.3 -716.85 3439.7 -716.85 3435.1 -716.85 3431.1 -715.85 3430.2 -726.85 3421.55 -734.85 3412 -743.75 3398.45 -743.75 3388.75 -743.75 3381.25 -739.25 3364.55 -746.95 3344.45 -746.95 3309.75 -746.95 3285.3 -724.15 3273.95 -713.6 3267.9 -701.05 3264.5 -701.7 3260.75 -701.7 3247.3 -701.7 3237.65 -692.85 3228.65 -684.45 3228.2 -672.6 3228.15 -672 3228.15 -671.3 3228.15 -670 3228.25 -668.7 3228.7 -663.3 3231.05 -658.5 3229.4 -655.05 3228.65 -651.2 3216.1 -645.65 3205.45 -635.7 3200.95 -631.5 3197.25 -626.9 3189.6 -631.45 3179.85 -631.45 3166.3 -631.45 3156.8 -622.55 3149.65 -615.95 3147.85 -607.3 3147.05 -607.3 3146.25 -607.3 3126.75 -607.3 3110.5 -600 3103.6 -603.45 3095.3 -603.45 3086.85 -603.45 3080 -599.95
L 3080 -308.1 4104 -308.1 4104 -596.7
Q 4103.6 -612.45 4092.4 -623.65 4082.4 -633.65 4068.9 -635.05 Z"/>
</g>

<g id="Layer0_12_FILL">
<path fill="#D5EDF7" stroke="none" d="
M 3261.9 -409.3
L 3245.25 -411.1 3213.05 -350.05 3410.75 -328.5 3372.35 -449.85 3361.05 -451.05 3348.85 -549 3313.8 -552.8 3261.9 -409.3
M 3687.9 -531.15
L 3674.85 -531.15 3659.5 -445.35 3642.5 -445.35 3635.35 -407.1 3609.5 -485.95 3572.8 -482.1 3561.55 -420.4 3545.75 -418.75 3534.35 -309.55 3618.65 -318.4 3618.6 -318.1 3788.85 -318.1 3766.3 -385.7 3747 -385.7 3729.95 -593.6 3701.5 -593.6 3687.9 -531.15
M 3997.5 -446.95
L 3960.8 -443.1 3949.55 -381.4 3933.75 -379.75 3922.35 -270.55 4094.1 -288.6 4052.3 -322.5 4038.75 -321.05 3997.5 -446.95 Z"/>
</g>

<g id="Layer0_13_FILL">
<path fill="#B6D9E7" stroke="none" d="
M 4035.45 -360.5
Q 3976.5 -333.5 3914.9 -356.25 3857.8 -377.4 3799.5 -394.85 3739.65 -412.7 3678.25 -400.6 3616.95 -388.5 3561.1 -361.95 3504.65 -335.3 3441.6 -334.85 3378.65 -334.3 3319.75 -355.7 3262.65 -376.6 3203.3 -390.6 3141.25 -405.1 3080.05 -388.3
L 3080.05 1 4104 1 4104 -388.3
Q 4069.1 -375.9 4035.45 -360.5 Z"/>
</g>

<g id="Layer0_14_FILL">
<path fill="#D5EDF7" stroke="none" d="
M 912 1065
L 912 41 -112 41 -112 1065 912 1065 Z"/>
</g>

<g id="Layer0_15_FILL">
<path fill="#E6F4FA" stroke="none" d="
M 830.85 533.55
Q 822.65 536.35 816 543.05 806.7 552.3 804.85 564.7 794.2 566 784.7 569.8 782.35 563.65 777 558.75 767.5 549.85 753.9 549.85 740.35 549.85 730.75 558.75 729.35 560.1 728.1 561.55 704.35 540.85 671.3 540.85 664.6 540.85 658.25 541.75 657.75 541.25 657.25 540.8 647.75 531.85 634.15 531.85 626.45 531.85 619.95 534.85
L 619.9 534.85
Q 619.9 534.6 619.95 534.35 620.05 533.3 620.05 532.3 620.05 531.85 620.05 531.55 620.05 531.05 620.05 530.5 619.65 518.55 610.45 510 600.9 501.1 587.35 501.1 584.35 501.1 581.65 501.55 579.4 494.45 573.35 488.85 563.8 479.95 550.25 479.95 536.7 479.95 527.15 488.85 520.6 494.95 518.5 502.8 497.3 506.85 480.65 520.9 472.15 514.7 460.8 514.7 447.25 514.7 437.65 523.6 430.7 530.1 428.8 538.65 420.35 537 411.2 537 408.3 537 405.4 537.2 403.3 529.5 396.85 523.45 387.35 514.55 373.75 514.55 360.2 514.55 350.6 523.45 350.25 523.85 350 524.15 344.7 515.85 336.9 508.55 312.45 485.8 277.9 485.75 275.55 480.4 270.85 476.05 261.3 467.15 247.7 467.15 243.1 467.15 239.1 468.15 238.2 457.15 229.55 449.15 220 440.25 206.45 440.25 196.75 440.25 189.25 444.75 172.55 437.05 152.45 437.05 117.75 437.05 93.3 459.85 81.95 470.4 75.9 482.95 72.5 482.3 68.75 482.3 55.3 482.3 45.65 491.15 36.65 499.55 36.2 511.4 36.15 512 36.15 512.7 36.15 514 36.25 515.3 36.7 520.7 39.05 525.5 37.4 528.95 36.65 532.8 24.1 538.35 13.45 548.3 8.95 552.5 5.25 557.1 -2.4 552.55 -12.15 552.55 -25.7 552.55 -35.2 561.45 -42.35 568.05 -44.15 576.7 -44.95 576.7 -45.75 576.7 -65.25 576.7 -81.5 584 -88.4 580.55 -96.7 580.55 -105.15 580.55 -112 584.05
L -112 835.9 912 835.9 912 587.3
Q 911.6 571.55 900.4 560.35 890.4 550.35 876.9 548.95 874.75 545.85 871.95 543.05 860.3 531.4 843.95 531.4 836.95 531.4 830.85 533.55 Z"/>
</g>

<g id="Layer0_16_FILL">
<path fill="#D5EDF7" stroke="none" d="
M 1976 1065
L 1976 41 952 41 952 1065 1976 1065 Z"/>
</g>

<g id="Layer0_17_FILL">
<path fill="#E6F4FA" stroke="none" d="
M 1976 467.3
Q 1975.6 451.55 1964.4 440.35 1954.4 430.35 1940.9 428.95 1938.75 425.85 1935.95 423.05 1924.3 411.4 1907.95 411.4 1900.95 411.4 1894.85 413.55 1886.65 416.35 1880 423.05 1870.7 432.3 1868.85 444.7 1858.2 446 1848.7 449.8 1846.35 443.65 1841 438.75 1831.5 429.85 1817.9 429.85 1804.35 429.85 1794.75 438.75 1793.35 440.1 1792.1 441.55 1768.35 420.85 1735.3 420.85 1728.6 420.85 1722.25 421.75 1721.75 421.25 1721.25 420.8 1711.75 411.85 1698.15 411.85 1690.45 411.85 1683.95 414.85
L 1683.9 414.85
Q 1683.9 414.6 1683.95 414.35 1684.05 413.3 1684.05 412.3 1684.05 411.85 1684.05 411.55 1684.05 411.05 1684.05 410.5 1683.65 398.55 1674.45 390 1664.9 381.1 1651.35 381.1 1648.35 381.1 1645.65 381.55 1643.4 374.45 1637.35 368.85 1627.8 359.95 1614.25 359.95 1600.7 359.95 1591.15 368.85 1584.6 374.95 1582.5 382.8 1561.3 386.85 1544.65 400.9 1536.15 394.7 1524.8 394.7 1511.25 394.7 1501.65 403.6 1494.7 410.1 1492.8 418.65 1484.35 417 1475.2 417 1472.3 417 1469.4 417.2 1467.3 409.5 1460.85 403.45 1451.35 394.55 1437.75 394.55 1424.2 394.55 1414.6 403.45 1414.25 403.85 1414 404.15 1408.7 395.85 1400.9 388.55 1376.45 365.8 1341.9 365.75 1339.55 360.4 1334.85 356.05 1325.3 347.15 1311.7 347.15 1307.1 347.15 1303.1 348.15 1302.2 337.15 1293.55 329.15 1284 320.25 1270.45 320.25 1260.75 320.25 1253.25 324.75 1236.55 317.05 1216.45 317.05 1181.75 317.05 1157.3 339.85 1145.95 350.4 1139.9 362.95 1136.5 362.3 1132.75 362.3 1119.3 362.3 1109.65 371.15 1100.65 379.55 1100.2 391.4 1100.15 392 1100.15 392.7 1100.15 394 1100.25 395.3 1100.7 400.7 1103.05 405.5 1101.4 408.95 1100.65 412.8 1088.1 418.35 1077.45 428.3 1072.95 432.5 1069.25 437.1 1061.6 432.55 1051.85 432.55 1038.3 432.55 1028.8 441.45 1021.65 448.05 1019.85 456.7 1019.05 456.7 1018.25 456.7 998.75 456.7 982.5 464 975.6 460.55 967.3 460.55 958.85 460.55 952 464.05
L 952 715.9 1976 715.9 1976 467.3 Z"/>
</g>

<g id="Layer0_18_FILL">
<path fill="#D5EDF7" stroke="none" d="
M 1976 763
L 1976 593.45 1933.2 634.9 1788.6 494.85
Q 1774.7 483.25 1763.4 494.85
L 1634.5 619.65 1590.5 577.1
Q 1579.75 567.95 1571.55 577.1
L 1523.8 623.3 1457.8 559.4
Q 1448.25 550.9 1440.05 559.4
L 1390.4 607.5 1260.2 481.4
Q 1249.1 470.35 1237.85 481.4
L 1125.55 593.45 1075.25 544.75
Q 1066.45 535.9 1057.65 544.75
L 979.7 620.25 952 593.45 952 763 1976 763 Z"/>
</g>

<g id="Layer0_19_FILL">
<path fill="#B6D9E7" stroke="none" d="
M 1433.1 702.05
Q 1376.65 728.7 1313.6 729.15 1250.65 729.7 1191.75 708.3 1134.65 687.4 1075.3 673.4 1013.25 658.9 952.05 675.7
L 952.05 1065 1976 1065 1976 675.7
Q 1941.1 688.1 1907.45 703.5 1848.5 730.5 1786.9 707.75 1729.8 686.6 1671.5 669.15 1611.65 651.3 1550.25 663.4 1488.95 675.5 1433.1 702.05 Z"/>
</g>

<g id="Layer0_20_FILL">
<path fill="#D5EDF7" stroke="none" d="
M 3040 1065
L 3040 41 2016 41 2016 1065 3040 1065 Z"/>
</g>

<g id="Layer0_21_FILL">
<path fill="#E6F4FA" stroke="none" d="
M 2786.25 501.75
Q 2785.75 501.25 2785.25 500.8 2775.75 491.85 2762.15 491.85 2754.45 491.85 2747.95 494.85
L 2747.9 494.85
Q 2747.9 494.6 2747.95 494.35 2748.05 493.3 2748.05 492.3 2748.05 491.85 2748.05 491.55 2748.05 491.05 2748.05 490.5 2747.65 478.55 2738.45 470 2728.9 461.1 2715.35 461.1 2712.35 461.1 2709.65 461.55 2707.4 454.45 2701.35 448.85 2691.8 439.95 2678.25 439.95 2664.7 439.95 2655.15 448.85 2648.6 454.95 2646.5 462.8 2625.3 466.85 2608.65 480.9 2600.15 474.7 2588.8 474.7 2575.25 474.7 2565.65 483.6 2558.7 490.1 2556.8 498.65 2548.35 497 2539.2 497 2536.3 497 2533.4 497.2 2531.3 489.5 2524.85 483.45 2515.35 474.55 2501.75 474.55 2488.2 474.55 2478.6 483.45 2478.25 483.85 2478 484.15 2472.7 475.85 2464.9 468.55 2440.45 445.8 2405.9 445.75 2403.55 440.4 2398.85 436.05 2389.3 427.15 2375.7 427.15 2371.1 427.15 2367.1 428.15 2366.2 417.15 2357.55 409.15 2348 400.25 2334.45 400.25 2324.75 400.25 2317.25 404.75 2300.55 397.05 2280.45 397.05 2245.75 397.05 2221.3 419.85 2209.95 430.4 2203.9 442.95 2200.5 442.3 2196.75 442.3 2183.3 442.3 2173.65 451.15 2164.65 459.55 2164.2 471.4 2164.15 472 2164.15 472.7 2164.15 474 2164.25 475.3 2164.7 480.7 2167.05 485.5 2165.4 488.95 2164.65 492.8 2152.1 498.35 2141.45 508.3 2136.95 512.5 2133.25 517.1 2125.6 512.55 2115.85 512.55 2102.3 512.55 2092.8 521.45 2085.65 528.05 2083.85 536.7 2083.05 536.7 2082.25 536.7 2062.75 536.7 2046.5 544 2039.6 540.55 2031.3 540.55 2022.85 540.55 2016 544.05
L 2016 795.9 3040 795.9 3040 547.3
Q 3039.6 531.55 3028.4 520.35 3018.4 510.35 3004.9 508.95 3002.75 505.85 2999.95 503.05 2988.3 491.4 2971.95 491.4 2964.95 491.4 2958.85 493.55 2950.65 496.35 2944 503.05 2934.7 512.3 2932.85 524.7 2922.2 526 2912.7 529.8 2910.35 523.65 2905 518.75 2895.5 509.85 2881.9 509.85 2868.35 509.85 2858.75 518.75 2857.35 520.1 2856.1 521.55 2832.35 500.85 2799.3 500.85 2792.6 500.85 2786.25 501.75 Z"/>
</g>

<g id="Layer0_22_FILL">
<path fill="#D5EDF7" stroke="none" d="
M 2800.25 672.3
Q 2741.35 693.7 2678.4 693.15 2615.35 692.7 2558.9 666.05 2503.05 639.5 2441.75 627.4 2380.35 615.3 2320.5 633.15 2262.2 650.6 2205.1 671.75 2143.5 694.5 2084.55 667.5 2050.9 652.1 2016 639.7
L 2016 1029 3039.95 1029 3039.95 639.7
Q 2978.75 622.9 2916.7 637.4 2857.35 651.4 2800.25 672.3 Z"/>
</g>

<g id="Layer0_22_MEMBER_0_FILL">
<path fill="#D5EDF7" stroke="none" d="
M 2278 575
Q 2275.7 577.3 2275.6 580.5
L 2275.6 624.7
Q 2275.7 627.9 2278 630.2 2279.65 631.8 2281.7 632.35
L 2281.7 649.55
Q 2281.7 650.3 2282.25 650.9 2282.85 651.45 2283.65 651.45 2284.45 651.45 2285 650.9 2285.6 650.3 2285.6 649.55
L 2285.6 632.35
Q 2287.75 631.9 2289.4 630.2 2291.7 627.9 2291.75 624.7
L 2291.75 580.5
Q 2291.7 577.3 2289.4 575 2287.05 572.65 2283.7 572.65 2280.35 572.65 2278 575
M 2260.45 588.55
Q 2257.1 588.55 2254.75 590.9 2252.45 593.2 2252.35 596.45
L 2252.35 640.6
Q 2252.45 643.8 2254.75 646.1 2256.4 647.7 2258.45 648.25
L 2258.45 665.45
Q 2258.45 666.2 2259 666.8 2259.6 667.35 2260.4 667.35 2261.2 667.35 2261.75 666.8 2262.35 666.2 2262.35 665.45
L 2262.35 648.3
Q 2264.5 647.8 2266.15 646.1 2268.45 643.8 2268.5 640.6
L 2268.5 596.45
Q 2268.45 593.2 2266.15 590.9 2263.8 588.55 2260.45 588.55 Z"/>
</g>

<g id="Layer0_23_FILL">
<path fill="#B6D9E7" stroke="none" d="
M 2735.5 669.15
Q 2675.65 651.3 2614.25 663.4 2552.95 675.5 2497.1 702.05 2440.65 728.7 2377.6 729.15 2314.65 729.7 2255.75 708.3 2198.65 687.4 2139.3 673.4 2077.25 658.9 2016.05 675.7
L 2016.05 1065 3040 1065 3040 675.7
Q 3005.1 688.1 2971.45 703.5 2912.5 730.5 2850.9 707.75 2793.8 686.6 2735.5 669.15 Z"/>
</g>

<g id="Layer0_24_FILL">
<path fill="#D5EDF7" stroke="none" d="
M 4104 1065
L 4104 41 3080 41 3080 1065 4104 1065 Z"/>
</g>

<g id="Layer0_25_FILL">
<path fill="#E6F4FA" stroke="none" d="
M 4068.9 428.95
Q 4066.75 425.85 4063.95 423.05 4052.3 411.4 4035.95 411.4 4028.95 411.4 4022.85 413.55 4014.65 416.35 4008 423.05 3998.7 432.3 3996.85 444.7 3986.2 446 3976.7 449.8 3974.35 443.65 3969 438.75 3959.5 429.85 3945.9 429.85 3932.35 429.85 3922.75 438.75 3921.35 440.1 3920.1 441.55 3896.35 420.85 3863.3 420.85 3856.6 420.85 3850.25 421.75 3849.75 421.25 3849.25 420.8 3839.75 411.85 3826.15 411.85 3818.45 411.85 3811.95 414.85
L 3811.9 414.85
Q 3811.9 414.6 3811.95 414.35 3812.05 413.3 3812.05 412.3 3812.05 411.85 3812.05 411.55 3812.05 411.05 3812.05 410.5 3811.65 398.55 3802.45 390 3792.9 381.1 3779.35 381.1 3776.35 381.1 3773.65 381.55 3771.4 374.45 3765.35 368.85 3755.8 359.95 3742.25 359.95 3728.7 359.95 3719.15 368.85 3712.6 374.95 3710.5 382.8 3689.3 386.85 3672.65 400.9 3664.15 394.7 3652.8 394.7 3639.25 394.7 3629.65 403.6 3622.7 410.1 3620.8 418.65 3612.35 417 3603.2 417 3600.3 417 3597.4 417.2 3595.3 409.5 3588.85 403.45 3579.35 394.55 3565.75 394.55 3552.2 394.55 3542.6 403.45 3542.25 403.85 3542 404.15 3536.7 395.85 3528.9 388.55 3504.45 365.8 3469.9 365.75 3467.55 360.4 3462.85 356.05 3453.3 347.15 3439.7 347.15 3435.1 347.15 3431.1 348.15 3430.2 337.15 3421.55 329.15 3412 320.25 3398.45 320.25 3388.75 320.25 3381.25 324.75 3364.55 317.05 3344.45 317.05 3309.75 317.05 3285.3 339.85 3273.95 350.4 3267.9 362.95 3264.5 362.3 3260.75 362.3 3247.3 362.3 3237.65 371.15 3228.65 379.55 3228.2 391.4 3228.15 392 3228.15 392.7 3228.15 394 3228.25 395.3 3228.7 400.7 3231.05 405.5 3229.4 408.95 3228.65 412.8 3216.1 418.35 3205.45 428.3 3200.95 432.5 3197.25 437.1 3189.6 432.55 3179.85 432.55 3166.3 432.55 3156.8 441.45 3149.65 448.05 3147.85 456.7 3147.05 456.7 3146.25 456.7 3126.75 456.7 3110.5 464 3103.6 460.55 3095.3 460.55 3086.85 460.55 3080 464.05
L 3080 755.9 4104 755.9 4104 467.3
Q 4103.6 451.55 4092.4 440.35 4082.4 430.35 4068.9 428.95 Z"/>
</g>

<g id="Layer0_26_FILL">
<path fill="#D5EDF7" stroke="none" d="
M 3561.55 643.6
L 3545.75 645.25 3534.35 754.45 3618.65 745.6 3618.6 745.9 3788.85 745.9 3766.3 678.3 3747 678.3 3729.95 470.4 3701.5 470.4 3687.9 532.85 3674.85 532.85 3659.5 618.65 3642.5 618.65 3635.35 656.9 3609.5 578.05 3572.8 581.9 3561.55 643.6
M 3348.85 515
L 3313.8 511.2 3261.9 654.7 3245.25 652.9 3213.05 713.95 3410.75 735.5 3372.35 614.15 3361.05 612.95 3348.85 515
M 3949.55 682.6
L 3933.75 684.25 3922.35 793.45 4094.1 775.4 4052.3 741.5 4038.75 742.95 3997.5 617.05 3960.8 620.9 3949.55 682.6 Z"/>
</g>

<g id="Layer0_27_FILL">
<path fill="#B6D9E7" stroke="none" d="
M 4035.45 703.5
Q 3976.5 730.5 3914.9 707.75 3857.8 686.6 3799.5 669.15 3739.65 651.3 3678.25 663.4 3616.95 675.5 3561.1 702.05 3504.65 728.7 3441.6 729.15 3378.65 729.7 3319.75 708.3 3262.65 687.4 3203.3 673.4 3141.25 658.9 3080.05 675.7
L 3080.05 1065 4104 1065 4104 675.7
Q 4069.1 688.1 4035.45 703.5 Z"/>
</g>

<g id="Layer0_28_MEMBER_0_FILL">
<path fill="#B6D9E7" stroke="none" d="
M 3288 686.4
L 3305.05 687.35 3302.7 709.3 3317.35 709.3 3315.2 687.95 3335 689 3309.15 604.5 3288 686.4 Z"/>
</g>

<g id="Layer0_28_MEMBER_1_FILL">
<path fill="#B6D9E7" stroke="none" d="
M 3149.25 671.3
L 3147.85 657.25 3160.85 657.95 3143.9 602.5 3130 656.25 3141.2 656.9 3139.65 671.3 3149.25 671.3 Z"/>
</g>

<g id="Layer0_28_MEMBER_2_FILL">
<path fill="#B6D9E7" stroke="none" d="
M 3367.9 715.25
L 3380.9 715.95 3363.95 660.5 3350.05 714.25 3361.25 714.9 3359.7 729.3 3369.3 729.3 3367.9 715.25 Z"/>
</g>

<g id="Layer0_28_MEMBER_3_FILL">
<path fill="#B6D9E7" stroke="none" d="
M 3949.85 721.3
L 3959.45 721.3 3958.05 707.25 3971.05 707.95 3954.1 652.5 3940.2 706.25 3951.4 706.9 3949.85 721.3 Z"/>
</g>

<g id="Layer0_28_MEMBER_4_FILL">
<path fill="#B6D9E7" stroke="none" d="
M 4020.2 686.4
L 4037.25 687.35 4034.9 709.3 4049.55 709.3 4047.4 687.95 4067.2 689 4041.35 604.5 4020.2 686.4 Z"/>
</g>

<g id="Layer0_29_FILL">
<path fill="#B6D9E7" stroke="none" d="
M 2701.75 437.4
Q 2701.5 425.8 2693.25 417.55 2684.7 409.05 2672.65 409.05
L 2672.6 409.05
Q 2660.55 409.05 2652.05 417.55 2643.75 425.8 2643.5 437.4
L 2643.5 596.6
Q 2643.7 608.25 2652.05 616.55 2658.05 622.55 2665.8 624.35
L 2665.8 686.15
Q 2665.8 689 2667.9 691.1 2669.95 693.15 2672.85 693.15 2675.75 693.15 2677.8 691.1 2679.85 689 2679.85 686.15
L 2679.85 624.25
Q 2687.35 622.4 2693.25 616.55 2701.55 608.25 2701.75 596.6
L 2701.75 437.4 Z"/>
</g>

<g id="Layer0_30_FILL">
<path fill="#B6D9E7" stroke="none" d="
M 2766.95 523.05
Q 2766.8 514.6 2760.75 508.6 2754.55 502.4 2745.75 502.4 2736.95 502.4 2730.75 508.6 2724.7 514.6 2724.55 523.05
L 2724.55 639
Q 2724.7 647.45 2730.75 653.5 2735.15 657.9 2740.8 659.2
L 2740.8 704.2
Q 2740.8 706.25 2742.3 707.8 2743.8 709.3 2745.9 709.3 2748 709.3 2749.5 707.8 2751 706.25 2751 704.2
L 2751 659.1
Q 2756.45 657.75 2760.75 653.5 2766.8 647.45 2766.95 639
L 2766.95 523.05 Z"/>
</g>

<g id="Layer0_31_FILL">
<path fill="#B6D9E7" stroke="none" d="
M 2144.25 575.4
Q 2140.5 579.15 2140.4 584.4
L 2140.4 656.6
Q 2140.5 661.85 2144.25 665.6 2147 668.35 2150.5 669.15
L 2150.5 697.2
Q 2150.5 698.45 2151.45 699.45 2152.4 700.35 2153.7 700.35 2155 700.35 2155.95 699.45 2156.85 698.45 2156.85 697.2
L 2156.85 669.1
Q 2160.25 668.25 2162.95 665.6 2166.7 661.85 2166.8 656.6
L 2166.8 584.4
Q 2166.7 579.15 2162.95 575.4 2159.1 571.55 2153.6 571.55 2148.1 571.55 2144.25 575.4 Z"/>
</g>

<g id="Layer0_32_FILL">
<path fill="#B6D9E7" stroke="none" d="
M 2115.6 545.55
Q 2110.1 545.55 2106.25 549.4 2102.5 553.15 2102.4 558.4
L 2102.4 630.6
Q 2102.5 635.85 2106.25 639.6 2109 642.35 2112.5 643.15
L 2112.5 671.2
Q 2112.5 672.45 2113.45 673.45 2114.4 674.35 2115.7 674.35 2117 674.35 2117.95 673.45 2118.85 672.45 2118.85 671.2
L 2118.85 643.1
Q 2122.25 642.25 2124.95 639.6 2128.7 635.85 2128.8 630.6
L 2128.8 558.4
Q 2128.7 553.15 2124.95 549.4 2121.1 545.55 2115.6 545.55 Z"/>
</g>

<g id="Layer0_33_FILL">
<path fill="#D5EDF7" stroke="none" d="
M 912.05 2132.9
L 912.05 1108.9 -111.95 1108.9 -111.95 2132.9 912.05 2132.9 Z"/>
</g>

<g id="Layer0_34_FILL">
<path fill="#E6F4FA" stroke="none" d="
M 36.2 1580.6
Q 36.2 1581.9 36.3 1583.2 36.75 1588.6 39.1 1593.4 37.45 1596.85 36.7 1600.7 24.15 1606.25 13.5 1616.2 9 1620.4 5.3 1625 -2.35 1620.45 -12.1 1620.45 -25.65 1620.45 -35.15 1629.35 -42.3 1635.95 -44.1 1644.6 -44.9 1644.6 -45.7 1644.6 -65.2 1644.6 -81.45 1651.9 -88.35 1648.45 -96.65 1648.45 -105.1 1648.45 -111.95 1651.95
L -111.95 1903.8 912.05 1903.8 912.05 1655.2
Q 911.65 1639.45 900.45 1628.25 890.45 1618.25 876.95 1616.85 874.8 1613.75 872 1610.95 860.35 1599.3 844 1599.3 837 1599.3 830.9 1601.45 822.7 1604.25 816.05 1610.95 806.75 1620.2 804.9 1632.6 794.25 1633.9 784.75 1637.7 782.4 1631.55 777.05 1626.65 767.55 1617.75 753.95 1617.75 740.4 1617.75 730.8 1626.65 729.4 1628 728.15 1629.45 704.4 1608.75 671.35 1608.75 664.65 1608.75 658.3 1609.65 657.8 1609.15 657.3 1608.7 647.8 1599.75 634.2 1599.75 626.5 1599.75 620 1602.75
L 619.95 1602.75
Q 619.95 1602.5 620 1602.25 620.1 1601.2 620.1 1600.2 620.1 1599.75 620.1 1599.45 620.1 1598.95 620.1 1598.4 619.7 1586.45 610.5 1577.9 600.95 1569 587.4 1569 584.4 1569 581.7 1569.45 579.45 1562.35 573.4 1556.75 563.85 1547.85 550.3 1547.85 536.75 1547.85 527.2 1556.75 520.65 1562.85 518.55 1570.7 497.35 1574.75 480.7 1588.8 472.2 1582.6 460.85 1582.6 447.3 1582.6 437.7 1591.5 430.75 1598 428.85 1606.55 420.4 1604.9 411.25 1604.9 408.35 1604.9 405.45 1605.1 403.35 1597.4 396.9 1591.35 387.4 1582.45 373.8 1582.45 360.25 1582.45 350.65 1591.35 350.3 1591.75 350.05 1592.05 344.75 1583.75 336.95 1576.45 312.5 1553.7 277.95 1553.65 275.6 1548.3 270.9 1543.95 261.35 1535.05 247.75 1535.05 243.15 1535.05 239.15 1536.05 238.25 1525.05 229.6 1517.05 220.05 1508.15 206.5 1508.15 196.8 1508.15 189.3 1512.65 172.6 1504.95 152.5 1504.95 117.8 1504.95 93.35 1527.75 82 1538.3 75.95 1550.85 72.55 1550.2 68.8 1550.2 55.35 1550.2 45.7 1559.05 36.7 1567.45 36.25 1579.3 36.2 1579.9 36.2 1580.6 Z"/>
</g>

<g id="Layer0_35_FILL">
<path fill="#D5EDF7" stroke="none" d="
M 1976.05 1108.9
L 952.05 1108.9 952.05 2132.9 1976.05 2132.9 1976.05 1108.9 Z"/>
</g>

<g id="Layer0_36_FILL">
<path fill="#E6F4FA" stroke="none" d="
M 1414.05 1472.05
Q 1408.75 1463.75 1400.95 1456.45 1376.5 1433.7 1341.95 1433.65 1339.6 1428.3 1334.9 1423.95 1325.35 1415.05 1311.75 1415.05 1307.15 1415.05 1303.15 1416.05 1302.25 1405.05 1293.6 1397.05 1284.05 1388.15 1270.5 1388.15 1260.8 1388.15 1253.3 1392.65 1236.6 1384.95 1216.5 1384.95 1181.8 1384.95 1157.35 1407.75 1146 1418.3 1139.95 1430.85 1136.55 1430.2 1132.8 1430.2 1119.35 1430.2 1109.7 1439.05 1100.7 1447.45 1100.25 1459.3 1100.2 1459.9 1100.2 1460.6 1100.2 1461.9 1100.3 1463.2 1100.75 1468.6 1103.1 1473.4 1101.45 1476.85 1100.7 1480.7 1088.15 1486.25 1077.5 1496.2 1073 1500.4 1069.3 1505 1061.65 1500.45 1051.9 1500.45 1038.35 1500.45 1028.85 1509.35 1021.7 1515.95 1019.9 1524.6 1019.1 1524.6 1018.3 1524.6 998.8 1524.6 982.55 1531.9 975.65 1528.45 967.35 1528.45 958.9 1528.45 952.05 1531.95
L 952.05 1783.8 1976.05 1783.8 1976.05 1535.2
Q 1975.65 1519.45 1964.45 1508.25 1954.45 1498.25 1940.95 1496.85 1938.8 1493.75 1936 1490.95 1924.35 1479.3 1908 1479.3 1901 1479.3 1894.9 1481.45 1886.7 1484.25 1880.05 1490.95 1870.75 1500.2 1868.9 1512.6 1858.25 1513.9 1848.75 1517.7 1846.4 1511.55 1841.05 1506.65 1831.55 1497.75 1817.95 1497.75 1804.4 1497.75 1794.8 1506.65 1793.4 1508 1792.15 1509.45 1768.4 1488.75 1735.35 1488.75 1728.65 1488.75 1722.3 1489.65 1721.8 1489.15 1721.3 1488.7 1711.8 1479.75 1698.2 1479.75 1690.5 1479.75 1684 1482.75
L 1683.95 1482.75
Q 1683.95 1482.5 1684 1482.25 1684.1 1481.2 1684.1 1480.2 1684.1 1479.75 1684.1 1479.45 1684.1 1478.95 1684.1 1478.4 1683.7 1466.45 1674.5 1457.9 1664.95 1449 1651.4 1449 1648.4 1449 1645.7 1449.45 1643.45 1442.35 1637.4 1436.75 1627.85 1427.85 1614.3 1427.85 1600.75 1427.85 1591.2 1436.75 1584.65 1442.85 1582.55 1450.7 1561.35 1454.75 1544.7 1468.8 1536.2 1462.6 1524.85 1462.6 1511.3 1462.6 1501.7 1471.5 1494.75 1478 1492.85 1486.55 1484.4 1484.9 1475.25 1484.9 1472.35 1484.9 1469.45 1485.1 1467.35 1477.4 1460.9 1471.35 1451.4 1462.45 1437.8 1462.45 1424.25 1462.45 1414.65 1471.35 1414.3 1471.75 1414.05 1472.05 Z"/>
</g>

<g id="Layer0_37_FILL">
<path fill="#ECDEBC" stroke="none" d="
M 1075.3 1652.65
Q 1066.5 1643.8 1057.7 1652.65
L 979.75 1728.15 952.05 1701.35 952.05 1870.9 1976.05 1870.9 1976.05 1701.35 1933.25 1742.8 1788.65 1602.75
Q 1774.75 1591.15 1763.45 1602.75
L 1634.55 1727.55 1590.55 1685
Q 1579.8 1675.85 1571.6 1685
L 1523.85 1731.2 1457.85 1667.3
Q 1448.3 1658.8 1440.1 1667.3
L 1390.45 1715.4 1260.25 1589.3
Q 1249.15 1578.25 1237.9 1589.3
L 1125.6 1701.35 1075.3 1652.65 Z"/>
</g>

<g id="Layer0_38_FILL">
<path fill="#C4B592" stroke="none" d="
M 1558.15 1769.35
L 1608.7 1769.35 1539.35 1666.25 1558.15 1769.35
M 1523 1757.2
L 1515.2 1757.2 1515.2 1769.35 1521.35 1769.35 1523 1757.2 Z"/>

<path fill="#83775C" stroke="none" d="
M 1507.75 1757.2
L 1507.75 1769.35 1515.2 1769.35 1515.2 1757.2 1507.75 1757.2 Z"/>

<path fill="#D0C4AA" stroke="none" d="
M 1507.75 1769.35
L 1507.75 1757.2 1515.2 1757.2 1523 1757.2 1521.35 1769.35 1558.15 1769.35 1539.35 1666.25 1474.5 1769.35 1507.75 1769.35 Z"/>
</g>

<g id="Layer0_39_FILL">
<path fill="#C4B592" stroke="none" d="
M 1491 1800.3
L 1380 1635.3 1410.05 1800.3 1491 1800.3
M 1353.85 1780.9
L 1341.35 1780.9 1341.35 1800.3 1351.15 1800.3 1353.85 1780.9 Z"/>

<path fill="#83775C" stroke="none" d="
M 1341.35 1780.9
L 1329.4 1780.9 1329.4 1800.3 1341.35 1800.3 1341.35 1780.9 Z"/>

<path fill="#D0C4AA" stroke="none" d="
M 1341.35 1780.9
L 1353.85 1780.9 1351.15 1800.3 1410.05 1800.3 1380 1635.3 1276.2 1800.3 1329.4 1800.3 1329.4 1780.9 1341.35 1780.9 Z"/>
</g>

<g id="Layer0_40_FILL">
<path fill="#D5EDF7" stroke="none" d="
M 3040.05 2132.9
L 3040.05 1108.9 2016.05 1108.9 2016.05 2132.9 3040.05 2132.9 Z"/>
</g>

<g id="Layer0_41_FILL">
<path fill="#E6F4FA" stroke="none" d="
M 2655.2 1516.75
Q 2648.65 1522.85 2646.55 1530.7 2625.35 1534.75 2608.7 1548.8 2600.2 1542.6 2588.85 1542.6 2575.3 1542.6 2565.7 1551.5 2558.75 1558 2556.85 1566.55 2548.4 1564.9 2539.25 1564.9 2536.35 1564.9 2533.45 1565.1 2531.35 1557.4 2524.9 1551.35 2515.4 1542.45 2501.8 1542.45 2488.25 1542.45 2478.65 1551.35 2478.3 1551.75 2478.05 1552.05 2472.75 1543.75 2464.95 1536.45 2440.5 1513.7 2405.95 1513.65 2403.6 1508.3 2398.9 1503.95 2389.35 1495.05 2375.75 1495.05 2371.15 1495.05 2367.15 1496.05 2366.25 1485.05 2357.6 1477.05 2348.05 1468.15 2334.5 1468.15 2324.8 1468.15 2317.3 1472.65 2300.6 1464.95 2280.5 1464.95 2245.8 1464.95 2221.35 1487.75 2210 1498.3 2203.95 1510.85 2200.55 1510.2 2196.8 1510.2 2183.35 1510.2 2173.7 1519.05 2164.7 1527.45 2164.25 1539.3 2164.2 1539.9 2164.2 1540.6 2164.2 1541.9 2164.3 1543.2 2164.75 1548.6 2167.1 1553.4 2165.45 1556.85 2164.7 1560.7 2152.15 1566.25 2141.5 1576.2 2137 1580.4 2133.3 1585 2125.65 1580.45 2115.9 1580.45 2102.35 1580.45 2092.85 1589.35 2085.7 1595.95 2083.9 1604.6 2083.1 1604.6 2082.3 1604.6 2062.8 1604.6 2046.55 1611.9 2039.65 1608.45 2031.35 1608.45 2022.9 1608.45 2016.05 1611.95
L 2016.05 1863.8 3040.05 1863.8 3040.05 1615.2
Q 3039.65 1599.45 3028.45 1588.25 3018.45 1578.25 3004.95 1576.85 3002.8 1573.75 3000 1570.95 2988.35 1559.3 2972 1559.3 2965 1559.3 2958.9 1561.45 2950.7 1564.25 2944.05 1570.95 2934.75 1580.2 2932.9 1592.6 2922.25 1593.9 2912.75 1597.7 2910.4 1591.55 2905.05 1586.65 2895.55 1577.75 2881.95 1577.75 2868.4 1577.75 2858.8 1586.65 2857.4 1588 2856.15 1589.45 2832.4 1568.75 2799.35 1568.75 2792.65 1568.75 2786.3 1569.65 2785.8 1569.15 2785.3 1568.7 2775.8 1559.75 2762.2 1559.75 2754.5 1559.75 2748 1562.75
L 2747.95 1562.75
Q 2747.95 1562.5 2748 1562.25 2748.1 1561.2 2748.1 1560.2 2748.1 1559.75 2748.1 1559.45 2748.1 1558.95 2748.1 1558.4 2747.7 1546.45 2738.5 1537.9 2728.95 1529 2715.4 1529 2712.4 1529 2709.7 1529.45 2707.45 1522.35 2701.4 1516.75 2691.85 1507.85 2678.3 1507.85 2664.75 1507.85 2655.2 1516.75 Z"/>
</g>

<g id="Layer0_42_FILL">
<path fill="#9C7B53" stroke="none" d="
M 2746.05 1726.05
Q 2744.05 1726.5 2741.8 1726.5 2739.7 1726.5 2737.75 1726.05
L 2737.75 1756.9
Q 2737.75 1758.6 2739 1759.8 2740.2 1761.05 2741.95 1761.05 2743.65 1761.05 2744.85 1759.8 2746.05 1758.6 2746.05 1756.9
L 2746.05 1726.05 Z"/>

<path fill="#876844" stroke="none" d="
M 2746.05 1720.25
Q 2744.05 1720.75 2741.8 1720.75 2739.7 1720.75 2737.75 1720.3
L 2737.75 1726.05
Q 2739.7 1726.5 2741.8 1726.5 2744.05 1726.5 2746.05 1726.05
L 2746.05 1720.25 Z"/>

<path fill="#597B3E" stroke="none" d="
M 2754 1715.7
Q 2758.9 1710.8 2759.05 1703.9
L 2759.05 1682.55
Q 2758.85 1689.3 2754 1694.15 2750.5 1697.65 2746.05 1698.75 2744.05 1699.2 2741.8 1699.2 2739.7 1699.2 2737.75 1698.8 2733.15 1697.7 2729.6 1694.15 2724.75 1689.3 2724.55 1682.55
L 2724.55 1703.9
Q 2724.7 1710.8 2729.6 1715.7 2733.15 1719.25 2737.75 1720.3 2739.7 1720.75 2741.8 1720.75 2744.05 1720.75 2746.05 1720.25 2750.5 1719.15 2754 1715.7 Z"/>

<path fill="#648C44" stroke="none" d="
M 2759.05 1609.7
Q 2758.9 1602.85 2754 1597.95 2748.95 1592.9 2741.8 1592.9 2734.65 1592.9 2729.6 1597.95 2724.7 1602.85 2724.55 1609.7
L 2724.55 1682.55
Q 2724.75 1689.3 2729.6 1694.15 2733.15 1697.7 2737.75 1698.8 2739.7 1699.2 2741.8 1699.2 2744.05 1699.2 2746.05 1698.75 2750.5 1697.65 2754 1694.15 2758.85 1689.3 2759.05 1682.55
L 2759.05 1609.7 Z"/>
</g>

<g id="Layer0_43_FILL">
<path fill="#9C7B53" stroke="none" d="
M 2125.55 1735
L 2125.55 1752.6
Q 2125.55 1753.6 2126.3 1754.3 2126.95 1755 2127.95 1755 2128.9 1755 2129.6 1754.3 2130.3 1753.6 2130.3 1752.6
L 2130.3 1735
Q 2129.15 1735.25 2127.9 1735.25 2126.7 1735.25 2125.55 1735 Z"/>

<path fill="#876844" stroke="none" d="
M 2130.3 1731.7
Q 2129.15 1731.95 2127.9 1731.95 2126.7 1731.95 2125.55 1731.75
L 2125.55 1735
Q 2126.7 1735.25 2127.9 1735.25 2129.15 1735.25 2130.3 1735
L 2130.3 1731.7 Z"/>

<path fill="#597B3E" stroke="none" d="
M 2120.9 1729.1
Q 2122.9 1731.15 2125.55 1731.75 2126.7 1731.95 2127.9 1731.95 2129.15 1731.95 2130.3 1731.7 2132.85 1731.05 2134.85 1729.1 2137.65 1726.3 2137.7 1722.35
L 2137.7 1710.15
Q 2137.6 1714 2134.85 1716.75 2132.85 1718.75 2130.3 1719.4 2129.15 1719.65 2127.9 1719.65 2126.7 1719.65 2125.55 1719.45 2122.9 1718.8 2120.9 1716.75 2118.1 1714 2118 1710.15
L 2118 1722.35
Q 2118.1 1726.3 2120.9 1729.1 Z"/>

<path fill="#648C44" stroke="none" d="
M 2137.7 1668.5
Q 2137.65 1664.65 2134.85 1661.85 2131.95 1658.9 2127.9 1658.9 2123.8 1658.9 2120.9 1661.85 2118.1 1664.65 2118 1668.5
L 2118 1710.15
Q 2118.1 1714 2120.9 1716.75 2122.9 1718.8 2125.55 1719.45 2126.7 1719.65 2127.9 1719.65 2129.15 1719.65 2130.3 1719.4 2132.85 1718.75 2134.85 1716.75 2137.6 1714 2137.7 1710.15
L 2137.7 1668.5 Z"/>
</g>

<g id="Layer0_44_FILL">
<path fill="#D5EDF7" stroke="none" d="
M 4104.05 1108.9
L 3080.05 1108.9 3080.05 2132.9 4104.05 2132.9 4104.05 1108.9 Z"/>
</g>

<g id="Layer0_45_FILL">
<path fill="#E6F4FA" stroke="none" d="
M 4036 1479.3
Q 4029 1479.3 4022.9 1481.45 4014.7 1484.25 4008.05 1490.95 3998.75 1500.2 3996.9 1512.6 3986.25 1513.9 3976.75 1517.7 3974.4 1511.55 3969.05 1506.65 3959.55 1497.75 3945.95 1497.75 3932.4 1497.75 3922.8 1506.65 3921.4 1508 3920.15 1509.45 3896.4 1488.75 3863.35 1488.75 3856.65 1488.75 3850.3 1489.65 3849.8 1489.15 3849.3 1488.7 3839.8 1479.75 3826.2 1479.75 3818.5 1479.75 3812 1482.75
L 3811.95 1482.75
Q 3811.95 1482.5 3812 1482.25 3812.1 1481.2 3812.1 1480.2 3812.1 1479.75 3812.1 1479.45 3812.1 1478.95 3812.1 1478.4 3811.7 1466.45 3802.5 1457.9 3792.95 1449 3779.4 1449 3776.4 1449 3773.7 1449.45 3771.45 1442.35 3765.4 1436.75 3755.85 1427.85 3742.3 1427.85 3728.75 1427.85 3719.2 1436.75 3712.65 1442.85 3710.55 1450.7 3689.35 1454.75 3672.7 1468.8 3664.2 1462.6 3652.85 1462.6 3639.3 1462.6 3629.7 1471.5 3622.75 1478 3620.85 1486.55 3612.4 1484.9 3603.25 1484.9 3600.35 1484.9 3597.45 1485.1 3595.35 1477.4 3588.9 1471.35 3579.4 1462.45 3565.8 1462.45 3552.25 1462.45 3542.65 1471.35 3542.3 1471.75 3542.05 1472.05 3536.75 1463.75 3528.95 1456.45 3504.5 1433.7 3469.95 1433.65 3467.6 1428.3 3462.9 1423.95 3453.35 1415.05 3439.75 1415.05 3435.15 1415.05 3431.15 1416.05 3430.25 1405.05 3421.6 1397.05 3412.05 1388.15 3398.5 1388.15 3388.8 1388.15 3381.3 1392.65 3364.6 1384.95 3344.5 1384.95 3309.8 1384.95 3285.35 1407.75 3274 1418.3 3267.95 1430.85 3264.55 1430.2 3260.8 1430.2 3247.35 1430.2 3237.7 1439.05 3228.7 1447.45 3228.25 1459.3 3228.2 1459.9 3228.2 1460.6 3228.2 1461.9 3228.3 1463.2 3228.75 1468.6 3231.1 1473.4 3229.45 1476.85 3228.7 1480.7 3216.15 1486.25 3205.5 1496.2 3201 1500.4 3197.3 1505 3189.65 1500.45 3179.9 1500.45 3166.35 1500.45 3156.85 1509.35 3149.7 1515.95 3147.9 1524.6 3147.1 1524.6 3146.3 1524.6 3126.8 1524.6 3110.55 1531.9 3103.65 1528.45 3095.35 1528.45 3086.9 1528.45 3080.05 1531.95
L 3080.05 1823.8 4104.05 1823.8 4104.05 1535.2
Q 4103.65 1519.45 4092.45 1508.25 4082.45 1498.25 4068.95 1496.85 4066.8 1493.75 4064 1490.95 4052.35 1479.3 4036 1479.3 Z"/>
</g>

<g id="Layer0_46_FILL">
<path fill="#D5EDF7" stroke="none" d="
M 3949.6 1750.5
L 3933.8 1752.15 3922.4 1861.35 4094.15 1843.3 4052.35 1809.4 4038.8 1810.85 3997.55 1684.95 3960.85 1688.8 3949.6 1750.5
M 3730 1538.3
L 3701.55 1538.3 3687.95 1600.75 3674.9 1600.75 3659.55 1686.55 3642.55 1686.55 3635.4 1724.8 3609.55 1645.95 3572.85 1649.8 3561.6 1711.5 3545.8 1713.15 3534.4 1822.35 3618.7 1813.5 3618.65 1813.8 3788.9 1813.8 3766.35 1746.2 3747.05 1746.2 3730 1538.3
M 3348.9 1582.9
L 3313.85 1579.1 3261.95 1722.6 3245.3 1720.8 3213.1 1781.85 3410.8 1803.4 3372.4 1682.05 3361.1 1680.85 3348.9 1582.9 Z"/>
</g>

<g id="Layer0_47_FILL">
<path fill="#648C44" stroke="none" d="
M 4049.6 1777.2
L 4047.45 1755.85 4067.25 1756.9 4041.4 1672.4 4020.25 1754.3 4037.3 1755.25 4034.95 1777.2 4049.6 1777.2
M 3940.25 1774.15
L 3951.45 1774.8 3949.9 1789.2 3959.5 1789.2 3958.1 1775.15 3971.1 1775.85 3954.15 1720.4 3940.25 1774.15
M 3130.05 1724.15
L 3141.25 1724.8 3139.7 1739.2 3149.3 1739.2 3147.9 1725.15 3160.9 1725.85 3143.95 1670.4 3130.05 1724.15
M 3367.95 1783.15
L 3380.95 1783.85 3364 1728.4 3350.1 1782.15 3361.3 1782.8 3359.75 1797.2 3369.35 1797.2 3367.95 1783.15
M 3317.4 1777.2
L 3315.25 1755.85 3335.05 1756.9 3309.2 1672.4 3288.05 1754.3 3305.1 1755.25 3302.75 1777.2 3317.4 1777.2 Z"/>
</g>

<g id="Layer0_48_FILL">
<path fill="#D26F49" stroke="none" d="
M 3891.8 1631
Q 3924.95 1630.2 3946.8 1651
L 3936.6 1575.4 3891.8 1631
M 3717.25 1622
Q 3743.55 1607.3 3775.55 1616.3
L 3745.9 1551.3 3717.25 1622 Z"/>

<path fill="#A4AFAF" stroke="none" d="
M 3867.85 1759.9
L 3862.7 1788.8 3915.15 1795.45 3912.35 1769.1 3867.85 1759.9
M 3764.55 1776.4
L 3766.75 1746.6 3721.3 1745 3715.5 1770.2 3764.55 1776.4 Z"/>

<path fill="#5B6666" stroke="none" d="
M 3790.95 1715.15
L 3786.35 1779.15 3839.95 1785.95 3853 1718.45 3790.95 1715.15 Z"/>

<path fill="#7E8787" stroke="none" d="
M 3769.1 1777
L 3786.35 1779.15 3790.95 1715.15 3853 1718.45 3839.95 1785.95 3856.6 1788.05 3867.2 1703.8 3779.4 1695.35 3769.1 1777
M 3756.45 1671.35
L 3756.2 1652.2
Q 3756.2 1648.9 3753.8 1646.55 3751.5 1644.15 3748.15 1644.2 3744.9 1644.25 3742.6 1646.65 3740.3 1649 3740.25 1652.3
L 3740.45 1671.6 3756.45 1671.35
M 3843.55 1661.85
L 3815.1 1658.25 3806.1 1675.85 3797.95 1675 3794.7 1655.65 3784.55 1654.4 3780.45 1687 3868.55 1693.35 3872.05 1665.45 3857.8 1663.65 3853.45 1680.65 3845.4 1679.85 3843.55 1661.85
M 3917.8 1668.5
Q 3915.75 1664.95 3911.8 1663.95 3907.95 1662.9 3904.4 1665.05 3900.85 1667.15 3899.8 1671
L 3893.9 1694 3912.95 1698.95 3918.85 1675.95
Q 3919.9 1672.05 3917.8 1668.5 Z"/>

<path fill="#95A1A1" stroke="none" d="
M 3780.45 1687
L 3779.4 1695.35 3867.2 1703.8 3868.55 1693.35 3780.45 1687
M 3785.65 1619.7
Q 3780.5 1617.65 3775.55 1616.3 3743.55 1607.3 3717.25 1622 3712.75 1624.5 3708.4 1627.7
L 3722.9 1652.25 3721.3 1745 3766.75 1746.6 3773.7 1653 3774.2 1646.85 3788.3 1620.75
Q 3787 1620.2 3785.65 1619.7
M 3756.2 1652.2
L 3756.45 1671.35 3740.45 1671.6 3740.25 1652.3
Q 3740.3 1649 3742.6 1646.65 3744.9 1644.25 3748.15 1644.2 3751.5 1644.15 3753.8 1646.55 3756.2 1648.9 3756.2 1652.2
M 3885.55 1631.3
Q 3882 1631.6 3878.35 1632.1
L 3885.5 1660.9 3884.4 1667 3867.85 1759.9 3912.35 1769.1 3933.85 1678.85 3954 1658.7
Q 3950.6 1654.5 3946.8 1651 3924.95 1630.2 3891.8 1631 3888.8 1631 3885.55 1631.3
M 3911.8 1663.95
Q 3915.75 1664.95 3917.8 1668.5 3919.9 1672.05 3918.85 1675.95
L 3912.95 1698.95 3893.9 1694 3899.8 1671
Q 3900.85 1667.15 3904.4 1665.05 3907.95 1662.9 3911.8 1663.95 Z"/>

<path fill="#767E7E" stroke="none" d="
M 3784.55 1654.4
L 3773.7 1653 3766.75 1746.6 3764.55 1776.4 3769.1 1777 3779.4 1695.35 3780.45 1687 3784.55 1654.4
M 3884.4 1667
L 3872.05 1665.45 3868.55 1693.35 3867.2 1703.8 3856.6 1788.05 3862.7 1788.8 3867.85 1759.9 3884.4 1667 Z"/>
</g>

<g id="Layer0_49_FILL">
<path fill="#B6D9E7" stroke="none" d="
M 3953.95 590.8
Q 3950.55 586.6 3946.75 583.1
L 3936.55 507.5 3891.75 563.1
Q 3888.75 563.1 3885.5 563.4 3881.95 563.7 3878.3 564.2
L 3885.45 593 3884.35 599.1 3857.75 595.75 3853.4 612.75 3845.35 611.95 3843.5 593.95 3815.05 590.35 3806.05 607.95 3797.9 607.1 3794.65 587.75 3773.65 585.1 3774.15 578.95 3788.25 552.85
Q 3786.95 552.3 3785.6 551.8 3780.45 549.75 3775.5 548.4
L 3745.85 483.4 3717.2 554.1
Q 3712.7 556.6 3708.35 559.8
L 3722.85 584.35 3721.25 677.1 3715.45 702.3 3915.1 727.55 3912.3 701.2 3933.8 610.95 3953.95 590.8 Z"/>
</g>

<g id="Layer0_50_FILL">
<path fill="#B6D9E7" stroke="none" d="
M 1490.95 736.3
L 1379.95 571.3 1276.15 736.3 1490.95 736.3
M 1474.45 705.35
L 1608.65 705.35 1539.3 602.25 1474.45 705.35 Z"/>
</g>

<g id="Layer0_51_FILL">
<path fill="#FFFFFF" fill-opacity="0.30196078431372547" stroke="none" d="
M 1431.6 261.05
Q 1413.8 261.05 1401.2 273.6 1388.7 286.2 1388.7 303.95 1388.7 321.75 1401.2 334.25 1413.8 346.85 1431.6 346.85 1449.35 346.85 1461.85 334.25 1474.5 321.75 1474.5 303.95 1474.5 286.2 1461.85 273.6 1449.35 261.05 1431.6 261.05
M 1432.6 273.95
Q 1445.85 273.95 1455.2 283.3 1464.6 292.7 1464.6 305.95 1464.6 319.2 1455.2 328.55 1445.85 337.95 1432.6 337.95 1419.35 337.95 1409.95 328.55 1400.6 319.2 1400.6 305.95 1400.6 292.7 1409.95 283.3 1419.35 273.95 1432.6 273.95 Z"/>

<path fill="#FFFFFF" stroke="none" d="
M 1455.2 283.3
Q 1445.85 273.95 1432.6 273.95 1419.35 273.95 1409.95 283.3 1400.6 292.7 1400.6 305.95 1400.6 319.2 1409.95 328.55 1419.35 337.95 1432.6 337.95 1445.85 337.95 1455.2 328.55 1464.6 319.2 1464.6 305.95 1464.6 292.7 1455.2 283.3 Z"/>
</g>

<g id="Layer0_52_FILL">
<path fill="#B6D9E7" stroke="none" d="
M 2528.45 666.4
L 2518.8 680 2504.95 675.1 2511.1 691 2502.25 693.4 2512.8 700.35 2531.9 700.35 2539.15 685.05 2530.35 683.3 2528.45 666.4 Z"/>
</g>

<g id="Layer0_53_FILL">
<path fill="#B6D9E7" stroke="none" d="
M 2086.3 672.35
L 2093.55 657.05 2084.75 655.3 2082.85 638.4 2073.2 652 2059.35 647.1 2065.5 663 2056.65 665.4 2067.2 672.35 2086.3 672.35 Z"/>
</g>

<g id="Layer0_54_FILL">
<path fill="#B6D9E7" stroke="none" d="
M 912 -388.3
Q 877.1 -375.9 843.45 -360.5 784.5 -333.5 722.9 -356.25 665.8 -377.4 607.5 -394.85 547.65 -412.7 486.25 -400.6 424.95 -388.5 369.1 -361.95 312.65 -335.3 249.6 -334.85 186.65 -334.3 127.75 -355.7 70.65 -376.6 11.3 -390.6 -50.75 -405.1 -111.95 -388.3
L -111.95 1 912 1 912 -388.3 Z"/>
</g>

<g id="Layer0_55_FILL">
<path fill="#B6D9E7" stroke="none" d="
M 774.45 632
L 780.55 632.3 763.55 585.1 742.05 630.7 748.9 631 730.8 666.7 736.85 667.9 722.2 706.2 748 706.65 746.5 714.65
Q 734.75 712.1 722.9 707.75 665.8 686.6 607.5 669.15 547.65 651.3 486.25 663.4 476 665.4 465.95 667.85
L 463.3 646.55 509.55 641.3 487.9 593.55 495.8 594.1 472.65 523.45 482.5 522.6 445.35 450.6 420.6 528.1 431.55 527.15 410.05 588.15 420 588.8 404.55 653.25 445.95 648.55 444.5 673.5
Q 405.65 684.7 369.1 702.05 345.4 713.25 320.5 719.85
L 318.85 706.65 347.5 703.4 334.1 673.85 338.95 674.2 324.65 630.45 330.75 629.95 307.75 585.35 292.4 633.35 299.2 632.75 285.9 670.5 292.05 670.9 282.5 710.8 308.1 707.9 307.25 723
Q 279.15 728.95 249.6 729.15 186.65 729.7 127.75 708.3 77.8 690 26.1 677
L 27.05 651.55 73.5 653.7 59.8 603.15 67.5 604.95 55.95 531.5 65.8 532.25 40.6 455.2 3.8 527.75 14.75 528.6 -16.2 585.4 -6.5 587.6 -32.05 648.75 9.6 650.75 4.9 672
Q -53.9 659.75 -111.95 675.7
L -111.95 1065 912 1065 912 675.7
Q 877.1 688.1 843.45 703.5 801.75 722.6 758.75 716.8
L 758.8 706.8 787.6 707.3 778.15 676.25 782.9 677.25 774.45 632 Z"/>
</g>

<g id="Layer0_56_FILL">
<path fill="#DBCEAF" stroke="none" d="
M 1191.8 1776.2
Q 1134.7 1755.3 1075.35 1741.3 1013.3 1726.8 952.1 1743.6
L 952.1 2132.9 1976.05 2132.9 1976.05 1743.6
Q 1941.15 1756 1907.5 1771.4 1848.55 1798.4 1786.95 1775.65 1729.85 1754.5 1671.55 1737.05 1611.7 1719.2 1550.3 1731.3 1489 1743.4 1433.15 1769.95 1376.7 1796.6 1313.65 1797.05 1250.7 1797.6 1191.8 1776.2 Z"/>
</g>

<g id="Layer0_57_FILL">
<path fill="#D4E7C5" stroke="none" d="
M 3040 1707.6
Q 2978.8 1690.8 2916.75 1705.3 2857.4 1719.3 2800.3 1740.2 2741.4 1761.6 2678.45 1761.05 2615.4 1760.6 2558.95 1733.95 2503.1 1707.4 2441.8 1695.3 2380.4 1683.2 2320.55 1701.05 2262.25 1718.5 2205.15 1739.65 2143.55 1762.4 2084.6 1735.4 2050.95 1720 2016.05 1707.6
L 2016.05 2096.9 3040 2096.9 3040 1707.6 Z"/>
</g>

<g id="Layer0_58_FILL">
<path fill="#B8D0A6" stroke="none" d="
M 3040.05 1743.6
Q 3005.15 1756 2971.5 1771.4 2912.55 1798.4 2850.95 1775.65 2793.85 1754.5 2735.55 1737.05 2675.7 1719.2 2614.3 1731.3 2553 1743.4 2497.15 1769.95 2440.7 1796.6 2377.65 1797.05 2314.7 1797.6 2255.8 1776.2 2198.7 1755.3 2139.35 1741.3 2077.3 1726.8 2016.1 1743.6
L 2016.1 2132.9 3040.05 2132.9 3040.05 1743.6 Z"/>
</g>

<g id="Layer0_59_MEMBER_0_FILL">
<path fill="#9C7B53" stroke="none" d="
M 2672.65 1702.7
Q 2669.1 1702.7 2665.85 1701.95
L 2665.85 1754.05
Q 2665.85 1756.9 2667.95 1759 2670 1761.05 2672.9 1761.05 2675.8 1761.05 2677.85 1759 2679.9 1756.9 2679.9 1754.05
L 2679.9 1701.9
Q 2676.5 1702.7 2672.7 1702.7
L 2672.65 1702.7 Z"/>

<path fill="#876844" stroke="none" d="
M 2672.65 1693
Q 2669.1 1693 2665.85 1692.25
L 2665.85 1701.95
Q 2669.1 1702.7 2672.65 1702.7
L 2672.7 1702.7
Q 2676.5 1702.7 2679.9 1701.9
L 2679.9 1692.15
Q 2676.5 1693 2672.7 1693
L 2672.65 1693 Z"/>

<path fill="#597B3E" stroke="none" d="
M 2693.3 1648.05
Q 2687.4 1653.9 2679.9 1655.75 2676.5 1656.55 2672.7 1656.55
L 2672.65 1656.55
Q 2669.1 1656.55 2665.85 1655.85 2658.1 1654.05 2652.1 1648.05 2643.9 1639.85 2643.55 1628.45
L 2643.55 1664.5
Q 2643.75 1676.15 2652.1 1684.45 2658.1 1690.45 2665.85 1692.25 2669.1 1693 2672.65 1693
L 2672.7 1693
Q 2676.5 1693 2679.9 1692.15 2687.4 1690.3 2693.3 1684.45 2701.6 1676.15 2701.8 1664.5
L 2701.8 1628.45
Q 2701.45 1639.85 2693.3 1648.05 Z"/>

<path fill="#648C44" stroke="none" d="
M 2672.7 1476.95
L 2672.65 1476.95
Q 2660.6 1476.95 2652.1 1485.45 2643.8 1493.7 2643.55 1505.3
L 2643.55 1628.45
Q 2643.9 1639.85 2652.1 1648.05 2658.1 1654.05 2665.85 1655.85 2669.1 1656.55 2672.65 1656.55
L 2672.7 1656.55
Q 2676.5 1656.55 2679.9 1655.75 2687.4 1653.9 2693.3 1648.05 2701.45 1639.85 2701.8 1628.45
L 2701.8 1505.3
Q 2701.55 1493.7 2693.3 1485.45 2684.75 1476.95 2672.7 1476.95 Z"/>
</g>

<g id="Layer0_60_FILL">
<path fill="#9C7B53" stroke="none" d="
M 2096.9 1725.3
Q 2095.4 1725.3 2094 1725
L 2094 1747
Q 2094 1748.25 2094.9 1749.1 2095.75 1750 2097 1750 2098.2 1750 2099.05 1749.1 2099.95 1748.25 2099.95 1747
L 2099.95 1725
Q 2098.5 1725.3 2096.9 1725.3 Z"/>

<path fill="#876844" stroke="none" d="
M 2094 1725
Q 2095.4 1725.3 2096.9 1725.3 2098.5 1725.3 2099.95 1725
L 2099.95 1720.85
Q 2098.5 1721.2 2096.9 1721.2 2095.4 1721.2 2094 1720.9
L 2094 1725 Z"/>

<path fill="#648C44" stroke="none" d="
M 2109.2 1693.95
L 2109.2 1641.9
Q 2109.1 1637.05 2105.6 1633.55 2102 1629.9 2096.9 1629.9 2091.8 1629.9 2088.2 1633.55 2084.7 1637.05 2084.55 1641.9
L 2084.55 1693.95
Q 2084.7 1698.75 2088.2 1702.2 2090.7 1704.75 2094 1705.55 2095.4 1705.8 2096.9 1705.8 2098.5 1705.8 2099.95 1705.5 2103.1 1704.7 2105.6 1702.2 2109.05 1698.75 2109.2 1693.95 Z"/>

<path fill="#597B3E" stroke="none" d="
M 2109.2 1709.2
L 2109.2 1693.95
Q 2109.05 1698.75 2105.6 1702.2 2103.1 1704.7 2099.95 1705.5 2098.5 1705.8 2096.9 1705.8 2095.4 1705.8 2094 1705.55 2090.7 1704.75 2088.2 1702.2 2084.7 1698.75 2084.55 1693.95
L 2084.55 1709.2
Q 2084.7 1714.1 2088.2 1717.6 2090.7 1720.15 2094 1720.9 2095.4 1721.2 2096.9 1721.2 2098.5 1721.2 2099.95 1720.85 2103.1 1720.05 2105.6 1717.6 2109.1 1714.1 2109.2 1709.2 Z"/>
</g>

<g id="Layer0_61_FILL">
<path fill="#B8D0A6" stroke="none" d="
M 3799.55 1737.05
Q 3739.7 1719.2 3678.3 1731.3 3617 1743.4 3561.15 1769.95 3504.7 1796.6 3441.65 1797.05 3378.7 1797.6 3319.8 1776.2 3262.7 1755.3 3203.35 1741.3 3141.3 1726.8 3080.1 1743.6
L 3080.1 2132.9 4104.05 2132.9 4104.05 1743.6
Q 4069.15 1756 4035.5 1771.4 3976.55 1798.4 3914.95 1775.65 3857.85 1754.5 3799.55 1737.05 Z"/>
</g>

<g id="Layer0_62_MEMBER_0_FILL">
<path fill="#795B48" stroke="none" d="
M 443.55 1758.75
L 468.8 1758.75 464.3 1722.2 445.45 1726 443.55 1758.75 Z"/>

<path fill="#6D503D" stroke="none" d="
M 463.35 1714.45
L 446 1716.45 445.45 1726 464.3 1722.2 463.35 1714.45 Z"/>

<path fill="#448C5E" stroke="none" d="
M 472.7 1591.35
L 482.55 1590.5 445.4 1518.5 420.65 1596 431.6 1595.05 472.7 1591.35
M 509.6 1709.2
L 489.15 1664.2 417 1669.4 404.6 1721.15 446 1716.45 463.35 1714.45 509.6 1709.2
M 487.95 1661.45
L 495.85 1662 477.4 1605.75 429.45 1601.1 410.1 1656.05 420.05 1656.7 487.95 1661.45 Z"/>

<path fill="#3E7B54" stroke="none" d="
M 477.4 1605.75
L 472.7 1591.35 431.6 1595.05 429.45 1601.1 477.4 1605.75
M 489.15 1664.2
L 487.95 1661.45 420.05 1656.7 417 1669.4 489.15 1664.2 Z"/>
</g>

<g id="Layer0_62_MEMBER_1_FILL">
<path fill="#448C5E" stroke="none" d="
M 7.75 1717.45
L 25.1 1718.8 71.55 1722.45 60 1674.35 -11.85 1665.75 -33.8 1714.2 7.75 1717.45
M 59.35 1671.45
L 67.05 1673.5 59.55 1614.75 13.4 1601.1 -16.05 1651.35 -6.4 1653.9 59.35 1671.45
M 57.7 1599.75
L 67.5 1600.75 44.7 1523 5.7 1594.4 16.65 1595.55 57.7 1599.75 Z"/>

<path fill="#795B48" stroke="none" d="
M 24.6 1726.6
L 5.4 1726.75 -2.7 1758.55 22.05 1763.35 24.6 1726.6 Z"/>

<path fill="#6D503D" stroke="none" d="
M 5.4 1726.75
L 24.6 1726.6 25.1 1718.8 7.75 1717.45 5.4 1726.75 Z"/>

<path fill="#3E7B54" stroke="none" d="
M 60 1674.35
L 59.35 1671.45 -6.4 1653.9 -11.85 1665.75 60 1674.35
M 59.55 1614.75
L 57.7 1599.75 16.65 1595.55 13.4 1601.1 59.55 1614.75 Z"/>
</g>

<g id="Layer0_62_MEMBER_2_FILL">
<path fill="#795B48" stroke="none" d="
M 300 1785.45
L 296.7 1809.25 315.1 1810.75 313.95 1783.75 300 1785.45 Z"/>

<path fill="#6D503D" stroke="none" d="
M 313.65 1778
L 300.9 1778.45 300 1785.45 313.95 1783.75 313.65 1778 Z"/>

<path fill="#3E7B54" stroke="none" d="
M 335.4 1742.75
L 334.7 1740.7 285.35 1733.35 282.35 1742.45 335.4 1742.75
M 330.15 1699.4
L 327.6 1688.6 297.35 1688.9 295.4 1693.25 330.15 1699.4 Z"/>

<path fill="#448C5E" stroke="none" d="
M 334.7 1740.7
L 340.5 1741.55 330.15 1699.4 295.4 1693.25 278.1 1732.3 285.35 1733.35 334.7 1740.7
M 347.8 1776.85
L 335.4 1742.75 282.35 1742.45 270.35 1779.55 300.9 1778.45 313.65 1778 347.8 1776.85
M 327.6 1688.6
L 334.8 1688.5 311.75 1633.75 289.25 1689 297.35 1688.9 327.6 1688.6 Z"/>
</g>

<g id="Layer0_62_MEMBER_3_FILL">
<path fill="#795B48" stroke="none" d="
M 747.6 1771.15
L 735 1771.35 729.75 1792.25 746.05 1795.4 747.6 1771.15 Z"/>

<path fill="#6D503D" stroke="none" d="
M 747.9 1766
L 736.45 1765.2 735 1771.35 747.6 1771.15 747.9 1766 Z"/>

<path fill="#3E7B54" stroke="none" d="
M 769.05 1687.5
L 742 1684.85 739.85 1688.55 770.3 1697.4 769.05 1687.5
M 727 1723.35
L 723.4 1731.25 770.8 1736.6 770.35 1734.7 727 1723.35 Z"/>

<path fill="#448C5E" stroke="none" d="
M 742 1684.85
L 769.05 1687.5 775.5 1688.1 760.2 1637 734.75 1684.15 742 1684.85
M 723.4 1731.25
L 709.1 1763.15 736.45 1765.2 747.9 1766 778.5 1768.3 770.8 1736.6 723.4 1731.25
M 720.6 1721.7
L 727 1723.35 770.35 1734.7 775.45 1736.05 770.3 1697.4 739.85 1688.55 720.6 1721.7 Z"/>
</g>

<g id="Layer0_63_FILL">
<path fill="#A69A92" stroke="none" d="
M 912.05 1743.6
Q 877.15 1756 843.5 1771.4 784.55 1798.4 722.95 1775.65 665.85 1754.5 607.55 1737.05 547.7 1719.2 486.3 1731.3 425 1743.4 369.15 1769.95 312.7 1796.6 249.65 1797.05 186.7 1797.6 127.8 1776.2 70.7 1755.3 11.35 1741.3 -50.7 1726.8 -111.9 1743.6
L -111.9 2132.9 912.05 2132.9 912.05 1743.6 Z"/>
</g>
</defs>

<g transform="matrix( 1, 0, 0, 1, 112,1023) ">
<use xlink:href="#Layer0_0_FILL"/>
</g>

<g transform="matrix( 1, 0, 0, 1, 112,1023) ">
<use xlink:href="#Layer0_1_FILL"/>
</g>

<g transform="matrix( 1, 0, 0, 1, 112,1023) ">
<use xlink:href="#Layer0_2_FILL"/>
</g>

<g transform="matrix( 1, 0, 0, 1, 112,1023) ">
<use xlink:href="#Layer0_3_FILL"/>
</g>

<g transform="matrix( 1, 0, 0, 1, 112,1023) ">
<use xlink:href="#Layer0_4_FILL"/>
</g>

<g transform="matrix( 1, 0, 0, 1, 112,1023) ">
<use xlink:href="#Layer0_5_FILL"/>
</g>

<g transform="matrix( 1, 0, 0, 1, 112,1023) ">
<use xlink:href="#Layer0_6_FILL"/>
</g>

<g transform="matrix( 1, 0, 0, 1, 112,1023) ">
<use xlink:href="#Layer0_7_FILL"/>
</g>

<g transform="matrix( 1, 0, 0, 1, 112,1023) ">
<use xlink:href="#Layer0_8_FILL"/>
</g>

<g transform="matrix( 1, 0, 0, 1, 112,1023) ">
<use xlink:href="#Layer0_9_FILL"/>
</g>

<g transform="matrix( 1, 0, 0, 1, 112,1023) ">
<use xlink:href="#Layer0_10_FILL"/>
</g>

<g transform="matrix( 1, 0, 0, 1, 112,1023) ">
<use xlink:href="#Layer0_11_FILL"/>
</g>

<g transform="matrix( 1, 0, 0, 1, 112,1023) ">
<use xlink:href="#Layer0_12_FILL"/>
</g>

<g transform="matrix( 1, 0, 0, 1, 112,1023) ">
<use xlink:href="#Layer0_13_FILL"/>
</g>

<g transform="matrix( 1, 0, 0, 1, 112,1023) ">
<use xlink:href="#Layer0_14_FILL"/>
</g>

<g transform="matrix( 1, 0, 0, 1, 112,1023) ">
<use xlink:href="#Layer0_15_FILL"/>
</g>

<g transform="matrix( 1, 0, 0, 1, 112,1023) ">
<use xlink:href="#Layer0_16_FILL"/>
</g>

<g transform="matrix( 1, 0, 0, 1, 112,1023) ">
<use xlink:href="#Layer0_17_FILL"/>
</g>

<g transform="matrix( 1, 0, 0, 1, 112,1023) ">
<use xlink:href="#Layer0_18_FILL"/>
</g>

<g transform="matrix( 1, 0, 0, 1, 112,1023) ">
<use xlink:href="#Layer0_19_FILL"/>
</g>

<g transform="matrix( 1, 0, 0, 1, 112,1023) ">
<use xlink:href="#Layer0_20_FILL"/>
</g>

<g transform="matrix( 1, 0, 0, 1, 112,1023) ">
<use xlink:href="#Layer0_21_FILL"/>
</g>

<g transform="matrix( 1, 0, 0, 1, 112,1023) ">
<use xlink:href="#Layer0_22_FILL"/>
</g>

<g transform="matrix( 1, 0, 0, 1, 112,1023) ">
<use xlink:href="#Layer0_22_MEMBER_0_FILL"/>
</g>

<g transform="matrix( 1, 0, 0, 1, 112,1023) ">
<use xlink:href="#Layer0_23_FILL"/>
</g>

<g transform="matrix( 1, 0, 0, 1, 112,1023) ">
<use xlink:href="#Layer0_24_FILL"/>
</g>

<g transform="matrix( 1, 0, 0, 1, 112,1023) ">
<use xlink:href="#Layer0_25_FILL"/>
</g>

<g transform="matrix( 1, 0, 0, 1, 112,1023) ">
<use xlink:href="#Layer0_26_FILL"/>
</g>

<g transform="matrix( 1, 0, 0, 1, 112,1023) ">
<use xlink:href="#Layer0_27_FILL"/>
</g>

<g transform="matrix( 1, 0, 0, 1, 112,1023) ">
<use xlink:href="#Layer0_28_MEMBER_0_FILL"/>
</g>

<g transform="matrix( 1, 0, 0, 1, 112,1023) ">
<use xlink:href="#Layer0_28_MEMBER_1_FILL"/>
</g>

<g transform="matrix( 1, 0, 0, 1, 112,1023) ">
<use xlink:href="#Layer0_28_MEMBER_2_FILL"/>
</g>

<g transform="matrix( 1, 0, 0, 1, 112,1023) ">
<use xlink:href="#Layer0_28_MEMBER_3_FILL"/>
</g>

<g transform="matrix( 1, 0, 0, 1, 112,1023) ">
<use xlink:href="#Layer0_28_MEMBER_4_FILL"/>
</g>

<g transform="matrix( 1, 0, 0, 1, 112,1023) ">
<use xlink:href="#Layer0_29_FILL"/>
</g>

<g transform="matrix( 1, 0, 0, 1, 112,1023) ">
<use xlink:href="#Layer0_30_FILL"/>
</g>

<g transform="matrix( 1, 0, 0, 1, 112,1023) ">
<use xlink:href="#Layer0_31_FILL"/>
</g>

<g transform="matrix( 1, 0, 0, 1, 112,1023) ">
<use xlink:href="#Layer0_32_FILL"/>
</g>

<g transform="matrix( 1, 0, 0, 1, 112,1023) ">
<use xlink:href="#Layer0_33_FILL"/>
</g>

<g transform="matrix( 1, 0, 0, 1, 112,1023) ">
<use xlink:href="#Layer0_34_FILL"/>
</g>

<g transform="matrix( 1, 0, 0, 1, 112,1023) ">
<use xlink:href="#Layer0_35_FILL"/>
</g>

<g transform="matrix( 1, 0, 0, 1, 112,1023) ">
<use xlink:href="#Layer0_36_FILL"/>
</g>

<g transform="matrix( 1, 0, 0, 1, 112,1023) ">
<use xlink:href="#Layer0_37_FILL"/>
</g>

<g transform="matrix( 1, 0, 0, 1, 112,1023) ">
<use xlink:href="#Layer0_38_FILL"/>
</g>

<g transform="matrix( 1, 0, 0, 1, 112,1023) ">
<use xlink:href="#Layer0_39_FILL"/>
</g>

<g transform="matrix( 1, 0, 0, 1, 112,1023) ">
<use xlink:href="#Layer0_40_FILL"/>
</g>

<g transform="matrix( 1, 0, 0, 1, 112,1023) ">
<use xlink:href="#Layer0_41_FILL"/>
</g>

<g transform="matrix( 1, 0, 0, 1, 112,1023) ">
<use xlink:href="#Layer0_42_FILL"/>
</g>

<g transform="matrix( 1, 0, 0, 1, 112,1023) ">
<use xlink:href="#Layer0_43_FILL"/>
</g>

<g transform="matrix( 1, 0, 0, 1, 112,1023) ">
<use xlink:href="#Layer0_44_FILL"/>
</g>

<g transform="matrix( 1, 0, 0, 1, 112,1023) ">
<use xlink:href="#Layer0_45_FILL"/>
</g>

<g transform="matrix( 1, 0, 0, 1, 112,1023) ">
<use xlink:href="#Layer0_46_FILL"/>
</g>

<g transform="matrix( 1, 0, 0, 1, 112,1023) ">
<use xlink:href="#Layer0_47_FILL"/>
</g>

<g transform="matrix( 1, 0, 0, 1, 112,1023) ">
<use xlink:href="#Layer0_48_FILL"/>
</g>

<g transform="matrix( 1, 0, 0, 1, 112,1023) ">
<use xlink:href="#Layer0_49_FILL"/>
</g>

<g transform="matrix( 1, 0, 0, 1, 112,1023) ">
<use xlink:href="#Layer0_50_FILL"/>
</g>

<g transform="matrix( 1, 0, 0, 1, 112,1023) ">
<use xlink:href="#Layer0_51_FILL"/>
</g>

<g transform="matrix( 1, 0, 0, 1, 112,1023) ">
<use xlink:href="#Layer0_52_FILL"/>
</g>

<g transform="matrix( 1, 0, 0, 1, 112,1023) ">
<use xlink:href="#Layer0_53_FILL"/>
</g>

<g transform="matrix( 1, 0, 0, 1, 112,1023) ">
<use xlink:href="#Layer0_54_FILL"/>
</g>

<g transform="matrix( 1, 0, 0, 1, 112,1023) ">
<use xlink:href="#Layer0_55_FILL"/>
</g>

<g transform="matrix( 1, 0, 0, 1, 112,1023) ">
<use xlink:href="#Layer0_56_FILL"/>
</g>

<g transform="matrix( 1, 0, 0, 1, 112,1023) ">
<use xlink:href="#Layer0_57_FILL"/>
</g>

<g transform="matrix( 1, 0, 0, 1, 112,1023) ">
<use xlink:href="#Layer0_58_FILL"/>
</g>

<g transform="matrix( 1, 0, 0, 1, 112,1023) ">
<use xlink:href="#Layer0_59_MEMBER_0_FILL"/>
</g>

<g transform="matrix( 1, 0, 0, 1, 112,1023) ">
<use xlink:href="#Layer0_60_FILL"/>
</g>

<g transform="matrix( 1, 0, 0, 1, 112,1023) ">
<use xlink:href="#Layer0_61_FILL"/>
</g>

<g transform="matrix( 1, 0, 0, 1, 112,1023) ">
<use xlink:href="#Layer0_62_MEMBER_0_FILL"/>
</g>

<g transform="matrix( 1, 0, 0, 1, 112,1023) ">
<use xlink:href="#Layer0_62_MEMBER_1_FILL"/>
</g>

<g transform="matrix( 1, 0, 0, 1, 112,1023) ">
<use xlink:href="#Layer0_62_MEMBER_2_FILL"/>
</g>

<g transform="matrix( 1, 0, 0, 1, 112,1023) ">
<use xlink:href="#Layer0_62_MEMBER_3_FILL"/>
</g>

<g transform="matrix( 1, 0, 0, 1, 112,1023) ">
<use xlink:href="#Layer0_63_FILL"/>
</g>
</svg>
