# Alias OBJ Model File
# Exported from SketchUp, (c) 2000-2012 Trimble Navigation Limited
# File units = meters

mtllib Bump_01.mtl

g Mesh1 Bump Model

usemtl Green
v 1.73259e-014 0.19 -3
vt 1.84048e-015 0.0633333
vn 7.61577e-015 -1.01321e-014 -1
v 3 0.19 -3
vt -1 0.0633333
v 3 0 -3
vt -1 1.01321e-014
v 1.73259e-014 0 -3
vt 1.84048e-015 1.01321e-014
f 1/1/1 2/2/1 3/3/1 4/4/1 

usemtl BackColor
vt 2.17379e-013 1.1967e-012
vn -7.61577e-015 1.01321e-014 1
vt -118.11 1.1967e-012
vt -118.11 7.48031
vt 2.17379e-013 7.48031
f 4/5/2 3/6/2 2/7/2 1/8/2 

usemtl Green
vt -5.77529e-015 1
vn 0 -1 -0
vt -1 1
v 3 0 -0
vt -1 0
v 0 0 -2.31012e-014
vt 0 7.70039e-015
f 4/9/3 3/10/3 5/11/3 6/12/3 

usemtl BackColor
vt 0 9.09495e-013
vn -0 1 0
vt -118.11 0
vt -118.11 118.11
vt -6.82121e-013 118.11
f 6/13/4 5/14/4 3/15/4 4/16/4 

usemtl Green
vt 1 9.38262e-044
vn -8.03887e-015 1.16716e-029 1
v 3 0.19 -0
vt 1 0.0633333
v 0 0.19 -2.31012e-014
vt -6.19024e-029 0.0633333
vt -6.19024e-029 8.98756e-044
f 5/17/5 7/18/5 8/19/5 6/20/5 

vn 1 0 6.18949e-015
vt 6.18949e-015 0.0633333
vt 6.18949e-015 0
vt 1 0
f 2/18/6 7/21/6 5/22/6 3/23/6 

vt 1 1
vn -1.46181e-016 1 -5.62236e-019
v 2.4 0.19 -1.5
vt 0.8 0.5
vt 1 -3.56083e-020
f 2/24/7 9/25/7 7/26/7

v 2.36933 0.19 -1.73294
vt 0.789778 0.577646
f 2/24/7 10/27/7 9/25/7

v 2.27942 0.19 -1.95
vt 0.759808 0.65
f 2/24/7 11/28/7 10/27/7

v 2.1364 0.19 -2.1364
vt 0.712132 0.712132
f 2/24/7 12/29/7 11/28/7

v 1.95 0.19 -2.27942
vt 0.65 0.759808
f 2/24/7 13/30/7 12/29/7

v 1.73294 0.19 -2.36933
vt 0.577646 0.789778
f 2/24/7 14/31/7 13/30/7

v 1.5 0.19 -2.4
vt 0.5 0.8
f 2/24/7 15/32/7 14/31/7

v 1.26706 0.19 -2.36933
vt 0.422354 0.789778
f 2/24/7 16/33/7 15/32/7

vt 5.78455e-015 1
f 1/34/7 16/33/7 2/24/7

v 1.05 0.19 -2.27942
vt 0.35 0.759808
f 16/33/7 1/34/7 17/35/7

usemtl BackColor
vt 118.11 118.11
vn 1.46181e-016 -1 5.62236e-019
vt 49.8844 93.2808
vt 6.83215e-013 118.11
f 2/36/8 16/37/8 1/38/8

vt 59.0551 94.4882
f 15/39/8 16/37/8 2/36/8

usemtl Green
vn 0 1 -0
v 0.863604 0.19 -2.1364
vt 0.287868 0.712132
v 0.720577 0.19 -1.95
vt 0.240192 0.65
v 0.630667 0.19 -1.73294
vt 0.210222 0.577646
v 0.6 0.19 -1.5
vt 0.2 0.5
v 0.630667 0.19 -1.26706
vt 0.210222 0.422354
v 0.720577 0.19 -1.05
vt 0.240192 0.35
v 0.863604 0.19 -0.863604
vt 0.287868 0.287868
v 1.05 0.19 -0.720577
vt 0.35 0.240192
v 1.26706 0.19 -0.630667
vt 0.422354 0.210222
v 1.5 0.19 -0.6
vt 0.5 0.2
v 1.73294 0.19 -0.630667
vt 0.577646 0.210222
v 1.95 0.19 -0.720577
vt 0.65 0.240192
v 2.1364 0.19 -0.863604
vt 0.712132 0.287868
v 2.27942 0.19 -1.05
vt 0.759808 0.35
v 2.36933 0.19 -1.26706
vt 0.789778 0.422354
f 12/29/9 13/30/9 14/31/9 15/32/9 16/33/9 17/35/9 18/40/9 19/41/9 20/42/9 21/43/9 22/44/9 23/45/9 24/46/9 25/47/9 26/48/9 27/49/9 28/50/9 29/51/9 30/52/9 31/53/9 32/54/9 9/25/9 10/27/9 11/28/9 

usemtl BackColor
vt 84.1101 84.1101
vt 76.7717 89.7411
f 12/55/8 13/56/8 2/36/8

vt 89.7411 76.7717
vn -0 -1 0
vt 93.2808 68.2259
vt 94.4882 59.0551
vt 93.2808 49.8844
vt 89.7411 41.3386
vt 84.1101 34.0002
vt 76.7717 28.3692
vt 68.2259 24.8294
vt 59.0551 23.622
vt 49.8844 24.8294
vt 41.3386 28.3692
vt 34.0002 34.0002
vt 28.3692 41.3386
vt 24.8294 49.8844
vt 23.622 59.0551
vt 24.8294 68.2259
vt 28.3692 76.7717
vt 34.0002 84.1101
vt 41.3386 89.7411
vt 68.2259 93.2808
f 11/57/10 10/58/10 9/59/10 32/60/10 31/61/10 30/62/10 29/63/10 28/64/10 27/65/10 26/66/10 25/67/10 24/68/10 23/69/10 22/70/10 21/71/10 20/72/10 19/73/10 18/74/10 17/75/10 16/37/10 15/39/10 14/76/10 13/56/10 12/55/10 

f 10/58/8 11/57/8 2/36/8

usemtl Green
vt 0.23144 -0.913846
vn 0.209539 0.976187 -0.0561457
vt 0.309756 -0.913846
vn 0.187867 0.976187 -0.108465
v 1.88971 0.29 -1.725
vt 0.290177 -0.761439
v 1.93467 0.29 -1.61647
vt 0.251019 -0.761439
f 10/77/11 11/78/12 33/79/12 34/80/11 

usemtl BackColor
vt 29.6479 -89.9337
vn -0.209539 -0.976187 0.0561457
vt 34.2729 -89.9337
vn -0.187867 -0.976187 0.108465
vt 36.5853 -107.935
vt 27.3355 -107.935
f 34/81/13 33/82/14 11/83/14 10/84/13 

usemtl Green
v 1.8182 0.29 -1.8182
vt 0.606066 0.606066
v 1.725 0.29 -1.88971
vt 0.575 0.629904
v 1.61647 0.29 -1.93467
vt 0.538823 0.644889
v 1.5 0.29 -1.95
vt 0.5 0.65
v 1.38353 0.29 -1.93467
vt 0.461177 0.644889
v 1.275 0.29 -1.88971
vt 0.425 0.629904
v 1.1818 0.29 -1.8182
vt 0.393934 0.606066
v 1.11029 0.29 -1.725
vt 0.370096 0.575
v 1.06533 0.29 -1.61647
vt 0.355111 0.538823
v 1.05 0.29 -1.5
vt 0.35 0.5
v 1.06533 0.29 -1.38353
vt 0.355111 0.461177
v 1.11029 0.29 -1.275
vt 0.370096 0.425
v 1.1818 0.29 -1.1818
vt 0.393934 0.393934
v 1.275 0.29 -1.11029
vt 0.425 0.370096
v 1.38353 0.29 -1.06533
vt 0.461177 0.355111
v 1.5 0.29 -1.05
vt 0.5 0.35
v 1.61647 0.29 -1.06533
vt 0.538823 0.355111
v 1.725 0.29 -1.11029
vt 0.575 0.370096
v 1.8182 0.29 -1.1818
vt 0.606066 0.393934
v 1.88971 0.29 -1.275
vt 0.629904 0.425
v 1.93467 0.29 -1.38353
vt 0.644889 0.461177
v 1.95 0.29 -1.5
vt 0.65 0.5
vt 0.644889 0.538823
vt 0.629904 0.575
f 35/85/9 36/86/9 37/87/9 38/88/9 39/89/9 40/90/9 41/91/9 42/92/9 43/93/9 44/94/9 45/95/9 46/96/9 47/97/9 48/98/9 49/99/9 50/100/9 51/101/9 52/102/9 53/103/9 54/104/9 55/105/9 56/106/9 34/107/9 33/108/9 

usemtl BackColor
vt 74.3981 67.9134
vt 76.168 63.6405
vt 76.7717 59.0551
vt 76.168 54.4697
vt 74.3981 50.1969
vt 71.5826 46.5276
vt 67.9134 43.7121
vt 63.6405 41.9423
vt 59.0551 41.3386
vt 54.4697 41.9423
vt 50.1969 43.7121
vt 46.5276 46.5276
vt 43.7121 50.1969
vt 41.9423 54.4697
vt 41.3386 59.0551
vt 41.9423 63.6405
vt 43.7121 67.9134
vt 46.5276 71.5826
vt 50.1969 74.3981
vt 54.4697 76.168
vt 59.0551 76.7717
vt 63.6405 76.168
vt 67.9134 74.3981
vt 71.5826 71.5826
f 33/109/10 34/110/10 56/111/10 55/112/10 54/113/10 53/114/10 52/115/10 51/116/10 50/117/10 49/118/10 48/119/10 47/120/10 46/121/10 45/122/10 44/123/10 43/124/10 42/125/10 41/126/10 40/127/10 39/128/10 38/129/10 37/130/10 36/131/10 35/132/10 

usemtl Green
vt 0.391301 -0.823784
vn 0.21693 0.976187 3.38409e-016
vt 0.469617 -0.823784
vt 0.450038 -0.671378
vt 0.41088 -0.671378
f 9/133/15 10/134/11 34/135/11 56/136/15 

usemtl BackColor
f 9/59/8 10/58/8 2/36/8

vt 48.5292 -79.2966
vn -0.21693 -0.976187 -3.38409e-016
vt 53.1541 -79.2966
vt 55.4666 -97.2973
vt 46.2167 -97.2973
f 56/137/16 34/138/13 10/139/13 9/140/16 

usemtl Green
vt 0.521828 -0.696418
vn 0.209539 0.976187 0.0561457
vt 0.600143 -0.696418
vt 0.580564 -0.544011
vt 0.541407 -0.544011
f 32/141/17 9/142/15 56/143/15 55/144/17 

f 32/54/7 7/26/7 9/25/7

f 31/53/7 7/26/7 32/54/7

f 30/52/7 7/26/7 31/53/7

f 29/51/7 7/26/7 30/52/7

f 28/50/7 7/26/7 29/51/7

f 27/49/7 7/26/7 28/50/7

f 26/48/7 7/26/7 27/49/7

vt 9.25816e-018 7.70035e-015
f 26/48/7 8/145/7 7/26/7

f 25/47/7 8/145/7 26/48/7

f 24/46/7 8/145/7 25/47/7

f 23/45/7 8/145/7 24/46/7

f 22/44/7 8/145/7 23/45/7

f 8/145/7 22/44/7 1/34/7

usemtl BackColor
vt 1.09348e-015 9.0949e-013
f 1/38/8 22/70/8 8/146/8

usemtl Green
f 1/34/7 22/44/7 21/43/7

usemtl BackColor
f 21/71/8 22/70/8 1/38/8

usemtl Green
vt -0.41088 0.42343
vn -0.209539 0.976187 0.0561457
vt -0.450038 0.42343
vn -0.21693 0.976187 3.15848e-016
vt -0.469617 0.271023
vt -0.391301 0.271023
f 45/147/18 44/148/19 21/149/19 22/150/18 

usemtl BackColor
vt -46.2167 32.0106
vn 0.209539 -0.976187 -0.0561457
vt -55.4666 32.0106
vn 0.21693 -0.976187 -3.15848e-016
vt -53.1541 50.0114
vt -48.5292 50.0114
f 22/151/20 21/152/21 44/153/21 45/154/20 

usemtl Green
vt -0.541407 0.296064
vt -0.580564 0.296064
vn -0.209539 0.976187 -0.0561457
vt -0.600143 0.143657
vt -0.521828 0.143657
f 44/155/19 43/156/22 20/157/22 21/158/19 

usemtl BackColor
vt -61.6332 16.9674
vt -70.8831 16.9674
vn 0.209539 -0.976187 0.0561457
vt -68.5706 34.9681
vt -63.9457 34.9681
f 21/159/21 20/160/23 43/161/23 44/162/21 

usemtl Green
f 20/42/7 1/34/7 21/43/7

f 19/41/7 1/34/7 20/42/7

f 18/40/7 1/34/7 19/41/7

f 17/35/7 1/34/7 18/40/7

usemtl BackColor
f 17/75/8 1/38/8 16/37/8

f 18/74/8 1/38/8 17/75/8

f 19/73/8 1/38/8 18/74/8

f 20/72/8 1/38/8 19/73/8

f 21/71/8 1/38/8 20/72/8

usemtl Green
vt -0.633703 0.140073
vt -0.67286 0.140073
vn -0.187867 0.976187 -0.108465
vt -0.692439 -0.0123339
vt -0.614124 -0.0123339
f 43/163/22 42/164/24 19/165/24 20/166/22 

usemtl BackColor
vt -72.5343 -1.45676
vt -81.7842 -1.45676
vn 0.187867 -0.976187 0.108465
vt -79.4717 16.544
vt -74.8468 16.544
f 20/167/23 19/168/25 42/169/25 43/170/23 

usemtl Green
vt -0.681478 -0.0339125
vt -0.720636 -0.0339125
vn -0.153393 0.976187 -0.153393
vt -0.740215 -0.186319
vt -0.6619 -0.186319
f 42/171/24 41/172/26 18/173/26 19/174/24 

usemtl BackColor
vt -78.1771 -22.0062
vt -87.427 -22.0062
vn 0.153393 -0.976187 0.153393
vt -85.1145 -4.00541
vt -80.4896 -4.00541
f 19/175/25 18/176/27 41/177/27 42/178/25 

usemtl Green
vt -0.6619 -0.366442
vt -0.681478 -0.214035
vt -0.720636 -0.214035
vn -0.108465 0.976187 -0.187867
vt -0.740215 -0.366442
f 18/179/26 41/180/26 40/181/28 17/182/28 

usemtl BackColor
vt -87.427 -43.2805
vn 0.108465 -0.976187 0.187867
vt -85.1145 -25.2798
vt -80.4896 -25.2798
vt -78.1771 -43.2805
f 17/183/29 40/184/29 41/185/27 18/186/27 

usemtl Green
vt -0.614124 -0.540427
vt -0.633703 -0.388021
vt -0.67286 -0.388021
vn -0.0561457 0.976187 -0.209539
vt -0.692439 -0.540427
f 17/187/28 40/188/28 39/189/30 16/190/30 

usemtl BackColor
vt -81.7842 -63.83
vn 0.0561457 -0.976187 0.209539
vt -79.4717 -45.8292
vt -74.8468 -45.8292
vt -72.5343 -63.83
f 16/191/31 39/192/31 40/193/29 17/194/29 

usemtl Green
vt -0.521828 -0.696418
vt -0.541407 -0.544011
vt -0.580564 -0.544011
vn 6.14342e-016 0.976187 -0.21693
vt -0.600143 -0.696418
f 16/195/30 39/196/30 38/197/32 15/198/32 

usemtl BackColor
vt -70.8831 -82.2541
vn -6.14342e-016 -0.976187 0.21693
vt -68.5706 -64.2533
vt -63.9457 -64.2533
vt -61.6332 -82.2541
f 15/199/33 38/200/33 39/201/31 16/202/31 

usemtl Green
vt -0.391301 -0.823784
vt -0.41088 -0.671378
vt -0.450038 -0.671378
vn 0.0561457 0.976187 -0.209539
vt -0.469617 -0.823784
f 15/203/32 38/204/32 37/205/34 14/206/34 

usemtl BackColor
vt -55.4666 -97.2973
vn -0.0561457 -0.976187 0.209539
vt -53.1541 -79.2966
vt -48.5292 -79.2966
vt -46.2167 -97.2973
f 14/207/35 37/208/35 38/209/33 15/210/33 

usemtl Green
vt -0.23144 -0.913846
vt -0.251019 -0.761439
vt -0.290177 -0.761439
vn 0.108465 0.976187 -0.187867
vt -0.309756 -0.913846
f 14/211/34 37/212/34 36/213/36 13/214/36 

usemtl BackColor
vt -36.5853 -107.935
vn -0.108465 -0.976187 0.187867
vt -34.2729 -89.9337
vt -29.6479 -89.9337
vt -27.3355 -107.935
f 13/215/37 36/216/37 37/217/35 14/218/35 

usemtl Green
vt -0.0531381 -0.960465
vt -0.072717 -0.808058
vt -0.111875 -0.808058
vn 0.153393 0.976187 -0.153393
vt -0.131454 -0.960465
f 13/219/36 36/220/36 35/221/38 12/222/38 

usemtl BackColor
vt -15.526 -113.441
vn -0.153393 -0.976187 0.153393
vt -13.2136 -95.4399
vt -8.58863 -95.4399
vt -6.27615 -113.441
f 12/223/39 35/224/39 36/225/37 13/226/37 

usemtl Green
vt 0.0531381 -0.960465
vt 0.131454 -0.960465
vt 0.111875 -0.808058
vt 0.072717 -0.808058
f 11/227/12 12/228/38 35/229/38 33/230/12 

usemtl BackColor
f 11/57/8 12/55/8 2/36/8

vt 8.58863 -95.4399
vt 13.2136 -95.4399
vt 15.526 -113.441
vt 6.27615 -113.441
f 33/231/14 35/232/39 12/233/39 11/234/14 

f 13/56/8 14/76/8 2/36/8

f 14/76/8 15/39/8 2/36/8

usemtl Green
vt -0.251019 0.513491
vn -0.187867 0.976187 0.108465
vt -0.290177 0.513491
vt -0.309756 0.361084
vt -0.23144 0.361084
f 46/235/40 45/236/18 22/237/18 23/238/40 

usemtl BackColor
vt -27.3355 42.6478
vn 0.187867 -0.976187 -0.108465
vt -36.5853 42.6478
vt -34.2729 60.6486
vt -29.6479 60.6486
f 23/239/41 22/240/20 45/241/20 46/242/41 

f 23/69/8 8/146/8 22/70/8

f 24/68/8 8/146/8 23/69/8

f 25/67/8 8/146/8 24/68/8

f 26/66/8 8/146/8 25/67/8

vt 118.11 -4.2057e-018
f 7/243/8 8/146/8 26/66/8

vt -7.31131e-027 1.06152e-041
vn 8.03887e-015 -1.16716e-029 -1
vt -7.31131e-027 7.48031
vt 118.11 7.48031
vt 118.11 1.10818e-041
f 6/244/42 8/245/42 7/246/42 5/247/42 

usemtl Green
vt -7.70039e-015 0
vn -1 0 -6.18949e-015
vt -7.70039e-015 0.0633333
f 6/248/43 8/249/43 1/2/43 4/11/43 

usemtl BackColor
vn 1 -0 6.18949e-015
vt -9.09495e-013 7.48031
vt -9.09495e-013 0
f 4/14/44 1/7/44 8/250/44 6/251/44 

vt 118.11 0
vn -1 -0 -6.18949e-015
vt 7.31043e-013 0
vt 7.31043e-013 7.48031
f 3/252/45 5/253/45 7/254/45 2/246/45 

f 7/243/8 9/59/8 2/36/8

f 9/59/8 7/243/8 32/60/8

f 32/60/8 7/243/8 31/61/8

f 31/61/8 7/243/8 30/62/8

f 30/62/8 7/243/8 29/63/8

f 29/63/8 7/243/8 28/64/8

f 28/64/8 7/243/8 27/65/8

f 27/65/8 7/243/8 26/66/8

usemtl Green
vt 0.469617 0.271023
vn 5.91782e-016 0.976187 0.21693
vt 0.450038 0.42343
vt 0.41088 0.42343
vn -0.0561457 0.976187 0.209539
vt 0.391301 0.271023
f 27/255/46 50/256/46 49/257/47 26/258/47 

usemtl BackColor
vt 46.2167 32.0106
vn 0.0561457 -0.976187 -0.209539
vt 48.5292 50.0114
vt 53.1541 50.0114
vn -5.91782e-016 -0.976187 -0.21693
vt 55.4666 32.0106
f 26/259/48 49/260/48 50/261/49 27/262/49 

usemtl Green
vt 0.309756 0.361084
vt 0.290177 0.513491
vt 0.251019 0.513491
vn -0.108465 0.976187 0.187867
vt 0.23144 0.361084
f 26/263/47 49/264/47 48/265/50 25/266/50 

usemtl BackColor
vt 27.3355 42.6478
vn 0.108465 -0.976187 -0.187867
vt 29.6479 60.6486
vt 34.2729 60.6486
vt 36.5853 42.6478
f 25/267/51 48/268/51 49/269/48 26/270/48 

usemtl Green
vt 0.131454 0.407704
vt 0.111875 0.56011
vt 0.072717 0.56011
vn -0.153393 0.976187 0.153393
vt 0.0531381 0.407704
f 25/271/50 48/272/50 47/273/52 24/274/52 

usemtl BackColor
vt 6.27615 48.154
vn 0.153393 -0.976187 -0.153393
vt 8.58863 66.1548
vt 13.2136 66.1548
vt 15.526 48.154
f 24/275/53 47/276/53 48/277/51 25/278/51 

usemtl Green
vt -0.072717 0.56011
vt -0.111875 0.56011
vt -0.131454 0.407704
vt -0.0531381 0.407704
f 47/279/52 46/280/40 23/281/40 24/282/52 

usemtl BackColor
vt -6.27615 48.154
vt -15.526 48.154
vt -13.2136 66.1548
vt -8.58863 66.1548
f 24/283/53 23/284/41 46/285/41 47/286/53 

usemtl Green
vt 0.600143 0.143657
vn 0.0561457 0.976187 0.209539
vt 0.580564 0.296064
vt 0.541407 0.296064
vt 0.521828 0.143657
f 28/287/54 51/288/54 50/289/46 27/290/46 

usemtl BackColor
vt 61.6332 16.9674
vt 63.9457 34.9681
vt 68.5706 34.9681
vn -0.0561457 -0.976187 -0.209539
vt 70.8831 16.9674
f 27/291/49 50/292/49 51/293/55 28/294/55 

usemtl Green
vt 0.692439 -0.0123339
vn 0.108465 0.976187 0.187867
vt 0.67286 0.140073
vt 0.633703 0.140073
vt 0.614124 -0.0123339
f 29/295/56 52/296/56 51/297/54 28/298/54 

usemtl BackColor
vt 72.5343 -1.45676
vt 74.8468 16.544
vt 79.4717 16.544
vn -0.108465 -0.976187 -0.187867
vt 81.7842 -1.45676
f 28/299/55 51/300/55 52/301/57 29/302/57 

usemtl Green
vt 0.740215 -0.186319
vn 0.153393 0.976187 0.153393
vt 0.720636 -0.0339125
vt 0.681478 -0.0339125
vt 0.6619 -0.186319
f 30/303/58 53/304/58 52/305/56 29/306/56 

usemtl BackColor
vt 78.1771 -22.0062
vt 80.4896 -4.00541
vt 85.1145 -4.00541
vn -0.153393 -0.976187 -0.153393
vt 87.427 -22.0062
f 29/307/57 52/308/57 53/309/59 30/310/59 

usemtl Green
vt 0.6619 -0.366442
vt 0.740215 -0.366442
vn 0.187867 0.976187 0.108465
vt 0.720636 -0.214035
vt 0.681478 -0.214035
f 30/311/58 31/312/60 54/313/60 53/314/58 

usemtl BackColor
vt 80.4896 -25.2798
vt 85.1145 -25.2798
vn -0.187867 -0.976187 -0.108465
vt 87.427 -43.2805
vt 78.1771 -43.2805
f 53/315/59 54/316/61 31/317/61 30/318/59 

usemtl Green
vt 0.614124 -0.540427
vt 0.692439 -0.540427
vt 0.67286 -0.388021
vt 0.633703 -0.388021
f 31/319/60 32/320/17 55/321/17 54/322/60 

usemtl BackColor
vt 74.8468 -45.8292
vt 79.4717 -45.8292
vn -0.209539 -0.976187 -0.0561457
vt 81.7842 -63.83
vt 72.5343 -63.83
f 54/323/61 55/324/62 32/325/62 31/326/61 

vt 63.9457 -64.2533
vt 68.5706 -64.2533
vt 70.8831 -82.2541
vt 61.6332 -82.2541
f 55/327/62 56/328/16 9/329/16 32/330/62 

