# Alias OBJ Model File
# Exported from SketchUp, (c) 2000-2012 Trimble Navigation Limited
# File units = meters

mtllib Castle_01.mtl

g Mesh1 Castle Model

usemtl Red
v 0.3 0.44 -3
vt -0.1 0.146667
vn 2.98845e-015 -5.85484e-016 -1
v 0.3 0.19 -3
vt -0.1 0.0633333
v 0.3 0 -3
vt -0.1 5.85484e-016
v 1.73259e-014 0 -3
vt -2.78684e-015 5.85484e-016
v 1.73259e-014 0.44 -3
vt -2.78684e-015 0.146667
f 1/1/1 2/2/1 3/3/1 4/4/1 5/5/1 

usemtl BackColor
vt -3.29155e-013 17.3228
vn -2.98845e-015 5.85484e-016 1
vt -3.29155e-013 6.91517e-014
vt -11.811 6.91517e-014
vt -11.811 7.48031
vt -11.811 17.3228
f 5/6/2 4/7/2 3/8/2 2/9/2 1/10/2 

usemtl Red
v 0 0 -2.31012e-014
vt -7.70039e-015 0
vn -1 0 -6.18949e-015
v 0 0.44 -2.31012e-014
vt -7.70039e-015 0.146667
vt -1 0.146667
vt -1 0
f 6/11/3 7/12/3 5/13/3 4/14/3 

usemtl BackColor
vt -118.11 0
vn 1 -0 6.18949e-015
vt -118.11 17.3228
vt -9.09495e-013 17.3228
vt -9.09495e-013 0
f 4/15/4 5/16/4 7/17/4 6/18/4 

usemtl Red
vt 0.1 1
vn 0 1 -0
vt 5.77529e-015 1
vt 0 7.70039e-015
v 0.3 0.44 -1.73259e-014
vt 0.1 5.77529e-015
v 0.3 0.44 -1.5
vt 0.1 0.5
v 0.3 0.44 -2.25
vt 0.1 0.75
f 1/19/5 5/20/5 7/21/5 8/22/5 9/23/5 10/24/5 

usemtl BackColor
vt 11.811 88.5827
vn -0 -1 0
vt 11.811 59.0551
vt 11.811 6.82121e-013
vt 0 9.09495e-013
vt 6.82121e-013 118.11
vt 11.811 118.11
f 10/25/6 9/26/6 8/27/6 7/28/6 5/29/6 1/30/6 

usemtl Brown
vt -0.75 0.146667
vn -1 0 -7.70039e-015
vt -0.5 0.146667
v 0.3 1.64 -1.5
vt -0.5 0.546667
v 0.3 1.64 -2.25
vt -0.75 0.546667
f 10/31/7 9/32/7 11/33/7 12/34/7 

usemtl BackColor
vt -88.5827 64.5669
vn 1 -0 7.70039e-015
vt -59.0551 64.5669
vt -59.0551 17.3228
vt -88.5827 17.3228
f 12/35/8 11/36/8 9/37/8 10/38/8 

usemtl Red
vt -0.5 0.419587
vn -0.624695 0.780869 -4.82627e-015
v 0.675 1.94 -1.5
vt -0.5 0.579665
v 0.675 1.94 -2.25
vt -0.75 0.579665
vt -0.75 0.419587
f 11/39/9 13/40/9 14/41/9 12/42/9 

usemtl BackColor
vt -88.5827 49.5575
vn 0.624695 -0.780869 4.82627e-015
vt -88.5827 68.4644
vt -59.0551 68.4644
vt -59.0551 49.5575
f 12/43/10 14/44/10 13/45/10 11/46/10 

usemtl Brown
v 2.7 0.44 -2.25
vt -0.9 0.146667
vn 7.0653e-015 -4.27799e-017 -1
v 2.7 0.19 -2.25
vt -0.9 0.0633333
v 1.725 0.19 -2.25
vt -0.575 0.0633333
v 1.725 0.715 -2.25
vt -0.575 0.238333
v 1.71206 0.768191 -2.25
vt -0.570687 0.256064
v 1.68674 0.816727 -2.25
vt -0.562247 0.272242
v 1.65052 0.857772 -2.25
vt -0.550173 0.285924
v 1.60551 0.888932 -2.25
vt -0.53517 0.296311
v 1.55434 0.908386 -2.25
vt -0.518114 0.302795
v 1.5 0.915 -2.25
vt -0.5 0.305
v 1.44566 0.908386 -2.25
vt -0.481886 0.302795
v 1.39449 0.888932 -2.25
vt -0.46483 0.296311
v 1.34948 0.857772 -2.25
vt -0.449827 0.285924
v 1.31326 0.816727 -2.25
vt -0.437753 0.272242
v 1.28794 0.768191 -2.25
vt -0.429313 0.256064
v 1.275 0.715 -2.25
vt -0.425 0.238333
v 1.275 0.19 -2.25
vt -0.425 0.0633333
v 0.3 0.19 -2.25
vt -0.1 0.546667
vt -0.225 0.646667
v 1.05 1.64 -2.25
vt -0.35 0.546667
v 1.05 1.24 -2.25
vt -0.35 0.413333
v 1.95 1.24 -2.25
vt -0.65 0.413333
v 1.95 1.64 -2.25
vt -0.65 0.546667
v 2.325 1.94 -2.25
vt -0.775 0.646667
v 2.7 1.64 -2.25
vt -0.9 0.546667
f 15/47/11 16/48/11 17/49/11 18/50/11 19/51/11 20/52/11 21/53/11 22/54/11 23/55/11 24/56/11 25/57/11 26/58/11 27/59/11 28/60/11 29/61/11 30/62/11 31/63/11 32/2/11 10/1/11 12/64/11 14/65/11 33/66/11 34/67/11 35/68/11 36/69/11 37/70/11 38/71/11 

usemtl BackColor
vt -106.299 64.5669
vn -7.0653e-015 4.27799e-017 1
vt -91.5354 76.378
vt -76.7717 64.5669
vt -76.7717 48.8189
vt -41.3386 48.8189
vt -41.3386 64.5669
vt -26.5748 76.378
vt -11.811 64.5669
vt -50.1969 7.48031
vt -50.1969 28.1496
vt -50.7063 30.2438
vt -51.7031 32.1546
vt -53.1291 33.7706
vt -54.9012 34.9973
vt -56.9157 35.7632
vt -59.0551 36.0236
vt -61.1946 35.7632
vt -63.2091 34.9973
vt -64.9811 33.7706
vt -66.4071 32.1546
vt -67.404 30.2438
vt -67.9134 28.1496
vt -67.9134 7.48031
vt -106.299 7.48031
vt -106.299 17.3228
f 38/72/12 37/73/12 36/74/12 35/75/12 34/76/12 33/77/12 14/78/12 12/79/12 10/10/12 32/9/12 31/80/12 30/81/12 29/82/12 28/83/12 27/84/12 26/85/12 25/86/12 24/87/12 23/88/12 22/89/12 21/90/12 20/91/12 19/92/12 18/93/12 17/94/12 16/95/12 15/96/12 

usemtl Red
vt 0.75 -0.361282
vn 0.624695 0.780869 4.811e-015
vt 0.75 -0.201204
v 2.325 1.94 -1.5
vt 0.5 -0.201204
v 2.7 1.64 -1.5
vt 0.5 -0.361282
f 38/97/13 37/98/13 39/99/13 40/100/13 

usemtl BackColor
vt 59.0551 -42.6711
vn -0.624695 -0.780869 -4.811e-015
vt 59.0551 -23.7642
vt 88.5827 -23.7642
vt 88.5827 -42.6711
f 40/101/14 39/102/14 37/103/14 38/104/14 

usemtl Brown
v 1.95 1.24 -1.5
vt 0.65 0.413333
vn -5.41015e-015 -2.20167e-015 1
v 1.05 1.24 -1.5
vt 0.35 0.413333
v 1.05 1.64 -1.5
vt 0.35 0.546667
vt 0.225 0.646667
vt 0.1 0.546667
vt 0.1 0.146667
v 0.3 0.19 -1.5
vt 0.1 0.0633333
v 1.275 0.19 -1.5
vt 0.425 0.0633333
v 1.275 0.715 -1.5
vt 0.425 0.238333
v 1.28794 0.768191 -1.5
vt 0.429313 0.256064
v 1.31326 0.816727 -1.5
vt 0.437753 0.272242
v 1.34948 0.857772 -1.5
vt 0.449827 0.285924
v 1.39449 0.888932 -1.5
vt 0.46483 0.296311
v 1.44566 0.908386 -1.5
vt 0.481886 0.302795
v 1.5 0.915 -1.5
vt 0.5 0.305
v 1.55434 0.908386 -1.5
vt 0.518114 0.302795
v 1.60551 0.888932 -1.5
vt 0.53517 0.296311
v 1.65052 0.857772 -1.5
vt 0.550173 0.285924
v 1.68674 0.816727 -1.5
vt 0.562247 0.272242
v 1.71206 0.768191 -1.5
vt 0.570687 0.256064
v 1.725 0.715 -1.5
vt 0.575 0.238333
v 1.725 0.19 -1.5
vt 0.575 0.0633333
v 2.7 0.19 -1.5
vt 0.9 0.0633333
v 2.7 0.44 -1.5
vt 0.9 0.146667
vt 0.9 0.546667
vt 0.775 0.646667
v 1.95 1.64 -1.5
vt 0.65 0.546667
f 41/105/15 42/106/15 43/107/15 13/108/15 11/109/15 9/110/15 44/111/15 45/112/15 46/113/15 47/114/15 48/115/15 49/116/15 50/117/15 51/118/15 52/119/15 53/120/15 54/121/15 55/122/15 56/123/15 57/124/15 58/125/15 59/126/15 60/127/15 61/128/15 40/129/15 39/130/15 62/131/15 

usemtl BackColor
vt 76.7717 64.5669
vn 5.41015e-015 2.20167e-015 -1
vt 91.5354 76.378
vt 106.299 64.5669
vt 106.299 17.3228
vt 106.299 7.48031
vt 67.9134 7.48031
vt 67.9134 28.1496
vt 67.404 30.2438
vt 66.4071 32.1546
vt 64.9811 33.7706
vt 63.2091 34.9973
vt 61.1946 35.7632
vt 59.0551 36.0236
vt 56.9157 35.7632
vt 54.9012 34.9973
vt 53.1291 33.7706
vt 51.7031 32.1546
vt 50.7063 30.2438
vt 50.1969 28.1496
vt 50.1969 7.48031
vt 11.811 7.48031
vt 11.811 17.3228
vt 11.811 64.5669
vt 26.5748 76.378
vt 41.3386 64.5669
vt 41.3386 48.8189
vt 76.7717 48.8189
f 62/132/16 39/133/16 40/134/16 61/135/16 60/136/16 59/137/16 58/138/16 57/139/16 56/140/16 55/141/16 54/142/16 53/143/16 52/144/16 51/145/16 50/146/16 49/147/16 48/148/16 47/149/16 46/150/16 45/151/16 44/152/16 9/153/16 11/154/16 13/155/16 43/156/16 42/157/16 41/158/16 

usemtl Red
vt -0.5 0.849065
vn -0.624695 0.780869 -2.40295e-015
vt -0.5 1.00914
vt -0.75 1.00914
vt -0.75 0.849065
f 62/159/17 39/160/17 37/161/17 36/162/17 

usemtl BackColor
vt -88.5827 100.283
vn 0.624695 -0.780869 2.40295e-015
vt -88.5827 119.19
vt -59.0551 119.19
vt -59.0551 100.283
f 36/163/18 37/164/18 39/165/18 62/166/18 

usemtl Brown
vt -0.75 0.413333
vn -1 0 -0
v 1.95 1.44 -1.875
vt -0.625 0.48
vt -0.5 0.413333
f 35/167/19 63/168/19 41/169/19 62/33/19 36/34/19 

usemtl Red
vt -0.35 -0.467255
vn 4.35843e-015 0.882353 -0.470588
v 1.05 1.44 -1.875
vt -0.35 -0.325588
vt -0.65 -0.325588
vt -0.65 -0.467255
f 34/170/20 64/171/20 63/172/20 35/173/20 

usemtl BackColor
vt -76.7717 -55.1876
vn -4.35843e-015 -0.882353 0.470588
vt -76.7717 -38.4553
vt -41.3386 -38.4553
vt -41.3386 -55.1876
f 35/174/21 63/175/21 64/176/21 34/177/21 

vn 1 -0 0
vt -59.0551 48.8189
vt -73.8189 56.6929
vt -88.5827 48.8189
f 36/35/22 62/36/22 41/178/22 63/179/22 35/180/22 

usemtl Red
vt 0.65 0.635686
vn -6.2307e-015 0.882353 0.470588
vt 0.65 0.777353
vt 0.35 0.777353
vt 0.35 0.635686
f 41/181/23 63/182/23 64/183/23 42/184/23 

usemtl BackColor
vt 41.3386 75.0811
vn 6.2307e-015 -0.882353 -0.470588
vt 41.3386 91.8133
vt 76.7717 91.8133
vt 76.7717 75.0811
f 42/185/24 64/186/24 63/187/24 41/188/24 

usemtl Brown
vt 0.625 0.48
vn 1 0 -0
vt 0.75 0.413333
vt 0.75 0.546667
vt 0.5 0.546667
vt 0.5 0.413333
f 64/189/25 34/190/25 33/191/25 43/192/25 42/193/25 

usemtl BackColor
vt 59.0551 48.8189
vn -1 -0 0
vt 59.0551 64.5669
vt 88.5827 64.5669
vt 88.5827 48.8189
vt 73.8189 56.6929
f 42/194/26 43/195/26 33/196/26 34/197/26 64/198/26 

usemtl Red
vt 0.75 0.0681959
vn 0.624695 0.780869 2.39786e-015
vt 0.75 0.228274
vt 0.5 0.228274
vt 0.5 0.0681959
f 33/199/27 14/200/27 13/201/27 43/202/27 

usemtl BackColor
vt 59.0551 8.05463
vn -0.624695 -0.780869 -2.39786e-015
vt 59.0551 26.9615
vt 88.5827 26.9615
vt 88.5827 8.05463
f 43/203/28 13/204/28 14/205/28 33/206/28 

usemtl Brown
vt 0.5 0.146667
vn 1 0 7.70039e-015
vt 0.75 0.146667
f 61/207/29 15/208/29 38/191/29 40/192/29 

usemtl Red
v 3 0.44 -3
vt 1 1
v 2.7 0.44 -3
vt 0.9 1
vt 0.9 0.75
vt 0.9 0.5
v 2.7 0.44 -0
vt 0.9 0
v 3 0.44 -0
vt 1 0
f 65/209/5 66/210/5 15/211/5 61/212/5 67/213/5 68/214/5 

usemtl BackColor
vt 118.11 0
vt 106.299 0
vt 106.299 59.0551
vt 106.299 88.5827
vt 106.299 118.11
vt 118.11 118.11
f 68/215/6 67/216/6 61/217/6 15/218/6 66/219/6 65/220/6 

usemtl Red
vn -4.81274e-015 1.60311e-032 1
v 2.7 0.19 -0
v 2.7 0 -0
vt 0.9 6.9438e-047
v 3 0 -0
vt 1 7.71534e-047
vt 1 0.146667
f 67/128/30 69/127/30 70/221/30 71/222/30 68/223/30 

usemtl BackColor
vt 118.11 17.3228
vn 4.81274e-015 -1.60311e-032 -1
vt 118.11 9.1126e-045
vt 106.299 8.20134e-045
f 68/224/31 71/225/31 70/226/31 69/136/31 67/135/31 

usemtl Red
vn 1 0 6.18949e-015
vt 6.18949e-015 0.146667
vt 6.18949e-015 0
v 3 0 -3
f 65/223/32 68/227/32 71/228/32 72/214/32 

usemtl BackColor
vn -1 -0 -6.18949e-015
vt 7.31043e-013 0
vt 7.31043e-013 17.3228
f 72/215/33 71/229/33 68/230/33 65/224/33 

usemtl Red
v 2.7 0 -3
vt -0.9 1
vn 0 -1 -0
vt -1 1
vt -0.9 0
v 0.3 0 -1.73259e-014
vt -0.1 5.77529e-015
vt -5.77529e-015 1
vt -0.1 1
f 73/231/34 72/232/34 71/14/34 70/233/34 74/234/34 6/21/34 4/235/34 3/236/34 

usemtl BackColor
vt -11.811 118.11
vn -0 1 0
vt -6.82121e-013 118.11
vt -11.811 6.82121e-013
vt -106.299 0
vt -118.11 118.11
vt -106.299 118.11
f 3/237/35 4/238/35 6/28/35 74/239/35 70/240/35 71/15/35 72/241/35 73/242/35 

usemtl Red
vt -8.66737e-029 -6.01128e-030
vn -1.12558e-014 -7.80646e-016 1
vt 0.1 -5.38713e-030
v 0.3 0.19 -1.73259e-014
vt -8.66737e-029 0.146667
f 6/243/36 74/244/36 75/111/36 8/110/36 7/245/36 

usemtl BackColor
vt -1.0237e-026 17.3228
vn 1.12558e-014 7.80646e-016 -1
vt 11.811 -6.36275e-028
vt -1.0237e-026 -7.09993e-028
f 7/246/37 8/153/37 75/152/37 74/247/37 6/248/37 

usemtl Red
vt 0.5 0.0633333
vn 1 2.9181e-029 7.70039e-015
vt 6.54533e-015 0.146667
vt 6.54533e-015 0.0633333
f 44/249/38 9/207/38 8/250/38 75/251/38 

usemtl BackColor
vt 7.7307e-013 7.48031
vn -1 -2.9181e-029 -7.70039e-015
vt 7.7307e-013 17.3228
vt 59.0551 17.3228
vt 59.0551 7.48031
f 75/252/39 8/253/39 9/254/39 44/255/39 

usemtl Green
vt 0.575 0.5
vt 0.575 0.75
vt 0.425 0.75
vt 0.425 0.5
f 60/212/5 59/256/5 17/257/5 31/258/5 45/259/5 44/23/5 75/22/5 69/213/5 

usemtl BackColor
vt 50.1969 59.0551
vt 50.1969 88.5827
vt 67.9134 88.5827
vt 67.9134 59.0551
f 69/216/6 75/27/6 44/26/6 45/260/6 31/261/6 17/262/6 59/263/6 60/217/6 

usemtl Green
vt 0.1 -1.22003e-029
vn -6.46712e-015 -1.89977e-015 1
vt 0.9 -1.10574e-029
f 74/264/40 70/265/40 69/127/40 75/111/40 

usemtl BackColor
vn 6.46712e-015 1.89977e-015 -1
vt 106.299 -1.30599e-027
vt 11.811 -1.44098e-027
f 75/152/41 69/136/41 70/266/41 74/267/41 

usemtl Brown
vt 0.5 0.238333
vt 0.75 0.0633333
vt 0.75 0.238333
f 46/268/25 45/249/25 31/269/25 30/270/25 

usemtl BackColor
vt 88.5827 28.1496
vt 88.5827 7.48031
vt 59.0551 28.1496
f 30/271/26 31/272/26 45/255/26 46/273/26 

usemtl Brown
vt 0.5 0.350281
vn 0.935993 -0.352018 -0
vt 0.5 0.332034
vn 0.971665 -0.236361 -0
vt 0.75 0.332034
vt 0.75 0.350281
f 47/274/42 46/275/43 30/276/43 29/277/42 

usemtl BackColor
vt 88.5827 41.3718
vn -0.935993 0.352018 0
vt 88.5827 39.2166
vn -0.971665 0.236361 0
vt 59.0551 39.2166
vt 59.0551 41.3718
f 29/278/44 30/279/45 46/280/45 47/281/44 

usemtl Brown
vt 0.5 0.443841
vn 0.824239 -0.566242 -0
vt 0.5 0.425594
vt 0.75 0.425594
vt 0.75 0.443841
f 48/282/46 47/283/42 29/284/42 28/285/46 

usemtl BackColor
vt 88.5827 52.4222
vn -0.824239 0.566242 0
vt 88.5827 50.267
vt 59.0551 50.267
vt 59.0551 52.4222
f 28/286/47 29/287/44 47/288/44 48/289/47 

usemtl Brown
vt 0.5 0.512022
vn 0.664364 -0.747409 -0
vt 0.5 0.493774
vt 0.75 0.493774
vt 0.75 0.512022
f 49/290/48 48/291/46 28/292/46 27/293/48 

usemtl BackColor
vt 88.5827 60.475
vn -0.664364 0.747409 0
vt 88.5827 58.3198
vt 59.0551 58.3198
vt 59.0551 60.475
f 27/294/49 28/295/47 48/296/47 49/297/49 

usemtl Brown
vt 0.5 0.550843
vn 0.465702 -0.884941 -0
vt 0.5 0.532595
vt 0.75 0.532595
vt 0.75 0.550843
f 50/298/50 49/299/48 27/300/48 26/301/50 

usemtl BackColor
vt 88.5827 65.0601
vn -0.465702 0.884941 0
vt 88.5827 62.9049
vt 59.0551 62.9049
vt 59.0551 65.0601
f 26/302/51 27/303/49 49/304/49 50/305/51 

usemtl Brown
vt 0.5 0.558037
vn 0.239853 -0.970809 -0
vt 0.5 0.53979
vt 0.75 0.53979
vt 0.75 0.558037
f 51/306/52 50/307/50 26/308/50 25/309/52 

usemtl BackColor
vt 88.5827 65.9099
vn -0.239853 0.970809 0
vt 88.5827 63.7547
vt 59.0551 63.7547
vt 59.0551 65.9099
f 25/310/53 26/311/51 50/312/51 51/313/53 

usemtl Brown
vt 0.5 0.533185
vt 0.5 0.514938
vt 0.75 0.514938
vt 0.75 0.533185
f 52/314/34 51/315/52 25/316/52 24/317/34 

usemtl BackColor
vt 88.5827 62.9746
vt 88.5827 60.8194
vt 59.0551 60.8194
vt 59.0551 62.9746
f 24/318/35 25/319/53 51/320/53 52/321/35 

usemtl Brown
vt -0.5 -0.477738
vn -0.239853 -0.970809 -0
vt -0.5 -0.45949
vt -0.75 -0.45949
vt -0.75 -0.477738
f 53/322/54 52/323/34 24/324/34 23/325/54 

usemtl BackColor
vt -88.5827 -56.4257
vn 0.239853 0.970809 0
vt -88.5827 -54.2705
vt -59.0551 -54.2705
vt -59.0551 -56.4257
f 23/326/55 24/327/35 52/328/35 53/329/55 

usemtl Brown
vt -0.5 -0.394932
vn -0.465702 -0.884941 -0
vt -0.5 -0.376685
vt -0.75 -0.376685
vt -0.75 -0.394932
f 54/330/56 53/331/54 23/332/54 22/333/56 

usemtl BackColor
vt -88.5827 -46.6455
vn 0.465702 0.884941 0
vt -88.5827 -44.4903
vt -59.0551 -44.4903
vt -59.0551 -46.6455
f 22/334/57 23/335/55 53/336/55 54/337/57 

usemtl Brown
vt -0.5 -0.289602
vn -0.664364 -0.747409 -0
vt -0.5 -0.271355
vt -0.75 -0.271355
vt -0.75 -0.289602
f 55/338/58 54/339/56 22/340/56 21/341/58 

usemtl BackColor
vt -88.5827 -34.205
vn 0.664364 0.747409 0
vt -88.5827 -32.0498
vt -59.0551 -32.0498
vt -59.0551 -34.205
f 21/342/59 22/343/57 54/344/57 55/345/59 

usemtl Brown
vt -0.5 -0.167898
vn -0.824239 -0.566242 -0
vt -0.5 -0.14965
vt -0.75 -0.14965
vt -0.75 -0.167898
f 56/346/60 55/347/58 21/348/58 20/349/60 

usemtl BackColor
vt -88.5827 -19.8305
vn 0.824239 0.566242 0
vt -88.5827 -17.6753
vt -59.0551 -17.6753
vt -59.0551 -19.8305
f 20/350/61 21/351/59 55/352/59 56/353/61 

usemtl Brown
vt -0.5 -0.0369241
vn -0.935993 -0.352018 -0
vt -0.5 -0.0186766
vt -0.75 -0.0186766
vt -0.75 -0.0369241
f 57/354/62 56/355/60 20/356/60 19/357/62 

usemtl BackColor
vt -88.5827 -4.36111
vn 0.935993 0.352018 0
vt -88.5827 -2.20589
vt -59.0551 -2.20589
vt -59.0551 -4.36111
f 19/358/63 20/359/61 56/360/61 57/361/63 

usemtl Brown
vt -0.5 0.0956729
vn -0.971665 -0.236361 -0
vt -0.5 0.11392
vt -0.75 0.11392
vt -0.75 0.0956729
f 58/362/64 57/363/62 19/364/62 18/365/64 

usemtl BackColor
vt -88.5827 11.2999
vn 0.971665 0.236361 0
vt -88.5827 13.4552
vt -59.0551 13.4552
vt -59.0551 11.2999
f 18/366/65 19/367/63 57/368/63 58/369/65 

usemtl Brown
vt -0.5 0.0633333
vt -0.5 0.238333
vt -0.75 0.238333
vt -0.75 0.0633333
f 59/370/19 58/371/19 18/372/19 17/373/19 

usemtl BackColor
vt -88.5827 7.48031
vt -88.5827 28.1496
vt -59.0551 28.1496
vt -59.0551 7.48031
f 17/374/22 18/375/22 58/376/22 59/377/22 

usemtl Green
v 2.7 0.19 -3
f 32/24/5 31/258/5 17/257/5 16/211/5 76/210/5 2/19/5 

usemtl BackColor
f 2/30/6 76/219/6 16/218/6 17/262/6 31/261/6 32/25/6 

usemtl Green
vt -0.9 2.84965e-015
vn 6.01593e-015 -2.84965e-015 -1
vt -0.1 2.84965e-015
f 73/378/66 3/379/66 2/2/66 76/48/66 

usemtl BackColor
vn -6.01593e-015 2.84965e-015 1
vt -11.811 3.36573e-013
vt -106.299 3.36573e-013
f 76/95/67 2/9/67 3/380/67 73/381/67 

usemtl Red
vt -1 5.85484e-016
vn 9.04341e-015 -5.85484e-016 -1
vt -0.9 5.85484e-016
f 72/382/68 73/383/68 76/48/68 66/47/68 65/13/68 

usemtl BackColor
vn -9.04341e-015 5.85484e-016 1
vt -106.299 6.91517e-014
vt -118.11 6.91517e-014
f 65/16/69 66/96/69 76/95/69 73/384/69 72/385/69 

usemtl Red
vt -1 0.0633333
f 16/373/7 15/31/7 66/13/7 76/386/7 

usemtl BackColor
vt -118.11 7.48031
f 76/387/8 66/16/8 15/38/8 16/374/8 

usemtl Red
vt 1 0.0633333
f 1/223/29 10/208/29 32/269/29 2/388/29 

usemtl BackColor
vt 118.11 7.48031
vn -1 -0 -7.70039e-015
vt 88.5827 17.3228
f 2/389/70 32/272/70 10/390/70 1/224/70 

usemtl Red
vt -3.46517e-015 0.146667
vn -1 -3.85019e-015 -3.85019e-015
vt -3.46517e-015 0.0633333
f 67/391/71 61/32/71 60/370/71 69/392/71 

usemtl BackColor
vt -4.09273e-013 7.48031
vn 1 3.85019e-015 3.85019e-015
vt -4.09273e-013 17.3228
f 69/393/72 60/377/72 61/37/72 67/394/72 

f 40/195/70 38/196/70 15/390/70 61/254/70 

