# Alias OBJ Model File
# Exported from SketchUp, (c) 2000-2012 Trimble Navigation Limited
# File units = meters

mtllib Club_red_01.mtl

g Mesh1 Club_red Model

usemtl Red
v 0.596462 -0.012172 -0.334372
vt -0.111457 -0.00405733
vn -1 2.39821e-015 -9.33447e-040
v 0.596462 -0.012172 -0.238428
vt -0.079476 -0.00405733
v 0.596462 0.083772 -0.238428
vt -0.079476 0.027924
v 0.596462 0.083772 -0.334372
vt -0.111457 0.027924
f 1/1/1 2/2/1 3/3/1 4/4/1 

usemtl BackColor
vt -13.1643 3.29811
vn 1 -2.39821e-015 9.33447e-040
vt -9.38693 3.29811
vt -9.38693 -0.479213
vt -13.1643 -0.479213
f 4/5/2 3/6/2 2/7/2 1/8/2 

usemtl Red
v 1.70938 0.0716 -0.2506
vt 0.0835333 -0.569498
vn 0.0109364 0.99994 4.33194e-018
v 1.70938 0.0716 -0.3222
vt 0.1074 -0.569498
vt 0.111457 -0.198503
vt 0.079476 -0.198503
f 5/9/3 6/10/3 4/11/3 3/12/3 

vt 0.0835333 0.0238667
vn 1 1.70285e-015 -1.1987e-039
v 1.70938 0.0537 -0.2685
vt 0.0895 0.0179
vt 0.1074 0.0238667
f 5/13/4 7/14/4 6/15/4

v 1.70938 0.0179 -0.2685
vt 0.0895 0.00596667
f 7/14/4 5/13/4 8/16/4

usemtl BackColor
vt 12.685 2.8189
vn -1 -1.70285e-015 1.1987e-039
vt 10.5709 2.11417
vt 9.86614 2.8189
f 6/17/5 7/18/5 5/19/5

usemtl Red
v 1.70938 0.0537 -0.3043
vt 0.101433 0.0179
f 6/15/4 7/14/4 9/20/4

usemtl BackColor
vt 11.9803 2.11417
f 9/21/5 7/18/5 6/17/5

usemtl Grey
vt 0.569793 0.101433
vn 2.69131e-015 1 -0
vt 0.569793 0.0895
v 2.9535 0.0537 -0.2685
vt 0.9845 0.0895
v 2.9535 0.0537 -0.3043
vt 0.9845 0.101433
f 9/22/6 7/23/6 10/24/6 11/25/6 

usemtl BackColor
vt 116.28 11.9803
vn -2.69131e-015 -1 0
vt 116.28 10.5709
vt 67.2984 10.5709
vt 67.2984 11.9803
f 11/26/7 10/27/7 7/28/7 9/29/7 

usemtl Dark_grey
vt -0.0895 0.0179
vn -1 7.01405e-029 -0
v 2.9535 0.0716 -0.3401
vt -0.113367 0.0238667
vt -0.101433 0.0179
f 10/30/8 12/31/8 11/32/8

v 2.9535 0.0716 -0.2327
vt -0.0775667 0.0238667
f 10/30/8 13/33/8 12/31/8

v 2.9535 1.15506e-014 -0.2327
vt -0.0775667 3.85019e-015
f 13/33/8 10/30/8 14/34/8

usemtl BackColor
vt -9.16142 4.54747e-013
vn 1 -7.01405e-029 0
vt -10.5709 2.11417
vt -9.16142 2.8189
f 14/35/9 10/36/9 13/37/9

usemtl Dark_grey
v 2.9535 0.0179 -0.2685
vt -0.0895 0.00596667
f 15/38/8 14/34/8 10/30/8

v 2.9535 1.15506e-014 -0.3401
vt -0.113367 3.85019e-015
f 14/34/8 15/38/8 16/39/8

usemtl BackColor
vt -13.3898 4.54747e-013
vt -10.5709 0.704724
f 16/40/9 15/41/9 14/35/9

usemtl Dark_grey
v 2.9535 0.0179 -0.3043
vt -0.101433 0.00596667
f 16/39/8 15/38/8 17/42/8

usemtl BackColor
vt -11.9803 0.704724
f 17/43/9 15/41/9 16/40/9

usemtl Red
vn 1 -7.01405e-029 -0
vt 0.101433 0.00596667
f 10/14/10 15/16/10 17/44/10 11/20/10 

usemtl BackColor
f 10/36/9 14/35/9 15/41/9

vn -1 7.01405e-029 0
vt 11.9803 0.704724
vt 10.5709 0.704724
f 11/21/11 17/45/11 15/46/11 10/18/11 

usemtl Dark_grey
f 11/32/8 12/31/8 17/42/8

usemtl BackColor
vt -11.9803 2.11417
vt -13.3898 2.8189
f 11/47/9 12/48/9 10/36/9

f 17/43/9 12/48/9 11/47/9

usemtl Dark_grey
f 16/39/8 17/42/8 12/31/8

usemtl BackColor
f 12/48/9 17/43/9 16/40/9

usemtl Dark_grey
v 3.1325 0 -0.3401
vt -1.04417 0
vn 0 0 -1
vt -0.9845 3.85019e-015
vt -0.9845 0.0238667
v 3.1325 0.0716 -0.3401
vt -1.04417 0.0238667
f 18/49/12 16/50/12 12/51/12 19/52/12 

usemtl BackColor
vt -123.327 2.8189
vn -0 -0 1
vt -116.28 2.8189
vt -116.28 4.54747e-013
vt -123.327 0
f 19/53/13 12/54/13 16/55/13 18/56/13 

usemtl Dark_grey
vt 1.04417 0.113367
vn 7.01405e-029 1 -0
vt 0.9845 0.113367
vt 0.9845 0.0775667
v 3.1325 0.0716 -0.2327
vt 1.04417 0.0775667
v 3.2041 0.0716 -0
vt 1.06803 0
v 3.3473 0.0716 -0
vt 1.11577 0
v 3.222 0.0716 -0.512373
vt 1.074 0.170791
v 3.0788 0.0716 -0.512373
vt 1.02627 0.170791
f 19/57/14 12/58/14 13/59/14 20/60/14 21/61/14 22/62/14 23/63/14 24/64/14 

usemtl BackColor
vt 121.213 20.1722
vn -7.01405e-029 -1 0
vt 126.85 20.1722
vt 131.783 0
vt 126.146 0
vt 123.327 9.16142
vt 116.28 9.16142
vt 116.28 13.3898
vt 123.327 13.3898
f 24/65/15 23/66/15 22/67/15 21/68/15 20/69/15 13/70/15 12/71/15 19/72/15 

usemtl Dark_grey
v 3.222 5.77529e-015 -0.512373
vt -1.074 1.9251e-015
v 3.0788 0 -0.512373
vt -1.02627 0
vt -1.02627 0.0238667
vt -1.074 0.0238667
f 25/73/12 26/74/12 24/75/12 23/76/12 

usemtl BackColor
vt -126.85 2.8189
vt -121.213 2.8189
vt -121.213 0
vt -126.85 2.27374e-013
f 23/77/13 24/78/13 26/79/13 25/80/13 

usemtl Dark_grey
vt 0.142355 6.02387e-029
vn -0.954693 5.84504e-029 0.297592
vt 0.202505 6.02387e-029
vt 0.202505 0.0238667
vt 0.142355 0.0238667
f 26/81/16 18/82/16 19/83/16 24/84/16 

usemtl BackColor
vt 16.8136 2.8189
vn 0.954693 -5.84504e-029 -0.297592
vt 23.9179 2.8189
vt 23.9179 7.11481e-027
vt 16.8136 7.11481e-027
f 24/85/17 19/86/17 18/87/17 26/88/17 

usemtl Dark_grey
vt -0.9845 0.113367
vn -7.01405e-029 -1 -0
vt -1.04417 0.113367
vt -1.02627 0.170791
vt -1.074 0.170791
v 3.3473 0 -0
vt -1.11577 0
v 3.2041 1.15506e-014 -0
vt -1.06803 0
v 3.1325 0 -0.2327
vt -1.04417 0.0775667
vt -0.9845 0.0775667
f 16/89/18 18/90/18 26/91/18 25/92/18 27/93/18 28/94/18 29/95/18 14/96/18 

usemtl BackColor
vt -116.28 9.16142
vn 7.01405e-029 1 0
vt -123.327 9.16142
vt -126.146 0
vt -131.783 0
vt -126.85 20.1722
vt -121.213 20.1722
vt -123.327 13.3898
vt -116.28 13.3898
f 14/97/19 29/98/19 28/99/19 27/100/19 25/101/19 26/102/19 18/103/19 16/104/19 

usemtl Dark_grey
vt 0.9845 3.85019e-015
vn 0 0 1
vt 1.04417 0
vt 1.04417 0.0238667
vt 0.9845 0.0238667
f 14/105/20 29/106/20 20/107/20 13/108/20 

usemtl BackColor
vt 116.28 2.8189
vn -0 -0 -1
vt 123.327 2.8189
vt 123.327 0
vt 116.28 4.54747e-013
f 13/109/21 20/110/21 29/111/21 14/112/21 

usemtl Dark_grey
vt 0.232938 2.38665e-029
vn -0.955779 2.33802e-029 0.294086
vt 0.314093 3.85019e-015
vt 0.314093 0.0238667
vt 0.232938 0.0238667
f 29/113/22 28/114/22 21/115/22 20/116/22 

usemtl BackColor
vt 27.5124 2.8189
vn 0.955779 -2.33802e-029 -0.294086
vt 37.0977 2.8189
vt 37.0977 4.54747e-013
vt 27.5124 2.81888e-027
f 20/117/23 21/118/23 28/119/23 29/120/23 

usemtl Dark_grey
vt 1.06803 3.85019e-015
vt 1.11577 0.0238667
vt 1.06803 0.0238667
f 28/121/20 27/62/20 22/122/20 21/123/20 

usemtl BackColor
vt 126.146 2.8189
vt 131.783 2.8189
vt 126.146 4.54747e-013
f 21/124/21 22/125/21 27/67/21 28/126/21 

usemtl Dark_grey
vt -0.265049 2.53401e-029
vn 0.971376 -2.33802e-029 -0.237548
vt -0.0892247 1.9251e-015
vt -0.0892247 0.0238667
vt -0.265049 0.0238667
f 27/127/24 25/128/24 23/129/24 22/130/24 

usemtl BackColor
vt -31.3049 2.8189
vn -0.971376 2.33802e-029 0.237548
vt -10.5383 2.8189
vt -10.5383 2.27374e-013
vt -31.3049 2.99292e-027
f 22/131/25 23/132/25 25/133/25 27/134/25 

f 12/48/9 13/37/9 10/36/9

usemtl Grey
v 1.70938 0.0179 -0.3043
vt -0.569793 0.00596667
vt -0.569793 0.0179
vt -0.9845 0.0179
vt -0.9845 0.00596667
f 30/135/12 9/136/12 11/137/12 17/138/12 

usemtl Red
vn 1 -2.9663e-015 -0
f 30/44/26 9/20/26 7/14/26 8/16/26 

usemtl BackColor
vn -1 2.9663e-015 0
f 8/46/27 7/18/27 9/21/27 30/45/27 

usemtl Grey
vt 0.9845 0.00596667
vt 0.9845 0.0179
vt 0.569793 0.0179
vt 0.569793 0.00596667
f 15/139/20 10/140/20 7/141/20 8/142/20 

usemtl BackColor
vt 67.2984 0.704724
vt 67.2984 2.11417
vt 116.28 2.11417
vt 116.28 0.704724
f 8/143/21 7/144/21 10/145/21 15/146/21 

f 8/46/5 5/19/5 7/18/5

usemtl Red
v 1.70938 1.73259e-014 -0.2506
vt 0.0835333 4.80502e-015
f 31/147/4 8/16/4 5/13/4

v 1.70938 1.73259e-014 -0.3222
vt 0.1074 4.80502e-015
f 8/16/4 31/147/4 32/148/4

usemtl BackColor
vt 9.86614 5.67522e-013
f 5/19/5 8/46/5 31/149/5

vt 12.685 5.67522e-013
f 32/150/5 31/149/5 8/46/5

usemtl Red
vt 0.079476 0.198764
vn 0.0109364 -0.99994 4.33194e-018
vt 0.111457 0.198764
vt 0.1074 0.569759
vt 0.0835333 0.569759
f 2/151/28 1/152/28 32/153/28 31/154/28 

usemtl BackColor
vt 9.86614 67.2944
vn -0.0109364 0.99994 -4.33194e-018
vt 12.685 67.2944
vt 13.1643 23.4761
vt 9.38693 23.4761
f 31/155/29 32/156/29 1/157/29 2/158/29 

usemtl Red
vt -0.568585 0.0238667
vn 0.0109364 1.01481e-016 -0.99994
vt -0.568585 5.76376e-015
vt -0.19759 -0.00405733
vt -0.19759 0.027924
f 6/159/30 32/160/30 1/161/30 4/162/30 

f 6/15/4 9/20/4 32/148/4

usemtl BackColor
f 32/150/5 9/21/5 6/17/5

usemtl Red
f 30/44/4 32/148/4 9/20/4

f 8/16/4 32/148/4 30/44/4

usemtl BackColor
f 30/45/5 32/150/5 8/46/5

f 9/21/5 32/150/5 30/45/5

vt -116.28 0.704724
vt -116.28 2.11417
vt -67.2984 2.11417
vt -67.2984 0.704724
f 17/163/13 11/164/13 9/165/13 30/166/13 

usemtl Grey
vt -0.569793 0.0895
vn 1.6081e-015 -1 -0
vt -0.569793 0.101433
vt -0.9845 0.101433
vt -0.9845 0.0895
f 8/167/31 30/168/31 17/169/31 15/170/31 

usemtl BackColor
vt -116.28 10.5709
vn -1.6081e-015 1 0
vt -116.28 11.9803
vt -67.2984 11.9803
vt -67.2984 10.5709
f 15/171/32 17/172/32 30/173/32 8/174/32 

vt -23.3374 3.29811
vn -0.0109364 -1.01481e-016 0.99994
vt -23.3374 -0.479213
vt -67.1557 6.80759e-013
vt -67.1557 2.8189
f 4/175/33 1/176/33 32/177/33 6/178/33 

vt 9.38693 -23.4453
vn -0.0109364 -0.99994 -4.33194e-018
vt 13.1643 -23.4453
vt 12.685 -67.2636
vt 9.86614 -67.2636
f 3/179/34 4/180/34 6/181/34 5/182/34 

usemtl Red
vt 0.570673 0.0238667
vn 0.0109364 1.07483e-016 0.99994
vt 0.199678 0.027924
vt 0.199678 -0.00405733
vt 0.570673 5.7836e-015
f 5/183/35 3/184/35 2/185/35 31/186/35 

usemtl BackColor
vt 67.4023 6.83102e-013
vn -0.0109364 -1.07483e-016 -0.99994
vt 23.584 -0.479213
vt 23.584 3.29811
vt 67.4023 2.8189
f 31/187/36 2/188/36 3/189/36 5/190/36 

