# Alias OBJ Model File
# Exported from SketchUp, (c) 2000-2012 Trimble Navigation Limited
# File units = meters

mtllib Corner_01.mtl

g Mesh1 Corner Model

usemtl Red
v 1.87697e-014 0 -3
vt -6.25657e-015 1
vn 0 -1 -0
v 3 0 -3
vt -1 1
v 3 0 -2.7
vt -1 0.9
v 3 0 -0
vt -1 0
v 0.3 0 -1.74335e-014
vt -0.1 5.81118e-015
v 0 0 -2.07342e-014
vt 0 6.9114e-015
f 1/1/1 2/2/1 3/3/1 4/4/1 5/5/1 6/6/1 

usemtl BackColor
vt 0 8.16308e-013
vn -0 1 0
vt -11.811 6.8636e-013
vt -118.11 0
vt -118.11 106.299
vt -118.11 118.11
vt -7.38964e-013 118.11
f 6/7/2 5/8/2 4/9/2 3/10/2 2/11/2 1/12/2 

usemtl Red
vt -7.77931e-029 -5.39536e-030
vn -1.12558e-014 -7.80646e-016 1
vt 0.1 -5.41515e-030
v 0.3 0.19 -1.67116e-014
vt 0.1 0.0633333
v 0.3 0.44 -1.67116e-014
vt 0.1 0.146667
v 0 0.44 -2.07342e-014
vt -7.77931e-029 0.146667
f 6/13/3 5/14/3 7/15/3 8/16/3 9/17/3 

usemtl BackColor
vt -9.18816e-027 17.3228
vn 1.12558e-014 7.80646e-016 -1
vt 11.811 17.3228
vt 11.811 7.48031
vt 11.811 -6.39585e-028
vt -9.18816e-027 -6.37247e-028
f 9/18/4 8/19/4 7/20/4 5/21/4 6/22/4 

usemtl Red
v 1.87697e-014 0.44 -3
vt 6.25657e-015 1
vn 0 1 -0
vt 0.1 5.57054e-015
v 0.3 0.44 -2.7
vt 0.1 0.9
v 3 0.44 -2.7
vt 1 0.9
v 3 0.44 -3
vt 1 1
f 10/23/5 9/6/5 8/24/5 11/25/5 12/26/5 13/27/5 

vt -6.9114e-015 -5.68997e-044
vn -1 1.28489e-015 -6.40733e-015
vt -6.9114e-015 0.146667
vt -1 0.146667
vt -1 -1.93711e-031
f 6/28/6 9/29/6 10/30/6 1/31/6 

usemtl BackColor
vt -118.11 -2.28793e-029
vn 1 -1.28489e-015 6.40733e-015
vt -118.11 17.3228
vt -8.16308e-013 17.3228
vt -8.16308e-013 -6.72043e-042
f 1/32/7 10/33/7 9/34/7 6/35/7 

usemtl Red
vt -1 7.24804e-015
vn 5.22848e-015 -7.24804e-015 -1
vt -1.02809e-015 7.24804e-015
vt -1.02809e-015 0.146667
f 2/36/8 1/37/8 10/38/8 13/30/8 

usemtl BackColor
vn -5.22848e-015 7.24804e-015 1
vt -1.21428e-013 17.3228
vt -1.21428e-013 8.56068e-013
vt -118.11 8.56068e-013
f 13/33/9 10/39/9 1/40/9 2/41/9 

vt 118.11 118.11
vn -0 -1 0
vt 118.11 106.299
vt 11.811 106.299
vt 11.811 6.57938e-013
vt 7.38964e-013 118.11
f 13/42/10 12/43/10 11/44/10 8/45/10 9/7/10 10/46/10 

usemtl Red
vt 1 -8.51685e-029
vn 1 8.51685e-029 9.62549e-015
vt 1 0.146667
vt 0.9 0.146667
v 3 0.19 -2.7
vt 0.9 0.0633333
vt 0.9 -8.51685e-029
f 2/47/11 13/48/11 12/49/11 14/50/11 3/51/11 

usemtl BackColor
vt 106.299 -1.00593e-026
vn -1 -8.51685e-029 -9.62549e-015
vt 106.299 7.48031
vt 106.299 17.3228
vt 118.11 17.3228
vt 118.11 -1.00593e-026
f 3/52/12 14/53/12 12/54/12 13/55/12 2/56/12 

usemtl Green
vt 5.34749e-015 0
vn 1 0 5.34749e-015
vt 0.9 0
v 3 0.19 -1.0259e-029
vt 5.34749e-015 0.0633333
f 4/57/13 3/58/13 14/50/13 15/59/13 

usemtl BackColor
vt 6.31594e-013 7.48031
vn -1 -0 -5.34749e-015
vt 106.299 0
vt 6.31594e-013 0
f 15/60/14 14/53/14 3/61/14 4/62/14 

usemtl Green
vt 1 3.41966e-030
v 0.3 0.19 -2.7
f 15/63/5 14/26/5 16/25/5 7/24/5 

usemtl BackColor
vt 118.11 4.03897e-028
f 7/45/10 16/44/10 14/43/10 15/64/10 

usemtl Red
vt 6.15877e-015 0.0633333
vn 1 0 5.88224e-015
vt 6.15877e-015 0.146667
f 7/65/15 16/50/15 11/49/15 8/66/15 

usemtl BackColor
vt 7.27414e-013 17.3228
vn -1 -0 -5.88224e-015
vt 7.27414e-013 7.48031
f 8/67/16 11/54/16 16/53/16 7/68/16 

usemtl Red
vn -3.60956e-015 0 1
vt 1 0.0633333
f 11/16/17 16/15/17 14/69/17 12/48/17 

usemtl BackColor
vn 3.60956e-015 -0 -1
vt 118.11 7.48031
f 12/55/18 14/70/18 16/20/18 11/19/18 

usemtl Green
vt 1 -8.0165e-030
vn -6.32959e-015 -1.26651e-015 1
vt 0.1 -8.16158e-030
f 4/71/19 15/69/19 7/15/19 5/72/19 

usemtl BackColor
vt 11.811 -9.63966e-028
vn 6.32959e-015 1.26651e-015 -1
vt 118.11 -9.4683e-028
f 5/73/20 7/20/20 15/70/20 4/74/20 

