# Alias OBJ Model File
# Exported from SketchUp, (c) 2000-2012 Trimble Navigation Limited
# File units = meters

mtllib Crest_01.mtl

g Mesh1 Crest Model

usemtl Red
v 0.3 0.44 -3
vt -0.1 0.146667
vn 4.81274e-015 -2.60358e-032 -1
v 0.3 0.19 -3
vt -0.1 0.0633333
v 0.3 0 -3
vt -0.1 2.60358e-032
v 1.73259e-014 0 -3
vt -9.62549e-016 2.60358e-032
v 1.73259e-014 0.44 -3
vt -9.62549e-016 0.146667
f 1/1/1 2/2/1 3/3/1 4/4/1 5/5/1 

usemtl BackColor
vt -1.13687e-013 17.3228
vn -4.81274e-015 2.60358e-032 1
vt -1.13687e-013 3.0751e-030
vt -11.811 3.0751e-030
vt -11.811 7.48031
vt -11.811 17.3228
f 5/6/2 4/7/2 3/8/2 2/9/2 1/10/2 

usemtl Red
v 0 0 -2.02135e-014
vt -6.73784e-015 0
vn -1 0 -5.77529e-015
v 0 0.44 -2.02135e-014
vt -6.73784e-015 0.146667
vt -1 0.146667
vt -1 0
f 6/11/3 7/12/3 5/13/3 4/14/3 

usemtl BackColor
vt -118.11 0
vn 1 -0 5.77529e-015
vt -118.11 17.3228
vt -7.95808e-013 17.3228
vt -7.95808e-013 0
f 4/15/4 5/16/4 7/17/4 6/18/4 

usemtl Red
vt 0.1 1
vn 0 1 -0
vt 5.77529e-015 1
vt 0 6.73784e-015
v 0.3 0.44 -1.73259e-014
vt 0.1 5.77529e-015
f 1/19/5 5/20/5 7/21/5 8/22/5 

usemtl BackColor
vt 11.811 6.82121e-013
vn -0 -1 0
vt 0 7.95808e-013
vt 6.82121e-013 118.11
vt 11.811 118.11
f 8/23/6 7/24/6 5/25/6 1/26/6 

usemtl Red
vt -6.4855e-029 -1.05255e-045
vn -9.62549e-015 -1.56215e-031 1
v 0.3 0 -1.73259e-014
vt 0.1 -1.05255e-045
v 0.3 0.19 -1.73259e-014
vt 0.1 0.0633333
vt 0.1 0.146667
vt -6.4855e-029 0.146667
f 6/27/7 9/28/7 10/29/7 8/30/7 7/31/7 

usemtl BackColor
vt -7.66004e-027 17.3228
vn 9.62549e-015 1.56215e-031 -1
vt 11.811 17.3228
vt 11.811 7.48031
vt 11.811 -1.24317e-043
vt -7.66004e-027 -1.24317e-043
f 7/32/8 8/33/8 10/34/8 9/35/8 6/36/8 

usemtl Red
vt 6.37884e-015 0.0633333
vn 1 -8.77089e-015 6.03544e-015
v 0.3 0.19 -0.75
vt 0.25 0.0633333
v 0.3 0.1 -1.125
vt 0.375 0.0333333
v 0.3 0.1 -1.875
vt 0.625 0.0333333
v 0.3 0.19 -2.25
vt 0.75 0.0633333
vt 1 0.0633333
vt 1 0.146667
vt 6.37884e-015 0.146667
f 10/37/9 11/38/9 12/39/9 13/40/9 14/41/9 2/42/9 1/43/9 8/44/9 

usemtl Green
v 2.7 0.19 -1.44382e-015
vt 0.9 4.81274e-016
v 2.7 0.19 -0.75
vt 0.9 0.25
vt 0.1 0.25
f 15/45/5 16/46/5 11/47/5 10/22/5 

usemtl BackColor
vt 11.811 29.5276
vt 106.299 29.5276
vt 106.299 5.68434e-014
f 10/23/6 11/48/6 16/49/6 15/50/6 

vt 7.53406e-013 17.3228
vn -1 8.77089e-015 -6.03544e-015
vt 118.11 17.3228
vt 118.11 7.48031
vt 88.5827 7.48031
vt 73.8189 3.93701
vt 44.2913 3.93701
vt 29.5276 7.48031
vt 7.53406e-013 7.48031
f 8/51/10 1/52/10 2/53/10 14/54/10 13/55/10 12/56/10 11/57/10 10/58/10 

usemtl Green
vt 0.1 0.75
v 2.7 0.19 -2.25
vt 0.9 0.75
v 2.7 0.19 -3
vt 0.9 1
f 14/59/5 17/60/5 18/61/5 2/19/5 

usemtl BackColor
vt 106.299 118.11
vt 106.299 88.5827
vt 11.811 88.5827
f 2/26/6 18/62/6 17/63/6 14/64/6 

usemtl Green
v 2.7 0 -3
vt -0.9 0
vn 6.01593e-015 0 -1
vt -0.1 0
vt -0.9 0.0633333
f 19/65/11 3/66/11 2/2/11 18/67/11 

usemtl BackColor
vt -106.299 7.48031
vn -6.01593e-015 -0 1
vt -11.811 0
vt -106.299 0
f 18/68/12 2/9/12 3/69/12 19/70/12 

usemtl Red
vt -0.9 1
vn 0 -1 -0
v 3 0 -3
vt -1 1
v 3 0 -0
v 2.7 0 -1.44382e-015
vt -0.9 4.81274e-016
vt -0.1 5.77529e-015
vt -5.77529e-015 1
vt -0.1 1
f 19/71/13 20/72/13 21/14/13 22/73/13 9/74/13 6/21/13 4/75/13 3/76/13 

vt -1 -5.20716e-032
vn 9.62549e-015 5.20716e-032 -1
vt -0.9 -5.20716e-032
v 2.7 0.44 -3
vt -0.9 0.146667
v 3 0.44 -3
f 20/77/14 19/78/14 18/67/14 23/79/14 24/13/14 

usemtl BackColor
vn -9.62549e-015 -5.20716e-032 1
vt -106.299 17.3228
vt -106.299 -6.15019e-030
vt -118.11 -6.15019e-030
f 24/16/15 23/80/15 18/68/15 19/81/15 20/82/15 

usemtl Red
vt 1 1
v 2.7 0.44 -1.44382e-015
v 3 0.44 -0
vt 1 0
f 24/83/5 23/61/5 25/45/5 26/84/5 

usemtl BackColor
vt 118.11 0
vt 118.11 118.11
f 26/85/6 25/50/6 23/62/6 24/86/6 

usemtl Red
vt 0.9 0.146667
vn -4.81274e-015 -2.60358e-032 1
vt 0.9 0.0633333
vt 0.9 -1.25304e-046
vt 1 -1.25304e-046
f 25/87/16 15/88/16 22/89/16 21/90/16 26/43/16 

usemtl BackColor
vn 4.81274e-015 2.60358e-032 -1
vt 118.11 -1.47996e-044
vt 106.299 -1.47996e-044
vt 106.299 7.48031
vt 106.299 17.3228
f 26/52/17 21/91/17 22/92/17 15/93/17 25/94/17 

usemtl Red
vn 1 0 5.77529e-015
vt 5.77529e-015 0.146667
vt 5.77529e-015 0
f 24/43/18 26/95/18 21/96/18 20/84/18 

usemtl BackColor
vn -1 -0 -5.77529e-015
vt 6.82121e-013 0
vt 6.82121e-013 17.3228
f 20/85/19 21/97/19 26/98/19 24/52/19 

vt -11.811 118.11
vn -0 1 0
vt -6.82121e-013 118.11
vt -11.811 6.82121e-013
vt -106.299 5.68434e-014
vt -118.11 118.11
vt -106.299 118.11
f 3/99/20 4/100/20 6/24/20 9/101/20 22/102/20 21/15/20 20/103/20 19/104/20 

usemtl Green
vt 0.1 0
vn -6.61752e-015 0 1
vt 0.9 0
f 9/105/21 22/106/21 15/88/21 10/29/21 

usemtl BackColor
vn 6.61752e-015 -0 -1
vt 106.299 0
vt 11.811 0
f 10/34/22 15/93/22 22/107/22 9/108/22 

usemtl Red
vt -1 0.0633333
vn -1 0 -6.03544e-015
vt -0.75 0.0633333
v 2.7 0.1 -1.875
vt -0.625 0.0333333
v 2.7 0.1 -1.125
vt -0.375 0.0333333
vt -0.25 0.0633333
vt -5.91317e-015 0.0633333
vt -5.91317e-015 0.146667
f 18/109/23 17/110/23 27/111/23 28/112/23 16/113/23 15/114/23 25/115/23 23/13/23 

usemtl BackColor
vn 1 -0 6.03544e-015
vt -6.98406e-013 17.3228
vt -6.98406e-013 7.48031
vt -29.5276 7.48031
vt -44.2913 3.93701
vt -73.8189 3.93701
vt -88.5827 7.48031
vt -118.11 7.48031
f 23/16/24 25/116/24 15/117/24 16/118/24 28/119/24 27/120/24 17/121/24 18/122/24 

usemtl Green
vt -0.9 -0.228317
vn 1.82506e-015 0.972387 -0.233373
vt -0.9 -0.356866
vt -0.1 -0.356866
vt -0.1 -0.228317
f 16/123/25 28/124/25 12/125/25 11/126/25 

usemtl BackColor
vt -11.811 -26.9665
vn -1.82506e-015 -0.972387 0.233373
vt -11.811 -42.1495
vt -106.299 -42.1495
vt -106.299 -26.9665
f 11/127/26 12/128/26 28/129/26 16/130/26 

usemtl Green
vt 0.9 0.375
vt 0.9 0.625
vt 0.1 0.625
vt 0.1 0.375
f 28/131/5 27/132/5 13/133/5 12/134/5 

usemtl BackColor
vt 11.811 44.2913
vt 11.811 73.8189
vt 106.299 73.8189
vt 106.299 44.2913
f 12/135/6 13/136/6 27/137/6 28/138/6 

usemtl Green
vt 0.9 0.615521
vn -1.82469e-015 0.972387 0.233373
vt 0.9 0.744071
vt 0.1 0.744071
vt 0.1 0.615521
f 27/139/27 17/140/27 14/141/27 13/142/27 

usemtl BackColor
vt 11.811 72.6993
vn 1.82469e-015 -0.972387 -0.233373
vt 11.811 87.8824
vt 106.299 87.8824
vt 106.299 72.6993
f 13/143/28 14/144/28 17/145/28 27/146/28 

