# Alias OBJ Model File
# Exported from SketchUp, (c) 2000-2012 Trimble Navigation Limited
# File units = meters

mtllib Flag_red_01.mtl

g Mesh1 Flag_red Model

usemtl Grey
v 0.2 0 -0.2
vt -0.0666667 0.0666667
vn 0 -1 -0
v 0.2 0 -0
vt -0.0666667 0
v 0 0 -0
vt 0 0
v 0 0 -0.2
vt 0 0.0666667
f 1/1/1 2/2/1 3/3/1 4/4/1 

usemtl BackColor
vt 0 7.87402
vn -0 1 0
vt -7.87402 0
vt -7.87402 7.87402
f 4/5/2 3/3/2 2/6/2 1/7/2 

usemtl Grey
vn -1 0 -0
v 0 6.3 -0
vt 0 2.1
v 0 6.3 -0.2
vt -0.0666667 2.1
f 4/2/3 3/3/3 5/8/3 6/9/3 

usemtl BackColor
vt -7.87402 248.031
vn 1 -0 0
vt 0 248.031
f 6/10/4 5/11/4 3/3/4 4/6/4 

usemtl Grey
vn 0 1 -0
v 0.2 6.3 -0
vt 0.0666667 0
v 0.2 6.3 -0.2
vt 0.0666667 0.0666667
f 6/4/5 5/3/5 7/12/5 8/13/5 

usemtl BackColor
vt 7.87402 7.87402
vn -0 -1 0
vt 7.87402 0
f 8/14/6 7/15/6 5/3/6 6/5/6 

usemtl Grey
vn 1 0 -0
v 0.2 6.25 -0.05
vt 0.0166667 2.08333
vt 0.0666667 2.1
f 7/8/7 9/16/7 8/17/7

v 0.2 4.781 -0.05
vt 0.0166667 1.59367
f 9/16/7 7/8/7 10/18/7

usemtl BackColor
vt 7.87402 248.031
vn -1 -0 0
vt 1.9685 246.063
f 8/19/8 9/20/8 7/11/8

usemtl Grey
v 0.2 6.25 -0.15
vt 0.05 2.08333
f 8/17/7 9/16/7 11/21/7

usemtl BackColor
vt 5.90551 246.063
f 11/22/8 9/20/8 8/19/8

usemtl Grey
v 0.2 4.781 -0.15
vt 0.05 1.59367
f 12/23/7 11/21/7 9/16/7 10/18/7 

usemtl BackColor
vt 1.9685 188.228
vt 5.90551 188.228
f 10/24/8 9/20/8 11/22/8 12/25/8 

usemtl Red
vt 0.0666667 2.08333
vn 0 0 1
vt 0.0666667 1.59367
v 2.2 5.5155 -0.05
vt 0.733333 1.8385
f 9/26/9 10/27/9 13/28/9

usemtl BackColor
vt 86.6142 217.146
vn -0 -0 -1
vt 7.87402 188.228
vt 7.87402 246.063
f 13/29/10 10/30/10 9/31/10

usemtl Red
vt 0.0166667 1.32218
vn 0.344738 -0.938699 -0
vt 0.0166667 0.611977
vt 0.05 0.611977
v 2.2 5.5155 -0.15
vt 0.05 1.32218
f 13/32/11 10/33/11 12/34/11 14/35/11 

usemtl BackColor
vt 5.90551 156.163
vn -0.344738 0.938699 0
vt 5.90551 72.2807
vt 1.9685 72.2807
vt 1.9685 156.163
f 14/36/12 12/37/12 10/38/12 13/39/12 

usemtl Red
vt -0.0666667 1.59367
vn 0 0 -1
vt -0.0666667 2.08333
vt -0.733333 1.8385
f 12/40/13 11/41/13 14/42/13

usemtl BackColor
vt -86.6142 217.146
vn -0 -0 1
vt -7.87402 246.063
vt -7.87402 188.228
f 14/43/14 11/44/14 12/45/14

usemtl Red
vt 0.0166667 0.655624
vn 0.344738 0.938699 -0
vt 0.0166667 -0.0545789
vt 0.05 -0.0545789
vt 0.05 0.655624
f 9/46/15 13/47/15 14/48/15 11/49/15 

usemtl BackColor
vt 5.90551 77.4359
vn -0.344738 -0.938699 0
vt 5.90551 -6.44632
vt 1.9685 -6.44632
vt 1.9685 77.4359
f 11/50/16 14/51/16 13/52/16 9/53/16 

usemtl Grey
f 12/23/7 1/12/7 11/21/7

f 10/18/7 1/12/7 12/23/7

f 7/8/7 1/12/7 10/18/7

f 1/12/7 7/8/7 2/3/7

usemtl BackColor
f 2/3/8 7/11/8 1/15/8

usemtl Grey
f 3/3/9 2/12/9 7/17/9 5/8/9 

usemtl BackColor
f 5/11/10 7/19/10 2/15/10 3/3/10 

f 10/24/8 1/15/8 7/11/8

f 12/25/8 1/15/8 10/24/8

f 11/22/8 1/15/8 12/25/8

usemtl Grey
f 8/17/7 11/21/7 1/12/7

usemtl BackColor
f 1/15/8 11/22/8 8/19/8

usemtl Grey
f 1/2/13 4/3/13 6/8/13 8/9/13 

usemtl BackColor
f 8/10/14 6/11/14 4/3/14 1/6/14 

f 10/24/8 7/11/8 9/20/8

