# Alias OBJ Model File
# Exported from SketchUp, (c) 2000-2012 Trimble Navigation Limited
# File units = meters

mtllib Gap_01.mtl

g Mesh1 Gap Model

usemtl Red
v 0.3 0.44 -3
vt -0.1 0.146667
vn 2.98845e-015 -5.85484e-016 -1
v 0.3 0.19 -3
vt -0.1 0.0633333
v 0.3 0 -3
vt -0.1 5.85484e-016
v 1.73259e-014 0 -3
vt -2.78684e-015 5.85484e-016
v 1.73259e-014 0.44 -3
vt -2.78684e-015 0.146667
f 1/1/1 2/2/1 3/3/1 4/4/1 5/5/1 

usemtl BackColor
vt -3.29155e-013 17.3228
vn -2.98845e-015 5.85484e-016 1
vt -3.29155e-013 6.91517e-014
vt -11.811 6.91517e-014
vt -11.811 7.48031
vt -11.811 17.3228
f 5/6/2 4/7/2 3/8/2 2/9/2 1/10/2 

usemtl Red
v 0 0 -2.02135e-014
vt -6.73784e-015 0
vn -1 0 -6.18949e-015
v 0 0.44 -2.02135e-014
vt -6.73784e-015 0.146667
vt -1 0.146667
vt -1 0
f 6/11/3 7/12/3 5/13/3 4/14/3 

usemtl BackColor
vt -118.11 0
vn 1 -0 6.18949e-015
vt -118.11 17.3228
vt -7.95808e-013 17.3228
vt -7.95808e-013 0
f 4/15/4 5/16/4 7/17/4 6/18/4 

usemtl Red
vt 0.1 1
vn 0 1 -0
vt 5.77529e-015 1
vt 0 6.73784e-015
v 0.3 0.44 -1.73259e-014
vt 0.1 5.77529e-015
f 1/19/5 5/20/5 7/21/5 8/22/5 

usemtl BackColor
vt 11.811 6.82121e-013
vn -0 -1 0
vt 0 7.95808e-013
vt 6.82121e-013 118.11
vt 11.811 118.11
f 8/23/6 7/24/6 5/25/6 1/26/6 

usemtl Red
vt -7.58395e-029 -5.25987e-030
vn -1.12558e-014 -7.80646e-016 1
v 0.3 0 -1.73259e-014
vt 0.1 -5.38713e-030
v 0.3 0.19 -1.73259e-014
vt 0.1 0.0633333
vt 0.1 0.146667
vt -7.58395e-029 0.146667
f 6/27/7 9/28/7 10/29/7 8/30/7 7/31/7 

vt -5.77529e-015 1
vn 0 -1 -0
vt -0.1 5.77529e-015
f 4/32/8 9/33/8 6/21/8

vt -0.1 1
f 9/33/8 4/32/8 3/34/8

usemtl BackColor
vn -0 1 0
vt -11.811 6.82121e-013
vt -6.82121e-013 118.11
f 6/24/9 9/35/9 4/36/9

vt -8.95742e-027 17.3228
vn 1.12558e-014 7.80646e-016 -1
vt 11.811 17.3228
vt 11.811 7.48031
vt 11.811 -6.36275e-028
vt -8.95742e-027 -6.21244e-028
f 7/37/10 8/38/10 10/39/10 9/40/10 6/41/10 

usemtl Red
vt 6.39424e-015 0.146667
vn 1 0 6.18949e-015
vt 6.39424e-015 0.0633333
vt 1 0.0633333
vt 1 0.146667
f 8/42/11 10/43/11 2/44/11 1/45/11 

usemtl BackColor
vt 118.11 17.3228
vn -1 -0 -6.18949e-015
vt 118.11 7.48031
vt 7.55225e-013 7.48031
vt 7.55225e-013 17.3228
f 1/46/12 2/47/12 10/48/12 8/49/12 

usemtl Green
v 0.9 0.19 -0.75
vt 0.3 0.25
f 10/22/5 11/50/5 2/19/5

v 2.7 0.19 -1.44382e-015
vt 0.9 4.81274e-016
f 11/50/5 10/22/5 12/51/5

usemtl BackColor
vt 35.4331 29.5276
f 2/26/6 11/52/6 10/23/6

usemtl Green
v 0.9 0.19 -2.25
vt 0.3 0.75
f 13/53/5 2/19/5 11/50/5

v 2.7 0.19 -3
vt 0.9 1
f 2/19/5 13/53/5 14/54/5

usemtl BackColor
vt 106.299 118.11
vt 35.4331 88.5827
f 14/55/6 13/56/6 2/26/6

usemtl Green
v 2.1 0.19 -2.25
vt 0.7 0.75
f 14/54/5 13/53/5 15/57/5

usemtl BackColor
vt 82.6772 88.5827
f 15/58/6 13/56/6 14/55/6

usemtl Green
vt 0.7 0.0633333
vn -7.21911e-015 0 1
vt 0.3 0.0633333
v 0.9 3.60956e-016 -2.25
vt 0.3 1.20319e-016
v 2.1 3.60956e-016 -2.25
vt 0.7 1.20319e-016
f 15/59/13 13/60/13 16/61/13 17/62/13 

usemtl BackColor
vt 82.6772 1.42109e-014
vn 7.21911e-015 -0 -1
vt 35.4331 1.42109e-014
vt 35.4331 7.48031
vt 82.6772 7.48031
f 17/63/14 16/64/14 13/65/14 15/66/14 

usemtl Red
vt -0.3 0.75
v 2.7 0 -3
vt -0.9 1
vt -0.7 0.75
f 16/67/8 18/68/8 17/69/8

f 16/67/8 3/34/8 18/68/8

v 0.9 3.60956e-016 -0.75
vt -0.3 0.25
f 3/34/8 16/67/8 19/70/8

usemtl BackColor
vt -35.4331 29.5276
vt -35.4331 88.5827
vt -11.811 118.11
f 19/71/9 16/72/9 3/73/9

usemtl Green
vt 0.75 1.20319e-016
vn 1 0 5.77529e-015
vt 0.75 0.0633333
vt 0.25 0.0633333
vt 0.25 1.20319e-016
f 16/74/15 13/75/15 11/76/15 19/77/15 

usemtl BackColor
vt 29.5276 1.42109e-014
vn -1 -0 -5.77529e-015
vt 29.5276 7.48031
vt 88.5827 7.48031
vt 88.5827 1.42109e-014
f 19/78/16 11/79/16 13/80/16 16/81/16 

usemtl Green
vt -0.3 1.20319e-016
vn 7.21911e-015 0 -1
vt -0.3 0.0633333
v 2.1 0.19 -0.75
vt -0.7 0.0633333
v 2.1 3.60956e-016 -0.75
vt -0.7 1.20319e-016
f 19/82/17 11/83/17 20/84/17 21/85/17 

usemtl BackColor
vt -82.6772 1.42109e-014
vn -7.21911e-015 -0 1
vt -82.6772 7.48031
vt -35.4331 7.48031
vt -35.4331 1.42109e-014
f 21/86/18 20/87/18 11/88/18 19/89/18 

usemtl Green
vt -0.25 1.20319e-016
vn -1 0 -5.77529e-015
vt -0.25 0.0633333
vt -0.75 0.0633333
vt -0.75 1.20319e-016
f 21/90/19 20/91/19 15/92/19 17/93/19 

usemtl BackColor
vt -88.5827 1.42109e-014
vn 1 -0 5.77529e-015
vt -88.5827 7.48031
vt -29.5276 7.48031
vt -29.5276 1.42109e-014
f 17/94/20 15/95/20 20/96/20 21/97/20 

usemtl Green
vt 0.7 0.25
f 20/98/5 12/51/5 15/57/5

f 11/50/5 12/51/5 20/98/5

usemtl BackColor
vt 106.299 5.68434e-014
f 12/99/6 10/23/6 11/52/6

usemtl Green
vt 0.1 -1.22003e-029
vn -6.46712e-015 -1.89977e-015 1
v 2.7 0 -1.44382e-015
vt 0.9 -1.19717e-029
vt 0.9 0.0633333
f 9/100/21 22/101/21 12/102/21 10/29/21 

usemtl Red
vt -0.9 4.81274e-016
f 9/33/8 19/70/8 22/103/8

f 9/33/8 3/34/8 19/70/8

usemtl BackColor
f 3/73/9 4/36/9 9/35/9

f 19/71/9 3/73/9 9/35/9

vt -106.299 5.68434e-014
f 22/104/9 19/71/9 9/35/9

usemtl Red
vt -0.7 0.25
f 22/103/8 19/70/8 21/105/8

usemtl BackColor
vt -82.6772 29.5276
f 21/106/9 19/71/9 22/104/9

usemtl Red
f 22/103/8 21/105/8 17/69/8

usemtl BackColor
vt -82.6772 88.5827
f 17/107/9 21/106/9 22/104/9

usemtl Red
f 17/69/8 18/68/8 22/103/8

usemtl BackColor
vt -106.299 118.11
f 17/107/9 18/108/9 16/72/9

f 22/104/9 18/108/9 17/107/9

usemtl Red
v 3 0 -0
f 22/103/8 18/68/8 23/14/8

usemtl BackColor
f 23/15/9 18/108/9 22/104/9

usemtl Red
v 3 0 -3
vt -1 1
f 23/14/8 18/68/8 24/109/8

usemtl BackColor
vt -118.11 118.11
f 24/110/9 18/108/9 23/15/9

usemtl Red
vt -1 5.85484e-016
vn 9.04341e-015 -5.85484e-016 -1
vt -0.9 5.85484e-016
vt -0.9 0.0633333
v 2.7 0.44 -3
vt -0.9 0.146667
v 3 0.44 -3
f 24/111/22 18/112/22 14/113/22 25/114/22 26/13/22 

usemtl BackColor
vn -9.04341e-015 5.85484e-016 1
vt -106.299 17.3228
vt -106.299 7.48031
vt -106.299 6.91517e-014
vt -118.11 6.91517e-014
f 26/16/23 25/115/23 14/116/23 18/117/23 24/118/23 

usemtl Red
vt 1 1
v 2.7 0.44 -1.44382e-015
v 3 0.44 -0
vt 1 0
f 26/119/5 25/54/5 27/51/5 28/120/5 

usemtl BackColor
vt 118.11 0
vt 118.11 118.11
f 28/121/6 27/99/6 25/55/6 26/122/6 

usemtl Red
vt 0.9 0.146667
vn -4.81274e-015 1.60311e-032 1
vt 0.9 7.71534e-047
vt 1 7.71534e-047
f 27/123/24 12/102/24 22/124/24 23/125/24 28/45/24 

usemtl BackColor
vn 4.81274e-015 -1.60311e-032 -1
vt 118.11 9.1126e-045
vt 106.299 9.1126e-045
vt 106.299 7.48031
vt 106.299 17.3228
f 28/46/25 23/126/25 22/127/25 12/128/25 27/129/25 

usemtl Red
vt 6.18949e-015 0.146667
vt 6.18949e-015 0
f 26/45/11 28/130/11 23/131/11 24/120/11 

usemtl BackColor
vt 7.31043e-013 0
vt 7.31043e-013 17.3228
f 24/121/12 23/132/12 28/133/12 26/46/12 

vn 6.46712e-015 1.89977e-015 -1
vt 106.299 -1.41398e-027
vt 11.811 -1.44098e-027
f 10/39/26 12/128/26 22/134/26 9/135/26 

usemtl Red
vt -1 0.0633333
vt -6.05182e-015 0.0633333
vt -6.05182e-015 0.146667
f 14/136/3 12/137/3 27/138/3 25/13/3 

usemtl BackColor
vt -7.14782e-013 17.3228
vt -7.14782e-013 7.48031
vt -118.11 7.48031
f 25/16/4 27/139/4 12/140/4 14/141/4 

usemtl Green
f 14/54/5 15/57/5 12/51/5

usemtl BackColor
f 12/99/6 15/58/6 14/55/6

vt 82.6772 29.5276
f 15/58/6 12/99/6 20/142/6

f 20/142/6 12/99/6 11/52/6

usemtl Green
vt -0.9 2.84965e-015
vn 6.01593e-015 -2.84965e-015 -1
vt -0.1 2.84965e-015
f 18/143/27 3/144/27 2/2/27 14/113/27 

usemtl BackColor
f 18/108/9 3/73/9 16/72/9

vn -6.01593e-015 2.84965e-015 1
vt -11.811 3.36573e-013
vt -106.299 3.36573e-013
f 14/116/28 2/9/28 3/145/28 18/146/28 

f 11/52/6 2/26/6 13/56/6

