# Alias OBJ Model File
# Exported from SketchUp, (c) 2000-2012 Trimble Navigation Limited
# File units = meters

mtllib Hole_open_01.mtl

g Mesh1 Hole_open Model

usemtl Green
v 1.73259e-014 0 -3
vt -5.77529e-015 1
vn 0 -1 -0
v 3 0 -3
vt -1 1
v 3 0 -0
vt -1 0
v 0 0 -2.02135e-014
vt 0 6.73784e-015
f 1/1/1 2/2/1 3/3/1 4/4/1 

usemtl BackColor
vt 0 7.95808e-013
vn -0 1 0
vt -118.11 0
vt -118.11 118.11
vt -6.82121e-013 118.11
f 4/5/2 3/6/2 2/7/2 1/8/2 

usemtl Green
vt -4.45433e-029 -1.90028e-044
vn -6.61091e-015 -2.82031e-030 1
vt 1 -1.86448e-044
v 3 0.19 -0
vt 1 0.0633333
v 0 0.19 -2.02135e-014
vt -4.45433e-029 0.0633333
f 4/9/3 3/10/3 5/11/3 6/12/3 

usemtl BackColor
vt -5.26101e-027 7.48031
vn 6.61091e-015 2.82031e-030 -1
vt 118.11 7.48031
vt 118.11 -2.20214e-042
vt -5.26101e-027 -2.24442e-042
f 6/13/4 5/14/4 3/15/4 4/16/4 

usemtl Green
v 1.35858 0.19 -1.35858
vt 0.45286 0.45286
vn -1.27611e-016 1 -2.01999e-029
vt 8.082e-018 6.73784e-015
vt 1 -1.27932e-030
f 7/17/5 6/18/5 5/19/5

v 1.73259e-014 0.19 -3
vt 5.78337e-015 1
f 6/18/5 7/17/5 8/20/5

usemtl BackColor
vt 6.83076e-013 118.11
vn 1.27611e-016 -1 2.01999e-029
vt 53.4873 53.4873
vt 9.54568e-016 7.95808e-013
f 8/21/6 7/22/6 6/23/6

usemtl Green
v 1.32679 0.19 -1.4
vt 0.442265 0.466667
f 8/20/5 7/17/5 9/24/5

usemtl BackColor
vt 52.236 55.1181
f 9/25/6 7/22/6 8/21/6

usemtl Red
vt 0.100998 0.0633333
vn 0.866025 0 -0.5
vt 0.0835942 0.0633333
vn 0.707107 0 -0.707107
v 1.35858 0.095 -1.35858
vt 0.0835942 0.0316667
v 1.32679 0.095 -1.4
vt 0.100998 0.0316667
f 9/26/7 7/27/8 10/28/8 11/29/7 

usemtl BackColor
vt 11.9289 3.74016
vn -0.866025 -0 0.5
vt 9.87333 3.74016
vn -0.707107 -0 0.707107
vt 9.87333 7.48031
vt 11.9289 7.48031
f 11/30/9 10/31/10 7/32/10 9/33/9 

usemtl Dark_grey
v 1.67321 0.095 -1.6
vt 0.557735 0.533333
vn 0 1 -0
v 1.64142 0.095 -1.64142
vt 0.54714 0.54714
v 1.6 0.095 -1.67321
vt 0.533333 0.557735
v 1.55176 0.095 -1.69319
vt 0.517255 0.564395
v 1.5 0.095 -1.7
vt 0.5 0.566667
v 1.44824 0.095 -1.69319
vt 0.482745 0.564395
v 1.4 0.095 -1.67321
vt 0.466667 0.557735
v 1.35858 0.095 -1.64142
vt 0.45286 0.54714
v 1.32679 0.095 -1.6
vt 0.442265 0.533333
v 1.30681 0.095 -1.55176
vt 0.435605 0.517255
v 1.3 0.095 -1.5
vt 0.433333 0.5
v 1.30681 0.095 -1.44824
vt 0.435605 0.482745
v 1.4 0.095 -1.32679
vt 0.466667 0.442265
v 1.44824 0.095 -1.30681
vt 0.482745 0.435605
v 1.5 0.095 -1.3
vt 0.5 0.433333
v 1.55176 0.095 -1.30681
vt 0.517255 0.435605
v 1.6 0.095 -1.32679
vt 0.533333 0.442265
v 1.64142 0.095 -1.35858
vt 0.54714 0.45286
v 1.67321 0.095 -1.4
vt 0.557735 0.466667
v 1.69319 0.095 -1.44824
vt 0.564395 0.482745
v 1.7 0.095 -1.5
vt 0.566667 0.5
v 1.69319 0.095 -1.55176
vt 0.564395 0.517255
f 12/34/11 13/35/11 14/36/11 15/37/11 16/38/11 17/39/11 18/40/11 19/41/11 20/42/11 21/43/11 22/44/11 23/45/11 11/24/11 10/17/11 24/46/11 25/47/11 26/48/11 27/49/11 28/50/11 29/51/11 30/52/11 31/53/11 32/54/11 33/55/11 

usemtl BackColor
vt 66.6608 61.0931
vn -0 -1 0
vt 66.9291 59.0551
vt 66.6608 57.0172
vt 65.8742 55.1181
vt 64.6229 53.4873
vt 62.9921 52.236
vt 61.0931 51.4494
vt 59.0551 51.1811
vt 57.0172 51.4494
vt 55.1181 52.236
vt 51.4494 57.0172
vt 51.1811 59.0551
vt 51.4494 61.0931
vt 52.236 62.9921
vt 53.4873 64.6229
vt 55.1181 65.8742
vt 57.0172 66.6608
vt 59.0551 66.9291
vt 61.0931 66.6608
vt 62.9921 65.8742
vt 64.6229 64.6229
vt 65.8742 62.9921
f 33/56/12 32/57/12 31/58/12 30/59/12 29/60/12 28/61/12 27/62/12 26/63/12 25/64/12 24/65/12 10/22/12 11/25/12 23/66/12 22/67/12 21/68/12 20/69/12 19/70/12 18/71/12 17/72/12 16/73/12 15/74/12 14/75/12 13/76/12 12/77/12 

usemtl Red
v 1.7 0.19 -1.5
vt -0.421758 0.0633333
vn -1 0 -2.23961e-016
v 1.69319 0.19 -1.55176
vt -0.439161 0.0633333
vn -0.965926 0 0.258819
vt -0.439161 0.0316667
vt -0.421758 0.0316667
f 34/78/13 35/79/14 33/80/14 32/81/13 

usemtl Green
v 3 0.19 -3
vt 1 1
f 36/82/5 35/55/5 34/54/5

v 1.67321 0.19 -1.6
f 36/82/5 37/34/5 35/55/5

v 1.64142 0.19 -1.64142
f 36/82/5 38/35/5 37/34/5

v 1.6 0.19 -1.67321
f 36/82/5 39/36/5 38/35/5

v 1.55176 0.19 -1.69319
f 36/82/5 40/37/5 39/36/5

v 1.5 0.19 -1.7
f 36/82/5 41/38/5 40/37/5

v 1.44824 0.19 -1.69319
f 36/82/5 42/39/5 41/38/5

v 1.4 0.19 -1.67321
f 36/82/5 43/40/5 42/39/5

v 1.35858 0.19 -1.64142
f 36/82/5 44/41/5 43/40/5

f 8/20/5 44/41/5 36/82/5

v 1.32679 0.19 -1.6
f 44/41/5 8/20/5 45/42/5

usemtl BackColor
vt 118.11 118.11
f 36/83/6 44/70/6 8/21/6

f 43/71/6 44/70/6 36/83/6

usemtl Red
vt 0.709759 0.0633333
vn 0.5 0 0.866025
vt 0.692356 0.0633333
vn 0.707107 0 0.707107
vt 0.692356 0.0316667
vt 0.709759 0.0316667
f 43/84/15 44/85/16 19/86/16 18/87/15 

usemtl BackColor
vt 83.8298 3.74016
vn -0.5 -0 -0.866025
vt 81.7743 3.74016
vn -0.707107 -0 -0.707107
vt 81.7743 7.48031
vt 83.8298 7.48031
f 18/88/17 19/89/18 44/90/18 43/91/17 

usemtl Red
vn 0.866025 0 0.5
f 44/84/16 45/85/19 20/86/19 19/87/16 

usemtl BackColor
f 45/69/6 8/21/6 44/70/6

usemtl Green
v 1.30681 0.19 -1.55176
f 45/42/5 8/20/5 46/43/5

usemtl BackColor
f 46/68/6 8/21/6 45/69/6

usemtl Green
v 1.3 0.19 -1.5
f 46/43/5 8/20/5 47/44/5

usemtl BackColor
f 47/67/6 8/21/6 46/68/6

usemtl Green
v 1.30681 0.19 -1.44824
f 8/20/5 48/45/5 47/44/5

f 8/20/5 9/24/5 48/45/5

usemtl BackColor
f 48/66/6 9/25/6 8/21/6

usemtl Red
vt 0.2793 0.0633333
vn 0.965926 0 -0.258819
vt 0.261896 0.0633333
vt 0.261896 0.0316667
vt 0.2793 0.0316667
f 48/92/20 9/93/7 11/94/7 23/95/20 

usemtl BackColor
vt 32.9882 3.74016
vn -0.965926 -0 0.258819
vt 30.9326 3.74016
vt 30.9326 7.48031
vt 32.9882 7.48031
f 23/96/21 11/97/9 9/98/9 48/99/21 

usemtl Red
vt 0.439161 0.0633333
vn 1 0 2.23961e-016
vt 0.421758 0.0633333
vt 0.421758 0.0316667
vt 0.439161 0.0316667
f 47/100/22 48/101/20 23/102/20 22/103/22 

usemtl BackColor
f 47/67/6 48/66/6 8/21/6

vt 51.8694 3.74016
vn -1 -0 -2.23961e-016
vt 49.8139 3.74016
vt 49.8139 7.48031
vt 51.8694 7.48031
f 22/104/23 23/105/21 48/106/21 47/107/23 

usemtl Red
vt 0.569687 0.0633333
vn 0.965926 0 0.258819
vt 0.552284 0.0633333
vt 0.552284 0.0316667
vt 0.569687 0.0316667
f 46/108/24 47/109/22 22/110/22 21/111/24 

usemtl BackColor
vt 67.2859 3.74016
vn -0.965926 -0 -0.258819
vt 65.2304 3.74016
vt 65.2304 7.48031
vt 67.2859 7.48031
f 21/112/25 22/113/23 47/114/23 46/115/25 

usemtl Red
vt 0.661983 0.0633333
vt 0.64458 0.0633333
vt 0.64458 0.0316667
vt 0.661983 0.0316667
f 45/116/19 46/117/24 21/118/24 20/119/19 

usemtl BackColor
vt 78.187 3.74016
vn -0.866025 -0 -0.5
vt 76.1315 3.74016
vt 76.1315 7.48031
vt 78.187 7.48031
f 20/120/26 21/121/25 46/122/25 45/123/26 

f 19/88/18 20/89/26 45/90/26 44/91/18 

usemtl Red
vn 0.258819 0 0.965926
f 42/116/27 43/117/15 18/118/15 17/119/27 

usemtl BackColor
f 42/72/6 43/71/6 36/83/6

vn -0.258819 -0 -0.965926
f 17/120/28 18/121/17 43/122/17 42/123/28 

usemtl Red
vn 0 0 1
f 41/108/29 42/109/27 17/110/27 16/111/29 

usemtl BackColor
f 41/73/6 42/72/6 36/83/6

vn -0 -0 -1
f 16/112/30 17/113/28 42/114/28 41/115/30 

usemtl Red
vn -0.258819 0 0.965926
f 40/100/31 41/101/29 16/102/29 15/103/31 

usemtl BackColor
f 40/74/6 41/73/6 36/83/6

vn 0.258819 -0 -0.965926
f 15/104/32 16/105/30 41/106/30 40/107/32 

usemtl Red
vn -0.5 0 0.866025
f 39/92/33 40/93/31 15/94/31 14/95/33 

usemtl BackColor
f 39/75/6 40/74/6 36/83/6

vn 0.5 -0 -0.866025
f 14/96/34 15/97/32 40/98/32 39/99/34 

usemtl Red
vn -0.707107 0 0.707107
f 38/26/35 39/27/33 14/28/33 13/29/35 

usemtl BackColor
f 38/76/6 39/75/6 36/83/6

vn 0.707107 -0 -0.707107
f 13/30/36 14/31/34 39/32/34 38/33/36 

usemtl Red
vt -0.0835942 0.0633333
vn -0.866025 0 0.5
vt -0.100998 0.0633333
vt -0.100998 0.0316667
vt -0.0835942 0.0316667
f 37/124/37 38/125/35 13/126/35 12/127/37 

usemtl BackColor
f 37/77/6 38/76/6 36/83/6

vt -9.87333 3.74016
vn 0.866025 -0 -0.5
vt -11.9289 3.74016
vt -11.9289 7.48031
vt -9.87333 7.48031
f 12/128/38 13/129/36 38/130/36 37/131/38 

usemtl Red
vt -0.261896 0.0633333
vt -0.2793 0.0633333
vt -0.2793 0.0316667
vt -0.261896 0.0316667
f 35/132/14 37/133/37 12/134/37 33/135/14 

usemtl BackColor
f 35/56/6 37/77/6 36/83/6

vt -30.9326 3.74016
vn 0.965926 -0 -0.258819
vt -32.9882 3.74016
vt -32.9882 7.48031
vt -30.9326 7.48031
f 33/136/39 12/137/38 37/138/38 35/139/39 

vt -49.8139 3.74016
vn 1 -0 2.23961e-016
vt -51.8694 3.74016
vt -51.8694 7.48031
vt -49.8139 7.48031
f 32/140/40 33/141/39 35/142/39 34/143/40 

f 34/57/6 35/56/6 36/83/6

usemtl Green
f 36/82/5 34/54/5 5/19/5

usemtl BackColor
vt 118.11 -1.51101e-028
f 5/144/6 34/57/6 36/83/6

usemtl Green
v 1.69319 0.19 -1.44824
f 49/53/5 5/19/5 34/54/5

v 1.67321 0.19 -1.4
f 50/52/5 5/19/5 49/53/5

v 1.64142 0.19 -1.35858
f 51/51/5 5/19/5 50/52/5

v 1.6 0.19 -1.32679
f 52/50/5 5/19/5 51/51/5

v 1.55176 0.19 -1.30681
f 53/49/5 5/19/5 52/50/5

v 1.5 0.19 -1.3
f 54/48/5 5/19/5 53/49/5

v 1.44824 0.19 -1.30681
f 55/47/5 5/19/5 54/48/5

v 1.4 0.19 -1.32679
f 56/46/5 5/19/5 55/47/5

f 7/17/5 5/19/5 56/46/5

usemtl BackColor
f 5/144/6 6/23/6 7/22/6

f 56/65/6 5/144/6 7/22/6

f 55/64/6 5/144/6 56/65/6

f 54/63/6 5/144/6 55/64/6

f 53/62/6 5/144/6 54/63/6

f 52/61/6 5/144/6 53/62/6

f 51/60/6 5/144/6 52/61/6

f 50/59/6 5/144/6 51/60/6

f 49/58/6 5/144/6 50/59/6

f 34/57/6 5/144/6 49/58/6

usemtl Red
vt -0.552284 0.0633333
vn -0.965926 0 -0.258819
vt -0.569687 0.0633333
vt -0.569687 0.0316667
vt -0.552284 0.0316667
f 49/145/41 34/146/13 32/147/13 31/148/41 

usemtl BackColor
vt -65.2304 3.74016
vn 0.965926 -0 0.258819
vt -67.2859 3.74016
vt -67.2859 7.48031
vt -65.2304 7.48031
f 31/149/42 32/150/40 34/151/40 49/152/42 

usemtl Red
vt -0.64458 0.0633333
vn -0.866025 0 -0.5
vt -0.661983 0.0633333
vt -0.661983 0.0316667
vt -0.64458 0.0316667
f 50/153/43 49/154/41 31/155/41 30/156/43 

usemtl BackColor
vt -76.1315 3.74016
vn 0.866025 -0 0.5
vt -78.187 3.74016
vt -78.187 7.48031
vt -76.1315 7.48031
f 30/157/44 31/158/42 49/159/42 50/160/44 

usemtl Red
vt -0.692356 0.0633333
vn -0.707107 0 -0.707107
vt -0.709759 0.0633333
vt -0.709759 0.0316667
vt -0.692356 0.0316667
f 51/161/45 50/162/43 30/163/43 29/164/45 

usemtl BackColor
vt -81.7743 3.74016
vn 0.707107 -0 0.707107
vt -83.8298 3.74016
vt -83.8298 7.48031
vt -81.7743 7.48031
f 29/165/46 30/166/44 50/167/44 51/168/46 

usemtl Red
vn -0.5 0 -0.866025
f 52/161/47 51/162/45 29/163/45 28/164/47 

usemtl BackColor
vn 0.5 -0 0.866025
f 28/165/48 29/166/46 51/167/46 52/168/48 

usemtl Red
vn -0.258819 0 -0.965926
f 53/153/49 52/154/47 28/155/47 27/156/49 

usemtl BackColor
vn 0.258819 -0 0.965926
f 27/157/50 28/158/48 52/159/48 53/160/50 

usemtl Red
vn -1.7217e-015 0 -1
f 54/145/51 53/146/49 27/147/49 26/148/51 

usemtl BackColor
vn 1.7217e-015 -0 1
f 26/149/52 27/150/50 53/151/50 54/152/52 

usemtl Red
vn 0.258819 0 -0.965926
f 55/78/53 54/79/51 26/80/51 25/81/53 

usemtl BackColor
vn -0.258819 -0 0.965926
f 25/140/54 26/141/52 54/142/52 55/143/54 

usemtl Red
vn 0.5 0 -0.866025
f 56/132/55 55/133/53 25/134/53 24/135/55 

usemtl BackColor
vn -0.5 -0 0.866025
f 24/136/56 25/137/54 55/138/54 56/139/56 

usemtl Red
f 7/124/8 56/125/55 24/126/55 10/127/8 

usemtl BackColor
f 10/128/10 24/129/56 56/130/56 7/131/10 

usemtl Green
vn 1 0 6.18949e-015
vt 6.18949e-015 0.0633333
vt 6.18949e-015 0
vt 1 0
f 36/11/57 5/169/57 3/170/57 2/171/57 

usemtl BackColor
vt 118.11 0
vn -1 -0 -6.18949e-015
vt 7.31043e-013 0
vt 7.31043e-013 7.48031
f 2/172/58 3/173/58 5/174/58 36/14/58 

usemtl Green
vt -1 0.0633333
vn 5.96304e-015 -4.50744e-016 -1
vt -1 4.50744e-016
vt 1.8775e-016 4.50744e-016
vt 1.8775e-016 0.0633333
f 36/175/59 2/176/59 1/177/59 8/178/59 

usemtl BackColor
vt 2.21752e-014 7.48031
vn -5.96304e-015 4.50744e-016 1
vt 2.21752e-014 5.32375e-014
vt -118.11 5.32375e-014
vt -118.11 7.48031
f 8/179/60 1/180/60 2/181/60 36/182/60 

usemtl Green
vt -6.73784e-015 -4.7265e-044
vn -1 1.18605e-015 -5.91446e-015
vt -6.73784e-015 0.0633333
vt -1 -1.65056e-031
f 4/183/61 6/184/61 8/175/61 1/185/61 

usemtl BackColor
vt -118.11 -1.94948e-029
vn 1 -1.18605e-015 5.91446e-015
vt -7.95808e-013 7.48031
vt -7.95808e-013 -5.58248e-042
f 1/186/62 8/182/62 6/187/62 4/188/62 

