# Alias OBJ Model File
# Exported from SketchUp, (c) 2000-2012 Trimble Navigation Limited
# File units = meters

mtllib Hole_square_01.mtl

g Mesh1 Hole_square Model

usemtl Red
v 1.73259e-014 0 -3
vt -5.77529e-015 1
vn 0 -1 -0
v 3 0 -3
vt -1 1
v 3 0 -0
vt -1 0
v 2.7 0 -1.85685e-015
vt -0.9 6.18949e-016
v 0.3 0 -1.74335e-014
vt -0.1 5.81118e-015
v 0 0 -2.07342e-014
vt 0 6.9114e-015
f 1/1/1 2/2/1 3/3/1 4/4/1 5/5/1 6/6/1 

usemtl BackColor
vt 0 8.16308e-013
vn -0 1 0
vt -11.811 6.8636e-013
vt -106.299 7.31043e-014
vt -118.11 0
vt -118.11 118.11
vt -6.82121e-013 118.11
f 6/7/2 5/8/2 4/9/2 3/10/2 2/11/2 1/12/2 

usemtl Red
vt -8.73084e-029 -5.39536e-030
vn -1.26325e-014 -7.80646e-016 1
vt 0.1 -5.52262e-030
v 0.3 0.19 -1.67116e-014
vt 0.1 0.0633333
v 0.3 0.44 -1.67116e-014
vt 0.1 0.146667
v 0 0.44 -2.07342e-014
vt -8.73084e-029 0.146667
f 6/13/3 5/14/3 7/15/3 8/16/3 9/17/3 

usemtl BackColor
vt -1.0312e-026 17.3228
vn 1.26325e-014 7.80646e-016 -1
vt 11.811 17.3228
vt 11.811 7.48031
vt 11.811 -6.52279e-028
vt -1.0312e-026 -6.37247e-028
f 9/18/4 8/19/4 7/20/4 5/21/4 6/22/4 

usemtl Red
v 3 0.44 -3
vt 1 1
vn -1.1139e-016 1 -1.78812e-017
v 1.73259e-014 0.44 -3
vt 5.79163e-015 1
vt 1.63372e-017 6.90878e-015
vt 0.1 5.56792e-015
v 0.3 0.44 -2.7
vt 0.1 0.9
v 2.7 0.44 -2.7
vt 0.9 0.9
v 2.7 0.44 -1.85685e-015
vt 0.9 6.16327e-016
v 3 0.44 -0
vt 1 -2.62257e-018
f 10/23/5 11/24/5 9/25/5 8/26/5 12/27/5 13/28/5 14/29/5 15/30/5 

usemtl BackColor
vt 118.11 -3.09753e-016
vn 1.1139e-016 -1 1.78812e-017
vt 106.299 7.27945e-014
vt 106.299 106.299
vt 11.811 106.299
vt 11.811 6.57629e-013
vt 1.92959e-015 8.15998e-013
vt 6.84051e-013 118.11
vt 118.11 118.11
f 15/31/6 14/32/6 13/33/6 12/34/6 8/35/6 9/36/6 11/37/6 10/38/6 

usemtl Red
vt 0.9 0.146667
vn -6.18949e-015 2.08404e-031 1
v 2.7 0.19 -1.85685e-015
vt 0.9 0.0633333
vt 0.9 1.28991e-045
vt 1 1.28991e-045
vt 1 0.146667
f 14/39/7 16/40/7 4/41/7 3/42/7 15/43/7 

usemtl BackColor
vt 118.11 17.3228
vn 6.18949e-015 -2.08404e-031 -1
vt 118.11 1.52352e-043
vt 106.299 1.52352e-043
vt 106.299 7.48031
vt 106.299 17.3228
f 15/44/8 3/45/8 4/46/8 16/47/8 14/48/8 

usemtl Red
vn 1 0 6.18949e-015
vt 6.18949e-015 0.146667
vt 6.18949e-015 0
vt 1 0
f 10/43/9 15/49/9 3/50/9 2/51/9 

usemtl BackColor
vt 118.11 0
vn -1 -0 -6.18949e-015
vt 7.31043e-013 0
vt 7.31043e-013 17.3228
f 2/52/10 3/53/10 15/54/10 10/44/10 

usemtl Red
vt -1 0.146667
vn 5.96304e-015 -4.50744e-016 -1
vt -1 4.50744e-016
vt 1.8775e-016 4.50744e-016
vt 1.8775e-016 0.146667
f 10/55/11 2/56/11 1/57/11 11/58/11 

usemtl BackColor
vt 2.21752e-014 17.3228
vn -5.96304e-015 4.50744e-016 1
vt 2.21752e-014 5.32375e-014
vt -118.11 5.32375e-014
vt -118.11 17.3228
f 11/59/12 1/60/12 2/61/12 10/62/12 

usemtl Red
vt -6.9114e-015 -4.84826e-044
vn -1 1.18605e-015 -5.91446e-015
vt -6.9114e-015 0.146667
vt -1 -1.65056e-031
f 6/63/13 9/64/13 11/55/13 1/65/13 

usemtl BackColor
vt -118.11 -1.94948e-029
vn 1 -1.18605e-015 5.91446e-015
vt -8.16308e-013 17.3228
vt -8.16308e-013 -5.72629e-042
f 1/66/14 11/62/14 9/67/14 6/68/14 

usemtl Green
vt 0.1 -1.22443e-029
vn -6.33989e-015 -1.89977e-015 1
vt 0.9 -1.20157e-029
f 5/69/15 4/70/15 16/40/15 7/15/15 

usemtl BackColor
vn 6.33989e-015 1.89977e-015 -1
vt 106.299 -1.41918e-027
vt 11.811 -1.44618e-027
f 7/20/16 16/47/16 4/71/16 5/72/16 

usemtl Green
v 1.35858 0.19 -1.35858
vt 0.45286 0.45286
vn 0 1 -0
vt 0.1 5.57054e-015
vt 0.9 6.18949e-016
f 17/73/17 7/74/17 16/75/17

v 0.3 0.19 -2.7
f 7/74/17 17/73/17 18/27/17

usemtl BackColor
vn -0 -1 0
vt 53.4873 53.4873
vt 11.811 6.57938e-013
f 18/34/18 17/76/18 7/77/18

usemtl Green
v 1.32679 0.19 -1.4
vt 0.442265 0.466667
f 18/27/17 17/73/17 19/78/17

usemtl BackColor
vt 52.236 55.1181
f 19/79/18 17/76/18 18/34/18

usemtl Red
vt 0.100998 0.0633333
vn 0.866025 0 -0.5
vt 0.0835942 0.0633333
vn 0.707107 0 -0.707107
v 1.35858 0.095 -1.35858
vt 0.0835942 0.0316667
v 1.32679 0.095 -1.4
vt 0.100998 0.0316667
f 19/80/19 17/81/20 20/82/20 21/83/19 

usemtl BackColor
vt 11.9289 3.74016
vn -0.866025 -0 0.5
vt 9.87333 3.74016
vn -0.707107 -0 0.707107
vt 9.87333 7.48031
vt 11.9289 7.48031
f 21/84/21 20/85/22 17/86/22 19/87/21 

usemtl Dark_grey
v 1.67321 0.095 -1.6
vt 0.557735 0.533333
v 1.64142 0.095 -1.64142
vt 0.54714 0.54714
v 1.6 0.095 -1.67321
vt 0.533333 0.557735
v 1.55176 0.095 -1.69319
vt 0.517255 0.564395
v 1.5 0.095 -1.7
vt 0.5 0.566667
v 1.44824 0.095 -1.69319
vt 0.482745 0.564395
v 1.4 0.095 -1.67321
vt 0.466667 0.557735
v 1.35858 0.095 -1.64142
vt 0.45286 0.54714
v 1.32679 0.095 -1.6
vt 0.442265 0.533333
v 1.30681 0.095 -1.55176
vt 0.435605 0.517255
v 1.3 0.095 -1.5
vt 0.433333 0.5
v 1.30681 0.095 -1.44824
vt 0.435605 0.482745
v 1.4 0.095 -1.32679
vt 0.466667 0.442265
v 1.44824 0.095 -1.30681
vt 0.482745 0.435605
v 1.5 0.095 -1.3
vt 0.5 0.433333
v 1.55176 0.095 -1.30681
vt 0.517255 0.435605
v 1.6 0.095 -1.32679
vt 0.533333 0.442265
v 1.64142 0.095 -1.35858
vt 0.54714 0.45286
v 1.67321 0.095 -1.4
vt 0.557735 0.466667
v 1.69319 0.095 -1.44824
vt 0.564395 0.482745
v 1.7 0.095 -1.5
vt 0.566667 0.5
v 1.69319 0.095 -1.55176
vt 0.564395 0.517255
f 22/88/17 23/89/17 24/90/17 25/91/17 26/92/17 27/93/17 28/94/17 29/95/17 30/96/17 31/97/17 32/98/17 33/99/17 21/78/17 20/73/17 34/100/17 35/101/17 36/102/17 37/103/17 38/104/17 39/105/17 40/106/17 41/107/17 42/108/17 43/109/17 

usemtl BackColor
vt 66.6608 61.0931
vt 66.9291 59.0551
vt 66.6608 57.0172
vt 65.8742 55.1181
vt 64.6229 53.4873
vt 62.9921 52.236
vt 61.0931 51.4494
vt 59.0551 51.1811
vt 57.0172 51.4494
vt 55.1181 52.236
vt 51.4494 57.0172
vt 51.1811 59.0551
vt 51.4494 61.0931
vt 52.236 62.9921
vt 53.4873 64.6229
vt 55.1181 65.8742
vt 57.0172 66.6608
vt 59.0551 66.9291
vt 61.0931 66.6608
vt 62.9921 65.8742
vt 64.6229 64.6229
vt 65.8742 62.9921
f 43/110/18 42/111/18 41/112/18 40/113/18 39/114/18 38/115/18 37/116/18 36/117/18 35/118/18 34/119/18 20/76/18 21/79/18 33/120/18 32/121/18 31/122/18 30/123/18 29/124/18 28/125/18 27/126/18 26/127/18 25/128/18 24/129/18 23/130/18 22/131/18 

usemtl Red
v 1.7 0.19 -1.5
vt -0.421758 0.0633333
vn -1 0 -2.23961e-016
v 1.69319 0.19 -1.55176
vt -0.439161 0.0633333
vn -0.965926 0 0.258819
vt -0.439161 0.0316667
vt -0.421758 0.0316667
f 44/132/23 45/133/24 43/134/24 42/135/23 

usemtl Green
v 2.7 0.19 -2.7
f 46/28/17 45/109/17 44/108/17

v 1.67321 0.19 -1.6
f 46/28/17 47/88/17 45/109/17

v 1.64142 0.19 -1.64142
f 46/28/17 48/89/17 47/88/17

v 1.6 0.19 -1.67321
f 46/28/17 49/90/17 48/89/17

v 1.55176 0.19 -1.69319
f 46/28/17 50/91/17 49/90/17

v 1.5 0.19 -1.7
f 46/28/17 51/92/17 50/91/17

v 1.44824 0.19 -1.69319
f 46/28/17 52/93/17 51/92/17

v 1.4 0.19 -1.67321
f 46/28/17 53/94/17 52/93/17

v 1.35858 0.19 -1.64142
f 46/28/17 54/95/17 53/94/17

f 18/27/17 54/95/17 46/28/17

v 1.32679 0.19 -1.6
f 54/95/17 18/27/17 55/96/17

usemtl BackColor
f 46/33/18 54/124/18 18/34/18

f 53/125/18 54/124/18 46/33/18

usemtl Red
vt 0.709759 0.0633333
vn 0.5 0 0.866025
vt 0.692356 0.0633333
vn 0.707107 0 0.707107
vt 0.692356 0.0316667
vt 0.709759 0.0316667
f 53/136/25 54/137/26 29/138/26 28/139/25 

usemtl BackColor
vt 83.8298 3.74016
vn -0.5 -0 -0.866025
vt 81.7743 3.74016
vn -0.707107 -0 -0.707107
vt 81.7743 7.48031
vt 83.8298 7.48031
f 28/140/27 29/141/28 54/142/28 53/143/27 

usemtl Red
vn 0.866025 0 0.5
f 54/136/26 55/137/29 30/138/29 29/139/26 

usemtl BackColor
f 55/123/18 18/34/18 54/124/18

usemtl Green
v 1.30681 0.19 -1.55176
f 55/96/17 18/27/17 56/97/17

usemtl BackColor
f 56/122/18 18/34/18 55/123/18

usemtl Green
v 1.3 0.19 -1.5
f 56/97/17 18/27/17 57/98/17

usemtl BackColor
f 57/121/18 18/34/18 56/122/18

usemtl Green
v 1.30681 0.19 -1.44824
f 18/27/17 58/99/17 57/98/17

f 18/27/17 19/78/17 58/99/17

usemtl BackColor
f 58/120/18 19/79/18 18/34/18

usemtl Red
vt 0.2793 0.0633333
vn 0.965926 0 -0.258819
vt 0.261896 0.0633333
vt 0.261896 0.0316667
vt 0.2793 0.0316667
f 58/144/30 19/145/19 21/146/19 33/147/30 

usemtl BackColor
vt 32.9882 3.74016
vn -0.965926 -0 0.258819
vt 30.9326 3.74016
vt 30.9326 7.48031
vt 32.9882 7.48031
f 33/148/31 21/149/21 19/150/21 58/151/31 

usemtl Red
vt 0.439161 0.0633333
vn 1 0 2.23961e-016
vt 0.421758 0.0633333
vt 0.421758 0.0316667
vt 0.439161 0.0316667
f 57/152/32 58/153/30 33/154/30 32/155/32 

usemtl BackColor
f 57/121/18 58/120/18 18/34/18

vt 51.8694 3.74016
vn -1 -0 -2.23961e-016
vt 49.8139 3.74016
vt 49.8139 7.48031
vt 51.8694 7.48031
f 32/156/33 33/157/31 58/158/31 57/159/33 

usemtl Red
vt 0.569687 0.0633333
vn 0.965926 0 0.258819
vt 0.552284 0.0633333
vt 0.552284 0.0316667
vt 0.569687 0.0316667
f 56/160/34 57/161/32 32/162/32 31/163/34 

usemtl BackColor
vt 67.2859 3.74016
vn -0.965926 -0 -0.258819
vt 65.2304 3.74016
vt 65.2304 7.48031
vt 67.2859 7.48031
f 31/164/35 32/165/33 57/166/33 56/167/35 

usemtl Red
vt 0.661983 0.0633333
vt 0.64458 0.0633333
vt 0.64458 0.0316667
vt 0.661983 0.0316667
f 55/168/29 56/169/34 31/170/34 30/171/29 

usemtl BackColor
vt 78.187 3.74016
vn -0.866025 -0 -0.5
vt 76.1315 3.74016
vt 76.1315 7.48031
vt 78.187 7.48031
f 30/172/36 31/173/35 56/174/35 55/175/36 

f 29/140/28 30/141/36 55/142/36 54/143/28 

usemtl Red
vn 0.258819 0 0.965926
f 52/168/37 53/169/25 28/170/25 27/171/37 

usemtl BackColor
f 52/126/18 53/125/18 46/33/18

vn -0.258819 -0 -0.965926
f 27/172/38 28/173/27 53/174/27 52/175/38 

usemtl Red
vn 0 0 1
f 51/160/39 52/161/37 27/162/37 26/163/39 

usemtl BackColor
f 51/127/18 52/126/18 46/33/18

vn -0 -0 -1
f 26/164/40 27/165/38 52/166/38 51/167/40 

usemtl Red
vn -0.258819 0 0.965926
f 50/152/41 51/153/39 26/154/39 25/155/41 

usemtl BackColor
f 50/128/18 51/127/18 46/33/18

vn 0.258819 -0 -0.965926
f 25/156/42 26/157/40 51/158/40 50/159/42 

usemtl Red
vn -0.5 0 0.866025
f 49/144/43 50/145/41 25/146/41 24/147/43 

usemtl BackColor
f 49/129/18 50/128/18 46/33/18

vn 0.5 -0 -0.866025
f 24/148/44 25/149/42 50/150/42 49/151/44 

usemtl Red
vn -0.707107 0 0.707107
f 48/80/45 49/81/43 24/82/43 23/83/45 

usemtl BackColor
f 48/130/18 49/129/18 46/33/18

vn 0.707107 -0 -0.707107
f 23/84/46 24/85/44 49/86/44 48/87/46 

usemtl Red
vt -0.0835942 0.0633333
vn -0.866025 0 0.5
vt -0.100998 0.0633333
vt -0.100998 0.0316667
vt -0.0835942 0.0316667
f 47/176/47 48/177/45 23/178/45 22/179/47 

usemtl BackColor
f 47/131/18 48/130/18 46/33/18

vt -9.87333 3.74016
vn 0.866025 -0 -0.5
vt -11.9289 3.74016
vt -11.9289 7.48031
vt -9.87333 7.48031
f 22/180/48 23/181/46 48/182/46 47/183/48 

usemtl Red
vt -0.261896 0.0633333
vt -0.2793 0.0633333
vt -0.2793 0.0316667
vt -0.261896 0.0316667
f 45/184/24 47/185/47 22/186/47 43/187/24 

usemtl BackColor
f 45/110/18 47/131/18 46/33/18

vt -30.9326 3.74016
vn 0.965926 -0 -0.258819
vt -32.9882 3.74016
vt -32.9882 7.48031
vt -30.9326 7.48031
f 43/188/49 22/189/48 47/190/48 45/191/49 

vt -49.8139 3.74016
vn 1 -0 2.23961e-016
vt -51.8694 3.74016
vt -51.8694 7.48031
vt -49.8139 7.48031
f 42/192/50 43/193/49 45/194/49 44/195/50 

f 44/111/18 45/110/18 46/33/18

usemtl Green
f 46/28/17 44/108/17 16/75/17

usemtl BackColor
vt 106.299 7.31043e-014
f 16/196/18 44/111/18 46/33/18

usemtl Green
v 1.69319 0.19 -1.44824
f 59/107/17 16/75/17 44/108/17

v 1.67321 0.19 -1.4
f 60/106/17 16/75/17 59/107/17

v 1.64142 0.19 -1.35858
f 61/105/17 16/75/17 60/106/17

v 1.6 0.19 -1.32679
f 62/104/17 16/75/17 61/105/17

v 1.55176 0.19 -1.30681
f 63/103/17 16/75/17 62/104/17

v 1.5 0.19 -1.3
f 64/102/17 16/75/17 63/103/17

v 1.44824 0.19 -1.30681
f 65/101/17 16/75/17 64/102/17

v 1.4 0.19 -1.32679
f 66/100/17 16/75/17 65/101/17

f 17/73/17 16/75/17 66/100/17

usemtl BackColor
f 16/196/18 7/77/18 17/76/18

f 66/119/18 16/196/18 17/76/18

f 65/118/18 16/196/18 66/119/18

f 64/117/18 16/196/18 65/118/18

f 63/116/18 16/196/18 64/117/18

f 62/115/18 16/196/18 63/116/18

f 61/114/18 16/196/18 62/115/18

f 60/113/18 16/196/18 61/114/18

f 59/112/18 16/196/18 60/113/18

f 44/111/18 16/196/18 59/112/18

usemtl Red
vt -0.552284 0.0633333
vn -0.965926 0 -0.258819
vt -0.569687 0.0633333
vt -0.569687 0.0316667
vt -0.552284 0.0316667
f 59/197/51 44/198/23 42/199/23 41/200/51 

usemtl BackColor
vt -65.2304 3.74016
vn 0.965926 -0 0.258819
vt -67.2859 3.74016
vt -67.2859 7.48031
vt -65.2304 7.48031
f 41/201/52 42/202/50 44/203/50 59/204/52 

usemtl Red
vt -0.64458 0.0633333
vn -0.866025 0 -0.5
vt -0.661983 0.0633333
vt -0.661983 0.0316667
vt -0.64458 0.0316667
f 60/205/53 59/206/51 41/207/51 40/208/53 

usemtl BackColor
vt -76.1315 3.74016
vn 0.866025 -0 0.5
vt -78.187 3.74016
vt -78.187 7.48031
vt -76.1315 7.48031
f 40/209/54 41/210/52 59/211/52 60/212/54 

usemtl Red
vt -0.692356 0.0633333
vn -0.707107 0 -0.707107
vt -0.709759 0.0633333
vt -0.709759 0.0316667
vt -0.692356 0.0316667
f 61/213/55 60/214/53 40/215/53 39/216/55 

usemtl BackColor
vt -81.7743 3.74016
vn 0.707107 -0 0.707107
vt -83.8298 3.74016
vt -83.8298 7.48031
vt -81.7743 7.48031
f 39/217/56 40/218/54 60/219/54 61/220/56 

usemtl Red
vn -0.5 0 -0.866025
f 62/213/57 61/214/55 39/215/55 38/216/57 

usemtl BackColor
vn 0.5 -0 0.866025
f 38/217/58 39/218/56 61/219/56 62/220/58 

usemtl Red
vn -0.258819 0 -0.965926
f 63/205/59 62/206/57 38/207/57 37/208/59 

usemtl BackColor
vn 0.258819 -0 0.965926
f 37/209/60 38/210/58 62/211/58 63/212/60 

usemtl Red
vn -1.7217e-015 0 -1
f 64/197/61 63/198/59 37/199/59 36/200/61 

usemtl BackColor
vn 1.7217e-015 -0 1
f 36/201/62 37/202/60 63/203/60 64/204/62 

usemtl Red
vn 0.258819 0 -0.965926
f 65/132/63 64/133/61 36/134/61 35/135/63 

usemtl BackColor
vn -0.258819 -0 0.965926
f 35/192/64 36/193/62 64/194/62 65/195/64 

usemtl Red
vn 0.5 0 -0.866025
f 66/184/65 65/185/63 35/186/63 34/187/65 

usemtl BackColor
vn -0.5 -0 0.866025
f 34/188/66 35/189/64 65/190/64 66/191/66 

usemtl Red
f 17/176/20 66/177/65 34/178/65 20/179/20 

usemtl BackColor
f 20/180/22 34/181/66 66/182/66 17/183/22 

usemtl Red
vt -0.9 0.0633333
vn -1 -1.08215e-030 -6.41699e-015
vt -6.39424e-015 0.0633333
vt -6.39424e-015 0.146667
vt -0.9 0.146667
f 46/221/67 16/222/67 14/223/67 13/224/67 

usemtl BackColor
vt -106.299 17.3228
vn 1 1.08215e-030 6.41699e-015
vt -7.55225e-013 17.3228
vt -7.55225e-013 7.48031
vt -106.299 7.48031
f 13/225/68 14/226/68 16/227/68 46/228/68 

usemtl Red
vn -1.06783e-014 0 1
f 12/16/69 18/15/69 46/40/69 13/39/69 

vt 5.99834e-015 0.0633333
vn 1 0 4.27799e-015
vt 5.99834e-015 0.146667
f 7/229/70 18/40/70 12/39/70 8/230/70 

usemtl BackColor
vt 7.08466e-013 17.3228
vn -1 -0 -4.27799e-015
vt 7.08466e-013 7.48031
f 8/231/71 12/48/71 18/47/71 7/232/71 

vn 1.06783e-014 -0 -1
f 13/48/72 46/47/72 18/20/72 12/19/72 

