# Alias OBJ Model File
# Exported from SketchUp, (c) 2000-2012 Trimble Navigation Limited
# File units = meters

mtllib Inner_corner_01.mtl

g Mesh1 Inner_corner Model

usemtl Red
v 1.73259e-014 0 -3
vt -5.77529e-015 1
vn 0 -1 -0
v 3 0 -3
vt -1 1
v 3 0 -0
vt -1 0
v 0.3 0 -1.74335e-014
vt -0.1 5.81118e-015
v 0 0 -2.07342e-014
vt 0 6.9114e-015
v 5.77529e-015 0 -0.3
vt -1.9251e-015 0.1
f 1/1/1 2/2/1 3/3/1 4/4/1 5/5/1 6/6/1 

usemtl BackColor
vt -2.27374e-013 11.811
vn -0 1 0
vt 0 8.16308e-013
vt -11.811 6.8636e-013
vt -118.11 0
vt -118.11 118.11
vt -6.82121e-013 118.11
f 6/7/2 5/8/2 4/9/2 3/10/2 2/11/2 1/12/2 

usemtl Red
v 0 0.44 -0.3
vt -0.1 0.146667
vn -1 -8.0295e-015 -2.54003e-014
v 1.73259e-014 0.19 -0.3
vt -0.1 0.0633333
vt -0.1 4.93761e-030
vt -6.9114e-015 1.40959e-042
v 0 0.44 -2.07342e-014
vt -6.9114e-015 0.146667
f 7/13/3 8/14/3 6/15/3 5/16/3 9/17/3 

usemtl BackColor
vt -8.16308e-013 17.3228
vn 1 8.0295e-015 2.54003e-014
vt -8.16308e-013 1.66487e-040
vt -11.811 5.83183e-028
vt -11.811 7.48031
vt -11.811 17.3228
f 9/18/4 5/19/4 6/20/4 8/21/4 7/22/4 

usemtl Red
vt -8.73084e-029 -5.39536e-030
vn -1.26325e-014 -7.80646e-016 1
vt 0.1 -5.52262e-030
v 0.3 0.19 -1.67116e-014
vt 0.1 0.0633333
v 0.3 0.44 -1.67116e-014
vt 0.1 0.146667
vt -8.73084e-029 0.146667
f 5/23/5 4/24/5 10/25/5 11/26/5 9/27/5 

usemtl BackColor
vt -1.0312e-026 17.3228
vn 1.26325e-014 7.80646e-016 -1
vt 11.811 17.3228
vt 11.811 7.48031
vt 11.811 -6.52279e-028
vt -1.0312e-026 -6.37247e-028
f 9/28/6 11/29/6 10/30/6 4/31/6 5/32/6 

usemtl Red
vt 0.1 5.57054e-015
vn 0 1 -0
v 0.3 0.44 -0.3
vt 0.1 0.1
vt 0 0.1
f 11/33/7 12/34/7 7/35/7 9/5/7 

usemtl BackColor
vn -0 -1 0
vt 0 11.811
vt 11.811 11.811
vt 11.811 6.57938e-013
f 9/8/8 7/36/8 12/37/8 11/38/8 

usemtl Red
vn 1.72694e-028 7.3034e-012 -1
v 0.3 0.19 -0.3
vt -5.77529e-015 0.0633333
vt 1.72694e-029 0.146667
f 12/13/9 13/14/9 8/39/9 7/40/9 

vt 7.49564e-015 0.0633333
vn 1 2.31012e-014 1.9251e-014
vt 7.49564e-015 0.146667
f 10/41/10 13/25/10 12/26/10 11/42/10 

usemtl BackColor
vt 8.85312e-013 17.3228
vn -1 -2.31012e-014 -1.9251e-014
vt 8.85312e-013 7.48031
f 11/43/11 12/29/11 13/30/11 10/44/11 

vt 2.03969e-027 17.3228
vn -1.72694e-028 -7.3034e-012 1
vt -6.82121e-013 7.48031
f 7/45/12 8/46/12 13/21/12 12/22/12 

usemtl Green
vt 5.74313e-015 0.1
vn 5.07825e-016 1 -5.39717e-016
vt 0.1 5.53636e-015
v 3 0.19 -2.0518e-029
vt 1 -3.41821e-017
v 3 0.19 -3
vt 1 1
v 1.73259e-014 0.19 -3
vt 5.74313e-015 1
f 8/47/13 13/34/13 10/48/13 14/49/13 15/50/13 16/51/13 

usemtl BackColor
vt 6.78322e-013 118.11
vn -5.07825e-016 -1 5.39717e-016
vt 118.11 118.11
vt 118.11 -4.03726e-015
vt 11.811 6.53901e-013
vt 6.78322e-013 11.811
f 16/52/14 15/53/14 14/54/14 10/55/14 13/37/14 8/56/14 

usemtl Green
vt 1.11724e-016 1.26651e-015
vn 5.88702e-015 -1.26651e-015 -1
vt 1.11724e-016 0.0633333
vt -1 0.0633333
vt -1 1.26651e-015
f 1/57/15 16/58/15 15/59/15 2/60/15 

usemtl BackColor
vt -118.11 1.49588e-013
vn -5.88702e-015 1.26651e-015 1
vt -118.11 7.48031
vt 1.31958e-014 7.48031
vt 1.31958e-014 1.49588e-013
f 2/61/16 15/62/16 16/63/16 1/64/16 

usemtl Green
vt 1 1.48236e-016
vn 1 -1.48236e-016 6.09614e-015
vt 1 0.0633333
vt 6.09614e-015 0.0633333
vt 6.09614e-015 1.48236e-016
f 2/65/17 15/66/17 14/67/17 3/68/17 

usemtl BackColor
vt 7.20017e-013 1.75082e-014
vn -1 1.48236e-016 -6.09614e-015
vt 7.20017e-013 7.48031
vt 118.11 7.48031
vt 118.11 1.75082e-014
f 3/69/18 14/70/18 15/71/18 2/72/18 

usemtl Green
vt 1 -8.0165e-030
vn -6.32959e-015 -1.26651e-015 1
vt 0.1 -8.16158e-030
f 3/73/19 14/66/19 10/25/19 4/74/19 

usemtl BackColor
vt 11.811 -9.63966e-028
vn 6.32959e-015 1.26651e-015 -1
vt 118.11 -9.4683e-028
f 4/75/20 10/30/20 14/71/20 3/76/20 

usemtl Green
vt -1 1.1053e-028
vn -1 3.03963e-014 -2.139e-015
vt -0.1 5.2014e-029
f 1/77/21 6/78/21 8/14/21 16/59/21 

usemtl BackColor
vn 1 -3.03963e-014 2.139e-015
vt -11.811 6.14339e-027
vt -118.11 1.30547e-026
f 16/62/22 8/21/22 6/79/22 1/80/22 

