# Alias OBJ Model File
# Exported from SketchUp, (c) 2000-2012 Trimble Navigation Limited
# File units = meters

mtllib Narrow_square_01.mtl

g Mesh1 Narrow_square Model

usemtl Red
v 0.3 0.44 -3
vt -0.1 0.146667
vn 2.79442e-015 -3.90323e-016 -1
v 0.3 0.19 -3
vt -0.1 0.0633333
v 0.3 0 -3
vt -0.1 3.90323e-016
v 1.87697e-014 0 -3
vt -3.46214e-015 3.90323e-016
v 1.87697e-014 0.44 -3
vt -3.46214e-015 0.146667
f 1/1/1 2/2/1 3/3/1 4/4/1 5/5/1 

usemtl BackColor
vt -4.08915e-013 17.3228
vn -2.79442e-015 3.90323e-016 1
vt -4.08915e-013 4.61011e-014
vt -11.811 4.61011e-014
vt -11.811 7.48031
vt -11.811 17.3228
f 5/6/2 4/7/2 3/8/2 2/9/2 1/10/2 

usemtl Red
v 0 0 -2.09354e-014
vt -6.97848e-015 0
vn -1 0 -6.18949e-015
v 0 0.44 -2.09354e-014
vt -6.97848e-015 0.146667
vt -1 0.146667
vt -1 0
f 6/11/3 7/12/3 5/13/3 4/14/3 

usemtl BackColor
vt -118.11 0
vn 1 -0 6.18949e-015
vt -118.11 17.3228
vt -8.2423e-013 17.3228
vt -8.2423e-013 0
f 4/15/4 5/16/4 7/17/4 6/18/4 

usemtl Red
vt 0 6.97848e-015
vn 0 1 -0
v 0.3 0.44 -1.6604e-014
vt 0.1 5.53465e-015
v 0.9 0.44 -0.75
vt 0.3 0.25
v 0.9 0.44 -2.25
vt 0.3 0.75
vt 0.1 1
vt 6.25657e-015 1
f 7/19/5 8/20/5 9/21/5 10/22/5 1/23/5 5/24/5 

usemtl BackColor
vt 7.38964e-013 118.11
vn -0 -1 0
vt 11.811 118.11
vt 35.4331 88.5827
vt 35.4331 29.5276
vt 11.811 6.53699e-013
vt 0 8.2423e-013
f 5/25/6 1/26/6 10/27/6 9/28/6 8/29/6 7/30/6 

usemtl Red
v 0.9 0.19 -2.25
vt 0.398243 0.0633333
vn 0.780869 0 -0.624695
vt 0.718399 0.0633333
vt 0.718399 0.146667
vt 0.398243 0.146667
f 11/31/7 2/32/7 1/33/7 10/34/7 

usemtl Green
v 0.9 0.19 -0.75
v 0.3 0.19 -1.6604e-014
v 2.7 0.19 -2.16573e-015
vt 0.9 7.21911e-016
v 2.1 0.19 -0.75
vt 0.7 0.25
v 2.1 0.19 -2.25
vt 0.7 0.75
v 2.7 0.19 -3
vt 0.9 1
f 12/21/5 13/20/5 14/35/5 15/36/5 16/37/5 17/38/5 2/23/5 11/22/5 

usemtl BackColor
vt 106.299 118.11
vt 82.6772 88.5827
vt 82.6772 29.5276
vt 106.299 8.52651e-014
f 11/27/6 2/26/6 17/39/6 16/40/6 15/41/6 14/42/6 13/29/6 12/28/6 

vt 47.0366 17.3228
vn -0.780869 -0 0.624695
vt 84.8503 17.3228
vt 84.8503 7.48031
vt 47.0366 7.48031
f 10/43/8 1/44/8 2/45/8 11/46/8 

usemtl Red
vt 0.25 0.0633333
vn 1 0 5.77529e-015
vt 0.75 0.0633333
vt 0.75 0.146667
vt 0.25 0.146667
f 12/47/9 11/48/9 10/49/9 9/50/9 

usemtl BackColor
vt 29.5276 17.3228
vn -1 -0 -5.77529e-015
vt 88.5827 17.3228
vt 88.5827 7.48031
vt 29.5276 7.48031
f 9/51/10 10/52/10 11/53/10 12/54/10 

usemtl Red
vt 0.0624695 0.0633333
vn 0.780869 0 0.624695
vt 0.382626 0.0633333
vt 0.382626 0.146667
vt 0.0624695 0.146667
f 13/55/11 12/56/11 9/57/11 8/58/11 

usemtl BackColor
vt 7.37829 17.3228
vn -0.780869 -0 -0.624695
vt 45.192 17.3228
vt 45.192 7.48031
vt 7.37829 7.48031
f 8/59/12 9/60/12 12/61/12 13/62/12 

usemtl Red
vt -9.53408e-029 -5.44772e-030
vn -1.36621e-014 -7.80646e-016 1
v 0.3 0 -1.73259e-014
vt 0.1 -5.57498e-030
vt 0.1 0.0633333
vt 0.1 0.146667
vt -9.53408e-029 0.146667
f 6/63/13 18/64/13 13/65/13 8/66/13 7/67/13 

v 2.7 0 -3
vt -0.9 1
vn 0 -1 -0
v 3 0 -3
vt -1 1
v 3 0 -0
v 2.7 0 -2.16573e-015
vt -0.9 7.21911e-016
vt -0.1 5.77529e-015
vt -6.25657e-015 1
vt -0.1 1
f 19/68/14 20/69/14 21/14/14 22/70/14 18/71/14 6/19/14 4/72/14 3/73/14 

usemtl BackColor
vt -11.811 118.11
vn -0 1 0
vt -7.38964e-013 118.11
vt -11.811 6.82121e-013
vt -106.299 8.52651e-014
vt -118.11 118.11
vt -106.299 118.11
f 3/74/15 4/75/15 6/30/15 18/76/15 22/77/15 21/15/15 20/78/15 19/79/15 

vt -1.12607e-026 17.3228
vn 1.36621e-014 7.80646e-016 -1
vt 11.811 17.3228
vt 11.811 7.48031
vt 11.811 -6.58463e-028
vt -1.12607e-026 -6.43431e-028
f 7/80/16 8/81/16 13/82/16 18/83/16 6/84/16 

usemtl Green
vt 0.1 -1.22003e-029
vn -6.46712e-015 -1.89977e-015 1
vt 0.9 -1.24289e-029
vt 0.9 0.0633333
f 18/85/17 22/86/17 14/87/17 13/65/17 

usemtl BackColor
vn 6.46712e-015 1.89977e-015 -1
vt 106.299 7.48031
vt 106.299 -1.46798e-027
vt 11.811 -1.44098e-027
f 13/82/18 14/88/18 22/89/18 18/90/18 

usemtl Red
v 2.7 0.44 -2.16573e-015
vt 0.9 0.146667
vn -7.21911e-015 -1.4428e-031 1
vt 0.9 -1.04157e-045
vt 1 -1.04157e-045
v 3 0.44 -0
vt 1 0.146667
f 23/91/19 14/87/19 22/92/19 21/93/19 24/94/19 

usemtl BackColor
vt 118.11 17.3228
vn 7.21911e-015 1.4428e-031 -1
vt 118.11 -1.2302e-043
vt 106.299 -1.2302e-043
vt 106.299 17.3228
f 24/95/20 21/96/20 22/97/20 14/88/20 23/98/20 

usemtl Red
v 3 0.44 -3
vn 1 0 6.18949e-015
vt 6.18949e-015 0.146667
vt 6.18949e-015 0
vt 1 0
f 25/94/21 24/99/21 21/100/21 20/101/21 

vt 1 1
v 2.7 0.44 -3
v 2.1 0.44 -2.25
v 2.1 0.44 -0.75
f 25/102/5 26/38/5 27/37/5 28/36/5 23/35/5 24/101/5 

usemtl BackColor
vt 118.11 0
vt 118.11 118.11
f 24/103/6 23/42/6 28/41/6 27/40/6 26/39/6 25/104/6 

usemtl Red
vt 0.242069 0.0633333
vn -0.780869 0 0.624695
vt 0.562226 0.0633333
vt 0.562226 0.146667
vt 0.242069 0.146667
f 15/105/22 14/106/22 23/107/22 28/108/22 

usemtl BackColor
vt 28.5909 17.3228
vn 0.780869 -0 -0.624695
vt 66.4046 17.3228
vt 66.4046 7.48031
vt 28.5909 7.48031
f 28/109/23 23/110/23 14/111/23 15/112/23 

usemtl Red
vt -0.75 0.0633333
vn -1 0 -6.73784e-015
vt -0.25 0.0633333
vt -0.25 0.146667
vt -0.75 0.146667
f 16/113/24 15/114/24 28/115/24 27/116/24 

usemtl BackColor
vt -88.5827 17.3228
vn 1 -0 6.73784e-015
vt -29.5276 17.3228
vt -29.5276 7.48031
vt -88.5827 7.48031
f 27/117/25 28/118/25 15/119/25 16/120/25 

usemtl Red
vt -1.34309 0.0633333
vn -0.780869 0 -0.624695
vt -1.02294 0.0633333
vt -1.02294 0.146667
vt -1.34309 0.146667
f 17/121/26 16/122/26 27/123/26 26/124/26 

usemtl BackColor
vt -158.633 17.3228
vn 0.780869 -0 0.624695
vt -120.819 17.3228
vt -120.819 7.48031
vt -158.633 7.48031
f 26/125/27 27/126/27 16/127/27 17/128/27 

usemtl Red
vt -1 7.80646e-016
vn 1.00526e-014 -7.80646e-016 -1
vt -0.9 7.80646e-016
vt -0.9 0.0633333
vt -0.9 0.146667
f 20/129/28 19/130/28 17/131/28 26/132/28 25/13/28 

usemtl BackColor
vn -1.00526e-014 7.80646e-016 1
vt -106.299 17.3228
vt -106.299 7.48031
vt -106.299 9.22022e-014
vt -118.11 9.22022e-014
f 25/16/29 26/133/29 17/134/29 19/135/29 20/136/29 

usemtl Green
vt -0.9 2.84965e-015
vn 6.01593e-015 -2.84965e-015 -1
vt -0.1 2.84965e-015
f 19/137/30 3/138/30 2/2/30 17/131/30 

usemtl BackColor
vn -6.01593e-015 2.84965e-015 1
vt -11.811 3.36573e-013
vt -106.299 3.36573e-013
f 17/134/31 2/9/31 3/139/31 19/140/31 

vn -1 -0 -6.18949e-015
vt 7.31043e-013 0
vt 7.31043e-013 17.3228
f 20/103/32 21/141/32 24/142/32 25/95/32 

