# Alias OBJ Model File
# Exported from SketchUp, (c) 2000-2012 Trimble Navigation Limited
# File units = meters

mtllib Obstacle_triangle_01.mtl

g Mesh1 Obstacle_triangle Model

usemtl Green
v 1.73259e-014 0 -3
vt 3.29884e-016 5.06605e-015
vn 6.10518e-015 -5.06605e-015 -1
v 1.73259e-014 0.19 -3
vt 3.29884e-016 0.0633333
v 3 0.19 -3
vt -1 0.0633333
v 3 0 -3
vt -1 5.06605e-015
f 1/1/1 2/2/1 3/3/1 4/4/1 

usemtl BackColor
vt -118.11 5.98352e-013
vn -6.10518e-015 5.06605e-015 1
vt -118.11 7.48031
vt 3.89627e-014 7.48031
vt 3.89627e-014 5.98352e-013
f 4/5/2 3/6/2 2/7/2 1/8/2 

usemtl Green
vt 1 1.48236e-016
vn 1 -1.48236e-016 6.09614e-015
vt 1 0.0633333
v 3 0.19 -0
vt 6.09614e-015 0.0633333
v 3 0 -0
vt 6.09614e-015 1.48236e-016
f 4/9/3 3/10/3 5/11/3 6/12/3 

usemtl BackColor
vt 7.20017e-013 1.75082e-014
vn -1 1.48236e-016 -6.09614e-015
vt 7.20017e-013 7.48031
vt 118.11 7.48031
vt 118.11 1.75082e-014
f 6/13/4 5/14/4 3/15/4 4/16/4 

usemtl Green
vn -6.46054e-015 -5.06605e-015 1
v 0 0.19 -1.87697e-014
vt -4.04208e-029 0.0633333
v 0 0 -2.09354e-014
vt -4.50847e-029 -3.53533e-029
vt 1 -3.27294e-029
f 5/10/5 7/17/5 8/18/5 6/19/5 

v 1.5 0.19 -0.671775
vt 0.5 0.223925
vn 0 1 -0
vt 0 6.25657e-015
vt 1 0
f 9/20/6 7/21/6 5/22/6

v 0.671775 0.19 -1.5
vt 0.223925 0.5
f 10/23/6 7/21/6 9/20/6

vt 5.77529e-015 1
f 7/21/6 10/23/6 2/24/6

usemtl BackColor
vt 6.82121e-013 118.11
vn -0 -1 0
vt 26.4478 59.0551
vt 0 7.38964e-013
f 2/25/7 10/26/7 7/27/7

usemtl Green
v 0.671775 0.19 -2.32822
vt 0.223925 0.776075
f 11/28/6 2/24/6 10/23/6

vt 1 1
f 2/24/6 11/28/6 3/29/6

usemtl BackColor
vt 118.11 118.11
vt 26.4478 91.6624
f 3/30/7 11/31/7 2/25/7

usemtl Green
v 1.5 0.19 -2.32822
vt 0.5 0.776075
f 3/29/6 11/28/6 12/32/6

usemtl BackColor
vt 59.0551 91.6624
f 12/33/7 11/31/7 3/30/7

usemtl Red
vt -0.5 0.0633333
vn 6.10146e-015 0 -1
vt -0.223925 0.0633333
v 0.671775 0.44 -2.32822
vt -0.223925 0.146667
v 1.5 0.44 -2.32822
vt -0.5 0.146667
f 12/34/8 11/35/8 13/36/8 14/37/8 

usemtl BackColor
vt -59.0551 17.3228
vn -6.10146e-015 -0 1
vt -26.4478 17.3228
vt -26.4478 7.48031
vt -59.0551 7.48031
f 14/38/9 13/39/9 11/40/9 12/41/9 

usemtl Red
v 0.671775 0.44 -1.5
f 13/28/6 15/23/6 14/32/6

usemtl BackColor
f 14/33/7 15/26/7 13/31/7

usemtl Red
vt 0.511892 0.0633333
vn 0.707107 0 0.707107
vt 0.902321 0.0633333
vt 0.902321 0.146667
vt 0.511892 0.146667
f 10/42/10 12/43/10 14/44/10 15/45/10 

usemtl Green
f 9/20/6 12/32/6 10/23/6

v 2.32822 0.19 -1.5
vt 0.776075 0.5
f 12/32/6 9/20/6 16/46/6

usemtl BackColor
vt 59.0551 26.4478
f 10/26/7 12/33/7 9/47/7

vt 60.4597 17.3228
vn -0.707107 -0 -0.707107
vt 106.573 17.3228
vt 106.573 7.48031
vt 60.4597 7.48031
f 15/48/11 14/49/11 12/50/11 10/51/11 

usemtl Red
vt -0.776075 0.0633333
vn -1 0 -0
vt -0.776075 0.146667
f 11/52/12 10/34/12 15/37/12 13/53/12 

usemtl BackColor
f 10/26/7 2/25/7 11/31/7

vt -91.6624 17.3228
vn 1 -0 0
vt -91.6624 7.48031
f 13/54/13 15/38/13 10/41/13 11/55/13 

vt 91.6624 59.0551
f 16/56/7 9/47/7 12/33/7

usemtl Red
vt -0.902321 0.0633333
vn -0.707107 0 -0.707107
vt -0.511892 0.0633333
v 1.5 0.44 -0.671775
vt -0.511892 0.146667
v 2.32822 0.44 -1.5
vt -0.902321 0.146667
f 16/57/14 9/58/14 17/59/14 18/60/14 

usemtl BackColor
vt -106.573 17.3228
vn 0.707107 -0 0.707107
vt -60.4597 17.3228
vt -60.4597 7.48031
vt -106.573 7.48031
f 18/61/15 17/62/15 9/63/15 16/64/15 

usemtl Red
v 2.32822 0.44 -0.671775
vt 0.776075 0.223925
f 19/65/6 18/46/6 17/20/6

usemtl BackColor
vt 91.6624 26.4478
f 17/47/7 18/56/7 19/66/7

usemtl Red
v 2.32822 0.19 -0.671775
vt 0.223925 0.0633333
vn 1 0 -0
vt 0.5 0.0633333
vt 0.5 0.146667
vt 0.223925 0.146667
f 20/67/16 16/68/16 18/69/16 19/70/16 

usemtl Green
f 20/65/6 5/22/6 16/46/6

f 9/20/6 5/22/6 20/65/6

usemtl BackColor
vt 118.11 0
f 5/71/7 7/27/7 9/47/7

vt 118.11 -3.86568e-027
vn 6.46054e-015 5.06605e-015 -1
vt -5.32497e-027 -4.17558e-027
vt -4.77411e-027 7.48031
f 6/72/17 8/73/17 7/74/17 5/15/17 

usemtl Green
vt -5.77529e-015 1
vn 0 -1 -0
vt -1 1
vt -1 0
vt 0 6.97848e-015
f 1/75/18 4/76/18 6/77/18 8/78/18 

usemtl BackColor
vt 0 8.2423e-013
vn -0 1 0
vt -118.11 0
vt -118.11 118.11
vt -6.82121e-013 118.11
f 8/79/19 6/80/19 4/81/19 1/82/19 

usemtl Green
vt -6.97848e-015 4.38195e-059
vn -1 -1.08726e-030 -5.77529e-015
vt -6.25657e-015 0.0633333
vt -1 4.04645e-059
f 8/83/20 7/84/20 2/3/20 1/85/20 

usemtl BackColor
vt -118.11 4.77928e-057
vn 1 1.08726e-030 5.77529e-015
vt -7.38964e-013 7.48031
vt -8.2423e-013 5.17553e-057
f 1/86/21 2/6/21 7/87/21 8/88/21 

f 9/47/7 7/27/7 10/26/7

f 20/66/7 5/71/7 9/47/7

f 16/56/7 5/71/7 20/66/7

usemtl Green
f 3/29/6 16/46/6 5/22/6

f 3/29/6 12/32/6 16/46/6

usemtl BackColor
f 16/56/7 12/33/7 3/30/7

f 5/71/7 16/56/7 3/30/7

vt 26.4478 17.3228
vn -1 -0 0
vt 59.0551 17.3228
vt 59.0551 7.48031
vt 26.4478 7.48031
f 19/89/22 18/90/22 16/91/22 20/92/22 

usemtl Red
vn -6.10146e-015 0 1
vt 0.776075 0.0633333
vt 0.776075 0.146667
f 9/68/23 20/93/23 19/94/23 17/69/23 

usemtl BackColor
vn 6.10146e-015 -0 -1
vt 91.6624 17.3228
vt 91.6624 7.48031
f 17/90/24 19/95/24 20/96/24 9/91/24 

