# Alias OBJ Model File
# Exported from SketchUp, (c) 2000-2012 Trimble Navigation Limited
# File units = meters

mtllib Ramp_2_01.mtl

g Mesh1 Ramp_2 Model

usemtl Red
v 0.3 0.44 -3
vt -0.1 0.146667
vn 2.98845e-015 -5.85484e-016 -1
v 0.3 0.19 -3
vt -0.1 0.0633333
v 0.3 0 -3
vt -0.1 5.85484e-016
v 1.73259e-014 0 -3
vt -2.78684e-015 5.85484e-016
v 1.73259e-014 0.44 -3
vt -2.78684e-015 0.146667
f 1/1/1 2/2/1 3/3/1 4/4/1 5/5/1 

usemtl BackColor
vt -3.29155e-013 17.3228
vn -2.98845e-015 5.85484e-016 1
vt -3.29155e-013 6.91517e-014
vt -11.811 6.91517e-014
vt -11.811 7.48031
vt -11.811 17.3228
f 5/6/2 4/7/2 3/8/2 2/9/2 1/10/2 

usemtl Red
v 0 -0.88 -2.31012e-014
vt -7.70039e-015 -0.293333
vn -1 1.26464e-029 -5.77529e-015
v 0 -0.44 -2.31012e-014
vt -7.70039e-015 -0.146667
vt -1 0.146667
vt -1 -5.39527e-058
f 6/11/3 7/12/3 5/13/3 4/14/3 

usemtl BackColor
vt -118.11 -6.37237e-056
vn 1 -1.26464e-029 5.77529e-015
vt -118.11 17.3228
vt -9.09495e-013 -17.3228
vt -9.09495e-013 -34.6457
f 4/15/4 5/16/4 7/17/4 6/18/4 

usemtl Red
vt 0.1 1.00085
vn -4.06905e-015 0.959569 0.281474
vt -8.68095e-015 1.00085
vt -1.11319e-028 -0.0412828
v 0.3 -0.44 -1.73259e-014
vt 0.1 -0.0412828
f 1/19/5 5/20/5 7/21/5 8/22/5 

usemtl BackColor
vt 11.811 -4.87592
vn 4.06905e-015 -0.959569 -0.281474
vt -1.31479e-026 -4.87592
vt -1.02531e-012 118.211
vt 11.811 118.211
f 8/23/6 7/24/6 5/25/6 1/26/6 

usemtl Red
vt -1.0043e-028 -0.293333
vn -1.30422e-014 -6.24517e-015 1
v 0.3 -0.88 -2.31012e-014
vt 0.1 -0.293333
v 0.3 -0.69 -1.73259e-014
vt 0.1 -0.23
vt 0.1 -0.146667
vt -1.0043e-028 -0.146667
f 6/27/7 9/28/7 10/29/7 8/30/7 7/31/7 

v 2.7 0 -3
vt -0.9 0.959569
vn 1.94262e-015 -0.959569 -0.281474
v 3 0 -3
vt -1 0.959569
v 3 -0.88 -0
vt -1 -0.0825656
v 2.7 -0.88 -0
vt -0.9 -0.0825656
vt -0.1 -0.0825656
vt 5.3145e-029 -0.0825656
vt 1.12631e-015 0.959569
vt -0.1 0.959569
f 11/32/8 12/33/8 13/34/8 14/35/8 9/36/8 6/37/8 4/38/8 3/39/8 

usemtl BackColor
vt -11.811 113.335
vn -1.94262e-015 0.959569 0.281474
vt 1.33029e-013 113.335
vt 6.27697e-027 -9.75184
vt -11.811 -9.75184
vt -106.299 -9.75184
vt -118.11 -9.75184
vt -118.11 113.335
vt -106.299 113.335
f 3/40/9 4/41/9 6/42/9 9/43/9 14/44/9 13/45/9 12/46/9 11/47/9 

vt -1.18618e-026 -17.3228
vn 1.30422e-014 6.24517e-015 -1
vt 11.811 -17.3228
vt 11.811 -27.1654
vt 11.811 -34.6457
vt -1.18618e-026 -34.6457
f 7/48/10 8/49/10 10/50/10 9/51/10 6/52/10 

usemtl Red
vt 6.35282e-015 -0.23
vn 1 0 5.77529e-015
vt 1 0.0633333
vt 1 0.146667
vt 6.35282e-015 -0.146667
f 10/53/11 2/54/11 1/55/11 8/56/11 

usemtl Green
v 2.7 0.19 -3
vt 0.9 0.977396
vn -1.71488e-015 0.959569 0.281474
vt 0.1 0.977396
vt 0.1 -0.0647389
v 2.7 -0.69 -0
vt 0.9 -0.0647389
f 15/57/12 2/58/12 10/59/12 16/60/12 

usemtl BackColor
vt 106.299 -7.64633
vn 1.71488e-015 -0.959569 -0.281474
vt 11.811 -7.64633
vt 11.811 115.44
vt 106.299 115.44
f 16/61/13 10/62/13 2/63/13 15/64/13 

usemtl Green
vn -8.4223e-015 -1.51981e-014 1
vt 0.9 -0.293333
vt 0.9 -0.23
f 9/28/14 14/65/14 16/66/14 10/29/14 

usemtl BackColor
vn 8.4223e-015 1.51981e-014 -1
vt 106.299 -27.1654
vt 106.299 -34.6457
f 10/50/15 16/67/15 14/68/15 9/51/15 

usemtl Red
v 2.7 -0.44 -0
vt 0.9 -0.146667
vn 0 0 1
vt 1 -0.293333
v 3 -0.44 -0
vt 1 -0.146667
f 17/69/16 16/66/16 14/65/16 13/70/16 18/71/16 

usemtl BackColor
vt 118.11 -17.3228
vn -0 -0 -1
vt 118.11 -34.6457
vt 106.299 -17.3228
f 18/72/17 13/73/17 14/68/17 16/67/17 17/74/17 

usemtl Red
v 3 0.44 -3
vn 1 -1.26464e-029 6.73784e-015
vt 6.73784e-015 -0.146667
vt 6.73784e-015 -0.293333
vt 1 1.26464e-029
f 19/55/18 18/75/18 13/76/18 12/77/18 

vt 1 1.00085
vn -2.79959e-015 0.959569 0.281474
v 2.7 0.44 -3
vt 0.9 1.00085
vt 0.9 -0.0412828
vt 1 -0.0412828
f 19/78/19 20/79/19 17/80/19 18/81/19 

usemtl BackColor
vt 118.11 -4.87592
vn 2.79959e-015 -0.959569 -0.281474
vt 106.299 -4.87592
vt 106.299 118.211
vt 118.11 118.211
f 18/82/20 17/83/20 20/84/20 19/85/20 

usemtl Red
vt -1 0.0633333
vn -1 0 -6.73784e-015
vt -6.06406e-015 -0.23
vt -6.06406e-015 -0.146667
f 15/86/21 16/87/21 17/88/21 20/13/21 

usemtl BackColor
vn 1 -0 6.73784e-015
vt -7.16227e-013 -17.3228
vt -7.16227e-013 -27.1654
vt -118.11 7.48031
f 20/16/22 17/89/22 16/90/22 15/91/22 

usemtl Red
vt -1 5.85484e-016
vn 9.04341e-015 -5.85484e-016 -1
vt -0.9 5.85484e-016
vt -0.9 0.0633333
vt -0.9 0.146667
f 12/92/23 11/93/23 15/94/23 20/95/23 19/13/23 

usemtl BackColor
vn -9.04341e-015 5.85484e-016 1
vt -106.299 17.3228
vt -106.299 7.48031
vt -106.299 6.91517e-014
vt -118.11 6.91517e-014
f 19/16/24 20/96/24 15/97/24 11/98/24 12/99/24 

usemtl Green
vt -0.9 2.84965e-015
vn 6.01593e-015 -2.84965e-015 -1
vt -0.1 2.84965e-015
f 11/100/25 3/101/25 2/2/25 15/94/25 

usemtl BackColor
vn -6.01593e-015 2.84965e-015 1
vt -11.811 3.36573e-013
vt -106.299 3.36573e-013
f 15/97/26 2/9/26 3/102/26 11/103/26 

vt 118.11 1.49367e-027
vn -1 1.26464e-029 -6.73784e-015
vt 7.95808e-013 -34.6457
vt 7.95808e-013 -17.3228
vt 118.11 17.3228
f 12/104/27 13/105/27 18/106/27 19/107/27 

vt 7.50333e-013 -17.3228
vn -1 -0 -5.77529e-015
vt 118.11 7.48031
vt 7.50333e-013 -27.1654
f 8/108/28 1/107/28 2/109/28 10/110/28 

