# Alias OBJ Model File
# Exported from SketchUp, (c) 2000-2012 Trimble Navigation Limited
# File units = meters

mtllib Ramp_1_01.mtl

g Mesh1 Ramp_1 Model

usemtl Red
v 0.3 0.44 -3
vt -0.1 0.146667
vn 2.98845e-015 -5.85484e-016 -1
v 0.3 0.19 -3
vt -0.1 0.0633333
v 0.3 0 -3
vt -0.1 5.85484e-016
v 1.87697e-014 0 -3
vt -3.26812e-015 5.85484e-016
v 1.87697e-014 0.44 -3
vt -3.26812e-015 0.146667
f 1/1/1 2/2/1 3/3/1 4/4/1 5/5/1 

usemtl BackColor
vt -3.85998e-013 17.3228
vn -2.98845e-015 5.85484e-016 1
vt -3.85998e-013 6.91517e-014
vt -11.811 6.91517e-014
vt -11.811 7.48031
vt -11.811 17.3228
f 5/6/2 4/7/2 3/8/2 2/9/2 1/10/2 

usemtl Red
v 0 -0.44 -0
vt 0 -0.146667
vn -1 0 -6.25657e-015
v 0 0 -0
vt 0 0
vt -1 0.146667
vt -1 0
f 6/11/3 7/12/3 5/13/3 4/14/3 

usemtl BackColor
vt -118.11 0
vn 1 -0 6.25657e-015
vt -118.11 17.3228
vt 0 -17.3228
f 4/15/4 5/16/4 7/12/4 6/17/4 

usemtl Red
vt 0.1 1.0107
vn -1.41847e-015 0.989415 0.145114
vt -3.5183e-015 1.0107
v 0.3 0 2.88765e-015
vt 0.1 1.47796e-017
f 1/18/5 5/19/5 7/12/5 8/20/5 

usemtl BackColor
vt 11.811 1.74562e-015
vn 1.41847e-015 -0.989415 -0.145114
vt -4.15547e-013 119.374
vt 11.811 119.374
f 8/21/6 7/12/6 5/22/6 1/23/6 

usemtl Red
vn -9.62549e-015 -3.20621e-031 1
v 0.3 -0.44 2.88765e-015
vt 0.1 -0.146667
v 0.3 -0.25 2.88765e-015
vt 0.1 -0.0833333
vt 0.1 -4.21506e-062
f 6/11/7 9/24/7 10/25/7 8/26/7 7/12/7 

v 2.7 0 -3
vt -0.9 0.989415
vn 9.54933e-016 -0.989415 -0.145114
v 3 0 -3
vt -1 0.989415
v 3 -0.44 2.02135e-014
vt -1 -0.0212834
v 2.7 -0.44 1.73259e-014
vt -0.9 -0.0212834
vt -0.1 -0.0212834
vt 2.67161e-032 -0.0212834
vt 3.23994e-016 0.989415
vt -0.1 0.989415
f 11/27/8 12/28/8 13/29/8 14/30/8 9/31/8 6/32/8 4/33/8 3/34/8 

usemtl BackColor
vt -11.811 116.86
vn -9.54933e-016 0.989415 0.145114
vt 3.8267e-014 116.86
vt 3.15544e-030 -2.51379
vt -11.811 -2.51379
vt -106.299 -2.51379
vt -118.11 -2.51379
vt -118.11 116.86
vt -106.299 116.86
f 3/35/9 4/36/9 6/37/9 9/38/9 14/39/9 13/40/9 12/41/9 11/42/9 

vn 9.62549e-015 3.20621e-031 -1
vt 11.811 -4.97841e-060
vt 11.811 -9.84252
vt 11.811 -17.3228
f 7/12/10 8/43/10 10/44/10 9/45/10 6/17/10 

usemtl Red
vt -3.85019e-016 -0.0833333
vn 1 0 5.77529e-015
vt 1 0.0633333
vt 1 0.146667
vt -3.85019e-016 0
f 10/46/11 2/47/11 1/48/11 8/49/11 

usemtl Green
v 2.7 0.19 -3
vt 0.9 0.998605
vn -7.95412e-016 0.989415 0.145114
vt 0.1 0.998605
vt 0.1 -0.0120928
v 2.7 -0.25 1.73259e-014
vt 0.9 -0.0120928
f 15/50/12 2/51/12 10/52/12 16/53/12 

usemtl BackColor
vt 106.299 -1.42829
vn 7.95412e-016 -0.989415 -0.145114
vt 11.811 -1.42829
vt 11.811 117.946
vt 106.299 117.946
f 16/54/13 10/55/13 2/56/13 15/57/13 

usemtl Green
vn -6.01593e-015 0 1
vt 0.9 -0.146667
vt 0.9 -0.0833333
f 9/24/14 14/58/14 16/59/14 10/25/14 

usemtl BackColor
vn 6.01593e-015 -0 -1
vt 106.299 -9.84252
vt 106.299 -17.3228
f 10/44/15 16/60/15 14/61/15 9/45/15 

usemtl Red
v 2.7 3.60956e-016 1.73259e-014
vt 0.9 1.20319e-016
vn -9.62549e-015 -1.60311e-031 1
vt 1 -0.146667
v 3 3.60956e-016 2.02135e-014
vt 1 1.20319e-016
f 17/62/16 16/59/16 14/58/16 13/63/16 18/64/16 

usemtl BackColor
vt 118.11 1.42109e-014
vn 9.62549e-015 1.60311e-031 -1
vt 118.11 -17.3228
vt 106.299 1.42109e-014
f 18/65/17 13/66/17 14/61/17 16/60/17 17/67/17 

usemtl Red
v 3 0.44 -3
vn 1 0 6.25657e-015
vt -4.81274e-016 1.20319e-016
vt -4.81274e-016 -0.146667
vt 1 0
f 19/48/18 18/68/18 13/69/18 12/70/18 

vt 1 1.0107
vn -2.1052e-015 0.989415 0.145114
v 2.7 0.44 -3
vt 0.9 1.0107
vt 0.9 7.22155e-015
vt 1 7.70456e-015
f 19/71/19 20/72/19 17/73/19 18/74/19 

usemtl BackColor
vt 118.11 9.09987e-013
vn 2.1052e-015 -0.989415 -0.145114
vt 106.299 8.52939e-013
vt 106.299 119.374
vt 118.11 119.374
f 18/75/20 17/76/20 20/77/20 19/78/20 

usemtl Red
vt -1 0.0633333
vn -1 0 -6.73784e-015
vt -2.88765e-016 -0.0833333
vt -2.88765e-016 1.20319e-016
f 15/79/21 16/80/21 17/81/21 20/13/21 

usemtl BackColor
vn 1 -0 6.73784e-015
vt -3.41061e-014 1.42109e-014
vt -3.41061e-014 -9.84252
vt -118.11 7.48031
f 20/16/22 17/82/22 16/83/22 15/84/22 

usemtl Red
vt -1 5.85484e-016
vn 9.04341e-015 -5.85484e-016 -1
vt -0.9 5.85484e-016
vt -0.9 0.0633333
vt -0.9 0.146667
f 12/85/23 11/86/23 15/87/23 20/88/23 19/13/23 

usemtl BackColor
vn -9.04341e-015 5.85484e-016 1
vt -106.299 17.3228
vt -106.299 7.48031
vt -106.299 6.91517e-014
vt -118.11 6.91517e-014
f 19/16/24 20/89/24 15/90/24 11/91/24 12/92/24 

usemtl Green
vt -0.9 2.84965e-015
vn 6.01593e-015 -2.84965e-015 -1
vt -0.1 2.84965e-015
f 11/93/25 3/94/25 2/2/25 15/87/25 

usemtl BackColor
vn -6.01593e-015 2.84965e-015 1
vt -11.811 3.36573e-013
vt -106.299 3.36573e-013
f 15/90/26 2/9/26 3/95/26 11/96/26 

vt 118.11 0
vn -1 -0 -6.25657e-015
vt -5.68434e-014 -17.3228
vt -5.68434e-014 1.42109e-014
vt 118.11 17.3228
f 12/97/27 13/98/27 18/99/27 19/100/27 

vt -4.54747e-014 0
vn -1 -0 -5.77529e-015
vt 118.11 7.48031
vt -4.54747e-014 -9.84252
f 8/101/28 1/100/28 2/102/28 10/103/28 

