# Alias OBJ Model File
# Exported from SketchUp, (c) 2000-2012 Trimble Navigation Limited
# File units = meters

mtllib Ramp_4_01.mtl

g Mesh1 Ramp_4 Model

usemtl Red
v 0.3 0.44 -3
vt -0.1 0.146667
vn 2.98845e-015 -5.85484e-016 -1
v 0.3 0.19 -3
vt -0.1 0.0633333
v 0.3 0 -3
vt -0.1 5.85484e-016
v 1.73259e-014 0 -3
vt -2.78684e-015 5.85484e-016
v 1.73259e-014 0.44 -3
vt -2.78684e-015 0.146667
f 1/1/1 2/2/1 3/3/1 4/4/1 5/5/1 

usemtl BackColor
vt -3.29155e-013 17.3228
vn -2.98845e-015 5.85484e-016 1
vt -3.29155e-013 6.91517e-014
vt -11.811 6.91517e-014
vt -11.811 7.48031
vt -11.811 17.3228
f 5/6/2 4/7/2 3/8/2 2/9/2 1/10/2 

usemtl Red
v 0 -1.76 -2.02135e-014
vt -6.73784e-015 -0.586667
vn -1 0 -5.77529e-015
v 0 -1.32 -2.02135e-014
vt -6.73784e-015 -0.44
vt -1 0.146667
vt -1 0
f 6/11/3 7/12/3 5/13/3 4/14/3 

usemtl BackColor
vt -118.11 0
vn 1 -0 5.77529e-015
vt -118.11 17.3228
vt -7.95808e-013 -51.9685
vt -7.95808e-013 -69.2913
f 4/15/4 5/16/4 7/17/4 6/18/4 

usemtl Red
vt 0.1 0.93674
vn -2.33839e-015 0.862525 0.506015
vt 1.15411e-015 0.93674
vt -3.11368e-029 -0.222646
v 0.3 -1.32 -2.02135e-014
vt 0.1 -0.222646
f 1/19/5 5/20/5 7/21/5 8/22/5 

usemtl BackColor
vt 11.811 -26.2968
vn 2.33839e-015 -0.862525 -0.506015
vt -3.67757e-027 -26.2968
vt 1.36312e-013 110.639
vt 11.811 110.639
f 8/23/6 7/24/6 5/25/6 1/26/6 

usemtl Red
vt -2.0917e-029 -0.586667
vn -3.10441e-015 3.12258e-015 1
v 0.3 -1.76 -1.73259e-014
vt 0.1 -0.586667
v 0.3 -1.57 -2.02135e-014
vt 0.1 -0.523333
vt 0.1 -0.44
vt -2.0917e-029 -0.44
f 6/27/7 9/28/7 10/29/7 8/30/7 7/31/7 

v 2.7 0 -3
vt -0.9 0.862525
vn 3.49387e-015 -0.862525 -0.506015
v 3 0 -3
vt -1 0.862525
v 3 -1.76 2.88765e-015
vt -1 -0.296862
v 2.7 -1.76 -0
vt -0.9 -0.296862
vt -0.1 -0.296862
vt 4.65227e-029 -0.296862
vt 1.1294e-015 0.862525
vt -0.1 0.862525
f 11/32/8 12/33/8 13/34/8 14/35/8 9/36/8 6/37/8 4/38/8 3/39/8 

vt -1 5.85484e-016
vn 9.04341e-015 -5.85484e-016 -1
vt -0.9 5.85484e-016
v 2.7 0.19 -3
vt -0.9 0.0633333
v 2.7 0.44 -3
vt -0.9 0.146667
v 3 0.44 -3
f 12/40/9 11/41/9 15/42/9 16/43/9 17/13/9 

usemtl BackColor
vn -9.04341e-015 5.85484e-016 1
vt -106.299 17.3228
vt -106.299 7.48031
vt -106.299 6.91517e-014
vt -118.11 6.91517e-014
f 17/16/10 16/44/10 15/45/10 11/46/10 12/47/10 

usemtl Red
vt 1 0.93674
vn -9.40977e-015 0.862525 0.506015
vt 0.9 0.93674
v 2.7 -1.32 -2.88765e-015
vt 0.9 -0.222646
v 3 -1.32 2.88765e-015
vt 1 -0.222646
f 17/48/11 16/49/11 18/50/11 19/51/11 

usemtl BackColor
vt 118.11 -26.2968
vn 9.40977e-015 -0.862525 -0.506015
vt 106.299 -26.2968
vt 106.299 110.639
vt 118.11 110.639
f 19/52/12 18/53/12 16/54/12 17/55/12 

usemtl Red
vt 0.9 -0.44
vn -1.61466e-014 3.12258e-015 1
v 2.7 -1.57 -2.88765e-015
vt 0.9 -0.523333
vt 0.9 -0.586667
vt 1 -0.586667
vt 1 -0.44
f 18/56/13 20/57/13 14/58/13 13/59/13 19/60/13 

vt -1 0.0633333
vn -1 0 -7.70039e-015
vt -7.8929e-015 -0.523333
vt -7.8929e-015 -0.44
f 15/61/14 20/62/14 18/63/14 16/13/14 

usemtl Green
vt 0.9 0.894572
vn -3.03896e-015 0.862525 0.506015
vt 0.1 0.894572
vt 0.1 -0.264814
vt 0.9 -0.264814
f 15/64/15 2/65/15 10/66/15 20/67/15 

usemtl BackColor
vt 106.299 -31.2773
vn 3.03896e-015 -0.862525 -0.506015
vt 11.811 -31.2773
vt 11.811 105.658
vt 106.299 105.658
f 20/68/16 10/69/16 2/70/16 15/71/16 

usemtl Green
vn -7.21911e-015 1.51981e-014 1
f 9/28/17 14/58/17 20/57/17 10/29/17 

usemtl BackColor
vt -11.811 101.873
vn -3.49387e-015 0.862525 0.506015
vt 1.33394e-013 101.873
vt 5.49481e-027 -35.0624
vt -11.811 -35.0624
vt -106.299 -35.0624
vt -118.11 -35.0624
vt -118.11 101.873
vt -106.299 101.873
f 3/72/18 4/73/18 6/74/18 9/75/18 14/76/18 13/77/18 12/78/18 11/79/18 

vt -2.47051e-027 -51.9685
vn 3.10441e-015 -3.12258e-015 -1
vt 11.811 -51.9685
vt 11.811 -61.811
vt 11.811 -69.2913
vt -2.47051e-027 -69.2913
f 7/80/19 8/81/19 10/82/19 9/83/19 6/84/19 

usemtl Red
vt 7.70039e-015 -0.523333
vn 1 1.56694e-028 9.62549e-015
vt 1 0.0633333
vt 1 0.146667
vt 7.70039e-015 -0.44
f 10/85/20 2/86/20 1/87/20 8/88/20 

usemtl BackColor
vt 9.09495e-013 -51.9685
vn -1 -1.56694e-028 -9.62549e-015
vt 118.11 17.3228
vt 118.11 7.48031
vt 9.09495e-013 -61.811
f 8/89/21 1/90/21 2/91/21 10/92/21 

vn 7.21911e-015 -1.51981e-014 -1
vt 106.299 -61.811
vt 106.299 -69.2913
f 10/82/22 20/93/22 14/94/22 9/83/22 

vt 118.11 -51.9685
vn 1.61466e-014 -3.12258e-015 -1
vt 118.11 -69.2913
vt 106.299 -51.9685
f 19/95/23 13/96/23 14/94/23 20/93/23 18/97/23 

usemtl Red
vn 1 2.52928e-029 7.70039e-015
vt 6.73784e-015 -0.44
vt 6.73784e-015 -0.586667
vt 1 -2.52928e-029
f 17/87/24 19/98/24 13/99/24 12/100/24 

usemtl BackColor
vt 118.11 -2.98734e-027
vn -1 -2.52928e-029 -7.70039e-015
vt 7.95808e-013 -69.2913
vt 7.95808e-013 -51.9685
f 12/101/25 13/102/25 19/103/25 17/90/25 

vn 1 -0 7.70039e-015
vt -9.32232e-013 -51.9685
vt -9.32232e-013 -61.811
vt -118.11 7.48031
f 16/16/26 18/104/26 20/105/26 15/106/26 

usemtl Green
vt -0.9 2.84965e-015
vn 6.01593e-015 -2.84965e-015 -1
vt -0.1 2.84965e-015
f 11/107/27 3/108/27 2/2/27 15/42/27 

usemtl BackColor
vn -6.01593e-015 2.84965e-015 1
vt -11.811 3.36573e-013
vt -106.299 3.36573e-013
f 15/45/28 2/9/28 3/109/28 11/110/28 

