# Alias OBJ Model File
# Exported from SketchUp, (c) 2000-2012 Trimble Navigation Limited
# File units = meters

mtllib Ramp_sharp_01.mtl

g Mesh1 Ramp_sharp Model

usemtl Red
v 0.3 0.44 -3
vt -0.1 0.146667
vn 2.98845e-015 -5.85484e-016 -1
v 0.3 0.19 -3
vt -0.1 0.0633333
v 0.3 0 -3
vt -0.1 5.85484e-016
v 1.73259e-014 0 -3
vt -2.78684e-015 5.85484e-016
v 1.73259e-014 0.44 -3
vt -2.78684e-015 0.146667
f 1/1/1 2/2/1 3/3/1 4/4/1 5/5/1 

usemtl BackColor
vt -3.29155e-013 17.3228
vn -2.98845e-015 5.85484e-016 1
vt -3.29155e-013 6.91517e-014
vt -11.811 6.91517e-014
vt -11.811 7.48031
vt -11.811 17.3228
f 5/6/2 4/7/2 3/8/2 2/9/2 1/10/2 

usemtl Red
v 0 0 -2.02135e-014
vt -6.73784e-015 0
vn -1 0 -6.18949e-015
v 0 0.44 -2.02135e-014
vt -6.73784e-015 0.146667
vt -1 0.146667
vt -1 0
f 6/11/3 7/12/3 5/13/3 4/14/3 

usemtl BackColor
vt -118.11 0
vn 1 -0 6.18949e-015
vt -118.11 17.3228
vt -7.95808e-013 17.3228
vt -7.95808e-013 0
f 4/15/4 5/16/4 7/17/4 6/18/4 

usemtl Red
vt 0.1 1
vn -9.91425e-015 1 4.95713e-016
vt 7.22938e-015 1
vt 1.45409e-015 6.81054e-015
v 0.3 0.44 -1.73259e-014
vt 0.1 5.848e-015
v 0.3 0.44 -2.25
vt 0.1 0.75
f 1/19/5 5/20/5 7/21/5 8/22/5 9/23/5 

usemtl BackColor
vt 11.811 88.5827
vn 9.91425e-015 -1 -4.95713e-016
vt 11.811 6.90708e-013
vt 1.71743e-013 8.04395e-013
vt 8.53864e-013 118.11
vt 11.811 118.11
f 9/24/6 8/25/6 7/26/6 5/27/6 1/28/6 

usemtl Red
v 0.3 0.19 -1.73259e-014
vt 6.31432e-015 0.0633333
vn 1 4.62023e-015 5.39027e-015
v 0.3 0.19 -0.75
vt 0.25 0.0633333
vt 0.75 0.146667
vt 6.31432e-015 0.146667
f 10/29/7 11/30/7 9/31/7 8/32/7 

usemtl Green
v 2.7 0.19 -0.75
vt 0.9 0.25
vn 1.92228e-015 1 6.15129e-015
vt 0.1 0.25
vt 0.1 6.16487e-015
v 2.7 0.19 -1.44382e-015
vt 0.9 8.70856e-016
f 12/33/8 11/34/8 10/35/8 13/36/8 

vt 0.9 0.25701
vn 3.43215e-015 0.986394 0.164399
v 2.7 0.44 -2.25
vt 0.9 0.763907
vt 0.1 0.763907
vt 0.1 0.25701
f 12/37/9 14/38/9 9/39/9 11/40/9 

usemtl Red
v 2.7 0.44 -1.44382e-015
vt -5.33252e-015 0.146667
vn -1 -4.62023e-015 -5.39027e-015
vt -0.75 0.146667
vt -0.25 0.0633333
vt -5.33252e-015 0.0633333
f 15/41/10 14/42/10 12/43/10 13/44/10 

v 3 0.44 -3
vt 1 1
vn 0 1 -0
v 2.7 0.44 -3
vt 0.9 1
vt 0.9 0.75
vt 0.9 4.81274e-016
v 3 0.44 -0
vt 1 0
f 16/45/11 17/46/11 14/47/11 15/48/11 18/49/11 

usemtl BackColor
vt 118.11 0
vn -0 -1 0
vt 106.299 5.68434e-014
vt 106.299 88.5827
vt 106.299 118.11
vt 118.11 118.11
f 18/50/12 15/51/12 14/52/12 17/53/12 16/54/12 

usemtl Red
vt 0.9 0.146667
vn -4.81274e-015 1.60311e-032 1
vt 0.9 0.0633333
v 2.7 0 -1.44382e-015
vt 0.9 7.71534e-047
v 3 0 -0
vt 1 7.71534e-047
vt 1 0.146667
f 15/55/13 13/56/13 19/57/13 20/58/13 18/59/13 

usemtl BackColor
vt 118.11 17.3228
vn 4.81274e-015 -1.60311e-032 -1
vt 118.11 9.1126e-045
vt 106.299 9.1126e-045
vt 106.299 7.48031
vt 106.299 17.3228
f 18/60/14 20/61/14 19/62/14 13/63/14 15/64/14 

usemtl Red
vn 1 0 6.18949e-015
vt 6.18949e-015 0.146667
vt 6.18949e-015 0
v 3 0 -3
f 16/59/15 18/65/15 20/66/15 21/49/15 

usemtl BackColor
vn -1 -0 -6.18949e-015
vt 7.31043e-013 0
vt 7.31043e-013 17.3228
f 21/50/16 20/67/16 18/68/16 16/60/16 

usemtl Red
v 2.7 0 -3
vt -0.9 1
vn 0 -1 -0
vt -1 1
vt -0.9 4.81274e-016
v 0.3 0 -1.73259e-014
vt -0.1 5.77529e-015
vt 0 6.73784e-015
vt -5.77529e-015 1
vt -0.1 1
f 22/69/17 21/70/17 20/14/17 19/71/17 23/72/17 6/73/17 4/74/17 3/75/17 

usemtl BackColor
vt -11.811 118.11
vn -0 1 0
vt -6.82121e-013 118.11
vt 0 7.95808e-013
vt -11.811 6.82121e-013
vt -106.299 5.68434e-014
vt -118.11 118.11
vt -106.299 118.11
f 3/76/18 4/77/18 6/78/18 23/79/18 19/80/18 20/15/18 21/81/18 22/82/18 

usemtl Red
vt -7.58395e-029 -5.25987e-030
vn -1.12558e-014 -7.80646e-016 1
vt 0.1 -5.38713e-030
vt 0.1 0.0633333
vt 0.1 0.146667
vt -7.58395e-029 0.146667
f 6/83/19 23/84/19 10/85/19 8/86/19 7/87/19 

usemtl BackColor
vt -8.95742e-027 17.3228
vn 1.12558e-014 7.80646e-016 -1
vt 11.811 17.3228
vt 11.811 7.48031
vt 11.811 -6.36275e-028
vt -8.95742e-027 -6.21244e-028
f 7/88/20 8/89/20 10/90/20 23/91/20 6/92/20 

vt 7.45786e-013 17.3228
vt 88.5827 17.3228
vt 29.5276 7.48031
vt 7.45786e-013 7.48031
f 8/93/10 9/94/10 11/95/10 10/96/10 

usemtl Red
v 0.3 0.19 -2.25
vt -0.75 0.0633333
vn -1 0 -3.85019e-015
f 24/97/21 11/43/21 9/42/21

usemtl BackColor
vt -88.5827 17.3228
vn 1 -0 3.85019e-015
vt -29.5276 7.48031
vt -88.5827 7.48031
f 9/98/22 11/99/22 24/100/22

vt 11.811 30.3556
vn -3.43215e-015 -0.986394 -0.164399
vt 11.811 90.2253
vt 106.299 90.2253
vt 106.299 30.3556
f 11/101/23 9/102/23 14/103/23 12/104/23 

usemtl Red
vt -0.9 0.146667
vn 1.80478e-015 2.73086e-031 -1
v 2.7 0.19 -2.25
vt -0.9 0.0633333
f 14/105/24 25/106/24 24/2/24 9/1/24 

v 2.7 0.19 -3
vt -1 0.0633333
vn -1 0 -7.70039e-015
f 26/107/25 25/97/25 14/42/25 17/13/25 

usemtl BackColor
vn 1 -0 7.70039e-015
vt -118.11 7.48031
f 17/16/26 14/98/26 25/100/26 26/108/26 

vn -1.80478e-015 -2.73086e-031 1
vt -106.299 7.48031
vt -106.299 17.3228
f 9/10/27 24/9/27 25/109/27 14/110/27 

usemtl Red
vn 1 1.27968e-030 1.54008e-014
vt 0.75 0.0633333
vt 1 0.0633333
f 1/59/28 9/31/28 24/111/28 2/112/28 

usemtl BackColor
vt 118.11 7.48031
vn -1 -1.27968e-030 -1.54008e-014
vt 88.5827 7.48031
f 2/113/29 24/114/29 9/94/29 1/60/29 

usemtl Green
vn 1.92228e-015 1 -6.15129e-015
f 2/19/30 24/23/30 25/47/30 26/46/30 

usemtl BackColor
vn -1.92228e-015 -1 6.15129e-015
f 26/53/31 25/52/31 24/24/31 2/28/31 

usemtl Green
vt -0.9 2.84965e-015
vn 6.01593e-015 -2.84965e-015 -1
vt -0.1 2.84965e-015
f 22/115/32 3/116/32 2/2/32 26/106/32 

usemtl BackColor
vn -6.01593e-015 2.84965e-015 1
vt -11.811 3.36573e-013
vt -106.299 3.36573e-013
f 26/109/33 2/9/33 3/117/33 22/118/33 

usemtl Red
vt -1 5.85484e-016
vn 9.04341e-015 -5.85484e-016 -1
vt -0.9 5.85484e-016
f 21/119/34 22/120/34 26/106/34 17/105/34 16/13/34 

usemtl BackColor
vn -9.04341e-015 5.85484e-016 1
vt -106.299 6.91517e-014
vt -118.11 6.91517e-014
f 16/16/35 17/110/35 26/109/35 22/121/35 21/122/35 

vt -6.29825e-013 7.48031
vt -6.29825e-013 17.3228
f 13/123/7 12/99/7 14/98/7 15/124/7 

vt 106.299 1.02857e-013
vn -1.92228e-015 -1 -6.15129e-015
vt 11.811 7.28135e-013
vt 11.811 29.5276
vt 106.299 29.5276
f 13/125/36 10/126/36 11/127/36 12/128/36 

usemtl Green
vt 0.1 -1.22003e-029
vn -6.46712e-015 -1.89977e-015 1
vt 0.9 -1.19717e-029
f 23/129/37 19/130/37 13/56/37 10/85/37 

usemtl BackColor
vn 6.46712e-015 1.89977e-015 -1
vt 106.299 -1.41398e-027
vt 11.811 -1.44098e-027
f 10/90/38 13/63/38 19/131/38 23/132/38 

