# Alias OBJ Model File
# Exported from SketchUp, (c) 2000-2012 Trimble Navigation Limited
# File units = meters

mtllib Round_corner_3_01.mtl

g Mesh1 Round_corner_3 Model

usemtl Red
v 0.3 0 -1.94916e-014
vt -0.1 6.4972e-015
vn 0 -1 -0
v 0 0 -2.09354e-014
vt 0 6.97848e-015
v 0.0256654 0 -0.391579
vt -0.00855514 0.130526
v 0.102223 0 -0.776457
vt -0.0340742 0.258819
v 0.228361 0 -1.14805
vt -0.0761205 0.382683
v 0.401924 0 -1.5
vt -0.133975 0.5
v 0.61994 0 -1.82628
vt -0.206647 0.608761
v 0.87868 0 -2.12132
vt -0.292893 0.707107
v 1.17372 0 -2.38006
vt -0.391239 0.793353
v 1.5 0 -2.59808
vt -0.5 0.866025
v 1.85195 0 -2.77164
vt -0.617317 0.92388
v 2.22354 0 -2.89778
vt -0.741181 0.965926
v 2.60842 0 -2.97433
vt -0.869474 0.991445
v 3 0 -3
vt -1 1
v 3 0 -2.7
vt -1 0.9
v 3 0 -0
vt -1 0
f 1/1/1 2/2/1 3/3/1 4/4/1 5/5/1 6/6/1 7/7/1 8/8/1 9/9/1 10/10/1 11/11/1 12/12/1 13/13/1 14/14/1 15/15/1 16/16/1 

usemtl BackColor
vt -118.11 0
vn -0 1 0
vt -118.11 106.299
vt -118.11 118.11
vt -102.694 117.1
vt -87.5411 114.086
vt -72.9114 109.12
vt -59.0551 102.286
vt -46.2093 93.7032
vt -34.5937 83.5165
vt -24.4071 71.901
vt -15.8238 59.0551
vt -8.99061 45.1988
vt -4.02451 30.5692
vt -1.01045 15.4165
vt 0 8.2423e-013
vt -11.811 7.67386e-013
f 16/17/2 15/18/2 14/19/2 13/20/2 12/21/2 11/22/2 10/23/2 9/24/2 8/25/2 7/26/2 6/27/2 5/28/2 4/29/2 3/30/2 2/31/2 1/32/2 

usemtl Green
v 3 0.19 -2.7
vt 0.9 0.0633333
vn 1 -2.1784e-012 -1.88093e-013
v 3 0.19 -0
vt -1.88093e-013 0.0633333
vt -1.88093e-013 2.1784e-012
vt 0.9 2.1784e-012
f 17/33/3 18/34/3 16/35/3 15/36/3 

v 0.3 0.19 -2.09354e-014
vt 0.1 6.97935e-015
vn -1.25516e-016 1 1.3706e-017
vt 1 8.68049e-019
vt 1 0.9
v 2.64758 0.19 -2.6769
vt 0.882526 0.8923
v 2.30119 0.19 -2.608
vt 0.767063 0.869333
v 1.96675 0.19 -2.49447
vt 0.655585 0.831492
v 1.65 0.19 -2.33827
vt 0.55 0.779423
v 1.35634 0.19 -2.14205
vt 0.452115 0.714018
v 1.09081 0.19 -1.90919
vt 0.363604 0.636396
v 0.857946 0.19 -1.64366
vt 0.285982 0.547885
v 0.661731 0.19 -1.35
vt 0.220577 0.45
v 0.505525 0.19 -1.03325
vt 0.168508 0.344415
v 0.392 0.19 -0.698811
vt 0.130667 0.232937
v 0.323099 0.19 -0.352421
vt 0.1077 0.117474
f 19/37/4 18/38/4 17/39/4 20/40/4 21/41/4 22/42/4 23/43/4 24/44/4 25/45/4 26/46/4 27/47/4 28/48/4 29/49/4 30/50/4 

vt 1 4.4202e-029
vn -6.98013e-015 6.33256e-015 1
vt 1 0.0633333
vt 0.1 0.0633333
vt 0.1 4.55641e-029
f 16/51/5 18/52/5 19/53/5 1/54/5 

usemtl BackColor
vt 11.811 5.38159e-027
vn 6.98013e-015 -6.33256e-015 -1
vt 11.811 7.48031
vt 118.11 7.48031
vt 118.11 5.22071e-027
f 1/55/6 19/56/6 18/57/6 16/58/6 

usemtl Red
vt 1.37865e-029 -6.22596e-030
vn 1.97557e-015 -8.92167e-016 1
vt 0.1 -5.62033e-030
v 0.3 0.44 -2.09354e-014
vt 0.1 0.146667
v 0 0.44 -1.87697e-014
vt 1.23603e-029 0.146667
f 2/59/7 1/60/7 19/53/7 31/61/7 32/62/7 

usemtl BackColor
vt 1.45988e-027 17.3228
vn -1.97557e-015 8.92167e-016 -1
vt 11.811 17.3228
vt 11.811 -6.63819e-028
vt 1.62832e-027 -7.3535e-028
f 32/63/8 31/64/8 19/56/8 1/65/8 2/66/8 

usemtl Red
v 3 0.44 -2.7
vn 4.94324e-017 1 1.09561e-016
v 3 0.44 -3
vt 1 1
v 2.60842 0.44 -2.97433
vt 0.869474 0.991445
v 2.22354 0.44 -2.89778
vt 0.741181 0.965926
v 1.85195 0.44 -2.77164
vt 0.617317 0.92388
v 1.5 0.44 -2.59808
vt 0.5 0.866025
v 1.17372 0.44 -2.38006
vt 0.391239 0.793353
v 0.87868 0.44 -2.12132
vt 0.292893 0.707107
v 0.61994 0.44 -1.82628
vt 0.206647 0.608761
v 0.401924 0.44 -1.5
vt 0.133975 0.5
v 0.228361 0.44 -1.14805
vt 0.0761205 0.382683
v 0.102223 0.44 -0.776457
vt 0.0340742 0.258819
v 0.0256654 0.44 -0.391579
vt 0.00855514 0.130526
vt -7.25009e-018 6.27263e-015
vt 0.1 6.99455e-015
v 0.323099 0.44 -0.352421
v 0.392 0.44 -0.698811
v 0.505525 0.44 -1.03325
v 0.661731 0.44 -1.35
v 0.857946 0.44 -1.64366
v 1.09081 0.44 -1.90919
v 1.35634 0.44 -2.14205
v 1.65 0.44 -2.33827
v 1.96675 0.44 -2.49447
v 2.30119 0.44 -2.608
v 2.64758 0.44 -2.6769
f 33/39/9 34/67/9 35/68/9 36/69/9 37/70/9 38/71/9 39/72/9 40/73/9 41/74/9 42/75/9 43/76/9 44/77/9 45/78/9 32/79/9 31/80/9 46/50/9 47/49/9 48/48/9 49/47/9 50/46/9 51/45/9 52/44/9 53/43/9 54/42/9 55/41/9 56/40/9 

vt 0.9 0.146667
vn 1 -6.86968e-014 -7.97997e-013
vt 0.9 6.86968e-014
vt 1 6.86968e-014
vt 1 0.146667
f 33/81/10 17/33/10 15/82/10 14/83/10 34/84/10 

usemtl BackColor
vt 118.11 17.3228
vn -1 6.86968e-014 7.97997e-013
vt 118.11 8.1138e-012
vt 106.299 8.1138e-012
vt 106.299 7.48031
vt 106.299 17.3228
f 34/85/11 14/86/11 15/87/11 17/88/11 33/89/11 

usemtl Red
vt -0.932456 2.65108e-015
vn -0.130526 -1.42461e-015 -0.991445
vt -0.932456 0.146667
vt -1.06326 0.146667
vn -0.0654031 -2.84311e-015 -0.997859
vt -1.06326 2.65108e-015
f 13/90/12 35/91/12 34/92/13 14/93/13 

vt -0.915382 0
vn -0.258819 0 -0.965926
vt -0.915382 0.146667
vt -1.04619 0.146667
vt -1.04619 0
f 12/94/14 36/95/14 35/96/12 13/97/12 

vt -0.881527 0
vn -0.382683 0 -0.92388
vt -0.881527 0.146667
vt -1.01233 0.146667
vt -1.01233 0
f 11/98/15 37/99/15 36/100/14 12/101/14 

vt -0.83147 0
vn -0.5 0 -0.866025
vt -0.83147 0.146667
vt -0.962276 0.146667
vt -0.962276 0
f 10/102/16 38/103/16 37/104/15 11/105/15 

vt -0.766066 0
vn -0.608761 0 -0.793353
vt -0.766066 0.146667
vt -0.896873 0.146667
vt -0.896873 0
f 9/106/17 39/107/17 38/108/16 10/109/16 

vt -0.686437 0
vn -0.707107 0 -0.707107
vt -0.686437 0.146667
vt -0.817243 0.146667
vt -0.817243 0
f 8/110/18 40/111/18 39/112/17 9/113/17 

vt -0.593943 0
vn -0.793353 0 -0.608761
vt -0.593943 0.146667
vt -0.724749 0.146667
vt -0.724749 0
f 7/114/19 41/115/19 40/116/18 8/117/18 

vt -0.490167 0
vn -0.866025 0 -0.5
vt -0.490167 0.146667
vt -0.620973 0.146667
vt -0.620973 0
f 6/118/20 42/119/20 41/120/19 7/121/19 

vt -0.376886 0
vn -0.92388 0 -0.382683
vt -0.376886 0.146667
vt -0.507692 0.146667
vt -0.507692 0
f 5/122/21 43/123/21 42/124/20 6/125/20 

vt -0.256036 0
vn -0.965926 0 -0.258819
vt -0.256036 0.146667
vt -0.386843 0.146667
vt -0.386843 0
f 4/126/22 44/127/22 43/128/21 5/129/21 

vt -0.129687 0
vn -0.991445 1.87267e-016 -0.130526
vt -0.129687 0.146667
vt -0.260493 0.146667
vt -0.260493 0
f 3/130/23 45/131/23 44/132/22 4/133/22 

vt -6.96354e-015 -1.70577e-031
vn -0.997859 3.73733e-016 -0.0654031
vt -6.24317e-015 0.146667
vt -0.130806 0.146667
vt -0.130806 -5.20546e-031
f 2/134/24 32/135/24 45/136/23 3/137/23 

usemtl BackColor
vt -15.4496 -6.14818e-029
vn 0.991445 -1.87267e-016 0.130526
vt -15.4496 17.3228
vt -7.37382e-013 17.3228
vn 0.997859 -3.73733e-016 0.0654031
vt -8.22465e-013 -2.01469e-029
f 3/138/25 45/139/25 32/140/26 2/141/26 

vt -30.7669 0
vn 0.965926 -0 0.258819
vt -30.7669 17.3228
vt -15.3174 17.3228
vt -15.3174 0
f 4/142/27 44/143/27 45/144/25 3/145/25 

vt -45.6901 0
vn 0.92388 -0 0.382683
vt -45.6901 17.3228
vt -30.2405 17.3228
vt -30.2405 0
f 5/146/28 43/147/28 44/148/27 4/149/27 

vt -59.9636 0
vn 0.866025 -0 0.5
vt -59.9636 17.3228
vt -44.514 17.3228
vt -44.514 0
f 6/150/29 42/151/29 43/152/28 5/153/28 

vt -73.3433 0
vn 0.793353 -0 0.608761
vt -73.3433 17.3228
vt -57.8938 17.3228
vt -57.8938 0
f 7/154/30 41/155/30 42/156/29 6/157/29 

vt -85.6003 0
vn 0.707107 -0 0.707107
vt -85.6003 17.3228
vt -70.1507 17.3228
vt -70.1507 0
f 8/158/31 40/159/31 41/160/30 7/161/30 

vt -96.5248 0
vn 0.608761 -0 0.793353
vt -96.5248 17.3228
vt -81.0752 17.3228
vt -81.0752 0
f 9/162/32 39/163/32 40/164/31 8/165/31 

vt -105.93 0
vn 0.5 -0 0.866025
vt -105.93 17.3228
vt -90.4803 17.3228
vt -90.4803 0
f 10/166/33 38/167/33 39/168/32 9/169/32 

vt -113.655 0
vn 0.382683 -0 0.92388
vt -113.655 17.3228
vt -98.2051 17.3228
vt -98.2051 0
f 11/170/34 37/171/34 38/172/33 10/173/33 

vt -119.567 0
vn 0.258819 -0 0.965926
vt -119.567 17.3228
vt -104.117 17.3228
vt -104.117 0
f 12/174/35 36/175/35 37/176/34 11/177/34 

vt -123.566 0
vn 0.130526 1.42461e-015 0.991445
vt -123.566 17.3228
vt -108.116 17.3228
vt -108.116 0
f 13/178/36 35/179/36 36/180/35 12/181/35 

vt -125.582 3.13119e-013
vn 0.0654031 2.84311e-015 0.997859
vt -125.582 17.3228
vt -110.133 17.3228
vt -110.133 3.13119e-013
f 14/182/37 34/183/37 35/184/36 13/185/36 

vt 104.235 105.39
vn -4.94324e-017 -1 -1.09561e-016
vt 90.598 102.677
vt 77.4313 98.2077
vt 64.9606 92.0578
vt 53.3994 84.3328
vt 42.9453 75.1649
vt 33.7774 64.7109
vt 26.0524 53.1496
vt 19.9026 40.6789
vt 15.4331 27.5123
vt 12.7204 13.8748
vt 11.811 8.26127e-013
vt -8.5631e-016 7.40862e-013
vt 1.01045 15.4165
vt 4.02451 30.5692
vt 8.99061 45.1988
vt 15.8238 59.0551
vt 24.4071 71.901
vt 34.5937 83.5165
vt 46.2093 93.7032
vt 59.0551 102.286
vt 72.9114 109.12
vt 87.5411 114.086
vt 102.694 117.1
vt 118.11 118.11
vt 118.11 106.299
f 56/186/38 55/187/38 54/188/38 53/189/38 52/190/38 51/191/38 50/192/38 49/193/38 48/194/38 47/195/38 46/196/38 31/197/38 32/198/38 45/199/38 44/200/38 43/201/38 42/202/38 41/203/38 40/204/38 39/205/38 38/206/38 37/207/38 36/208/38 35/209/38 34/210/38 33/211/38 

usemtl Red
vt 0.921922 0.0633333
vn 0.258819 -1.18622e-016 0.965926
vt 1.03965 0.0633333
vn 0.130526 -1.15076e-016 0.991445
vt 1.03965 0.146667
vt 0.921922 0.146667
f 21/212/39 20/213/40 56/214/40 55/215/39 

usemtl BackColor
vt 108.888 17.3228
vn -0.258819 1.18622e-016 -0.965926
vt 122.793 17.3228
vn -0.130526 1.15076e-016 -0.991445
vt 122.793 7.48031
vt 108.888 7.48031
f 55/216/41 56/217/42 20/218/42 21/219/41 

usemtl Red
vt 0.938996 0.0633333
vt 1.05672 0.0633333
vn 0.0654031 -1.12559e-016 0.997859
vt 1.05672 0.146667
vt 0.938996 0.146667
f 20/220/40 17/221/43 33/222/43 56/223/40 

usemtl BackColor
vt 110.905 17.3228
vt 124.81 17.3228
vn -0.0654031 1.12559e-016 -0.997859
vt 124.81 7.48031
vt 110.905 7.48031
f 56/224/42 33/225/44 17/226/44 20/227/42 

vn 1.25516e-016 -1 -1.3706e-017
vt 118.11 1.02525e-016
vt 11.811 8.24332e-013
f 30/196/45 29/195/45 28/194/45 27/193/45 26/192/45 25/191/45 24/190/45 23/189/45 22/188/45 21/187/45 20/186/45 17/211/45 18/228/45 19/229/45 

usemtl Red
vt 0.136228 0.0633333
vn 0.991445 -6.33101e-017 0.130526
vt 0.253953 0.0633333
vn 0.965926 -7.61044e-017 0.258819
vt 0.253953 0.146667
vt 0.136228 0.146667
f 30/230/46 29/231/47 47/232/47 46/233/46 

usemtl BackColor
vt 16.0899 17.3228
vn -0.991445 6.33101e-017 -0.130526
vt 29.9945 17.3228
vn -0.965926 7.61044e-017 -0.258819
vt 29.9945 7.48031
vt 16.0899 7.48031
f 46/234/48 47/235/49 29/236/49 30/237/48 

usemtl Red
vt 0.262577 0.0633333
vt 0.380302 0.0633333
vn 0.92388 -8.75967e-017 0.382683
vt 0.380302 0.146667
vt 0.262577 0.146667
f 29/238/47 28/239/50 48/240/50 47/241/47 

usemtl BackColor
vt 31.013 17.3228
vt 44.9176 17.3228
vn -0.92388 8.75967e-017 -0.382683
vt 44.9176 7.48031
vt 31.013 7.48031
f 47/242/49 48/243/51 28/244/51 29/245/49 

usemtl Red
vt 0.383426 0.0633333
vt 0.501152 0.0633333
vn 0.866025 -9.75901e-017 0.5
vt 0.501152 0.146667
vt 0.383426 0.146667
f 28/246/50 27/247/52 49/248/52 48/249/50 

usemtl BackColor
vt 45.2865 17.3228
vt 59.1911 17.3228
vn -0.866025 9.75901e-017 -0.5
vt 59.1911 7.48031
vt 45.2865 7.48031
f 48/250/51 49/251/53 27/252/53 28/253/51 

usemtl Red
vt 0.496707 0.0633333
vt 0.614433 0.0633333
vn 0.793353 -1.05914e-016 0.608761
vt 0.614433 0.146667
vt 0.496707 0.146667
f 27/254/52 26/255/54 50/256/54 49/257/52 

usemtl BackColor
vt 58.6662 17.3228
vt 72.5708 17.3228
vn -0.793353 1.05914e-016 -0.608761
vt 72.5708 7.48031
vt 58.6662 7.48031
f 49/258/53 50/259/55 26/260/55 27/261/53 

usemtl Red
vt 0.600483 0.0633333
vt 0.718209 0.0633333
vn 0.707107 -1.12425e-016 0.707107
vt 0.718209 0.146667
vt 0.600483 0.146667
f 26/262/54 25/263/56 51/264/56 50/265/54 

usemtl BackColor
vt 70.9232 17.3228
vt 84.8278 17.3228
vn -0.707107 1.12425e-016 -0.707107
vt 84.8278 7.48031
vt 70.9232 7.48031
f 50/266/55 51/267/57 25/268/57 26/269/55 

usemtl Red
vt 0.692977 0.0633333
vt 0.810703 0.0633333
vn 0.608761 -1.17013e-016 0.793353
vt 0.810703 0.146667
vt 0.692977 0.146667
f 25/270/56 24/271/58 52/272/58 51/273/56 

usemtl BackColor
vt 81.8477 17.3228
vt 95.7523 17.3228
vn -0.608761 1.17013e-016 -0.793353
vt 95.7523 7.48031
vt 81.8477 7.48031
f 51/274/57 52/275/59 24/276/59 25/277/57 

usemtl Red
vt 0.772607 0.0633333
vt 0.890332 0.0633333
vn 0.5 -1.19599e-016 0.866025
vt 0.890332 0.146667
vt 0.772607 0.146667
f 24/278/58 23/279/60 53/280/60 52/281/58 

usemtl BackColor
vt 91.2528 17.3228
vt 105.157 17.3228
vn -0.5 1.19599e-016 -0.866025
vt 105.157 7.48031
vt 91.2528 7.48031
f 52/282/59 53/283/61 23/284/61 24/285/59 

usemtl Red
vt 0.83801 0.0633333
vt 0.955736 0.0633333
vn 0.382683 -1.20138e-016 0.92388
vt 0.955736 0.146667
vt 0.83801 0.146667
f 23/286/60 22/287/62 54/288/62 53/289/60 

usemtl BackColor
vt 98.9776 17.3228
vt 112.882 17.3228
vn -0.382683 1.20138e-016 -0.92388
vt 112.882 7.48031
vt 98.9776 7.48031
f 53/290/61 54/291/63 22/292/63 23/293/61 

usemtl Red
vt 0.888067 0.0633333
vt 1.00579 0.0633333
vt 1.00579 0.146667
vt 0.888067 0.146667
f 22/294/62 21/295/39 55/296/39 54/297/62 

usemtl BackColor
vt 104.89 17.3228
vt 118.794 17.3228
vt 118.794 7.48031
vt 104.89 7.48031
f 54/298/63 55/299/41 21/300/41 22/301/63 

usemtl Red
vt 0.00654031 0.0633333
vn 0.997859 -5.64922e-017 0.0654031
vt 0.124266 0.0633333
vt 0.124266 0.146667
vt 0.00654031 0.146667
f 19/302/64 30/303/46 46/304/46 31/305/64 

usemtl BackColor
vt 0.772478 17.3228
vn -0.997859 5.64922e-017 -0.0654031
vt 14.6771 17.3228
vt 14.6771 7.48031
vt 0.772478 7.48031
f 31/306/65 46/307/48 30/308/48 19/309/65 

vt 106.299 2.57291e-010
vn -1 2.1784e-012 1.88093e-013
vt -2.22157e-011 2.57291e-010
vt -2.22157e-011 7.48031
f 15/310/66 16/311/66 18/312/66 17/88/66 

