# Alias OBJ Model File
# Exported from SketchUp, (c) 2000-2012 Trimble Navigation Limited
# File units = meters

mtllib Round_corner_2_01.mtl

g Mesh1 Round_corner_2 Model

usemtl Red
v 1.73259e-014 0 -3
vt 3.00796e-016 6.64918e-015
vn 6.07609e-015 -6.64918e-015 -1
v 1.73259e-014 0.44 -3
vt 3.00796e-016 0.146667
v 3 0.44 -3
vt -1 0.146667
v 3 0 -3
vt -1 6.64918e-015
f 1/1/1 2/2/1 3/3/1 4/4/1 

usemtl BackColor
vt -118.11 7.85337e-013
vn -6.07609e-015 6.64918e-015 1
vt -118.11 17.3228
vt 3.55271e-014 17.3228
vt 3.55271e-014 7.85337e-013
f 4/5/2 3/6/2 2/7/2 1/8/2 

usemtl Red
v 3 0.44 -2.7
vt 0.9 0.146667
vn 1 -6.86968e-014 -7.97997e-013
v 3 0.19 -2.7
vt 0.9 0.0633333
v 3 0 -2.7
vt 0.9 6.86968e-014
vt 1 6.86968e-014
vt 1 0.146667
f 5/9/3 6/10/3 7/11/3 4/12/3 3/13/3 

usemtl BackColor
vt 118.11 17.3228
vn -1 6.86968e-014 7.97997e-013
vt 118.11 8.1138e-012
vt 106.299 8.1138e-012
vt 106.299 7.48031
vt 106.299 17.3228
f 3/14/4 4/15/4 7/16/4 6/17/4 5/18/4 

usemtl Red
vt -5.77529e-015 1
vn 0 -1 -0
vt -1 1
vt -1 0.9
v 3 0 -0.3
vt -1 0.1
v 3 0 -0
vt -1 0
v 2.7 0 -4.33147e-015
vt -0.9 1.44382e-015
v 0.3 0 -2.02135e-014
vt -0.1 6.73784e-015
v 0 0 -2.09354e-014
vt 0 6.97848e-015
f 1/19/5 4/20/5 7/21/5 8/22/5 9/23/5 10/24/5 11/25/5 12/26/5 

usemtl BackColor
vt 0 8.2423e-013
vn -0 1 0
vt -11.811 7.95808e-013
vt -106.299 1.7053e-013
vt -118.11 0
vt -118.11 11.811
vt -118.11 106.299
vt -118.11 118.11
vt -6.82121e-013 118.11
f 12/27/6 11/28/6 10/29/6 9/30/6 8/31/6 7/32/6 4/33/6 1/34/6 

usemtl Red
vt 1.92025e-029 -1.16737e-029
vn 2.75167e-015 -1.67281e-015 1
vt 0.1 -1.08108e-029
v 0.3 0.19 -2.09354e-014
vt 0.1 0.0633333
v 0.3 0.44 -2.09354e-014
vt 0.1 0.146667
v 0 0.44 -1.87697e-014
vt 1.7216e-029 0.146667
f 12/35/7 11/36/7 13/37/7 14/38/7 15/39/7 

usemtl BackColor
vt 2.03339e-027 17.3228
vn -2.75167e-015 1.67281e-015 -1
vt 11.811 17.3228
vt 11.811 7.48031
vt 11.811 -1.27687e-027
vt 2.26801e-027 -1.37878e-027
f 15/40/8 14/41/8 13/42/8 11/43/8 12/44/8 

usemtl Red
vt 5.7786e-015 1
vn -2.2536e-017 1 6.96884e-017
vt 3.30528e-018 6.26679e-015
vt 0.1 6.9887e-015
v 0.323099 0.44 -0.352421
vt 0.1077 0.117474
v 0.392 0.44 -0.698811
vt 0.130667 0.232937
v 0.505525 0.44 -1.03325
vt 0.168508 0.344415
v 0.661731 0.44 -1.35
vt 0.220577 0.45
v 0.857946 0.44 -1.64366
vt 0.285982 0.547885
v 1.09081 0.44 -1.90919
vt 0.363604 0.636396
v 1.35634 0.44 -2.14205
vt 0.452115 0.714018
v 1.65 0.44 -2.33827
vt 0.55 0.779423
v 1.96675 0.44 -2.49447
vt 0.655585 0.831492
v 2.30119 0.44 -2.608
vt 0.767063 0.869333
v 2.64758 0.44 -2.6769
vt 0.882526 0.8923
vt 1 0.9
vt 1 1
f 2/45/9 15/46/9 14/47/9 16/48/9 17/49/9 18/50/9 19/51/9 20/52/9 21/53/9 22/54/9 23/55/9 24/56/9 25/57/9 26/58/9 5/59/9 3/60/9 

vt -6.97848e-015 -3.54683e-058
vn -1 8.80046e-030 -5.77529e-015
vt -6.25657e-015 0.146667
vt -1 -3.23716e-058
f 12/61/10 15/62/10 2/3/10 1/63/10 

usemtl BackColor
vt -118.11 -3.82342e-056
vn 1 -8.80046e-030 5.77529e-015
vt -7.38964e-013 17.3228
vt -8.2423e-013 -4.18917e-056
f 1/64/11 2/6/11 15/65/11 12/66/11 

vt 118.11 118.11
vn 2.2536e-017 -1 -6.96884e-017
vt 118.11 106.299
vt 104.235 105.39
vt 90.598 102.677
vt 77.4313 98.2077
vt 64.9606 92.0578
vt 53.3994 84.3328
vt 42.9453 75.1649
vt 33.7774 64.7109
vt 26.0524 53.1496
vt 19.9026 40.6789
vt 15.4331 27.5123
vt 12.7204 13.8748
vt 11.811 8.25437e-013
vt 3.90387e-016 7.40172e-013
vt 6.82511e-013 118.11
f 3/67/12 5/68/12 26/69/12 25/70/12 24/71/12 23/72/12 22/73/12 21/74/12 20/75/12 19/76/12 18/77/12 17/78/12 16/79/12 14/80/12 15/81/12 2/82/12 

usemtl Red
v 2.64758 0.19 -2.6769
vt 0.938996 0.0633333
vn 0.130526 -6.61507e-017 0.991445
vt 1.05672 0.0633333
vn 0.0654031 -6.80653e-017 0.997859
vt 1.05672 0.146667
vt 0.938996 0.146667
f 27/83/13 6/84/14 5/85/14 26/86/13 

usemtl Green
v 3 0.19 -0.3
vt 1 0.1
vn -7.61845e-017 1 7.12845e-017
v 2.30119 0.19 -2.608
v 1.96675 0.19 -2.49447
v 1.65 0.19 -2.33827
v 1.35634 0.19 -2.14205
v 1.09081 0.19 -1.90919
v 0.857946 0.19 -1.64366
v 0.661731 0.19 -1.35
v 0.505525 0.19 -1.03325
v 0.392 0.19 -0.698811
v 0.323099 0.19 -0.352421
vt 0.1 6.98299e-015
v 2.7 0.19 -6.4972e-015
vt 0.9 2.17025e-015
v 2.70257 0.19 -0.0391579
vt 0.900856 0.0130526
v 2.71022 0.19 -0.0776457
vt 0.903407 0.0258819
v 2.72284 0.19 -0.114805
vt 0.907612 0.0382683
v 2.74019 0.19 -0.15
vt 0.913397 0.05
v 2.76199 0.19 -0.182628
vt 0.920665 0.0608761
v 2.78787 0.19 -0.212132
vt 0.929289 0.0707107
v 2.81737 0.19 -0.238006
vt 0.939124 0.0793353
v 2.85 0.19 -0.259808
vt 0.95 0.0866025
v 2.88519 0.19 -0.277164
vt 0.961732 0.092388
v 2.92235 0.19 -0.289778
vt 0.974118 0.0965926
v 2.96084 0.19 -0.297433
vt 0.986947 0.0991445
f 28/87/15 6/59/15 27/58/15 29/57/15 30/56/15 31/55/15 32/54/15 33/53/15 34/52/15 35/51/15 36/50/15 37/49/15 38/48/15 13/88/15 39/89/15 40/90/15 41/91/15 42/92/15 43/93/15 44/94/15 45/95/15 46/96/15 47/97/15 48/98/15 49/99/15 50/100/15 

usemtl BackColor
vt 116.569 11.71
vn 7.61845e-017 -1 -7.12845e-017
vt 115.053 11.4086
vt 113.59 10.912
vt 112.205 10.2286
vt 110.92 9.37032
vt 109.759 8.35165
vt 108.74 7.1901
vt 107.882 5.90551
vt 107.198 4.51988
vt 106.702 3.05692
vt 106.4 1.54165
vt 106.299 2.56329e-013
vt 11.811 8.24763e-013
vt 118.11 11.811
f 50/101/16 49/102/16 48/103/16 47/104/16 46/105/16 45/106/16 44/107/16 43/108/16 42/109/16 41/110/16 40/111/16 39/112/16 13/113/16 38/79/16 37/78/16 36/77/16 35/76/16 34/75/16 33/74/16 32/73/16 31/72/16 30/71/16 29/70/16 27/69/16 6/68/16 28/114/16 

usemtl Red
vt -0.987326 0.0633333
vn -0.130526 -1.57409e-016 -0.991445
vt -0.974245 0.0633333
vn -0.258819 -3.12507e-016 -0.965926
v 2.92235 0.44 -0.289778
vt -0.974245 0.146667
v 2.96084 0.44 -0.297433
vt -0.987326 0.146667
f 50/115/17 49/116/18 51/117/18 52/118/17 

usemtl BackColor
vt -116.613 17.3228
vn 0.130526 1.57409e-016 0.991445
vt -115.068 17.3228
vn 0.258819 3.12507e-016 0.965926
vt -115.068 7.48031
vt -116.613 7.48031
f 52/119/19 51/120/20 49/121/20 50/122/19 

usemtl Red
v 3 0.44 -0
vt 1 5.61162e-020
vn -1.20886e-015 1 3.8261e-019
v 3 0.44 -0.3
v 2.88519 0.44 -0.277164
v 2.85 0.44 -0.259808
v 2.81737 0.44 -0.238006
v 2.78787 0.44 -0.212132
v 2.76199 0.44 -0.182628
v 2.74019 0.44 -0.15
v 2.72284 0.44 -0.114805
v 2.71022 0.44 -0.0776457
v 2.70257 0.44 -0.0391579
v 2.7 0.44 -6.4972e-015
vt 0.9 2.16579e-015
f 53/123/21 54/87/21 52/100/21 51/99/21 55/98/21 56/97/21 57/96/21 58/95/21 59/94/21 60/93/21 61/92/21 62/91/21 63/90/21 64/124/21 

usemtl BackColor
vt 106.299 2.55802e-013
vn 1.20886e-015 -1 -3.8261e-019
vt 118.11 6.6279e-018
f 64/125/22 63/111/22 62/110/22 61/109/22 60/108/22 59/107/22 58/106/22 57/105/22 56/104/22 55/103/22 51/102/22 52/101/22 54/114/22 53/126/22 

usemtl Red
vt -0.0719434 0.0633333
vn -0.991445 -1.19847e-015 -0.130526
vt -0.0588628 0.0633333
vn -0.997859 -1.20625e-015 -0.0654031
vt -0.0588628 0.146667
vt -0.0719434 0.146667
f 40/127/23 39/128/24 64/129/24 63/130/23 

usemtl BackColor
vt -8.49726 17.3228
vn 0.991445 1.19847e-015 0.130526
vt -6.9523 17.3228
vn 0.997859 1.20625e-015 0.0654031
vt -6.9523 7.48031
vt -8.49726 7.48031
f 63/131/25 64/132/26 39/133/26 40/134/25 

usemtl Red
vn -1.9329e-014 2.34194e-015 1
vt 0.9 4.4122e-029
vt 1 4.52674e-029
f 64/9/27 39/10/27 10/135/27 9/136/27 53/13/27 

usemtl BackColor
vn 1.9329e-014 -2.34194e-015 -1
vt 118.11 5.34654e-027
vt 106.299 5.21126e-027
f 53/14/28 9/137/28 10/138/28 39/17/28 64/18/28 

usemtl Red
vt 6.60705e-012 1.27401e-012
vn 1 -1.27401e-012 6.60705e-012
vt 0.1 1.27401e-012
vt 6.60705e-012 0.146667
f 9/139/29 8/140/29 28/37/29 54/38/29 53/141/29 

usemtl BackColor
vt 7.8036e-010 17.3228
vn -1 1.27401e-012 -6.60705e-012
vt 11.811 1.50474e-010
vt 7.8036e-010 1.50474e-010
f 53/142/30 54/41/30 28/42/30 8/143/30 9/144/30 

usemtl Red
vt -1.0044 0.0633333
vn -0.0654031 -7.86817e-017 -0.997859
vt -0.991319 0.0633333
vt -0.991319 0.146667
vt -1.0044 0.146667
f 28/145/31 50/146/17 52/147/17 54/148/31 

usemtl BackColor
vt -118.63 17.3228
vn 0.0654031 7.86817e-017 0.997859
vt -117.085 17.3228
vt -117.085 7.48031
vt -118.63 7.48031
f 54/149/32 52/150/19 50/151/19 28/152/32 

usemtl Green
vt 0.1 3.2676e-012
vn 1 -3.2676e-012 -6.36485e-013
vt 0.9 3.2676e-012
f 8/153/33 7/154/33 6/10/33 28/37/33 

usemtl BackColor
vn -1 3.2676e-012 6.36485e-013
vt 106.299 3.85937e-010
vt 11.811 3.85937e-010
f 28/42/34 6/17/34 7/155/34 8/156/34 

usemtl Green
vt 0.1 5.60014e-029
vn -6.31672e-015 7.59907e-015 1
vt 0.9 5.41728e-029
f 11/157/35 10/158/35 39/10/35 13/37/35 

usemtl BackColor
vn 6.31672e-015 -7.59907e-015 -1
vt 106.299 6.39836e-027
vt 11.811 6.61434e-027
f 13/42/36 39/17/36 10/159/36 11/160/36 

usemtl Red
vt -0.201631 0.0633333
vn -0.965926 -1.16757e-015 -0.258819
vt -0.18855 0.0633333
vt -0.18855 0.146667
vt -0.201631 0.146667
f 41/161/37 40/162/23 63/163/23 62/164/37 

usemtl BackColor
vt -23.8146 17.3228
vn 0.965926 1.16757e-015 0.258819
vt -22.2697 17.3228
vt -22.2697 7.48031
vt -23.8146 7.48031
f 62/165/38 63/166/25 40/167/25 41/168/38 

usemtl Red
vt -0.32798 0.0633333
vn -0.92388 -1.1167e-015 -0.382683
vt -0.314899 0.0633333
vt -0.314899 0.146667
vt -0.32798 0.146667
f 42/169/39 41/170/37 62/171/37 61/172/39 

usemtl BackColor
vt -38.7378 17.3228
vn 0.92388 1.1167e-015 0.382683
vt -37.1928 17.3228
vt -37.1928 7.48031
vt -38.7378 7.48031
f 61/173/40 62/174/38 41/175/38 42/176/40 

usemtl Red
vt -0.448829 0.0633333
vn -0.866025 -1.04672e-015 -0.5
vt -0.435748 0.0633333
vt -0.435748 0.146667
vt -0.448829 0.146667
f 43/177/41 42/178/39 61/179/39 60/180/41 

usemtl BackColor
vt -53.0113 17.3228
vn 0.866025 1.04672e-015 0.5
vt -51.4663 17.3228
vt -51.4663 7.48031
vt -53.0113 7.48031
f 60/181/42 61/182/40 42/183/40 43/184/42 

usemtl Red
vt -0.562111 0.0633333
vn -0.793353 -9.58823e-016 -0.608761
vt -0.54903 0.0633333
vt -0.54903 0.146667
vt -0.562111 0.146667
f 44/185/43 43/186/41 60/187/41 59/188/43 

usemtl BackColor
vt -66.391 17.3228
vn 0.793353 9.58823e-016 0.608761
vt -64.8461 17.3228
vt -64.8461 7.48031
vt -66.391 7.48031
f 59/189/44 60/190/42 43/191/42 44/192/44 

usemtl Red
vt -0.665886 0.0633333
vn -0.707107 -8.54525e-016 -0.707107
vt -0.652806 0.0633333
vt -0.652806 0.146667
vt -0.665886 0.146667
f 45/193/45 44/194/43 59/195/43 58/196/45 

usemtl BackColor
vt -78.648 17.3228
vn 0.707107 8.54525e-016 0.707107
vt -77.103 17.3228
vt -77.103 7.48031
vt -78.648 7.48031
f 58/197/46 59/198/44 44/199/44 45/200/46 

usemtl Red
vt -0.75838 0.0633333
vn -0.608761 -7.35606e-016 -0.793353
vt -0.745299 0.0633333
vt -0.745299 0.146667
vt -0.75838 0.146667
f 46/201/47 45/202/45 58/203/45 57/204/47 

usemtl BackColor
vt -89.5725 17.3228
vn 0.608761 7.35606e-016 0.793353
vt -88.0275 17.3228
vt -88.0275 7.48031
vt -89.5725 7.48031
f 57/205/48 58/206/46 45/207/46 46/208/48 

usemtl Red
vt -0.83801 0.0633333
vn -0.5 -6.041e-016 -0.866025
vt -0.824929 0.0633333
vt -0.824929 0.146667
vt -0.83801 0.146667
f 47/209/49 46/210/47 57/211/47 56/212/49 

usemtl BackColor
vt -98.9776 17.3228
vn 0.5 6.041e-016 0.866025
vt -97.4326 17.3228
vt -97.4326 7.48031
vt -98.9776 7.48031
f 56/213/50 57/214/48 46/215/48 47/216/50 

usemtl Red
vt -0.903413 0.0633333
vn -0.382683 -4.62258e-016 -0.92388
vt -0.890332 0.0633333
vt -0.890332 0.146667
vt -0.903413 0.146667
f 48/217/51 47/218/49 56/219/49 55/220/51 

usemtl BackColor
vt -106.702 17.3228
vn 0.382683 4.62258e-016 0.92388
vt -105.157 17.3228
vt -105.157 7.48031
vt -106.702 7.48031
f 55/221/52 56/222/50 47/223/50 48/224/52 

usemtl Red
vt -0.95347 0.0633333
vt -0.94039 0.0633333
vt -0.94039 0.146667
vt -0.95347 0.146667
f 49/225/18 48/226/51 55/227/51 51/228/18 

usemtl BackColor
vt -112.615 17.3228
vt -111.07 17.3228
vt -111.07 7.48031
vt -112.615 7.48031
f 51/229/20 55/230/52 48/231/52 49/232/20 

usemtl Red
vt 0.00654031 0.0633333
vn 0.997859 1.79299e-017 0.0654031
vt 0.124266 0.0633333
vn 0.991445 1.3247e-017 0.130526
vt 0.124266 0.146667
vt 0.00654031 0.146667
f 13/233/53 38/234/54 16/235/54 14/236/53 

usemtl BackColor
vt 0.772478 17.3228
vn -0.997859 -1.79299e-017 -0.0654031
vt 14.6771 17.3228
vn -0.991445 -1.3247e-017 -0.130526
vt 14.6771 7.48031
vt 0.772478 7.48031
f 14/237/55 16/238/56 38/239/56 13/240/55 

usemtl Red
vt 0.136228 0.0633333
vt 0.253953 0.0633333
vn 0.965926 3.73139e-018 0.258819
vt 0.253953 0.146667
vt 0.136228 0.146667
f 38/241/54 37/242/57 17/243/57 16/244/54 

usemtl BackColor
vt 16.0899 17.3228
vt 29.9945 17.3228
vn -0.965926 -3.73139e-018 -0.258819
vt 29.9945 7.48031
vt 16.0899 7.48031
f 16/245/56 17/246/58 37/247/58 38/248/56 

usemtl Red
vt 0.262577 0.0633333
vt 0.380302 0.0633333
vn 0.92388 -5.84808e-018 0.382683
vt 0.380302 0.146667
vt 0.262577 0.146667
f 37/249/57 36/250/59 18/251/59 17/252/57 

usemtl BackColor
vt 31.013 17.3228
vt 44.9176 17.3228
vn -0.92388 5.84808e-018 -0.382683
vt 44.9176 7.48031
vt 31.013 7.48031
f 17/253/58 18/254/60 36/255/60 37/256/58 

usemtl Red
vt 0.383426 0.0633333
vt 0.501152 0.0633333
vn 0.866025 -1.53275e-017 0.5
vt 0.501152 0.146667
vt 0.383426 0.146667
f 36/257/59 35/258/61 19/259/61 18/260/59 

usemtl BackColor
vt 45.2865 17.3228
vt 59.1911 17.3228
vn -0.866025 1.53275e-017 -0.5
vt 59.1911 7.48031
vt 45.2865 7.48031
f 18/261/60 19/262/62 35/263/62 36/264/60 

usemtl Red
vt 0.496707 0.0633333
vt 0.614433 0.0633333
vn 0.793353 -2.45446e-017 0.608761
vt 0.614433 0.146667
vt 0.496707 0.146667
f 35/265/61 34/266/63 20/267/63 19/268/61 

usemtl BackColor
vt 58.6662 17.3228
vt 72.5708 17.3228
vn -0.793353 2.45446e-017 -0.608761
vt 72.5708 7.48031
vt 58.6662 7.48031
f 19/269/62 20/270/64 34/271/64 35/272/62 

usemtl Red
vt 0.600483 0.0633333
vt 0.718209 0.0633333
vn 0.707107 -3.33418e-017 0.707107
vt 0.718209 0.146667
vt 0.600483 0.146667
f 34/273/63 33/274/65 21/275/65 20/276/63 

usemtl BackColor
vt 70.9232 17.3228
vt 84.8278 17.3228
vn -0.707107 3.33418e-017 -0.707107
vt 84.8278 7.48031
vt 70.9232 7.48031
f 20/277/64 21/278/66 33/279/66 34/280/64 

usemtl Red
vt 0.692977 0.0633333
vt 0.810703 0.0633333
vn 0.608761 -4.15685e-017 0.793353
vt 0.810703 0.146667
vt 0.692977 0.146667
f 33/281/65 32/282/67 22/283/67 21/284/65 

usemtl BackColor
vt 81.8477 17.3228
vt 95.7523 17.3228
vn -0.608761 4.15685e-017 -0.793353
vt 95.7523 7.48031
vt 81.8477 7.48031
f 21/285/66 22/286/68 32/287/68 33/288/66 

usemtl Red
vt 0.772607 0.0633333
vt 0.890332 0.0633333
vn 0.5 -4.9084e-017 0.866025
vt 0.890332 0.146667
vt 0.772607 0.146667
f 32/289/67 31/290/69 23/291/69 22/292/67 

usemtl BackColor
vt 91.2528 17.3228
vt 105.157 17.3228
vn -0.5 4.9084e-017 -0.866025
vt 105.157 7.48031
vt 91.2528 7.48031
f 22/293/68 23/294/70 31/295/70 32/296/68 

usemtl Red
vt 0.83801 0.0633333
vt 0.955736 0.0633333
vn 0.382683 -5.57596e-017 0.92388
vt 0.955736 0.146667
vt 0.83801 0.146667
f 31/297/69 30/298/71 24/299/71 23/300/69 

usemtl BackColor
vt 98.9776 17.3228
vt 112.882 17.3228
vn -0.382683 5.57596e-017 -0.92388
vt 112.882 7.48031
vt 98.9776 7.48031
f 23/301/70 24/302/72 30/303/72 31/304/70 

usemtl Red
vt 0.888067 0.0633333
vt 1.00579 0.0633333
vn 0.258819 -6.14811e-017 0.965926
vt 1.00579 0.146667
vt 0.888067 0.146667
f 30/305/71 29/306/73 25/307/73 24/308/71 

usemtl BackColor
vt 104.89 17.3228
vt 118.794 17.3228
vn -0.258819 6.14811e-017 -0.965926
vt 118.794 7.48031
vt 104.89 7.48031
f 24/309/72 25/310/74 29/311/74 30/312/72 

usemtl Red
vt 0.921922 0.0633333
vt 1.03965 0.0633333
vt 1.03965 0.146667
vt 0.921922 0.146667
f 29/313/73 27/314/13 26/315/13 25/316/73 

usemtl BackColor
vt 108.888 17.3228
vt 122.793 17.3228
vn -0.130526 6.61507e-017 -0.991445
vt 122.793 7.48031
vt 108.888 7.48031
f 25/317/74 26/318/75 27/319/75 29/320/74 

vt 110.905 17.3228
vt 124.81 17.3228
vn -0.0654031 6.80653e-017 -0.997859
vt 124.81 7.48031
vt 110.905 7.48031
f 26/321/75 5/322/76 6/323/76 27/324/75 

