# Alias OBJ Model File
# Exported from SketchUp, (c) 2000-2012 Trimble Navigation Limited
# File units = meters

mtllib Side_01.mtl

g Mesh1 Side Model

usemtl Red
v 0.3 0.44 -3
vt -0.1 0.146667
vn 2.98845e-015 -5.85484e-016 -1
v 0.3 0.19 -3
vt -0.1 0.0633333
v 0.3 0 -3
vt -0.1 5.85484e-016
v 1.87697e-014 0 -3
vt -3.26812e-015 5.85484e-016
v 1.87697e-014 0.44 -3
vt -3.26812e-015 0.146667
f 1/1/1 2/2/1 3/3/1 4/4/1 5/5/1 

usemtl BackColor
vt -3.85998e-013 17.3228
vn -2.98845e-015 5.85484e-016 1
vt -3.85998e-013 6.91517e-014
vt -11.811 6.91517e-014
vt -11.811 7.48031
vt -11.811 17.3228
f 5/6/2 4/7/2 3/8/2 2/9/2 1/10/2 

usemtl Red
v 0 0 -2.07342e-014
vt -6.9114e-015 0
vn -1 0 -6.18949e-015
v 0 0.44 -2.07342e-014
vt -6.9114e-015 0.146667
vt -1 0.146667
vt -1 0
f 6/11/3 7/12/3 5/13/3 4/14/3 

usemtl BackColor
vt -118.11 0
vn 1 -0 6.18949e-015
vt -118.11 17.3228
vt -8.16308e-013 17.3228
vt -8.16308e-013 0
f 4/15/4 5/16/4 7/17/4 6/18/4 

usemtl Red
vt 0.1 1
vn 0 1 -0
vt 6.25657e-015 1
vt 0 6.9114e-015
v 0.3 0.44 -1.67116e-014
vt 0.1 5.57054e-015
f 1/19/5 5/20/5 7/21/5 8/22/5 

usemtl BackColor
vt 11.811 6.57938e-013
vn -0 -1 0
vt 0 8.16308e-013
vt 7.38964e-013 118.11
vt 11.811 118.11
f 8/23/6 7/24/6 5/25/6 1/26/6 

usemtl Red
vt -7.77931e-029 -5.39536e-030
vn -1.12558e-014 -7.80646e-016 1
v 0.3 0 -1.74335e-014
vt 0.1 -5.41515e-030
v 0.3 0.19 -1.67116e-014
vt 0.1 0.0633333
vt 0.1 0.146667
vt -7.77931e-029 0.146667
f 6/27/7 9/28/7 10/29/7 8/30/7 7/31/7 

vt -0.1 1
vn 0 -1 -0
v 3 0 -3
vt -1 1
v 3 0 -0
vt -0.1 5.81118e-015
vt -6.25657e-015 1
f 3/32/8 11/33/8 12/14/8 9/34/8 6/21/8 4/35/8 

usemtl BackColor
vt -7.38964e-013 118.11
vn -0 1 0
vt -11.811 6.8636e-013
vt -118.11 118.11
vt -11.811 118.11
f 4/36/9 6/24/9 9/37/9 12/15/9 11/38/9 3/39/9 

vt -9.18816e-027 17.3228
vn 1.12558e-014 7.80646e-016 -1
vt 11.811 17.3228
vt 11.811 7.48031
vt 11.811 -6.39585e-028
vt -9.18816e-027 -6.37247e-028
f 7/40/10 8/41/10 10/42/10 9/43/10 6/44/10 

usemtl Red
vt 6.18949e-015 0.0633333
vn 1 0 6.18949e-015
vt 1 0.0633333
vt 1 0.146667
vt 6.18949e-015 0.146667
f 10/45/11 2/46/11 1/47/11 8/48/11 

usemtl Green
v 3 0.19 -3
vt 1 1
v 3 0.19 -1.13009e-029
vt 1 3.76697e-030
f 13/49/5 2/19/5 10/22/5 14/50/5 

usemtl BackColor
vt 118.11 4.44918e-028
vt 118.11 118.11
f 14/51/6 10/23/6 2/26/6 13/52/6 

usemtl Green
vt 1 -8.0165e-030
vn -6.32959e-015 -1.26651e-015 1
vt 0.1 -8.16158e-030
f 12/53/12 14/46/12 10/29/12 9/54/12 

vt 1 1.48236e-016
vn 1 -1.48236e-016 6.09614e-015
vt 6.09614e-015 0.0633333
vt 6.09614e-015 1.48236e-016
f 11/55/13 13/46/13 14/56/13 12/57/13 

usemtl BackColor
vt 7.20017e-013 1.75082e-014
vn -1 1.48236e-016 -6.09614e-015
vt 7.20017e-013 7.48031
vt 118.11 7.48031
vt 118.11 1.75082e-014
f 12/58/14 14/59/14 13/60/14 11/61/14 

vt 11.811 -9.63966e-028
vn 6.32959e-015 1.26651e-015 -1
vt 118.11 -9.4683e-028
f 9/62/15 10/42/15 14/60/15 12/63/15 

usemtl Green
vn 6.06949e-015 -3.79953e-015 -1
vt -1 0.0633333
vt -1 3.79953e-015
vt -0.1 3.79953e-015
f 2/2/16 13/64/16 11/65/16 3/66/16 

usemtl BackColor
vt -11.811 4.48764e-013
vn -6.06949e-015 3.79953e-015 1
vt -118.11 4.48764e-013
vt -118.11 7.48031
f 3/67/17 11/68/17 13/69/17 2/9/17 

vt 7.31043e-013 17.3228
vn -1 -0 -6.18949e-015
vt 118.11 17.3228
vt 7.31043e-013 7.48031
f 8/70/18 1/71/18 2/60/18 10/72/18 

