# Alias OBJ Model File
# Exported from SketchUp, (c) 2000-2012 Trimble Navigation Limited
# File units = meters

mtllib Split_01.mtl

g Mesh1 Split Model

usemtl Red
v 0.3 0.44 -3
vt -0.1 0.146667
vn 2.98845e-015 -5.85484e-016 -1
v 0.3 0.19 -3
vt -0.1 0.0633333
v 0.3 0 -3
vt -0.1 5.85484e-016
v 1.87697e-014 0 -3
vt -3.26812e-015 5.85484e-016
v 1.87697e-014 0.44 -3
vt -3.26812e-015 0.146667
f 1/1/1 2/2/1 3/3/1 4/4/1 5/5/1 

usemtl BackColor
vt -3.85998e-013 17.3228
vn -2.98845e-015 5.85484e-016 1
vt -3.85998e-013 6.91517e-014
vt -11.811 6.91517e-014
vt -11.811 7.48031
vt -11.811 17.3228
f 5/6/2 4/7/2 3/8/2 2/9/2 1/10/2 

usemtl Red
v 0 0 -2.02135e-014
vt -6.73784e-015 0
vn -1 0 -6.18949e-015
v 0 0.44 -2.02135e-014
vt -6.73784e-015 0.146667
vt -1 0.146667
vt -1 0
f 6/11/3 7/12/3 5/13/3 4/14/3 

usemtl BackColor
vt -118.11 0
vn 1 -0 6.18949e-015
vt -118.11 17.3228
vt -7.95808e-013 17.3228
vt -7.95808e-013 0
f 4/15/4 5/16/4 7/17/4 6/18/4 

usemtl Red
vt 0.1 1
vn 0 1 -0
vt 6.25657e-015 1
vt 0 6.73784e-015
v 0.3 0.44 -1.73259e-014
vt 0.1 5.77529e-015
f 1/19/5 5/20/5 7/21/5 8/22/5 

usemtl BackColor
vt 11.811 6.82121e-013
vn -0 -1 0
vt 0 7.95808e-013
vt 7.38964e-013 118.11
vt 11.811 118.11
f 8/23/6 7/24/6 5/25/6 1/26/6 

usemtl Red
vt -7.58395e-029 -5.25987e-030
vn -1.12558e-014 -7.80646e-016 1
v 0.3 0 -1.73259e-014
vt 0.1 -5.38713e-030
v 0.3 0.19 -1.73259e-014
vt 0.1 0.0633333
vt 0.1 0.146667
vt -7.58395e-029 0.146667
f 6/27/7 9/28/7 10/29/7 8/30/7 7/31/7 

v 2.7 0 -3
vt -0.9 1
vn 0 -1 -0
v 3 0 -3
vt -1 1
v 3 0 -0
v 2.7 0 -2.88765e-015
vt -0.9 9.62549e-016
v 1.65 0 -1.15506e-014
vt -0.55 3.85019e-015
v 1.35 0 -1.15506e-014
vt -0.45 3.85019e-015
vt -0.1 5.77529e-015
vt -6.25657e-015 1
vt -0.1 1
v 1.35 0 -3
vt -0.45 1
v 1.65 0 -3
vt -0.55 1
f 11/32/8 12/33/8 13/14/8 14/34/8 15/35/8 16/36/8 9/37/8 6/21/8 4/38/8 3/39/8 17/40/8 18/41/8 

usemtl BackColor
vt -64.9606 118.11
vn -0 1 0
vt -53.1496 118.11
vt -11.811 118.11
vt -7.38964e-013 118.11
vt -11.811 6.82121e-013
vt -53.1496 4.54747e-013
vt -64.9606 4.54747e-013
vt -106.299 1.13687e-013
vt -118.11 118.11
vt -106.299 118.11
f 18/42/9 17/43/9 3/44/9 4/45/9 6/24/9 9/46/9 16/47/9 15/48/9 14/49/9 13/15/9 12/50/9 11/51/9 

usemtl Red
vt -0.55 8.77019e-015
vn 1.23064e-014 -8.77019e-015 -1
vt -0.45 8.77019e-015
v 1.35 0.19 -3
vt -0.45 0.0633333
v 1.35 0.44 -3
vt -0.45 0.146667
v 1.65 0.44 -3
vt -0.55 0.146667
v 1.65 0.19 -3
vt -0.55 0.0633333
f 18/52/10 17/53/10 19/54/10 20/55/10 21/56/10 22/57/10 

usemtl BackColor
vt -64.9606 7.48031
vn -1.23064e-014 8.77019e-015 1
vt -64.9606 17.3228
vt -53.1496 17.3228
vt -53.1496 7.48031
vt -53.1496 1.03585e-012
vt -64.9606 1.03585e-012
f 22/58/11 21/59/11 20/60/11 19/61/11 17/62/11 18/63/11 

usemtl Red
v 1.65 0.44 -1.15506e-014
vt 1.17912e-014 0.146667
vn 1 0 1.44382e-014
v 1.65 0.19 -1.15506e-014
vt 1.17912e-014 0.0633333
vt 1 0.0633333
vt 1 0.146667
f 23/64/12 24/65/12 22/66/12 21/67/12 

vn -1 -0 -1.44382e-014
f 21/67/13 22/66/13 24/65/13 23/64/13 

usemtl Green
v 2.7 0.19 -3
vt 0.9 1
vt 0.55 1
vt 0.55 3.85019e-015
v 2.7 0.19 -2.88765e-015
vt 0.9 9.62549e-016
f 25/68/5 22/69/5 24/70/5 26/71/5 

usemtl BackColor
vt 106.299 1.13687e-013
vt 64.9606 4.54747e-013
vt 64.9606 118.11
vt 106.299 118.11
f 26/72/6 24/73/6 22/74/6 25/75/6 

usemtl Green
vt 0.9 0.0633333
vn -8.25042e-015 0 1
vt 0.55 0.0633333
vt 0.55 0
vt 0.9 0
f 26/76/14 24/77/14 15/78/14 14/79/14 

usemtl BackColor
vt 106.299 0
vn 8.25042e-015 -0 -1
vt 64.9606 0
vt 64.9606 7.48031
vt 106.299 7.48031
f 14/80/15 15/81/15 24/82/15 26/83/15 

usemtl Red
vt 0.55 2.29722e-029
vn -6.41699e-015 3.11297e-015 1
vt 0.55 0.146667
v 1.35 0.44 -1.44382e-014
vt 0.45 0.146667
v 1.35 0.19 -1.44382e-014
vt 0.45 0.0633333
vt 0.45 2.09747e-029
f 15/84/16 24/77/16 23/85/16 27/86/16 28/87/16 16/88/16 

usemtl BackColor
vt 53.1496 2.47732e-027
vn 6.41699e-015 -3.11297e-015 -1
vt 53.1496 7.48031
vt 53.1496 17.3228
vt 64.9606 17.3228
vt 64.9606 2.71326e-027
f 16/89/17 28/90/17 27/91/17 23/92/17 24/82/17 15/93/17 

usemtl Green
vt 0.1 4.70216e-029
vn -4.12521e-015 7.59907e-015 1
vt 0.45 4.33644e-029
f 9/94/18 16/95/18 28/87/18 10/29/18 

usemtl BackColor
vt 11.811 7.48031
vn 4.12521e-015 -7.59907e-015 -1
vt 53.1496 5.12178e-027
vt 11.811 5.55373e-027
f 10/96/19 28/90/19 16/97/19 9/98/19 

usemtl Green
vt 0.45 4.81274e-015
vt 0.45 1
f 10/22/5 28/99/5 19/100/5 2/19/5 

usemtl BackColor
vt 53.1496 118.11
vt 53.1496 5.68434e-013
f 2/26/6 19/101/6 28/102/6 10/23/6 

usemtl Green
vn -1.37507e-015 -7.59907e-015 -1
vt -0.45 7.59907e-015
vt -0.1 7.59907e-015
f 2/2/20 19/54/20 17/103/20 3/104/20 

usemtl BackColor
vt -11.811 8.97528e-013
vn 1.37507e-015 7.59907e-015 1
vt -53.1496 8.97528e-013
f 3/105/21 17/106/21 19/61/21 2/9/21 

usemtl Red
vt -1.13099e-014 0.0633333
vn -1 0 -1.44382e-014
vt -1.13099e-014 0.146667
vt -1 0.0633333
f 28/107/22 27/108/22 20/13/22 19/109/22 

vn 1 -0 1.44382e-014
f 19/109/23 20/13/23 27/108/23 28/107/23 

f 27/99/5 23/70/5 21/69/5 20/100/5 

f 20/100/6 21/69/6 23/70/6 27/99/6 

vt 6.39424e-015 0.0633333
vn 1 0 6.18949e-015
vt 6.39424e-015 0.146667
f 10/110/24 2/66/24 1/67/24 8/111/24 

usemtl BackColor
vt 7.55225e-013 17.3228
vn -1 -0 -6.18949e-015
vt 118.11 17.3228
vt 118.11 7.48031
vt 7.55225e-013 7.48031
f 8/112/25 1/113/25 2/114/25 10/115/25 

vt -8.95742e-027 17.3228
vn 1.12558e-014 7.80646e-016 -1
vt 11.811 17.3228
vt 11.811 -6.36275e-028
vt -8.95742e-027 -6.21244e-028
f 7/116/26 8/117/26 10/96/26 9/118/26 6/119/26 

usemtl Red
v 2.7 0.44 -2.88765e-015
vt 0.9 0.146667
vn -9.62549e-015 0 1
vt 1 0
v 3 0.44 -0
f 29/120/27 26/76/27 14/79/27 13/121/27 30/67/27 

usemtl BackColor
vn 9.62549e-015 -0 -1
vt 118.11 0
vt 106.299 17.3228
f 30/113/28 13/122/28 14/80/28 26/83/28 29/123/28 

usemtl Red
v 3 0.44 -3
vt 6.18949e-015 0.146667
vt 6.18949e-015 0
f 31/67/24 30/124/24 13/125/24 12/121/24 

vt 1 1
v 2.7 0.44 -3
f 31/126/5 32/68/5 29/71/5 30/121/5 

usemtl BackColor
vt 118.11 118.11
f 30/122/6 29/72/6 32/75/6 31/127/6 

usemtl Red
vt -6.53309e-015 0.0633333
vt -6.53309e-015 0.146667
f 25/109/3 26/128/3 29/129/3 32/13/3 

usemtl BackColor
vt -7.71625e-013 17.3228
vt -7.71625e-013 7.48031
vt -118.11 7.48031
f 32/16/4 29/130/4 26/131/4 25/132/4 

usemtl Red
vt -1 5.85484e-016
vn 9.04341e-015 -5.85484e-016 -1
vt -0.9 5.85484e-016
vt -0.9 0.0633333
vt -0.9 0.146667
f 12/133/29 11/134/29 25/135/29 32/136/29 31/13/29 

usemtl BackColor
vn -9.04341e-015 5.85484e-016 1
vt -106.299 17.3228
vt -106.299 7.48031
vt -106.299 6.91517e-014
vt -118.11 6.91517e-014
f 31/16/30 32/137/30 25/138/30 11/139/30 12/140/30 

usemtl Green
vt -0.9 2.27972e-014
vn 9.62549e-015 -2.27972e-014 -1
vt -0.55 2.27972e-014
f 11/141/31 18/142/31 22/57/31 25/135/31 

usemtl BackColor
vn -9.62549e-015 2.27972e-014 1
vt -64.9606 2.69258e-012
vt -106.299 2.69258e-012
f 25/138/32 22/58/32 18/143/32 11/144/32 

vt 7.31043e-013 0
vt 7.31043e-013 17.3228
f 12/122/25 13/145/25 30/146/25 31/113/25 

