# Alias OBJ Model File
# Exported from SketchUp, (c) 2000-2012 Trimble Navigation Limited
# File units = meters

mtllib Split_start_01.mtl

g Mesh1 Split_start Model

usemtl Red
v 0.3 0.44 -3
vt -0.1 0.146667
vn 2.98845e-015 -5.85484e-016 -1
v 0.3 0.19 -3
vt -0.1 0.0633333
v 0.3 0 -3
vt -0.1 5.85484e-016
v 1.73259e-014 0 -3
vt -2.78684e-015 5.85484e-016
v 1.73259e-014 0.44 -3
vt -2.78684e-015 0.146667
f 1/1/1 2/2/1 3/3/1 4/4/1 5/5/1 

usemtl BackColor
vt -3.29155e-013 17.3228
vn -2.98845e-015 5.85484e-016 1
vt -3.29155e-013 6.91517e-014
vt -11.811 6.91517e-014
vt -11.811 7.48031
vt -11.811 17.3228
f 5/6/2 4/7/2 3/8/2 2/9/2 1/10/2 

usemtl Red
v 0 0 -2.31012e-014
vt -7.70039e-015 0
vn -1 0 -6.18949e-015
v 0 0.44 -2.31012e-014
vt -7.70039e-015 0.146667
vt -1 0.146667
vt -1 0
f 6/11/3 7/12/3 5/13/3 4/14/3 

usemtl BackColor
vt -118.11 0
vn 1 -0 6.18949e-015
vt -118.11 17.3228
vt -9.09495e-013 17.3228
vt -9.09495e-013 0
f 4/15/4 5/16/4 7/17/4 6/18/4 

usemtl Red
vt 0.1 1
vn 0 1 -0
vt 5.77529e-015 1
vt 0 7.70039e-015
v 0.3 0.44 -1.73259e-014
vt 0.1 5.77529e-015
f 1/19/5 5/20/5 7/21/5 8/22/5 

usemtl BackColor
vt 11.811 6.82121e-013
vn -0 -1 0
vt 0 9.09495e-013
vt 6.82121e-013 118.11
vt 11.811 118.11
f 8/23/6 7/24/6 5/25/6 1/26/6 

usemtl Red
vt -8.66737e-029 -6.01128e-030
vn -1.12558e-014 -7.80646e-016 1
v 0.3 0 -1.73259e-014
vt 0.1 -5.38713e-030
v 0.3 0.19 -1.73259e-014
vt 0.1 0.0633333
vt 0.1 0.146667
vt -8.66737e-029 0.146667
f 6/27/7 9/28/7 10/29/7 8/30/7 7/31/7 

v 2.7 0 -3
vt -0.9 1
vn 0 -1 -0
v 3 0 -3
vt -1 1
v 3 0 -0
v 2.7 0 -0
vt -0.9 0
v 1.65 0 -1.15506e-014
vt -0.55 3.85019e-015
v 1.35 0 -1.15506e-014
vt -0.45 3.85019e-015
vt -0.1 5.77529e-015
vt -5.77529e-015 1
vt -0.1 1
v 1.35 0 -3
vt -0.45 1
v 1.65 0 -3
vt -0.55 1
f 11/32/8 12/33/8 13/14/8 14/34/8 15/35/8 16/36/8 9/37/8 6/21/8 4/38/8 3/39/8 17/40/8 18/41/8 

usemtl BackColor
vt -64.9606 118.11
vn -0 1 0
vt -53.1496 118.11
vt -11.811 118.11
vt -6.82121e-013 118.11
vt -11.811 6.82121e-013
vt -53.1496 4.54747e-013
vt -64.9606 4.54747e-013
vt -106.299 0
vt -118.11 118.11
vt -106.299 118.11
f 18/42/9 17/43/9 3/44/9 4/45/9 6/24/9 9/46/9 16/47/9 15/48/9 14/49/9 13/15/9 12/50/9 11/51/9 

usemtl Red
vt -0.55 8.77019e-015
vn 1.23064e-014 -8.77019e-015 -1
vt -0.45 8.77019e-015
v 1.35 0.19 -3
vt -0.45 0.0633333
v 1.35 0.44 -3
vt -0.45 0.146667
v 1.65 0.44 -3
vt -0.55 0.146667
v 1.65 0.19 -3
vt -0.55 0.0633333
f 18/52/10 17/53/10 19/54/10 20/55/10 21/56/10 22/57/10 

usemtl BackColor
vt -64.9606 7.48031
vn -1.23064e-014 8.77019e-015 1
vt -64.9606 17.3228
vt -53.1496 17.3228
vt -53.1496 7.48031
vt -53.1496 1.03585e-012
vt -64.9606 1.03585e-012
f 22/58/11 21/59/11 20/60/11 19/61/11 17/62/11 18/63/11 

usemtl Red
vt 1 0.146667
vn 1 3.85019e-015 1.34757e-014
v 1.65 0.44 -1.5
vt 0.5 0.146667
v 1.65 0.19 -1.15506e-014
vt 1.12618e-014 0.0633333
vt 1 0.0633333
f 21/64/12 23/65/12 24/66/12 22/67/12 

vn -1 -3.85019e-015 -1.34757e-014
f 22/67/13 24/66/13 23/65/13 21/64/13 

usemtl Green
v 2.7 0.19 -3
vt 0.9 1
vt 0.55 1
vt 0.55 3.85019e-015
v 2.7 0.19 -0
vt 0.9 0
f 25/68/5 22/69/5 24/70/5 26/71/5 

usemtl BackColor
vt 106.299 0
vt 64.9606 4.54747e-013
vt 64.9606 118.11
vt 106.299 118.11
f 26/72/6 24/73/6 22/74/6 25/75/6 

usemtl Green
vt 0.9 0.0633333
vn -1.10006e-014 0 1
vt 0.55 0.0633333
vt 0.55 0
f 26/76/14 24/77/14 15/78/14 14/71/14 

usemtl BackColor
vn 1.10006e-014 -0 -1
vt 64.9606 0
vt 64.9606 7.48031
vt 106.299 7.48031
f 14/72/15 15/79/15 24/80/15 26/81/15 

usemtl Red
vn 0 0 1
v 1.35 0.19 -1.15506e-014
vt 0.45 0.0633333
vt 0.45 0
f 15/78/16 24/77/16 27/82/16 16/83/16 

usemtl BackColor
vt 53.1496 0
vn -0 -0 -1
vt 53.1496 7.48031
f 16/84/17 27/85/17 24/80/17 15/79/17 

usemtl Green
vt 0.1 4.70216e-029
vn -4.12521e-015 7.59907e-015 1
vt 0.45 4.33644e-029
f 9/86/18 16/87/18 27/82/18 10/29/18 

usemtl BackColor
vt 11.811 7.48031
vn 4.12521e-015 -7.59907e-015 -1
vt 53.1496 5.12178e-027
vt 11.811 5.55373e-027
f 10/88/19 27/85/19 16/89/19 9/90/19 

usemtl Green
vt 0.45 3.85019e-015
vt 0.45 1
f 10/22/5 27/91/5 19/92/5 2/19/5 

usemtl BackColor
vt 53.1496 118.11
vt 53.1496 4.54747e-013
f 2/26/6 19/93/6 27/94/6 10/23/6 

usemtl Green
vn -1.37507e-015 -7.59907e-015 -1
vt -0.45 7.59907e-015
vt -0.1 7.59907e-015
f 2/2/20 19/54/20 17/95/20 3/96/20 

usemtl BackColor
vt -11.811 8.97528e-013
vn 1.37507e-015 7.59907e-015 1
vt -53.1496 8.97528e-013
f 3/97/21 17/98/21 19/61/21 2/9/21 

usemtl Red
vt -1 0.0633333
vn -1 -6.93035e-015 -1.38607e-014
vt -1.00875e-014 0.0633333
v 1.35 0.44 -1.5
vt -0.5 0.146667
f 19/99/22 27/100/22 28/101/22 20/13/22 

vn 1 6.93035e-015 1.38607e-014
f 20/13/23 28/101/23 27/100/23 19/99/23 

vt 0.45 0.5
vn 3.60667e-030 1 7.21334e-031
vt 0.55 0.5
f 28/102/24 23/103/24 21/69/24 20/92/24 

vn -3.60667e-030 -1 -7.21334e-031
f 20/92/25 21/69/25 23/103/25 28/102/25 

vt 0.45 0.517309
vn -1.67473e-017 0.986394 0.164399
vt 0.45 0.0104119
vt 0.55 0.0104119
vt 0.55 0.517309
f 28/104/26 27/105/26 24/106/26 23/107/26 

vn 1.67473e-017 -0.986394 -0.164399
f 23/107/27 24/106/27 27/105/27 28/104/27 

vt 6.39424e-015 0.0633333
vn 1 0 6.18949e-015
vt 6.39424e-015 0.146667
f 10/108/28 2/67/28 1/64/28 8/109/28 

usemtl BackColor
vt 7.55225e-013 17.3228
vn -1 -0 -6.18949e-015
vt 118.11 17.3228
vt 118.11 7.48031
vt 7.55225e-013 7.48031
f 8/110/29 1/111/29 2/112/29 10/113/29 

vt -1.0237e-026 17.3228
vn 1.12558e-014 7.80646e-016 -1
vt 11.811 17.3228
vt 11.811 -6.36275e-028
vt -1.0237e-026 -7.09993e-028
f 7/114/30 8/115/30 10/88/30 9/116/30 6/117/30 

usemtl Red
v 2.7 0.44 -0
vt 0.9 0.146667
vn -9.62549e-015 0 1
vt 1 0
v 3 0.44 -0
f 29/118/31 26/76/31 14/71/31 13/119/31 30/64/31 

usemtl BackColor
vn 9.62549e-015 -0 -1
vt 118.11 0
vt 106.299 17.3228
f 30/111/32 13/120/32 14/72/32 26/81/32 29/121/32 

usemtl Red
v 3 0.44 -3
vt 6.18949e-015 0.146667
vt 6.18949e-015 0
f 31/64/28 30/122/28 13/123/28 12/119/28 

vt 1 1
v 2.7 0.44 -3
f 31/124/5 32/68/5 29/71/5 30/119/5 

usemtl BackColor
vt 118.11 118.11
f 30/120/6 29/72/6 32/75/6 31/125/6 

usemtl Red
vt -5.57054e-015 0.0633333
vt -5.57054e-015 0.146667
f 25/99/3 26/126/3 29/127/3 32/13/3 

usemtl BackColor
vt -6.57938e-013 17.3228
vt -6.57938e-013 7.48031
vt -118.11 7.48031
f 32/16/4 29/128/4 26/129/4 25/130/4 

usemtl Red
vt -1 5.85484e-016
vn 9.04341e-015 -5.85484e-016 -1
vt -0.9 5.85484e-016
vt -0.9 0.0633333
vt -0.9 0.146667
f 12/131/33 11/132/33 25/133/33 32/134/33 31/13/33 

usemtl BackColor
vn -9.04341e-015 5.85484e-016 1
vt -106.299 17.3228
vt -106.299 7.48031
vt -106.299 6.91517e-014
vt -118.11 6.91517e-014
f 31/16/34 32/135/34 25/136/34 11/137/34 12/138/34 

usemtl Green
vt -0.9 2.27972e-014
vn 9.62549e-015 -2.27972e-014 -1
vt -0.55 2.27972e-014
f 11/139/35 18/140/35 22/57/35 25/133/35 

usemtl BackColor
vn -9.62549e-015 2.27972e-014 1
vt -64.9606 2.69258e-012
vt -106.299 2.69258e-012
f 25/136/36 22/58/36 18/141/36 11/142/36 

vt 7.31043e-013 0
vt 7.31043e-013 17.3228
f 12/120/29 13/143/29 30/144/29 31/111/29 

