# Alias OBJ Model File
# Exported from SketchUp, (c) 2000-2012 Trimble Navigation Limited
# File units = meters

mtllib Straight_01.mtl

g Mesh1 Straight Model

usemtl Red
v 0.3 0.44 -3
vt -0.1 0.146667
vn 2.98845e-015 -5.85484e-016 -1
v 0.3 0.19 -3
vt -0.1 0.0633333
v 0.3 0 -3
vt -0.1 5.85484e-016
v 1.84087e-014 0 -3
vt -3.1478e-015 5.85484e-016
v 1.84087e-014 0.44 -3
vt -3.1478e-015 0.146667
f 1/1/1 2/2/1 3/3/1 4/4/1 5/5/1 

usemtl BackColor
vt -3.71787e-013 17.3228
vn -2.98845e-015 5.85484e-016 1
vt -3.71787e-013 6.91517e-014
vt -11.811 6.91517e-014
vt -11.811 7.48031
vt -11.811 17.3228
f 5/6/2 4/7/2 3/8/2 2/9/2 1/10/2 

usemtl Red
v 0 0 -2.07342e-014
vt -6.9114e-015 0
vn -1 0 -6.18949e-015
v 0 0.44 -2.07342e-014
vt -6.9114e-015 0.146667
vt -1 0.146667
vt -1 0
f 6/11/3 7/12/3 5/13/3 4/14/3 

usemtl BackColor
vt -118.11 0
vn 1 -0 6.18949e-015
vt -118.11 17.3228
vt -8.16308e-013 17.3228
vt -8.16308e-013 0
f 4/15/4 5/16/4 7/17/4 6/18/4 

usemtl Red
vt 0.1 1
vn 0 1 -0
vt 6.13625e-015 1
vt 0 6.9114e-015
v 0.3 0.44 -1.67116e-014
vt 0.1 5.57054e-015
f 1/19/5 5/20/5 7/21/5 8/22/5 

usemtl BackColor
vt 11.811 6.57938e-013
vn -0 -1 0
vt 0 8.16308e-013
vt 7.24754e-013 118.11
vt 11.811 118.11
f 8/23/6 7/24/6 5/25/6 1/26/6 

usemtl Red
vt -7.77931e-029 -5.39536e-030
vn -1.12558e-014 -7.80646e-016 1
v 0.3 0 -1.74335e-014
vt 0.1 -5.41515e-030
v 0.3 0.19 -1.67116e-014
vt 0.1 0.0633333
vt 0.1 0.146667
vt -7.77931e-029 0.146667
f 6/27/7 9/28/7 10/29/7 8/30/7 7/31/7 

v 2.7 0 -3
vt -0.9 1
vn 0 -1 -0
v 3 0 -3
vt -1 1
v 3 0 -0
v 2.7 0 -1.85685e-015
vt -0.9 6.18949e-016
vt -0.1 5.81118e-015
vt -6.13625e-015 1
vt -0.1 1
f 11/32/8 12/33/8 13/14/8 14/34/8 9/35/8 6/21/8 4/36/8 3/37/8 

usemtl BackColor
vt -11.811 118.11
vn -0 1 0
vt -7.24754e-013 118.11
vt -11.811 6.8636e-013
vt -106.299 7.31043e-014
vt -118.11 118.11
vt -106.299 118.11
f 3/38/9 4/39/9 6/24/9 9/40/9 14/41/9 13/15/9 12/42/9 11/43/9 

vt -9.18816e-027 17.3228
vn 1.12558e-014 7.80646e-016 -1
vt 11.811 17.3228
vt 11.811 7.48031
vt 11.811 -6.39585e-028
vt -9.18816e-027 -6.37247e-028
f 7/44/10 8/45/10 10/46/10 9/47/10 6/48/10 

usemtl Red
vt 6.18949e-015 0.0633333
vn 1 0 6.18949e-015
vt 1 0.0633333
vt 1 0.146667
vt 6.18949e-015 0.146667
f 10/49/11 2/50/11 1/51/11 8/52/11 

usemtl Green
v 2.7 0.19 -3
vt 0.9 1
v 2.7 0.19 -1.85685e-015
vt 0.9 6.18949e-016
f 15/53/5 2/19/5 10/22/5 16/54/5 

usemtl BackColor
vt 106.299 7.31043e-014
vt 106.299 118.11
f 16/55/6 10/23/6 2/26/6 15/56/6 

usemtl Green
vt 0.1 -1.22685e-029
vn -6.46712e-015 -1.89977e-015 1
vt 0.9 -1.22333e-029
vt 0.9 0.0633333
f 9/57/12 14/58/12 16/59/12 10/29/12 

usemtl BackColor
vn 6.46712e-015 1.89977e-015 -1
vt 106.299 7.48031
vt 106.299 -1.44488e-027
vt 11.811 -1.44903e-027
f 10/46/13 16/60/13 14/61/13 9/62/13 

usemtl Red
v 2.7 0.44 -1.85685e-015
vt 0.9 0.146667
vn -4.81274e-015 1.60311e-032 1
vt 0.9 7.93605e-047
vt 1 7.71534e-047
v 3 0.44 -0
f 17/63/14 16/59/14 14/64/14 13/65/14 18/51/14 

usemtl BackColor
vt 118.11 17.3228
vn 4.81274e-015 -1.60311e-032 -1
vt 118.11 9.1126e-045
vt 106.299 9.37328e-045
vt 106.299 17.3228
f 18/66/15 13/67/15 14/68/15 16/60/15 17/69/15 

usemtl Red
v 3 0.44 -3
vt 6.18949e-015 0
vt 1 0
f 19/51/11 18/52/11 13/70/11 12/71/11 

vt 1 1
v 2.7 0.44 -3
f 19/72/5 20/53/5 17/54/5 18/71/5 

usemtl BackColor
vt 118.11 0
vt 118.11 118.11
f 18/73/6 17/55/6 20/56/6 19/74/6 

usemtl Red
vt -1 0.0633333
vt -6.18949e-015 0.0633333
vt -6.18949e-015 0.146667
f 15/75/3 16/76/3 17/77/3 20/13/3 

usemtl BackColor
vt -7.31043e-013 17.3228
vt -7.31043e-013 7.48031
vt -118.11 7.48031
f 20/16/4 17/78/4 16/79/4 15/80/4 

usemtl Red
vt -1 5.85484e-016
vn 9.04341e-015 -5.85484e-016 -1
vt -0.9 5.85484e-016
vt -0.9 0.0633333
vt -0.9 0.146667
f 12/81/16 11/82/16 15/83/16 20/84/16 19/13/16 

usemtl BackColor
vn -9.04341e-015 5.85484e-016 1
vt -106.299 17.3228
vt -106.299 7.48031
vt -106.299 6.91517e-014
vt -118.11 6.91517e-014
f 19/16/17 20/85/17 15/86/17 11/87/17 12/88/17 

usemtl Green
vt -0.9 2.84965e-015
vn 6.01593e-015 -2.84965e-015 -1
vt -0.1 2.84965e-015
f 11/89/18 3/90/18 2/2/18 15/83/18 

usemtl BackColor
vn -6.01593e-015 2.84965e-015 1
vt -11.811 3.36573e-013
vt -106.299 3.36573e-013
f 15/86/19 2/9/19 3/91/19 11/92/19 

vn -1 -0 -6.18949e-015
vt 7.31043e-013 0
vt 7.31043e-013 17.3228
f 12/73/20 13/93/20 18/94/20 19/66/20 

vt 118.11 7.48031
vt 7.31043e-013 7.48031
f 8/94/20 1/66/20 2/95/20 10/96/20 

