# Alias OBJ Model File
# Exported from SketchUp, (c) 2000-2012 Trimble Navigation Limited
# File units = meters

mtllib T_split_01.mtl

g Mesh1 T_split Model

usemtl Red
v 0.3 0.44 -3
vt -0.1 0.146667
vn 2.98845e-015 -5.85484e-016 -1
v 0.3 0.19 -3
vt -0.1 0.0633333
v 0.3 0 -3
vt -0.1 5.85484e-016
v 1.73259e-014 0 -3
vt -2.78684e-015 5.85484e-016
v 1.73259e-014 0.44 -3
vt -2.78684e-015 0.146667
f 1/1/1 2/2/1 3/3/1 4/4/1 5/5/1 

usemtl BackColor
vt -3.29155e-013 17.3228
vn -2.98845e-015 5.85484e-016 1
vt -3.29155e-013 6.91517e-014
vt -11.811 6.91517e-014
vt -11.811 7.48031
vt -11.811 17.3228
f 5/6/2 4/7/2 3/8/2 2/9/2 1/10/2 

usemtl Red
v 0 0 -2.31012e-014
vt -7.70039e-015 0
vn -1 0 -6.18949e-015
v 0 0.44 -2.31012e-014
vt -7.70039e-015 0.146667
vt -1 0.146667
vt -1 0
f 6/11/3 7/12/3 5/13/3 4/14/3 

usemtl BackColor
vt -118.11 0
vn 1 -0 6.18949e-015
vt -118.11 17.3228
vt -9.09495e-013 17.3228
vt -9.09495e-013 0
f 4/15/4 5/16/4 7/17/4 6/18/4 

usemtl Red
vt 0.1 1
vn 0 1 -0
vt 5.77529e-015 1
vt 0 7.70039e-015
v 0.3 0.44 -1.73259e-014
vt 0.1 5.77529e-015
f 1/19/5 5/20/5 7/21/5 8/22/5 

usemtl BackColor
vt 11.811 6.82121e-013
vn -0 -1 0
vt 0 9.09495e-013
vt 6.82121e-013 118.11
vt 11.811 118.11
f 8/23/6 7/24/6 5/25/6 1/26/6 

usemtl Red
vt -8.66737e-029 -6.01128e-030
vn -1.12558e-014 -7.80646e-016 1
v 0.3 0 -1.73259e-014
vt 0.1 -5.38713e-030
v 0.3 0.19 -1.73259e-014
vt 0.1 0.0633333
vt 0.1 0.146667
vt -8.66737e-029 0.146667
f 6/27/7 9/28/7 10/29/7 8/30/7 7/31/7 

v 2.7 0 -3
vt -0.9 1
vn 0 -1 -0
v 3 0 -3
vt -1 1
v 3 0 -2.7
vt -1 0.9
v 3 0 -0.3
vt -1 0.1
v 3 0 5.77529e-015
vt -1 -1.9251e-015
v 2.7 0 -9.18271e-013
vt -0.9 3.0609e-013
vt -0.1 5.77529e-015
vt -5.77529e-015 1
vt -0.1 1
f 11/32/8 12/33/8 13/34/8 14/35/8 15/36/8 16/37/8 9/38/8 6/21/8 4/39/8 3/40/8 

usemtl BackColor
vt -11.811 118.11
vn -0 1 0
vt -6.82121e-013 118.11
vt -11.811 6.82121e-013
vt -106.299 3.61524e-011
vt -118.11 -2.27374e-013
vt -118.11 11.811
vt -118.11 106.299
vt -118.11 118.11
vt -106.299 118.11
f 3/41/9 4/42/9 6/24/9 9/43/9 16/44/9 15/45/9 14/46/9 13/47/9 12/48/9 11/49/9 

vt -1.0237e-026 17.3228
vn 1.12558e-014 7.80646e-016 -1
vt 11.811 17.3228
vt 11.811 7.48031
vt 11.811 -6.36275e-028
vt -1.0237e-026 -7.09993e-028
f 7/50/10 8/51/10 10/52/10 9/53/10 6/54/10 

usemtl Red
vt 6.39424e-015 0.0633333
vn 1 0 6.18949e-015
vt 1 0.0633333
vt 1 0.146667
vt 6.39424e-015 0.146667
f 10/55/11 2/56/11 1/57/11 8/58/11 

usemtl Green
v 3 0.19 -0.3
vt 1 0.1
v 3 0.19 -2.7
vt 1 0.9
v 2.96084 0.19 -2.70257
vt 0.986947 0.900856
v 2.92235 0.19 -2.71022
vt 0.974118 0.903407
v 2.88519 0.19 -2.72284
vt 0.961732 0.907612
v 2.85 0.19 -2.74019
vt 0.95 0.913397
v 2.81737 0.19 -2.76199
vt 0.939124 0.920665
v 2.78787 0.19 -2.78787
vt 0.929289 0.929289
v 2.76199 0.19 -2.81737
vt 0.920665 0.939124
v 2.74019 0.19 -2.85
vt 0.913397 0.95
v 2.72284 0.19 -2.88519
vt 0.907612 0.961732
v 2.71022 0.19 -2.92235
vt 0.903407 0.974118
v 2.70257 0.19 -2.96084
vt 0.900856 0.986947
v 2.7 0.19 -3
vt 0.9 1
v 2.7 0.19 -1.83077e-012
vt 0.9 6.10256e-013
v 2.70257 0.19 -0.0391579
vt 0.900856 0.0130526
v 2.71022 0.19 -0.0776457
vt 0.903407 0.0258819
v 2.72284 0.19 -0.114805
vt 0.907612 0.0382683
v 2.74019 0.19 -0.15
vt 0.913397 0.05
v 2.76199 0.19 -0.182628
vt 0.920665 0.0608761
v 2.78787 0.19 -0.212132
vt 0.929289 0.0707107
v 2.81737 0.19 -0.238006
vt 0.939124 0.0793353
v 2.85 0.19 -0.259808
vt 0.95 0.0866025
v 2.88519 0.19 -0.277164
vt 0.961732 0.092388
v 2.92235 0.19 -0.289778
vt 0.974118 0.0965926
v 2.96084 0.19 -0.297433
vt 0.986947 0.0991445
f 17/59/5 18/60/5 19/61/5 20/62/5 21/63/5 22/64/5 23/65/5 24/66/5 25/67/5 26/68/5 27/69/5 28/70/5 29/71/5 30/72/5 2/19/5 10/22/5 31/73/5 32/74/5 33/75/5 34/76/5 35/77/5 36/78/5 37/79/5 38/80/5 39/81/5 40/82/5 41/83/5 42/84/5 

usemtl BackColor
vt 116.569 11.71
vt 115.053 11.4086
vt 113.59 10.912
vt 112.205 10.2286
vt 110.92 9.37032
vt 109.759 8.35165
vt 108.74 7.1901
vt 107.882 5.90551
vt 107.198 4.51988
vt 106.702 3.05692
vt 106.4 1.54165
vt 106.299 7.20775e-011
vt 106.299 118.11
vt 106.4 116.569
vt 106.702 115.053
vt 107.198 113.59
vt 107.882 112.205
vt 108.74 110.92
vt 109.759 109.759
vt 110.92 108.74
vt 112.205 107.882
vt 113.59 107.198
vt 115.053 106.702
vt 116.569 106.4
vt 118.11 106.299
vt 118.11 11.811
f 42/85/6 41/86/6 40/87/6 39/88/6 38/89/6 37/90/6 36/91/6 35/92/6 34/93/6 33/94/6 32/95/6 31/96/6 10/23/6 2/26/6 30/97/6 29/98/6 28/99/6 27/100/6 26/101/6 25/102/6 24/103/6 23/104/6 22/105/6 21/106/6 20/107/6 19/108/6 18/109/6 17/110/6 

usemtl Red
v 2.92235 0.44 -0.289778
vt -0.974245 0.146667
vn -0.258819 0 -0.965926
v 2.96084 0.44 -0.297433
vt -0.987326 0.146667
vn -0.130526 -1.19089e-019 -0.991445
vt -0.987326 0.0633333
vt -0.974245 0.0633333
f 43/111/12 44/112/13 42/113/13 41/114/12 

v 3 0.44 -1.83077e-012
vt 1 6.10256e-013
v 3 0.44 -0.3
v 2.88519 0.44 -0.277164
v 2.85 0.44 -0.259808
v 2.81737 0.44 -0.238006
v 2.78787 0.44 -0.212132
v 2.76199 0.44 -0.182628
v 2.74019 0.44 -0.15
v 2.72284 0.44 -0.114805
v 2.71022 0.44 -0.0776457
v 2.70257 0.44 -0.0391579
v 2.7 0.44 -1.83077e-012
f 45/115/5 46/59/5 44/84/5 43/83/5 47/82/5 48/81/5 49/80/5 50/79/5 51/78/5 52/77/5 53/76/5 54/75/5 55/74/5 56/73/5 

usemtl BackColor
vt 118.11 7.20775e-011
f 56/96/6 55/95/6 54/94/6 53/93/6 52/92/6 51/91/6 50/90/6 49/89/6 48/88/6 47/87/6 43/86/6 44/85/6 46/110/6 45/116/6 

usemtl Red
vt -0.0588628 0.146667
vn -0.997859 -2.37668e-019 -0.0654031
vt -0.0719434 0.146667
vn -0.991445 -1.19089e-019 -0.130526
vt -0.0719434 0.0633333
vt -0.0588628 0.0633333
f 56/117/14 55/118/15 32/119/15 31/120/14 

usemtl BackColor
vt -6.9523 7.48031
vn 0.997859 2.37668e-019 0.0654031
vt -8.49726 7.48031
vn 0.991445 1.19089e-019 0.130526
vt -8.49726 17.3228
vt -6.9523 17.3228
f 31/121/16 32/122/17 55/123/17 56/124/16 

usemtl Red
vt -0.18855 0.146667
vt -0.201631 0.146667
vn -0.965926 0 -0.258819
vt -0.201631 0.0633333
vt -0.18855 0.0633333
f 55/125/15 54/126/18 33/127/18 32/128/15 

usemtl BackColor
vt -22.2697 7.48031
vt -23.8146 7.48031
vn 0.965926 -0 0.258819
vt -23.8146 17.3228
vt -22.2697 17.3228
f 32/129/17 33/130/19 54/131/19 55/132/17 

usemtl Red
vt -0.314899 0.146667
vt -0.32798 0.146667
vn -0.92388 0 -0.382683
vt -0.32798 0.0633333
vt -0.314899 0.0633333
f 54/133/18 53/134/20 34/135/20 33/136/18 

usemtl BackColor
vt -37.1928 7.48031
vt -38.7378 7.48031
vn 0.92388 -0 0.382683
vt -38.7378 17.3228
vt -37.1928 17.3228
f 33/137/19 34/138/21 53/139/21 54/140/19 

usemtl Red
vt -0.435748 0.146667
vt -0.448829 0.146667
vn -0.866025 0 -0.5
vt -0.448829 0.0633333
vt -0.435748 0.0633333
f 53/141/20 52/142/22 35/143/22 34/144/20 

usemtl BackColor
vt -51.4663 7.48031
vt -53.0113 7.48031
vn 0.866025 -0 0.5
vt -53.0113 17.3228
vt -51.4663 17.3228
f 34/145/21 35/146/23 52/147/23 53/148/21 

usemtl Red
vt -0.54903 0.146667
vt -0.562111 0.146667
vn -0.793353 0 -0.608761
vt -0.562111 0.0633333
vt -0.54903 0.0633333
f 52/149/22 51/150/24 36/151/24 35/152/22 

usemtl BackColor
vt -64.8461 7.48031
vt -66.391 7.48031
vn 0.793353 -0 0.608761
vt -66.391 17.3228
vt -64.8461 17.3228
f 35/153/23 36/154/25 51/155/25 52/156/23 

usemtl Red
vt -0.652806 0.146667
vt -0.665886 0.146667
vn -0.707107 0 -0.707107
vt -0.665886 0.0633333
vt -0.652806 0.0633333
f 51/157/24 50/158/26 37/159/26 36/160/24 

usemtl BackColor
vt -77.103 7.48031
vt -78.648 7.48031
vn 0.707107 -0 0.707107
vt -78.648 17.3228
vt -77.103 17.3228
f 36/161/25 37/162/27 50/163/27 51/164/25 

usemtl Red
vt -0.745299 0.146667
vt -0.75838 0.146667
vn -0.608761 0 -0.793353
vt -0.75838 0.0633333
vt -0.745299 0.0633333
f 50/165/26 49/166/28 38/167/28 37/168/26 

usemtl BackColor
vt -88.0275 7.48031
vt -89.5725 7.48031
vn 0.608761 -0 0.793353
vt -89.5725 17.3228
vt -88.0275 17.3228
f 37/169/27 38/170/29 49/171/29 50/172/27 

usemtl Red
vt -0.824929 0.146667
vt -0.83801 0.146667
vn -0.5 0 -0.866025
vt -0.83801 0.0633333
vt -0.824929 0.0633333
f 49/173/28 48/174/30 39/175/30 38/176/28 

usemtl BackColor
vt -97.4326 7.48031
vt -98.9776 7.48031
vn 0.5 -0 0.866025
vt -98.9776 17.3228
vt -97.4326 17.3228
f 38/177/29 39/178/31 48/179/31 49/180/29 

usemtl Red
vt -0.890332 0.146667
vt -0.903413 0.146667
vn -0.382683 0 -0.92388
vt -0.903413 0.0633333
vt -0.890332 0.0633333
f 48/181/30 47/182/32 40/183/32 39/184/30 

usemtl BackColor
vt -105.157 7.48031
vt -106.702 7.48031
vn 0.382683 -0 0.92388
vt -106.702 17.3228
vt -105.157 17.3228
f 39/185/31 40/186/33 47/187/33 48/188/31 

usemtl Red
vt -0.94039 0.146667
vt -0.95347 0.146667
vt -0.95347 0.0633333
vt -0.94039 0.0633333
f 47/189/32 43/190/12 41/191/12 40/192/32 

usemtl BackColor
vt -111.07 7.48031
vt -112.615 7.48031
vn 0.258819 -0 0.965926
vt -112.615 17.3228
vt -111.07 17.3228
f 40/193/33 41/194/34 43/195/34 47/196/33 

vt -115.068 7.48031
vt -116.613 7.48031
vn 0.130526 1.19089e-019 0.991445
vt -116.613 17.3228
vt -115.068 17.3228
f 41/197/34 42/198/35 44/199/35 43/200/34 

usemtl Red
vt -0.991319 0.146667
vt -1.0044 0.146667
vn -0.0654031 -2.37668e-019 -0.997859
vt -1.0044 0.0633333
vt -0.991319 0.0633333
f 44/201/13 46/202/36 17/203/36 42/204/13 

usemtl BackColor
vt -117.085 7.48031
vt -118.63 7.48031
vn 0.0654031 2.37668e-019 0.997859
vt -118.63 17.3228
vt -117.085 17.3228
f 42/205/35 17/206/37 46/207/37 44/208/35 

usemtl Red
vt 0.1 6.81888e-015
vn 1 -6.81888e-015 2.85322e-014
vt 6.38788e-013 0.146667
vt 2.66071e-014 6.81888e-015
f 14/209/38 17/29/38 46/30/38 45/210/38 15/211/38 

usemtl Green
vt 0.9 0.0633333
vn 1 0 3.6664e-015
vt 0.1 0
vt 0.9 0
f 18/212/39 17/29/39 14/213/39 13/214/39 

usemtl BackColor
vt 106.299 0
vn -1 -0 -3.6664e-015
vt 11.811 0
vt 106.299 7.48031
f 13/215/40 14/216/40 17/52/40 18/217/40 

vt 3.14258e-012 8.05379e-013
vn -1 6.81888e-015 -2.85322e-014
vt 7.54474e-011 17.3228
vt 11.811 8.05379e-013
f 15/218/41 45/219/41 46/51/41 17/52/41 14/220/41 

usemtl Red
vt 1 9.65124e-024
vn -3.06377e-012 3.1521e-012 1
vt 0.9 0.146667
vt 0.9 9.6564e-024
f 15/221/42 45/57/42 56/222/42 31/212/42 16/223/42 

usemtl BackColor
vt 106.299 1.14052e-021
vn 3.06377e-012 -3.1521e-012 -1
vt 106.299 17.3228
vt 118.11 17.3228
vt 118.11 1.13991e-021
f 16/224/43 31/217/43 56/225/43 45/226/43 15/227/43 

usemtl Green
vt 0.1 -1.222e-025
vn 5.66644e-013 2.40131e-012 1
vt 0.9 -4.89599e-025
f 9/228/44 16/229/44 31/212/44 10/29/44 

usemtl BackColor
vn -5.66644e-013 -2.40131e-012 -1
vt 106.299 -5.78267e-023
vt 11.811 -1.44331e-023
f 10/52/45 31/217/45 16/230/45 9/231/45 

usemtl Red
vt 1 0
vn 1 0 -3.55271e-015
v 3 0.44 -3
v 3 0.44 -2.7
f 12/232/46 57/57/46 58/222/46 18/212/46 13/214/46 

usemtl BackColor
vn -1 -0 3.55271e-015
vt 118.11 0
f 13/215/47 18/217/47 58/225/47 57/226/47 12/233/47 

usemtl Red
vt 0.938996 0.146667
vn -0.0654031 2.37668e-019 0.997859
v 2.96084 0.44 -2.70257
vt 0.925915 0.146667
vn -0.130526 1.19089e-019 0.991445
vt 0.925915 0.0633333
vt 0.938996 0.0633333
f 58/234/48 59/235/49 19/236/49 18/237/48 

vt 1 1
v 2.7 0.44 -3
v 2.70257 0.44 -2.96084
v 2.71022 0.44 -2.92235
v 2.72284 0.44 -2.88519
v 2.74019 0.44 -2.85
v 2.76199 0.44 -2.81737
v 2.78787 0.44 -2.78787
v 2.81737 0.44 -2.76199
v 2.85 0.44 -2.74019
v 2.88519 0.44 -2.72284
v 2.92235 0.44 -2.71022
f 57/238/5 60/72/5 61/71/5 62/70/5 63/69/5 64/68/5 65/67/5 66/66/5 67/65/5 68/64/5 69/63/5 70/62/5 59/61/5 58/60/5 

usemtl BackColor
vt 118.11 118.11
f 58/109/6 59/108/6 70/107/6 69/106/6 68/105/6 67/104/6 66/103/6 65/102/6 64/101/6 63/100/6 62/99/6 61/98/6 60/97/6 57/239/6 

vt 110.905 7.48031
vn 0.0654031 -2.37668e-019 -0.997859
vt 109.36 7.48031
vn 0.130526 -1.19089e-019 -0.991445
vt 109.36 17.3228
vt 110.905 17.3228
f 18/240/50 19/241/51 59/242/51 58/243/50 

usemtl Red
vt 0.792235 0.146667
vt 0.779155 0.146667
vn -0.258819 0 0.965926
vt 0.779155 0.0633333
vt 0.792235 0.0633333
f 59/244/49 70/245/52 20/246/52 19/247/49 

usemtl BackColor
vt 93.5711 7.48031
vt 92.0261 7.48031
vn 0.258819 -0 -0.965926
vt 92.0261 17.3228
vt 93.5711 17.3228
f 19/248/51 20/249/53 70/250/53 59/251/51 

usemtl Red
vt 0.632031 0.146667
vt 0.61895 0.146667
vn -0.382683 0 0.92388
vt 0.61895 0.0633333
vt 0.632031 0.0633333
f 70/252/52 69/253/54 21/254/54 20/255/52 

usemtl BackColor
vt 74.6493 7.48031
vt 73.1044 7.48031
vn 0.382683 -0 -0.92388
vt 73.1044 17.3228
vt 74.6493 17.3228
f 20/256/53 21/257/55 69/258/55 70/259/53 

usemtl Red
vt 0.461124 0.146667
vt 0.448044 0.146667
vn -0.5 0 0.866025
vt 0.448044 0.0633333
vt 0.461124 0.0633333
f 69/260/54 68/261/56 22/262/56 21/263/54 

usemtl BackColor
vt 54.4635 7.48031
vt 52.9186 7.48031
vn 0.5 -0 -0.866025
vt 52.9186 17.3228
vt 54.4635 17.3228
f 21/264/55 22/265/57 68/266/57 69/267/55 

usemtl Red
vt 0.28244 0.146667
vt 0.269359 0.146667
vn -0.608761 0 0.793353
vt 0.269359 0.0633333
vt 0.28244 0.0633333
f 68/268/56 67/269/58 23/270/58 22/271/56 

usemtl BackColor
vt 33.359 7.48031
vt 31.8141 7.48031
vn 0.608761 -0 -0.793353
vt 31.8141 17.3228
vt 33.359 17.3228
f 22/272/57 23/273/59 67/274/59 68/275/57 

usemtl Red
vt 0.0990343 0.146667
vt 0.0859537 0.146667
vn -0.707107 0 0.707107
vt 0.0859537 0.0633333
vt 0.0990343 0.0633333
f 67/276/58 66/277/60 24/278/60 23/279/58 

usemtl BackColor
vt 11.697 7.48031
vt 10.152 7.48031
vn 0.707107 -0 -0.707107
vt 10.152 17.3228
vt 11.697 17.3228
f 23/280/59 24/281/61 66/282/61 67/283/59 

usemtl Red
vt -0.0859537 0.146667
vt -0.0990343 0.146667
vn -0.793353 0 0.608761
vt -0.0990343 0.0633333
vt -0.0859537 0.0633333
f 66/284/60 65/285/62 25/286/62 24/287/60 

usemtl BackColor
vt -10.152 7.48031
vt -11.697 7.48031
vn 0.793353 -0 -0.608761
vt -11.697 17.3228
vt -10.152 17.3228
f 24/288/61 25/289/63 65/290/63 66/291/61 

usemtl Red
vt -0.269359 0.146667
vt -0.28244 0.146667
vn -0.866025 0 0.5
vt -0.28244 0.0633333
vt -0.269359 0.0633333
f 65/292/62 64/293/64 26/294/64 25/295/62 

usemtl BackColor
vt -31.8141 7.48031
vt -33.359 7.48031
vn 0.866025 -0 -0.5
vt -33.359 17.3228
vt -31.8141 17.3228
f 25/296/63 26/297/65 64/298/65 65/299/63 

usemtl Red
vt -0.448044 0.146667
vt -0.461124 0.146667
vn -0.92388 0 0.382683
vt -0.461124 0.0633333
vt -0.448044 0.0633333
f 64/300/64 63/301/66 27/302/66 26/303/64 

usemtl BackColor
vt -52.9186 7.48031
vt -54.4635 7.48031
vn 0.92388 -0 -0.382683
vt -54.4635 17.3228
vt -52.9186 17.3228
f 26/304/65 27/305/67 63/306/67 64/307/65 

usemtl Red
vt -0.61895 0.146667
vt -0.632031 0.146667
vn -0.965926 0 0.258819
vt -0.632031 0.0633333
vt -0.61895 0.0633333
f 63/308/66 62/309/68 28/310/68 27/311/66 

usemtl BackColor
vt -73.1044 7.48031
vt -74.6493 7.48031
vn 0.965926 -0 -0.258819
vt -74.6493 17.3228
vt -73.1044 17.3228
f 27/312/67 28/313/69 62/314/69 63/315/67 

usemtl Red
vt -0.779155 0.146667
vt -0.792235 0.146667
vn -0.991445 1.19089e-019 0.130526
vt -0.792235 0.0633333
vt -0.779155 0.0633333
f 62/316/68 61/317/70 29/318/70 28/319/68 

usemtl BackColor
vt -92.0261 7.48031
vt -93.5711 7.48031
vn 0.991445 -1.19089e-019 -0.130526
vt -93.5711 17.3228
vt -92.0261 17.3228
f 28/320/69 29/321/71 61/322/71 62/323/69 

usemtl Red
vt -0.925915 0.146667
vt -0.938996 0.146667
vn -0.997859 2.37668e-019 0.0654031
vt -0.938996 0.0633333
vt -0.925915 0.0633333
f 61/324/70 60/325/72 30/326/72 29/327/70 

usemtl BackColor
vt -109.36 7.48031
vt -110.905 7.48031
vn 0.997859 -2.37668e-019 -0.0654031
vt -110.905 17.3228
vt -109.36 17.3228
f 29/328/71 30/329/73 60/330/73 61/331/71 

usemtl Red
vt -0.9 6.22593e-015
vn 2.86428e-015 -6.22593e-015 -1
vt -0.9 0.0633333
vt -0.9 0.146667
vt -1 6.22593e-015
f 11/332/74 30/333/74 60/334/74 57/13/74 12/335/74 

usemtl Green
vn 6.07277e-015 0 -1
vt -0.9 0
vt -0.1 0
f 2/2/75 30/333/75 11/336/75 3/337/75 

usemtl BackColor
vt -11.811 0
vn -6.07277e-015 -0 1
vt -106.299 0
vt -106.299 7.48031
f 3/338/76 11/339/76 30/340/76 2/9/76 

vt -118.11 7.35346e-013
vn -2.86428e-015 6.22593e-015 1
vt -106.299 17.3228
vt -106.299 7.35346e-013
f 12/341/77 57/16/77 60/342/77 30/340/77 11/343/77 

vt 7.55225e-013 17.3228
vn -1 -0 -6.18949e-015
vt 118.11 7.48031
vt 7.55225e-013 7.48031
f 8/344/78 1/226/78 2/345/78 10/346/78 

