# Alias OBJ Model File
# Exported from SketchUp, (c) 2000-2012 Trimble Navigation Limited
# File units = meters

mtllib Wall_left_01.mtl

g Mesh1 Wall_left Model

usemtl Red
v 0.3 0.44 -3
vt -0.1 0.146667
vn 2.98845e-015 -5.85484e-016 -1
v 0.3 0.19 -3
vt -0.1 0.0633333
v 0.3 0 -3
vt -0.1 5.85484e-016
v 1.84087e-014 0 -3
vt -3.1478e-015 5.85484e-016
v 1.84087e-014 0.44 -3
vt -3.1478e-015 0.146667
f 1/1/1 2/2/1 3/3/1 4/4/1 5/5/1 

usemtl BackColor
vt -3.71787e-013 17.3228
vn -2.98845e-015 5.85484e-016 1
vt -3.71787e-013 6.91517e-014
vt -11.811 6.91517e-014
vt -11.811 7.48031
vt -11.811 17.3228
f 5/6/2 4/7/2 3/8/2 2/9/2 1/10/2 

usemtl Red
v 0 0 -2.02135e-014
vt -6.73784e-015 0
vn -1 0 -6.18949e-015
v 0 0.44 -2.02135e-014
vt -6.73784e-015 0.146667
vt -1 0.146667
vt -1 0
f 6/11/3 7/12/3 5/13/3 4/14/3 

usemtl BackColor
vt -118.11 0
vn 1 -0 6.18949e-015
vt -118.11 17.3228
vt -7.95808e-013 17.3228
vt -7.95808e-013 0
f 4/15/4 5/16/4 7/17/4 6/18/4 

usemtl Red
vt 0.1 1
vn 0 1 -0
vt 6.13625e-015 1
vt 0 6.73784e-015
v 1.5 0.44 -1.73259e-014
vt 0.5 5.77529e-015
v 1.5 0.44 -0.25
vt 0.5 0.0833333
v 0.3 0.44 -0.25
vt 0.1 0.0833333
f 1/19/5 5/20/5 7/21/5 8/22/5 9/23/5 10/24/5 

usemtl BackColor
vt 11.811 9.84252
vn -0 -1 0
vt 59.0551 9.84252
vt 59.0551 6.82121e-013
vt 0 7.95808e-013
vt 7.24754e-013 118.11
vt 11.811 118.11
f 10/25/6 9/26/6 8/27/6 7/28/6 5/29/6 1/30/6 

usemtl Red
v 0.3 0.19 -0.25
vn 6.04601e-015 -1.09117e-030 -1
vt -0.5 0.146667
v 1.5 0.19 -0.25
vt -0.5 0.0633333
f 11/2/7 10/1/7 9/31/7 12/32/7 

vt 1 0.146667
vn 1 -9.02389e-017 6.01319e-015
vt 0.0833333 0.146667
vt 0.0833333 0.0633333
vt 1 0.0633333
f 1/33/8 10/34/8 11/35/8 2/36/8 

usemtl BackColor
vt 118.11 7.48031
vn -1 9.02389e-017 -6.01319e-015
vt 9.84252 7.48031
vt 9.84252 17.3228
vt 118.11 17.3228
f 2/37/9 11/38/9 10/39/9 1/40/9 

usemtl Green
v 2.7 0.19 -3
vt 0.9 1
v 1.5 0.19 -1.73259e-014
v 2.7 0.19 -2.88765e-015
vt 0.9 9.62549e-016
f 13/41/5 2/19/5 11/24/5 12/23/5 14/22/5 15/42/5 

usemtl BackColor
vt 106.299 1.13687e-013
vt 106.299 118.11
f 15/43/6 14/27/6 12/26/6 11/25/6 2/30/6 13/44/6 

usemtl Green
vt 0.9 0.0633333
vn -8.4223e-015 2.27972e-014 1
vt 0.5 0.0633333
v 1.5 0 -8.66294e-015
vt 0.5 1.61833e-028
v 2.7 0 -2.88765e-015
vt 0.9 1.94748e-028
f 15/45/10 14/46/10 16/47/10 17/48/10 

usemtl BackColor
vt 106.299 2.30017e-026
vn 8.4223e-015 -2.27972e-014 -1
vt 59.0551 1.91141e-026
vt 59.0551 7.48031
vt 106.299 7.48031
f 17/49/11 16/50/11 14/51/11 15/52/11 

usemtl Red
v 2.7 0 -3
vt -0.9 1
vn 0 -1 -0
v 3 0 -3
vt -1 1
v 3 0 -0
vt -0.9 9.62549e-016
vt -0.5 2.88765e-015
vt -6.13625e-015 1
vt -0.1 1
f 18/53/12 19/54/12 20/14/12 17/55/12 16/56/12 6/21/12 4/57/12 3/58/12 

usemtl BackColor
vt -11.811 118.11
vn -0 1 0
vt -7.24754e-013 118.11
vt -59.0551 3.41061e-013
vt -106.299 1.13687e-013
vt -118.11 118.11
vt -106.299 118.11
f 3/59/13 4/60/13 6/28/13 16/61/13 17/62/13 20/15/13 19/63/13 18/64/13 

usemtl Red
vt -2.58248e-029 6.16346e-029
vn -3.83281e-015 9.14753e-015 1
vt 0.5 4.39452e-029
vt 0.5 0.146667
vt -2.58248e-029 0.146667
f 6/65/14 16/66/14 14/46/14 8/67/14 7/68/14 

usemtl BackColor
vt -3.05018e-027 17.3228
vn 3.83281e-015 -9.14753e-015 -1
vt 59.0551 17.3228
vt 59.0551 5.19037e-027
vt -3.05018e-027 7.27967e-027
f 7/69/15 8/70/15 14/51/15 16/71/15 6/72/15 

usemtl Red
vt 8.7983e-015 0.0633333
vn 1 -9.02389e-017 6.04601e-015
vt 8.7983e-015 0.146667
f 14/73/16 12/35/16 9/34/16 8/74/16 

usemtl BackColor
vt 1.03917e-012 17.3228
vn -1 9.02389e-017 -6.04601e-015
vt 1.03917e-012 7.48031
f 8/75/17 9/39/17 12/38/17 14/76/17 

vt -59.0551 7.48031
vn -6.04601e-015 1.09117e-030 1
vt -59.0551 17.3228
f 12/77/18 9/78/18 10/10/18 11/9/18 

usemtl Red
v 2.7 0.44 -2.88765e-015
vt 0.9 0.146667
vn -4.81274e-015 1.60311e-032 1
vt 0.9 8.48687e-047
vt 1 7.71534e-047
v 3 0.44 -0
f 21/79/19 15/45/19 17/80/19 20/81/19 22/33/19 

usemtl BackColor
vn 4.81274e-015 -1.60311e-032 -1
vt 118.11 9.1126e-045
vt 106.299 1.00239e-044
vt 106.299 17.3228
f 22/40/20 20/82/20 17/83/20 15/52/20 21/84/20 

usemtl Red
v 3 0.44 -3
vn 1 0 6.18949e-015
vt 6.18949e-015 0.146667
vt 6.18949e-015 0
vt 1 0
f 23/33/21 22/85/21 20/86/21 19/87/21 

vt 1 1
v 2.7 0.44 -3
f 23/88/5 24/41/5 21/42/5 22/87/5 

usemtl BackColor
vt 118.11 0
vt 118.11 118.11
f 22/89/6 21/43/6 24/44/6 23/90/6 

usemtl Red
vt -1 0.0633333
vt -6.53309e-015 0.0633333
vt -6.53309e-015 0.146667
f 13/91/3 15/92/3 21/93/3 24/13/3 

usemtl BackColor
vt -7.71625e-013 17.3228
vt -7.71625e-013 7.48031
vt -118.11 7.48031
f 24/16/4 21/94/4 15/95/4 13/96/4 

usemtl Red
vt -1 5.85484e-016
vn 9.04341e-015 -5.85484e-016 -1
vt -0.9 5.85484e-016
vt -0.9 0.0633333
vt -0.9 0.146667
f 19/97/22 18/98/22 13/99/22 24/100/22 23/13/22 

usemtl BackColor
vn -9.04341e-015 5.85484e-016 1
vt -106.299 17.3228
vt -106.299 7.48031
vt -106.299 6.91517e-014
vt -118.11 6.91517e-014
f 23/16/23 24/101/23 13/102/23 18/103/23 19/104/23 

usemtl Green
vt -0.9 2.84965e-015
vn 6.01593e-015 -2.84965e-015 -1
vt -0.1 2.84965e-015
f 18/105/24 3/106/24 2/2/24 13/99/24 

usemtl BackColor
vn -6.01593e-015 2.84965e-015 1
vt -11.811 3.36573e-013
vt -106.299 3.36573e-013
f 13/102/25 2/9/25 3/107/25 18/108/25 

vn -1 -0 -6.18949e-015
vt 7.31043e-013 0
vt 7.31043e-013 17.3228
f 19/89/26 20/109/26 22/110/26 23/40/26 

