# Alias OBJ Model File
# Exported from SketchUp, (c) 2000-2012 Trimble Navigation Limited
# File units = meters

mtllib Walls_to_open_01.mtl

g Mesh1 Walls_to_open Model

usemtl Red
v 1.73259e-014 0 -3
vt -5.77529e-015 1
vn 0 -1 -0
v 3 0 -3
vt -1 1
v 3 0 -0.3
vt -1 0.1
v 3 0 -0
vt -1 0
v 2.7 0 -0
vt -0.9 0
v 0.3 0 -1.73259e-014
vt -0.1 5.77529e-015
v 0 0 -2.31012e-014
vt 0 7.70039e-015
v 0 0 -0.3
vt 0 0.1
f 1/1/1 2/2/1 3/3/1 4/4/1 5/5/1 6/6/1 7/7/1 8/8/1 

usemtl BackColor
vt 0 11.811
vn -0 1 0
vt 0 9.09495e-013
vt -11.811 6.82121e-013
vt -106.299 0
vt -118.11 0
vt -118.11 11.811
vt -118.11 118.11
vt -6.82121e-013 118.11
f 8/9/2 7/10/2 6/11/2 5/12/2 4/13/2 3/14/2 2/15/2 1/16/2 

usemtl Red
v 0 0.44 -0.3
vt -0.1 0.146667
vn -1 0 -0
v 0 0.19 -0.3
vt -0.1 0.0633333
vt -0.1 0
vt -7.70039e-015 0
v 0 0.44 -2.31012e-014
vt -7.70039e-015 0.146667
f 9/17/3 10/18/3 8/19/3 7/20/3 11/21/3 

usemtl BackColor
vt -9.09495e-013 17.3228
vn 1 -0 0
vt -9.09495e-013 0
vt -11.811 0
vt -11.811 7.48031
vt -11.811 17.3228
f 11/22/4 7/23/4 8/24/4 10/25/4 9/26/4 

usemtl Red
vt -1.4824e-028 8.88807e-045
vn -1.9251e-014 1.15424e-030 1
vt 0.1 8.88807e-045
v 0.3 0.19 -1.73259e-014
vt 0.1 0.0633333
v 0.3 0.44 -1.73259e-014
vt 0.1 0.146667
vt -1.4824e-028 0.146667
f 7/27/5 6/28/5 12/29/5 13/30/5 11/31/5 

usemtl BackColor
vt -1.75087e-026 17.3228
vn 1.9251e-014 -1.15424e-030 -1
vt 11.811 17.3228
vt 11.811 7.48031
vt 11.811 1.04977e-042
vt -1.75087e-026 1.04977e-042
f 11/32/6 13/33/6 12/34/6 6/35/6 7/36/6 

usemtl Red
vn 0 1 -0
vt 0.1 5.77529e-015
v 0.297433 0.44 -0.0391579
vt 0.0991445 0.0130526
v 0.289778 0.44 -0.0776457
vt 0.0965926 0.0258819
v 0.277164 0.44 -0.114805
vt 0.092388 0.0382683
v 0.259808 0.44 -0.15
vt 0.0866025 0.05
v 0.238006 0.44 -0.182628
vt 0.0793353 0.0608761
v 0.212132 0.44 -0.212132
vt 0.0707107 0.0707107
v 0.182628 0.44 -0.238006
vt 0.0608761 0.0793353
v 0.15 0.44 -0.259808
vt 0.05 0.0866025
v 0.114805 0.44 -0.277164
vt 0.0382683 0.092388
v 0.0776457 0.44 -0.289778
vt 0.0258819 0.0965926
v 0.0391579 0.44 -0.297433
vt 0.0130526 0.0991445
f 11/7/7 13/37/7 14/38/7 15/39/7 16/40/7 17/41/7 18/42/7 19/43/7 20/44/7 21/45/7 22/46/7 23/47/7 24/48/7 9/8/7 

usemtl BackColor
vn -0 -1 0
vt 1.54165 11.71
vt 3.05692 11.4086
vt 4.51988 10.912
vt 5.90551 10.2286
vt 7.1901 9.37032
vt 8.35165 8.35165
vt 9.37032 7.1901
vt 10.2286 5.90551
vt 10.912 4.51988
vt 11.4086 3.05692
vt 11.71 1.54165
vt 11.811 6.82121e-013
f 9/9/8 24/49/8 23/50/8 22/51/8 21/52/8 20/53/8 19/54/8 18/55/8 17/56/8 16/57/8 15/58/8 14/59/8 13/60/8 11/10/8 

usemtl Red
vt 0.00654031 0.146667
vn 0.0654031 0 -0.997859
vt -0.00654031 0.146667
vn 0.130526 0 -0.991445
v 0.0391579 0.19 -0.297433
vt -0.00654031 0.0633333
vt 0.00654031 0.0633333
f 9/61/9 24/62/10 25/63/10 10/64/9 

usemtl BackColor
vt 0.772478 7.48031
vn -0.0654031 -0 0.997859
vt -0.772478 7.48031
vn -0.130526 -0 0.991445
vt -0.772478 17.3228
vt 0.772478 17.3228
f 10/65/11 25/66/12 24/67/12 9/68/11 

usemtl Green
vt 0.1 5.7736e-015
vn -2.30934e-016 1 -2.66593e-017
v 2.7 0.19 -0
vt 0.9 -1.68842e-018
v 2.70257 0.19 -0.0391579
vt 0.900856 0.0130526
v 2.71022 0.19 -0.0776457
vt 0.903407 0.0258819
v 2.72284 0.19 -0.114805
vt 0.907612 0.0382683
v 2.74019 0.19 -0.15
vt 0.913397 0.05
v 2.76199 0.19 -0.182628
vt 0.920665 0.0608761
v 2.78787 0.19 -0.212132
vt 0.929289 0.0707107
v 2.81737 0.19 -0.238006
vt 0.939124 0.0793353
v 2.85 0.19 -0.259808
vt 0.95 0.0866025
v 2.88519 0.19 -0.277164
vt 0.961732 0.092388
v 2.92235 0.19 -0.289778
vt 0.974118 0.0965926
v 2.96084 0.19 -0.297433
vt 0.986947 0.0991445
v 3 0.19 -0.3
vt 1 0.1
v 3 0.19 -3
vt 1 1
v 1.73259e-014 0.19 -3
vt 5.78992e-015 1
vt 1.46258e-017 0.1
v 0.0776457 0.19 -0.289778
v 0.114805 0.19 -0.277164
v 0.15 0.19 -0.259808
v 0.182628 0.19 -0.238006
v 0.212132 0.19 -0.212132
v 0.238006 0.19 -0.182628
v 0.259808 0.19 -0.15
v 0.277164 0.19 -0.114805
v 0.289778 0.19 -0.0776457
v 0.297433 0.19 -0.0391579
f 12/69/13 26/70/13 27/71/13 28/72/13 29/73/13 30/74/13 31/75/13 32/76/13 33/77/13 34/78/13 35/79/13 36/80/13 37/81/13 38/82/13 39/83/13 40/84/13 10/85/13 25/48/13 41/47/13 42/46/13 43/45/13 44/44/13 45/43/13 46/42/13 47/41/13 48/40/13 49/39/13 50/38/13 

vt 0.1 2.87473e-029
vn -7.19431e-015 4.42626e-015 1
vt 0.9 2.86595e-029
vt 0.9 0.0633333
f 6/86/14 5/87/14 26/88/14 12/29/14 

usemtl BackColor
vn 7.19431e-015 -4.42626e-015 -1
vt 106.299 7.48031
vt 106.299 3.38498e-027
vt 11.811 3.39535e-027
f 12/34/15 26/89/15 5/90/15 6/91/15 

vn 2.30934e-016 -1 2.66593e-017
vt 1.72746e-015 11.811
vt 6.83848e-013 118.11
vt 118.11 118.11
vt 118.11 11.811
vt 116.569 11.71
vt 115.053 11.4086
vt 113.59 10.912
vt 112.205 10.2286
vt 110.92 9.37032
vt 109.759 8.35165
vt 108.74 7.1901
vt 107.882 5.90551
vt 107.198 4.51988
vt 106.702 3.05692
vt 106.4 1.54165
vt 106.299 -1.9942e-016
vt 11.811 6.81922e-013
f 50/59/16 49/58/16 48/57/16 47/56/16 46/55/16 45/54/16 44/53/16 43/52/16 42/51/16 41/50/16 25/49/16 10/92/16 40/93/16 39/94/16 38/95/16 37/96/16 36/97/16 35/98/16 34/99/16 33/100/16 32/101/16 31/102/16 30/103/16 29/104/16 28/105/16 27/106/16 26/107/16 12/108/16 

usemtl Red
vn 0.965926 0 -0.258819
vn 0.991445 0 -0.130526
f 15/61/17 14/62/18 50/63/18 49/64/17 

usemtl BackColor
vn -0.965926 -0 0.258819
vn -0.991445 -0 0.130526
f 49/65/19 50/66/20 14/67/20 15/68/19 

usemtl Red
vn 0.997859 0 -0.0654031
f 14/61/18 13/62/21 12/63/21 50/64/18 

usemtl BackColor
vn -0.997859 -0 0.0654031
f 50/65/20 12/66/22 13/67/22 14/68/20 

usemtl Red
vn 0.92388 0 -0.382683
f 16/61/23 15/62/17 49/63/17 48/64/23 

usemtl BackColor
vn -0.92388 -0 0.382683
f 48/65/24 49/66/19 15/67/19 16/68/24 

usemtl Red
vn 0.866025 0 -0.5
f 17/61/25 16/62/23 48/63/23 47/64/25 

usemtl BackColor
vn -0.866025 -0 0.5
f 47/65/26 48/66/24 16/67/24 17/68/26 

usemtl Red
vn 0.793353 0 -0.608761
f 18/61/27 17/62/25 47/63/25 46/64/27 

usemtl BackColor
vn -0.793353 -0 0.608761
f 46/65/28 47/66/26 17/67/26 18/68/28 

usemtl Red
vn 0.707107 0 -0.707107
f 19/61/29 18/62/27 46/63/27 45/64/29 

usemtl BackColor
vn -0.707107 -0 0.707107
f 45/65/30 46/66/28 18/67/28 19/68/30 

usemtl Red
vn 0.608761 0 -0.793353
f 20/61/31 19/62/29 45/63/29 44/64/31 

usemtl BackColor
vn -0.608761 -0 0.793353
f 44/65/32 45/66/30 19/67/30 20/68/32 

usemtl Red
vn 0.5 0 -0.866025
f 21/61/33 20/62/31 44/63/31 43/64/33 

usemtl BackColor
vn -0.5 -0 0.866025
f 43/65/34 44/66/32 20/67/32 21/68/34 

usemtl Red
vn 0.382683 0 -0.92388
f 22/61/35 21/62/33 43/63/33 42/64/35 

usemtl BackColor
vn -0.382683 -0 0.92388
f 42/65/36 43/66/34 21/67/34 22/68/36 

usemtl Red
vn 0.258819 0 -0.965926
f 23/61/37 22/62/35 42/63/35 41/64/37 

usemtl BackColor
vn -0.258819 -0 0.965926
f 41/65/38 42/66/36 22/67/36 23/68/38 

usemtl Red
f 24/61/10 23/62/37 41/63/37 25/64/10 

usemtl BackColor
f 25/65/12 41/66/38 23/67/38 24/68/12 

usemtl Green
vn -1 0 -6.41699e-015
vt -1 0.0633333
f 1/4/39 8/19/39 10/18/39 40/109/39 

usemtl BackColor
vt -118.11 7.48031
vn 1 -0 6.41699e-015
f 40/110/40 10/25/40 8/24/40 1/13/40 

usemtl Green
vt -1 1.01321e-014
vn 7.86668e-015 -1.01321e-014 -1
vt 2.09138e-015 1.01321e-014
vt 2.09138e-015 0.0633333
f 2/111/41 1/112/41 40/113/41 39/109/41 

usemtl BackColor
vn -7.86668e-015 1.01321e-014 1
vt 2.47014e-013 7.48031
vt 2.47014e-013 1.1967e-012
vt -118.11 1.1967e-012
f 39/110/42 40/114/42 1/115/42 2/116/42 

usemtl Green
vt 1 0.0633333
vn 1 0 6.41699e-015
vt 0.1 0
vt 1 0
f 39/117/43 38/29/43 3/118/43 2/119/43 

usemtl BackColor
vt 118.11 0
vn -1 -0 -6.41699e-015
vt 11.811 0
vt 118.11 7.48031
f 2/120/44 3/121/44 38/34/44 39/122/44 

usemtl Red
vt 0 0
vn 1 0 -0
v 3 0.44 -0.3
v 3 0.44 -0
vt 0 0.146667
f 4/123/45 3/118/45 38/29/45 51/30/45 52/124/45 

usemtl BackColor
vt 0 17.3228
vn -1 -0 0
f 52/125/46 51/33/46 38/34/46 3/121/46 4/123/46 

usemtl Red
v 2.96084 0.44 -0.297433
v 2.92235 0.44 -0.289778
v 2.88519 0.44 -0.277164
v 2.85 0.44 -0.259808
v 2.81737 0.44 -0.238006
v 2.78787 0.44 -0.212132
v 2.76199 0.44 -0.182628
v 2.74019 0.44 -0.15
v 2.72284 0.44 -0.114805
v 2.71022 0.44 -0.0776457
v 2.70257 0.44 -0.0391579
v 2.7 0.44 -0
vt 0.9 0
f 52/119/7 51/82/7 53/81/7 54/80/7 55/79/7 56/78/7 57/77/7 58/76/7 59/75/7 60/74/7 61/73/7 62/72/7 63/71/7 64/126/7 

usemtl BackColor
vt 106.299 0
f 64/127/8 63/106/8 62/105/8 61/104/8 60/103/8 59/102/8 58/101/8 57/100/8 56/99/8 55/98/8 54/97/8 53/96/8 51/95/8 52/120/8 

usemtl Red
vt -0.0588628 0.146667
vn -0.997859 -1.24299e-019 -0.0654031
vt -0.0719434 0.146667
vn -0.991445 -6.22827e-020 -0.130526
vt -0.0719434 0.0633333
vt -0.0588628 0.0633333
f 64/128/47 63/129/48 27/130/48 26/131/47 

usemtl BackColor
vt -6.9523 7.48031
vn 0.997859 1.24299e-019 0.0654031
vt -8.49726 7.48031
vn 0.991445 6.22827e-020 0.130526
vt -8.49726 17.3228
vt -6.9523 17.3228
f 26/132/49 27/133/50 63/134/50 64/135/49 

usemtl Red
vt -0.18855 0.146667
vt -0.201631 0.146667
vn -0.965926 0 -0.258819
vt -0.201631 0.0633333
vt -0.18855 0.0633333
f 63/136/48 62/137/51 28/138/51 27/139/48 

usemtl BackColor
vt -22.2697 7.48031
vt -23.8146 7.48031
vn 0.965926 -0 0.258819
vt -23.8146 17.3228
vt -22.2697 17.3228
f 27/140/50 28/141/52 62/142/52 63/143/50 

usemtl Red
vt -0.314899 0.146667
vt -0.32798 0.146667
vn -0.92388 0 -0.382683
vt -0.32798 0.0633333
vt -0.314899 0.0633333
f 62/144/51 61/145/53 29/146/53 28/147/51 

usemtl BackColor
vt -37.1928 7.48031
vt -38.7378 7.48031
vn 0.92388 -0 0.382683
vt -38.7378 17.3228
vt -37.1928 17.3228
f 28/148/52 29/149/54 61/150/54 62/151/52 

usemtl Red
vt -0.435748 0.146667
vt -0.448829 0.146667
vn -0.866025 0 -0.5
vt -0.448829 0.0633333
vt -0.435748 0.0633333
f 61/152/53 60/153/55 30/154/55 29/155/53 

usemtl BackColor
vt -51.4663 7.48031
vt -53.0113 7.48031
vn 0.866025 -0 0.5
vt -53.0113 17.3228
vt -51.4663 17.3228
f 29/156/54 30/157/56 60/158/56 61/159/54 

usemtl Red
vt -0.54903 0.146667
vt -0.562111 0.146667
vn -0.793353 0 -0.608761
vt -0.562111 0.0633333
vt -0.54903 0.0633333
f 60/160/55 59/161/57 31/162/57 30/163/55 

usemtl BackColor
vt -64.8461 7.48031
vt -66.391 7.48031
vn 0.793353 -0 0.608761
vt -66.391 17.3228
vt -64.8461 17.3228
f 30/164/56 31/165/58 59/166/58 60/167/56 

usemtl Red
vt -0.652806 0.146667
vt -0.665886 0.146667
vn -0.707107 0 -0.707107
vt -0.665886 0.0633333
vt -0.652806 0.0633333
f 59/168/57 58/169/59 32/170/59 31/171/57 

usemtl BackColor
vt -77.103 7.48031
vt -78.648 7.48031
vn 0.707107 -0 0.707107
vt -78.648 17.3228
vt -77.103 17.3228
f 31/172/58 32/173/60 58/174/60 59/175/58 

usemtl Red
vt -0.745299 0.146667
vt -0.75838 0.146667
vn -0.608761 0 -0.793353
vt -0.75838 0.0633333
vt -0.745299 0.0633333
f 58/176/59 57/177/61 33/178/61 32/179/59 

usemtl BackColor
vt -88.0275 7.48031
vt -89.5725 7.48031
vn 0.608761 -0 0.793353
vt -89.5725 17.3228
vt -88.0275 17.3228
f 32/180/60 33/181/62 57/182/62 58/183/60 

usemtl Red
vt -0.824929 0.146667
vt -0.83801 0.146667
vn -0.5 0 -0.866025
vt -0.83801 0.0633333
vt -0.824929 0.0633333
f 57/184/61 56/185/63 34/186/63 33/187/61 

usemtl BackColor
vt -97.4326 7.48031
vt -98.9776 7.48031
vn 0.5 -0 0.866025
vt -98.9776 17.3228
vt -97.4326 17.3228
f 33/188/62 34/189/64 56/190/64 57/191/62 

usemtl Red
vt -0.890332 0.146667
vt -0.903413 0.146667
vn -0.382683 0 -0.92388
vt -0.903413 0.0633333
vt -0.890332 0.0633333
f 56/192/63 55/193/65 35/194/65 34/195/63 

usemtl BackColor
vt -105.157 7.48031
vt -106.702 7.48031
vn 0.382683 -0 0.92388
vt -106.702 17.3228
vt -105.157 17.3228
f 34/196/64 35/197/66 55/198/66 56/199/64 

usemtl Red
vt -0.94039 0.146667
vt -0.95347 0.146667
vn -0.258819 0 -0.965926
vt -0.95347 0.0633333
vt -0.94039 0.0633333
f 55/200/65 54/201/67 36/202/67 35/203/65 

usemtl BackColor
vt -111.07 7.48031
vt -112.615 7.48031
vn 0.258819 -0 0.965926
vt -112.615 17.3228
vt -111.07 17.3228
f 35/204/66 36/205/68 54/206/68 55/207/66 

usemtl Red
vt -0.974245 0.146667
vt -0.987326 0.146667
vn -0.130526 -1.81371e-019 -0.991445
vt -0.987326 0.0633333
vt -0.974245 0.0633333
f 54/208/67 53/209/69 37/210/69 36/211/67 

usemtl BackColor
vt -115.068 7.48031
vt -116.613 7.48031
vn 0.130526 1.81371e-019 0.991445
vt -116.613 17.3228
vt -115.068 17.3228
f 36/212/68 37/213/70 53/214/70 54/215/68 

usemtl Red
vt -0.991319 0.146667
vt -1.0044 0.146667
vn -0.0654031 -3.61966e-019 -0.997859
vt -1.0044 0.0633333
vt -0.991319 0.0633333
f 53/216/69 51/217/71 38/218/71 37/219/69 

usemtl BackColor
vt -117.085 7.48031
vt -118.63 7.48031
vn 0.0654031 3.61966e-019 0.997859
vt -118.63 17.3228
vt -117.085 17.3228
f 37/220/70 38/221/72 51/222/72 53/223/70 

usemtl Red
vt 0.9 0.146667
vn 0 0 1
vt 1 0.146667
f 64/224/73 26/88/73 5/126/73 4/119/73 52/225/73 

usemtl BackColor
vt 118.11 17.3228
vn -0 -0 -1
vt 106.299 17.3228
f 52/226/74 4/120/74 5/127/74 26/89/74 64/227/74 

