# Alias OBJ Model File
# Exported from SketchUp, (c) 2000-2012 Trimble Navigation Limited
# File units = meters

mtllib Windmill_01.mtl

g Mesh1 Windmill Model

usemtl Red
v 0.3 0.44 -3
vt -0.1 0.146667
vn 3.10441e-015 -3.12258e-015 -1
v 0.3 0.19 -3
vt -0.1 0.0633333
v 0.3 0 -3
vt -0.1 3.12258e-015
v 1.87697e-014 0 -3
vt -3.15216e-015 3.12258e-015
v 1.87697e-014 0.44 -3
vt -3.15216e-015 0.146667
f 1/1/1 2/2/1 3/3/1 4/4/1 5/5/1 

usemtl BackColor
vt -3.72302e-013 17.3228
vn -3.10441e-015 3.12258e-015 1
vt -3.72302e-013 3.68809e-013
vt -11.811 3.68809e-013
vt -11.811 7.48031
vt -11.811 17.3228
f 5/6/2 4/7/2 3/8/2 2/9/2 1/10/2 

usemtl Red
v 0 0 -1.73259e-014
vt -5.77529e-015 0
vn -1 0 -6.18949e-015
v 0 0.44 -1.73259e-014
vt -5.77529e-015 0.146667
vt -1 0.146667
vt -1 0
f 6/11/3 7/12/3 5/13/3 4/14/3 

usemtl BackColor
vt -118.11 0
vn 1 -0 6.18949e-015
vt -118.11 17.3228
vt -6.82121e-013 17.3228
vt -6.82121e-013 0
f 4/15/4 5/16/4 7/17/4 6/18/4 

usemtl Red
vt 0.1 1
vn 0 1 -0
vt 6.25657e-015 1
vt 0 5.77529e-015
v 0.3 0.44 -1.73259e-014
vt 0.1 5.77529e-015
v 0.3 0.44 -0.3
vt 0.1 0.1
v 0.3 0.44 -2.7
vt 0.1 0.9
f 1/19/5 5/20/5 7/21/5 8/22/5 9/23/5 10/24/5 

usemtl BackColor
vt 11.811 106.299
vn -0 -1 0
vt 11.811 11.811
vt 11.811 6.82121e-013
vt 0 6.82121e-013
vt 7.38964e-013 118.11
vt 11.811 118.11
f 10/25/6 9/26/6 8/27/6 7/28/6 5/29/6 1/30/6 

usemtl Red
v 0.3 0.19 -2.7
vt -0.9 0.0633333
vn -1 0 -5.53795e-015
v 0.3 0.19 -0.3
vt -0.9 0.146667
f 11/31/7 12/2/7 9/1/7 10/32/7 

usemtl BackColor
vt -106.299 17.3228
vn 1 -0 5.53795e-015
vt -106.299 7.48031
f 10/33/8 9/10/8 12/9/8 11/34/8 

usemtl Brown
v 0.3 0.89 -0.3
vt -0.1 0.296667
vn -1 4.14832e-031 -5.77529e-015
v 0.3 0.89 -2.7
vt -0.9 0.296667
f 13/35/9 14/36/9 10/32/9 9/1/9 

v 2.7 0.89 -0.3
vt 0.9 0.1
v 2.7 0.89 -2.7
vt 0.9 0.9
f 15/37/5 16/38/5 14/24/5 13/23/5 

usemtl BackColor
vt 106.299 106.299
vt 106.299 11.811
f 13/26/6 14/25/6 16/39/6 15/40/6 

vn 1 -4.14832e-031 5.77529e-015
vt -106.299 35.0394
vt -11.811 35.0394
f 9/10/10 10/33/10 14/41/10 13/42/10 

usemtl Brown
v 2.7 0.19 -2.7
vn 5.92338e-015 -1.04905e-015 -1
v 2.1 0.19 -2.7
vt -0.7 0.0633333
v 2.05874 0.324773 -2.7
vt -0.686245 0.108258
v 1.98764 0.446477 -2.7
vt -0.662547 0.148826
v 1.89051 0.548615 -2.7
vt -0.630171 0.182872
v 1.77253 0.625734 -2.7
vt -0.590845 0.208578
v 1.64 0.673716 -2.7
vt -0.546668 0.224572
v 1.5 0.69 -2.7
vt -0.5 0.23
v 1.36 0.673716 -2.7
vt -0.453332 0.224572
v 1.22747 0.625734 -2.7
vt -0.409155 0.208578
v 1.10949 0.548615 -2.7
vt -0.369829 0.182872
v 1.01236 0.446477 -2.7
vt -0.337453 0.148826
v 0.941264 0.324773 -2.7
vt -0.313755 0.108258
v 0.9 0.19 -2.7
vt -0.3 0.0633333
v 2.7 0.44 -2.7
f 17/31/11 18/43/11 19/44/11 20/45/11 21/46/11 22/47/11 23/48/11 24/49/11 25/50/11 26/51/11 27/52/11 28/53/11 29/54/11 30/55/11 11/2/11 10/1/11 14/35/11 16/36/11 31/32/11 

usemtl Red
vn 9.73828e-015 1 2.43457e-015
vt 0.7 0.9
v 2.1 0.19 -0.3
vt 0.7 0.1
v 2.7 0.19 -0.3
f 17/38/12 18/56/12 32/57/12 33/37/12 

usemtl BackColor
vn -9.73828e-015 -1 -2.43457e-015
vt 82.6772 11.811
vt 82.6772 106.299
f 33/40/13 32/58/13 18/59/13 17/39/13 

usemtl Brown
vt 0.1 0.0633333
vn -6.68462e-015 -2.09442e-015 1
v 0.9 0.19 -0.3
vt 0.3 0.0633333
v 0.941264 0.324773 -0.3
vt 0.313755 0.108258
v 1.01236 0.446477 -0.3
vt 0.337453 0.148826
v 1.10949 0.548615 -0.3
vt 0.369829 0.182872
v 1.22747 0.625734 -0.3
vt 0.409155 0.208578
v 1.36 0.673716 -0.3
vt 0.453332 0.224572
v 1.5 0.69 -0.3
vt 0.5 0.23
v 1.64 0.673716 -0.3
vt 0.546668 0.224572
v 1.77253 0.625734 -0.3
vt 0.590845 0.208578
v 1.89051 0.548615 -0.3
vt 0.630171 0.182872
v 1.98764 0.446477 -0.3
vt 0.662547 0.148826
v 2.05874 0.324773 -0.3
vt 0.686245 0.108258
vt 0.7 0.0633333
vt 0.9 0.0633333
v 2.7 0.44 -0.3
vt 0.9 0.146667
vt 0.9 0.296667
vt 0.1 0.296667
vt 0.1 0.146667
f 12/60/14 34/61/14 35/62/14 36/63/14 37/64/14 38/65/14 39/66/14 40/67/14 41/68/14 42/69/14 43/70/14 44/71/14 45/72/14 32/73/14 33/74/14 46/75/14 15/76/14 13/77/14 9/78/14 

usemtl BackColor
vt 11.811 17.3228
vn 6.68462e-015 2.09442e-015 -1
vt 11.811 35.0394
vt 106.299 35.0394
vt 106.299 17.3228
vt 106.299 7.48031
vt 82.6772 7.48031
vt 81.0526 12.7863
vt 78.2536 17.5778
vt 74.4296 21.599
vt 69.7848 24.6352
vt 64.5671 26.5243
vt 59.0551 27.1654
vt 53.5431 26.5243
vt 48.3254 24.6352
vt 43.6806 21.599
vt 39.8566 17.5778
vt 37.0576 12.7863
vt 35.4331 7.48031
vt 11.811 7.48031
f 9/79/15 13/80/15 15/81/15 46/82/15 33/83/15 32/84/15 45/85/15 44/86/15 43/87/15 42/88/15 41/89/15 40/90/15 39/91/15 38/92/15 37/93/15 36/94/15 35/95/15 34/96/15 12/97/15 

usemtl Brown
vn -5.77529e-015 1.27941e-029 1
v 2.1 2.99 -0.3
vt 0.7 0.996667
v 1.5 3.39 -0.3
vt 0.5 1.13
v 0.9 2.99 -0.3
vt 0.3 0.996667
f 15/76/16 47/98/16 48/99/16 49/100/16 13/77/16 

vt 0.1 0.0380031
vn 0.961524 0.274721 6.21984e-015
vt 0.9 0.0380031
v 2.1 2.99 -2.7
vt 0.9 0.766014
vt 0.1 0.766014
f 15/101/17 16/102/17 50/103/17 47/104/17 

vn 1 -1.38034e-030 6.73784e-015
f 16/76/18 15/77/18 46/78/18 31/75/18 

usemtl BackColor
vn -1 1.38034e-030 -6.73784e-015
f 31/82/19 46/79/19 15/80/19 16/81/19 

usemtl Red
v 3 0.44 -3
vt 1 1
v 2.7 0.44 -3
vt 0.9 1
v 2.7 0.44 -5.77529e-015
vt 0.9 1.9251e-015
v 3 0.44 -0
vt 1 0
f 51/105/5 52/106/5 31/38/5 46/37/5 53/107/5 54/108/5 

usemtl BackColor
vt 118.11 0
vt 106.299 2.27374e-013
vt 106.299 118.11
vt 118.11 118.11
f 54/109/6 53/110/6 46/40/6 31/39/6 52/111/6 51/112/6 

usemtl Red
vn -9.62549e-015 9.61864e-032 1
v 2.7 0.19 -5.77529e-015
v 2.7 0 -5.77529e-015
vt 0.9 1.01842e-045
v 3 0 -0
vt 1 9.25841e-046
vt 1 0.146667
f 53/75/20 55/74/20 56/113/20 57/114/20 54/115/20 

usemtl BackColor
vt 118.11 17.3228
vn 9.62549e-015 -9.61864e-032 -1
vt 118.11 1.09351e-043
vt 106.299 1.20286e-043
f 54/116/21 57/117/21 56/118/21 55/83/21 53/82/21 

usemtl Red
vn 1 0 6.18949e-015
vt 6.18949e-015 0.146667
vt 6.18949e-015 0
v 3 0 -3
f 51/115/22 54/119/22 57/120/22 58/108/22 

usemtl BackColor
vn -1 -0 -6.18949e-015
vt 7.31043e-013 0
vt 7.31043e-013 17.3228
f 58/109/23 57/121/23 54/122/23 51/116/23 

usemtl Red
v 2.7 0 -3
vt -0.9 1
vn 0 -1 -0
vt -1 1
vt -0.9 1.9251e-015
v 0.3 0 -1.73259e-014
vt -0.1 5.77529e-015
vt -6.25657e-015 1
vt -0.1 1
f 59/123/24 58/124/24 57/14/24 56/125/24 60/126/24 6/21/24 4/127/24 3/128/24 

usemtl BackColor
vt -11.811 118.11
vn -0 1 0
vt -7.38964e-013 118.11
vt -11.811 6.82121e-013
vt -106.299 2.27374e-013
vt -118.11 118.11
vt -106.299 118.11
f 3/129/25 4/130/25 6/28/25 60/131/25 56/132/25 57/15/25 58/133/25 59/134/25 

usemtl Red
vt -5.559e-029 2.03685e-045
vn -9.62549e-015 3.52683e-031 1
vt 0.1 2.37632e-045
v 0.3 0.19 -1.73259e-014
vt -5.559e-029 0.146667
f 6/135/26 60/136/26 61/60/26 8/78/26 7/137/26 

usemtl BackColor
vt -6.56575e-027 17.3228
vn 9.62549e-015 -3.52683e-031 -1
vt 11.811 2.80668e-043
vt -6.56575e-027 2.40573e-043
f 7/138/27 8/79/27 61/97/27 60/139/27 6/140/27 

usemtl Red
vt 6.4972e-015 0.146667
vn 1 0 7.21911e-015
vt 6.4972e-015 0.0633333
f 8/141/28 61/142/28 12/60/28 9/78/28 

usemtl BackColor
vn -1 -0 -7.21911e-015
vt 7.67386e-013 7.48031
vt 7.67386e-013 17.3228
f 9/79/29 12/97/29 61/143/29 8/144/29 

usemtl Green
vn -1.27824e-029 1 1.36678e-015
vt 0.3 0.9
vt 0.3 0.1
vt 0.1 5.86185e-015
vt 0.9 2.01166e-015
v 2.7 0.19 -3
f 11/24/30 30/145/30 34/146/30 12/23/30 61/147/30 55/148/30 33/37/30 32/57/30 18/56/30 17/38/30 62/106/30 2/19/30 

usemtl BackColor
vn -5.92338e-015 1.04905e-015 1
vt -35.4331 7.48031
vt -37.0576 12.7863
vt -39.8566 17.5778
vt -43.6806 21.599
vt -48.3254 24.6352
vt -53.5431 26.5243
vt -59.0551 27.1654
vt -64.5671 26.5243
vt -69.7848 24.6352
vt -74.4296 21.599
vt -78.2536 17.5778
vt -81.0526 12.7863
vt -82.6772 7.48031
f 31/33/31 16/41/31 14/42/31 10/10/31 11/9/31 30/149/31 29/150/31 28/151/31 27/152/31 26/153/31 25/154/31 24/155/31 23/156/31 22/157/31 21/158/31 20/159/31 19/160/31 18/161/31 17/34/31 

usemtl Brown
vn 5.77529e-015 8.62211e-030 -1
v 0.9 2.99 -2.7
vt -0.3 0.996667
v 1.5 3.39 -2.7
vt -0.5 1.13
vt -0.7 0.996667
f 14/35/32 63/162/32 64/163/32 50/164/32 16/36/32 

usemtl BackColor
vn -5.77529e-015 -8.62211e-030 1
vt -82.6772 117.717
vt -59.0551 133.465
vt -35.4331 117.717
f 16/41/33 50/165/33 64/166/33 63/167/33 14/42/33 

vt 11.811 90.4741
vn -0.961524 -0.274721 -6.21984e-015
vt 106.299 90.4741
vt 106.299 4.48855
vt 11.811 4.48855
f 47/168/34 50/169/34 16/170/34 15/171/34 

usemtl Red
vt 0.9 -0.029584
vn 0.5547 0.83205 2.29737e-015
vt 0.9 0.210786
vt 0.1 0.210786
vt 0.1 -0.029584
f 50/172/35 64/173/35 48/174/35 47/175/35 

usemtl BackColor
vt 11.811 -3.49417
vn -0.5547 -0.83205 -2.29737e-015
vt 11.811 24.896
vt 106.299 24.896
vt 106.299 -3.49417
f 47/176/36 48/177/36 64/178/36 50/179/36 

vn 5.77529e-015 -1.27941e-029 -1
vt 35.4331 117.717
vt 59.0551 133.465
vt 82.6772 117.717
f 13/80/37 49/180/37 48/181/37 47/182/37 15/81/37 

usemtl Brown
vt -0.1 1.04074
vn -0.961524 0.274721 -4.35878e-015
vt -0.9 1.04074
vt -0.9 0.312724
vt -0.1 0.312724
f 49/183/38 63/184/38 14/185/38 13/186/38 

usemtl BackColor
vt -11.811 36.9359
vn 0.961524 -0.274721 4.35878e-015
vt -106.299 36.9359
vt -106.299 122.921
vt -11.811 122.921
f 13/187/39 14/188/39 63/189/39 49/190/39 

usemtl Red
vt -0.1 0.802466
vn -0.5547 0.83205 -1.87357e-015
vt -0.1 1.04284
vt -0.9 1.04284
vt -0.9 0.802466
f 49/191/40 48/192/40 64/193/40 63/194/40 

usemtl BackColor
vt -106.299 94.7795
vn 0.5547 -0.83205 1.87357e-015
vt -106.299 123.17
vt -11.811 123.17
vt -11.811 94.7795
f 63/195/41 64/196/41 48/197/41 49/198/41 

usemtl Red
vt 1 0.0633333
f 2/199/28 1/115/28 10/75/28 11/74/28 

usemtl BackColor
vt 118.11 7.48031
f 11/83/29 10/82/29 1/116/29 2/200/29 

vn 1.27824e-029 -1 -1.36678e-015
vt 106.299 2.37598e-013
vt 11.811 6.92345e-013
vt 35.4331 11.811
vt 35.4331 106.299
f 2/30/42 62/111/42 17/39/42 18/59/42 32/58/42 33/40/42 55/201/42 61/202/42 12/26/42 34/203/42 30/204/42 11/25/42 

usemtl Green
vt -0.9 2.84965e-015
vn 6.01593e-015 -2.84965e-015 -1
vt -0.1 2.84965e-015
f 59/205/43 3/206/43 2/2/43 62/31/43 

usemtl BackColor
vn -6.01593e-015 2.84965e-015 1
vt -11.811 3.36573e-013
vt -106.299 3.36573e-013
f 62/34/44 2/9/44 3/207/44 59/208/44 

usemtl Red
vt -1 3.12258e-015
vn 6.52108e-015 -3.12258e-015 -1
vt -0.9 3.12258e-015
f 58/209/45 59/210/45 62/31/45 52/32/45 51/13/45 

usemtl BackColor
vn -6.52108e-015 3.12258e-015 1
vt -106.299 3.68809e-013
vt -118.11 3.68809e-013
f 51/16/46 52/33/46 62/34/46 59/211/46 58/212/46 

usemtl Red
vn -1 0 -0
vt -1 0.0633333
f 52/13/47 62/213/47 17/31/47 31/32/47 

usemtl BackColor
vn 1 -0 0
vt -118.11 7.48031
f 31/33/48 17/34/48 62/214/48 52/16/48 

usemtl Red
vn 1 0 7.84543e-015
f 31/75/49 46/78/49 33/60/49 17/74/49 

usemtl BackColor
vn -1 -0 -7.84543e-015
f 17/83/50 33/97/50 46/79/50 31/82/50 

usemtl Red
vt -1.9251e-015 0.0633333
vt -1.9251e-015 0.146667
f 55/215/47 53/216/47 46/1/47 33/2/47 

usemtl BackColor
vt -2.27374e-013 17.3228
vt -2.27374e-013 7.48031
f 33/9/48 46/10/48 53/217/48 55/218/48 

usemtl Brown
vt -0.1 -0.144372
vn -0.956187 -0.292758 -6.01145e-015
vt -0.1 -0.0973891
vn -0.915961 -0.401267 -8.22741e-015
vt -0.9 -0.0973891
vt -0.9 -0.144372
f 32/219/51 45/220/52 19/221/52 18/222/51 

usemtl BackColor
vt -106.299 -17.0518
vn 0.956187 0.292758 6.01145e-015
vt -106.299 -11.5027
vn 0.915961 0.401267 8.22741e-015
vt -11.811 -11.5027
vt -11.811 -17.0518
f 18/223/53 19/224/54 45/225/54 32/226/53 

usemtl Brown
vt -0.1 -0.252666
vt -0.1 -0.205684
vn -0.799413 -0.600782 -1.02044e-014
vt -0.9 -0.205684
vt -0.9 -0.252666
f 45/227/52 44/228/55 20/229/55 19/230/52 

usemtl BackColor
vt -106.299 -29.8425
vt -106.299 -24.2933
vn 0.799413 0.600782 1.02044e-014
vt -11.811 -24.2933
vt -11.811 -29.8425
f 19/231/54 20/232/56 44/233/56 45/234/54 

usemtl Brown
vt -0.1 -0.348725
vt -0.1 -0.301743
vn -0.640184 -0.768221 -9.54026e-015
vt -0.9 -0.301743
vt -0.9 -0.348725
f 44/235/55 43/236/57 21/237/57 20/238/55 

usemtl BackColor
vt -106.299 -41.188
vt -106.299 -35.6389
vn 0.640184 0.768221 9.54026e-015
vt -11.811 -35.6389
vt -11.811 -41.188
f 20/239/56 21/240/58 43/241/58 44/242/56 

usemtl Brown
vt -0.1 -0.42742
vt -0.1 -0.380437
vn -0.446776 -0.894646 -8.36682e-015
vt -0.9 -0.380437
vt -0.9 -0.42742
f 43/243/57 42/244/59 22/245/59 21/246/57 

usemtl BackColor
vt -106.299 -50.4827
vt -106.299 -44.9335
vn 0.446776 0.894646 8.36682e-015
vt -11.811 -44.9335
vt -11.811 -50.4827
f 21/247/58 22/248/60 42/249/60 43/250/58 

usemtl Brown
vt -0.1 -0.484549
vt -0.1 -0.437566
vn -0.229515 -0.973305 -6.74667e-015
vt -0.9 -0.437566
vt -0.9 -0.484549
f 42/251/59 41/252/61 23/253/61 22/254/59 

usemtl BackColor
vt -106.299 -57.2302
vt -106.299 -51.6811
vn 0.229515 0.973305 6.74667e-015
vt -11.811 -51.6811
vt -11.811 -57.2302
f 22/255/60 23/256/62 41/257/62 42/258/60 

usemtl Brown
vt -0.1 -0.517062
vt -0.1 -0.47008
vn -3.14355e-016 -1 -4.76632e-015
vt -0.9 -0.47008
vt -0.9 -0.517062
f 41/259/61 40/260/63 24/261/63 23/262/61 

usemtl BackColor
vt -106.299 -61.0704
vt -106.299 -55.5212
vn 3.14355e-016 1 4.76632e-015
vt -11.811 -55.5212
vt -11.811 -61.0704
f 23/263/62 24/264/64 40/265/64 41/266/62 

usemtl Brown
vt 0.1 0.523224
vt 0.1 0.476241
vn 0.229515 -0.973305 -2.5315e-015
vt 0.9 0.476241
vt 0.9 0.523224
f 40/267/63 39/268/65 25/269/65 24/270/63 

usemtl BackColor
vt 106.299 61.7981
vt 106.299 56.249
vn -0.229515 0.973305 2.5315e-015
vt 11.811 56.249
vt 11.811 61.7981
f 24/271/64 25/272/66 39/273/66 40/274/64 

usemtl Brown
vt 0.1 0.502705
vt 0.1 0.455722
vn 0.446776 -0.894646 -1.61521e-016
vt 0.9 0.455722
vt 0.9 0.502705
f 39/275/65 38/276/67 26/277/67 25/278/65 

usemtl BackColor
vt 106.299 59.3746
vt 106.299 53.8255
vn -0.446776 0.894646 1.61521e-016
vt 11.811 53.8255
vt 11.811 59.3746
f 25/279/66 26/280/68 38/281/68 39/282/66 

usemtl Brown
vt 0.1 0.456601
vt 0.1 0.409618
vn 0.640184 -0.768221 2.21708e-015
vt 0.9 0.409618
vt 0.9 0.456601
f 38/283/67 37/284/69 27/285/69 26/286/67 

usemtl BackColor
vt 106.299 53.9293
vt 106.299 48.3801
vn -0.640184 0.768221 -2.21708e-015
vt 11.811 48.3801
vt 11.811 53.9293
f 26/287/68 27/288/70 37/289/70 38/290/68 

usemtl Brown
vt 0.1 0.387373
vt 0.1 0.340391
vn 0.799413 -0.600782 4.47731e-015
vt 0.9 0.340391
vt 0.9 0.387373
f 37/291/69 36/292/71 28/293/71 27/294/69 

usemtl BackColor
vt 106.299 45.7528
vt 106.299 40.2036
vn -0.799413 0.600782 -4.47731e-015
vt 11.811 40.2036
vt 11.811 45.7528
f 27/295/70 28/296/72 36/297/72 37/298/70 

usemtl Brown
vt 0.1 0.298718
vt 0.1 0.251735
vn 0.915961 -0.401267 7.86307e-015
vt 0.9 0.251735
vt 0.9 0.298718
f 36/299/71 35/300/73 29/301/73 28/302/71 

usemtl BackColor
vt 106.299 35.2817
vt 106.299 29.7325
vn -0.915961 0.401267 -7.86307e-015
vt 11.811 29.7325
vt 11.811 35.2817
f 28/303/72 29/304/74 35/305/74 36/306/72 

usemtl Brown
vt 0.1 0.195368
vt 0.1 0.148386
vn 0.956187 -0.292758 1.00959e-014
vt 0.9 0.148386
vt 0.9 0.195368
f 35/307/73 34/308/75 30/309/75 29/310/73 

usemtl BackColor
vt 106.299 23.075
vt 106.299 17.5259
vn -0.956187 0.292758 -1.00959e-014
vt 11.811 17.5259
vt 11.811 23.075
f 29/311/74 30/312/76 34/313/76 35/314/74 

usemtl Red
vn -9.73828e-015 1 2.43457e-015
f 34/146/77 30/145/77 11/24/77 12/23/77 

usemtl BackColor
vn 9.73828e-015 -1 -2.43457e-015
f 12/26/78 11/25/78 30/204/78 34/203/78 

usemtl Green
vt 0.1 -1.22003e-029
vn -6.46712e-015 -1.89977e-015 1
vt 0.9 -1.47147e-029
f 60/315/79 56/316/79 55/74/79 61/60/79 

usemtl BackColor
vn 6.46712e-015 1.89977e-015 -1
vt 106.299 -1.73795e-027
vt 11.811 -1.44098e-027
f 61/97/80 55/83/80 56/317/80 60/318/80 

