
<svg xmlns="http://www.w3.org/2000/svg" version="1.1" xmlns:xlink="http://www.w3.org/1999/xlink" preserveAspectRatio="none" x="0px" y="0px" width="550px" height="400px" viewBox="0 0 550 400">
<defs>
<g id="Layer0_0_FILL">
<path fill="#AF7F51" stroke="none" d="
M 63.4 265.05
L 71 285.4
Q 69.15 269.4 67.95 245.05
L 63.4 265.05
M 50.3 295.75
L 55.8 288.6 52.4 278.75
Q 51.45 288.5 50.3 295.75
M 54.65 246.65
L 59.35 229.75 55.95 213.5
Q 55.4 231.7 54.65 246.65 Z"/>

<path fill="#BD8958" stroke="none" d="
M 66.6 203.05
Q 64.15 203.1 61.65 203.1 55.6 203.1 49.8 202.75
L 56 210.15 56 210.3
Q 55.95 211.9 55.95 213.5
L 59.35 229.75 54.65 246.65
Q 54.5 250 54.3 253.2
L 42.95 243.9
Q 42.25 243.4 41.55 243.4 40.75 243.5 40.1 244.1
L 39.65 244.6
Q 39 245.2 38.95 245.95 38.9 246.8 39.45 247.35 53.2 256.35 53.7 262.85 53.1 271.5 52.4 278.75
L 55.8 288.6 50.3 295.75
Q 50.05 297 49.85 298.25 49.75 298.75 49.95 299.2 50.15 299.6 50.55 299.9 50.95 300.15 51.4 300.15
L 71.2 300.15
Q 71.7 300.15 72.1 299.9 72.5 299.6 72.65 299.2 72.85 298.75 72.8 298.25 71.8 292.7 71 285.4
L 63.4 265.05 67.95 245.05
Q 67.65 239.15 67.4 232.75 71.5 224.4 79.2 221.2 79.7 220.9 79.8 220.35 79.9 219.85 79.6 219.35
L 79.4 218.9
Q 79.1 218.45 78.55 218.25 78.1 218.1 77.55 218.3
L 67.05 223.1
Q 66.8 216.9 66.65 210.3
L 66.6 203.05 Z"/>

<path fill="#198A49" stroke="none" d="
M 94.15 189.5
L 94.45 191.45
Q 94.5 191.45 94.6 191.5 95.3 191.75 95.9 192.25 95.95 192.25 95.95 192.3 97.8 193.7 98.15 195.95 98.15 196.1 98.15 196.2 98.2 196.45 98.2 196.7 98.23671875 198.09453125 97.6 199.3 102.166796875 198.28515625 106.6 197 113 195.35 111.6 191 110.5 187.45 109.3 184.1 101.5732421875 186.86796875 93.8 188.7 94.09140625 189.0111328125 94.15 189.5
M 65.8 171.4
Q 67.5 171.3 69.25 171.1 84.3 169.45 99.6 162.15 99.3 161.65 99 161.1 83.2 166.95 67.7 168.05
L 65.8 171.4
M 11 192.25
Q 11.65 195.65 16.9 197.35 32.3 201.65 49.8 202.75 55.6 203.1 61.65 203.1 64.15 203.1 66.6 203.05 78.0302734375 202.7263671875 88.75 201 87.26171875 199.6927734375 86.95 197.6 86.9 197.15 86.85 196.7 86.9 196.45 86.9 196.2 87.05 194.7 88 193.4 88.1 193.25 88.25 193.1 88.6 192.7 88.95 192.4
L 88.7 190.6
Q 88.6404296875 190.1833984375 88.7 189.85 79.486328125 191.7107421875 70.2 192.3 69.773046875 192.3275390625 69.35 192.35
L 70.8 192.9 69.65 196.4 69.4 200.15 65.75 200.1 62.2 201.05 61.15 197.45 59.1 194.3 61.65 192.55
Q 58.9162109375 192.5677734375 56.15 192.45 47.3 192.1 38.4 190.6 25.05 191.9 11 192.25
M 58.6 123.4
L 58.6 119.5
Q 45.3 119.15 32.2 114.95 31.9 115.65 31.65 116.35 45 122.9 58.6 123.4
M 65.05 66.95
Q 63.8 68.85 62.4 70.55 70 69.9 77.5 65.6 77.2 65.05 76.9 64.55 71 66.4 65.05 66.95 Z"/>

<path fill="#E74C3C" stroke="none" d="
M 86.9 196.7
L 86.85 196.7
Q 86.9 197.15 86.95 197.6 87.26171875 199.6927734375 88.75 201 88.9474609375 201.1521484375 89.15 201.3 91 202.7 93.35 202.35 95.65 202.05 97.05 200.15 97.369140625 199.7376953125 97.6 199.3 98.23671875 198.09453125 98.2 196.7
L 98.15 196.7
Q 92.45 197.95 86.9 196.7
M 29.75 159.1
L 29.7 159.1
Q 29.65078125 160.973046875 30.8 162.5 30.8330078125 162.5279296875 30.85 162.55 32.25 164.45 34.55 164.75 36.672265625 165.066015625 38.35 163.95 38.570703125 163.8357421875 38.75 163.7 40.6 162.35 40.95 160 41 159.55 41.05 159.1
L 41 159.1
Q 35.45 160.35 29.75 159.1
M 71.55 117.2
L 71.5 117.2
Q 71.55 117.65 71.6 118.1 71.6166015625 118.2109375 71.6 118.3 72.0373046875 120.5138671875 73.8 121.8 75.65 123.2 78 122.85 80.3 122.55 81.7 120.65 82.9 119.1 82.85 117.2
L 82.8 117.2
Q 79.3333984375 117.96015625 75.9 117.8 73.724609375 117.68984375 71.55 117.2
M 47.8 63.8
Q 47.772265625 64.85234375 48.1 65.8 48.4146484375 66.5583984375 48.95 67.25 50.35 69.15 52.65 69.45 55 69.8 56.85 68.4 57.76640625 67.73125 58.3 66.8 58.8734375 65.8859375 59.05 64.7 59.1 64.25 59.15 63.8
L 59.1 63.8
Q 53.55 65.05 47.85 63.8
L 47.8 63.8 Z"/>

<path fill="#F5503F" stroke="none" d="
M 86.9 196.2
Q 86.9 196.45 86.85 196.7
L 86.9 196.7
Q 92.45 197.95 98.15 196.7
L 98.2 196.7
Q 98.2 196.45 98.15 196.2 98.15 196.1 98.15 195.95 97.8 193.7 95.95 192.3 95.95 192.25 95.9 192.25 95.3 191.75 94.6 191.5 94.5 191.45 94.45 191.45 93.2 190.95 91.75 191.15 90.2 191.4 89.1 192.3 89.05 192.35 88.95 192.4 88.6 192.7 88.25 193.1 88.1 193.25 88 193.4 87.05 194.7 86.9 196.2
M 33.3 153.9
Q 32.6 154.15 32 154.65 31.95 154.65 31.95 154.7 30.1 156.1 29.75 158.35 29.75 158.5 29.75 158.6 29.7 158.85 29.7 159.1
L 29.75 159.1
Q 35.45 160.35 41 159.1
L 41.05 159.1
Q 41 158.85 41 158.6 40.85 157.1 39.9 155.8 39.8 155.65 39.65 155.5 39.3 155.1 38.95 154.8 38.85 154.75 38.8 154.7 37.7 153.8 36.15 153.55 34.7 153.35 33.45 153.85 33.4 153.85 33.3 153.9
M 80.6 112.8
Q 80.6 112.75 80.55 112.75 79.95 112.25 79.25 112 79.15 111.95 79.1 111.95 77.85 111.45 76.4 111.65 74.85 111.9 73.75 112.8 73.7 112.85 73.6 112.9 73.25 113.2 72.9 113.6 72.75 113.75 72.65 113.9 71.7 115.2 71.55 116.7 71.55 116.95 71.5 117.2
L 71.55 117.2
Q 73.724609375 117.68984375 75.9 117.8 79.3333984375 117.96015625 82.8 117.2
L 82.85 117.2
Q 82.85 116.95 82.8 116.7 82.8 116.6482421875 82.8 116.55 82.8 116.5224609375 82.8 116.45 82.45 114.2 80.6 112.8
M 51.55 58.55
Q 51.5 58.55 51.4 58.6 50.7 58.85 50.1 59.35 50.05 59.35 50.05 59.4 48.2 60.8 47.85 63.05 47.85 63.2 47.85 63.3 47.8 63.55 47.8 63.8
L 47.85 63.8
Q 53.55 65.05 59.1 63.8
L 59.15 63.8
Q 59.1 63.55 59.1 63.3 58.95 61.8 58 60.5 57.9 60.35 57.75 60.2 57.4 59.8 57.05 59.5 56.95 59.45 56.9 59.4 55.8 58.5 54.25 58.25 52.8 58.05 51.55 58.55 Z"/>

<path fill="#CBDBE9" stroke="none" d="
M 88.7 189.85
Q 88.6404296875 190.1833984375 88.7 190.6
L 88.95 192.4
Q 89.05 192.35 89.1 192.3 90.2 191.4 91.75 191.15 93.2 190.95 94.45 191.45
L 94.15 189.5
Q 94.09140625 189.0111328125 93.8 188.7 93.3353515625 188.2890625 92.3 188.35
L 90.4 188.65
Q 88.9142578125 188.80234375 88.7 189.85
M 39.2 153
Q 39.45 151.25 37.5 151.05
L 35.6 150.75
Q 33.9 150.65 33.75 151.9
L 33.45 153.85
Q 34.7 153.35 36.15 153.55 37.7 153.8 38.8 154.7 38.85 154.75 38.95 154.8
L 39.2 153
M 75.05 109.15
Q 73.1 109.35 73.35 111.1
L 73.6 112.9
Q 73.7 112.85 73.75 112.8 74.85 111.9 76.4 111.65 77.85 111.45 79.1 111.95
L 78.8 110
Q 78.65 108.75 76.95 108.85
L 75.05 109.15
M 51.85 56.6
L 51.55 58.55
Q 52.8 58.05 54.25 58.25 55.8 58.5 56.9 59.4 56.95 59.45 57.05 59.5
L 57.3 57.7
Q 57.55 55.95 55.6 55.75
L 53.7 55.45
Q 52 55.35 51.85 56.6 Z"/>

<path fill="#FFFFFF" stroke="none" d="
M 62.15 192.25
L 61.65 192.55 59.1 194.3 61.15 197.45 62.2 201.05 65.75 200.1 69.4 200.15 69.65 196.4 70.8 192.9 69.35 192.35 67.35 191.6 64.4 189.45 62.15 192.25
M 22.75 160.6
Q 22.7 160.7 22.65 160.8 14.2 173 11 185.85 10.4 188.2 10 190.6 10.45 190.75 10.9 190.9 10.85 191.6 11 192.25 25.05 191.9 38.4 190.6 31 189.35 23.55 187.35 24.65 186.45 25.75 185.3
L 26.8 184.25 33.25 177.6
Q 48.9 179.45 64.25 174.1
L 65.8 171.4 67.7 168.05 68.25 167.1
Q 52.323828125 166.3431640625 38.35 163.95 36.672265625 165.066015625 34.55 164.75 32.25 164.45 30.85 162.55 30.8330078125 162.5279296875 30.8 162.5 26.690234375 161.63125 22.75 160.6
M 78.65 158.85
L 78.75 162.65 82.45 162.65 85.95 163.65 87.15 160.05 89.15 157 86.15 154.85 83.9 152.05 81 154.15 77.5 155.35 78.65 158.85
M 73.8 121.8
Q 72.0373046875 120.5138671875 71.6 118.3 64.910546875 118.9974609375 58.6 118.7
L 58.6 119.5 58.6 123.4 58.6 125.35 67.1 127.45
Q 68.75 133.95 74.35 139.95
L 85.75 139.95
Q 92.35 140.55 95.7 144.7 96.6 145.85 97.25 147.2
L 100.15 147.2 101.75 147.2
Q 101.7 146.25 101.6 145.25 100.25 131.95 90.6 114.7 86.6400390625 115.7853515625 82.8 116.55 82.8 116.6482421875 82.8 116.7 82.85 116.95 82.85 117.2 82.9 119.1 81.7 120.65 80.3 122.55 78 122.85 75.65 123.2 73.8 121.8
M 53.45 111.1
L 54.65 107.65 51.2 106.35 48.3 104.2 46 107 42.95 109.1 44.95 112.15 46.05 115.8 49.65 114.8 53.25 114.85 53.45 111.1
M 35 88.6
L 35.45 88.6 38.15 88.6 46.5 79.25
Q 51.1 79.85 55.85 76.65 59.45 74.15 62.4 70.55 63.8 68.85 65.05 66.95 65.1 66.85 65.15 66.75 61.683203125 66.9259765625 58.3 66.8 57.76640625 67.73125 56.85 68.4 55 69.8 52.65 69.45 50.35 69.15 48.95 67.25 48.4146484375 66.5583984375 48.1 65.8 47.1849609375 65.6359375 46.25 65.45
L 45.95 65.4
Q 45.5 65.3 45.1 65.2 44.6 65.1 44.15 65 38 75.85 35 88.6
M 72.45 71.95
L 69.5 74.1 66.05 75.35 67.2 78.8 67.3 82.55 71 82.55 74.5 83.55 75.65 80 77.7 76.95 74.7 74.8 72.45 71.95
M 60.85 10
Q 52.25 25.55 46.25 43
L 47.35 43.75 47.9 44.1 52.25 47
Q 57.45 49.85 63.5 44.25
L 76 57.75 78.65 57.75 79.25 57.75 80.25 57.75
Q 79.85 56.45 79.5 55.15 72.75 32.8 63.25 10
L 60.85 10 Z"/>

<path fill="#1B914D" stroke="none" d="
M 61.65 192.55
L 62.15 192.25 64.4 189.45 67.35 191.6 69.35 192.35
Q 69.773046875 192.3275390625 70.2 192.3 79.486328125 191.7107421875 88.7 189.85 88.9142578125 188.80234375 90.4 188.65
L 92.3 188.35
Q 93.3353515625 188.2890625 93.8 188.7 101.5732421875 186.86796875 109.3 184.1 107.9 180.15 106.35 176.4 75.25 187.05 38.4 190.6 47.3 192.1 56.15 192.45 58.9162109375 192.5677734375 61.65 192.55
M 33.25 177.6
L 26.8 184.25
Q 64.25 179.55 101.7 166.15 100.8 164.35 99.85 162.65 99.7 162.4 99.6 162.15 84.3 169.45 69.25 171.1 67.5 171.3 65.8 171.4
L 64.25 174.1
Q 48.9 179.45 33.25 177.6
M 37.5 151.05
Q 39.45 151.25 39.2 153
L 38.95 154.8
Q 39.3 155.1 39.65 155.5 39.8 155.65 39.9 155.8 40.85 157.1 41 158.6 41 158.85 41.05 159.1 41 159.55 40.95 160 40.6 162.35 38.75 163.7 38.570703125 163.8357421875 38.35 163.95 52.323828125 166.3431640625 68.25 167.1
L 67.7 168.05
Q 83.2 166.95 99 161.1
L 102.9 159.05
Q 101.95 154.75 101 150.75 58.65 149.55 24.35 138.55 21.7 147.95 19.3 159.05
L 22.65 160.8
Q 22.7 160.7 22.75 160.6 26.690234375 161.63125 30.8 162.5 29.65078125 160.973046875 29.7 159.1 29.7 158.85 29.75 158.6 29.75 158.5 29.75 158.35 30.1 156.1 31.95 154.7 31.95 154.65 32 154.65 32.6 154.15 33.3 153.9 33.4 153.85 33.45 153.85
L 33.75 151.9
Q 33.9 150.65 35.6 150.75
L 37.5 151.05
M 78.75 162.65
L 78.65 158.85 77.5 155.35 81 154.15 83.9 152.05 86.15 154.85 89.15 157 87.15 160.05 85.95 163.65 82.45 162.65 78.75 162.65
M 74.35 139.95
Q 68.75 133.95 67.1 127.45
L 58.6 125.35 58.6 123.4
Q 45 122.9 31.65 116.35 31.55 116.5 31.5 116.7 29.2 122.5 27.05 129.4 61.35 141.3 95.7 144.7 92.35 140.55 85.75 139.95
L 74.35 139.95
M 73.35 111.1
Q 73.1 109.35 75.05 109.15
L 76.95 108.85
Q 78.65 108.75 78.8 110
L 79.1 111.95
Q 79.15 111.95 79.25 112 79.95 112.25 80.55 112.75 80.6 112.75 80.6 112.8 82.45 114.2 82.8 116.45 82.8 116.5224609375 82.8 116.55 86.6400390625 115.7853515625 90.6 114.7
L 94.2 113.2
Q 91.4 103.05 88.75 94.7 62.05 101.45 31 102.8 29.5 107.75 28 113.2
L 32.2 114.95
Q 45.3 119.15 58.6 119.5
L 58.6 118.7
Q 64.910546875 118.9974609375 71.6 118.3 71.6166015625 118.2109375 71.6 118.1 71.55 117.65 71.5 117.2 71.55 116.95 71.55 116.7 71.7 115.2 72.65 113.9 72.75 113.75 72.9 113.6 73.25 113.2 73.6 112.9
L 73.35 111.1
M 54.65 107.65
L 53.45 111.1 53.25 114.85 49.65 114.8 46.05 115.8 44.95 112.15 42.95 109.1 46 107 48.3 104.2 51.2 106.35 54.65 107.65
M 35.45 88.6
Q 34.15 92.45 32.8 96.8 59.35 93.95 85.9 86.05 81.65 73.6 77.8 66.2 77.6 65.9 77.5 65.6 70 69.9 62.4 70.55 59.45 74.15 55.85 76.65 51.1 79.85 46.5 79.25
L 38.15 88.6 35.45 88.6
M 69.5 74.1
L 72.45 71.95 74.7 74.8 77.7 76.95 75.65 80 74.5 83.55 71 82.55 67.3 82.55 67.2 78.8 66.05 75.35 69.5 74.1
M 63.5 44.25
Q 57.45 49.85 52.25 47
L 47.9 44.1
Q 46.1 49.3 44.35 55.15 43.15 59.05 42 63.25
L 45.1 65.15
Q 45.5 65.25 45.95 65.4
L 46.25 65.45
Q 47.1849609375 65.6359375 48.1 65.8 47.772265625 64.85234375 47.8 63.8 47.8 63.55 47.85 63.3 47.85 63.2 47.85 63.05 48.2 60.8 50.05 59.4 50.05 59.35 50.1 59.35 50.7 58.85 51.4 58.6 51.5 58.55 51.55 58.55
L 51.85 56.6
Q 52 55.35 53.7 55.45
L 55.6 55.75
Q 57.55 55.95 57.3 57.7
L 57.05 59.5
Q 57.4 59.8 57.75 60.2 57.9 60.35 58 60.5 58.95 61.8 59.1 63.3 59.1 63.55 59.15 63.8 59.1 64.25 59.05 64.7 58.8734375 65.8859375 58.3 66.8 61.683203125 66.9259765625 65.15 66.75 65.1 66.85 65.05 66.95 71 66.4 76.9 64.55
L 80.2 63.15
Q 79.45 60.4 78.65 57.75
L 76 57.75 63.5 44.25 Z"/>

<path fill="#FFEEC7" stroke="none" d="
M 23.55 187.35
Q 31 189.35 38.4 190.6 75.25 187.05 106.35 176.4 104.1 171.05 101.7 166.15 64.25 179.55 26.8 184.25
L 25.75 185.3
Q 24.65 186.45 23.55 187.35
M 27.05 129.4
Q 25.65 133.75 24.35 138.55 58.65 149.55 101 150.75 100.6 148.95 100.15 147.2
L 97.25 147.2
Q 96.6 145.85 95.7 144.7 61.35 141.3 27.05 129.4
M 88.75 94.7
Q 87.3 90.1 85.9 86.05 59.35 93.95 32.8 96.8 31.9 99.7 31 102.8 62.05 101.45 88.75 94.7 Z"/>

<path fill="#76AF1C" stroke="none" d="
M 45.1 65.15
L 45.1 65.2
Q 45.5 65.3 45.95 65.4 45.5 65.25 45.1 65.15 Z"/>

<path fill="#21B861" stroke="none" d="
M 79.25 57.75
L 78.65 57.75
Q 79.45 60.4 80.2 63.15
L 80.7 62.95
Q 79.95 60.3 79.25 57.75
M 47.9 44.1
L 47.35 43.75
Q 45.5 49.15 43.75 55.15 42.6 58.9 41.5 62.95
L 42 63.25
Q 43.15 59.05 44.35 55.15 46.1 49.3 47.9 44.1 Z"/>
</g>

<g id="Layer0_1_FILL">
<path fill="#E74C3C" stroke="none" d="
M 213.45 293.75
Q 213.5 294.2 213.55 294.65 213.86171875 296.7431640625 215.35 298.05 215.5478515625 298.2025390625 215.75 298.35 217.6 299.75 219.95 299.4 222.25 299.1 223.65 297.2 223.9681640625 296.7888671875 224.2 296.35 224.83671875 295.14609375 224.8 293.75
L 224.75 293.75
Q 219.05 295 213.5 293.75
L 213.45 293.75
M 209.4 214.25
Q 205.92578125 215.0119140625 202.5 214.85 200.3171875 214.7380859375 198.15 214.25
L 198.1 214.25
Q 198.15 214.7 198.2 215.15 198.21640625 215.2595703125 198.2 215.35 198.636328125 217.562890625 200.4 218.85 202.25 220.25 204.6 219.9 206.9 219.6 208.3 217.7 209.5 216.15 209.45 214.25
L 209.4 214.25
M 156.35 256.15
L 156.3 256.15
Q 156.25078125 258.0234375 157.4 259.55 157.433203125 259.5783203125 157.45 259.6 158.85 261.5 161.15 261.8 163.276171875 262.1166015625 165 261 165.173828125 260.8833984375 165.35 260.75 167.2 259.4 167.55 257.05 167.6 256.6 167.65 256.15
L 167.6 256.15
Q 162.05 257.4 156.35 256.15
M 185.75 160.85
L 185.7 160.85
Q 180.15 162.1 174.45 160.85
L 174.4 160.85
Q 174.372265625 161.90234375 174.7 162.85 175.0146484375 163.6083984375 175.55 164.3 176.95 166.2 179.25 166.5 181.6 166.85 183.45 165.45 184.36640625 164.78125 184.9 163.85 185.4734375 162.9357421875 185.65 161.75 185.7 161.3 185.75 160.85 Z"/>

<path fill="#F5503F" stroke="none" d="
M 222.55 289.35
Q 222.55 289.3 222.5 289.3 221.9 288.8 221.2 288.55 221.1 288.5 221.05 288.5 219.8 288 218.35 288.2 216.8 288.45 215.7 289.35 215.65 289.4 215.55 289.45 215.2 289.75 214.85 290.15 214.7 290.3 214.6 290.45 213.65 291.75 213.5 293.25 213.5 293.5 213.45 293.75
L 213.5 293.75
Q 219.05 295 224.75 293.75
L 224.8 293.75
Q 224.8 293.5 224.75 293.25 224.75 293.15 224.75 293 224.4 290.75 222.55 289.35
M 205.7 209
Q 204.45 208.5 203 208.7 201.45 208.95 200.35 209.85 200.3 209.9 200.2 209.95 199.85 210.25 199.5 210.65 199.35 210.8 199.25 210.95 198.3 212.25 198.15 213.75 198.15 214 198.1 214.25
L 198.15 214.25
Q 200.3171875 214.7380859375 202.5 214.85 205.92578125 215.0119140625 209.4 214.25
L 209.45 214.25
Q 209.45 214 209.4 213.75 209.4 213.698046875 209.4 213.6 209.4 213.572265625 209.4 213.5 209.05 211.25 207.2 209.85 207.2 209.8 207.15 209.8 206.55 209.3 205.85 209.05 205.75 209 205.7 209
M 159.9 250.95
Q 159.2 251.2 158.6 251.7 158.55 251.7 158.55 251.75 156.7 253.15 156.35 255.4 156.35 255.55 156.35 255.65 156.3 255.9 156.3 256.15
L 156.35 256.15
Q 162.05 257.4 167.6 256.15
L 167.65 256.15
Q 167.6 255.9 167.6 255.65 167.45 254.15 166.5 252.85 166.4 252.7 166.25 252.55 165.9 252.15 165.55 251.85 165.45 251.8 165.4 251.75 164.3 250.85 162.75 250.6 161.3 250.4 160.05 250.9 160 250.9 159.9 250.95
M 185.75 160.85
Q 185.7 160.6 185.7 160.35 185.55 158.85 184.6 157.55 184.5 157.4 184.35 157.25 184 156.85 183.65 156.55 183.55 156.5 183.5 156.45 182.4 155.55 180.85 155.3 179.4 155.1 178.15 155.6 178.1 155.6 178 155.65 177.3 155.9 176.7 156.4 176.65 156.4 176.65 156.45 174.8 157.85 174.45 160.1 174.45 160.25 174.45 160.35 174.4 160.6 174.4 160.85
L 174.45 160.85
Q 180.15 162.1 185.7 160.85
L 185.75 160.85 Z"/>

<path fill="#198A49" stroke="none" d="
M 220.4 285.75
Q 220.6916015625 286.0638671875 220.75 286.55
L 221.05 288.5
Q 221.1 288.5 221.2 288.55 221.9 288.8 222.5 289.3 222.55 289.3 222.55 289.35 224.4 290.75 224.75 293 224.75 293.15 224.75 293.25 224.8 293.5 224.8 293.75 224.83671875 295.14609375 224.2 296.35 228.7646484375 295.3357421875 233.2 294.05 239.6 292.4 238.2 288.05 237.1 284.5 235.9 281.15 228.1732421875 283.9181640625 220.4 285.75
M 194.3 265.1
L 192.4 268.45
Q 194.1 268.35 195.85 268.15 210.9 266.5 226.2 259.2 225.9 258.7 225.6 258.15 209.8 264 194.3 265.1
M 137.6 289.3
Q 138.25 292.7 143.5 294.4 158.9 298.7 176.4 299.8 182.2 300.15 188.25 300.15 190.75 300.15 193.2 300.1 204.6306640625 299.7765625 215.35 298.05 213.86171875 296.7431640625 213.55 294.65 213.5 294.2 213.45 293.75 213.5 293.5 213.5 293.25 213.65 291.75 214.6 290.45 214.7 290.3 214.85 290.15 215.2 289.75 215.55 289.45
L 215.3 287.65
Q 215.2400390625 287.23046875 215.3 286.9 206.0865234375 288.7607421875 196.8 289.35 196.3728515625 289.3775390625 195.95 289.4
L 197.4 289.95 196.25 293.45 196 297.2 192.35 297.15 188.8 298.1 187.75 294.5 185.7 291.35 188.25 289.6
Q 185.516015625 289.6177734375 182.75 289.5 173.9 289.15 165 287.65 151.65 288.95 137.6 289.3
M 158.8 212
Q 158.5 212.7 158.25 213.4 171.6 219.95 185.2 220.45
L 185.2 216.55
Q 171.9 216.2 158.8 212
M 191.65 164
Q 190.4 165.9 189 167.6 196.6 166.95 204.1 162.65 203.8 162.1 203.5 161.6 197.6 163.45 191.65 164 Z"/>

<path fill="#CBDBE9" stroke="none" d="
M 220.4 285.75
Q 219.9388671875 285.3388671875 218.9 285.4
L 217 285.7
Q 215.5173828125 285.8521484375 215.3 286.9 215.2400390625 287.23046875 215.3 287.65
L 215.55 289.45
Q 215.65 289.4 215.7 289.35 216.8 288.45 218.35 288.2 219.8 288 221.05 288.5
L 220.75 286.55
Q 220.6916015625 286.0638671875 220.4 285.75
M 203 208.7
Q 204.45 208.5 205.7 209
L 205.4 207.05
Q 205.25 205.8 203.55 205.9
L 201.65 206.2
Q 199.7 206.4 199.95 208.15
L 200.2 209.95
Q 200.3 209.9 200.35 209.85 201.45 208.95 203 208.7
M 160.35 248.95
L 160.05 250.9
Q 161.3 250.4 162.75 250.6 164.3 250.85 165.4 251.75 165.45 251.8 165.55 251.85
L 165.8 250.05
Q 166.05 248.3 164.1 248.1
L 162.2 247.8
Q 160.5 247.7 160.35 248.95
M 183.5 156.45
Q 183.55 156.5 183.65 156.55
L 183.9 154.75
Q 184.15 153 182.2 152.8
L 180.3 152.5
Q 178.6 152.4 178.45 153.65
L 178.15 155.6
Q 179.4 155.1 180.85 155.3 182.4 155.55 183.5 156.45 Z"/>

<path fill="#FFFFFF" stroke="none" d="
M 191 286.5
L 188.75 289.3 188.25 289.6 185.7 291.35 187.75 294.5 188.8 298.1 192.35 297.15 196 297.2 196.25 293.45 197.4 289.95 195.95 289.4 193.95 288.65 191 286.5
M 209.45 214.25
Q 209.5 216.15 208.3 217.7 206.9 219.6 204.6 219.9 202.25 220.25 200.4 218.85 198.636328125 217.562890625 198.2 215.35 191.510546875 216.0474609375 185.2 215.75
L 185.2 216.55 185.2 220.45 185.2 222.4 193.7 224.5
Q 195.35 231 200.95 237
L 212.35 237
Q 218.95 237.6 222.3 241.75 223.2 242.9 223.85 244.25
L 226.75 244.25 228.35 244.25
Q 228.3 243.3 228.2 242.3 226.85 229 217.2 211.75 213.2388671875 212.835546875 209.4 213.6 209.4 213.698046875 209.4 213.75 209.45 214 209.45 214.25
M 157.45 259.6
Q 157.433203125 259.5783203125 157.4 259.55 153.2890625 258.680859375 149.35 257.65 149.3 257.75 149.25 257.85 140.8 270.05 137.6 282.9 137 285.25 136.6 287.65 137.05 287.8 137.5 287.95 137.45 288.65 137.6 289.3 151.65 288.95 165 287.65 157.6 286.4 150.15 284.4 151.25 283.5 152.35 282.35
L 153.4 281.3 159.85 274.65
Q 175.5 276.5 190.85 271.15
L 192.4 268.45 194.3 265.1 194.85 264.15
Q 178.9248046875 263.3931640625 165 261 163.276171875 262.1166015625 161.15 261.8 158.85 261.5 157.45 259.6
M 213.75 257.1
L 215.75 254.05 212.75 251.9 210.5 249.1 207.6 251.2 204.1 252.4 205.25 255.9 205.35 259.7 209.05 259.7 212.55 260.7 213.75 257.1
M 177.8 203.4
L 174.9 201.25 172.6 204.05 169.55 206.15 171.55 209.2 172.65 212.85 176.25 211.85 179.85 211.9 180.05 208.15 181.25 204.7 177.8 203.4
M 201.3 171.85
L 199.05 169 196.1 171.15 192.65 172.4 193.8 175.85 193.9 179.6 197.6 179.6 201.1 180.6 202.25 177.05 204.3 174 201.3 171.85
M 184.9 163.85
Q 184.36640625 164.78125 183.45 165.45 181.6 166.85 179.25 166.5 176.95 166.2 175.55 164.3 175.0146484375 163.6083984375 174.7 162.85 173.7849609375 162.6859375 172.85 162.5
L 172.55 162.45
Q 172.1 162.35 171.7 162.25 171.2 162.15 170.75 162.05 164.6 172.9 161.6 185.65
L 162.05 185.65 164.75 185.65 173.1 176.3
Q 177.7 176.9 182.45 173.7 186.05 171.2 189 167.6 190.4 165.9 191.65 164 191.7 163.9 191.75 163.8 188.2828125 163.9759765625 184.9 163.85
M 187.45 107.05
Q 178.85 122.6 172.85 140.05
L 173.95 140.8 174.5 141.15 178.85 144.05
Q 184.05 146.9 190.1 141.3
L 202.6 154.8 205.25 154.8 205.85 154.8 206.85 154.8
Q 206.45 153.5 206.1 152.2 199.35 129.85 189.85 107.05
L 187.45 107.05 Z"/>

<path fill="#1B914D" stroke="none" d="
M 188.75 289.3
L 191 286.5 193.95 288.65 195.95 289.4
Q 196.3728515625 289.3775390625 196.8 289.35 206.0865234375 288.7607421875 215.3 286.9 215.5173828125 285.8521484375 217 285.7
L 218.9 285.4
Q 219.9388671875 285.3388671875 220.4 285.75 228.1732421875 283.9181640625 235.9 281.15 234.5 277.2 232.95 273.45 201.85 284.1 165 287.65 173.9 289.15 182.75 289.5 185.516015625 289.6177734375 188.25 289.6
L 188.75 289.3
M 159.85 274.65
L 153.4 281.3
Q 190.85 276.6 228.3 263.2 227.4 261.4 226.45 259.7 226.3 259.45 226.2 259.2 210.9 266.5 195.85 268.15 194.1 268.35 192.4 268.45
L 190.85 271.15
Q 175.5 276.5 159.85 274.65
M 158.6 251.7
Q 159.2 251.2 159.9 250.95 160 250.9 160.05 250.9
L 160.35 248.95
Q 160.5 247.7 162.2 247.8
L 164.1 248.1
Q 166.05 248.3 165.8 250.05
L 165.55 251.85
Q 165.9 252.15 166.25 252.55 166.4 252.7 166.5 252.85 167.45 254.15 167.6 255.65 167.6 255.9 167.65 256.15 167.6 256.6 167.55 257.05 167.2 259.4 165.35 260.75 165.173828125 260.8833984375 165 261 178.9248046875 263.3931640625 194.85 264.15
L 194.3 265.1
Q 209.8 264 225.6 258.15
L 229.5 256.1
Q 228.55 251.8 227.6 247.8 185.25 246.6 150.95 235.6 148.3 245 145.9 256.1
L 149.25 257.85
Q 149.3 257.75 149.35 257.65 153.2890625 258.680859375 157.4 259.55 156.25078125 258.0234375 156.3 256.15 156.3 255.9 156.35 255.65 156.35 255.55 156.35 255.4 156.7 253.15 158.55 251.75 158.55 251.7 158.6 251.7
M 215.75 254.05
L 213.75 257.1 212.55 260.7 209.05 259.7 205.35 259.7 205.25 255.9 204.1 252.4 207.6 251.2 210.5 249.1 212.75 251.9 215.75 254.05
M 158.1 213.75
Q 155.8 219.55 153.65 226.45 187.95 238.35 222.3 241.75 218.95 237.6 212.35 237
L 200.95 237
Q 195.35 231 193.7 224.5
L 185.2 222.4 185.2 220.45
Q 171.6 219.95 158.25 213.4 158.15 213.55 158.1 213.75
M 157.6 199.85
Q 156.1 204.8 154.6 210.25
L 158.8 212
Q 171.9 216.2 185.2 216.55
L 185.2 215.75
Q 191.510546875 216.0474609375 198.2 215.35 198.21640625 215.2595703125 198.2 215.15 198.15 214.7 198.1 214.25 198.15 214 198.15 213.75 198.3 212.25 199.25 210.95 199.35 210.8 199.5 210.65 199.85 210.25 200.2 209.95
L 199.95 208.15
Q 199.7 206.4 201.65 206.2
L 203.55 205.9
Q 205.25 205.8 205.4 207.05
L 205.7 209
Q 205.75 209 205.85 209.05 206.55 209.3 207.15 209.8 207.2 209.8 207.2 209.85 209.05 211.25 209.4 213.5 209.4 213.572265625 209.4 213.6 213.2388671875 212.835546875 217.2 211.75
L 220.8 210.25
Q 218 200.1 215.35 191.75 188.65 198.5 157.6 199.85
M 174.9 201.25
L 177.8 203.4 181.25 204.7 180.05 208.15 179.85 211.9 176.25 211.85 172.65 212.85 171.55 209.2 169.55 206.15 172.6 204.05 174.9 201.25
M 164.75 185.65
L 162.05 185.65
Q 160.75 189.5 159.4 193.85 185.95 191 212.5 183.1 208.25 170.65 204.4 163.25 204.2 162.95 204.1 162.65 196.6 166.95 189 167.6 186.05 171.2 182.45 173.7 177.7 176.9 173.1 176.3
L 164.75 185.65
M 199.05 169
L 201.3 171.85 204.3 174 202.25 177.05 201.1 180.6 197.6 179.6 193.9 179.6 193.8 175.85 192.65 172.4 196.1 171.15 199.05 169
M 178.85 144.05
L 174.5 141.15
Q 172.7 146.35 170.95 152.2 169.75 156.1 168.6 160.3
L 171.7 162.2
Q 172.1 162.3 172.55 162.45
L 172.85 162.5
Q 173.7849609375 162.6859375 174.7 162.85 174.372265625 161.90234375 174.4 160.85 174.4 160.6 174.45 160.35 174.45 160.25 174.45 160.1 174.8 157.85 176.65 156.45 176.65 156.4 176.7 156.4 177.3 155.9 178 155.65 178.1 155.6 178.15 155.6
L 178.45 153.65
Q 178.6 152.4 180.3 152.5
L 182.2 152.8
Q 184.15 153 183.9 154.75
L 183.65 156.55
Q 184 156.85 184.35 157.25 184.5 157.4 184.6 157.55 185.55 158.85 185.7 160.35 185.7 160.6 185.75 160.85 185.7 161.3 185.65 161.75 185.4734375 162.9357421875 184.9 163.85 188.2828125 163.9759765625 191.75 163.8 191.7 163.9 191.65 164 197.6 163.45 203.5 161.6
L 206.8 160.2
Q 206.05 157.45 205.25 154.8
L 202.6 154.8 190.1 141.3
Q 184.05 146.9 178.85 144.05 Z"/>

<path fill="#FFEEC7" stroke="none" d="
M 152.35 282.35
Q 151.25 283.5 150.15 284.4 157.6 286.4 165 287.65 201.85 284.1 232.95 273.45 230.7 268.1 228.3 263.2 190.85 276.6 153.4 281.3
L 152.35 282.35
M 153.65 226.45
Q 152.25 230.8 150.95 235.6 185.25 246.6 227.6 247.8 227.2 246 226.75 244.25
L 223.85 244.25
Q 223.2 242.9 222.3 241.75 187.95 238.35 153.65 226.45
M 215.35 191.75
Q 213.9 187.15 212.5 183.1 185.95 191 159.4 193.85 158.5 196.75 157.6 199.85 188.65 198.5 215.35 191.75 Z"/>

<path fill="#21B861" stroke="none" d="
M 205.25 154.8
Q 206.05 157.45 206.8 160.2
L 207.3 160
Q 206.55 157.35 205.85 154.8
L 205.25 154.8
M 174.5 141.15
L 173.95 140.8
Q 172.1 146.2 170.35 152.2 169.2 155.95 168.1 160
L 168.6 160.3
Q 169.75 156.1 170.95 152.2 172.7 146.35 174.5 141.15 Z"/>

<path fill="#76AF1C" stroke="none" d="
M 171.7 162.2
L 171.7 162.25
Q 172.1 162.35 172.55 162.45 172.1 162.3 171.7 162.2 Z"/>
</g>

<g id="Layer0_2_FILL">
<path fill="#E74C3C" stroke="none" d="
M 305.35 239.1
L 305.3 239.1
Q 305.25078125 240.9734375 306.4 242.5 306.433203125 242.5283203125 306.45 242.55 307.85 244.45 310.15 244.75 312.276171875 245.0666015625 314 243.95 314.173828125 243.8333984375 314.35 243.7 316.2 242.35 316.55 240 316.6 239.55 316.65 239.1
L 316.6 239.1
Q 311.05 240.35 305.35 239.1
M 362.55 277.6
Q 362.8623046875 279.696875 364.35 281 364.55078125 281.1544921875 364.75 281.3 366.6 282.7 368.95 282.35 371.25 282.05 372.65 280.15 372.96875 279.7384765625 373.2 279.3 373.83671875 278.0955078125 373.8 276.7
L 373.75 276.7
Q 368.05 277.95 362.5 276.7
L 362.45 276.7
Q 362.5 277.15 362.55 277.6
M 347.15 197.2
L 347.1 197.2
Q 347.15 197.65 347.2 198.1 347.2166015625 198.211328125 347.2 198.3 347.6376953125 200.5140625 349.4 201.8 351.25 203.2 353.6 202.85 355.9 202.55 357.3 200.65 358.5 199.1 358.45 197.2
L 358.4 197.2
Q 354.9197265625 197.96328125 351.5 197.8 349.311328125 197.68671875 347.15 197.2
M 332.45 148.4
Q 333.36640625 147.73125 333.9 146.8 334.4734375 145.8857421875 334.65 144.7 334.7 144.25 334.75 143.8
L 334.7 143.8
Q 329.15 145.05 323.45 143.8
L 323.4 143.8
Q 323.372265625 144.85234375 323.7 145.8 324.0146484375 146.5583984375 324.55 147.25 325.95 149.15 328.25 149.45 330.6 149.8 332.45 148.4 Z"/>

<path fill="#F5503F" stroke="none" d="
M 314.55 234.8
Q 314.45 234.75 314.4 234.7 313.3 233.8 311.75 233.55 310.3 233.35 309.05 233.85 309 233.85 308.9 233.9 308.2 234.15 307.6 234.65 307.55 234.65 307.55 234.7 305.7 236.1 305.35 238.35 305.35 238.5 305.35 238.6 305.3 238.85 305.3 239.1
L 305.35 239.1
Q 311.05 240.35 316.6 239.1
L 316.65 239.1
Q 316.6 238.85 316.6 238.6 316.45 237.1 315.5 235.8 315.4 235.65 315.25 235.5 314.9 235.1 314.55 234.8
M 363.6 273.4
Q 362.65 274.7 362.5 276.2 362.5 276.45 362.45 276.7
L 362.5 276.7
Q 368.05 277.95 373.75 276.7
L 373.8 276.7
Q 373.8 276.45 373.75 276.2 373.75 276.1 373.75 275.95 373.4 273.7 371.55 272.3 371.55 272.25 371.5 272.25 370.9 271.75 370.2 271.5 370.1 271.45 370.05 271.45 368.8 270.95 367.35 271.15 365.8 271.4 364.7 272.3 364.65 272.35 364.55 272.4 364.2 272.7 363.85 273.1 363.7 273.25 363.6 273.4
M 347.1 197.2
L 347.15 197.2
Q 349.311328125 197.68671875 351.5 197.8 354.9197265625 197.96328125 358.4 197.2
L 358.45 197.2
Q 358.45 196.95 358.4 196.7 358.4 196.648046875 358.4 196.55 358.4 196.522265625 358.4 196.45 358.05 194.2 356.2 192.8 356.2 192.75 356.15 192.75 355.55 192.25 354.85 192 354.75 191.95 354.7 191.95 353.45 191.45 352 191.65 350.45 191.9 349.35 192.8 349.3 192.85 349.2 192.9 348.85 193.2 348.5 193.6 348.35 193.75 348.25 193.9 347.3 195.2 347.15 196.7 347.15 196.95 347.1 197.2
M 333.6 140.5
Q 333.5 140.35 333.35 140.2 333 139.8 332.65 139.5 332.55 139.45 332.5 139.4 331.4 138.5 329.85 138.25 328.4 138.05 327.15 138.55 327.1 138.55 327 138.6 326.3 138.85 325.7 139.35 325.65 139.35 325.65 139.4 323.8 140.8 323.45 143.05 323.45 143.2 323.45 143.3 323.4 143.55 323.4 143.8
L 323.45 143.8
Q 329.15 145.05 334.7 143.8
L 334.75 143.8
Q 334.7 143.55 334.7 143.3 334.55 141.8 333.6 140.5 Z"/>

<path fill="#CBDBE9" stroke="none" d="
M 314.4 234.7
Q 314.45 234.75 314.55 234.8
L 314.8 233
Q 315.05 231.25 313.1 231.05
L 311.2 230.75
Q 309.5 230.65 309.35 231.9
L 309.05 233.85
Q 310.3 233.35 311.75 233.55 313.3 233.8 314.4 234.7
M 364.3 269.85
Q 364.2400390625 270.18046875 364.3 270.6
L 364.55 272.4
Q 364.65 272.35 364.7 272.3 365.8 271.4 367.35 271.15 368.8 270.95 370.05 271.45
L 369.75 269.5
Q 369.6916015625 269.0138671875 369.4 268.7 368.9388671875 268.2888671875 367.9 268.35
L 366 268.65
Q 364.5173828125 268.8021484375 364.3 269.85
M 352.55 188.85
L 350.65 189.15
Q 348.7 189.35 348.95 191.1
L 349.2 192.9
Q 349.3 192.85 349.35 192.8 350.45 191.9 352 191.65 353.45 191.45 354.7 191.95
L 354.4 190
Q 354.25 188.75 352.55 188.85
M 331.2 135.75
L 329.3 135.45
Q 327.6 135.35 327.45 136.6
L 327.15 138.55
Q 328.4 138.05 329.85 138.25 331.4 138.5 332.5 139.4 332.55 139.45 332.65 139.5
L 332.9 137.7
Q 333.15 135.95 331.2 135.75 Z"/>

<path fill="#76AF1C" stroke="none" d="
M 320.7 145.15
L 320.7 145.2
Q 321.1 145.3 321.55 145.4 321.1 145.25 320.7 145.15 Z"/>

<path fill="#21B861" stroke="none" d="
M 322.95 123.75
Q 321.1 129.15 319.35 135.15 318.2 138.9 317.1 142.95
L 317.6 143.25
Q 318.75 139.05 319.95 135.15 321.7 129.3 323.5 124.1
L 322.95 123.75
M 356.3 142.95
Q 355.55 140.3 354.85 137.75
L 354.25 137.75
Q 355.05 140.4 355.8 143.15
L 356.3 142.95 Z"/>

<path fill="#FFEEC7" stroke="none" d="
M 381.95 256.4
Q 379.7 251.05 377.3 246.15 339.85 259.55 302.4 264.25
L 301.35 265.3
Q 300.25 266.45 299.15 267.35 306.6 269.35 314 270.6 350.85 267.05 381.95 256.4
M 376.6 230.75
Q 376.2 228.95 375.75 227.2
L 372.85 227.2
Q 372.2 225.85 371.3 224.7 336.95 221.3 302.65 209.4 301.25 213.75 299.95 218.55 334.25 229.55 376.6 230.75
M 364.35 174.7
Q 362.9 170.1 361.5 166.05 334.95 173.95 308.4 176.8 307.5 179.7 306.6 182.8 337.65 181.45 364.35 174.7 Z"/>

<path fill="#198A49" stroke="none" d="
M 387.2 271
Q 386.1 267.45 384.9 264.1 377.1732421875 266.8681640625 369.4 268.7 369.6916015625 269.0138671875 369.75 269.5
L 370.05 271.45
Q 370.1 271.45 370.2 271.5 370.9 271.75 371.5 272.25 371.55 272.25 371.55 272.3 373.4 273.7 373.75 275.95 373.75 276.1 373.75 276.2 373.8 276.45 373.8 276.7 373.83671875 278.0955078125 373.2 279.3 377.7671875 278.2849609375 382.2 277 388.6 275.35 387.2 271
M 364.3 270.6
Q 364.2400390625 270.18046875 364.3 269.85 355.0865234375 271.7107421875 345.8 272.3 345.3728515625 272.3275390625 344.95 272.35
L 346.4 272.9 345.25 276.4 345 280.15 341.35 280.1 337.8 281.05 336.75 277.45 334.7 274.3 337.25 272.55
Q 334.516015625 272.5677734375 331.75 272.45 322.9 272.1 314 270.6 300.65 271.9 286.6 272.25 287.25 275.65 292.5 277.35 307.9 281.65 325.4 282.75 326.15 282.8 326.9 282.85 327.55 282.9 328.15 282.9 332.55 283.1 337.1 283.1 337.2 283.1 337.25 283.1 339.2 283.1 341.15 283.1 341.35 283.05 341.6 283.1 341.9 283.05 342.2 283.05 343.05 283 343.95 283 344.8 282.95 345.65 282.95 355.2634765625 282.4767578125 364.35 281 362.8623046875 279.696875 362.55 277.6 362.5 277.15 362.45 276.7 362.5 276.45 362.5 276.2 362.65 274.7 363.6 273.4 363.7 273.25 363.85 273.1 364.2 272.7 364.55 272.4
L 364.3 270.6
M 334.2 203.4
L 334.2 199.5
Q 320.9 199.15 307.8 194.95 307.5 195.65 307.25 196.35 320.6 202.9 334.2 203.4
M 375.2 242.15
Q 374.9 241.65 374.6 241.1 358.8 246.95 343.3 248.05
L 341.4 251.4
Q 343.1 251.3 344.85 251.1 359.9 249.45 375.2 242.15
M 353.1 145.6
Q 352.8 145.05 352.5 144.55 346.6 146.4 340.65 146.95 339.4 148.85 338 150.55 345.6 149.9 353.1 145.6 Z"/>

<path fill="#BD8958" stroke="none" d="
M 330.7 288.6
L 325.2 295.75
Q 324.95 297 324.75 298.25 324.65 298.75 324.85 299.2 325.05 299.6 325.45 299.9 325.85 300.15 326.3 300.15
L 346.1 300.15
Q 346.6 300.15 347 299.9 347.4 299.6 347.55 299.2 347.75 298.75 347.7 298.25 346.75 293 346 286.2 337.9 287.25 330 286.5
L 330.7 288.6 Z"/>

<path fill="#AF7F51" stroke="none" d="
M 337.25 283.1
Q 337.2 283.1 337.1 283.1 332.55 283.1 328.15 282.9 327.55 282.9 326.9 282.85 326.75 284.5 326.55 286.05 325.9 291.35 325.2 295.75
L 330.7 288.6 330 286.5
Q 337.9 287.25 346 286.2 345.95 285.8 345.9 285.4 345.75 284.2 345.65 282.95 344.8 282.95 343.95 283 343.05 283 342.2 283.05 341.9 283.05 341.6 283.1 341.35 283.05 341.15 283.1 339.2 283.1 337.25 283.1 Z"/>

<path fill="#FFFFFF" stroke="none" d="
M 341.4 251.4
L 343.3 248.05 343.85 247.1
Q 327.9248046875 246.3431640625 314 243.95 312.276171875 245.0666015625 310.15 244.75 307.85 244.45 306.45 242.55 306.433203125 242.5283203125 306.4 242.5 302.2890625 241.630859375 298.35 240.6 298.3 240.7 298.25 240.8 289.8 253 286.6 265.85 286 268.2 285.6 270.6 286.05 270.75 286.5 270.9 286.45 271.6 286.6 272.25 300.65 271.9 314 270.6 306.6 269.35 299.15 267.35 300.25 266.45 301.35 265.3
L 302.4 264.25 308.85 257.6
Q 324.5 259.45 339.85 254.1
L 341.4 251.4
M 342.95 271.6
L 340 269.45 337.75 272.25 337.25 272.55 334.7 274.3 336.75 277.45 337.8 281.05 341.35 280.1 345 280.15 345.25 276.4 346.4 272.9 344.95 272.35 342.95 271.6
M 359.5 232.05
L 356.6 234.15 353.1 235.35 354.25 238.85 354.35 242.65 358.05 242.65 361.55 243.65 362.75 240.05 364.75 237 361.75 234.85 359.5 232.05
M 358.4 196.55
Q 358.4 196.648046875 358.4 196.7 358.45 196.95 358.45 197.2 358.5 199.1 357.3 200.65 355.9 202.55 353.6 202.85 351.25 203.2 349.4 201.8 347.6376953125 200.5140625 347.2 198.3 340.509765625 198.9974609375 334.2 198.7
L 334.2 199.5 334.2 203.4 334.2 205.35 342.7 207.45
Q 344.35 213.95 349.95 219.95
L 361.35 219.95
Q 367.95 220.55 371.3 224.7 372.2 225.85 372.85 227.2
L 375.75 227.2 377.35 227.2
Q 377.3 226.25 377.2 225.25 375.85 211.95 366.2 194.7 362.2388671875 195.785546875 358.4 196.55
M 329.05 191.1
L 330.25 187.65 326.8 186.35 323.9 184.2 321.6 187 318.55 189.1 320.55 192.15 321.65 195.8 325.25 194.8 328.85 194.85 329.05 191.1
M 348.05 151.95
L 345.1 154.1 341.65 155.35 342.8 158.8 342.9 162.55 346.6 162.55 350.1 163.55 351.25 160 353.3 156.95 350.3 154.8 348.05 151.95
M 333.9 146.8
Q 333.36640625 147.73125 332.45 148.4 330.6 149.8 328.25 149.45 325.95 149.15 324.55 147.25 324.0146484375 146.5583984375 323.7 145.8 322.7849609375 145.6359375 321.85 145.45
L 321.55 145.4
Q 321.1 145.3 320.7 145.2 320.2 145.1 319.75 145 313.6 155.85 310.6 168.6
L 311.05 168.6 313.75 168.6 322.1 159.25
Q 326.7 159.85 331.45 156.65 335.05 154.15 338 150.55 339.4 148.85 340.65 146.95 340.7 146.85 340.75 146.75 337.2828125 146.9259765625 333.9 146.8
M 338.85 90
L 336.45 90
Q 327.85 105.55 321.85 123
L 322.95 123.75 323.5 124.1 327.85 127
Q 333.05 129.85 339.1 124.25
L 351.6 137.75 354.25 137.75 354.85 137.75 355.85 137.75
Q 355.45 136.45 355.1 135.15 348.35 112.8 338.85 90 Z"/>

<path fill="#1B914D" stroke="none" d="
M 340 269.45
L 342.95 271.6 344.95 272.35
Q 345.3728515625 272.3275390625 345.8 272.3 355.0865234375 271.7107421875 364.3 269.85 364.5173828125 268.8021484375 366 268.65
L 367.9 268.35
Q 368.9388671875 268.2888671875 369.4 268.7 377.1732421875 266.8681640625 384.9 264.1 383.5 260.15 381.95 256.4 350.85 267.05 314 270.6 322.9 272.1 331.75 272.45 334.516015625 272.5677734375 337.25 272.55
L 337.75 272.25 340 269.45
M 361.35 219.95
L 349.95 219.95
Q 344.35 213.95 342.7 207.45
L 334.2 205.35 334.2 203.4
Q 320.6 202.9 307.25 196.35 307.15 196.5 307.1 196.7 304.8 202.5 302.65 209.4 336.95 221.3 371.3 224.7 367.95 220.55 361.35 219.95
M 378.5 239.05
Q 377.55 234.75 376.6 230.75 334.25 229.55 299.95 218.55 297.3 227.95 294.9 239.05
L 298.25 240.8
Q 298.3 240.7 298.35 240.6 302.2890625 241.630859375 306.4 242.5 305.25078125 240.9734375 305.3 239.1 305.3 238.85 305.35 238.6 305.35 238.5 305.35 238.35 305.7 236.1 307.55 234.7 307.55 234.65 307.6 234.65 308.2 234.15 308.9 233.9 309 233.85 309.05 233.85
L 309.35 231.9
Q 309.5 230.65 311.2 230.75
L 313.1 231.05
Q 315.05 231.25 314.8 233
L 314.55 234.8
Q 314.9 235.1 315.25 235.5 315.4 235.65 315.5 235.8 316.45 237.1 316.6 238.6 316.6 238.85 316.65 239.1 316.6 239.55 316.55 240 316.2 242.35 314.35 243.7 314.173828125 243.8333984375 314 243.95 327.9248046875 246.3431640625 343.85 247.1
L 343.3 248.05
Q 358.8 246.95 374.6 241.1
L 378.5 239.05
M 356.6 234.15
L 359.5 232.05 361.75 234.85 364.75 237 362.75 240.05 361.55 243.65 358.05 242.65 354.35 242.65 354.25 238.85 353.1 235.35 356.6 234.15
M 377.3 246.15
Q 376.4 244.35 375.45 242.65 375.3 242.4 375.2 242.15 359.9 249.45 344.85 251.1 343.1 251.3 341.4 251.4
L 339.85 254.1
Q 324.5 259.45 308.85 257.6
L 302.4 264.25
Q 339.85 259.55 377.3 246.15
M 350.65 189.15
L 352.55 188.85
Q 354.25 188.75 354.4 190
L 354.7 191.95
Q 354.75 191.95 354.85 192 355.55 192.25 356.15 192.75 356.2 192.75 356.2 192.8 358.05 194.2 358.4 196.45 358.4 196.522265625 358.4 196.55 362.2388671875 195.785546875 366.2 194.7
L 369.8 193.2
Q 367 183.05 364.35 174.7 337.65 181.45 306.6 182.8 305.1 187.75 303.6 193.2
L 307.8 194.95
Q 320.9 199.15 334.2 199.5
L 334.2 198.7
Q 340.509765625 198.9974609375 347.2 198.3 347.2166015625 198.211328125 347.2 198.1 347.15 197.65 347.1 197.2 347.15 196.95 347.15 196.7 347.3 195.2 348.25 193.9 348.35 193.75 348.5 193.6 348.85 193.2 349.2 192.9
L 348.95 191.1
Q 348.7 189.35 350.65 189.15
M 330.25 187.65
L 329.05 191.1 328.85 194.85 325.25 194.8 321.65 195.8 320.55 192.15 318.55 189.1 321.6 187 323.9 184.2 326.8 186.35 330.25 187.65
M 353.4 146.2
Q 353.2 145.9 353.1 145.6 345.6 149.9 338 150.55 335.05 154.15 331.45 156.65 326.7 159.85 322.1 159.25
L 313.75 168.6 311.05 168.6
Q 309.75 172.45 308.4 176.8 334.95 173.95 361.5 166.05 357.25 153.6 353.4 146.2
M 345.1 154.1
L 348.05 151.95 350.3 154.8 353.3 156.95 351.25 160 350.1 163.55 346.6 162.55 342.9 162.55 342.8 158.8 341.65 155.35 345.1 154.1
M 329.3 135.45
L 331.2 135.75
Q 333.15 135.95 332.9 137.7
L 332.65 139.5
Q 333 139.8 333.35 140.2 333.5 140.35 333.6 140.5 334.55 141.8 334.7 143.3 334.7 143.55 334.75 143.8 334.7 144.25 334.65 144.7 334.4734375 145.8857421875 333.9 146.8 337.2828125 146.9259765625 340.75 146.75 340.7 146.85 340.65 146.95 346.6 146.4 352.5 144.55
L 355.8 143.15
Q 355.05 140.4 354.25 137.75
L 351.6 137.75 339.1 124.25
Q 333.05 129.85 327.85 127
L 323.5 124.1
Q 321.7 129.3 319.95 135.15 318.75 139.05 317.6 143.25
L 320.7 145.15
Q 321.1 145.25 321.55 145.4
L 321.85 145.45
Q 322.7849609375 145.6359375 323.7 145.8 323.372265625 144.85234375 323.4 143.8 323.4 143.55 323.45 143.3 323.45 143.2 323.45 143.05 323.8 140.8 325.65 139.4 325.65 139.35 325.7 139.35 326.3 138.85 327 138.6 327.1 138.55 327.15 138.55
L 327.45 136.6
Q 327.6 135.35 329.3 135.45 Z"/>
</g>

<g id="Layer0_3_FILL">
<path fill="#AF7F51" stroke="none" d="
M 490.45 285.4
Q 488.6 269.4 487.4 245.05
L 482.85 265.05 490.45 285.4
M 469.75 295.75
L 475.25 288.6 471.85 278.75
Q 470.9 288.5 469.75 295.75
M 474.1 246.65
L 478.8 229.75 475.4 213.5
Q 474.85 231.7 474.1 246.65 Z"/>

<path fill="#BD8958" stroke="none" d="
M 469.25 202.75
L 475.45 210.15 475.45 210.3
Q 475.4 211.9 475.4 213.5
L 478.8 229.75 474.1 246.65
Q 473.95 250 473.75 253.2
L 462.4 243.9
Q 461.7 243.4 461 243.4 460.2 243.5 459.55 244.1
L 459.1 244.6
Q 458.45 245.2 458.4 245.95 458.35 246.8 458.9 247.35 472.65 256.35 473.15 262.85 472.55 271.5 471.85 278.75
L 475.25 288.6 469.75 295.75
Q 469.5 297 469.3 298.25 469.2 298.75 469.4 299.2 469.6 299.6 470 299.9 470.4 300.15 470.85 300.15
L 490.65 300.15
Q 491.15 300.15 491.55 299.9 491.95 299.6 492.1 299.2 492.3 298.75 492.25 298.25 491.25 292.7 490.45 285.4
L 482.85 265.05 487.4 245.05
Q 487.1 239.15 486.85 232.75 490.95 224.4 498.65 221.2 499.15 220.9 499.25 220.35 499.35 219.85 499.05 219.35
L 498.85 218.9
Q 498.55 218.45 498 218.25 497.55 218.1 497 218.3
L 486.5 223.1
Q 486.25 216.9 486.1 210.3
L 486.05 203.05
Q 483.6 203.1 481.1 203.1 475.05 203.1 469.25 202.75 Z"/>

<path fill="#CBE7E6" stroke="none" d="
M 431.55 186.55
Q 434.45 186.15 437.3 185.7 434.85 184.95 432.4 184.1 431.95 185.3 431.55 186.55
M 513.6 189.5
L 513.9 191.45
Q 513.95 191.45 514.05 191.5 514.75 191.75 515.35 192.25 515.4 192.25 515.4 192.3 517.25 193.7 517.6 195.95 517.6 196.1 517.6 196.2 517.65 196.45 517.65 196.7 517.7 198.1 517.05 199.3 521.6 198.3 526.05 197 532.45 195.35 531.05 191 529.95 187.45 528.75 184.1 521 186.85 513.25 188.75 513.55 189 513.6 189.5
M 488.8 192.35
L 490.25 192.9 489.1 196.4 488.85 200.15 485.2 200.1 481.65 201.05 480.6 197.45 478.55 194.3 481.15 192.6
Q 478.35 192.55 475.6 192.45 468.4 192.15 461.15 191.15 447.9 193.35 432.7 195.6 434.1 196.6 436.35 197.35 451.75 201.65 469.25 202.75 475.05 203.1 481.1 203.1 483.6 203.1 486.05 203.05 497.5 202.75 508.25 201 506.7 199.7 506.4 197.6 506.35 197.15 506.3 196.7 506.35 196.45 506.35 196.2 506.5 194.7 507.45 193.4 507.55 193.25 507.7 193.1 508.05 192.7 508.4 192.4
L 508.15 190.6
Q 508.1 190.2 508.15 189.85 498.95 191.7 489.65 192.3 489.2 192.35 488.8 192.35 Z"/>

<path fill="#E74C3C" stroke="none" d="
M 467.25 63.8
Q 467.2 64.85 467.6 65.8 467.6 65.85 467.65 65.9 467.9 66.6 468.4 67.25 469.8 69.15 472.1 69.45 474.45 69.8 476.3 68.4 477.05 67.85 477.6 67.15 477.7 67 477.8 66.85 478.3 65.9 478.5 64.7 478.55 64.25 478.6 63.8
L 478.55 63.8
Q 473 65.05 467.3 63.8
L 467.25 63.8
M 506.3 196.7
Q 506.35 197.15 506.4 197.6 506.7 199.7 508.25 201 508.4 201.15 508.6 201.3 510.45 202.7 512.8 202.35 515.1 202.05 516.5 200.15 516.8 199.75 517.05 199.3 517.7 198.1 517.65 196.7
L 517.6 196.7
Q 511.9 197.95 506.35 196.7
L 506.3 196.7
M 491 117.2
L 490.95 117.2
Q 491 117.65 491.05 118.1 491.05 118.2 491.1 118.35 491.15 118.6 491.25 118.9 491.7 120.65 493.25 121.8 493.4 121.9 493.5 122
L 493.55 122
Q 495.25 123.15 497.45 122.85 499.75 122.55 501.15 120.65 501.5 120.2 501.8 119.7 502.35 118.5 502.3 117.2
L 502.25 117.2
Q 500.25 117.65 498.25 117.8 496.8 117.85 495.4 117.8 493.15 117.7 491 117.2
M 460.4 160
Q 460.45 159.55 460.5 159.1
L 460.45 159.1
Q 454.9 160.35 449.2 159.1
L 449.15 159.1
Q 449.1 160.95 450.3 162.5
L 450.3 162.55
Q 451.7 164.45 454 164.75 456.1 165.05 457.85 163.95 458 163.85 458.2 163.7 460.05 162.35 460.4 160 Z"/>

<path fill="#F5503F" stroke="none" d="
M 477.45 60.5
Q 477.35 60.35 477.2 60.2 476.85 59.8 476.5 59.5 476.4 59.45 476.35 59.4 475.25 58.5 473.7 58.25 472.25 58.05 471 58.55 470.95 58.55 470.85 58.6 470.15 58.85 469.55 59.35 469.5 59.35 469.5 59.4 467.65 60.8 467.3 63.05 467.3 63.2 467.3 63.3 467.25 63.55 467.25 63.8
L 467.3 63.8
Q 473 65.05 478.55 63.8
L 478.6 63.8
Q 478.55 63.55 478.55 63.3 478.4 61.8 477.45 60.5
M 514.05 191.5
Q 513.95 191.45 513.9 191.45 512.65 190.95 511.2 191.15 509.65 191.4 508.55 192.3 508.5 192.35 508.4 192.4 508.05 192.7 507.7 193.1 507.55 193.25 507.45 193.4 506.5 194.7 506.35 196.2 506.35 196.45 506.3 196.7
L 506.35 196.7
Q 511.9 197.95 517.6 196.7
L 517.65 196.7
Q 517.65 196.45 517.6 196.2 517.6 196.1 517.6 195.95 517.25 193.7 515.4 192.3 515.4 192.25 515.35 192.25 514.75 191.75 514.05 191.5
M 492.35 113.6
Q 492.2 113.75 492.1 113.9 491.15 115.2 491 116.7 491 116.95 490.95 117.2
L 491 117.2
Q 493.15 117.7 495.4 117.8 496.8 117.85 498.25 117.8 500.25 117.65 502.25 117.2
L 502.3 117.2
Q 502.3 117.05 502.3 116.9 502.25 116.8 502.25 116.7 502.25 116.65 502.25 116.6 502.25 116.5 502.25 116.45 501.95 114.45 500.45 113.1 500.25 112.95 500.05 112.8 500.05 112.75 500 112.75 499.4 112.25 498.7 112 498.6 111.95 498.55 111.95 497.3 111.45 495.85 111.65 494.3 111.9 493.2 112.8 493.15 112.85 493.05 112.9 492.95 113 492.85 113.1 492.6 113.35 492.35 113.6
M 460.5 159.1
Q 460.45 158.85 460.45 158.6 460.3 157.1 459.35 155.8 459.25 155.65 459.1 155.5 458.75 155.1 458.4 154.8 458.3 154.75 458.25 154.7 457.15 153.8 455.6 153.55 454.15 153.35 452.9 153.85 452.85 153.85 452.75 153.9 452.05 154.15 451.45 154.65 451.4 154.65 451.4 154.7 449.55 156.1 449.2 158.35 449.2 158.5 449.2 158.6 449.15 158.85 449.15 159.1
L 449.2 159.1
Q 454.9 160.35 460.45 159.1
L 460.5 159.1 Z"/>

<path fill="#A7B4BF" stroke="none" d="
M 476.5 59.5
L 476.75 57.7
Q 477 55.95 475.05 55.75
L 473.15 55.45
Q 471.45 55.35 471.3 56.6
L 471 58.55
Q 472.25 58.05 473.7 58.25 475.25 58.5 476.35 59.4 476.4 59.45 476.5 59.5
M 513.25 188.75
Q 512.8 188.3 511.75 188.35
L 509.85 188.65
Q 508.35 188.8 508.15 189.85 508.1 190.2 508.15 190.6
L 508.4 192.4
Q 508.5 192.35 508.55 192.3 509.65 191.4 511.2 191.15 512.65 190.95 513.9 191.45
L 513.6 189.5
Q 513.55 189 513.25 188.75
M 498.25 110
Q 498.1 108.75 496.4 108.85
L 494.5 109.15
Q 492.55 109.35 492.8 111.1
L 493.05 112.9
Q 493.15 112.85 493.2 112.8 494.3 111.9 495.85 111.65 497.3 111.45 498.55 111.95
L 498.25 110
M 458.65 153
Q 458.9 151.25 456.95 151.05
L 455.05 150.75
Q 453.35 150.65 453.2 151.9
L 452.9 153.85
Q 454.15 153.35 455.6 153.55 457.15 153.8 458.25 154.7 458.3 154.75 458.4 154.8
L 458.65 153 Z"/>

<path fill="#D7F5F4" stroke="none" d="
M 525.5 175.65
Q 525.3 175.15 525.1 174.7
L 525.2 175
Q 525.35 175.3 525.5 175.65
M 488.8 192.35
Q 489.2 192.35 489.65 192.3 498.95 191.7 508.15 189.85 508.35 188.8 509.85 188.65
L 511.75 188.35
Q 512.8 188.3 513.25 188.75 521 186.85 528.75 184.1 527.35 180.15 525.8 176.4 503.95 183.85 461.15 191.15 468.4 192.15 475.6 192.45 478.35 192.55 481.15 192.6
L 481.6 192.25 483.85 189.45 486.8 191.6 488.8 192.35
M 523.05 170.2
Q 523.3 170.7 523.55 171.25 523.2 170.4 522.8 169.65
L 523.05 170.2
M 519.3 162.65
Q 519.15 162.4 519.05 162.15 503.75 169.45 488.7 171.1 486.9 171.25 485.1 171.4 482.1 171.55 479.15 171.55 475.85 171.5 472.6 171.2 457.2 169.75 442.05 162.25 441.9 162.45 441.8 162.65 436.55 172.35 432.4 184.1 434.85 184.95 437.3 185.7 488.05 178 521.15 166.15 520.25 164.35 519.3 162.65
M 510.15 116.7
Q 510.1 116.5 510 116.3 505.9 118.25 501.8 119.7 501.5 120.2 501.15 120.65 499.75 122.55 497.45 122.85 495.25 123.15 493.55 122
L 493.5 122
Q 472.05 126.6 451.1 116.35 451 116.5 450.95 116.7 444.35 133.35 438.75 159.05
L 442.65 161.1
Q 457.2 166.75 472.05 168 474.95 168.2 477.9 168.3 497.95 168.75 518.45 161.1
L 522.35 159.05
Q 521.3 154.25 520.25 149.8
L 520.3 150.05
Q 520.35 150.4 520.45 150.75 479.25 149.6 445.7 139.15 444.75 138.85 443.8 138.55 445.1 133.75 446.5 129.4 463.6 135.35 480.7 139.15 495.65 142.5 518.8 144.05 514.7 128.2 510.15 116.7
M 508.6 157
L 506.6 160.05 505.4 163.65 501.9 162.65 498.2 162.65 498.1 158.85 496.95 155.35 500.45 154.15 503.35 152.05 505.6 154.85 508.6 157
M 456.95 151.05
Q 458.9 151.25 458.65 153
L 458.4 154.8
Q 458.75 155.1 459.1 155.5 459.25 155.65 459.35 155.8 460.3 157.1 460.45 158.6 460.45 158.85 460.5 159.1 460.45 159.55 460.4 160 460.05 162.35 458.2 163.7 458 163.85 457.85 163.95 456.1 165.05 454 164.75 451.7 164.45 450.3 162.55
L 450.3 162.5
Q 449.1 160.95 449.15 159.1 449.15 158.85 449.2 158.6 449.2 158.5 449.2 158.35 449.55 156.1 451.4 154.7 451.4 154.65 451.45 154.65 452.05 154.15 452.75 153.9 452.85 153.85 452.9 153.85
L 453.2 151.9
Q 453.35 150.65 455.05 150.75
L 456.95 151.05
M 497.25 66.2
Q 497.05 65.9 496.95 65.6 480.5 75.05 463.7 66.75 456.5 80.45 447.45 113.2
L 451.65 114.95
Q 471.2 121.25 491.25 118.9 491.15 118.6 491.1 118.35 491.05 118.2 491.05 118.1 491 117.65 490.95 117.2 491 116.95 491 116.7 491.15 115.2 492.1 113.9 492.2 113.75 492.35 113.6 492.6 113.35 492.85 113.1 492.95 113 493.05 112.9
L 492.8 111.1
Q 492.55 109.35 494.5 109.15
L 496.4 108.85
Q 498.1 108.75 498.25 110
L 498.55 111.95
Q 498.6 111.95 498.7 112 499.4 112.25 500 112.75 500.05 112.75 500.05 112.8 500.25 112.95 500.45 113.1 501.95 114.45 502.25 116.45 502.25 116.5 502.25 116.6 502.25 116.65 502.25 116.7 502.25 116.8 502.3 116.9 505.85 116.05 509.45 114.95
L 513.65 113.2
Q 504.6 80.45 497.25 66.2
M 488.95 74.1
L 491.9 71.95 494.15 74.8 497.15 76.95 495.1 80 493.95 83.55 490.45 82.55 486.75 82.55 486.65 78.8 485.5 75.35 488.95 74.1
M 505.35 86.05
Q 506.75 90.1 508.2 94.7 481.5 101.45 450.45 102.8 451.35 99.7 452.25 96.8 478.8 93.95 505.35 86.05
M 467.75 104.2
L 470.65 106.35 474.1 107.65 472.9 111.1 472.7 114.85 469.1 114.8 465.5 115.8 464.4 112.15 462.4 109.1 465.45 107 467.75 104.2
M 496.35 64.55
L 499.65 63.15
Q 490.65 31 480.55 15.3 470.35 31.05 461.45 63.25
L 464.55 65.15
Q 466.1 65.55 467.65 65.9 467.6 65.85 467.6 65.8 467.2 64.85 467.25 63.8 467.25 63.55 467.3 63.3 467.3 63.2 467.3 63.05 467.65 60.8 469.5 59.4 469.5 59.35 469.55 59.35 470.15 58.85 470.85 58.6 470.95 58.55 471 58.55
L 471.3 56.6
Q 471.45 55.35 473.15 55.45
L 475.05 55.75
Q 477 55.95 476.75 57.7
L 476.5 59.5
Q 476.85 59.8 477.2 60.2 477.35 60.35 477.45 60.5 478.4 61.8 478.55 63.3 478.55 63.55 478.6 63.8 478.55 64.25 478.5 64.7 478.3 65.9 477.8 66.85 477.7 67 477.6 67.15 487.05 67.45 496.35 64.55
M 487.3 33.85
L 486.1 37.35 485.9 41.1 482.3 41 478.7 41.95 477.6 38.35 475.6 35.3 478.65 33.2 480.95 30.4 483.85 32.6 487.3 33.85 Z"/>

<path fill="#178044" stroke="none" d="
M 490.25 192.9
L 488.8 192.35 486.8 191.6 483.85 189.45 481.6 192.25 481.15 192.6 478.55 194.3 480.6 197.45 481.65 201.05 485.2 200.1 488.85 200.15 489.1 196.4 490.25 192.9
M 506.6 160.05
L 508.6 157 505.6 154.85 503.35 152.05 500.45 154.15 496.95 155.35 498.1 158.85 498.2 162.65 501.9 162.65 505.4 163.65 506.6 160.05
M 470.65 106.35
L 467.75 104.2 465.45 107 462.4 109.1 464.4 112.15 465.5 115.8 469.1 114.8 472.7 114.85 472.9 111.1 474.1 107.65 470.65 106.35
M 491.9 71.95
L 488.95 74.1 485.5 75.35 486.65 78.8 486.75 82.55 490.45 82.55 493.95 83.55 495.1 80 497.15 76.95 494.15 74.8 491.9 71.95
M 486.1 37.35
L 487.3 33.85 483.85 32.6 480.95 30.4 478.65 33.2 475.6 35.3 477.6 38.35 478.7 41.95 482.3 41 485.9 41.1 486.1 37.35 Z"/>

<path fill="#1B914D" stroke="none" d="
M 523.55 171.25
Q 523.3 170.7 523.05 170.2
L 522.8 169.65 522.25 168.45
Q 522.2 168.35 522.15 168.25
L 521.9 167.65
Q 521.5 166.9 521.15 166.15 488.05 178 437.3 185.7 434.45 186.15 431.55 186.55 431.25 187.45 430.95 188.35 429.15 192.95 432.7 195.6 447.9 193.35 461.15 191.15 503.95 183.85 525.8 176.4 525.7 176.1 525.6 175.85
L 525.5 175.65
Q 525.35 175.3 525.2 175
L 525.1 174.7
Q 524.65 173.7 524.2 172.7 524.1 172.5 524.05 172.3
L 523.55 171.25
M 519.7 147.5
Q 519.25 145.75 518.8 144.05 495.65 142.5 480.7 139.15 463.6 135.35 446.5 129.4 445.1 133.75 443.8 138.55 444.75 138.85 445.7 139.15 479.25 149.6 520.45 150.75 520.35 150.4 520.3 150.05
L 520.25 149.8
Q 519.95 148.65 519.7 147.5
M 508.2 94.7
Q 506.75 90.1 505.35 86.05 478.8 93.95 452.25 96.8 451.35 99.7 450.45 102.8 481.5 101.45 508.2 94.7 Z"/>

<path fill="#B6D0CF" stroke="none" d="
M 519.05 162.15
Q 518.75 161.65 518.45 161.1 497.95 168.75 477.9 168.3 474.95 168.2 472.05 168 457.2 166.75 442.65 161.1 442.35 161.65 442.05 162.25 457.2 169.75 472.6 171.2 475.85 171.5 479.15 171.55 482.1 171.55 485.1 171.4 486.9 171.25 488.7 171.1 503.75 169.45 519.05 162.15
M 493.25 121.8
Q 491.7 120.65 491.25 118.9 471.2 121.25 451.65 114.95 451.35 115.65 451.1 116.35 472.05 126.6 493.5 122 493.4 121.9 493.25 121.8
M 510 116.3
Q 509.7 115.6 509.45 114.95 505.85 116.05 502.3 116.9 502.3 117.05 502.3 117.2 502.35 118.5 501.8 119.7 505.9 118.25 510 116.3
M 496.95 65.6
Q 496.65 65.05 496.35 64.55 487.05 67.45 477.6 67.15 477.05 67.85 476.3 68.4 474.45 69.8 472.1 69.45 469.8 69.15 468.4 67.25 467.9 66.6 467.65 65.9 466.1 65.55 464.55 65.15 464.15 65.85 463.75 66.65 463.7 66.7 463.7 66.75 480.5 75.05 496.95 65.6 Z"/>

<path fill="#FFFFFF" stroke="none" d="
M 499.65 63.15
L 500.15 62.95
Q 490.95 29.45 480.55 13.3 470.1 29.45 460.95 62.95
L 461.45 63.25
Q 470.35 31.05 480.55 15.3 490.65 31 499.65 63.15 Z"/>
</g>
</defs>

<g transform="matrix( 1, 0, 0, 1, 0,0) ">
<use xlink:href="#Layer0_0_FILL"/>
</g>

<g transform="matrix( 1, 0, 0, 1, 0,0) ">
<use xlink:href="#Layer0_1_FILL"/>
</g>

<g transform="matrix( 1, 0, 0, 1, 0,0) ">
<use xlink:href="#Layer0_2_FILL"/>
</g>

<g transform="matrix( 1, 0, 0, 1, 0,0) ">
<use xlink:href="#Layer0_3_FILL"/>
</g>
</svg>
