
<svg xmlns="http://www.w3.org/2000/svg" version="1.1" xmlns:xlink="http://www.w3.org/1999/xlink" preserveAspectRatio="none" x="0px" y="0px" width="750px" height="550px" viewBox="0 0 750 550">
<defs>
<g id="Layer0_0_FILL">
<path fill="#D9F5FF" stroke="none" d="
M 100 124
L 100 128 104 128 104 124 100 124
M 92 108
L 88 108 88 112 92 112 92 108
M 100 104
L 100 100 96 100 96 104 100 104
M 120 120
L 120 112 112 112 112 120 120 120
M 76 76
L 72 76 72 80 76 80 76 76
M 100 88
L 100 84 96 84 96 88 100 88
M 128 72
L 128 68 124 68 124 72 128 72 Z"/>

<path fill="#E7F9FF" stroke="none" d="
M 128 68
L 128 64 64 64 64 128 100 128 100 124 104 124 104 128 128 128 128 72 124 72 124 68 128 68
M 92 72
L 96 72 96 76 92 76 92 72
M 100 84
L 100 88 96 88 96 84 100 84
M 88 80
L 88 88 80 88 80 80 88 80
M 120 80
L 120 76 124 76 124 80 120 80
M 72 76
L 76 76 76 80 72 80 72 76
M 80 92
L 80 96 76 96 76 92 80 92
M 68 112
L 72 112 72 116 68 116 68 112
M 120 112
L 120 120 112 120 112 112 120 112
M 108 112
L 104 112 104 108 108 108 108 112
M 100 100
L 100 104 96 104 96 100 100 100
M 88 108
L 92 108 92 112 88 112 88 108 Z"/>

<path fill="#F5FCFF" stroke="none" d="
M 104 112
L 108 112 108 108 104 108 104 112
M 72 112
L 68 112 68 116 72 116 72 112
M 80 96
L 80 92 76 92 76 96 80 96
M 120 76
L 120 80 124 80 124 76 120 76
M 88 88
L 88 80 80 80 80 88 88 88
M 96 72
L 92 72 92 76 96 76 96 72 Z"/>
</g>

<g id="Layer0_1_FILL">
<path fill="#D9F5FF" stroke="none" d="
M 196 76
L 192 76 192 84 196 84 196 76
M 256 84
L 256 76 252 76 252 84 256 84
M 220 120
L 216 120 216 124 220 124 220 120
M 228 104
L 228 108 232 108 232 104 228 104
M 220 88
L 220 92 224 92 224 88 220 88
M 240 72
L 236 72 236 76 240 76 240 72
M 200 88
L 200 92 204 92 204 88 200 88 Z"/>

<path fill="#E7F9FF" stroke="none" d="
M 256 76
L 256 64 192 64 192 76 196 76 196 84 192 84 192 128 256 128 256 84 252 84 252 76 256 76
M 244 80
L 244 84 240 84 240 80 244 80
M 200 92
L 200 88 204 88 204 92 200 92
M 236 72
L 240 72 240 76 236 76 236 72
M 204 72
L 204 68 208 68 208 72 204 72
M 220 92
L 220 88 224 88 224 92 220 92
M 232 92
L 240 92 240 100 232 100 232 92
M 228 108
L 228 104 232 104 232 108 228 108
M 212 108
L 212 112 208 112 208 108 212 108
M 204 116
L 204 120 200 120 200 116 204 116
M 216 120
L 220 120 220 124 216 124 216 120
M 248 112
L 248 116 244 116 244 112 248 112 Z"/>

<path fill="#F5FCFF" stroke="none" d="
M 248 116
L 248 112 244 112 244 116 248 116
M 204 120
L 204 116 200 116 200 120 204 120
M 212 112
L 212 108 208 108 208 112 212 112
M 240 92
L 232 92 232 100 240 100 240 92
M 204 68
L 204 72 208 72 208 68 204 68
M 244 84
L 244 80 240 80 240 84 244 84 Z"/>
</g>

<g id="Layer0_2_FILL">
<path fill="#000000" fill-opacity="0.10196078431372549" stroke="none" d="
M 489.4 114.55
Q 489.4 112.9 487.75 111.65 486.55 112 485.35 112.25 485.1 114 483.8 115.3 483.75 115.3 483.75 115.35 482.15 116.95 479.9 116.95 477.6 116.95 476 115.35 474.7 114.05 474.45 112.25 473.25 112 472.05 111.65 470.4 112.9 470.4 114.55 470.4 116.7 473.15 118.15 475.95 119.65 479.9 119.65 483.85 119.65 486.6 118.15 489.4 116.7 489.4 114.55 Z"/>

<path fill="#115F32" stroke="none" d="
M 487.15 83.65
Q 487.2 82.95 486.9 82.4
L 481.65 73.05
Q 481.3 72.4 480.6 72.15 479.9 71.85 479.2 72.15 478.5 72.4 478.15 73.05
L 472.9 82.4
Q 472.6 82.95 472.7 83.65 472.75 84.3 473.25 84.8
L 474.2 85.75 469.55 95.15
Q 469.3 95.7 469.4 96.3 469.45 96.9 469.9 97.35
L 471.05 98.6 468.1 103.65 468.1 103.6
Q 466.4 106.35 467.3 108.3 467.9 110.3 471 111.3
L 470.95 111.3
Q 471.5 111.5 472.05 111.65 473.25 112 474.45 112.25 474.7 114.05 476 115.35 477.6 116.95 479.9 116.95 482.15 116.95 483.75 115.35 483.75 115.3 483.8 115.3 485.1 114 485.35 112.25 486.55 112 487.75 111.65 488.5 111.45 489.3 111.15 491.85 110.2 492.45 108.35 492.5978515625 108.0357421875 492.65 107.7 492.9005859375 106.7396484375 492.55 105.55 492.403125 104.9208984375 492.05 104.2 492 104.1 492 104.05
L 488.8 98.6 489.95 97.35
Q 490.35 96.9 490.45 96.3 490.5 95.7 490.25 95.15
L 485.65 85.75 486.6 84.8
Q 487.05 84.3 487.15 83.65
M 487.15 93.25
L 487.35 93.65 488.45 96 486.3 98.35 490.25 105.05
Q 490.3154296875 105.183203125 490.35 105.3 490.9357421875 106.6009765625 490.6 107.5 490.244140625 108.6498046875 488.6 109.25 486 110.2 483.4 110.6
L 483.4 111.45
Q 483.4 112.9 482.35 113.9 481.35 114.95 479.9 114.95 478.45 114.95 477.4 113.9 476.4 112.9 476.4 111.45
L 476.4 110.6
Q 474 110.25 471.6 109.4 467.65 108.1 469.8 104.65
L 472.2 100.5 473.5 98.35 471.35 96 472.5 93.65 475.45 87.55 476.6 85.3 474.65 83.35 476 81 479.9 74 483.85 81 485.15 83.35 483.2 85.3 485.65 90.25 487.15 93.25 Z"/>

<path fill="#BB8044" stroke="none" d="
M 483.4 110.6
Q 479.9 111.1 476.4 110.6
L 476.4 111.45
Q 476.4 112.9 477.4 113.9 478.45 114.95 479.9 114.95 481.35 114.95 482.35 113.9 483.4 112.9 483.4 111.45
L 483.4 110.6 Z"/>

<path fill="#E27952" stroke="none" d="
M 476.6 85.3
L 475.45 87.55
Q 480.79921875 91.4810546875 487.15 93.25
L 485.65 90.25
Q 480.808203125 88.46796875 476.6 85.3
M 490.6 107.5
Q 490.9357421875 106.6009765625 490.35 105.3 480.915234375 103.9322265625 473.5 98.35
L 472.2 100.5
Q 480.238671875 106.4564453125 490.6 107.5 Z"/>

<path fill="#F5D693" stroke="none" d="
M 480 96
Q 480 96.85 480.55 97.4 481.15 98 482 98 482.85 98 483.4 97.4 484 96.85 484 96 484 95.15 483.4 94.55 483.3578125 94.5078125 483.3 94.45 482.784765625 94 482 94 481.15 94 480.55 94.55 480.495703125 94.6091796875 480.45 94.65 480 95.233984375 480 96
M 478.55 83.4
Q 479.15 84 480 84 480.85 84 481.4 83.4 482 82.85 482 82 482 81.6603515625 481.9 81.35 481.76015625 80.91015625 481.4 80.55 480.85 80 480 80 479.15 80 478.55 80.55 478.2181640625 80.912109375 478.05 81.35 478 81.662890625 478 82 478 82.85 478.55 83.4
M 475.4 104.55
Q 474.85 104 474 104 473.15 104 472.55 104.55 472 105.15 472 106 472 106.85 472.55 107.4 473.15 108 474 108 474.85 108 475.4 107.4 476 106.85 476 106 476 105.15 475.4 104.55 Z"/>

<path fill="#1B914D" stroke="none" d="
M 483.2 85.3
Q 480.15 86.85 476.6 85.3 480.808203125 88.46796875 485.65 90.25
L 483.2 85.3
M 476 81
Q 477.0517578125 81.2466796875 478.05 81.35 478.2181640625 80.912109375 478.55 80.55 479.15 80 480 80 480.85 80 481.4 80.55 481.76015625 80.91015625 481.9 81.35 482.8859375 81.241015625 483.85 81
L 479.9 74 476 81
M 488.6 109.25
Q 490.244140625 108.6498046875 490.6 107.5 480.238671875 106.4564453125 472.2 100.5
L 469.8 104.65
Q 467.65 108.1 471.6 109.4 474 110.25 476.4 110.6 479.9 111.1 483.4 110.6 486 110.2 488.6 109.25
M 474 104
Q 474.85 104 475.4 104.55 476 105.15 476 106 476 106.85 475.4 107.4 474.85 108 474 108 473.15 108 472.55 107.4 472 106.85 472 106 472 105.15 472.55 104.55 473.15 104 474 104
M 490.35 105.3
Q 490.3154296875 105.183203125 490.25 105.05
L 486.3 98.35
Q 479.75 101.15 473.5 98.35 480.915234375 103.9322265625 490.35 105.3
M 487.35 93.65
L 487.15 93.25
Q 480.79921875 91.4810546875 475.45 87.55
L 472.5 93.65
Q 476.50859375 94.7384765625 480.45 94.65 480.495703125 94.6091796875 480.55 94.55 481.15 94 482 94 482.784765625 94 483.3 94.45 485.341015625 94.2140625 487.35 93.65 Z"/>

<path fill="#198A49" stroke="none" d="
M 480 84
Q 479.15 84 478.55 83.4 478 82.85 478 82 478 81.662890625 478.05 81.35 477.0517578125 81.2466796875 476 81
L 474.65 83.35 476.6 85.3
Q 480.15 86.85 483.2 85.3
L 485.15 83.35 483.85 81
Q 482.8859375 81.241015625 481.9 81.35 482 81.6603515625 482 82 482 82.85 481.4 83.4 480.85 84 480 84
M 488.45 96
L 487.35 93.65
Q 485.341015625 94.2140625 483.3 94.45 483.3578125 94.5078125 483.4 94.55 484 95.15 484 96 484 96.85 483.4 97.4 482.85 98 482 98 481.15 98 480.55 97.4 480 96.85 480 96 480 95.233984375 480.45 94.65 476.50859375 94.7384765625 472.5 93.65
L 471.35 96 473.5 98.35
Q 479.75 101.15 486.3 98.35
L 488.45 96 Z"/>
</g>

<g id="Layer0_3_FILL">
<path fill="#000000" fill-opacity="0.10196078431372549" stroke="none" d="
M 347.75 113.15
Q 346.7236328125 112.856640625 345.7 112.4 345.1 113.3830078125 345.1 114.5 345.1 116.7 347.15 118.25 349.2 119.8 352.1 119.8 355 119.8 357.05 118.25 359.1 116.7 359.1 114.5 359.1 113.3732421875 358.5 112.4 357.5212890625 112.80859375 356.55 113.1 356.55 114.85 355.3 116.1 355.25 116.15 355.2 116.2 353.95 117.45 352.15 117.45 350.3 117.45 349.05 116.2 347.8 114.95 347.75 113.15 Z"/>

<path fill="#115F32" stroke="none" d="
M 350.35 88
Q 350.363671875 88.024609375 350.35 88.05
L 345.7 96.3
Q 345.4 96.85 345.5 97.55 345.55 98.2 346.05 98.7
L 346.8 99.45 343.5 106.85
Q 343.45 106.85 343.45 106.9 341.95 110.35 345.5 112.3 345.55 112.35 345.65 112.4 345.6736328125 112.41015625 345.7 112.4 346.7236328125 112.856640625 347.75 113.15 347.8 114.95 349.05 116.2 350.3 117.45 352.15 117.45 353.95 117.45 355.2 116.2 355.25 116.15 355.3 116.1 356.55 114.85 356.55 113.1 357.5212890625 112.80859375 358.5 112.4 358.5212890625 112.4115234375 358.55 112.4 358.6 112.4 358.65 112.35 359.5013671875 111.9185546875 360.05 111.4 360.9109375 110.6630859375 361.15 109.75 361.466796875 108.632421875 360.85 107.25 360.85 107.2 360.85 107.15
L 357.45 99.45 357.45 99.45 358.2 98.65
Q 358.65 98.15 358.75 97.5
L 358.75 97.45
Q 358.7900390625 96.831640625 358.5 96.3
L 353.85 88.05
Q 353.836328125 88.024609375 353.8 88 353.47265625 87.390234375 352.8 87.15 352.1 86.85 351.4 87.15 350.72734375 87.390234375 350.35 88
M 347.45 97.25
L 348 96.25 349.25 94.1 352.1 89 355.6 95.2 356.55 96.95 356.75 97.25 355.1 98.9 355.05 99 359 107.95
Q 359.2302734375 108.534765625 359.15 109 358.9765625 109.93671875 357.75 110.55 357.360546875 110.7203125 356.95 110.85 355.760546875 111.323046875 354.55 111.55
L 354.55 113.05
Q 354.55 114.05 353.8 114.75 353.15 115.45 352.15 115.45 351.15 115.45 350.45 114.75 349.75 114.05 349.75 113.05
L 349.75 111.6
Q 348.1 111.3 346.45 110.55 344.55 109.5 345.3 107.65
L 345.8 106.5 346.85 104.2 349.2 99 347.45 97.25 Z"/>

<path fill="#BB8044" stroke="none" d="
M 352.15 115.45
Q 353.15 115.45 353.8 114.75 354.55 114.05 354.55 113.05
L 354.55 111.55
Q 352.1 112 349.75 111.6
L 349.75 113.05
Q 349.75 114.05 350.45 114.75 351.15 115.45 352.15 115.45 Z"/>

<path fill="#1B914D" stroke="none" d="
M 345.3 107.65
Q 344.55 109.5 346.45 110.55 348.1 111.3 349.75 111.6 352.1 112 354.55 111.55 355.760546875 111.323046875 356.95 110.85 350.943359375 109.587890625 345.8 106.5
L 345.3 107.65
M 359 107.95
L 355.05 99
Q 352.35 100.35 349.2 99
L 346.85 104.2
Q 352.4470703125 107.7220703125 359.15 109 359.2302734375 108.534765625 359 107.95
M 349.25 94.1
Q 350.8697265625 94.94296875 352.55 95.6 354.1109375 95.577734375 355.6 95.2
L 352.1 89 349.25 94.1 Z"/>

<path fill="#E27952" stroke="none" d="
M 357.75 110.55
Q 358.9765625 109.93671875 359.15 109 352.4470703125 107.7220703125 346.85 104.2
L 345.8 106.5
Q 350.943359375 109.587890625 356.95 110.85 357.360546875 110.7203125 357.75 110.55
M 349.25 94.1
L 348 96.25
Q 351.3970703125 97.94609375 355.1 98.9
L 356.75 97.25 356.55 96.95
Q 354.5193359375 96.393359375 352.55 95.6 350.8697265625 94.94296875 349.25 94.1 Z"/>

<path fill="#198A49" stroke="none" d="
M 356.55 96.95
L 355.6 95.2
Q 354.1109375 95.577734375 352.55 95.6 354.5193359375 96.393359375 356.55 96.95
M 348 96.25
L 347.45 97.25 349.2 99
Q 352.35 100.35 355.05 99
L 355.1 98.9
Q 351.3970703125 97.94609375 348 96.25 Z"/>
</g>

<g id="Layer0_3_MEMBER_0_FILL">
<path fill="#F5D693" stroke="none" d="
M 353.95 93.65
Q 353.85 93.45 353.7 93.25 353.4 93 353 93 352.55 93 352.25 93.25 352.1 93.45 352.05 93.7 352 93.8 352 94 352 94.4 352.25 94.7 352.55 95 353 95 353.4 95 353.7 94.7 354 94.4 354 94 354 93.8 353.95 93.65 Z"/>
</g>

<g id="Layer0_3_MEMBER_1_FILL">
<path fill="#F5D693" stroke="none" d="
M 355 101
Q 355 100.8 354.95 100.65 354.85 100.45 354.7 100.25 354.4 100 354 100 353.55 100 353.25 100.25 353.1 100.45 353.05 100.7 353 100.8 353 101 353 101.4 353.25 101.7 353.55 102 354 102 354.4 102 354.7 101.7 355 101.4 355 101 Z"/>
</g>

<g id="Layer0_3_MEMBER_2_FILL">
<path fill="#F5D693" stroke="none" d="
M 351 105
Q 351.4 105 351.7 104.7 352 104.4 352 104 352 103.8 351.95 103.65 351.85 103.45 351.7 103.25 351.4 103 351 103 350.55 103 350.25 103.25 350.1 103.45 350.05 103.7 350 103.8 350 104 350 104.4 350.25 104.7 350.55 105 351 105 Z"/>
</g>

<g id="Layer0_4_FILL">
<path fill="#115F32" stroke="none" d="
M 232 218
Q 232 217.15 231.45 216.6 230.85 216 230 216
L 218 216
Q 217.15 216 216.6 216.6 216 217.15 216 218
L 216 230
Q 216 230.85 216.6 231.45 217.15 232 218 232
L 230 232
Q 230.85 232 231.45 231.45 232 230.85 232 230
L 232 218
M 226 218
L 230 218 230 226 230 230 226 230 222 230 218 230 218 226 218 218 222 218 226 218 Z"/>

<path fill="#178044" stroke="none" d="
M 230 230
L 230 226 226 226 226 230 230 230
M 218 226
L 218 230 222 230 222 226 218 226 Z"/>

<path fill="#F0E0BB" stroke="none" d="
M 222 223.25
L 222 226 226 226 226 223.15
Q 225.4 223.65 224.75 223.9 224.3 224 224 224 223.65 224 223.2 223.9 222.6 223.7 222 223.25
M 226 219.3
L 226 218 222 218 222 219.3
Q 222.75 219.65 223.5 220.4 223.75 220.7 223.95 220.95 224.15 220.7 224.45 220.35 225.15 219.6 226 219.3 Z"/>

<path fill="#D2C4A3" stroke="none" d="
M 222 226
L 222 230 226 230 226 226 222 226
M 223.95 220.95
Q 223.75 220.7 223.5 220.4 222.75 219.65 222 219.3 221.85 219.2 221.7 219.15 220.75 218.8 220.3 219.25 219.8 219.7 220.1 220.75 220.4 221.75 221.3 222.65 221.65 223 222 223.25 222.6 223.7 223.2 223.9 223.65 224 224 224 224.3 224 224.75 223.9 225.4 223.65 226 223.15 226.35 222.9 226.65 222.6 227.55 221.7 227.85 220.75 228.2 219.8 227.7 219.35 227.25 218.8 226.35 219.15 226.15 219.2 226 219.3 225.15 219.6 224.45 220.35 224.15 220.7 223.95 220.95 Z"/>

<path fill="#1B914D" stroke="none" d="
M 222 218
L 218 218 218 226 222 226 222 223.25
Q 221.65 223 221.3 222.65 220.4 221.75 220.1 220.75 219.8 219.7 220.3 219.25 220.75 218.8 221.7 219.15 221.85 219.2 222 219.3
L 222 218
M 226 218
L 226 219.3
Q 226.15 219.2 226.35 219.15 227.25 218.8 227.7 219.35 228.2 219.8 227.85 220.75 227.55 221.7 226.65 222.6 226.35 222.9 226 223.15
L 226 226 230 226 230 218 226 218 Z"/>
</g>

<g id="Layer0_5_FILL">
<path fill="#115F32" stroke="none" d="
M 104 216
Q 104 215.15 103.45 214.6 102.85 214 102 214
L 90 214
Q 89.15 214 88.6 214.6 88 215.15 88 216
L 88 232
Q 88 232.85 88.6 233.45 89.15 234 90 234
L 102 234
Q 102.85 234 103.45 233.45 104 232.85 104 232
L 104 216
M 102 216
L 102 220 102 224 102 228 102 232 98 232 94 232 90 232 90 228 90 224 90 220 90 216 94 216 98 216 102 216 Z"/>

<path fill="#178044" stroke="none" d="
M 98 228
L 98 232 102 232 102 228 98 228
M 94 232
L 94 228 90 228 90 232 94 232 Z"/>

<path fill="#1B914D" stroke="none" d="
M 94 228
L 94 224 90 224 90 228 94 228
M 98 224
L 98 228 102 228 102 224 98 224
M 90 216
L 90 220 92.2 220
Q 92.15 219.9 92.1 219.75 91.8 218.7 92.3 218.25 92.75 217.8 93.7 218.15 93.85 218.2 94 218.3
L 94 216 90 216
M 102 220
L 102 216 98 216 98 218.3
Q 98.15 218.2 98.35 218.15 99.25 217.8 99.7 218.35 100.2 218.8 99.85 219.75 99.8 219.9 99.75 220
L 102 220 Z"/>

<path fill="#D2704C" stroke="none" d="
M 94 232
L 98 232 98 228 94 228 94 232
M 93.7 218.15
Q 92.75 217.8 92.3 218.25 91.8 218.7 92.1 219.75 92.15 219.9 92.2 220 92.5 220.85 93.3 221.65 93.65 222 94 222.25 94.6 222.7 95.2 222.9 95.65 223 96 223 96.3 223 96.75 222.9 97.4 222.65 98 222.15 98.35 221.9 98.65 221.6 99.45 220.8 99.75 220 99.8 219.9 99.85 219.75 100.2 218.8 99.7 218.35 99.25 217.8 98.35 218.15 98.15 218.2 98 218.3 97.15 218.6 96.45 219.35 96.15 219.7 95.95 219.95 95.75 219.7 95.5 219.4 94.75 218.65 94 218.3 93.85 218.2 93.7 218.15 Z"/>

<path fill="#E97D55" stroke="none" d="
M 95.5 219.4
Q 95.75 219.7 95.95 219.95 96.15 219.7 96.45 219.35 97.15 218.6 98 218.3
L 98 216 94 216 94 218.3
Q 94.75 218.65 95.5 219.4
M 94 222.25
Q 93.65 222 93.3 221.65 92.5 220.85 92.2 220
L 90 220 90 224 94 224 94 228 98 228 98 224 102 224 102 220 99.75 220
Q 99.45 220.8 98.65 221.6 98.35 221.9 98 222.15 97.4 222.65 96.75 222.9 96.3 223 96 223 95.65 223 95.2 222.9 94.6 222.7 94 222.25 Z"/>
</g>

<g id="Layer0_6_FILL">
<path fill="#A6583C" stroke="none" d="
M 346 214
Q 345.9 214 345.85 214 345.1 214.05 344.6 214.6 344 215.15 344 216
L 344 232
Q 344 232.85 344.6 233.45 345.15 234 346 234
L 358 234
Q 358.85 234 359.45 233.45 359.6 233.25 359.7 233.1 360 232.6 360 232
L 360 216
Q 360 215.4 359.7 214.95 359.6 214.75 359.45 214.6 358.85 214 358 214
L 346 214
M 350 216
L 354 216 358 216 358 224 358 232 354 232 350 232 346 232 346 224 346 216 350 216 Z"/>

<path fill="#D2704C" stroke="none" d="
M 350 224
L 346 224 346 232 350 232 350 224
M 358 232
L 358 224 354 224 354 232 358 232 Z"/>

<path fill="#D2C4A3" stroke="none" d="
M 354 224
L 350 224 350 232 354 232 354 224
M 348.1 218.7
Q 348.4 219.7 349.3 220.6 349.65 220.95 350 221.2 350.6 221.65 351.2 221.85 351.65 221.95 352 221.95 352.3 221.95 352.75 221.85 353.4 221.6 354 221.1 354.35 220.85 354.65 220.55 355.55 219.65 355.85 218.7 356.2 217.75 355.7 217.3 355.25 216.75 354.35 217.1 354.15 217.15 354 217.25 353.15 217.55 352.45 218.3 352.15 218.65 351.95 218.9 351.75 218.65 351.5 218.35 350.75 217.6 350 217.25 349.85 217.15 349.7 217.1 348.75 216.75 348.3 217.2 347.8 217.65 348.1 218.7 Z"/>

<path fill="#F0E0BB" stroke="none" d="
M 351.2 221.85
Q 350.6 221.65 350 221.2
L 350 224 354 224 354 221.1
Q 353.4 221.6 352.75 221.85 352.3 221.95 352 221.95 351.65 221.95 351.2 221.85
M 354 216
L 350 216 350 217.25
Q 350.75 217.6 351.5 218.35 351.75 218.65 351.95 218.9 352.15 218.65 352.45 218.3 353.15 217.55 354 217.25
L 354 216 Z"/>

<path fill="#E97D55" stroke="none" d="
M 354 217.25
Q 354.15 217.15 354.35 217.1 355.25 216.75 355.7 217.3 356.2 217.75 355.85 218.7 355.55 219.65 354.65 220.55 354.35 220.85 354 221.1
L 354 224 358 224 358 216 354 216 354 217.25
M 349.3 220.6
Q 348.4 219.7 348.1 218.7 347.8 217.65 348.3 217.2 348.75 216.75 349.7 217.1 349.85 217.15 350 217.25
L 350 216 346 216 346 224 350 224 350 221.2
Q 349.65 220.95 349.3 220.6 Z"/>
</g>

<g id="Layer0_7_FILL">
<path fill="#A6583C" stroke="none" d="
M 472.6 212.6
Q 472 213.15 472 214
L 472 234
Q 472 234.85 472.6 235.45 473.1 235.95 473.85 236 473.9 236 474 236
L 486 236
Q 486.85 236 487.45 235.45 488 234.85 488 234
L 488 214
Q 488 213.15 487.45 212.6 487.3 212.45 487.15 212.35 486.65 212 486 212
L 474 212
Q 473.15 212 472.6 212.6
M 474 218
L 474 214 478 214 482 214 486 214 486 218 486 222 486 226 486 234 482 234 478 234 474 234 474 226 474 222 474 218 Z"/>

<path fill="#E97D55" stroke="none" d="
M 482 222
L 482 226 486 226 486 222 482 222
M 478 222
L 474 222 474 226 478 226 478 222
M 482.35 216.15
Q 483.25 215.8 483.7 216.35 484.2 216.8 483.85 217.75 483.8 217.9 483.75 218
L 486 218 486 214 482 214 482 216.3
Q 482.15 216.2 482.35 216.15
M 474 214
L 474 218 476.2 218
Q 476.15 217.9 476.1 217.75 475.8 216.7 476.3 216.25 476.75 215.8 477.7 216.15 477.85 216.2 478 216.3
L 478 214 474 214 Z"/>

<path fill="#D2704C" stroke="none" d="
M 478 234
L 478 226 474 226 474 234 478 234
M 482 226
L 482 234 486 234 486 226 482 226 Z"/>

<path fill="#178044" stroke="none" d="
M 482 234
L 482 226 478 226 478 234 482 234
M 483.7 216.35
Q 483.25 215.8 482.35 216.15 482.15 216.2 482 216.3 481.15 216.6 480.45 217.35 480.15 217.7 479.95 217.95 479.75 217.7 479.5 217.4 478.75 216.65 478 216.3 477.85 216.2 477.7 216.15 476.75 215.8 476.3 216.25 475.8 216.7 476.1 217.75 476.15 217.9 476.2 218 476.5 218.85 477.3 219.65 477.65 220 478 220.25 478.6 220.7 479.2 220.9 479.65 221 480 221 480.3 221 480.75 220.9 481.4 220.65 482 220.15 482.35 219.9 482.65 219.6 483.45 218.8 483.75 218 483.8 217.9 483.85 217.75 484.2 216.8 483.7 216.35 Z"/>

<path fill="#1B914D" stroke="none" d="
M 482 216.3
L 482 214 478 214 478 216.3
Q 478.75 216.65 479.5 217.4 479.75 217.7 479.95 217.95 480.15 217.7 480.45 217.35 481.15 216.6 482 216.3
M 474 218
L 474 222 478 222 478 226 482 226 482 222 486 222 486 218 483.75 218
Q 483.45 218.8 482.65 219.6 482.35 219.9 482 220.15 481.4 220.65 480.75 220.9 480.3 221 480 221 479.65 221 479.2 220.9 478.6 220.7 478 220.25 477.65 220 477.3 219.65 476.5 218.85 476.2 218
L 474 218 Z"/>
</g>

<g id="Layer0_8_MEMBER_0_FILL">
<path fill="#115F32" stroke="none" d="
M 86.6 335.6
Q 86 336.15 86 337
L 86 353
Q 86 353.85 86.6 354.45 87.15 355 88 355
L 100 355
Q 100.85 355 101.45 354.45 102 353.85 102 353
L 102 337
Q 102 336.15 101.45 335.6 100.85 335 100 335
L 88 335
Q 87.15 335 86.6 335.6
M 88 345
L 88 341 88 337 92 337 96 337 100 337 100 341 100 345 100 349 100 353 96 353 92 353 88 353 88 349 88 345 Z"/>

<path fill="#178044" stroke="none" d="
M 100 353
L 100 349 96 349 96 353 100 353
M 92 353
L 92 349 88 349 88 353 92 353 Z"/>

<path fill="#D2704C" stroke="none" d="
M 96 349
L 92 349 92 353 96 353 96 349
M 90.1 340.75
Q 90.15 340.9 90.2 341 90.5 341.85 91.3 342.65 91.65 343 92 343.25 92.6 343.7 93.2 343.9 93.65 344 94 344 94.3 344 94.75 343.9 95.4 343.65 96 343.15 96.35 342.9 96.65 342.6 97.45 341.8 97.75 341 97.8 340.9 97.85 340.75 98.2 339.8 97.7 339.35 97.25 338.8 96.35 339.15 96.15 339.2 96 339.3 95.15 339.6 94.45 340.35 94.15 340.7 93.95 340.95 93.75 340.7 93.5 340.4 92.75 339.65 92 339.3 91.85 339.2 91.7 339.15 90.75 338.8 90.3 339.25 89.8 339.7 90.1 340.75 Z"/>

<path fill="#1B914D" stroke="none" d="
M 92 345
L 88 345 88 349 92 349 92 345
M 100 345
L 96 345 96 349 100 349 100 345
M 96.35 339.15
Q 97.25 338.8 97.7 339.35 98.2 339.8 97.85 340.75 97.8 340.9 97.75 341
L 100 341 100 337 96 337 96 339.3
Q 96.15 339.2 96.35 339.15
M 88 341
L 90.2 341
Q 90.15 340.9 90.1 340.75 89.8 339.7 90.3 339.25 90.75 338.8 91.7 339.15 91.85 339.2 92 339.3
L 92 337 88 337 88 341 Z"/>

<path fill="#E97D55" stroke="none" d="
M 92 337
L 92 339.3
Q 92.75 339.65 93.5 340.4 93.75 340.7 93.95 340.95 94.15 340.7 94.45 340.35 95.15 339.6 96 339.3
L 96 337 92 337
M 88 341
L 88 345 92 345 92 349 96 349 96 345 100 345 100 341 97.75 341
Q 97.45 341.8 96.65 342.6 96.35 342.9 96 343.15 95.4 343.65 94.75 343.9 94.3 344 94 344 93.65 344 93.2 343.9 92.6 343.7 92 343.25 91.65 343 91.3 342.65 90.5 341.85 90.2 341
L 88 341 Z"/>
</g>

<g id="Layer0_8_MEMBER_1_FILL">
<path fill="#A6583C" stroke="none" d="
M 99.6 341.6
Q 99 342.15 99 343
L 99 359
Q 99 359.85 99.6 360.45 100.15 361 101 361
L 113 361
Q 113.85 361 114.45 360.45 114.6 360.25 114.7 360.1 115 359.6 115 359
L 115 343
Q 115 342.4 114.7 341.95 114.6 341.75 114.45 341.6 113.85 341 113 341
L 101 341
Q 100.9 341 100.85 341 100.1 341.05 99.6 341.6
M 105 343
L 109 343 113 343 113 351 113 359 109 359 105 359 101 359 101 351 101 343 105 343 Z"/>

<path fill="#D2704C" stroke="none" d="
M 105 359
L 105 351 101 351 101 359 105 359
M 113 359
L 113 351 109 351 109 359 113 359 Z"/>

<path fill="#D2C4A3" stroke="none" d="
M 109 351
L 105 351 105 359 109 359 109 351
M 105 344.25
Q 104.85 344.15 104.7 344.1 103.75 343.75 103.3 344.2 102.8 344.65 103.1 345.7 103.4 346.7 104.3 347.6 104.65 347.95 105 348.2 105.6 348.65 106.2 348.85 106.65 348.95 107 348.95 107.3 348.95 107.75 348.85 108.4 348.6 109 348.1 109.35 347.85 109.65 347.55 110.55 346.65 110.85 345.7 111.2 344.75 110.7 344.3 110.25 343.75 109.35 344.1 109.15 344.15 109 344.25 108.15 344.55 107.45 345.3 107.15 345.65 106.95 345.9 106.75 345.65 106.5 345.35 105.75 344.6 105 344.25 Z"/>

<path fill="#F0E0BB" stroke="none" d="
M 107.75 348.85
Q 107.3 348.95 107 348.95 106.65 348.95 106.2 348.85 105.6 348.65 105 348.2
L 105 351 109 351 109 348.1
Q 108.4 348.6 107.75 348.85
M 105 343
L 105 344.25
Q 105.75 344.6 106.5 345.35 106.75 345.65 106.95 345.9 107.15 345.65 107.45 345.3 108.15 344.55 109 344.25
L 109 343 105 343 Z"/>

<path fill="#E97D55" stroke="none" d="
M 110.7 344.3
Q 111.2 344.75 110.85 345.7 110.55 346.65 109.65 347.55 109.35 347.85 109 348.1
L 109 351 113 351 113 343 109 343 109 344.25
Q 109.15 344.15 109.35 344.1 110.25 343.75 110.7 344.3
M 105 344.25
L 105 343 101 343 101 351 105 351 105 348.2
Q 104.65 347.95 104.3 347.6 103.4 346.7 103.1 345.7 102.8 344.65 103.3 344.2 103.75 343.75 104.7 344.1 104.85 344.15 105 344.25 Z"/>
</g>

<g id="Layer0_8_MEMBER_2_FILL">
<path fill="#115F32" stroke="none" d="
M 77.6 368.45
Q 78.15 369 79 369
L 91 369
Q 91.85 369 92.45 368.45 93 367.85 93 367
L 93 355
Q 93 354.15 92.45 353.6 91.85 353 91 353
L 79 353
Q 78.15 353 77.6 353.6 77 354.15 77 355
L 77 367
Q 77 367.85 77.6 368.45
M 79 363
L 79 355 83 355 87 355 91 355 91 363 91 367 87 367 83 367 79 367 79 363 Z"/>

<path fill="#D2C4A3" stroke="none" d="
M 87 367
L 87 363 83 363 83 367 87 367
M 84.5 357.4
Q 83.75 356.65 83 356.3 82.85 356.2 82.7 356.15 81.75 355.8 81.3 356.25 80.8 356.7 81.1 357.75 81.4 358.75 82.3 359.65 82.65 360 83 360.25 83.6 360.7 84.2 360.9 84.65 361 85 361 85.3 361 85.75 360.9 86.4 360.65 87 360.15 87.35 359.9 87.65 359.6 88.55 358.7 88.85 357.75 89.2 356.8 88.7 356.35 88.25 355.8 87.35 356.15 87.15 356.2 87 356.3 86.15 356.6 85.45 357.35 85.15 357.7 84.95 357.95 84.75 357.7 84.5 357.4 Z"/>

<path fill="#178044" stroke="none" d="
M 91 363
L 87 363 87 367 91 367 91 363
M 79 363
L 79 367 83 367 83 363 79 363 Z"/>

<path fill="#F0E0BB" stroke="none" d="
M 87 363
L 87 360.15
Q 86.4 360.65 85.75 360.9 85.3 361 85 361 84.65 361 84.2 360.9 83.6 360.7 83 360.25
L 83 363 87 363
M 83 356.3
Q 83.75 356.65 84.5 357.4 84.75 357.7 84.95 357.95 85.15 357.7 85.45 357.35 86.15 356.6 87 356.3
L 87 355 83 355 83 356.3 Z"/>

<path fill="#1B914D" stroke="none" d="
M 87.35 356.15
Q 88.25 355.8 88.7 356.35 89.2 356.8 88.85 357.75 88.55 358.7 87.65 359.6 87.35 359.9 87 360.15
L 87 363 91 363 91 355 87 355 87 356.3
Q 87.15 356.2 87.35 356.15
M 79 355
L 79 363 83 363 83 360.25
Q 82.65 360 82.3 359.65 81.4 358.75 81.1 357.75 80.8 356.7 81.3 356.25 81.75 355.8 82.7 356.15 82.85 356.2 83 356.3
L 83 355 79 355 Z"/>
</g>

<g id="Layer0_9_MEMBER_0_FILL">
<path fill="#A6583C" stroke="none" d="
M 222.6 337.6
Q 222 338.15 222 339
L 222 359
Q 222 359.85 222.6 360.45 223.1 360.95 223.85 361 223.9 361 224 361
L 236 361
Q 236.85 361 237.45 360.45 238 359.85 238 359
L 238 339
Q 238 338.15 237.45 337.6 237.3 337.45 237.15 337.35 236.65 337 236 337
L 224 337
Q 223.15 337 222.6 337.6
M 228 339
L 232 339 236 339 236 343 236 347 236 351 236 359 232 359 228 359 224 359 224 351 224 347 224 343 224 339 228 339 Z"/>

<path fill="#D2704C" stroke="none" d="
M 236 359
L 236 351 232 351 232 359 236 359
M 228 351
L 224 351 224 359 228 359 228 351 Z"/>

<path fill="#178044" stroke="none" d="
M 232 351
L 228 351 228 359 232 359 232 351
M 226.2 343
Q 226.5 343.85 227.3 344.65 227.65 345 228 345.25 228.6 345.7 229.2 345.9 229.65 346 230 346 230.3 346 230.75 345.9 231.4 345.65 232 345.15 232.35 344.9 232.65 344.6 233.45 343.8 233.75 343 233.8 342.9 233.85 342.75 234.2 341.8 233.7 341.35 233.25 340.8 232.35 341.15 232.15 341.2 232 341.3 231.15 341.6 230.45 342.35 230.15 342.7 229.95 342.95 229.75 342.7 229.5 342.4 228.75 341.65 228 341.3 227.85 341.2 227.7 341.15 226.75 340.8 226.3 341.25 225.8 341.7 226.1 342.75 226.15 342.9 226.2 343 Z"/>

<path fill="#E97D55" stroke="none" d="
M 224 347
L 224 351 228 351 228 347 224 347
M 236 351
L 236 347 232 347 232 351 236 351
M 232 341.3
Q 232.15 341.2 232.35 341.15 233.25 340.8 233.7 341.35 234.2 341.8 233.85 342.75 233.8 342.9 233.75 343
L 236 343 236 339 232 339 232 341.3
M 224 343
L 226.2 343
Q 226.15 342.9 226.1 342.75 225.8 341.7 226.3 341.25 226.75 340.8 227.7 341.15 227.85 341.2 228 341.3
L 228 339 224 339 224 343 Z"/>

<path fill="#1B914D" stroke="none" d="
M 226.2 343
L 224 343 224 347 228 347 228 351 232 351 232 347 236 347 236 343 233.75 343
Q 233.45 343.8 232.65 344.6 232.35 344.9 232 345.15 231.4 345.65 230.75 345.9 230.3 346 230 346 229.65 346 229.2 345.9 228.6 345.7 228 345.25 227.65 345 227.3 344.65 226.5 343.85 226.2 343
M 232 339
L 228 339 228 341.3
Q 228.75 341.65 229.5 342.4 229.75 342.7 229.95 342.95 230.15 342.7 230.45 342.35 231.15 341.6 232 341.3
L 232 339 Z"/>
</g>

<g id="Layer0_9_MEMBER_1_FILL">
<path fill="#115F32" stroke="none" d="
M 226 352
Q 226 351.15 225.45 350.6 224.85 350 224 350
L 212 350
Q 211.15 350 210.6 350.6 210 351.15 210 352
L 210 364
Q 210 364.85 210.6 365.45 211.15 366 212 366
L 224 366
Q 224.85 366 225.45 365.45 226 364.85 226 364
L 226 352
M 224 352
L 224 360 224 364 220 364 216 364 212 364 212 360 212 352 216 352 220 352 224 352 Z"/>

<path fill="#D2C4A3" stroke="none" d="
M 220 360
L 216 360 216 364 220 364 220 360
M 217.5 354.4
Q 216.75 353.65 216 353.3 215.85 353.2 215.7 353.15 214.75 352.8 214.3 353.25 213.8 353.7 214.1 354.75 214.4 355.75 215.3 356.65 215.65 357 216 357.25 216.6 357.7 217.2 357.9 217.65 358 218 358 218.3 358 218.75 357.9 219.4 357.65 220 357.15 220.35 356.9 220.65 356.6 221.55 355.7 221.85 354.75 222.2 353.8 221.7 353.35 221.25 352.8 220.35 353.15 220.15 353.2 220 353.3 219.15 353.6 218.45 354.35 218.15 354.7 217.95 354.95 217.75 354.7 217.5 354.4 Z"/>

<path fill="#178044" stroke="none" d="
M 212 360
L 212 364 216 364 216 360 212 360
M 224 364
L 224 360 220 360 220 364 224 364 Z"/>

<path fill="#F0E0BB" stroke="none" d="
M 217.2 357.9
Q 216.6 357.7 216 357.25
L 216 360 220 360 220 357.15
Q 219.4 357.65 218.75 357.9 218.3 358 218 358 217.65 358 217.2 357.9
M 216 353.3
Q 216.75 353.65 217.5 354.4 217.75 354.7 217.95 354.95 218.15 354.7 218.45 354.35 219.15 353.6 220 353.3
L 220 352 216 352 216 353.3 Z"/>

<path fill="#1B914D" stroke="none" d="
M 215.7 353.15
Q 215.85 353.2 216 353.3
L 216 352 212 352 212 360 216 360 216 357.25
Q 215.65 357 215.3 356.65 214.4 355.75 214.1 354.75 213.8 353.7 214.3 353.25 214.75 352.8 215.7 353.15
M 224 360
L 224 352 220 352 220 353.3
Q 220.15 353.2 220.35 353.15 221.25 352.8 221.7 353.35 222.2 353.8 221.85 354.75 221.55 355.7 220.65 356.6 220.35 356.9 220 357.15
L 220 360 224 360 Z"/>
</g>

<g id="Layer0_10_FILL">
<path fill="#ACB8B8" stroke="none" d="
M 476.05 363
L 478.05 363 478.05 361 476.05 361 476.05 363
M 484.05 361
L 482.05 361 482.05 363 484.05 363 484.05 361
M 484.05 355
L 484.05 357 484.05 359 486.1 359 486.1 355 484.05 355
M 476.05 357
L 476.05 355 474 355 474 359 476.05 359 476.05 357 Z"/>

<path fill="#115F32" stroke="none" d="
M 482.05 365
L 482.05 363 478.05 363 478.05 365 482.05 365
M 476.05 349
L 478.05 347 474.05 347 473.95 347
Q 473.15 347 472.6 347.6 472 348.15 472 349
L 472 355 474 355 474 351 474 349 476.05 349
M 482.05 347
L 484.05 349 486.1 349 486.1 351 486.1 355 488.1 355 488.1 349
Q 488.1 348.15 487.55 347.6 486.95 347 486.25 347
L 486.05 347 482.05 347
M 480.05 339
Q 479.2 339 478.65 339.6
L 476.65 341.6
Q 476.05 342.15 476.05 343
L 476.05 345 478.05 345 478.05 343 480.05 341 482.05 343 482.05 345 484.05 345 484.05 343
Q 484.05 342.15 483.5 341.6
L 481.5 339.6
Q 480.9 339 480.05 339 Z"/>

<path fill="#686D6D" stroke="none" d="
M 482.05 363
L 482.05 365 484.05 365
Q 484.9 365 485.5 364.45 486.05 363.85 486.05 363
L 486.05 361 486.15 361
Q 486.95 361 487.55 360.45 488.1 359.85 488.1 359
L 488.1 355 486.1 355 486.1 359 484.05 359 484.05 361 484.05 363 482.05 363
M 474 355
L 472 355 472 359
Q 472 359.85 472.6 360.45 473.15 361 474 361
L 474.05 361 474.05 363
Q 474.05 363.85 474.65 364.45 475.2 365 476.05 365
L 478.05 365 478.05 363 476.05 363 476.05 361 476.05 359 474 359 474 355 Z"/>

<path fill="#1B914D" stroke="none" d="
M 484.05 357
L 476.05 357 476.05 359 476.05 361 478.05 361 478.05 363 482.05 363 482.05 361 484.05 361 484.05 359 484.05 357
M 482.05 355
L 484.05 355 484.05 353 482.05 353 482.05 355
M 478.05 353
L 476.05 353 476.05 355 478.05 355 478.05 353
M 476.05 351
L 476.05 349 474 349 474 351 476.05 351
M 484.05 349
L 484.05 351 486.1 351 486.1 349 484.05 349
M 480.05 341
L 478.05 343 482.05 343 480.05 341 Z"/>

<path fill="#178345" stroke="none" d="
M 484.05 353
L 484.05 355 486.1 355 486.1 351 484.05 351 482.05 353 484.05 353
M 476.05 353
L 478.05 353 476.05 351 474 351 474 355 476.05 355 476.05 353 Z"/>

<path fill="#515151" stroke="none" d="
M 478.05 355
L 476.05 355 476.05 357 484.05 357 484.05 355 482.05 355 478.05 355 Z"/>

<path fill="#D2E0E0" stroke="none" d="
M 484.05 351
L 484.05 349 482.05 347 478.05 347 476.05 349 476.05 351 478.05 353 478.05 355 482.05 355 482.05 353 484.05 351
M 478.05 343
L 478.05 345 482.05 345 482.05 343 478.05 343 Z"/>

<path fill="#FFD18B" stroke="none" d="
M 482.05 345
L 478.05 345 478.05 347 482.05 347 482.05 345 Z"/>

<path fill="#AF8F5E" stroke="none" d="
M 484.05 345
L 482.05 345 482.05 347 486.05 347
Q 483.85 346.75 484.05 345
M 478.05 345
L 476.05 345
Q 476.2 346.75 474.05 347
L 478.05 347 478.05 345 Z"/>
</g>

<g id="Layer0_11_FILL">
<path fill="#ACB8B8" stroke="none" d="
M 354.05 361
L 354.05 363 356.05 363 356.05 361 354.05 361
M 350.05 363
L 350.05 361 348.05 361 348.05 363 350.05 363
M 348.05 355
L 346 355 346 359 348.05 359 348.05 357 348.05 355
M 356.05 355
L 356.05 357 356.05 359 358.1 359 358.1 355 356.05 355 Z"/>

<path fill="#686D6D" stroke="none" d="
M 350.05 365
L 350.05 363 348.05 363 348.05 361 348.05 359 346 359 346 355 344 355 344 359
Q 344 359.85 344.6 360.45 345.15 361 346 361
L 346.05 361 346.05 363
Q 346.05 363.85 346.65 364.45 347.2 365 348.05 365
L 350.05 365
M 360.1 355
L 358.1 355 358.1 359 356.05 359 356.05 361 356.05 363 354.05 363 354.05 365 356.05 365
Q 356.9 365 357.5 364.45 358.05 363.85 358.05 363
L 358.05 361 358.15 361
Q 358.95 361 359.55 360.45 359.7 360.3 359.8 360.15 360.1 359.65 360.1 359
L 360.1 355 Z"/>

<path fill="#A6583C" stroke="none" d="
M 350.05 363
L 350.05 365 354.05 365 354.05 363 350.05 363
M 345.95 347
Q 345.15 347 344.6 347.6 344 348.15 344 349
L 344 355 346 355 346 351 346 349 348.05 349 350.05 347 346.05 347 345.95 347
M 359.8 347.9
Q 359.7 347.75 359.55 347.6 358.95 347 358.25 347
L 358.05 347 354.05 347 356.05 349 358.1 349 358.1 351 358.1 355 360.1 355 360.1 349
Q 360.1 348.35 359.8 347.9
M 352.05 339
Q 351.2 339 350.65 339.6
L 348.65 341.6
Q 348.05 342.15 348.05 343
L 348.05 345 350.05 345 350.05 343 352.05 341 354.05 343 354.05 345 356.05 345 356.05 343
Q 356.05 342.15 355.5 341.6
L 353.5 339.6
Q 352.9 339 352.05 339 Z"/>

<path fill="#E27952" stroke="none" d="
M 350.05 361
L 350.05 363 354.05 363 354.05 361 356.05 361 356.05 359 356.05 357 348.05 357 348.05 359 348.05 361 350.05 361
M 348.05 353
L 348.05 355 350.05 355 350.05 353 348.05 353
M 346 351
L 348.05 351 348.05 349 346 349 346 351
M 356.05 355
L 356.05 353 354.05 353 354.05 355 356.05 355
M 356.05 349
L 356.05 351 358.1 351 358.1 349 356.05 349
M 350.05 343
L 354.05 343 352.05 341 350.05 343 Z"/>

<path fill="#D4714C" stroke="none" d="
M 348.05 351
L 346 351 346 355 348.05 355 348.05 353 350.05 353 348.05 351
M 358.1 351
L 356.05 351 354.05 353 356.05 353 356.05 355 358.1 355 358.1 351 Z"/>

<path fill="#515151" stroke="none" d="
M 356.05 357
L 356.05 355 354.05 355 350.05 355 348.05 355 348.05 357 356.05 357 Z"/>

<path fill="#D2E0E0" stroke="none" d="
M 356.05 351
L 356.05 349 354.05 347 350.05 347 348.05 349 348.05 351 350.05 353 350.05 355 354.05 355 354.05 353 356.05 351
M 354.05 343
L 350.05 343 350.05 345 354.05 345 354.05 343 Z"/>

<path fill="#AF8F5E" stroke="none" d="
M 356.05 345
L 354.05 345 354.05 347 358.05 347
Q 355.85 346.75 356.05 345
M 350.05 345
L 348.05 345
Q 348.2 346.75 346.05 347
L 350.05 347 350.05 345 Z"/>

<path fill="#FFD18B" stroke="none" d="
M 354.05 345
L 350.05 345 350.05 347 354.05 347 354.05 345 Z"/>
</g>

<g id="Layer0_12_FILL">
<path fill="#E0E4F5" stroke="none" d="
M 593.3 234
Q 594.1 234.5 595.1 234.7 595.1484375 234.6515625 595.15 234.7
L 595.15 232.05
Q 595.1 231 595.1 229.9
L 595.1 228.85 592.6 231.35
Q 592.3 231.65 592.1 232.05 592.1 233.2 593.3 234
M 609.25 223.2
L 609.25 214.7 602.15 221.8 602.15 230.3 609.25 223.2
M 617.4 210.55
Q 616.8 210.55 616.3 210.65
L 616.35 216.7
Q 616.8 216.55 617.4 216.55 618.85 216.55 619.9 217.6 620.9 218.6 620.9 220.05 620.9 221.5 619.85 222.5
L 618.2 224.15
Q 617.3 225.05 617.3 226.35 617.3 227.55 618.2 228.45 619.05 229.3 620.3 229.35 621.55 229.3 622.45 228.4
L 623.4 227.45 623.4 212.65
Q 620.8 210.55 617.4 210.55 Z"/>

<path fill="#B3B3C9" stroke="none" d="
M 595.1 228.85
L 595.1 226 593.4 227.7 591.2 229.95
Q 590.65 230.45 590.35 231.1 590.05 231.65 590.1 232.25 590.1 234.3 592.2 235.7
L 592.25 235.7
Q 593.35 236.4 594.85 236.65
L 594.9 236.65
Q 595 236.65 595.1 236.7
L 595.1 234.7
Q 594.1 234.5 593.3 234 592.1 233.2 592.1 232.05 592.3 231.65 592.6 231.35
L 595.1 228.85
M 609.25 226.05
L 609.25 223.2 602.15 230.3 602.15 233.55
Q 602.25 233.25 602.35 233
L 604.35 230.95 609.25 226.05
M 617 218.6
Q 617.15 218.55 617.4 218.55 618 218.55 618.5 219.05 618.9 219.45 618.9 220.05 618.9 220.65 618.5 221.05 618.45 221.05 618.45 221.1
L 616.8 222.75
Q 615.3 224.2 615.3 226.35 615.3 228.35 616.8 229.9 618.15 231.25 620.25 231.35 620.3 231.35 620.4 231.35 622.1 231.3 623.4 230.25
L 623.4 227.45 622.45 228.4
Q 621.55 229.3 620.3 229.35 619.05 229.3 618.2 228.45 617.3 227.55 617.3 226.35 617.3 225.05 618.2 224.15
L 619.85 222.5
Q 620.9 221.5 620.9 220.05 620.9 218.6 619.9 217.6 618.85 216.55 617.4 216.55 616.8 216.55 616.35 216.7
L 616.35 218.95
Q 616.55 218.75 616.85 218.65 616.9 218.65 617 218.6
M 609.25 214.7
L 609.25 211.85 602.15 218.95 602.15 221.8 609.25 214.7
M 617.4 208.55
Q 616.8 208.55 616.3 208.65
L 616.3 210.65
Q 616.8 210.55 617.4 210.55 620.8 210.55 623.4 212.65
L 623.4 210.2
Q 620.7 208.55 617.4 208.55 Z"/>

<path fill="#D2704C" stroke="none" d="
M 599.15 234
Q 600.4 233.2 600.4 232.05
L 602.15 230.3 602.15 221.8 595.1 228.85 595.1 229.9
Q 595.1 231 595.15 232.05
L 595.15 234.7
Q 595.65 234.75 596.25 234.75 597.95 234.75 599.15 234
M 624.1 213.35
Q 623.75 213 623.4 212.65
L 623.4 227.45 624.1 226.75
Q 626.9 223.95 626.9 220.05 626.9 216.1 624.1 213.35
M 610.65 213.3
L 609.25 214.7 609.25 223.2 614.9 217.55
Q 615.55 216.9 616.35 216.7
L 616.3 210.65
Q 613.05 210.9 610.65 213.3 Z"/>

<path fill="#000000" fill-opacity="0.10196078431372549" stroke="none" d="
M 604.35 230.95
L 602.35 233
Q 602.25 233.25 602.15 233.55 601.65 234.75 600.25 235.7
L 600.2 235.7
Q 598.55 236.75 596.25 236.75 595.65 236.75 595.1 236.7 595 236.65 594.9 236.65
L 594.85 236.65
Q 593.35 236.4 592.25 235.7
L 592.2 235.7
Q 590.1 234.3 590.1 232.25 590.05 231.65 590.35 231.1 590.65 230.45 591.2 229.95
L 593.4 227.7
Q 591.35 228.15 589.75 229.2 587.15 230.95 587.15 233.45 587.15 235.95 589.75 237.7 592.4 239.45 596.15 239.45 599.9 239.45 602.5 237.7 605.15 235.95 605.15 233.45 605.15 232.1 604.35 230.95 Z"/>

<path fill="#A6583C" stroke="none" d="
M 602.15 233.55
L 602.15 230.3 600.4 232.05
Q 600.4 233.2 599.15 234 597.95 234.75 596.25 234.75 595.65 234.75 595.15 234.7 595.1484375 234.6515625 595.1 234.7
L 595.1 236.7
Q 595.65 236.75 596.25 236.75 598.55 236.75 600.2 235.7
L 600.25 235.7
Q 601.65 234.75 602.15 233.55
M 602.15 221.8
L 602.15 218.95 595.1 226 595.1 228.85 602.15 221.8
M 623.4 212.65
Q 623.75 213 624.1 213.35 626.9 216.1 626.9 220.05 626.9 223.95 624.1 226.75
L 623.4 227.45 623.4 230.25
Q 623.65 230.05 623.9 229.85
L 625.55 228.2
Q 628.9 224.8 628.9 220.05 628.9 215.25 625.5 211.95
L 625.55 211.95
Q 625.2 211.6 624.85 211.25 624.75 211.15 624.65 211.1 624.05 210.6 623.4 210.2
L 623.4 212.65
M 616.35 216.7
Q 615.55 216.9 614.9 217.55
L 609.25 223.2 609.25 226.05 616.35 218.95 616.35 216.7
M 616.3 208.65
Q 616.2 208.65 616.15 208.65 612.2 208.95 609.25 211.85
L 609.25 214.7 610.65 213.3
Q 613.05 210.9 616.3 210.65
L 616.3 208.65 Z"/>
</g>

<g id="Layer0_13_FILL">
<path fill="#D2704C" stroke="none" d="
M 607 110
L 607 102.5 601 96.5 601 106.5 606.4 111.9
Q 607 111.05 607 110
M 620 85.5
L 620 84.5
Q 620 80.55 617.25 77.8 614.45 75 610.5 75 610 75 609.55 75.05
L 620 85.5
M 601 84.5
L 601 86.5 607 92.5 607 84.5
Q 607 83.6 607.4 82.9
L 603.1 78.6
Q 601 81.1 601 84.5 Z"/>

<path fill="#E0E4F5" stroke="none" d="
M 601 106.5
L 601 110
Q 601 111.25 601.9 112.15 602.75 113 604 113 605.25 113 606.15 112.15 606.25 112 606.4 111.9
L 601 106.5
M 601 86.5
L 601 96.5 607 102.5 607 92.5 601 86.5
M 603.8 77.8
Q 603.4 78.2 603.1 78.6
L 607.4 82.9
Q 607.65 82.45 608.05 82.05 609.05 81 610.5 81 611.95 81 613 82.05 614 83.05 614 84.5
L 614 86.85
Q 614 88.1 614.9 89 615.75 89.85 617 89.85 618.25 89.85 619.15 89 620 88.1 620 86.85
L 620 85.5 609.55 75.05
Q 606.2 75.35 603.8 77.8 Z"/>

<path fill="#B3B3C9" stroke="none" d="
M 607.6 113.55
Q 607.7 113.4 607.8 113.3
L 606.4 111.9
Q 606.25 112 606.15 112.15 605.25 113 604 113 602.75 113 601.9 112.15 601 111.25 601 110
L 601 106.5 599 104.5 599 107.95 599 110
Q 599 112.1 600.5 113.6 601.9 115 604 115 606.05 115 607.55 113.6 607.55 113.55 607.6 113.55
M 609 94.5
L 607 92.5 607 102.5 609 104.5 609 94.5
M 609.45 83.5
Q 609.45 83.45 609.5 83.45 609.9 83 610.5 83 611.1 83 611.6 83.5 612 83.9 612 84.5
L 612 86.85
Q 612 87.2 612.05 87.55
L 616.3 91.8
Q 616.65 91.85 617 91.85 619.05 91.85 620.55 90.45 620.55 90.4 620.6 90.4 621.8 89.15 622 87.5
L 620 85.5 620 86.85
Q 620 88.1 619.15 89 618.25 89.85 617 89.85 615.75 89.85 614.9 89 614 88.1 614 86.85
L 614 84.5
Q 614 83.05 613 82.05 611.95 81 610.5 81 609.05 81 608.05 82.05 607.65 82.45 607.4 82.9
L 609 84.5
Q 609 83.9 609.45 83.5
M 601 86.5
L 599 84.5 599 94.5 601 96.5 601 86.5
M 603.1 78.6
Q 603.4 78.2 603.8 77.8 606.2 75.35 609.55 75.05
L 607.8 73.3
Q 604.75 74 602.4 76.4 602 76.75 601.7 77.2
L 603.1 78.6 Z"/>

<path fill="#A6583C" stroke="none" d="
M 609 110
L 609 108 609 104.5 607 102.5 607 110
Q 607 111.05 606.4 111.9
L 607.8 113.3
Q 609 111.9 609 110
M 616.3 91.8
L 612.05 87.55
Q 612.25 89.2 613.5 90.45 614.65 91.6 616.3 91.8
M 610.5 73
Q 609.1 73 607.8 73.3
L 609.55 75.05
Q 610 75 610.5 75 614.45 75 617.25 77.8 620 80.55 620 84.5
L 620 85.5 622 87.5
Q 622 87.15 622 86.85
L 622 84.5
Q 622 79.7 618.7 76.4 615.3 73 610.5 73
M 601 96.5
L 599 94.5 599 104.5 601 106.5 601 96.5
M 607.4 82.9
Q 607 83.6 607 84.5
L 607 92.5 609 94.5 609 84.5 607.4 82.9
M 599 84.5
L 601 86.5 601 84.5
Q 601 81.1 603.1 78.6
L 601.7 77.2
Q 599 80.25 599 84.5 Z"/>

<path fill="#000000" fill-opacity="0.10196078431372549" stroke="none" d="
M 609 108
L 609 110
Q 609 111.9 607.8 113.3 607.7 113.4 607.6 113.55 607.55 113.55 607.55 113.6 606.05 115 604 115 601.9 115 600.5 113.6 599 112.1 599 110
L 599 107.95
Q 598.265234375 108.310546875 597.6 108.75 595 110.5 595 113 595 115.5 597.6 117.25 600.25 119 604 119 607.75 119 610.35 117.25 613 115.5 613 113 613 110.5 610.35 108.75 609.7099609375 108.319140625 609 108 Z"/>
</g>

<g id="Layer0_14_FILL">
<path fill="#115F32" stroke="none" d="
M 83.05 475.95
L 83.1 475.95
Q 79.6 477.8 74.6 477.8 69.55 477.8 66.05 475.95 64.85 475.35 64 474.75
L 64 477.15
Q 64.55 477.45 65.15 477.75
L 65.2 477.75
Q 69.05 479.8 74.6 479.8 80.15 479.8 84.05 477.75 84.1 477.65 84.2 477.65 84.7 477.3 84.95 476.8 85.1 476.9 85.3 477.05 85.85 477.35 86.55 477.75 90.4 479.8 96 479.8 101.6 479.8 105.5 477.75 105.65 477.65 105.75 477.55 106.15 477.25 106.35 476.85 106.5 476.9 106.7 477.05 107.25 477.35 107.85 477.7
L 107.9 477.75
Q 111.8 479.8 117.4 479.8 120.9 479.8 123.7 479 125.4 478.5 126.9 477.75 127 477.65 127.1 477.6 127.55 477.35 128 477.1
L 128 474.7
Q 127.1 475.35 125.9 475.95
L 125.95 475.95
Q 124.9 476.5 123.7 476.9 120.95 477.8 117.4 477.8 112.35 477.8 108.8 475.95 107.6 475.3 106.65 474.6 105.75 475.3 104.5 475.95
L 104.55 475.95
Q 101.05 477.8 96 477.8 90.95 477.8 87.45 475.95 86.2 475.3 85.25 474.6 84.35 475.3 83.05 475.95
M 103.6 466.5
Q 102.6 467.55 102.4 468.95 102.1 469 101.65 469.25 101.6 469.25 101.6 469.3 99.35 470.4 96 470.4 92.6 470.4 90.25 469.25
L 90.3 469.3
Q 89.85 469.05 89.6 468.9 89.35 467.6 88.55 466.6
L 88.5 466.55
Q 87.2 465.05 85.25 465.05 83.3 465.05 82.05 466.6 81.144921875 467.6337890625 80.95 468.95 80.75 469.05 80.35 469.25 80.3 469.25 80.3 469.3 77.9 470.4 74.6 470.4 71.2 470.4 68.85 469.25
L 68.9 469.3
Q 68.45 469.05 68.2 468.9 68 467.5 67.1 466.5 65.85 465.05 64.1 465 64.05 465 64 465
L 64 467
Q 64.95 467.05 65.6 467.8 66.25 468.55 66.25 469.7 66.55 470.3 67.95 471.05 70.7 472.4 74.6 472.4 78.45 472.4 81.2 471.05 82.65 470.3 82.9 469.75 82.9 468.65 83.6 467.85 84.25 467.05 85.25 467.05 86.3 467.05 87 467.85 87.65 468.65 87.65 469.75 87.95 470.3 89.35 471.05 92.1 472.4 96 472.4 99.9 472.4 102.5 471.05 104.05 470.3 104.3 469.75 104.3 468.65 105.05 467.85 105.7 467.05 106.65 467.05 107.7 467.05 108.4 467.85 109.1 468.65 109.1 469.75 109.35 470.3 110.7 471.05 113.5 472.4 117.4 472.4 121.1 472.4 123.7 471.15 123.8 471.1 123.9 471.05 124.45 470.75 124.9 470.5 125.55 470.05 125.75 469.7 125.75 468.55 126.45 467.8 127.05 467.05 128 467
L 128 465 127.95 465
Q 126.2 465.05 125 466.45 124.05 467.4 123.85 468.8 123.8 468.8 123.8 468.85 123.75 468.85 123.7 468.9 123.4 469.05 123 469.25
L 123 469.3
Q 120.7 470.4 117.4 470.4 114.1 470.4 111.7 469.3 111.65 469.25 111.6 469.25 111.25 469.05 111.05 469 110.85 467.6 109.9 466.55 108.6 465.05 106.65 465.05 104.85 465.05 103.6 466.5 Z"/>

<path fill="#178044" stroke="none" d="
M 108.4 469.85
Q 107.7 469.05 106.65 469.05 105.7 469.05 105.05 469.85 104.3 470.65 104.3 471.75 104.05 472.3 102.5 473.05 99.9 474.4 96 474.4 92.1 474.4 89.35 473.05 87.95 472.3 87.65 471.75 87.65 470.65 87 469.85 86.3 469.05 85.25 469.05 84.25 469.05 83.6 469.85 82.9 470.65 82.9 471.75 82.65 472.3 81.2 473.05 78.45 474.4 74.6 474.4 70.7 474.4 67.95 473.05 66.55 472.3 66.25 471.7 66.25 470.55 65.6 469.8 64.95 469.05 64 469
L 64 474.75
Q 64.85 475.35 66.05 475.95 69.55 477.8 74.6 477.8 79.6 477.8 83.1 475.95
L 83.05 475.95
Q 84.35 475.3 85.25 474.6 86.2 475.3 87.45 475.95 90.95 477.8 96 477.8 101.05 477.8 104.55 475.95
L 104.5 475.95
Q 105.75 475.3 106.65 474.6 107.6 475.3 108.8 475.95 112.35 477.8 117.4 477.8 120.95 477.8 123.7 476.9 124.9 476.5 125.95 475.95
L 125.9 475.95
Q 127.1 475.35 128 474.7
L 128 469
Q 127.05 469.05 126.45 469.8 125.75 470.55 125.75 471.7 125.55 472.05 124.9 472.5 124.45 472.75 123.9 473.05 123.8 473.1 123.7 473.15 121.1 474.4 117.4 474.4 113.5 474.4 110.7 473.05 109.35 472.3 109.1 471.75 109.1 470.65 108.4 469.85 Z"/>

<path fill="#198C4A" stroke="none" d="
M 105.05 467.85
Q 104.3 468.65 104.3 469.75 104.05 470.3 102.5 471.05 99.9 472.4 96 472.4 92.1 472.4 89.35 471.05 87.95 470.3 87.65 469.75 87.65 468.65 87 467.85 86.3 467.05 85.25 467.05 84.25 467.05 83.6 467.85 82.9 468.65 82.9 469.75 82.65 470.3 81.2 471.05 78.45 472.4 74.6 472.4 70.7 472.4 67.95 471.05 66.55 470.3 66.25 469.7 66.25 468.55 65.6 467.8 64.95 467.05 64 467
L 64 469
Q 64.95 469.05 65.6 469.8 66.25 470.55 66.25 471.7 66.55 472.3 67.95 473.05 70.7 474.4 74.6 474.4 78.45 474.4 81.2 473.05 82.65 472.3 82.9 471.75 82.9 470.65 83.6 469.85 84.25 469.05 85.25 469.05 86.3 469.05 87 469.85 87.65 470.65 87.65 471.75 87.95 472.3 89.35 473.05 92.1 474.4 96 474.4 99.9 474.4 102.5 473.05 104.05 472.3 104.3 471.75 104.3 470.65 105.05 469.85 105.7 469.05 106.65 469.05 107.7 469.05 108.4 469.85 109.1 470.65 109.1 471.75 109.35 472.3 110.7 473.05 113.5 474.4 117.4 474.4 121.1 474.4 123.7 473.15 123.8 473.1 123.9 473.05 124.45 472.75 124.9 472.5 125.55 472.05 125.75 471.7 125.75 470.55 126.45 469.8 127.05 469.05 128 469
L 128 467
Q 127.05 467.05 126.45 467.8 125.75 468.55 125.75 469.7 125.55 470.05 124.9 470.5 124.45 470.75 123.9 471.05 123.8 471.1 123.7 471.15 121.1 472.4 117.4 472.4 113.5 472.4 110.7 471.05 109.35 470.3 109.1 469.75 109.1 468.65 108.4 467.85 107.7 467.05 106.65 467.05 105.7 467.05 105.05 467.85 Z"/>
</g>

<g id="Layer0_15_FILL">
<path fill="#A6583C" stroke="none" d="
M 224 472.4
Q 224.38828125 472.4 224.75 472.35
L 227 470.1
Q 225.63828125 470.4 224 470.4 223.7255859375 470.4 223.45 470.4
L 221.6 472.25
Q 222.7357421875 472.4 224 472.4
M 241.05 477.4
Q 239.68359375 477.133984375 238.45 476.65
L 236.9 478.2
Q 238.0759765625 478.73828125 239.35 479.05
L 241.05 477.4
M 217.15 476.7
L 215.6 478.25
Q 216.7525390625 478.759765625 218.05 479.1
L 219.7 477.4
Q 218.358984375 477.1560546875 217.15 476.7
M 196.95 477.1
Q 196.31015625 476.91875 195.7 476.7
L 194.15 478.2
Q 194.74609375 478.482421875 195.35 478.7 195.965234375 478.9134765625 196.6 479.05
L 198.25 477.4
Q 197.5994140625 477.2794921875 196.95 477.1
M 202 470.4
L 200.15 472.25
Q 200.8875 472.3419921875 201.65 472.35 202.1265625 472.4 202.6 472.4 202.9607421875 472.4 203.3 472.4
L 205.55 470.15
Q 204.6564453125 470.3154296875 203.65 470.35 203.1533203125 470.4 202.6 470.4 202.3005859375 470.4 202 470.4
M 245.4 470.4
Q 245.0759765625 470.4 244.75 470.4
L 242.9 472.25
Q 244.0892578125 472.4 245.4 472.4 245.734765625 472.4 246.05 472.4
L 248.3 470.15
Q 246.9623046875 470.4 245.4 470.4 Z"/>

<path fill="#D2704C" stroke="none" d="
M 238.45 476.65
Q 239.68359375 477.133984375 241.05 477.4
L 244.1 474.35
Q 242.5625 474.258984375 241.2 473.9
L 238.45 476.65
M 219.9 473.95
L 217.15 476.7
Q 218.358984375 477.1560546875 219.7 477.4
L 222.75 474.35
Q 221.2365234375 474.280859375 219.9 473.95
M 201.35 474.35
Q 200.56796875 474.311328125 199.85 474.2 199.13046875 474.0990234375 198.45 473.95
L 195.7 476.7
Q 196.31015625 476.91875 196.95 477.1 197.5994140625 477.2794921875 198.25 477.4
L 201.35 474.35 Z"/>

<path fill="#115F32" stroke="none" d="
M 219.7 477.4
L 218.05 479.1
Q 220.7263671875 479.8 224 479.8 229.6 479.8 233.5 477.75 233.65 477.65 233.75 477.55 234.15 477.25 234.35 476.85 234.5 476.9 234.7 477.05 235.25 477.35 235.85 477.7
L 235.9 477.75
Q 236.3935546875 478.009375 236.9 478.2
L 238.45 476.65
Q 237.5947265625 476.3642578125 236.8 475.95 235.6 475.3 234.65 474.6 233.75 475.3 232.5 475.95
L 232.55 475.95
Q 229.05 477.8 224 477.8 221.7060546875 477.8 219.7 477.4
M 210.9 469.75
Q 210.9 468.65 211.6 467.85 212.25 467.05 213.25 467.05 214.3 467.05 215 467.85 215.65 468.65 215.65 469.75 215.95 470.3 217.35 471.05 219.2083984375 471.9623046875 221.6 472.25
L 223.45 470.4
Q 220.4103515625 470.3072265625 218.25 469.25
L 218.3 469.3
Q 217.85 469.05 217.6 468.9 217.35 467.6 216.55 466.6
L 216.5 466.55
Q 215.2 465.05 213.25 465.05 211.3 465.05 210.05 466.6 209.15 467.65 208.95 468.95 208.75 469.05 208.35 469.25 208.3 469.25 208.3 469.3 207.0484375 469.8736328125 205.55 470.15
L 203.3 472.4
Q 206.7078125 472.2734375 209.2 471.05 210.65 470.3 210.9 469.75
M 227.1 470.1
Q 227.0755859375 470.115625 227 470.1
L 224.75 472.35
Q 228.1587890625 472.265625 230.5 471.05 232.05 470.3 232.3 469.75 232.3 468.65 233.05 467.85 233.7 467.05 234.65 467.05 235.7 467.05 236.4 467.85 237.1 468.65 237.1 469.75 237.35 470.3 238.7 471.05 240.558984375 471.9462890625 242.9 472.25
L 244.75 470.4
Q 241.864453125 470.2919921875 239.7 469.3 239.65 469.25 239.6 469.25 239.25 469.05 239.05 469 238.85 467.6 237.9 466.55 236.6 465.05 234.65 465.05 232.85 465.05 231.6 466.5 230.6 467.55 230.4 468.95 230.2427734375 468.976171875 230.05 469.05 230.0138671875 469.0861328125 229.95 469.1 229.9267578125 469.121875 229.85 469.15
L 229.8 469.15
Q 229.800390625 469.1828125 229.75 469.2 229.7376953125 469.209375 229.7 469.2 229.675390625 469.2359375 229.65 469.25 229.6 469.25 229.6 469.3 228.5109375 469.832421875 227.15 470.1
L 227.1 470.1
M 198.25 477.4
L 196.6 479.05
Q 199.3115234375 479.8 202.6 479.8 208.15 479.8 212.05 477.75 212.1 477.65 212.2 477.65 212.7 477.3 212.95 476.8 213.1 476.9 213.3 477.05 213.85 477.35 214.55 477.75 215.0576171875 478.0203125 215.6 478.25
L 217.15 476.7
Q 216.256640625 476.3763671875 215.45 475.95 214.2 475.3 213.25 474.6 212.35 475.3 211.05 475.95
L 211.1 475.95
Q 207.6 477.8 202.6 477.8 200.2818359375 477.8 198.25 477.4
M 194.15 478.2
L 195.7 476.7
Q 194.840234375 476.367578125 194.05 475.95 192.85 475.35 192 474.75
L 192 477.15
Q 192.55 477.45 193.15 477.75
L 193.2 477.75
Q 193.675 478.0029296875 194.15 478.2
M 192 465
L 192 467
Q 192.95 467.05 193.6 467.8 194.25 468.55 194.25 469.7 194.55 470.3 195.95 471.05 197.791015625 471.95390625 200.15 472.25
L 202 470.4
Q 198.99296875 470.2986328125 196.85 469.25
L 196.9 469.3
Q 196.45 469.05 196.2 468.9 196 467.5 195.1 466.5 193.85 465.05 192.1 465 192.05 465 192 465
M 254.9 477.75
Q 255 477.65 255.1 477.6 255.55 477.35 256 477.1
L 256 474.7
Q 255.1 475.35 253.9 475.95
L 253.95 475.95
Q 252.9 476.5 251.7 476.9 248.95 477.8 245.4 477.8 243.0626953125 477.8 241.05 477.4
L 239.35 479.05
Q 242.0865234375 479.8 245.4 479.8 248.9 479.8 251.7 479 253.4 478.5 254.9 477.75
M 251 469.3
Q 249.7888671875 469.879296875 248.3 470.15
L 246.05 472.4
Q 249.3353515625 472.2869140625 251.7 471.15 251.8 471.1 251.9 471.05 252.45 470.75 252.9 470.5 253.55 470.05 253.75 469.7 253.75 468.55 254.45 467.8 255.05 467.05 256 467
L 256 465 255.95 465
Q 254.2 465.05 253 466.45 252.05 467.4 251.85 468.8 251.8 468.8 251.8 468.85 251.75 468.85 251.7 468.9
L 251.65 468.9
Q 251.5494140625 468.9751953125 251.4 469.05 251.214453125 469.1427734375 251 469.25
L 251 469.3 Z"/>

<path fill="#E97D55" stroke="none" d="
M 221.6 472.25
L 219.9 473.95
Q 221.2365234375 474.280859375 222.75 474.35
L 224.75 472.35
Q 224.38828125 472.4 224 472.4 222.7357421875 472.4 221.6 472.25
M 199.85 474.2
Q 200.56796875 474.311328125 201.35 474.35
L 203.3 472.4
Q 202.9607421875 472.4 202.6 472.4 202.1265625 472.4 201.65 472.35 200.8875 472.3419921875 200.15 472.25
L 198.45 473.95
Q 199.13046875 474.0990234375 199.85 474.2
M 244.1 474.35
L 246.05 472.4
Q 245.734765625 472.4 245.4 472.4 244.0892578125 472.4 242.9 472.25
L 241.2 473.9
Q 242.5625 474.258984375 244.1 474.35 Z"/>

<path fill="#198C4A" stroke="none" d="
M 211.6 467.85
Q 210.9 468.65 210.9 469.75 210.65 470.3 209.2 471.05 206.7078125 472.2734375 203.3 472.4
L 201.35 474.35
Q 201.952734375 474.4 202.6 474.4 206.45 474.4 209.2 473.05 210.65 472.3 210.9 471.75 210.9 470.65 211.6 469.85 212.25 469.05 213.25 469.05 214.3 469.05 215 469.85 215.65 470.65 215.65 471.75 215.95 472.3 217.35 473.05 218.519140625 473.6240234375 219.9 473.95
L 221.6 472.25
Q 219.2083984375 471.9623046875 217.35 471.05 215.95 470.3 215.65 469.75 215.65 468.65 215 467.85 214.3 467.05 213.25 467.05 212.25 467.05 211.6 467.85
M 234.65 469.05
Q 235.7 469.05 236.4 469.85 237.1 470.65 237.1 471.75 237.35 472.3 238.7 473.05 239.8615234375 473.6099609375 241.2 473.9
L 242.9 472.25
Q 240.558984375 471.9462890625 238.7 471.05 237.35 470.3 237.1 469.75 237.1 468.65 236.4 467.85 235.7 467.05 234.65 467.05 233.7 467.05 233.05 467.85 232.3 468.65 232.3 469.75 232.05 470.3 230.5 471.05 228.1587890625 472.265625 224.75 472.35
L 222.75 474.35
Q 223.377734375 474.4 224 474.4 227.9 474.4 230.5 473.05 232.05 472.3 232.3 471.75 232.3 470.65 233.05 469.85 233.7 469.05 234.65 469.05
M 192 467
L 192 469
Q 192.95 469.05 193.6 469.8 194.25 470.55 194.25 471.7 194.55 472.3 195.95 473.05 197.10234375 473.615625 198.45 473.95
L 200.15 472.25
Q 197.791015625 471.95390625 195.95 471.05 194.55 470.3 194.25 469.7 194.25 468.55 193.6 467.8 192.95 467.05 192 467
M 256 469
L 256 467
Q 255.05 467.05 254.45 467.8 253.75 468.55 253.75 469.7 253.55 470.05 252.9 470.5 252.45 470.75 251.9 471.05 251.8 471.1 251.7 471.15 249.3353515625 472.2869140625 246.05 472.4
L 244.1 474.35
Q 244.7287109375 474.4 245.4 474.4 249.1 474.4 251.7 473.15 251.8 473.1 251.9 473.05 252.45 472.75 252.9 472.5 253.55 472.05 253.75 471.7 253.75 470.55 254.45 469.8 255.05 469.05 256 469 Z"/>

<path fill="#178044" stroke="none" d="
M 236.4 469.85
Q 235.7 469.05 234.65 469.05 233.7 469.05 233.05 469.85 232.3 470.65 232.3 471.75 232.05 472.3 230.5 473.05 227.9 474.4 224 474.4 223.377734375 474.4 222.75 474.35
L 219.7 477.4
Q 221.7060546875 477.8 224 477.8 229.05 477.8 232.55 475.95
L 232.5 475.95
Q 233.75 475.3 234.65 474.6 235.6 475.3 236.8 475.95 237.5947265625 476.3642578125 238.45 476.65
L 241.2 473.9
Q 239.8615234375 473.6099609375 238.7 473.05 237.35 472.3 237.1 471.75 237.1 470.65 236.4 469.85
M 201.35 474.35
L 198.25 477.4
Q 200.2818359375 477.8 202.6 477.8 207.6 477.8 211.1 475.95
L 211.05 475.95
Q 212.35 475.3 213.25 474.6 214.2 475.3 215.45 475.95 216.256640625 476.3763671875 217.15 476.7
L 219.9 473.95
Q 218.519140625 473.6240234375 217.35 473.05 215.95 472.3 215.65 471.75 215.65 470.65 215 469.85 214.3 469.05 213.25 469.05 212.25 469.05 211.6 469.85 210.9 470.65 210.9 471.75 210.65 472.3 209.2 473.05 206.45 474.4 202.6 474.4 201.952734375 474.4 201.35 474.35
M 193.6 469.8
Q 192.95 469.05 192 469
L 192 474.75
Q 192.85 475.35 194.05 475.95 194.840234375 476.367578125 195.7 476.7
L 198.45 473.95
Q 197.10234375 473.615625 195.95 473.05 194.55 472.3 194.25 471.7 194.25 470.55 193.6 469.8
M 256 469
Q 255.05 469.05 254.45 469.8 253.75 470.55 253.75 471.7 253.55 472.05 252.9 472.5 252.45 472.75 251.9 473.05 251.8 473.1 251.7 473.15 249.1 474.4 245.4 474.4 244.7287109375 474.4 244.1 474.35
L 241.05 477.4
Q 243.0626953125 477.8 245.4 477.8 248.95 477.8 251.7 476.9 252.9 476.5 253.95 475.95
L 253.9 475.95
Q 255.1 475.35 256 474.7
L 256 469 Z"/>
</g>

<g id="Layer0_15_MEMBER_0_FILL">
<path fill="#F0E0BB" stroke="none" d="
M 195.55 474.55
Q 196 474.1 196 473.5 196 472.85 195.55 472.4 195.1 472 194.5 472 193.85 472 193.4 472.4 193 472.85 193 473.5 193 474.1 193.4 474.55 193.85 475 194.5 475 195.1 475 195.55 474.55 Z"/>
</g>

<g id="Layer0_15_MEMBER_1_FILL">
<path fill="#F0E0BB" stroke="none" d="
M 214.55 472.55
Q 215 472.1 215 471.5 215 470.85 214.55 470.4 214.1 470 213.5 470 212.85 470 212.4 470.4 212 470.85 212 471.5 212 472.1 212.4 472.55 212.85 473 213.5 473 214.1 473 214.55 472.55 Z"/>
</g>

<g id="Layer0_15_MEMBER_2_FILL">
<path fill="#F0E0BB" stroke="none" d="
M 239.55 474.55
Q 240 474.1 240 473.5 240 472.85 239.55 472.4 239.1 472 238.5 472 237.85 472 237.4 472.4 237 472.85 237 473.5 237 474.1 237.4 474.55 237.85 475 238.5 475 239.1 475 239.55 474.55 Z"/>
</g>

<g id="Layer0_16_FILL">
<path fill="#115F32" stroke="none" d="
M 357.45 455.6
L 355.45 453.6
Q 354.85 453 354 453
L 350 453
Q 349.15 453 348.6 453.6
L 346.6 455.6
Q 346 456.15 346 457
L 346 471
Q 346 471.85 346.6 472.45
L 347.3 473.15
Q 346.9 473.25 346.6 473.6 346 474.15 346 475
L 346 477
Q 346 477.85 346.6 478.45 347.15 479 348 479
L 348 490.15 346.6 491.6
Q 346 492.15 346 493
L 346 505
Q 346 505.85 346.6 506.45 347.15 507 348 507
L 356 507
Q 356.85 507 357.45 506.45 358 505.85 358 505
L 358 493
Q 358 492.15 357.45 491.6
L 356 490.15 356 479
Q 356.85 479 357.45 478.45 358 477.85 358 477
L 358 475
Q 358 474.15 357.45 473.6 357.1 473.25 356.75 473.15
L 357.45 472.45
Q 358 471.85 358 471
L 358 457
Q 358 456.15 357.45 455.6
M 348 457
L 350 455 354 455 356 457 356 461 356 463 356 469 356 471 354 473 354 475 356 475 356 477 354 477 354 491 356 493 356 505 354 505 350 505 348 505 348 493 350 491 350 477 348 477 348 475 350 475 350 473 348 471 348 469 348 463 348 461 348 457 Z"/>

<path fill="#1B914D" stroke="none" d="
M 356 493
L 354 491 354 505 356 505 356 493
M 350 491
L 348 493 348 505 350 505 350 491
M 350 477
L 350 475 348 475 348 477 350 477
M 356 477
L 356 475 354 475 354 477 356 477
M 350 455
L 348 457 348 461 350 459 354 459 356 461 356 457 354 455 350 455 Z"/>

<path fill="#FFF6E0" stroke="none" d="
M 354 463
L 354 469 356 469 356 463 354 463
M 350 463
L 348 463 348 469 350 469 350 463 Z"/>

<path fill="#178044" stroke="none" d="
M 354 469
L 350 469 348 469 348 471 350 473 350 475 350 477 350 491 350 505 354 505 354 491 354 477 354 475 354 473 356 471 356 469 354 469
M 350 463
L 354 463 356 463 356 461 354 459 350 459 348 461 348 463 350 463 Z"/>

<path fill="#FFFFFF" stroke="none" d="
M 354 463
L 350 463 350 469 354 469 354 463 Z"/>
</g>

<g id="Layer0_17_FILL">
<path fill="#115F32" stroke="none" d="
M 457.45 453.6
Q 456.85 453 456 453
L 452 453
Q 451.15 453 450.6 453.6
L 448.6 455.6
Q 448 456.15 448 457
L 448 471
Q 448 471.85 448.6 472.45
L 449.3 473.15
Q 448.9 473.25 448.6 473.6 448 474.15 448 475
L 448 477
Q 448 477.85 448.6 478.45 449.15 479 450 479
L 450 490.15 448.6 491.6
Q 448 492.15 448 493
L 448 505
Q 448 505.85 448.6 506.45 449.15 507 450 507
L 458 507
Q 458.85 507 459.45 506.45 460 505.85 460 505
L 460 493
Q 460 492.15 459.45 491.6
L 458 490.15 458 479
Q 458.85 479 459.45 478.45 460 477.85 460 477
L 460 475
Q 460 474.15 459.45 473.6 459.1 473.25 458.75 473.15
L 459.45 472.45
Q 460 471.85 460 471
L 460 457
Q 460 456.15 459.45 455.6
L 457.45 453.6
M 456 455
L 458 457 458 461 458 463 458 469 458 471 456 473 456 475 458 475 458 477 456 477 456 491 458 493 458 505 456 505 452 505 450 505 450 493 452 491 452 477 450 477 450 475 452 475 452 473 450 471 450 469 450 463 450 461 450 457 452 455 456 455 Z"/>

<path fill="#1B914D" stroke="none" d="
M 458 493
L 456 491 456 505 458 505 458 493
M 452 491
L 450 493 450 505 452 505 452 491
M 452 477
L 452 475 450 475 450 477 452 477
M 458 475
L 456 475 456 477 458 477 458 475
M 458 457
L 456 455 452 455 450 457 450 461 452 459 456 459 458 461 458 457 Z"/>

<path fill="#FFF6E0" stroke="none" d="
M 456 463
L 456 469 458 469 458 463 456 463
M 452 469
L 452 463 450 463 450 469 452 469 Z"/>

<path fill="#178044" stroke="none" d="
M 452 469
L 450 469 450 471 452 473 452 475 452 477 452 491 452 505 456 505 456 491 456 477 456 475 456 473 458 471 458 469 456 469 452 469
M 450 461
L 450 463 452 463 456 463 458 463 458 461 456 459 452 459 450 461 Z"/>

<path fill="#FFFFFF" stroke="none" d="
M 452 463
L 452 469 456 469 456 463 452 463 Z"/>
</g>

<g id="Layer0_18_FILL">
<path fill="#115F32" stroke="none" d="
M 640 457
Q 640 456.15 639.45 455.6
L 637.45 453.6
Q 636.85 453 636 453
L 632 453
Q 631.15 453 630.6 453.6
L 628.6 455.6
Q 628 456.15 628 457
L 628 471
Q 628 471.85 628.6 472.45
L 629.3 473.15
Q 628.9 473.25 628.6 473.6 628 474.15 628 475
L 628 477
Q 628 477.85 628.6 478.45 629.15 479 630 479
L 630 490.15 628.6 491.6
Q 628 492.15 628 493
L 628 505
Q 628 505.85 628.6 506.45 629.15 507 630 507
L 638 507
Q 638.85 507 639.45 506.45 640 505.85 640 505
L 640 493
Q 640 492.15 639.45 491.6
L 638 490.15 638 479
Q 638.85 479 639.45 478.45 640 477.85 640 477
L 640 475
Q 640 474.15 639.45 473.6 639.1 473.25 638.75 473.15
L 639.45 472.45
Q 640 471.85 640 471
L 640 457
M 630 457
L 632 455 636 455 638 457 638 461 638 463 638 469 638 471 636 473 636 475 638 475 638 477 636 477 636 491 638 493 638 505 636 505 632 505 630 505 630 493 632 491 632 477 630 477 630 475 632 475 632 473 630 471 630 469 630 463 630 461 630 457 Z"/>

<path fill="#1B914D" stroke="none" d="
M 638 493
L 636 491 636 505 638 505 638 493
M 632 491
L 630 493 630 505 632 505 632 491
M 632 475
L 630 475 630 477 632 477 632 475
M 638 477
L 638 475 636 475 636 477 638 477
M 632 455
L 630 457 630 461 632 459 636 459 638 461 638 457 636 455 632 455 Z"/>

<path fill="#FFF6E0" stroke="none" d="
M 636 463
L 636 469 638 469 638 463 636 463
M 632 463
L 630 463 630 469 632 469 632 463 Z"/>

<path fill="#FFFFFF" stroke="none" d="
M 632 469
L 636 469 636 463 632 463 632 469 Z"/>

<path fill="#178044" stroke="none" d="
M 632 469
L 630 469 630 471 632 473 632 475 632 477 632 491 632 505 636 505 636 491 636 477 636 475 636 473 638 471 638 469 636 469 632 469
M 630 461
L 630 463 632 463 636 463 638 463 638 461 636 459 632 459 630 461 Z"/>
</g>

<g id="Layer0_19_MEMBER_0_FILL">
<path fill="#A6583C" stroke="none" d="
M 580.5 343.6
Q 579.9 344.15 579.9 345
L 579.9 361
Q 579.9 361.85 580.5 362.45 581.05 363 581.9 363
L 593.9 363
Q 594.75 363 595.35 362.45 595.5 362.25 595.6 362.1 595.9 361.6 595.9 361
L 595.9 345
Q 595.9 344.4 595.6 343.95 595.5 343.75 595.35 343.6 594.75 343 593.9 343
L 581.9 343
Q 581.8 343 581.75 343 581 343.05 580.5 343.6
M 581.9 345
L 585.9 345 589.9 345 593.9 345 593.9 353 593.9 361 589.9 361 585.9 361 581.9 361 581.9 353 581.9 345 Z"/>

<path fill="#D2704C" stroke="none" d="
M 585.9 353
L 581.9 353 581.9 361 585.9 361 585.9 353
M 593.9 353
L 589.9 353 589.9 361 593.9 361 593.9 353 Z"/>

<path fill="#D2C4A3" stroke="none" d="
M 589.9 361
L 589.9 353 585.9 353 585.9 361 589.9 361
M 585.6 346.1
Q 584.65 345.75 584.2 346.2 583.7 346.65 584 347.7 584.3 348.7 585.2 349.6 585.55 349.95 585.9 350.2 586.5 350.65 587.1 350.85 587.55 350.95 587.9 350.95 588.2 350.95 588.65 350.85 589.3 350.6 589.9 350.1 590.25 349.85 590.55 349.55 591.45 348.65 591.75 347.7 592.1 346.75 591.6 346.3 591.15 345.75 590.25 346.1 590.05 346.15 589.9 346.25 589.05 346.55 588.35 347.3 588.05 347.65 587.85 347.9 587.65 347.65 587.4 347.35 586.65 346.6 585.9 346.25 585.75 346.15 585.6 346.1 Z"/>

<path fill="#F0E0BB" stroke="none" d="
M 589.9 353
L 589.9 350.1
Q 589.3 350.6 588.65 350.85 588.2 350.95 587.9 350.95 587.55 350.95 587.1 350.85 586.5 350.65 585.9 350.2
L 585.9 353 589.9 353
M 585.9 345
L 585.9 346.25
Q 586.65 346.6 587.4 347.35 587.65 347.65 587.85 347.9 588.05 347.65 588.35 347.3 589.05 346.55 589.9 346.25
L 589.9 345 585.9 345 Z"/>

<path fill="#E97D55" stroke="none" d="
M 593.9 345
L 589.9 345 589.9 346.25
Q 590.05 346.15 590.25 346.1 591.15 345.75 591.6 346.3 592.1 346.75 591.75 347.7 591.45 348.65 590.55 349.55 590.25 349.85 589.9 350.1
L 589.9 353 593.9 353 593.9 345
M 585.9 346.25
L 585.9 345 581.9 345 581.9 353 585.9 353 585.9 350.2
Q 585.55 349.95 585.2 349.6 584.3 348.7 584 347.7 583.7 346.65 584.2 346.2 584.65 345.75 585.6 346.1 585.75 346.15 585.9 346.25 Z"/>
</g>

<g id="Layer0_19_MEMBER_1_FILL">
<path fill="#000000" fill-opacity="0.10196078431372549" stroke="none" d="
M 598.4 367.55
Q 598.4 369.7 601.15 371.15 603.95 372.65 607.9 372.65 611.85 372.65 614.6 371.15 617.4 369.7 617.4 367.55 617.4 365.9 615.75 364.65 614.55 365 613.35 365.25 613.1 367 611.8 368.3 611.75 368.3 611.75 368.35 610.15 369.95 607.9 369.95 605.6 369.95 604 368.35 602.7 367.05 602.45 365.25 601.25 365 600.05 364.65 598.4 365.9 598.4 367.55 Z"/>

<path fill="#115F32" stroke="none" d="
M 609.65 326.05
Q 609.3 325.4 608.6 325.15 607.9 324.85 607.2 325.15 606.5 325.4 606.15 326.05
L 600.9 335.4
Q 600.6 335.95 600.7 336.65 600.75 337.3 601.25 337.8
L 602.2 338.75 597.55 348.15
Q 597.3 348.7 597.4 349.3 597.45 349.9 597.9 350.35
L 599.05 351.6 596.1 356.65 596.1 356.6
Q 594.4 359.35 595.3 361.3 595.9 363.3 599 364.3
L 598.95 364.3
Q 599.5 364.5 600.05 364.65 601.25 365 602.45 365.25 602.7 367.05 604 368.35 605.6 369.95 607.9 369.95 610.15 369.95 611.75 368.35 611.75 368.3 611.8 368.3 613.1 367 613.35 365.25 614.55 365 615.75 364.65 616.5 364.45 617.3 364.15 619.85 363.2 620.45 361.35 620.6 361.05 620.7 360.7 620.9 359.75 620.6 358.6 620.4 357.9 620.05 357.2 620 357.1 620 357.05
L 616.8 351.6 617.95 350.35
Q 618.35 349.9 618.45 349.3 618.5 348.7 618.25 348.15
L 613.65 338.75 614.6 337.8
Q 615.05 337.3 615.15 336.65 615.2 335.95 614.9 335.4
L 609.65 326.05
M 607.9 327
L 611.85 334 613.15 336.35 611.2 338.3 613.7 343.3 615.15 346.25 615.35 346.65 616.45 349 614.3 351.35 618.25 358.05
Q 618.3 358.2 618.4 358.35 618.95 359.6 618.65 360.55 618.25 361.65 616.6 362.25 614 363.2 611.4 363.6
L 611.4 364.45
Q 611.4 365.9 610.35 366.9 609.35 367.95 607.9 367.95 606.45 367.95 605.4 366.9 604.4 365.9 604.4 364.45
L 604.4 363.6
Q 602 363.25 599.6 362.4 595.65 361.1 597.8 357.65
L 600.25 353.55 601.5 351.35 599.35 349 600.5 346.65 603.5 340.6 604.6 338.3 602.65 336.35 604 334 607.9 327 Z"/>

<path fill="#1B914D" stroke="none" d="
M 608.55 347.55
Q 609.15 347 610 347 610.8 347 611.35 347.5 613.35 347.2 615.35 346.65
L 615.15 346.25
Q 608.8 344.5 603.5 340.6
L 600.5 346.65
Q 604.5 347.75 608.45 347.7 608.5 347.6 608.55 347.55
M 618.4 358.35
Q 618.3 358.2 618.25 358.05
L 614.3 351.35
Q 607.75 354.15 601.5 351.35 608.9 356.95 618.4 358.35
M 600.25 353.55
L 597.8 357.65
Q 595.65 361.1 599.6 362.4 602 363.25 604.4 363.6 607.9 364.1 611.4 363.6 614 363.2 616.6 362.25 618.25 361.65 618.65 360.55 608.25 359.45 600.25 353.55
M 600.55 357.55
Q 601.15 357 602 357 602.85 357 603.4 357.55 604 358.15 604 359 604 359.85 603.4 360.4 602.85 361 602 361 601.15 361 600.55 360.4 600 359.85 600 359 600 358.15 600.55 357.55
M 613.7 343.3
L 611.2 338.3
Q 608.15 339.85 604.6 338.3 608.8 341.45 613.7 343.3
M 611.85 334
L 607.9 327 604 334
Q 605.05 334.25 606.1 334.4 606.2 333.9 606.55 333.55 607.15 333 608 333 608.85 333 609.4 333.55 609.75 333.9 609.9 334.35 610.9 334.25 611.85 334 Z"/>

<path fill="#F5D693" stroke="none" d="
M 611.4 347.55
L 611.35 347.5
Q 610.8 347 610 347 609.15 347 608.55 347.55 608.5 347.6 608.45 347.7 608 348.25 608 349 608 349.85 608.55 350.4 609.15 351 610 351 610.85 351 611.4 350.4 612 349.85 612 349 612 348.15 611.4 347.55
M 602 357
Q 601.15 357 600.55 357.55 600 358.15 600 359 600 359.85 600.55 360.4 601.15 361 602 361 602.85 361 603.4 360.4 604 359.85 604 359 604 358.15 603.4 357.55 602.85 357 602 357
M 609.4 333.55
Q 608.85 333 608 333 607.15 333 606.55 333.55 606.2 333.9 606.1 334.4 606 334.65 606 335 606 335.85 606.55 336.4 607.15 337 608 337 608.85 337 609.4 336.4 610 335.85 610 335 610 334.65 609.9 334.35 609.75 333.9 609.4 333.55 Z"/>

<path fill="#BB8044" stroke="none" d="
M 604.4 363.6
L 604.4 364.45
Q 604.4 365.9 605.4 366.9 606.45 367.95 607.9 367.95 609.35 367.95 610.35 366.9 611.4 365.9 611.4 364.45
L 611.4 363.6
Q 607.9 364.1 604.4 363.6 Z"/>

<path fill="#198A49" stroke="none" d="
M 599.35 349
L 601.5 351.35
Q 607.75 354.15 614.3 351.35
L 616.45 349 615.35 346.65
Q 613.35 347.2 611.35 347.5
L 611.4 347.55
Q 612 348.15 612 349 612 349.85 611.4 350.4 610.85 351 610 351 609.15 351 608.55 350.4 608 349.85 608 349 608 348.25 608.45 347.7 604.5 347.75 600.5 346.65
L 599.35 349
M 609.9 334.35
Q 610 334.65 610 335 610 335.85 609.4 336.4 608.85 337 608 337 607.15 337 606.55 336.4 606 335.85 606 335 606 334.65 606.1 334.4 605.05 334.25 604 334
L 602.65 336.35 604.6 338.3
Q 608.15 339.85 611.2 338.3
L 613.15 336.35 611.85 334
Q 610.9 334.25 609.9 334.35 Z"/>

<path fill="#E27952" stroke="none" d="
M 601.5 351.35
L 600.25 353.55
Q 608.25 359.45 618.65 360.55 618.95 359.6 618.4 358.35 608.9 356.95 601.5 351.35
M 615.15 346.25
L 613.7 343.3
Q 608.8 341.45 604.6 338.3
L 603.5 340.6
Q 608.8 344.5 615.15 346.25 Z"/>
</g>

<g id="Layer0_19_MEMBER_2_MEMBER_0_FILL">
<path fill="#A6583C" stroke="none" d="
M 635.05 351.35
Q 634.55 351 633.9 351
L 621.9 351
Q 621.05 351 620.5 351.6 619.9 352.15 619.9 353
L 619.9 373
Q 619.9 373.85 620.5 374.45 621 374.95 621.75 375 621.8 375 621.9 375
L 633.9 375
Q 634.75 375 635.35 374.45 635.9 373.85 635.9 373
L 635.9 353
Q 635.9 352.15 635.35 351.6 635.2 351.45 635.05 351.35
M 633.9 353
L 633.9 357 633.9 361 633.9 365 633.9 373 629.9 373 625.9 373 621.9 373 621.9 365 621.9 361 621.9 357 621.9 353 625.9 353 629.9 353 633.9 353 Z"/>

<path fill="#178044" stroke="none" d="
M 625.9 365
L 625.9 373 629.9 373 629.9 365 625.9 365
M 630.25 355.15
Q 630.05 355.2 629.9 355.3 629.05 355.6 628.35 356.35 628.05 356.7 627.85 356.95 627.65 356.7 627.4 356.4 626.65 355.65 625.9 355.3 625.75 355.2 625.6 355.15 624.65 354.8 624.2 355.25 623.7 355.7 624 356.75 624.05 356.9 624.1 357 624.4 357.85 625.2 358.65 625.55 359 625.9 359.25 626.5 359.7 627.1 359.9 627.55 360 627.9 360 628.2 360 628.65 359.9 629.3 359.65 629.9 359.15 630.25 358.9 630.55 358.6 631.35 357.8 631.65 357 631.7 356.9 631.75 356.75 632.1 355.8 631.6 355.35 631.15 354.8 630.25 355.15 Z"/>

<path fill="#E97D55" stroke="none" d="
M 621.9 365
L 625.9 365 625.9 361 621.9 361 621.9 365
M 621.9 353
L 621.9 357 624.1 357
Q 624.05 356.9 624 356.75 623.7 355.7 624.2 355.25 624.65 354.8 625.6 355.15 625.75 355.2 625.9 355.3
L 625.9 353 621.9 353
M 633.9 365
L 633.9 361 629.9 361 629.9 365 633.9 365
M 629.9 355.3
Q 630.05 355.2 630.25 355.15 631.15 354.8 631.6 355.35 632.1 355.8 631.75 356.75 631.7 356.9 631.65 357
L 633.9 357 633.9 353 629.9 353 629.9 355.3 Z"/>

<path fill="#D2704C" stroke="none" d="
M 625.9 365
L 621.9 365 621.9 373 625.9 373 625.9 365
M 633.9 365
L 629.9 365 629.9 373 633.9 373 633.9 365 Z"/>

<path fill="#1B914D" stroke="none" d="
M 629.9 355.3
L 629.9 353 625.9 353 625.9 355.3
Q 626.65 355.65 627.4 356.4 627.65 356.7 627.85 356.95 628.05 356.7 628.35 356.35 629.05 355.6 629.9 355.3
M 631.65 357
Q 631.35 357.8 630.55 358.6 630.25 358.9 629.9 359.15 629.3 359.65 628.65 359.9 628.2 360 627.9 360 627.55 360 627.1 359.9 626.5 359.7 625.9 359.25 625.55 359 625.2 358.65 624.4 357.85 624.1 357
L 621.9 357 621.9 361 625.9 361 625.9 365 629.9 365 629.9 361 633.9 361 633.9 357 631.65 357 Z"/>
</g>

<g id="Layer0_19_MEMBER_2_MEMBER_1_FILL">
<path fill="#115F32" stroke="none" d="
M 609.9 364
Q 609.05 364 608.5 364.6 607.9 365.15 607.9 366
L 607.9 378
Q 607.9 378.85 608.5 379.45 609.05 380 609.9 380
L 621.9 380
Q 622.75 380 623.35 379.45 623.9 378.85 623.9 378
L 623.9 366
Q 623.9 365.15 623.35 364.6 622.75 364 621.9 364
L 609.9 364
M 609.9 366
L 613.9 366 617.9 366 621.9 366 621.9 374 621.9 378 617.9 378 613.9 378 609.9 378 609.9 374 609.9 366 Z"/>

<path fill="#178044" stroke="none" d="
M 613.9 378
L 613.9 374 609.9 374 609.9 378 613.9 378
M 621.9 378
L 621.9 374 617.9 374 617.9 378 621.9 378 Z"/>

<path fill="#F0E0BB" stroke="none" d="
M 615.1 371.9
Q 614.5 371.7 613.9 371.25
L 613.9 374 617.9 374 617.9 371.15
Q 617.3 371.65 616.65 371.9 616.2 372 615.9 372 615.55 372 615.1 371.9
M 615.85 368.95
Q 616.05 368.7 616.35 368.35 617.05 367.6 617.9 367.3
L 617.9 366 613.9 366 613.9 367.3
Q 614.65 367.65 615.4 368.4 615.65 368.7 615.85 368.95 Z"/>

<path fill="#D2C4A3" stroke="none" d="
M 617.9 378
L 617.9 374 613.9 374 613.9 378 617.9 378
M 612.2 367.25
Q 611.7 367.7 612 368.75 612.3 369.75 613.2 370.65 613.55 371 613.9 371.25 614.5 371.7 615.1 371.9 615.55 372 615.9 372 616.2 372 616.65 371.9 617.3 371.65 617.9 371.15 618.25 370.9 618.55 370.6 619.45 369.7 619.75 368.75 620.1 367.8 619.6 367.35 619.15 366.8 618.25 367.15 618.05 367.2 617.9 367.3 617.05 367.6 616.35 368.35 616.05 368.7 615.85 368.95 615.65 368.7 615.4 368.4 614.65 367.65 613.9 367.3 613.75 367.2 613.6 367.15 612.65 366.8 612.2 367.25 Z"/>

<path fill="#1B914D" stroke="none" d="
M 617.9 366
L 617.9 367.3
Q 618.05 367.2 618.25 367.15 619.15 366.8 619.6 367.35 620.1 367.8 619.75 368.75 619.45 369.7 618.55 370.6 618.25 370.9 617.9 371.15
L 617.9 374 621.9 374 621.9 366 617.9 366
M 612 368.75
Q 611.7 367.7 612.2 367.25 612.65 366.8 613.6 367.15 613.75 367.2 613.9 367.3
L 613.9 366 609.9 366 609.9 374 613.9 374 613.9 371.25
Q 613.55 371 613.2 370.65 612.3 369.75 612 368.75 Z"/>
</g>
</defs>

<g transform="matrix( 1, 0, 0, 1, 0,0) ">
<use xlink:href="#Layer0_0_FILL"/>
</g>

<g transform="matrix( 1, 0, 0, 1, 0,0) ">
<use xlink:href="#Layer0_1_FILL"/>
</g>

<g transform="matrix( 1, 0, 0, 1, 0,0) ">
<use xlink:href="#Layer0_2_FILL"/>
</g>

<g transform="matrix( 1, 0, 0, 1, 0,0) ">
<use xlink:href="#Layer0_3_FILL"/>
</g>

<g transform="matrix( 1, 0, 0, 1, 0,0) ">
<use xlink:href="#Layer0_3_MEMBER_0_FILL"/>
</g>

<g transform="matrix( 1, 0, 0, 1, 0,0) ">
<use xlink:href="#Layer0_3_MEMBER_1_FILL"/>
</g>

<g transform="matrix( 1, 0, 0, 1, 0,0) ">
<use xlink:href="#Layer0_3_MEMBER_2_FILL"/>
</g>

<g transform="matrix( 1, 0, 0, 1, 0,0) ">
<use xlink:href="#Layer0_4_FILL"/>
</g>

<g transform="matrix( 1, 0, 0, 1, 0,0) ">
<use xlink:href="#Layer0_5_FILL"/>
</g>

<g transform="matrix( 1, 0, 0, 1, 0,0) ">
<use xlink:href="#Layer0_6_FILL"/>
</g>

<g transform="matrix( 1, 0, 0, 1, 0,0) ">
<use xlink:href="#Layer0_7_FILL"/>
</g>

<g transform="matrix( 1, 0, 0, 1, 0,0) ">
<use xlink:href="#Layer0_8_MEMBER_0_FILL"/>
</g>

<g transform="matrix( 1, 0, 0, 1, 0,0) ">
<use xlink:href="#Layer0_8_MEMBER_1_FILL"/>
</g>

<g transform="matrix( 1, 0, 0, 1, 0,0) ">
<use xlink:href="#Layer0_8_MEMBER_2_FILL"/>
</g>

<g transform="matrix( 1, 0, 0, 1, 0,0) ">
<use xlink:href="#Layer0_9_MEMBER_0_FILL"/>
</g>

<g transform="matrix( 1, 0, 0, 1, 0,0) ">
<use xlink:href="#Layer0_9_MEMBER_1_FILL"/>
</g>

<g transform="matrix( 1, 0, 0, 1, 0,0) ">
<use xlink:href="#Layer0_10_FILL"/>
</g>

<g transform="matrix( 1, 0, 0, 1, 0,0) ">
<use xlink:href="#Layer0_11_FILL"/>
</g>

<g transform="matrix( 1, 0, 0, 1, 0,0) ">
<use xlink:href="#Layer0_12_FILL"/>
</g>

<g transform="matrix( 1, 0, 0, 1, 0,0) ">
<use xlink:href="#Layer0_13_FILL"/>
</g>

<g transform="matrix( 1, 0, 0, 1, 0,0) ">
<use xlink:href="#Layer0_14_FILL"/>
</g>

<g transform="matrix( 1, 0, 0, 1, 0,0) ">
<use xlink:href="#Layer0_15_FILL"/>
</g>

<g transform="matrix( 1, 0, 0, 1, 0,0) ">
<use xlink:href="#Layer0_15_MEMBER_0_FILL"/>
</g>

<g transform="matrix( 1, 0, 0, 1, 0,0) ">
<use xlink:href="#Layer0_15_MEMBER_1_FILL"/>
</g>

<g transform="matrix( 1, 0, 0, 1, 0,0) ">
<use xlink:href="#Layer0_15_MEMBER_2_FILL"/>
</g>

<g transform="matrix( 1, 0, 0, 1, 0,0) ">
<use xlink:href="#Layer0_16_FILL"/>
</g>

<g transform="matrix( 1, 0, 0, 1, 0,0) ">
<use xlink:href="#Layer0_17_FILL"/>
</g>

<g transform="matrix( 1, 0, 0, 1, 0,0) ">
<use xlink:href="#Layer0_18_FILL"/>
</g>

<g transform="matrix( 1, 0, 0, 1, 0,0) ">
<use xlink:href="#Layer0_19_MEMBER_0_FILL"/>
</g>

<g transform="matrix( 1, 0, 0, 1, 0,0) ">
<use xlink:href="#Layer0_19_MEMBER_1_FILL"/>
</g>

<g transform="matrix( 1, 0, 0, 1, 0,0) ">
<use xlink:href="#Layer0_19_MEMBER_2_MEMBER_0_FILL"/>
</g>

<g transform="matrix( 1, 0, 0, 1, 0,0) ">
<use xlink:href="#Layer0_19_MEMBER_2_MEMBER_1_FILL"/>
</g>
</svg>
