<svg xmlns="http://www.w3.org/2000/svg" xmlns:xlink="http://www.w3.org/1999/xlink">
  <defs/>
  <g>
    <path stroke="none" fill="#FFFFFF" d="M20 192 L31.35 191.35 31.05 191.95 Q30.1 194.25 27.75 195.15 25.45 196.1 23.15 195.15 20.95 194.2 20 192"/>
    <path stroke="none" fill="#3C3C3C" d="M20 17.8 Q26.3 15.25 33.05 15 L32.1 20.45 Q26.55 18.6 20.6 20.75 L20 17.8"/>
    <path stroke="none" fill="#D4CBB9" d="M52.1 20.45 Q46.55 18.6 40.6 20.75 L40 17.8 Q46.3 15.25 53.05 15 L52.1 20.45"/>
    <path stroke="none" fill="#D7BF94" d="M72.1 20.45 Q66.55 18.6 60.6 20.75 L60 17.8 Q66.3 15.25 73.05 15 L72.1 20.45"/>
    <path stroke="none" fill="#D4946B" d="M93.05 15 L92.1 20.45 Q86.55 18.6 80.6 20.75 L80 17.8 Q86.3 15.25 93.05 15"/>
    <path stroke="none" fill="#694C39" d="M112.1 20.45 Q106.55 18.6 100.6 20.75 L100 17.8 Q106.3 15.25 113.05 15 L112.1 20.45"/>
    <path stroke="none" fill="#5D544E" d="M133.05 15 L132.1 20.45 Q126.55 18.6 120.6 20.75 L120 17.8 Q126.3 15.25 133.05 15"/>
    <path stroke="none" fill="#989898" d="M152.1 20.45 Q146.55 18.6 140.6 20.75 L140 17.8 Q146.3 15.25 153.05 15 L152.1 20.45"/>
    <path stroke="none" fill="#E5E5E5" d="M173.05 15 L172.1 20.45 Q166.55 18.6 160.6 20.75 L160 17.8 Q166.3 15.25 173.05 15"/>
    <path stroke="none" fill="#3C3C3C" d="M20.05 39.15 L20.2 36.15 Q27 35.3 33.55 36.8 L32.6 38.7 20.05 39.15"/>
    <path stroke="none" fill="#D4CBB9" d="M53.55 36.8 L52.6 38.7 40.05 39.15 40.2 36.15 Q47 35.3 53.55 36.8"/>
    <path stroke="none" fill="#D7BF94" d="M60.05 39.15 L60.2 36.15 Q67 35.3 73.55 36.8 L72.6 38.7 60.05 39.15"/>
    <path stroke="none" fill="#D4946B" d="M93.55 36.8 L92.6 38.7 80.05 39.15 80.2 36.15 Q87 35.3 93.55 36.8"/>
    <path stroke="none" fill="#694C39" d="M100.05 39.15 L100.2 36.15 Q107 35.3 113.55 36.8 L112.6 38.7 100.05 39.15"/>
    <path stroke="none" fill="#5D544E" d="M133.55 36.8 L132.6 38.7 120.05 39.15 120.2 36.15 Q127 35.3 133.55 36.8"/>
    <path stroke="none" fill="#989898" d="M140.05 39.15 L140.2 36.15 Q147 35.3 153.55 36.8 L152.6 38.7 140.05 39.15"/>
    <path stroke="none" fill="#E5E5E5" d="M173.55 36.8 L172.6 38.7 160.05 39.15 160.2 36.15 Q167 35.3 173.55 36.8"/>
    <path stroke="none" fill="#E5E5E5" d="M173.05 55 L172.35 58.05 Q166.55 58.6 160.6 60.75 L160 57.8 Q166.3 55.25 173.05 55"/>
    <path stroke="none" fill="#989898" d="M153.05 55 L152.35 58.05 Q146.55 58.6 140.6 60.75 L140 57.8 Q146.3 55.25 153.05 55"/>
    <path stroke="none" fill="#5D544E" d="M120.6 60.75 L120 57.8 Q126.3 55.25 133.05 55 L132.35 58.05 Q126.55 58.6 120.6 60.75"/>
    <path stroke="none" fill="#694C39" d="M113.05 55 L112.35 58.05 Q106.55 58.6 100.6 60.75 L100 57.8 Q106.3 55.25 113.05 55"/>
    <path stroke="none" fill="#D4946B" d="M93.05 55 L92.35 58.05 Q86.55 58.6 80.6 60.75 L80 57.8 Q86.3 55.25 93.05 55"/>
    <path stroke="none" fill="#D7BF94" d="M73.05 55 L72.35 58.05 Q66.55 58.6 60.6 60.75 L60 57.8 Q66.3 55.25 73.05 55"/>
    <path stroke="none" fill="#D4CBB9" d="M52.35 58.05 Q46.55 58.6 40.6 60.75 L40 57.8 Q46.3 55.25 53.05 55 L52.35 58.05"/>
    <path stroke="none" fill="#3C3C3C" d="M20.6 60.75 L20 57.8 Q26.3 55.25 33.05 55 L32.35 58.05 Q26.55 58.6 20.6 60.75"/>
    <path stroke="none" fill="#694C39" d="M25.95 84.95 Q24.95 86 23.5 86 22.05 86 21 84.95 20 83.95 20 82.5 20 81.05 21 80 22.05 79 23.5 79 24.95 79 25.95 80 27 81.05 27 82.5 27 83.95 25.95 84.95"/>
    <path stroke="none" fill="#395269" d="M43.5 79 Q44.95 79 45.95 80 47 81.05 47 82.5 47 83.95 45.95 84.95 44.95 86 43.5 86 42.05 86 41 84.95 40 83.95 40 82.5 40 81.05 41 80 42.05 79 43.5 79"/>
    <path stroke="none" fill="#396962" d="M60 82.5 Q60 81.05 61 80 62.05 79 63.5 79 64.95 79 65.95 80 67 81.05 67 82.5 67 83.95 65.95 84.95 64.95 86 63.5 86 62.05 86 61 84.95 60 83.95 60 82.5"/>
    <path stroke="none" fill="#4C6939" d="M87 82.5 Q87 83.95 85.95 84.95 84.95 86 83.5 86 82.05 86 81 84.95 80 83.95 80 82.5 80 81.05 81 80 82.05 79 83.5 79 84.95 79 85.95 80 87 81.05 87 82.5"/>
    <path stroke="none" fill="#4D4743" d="M103.5 79 Q104.95 79 105.95 80 107 81.05 107 82.5 107 83.95 105.95 84.95 104.95 86 103.5 86 102.05 86 101 84.95 100 83.95 100 82.5 100 81.05 101 80 102.05 79 103.5 79"/>
    <path stroke="none" fill="#694C39" d="M22.5 104.05 Q21.45 104.05 20.7 103.3 20 102.55 20 101.55 20 100.5 20.7 99.75 21.45 99.05 22.5 99.05 23.5 99.05 24.25 99.75 25 100.5 25 101.55 25 102.55 24.25 103.3 23.5 104.05 22.5 104.05"/>
    <path stroke="none" fill="#395269" d="M44.25 99.75 Q45 100.5 45 101.55 45 102.55 44.25 103.3 43.55 104.05 42.5 104.05 41.5 104.05 40.75 103.3 40 102.55 40 101.55 40 100.5 40.75 99.75 41.5 99.05 42.5 99.05 43.55 99.05 44.25 99.75"/>
    <path stroke="none" fill="#396962" d="M60.7 99.75 Q61.45 99.05 62.5 99.05 63.55 99.05 64.25 99.75 65 100.5 65 101.55 65 102.55 64.25 103.3 63.55 104.05 62.5 104.05 61.45 104.05 60.7 103.3 60 102.55 60 101.55 60 100.5 60.7 99.75"/>
    <path stroke="none" fill="#4C6939" d="M80.7 99.75 Q81.45 99.05 82.5 99.05 83.55 99.05 84.25 99.75 85 100.5 85 101.55 85 102.55 84.25 103.3 83.55 104.05 82.5 104.05 81.45 104.05 80.7 103.3 80 102.55 80 101.55 80 100.5 80.7 99.75"/>
    <path stroke="none" fill="#4D4743" d="M104.25 99.75 Q105 100.5 105 101.55 105 102.55 104.25 103.3 103.5 104.05 102.5 104.05 101.45 104.05 100.7 103.3 100 102.55 100 101.55 100 100.5 100.7 99.75 101.45 99.05 102.5 99.05 103.5 99.05 104.25 99.75"/>
    <path stroke="none" fill="#4D4743" d="M43.55 193.85 Q45.45 195 47.4 193.85 48.7 193.05 49.55 191.45 L51.35 191.35 51.05 191.95 Q50.1 194.25 47.75 195.15 45.45 196.1 43.15 195.15 40.95 194.2 40 192 L41.8 191.9 Q42.5 193.15 43.55 193.85"/>
    <path stroke="none" fill="#4D4743" d="M67.4 193.05 Q65.45 191.9 63.55 193.05 62.5 193.75 61.8 195 L60 194.9 Q60.95 192.7 63.15 191.75 65.45 190.8 67.75 191.75 70.1 192.65 71.05 194.95 L71.35 195.55 69.55 195.45 Q68.7 193.85 67.4 193.05"/>
    <path stroke="none" fill="#4D4743" d="M135.6 190.95 L147.2 190.95 147.2 192.3 135.6 192.7 135.6 190.95"/>
    <path stroke="none" fill="#4D4743" d="M90.4 193.2 Q89.4 194.5 87.75 195.15 85.45 196.1 83.15 195.15 81.95 194.65 81.1 193.75 L90.4 193.2"/>
    <path stroke="none" fill="#FFFFFF" d="M90.4 193.2 L81.1 193.75 80 192 91.35 191.35 91.05 191.95 90.4 193.2"/>
    <path stroke="none" fill="#FFFFFF" d="M101.25 193.9 L110.2 193.4 Q109.25 194.55 107.75 195.15 105.45 196.1 103.15 195.15 L101.25 193.9"/>
    <path stroke="none" fill="#4D4743" d="M101.25 193.9 Q100.45 193.1 100 192 L111.35 191.35 111.05 191.95 110.2 193.4 101.25 193.9"/>
    <path stroke="none" fill="#4D4743" d="M122.4 194.45 Q121.7 193.75 121.7 192.8 121.7 191.85 122.4 191.15 123.1 190.45 124.05 190.45 125 190.45 125.7 191.15 126.4 191.85 126.4 192.8 126.4 193.75 125.7 194.45 125 195.15 124.05 195.15 123.1 195.15 122.4 194.45"/>
    <path stroke="none" fill="#F5D29D" d="M20 127.85 Q20.15 125.9 21.55 124.5 23.05 123 25.15 123 27.3 123 28.8 124.5 30.2 125.9 30.3 127.85 L30.3 127.95 Q30.3 128.75 28.8 129.35 L25.15 129.9 21.55 129.35 Q20 128.75 20 127.95 L20 127.85"/>
    <path stroke="none" fill="#E7C38C" d="M45.15 129.9 L41.55 129.35 Q40 128.75 40 127.95 L40 127.85 Q40.15 125.9 41.55 124.5 43.05 123 45.15 123 47.3 123 48.8 124.5 50.2 125.9 50.3 127.85 L50.3 127.95 Q50.3 128.75 48.8 129.35 47.3 129.9 45.15 129.9"/>
    <path stroke="none" fill="#FFE0B1" d="M60 127.85 Q60.15 125.9 61.55 124.5 63.05 123 65.15 123 67.3 123 68.8 124.5 70.2 125.9 70.3 127.85 L70.3 127.95 Q70.3 128.75 68.8 129.35 L65.15 129.9 61.55 129.35 Q60 128.75 60 127.95 L60 127.85"/>
    <path stroke="none" fill="#D2AC73" d="M80 127.85 Q80.15 125.9 81.55 124.5 83.05 123 85.15 123 87.3 123 88.8 124.5 90.2 125.9 90.3 127.85 L90.3 127.95 Q90.3 128.75 88.8 129.35 L85.15 129.9 81.55 129.35 Q80 128.75 80 127.95 L80 127.85"/>
    <path stroke="none" fill="#BF9C66" d="M100 127.85 Q100.15 125.9 101.55 124.5 103.05 123 105.15 123 107.3 123 108.8 124.5 110.2 125.9 110.3 127.85 L110.3 127.95 Q110.3 128.75 108.8 129.35 L105.15 129.9 101.55 129.35 Q100 128.75 100 127.95 L100 127.85"/>
    <path stroke="none" fill="#AA8956" d="M128.8 124.5 Q130.2 125.9 130.3 127.85 L130.3 127.95 Q130.3 128.75 128.8 129.35 L125.15 129.9 121.55 129.35 Q120 128.75 120 127.95 L120 127.85 Q120.15 125.9 121.55 124.5 123.05 123 125.15 123 127.3 123 128.8 124.5"/>
    <path stroke="none" fill="#957544" d="M140 127.95 L140 127.85 Q140.15 125.9 141.55 124.5 143.05 123 145.15 123 147.3 123 148.8 124.5 150.2 125.9 150.3 127.85 L150.3 127.95 Q150.3 128.75 148.8 129.35 147.3 129.9 145.15 129.9 L141.55 129.35 Q140 128.75 140 127.95"/>
    <path stroke="none" fill="#836538" d="M170.3 127.95 Q170.3 128.75 168.8 129.35 L165.15 129.9 161.55 129.35 Q160 128.75 160 127.95 L160 127.85 Q160.15 125.9 161.55 124.5 163.05 123 165.15 123 167.3 123 168.8 124.5 170.2 125.9 170.3 127.85 L170.3 127.95"/>
    <path stroke="none" fill="#F5D29D" d="M27.8 144.75 Q28.9 146.35 29 148.65 L29 148.75 Q29 149.7 27.8 150.35 26.7 151 25 151 23.35 151 22.2 150.35 21 149.7 21 148.75 L21 148.65 Q21.1 146.35 22.2 144.75 23.35 143 25 143 26.7 143 27.8 144.75"/>
    <path stroke="none" fill="#E7C38C" d="M45 143 Q46.7 143 47.8 144.75 48.9 146.35 49 148.65 L49 148.75 Q49 149.7 47.8 150.35 46.7 151 45 151 43.35 151 42.2 150.35 41 149.7 41 148.75 L41 148.65 Q41.1 146.35 42.2 144.75 43.35 143 45 143"/>
    <path stroke="none" fill="#FFE0B1" d="M67.8 144.75 Q68.9 146.35 69 148.65 L69 148.75 Q69 149.7 67.8 150.35 66.7 151 65 151 63.35 151 62.2 150.35 61 149.7 61 148.75 L61 148.65 Q61.1 146.35 62.2 144.75 63.35 143 65 143 66.7 143 67.8 144.75"/>
    <path stroke="none" fill="#D2AC73" d="M85 143 Q86.7 143 87.8 144.75 88.9 146.35 89 148.65 L89 148.75 Q89 149.7 87.8 150.35 86.7 151 85 151 83.35 151 82.2 150.35 81 149.7 81 148.75 L81 148.65 Q81.1 146.35 82.2 144.75 83.35 143 85 143"/>
    <path stroke="none" fill="#BF9C66" d="M105 143 Q106.7 143 107.8 144.75 108.9 146.35 109 148.65 L109 148.75 Q109 149.7 107.8 150.35 106.7 151 105 151 103.35 151 102.2 150.35 101 149.7 101 148.75 L101 148.65 Q101.1 146.35 102.2 144.75 103.35 143 105 143"/>
    <path stroke="none" fill="#AA8956" d="M127.8 144.75 Q128.9 146.35 129 148.65 L129 148.75 Q129 149.7 127.8 150.35 126.7 151 125 151 123.35 151 122.2 150.35 121 149.7 121 148.75 L121 148.65 Q121.1 146.35 122.2 144.75 123.35 143 125 143 126.7 143 127.8 144.75"/>
    <path stroke="none" fill="#957544" d="M147.8 144.75 Q148.9 146.35 149 148.65 L149 148.75 Q149 149.7 147.8 150.35 146.7 151 145 151 143.35 151 142.2 150.35 141 149.7 141 148.75 L141 148.65 Q141.1 146.35 142.2 144.75 143.35 143 145 143 146.7 143 147.8 144.75"/>
    <path stroke="none" fill="#836538" d="M167.8 144.75 Q168.9 146.35 169 148.65 L169 148.75 Q169 149.7 167.8 150.35 166.7 151 165 151 163.35 151 162.2 150.35 161 149.7 161 148.75 L161 148.65 Q161.1 146.35 162.2 144.75 163.35 143 165 143 166.7 143 167.8 144.75"/>
    <path stroke="none" fill="#F5D29D" d="M28.05 166.4 L28.05 166.45 Q27.95 167.9 27 168.9 25.95 170 24.55 170 23.05 170 22.05 168.9 21.1 167.9 21 166.45 L21 166.4 Q21 165.8 22.05 165.4 L24.55 165 27 165.4 Q28.05 165.8 28.05 166.4"/>
    <path stroke="none" fill="#E7C38C" d="M48.05 166.4 L48.05 166.45 Q47.95 167.9 47 168.9 45.95 170 44.55 170 43.05 170 42.05 168.9 41.1 167.9 41 166.45 L41 166.4 Q41 165.8 42.05 165.4 L44.55 165 47 165.4 Q48.05 165.8 48.05 166.4"/>
    <path stroke="none" fill="#FFE0B1" d="M68.05 166.45 Q67.95 167.9 67 168.9 65.95 170 64.55 170 63.05 170 62.05 168.9 61.1 167.9 61 166.45 L61 166.4 Q61 165.8 62.05 165.4 L64.55 165 67 165.4 Q68.05 165.8 68.05 166.4 L68.05 166.45"/>
    <path stroke="none" fill="#D2AC73" d="M88.05 166.4 L88.05 166.45 Q87.95 167.9 87 168.9 85.95 170 84.55 170 83.05 170 82.05 168.9 81.1 167.9 81 166.45 L81 166.4 Q81 165.8 82.05 165.4 L84.55 165 87 165.4 Q88.05 165.8 88.05 166.4"/>
    <path stroke="none" fill="#BF9C66" d="M107 168.9 Q105.95 170 104.55 170 103.05 170 102.05 168.9 101.1 167.9 101 166.45 L101 166.4 Q101 165.8 102.05 165.4 L104.55 165 107 165.4 Q108.05 165.8 108.05 166.4 L108.05 166.45 Q107.95 167.9 107 168.9"/>
    <path stroke="none" fill="#AA8956" d="M121 166.4 Q121 165.8 122.05 165.4 L124.55 165 127 165.4 Q128.05 165.8 128.05 166.4 L128.05 166.45 Q127.95 167.9 127 168.9 125.95 170 124.55 170 123.05 170 122.05 168.9 121.1 167.9 121 166.45 L121 166.4"/>
    <path stroke="none" fill="#957544" d="M142.05 168.9 Q141.1 167.9 141 166.45 L141 166.4 Q141 165.8 142.05 165.4 L144.55 165 147 165.4 Q148.05 165.8 148.05 166.4 L148.05 166.45 Q147.95 167.9 147 168.9 145.95 170 144.55 170 143.05 170 142.05 168.9"/>
    <path stroke="none" fill="#836538" d="M168.05 166.4 L168.05 166.45 Q167.95 167.9 167 168.9 165.95 170 164.55 170 163.05 170 162.05 168.9 161.1 167.9 161 166.45 L161 166.4 Q161 165.8 162.05 165.4 L164.55 165 167 165.4 Q168.05 165.8 168.05 166.4"/>
    <path stroke="none" fill="#F5D29D" d="M246.95 79.75 Q245.45 80.3 243.3 80.3 L239.7 79.75 Q238.15 79.15 238.15 78.35 L238.15 78.25 Q238.3 76.3 239.7 74.9 241.2 73.4 243.3 73.4 245.45 73.4 246.95 74.9 248.35 76.3 248.45 78.25 L248.45 78.35 Q248.45 79.15 246.95 79.75"/>
    <path stroke="none" fill="#FFFFFF" d="M244.3 88.15 Q242.1 87.2 241.15 85 L252.5 84.35 252.2 84.95 Q251.25 87.25 248.9 88.15 246.6 89.1 244.3 88.15"/>
    <path stroke="none" fill="#694C39" d="M251.45 73.05 Q250.45 72.05 250.45 70.6 250.45 69.15 251.45 68.1 252.5 67.1 253.95 67.1 255.4 67.1 256.4 68.1 257.45 69.15 257.45 70.6 257.45 72.05 256.4 73.05 255.4 74.1 253.95 74.1 252.5 74.1 251.45 73.05"/>
    <path stroke="none" fill="#694C39" d="M233.15 74.1 Q231.7 74.1 230.65 73.05 229.65 72.05 229.65 70.6 229.65 69.15 230.65 68.1 231.7 67.1 233.15 67.1 234.6 67.1 235.6 68.1 236.65 69.15 236.65 70.6 236.65 72.05 235.6 73.05 234.6 74.1 233.15 74.1"/>
    <path stroke="none" fill="#3C3C3C" d="M227.95 57.8 Q234.25 55.25 241 55 L240.05 60.45 Q234.5 58.6 228.55 60.75 L227.95 57.8"/>
    <path stroke="none" fill="#3C3C3C" d="M247.9 57.35 Q254.65 57.6 260.95 60.15 L260.35 63.1 Q254.4 60.95 248.85 62.8 L247.9 57.35"/>
    <path stroke="none" fill="#396962" d="M303.45 68.1 Q304.5 67.1 305.95 67.1 307.4 67.1 308.4 68.1 309.45 69.15 309.45 70.6 309.45 72.05 308.4 73.05 307.4 74.1 305.95 74.1 304.5 74.1 303.45 73.05 302.45 72.05 302.45 70.6 302.45 69.15 303.45 68.1"/>
    <path stroke="none" fill="#F5D29D" d="M459.65 70.6 Q461.75 72.7 461.9 75.65 L461.9 75.8 Q461.9 77 459.65 77.9 457.35 78.75 454.1 78.75 450.95 78.75 448.7 77.9 446.35 77 446.35 75.8 L446.35 75.65 Q446.55 72.7 448.7 70.6 450.95 68.3 454.1 68.3 457.35 68.3 459.65 70.6"/>
    <path stroke="none" fill="#396962" d="M318.95 68.35 Q320 67.35 321.45 67.35 322.9 67.35 323.9 68.35 324.95 69.4 324.95 70.85 324.95 72.3 323.9 73.3 322.9 74.35 321.45 74.35 320 74.35 318.95 73.3 317.95 72.3 317.95 70.85 317.95 69.4 318.95 68.35"/>
    <path stroke="none" fill="#F5D29D" d="M317.6 79.95 L317.6 80.05 Q317.6 81 316.4 81.65 315.3 82.3 313.6 82.3 311.95 82.3 310.8 81.65 309.6 81 309.6 80.05 L309.6 79.95 Q309.7 77.65 310.8 76.05 311.95 74.3 313.6 74.3 315.3 74.3 316.4 76.05 317.5 77.65 317.6 79.95"/>
    <path stroke="none" fill="#4D4743" d="M310.55 88.4 L319.85 87.85 Q318.85 89.15 317.2 89.8 314.9 90.75 312.6 89.8 311.4 89.3 310.55 88.4"/>
    <path stroke="none" fill="#FFFFFF" d="M310.55 88.4 L309.45 86.65 320.8 86 320.5 86.6 319.85 87.85 310.55 88.4"/>
    <path stroke="none" fill="#694C39" d="M308.7 60.6 Q300.7 62.75 297.05 65.35 L296.2 62.5 Q302.25 59.35 308.9 58.5 L308.7 60.6"/>
    <path stroke="none" fill="#694C39" d="M328 60.05 Q324.15 57.85 316 56.35 L315.6 54.3 Q322.3 54.55 328.65 57.15 L328 60.05"/>
    <path stroke="none" fill="#4D4743" d="M399.75 73.55 Q399.75 74.55 399 75.3 398.25 76.05 397.25 76.05 396.2 76.05 395.45 75.3 394.75 74.55 394.75 73.55 394.75 72.5 395.45 71.75 396.2 71.05 397.25 71.05 398.25 71.05 399 71.75 399.75 72.5 399.75 73.55"/>
    <path stroke="none" fill="#4D4743" d="M374.25 74.3 Q373.5 75.05 372.5 75.05 371.45 75.05 370.7 74.3 370 73.55 370 72.55 370 71.5 370.7 70.75 371.45 70.05 372.5 70.05 373.5 70.05 374.25 70.75 375 71.5 375 72.55 375 73.55 374.25 74.3"/>
    <path stroke="none" fill="#E7C38C" d="M381.75 75.45 L381.75 75.4 Q381.75 74.8 382.8 74.4 L385.3 74 387.75 74.4 Q388.8 74.8 388.8 75.4 L388.8 75.45 Q388.7 76.9 387.75 77.9 386.7 79 385.3 79 383.8 79 382.8 77.9 381.85 76.9 381.75 75.45"/>
    <path stroke="none" fill="#4D4743" d="M389.7 82.3 L389.7 83.65 378.1 84.05 378.1 82.3 389.7 82.3"/>
    <path stroke="none" fill="#D4CBB9" d="M365.75 65.35 Q372.05 62.8 378.8 62.55 L377.85 68 Q372.3 66.15 366.35 68.3 L365.75 65.35"/>
    <path stroke="none" fill="#D4CBB9" d="M402.15 68.3 Q396.2 66.15 390.65 68 L389.7 62.55 Q396.45 62.8 402.75 65.35 L402.15 68.3"/>
    <path stroke="none" fill="#4D4743" d="M441.15 70 Q440.15 69 440.15 67.55 440.15 66.1 441.15 65.05 442.2 64.05 443.65 64.05 445.1 64.05 446.1 65.05 447.15 66.1 447.15 67.55 447.15 69 446.1 70 445.1 71.05 443.65 71.05 442.2 71.05 441.15 70"/>
    <path stroke="none" fill="#4D4743" d="M467.85 66.35 Q468.9 67.4 468.9 68.85 468.9 70.3 467.85 71.3 466.85 72.35 465.4 72.35 463.95 72.35 462.9 71.3 461.9 70.3 461.9 68.85 461.9 67.4 462.9 66.35 463.95 65.35 465.4 65.35 466.85 65.35 467.85 66.35"/>
    <path stroke="none" fill="#4D4743" d="M460.3 81.85 L462.1 81.75 461.8 82.35 Q460.85 84.65 458.5 85.55 456.2 86.5 453.9 85.55 451.7 84.6 450.75 82.4 L452.55 82.3 Q453.25 83.55 454.3 84.25 456.2 85.4 458.15 84.25 459.45 83.45 460.3 81.85"/>
    <path stroke="none" fill="#3C3C3C" d="M437.2 63.1 L436.6 60.15 Q442.9 57.6 449.65 57.35 L448.95 60.4 Q443.15 60.95 437.2 63.1"/>
    <path stroke="none" fill="#3C3C3C" d="M460.75 63.15 L460.05 60.1 Q466.8 60.35 473.1 62.9 L472.5 65.85 Q466.55 63.7 460.75 63.15"/>
  </g>
</svg>