<svg xmlns="http://www.w3.org/2000/svg" xmlns:xlink="http://www.w3.org/1999/xlink">
  <defs/>
  <g>
    <path stroke="none" fill="#595F64" d="M205.85 123.75 Q199.6 121.8 195.2 117.9 L193.7 121.1 190 119.55 190 114.25 Q194.45 109.15 208.2 110.15 212.65 115.45 219.65 117.7 220.6 120.2 221 123.3 L205.85 123.75 M54.35 110.8 Q59.9 114.7 61 123.3 43 125.7 30 119.55 L30 114.25 Q35.4 108.1 54.35 110.8 M70 119.55 L70 114.25 Q74.4 109.25 87.8 110.1 95.4 114.4 101 123.3 83 125.7 70 119.55 M181 123.3 Q171 124.65 162.55 123.35 L160.8 120.4 154.75 119.15 153.3 120.95 150 119.55 150 114.25 Q155.4 108.1 174.35 110.8 179.9 114.7 181 123.3 M141 123.3 Q123 125.7 110 119.55 L110 114.25 Q114.45 109.15 128.2 110.15 132.65 115.45 139.65 117.7 140.6 120.2 141 123.3"/>
    <path stroke="none" fill="#AF9360" d="M205.85 143.75 Q199.6 141.8 195.2 137.9 L193.7 141.1 190 139.55 190 134.25 Q194.45 129.15 208.2 130.15 212.65 135.45 219.65 137.7 220.6 140.2 221 143.3 L205.85 143.75 M54.35 130.8 Q59.9 134.7 61 143.3 43 145.7 30 139.55 L30 134.25 Q35.4 128.1 54.35 130.8 M70 139.55 L70 134.25 Q74.4 129.25 87.8 130.1 95.4 134.4 101 143.3 83 145.7 70 139.55 M181 143.3 Q171 144.65 162.55 143.35 L160.8 140.4 154.75 139.15 153.3 140.95 150 139.55 150 134.25 Q155.4 128.1 174.35 130.8 179.9 134.7 181 143.3 M139.65 137.7 Q140.6 140.2 141 143.3 123 145.7 110 139.55 L110 134.25 Q114.45 129.15 128.2 130.15 132.65 135.45 139.65 137.7"/>
    <path stroke="none" fill="#9A7D49" d="M174.35 150.8 Q179.9 154.7 181 163.3 171 164.65 162.55 163.35 L160.8 160.4 154.75 159.15 153.3 160.95 150 159.55 150 154.25 Q155.4 148.1 174.35 150.8 M190 159.55 L190 154.25 Q194.45 149.15 208.2 150.15 212.65 155.45 219.65 157.7 220.6 160.2 221 163.3 L205.85 163.75 Q199.6 161.8 195.2 157.9 L193.7 161.1 190 159.55 M70 159.55 L70 154.25 Q74.4 149.25 87.8 150.1 95.4 154.4 101 163.3 83 165.7 70 159.55 M30 159.55 L30 154.25 Q35.4 148.1 54.35 150.8 59.9 154.7 61 163.3 43 165.7 30 159.55 M110 154.25 Q114.45 149.15 128.2 150.15 132.65 155.45 139.65 157.7 140.6 160.2 141 163.3 123 165.7 110 159.55 L110 154.25"/>
    <path stroke="none" fill="#95A5A6" d="M219.65 97.7 Q220.6 100.2 221 103.3 L205.85 103.75 Q199.6 101.8 195.2 97.9 L193.7 101.1 190 99.55 190 94.25 Q194.45 89.15 208.2 90.15 212.65 95.45 219.65 97.7 M181 103.3 Q171 104.65 162.55 103.35 L160.8 100.4 154.75 99.15 153.3 100.95 150 99.55 150 94.25 Q155.4 88.1 174.35 90.8 179.9 94.7 181 103.3 M139.65 97.7 Q140.6 100.2 141 103.3 123 105.7 110 99.55 L110 94.25 Q114.45 89.15 128.2 90.15 132.65 95.45 139.65 97.7 M87.8 90.1 Q95.4 94.4 101 103.3 83 105.7 70 99.55 L70 94.25 Q74.4 89.25 87.8 90.1 M30 94.25 Q35.4 88.1 54.35 90.8 59.9 94.7 61 103.3 43 105.7 30 99.55 L30 94.25"/>
    <path stroke="none" fill="#D4946B" d="M174.35 70.8 Q179.9 74.7 181 83.3 171 84.65 162.55 83.35 L160.8 80.4 154.75 79.15 153.3 80.95 150 79.55 150 74.25 Q155.4 68.1 174.35 70.8 M193.7 81.1 L190 79.55 190 74.25 Q194.45 69.15 208.2 70.15 212.65 75.45 219.65 77.7 220.6 80.2 221 83.3 L205.85 83.75 Q199.6 81.8 195.2 77.9 L193.7 81.1 M110 74.25 Q114.45 69.15 128.2 70.15 132.65 75.45 139.65 77.7 140.6 80.2 141 83.3 123 85.7 110 79.55 L110 74.25 M30 79.55 L30 74.25 Q35.4 68.1 54.35 70.8 59.9 74.7 61 83.3 43 85.7 30 79.55 M87.8 70.1 Q95.4 74.4 101 83.3 83 85.7 70 79.55 L70 74.25 Q74.4 69.25 87.8 70.1"/>
    <path stroke="none" fill="#D7BF94" d="M190 59.55 L190 54.25 Q194.45 49.15 208.2 50.15 212.65 55.45 219.65 57.7 220.6 60.2 221 63.3 L205.85 63.75 Q199.6 61.8 195.2 57.9 L193.7 61.1 190 59.55 M174.35 50.8 Q179.9 54.7 181 63.3 171 64.65 162.55 63.35 L160.8 60.4 154.75 59.15 153.3 60.95 150 59.55 150 54.25 Q155.4 48.1 174.35 50.8 M110 54.25 Q114.45 49.15 128.2 50.15 132.65 55.45 139.65 57.7 140.6 60.2 141 63.3 123 65.7 110 59.55 L110 54.25 M30 59.55 L30 54.25 Q35.4 48.1 54.35 50.8 59.9 54.7 61 63.3 43 65.7 30 59.55 M87.8 50.1 Q95.4 54.4 101 63.3 83 65.7 70 59.55 L70 54.25 Q74.4 49.25 87.8 50.1"/>
    <path stroke="none" fill="#5D6255" d="M219.65 37.7 Q220.6 40.2 221 43.3 L205.85 43.75 Q199.6 41.8 195.2 37.9 L193.7 41.1 190 39.55 190 34.25 Q194.45 29.15 208.2 30.15 212.65 35.45 219.65 37.7 M174.35 30.8 Q179.9 34.7 181 43.3 171 44.65 162.55 43.35 L160.8 40.4 154.75 39.15 153.3 40.95 150 39.55 150 34.25 Q155.4 28.1 174.35 30.8 M141 43.3 Q123 45.7 110 39.55 L110 34.25 Q114.45 29.15 128.2 30.15 132.65 35.45 139.65 37.7 140.6 40.2 141 43.3 M54.35 30.8 Q59.9 34.7 61 43.3 43 45.7 30 39.55 L30 34.25 Q35.4 28.1 54.35 30.8 M87.8 30.1 Q95.4 34.4 101 43.3 83 45.7 70 39.55 L70 34.25 Q74.4 29.25 87.8 30.1"/>
  </g>
</svg>