<svg xmlns="http://www.w3.org/2000/svg" xmlns:xlink="http://www.w3.org/1999/xlink">
  <defs/>
  <g>
    <path stroke="none" fill="#FFE0B1" d="M188 98.15 Q185.05 105.1 177.05 108.75 166.9 93.9 148.8 89.5 143.5 88.15 137.55 87.8 L137.5 87.75 Q128.35 76.15 133.2 63.8 156.9 67.2 173.1 80.9 181.55 88.1 188 98.15"/>
    <path stroke="none" fill="#FFE0B1" d="M40.3 31.15 Q49.9 55.65 50.9 82 L32 84.7 Q33.95 58.35 20.15 33.55 28.8 28 40.3 31.15"/>
    <path stroke="none" fill="#FFE0B1" d="M150.7 38.25 Q151.95 42.95 149.6 47.15 147.15 51.25 142.45 52.5 L139.6 53.05 139.6 53 Q137.65 52.6 135.8 50.85 132.9 48.05 131.65 43.35 130.4 38.7 131.5 34.9 132.25 32.4 133.75 31.25 L133.75 31.15 Q135 30.4 136.45 30 141.15 28.75 145.3 31.2 149.45 33.6 150.7 38.25"/>
    <path stroke="none" fill="#FFE0B1" d="M69.85 53.4 L69.75 52.45 69.55 48.1 69.55 47.7 Q69.65 39.4 76.65 33.45 83.8 27.45 93.9 27.45 104 27.45 111.1 33.45 118.1 39.4 118.25 47.7 L118.25 48.1 118 52.45 117.9 53.7 Q116.95 61.6 113.8 68.05 L111.1 72.65 Q104 83.2 93.9 83.2 83.8 83.2 76.65 72.65 75.1 70.4 73.9 67.95 70.7 61.4 69.85 53.4"/>
    <path stroke="none" fill="#F5D29D" d="M69.85 53.4 Q70.7 61.4 73.9 67.95 L72.2 68.1 Q69.1 68.1 66.85 65.85 64.75 63.75 64.7 60.8 L64.7 60.4 Q64.75 57.4 66.85 55.2 68.2 53.9 69.85 53.4 M117.9 53.7 L120 55.2 Q122.25 57.45 122.25 60.6 122.25 63.7 120 65.85 117.85 68.1 114.7 68.1 L113.8 68.05 Q116.95 61.6 117.9 53.7"/>
    <path stroke="none" fill="#F5D29D" d="M94.45 103.2 Q87.8 103.2 83.15 100 79.25 97.4 78.6 93.8 94 87.95 110.3 93.8 109.65 97.4 105.75 100 101.05 103.2 94.45 103.2"/>
    <path stroke="none" fill="#F5D29D" d="M212 84.7 Q213.95 58.35 200.15 33.55 208.8 28 220.3 31.15 229.9 55.65 230.9 82 L212 84.7"/>
    <path stroke="none" fill="#E7C38C" d="M290.3 93.8 Q289.65 97.4 285.75 100 281.05 103.2 274.45 103.2 267.8 103.2 263.15 100 259.25 97.4 258.6 93.8 274 87.95 290.3 93.8"/>
    <path stroke="none" fill="#F5D29D" d="M249.85 53.4 L249.75 52.45 249.55 48.1 249.55 47.7 Q249.65 39.4 256.65 33.45 263.8 27.45 273.9 27.45 284 27.45 291.1 33.45 298.1 39.4 298.25 47.7 L298.25 48.1 298 52.45 297.9 53.7 Q296.95 61.6 293.8 68.05 L291.1 72.65 Q284 83.2 273.9 83.2 263.8 83.2 256.65 72.65 255.1 70.4 253.9 67.95 250.7 61.4 249.85 53.4"/>
    <path stroke="none" fill="#E7C38C" d="M249.85 53.4 Q250.7 61.4 253.9 67.95 L252.2 68.1 Q249.1 68.1 246.85 65.85 244.75 63.75 244.7 60.8 L244.7 60.4 Q244.75 57.4 246.85 55.2 248.2 53.9 249.85 53.4 M297.9 53.7 L300 55.2 Q302.25 57.45 302.25 60.6 302.25 63.7 300 65.85 297.85 68.1 294.7 68.1 L293.8 68.05 Q296.95 61.6 297.9 53.7"/>
    <path stroke="none" fill="#F5D29D" d="M329.6 47.15 Q327.15 51.25 322.45 52.5 L319.6 53.05 319.6 53 Q317.65 52.6 315.8 50.85 312.9 48.05 311.65 43.35 310.4 38.7 311.5 34.9 312.25 32.4 313.75 31.25 L313.75 31.15 Q315 30.4 316.45 30 321.15 28.75 325.3 31.2 329.45 33.6 330.7 38.25 331.95 42.95 329.6 47.15"/>
    <path stroke="none" fill="#F5D29D" d="M368 98.15 Q365.05 105.1 357.05 108.75 346.9 93.9 328.8 89.5 323.5 88.15 317.55 87.8 L317.5 87.75 Q308.35 76.15 313.2 63.8 336.9 67.2 353.1 80.9 361.55 88.1 368 98.15"/>
    <path stroke="none" fill="#FFE9C9" d="M400.3 31.15 Q409.9 55.65 410.9 82 L392 84.7 Q393.95 58.35 380.15 33.55 388.8 28 400.3 31.15"/>
    <path stroke="none" fill="#FFE9C9" d="M429.85 53.4 L429.75 52.45 429.55 48.1 429.55 47.7 Q429.65 39.4 436.65 33.45 443.8 27.45 453.9 27.45 464 27.45 471.1 33.45 478.1 39.4 478.25 47.7 L478.25 48.1 478 52.45 477.9 53.7 Q476.95 61.6 473.8 68.05 L471.1 72.65 Q464 83.2 453.9 83.2 443.8 83.2 436.65 72.65 435.1 70.4 433.9 67.95 430.7 61.4 429.85 53.4"/>
    <path stroke="none" fill="#FFE0B1" d="M429.85 53.4 Q430.7 61.4 433.9 67.95 L432.2 68.1 Q429.1 68.1 426.85 65.85 424.75 63.75 424.7 60.8 L424.7 60.4 Q424.75 57.4 426.85 55.2 428.2 53.9 429.85 53.4 M477.9 53.7 L480 55.2 Q482.25 57.45 482.25 60.6 482.25 63.7 480 65.85 477.85 68.1 474.7 68.1 L473.8 68.05 Q476.95 61.6 477.9 53.7"/>
    <path stroke="none" fill="#FFE9C9" d="M491.5 34.9 Q492.25 32.4 493.75 31.25 L493.75 31.15 Q495 30.4 496.45 30 501.15 28.75 505.3 31.2 509.45 33.6 510.7 38.25 511.95 42.95 509.6 47.15 507.15 51.25 502.45 52.5 L499.6 53.05 499.6 53 Q497.65 52.6 495.8 50.85 492.9 48.05 491.65 43.35 490.4 38.7 491.5 34.9"/>
    <path stroke="none" fill="#FFE9C9" d="M497.55 87.8 L497.5 87.75 Q488.35 76.15 493.2 63.8 516.9 67.2 533.1 80.9 541.55 88.1 548 98.15 545.05 105.1 537.05 108.75 526.9 93.9 508.8 89.5 503.5 88.15 497.55 87.8"/>
    <path stroke="none" fill="#FFE0B1" d="M470.3 93.8 Q469.65 97.4 465.75 100 461.05 103.2 454.45 103.2 447.8 103.2 443.15 100 439.25 97.4 438.6 93.8 454 87.95 470.3 93.8"/>
    <path stroke="none" fill="#E0BC85" d="M572 84.7 Q573.95 58.35 560.15 33.55 568.8 28 580.3 31.15 589.9 55.65 590.9 82 L572 84.7"/>
    <path stroke="none" fill="#E0BC85" d="M609.85 53.4 L609.75 52.45 609.55 48.1 609.55 47.7 Q609.65 39.4 616.65 33.45 623.8 27.45 633.9 27.45 644 27.45 651.1 33.45 658.1 39.4 658.25 47.7 L658.25 48.1 658 52.45 657.9 53.7 Q656.95 61.6 653.8 68.05 L651.1 72.65 Q644 83.2 633.9 83.2 623.8 83.2 616.65 72.65 615.1 70.4 613.9 67.95 610.7 61.4 609.85 53.4"/>
    <path stroke="none" fill="#D2AC73" d="M609.85 53.4 Q610.7 61.4 613.9 67.95 L612.2 68.1 Q609.1 68.1 606.85 65.85 604.75 63.75 604.7 60.8 L604.7 60.4 Q604.75 57.4 606.85 55.2 608.2 53.9 609.85 53.4 M657.9 53.7 L660 55.2 Q662.25 57.45 662.25 60.6 662.25 63.7 660 65.85 657.85 68.1 654.7 68.1 L653.8 68.05 Q656.95 61.6 657.9 53.7"/>
    <path stroke="none" fill="#F5D29D" d="M623.15 100 Q619.25 97.4 618.6 93.8 634 87.95 650.3 93.8 649.65 97.4 645.75 100 641.05 103.2 634.45 103.2 627.8 103.2 623.15 100"/>
    <path stroke="none" fill="#E0BC85" d="M673.2 63.8 Q696.9 67.2 713.1 80.9 721.55 88.1 728 98.15 725.05 105.1 717.05 108.75 706.9 93.9 688.8 89.5 683.5 88.15 677.55 87.8 L677.5 87.75 Q668.35 76.15 673.2 63.8"/>
    <path stroke="none" fill="#E0BC85" d="M689.6 47.15 Q687.15 51.25 682.45 52.5 L679.6 53.05 679.6 53 Q677.65 52.6 675.8 50.85 672.9 48.05 671.65 43.35 670.4 38.7 671.5 34.9 672.25 32.4 673.75 31.25 L673.75 31.15 Q675 30.4 676.45 30 681.15 28.75 685.3 31.2 689.45 33.6 690.7 38.25 691.95 42.95 689.6 47.15"/>
    <path stroke="none" fill="#957544" d="M689.6 147.15 Q687.15 151.25 682.45 152.5 L679.6 153.05 679.6 153 Q677.65 152.6 675.8 150.85 672.9 148.05 671.65 143.35 670.4 138.7 671.5 134.9 672.25 132.4 673.75 131.25 L673.75 131.15 Q675 130.4 676.45 130 681.15 128.75 685.3 131.2 689.45 133.6 690.7 138.25 691.95 142.95 689.6 147.15"/>
    <path stroke="none" fill="#957544" d="M673.2 163.8 Q696.9 167.2 713.1 180.9 721.55 188.1 728 198.15 725.05 205.1 717.05 208.75 706.9 193.9 688.8 189.5 683.5 188.15 677.55 187.8 L677.5 187.75 Q668.35 176.15 673.2 163.8"/>
    <path stroke="none" fill="#957544" d="M613.9 167.95 Q610.7 161.4 609.85 153.4 L609.75 152.45 609.55 148.1 609.55 147.7 Q609.65 139.4 616.65 133.45 623.8 127.45 633.9 127.45 644 127.45 651.1 133.45 658.1 139.4 658.25 147.7 L658.25 148.1 658 152.45 657.9 153.7 Q656.95 161.6 653.8 168.05 L651.1 172.65 Q644 183.2 633.9 183.2 623.8 183.2 616.65 172.65 615.1 170.4 613.9 167.95"/>
    <path stroke="none" fill="#836538" d="M657.9 153.7 L660 155.2 Q662.25 157.45 662.25 160.6 662.25 163.7 660 165.85 657.85 168.1 654.7 168.1 L653.8 168.05 Q656.95 161.6 657.9 153.7 M613.9 167.95 L612.2 168.1 Q609.1 168.1 606.85 165.85 604.75 163.75 604.7 160.8 L604.7 160.4 Q604.75 157.4 606.85 155.2 608.2 153.9 609.85 153.4 610.7 161.4 613.9 167.95"/>
    <path stroke="none" fill="#836538" d="M634.45 203.2 Q627.8 203.2 623.15 200 619.25 197.4 618.6 193.8 634 187.95 650.3 193.8 649.65 197.4 645.75 200 641.05 203.2 634.45 203.2"/>
    <path stroke="none" fill="#957544" d="M572 184.7 Q573.95 158.35 560.15 133.55 568.8 128 580.3 131.15 589.9 155.65 590.9 182 L572 184.7"/>
    <path stroke="none" fill="#AA8956" d="M497.5 187.75 Q488.35 176.15 493.2 163.8 516.9 167.2 533.1 180.9 541.55 188.1 548 198.15 545.05 205.1 537.05 208.75 526.9 193.9 508.8 189.5 503.5 188.15 497.55 187.8 L497.5 187.75"/>
    <path stroke="none" fill="#AA8956" d="M493.75 131.25 L493.75 131.15 Q495 130.4 496.45 130 501.15 128.75 505.3 131.2 509.45 133.6 510.7 138.25 511.95 142.95 509.6 147.15 507.15 151.25 502.45 152.5 L499.6 153.05 499.6 153 Q497.65 152.6 495.8 150.85 492.9 148.05 491.65 143.35 490.4 138.7 491.5 134.9 492.25 132.4 493.75 131.25"/>
    <path stroke="none" fill="#AA8956" d="M429.85 153.4 L429.75 152.45 429.55 148.1 429.55 147.7 Q429.65 139.4 436.65 133.45 443.8 127.45 453.9 127.45 464 127.45 471.1 133.45 478.1 139.4 478.25 147.7 L478.25 148.1 478 152.45 477.9 153.7 Q476.95 161.6 473.8 168.05 L471.1 172.65 Q464 183.2 453.9 183.2 443.8 183.2 436.65 172.65 435.1 170.4 433.9 167.95 430.7 161.4 429.85 153.4"/>
    <path stroke="none" fill="#957544" d="M429.85 153.4 Q430.7 161.4 433.9 167.95 L432.2 168.1 Q429.1 168.1 426.85 165.85 424.75 163.75 424.7 160.8 L424.7 160.4 Q424.75 157.4 426.85 155.2 428.2 153.9 429.85 153.4 M477.9 153.7 L480 155.2 Q482.25 157.45 482.25 160.6 482.25 163.7 480 165.85 477.85 168.1 474.7 168.1 L473.8 168.05 Q476.95 161.6 477.9 153.7"/>
    <path stroke="none" fill="#957544" d="M470.3 193.8 Q469.65 197.4 465.75 200 461.05 203.2 454.45 203.2 447.8 203.2 443.15 200 439.25 197.4 438.6 193.8 454 187.95 470.3 193.8"/>
    <path stroke="none" fill="#AA8956" d="M400.3 131.15 Q409.9 155.65 410.9 182 L392 184.7 Q393.95 158.35 380.15 133.55 388.8 128 400.3 131.15"/>
    <path stroke="none" fill="#BF9C66" d="M357.05 208.75 Q346.9 193.9 328.8 189.5 323.5 188.15 317.55 187.8 L317.5 187.75 Q308.35 176.15 313.2 163.8 336.9 167.2 353.1 180.9 361.55 188.1 368 198.15 365.05 205.1 357.05 208.75"/>
    <path stroke="none" fill="#BF9C66" d="M330.7 138.25 Q331.95 142.95 329.6 147.15 327.15 151.25 322.45 152.5 L319.6 153.05 319.6 153 Q317.65 152.6 315.8 150.85 312.9 148.05 311.65 143.35 310.4 138.7 311.5 134.9 312.25 132.4 313.75 131.25 L313.75 131.15 Q315 130.4 316.45 130 321.15 128.75 325.3 131.2 329.45 133.6 330.7 138.25"/>
    <path stroke="none" fill="#BF9C66" d="M212 184.7 Q213.95 158.35 200.15 133.55 208.8 128 220.3 131.15 229.9 155.65 230.9 182 L212 184.7"/>
    <path stroke="none" fill="#BF9C66" d="M249.85 153.4 L249.75 152.45 249.55 148.1 249.55 147.7 Q249.65 139.4 256.65 133.45 263.8 127.45 273.9 127.45 284 127.45 291.1 133.45 298.1 139.4 298.25 147.7 L298.25 148.1 298 152.45 297.9 153.7 Q296.95 161.6 293.8 168.05 L291.1 172.65 Q284 183.2 273.9 183.2 263.8 183.2 256.65 172.65 255.1 170.4 253.9 167.95 250.7 161.4 249.85 153.4"/>
    <path stroke="none" fill="#AA8956" d="M249.85 153.4 Q250.7 161.4 253.9 167.95 L252.2 168.1 Q249.1 168.1 246.85 165.85 244.75 163.75 244.7 160.8 L244.7 160.4 Q244.75 157.4 246.85 155.2 248.2 153.9 249.85 153.4 M297.9 153.7 L300 155.2 Q302.25 157.45 302.25 160.6 302.25 163.7 300 165.85 297.85 168.1 294.7 168.1 L293.8 168.05 Q296.95 161.6 297.9 153.7"/>
    <path stroke="none" fill="#AA8956" d="M290.3 193.8 Q289.65 197.4 285.75 200 281.05 203.2 274.45 203.2 267.8 203.2 263.15 200 259.25 197.4 258.6 193.8 274 187.95 290.3 193.8"/>
    <path stroke="none" fill="#D2AC73" d="M137.55 187.8 L137.5 187.75 Q128.35 176.15 133.2 163.8 156.9 167.2 173.1 180.9 181.55 188.1 188 198.15 185.05 205.1 177.05 208.75 166.9 193.9 148.8 189.5 143.5 188.15 137.55 187.8"/>
    <path stroke="none" fill="#D2AC73" d="M131.5 134.9 Q132.25 132.4 133.75 131.25 L133.75 131.15 Q135 130.4 136.45 130 141.15 128.75 145.3 131.2 149.45 133.6 150.7 138.25 151.95 142.95 149.6 147.15 147.15 151.25 142.45 152.5 L139.6 153.05 139.6 153 Q137.65 152.6 135.8 150.85 132.9 148.05 131.65 143.35 130.4 138.7 131.5 134.9"/>
    <path stroke="none" fill="#D2AC73" d="M69.85 153.4 L69.75 152.45 69.55 148.1 69.55 147.7 Q69.65 139.4 76.65 133.45 83.8 127.45 93.9 127.45 104 127.45 111.1 133.45 118.1 139.4 118.25 147.7 L118.25 148.1 118 152.45 117.9 153.7 Q116.95 161.6 113.8 168.05 L111.1 172.65 Q104 183.2 93.9 183.2 83.8 183.2 76.65 172.65 75.1 170.4 73.9 167.95 70.7 161.4 69.85 153.4"/>
    <path stroke="none" fill="#BF9C66" d="M69.85 153.4 Q70.7 161.4 73.9 167.95 L72.2 168.1 Q69.1 168.1 66.85 165.85 64.75 163.75 64.7 160.8 L64.7 160.4 Q64.75 157.4 66.85 155.2 68.2 153.9 69.85 153.4 M117.9 153.7 L120 155.2 Q122.25 157.45 122.25 160.6 122.25 163.7 120 165.85 117.85 168.1 114.7 168.1 L113.8 168.05 Q116.95 161.6 117.9 153.7"/>
    <path stroke="none" fill="#BF9C66" d="M110.3 193.8 Q109.65 197.4 105.75 200 101.05 203.2 94.45 203.2 87.8 203.2 83.15 200 79.25 197.4 78.6 193.8 94 187.95 110.3 193.8"/>
    <path stroke="none" fill="#D2AC73" d="M40.3 131.15 Q49.9 155.65 50.9 182 L32 184.7 Q33.95 158.35 20.15 133.55 28.8 128 40.3 131.15"/>
  </g>
</svg>