<svg xmlns="http://www.w3.org/2000/svg" xmlns:xlink="http://www.w3.org/1999/xlink">
  <defs/>
  <g>
    <path stroke="none" fill="#D4946B" d="M879.7 42.5 Q883.55 50.15 882.3 58.6 881.15 64.35 879.05 69.5 L876.55 68 Q878.3 60.8 875.3 54.45 862.7 57.9 849.15 43.9 845.1 44.65 841.4 46.1 836.15 48.2 835.55 53.95 L834.65 62.75 831.8 64.6 Q830.9 61.7 830.3 58.6 829.05 50.15 832.9 42.5 838.95 30.45 856.3 30 873.65 30.45 879.7 42.5 M841.75 80.35 L844.7 80.35 848.65 73.75 854.45 77.7 856.75 76.45 Q857.3 79.9 860.05 80.25 874.35 81.8 879.7 92.5 883.55 100.15 882.3 108.6 881.15 114.35 879.05 119.5 L875.05 117 876.05 112 874.8 111 875.3 104.1 Q876.3 98.9 872.35 96.65 L872.55 99.85 865.45 95.35 864 96.55 859.55 93.3 856.3 93.05 Q848.25 93.4 841.4 96.1 836.15 98.2 837.3 104.1 L837.8 111 836.55 112 837.55 117 833.55 119.5 Q831.45 114.35 830.3 108.6 829.05 100.15 832.9 92.5 835.5 87.3 840.2 84.3 842 82.85 841.75 80.35 M859.85 124.25 L861.4 126 865.65 125.3 Q870.65 126.7 874.2 129.6 L877.05 136.1 879.7 136.5 Q883.55 144.15 882.3 152.6 881.15 158.35 879.05 163.5 L875.05 161 876.05 156 874.8 155 875.3 148.1 Q876.45 142.2 871.2 140.1 864.35 137.4 856.3 137.05 848.25 137.4 841.4 140.1 836.15 142.2 837.3 148.1 L837.8 155 836.55 156 837.55 161 833.55 163.5 Q831.45 158.35 830.3 152.6 829.05 144.15 832.9 136.5 834.2 133.95 836 131.9 L844.05 128.85 845.25 125.85 Q850.05 124.15 856.3 124 L859.85 124.25 M837.3 196.1 L837.8 203 836.55 204 837.55 209 833.55 211.5 Q831.45 206.35 830.3 200.6 829.05 192.15 832.9 184.5 838.95 172.45 856.3 172 863 172.15 868.05 174.1 L868.8 177.1 872.6 176.4 Q877.15 179.4 879.7 184.5 883.55 192.15 882.3 200.6 881.15 206.35 879.05 211.5 L875.05 209 876.05 204 874.8 203 875.3 196.1 Q876.45 190.2 871.2 188.1 864.35 185.4 856.3 185.05 848.25 185.4 841.4 188.1 836.15 190.2 837.3 196.1 M809.7 42.5 Q813.55 50.15 812.3 58.6 811.15 64.35 809.05 69.5 L806.55 68 Q808.3 60.8 805.3 54.45 792.7 57.9 779.15 43.9 775.1 44.65 771.4 46.1 766.15 48.2 765.55 53.95 L764.65 62.75 761.8 64.6 Q760.9 61.7 760.3 58.6 759.05 50.15 762.9 42.5 768.95 30.45 786.3 30 803.65 30.45 809.7 42.5 M739.05 69.5 L736.55 68 Q738.3 60.8 735.3 54.45 722.7 57.9 709.15 43.9 705.1 44.65 701.4 46.1 696.15 48.2 695.55 53.95 L694.65 62.75 691.8 64.6 Q690.9 61.7 690.3 58.6 689.05 50.15 692.9 42.5 698.95 30.45 716.3 30 733.65 30.45 739.7 42.5 743.55 50.15 742.3 58.6 741.15 64.35 739.05 69.5 M806.3 74.75 Q815 91.6 812.85 105.5 802.65 104.1 794.45 98.35 798.05 93.55 797.95 85.45 803.05 81.55 806.3 74.75 M707.4 87.95 Q707.25 101.45 702.8 108.6 L692.55 124.85 Q691.15 101.4 693.8 69.1 697.8 82.5 707.4 87.95 M716.3 129.8 Q733.65 130.25 739.7 142.3 743.55 149.95 742.3 158.4 741.15 164.15 739.05 169.3 L736.55 167.8 Q738.3 160.6 735.3 154.25 722.7 157.7 709.15 143.7 705.1 144.45 701.4 145.9 696.15 148 695.55 153.75 L694.65 162.55 691.8 164.4 Q690.9 161.5 690.3 158.4 689.05 149.95 692.9 142.3 698.95 130.25 716.3 129.8 M707.4 187.95 Q707.25 201.45 702.8 208.6 L692.55 224.85 Q691.15 201.4 693.8 169.1 697.8 182.5 707.4 187.95 M809.7 142.5 Q813.55 150.15 812.3 158.6 811.15 164.35 809.05 169.5 L806.55 168 Q808.3 160.8 805.3 154.45 792.7 157.9 779.15 143.9 775.1 144.65 771.4 146.1 766.15 148.2 765.55 153.95 L764.65 162.75 761.8 164.6 Q760.9 161.7 760.3 158.6 759.05 150.15 762.9 142.5 768.95 130.45 786.3 130 803.65 130.45 809.7 142.5 M806.3 174.75 Q815 191.6 812.85 205.5 802.65 204.1 794.45 198.35 798.05 193.55 797.95 185.45 803.05 181.55 806.3 174.75 M724.6 187.95 Q734.2 182.5 738.2 169.1 740.85 201.4 739.45 224.85 L729.2 208.6 Q724.75 201.45 724.6 187.95 M765.4 174.75 Q768.65 181.55 773.75 185.45 773.65 193.55 777.25 198.35 769.05 204.1 758.85 205.5 756.7 191.6 765.4 174.75 M809.7 242.5 Q813.55 250.15 812.3 258.6 811.15 264.35 809.05 269.5 L806.55 268 Q808.3 260.8 805.3 254.45 792.7 257.9 779.15 243.9 775.1 244.65 771.4 246.1 766.15 248.2 765.55 253.95 L764.65 262.75 761.8 264.6 Q760.9 261.7 760.3 258.6 759.05 250.15 762.9 242.5 768.95 230.45 786.3 230 803.65 230.45 809.7 242.5 M769.4 280.9 Q770.5 289.55 775 299.4 767.2 302 758.7 299.75 756.25 287.6 765.8 275 L769.4 280.9 M771.4 336.1 Q766.15 338.2 765.55 343.95 L764.65 352.75 761.8 354.6 Q760.9 351.7 760.3 348.6 759.05 340.15 762.9 332.5 768.95 320.45 786.3 320 803.65 320.45 809.7 332.5 813.55 340.15 812.3 348.6 811.15 354.35 809.05 359.5 L806.55 358 Q808.3 350.8 805.3 344.45 792.7 347.9 779.15 333.9 775.1 334.65 771.4 336.1 M765.8 365 L769.4 370.9 Q770.5 379.55 775 389.4 767.2 392 758.7 389.75 756.25 377.6 765.8 365 M802.8 370.9 L806.4 365 Q815.95 377.6 813.5 389.75 805 392 797.2 389.4 801.7 379.55 802.8 370.9 M882.55 225.35 L882.3 227.6 Q881.15 233.35 879.05 238.5 L875.05 236 876.05 231 874.8 230 875.3 223.1 882.55 225.35 M836.55 231 L837.55 236 833.55 238.5 Q831.45 233.35 830.3 227.6 L830.05 225.35 837.3 223.1 837.8 230 836.55 231 M833.55 290.5 Q831.45 285.35 830.3 279.6 829.95 277.25 830 274.95 830.25 249.65 855.65 247.25 L854.6 251.1 854.85 251.05 Q862 246.15 872.9 248.25 L869.75 253.8 Q878.3 250.55 886.8 257.35 L878.6 261.5 Q883.65 262.45 884.9 268.6 L881.75 268.8 Q883.1 274.05 882.3 279.6 881.15 285.35 879.05 290.5 L875.05 288 876.05 283 874.8 282 875.3 275.1 Q876.45 269.2 871.2 267.1 864.35 264.4 856.3 264.05 848.25 264.4 841.4 267.1 836.15 269.2 837.3 275.1 L837.8 282 836.55 283 837.55 288 833.55 290.5 M875.05 338 L876.05 333 874.8 332 875.3 325.1 Q876.45 319.2 871.2 317.1 864.75 314.55 857.2 314.1 850.85 325.45 837.15 324.05 L837.3 325.1 837.8 332 836.55 333 837.55 338 833.55 340.5 Q831.45 335.35 830.3 329.6 829.05 321.15 832.9 313.5 838.95 301.45 856.3 301 873.65 301.45 879.7 313.5 883.55 321.15 882.3 329.6 881.15 335.35 879.05 340.5 L875.05 338 M833.55 390.5 Q831.45 385.35 830.3 379.6 829.05 371.15 832.9 363.5 838.95 351.45 856.3 351 873.65 351.45 879.7 363.5 883.55 371.15 882.3 379.6 881.15 385.35 879.05 390.5 L875.05 388 876.05 383 874.8 382 875.3 375.1 Q876.45 369.2 871.2 367.1 864.35 364.4 856.3 364.05 848.25 364.4 841.4 367.1 836.15 369.2 837.3 375.1 L837.8 382 836.55 383 837.55 388 833.55 390.5"/>
    <path stroke="none" fill="#D7BF94" d="M659.05 69.5 L656.55 68 Q658.3 60.8 655.3 54.45 642.7 57.9 629.15 43.9 625.1 44.65 621.4 46.1 616.15 48.2 615.55 53.95 L614.65 62.75 611.8 64.6 Q610.9 61.7 610.3 58.6 609.05 50.15 612.9 42.5 618.95 30.45 636.3 30 653.65 30.45 659.7 42.5 663.55 50.15 662.3 58.6 661.15 64.35 659.05 69.5 M654.8 111 L655.3 104.1 Q656.3 98.9 652.35 96.65 L652.55 99.85 645.45 95.35 644 96.55 639.55 93.3 636.3 93.05 Q628.25 93.4 621.4 96.1 616.15 98.2 617.3 104.1 L617.8 111 616.55 112 617.55 117 613.55 119.5 Q611.45 114.35 610.3 108.6 609.05 100.15 612.9 92.5 615.5 87.3 620.2 84.3 622 82.85 621.75 80.35 L624.7 80.35 628.65 73.75 634.45 77.7 636.75 76.45 Q637.3 79.9 640.05 80.25 654.35 81.8 659.7 92.5 663.55 100.15 662.3 108.6 661.15 114.35 659.05 119.5 L655.05 117 656.05 112 654.8 111 M657.05 136.1 L659.7 136.5 Q663.55 144.15 662.3 152.6 661.15 158.35 659.05 163.5 L655.05 161 656.05 156 654.8 155 655.3 148.1 Q656.45 142.2 651.2 140.1 644.35 137.4 636.3 137.05 628.25 137.4 621.4 140.1 616.15 142.2 617.3 148.1 L617.8 155 616.55 156 617.55 161 613.55 163.5 Q611.45 158.35 610.3 152.6 609.05 144.15 612.9 136.5 614.2 133.95 616 131.9 L624.05 128.85 625.25 125.85 Q630.05 124.15 636.3 124 L639.85 124.25 641.4 126 645.65 125.3 Q650.65 126.7 654.2 129.6 L657.05 136.1 M651.2 188.1 Q644.35 185.4 636.3 185.05 628.25 185.4 621.4 188.1 616.15 190.2 617.3 196.1 L617.8 203 616.55 204 617.55 209 613.55 211.5 Q611.45 206.35 610.3 200.6 609.05 192.15 612.9 184.5 618.95 172.45 636.3 172 643 172.15 648.05 174.1 L648.8 177.1 652.6 176.4 Q657.15 179.4 659.7 184.5 663.55 192.15 662.3 200.6 661.15 206.35 659.05 211.5 L655.05 209 656.05 204 654.8 203 655.3 196.1 Q656.45 190.2 651.2 188.1 M655.3 223.1 L662.55 225.35 662.3 227.6 Q661.15 233.35 659.05 238.5 L655.05 236 656.05 231 654.8 230 655.3 223.1 M649.75 253.8 Q658.3 250.55 666.8 257.35 L658.6 261.5 Q663.65 262.45 664.9 268.6 L661.75 268.8 Q663.1 274.05 662.3 279.6 661.15 285.35 659.05 290.5 L655.05 288 656.05 283 654.8 282 655.3 275.1 Q656.45 269.2 651.2 267.1 644.35 264.4 636.3 264.05 628.25 264.4 621.4 267.1 616.15 269.2 617.3 275.1 L617.8 282 616.55 283 617.55 288 613.55 290.5 Q611.45 285.35 610.3 279.6 609.95 277.25 610 274.95 610.25 249.65 635.65 247.25 L634.6 251.1 634.85 251.05 Q642 246.15 652.9 248.25 L649.75 253.8 M659.05 340.5 L655.05 338 656.05 333 654.8 332 655.3 325.1 Q656.45 319.2 651.2 317.1 644.75 314.55 637.2 314.1 630.85 325.45 617.15 324.05 L617.3 325.1 617.8 332 616.55 333 617.55 338 613.55 340.5 Q611.45 335.35 610.3 329.6 609.05 321.15 612.9 313.5 618.95 301.45 636.3 301 653.65 301.45 659.7 313.5 663.55 321.15 662.3 329.6 661.15 335.35 659.05 340.5 M654.8 382 L655.3 375.1 Q656.45 369.2 651.2 367.1 644.35 364.4 636.3 364.05 628.25 364.4 621.4 367.1 616.15 369.2 617.3 375.1 L617.8 382 616.55 383 617.55 388 613.55 390.5 Q611.45 385.35 610.3 379.6 609.05 371.15 612.9 363.5 618.95 351.45 636.3 351 653.65 351.45 659.7 363.5 663.55 371.15 662.3 379.6 661.15 385.35 659.05 390.5 L655.05 388 656.05 383 654.8 382 M586.3 74.75 Q595 91.6 592.85 105.5 582.65 104.1 574.45 98.35 578.05 93.55 577.95 85.45 583.05 81.55 586.3 74.75 M589.05 69.5 L586.55 68 Q588.3 60.8 585.3 54.45 572.7 57.9 559.15 43.9 555.1 44.65 551.4 46.1 546.15 48.2 545.55 53.95 L544.65 62.75 541.8 64.6 Q540.9 61.7 540.3 58.6 539.05 50.15 542.9 42.5 548.95 30.45 566.3 30 583.65 30.45 589.7 42.5 593.55 50.15 592.3 58.6 591.15 64.35 589.05 69.5 M519.7 42.5 Q523.55 50.15 522.3 58.6 521.15 64.35 519.05 69.5 L516.55 68 Q518.3 60.8 515.3 54.45 502.7 57.9 489.15 43.9 485.1 44.65 481.4 46.1 476.15 48.2 475.55 53.95 L474.65 62.75 471.8 64.6 Q470.9 61.7 470.3 58.6 469.05 50.15 472.9 42.5 478.95 30.45 496.3 30 513.65 30.45 519.7 42.5 M566.3 130 Q583.65 130.45 589.7 142.5 593.55 150.15 592.3 158.6 591.15 164.35 589.05 169.5 L586.55 168 Q588.3 160.8 585.3 154.45 572.7 157.9 559.15 143.9 555.1 144.65 551.4 146.1 546.15 148.2 545.55 153.95 L544.65 162.75 541.8 164.6 Q540.9 161.7 540.3 158.6 539.05 150.15 542.9 142.5 548.95 130.45 566.3 130 M519.7 142.3 Q523.55 149.95 522.3 158.4 521.15 164.15 519.05 169.3 L516.55 167.8 Q518.3 160.6 515.3 154.25 502.7 157.7 489.15 143.7 485.1 144.45 481.4 145.9 476.15 148 475.55 153.75 L474.65 162.55 471.8 164.4 Q470.9 161.5 470.3 158.4 469.05 149.95 472.9 142.3 478.95 130.25 496.3 129.8 513.65 130.25 519.7 142.3 M545.4 174.75 Q548.65 181.55 553.75 185.45 553.65 193.55 557.25 198.35 549.05 204.1 538.85 205.5 536.7 191.6 545.4 174.75 M504.6 187.95 Q514.2 182.5 518.2 169.1 520.85 201.4 519.45 224.85 L509.2 208.6 Q504.75 201.45 504.6 187.95 M586.3 174.75 Q595 191.6 592.85 205.5 582.65 204.1 574.45 198.35 578.05 193.55 577.95 185.45 583.05 181.55 586.3 174.75 M472.55 124.85 Q471.15 101.4 473.8 69.1 477.8 82.5 487.4 87.95 487.25 101.45 482.8 108.6 L472.55 124.85 M472.55 224.85 Q471.15 201.4 473.8 169.1 477.8 182.5 487.4 187.95 487.25 201.45 482.8 208.6 L472.55 224.85 M610.05 225.35 L617.3 223.1 617.8 230 616.55 231 617.55 236 613.55 238.5 Q611.45 233.35 610.3 227.6 L610.05 225.35 M585.3 254.45 Q572.7 257.9 559.15 243.9 555.1 244.65 551.4 246.1 546.15 248.2 545.55 253.95 L544.65 262.75 541.8 264.6 Q540.9 261.7 540.3 258.6 539.05 250.15 542.9 242.5 548.95 230.45 566.3 230 583.65 230.45 589.7 242.5 593.55 250.15 592.3 258.6 591.15 264.35 589.05 269.5 L586.55 268 Q588.3 260.8 585.3 254.45 M549.4 280.9 Q550.5 289.55 555 299.4 547.2 302 538.7 299.75 536.25 287.6 545.8 275 L549.4 280.9 M551.4 336.1 Q546.15 338.2 545.55 343.95 L544.65 352.75 541.8 354.6 Q540.9 351.7 540.3 348.6 539.05 340.15 542.9 332.5 548.95 320.45 566.3 320 583.65 320.45 589.7 332.5 593.55 340.15 592.3 348.6 591.15 354.35 589.05 359.5 L586.55 358 Q588.3 350.8 585.3 344.45 572.7 347.9 559.15 333.9 555.1 334.65 551.4 336.1 M545.8 365 L549.4 370.9 Q550.5 379.55 555 389.4 547.2 392 538.7 389.75 536.25 377.6 545.8 365 M582.8 370.9 L586.4 365 Q595.95 377.6 593.5 389.75 585 392 577.2 389.4 581.7 379.55 582.8 370.9"/>
    <path stroke="none" fill="#D4CBB9" d="M439.7 42.5 Q443.55 50.15 442.3 58.6 441.15 64.35 439.05 69.5 L436.55 68 Q438.3 60.8 435.3 54.45 422.7 57.9 409.15 43.9 405.1 44.65 401.4 46.1 396.15 48.2 395.55 53.95 L394.65 62.75 391.8 64.6 Q390.9 61.7 390.3 58.6 389.05 50.15 392.9 42.5 398.95 30.45 416.3 30 433.65 30.45 439.7 42.5 M416.75 76.45 Q417.3 79.9 420.05 80.25 434.35 81.8 439.7 92.5 443.55 100.15 442.3 108.6 441.15 114.35 439.05 119.5 L435.05 117 436.05 112 434.8 111 435.3 104.1 Q436.3 98.9 432.35 96.65 L432.55 99.85 425.45 95.35 424 96.55 419.55 93.3 416.3 93.05 Q408.25 93.4 401.4 96.1 396.15 98.2 397.3 104.1 L397.8 111 396.55 112 397.55 117 393.55 119.5 Q391.45 114.35 390.3 108.6 389.05 100.15 392.9 92.5 395.5 87.3 400.2 84.3 402 82.85 401.75 80.35 L404.7 80.35 408.65 73.75 414.45 77.7 416.75 76.45 M331.4 46.1 Q326.15 48.2 325.55 53.95 L324.65 62.75 321.8 64.6 Q320.9 61.7 320.3 58.6 319.05 50.15 322.9 42.5 328.95 30.45 346.3 30 363.65 30.45 369.7 42.5 373.55 50.15 372.3 58.6 371.15 64.35 369.05 69.5 L366.55 68 Q368.3 60.8 365.3 54.45 352.7 57.9 339.15 43.9 335.1 44.65 331.4 46.1 M357.95 85.45 Q363.05 81.55 366.3 74.75 375 91.6 372.85 105.5 362.65 104.1 354.45 98.35 358.05 93.55 357.95 85.45 M404.05 128.85 L405.25 125.85 Q410.05 124.15 416.3 124 L419.85 124.25 421.4 126 425.65 125.3 Q430.65 126.7 434.2 129.6 L437.05 136.1 439.7 136.5 Q443.55 144.15 442.3 152.6 441.15 158.35 439.05 163.5 L435.05 161 436.05 156 434.8 155 435.3 148.1 Q436.45 142.2 431.2 140.1 424.35 137.4 416.3 137.05 408.25 137.4 401.4 140.1 396.15 142.2 397.3 148.1 L397.8 155 396.55 156 397.55 161 393.55 163.5 Q391.45 158.35 390.3 152.6 389.05 144.15 392.9 136.5 394.2 133.95 396 131.9 L404.05 128.85 M331.4 146.1 Q326.15 148.2 325.55 153.95 L324.65 162.75 321.8 164.6 Q320.9 161.7 320.3 158.6 319.05 150.15 322.9 142.5 328.95 130.45 346.3 130 363.65 130.45 369.7 142.5 373.55 150.15 372.3 158.6 371.15 164.35 369.05 169.5 L366.55 168 Q368.3 160.8 365.3 154.45 352.7 157.9 339.15 143.9 335.1 144.65 331.4 146.1 M325.4 174.75 Q328.65 181.55 333.75 185.45 333.65 193.55 337.25 198.35 329.05 204.1 318.85 205.5 316.7 191.6 325.4 174.75 M397.3 196.1 L397.8 203 396.55 204 397.55 209 393.55 211.5 Q391.45 206.35 390.3 200.6 389.05 192.15 392.9 184.5 398.95 172.45 416.3 172 423 172.15 428.05 174.1 L428.8 177.1 432.6 176.4 Q437.15 179.4 439.7 184.5 443.55 192.15 442.3 200.6 441.15 206.35 439.05 211.5 L435.05 209 436.05 204 434.8 203 435.3 196.1 Q436.45 190.2 431.2 188.1 424.35 185.4 416.3 185.05 408.25 185.4 401.4 188.1 396.15 190.2 397.3 196.1 M366.3 174.75 Q375 191.6 372.85 205.5 362.65 204.1 354.45 198.35 358.05 193.55 357.95 185.45 363.05 181.55 366.3 174.75 M442.3 227.6 Q441.15 233.35 439.05 238.5 L435.05 236 436.05 231 434.8 230 435.3 223.1 442.55 225.35 442.3 227.6 M429.75 253.8 Q438.3 250.55 446.8 257.35 442.7 259.45 438.6 261.5 443.65 262.45 444.9 268.6 L441.75 268.8 Q443.1 274.05 442.3 279.6 441.15 285.35 439.05 290.5 L435.05 288 436.05 283 434.8 282 435.3 275.1 Q436.45 269.2 431.2 267.1 424.35 264.4 416.3 264.05 408.25 264.4 401.4 267.1 396.15 269.2 397.3 275.1 L397.8 282 396.55 283 397.55 288 393.55 290.5 Q391.45 285.35 390.3 279.6 389.95 277.25 390 274.95 390.25 249.65 415.65 247.25 L414.6 251.1 414.85 251.05 Q422 246.15 432.9 248.25 L429.75 253.8 M397.8 230 L396.55 231 397.55 236 393.55 238.5 Q391.45 233.35 390.3 227.6 L390.05 225.35 397.3 223.1 397.8 230 M331.4 246.1 Q326.15 248.2 325.55 253.95 L324.65 262.75 321.8 264.6 Q320.9 261.7 320.3 258.6 319.05 250.15 322.9 242.5 328.95 230.45 346.3 230 363.65 230.45 369.7 242.5 373.55 250.15 372.3 258.6 371.15 264.35 369.05 269.5 L366.55 268 Q368.3 260.8 365.3 254.45 352.7 257.9 339.15 243.9 335.1 244.65 331.4 246.1 M329.4 280.9 Q330.5 289.55 335 299.4 327.2 302 318.7 299.75 316.25 287.6 325.8 275 L329.4 280.9 M397.8 332 L396.55 333 397.55 338 393.55 340.5 Q391.45 335.35 390.3 329.6 389.05 321.15 392.9 313.5 398.95 301.45 416.3 301 433.65 301.45 439.7 313.5 443.55 321.15 442.3 329.6 441.15 335.35 439.05 340.5 L435.05 338 436.05 333 434.8 332 435.3 325.1 Q436.45 319.2 431.2 317.1 424.75 314.55 417.2 314.1 410.85 325.45 397.15 324.05 L397.3 325.1 397.8 332 M325.55 343.95 L324.65 352.75 321.8 354.6 Q320.9 351.7 320.3 348.6 319.05 340.15 322.9 332.5 328.95 320.45 346.3 320 363.65 320.45 369.7 332.5 373.55 340.15 372.3 348.6 371.15 354.35 369.05 359.5 L366.55 358 Q368.3 350.8 365.3 344.45 352.7 347.9 339.15 333.9 335.1 334.65 331.4 336.1 326.15 338.2 325.55 343.95 M335 389.4 Q327.2 392 318.7 389.75 316.25 377.6 325.8 365 L329.4 370.9 Q330.5 379.55 335 389.4 M357.2 389.4 Q361.7 379.55 362.8 370.9 L366.4 365 Q375.95 377.6 373.5 389.75 365 392 357.2 389.4 M397.8 382 L396.55 383 397.55 388 393.55 390.5 Q391.45 385.35 390.3 379.6 389.05 371.15 392.9 363.5 398.95 351.45 416.3 351 433.65 351.45 439.7 363.5 443.55 371.15 442.3 379.6 441.15 385.35 439.05 390.5 L435.05 388 436.05 383 434.8 382 435.3 375.1 Q436.45 369.2 431.2 367.1 424.35 364.4 416.3 364.05 408.25 364.4 401.4 367.1 396.15 369.2 397.3 375.1 L397.8 382 M276.3 30 Q293.65 30.45 299.7 42.5 303.55 50.15 302.3 58.6 301.15 64.35 299.05 69.5 L296.55 68 Q298.3 60.8 295.3 54.45 282.7 57.9 269.15 43.9 265.1 44.65 261.4 46.1 256.15 48.2 255.55 53.95 L254.65 62.75 251.8 64.6 Q250.9 61.7 250.3 58.6 249.05 50.15 252.9 42.5 258.95 30.45 276.3 30 M267.4 87.95 Q267.25 101.45 262.8 108.6 L252.55 124.85 Q251.15 101.4 253.8 69.1 257.8 82.5 267.4 87.95 M276.3 129.8 Q293.65 130.25 299.7 142.3 303.55 149.95 302.3 158.4 301.15 164.15 299.05 169.3 L296.55 167.8 Q298.3 160.6 295.3 154.25 282.7 157.7 269.15 143.7 265.1 144.45 261.4 145.9 256.15 148 255.55 153.75 L254.65 162.55 251.8 164.4 Q250.9 161.5 250.3 158.4 249.05 149.95 252.9 142.3 258.95 130.25 276.3 129.8 M267.4 187.95 Q267.25 201.45 262.8 208.6 L252.55 224.85 Q251.15 201.4 253.8 169.1 257.8 182.5 267.4 187.95 M284.6 187.95 Q294.2 182.5 298.2 169.1 300.85 201.4 299.45 224.85 L289.2 208.6 Q284.75 201.45 284.6 187.95"/>
    <path stroke="none" fill="#3C3C3C" d="M196.3 30 Q213.65 30.45 219.7 42.5 223.55 50.15 222.3 58.6 221.15 64.35 219.05 69.5 L216.55 68 Q218.3 60.8 215.3 54.45 202.7 57.9 189.15 43.9 185.1 44.65 181.4 46.1 176.15 48.2 175.55 53.95 L174.65 62.75 171.8 64.6 Q170.9 61.7 170.3 58.6 169.05 50.15 172.9 42.5 178.95 30.45 196.3 30 M181.75 80.35 L184.7 80.35 188.65 73.75 194.45 77.7 196.75 76.45 Q197.3 79.9 200.05 80.25 214.35 81.8 219.7 92.5 223.55 100.15 222.3 108.6 221.15 114.35 219.05 119.5 L215.05 117 216.05 112 214.8 111 215.3 104.1 Q216.3 98.9 212.35 96.65 L212.55 99.85 205.45 95.35 204 96.55 199.55 93.3 196.3 93.05 Q188.25 93.4 181.4 96.1 176.15 98.2 177.3 104.1 L177.8 111 176.55 112 177.55 117 173.55 119.5 Q171.45 114.35 170.3 108.6 169.05 100.15 172.9 92.5 175.5 87.3 180.2 84.3 182 82.85 181.75 80.35 M214.2 129.6 L217.05 136.1 219.7 136.5 Q223.55 144.15 222.3 152.6 221.15 158.35 219.05 163.5 L215.05 161 216.05 156 214.8 155 215.3 148.1 Q216.45 142.2 211.2 140.1 204.35 137.4 196.3 137.05 188.25 137.4 181.4 140.1 176.15 142.2 177.3 148.1 L177.8 155 176.55 156 177.55 161 173.55 163.5 Q171.45 158.35 170.3 152.6 169.05 144.15 172.9 136.5 174.2 133.95 176 131.9 L184.05 128.85 185.25 125.85 Q190.05 124.15 196.3 124 L199.85 124.25 201.4 126 205.65 125.3 Q210.65 126.7 214.2 129.6 M177.3 196.1 L177.8 203 176.55 204 177.55 209 173.55 211.5 Q171.45 206.35 170.3 200.6 169.05 192.15 172.9 184.5 178.95 172.45 196.3 172 203 172.15 208.05 174.1 L208.8 177.1 212.6 176.4 Q217.15 179.4 219.7 184.5 223.55 192.15 222.3 200.6 221.15 206.35 219.05 211.5 L215.05 209 216.05 204 214.8 203 215.3 196.1 Q216.45 190.2 211.2 188.1 204.35 185.4 196.3 185.05 188.25 185.4 181.4 188.1 176.15 190.2 177.3 196.1 M149.7 42.5 Q153.55 50.15 152.3 58.6 151.15 64.35 149.05 69.5 L146.55 68 Q148.3 60.8 145.3 54.45 132.7 57.9 119.15 43.9 115.1 44.65 111.4 46.1 106.15 48.2 105.55 53.95 L104.65 62.75 101.8 64.6 Q100.9 61.7 100.3 58.6 99.05 50.15 102.9 42.5 108.95 30.45 126.3 30 143.65 30.45 149.7 42.5 M146.3 74.75 Q155 91.6 152.85 105.5 142.65 104.1 134.45 98.35 138.05 93.55 137.95 85.45 143.05 81.55 146.3 74.75 M79.7 42.5 Q83.55 50.15 82.3 58.6 81.15 64.35 79.05 69.5 L76.55 68 Q78.3 60.8 75.3 54.45 62.7 57.9 49.15 43.9 45.1 44.65 41.4 46.1 36.15 48.2 35.55 53.95 L34.65 62.75 31.8 64.6 Q30.9 61.7 30.3 58.6 29.05 50.15 32.9 42.5 38.95 30.45 56.3 30 73.65 30.45 79.7 42.5 M47.4 87.95 Q47.25 101.45 42.8 108.6 L32.55 124.85 Q31.15 101.4 33.8 69.1 37.8 82.5 47.4 87.95 M79.7 142.3 Q83.55 149.95 82.3 158.4 81.15 164.15 79.05 169.3 L76.55 167.8 Q78.3 160.6 75.3 154.25 62.7 157.7 49.15 143.7 45.1 144.45 41.4 145.9 36.15 148 35.55 153.75 L34.65 162.55 31.8 164.4 Q30.9 161.5 30.3 158.4 29.05 149.95 32.9 142.3 38.95 130.25 56.3 129.8 73.65 130.25 79.7 142.3 M64.6 187.95 Q74.2 182.5 78.2 169.1 80.85 201.4 79.45 224.85 L69.2 208.6 Q64.75 201.45 64.6 187.95 M47.4 187.95 Q47.25 201.45 42.8 208.6 L32.55 224.85 Q31.15 201.4 33.8 169.1 37.8 182.5 47.4 187.95 M149.7 142.5 Q153.55 150.15 152.3 158.6 151.15 164.35 149.05 169.5 L146.55 168 Q148.3 160.8 145.3 154.45 132.7 157.9 119.15 143.9 115.1 144.65 111.4 146.1 106.15 148.2 105.55 153.95 L104.65 162.75 101.8 164.6 Q100.9 161.7 100.3 158.6 99.05 150.15 102.9 142.5 108.95 130.45 126.3 130 143.65 130.45 149.7 142.5 M105.4 174.75 Q108.65 181.55 113.75 185.45 113.65 193.55 117.25 198.35 109.05 204.1 98.85 205.5 96.7 191.6 105.4 174.75 M146.3 174.75 Q155 191.6 152.85 205.5 142.65 204.1 134.45 198.35 138.05 193.55 137.95 185.45 143.05 181.55 146.3 174.75 M149.7 242.5 Q153.55 250.15 152.3 258.6 151.15 264.35 149.05 269.5 L146.55 268 Q148.3 260.8 145.3 254.45 132.7 257.9 119.15 243.9 115.1 244.65 111.4 246.1 106.15 248.2 105.55 253.95 L104.65 262.75 101.8 264.6 Q100.9 261.7 100.3 258.6 99.05 250.15 102.9 242.5 108.95 230.45 126.3 230 143.65 230.45 149.7 242.5 M109.4 280.9 Q110.5 289.55 115 299.4 107.2 302 98.7 299.75 96.25 287.6 105.8 275 L109.4 280.9 M149.7 332.5 Q153.55 340.15 152.3 348.6 151.15 354.35 149.05 359.5 L146.55 358 Q148.3 350.8 145.3 344.45 132.7 347.9 119.15 333.9 115.1 334.65 111.4 336.1 106.15 338.2 105.55 343.95 L104.65 352.75 101.8 354.6 Q100.9 351.7 100.3 348.6 99.05 340.15 102.9 332.5 108.95 320.45 126.3 320 143.65 320.45 149.7 332.5 M105.8 365 L109.4 370.9 Q110.5 379.55 115 389.4 107.2 392 98.7 389.75 96.25 377.6 105.8 365 M146.4 365 Q155.95 377.6 153.5 389.75 145 392 137.2 389.4 141.7 379.55 142.8 370.9 L146.4 365 M214.8 230 L215.3 223.1 222.55 225.35 222.3 227.6 Q221.15 233.35 219.05 238.5 L215.05 236 216.05 231 214.8 230 M170.3 227.6 L170.05 225.35 177.3 223.1 177.8 230 176.55 231 177.55 236 173.55 238.5 Q171.45 233.35 170.3 227.6 M194.85 251.05 Q202 246.15 212.9 248.25 L209.75 253.8 Q218.3 250.55 226.8 257.35 L218.6 261.5 Q223.65 262.45 224.9 268.6 L221.75 268.8 Q223.1 274.05 222.3 279.6 221.15 285.35 219.05 290.5 L215.05 288 216.05 283 214.8 282 215.3 275.1 Q216.45 269.2 211.2 267.1 204.35 264.4 196.3 264.05 188.25 264.4 181.4 267.1 176.15 269.2 177.3 275.1 L177.8 282 176.55 283 177.55 288 173.55 290.5 Q171.45 285.35 170.3 279.6 169.95 277.25 170 274.95 170.25 249.65 195.65 247.25 L194.6 251.1 194.85 251.05 M219.7 313.5 Q223.55 321.15 222.3 329.6 221.15 335.35 219.05 340.5 L215.05 338 216.05 333 214.8 332 215.3 325.1 Q216.45 319.2 211.2 317.1 204.75 314.55 197.2 314.1 190.85 325.45 177.15 324.05 L177.3 325.1 177.8 332 176.55 333 177.55 338 173.55 340.5 Q171.45 335.35 170.3 329.6 169.05 321.15 172.9 313.5 178.95 301.45 196.3 301 213.65 301.45 219.7 313.5 M177.55 388 L173.55 390.5 Q171.45 385.35 170.3 379.6 169.05 371.15 172.9 363.5 178.95 351.45 196.3 351 213.65 351.45 219.7 363.5 223.55 371.15 222.3 379.6 221.15 385.35 219.05 390.5 L215.05 388 216.05 383 214.8 382 215.3 375.1 Q216.45 369.2 211.2 367.1 204.35 364.4 196.3 364.05 188.25 364.4 181.4 367.1 176.15 369.2 177.3 375.1 L177.8 382 176.55 383 177.55 388"/>
    <path stroke="none" fill="#694C39" d="M222.3 438.6 Q221.15 444.35 219.05 449.5 L216.55 448 Q218.3 440.8 215.3 434.45 202.7 437.9 189.15 423.9 185.1 424.65 181.4 426.1 176.15 428.2 175.55 433.95 L174.65 442.75 171.8 444.6 Q170.9 441.7 170.3 438.6 169.05 430.15 172.9 422.5 178.95 410.45 196.3 410 213.65 410.45 219.7 422.5 223.55 430.15 222.3 438.6 M188.65 453.75 L194.45 457.7 196.75 456.45 Q197.3 459.9 200.05 460.25 214.35 461.8 219.7 472.5 223.55 480.15 222.3 488.6 221.15 494.35 219.05 499.5 L215.05 497 216.05 492 214.8 491 215.3 484.1 Q216.3 478.9 212.35 476.65 L212.55 479.85 205.45 475.35 204 476.55 199.55 473.3 196.3 473.05 Q188.25 473.4 181.4 476.1 176.15 478.2 177.3 484.1 L177.8 491 176.55 492 177.55 497 173.55 499.5 Q171.45 494.35 170.3 488.6 169.05 480.15 172.9 472.5 175.5 467.3 180.2 464.3 182 462.85 181.75 460.35 L184.7 460.35 188.65 453.75 M214.2 509.6 L217.05 516.1 219.7 516.5 Q223.55 524.15 222.3 532.6 221.15 538.35 219.05 543.5 L215.05 541 216.05 536 214.8 535 215.3 528.1 Q216.45 522.2 211.2 520.1 204.35 517.4 196.3 517.05 188.25 517.4 181.4 520.1 176.15 522.2 177.3 528.1 L177.8 535 176.55 536 177.55 541 173.55 543.5 Q171.45 538.35 170.3 532.6 169.05 524.15 172.9 516.5 174.2 513.95 176 511.9 L184.05 508.85 185.25 505.85 Q190.05 504.15 196.3 504 L199.85 504.25 201.4 506 205.65 505.3 Q210.65 506.7 214.2 509.6 M170.3 580.6 Q169.05 572.15 172.9 564.5 178.95 552.45 196.3 552 203 552.15 208.05 554.1 L208.8 557.1 212.6 556.4 Q217.15 559.4 219.7 564.5 223.55 572.15 222.3 580.6 221.15 586.35 219.05 591.5 L215.05 589 216.05 584 214.8 583 215.3 576.1 Q216.45 570.2 211.2 568.1 204.35 565.4 196.3 565.05 188.25 565.4 181.4 568.1 176.15 570.2 177.3 576.1 L177.8 583 176.55 584 177.55 589 173.55 591.5 Q171.45 586.35 170.3 580.6 M152.3 438.6 Q151.15 444.35 149.05 449.5 L146.55 448 Q148.3 440.8 145.3 434.45 132.7 437.9 119.15 423.9 115.1 424.65 111.4 426.1 106.15 428.2 105.55 433.95 L104.65 442.75 101.8 444.6 Q100.9 441.7 100.3 438.6 99.05 430.15 102.9 422.5 108.95 410.45 126.3 410 143.65 410.45 149.7 422.5 153.55 430.15 152.3 438.6 M134.45 478.35 Q138.05 473.55 137.95 465.45 143.05 461.55 146.3 454.75 155 471.6 152.85 485.5 142.65 484.1 134.45 478.35 M41.4 426.1 Q36.15 428.2 35.55 433.95 L34.65 442.75 31.8 444.6 Q30.9 441.7 30.3 438.6 29.05 430.15 32.9 422.5 38.95 410.45 56.3 410 73.65 410.45 79.7 422.5 83.55 430.15 82.3 438.6 81.15 444.35 79.05 449.5 L76.55 448 Q78.3 440.8 75.3 434.45 62.7 437.9 49.15 423.9 45.1 424.65 41.4 426.1 M42.8 488.6 L32.55 504.85 Q31.15 481.4 33.8 449.1 37.8 462.5 47.4 467.95 47.25 481.45 42.8 488.6 M79.7 522.3 Q83.55 529.95 82.3 538.4 81.15 544.15 79.05 549.3 L76.55 547.8 Q78.3 540.6 75.3 534.25 62.7 537.7 49.15 523.7 45.1 524.45 41.4 525.9 36.15 528 35.55 533.75 L34.65 542.55 31.8 544.4 Q30.9 541.5 30.3 538.4 29.05 529.95 32.9 522.3 38.95 510.25 56.3 509.8 73.65 510.25 79.7 522.3 M69.2 588.6 Q64.75 581.45 64.6 567.95 74.2 562.5 78.2 549.1 80.85 581.4 79.45 604.85 L69.2 588.6 M42.8 588.6 L32.55 604.85 Q31.15 581.4 33.8 549.1 37.8 562.5 47.4 567.95 47.25 581.45 42.8 588.6 M152.3 538.6 Q151.15 544.35 149.05 549.5 L146.55 548 Q148.3 540.8 145.3 534.45 132.7 537.9 119.15 523.9 115.1 524.65 111.4 526.1 106.15 528.2 105.55 533.95 L104.65 542.75 101.8 544.6 Q100.9 541.7 100.3 538.6 99.05 530.15 102.9 522.5 108.95 510.45 126.3 510 143.65 510.45 149.7 522.5 153.55 530.15 152.3 538.6 M98.85 585.5 Q96.7 571.6 105.4 554.75 108.65 561.55 113.75 565.45 113.65 573.55 117.25 578.35 109.05 584.1 98.85 585.5 M134.45 578.35 Q138.05 573.55 137.95 565.45 143.05 561.55 146.3 554.75 155 571.6 152.85 585.5 142.65 584.1 134.45 578.35 M152.3 638.6 Q151.15 644.35 149.05 649.5 L146.55 648 Q148.3 640.8 145.3 634.45 132.7 637.9 119.15 623.9 115.1 624.65 111.4 626.1 106.15 628.2 105.55 633.95 L104.65 642.75 101.8 644.6 Q100.9 641.7 100.3 638.6 99.05 630.15 102.9 622.5 108.95 610.45 126.3 610 143.65 610.45 149.7 622.5 153.55 630.15 152.3 638.6 M105.8 655 L109.4 660.9 Q110.5 669.55 115 679.4 107.2 682 98.7 679.75 96.25 667.6 105.8 655 M149.05 739.5 L146.55 738 Q148.3 730.8 145.3 724.45 132.7 727.9 119.15 713.9 115.1 714.65 111.4 716.1 106.15 718.2 105.55 723.95 L104.65 732.75 101.8 734.6 Q100.9 731.7 100.3 728.6 99.05 720.15 102.9 712.5 108.95 700.45 126.3 700 143.65 700.45 149.7 712.5 153.55 720.15 152.3 728.6 151.15 734.35 149.05 739.5 M109.4 750.9 Q110.5 759.55 115 769.4 107.2 772 98.7 769.75 96.25 757.6 105.8 745 L109.4 750.9 M153.5 769.75 Q145 772 137.2 769.4 141.7 759.55 142.8 750.9 L146.4 745 Q155.95 757.6 153.5 769.75 M215.05 616 L216.05 611 214.8 610 215.3 603.1 222.55 605.35 222.3 607.6 Q221.15 613.35 219.05 618.5 L215.05 616 M209.75 633.8 Q218.3 630.55 226.8 637.35 L218.6 641.5 Q223.65 642.45 224.9 648.6 L221.75 648.8 Q223.1 654.05 222.3 659.6 221.15 665.35 219.05 670.5 L215.05 668 216.05 663 214.8 662 215.3 655.1 Q216.45 649.2 211.2 647.1 204.35 644.4 196.3 644.05 188.25 644.4 181.4 647.1 176.15 649.2 177.3 655.1 L177.8 662 176.55 663 177.55 668 173.55 670.5 Q171.45 665.35 170.3 659.6 169.95 657.25 170 654.95 170.25 629.65 195.65 627.25 L194.6 631.1 194.85 631.05 Q202 626.15 212.9 628.25 L209.75 633.8 M170.3 607.6 L170.05 605.35 177.3 603.1 177.8 610 176.55 611 177.55 616 173.55 618.5 Q171.45 613.35 170.3 607.6 M216.05 713 L214.8 712 215.3 705.1 Q216.45 699.2 211.2 697.1 204.75 694.55 197.2 694.1 190.85 705.45 177.15 704.05 L177.3 705.1 177.8 712 176.55 713 177.55 718 173.55 720.5 Q171.45 715.35 170.3 709.6 169.05 701.15 172.9 693.5 178.95 681.45 196.3 681 213.65 681.45 219.7 693.5 223.55 701.15 222.3 709.6 221.15 715.35 219.05 720.5 L215.05 718 216.05 713 M173.55 770.5 Q171.45 765.35 170.3 759.6 169.05 751.15 172.9 743.5 178.95 731.45 196.3 731 213.65 731.45 219.7 743.5 223.55 751.15 222.3 759.6 221.15 765.35 219.05 770.5 L215.05 768 216.05 763 214.8 762 215.3 755.1 Q216.45 749.2 211.2 747.1 204.35 744.4 196.3 744.05 188.25 744.4 181.4 747.1 176.15 749.2 177.3 755.1 L177.8 762 176.55 763 177.55 768 173.55 770.5"/>
    <path stroke="none" fill="#5D544E" d="M302.3 438.6 Q301.15 444.35 299.05 449.5 L296.55 448 Q298.3 440.8 295.3 434.45 282.7 437.9 269.15 423.9 265.1 424.65 261.4 426.1 256.15 428.2 255.55 433.95 L254.65 442.75 251.8 444.6 Q250.9 441.7 250.3 438.6 249.05 430.15 252.9 422.5 258.95 410.45 276.3 410 293.65 410.45 299.7 422.5 303.55 430.15 302.3 438.6 M320.3 438.6 Q319.05 430.15 322.9 422.5 328.95 410.45 346.3 410 363.65 410.45 369.7 422.5 373.55 430.15 372.3 438.6 371.15 444.35 369.05 449.5 L366.55 448 Q368.3 440.8 365.3 434.45 352.7 437.9 339.15 423.9 335.1 424.65 331.4 426.1 326.15 428.2 325.55 433.95 L324.65 442.75 321.8 444.6 Q320.9 441.7 320.3 438.6 M267.4 467.95 Q267.25 481.45 262.8 488.6 L252.55 504.85 Q251.15 481.4 253.8 449.1 257.8 462.5 267.4 467.95 M302.3 538.4 Q301.15 544.15 299.05 549.3 L296.55 547.8 Q298.3 540.6 295.3 534.25 282.7 537.7 269.15 523.7 265.1 524.45 261.4 525.9 256.15 528 255.55 533.75 L254.65 542.55 251.8 544.4 Q250.9 541.5 250.3 538.4 249.05 529.95 252.9 522.3 258.95 510.25 276.3 509.8 293.65 510.25 299.7 522.3 303.55 529.95 302.3 538.4 M322.9 522.5 Q328.95 510.45 346.3 510 363.65 510.45 369.7 522.5 373.55 530.15 372.3 538.6 371.15 544.35 369.05 549.5 L366.55 548 Q368.3 540.8 365.3 534.45 352.7 537.9 339.15 523.9 335.1 524.65 331.4 526.1 326.15 528.2 325.55 533.95 L324.65 542.75 321.8 544.6 Q320.9 541.7 320.3 538.6 319.05 530.15 322.9 522.5 M267.4 567.95 Q267.25 581.45 262.8 588.6 L252.55 604.85 Q251.15 581.4 253.8 549.1 257.8 562.5 267.4 567.95 M284.6 567.95 Q294.2 562.5 298.2 549.1 300.85 581.4 299.45 604.85 L289.2 588.6 Q284.75 581.45 284.6 567.95 M322.9 622.5 Q328.95 610.45 346.3 610 363.65 610.45 369.7 622.5 373.55 630.15 372.3 638.6 371.15 644.35 369.05 649.5 L366.55 648 Q368.3 640.8 365.3 634.45 352.7 637.9 339.15 623.9 335.1 624.65 331.4 626.1 326.15 628.2 325.55 633.95 L324.65 642.75 321.8 644.6 Q320.9 641.7 320.3 638.6 319.05 630.15 322.9 622.5 M320.3 728.6 Q319.05 720.15 322.9 712.5 328.95 700.45 346.3 700 363.65 700.45 369.7 712.5 373.55 720.15 372.3 728.6 371.15 734.35 369.05 739.5 L366.55 738 Q368.3 730.8 365.3 724.45 352.7 727.9 339.15 713.9 335.1 714.65 331.4 716.1 326.15 718.2 325.55 723.95 L324.65 732.75 321.8 734.6 Q320.9 731.7 320.3 728.6 M409.15 423.9 Q405.1 424.65 401.4 426.1 396.15 428.2 395.55 433.95 L394.65 442.75 391.8 444.6 Q390.9 441.7 390.3 438.6 389.05 430.15 392.9 422.5 398.95 410.45 416.3 410 433.65 410.45 439.7 422.5 443.55 430.15 442.3 438.6 441.15 444.35 439.05 449.5 L436.55 448 Q438.3 440.8 435.3 434.45 422.7 437.9 409.15 423.9 M416.75 456.45 Q417.3 459.9 420.05 460.25 434.35 461.8 439.7 472.5 443.55 480.15 442.3 488.6 441.15 494.35 439.05 499.5 L435.05 497 436.05 492 434.8 491 435.3 484.1 Q436.3 478.9 432.35 476.65 L432.55 479.85 425.45 475.35 424 476.55 419.55 473.3 416.3 473.05 Q408.25 473.4 401.4 476.1 396.15 478.2 397.3 484.1 L397.8 491 396.55 492 397.55 497 393.55 499.5 Q391.45 494.35 390.3 488.6 389.05 480.15 392.9 472.5 395.5 467.3 400.2 464.3 402 462.85 401.75 460.35 L404.7 460.35 408.65 453.75 414.45 457.7 416.75 456.45 M357.95 465.45 Q363.05 461.55 366.3 454.75 375 471.6 372.85 485.5 362.65 484.1 354.45 478.35 358.05 473.55 357.95 465.45 M404.05 508.85 L405.25 505.85 Q410.05 504.15 416.3 504 L419.85 504.25 421.4 506 425.65 505.3 Q430.65 506.7 434.2 509.6 L437.05 516.1 439.7 516.5 Q443.55 524.15 442.3 532.6 441.15 538.35 439.05 543.5 L435.05 541 436.05 536 434.8 535 435.3 528.1 Q436.45 522.2 431.2 520.1 424.35 517.4 416.3 517.05 408.25 517.4 401.4 520.1 396.15 522.2 397.3 528.1 L397.8 535 396.55 536 397.55 541 393.55 543.5 Q391.45 538.35 390.3 532.6 389.05 524.15 392.9 516.5 394.2 513.95 396 511.9 L404.05 508.85 M357.95 565.45 Q363.05 561.55 366.3 554.75 375 571.6 372.85 585.5 362.65 584.1 354.45 578.35 358.05 573.55 357.95 565.45 M325.4 554.75 Q328.65 561.55 333.75 565.45 333.65 573.55 337.25 578.35 329.05 584.1 318.85 585.5 316.7 571.6 325.4 554.75 M393.55 591.5 Q391.45 586.35 390.3 580.6 389.05 572.15 392.9 564.5 398.95 552.45 416.3 552 423 552.15 428.05 554.1 L428.8 557.1 432.6 556.4 Q437.15 559.4 439.7 564.5 443.55 572.15 442.3 580.6 441.15 586.35 439.05 591.5 L435.05 589 436.05 584 434.8 583 435.3 576.1 Q436.45 570.2 431.2 568.1 424.35 565.4 416.3 565.05 408.25 565.4 401.4 568.1 396.15 570.2 397.3 576.1 L397.8 583 396.55 584 397.55 589 393.55 591.5 M442.3 607.6 Q441.15 613.35 439.05 618.5 L435.05 616 436.05 611 434.8 610 435.3 603.1 442.55 605.35 442.3 607.6 M414.6 631.1 L414.85 631.05 Q422 626.15 432.9 628.25 L429.75 633.8 Q438.3 630.55 446.8 637.35 442.7 639.45 438.6 641.5 443.65 642.45 444.9 648.6 L441.75 648.8 Q443.1 654.05 442.3 659.6 441.15 665.35 439.05 670.5 L435.05 668 436.05 663 434.8 662 435.3 655.1 Q436.45 649.2 431.2 647.1 424.35 644.4 416.3 644.05 408.25 644.4 401.4 647.1 396.15 649.2 397.3 655.1 L397.8 662 396.55 663 397.55 668 393.55 670.5 Q391.45 665.35 390.3 659.6 389.95 657.25 390 654.95 390.25 629.65 415.65 627.25 L414.6 631.1 M390.05 605.35 L397.3 603.1 397.8 610 396.55 611 397.55 616 393.55 618.5 Q391.45 613.35 390.3 607.6 L390.05 605.35 M329.4 660.9 Q330.5 669.55 335 679.4 327.2 682 318.7 679.75 316.25 667.6 325.8 655 L329.4 660.9 M357.2 769.4 Q361.7 759.55 362.8 750.9 L366.4 745 Q375.95 757.6 373.5 769.75 365 772 357.2 769.4 M390.3 709.6 Q389.05 701.15 392.9 693.5 398.95 681.45 416.3 681 433.65 681.45 439.7 693.5 443.55 701.15 442.3 709.6 441.15 715.35 439.05 720.5 L435.05 718 436.05 713 434.8 712 435.3 705.1 Q436.45 699.2 431.2 697.1 424.75 694.55 417.2 694.1 410.85 705.45 397.15 704.05 L397.3 705.1 397.8 712 396.55 713 397.55 718 393.55 720.5 Q391.45 715.35 390.3 709.6 M335 769.4 Q327.2 772 318.7 769.75 316.25 757.6 325.8 745 L329.4 750.9 Q330.5 759.55 335 769.4 M396.55 763 L397.55 768 393.55 770.5 Q391.45 765.35 390.3 759.6 389.05 751.15 392.9 743.5 398.95 731.45 416.3 731 433.65 731.45 439.7 743.5 443.55 751.15 442.3 759.6 441.15 765.35 439.05 770.5 L435.05 768 436.05 763 434.8 762 435.3 755.1 Q436.45 749.2 431.2 747.1 424.35 744.4 416.3 744.05 408.25 744.4 401.4 747.1 396.15 749.2 397.3 755.1 L397.8 762 396.55 763"/>
    <path stroke="none" fill="#989898" d="M662.3 438.6 Q661.15 444.35 659.05 449.5 L656.55 448 Q658.3 440.8 655.3 434.45 642.7 437.9 629.15 423.9 625.1 424.65 621.4 426.1 616.15 428.2 615.55 433.95 L614.65 442.75 611.8 444.6 Q610.9 441.7 610.3 438.6 609.05 430.15 612.9 422.5 618.95 410.45 636.3 410 653.65 410.45 659.7 422.5 663.55 430.15 662.3 438.6 M652.35 476.65 L652.55 479.85 645.45 475.35 644 476.55 639.55 473.3 636.3 473.05 Q628.25 473.4 621.4 476.1 616.15 478.2 617.3 484.1 L617.8 491 616.55 492 617.55 497 613.55 499.5 Q611.45 494.35 610.3 488.6 609.05 480.15 612.9 472.5 615.5 467.3 620.2 464.3 622 462.85 621.75 460.35 L624.7 460.35 628.65 453.75 634.45 457.7 636.75 456.45 Q637.3 459.9 640.05 460.25 654.35 461.8 659.7 472.5 663.55 480.15 662.3 488.6 661.15 494.35 659.05 499.5 L655.05 497 656.05 492 654.8 491 655.3 484.1 Q656.3 478.9 652.35 476.65 M657.05 516.1 L659.7 516.5 Q663.55 524.15 662.3 532.6 661.15 538.35 659.05 543.5 L655.05 541 656.05 536 654.8 535 655.3 528.1 Q656.45 522.2 651.2 520.1 644.35 517.4 636.3 517.05 628.25 517.4 621.4 520.1 616.15 522.2 617.3 528.1 L617.8 535 616.55 536 617.55 541 613.55 543.5 Q611.45 538.35 610.3 532.6 609.05 524.15 612.9 516.5 614.2 513.95 616 511.9 L624.05 508.85 625.25 505.85 Q630.05 504.15 636.3 504 L639.85 504.25 641.4 506 645.65 505.3 Q650.65 506.7 654.2 509.6 L657.05 516.1 M652.6 556.4 Q657.15 559.4 659.7 564.5 663.55 572.15 662.3 580.6 661.15 586.35 659.05 591.5 L655.05 589 656.05 584 654.8 583 655.3 576.1 Q656.45 570.2 651.2 568.1 644.35 565.4 636.3 565.05 628.25 565.4 621.4 568.1 616.15 570.2 617.3 576.1 L617.8 583 616.55 584 617.55 589 613.55 591.5 Q611.45 586.35 610.3 580.6 609.05 572.15 612.9 564.5 618.95 552.45 636.3 552 643 552.15 648.05 554.1 L648.8 557.1 652.6 556.4 M655.3 603.1 L662.55 605.35 662.3 607.6 Q661.15 613.35 659.05 618.5 L655.05 616 656.05 611 654.8 610 655.3 603.1 M658.6 641.5 Q663.65 642.45 664.9 648.6 L661.75 648.8 Q663.1 654.05 662.3 659.6 661.15 665.35 659.05 670.5 L655.05 668 656.05 663 654.8 662 655.3 655.1 Q656.45 649.2 651.2 647.1 644.35 644.4 636.3 644.05 628.25 644.4 621.4 647.1 616.15 649.2 617.3 655.1 L617.8 662 616.55 663 617.55 668 613.55 670.5 Q611.45 665.35 610.3 659.6 609.95 657.25 610 654.95 610.25 629.65 635.65 627.25 L634.6 631.1 634.85 631.05 Q642 626.15 652.9 628.25 L649.75 633.8 Q658.3 630.55 666.8 637.35 L658.6 641.5 M659.05 720.5 L655.05 718 656.05 713 654.8 712 655.3 705.1 Q656.45 699.2 651.2 697.1 644.75 694.55 637.2 694.1 630.85 705.45 617.15 704.05 L617.3 705.1 617.8 712 616.55 713 617.55 718 613.55 720.5 Q611.45 715.35 610.3 709.6 609.05 701.15 612.9 693.5 618.95 681.45 636.3 681 653.65 681.45 659.7 693.5 663.55 701.15 662.3 709.6 661.15 715.35 659.05 720.5 M654.8 762 L655.3 755.1 Q656.45 749.2 651.2 747.1 644.35 744.4 636.3 744.05 628.25 744.4 621.4 747.1 616.15 749.2 617.3 755.1 L617.8 762 616.55 763 617.55 768 613.55 770.5 Q611.45 765.35 610.3 759.6 609.05 751.15 612.9 743.5 618.95 731.45 636.3 731 653.65 731.45 659.7 743.5 663.55 751.15 662.3 759.6 661.15 765.35 659.05 770.5 L655.05 768 656.05 763 654.8 762 M592.3 438.6 Q591.15 444.35 589.05 449.5 L586.55 448 Q588.3 440.8 585.3 434.45 572.7 437.9 559.15 423.9 555.1 424.65 551.4 426.1 546.15 428.2 545.55 433.95 L544.65 442.75 541.8 444.6 Q540.9 441.7 540.3 438.6 539.05 430.15 542.9 422.5 548.95 410.45 566.3 410 583.65 410.45 589.7 422.5 593.55 430.15 592.3 438.6 M592.85 485.5 Q582.65 484.1 574.45 478.35 578.05 473.55 577.95 465.45 583.05 461.55 586.3 454.75 595 471.6 592.85 485.5 M489.15 423.9 Q485.1 424.65 481.4 426.1 476.15 428.2 475.55 433.95 L474.65 442.75 471.8 444.6 Q470.9 441.7 470.3 438.6 469.05 430.15 472.9 422.5 478.95 410.45 496.3 410 513.65 410.45 519.7 422.5 523.55 430.15 522.3 438.6 521.15 444.35 519.05 449.5 L516.55 448 Q518.3 440.8 515.3 434.45 502.7 437.9 489.15 423.9 M545.55 533.95 L544.65 542.75 541.8 544.6 Q540.9 541.7 540.3 538.6 539.05 530.15 542.9 522.5 548.95 510.45 566.3 510 583.65 510.45 589.7 522.5 593.55 530.15 592.3 538.6 591.15 544.35 589.05 549.5 L586.55 548 Q588.3 540.8 585.3 534.45 572.7 537.9 559.15 523.9 555.1 524.65 551.4 526.1 546.15 528.2 545.55 533.95 M489.15 523.7 Q485.1 524.45 481.4 525.9 476.15 528 475.55 533.75 L474.65 542.55 471.8 544.4 Q470.9 541.5 470.3 538.4 469.05 529.95 472.9 522.3 478.95 510.25 496.3 509.8 513.65 510.25 519.7 522.3 523.55 529.95 522.3 538.4 521.15 544.15 519.05 549.3 L516.55 547.8 Q518.3 540.6 515.3 534.25 502.7 537.7 489.15 523.7 M557.25 578.35 Q549.05 584.1 538.85 585.5 536.7 571.6 545.4 554.75 548.65 561.55 553.75 565.45 553.65 573.55 557.25 578.35 M504.6 567.95 Q514.2 562.5 518.2 549.1 520.85 581.4 519.45 604.85 L509.2 588.6 Q504.75 581.45 504.6 567.95 M574.45 578.35 Q578.05 573.55 577.95 565.45 583.05 561.55 586.3 554.75 595 571.6 592.85 585.5 582.65 584.1 574.45 578.35 M472.55 504.85 Q471.15 481.4 473.8 449.1 477.8 462.5 487.4 467.95 487.25 481.45 482.8 488.6 L472.55 504.85 M613.55 618.5 Q611.45 613.35 610.3 607.6 L610.05 605.35 617.3 603.1 617.8 610 616.55 611 617.55 616 613.55 618.5 M592.3 638.6 Q591.15 644.35 589.05 649.5 L586.55 648 Q588.3 640.8 585.3 634.45 572.7 637.9 559.15 623.9 555.1 624.65 551.4 626.1 546.15 628.2 545.55 633.95 L544.65 642.75 541.8 644.6 Q540.9 641.7 540.3 638.6 539.05 630.15 542.9 622.5 548.95 610.45 566.3 610 583.65 610.45 589.7 622.5 593.55 630.15 592.3 638.6 M538.7 679.75 Q536.25 667.6 545.8 655 L549.4 660.9 Q550.5 669.55 555 679.4 547.2 682 538.7 679.75 M545.55 723.95 L544.65 732.75 541.8 734.6 Q540.9 731.7 540.3 728.6 539.05 720.15 542.9 712.5 548.95 700.45 566.3 700 583.65 700.45 589.7 712.5 593.55 720.15 592.3 728.6 591.15 734.35 589.05 739.5 L586.55 738 Q588.3 730.8 585.3 724.45 572.7 727.9 559.15 713.9 555.1 714.65 551.4 716.1 546.15 718.2 545.55 723.95 M545.8 745 L549.4 750.9 Q550.5 759.55 555 769.4 547.2 772 538.7 769.75 536.25 757.6 545.8 745 M582.8 750.9 L586.4 745 Q595.95 757.6 593.5 769.75 585 772 577.2 769.4 581.7 759.55 582.8 750.9 M487.4 567.95 Q487.25 581.45 482.8 588.6 L472.55 604.85 Q471.15 581.4 473.8 549.1 477.8 562.5 487.4 567.95"/>
    <path stroke="none" fill="#E5E5E5" d="M879.7 422.5 Q883.55 430.15 882.3 438.6 881.15 444.35 879.05 449.5 L876.55 448 Q878.3 440.8 875.3 434.45 862.7 437.9 849.15 423.9 845.1 424.65 841.4 426.1 836.15 428.2 835.55 433.95 L834.65 442.75 831.8 444.6 Q830.9 441.7 830.3 438.6 829.05 430.15 832.9 422.5 838.95 410.45 856.3 410 873.65 410.45 879.7 422.5 M844.7 460.35 L848.65 453.75 854.45 457.7 856.75 456.45 Q857.3 459.9 860.05 460.25 874.35 461.8 879.7 472.5 883.55 480.15 882.3 488.6 881.15 494.35 879.05 499.5 L875.05 497 876.05 492 874.8 491 875.3 484.1 Q876.3 478.9 872.35 476.65 L872.55 479.85 865.45 475.35 864 476.55 859.55 473.3 856.3 473.05 Q848.25 473.4 841.4 476.1 836.15 478.2 837.3 484.1 L837.8 491 836.55 492 837.55 497 833.55 499.5 Q831.45 494.35 830.3 488.6 829.05 480.15 832.9 472.5 835.5 467.3 840.2 464.3 842 462.85 841.75 460.35 L844.7 460.35 M877.05 516.1 L879.7 516.5 Q883.55 524.15 882.3 532.6 881.15 538.35 879.05 543.5 L875.05 541 876.05 536 874.8 535 875.3 528.1 Q876.45 522.2 871.2 520.1 864.35 517.4 856.3 517.05 848.25 517.4 841.4 520.1 836.15 522.2 837.3 528.1 L837.8 535 836.55 536 837.55 541 833.55 543.5 Q831.45 538.35 830.3 532.6 829.05 524.15 832.9 516.5 834.2 513.95 836 511.9 L844.05 508.85 845.25 505.85 Q850.05 504.15 856.3 504 L859.85 504.25 861.4 506 865.65 505.3 Q870.65 506.7 874.2 509.6 L877.05 516.1 M836.55 584 L837.55 589 833.55 591.5 Q831.45 586.35 830.3 580.6 829.05 572.15 832.9 564.5 838.95 552.45 856.3 552 863 552.15 868.05 554.1 L868.8 557.1 872.6 556.4 Q877.15 559.4 879.7 564.5 883.55 572.15 882.3 580.6 881.15 586.35 879.05 591.5 L875.05 589 876.05 584 874.8 583 875.3 576.1 Q876.45 570.2 871.2 568.1 864.35 565.4 856.3 565.05 848.25 565.4 841.4 568.1 836.15 570.2 837.3 576.1 L837.8 583 836.55 584 M779.15 423.9 Q775.1 424.65 771.4 426.1 766.15 428.2 765.55 433.95 L764.65 442.75 761.8 444.6 Q760.9 441.7 760.3 438.6 759.05 430.15 762.9 422.5 768.95 410.45 786.3 410 803.65 410.45 809.7 422.5 813.55 430.15 812.3 438.6 811.15 444.35 809.05 449.5 L806.55 448 Q808.3 440.8 805.3 434.45 792.7 437.9 779.15 423.9 M742.3 438.6 Q741.15 444.35 739.05 449.5 L736.55 448 Q738.3 440.8 735.3 434.45 722.7 437.9 709.15 423.9 705.1 424.65 701.4 426.1 696.15 428.2 695.55 433.95 L694.65 442.75 691.8 444.6 Q690.9 441.7 690.3 438.6 689.05 430.15 692.9 422.5 698.95 410.45 716.3 410 733.65 410.45 739.7 422.5 743.55 430.15 742.3 438.6 M806.3 454.75 Q815 471.6 812.85 485.5 802.65 484.1 794.45 478.35 798.05 473.55 797.95 465.45 803.05 461.55 806.3 454.75 M707.4 467.95 Q707.25 481.45 702.8 488.6 L692.55 504.85 Q691.15 481.4 693.8 449.1 697.8 462.5 707.4 467.95 M695.55 533.75 L694.65 542.55 691.8 544.4 Q690.9 541.5 690.3 538.4 689.05 529.95 692.9 522.3 698.95 510.25 716.3 509.8 733.65 510.25 739.7 522.3 743.55 529.95 742.3 538.4 741.15 544.15 739.05 549.3 L736.55 547.8 Q738.3 540.6 735.3 534.25 722.7 537.7 709.15 523.7 705.1 524.45 701.4 525.9 696.15 528 695.55 533.75 M707.4 567.95 Q707.25 581.45 702.8 588.6 L692.55 604.85 Q691.15 581.4 693.8 549.1 697.8 562.5 707.4 567.95 M779.15 523.9 Q775.1 524.65 771.4 526.1 766.15 528.2 765.55 533.95 L764.65 542.75 761.8 544.6 Q760.9 541.7 760.3 538.6 759.05 530.15 762.9 522.5 768.95 510.45 786.3 510 803.65 510.45 809.7 522.5 813.55 530.15 812.3 538.6 811.15 544.35 809.05 549.5 L806.55 548 Q808.3 540.8 805.3 534.45 792.7 537.9 779.15 523.9 M758.85 585.5 Q756.7 571.6 765.4 554.75 768.65 561.55 773.75 565.45 773.65 573.55 777.25 578.35 769.05 584.1 758.85 585.5 M806.3 554.75 Q815 571.6 812.85 585.5 802.65 584.1 794.45 578.35 798.05 573.55 797.95 565.45 803.05 561.55 806.3 554.75 M724.6 567.95 Q734.2 562.5 738.2 549.1 740.85 581.4 739.45 604.85 L729.2 588.6 Q724.75 581.45 724.6 567.95 M779.15 623.9 Q775.1 624.65 771.4 626.1 766.15 628.2 765.55 633.95 L764.65 642.75 761.8 644.6 Q760.9 641.7 760.3 638.6 759.05 630.15 762.9 622.5 768.95 610.45 786.3 610 803.65 610.45 809.7 622.5 813.55 630.15 812.3 638.6 811.15 644.35 809.05 649.5 L806.55 648 Q808.3 640.8 805.3 634.45 792.7 637.9 779.15 623.9 M769.4 660.9 Q770.5 669.55 775 679.4 767.2 682 758.7 679.75 756.25 667.6 765.8 655 L769.4 660.9 M809.7 712.5 Q813.55 720.15 812.3 728.6 811.15 734.35 809.05 739.5 L806.55 738 Q808.3 730.8 805.3 724.45 792.7 727.9 779.15 713.9 775.1 714.65 771.4 716.1 766.15 718.2 765.55 723.95 L764.65 732.75 761.8 734.6 Q760.9 731.7 760.3 728.6 759.05 720.15 762.9 712.5 768.95 700.45 786.3 700 803.65 700.45 809.7 712.5 M765.8 745 L769.4 750.9 Q770.5 759.55 775 769.4 767.2 772 758.7 769.75 756.25 757.6 765.8 745 M802.8 750.9 L806.4 745 Q815.95 757.6 813.5 769.75 805 772 797.2 769.4 801.7 759.55 802.8 750.9 M882.55 605.35 L882.3 607.6 Q881.15 613.35 879.05 618.5 L875.05 616 876.05 611 874.8 610 875.3 603.1 882.55 605.35 M854.6 631.1 L854.85 631.05 Q862 626.15 872.9 628.25 L869.75 633.8 Q878.3 630.55 886.8 637.35 L878.6 641.5 Q883.65 642.45 884.9 648.6 L881.75 648.8 Q883.1 654.05 882.3 659.6 881.15 665.35 879.05 670.5 L875.05 668 876.05 663 874.8 662 875.3 655.1 Q876.45 649.2 871.2 647.1 864.35 644.4 856.3 644.05 848.25 644.4 841.4 647.1 836.15 649.2 837.3 655.1 L837.8 662 836.55 663 837.55 668 833.55 670.5 Q831.45 665.35 830.3 659.6 829.95 657.25 830 654.95 830.25 629.65 855.65 627.25 L854.6 631.1 M836.55 611 L837.55 616 833.55 618.5 Q831.45 613.35 830.3 607.6 L830.05 605.35 837.3 603.1 837.8 610 836.55 611 M875.05 718 L876.05 713 874.8 712 875.3 705.1 Q876.45 699.2 871.2 697.1 864.75 694.55 857.2 694.1 850.85 705.45 837.15 704.05 L837.3 705.1 837.8 712 836.55 713 837.55 718 833.55 720.5 Q831.45 715.35 830.3 709.6 829.05 701.15 832.9 693.5 838.95 681.45 856.3 681 873.65 681.45 879.7 693.5 883.55 701.15 882.3 709.6 881.15 715.35 879.05 720.5 L875.05 718 M833.55 770.5 Q831.45 765.35 830.3 759.6 829.05 751.15 832.9 743.5 838.95 731.45 856.3 731 873.65 731.45 879.7 743.5 883.55 751.15 882.3 759.6 881.15 765.35 879.05 770.5 L875.05 768 876.05 763 874.8 762 875.3 755.1 Q876.45 749.2 871.2 747.1 864.35 744.4 856.3 744.05 848.25 744.4 841.4 747.1 836.15 749.2 837.3 755.1 L837.8 762 836.55 763 837.55 768 833.55 770.5"/>
  </g>
</svg>