<svg xmlns="http://www.w3.org/2000/svg" xmlns:xlink="http://www.w3.org/1999/xlink">
  <defs/>
  <g>
    <path stroke="none" fill="#666666" d="M156 44.05 Q145.05 48.15 132.25 47.55 119.45 48.15 108.5 44.05 L108.5 40.85 Q120.1 42.75 131.75 42.7 L132.25 42.7 132.75 42.7 Q144.4 42.75 156 40.85 L156 44.05"/>
    <path stroke="none" fill="#66CCCC" d="M156 44.05 L157.7 48.45 Q147.9 56.1 132.5 56.1 116.6 56.1 106.8 48.45 L108.5 44.05 Q119.45 48.15 132.25 47.55 145.05 48.15 156 44.05"/>
    <path stroke="none" fill="#9A7D49" d="M156 74.05 Q145.05 78.15 132.25 77.55 119.45 78.15 108.5 74.05 L108.5 70.85 Q120.1 72.75 131.75 72.7 L132.25 72.7 132.75 72.7 Q144.4 72.75 156 70.85 L156 74.05"/>
    <path stroke="none" fill="#66CCCC" d="M156 74.05 L157.7 78.45 Q147.9 86.1 132.5 86.1 116.6 86.1 106.8 78.45 L108.5 74.05 Q119.45 78.15 132.25 77.55 145.05 78.15 156 74.05"/>
    <path stroke="none" fill="#AF9360" d="M96 74.05 Q85.05 78.15 72.25 77.55 59.45 78.15 48.5 74.05 L48.5 70.85 Q60.1 72.75 71.75 72.7 L72.25 72.7 72.75 72.7 Q84.4 72.75 96 70.85 L96 74.05"/>
    <path stroke="none" fill="#66CCCC" d="M96 74.05 L97.7 78.45 Q87.9 86.1 72.5 86.1 56.6 86.1 46.8 78.45 L48.5 74.05 Q59.45 78.15 72.25 77.55 85.05 78.15 96 74.05"/>
    <path stroke="none" fill="#57AFAF" d="M55.65 125.7 L55.3 124.15 Q67.05 120.95 76.55 114.45 L77.55 118.15 55.65 125.7"/>
    <path stroke="none" fill="#66CCCC" d="M76.55 114.45 Q67.05 120.95 55.3 124.15 52.7 112.85 47.35 105.1 L45.25 102.25 Q55.75 92.7 71.15 97.95 74.3 106.5 76.55 114.45"/>
    <path stroke="none" fill="#79D4D4" d="M55.65 125.7 L77.55 118.15 79.45 126.35 56.6 130.85 55.65 125.7"/>
    <path stroke="none" fill="#66CCCC" d="M94.05 127.9 Q91.55 114.05 85.35 105.1 L83.25 102.25 Q93.75 92.7 109.15 97.95 113.35 109.35 115.95 119.65 106.15 125.5 94.05 127.9"/>
    <path stroke="none" fill="#79D4D4" d="M116.95 123.9 L118.4 131.35 95.1 135.25 94.3 129.25 116.95 123.9"/>
    <path stroke="none" fill="#57AFAF" d="M116.95 123.9 L94.3 129.25 94.05 127.9 Q106.15 125.5 115.95 119.65 L116.95 123.9"/>
    <path stroke="none" fill="#57AFAF" d="M133.7 144.45 Q146.2 141.6 156.8 134 L157.4 138.95 133.75 146.75 133.7 144.45"/>
    <path stroke="none" fill="#79D4D4" d="M157.4 138.95 Q157.8 143.35 157.85 147.75 L133.7 151.2 133.75 149.5 133.75 146.75 157.4 138.95"/>
    <path stroke="none" fill="#66CCCC" d="M133.7 144.45 Q132.95 119 123.35 105.1 L121.25 102.25 Q131.75 92.7 147.15 97.95 154.45 117.6 156.8 134 146.2 141.6 133.7 144.45"/>
    <path stroke="none" fill="#57AFAF" d="M96 44.05 Q85.05 48.15 72.25 47.55 59.45 48.15 48.5 44.05 L48.5 40.85 Q60.1 42.75 71.75 42.7 L72.25 42.7 72.75 42.7 Q84.4 42.75 96 40.85 L96 44.05"/>
    <path stroke="none" fill="#66CCCC" d="M96 44.05 L97.7 48.45 Q87.9 56.1 72.5 56.1 56.6 56.1 46.8 48.45 L48.5 44.05 Q59.45 48.15 72.25 47.55 85.05 48.15 96 44.05"/>
    <path stroke="none" fill="#D4CBB9" d="M468.5 44.05 Q479.45 48.15 492.25 47.55 505.05 48.15 516 44.05 L517.7 48.45 Q507.9 56.1 492.5 56.1 476.6 56.1 466.8 48.45 L468.5 44.05"/>
    <path stroke="none" fill="#C2B7A3" d="M468.5 44.05 L468.5 40.85 Q480.1 42.75 491.75 42.7 L492.25 42.7 492.75 42.7 Q504.4 42.75 516 40.85 L516 44.05 Q505.05 48.15 492.25 47.55 479.45 48.15 468.5 44.05"/>
    <path stroke="none" fill="#666666" d="M576 44.05 Q565.05 48.15 552.25 47.55 539.45 48.15 528.5 44.05 L528.5 40.85 Q540.1 42.75 551.75 42.7 L552.25 42.7 552.75 42.7 Q564.4 42.75 576 40.85 L576 44.05"/>
    <path stroke="none" fill="#D4CBB9" d="M576 44.05 L577.7 48.45 Q567.9 56.1 552.5 56.1 536.6 56.1 526.8 48.45 L528.5 44.05 Q539.45 48.15 552.25 47.55 565.05 48.15 576 44.05"/>
    <path stroke="none" fill="#9A7D49" d="M576 74.05 Q565.05 78.15 552.25 77.55 539.45 78.15 528.5 74.05 L528.5 70.85 Q540.1 72.75 551.75 72.7 L552.25 72.7 552.75 72.7 Q564.4 72.75 576 70.85 L576 74.05"/>
    <path stroke="none" fill="#D4CBB9" d="M576 74.05 L577.7 78.45 Q567.9 86.1 552.5 86.1 536.6 86.1 526.8 78.45 L528.5 74.05 Q539.45 78.15 552.25 77.55 565.05 78.15 576 74.05"/>
    <path stroke="none" fill="#AF9360" d="M516 74.05 Q505.05 78.15 492.25 77.55 479.45 78.15 468.5 74.05 L468.5 70.85 Q480.1 72.75 491.75 72.7 L492.25 72.7 492.75 72.7 Q504.4 72.75 516 70.85 L516 74.05"/>
    <path stroke="none" fill="#D4CBB9" d="M516 74.05 L517.7 78.45 Q507.9 86.1 492.5 86.1 476.6 86.1 466.8 78.45 L468.5 74.05 Q479.45 78.15 492.25 77.55 505.05 78.15 516 74.05"/>
    <path stroke="none" fill="#E2DAC9" d="M475.65 125.7 L497.55 118.15 499.45 126.35 476.6 130.85 475.65 125.7"/>
    <path stroke="none" fill="#C2B7A3" d="M475.65 125.7 L475.3 124.15 Q487.05 120.95 496.55 114.45 L497.55 118.15 475.65 125.7"/>
    <path stroke="none" fill="#D4CBB9" d="M496.55 114.45 Q487.05 120.95 475.3 124.15 472.7 112.85 467.35 105.1 L465.25 102.25 Q475.75 92.7 491.15 97.95 494.3 106.5 496.55 114.45"/>
    <path stroke="none" fill="#E2DAC9" d="M514.3 129.25 L536.95 123.9 538.4 131.35 515.1 135.25 514.3 129.25"/>
    <path stroke="none" fill="#C2B7A3" d="M514.3 129.25 L514.05 127.9 Q526.15 125.5 535.95 119.65 L536.95 123.9 514.3 129.25"/>
    <path stroke="none" fill="#D4CBB9" d="M535.95 119.65 Q526.15 125.5 514.05 127.9 511.55 114.05 505.35 105.1 L503.25 102.25 Q513.75 92.7 529.15 97.95 533.35 109.35 535.95 119.65"/>
    <path stroke="none" fill="#C2B7A3" d="M576.8 134 L577.4 138.95 553.75 146.75 553.7 144.45 Q566.2 141.6 576.8 134"/>
    <path stroke="none" fill="#D4CBB9" d="M576.8 134 Q566.2 141.6 553.7 144.45 552.95 119 543.35 105.1 L541.25 102.25 Q551.75 92.7 567.15 97.95 574.45 117.6 576.8 134"/>
    <path stroke="none" fill="#E2DAC9" d="M577.4 138.95 L577.85 147.75 553.7 151.2 553.75 149.5 553.75 146.75 577.4 138.95"/>
    <path stroke="none" fill="#D7BF94" d="M413.7 144.45 Q412.95 119 403.35 105.1 L401.25 102.25 Q411.75 92.7 427.15 97.95 434.45 117.6 436.8 134 426.2 141.6 413.7 144.45"/>
    <path stroke="none" fill="#E2CBA2" d="M437.4 138.95 L437.85 147.75 413.7 151.2 413.75 149.5 413.75 146.75 437.4 138.95"/>
    <path stroke="none" fill="#C4AD83" d="M437.4 138.95 L413.75 146.75 413.7 144.45 Q426.2 141.6 436.8 134 L437.4 138.95"/>
    <path stroke="none" fill="#C4AD83" d="M374.05 127.9 Q386.15 125.5 395.95 119.65 L396.95 123.9 374.3 129.25 374.05 127.9"/>
    <path stroke="none" fill="#E2CBA2" d="M396.95 123.9 L398.4 131.35 375.1 135.25 374.3 129.25 396.95 123.9"/>
    <path stroke="none" fill="#D7BF94" d="M374.05 127.9 Q371.55 114.05 365.35 105.1 L363.25 102.25 Q373.75 92.7 389.15 97.95 393.35 109.35 395.95 119.65 386.15 125.5 374.05 127.9"/>
    <path stroke="none" fill="#C4AD83" d="M356.55 114.45 L357.55 118.15 335.65 125.7 335.3 124.15 Q347.05 120.95 356.55 114.45"/>
    <path stroke="none" fill="#D7BF94" d="M356.55 114.45 Q347.05 120.95 335.3 124.15 332.7 112.85 327.35 105.1 L325.25 102.25 Q335.75 92.7 351.15 97.95 354.3 106.5 356.55 114.45"/>
    <path stroke="none" fill="#E2CBA2" d="M335.65 125.7 L357.55 118.15 359.45 126.35 336.6 130.85 335.65 125.7"/>
    <path stroke="none" fill="#D7BF94" d="M328.5 74.05 Q339.45 78.15 352.25 77.55 365.05 78.15 376 74.05 L377.7 78.45 Q367.9 86.1 352.5 86.1 336.6 86.1 326.8 78.45 L328.5 74.05"/>
    <path stroke="none" fill="#AF9360" d="M328.5 74.05 L328.5 70.85 Q340.1 72.75 351.75 72.7 L352.25 72.7 352.75 72.7 Q364.4 72.75 376 70.85 L376 74.05 Q365.05 78.15 352.25 77.55 339.45 78.15 328.5 74.05"/>
    <path stroke="none" fill="#D7BF94" d="M388.5 74.05 Q399.45 78.15 412.25 77.55 425.05 78.15 436 74.05 L437.7 78.45 Q427.9 86.1 412.5 86.1 396.6 86.1 386.8 78.45 L388.5 74.05"/>
    <path stroke="none" fill="#9A7D49" d="M388.5 74.05 L388.5 70.85 Q400.1 72.75 411.75 72.7 L412.25 72.7 412.75 72.7 Q424.4 72.75 436 70.85 L436 74.05 Q425.05 78.15 412.25 77.55 399.45 78.15 388.5 74.05"/>
    <path stroke="none" fill="#D7BF94" d="M388.5 44.05 Q399.45 48.15 412.25 47.55 425.05 48.15 436 44.05 L437.7 48.45 Q427.9 56.1 412.5 56.1 396.6 56.1 386.8 48.45 L388.5 44.05"/>
    <path stroke="none" fill="#666666" d="M388.5 44.05 L388.5 40.85 Q400.1 42.75 411.75 42.7 L412.25 42.7 412.75 42.7 Q424.4 42.75 436 40.85 L436 44.05 Q425.05 48.15 412.25 47.55 399.45 48.15 388.5 44.05"/>
    <path stroke="none" fill="#C4AD83" d="M376 44.05 Q365.05 48.15 352.25 47.55 339.45 48.15 328.5 44.05 L328.5 40.85 Q340.1 42.75 351.75 42.7 L352.25 42.7 352.75 42.7 Q364.4 42.75 376 40.85 L376 44.05"/>
    <path stroke="none" fill="#D7BF94" d="M376 44.05 L377.7 48.45 Q367.9 56.1 352.5 56.1 336.6 56.1 326.8 48.45 L328.5 44.05 Q339.45 48.15 352.25 47.55 365.05 48.15 376 44.05"/>
    <path stroke="none" fill="#79B1C9" d="M248.5 44.05 Q259.45 48.15 272.25 47.55 285.05 48.15 296 44.05 L297.7 48.45 Q287.9 56.1 272.5 56.1 256.6 56.1 246.8 48.45 L248.5 44.05"/>
    <path stroke="none" fill="#666666" d="M248.5 44.05 L248.5 40.85 Q260.1 42.75 271.75 42.7 L272.25 42.7 272.75 42.7 Q284.4 42.75 296 40.85 L296 44.05 Q285.05 48.15 272.25 47.55 259.45 48.15 248.5 44.05"/>
    <path stroke="none" fill="#79B1C9" d="M248.5 74.05 Q259.45 78.15 272.25 77.55 285.05 78.15 296 74.05 L297.7 78.45 Q287.9 86.1 272.5 86.1 256.6 86.1 246.8 78.45 L248.5 74.05"/>
    <path stroke="none" fill="#9A7D49" d="M248.5 74.05 L248.5 70.85 Q260.1 72.75 271.75 72.7 L272.25 72.7 272.75 72.7 Q284.4 72.75 296 70.85 L296 74.05 Q285.05 78.15 272.25 77.55 259.45 78.15 248.5 74.05"/>
    <path stroke="none" fill="#AF9360" d="M236 74.05 Q225.05 78.15 212.25 77.55 199.45 78.15 188.5 74.05 L188.5 70.85 Q200.1 72.75 211.75 72.7 L212.25 72.7 212.75 72.7 Q224.4 72.75 236 70.85 L236 74.05"/>
    <path stroke="none" fill="#79B1C9" d="M236 74.05 L237.7 78.45 Q227.9 86.1 212.5 86.1 196.6 86.1 186.8 78.45 L188.5 74.05 Q199.45 78.15 212.25 77.55 225.05 78.15 236 74.05"/>
    <path stroke="none" fill="#79B1C9" d="M188.5 44.05 Q199.45 48.15 212.25 47.55 225.05 48.15 236 44.05 L237.7 48.45 Q227.9 56.1 212.5 56.1 196.6 56.1 186.8 48.45 L188.5 44.05"/>
    <path stroke="none" fill="#699FB6" d="M188.5 44.05 L188.5 40.85 Q200.1 42.75 211.75 42.7 L212.25 42.7 212.75 42.7 Q224.4 42.75 236 40.85 L236 44.05 Q225.05 48.15 212.25 47.55 199.45 48.15 188.5 44.05"/>
    <path stroke="none" fill="#8FC4DB" d="M195.65 125.7 L217.55 118.15 219.45 126.35 196.6 130.85 195.65 125.7"/>
    <path stroke="none" fill="#699FB6" d="M195.65 125.7 L195.3 124.15 Q207.05 120.95 216.55 114.45 L217.55 118.15 195.65 125.7"/>
    <path stroke="none" fill="#79B1C9" d="M216.55 114.45 Q207.05 120.95 195.3 124.15 192.7 112.85 187.35 105.1 L185.25 102.25 Q195.75 92.7 211.15 97.95 214.3 106.5 216.55 114.45"/>
    <path stroke="none" fill="#8FC4DB" d="M256.95 123.9 L258.4 131.35 235.1 135.25 234.3 129.25 256.95 123.9"/>
    <path stroke="none" fill="#699FB6" d="M234.05 127.9 Q246.15 125.5 255.95 119.65 L256.95 123.9 234.3 129.25 234.05 127.9"/>
    <path stroke="none" fill="#79B1C9" d="M234.05 127.9 Q231.55 114.05 225.35 105.1 L223.25 102.25 Q233.75 92.7 249.15 97.95 253.35 109.35 255.95 119.65 246.15 125.5 234.05 127.9"/>
    <path stroke="none" fill="#699FB6" d="M273.75 146.75 L273.7 144.45 Q286.2 141.6 296.8 134 L297.4 138.95 273.75 146.75"/>
    <path stroke="none" fill="#8FC4DB" d="M273.75 146.75 L297.4 138.95 Q297.8 143.35 297.85 147.75 L273.7 151.2 273.75 149.5 273.75 146.75"/>
    <path stroke="none" fill="#79B1C9" d="M273.7 144.45 Q272.95 119 263.35 105.1 L261.25 102.25 Q271.75 92.7 287.15 97.95 294.45 117.6 296.8 134 286.2 141.6 273.7 144.45"/>
    <path stroke="none" fill="#EEEEEE" d="M48.5 174.05 Q59.45 178.15 72.25 177.55 85.05 178.15 96 174.05 L97.7 178.45 Q87.9 186.1 72.5 186.1 56.6 186.1 46.8 178.45 L48.5 174.05"/>
    <path stroke="none" fill="#D2D2D2" d="M48.5 174.05 L48.5 170.85 Q60.1 172.75 71.75 172.7 L72.25 172.7 72.75 172.7 Q84.4 172.75 96 170.85 L96 174.05 Q85.05 178.15 72.25 177.55 59.45 178.15 48.5 174.05"/>
    <path stroke="none" fill="#EEEEEE" d="M108.5 174.05 Q119.45 178.15 132.25 177.55 145.05 178.15 156 174.05 L157.7 178.45 Q147.9 186.1 132.5 186.1 116.6 186.1 106.8 178.45 L108.5 174.05"/>
    <path stroke="none" fill="#666666" d="M108.5 174.05 L108.5 170.85 Q120.1 172.75 131.75 172.7 L132.25 172.7 132.75 172.7 Q144.4 172.75 156 170.85 L156 174.05 Q145.05 178.15 132.25 177.55 119.45 178.15 108.5 174.05"/>
    <path stroke="none" fill="#9A7D49" d="M156 204.05 Q145.05 208.15 132.25 207.55 119.45 208.15 108.5 204.05 L108.5 200.85 Q120.1 202.75 131.75 202.7 L132.25 202.7 132.75 202.7 Q144.4 202.75 156 200.85 L156 204.05"/>
    <path stroke="none" fill="#EEEEEE" d="M156 204.05 L157.7 208.45 Q147.9 216.1 132.5 216.1 116.6 216.1 106.8 208.45 L108.5 204.05 Q119.45 208.15 132.25 207.55 145.05 208.15 156 204.05"/>
    <path stroke="none" fill="#AF9360" d="M96 204.05 Q85.05 208.15 72.25 207.55 59.45 208.15 48.5 204.05 L48.5 200.85 Q60.1 202.75 71.75 202.7 L72.25 202.7 72.75 202.7 Q84.4 202.75 96 200.85 L96 204.05"/>
    <path stroke="none" fill="#EEEEEE" d="M96 204.05 L97.7 208.45 Q87.9 216.1 72.5 216.1 56.6 216.1 46.8 208.45 L48.5 204.05 Q59.45 208.15 72.25 207.55 85.05 208.15 96 204.05"/>
    <path stroke="none" fill="#EEEEEE" d="M55.3 254.15 Q52.7 242.85 47.35 235.1 L45.25 232.25 Q55.75 222.7 71.15 227.95 74.3 236.5 76.55 244.45 67.05 250.95 55.3 254.15"/>
    <path stroke="none" fill="#D2D2D2" d="M55.3 254.15 Q67.05 250.95 76.55 244.45 L77.55 248.15 55.65 255.7 55.3 254.15"/>
    <path stroke="none" fill="#FFFFFF" d="M77.55 248.15 L79.45 256.35 56.6 260.85 55.65 255.7 77.55 248.15"/>
    <path stroke="none" fill="#EEEEEE" d="M94.05 257.9 Q91.55 244.05 85.35 235.1 L83.25 232.25 Q93.75 222.7 109.15 227.95 113.35 239.35 115.95 249.65 106.15 255.5 94.05 257.9"/>
    <path stroke="none" fill="#D2D2D2" d="M94.05 257.9 Q106.15 255.5 115.95 249.65 L116.95 253.9 94.3 259.25 94.05 257.9"/>
    <path stroke="none" fill="#FFFFFF" d="M116.95 253.9 L118.4 261.35 95.1 265.25 94.3 259.25 116.95 253.9"/>
    <path stroke="none" fill="#D2D2D2" d="M133.7 274.45 Q146.2 271.6 156.8 264 L157.4 268.95 133.75 276.75 133.7 274.45"/>
    <path stroke="none" fill="#FFFFFF" d="M133.75 276.75 L157.4 268.95 Q157.8 273.35 157.85 277.75 L133.7 281.2 133.75 279.5 133.75 276.75"/>
    <path stroke="none" fill="#EEEEEE" d="M156.8 264 Q146.2 271.6 133.7 274.45 132.95 249 123.35 235.1 L121.25 232.25 Q131.75 222.7 147.15 227.95 154.45 247.6 156.8 264"/>
    <path stroke="none" fill="#3498DB" d="M188.5 174.05 Q199.45 178.15 212.25 177.55 225.05 178.15 236 174.05 L237.7 178.45 Q227.9 186.1 212.5 186.1 196.6 186.1 186.8 178.45 L188.5 174.05"/>
    <path stroke="none" fill="#2A81BB" d="M188.5 174.05 L188.5 170.85 Q200.1 172.75 211.75 172.7 L212.25 172.7 212.75 172.7 Q224.4 172.75 236 170.85 L236 174.05 Q225.05 178.15 212.25 177.55 199.45 178.15 188.5 174.05"/>
    <path stroke="none" fill="#666666" d="M296 174.05 Q285.05 178.15 272.25 177.55 259.45 178.15 248.5 174.05 L248.5 170.85 Q260.1 172.75 271.75 172.7 L272.25 172.7 272.75 172.7 Q284.4 172.75 296 170.85 L296 174.05"/>
    <path stroke="none" fill="#3498DB" d="M296 174.05 L297.7 178.45 Q287.9 186.1 272.5 186.1 256.6 186.1 246.8 178.45 L248.5 174.05 Q259.45 178.15 272.25 177.55 285.05 178.15 296 174.05"/>
    <path stroke="none" fill="#9A7D49" d="M296 204.05 Q285.05 208.15 272.25 207.55 259.45 208.15 248.5 204.05 L248.5 200.85 Q260.1 202.75 271.75 202.7 L272.25 202.7 272.75 202.7 Q284.4 202.75 296 200.85 L296 204.05"/>
    <path stroke="none" fill="#3498DB" d="M296 204.05 L297.7 208.45 Q287.9 216.1 272.5 216.1 256.6 216.1 246.8 208.45 L248.5 204.05 Q259.45 208.15 272.25 207.55 285.05 208.15 296 204.05"/>
    <path stroke="none" fill="#AF9360" d="M236 204.05 Q225.05 208.15 212.25 207.55 199.45 208.15 188.5 204.05 L188.5 200.85 Q200.1 202.75 211.75 202.7 L212.25 202.7 212.75 202.7 Q224.4 202.75 236 200.85 L236 204.05"/>
    <path stroke="none" fill="#3498DB" d="M236 204.05 L237.7 208.45 Q227.9 216.1 212.5 216.1 196.6 216.1 186.8 208.45 L188.5 204.05 Q199.45 208.15 212.25 207.55 225.05 208.15 236 204.05"/>
    <path stroke="none" fill="#3498DB" d="M195.3 254.15 Q192.7 242.85 187.35 235.1 L185.25 232.25 Q195.75 222.7 211.15 227.95 214.3 236.5 216.55 244.45 207.05 250.95 195.3 254.15"/>
    <path stroke="none" fill="#3EA5E9" d="M217.55 248.15 L219.45 256.35 196.6 260.85 195.65 255.7 217.55 248.15"/>
    <path stroke="none" fill="#2A81BB" d="M195.3 254.15 Q207.05 250.95 216.55 244.45 L217.55 248.15 195.65 255.7 195.3 254.15"/>
    <path stroke="none" fill="#3EA5E9" d="M234.3 259.25 L256.95 253.9 258.4 261.35 235.1 265.25 234.3 259.25"/>
    <path stroke="none" fill="#2A81BB" d="M234.3 259.25 L234.05 257.9 Q246.15 255.5 255.95 249.65 L256.95 253.9 234.3 259.25"/>
    <path stroke="none" fill="#3498DB" d="M255.95 249.65 Q246.15 255.5 234.05 257.9 231.55 244.05 225.35 235.1 L223.25 232.25 Q233.75 222.7 249.15 227.95 253.35 239.35 255.95 249.65"/>
    <path stroke="none" fill="#3498DB" d="M273.7 274.45 Q272.95 249 263.35 235.1 L261.25 232.25 Q271.75 222.7 287.15 227.95 294.45 247.6 296.8 264 286.2 271.6 273.7 274.45"/>
    <path stroke="none" fill="#2A81BB" d="M273.7 274.45 Q286.2 271.6 296.8 264 L297.4 268.95 273.75 276.75 273.7 274.45"/>
    <path stroke="none" fill="#3EA5E9" d="M297.4 268.95 Q297.8 273.35 297.85 277.75 L273.7 281.2 273.75 279.5 273.75 276.75 297.4 268.95"/>
    <path stroke="none" fill="#529C39" d="M376 174.05 Q365.05 178.15 352.25 177.55 339.45 178.15 328.5 174.05 L328.5 170.85 Q340.1 172.75 351.75 172.7 L352.25 172.7 352.75 172.7 Q364.4 172.75 376 170.85 L376 174.05"/>
    <path stroke="none" fill="#63B448" d="M376 174.05 L377.7 178.45 Q367.9 186.1 352.5 186.1 336.6 186.1 326.8 178.45 L328.5 174.05 Q339.45 178.15 352.25 177.55 365.05 178.15 376 174.05"/>
    <path stroke="none" fill="#666666" d="M436 174.05 Q425.05 178.15 412.25 177.55 399.45 178.15 388.5 174.05 L388.5 170.85 Q400.1 172.75 411.75 172.7 L412.25 172.7 412.75 172.7 Q424.4 172.75 436 170.85 L436 174.05"/>
    <path stroke="none" fill="#63B448" d="M436 174.05 L437.7 178.45 Q427.9 186.1 412.5 186.1 396.6 186.1 386.8 178.45 L388.5 174.05 Q399.45 178.15 412.25 177.55 425.05 178.15 436 174.05"/>
    <path stroke="none" fill="#AF9360" d="M376 204.05 Q365.05 208.15 352.25 207.55 339.45 208.15 328.5 204.05 L328.5 200.85 Q340.1 202.75 351.75 202.7 L352.25 202.7 352.75 202.7 Q364.4 202.75 376 200.85 L376 204.05"/>
    <path stroke="none" fill="#63B448" d="M376 204.05 L377.7 208.45 Q367.9 216.1 352.5 216.1 336.6 216.1 326.8 208.45 L328.5 204.05 Q339.45 208.15 352.25 207.55 365.05 208.15 376 204.05"/>
    <path stroke="none" fill="#9A7D49" d="M436 204.05 Q425.05 208.15 412.25 207.55 399.45 208.15 388.5 204.05 L388.5 200.85 Q400.1 202.75 411.75 202.7 L412.25 202.7 412.75 202.7 Q424.4 202.75 436 200.85 L436 204.05"/>
    <path stroke="none" fill="#63B448" d="M436 204.05 L437.7 208.45 Q427.9 216.1 412.5 216.1 396.6 216.1 386.8 208.45 L388.5 204.05 Q399.45 208.15 412.25 207.55 425.05 208.15 436 204.05"/>
    <path stroke="none" fill="#63B448" d="M335.3 254.15 Q332.7 242.85 327.35 235.1 L325.25 232.25 Q335.75 222.7 351.15 227.95 354.3 236.5 356.55 244.45 347.05 250.95 335.3 254.15"/>
    <path stroke="none" fill="#529C39" d="M335.3 254.15 Q347.05 250.95 356.55 244.45 L357.55 248.15 335.65 255.7 335.3 254.15"/>
    <path stroke="none" fill="#77C25E" d="M357.55 248.15 L359.45 256.35 336.6 260.85 335.65 255.7 357.55 248.15"/>
    <path stroke="none" fill="#529C39" d="M396.95 253.9 L374.3 259.25 374.05 257.9 Q386.15 255.5 395.95 249.65 L396.95 253.9"/>
    <path stroke="none" fill="#63B448" d="M395.95 249.65 Q386.15 255.5 374.05 257.9 371.55 244.05 365.35 235.1 L363.25 232.25 Q373.75 222.7 389.15 227.95 393.35 239.35 395.95 249.65"/>
    <path stroke="none" fill="#77C25E" d="M374.3 259.25 L396.95 253.9 398.4 261.35 375.1 265.25 374.3 259.25"/>
    <path stroke="none" fill="#529C39" d="M413.7 274.45 Q426.2 271.6 436.8 264 L437.4 268.95 413.75 276.75 413.7 274.45"/>
    <path stroke="none" fill="#77C25E" d="M413.75 276.75 L437.4 268.95 437.85 277.75 413.7 281.2 413.75 279.5 413.75 276.75"/>
    <path stroke="none" fill="#63B448" d="M436.8 264 Q426.2 271.6 413.7 274.45 412.95 249 403.35 235.1 L401.25 232.25 Q411.75 222.7 427.15 227.95 434.45 247.6 436.8 264"/>
    <path stroke="none" fill="#E05848" d="M475.3 254.15 Q472.7 242.85 467.35 235.1 L465.25 232.25 Q475.75 222.7 491.15 227.95 494.3 236.5 496.55 244.45 487.05 250.95 475.3 254.15"/>
    <path stroke="none" fill="#EC6656" d="M497.55 248.15 L499.45 256.35 476.6 260.85 475.65 255.7 497.55 248.15"/>
    <path stroke="none" fill="#BF493B" d="M497.55 248.15 L475.65 255.7 475.3 254.15 Q487.05 250.95 496.55 244.45 L497.55 248.15"/>
    <path stroke="none" fill="#E05848" d="M514.05 257.9 Q511.55 244.05 505.35 235.1 L503.25 232.25 Q513.75 222.7 529.15 227.95 533.35 239.35 535.95 249.65 526.15 255.5 514.05 257.9"/>
    <path stroke="none" fill="#BF493B" d="M514.05 257.9 Q526.15 255.5 535.95 249.65 L536.95 253.9 514.3 259.25 514.05 257.9"/>
    <path stroke="none" fill="#EC6656" d="M536.95 253.9 L538.4 261.35 515.1 265.25 514.3 259.25 536.95 253.9"/>
    <path stroke="none" fill="#EC6656" d="M553.75 276.75 L577.4 268.95 577.85 277.75 553.7 281.2 553.75 279.5 553.75 276.75"/>
    <path stroke="none" fill="#BF493B" d="M553.75 276.75 L553.7 274.45 Q566.2 271.6 576.8 264 L577.4 268.95 553.75 276.75"/>
    <path stroke="none" fill="#E05848" d="M576.8 264 Q566.2 271.6 553.7 274.45 552.95 249 543.35 235.1 L541.25 232.25 Q551.75 222.7 567.15 227.95 574.45 247.6 576.8 264"/>
    <path stroke="none" fill="#9A7D49" d="M576 204.05 Q565.05 208.15 552.25 207.55 539.45 208.15 528.5 204.05 L528.5 200.85 Q540.1 202.75 551.75 202.7 L552.25 202.7 552.75 202.7 Q564.4 202.75 576 200.85 L576 204.05"/>
    <path stroke="none" fill="#E05848" d="M576 204.05 L577.7 208.45 Q567.9 216.1 552.5 216.1 536.6 216.1 526.8 208.45 L528.5 204.05 Q539.45 208.15 552.25 207.55 565.05 208.15 576 204.05"/>
    <path stroke="none" fill="#AF9360" d="M516 204.05 Q505.05 208.15 492.25 207.55 479.45 208.15 468.5 204.05 L468.5 200.85 Q480.1 202.75 491.75 202.7 L492.25 202.7 492.75 202.7 Q504.4 202.75 516 200.85 L516 204.05"/>
    <path stroke="none" fill="#E05848" d="M516 204.05 L517.7 208.45 Q507.9 216.1 492.5 216.1 476.6 216.1 466.8 208.45 L468.5 204.05 Q479.45 208.15 492.25 207.55 505.05 208.15 516 204.05"/>
    <path stroke="none" fill="#BF493B" d="M516 174.05 Q505.05 178.15 492.25 177.55 479.45 178.15 468.5 174.05 L468.5 170.85 Q480.1 172.75 491.75 172.7 L492.25 172.7 492.75 172.7 Q504.4 172.75 516 170.85 L516 174.05"/>
    <path stroke="none" fill="#E05848" d="M516 174.05 L517.7 178.45 Q507.9 186.1 492.5 186.1 476.6 186.1 466.8 178.45 L468.5 174.05 Q479.45 178.15 492.25 177.55 505.05 178.15 516 174.05"/>
    <path stroke="none" fill="#E05848" d="M528.5 174.05 Q539.45 178.15 552.25 177.55 565.05 178.15 576 174.05 L577.7 178.45 Q567.9 186.1 552.5 186.1 536.6 186.1 526.8 178.45 L528.5 174.05"/>
    <path stroke="none" fill="#666666" d="M528.5 174.05 L528.5 170.85 Q540.1 172.75 551.75 172.7 L552.25 172.7 552.75 172.7 Q564.4 172.75 576 170.85 L576 174.05 Q565.05 178.15 552.25 177.55 539.45 178.15 528.5 174.05"/>
    <path stroke="none" fill="#FFCC00" d="M528.5 304.05 Q539.45 308.15 552.25 307.55 565.05 308.15 576 304.05 L577.7 308.45 Q567.9 316.1 552.5 316.1 536.6 316.1 526.8 308.45 L528.5 304.05"/>
    <path stroke="none" fill="#666666" d="M528.5 304.05 L528.5 300.85 Q540.1 302.75 551.75 302.7 L552.25 302.7 552.75 302.7 Q564.4 302.75 576 300.85 L576 304.05 Q565.05 308.15 552.25 307.55 539.45 308.15 528.5 304.05"/>
    <path stroke="none" fill="#9A7D49" d="M576 334.05 Q565.05 338.15 552.25 337.55 539.45 338.15 528.5 334.05 L528.5 330.85 Q540.1 332.75 551.75 332.7 L552.25 332.7 552.75 332.7 Q564.4 332.75 576 330.85 L576 334.05"/>
    <path stroke="none" fill="#FFCC00" d="M576 334.05 L577.7 338.45 Q567.9 346.1 552.5 346.1 536.6 346.1 526.8 338.45 L528.5 334.05 Q539.45 338.15 552.25 337.55 565.05 338.15 576 334.05"/>
    <path stroke="none" fill="#AF9360" d="M516 334.05 Q505.05 338.15 492.25 337.55 479.45 338.15 468.5 334.05 L468.5 330.85 Q480.1 332.75 491.75 332.7 L492.25 332.7 492.75 332.7 Q504.4 332.75 516 330.85 L516 334.05"/>
    <path stroke="none" fill="#FFCC00" d="M516 334.05 L517.7 338.45 Q507.9 346.1 492.5 346.1 476.6 346.1 466.8 338.45 L468.5 334.05 Q479.45 338.15 492.25 337.55 505.05 338.15 516 334.05"/>
    <path stroke="none" fill="#E7B900" d="M516 304.05 Q505.05 308.15 492.25 307.55 479.45 308.15 468.5 304.05 L468.5 300.85 Q480.1 302.75 491.75 302.7 L492.25 302.7 492.75 302.7 Q504.4 302.75 516 300.85 L516 304.05"/>
    <path stroke="none" fill="#FFCC00" d="M516 304.05 L517.7 308.45 Q507.9 316.1 492.5 316.1 476.6 316.1 466.8 308.45 L468.5 304.05 Q479.45 308.15 492.25 307.55 505.05 308.15 516 304.05"/>
    <path stroke="none" fill="#E7B900" d="M475.3 384.15 Q487.05 380.95 496.55 374.45 L497.55 378.15 475.65 385.7 475.3 384.15"/>
    <path stroke="none" fill="#FFDB4F" d="M497.55 378.15 L499.45 386.35 476.6 390.85 475.65 385.7 497.55 378.15"/>
    <path stroke="none" fill="#FFCC00" d="M475.3 384.15 Q472.7 372.85 467.35 365.1 L465.25 362.25 Q475.75 352.7 491.15 357.95 494.3 366.5 496.55 374.45 487.05 380.95 475.3 384.15"/>
    <path stroke="none" fill="#FFDB4F" d="M536.95 383.9 L538.4 391.35 515.1 395.25 514.3 389.25 536.95 383.9"/>
    <path stroke="none" fill="#E7B900" d="M536.95 383.9 L514.3 389.25 514.05 387.9 Q526.15 385.5 535.95 379.65 L536.95 383.9"/>
    <path stroke="none" fill="#FFCC00" d="M514.05 387.9 Q511.55 374.05 505.35 365.1 L503.25 362.25 Q513.75 352.7 529.15 357.95 533.35 369.35 535.95 379.65 526.15 385.5 514.05 387.9"/>
    <path stroke="none" fill="#FFCC00" d="M553.7 404.45 Q552.95 379 543.35 365.1 L541.25 362.25 Q551.75 352.7 567.15 357.95 574.45 377.6 576.8 394 566.2 401.6 553.7 404.45"/>
    <path stroke="none" fill="#FFDB4F" d="M577.4 398.95 L577.85 407.75 553.7 411.2 553.75 409.5 553.75 406.75 577.4 398.95"/>
    <path stroke="none" fill="#E7B900" d="M577.4 398.95 L553.75 406.75 553.7 404.45 Q566.2 401.6 576.8 394 L577.4 398.95"/>
    <path stroke="none" fill="#34495E" d="M413.7 404.45 Q412.95 379 403.35 365.1 L401.25 362.25 Q411.75 352.7 427.15 357.95 434.45 377.6 436.8 394 426.2 401.6 413.7 404.45"/>
    <path stroke="none" fill="#2A3C4F" d="M413.7 404.45 Q426.2 401.6 436.8 394 L437.4 398.95 413.75 406.75 413.7 404.45"/>
    <path stroke="none" fill="#455A70" d="M437.4 398.95 L437.85 407.75 413.7 411.2 413.75 409.5 413.75 406.75 437.4 398.95"/>
    <path stroke="none" fill="#2A3C4F" d="M374.3 389.25 L374.05 387.9 Q386.15 385.5 395.95 379.65 L396.95 383.9 374.3 389.25"/>
    <path stroke="none" fill="#455A70" d="M374.3 389.25 L396.95 383.9 398.4 391.35 375.1 395.25 374.3 389.25"/>
    <path stroke="none" fill="#34495E" d="M395.95 379.65 Q386.15 385.5 374.05 387.9 371.55 374.05 365.35 365.1 L363.25 362.25 Q373.75 352.7 389.15 357.95 393.35 369.35 395.95 379.65"/>
    <path stroke="none" fill="#34495E" d="M335.3 384.15 Q332.7 372.85 327.35 365.1 L325.25 362.25 Q335.75 352.7 351.15 357.95 354.3 366.5 356.55 374.45 347.05 380.95 335.3 384.15"/>
    <path stroke="none" fill="#2A3C4F" d="M335.3 384.15 Q347.05 380.95 356.55 374.45 L357.55 378.15 335.65 385.7 335.3 384.15"/>
    <path stroke="none" fill="#455A70" d="M357.55 378.15 L359.45 386.35 336.6 390.85 335.65 385.7 357.55 378.15"/>
    <path stroke="none" fill="#AF9360" d="M376 334.05 Q365.05 338.15 352.25 337.55 339.45 338.15 328.5 334.05 L328.5 330.85 Q340.1 332.75 351.75 332.7 L352.25 332.7 352.75 332.7 Q364.4 332.75 376 330.85 L376 334.05"/>
    <path stroke="none" fill="#34495E" d="M376 334.05 L377.7 338.45 Q367.9 346.1 352.5 346.1 336.6 346.1 326.8 338.45 L328.5 334.05 Q339.45 338.15 352.25 337.55 365.05 338.15 376 334.05"/>
    <path stroke="none" fill="#2A3C4F" d="M376 304.05 Q365.05 308.15 352.25 307.55 339.45 308.15 328.5 304.05 L328.5 300.85 Q340.1 302.75 351.75 302.7 L352.25 302.7 352.75 302.7 Q364.4 302.75 376 300.85 L376 304.05"/>
    <path stroke="none" fill="#34495E" d="M376 304.05 L377.7 308.45 Q367.9 316.1 352.5 316.1 336.6 316.1 326.8 308.45 L328.5 304.05 Q339.45 308.15 352.25 307.55 365.05 308.15 376 304.05"/>
    <path stroke="none" fill="#666666" d="M436 304.05 Q425.05 308.15 412.25 307.55 399.45 308.15 388.5 304.05 L388.5 300.85 Q400.1 302.75 411.75 302.7 L412.25 302.7 412.75 302.7 Q424.4 302.75 436 300.85 L436 304.05"/>
    <path stroke="none" fill="#34495E" d="M436 304.05 L437.7 308.45 Q427.9 316.1 412.5 316.1 396.6 316.1 386.8 308.45 L388.5 304.05 Q399.45 308.15 412.25 307.55 425.05 308.15 436 304.05"/>
    <path stroke="none" fill="#9A7D49" d="M436 334.05 Q425.05 338.15 412.25 337.55 399.45 338.15 388.5 334.05 L388.5 330.85 Q400.1 332.75 411.75 332.7 L412.25 332.7 412.75 332.7 Q424.4 332.75 436 330.85 L436 334.05"/>
    <path stroke="none" fill="#34495E" d="M436 334.05 L437.7 338.45 Q427.9 346.1 412.5 346.1 396.6 346.1 386.8 338.45 L388.5 334.05 Q399.45 338.15 412.25 337.55 425.05 338.15 436 334.05"/>
    <path stroke="none" fill="#666666" d="M296 304.05 Q285.05 308.15 272.25 307.55 259.45 308.15 248.5 304.05 L248.5 300.85 Q260.1 302.75 271.75 302.7 L272.25 302.7 272.75 302.7 Q284.4 302.75 296 300.85 L296 304.05"/>
    <path stroke="none" fill="#95A5A6" d="M296 304.05 L297.7 308.45 Q287.9 316.1 272.5 316.1 256.6 316.1 246.8 308.45 L248.5 304.05 Q259.45 308.15 272.25 307.55 285.05 308.15 296 304.05"/>
    <path stroke="none" fill="#95A5A6" d="M188.5 304.05 Q199.45 308.15 212.25 307.55 225.05 308.15 236 304.05 L237.7 308.45 Q227.9 316.1 212.5 316.1 196.6 316.1 186.8 308.45 L188.5 304.05"/>
    <path stroke="none" fill="#7B8F91" d="M188.5 304.05 L188.5 300.85 Q200.1 302.75 211.75 302.7 L212.25 302.7 212.75 302.7 Q224.4 302.75 236 300.85 L236 304.05 Q225.05 308.15 212.25 307.55 199.45 308.15 188.5 304.05"/>
    <path stroke="none" fill="#95A5A6" d="M188.5 334.05 Q199.45 338.15 212.25 337.55 225.05 338.15 236 334.05 L237.7 338.45 Q227.9 346.1 212.5 346.1 196.6 346.1 186.8 338.45 L188.5 334.05"/>
    <path stroke="none" fill="#AF9360" d="M188.5 334.05 L188.5 330.85 Q200.1 332.75 211.75 332.7 L212.25 332.7 212.75 332.7 Q224.4 332.75 236 330.85 L236 334.05 Q225.05 338.15 212.25 337.55 199.45 338.15 188.5 334.05"/>
    <path stroke="none" fill="#9A7D49" d="M296 334.05 Q285.05 338.15 272.25 337.55 259.45 338.15 248.5 334.05 L248.5 330.85 Q260.1 332.75 271.75 332.7 L272.25 332.7 272.75 332.7 Q284.4 332.75 296 330.85 L296 334.05"/>
    <path stroke="none" fill="#95A5A6" d="M296 334.05 L297.7 338.45 Q287.9 346.1 272.5 346.1 256.6 346.1 246.8 338.45 L248.5 334.05 Q259.45 338.15 272.25 337.55 285.05 338.15 296 334.05"/>
    <path stroke="none" fill="#7B8F91" d="M234.05 387.9 Q246.15 385.5 255.95 379.65 L256.95 383.9 234.3 389.25 234.05 387.9"/>
    <path stroke="none" fill="#AAB3B4" d="M256.95 383.9 L258.4 391.35 235.1 395.25 234.3 389.25 256.95 383.9"/>
    <path stroke="none" fill="#95A5A6" d="M234.05 387.9 Q231.55 374.05 225.35 365.1 L223.25 362.25 Q233.75 352.7 249.15 357.95 253.35 369.35 255.95 379.65 246.15 385.5 234.05 387.9"/>
    <path stroke="none" fill="#95A5A6" d="M273.7 404.45 Q272.95 379 263.35 365.1 L261.25 362.25 Q271.75 352.7 287.15 357.95 294.45 377.6 296.8 394 286.2 401.6 273.7 404.45"/>
    <path stroke="none" fill="#AAB3B4" d="M297.4 398.95 Q297.8 403.35 297.85 407.75 L273.7 411.2 273.75 409.5 273.75 406.75 297.4 398.95"/>
    <path stroke="none" fill="#7B8F91" d="M273.7 404.45 Q286.2 401.6 296.8 394 L297.4 398.95 273.75 406.75 273.7 404.45"/>
    <path stroke="none" fill="#7B8F91" d="M195.3 384.15 Q207.05 380.95 216.55 374.45 L217.55 378.15 195.65 385.7 195.3 384.15"/>
    <path stroke="none" fill="#AAB3B4" d="M217.55 378.15 L219.45 386.35 196.6 390.85 195.65 385.7 217.55 378.15"/>
    <path stroke="none" fill="#95A5A6" d="M195.3 384.15 Q192.7 372.85 187.35 365.1 L185.25 362.25 Q195.75 352.7 211.15 357.95 214.3 366.5 216.55 374.45 207.05 380.95 195.3 384.15"/>
    <path stroke="none" fill="#16A085" d="M133.7 404.45 Q132.95 379 123.35 365.1 L121.25 362.25 Q131.75 352.7 147.15 357.95 154.45 377.6 156.8 394 146.2 401.6 133.7 404.45"/>
    <path stroke="none" fill="#108A72" d="M133.7 404.45 Q146.2 401.6 156.8 394 L157.4 398.95 133.75 406.75 133.7 404.45"/>
    <path stroke="none" fill="#26AF94" d="M157.4 398.95 Q157.8 403.35 157.85 407.75 L133.7 411.2 133.75 409.5 133.75 406.75 157.4 398.95"/>
    <path stroke="none" fill="#16A085" d="M94.05 387.9 Q91.55 374.05 85.35 365.1 L83.25 362.25 Q93.75 352.7 109.15 357.95 113.35 369.35 115.95 379.65 106.15 385.5 94.05 387.9"/>
    <path stroke="none" fill="#108A72" d="M94.05 387.9 Q106.15 385.5 115.95 379.65 L116.95 383.9 94.3 389.25 94.05 387.9"/>
    <path stroke="none" fill="#26AF94" d="M116.95 383.9 L118.4 391.35 95.1 395.25 94.3 389.25 116.95 383.9"/>
    <path stroke="none" fill="#16A085" d="M55.3 384.15 Q52.7 372.85 47.35 365.1 L45.25 362.25 Q55.75 352.7 71.15 357.95 74.3 366.5 76.55 374.45 67.05 380.95 55.3 384.15"/>
    <path stroke="none" fill="#108A72" d="M55.3 384.15 Q67.05 380.95 76.55 374.45 L77.55 378.15 55.65 385.7 55.3 384.15"/>
    <path stroke="none" fill="#26AF94" d="M77.55 378.15 L79.45 386.35 56.6 390.85 55.65 385.7 77.55 378.15"/>
    <path stroke="none" fill="#16A085" d="M48.5 334.05 Q59.45 338.15 72.25 337.55 85.05 338.15 96 334.05 L97.7 338.45 Q87.9 346.1 72.5 346.1 56.6 346.1 46.8 338.45 L48.5 334.05"/>
    <path stroke="none" fill="#AF9360" d="M48.5 334.05 L48.5 330.85 Q60.1 332.75 71.75 332.7 L72.25 332.7 72.75 332.7 Q84.4 332.75 96 330.85 L96 334.05 Q85.05 338.15 72.25 337.55 59.45 338.15 48.5 334.05"/>
    <path stroke="none" fill="#16A085" d="M108.5 334.05 Q119.45 338.15 132.25 337.55 145.05 338.15 156 334.05 L157.7 338.45 Q147.9 346.1 132.5 346.1 116.6 346.1 106.8 338.45 L108.5 334.05"/>
    <path stroke="none" fill="#9A7D49" d="M108.5 334.05 L108.5 330.85 Q120.1 332.75 131.75 332.7 L132.25 332.7 132.75 332.7 Q144.4 332.75 156 330.85 L156 334.05 Q145.05 338.15 132.25 337.55 119.45 338.15 108.5 334.05"/>
    <path stroke="none" fill="#16A085" d="M108.5 304.05 Q119.45 308.15 132.25 307.55 145.05 308.15 156 304.05 L157.7 308.45 Q147.9 316.1 132.5 316.1 116.6 316.1 106.8 308.45 L108.5 304.05"/>
    <path stroke="none" fill="#666666" d="M108.5 304.05 L108.5 300.85 Q120.1 302.75 131.75 302.7 L132.25 302.7 132.75 302.7 Q144.4 302.75 156 300.85 L156 304.05 Q145.05 308.15 132.25 307.55 119.45 308.15 108.5 304.05"/>
    <path stroke="none" fill="#16A085" d="M48.5 304.05 Q59.45 308.15 72.25 307.55 85.05 308.15 96 304.05 L97.7 308.45 Q87.9 316.1 72.5 316.1 56.6 316.1 46.8 308.45 L48.5 304.05"/>
    <path stroke="none" fill="#108A72" d="M48.5 304.05 L48.5 300.85 Q60.1 302.75 71.75 302.7 L72.25 302.7 72.75 302.7 Q84.4 302.75 96 300.85 L96 304.05 Q85.05 308.15 72.25 307.55 59.45 308.15 48.5 304.05"/>
  </g>
</svg>