<svg xmlns="http://www.w3.org/2000/svg" xmlns:xlink="http://www.w3.org/1999/xlink">
  <defs/>
  <g>
    <path stroke="none" fill="#EEEEEE" d="M40.9 31.5 Q45.6 34.7 52.2 34.7 58.8 34.7 63.5 31.5 67.4 28.9 68.05 25.35 L70.55 25.8 Q80.2 36.65 76.6 53 73.65 66.2 75.95 81.4 64.35 83.3 52.7 83.25 L52.2 83.25 51.7 83.25 Q40.05 83.3 28.45 81.4 30.75 66.2 27.8 53 24.2 36.65 33.85 25.8 L36.35 25.35 Q37 28.9 40.9 31.5"/>
    <path stroke="none" fill="#EEEEEE" d="M100.65 82.85 L88.45 81.4 Q90.75 66.2 87.8 53 84.2 36.65 93.85 25.8 L96.35 25.35 Q97 28.9 100.9 31.5 105.6 34.7 112.2 34.7 118.8 34.7 123.5 31.5 127.4 28.9 128.05 25.35 L130.55 25.8 Q140.2 36.65 136.6 53 133.65 66.2 135.95 81.4 L123.8 82.85 126.2 71.8 121.35 65.65 103.05 65.65 98.2 71.8 100.65 82.85"/>
    <path stroke="none" fill="#D2D2D2" d="M100.65 82.85 L98.2 71.8 103.05 65.65 121.35 65.65 126.2 71.8 123.8 82.85 112.7 83.25 112.2 83.25 111.7 83.25 100.65 82.85"/>
    <path stroke="none" fill="#EEEEEE" d="M172.2 34.7 Q178.8 34.7 183.5 31.5 187.4 28.9 188.05 25.35 L190.55 25.8 Q200.2 36.65 196.6 53 193.65 66.2 195.95 81.4 184.35 83.3 172.7 83.25 L172.2 83.25 171.7 83.25 Q160.05 83.3 148.45 81.4 150.75 66.2 147.8 53 144.2 36.65 153.85 25.8 L156.35 25.35 Q157 28.9 160.9 31.5 165.6 34.7 172.2 34.7 M189.85 42.1 L177.8 43.7 178.55 52.2 184.9 54.4 190.45 49.95 189.85 42.1"/>
    <path stroke="none" fill="#D2D2D2" d="M189.85 42.1 L190.45 49.95 184.9 54.4 178.55 52.2 177.8 43.7 189.85 42.1"/>
    <path stroke="none" fill="#EEEEEE" d="M206.85 44 Q207 33.5 213.85 25.8 L216.35 25.35 Q217 28.9 220.9 31.5 225.6 34.7 232.2 34.7 238.8 34.7 243.5 31.5 247.4 28.9 248.05 25.35 L250.55 25.8 Q257.35 33.4 257.6 43.75 L257.55 43.75 257.3 43.95 256.4 44.95 256.3 45.15 256.3 45.4 Q256.85 47.45 256.35 49.8 255.55 53.75 252.15 56 248.75 58.2 244.7 57.4 241.6 56.8 239.55 54.65 L239.25 54.5 Q239 54.5 238.9 54.65 L238.35 55.15 238.15 55.45 238.25 55.8 Q240.8 59.25 245.1 60.1 249.8 61 253.85 58.45 L255.9 56.75 Q253.95 68.35 255.95 81.4 244.35 83.3 232.7 83.25 L232.2 83.25 231.7 83.25 Q220.05 83.3 208.45 81.4 210.5 67.95 208.4 56.05 209.5 57.4 211.1 58.45 215.1 61 219.8 60.1 224.1 59.25 226.65 55.8 L226.75 55.45 226.6 55.15 226.05 54.65 225.7 54.5 Q225.5 54.5 225.35 54.65 223.3 56.8 220.2 57.4 216.15 58.2 212.8 56 209.35 53.75 208.55 49.8 208.05 47.45 208.65 45.4 L208.65 45.15 208.55 44.95 207.65 43.95 207.35 43.75 207.05 43.8 206.85 44"/>
    <path stroke="none" fill="#D2D2D2" d="M206.85 44 L207.05 43.8 207.35 43.75 207.65 43.95 208.55 44.95 208.65 45.15 208.65 45.4 Q208.05 47.45 208.55 49.8 209.35 53.75 212.8 56 216.15 58.2 220.2 57.4 223.3 56.8 225.35 54.65 225.5 54.5 225.7 54.5 L226.05 54.65 226.6 55.15 226.75 55.45 226.65 55.8 Q224.1 59.25 219.8 60.1 215.1 61 211.1 58.45 209.5 57.4 208.4 56.05 206.65 53.95 206.05 51.05 205.25 47.3 206.8 44.05 L206.85 44 M255.9 56.75 L253.85 58.45 Q249.8 61 245.1 60.1 240.8 59.25 238.25 55.8 L238.15 55.45 238.35 55.15 238.9 54.65 Q239 54.5 239.25 54.5 L239.55 54.65 Q241.6 56.8 244.7 57.4 248.75 58.2 252.15 56 255.55 53.75 256.35 49.8 256.85 47.45 256.3 45.4 L256.3 45.15 256.4 44.95 257.3 43.95 257.55 43.75 257.6 43.75 257.9 43.8 258.1 44.05 Q259.65 47.3 258.85 51.05 258.15 54.4 255.9 56.75"/>
    <path stroke="none" fill="#D2D2D2" d="M319.05 68.85 L317.65 67.15 Q325.6 60.3 327.65 49.5 L331.15 53.9 Q327.8 62.1 319.05 68.85"/>
    <path stroke="none" fill="#FFFFFF" d="M319.05 68.85 Q327.8 62.1 331.15 53.9 L335 59.8 Q332 68.6 321.65 72.5 L319.05 68.85"/>
    <path stroke="none" fill="#EEEEEE" d="M317.65 67.15 Q306.25 54.05 285.75 52.7 273.9 39.5 280.35 25.35 L282.9 25.8 Q311.65 30.95 327.65 49.5 325.6 60.3 317.65 67.15"/>
    <path stroke="none" fill="#EEEEEE" d="M297.55 114.65 Q292.05 113.1 285.75 112.7 273.9 99.5 280.35 85.35 L282.9 85.8 Q295.6 88.05 305.85 93 305 104.8 297.55 114.65"/>
    <path stroke="none" fill="#D2D2D2" d="M297.55 114.65 Q305 104.8 305.85 93 307.95 94 310 95.15 307 106.65 299.5 115.25 L297.55 114.65"/>
    <path stroke="none" fill="#FFFFFF" d="M310 95.15 Q313.8 97.25 317.25 99.85 312.95 110.75 304.75 117.35 302.25 116.15 299.5 115.25 307 106.65 310 95.15"/>
    <path stroke="none" fill="#FFFFFF" d="M294.2 128.5 L300.05 130.5 Q300.25 143.65 294.2 153.85 L290.2 153.15 Q293.9 141.3 294.2 128.5"/>
    <path stroke="none" fill="#D2D2D2" d="M294.2 128.5 Q293.9 141.3 290.2 153.15 L288.55 152.95 Q291.6 139.9 290.25 127.4 L294.2 128.5"/>
    <path stroke="none" fill="#EEEEEE" d="M288.55 152.95 L285.75 152.7 Q273.9 139.5 280.35 125.35 L282.9 125.8 290.25 127.4 Q291.6 139.9 288.55 152.95"/>
    <path stroke="none" fill="#EEEEEE" d="M248.05 95.35 L250.55 95.8 Q260.2 106.65 256.6 123 253.65 136.2 255.95 151.4 244.35 153.3 232.7 153.25 L232.2 153.25 231.7 153.25 Q220.05 153.3 208.45 151.4 210.75 136.2 207.8 123 204.2 106.65 213.85 95.8 L216.35 95.35 Q217 98.9 220.9 101.5 225.6 104.7 232.2 104.7 238.8 104.7 243.5 101.5 247.4 98.9 248.05 95.35 M242 126.45 Q239.2 125.9 237.45 124 L237.1 123.85 Q236.85 123.85 236.75 124 L236.25 124.45 236.05 124.75 236.15 125.1 Q238.45 128.2 242.35 129 246.6 129.8 250.25 127.5 253.85 125.05 254.75 120.8 255.5 117.4 254.1 114.45 L253.9 114.2 253.6 114.15 253.3 114.3 252.45 115.2 252.35 115.45 252.35 115.7 Q252.85 117.55 252.4 119.65 251.7 123.2 248.65 125.2 245.6 127.15 242 126.45 M212.6 115.7 L212.6 115.45 212.5 115.2 211.65 114.3 211.35 114.15 211.05 114.2 210.8 114.45 Q209.4 117.4 210.15 120.8 211.05 125.05 214.7 127.5 218.35 129.8 222.6 129 226.45 128.2 228.75 125.1 L228.85 124.8 228.7 124.45 228.25 124 Q228.1 123.85 227.9 123.85 L227.55 124 Q225.7 125.9 222.9 126.45 219.3 127.15 216.3 125.2 213.2 123.2 212.5 119.65 212.05 117.55 212.6 115.7"/>
    <path stroke="none" fill="#D2D2D2" d="M212.6 115.7 Q212.05 117.55 212.5 119.65 213.2 123.2 216.3 125.2 219.3 127.15 222.9 126.45 225.7 125.9 227.55 124 L227.9 123.85 Q228.1 123.85 228.25 124 L228.7 124.45 228.85 124.8 228.75 125.1 Q226.45 128.2 222.6 129 218.35 129.8 214.7 127.5 211.05 125.05 210.15 120.8 209.4 117.4 210.8 114.45 L211.05 114.2 211.35 114.15 211.65 114.3 212.5 115.2 212.6 115.45 212.6 115.7 M242 126.45 Q245.6 127.15 248.65 125.2 251.7 123.2 252.4 119.65 252.85 117.55 252.35 115.7 L252.35 115.45 252.45 115.2 253.3 114.3 253.6 114.15 253.9 114.2 254.1 114.45 Q255.5 117.4 254.75 120.8 253.85 125.05 250.25 127.5 246.6 129.8 242.35 129 238.45 128.2 236.15 125.1 L236.05 124.75 236.25 124.45 236.75 124 Q236.85 123.85 237.1 123.85 L237.45 124 Q239.2 125.9 242 126.45"/>
    <path stroke="none" fill="#EEEEEE" d="M190.45 119.95 L189.85 112.1 177.8 113.7 178.55 122.2 184.9 124.4 190.45 119.95 M172.1 104.7 L172.2 104.7 Q178.8 104.7 183.5 101.5 187.4 98.9 188.05 95.35 L190.55 95.8 Q200.2 106.65 196.6 123 193.65 136.2 195.95 151.4 185.75 153.05 175.5 153.25 L172.1 104.7 M171.2 153.25 Q159.8 153.25 148.45 151.4 150.75 136.2 147.8 123 144.2 106.65 153.85 95.8 L156.35 95.35 Q157 98.9 160.9 101.5 164.9 104.25 170.35 104.65 L171.2 153.25"/>
    <path stroke="none" fill="#D2D2D2" d="M172.1 104.7 L175.5 153.25 172.7 153.25 172.2 153.25 171.7 153.25 171.2 153.25 170.35 104.65 172.1 104.7 M190.45 119.95 L184.9 124.4 178.55 122.2 177.8 113.7 189.85 112.1 190.45 119.95"/>
    <path stroke="none" fill="#EEEEEE" d="M111.2 153.25 Q99.8 153.25 88.45 151.4 90.75 136.2 87.8 123 84.2 106.65 93.85 95.8 L96.35 95.35 Q97 98.9 100.9 101.5 104.9 104.25 110.35 104.65 L111.2 153.25 M112.1 104.7 L112.2 104.7 Q118.8 104.7 123.5 101.5 127.4 98.9 128.05 95.35 L130.55 95.8 Q140.2 106.65 136.6 123 133.65 136.2 135.95 151.4 125.75 153.05 115.5 153.25 L112.1 104.7"/>
    <path stroke="none" fill="#D2D2D2" d="M112.1 104.7 L115.5 153.25 112.7 153.25 112.2 153.25 111.7 153.25 111.2 153.25 110.35 104.65 112.1 104.7"/>
    <path stroke="none" fill="#EEEEEE" d="M50.55 104.65 L52.2 104.7 53.85 104.65 56.95 111.45 70.05 98.7 68.05 95.35 70.55 95.8 Q80.2 106.65 76.6 123 73.65 136.2 75.95 151.4 64.35 153.3 52.7 153.25 L52.2 153.25 51.7 153.25 Q40.05 153.3 28.45 151.4 30.75 136.2 27.8 123 24.2 106.65 33.85 95.8 L36.35 95.35 34.35 98.7 47.45 111.45 50.55 104.65"/>
    <path stroke="none" fill="#D2D2D2" d="M68.05 95.35 L70.05 98.7 56.95 111.45 53.85 104.65 Q59.4 104.3 63.5 101.5 67.4 98.9 68.05 95.35 M50.55 104.65 L47.45 111.45 34.35 98.7 36.35 95.35 Q37 98.9 40.9 101.5 45 104.3 50.55 104.65"/>
    <path stroke="none" fill="#3498DB" d="M370.9 31.5 Q375.6 34.7 382.2 34.7 388.8 34.7 393.5 31.5 397.4 28.9 398.05 25.35 L400.55 25.8 Q410.2 36.65 406.6 53 403.65 66.2 405.95 81.4 394.35 83.3 382.7 83.25 L382.2 83.25 381.7 83.25 Q370.05 83.3 358.45 81.4 360.75 66.2 357.8 53 354.2 36.65 363.85 25.8 L366.35 25.35 Q367 28.9 370.9 31.5"/>
    <path stroke="none" fill="#3498DB" d="M398.05 95.35 L400.55 95.8 Q410.2 106.65 406.6 123 403.65 136.2 405.95 151.4 394.35 153.3 382.7 153.25 L382.2 153.25 381.7 153.25 Q370.05 153.3 358.45 151.4 360.75 136.2 357.8 123 354.2 106.65 363.85 95.8 L366.35 95.35 364.35 98.7 377.45 111.45 380.55 104.65 382.2 104.7 383.85 104.65 386.95 111.45 400.05 98.7 398.05 95.35"/>
    <path stroke="none" fill="#2A81BB" d="M398.05 95.35 L400.05 98.7 386.95 111.45 383.85 104.65 Q389.4 104.3 393.5 101.5 397.4 98.9 398.05 95.35 M380.55 104.65 L377.45 111.45 364.35 98.7 366.35 95.35 Q367 98.9 370.9 101.5 375 104.3 380.55 104.65"/>
    <path stroke="none" fill="#3498DB" d="M441.2 153.25 Q429.8 153.25 418.45 151.4 420.75 136.2 417.8 123 414.2 106.65 423.85 95.8 L426.35 95.35 Q427 98.9 430.9 101.5 434.9 104.25 440.35 104.65 L441.2 153.25 M442.1 104.7 L442.2 104.7 Q448.8 104.7 453.5 101.5 457.4 98.9 458.05 95.35 L460.55 95.8 Q470.2 106.65 466.6 123 463.65 136.2 465.95 151.4 455.75 153.05 445.5 153.25 L442.1 104.7"/>
    <path stroke="none" fill="#2A81BB" d="M442.1 104.7 L445.5 153.25 442.7 153.25 442.2 153.25 441.7 153.25 441.2 153.25 440.35 104.65 442.1 104.7"/>
    <path stroke="none" fill="#3498DB" d="M502.1 104.7 L502.2 104.7 Q508.8 104.7 513.5 101.5 517.4 98.9 518.05 95.35 L520.55 95.8 Q530.2 106.65 526.6 123 523.65 136.2 525.95 151.4 515.75 153.05 505.5 153.25 L502.1 104.7 M501.2 153.25 Q489.8 153.25 478.45 151.4 480.75 136.2 477.8 123 474.2 106.65 483.85 95.8 L486.35 95.35 Q487 98.9 490.9 101.5 494.9 104.25 500.35 104.65 L501.2 153.25 M520.45 119.95 L519.85 112.1 507.8 113.7 508.55 122.2 514.9 124.4 520.45 119.95"/>
    <path stroke="none" fill="#2A81BB" d="M520.45 119.95 L514.9 124.4 508.55 122.2 507.8 113.7 519.85 112.1 520.45 119.95 M502.1 104.7 L505.5 153.25 502.7 153.25 502.2 153.25 501.7 153.25 501.2 153.25 500.35 104.65 502.1 104.7"/>
    <path stroke="none" fill="#3498DB" d="M578.05 95.35 L580.55 95.8 Q590.2 106.65 586.6 123 583.65 136.2 585.95 151.4 574.35 153.3 562.7 153.25 L562.2 153.25 561.7 153.25 Q550.05 153.3 538.45 151.4 540.75 136.2 537.8 123 534.2 106.65 543.85 95.8 L546.35 95.35 Q547 98.9 550.9 101.5 555.6 104.7 562.2 104.7 568.8 104.7 573.5 101.5 577.4 98.9 578.05 95.35 M566.75 124 L566.25 124.45 566.05 124.75 566.15 125.1 Q568.45 128.2 572.35 129 576.6 129.8 580.25 127.5 583.85 125.05 584.75 120.8 585.5 117.4 584.1 114.45 L583.9 114.2 583.6 114.15 583.3 114.3 582.45 115.2 582.35 115.45 582.35 115.7 Q582.85 117.55 582.4 119.65 581.7 123.2 578.65 125.2 575.6 127.15 572 126.45 569.2 125.9 567.45 124 L567.1 123.85 Q566.85 123.85 566.75 124 M542.5 119.65 Q542.05 117.55 542.6 115.7 L542.6 115.45 542.5 115.2 541.65 114.3 541.35 114.15 541.05 114.2 540.8 114.45 Q539.4 117.4 540.15 120.8 541.05 125.05 544.7 127.5 548.35 129.8 552.6 129 556.45 128.2 558.75 125.1 L558.85 124.8 558.7 124.45 558.25 124 Q558.1 123.85 557.9 123.85 557.7 123.85 557.55 124 555.7 125.9 552.9 126.45 549.3 127.15 546.3 125.2 543.2 123.2 542.5 119.65"/>
    <path stroke="none" fill="#2A81BB" d="M542.5 119.65 Q543.2 123.2 546.3 125.2 549.3 127.15 552.9 126.45 555.7 125.9 557.55 124 557.7 123.85 557.9 123.85 558.1 123.85 558.25 124 L558.7 124.45 558.85 124.8 558.75 125.1 Q556.45 128.2 552.6 129 548.35 129.8 544.7 127.5 541.05 125.05 540.15 120.8 539.4 117.4 540.8 114.45 L541.05 114.2 541.35 114.15 541.65 114.3 542.5 115.2 542.6 115.45 542.6 115.7 Q542.05 117.55 542.5 119.65 M566.75 124 Q566.85 123.85 567.1 123.85 L567.45 124 Q569.2 125.9 572 126.45 575.6 127.15 578.65 125.2 581.7 123.2 582.4 119.65 582.85 117.55 582.35 115.7 L582.35 115.45 582.45 115.2 583.3 114.3 583.6 114.15 583.9 114.2 584.1 114.45 Q585.5 117.4 584.75 120.8 583.85 125.05 580.25 127.5 576.6 129.8 572.35 129 568.45 128.2 566.15 125.1 L566.05 124.75 566.25 124.45 566.75 124"/>
    <path stroke="none" fill="#3498DB" d="M536.85 44 Q537 33.5 543.85 25.8 L546.35 25.35 Q547 28.9 550.9 31.5 555.6 34.7 562.2 34.7 568.8 34.7 573.5 31.5 577.4 28.9 578.05 25.35 L580.55 25.8 Q587.35 33.4 587.6 43.75 L587.55 43.75 587.3 43.95 586.4 44.95 586.3 45.15 586.3 45.4 Q586.85 47.45 586.35 49.8 585.55 53.75 582.15 56 578.75 58.2 574.7 57.4 571.6 56.8 569.55 54.65 L569.25 54.5 Q569 54.5 568.9 54.65 L568.35 55.15 568.15 55.45 568.25 55.8 Q570.8 59.25 575.1 60.1 579.8 61 583.85 58.45 L585.9 56.75 Q583.95 68.35 585.95 81.4 574.35 83.3 562.7 83.25 L562.2 83.25 561.7 83.25 Q550.05 83.3 538.45 81.4 540.5 67.95 538.4 56.05 539.5 57.4 541.1 58.45 545.1 61 549.8 60.1 554.1 59.25 556.65 55.8 L556.75 55.45 556.6 55.15 556.05 54.65 555.7 54.5 555.35 54.65 Q553.3 56.8 550.2 57.4 546.15 58.2 542.8 56 539.35 53.75 538.55 49.8 538.05 47.45 538.65 45.4 L538.65 45.15 538.55 44.95 537.65 43.95 537.35 43.75 537.05 43.8 536.85 44"/>
    <path stroke="none" fill="#2A81BB" d="M536.85 44 L537.05 43.8 537.35 43.75 537.65 43.95 538.55 44.95 538.65 45.15 538.65 45.4 Q538.05 47.45 538.55 49.8 539.35 53.75 542.8 56 546.15 58.2 550.2 57.4 553.3 56.8 555.35 54.65 L555.7 54.5 556.05 54.65 556.6 55.15 556.75 55.45 556.65 55.8 Q554.1 59.25 549.8 60.1 545.1 61 541.1 58.45 539.5 57.4 538.4 56.05 536.65 53.95 536.05 51.05 535.25 47.3 536.8 44.05 L536.85 44 M585.9 56.75 L583.85 58.45 Q579.8 61 575.1 60.1 570.8 59.25 568.25 55.8 L568.15 55.45 568.35 55.15 568.9 54.65 Q569 54.5 569.25 54.5 L569.55 54.65 Q571.6 56.8 574.7 57.4 578.75 58.2 582.15 56 585.55 53.75 586.35 49.8 586.85 47.45 586.3 45.4 L586.3 45.15 586.4 44.95 587.3 43.95 587.55 43.75 587.6 43.75 587.9 43.8 588.1 44.05 Q589.65 47.3 588.85 51.05 588.15 54.4 585.9 56.75"/>
    <path stroke="none" fill="#3498DB" d="M490.9 31.5 Q495.6 34.7 502.2 34.7 508.8 34.7 513.5 31.5 517.4 28.9 518.05 25.35 L520.55 25.8 Q530.2 36.65 526.6 53 523.65 66.2 525.95 81.4 514.35 83.3 502.7 83.25 L502.2 83.25 501.7 83.25 Q490.05 83.3 478.45 81.4 480.75 66.2 477.8 53 474.2 36.65 483.85 25.8 L486.35 25.35 Q487 28.9 490.9 31.5 M519.85 42.1 L507.8 43.7 508.55 52.2 514.9 54.4 520.45 49.95 519.85 42.1"/>
    <path stroke="none" fill="#2A81BB" d="M519.85 42.1 L520.45 49.95 514.9 54.4 508.55 52.2 507.8 43.7 519.85 42.1"/>
    <path stroke="none" fill="#3498DB" d="M430.65 82.85 L418.45 81.4 Q420.75 66.2 417.8 53 414.2 36.65 423.85 25.8 L426.35 25.35 Q427 28.9 430.9 31.5 435.6 34.7 442.2 34.7 448.8 34.7 453.5 31.5 457.4 28.9 458.05 25.35 L460.55 25.8 Q470.2 36.65 466.6 53 463.65 66.2 465.95 81.4 L453.8 82.85 456.2 71.8 451.35 65.65 433.05 65.65 428.2 71.8 430.65 82.85"/>
    <path stroke="none" fill="#2A81BB" d="M430.65 82.85 L428.2 71.8 433.05 65.65 451.35 65.65 456.2 71.8 453.8 82.85 442.7 83.25 442.2 83.25 441.7 83.25 430.65 82.85"/>
    <path stroke="none" fill="#2A81BB" d="M649.05 68.85 L647.65 67.15 Q655.6 60.3 657.65 49.5 L661.15 53.9 Q657.8 62.1 649.05 68.85"/>
    <path stroke="none" fill="#3EA5E9" d="M649.05 68.85 Q657.8 62.1 661.15 53.9 L665 59.8 Q662 68.6 651.65 72.5 L649.05 68.85"/>
    <path stroke="none" fill="#3498DB" d="M647.65 67.15 Q636.25 54.05 615.75 52.7 603.9 39.5 610.35 25.35 L612.9 25.8 Q641.65 30.95 657.65 49.5 655.6 60.3 647.65 67.15"/>
    <path stroke="none" fill="#2A81BB" d="M635.85 93 Q637.95 94 640 95.15 637 106.65 629.5 115.25 L627.55 114.65 Q635 104.8 635.85 93"/>
    <path stroke="none" fill="#3498DB" d="M635.85 93 Q635 104.8 627.55 114.65 622.05 113.1 615.75 112.7 603.9 99.5 610.35 85.35 L612.9 85.8 Q625.6 88.05 635.85 93"/>
    <path stroke="none" fill="#3EA5E9" d="M640 95.15 Q643.8 97.25 647.25 99.85 642.95 110.75 634.75 117.35 632.25 116.15 629.5 115.25 637 106.65 640 95.15"/>
    <path stroke="none" fill="#3EA5E9" d="M624.2 128.5 L630.05 130.5 Q630.25 143.65 624.2 153.85 L620.2 153.15 Q623.9 141.3 624.2 128.5"/>
    <path stroke="none" fill="#2A81BB" d="M624.2 128.5 Q623.9 141.3 620.2 153.15 L618.55 152.95 Q621.6 139.9 620.25 127.4 L624.2 128.5"/>
    <path stroke="none" fill="#3498DB" d="M618.55 152.95 L615.75 152.7 Q603.9 139.5 610.35 125.35 L612.9 125.8 Q616.7 126.45 620.25 127.4 621.6 139.9 618.55 152.95"/>
    <path stroke="none" fill="#63B448" d="M68.05 245.35 L70.55 245.8 Q80.2 256.65 76.6 273 73.65 286.2 75.95 301.4 64.35 303.3 52.7 303.25 L52.2 303.25 51.7 303.25 Q40.05 303.3 28.45 301.4 30.75 286.2 27.8 273 24.2 256.65 33.85 245.8 L36.35 245.35 34.35 248.7 47.45 261.45 50.55 254.65 52.2 254.7 53.85 254.65 56.95 261.45 70.05 248.7 68.05 245.35"/>
    <path stroke="none" fill="#529C39" d="M68.05 245.35 L70.05 248.7 56.95 261.45 53.85 254.65 Q59.4 254.3 63.5 251.5 67.4 248.9 68.05 245.35 M50.55 254.65 L47.45 261.45 34.35 248.7 36.35 245.35 Q37 248.9 40.9 251.5 45 254.3 50.55 254.65"/>
    <path stroke="none" fill="#63B448" d="M112.1 254.7 L112.2 254.7 Q118.8 254.7 123.5 251.5 127.4 248.9 128.05 245.35 L130.55 245.8 Q140.2 256.65 136.6 273 133.65 286.2 135.95 301.4 125.75 303.05 115.5 303.25 L112.1 254.7 M111.2 303.25 Q99.8 303.25 88.45 301.4 90.75 286.2 87.8 273 84.2 256.65 93.85 245.8 L96.35 245.35 Q97 248.9 100.9 251.5 104.9 254.25 110.35 254.65 L111.2 303.25"/>
    <path stroke="none" fill="#529C39" d="M112.1 254.7 L115.5 303.25 112.7 303.25 112.2 303.25 111.7 303.25 111.2 303.25 110.35 254.65 112.1 254.7"/>
    <path stroke="none" fill="#63B448" d="M171.2 303.25 Q159.8 303.25 148.45 301.4 150.75 286.2 147.8 273 144.2 256.65 153.85 245.8 L156.35 245.35 Q157 248.9 160.9 251.5 164.9 254.25 170.35 254.65 L171.2 303.25 M172.1 254.7 L172.2 254.7 Q178.8 254.7 183.5 251.5 187.4 248.9 188.05 245.35 L190.55 245.8 Q200.2 256.65 196.6 273 193.65 286.2 195.95 301.4 185.75 303.05 175.5 303.25 L172.1 254.7 M190.45 269.95 L189.85 262.1 177.8 263.7 178.55 272.2 184.9 274.4 190.45 269.95"/>
    <path stroke="none" fill="#529C39" d="M190.45 269.95 L184.9 274.4 178.55 272.2 177.8 263.7 189.85 262.1 190.45 269.95 M171.2 303.25 L170.35 254.65 172.1 254.7 175.5 303.25 172.7 303.25 172.2 303.25 171.7 303.25 171.2 303.25"/>
    <path stroke="none" fill="#63B448" d="M212.6 265.7 L212.6 265.45 212.5 265.2 211.65 264.3 211.35 264.15 211.05 264.2 210.8 264.45 Q209.4 267.4 210.15 270.8 211.05 275.05 214.7 277.5 218.35 279.8 222.6 279 226.45 278.2 228.75 275.1 L228.85 274.8 228.7 274.45 228.25 274 Q228.1 273.85 227.9 273.85 L227.55 274 Q225.7 275.9 222.9 276.45 219.3 277.15 216.3 275.2 213.2 273.2 212.5 269.65 212.05 267.55 212.6 265.7 M248.05 245.35 L250.55 245.8 Q260.2 256.65 256.6 273 253.65 286.2 255.95 301.4 244.35 303.3 232.7 303.25 L232.2 303.25 231.7 303.25 Q220.05 303.3 208.45 301.4 210.75 286.2 207.8 273 204.2 256.65 213.85 245.8 L216.35 245.35 Q217 248.9 220.9 251.5 225.6 254.7 232.2 254.7 238.8 254.7 243.5 251.5 247.4 248.9 248.05 245.35 M252.35 265.7 Q252.85 267.55 252.4 269.65 251.7 273.2 248.65 275.2 245.6 277.15 242 276.45 239.2 275.9 237.45 274 L237.1 273.85 Q236.85 273.85 236.75 274 L236.25 274.45 236.05 274.75 236.15 275.1 Q238.45 278.2 242.35 279 246.6 279.8 250.25 277.5 253.85 275.05 254.75 270.8 255.5 267.4 254.1 264.45 L253.9 264.2 253.6 264.15 253.3 264.3 252.45 265.2 252.35 265.45 252.35 265.7"/>
    <path stroke="none" fill="#529C39" d="M252.35 265.7 L252.35 265.45 252.45 265.2 253.3 264.3 253.6 264.15 253.9 264.2 254.1 264.45 Q255.5 267.4 254.75 270.8 253.85 275.05 250.25 277.5 246.6 279.8 242.35 279 238.45 278.2 236.15 275.1 L236.05 274.75 236.25 274.45 236.75 274 Q236.85 273.85 237.1 273.85 L237.45 274 Q239.2 275.9 242 276.45 245.6 277.15 248.65 275.2 251.7 273.2 252.4 269.65 252.85 267.55 252.35 265.7 M212.6 265.7 Q212.05 267.55 212.5 269.65 213.2 273.2 216.3 275.2 219.3 277.15 222.9 276.45 225.7 275.9 227.55 274 L227.9 273.85 Q228.1 273.85 228.25 274 L228.7 274.45 228.85 274.8 228.75 275.1 Q226.45 278.2 222.6 279 218.35 279.8 214.7 277.5 211.05 275.05 210.15 270.8 209.4 267.4 210.8 264.45 L211.05 264.2 211.35 264.15 211.65 264.3 212.5 265.2 212.6 265.45 212.6 265.7"/>
    <path stroke="none" fill="#529C39" d="M305.85 243 Q307.95 244 310 245.15 307 256.65 299.5 265.25 L297.55 264.65 Q305 254.8 305.85 243"/>
    <path stroke="none" fill="#63B448" d="M305.85 243 Q305 254.8 297.55 264.65 292.05 263.1 285.75 262.7 273.9 249.5 280.35 235.35 L282.9 235.8 Q295.6 238.05 305.85 243"/>
    <path stroke="none" fill="#77C25E" d="M310 245.15 Q313.8 247.25 317.25 249.85 312.95 260.75 304.75 267.35 302.25 266.15 299.5 265.25 307 256.65 310 245.15"/>
    <path stroke="none" fill="#63B448" d="M288.55 302.95 L285.75 302.7 Q273.9 289.5 280.35 275.35 L282.9 275.8 290.25 277.4 Q291.6 289.9 288.55 302.95"/>
    <path stroke="none" fill="#77C25E" d="M294.2 278.5 L300.05 280.5 Q300.25 293.65 294.2 303.85 L290.2 303.15 Q293.9 291.3 294.2 278.5"/>
    <path stroke="none" fill="#529C39" d="M294.2 278.5 Q293.9 291.3 290.2 303.15 L288.55 302.95 Q291.6 289.9 290.25 277.4 L294.2 278.5"/>
    <path stroke="none" fill="#77C25E" d="M331.15 203.9 L335 209.8 Q332 218.6 321.65 222.5 L319.05 218.85 Q327.8 212.1 331.15 203.9"/>
    <path stroke="none" fill="#529C39" d="M327.65 199.5 L331.15 203.9 Q327.8 212.1 319.05 218.85 L317.65 217.15 Q325.6 210.3 327.65 199.5"/>
    <path stroke="none" fill="#63B448" d="M327.65 199.5 Q325.6 210.3 317.65 217.15 306.25 204.05 285.75 202.7 273.9 189.5 280.35 175.35 L282.9 175.8 Q311.65 180.95 327.65 199.5"/>
    <path stroke="none" fill="#63B448" d="M206.85 194 Q207 183.5 213.85 175.8 L216.35 175.35 Q217 178.9 220.9 181.5 225.6 184.7 232.2 184.7 238.8 184.7 243.5 181.5 247.4 178.9 248.05 175.35 L250.55 175.8 Q257.35 183.4 257.6 193.75 L257.55 193.75 257.3 193.95 256.4 194.95 256.3 195.15 256.3 195.4 Q256.85 197.45 256.35 199.8 255.55 203.75 252.15 206 248.75 208.2 244.7 207.4 241.6 206.8 239.55 204.65 L239.25 204.5 Q239 204.5 238.9 204.65 L238.35 205.15 238.15 205.45 238.25 205.8 Q240.8 209.25 245.1 210.1 249.8 211 253.85 208.45 L255.9 206.75 Q253.95 218.35 255.95 231.4 244.35 233.3 232.7 233.25 L232.2 233.25 231.7 233.25 Q220.05 233.3 208.45 231.4 210.5 217.95 208.4 206.05 209.5 207.4 211.1 208.45 215.1 211 219.8 210.1 224.1 209.25 226.65 205.8 L226.75 205.45 226.6 205.15 226.05 204.65 225.7 204.5 Q225.5 204.5 225.35 204.65 223.3 206.8 220.2 207.4 216.15 208.2 212.8 206 209.35 203.75 208.55 199.8 208.05 197.45 208.65 195.4 L208.65 195.15 208.55 194.95 207.65 193.95 207.35 193.75 207.05 193.8 206.85 194"/>
    <path stroke="none" fill="#529C39" d="M206.85 194 L207.05 193.8 207.35 193.75 207.65 193.95 208.55 194.95 208.65 195.15 208.65 195.4 Q208.05 197.45 208.55 199.8 209.35 203.75 212.8 206 216.15 208.2 220.2 207.4 223.3 206.8 225.35 204.65 225.5 204.5 225.7 204.5 L226.05 204.65 226.6 205.15 226.75 205.45 226.65 205.8 Q224.1 209.25 219.8 210.1 215.1 211 211.1 208.45 209.5 207.4 208.4 206.05 206.65 203.95 206.05 201.05 205.25 197.3 206.8 194.05 L206.85 194 M255.9 206.75 L253.85 208.45 Q249.8 211 245.1 210.1 240.8 209.25 238.25 205.8 L238.15 205.45 238.35 205.15 238.9 204.65 Q239 204.5 239.25 204.5 L239.55 204.65 Q241.6 206.8 244.7 207.4 248.75 208.2 252.15 206 255.55 203.75 256.35 199.8 256.85 197.45 256.3 195.4 L256.3 195.15 256.4 194.95 257.3 193.95 257.55 193.75 257.6 193.75 257.9 193.8 258.1 194.05 Q259.65 197.3 258.85 201.05 258.15 204.4 255.9 206.75"/>
    <path stroke="none" fill="#63B448" d="M183.5 181.5 Q187.4 178.9 188.05 175.35 L190.55 175.8 Q200.2 186.65 196.6 203 193.65 216.2 195.95 231.4 184.35 233.3 172.7 233.25 L172.2 233.25 171.7 233.25 Q160.05 233.3 148.45 231.4 150.75 216.2 147.8 203 144.2 186.65 153.85 175.8 L156.35 175.35 Q157 178.9 160.9 181.5 165.6 184.7 172.2 184.7 178.8 184.7 183.5 181.5 M189.85 192.1 L177.8 193.7 178.55 202.2 184.9 204.4 190.45 199.95 189.85 192.1"/>
    <path stroke="none" fill="#529C39" d="M189.85 192.1 L190.45 199.95 184.9 204.4 178.55 202.2 177.8 193.7 189.85 192.1"/>
    <path stroke="none" fill="#63B448" d="M100.65 232.85 L88.45 231.4 Q90.75 216.2 87.8 203 84.2 186.65 93.85 175.8 L96.35 175.35 Q97 178.9 100.9 181.5 105.6 184.7 112.2 184.7 118.8 184.7 123.5 181.5 127.4 178.9 128.05 175.35 L130.55 175.8 Q140.2 186.65 136.6 203 133.65 216.2 135.95 231.4 L123.8 232.85 126.2 221.8 121.35 215.65 103.05 215.65 98.2 221.8 100.65 232.85"/>
    <path stroke="none" fill="#529C39" d="M100.65 232.85 L98.2 221.8 103.05 215.65 121.35 215.65 126.2 221.8 123.8 232.85 112.7 233.25 112.2 233.25 111.7 233.25 100.65 232.85"/>
    <path stroke="none" fill="#63B448" d="M33.85 175.8 L36.35 175.35 Q37 178.9 40.9 181.5 45.6 184.7 52.2 184.7 58.8 184.7 63.5 181.5 67.4 178.9 68.05 175.35 L70.55 175.8 Q80.2 186.65 76.6 203 73.65 216.2 75.95 231.4 64.35 233.3 52.7 233.25 L52.2 233.25 51.7 233.25 Q40.05 233.3 28.45 231.4 30.75 216.2 27.8 203 24.2 186.65 33.85 175.8"/>
    <path stroke="none" fill="#E05848" d="M370.9 181.5 Q375.6 184.7 382.2 184.7 388.8 184.7 393.5 181.5 397.4 178.9 398.05 175.35 L400.55 175.8 Q410.2 186.65 406.6 203 403.65 216.2 405.95 231.4 394.35 233.3 382.7 233.25 L382.2 233.25 381.7 233.25 Q370.05 233.3 358.45 231.4 360.75 216.2 357.8 203 354.2 186.65 363.85 175.8 L366.35 175.35 Q367 178.9 370.9 181.5"/>
    <path stroke="none" fill="#E05848" d="M430.65 232.85 L418.45 231.4 Q420.75 216.2 417.8 203 414.2 186.65 423.85 175.8 L426.35 175.35 Q427 178.9 430.9 181.5 435.6 184.7 442.2 184.7 448.8 184.7 453.5 181.5 457.4 178.9 458.05 175.35 L460.55 175.8 Q470.2 186.65 466.6 203 463.65 216.2 465.95 231.4 L453.8 232.85 456.2 221.8 451.35 215.65 433.05 215.65 428.2 221.8 430.65 232.85"/>
    <path stroke="none" fill="#BF493B" d="M430.65 232.85 L428.2 221.8 433.05 215.65 451.35 215.65 456.2 221.8 453.8 232.85 442.7 233.25 442.2 233.25 441.7 233.25 430.65 232.85"/>
    <path stroke="none" fill="#E05848" d="M490.9 181.5 Q495.6 184.7 502.2 184.7 508.8 184.7 513.5 181.5 517.4 178.9 518.05 175.35 L520.55 175.8 Q530.2 186.65 526.6 203 523.65 216.2 525.95 231.4 514.35 233.3 502.7 233.25 L502.2 233.25 501.7 233.25 Q490.05 233.3 478.45 231.4 480.75 216.2 477.8 203 474.2 186.65 483.85 175.8 L486.35 175.35 Q487 178.9 490.9 181.5 M519.85 192.1 L507.8 193.7 508.55 202.2 514.9 204.4 520.45 199.95 519.85 192.1"/>
    <path stroke="none" fill="#BF493B" d="M519.85 192.1 L520.45 199.95 514.9 204.4 508.55 202.2 507.8 193.7 519.85 192.1"/>
    <path stroke="none" fill="#E05848" d="M536.85 194 Q537 183.5 543.85 175.8 L546.35 175.35 Q547 178.9 550.9 181.5 555.6 184.7 562.2 184.7 568.8 184.7 573.5 181.5 577.4 178.9 578.05 175.35 L580.55 175.8 Q587.35 183.4 587.6 193.75 L587.55 193.75 587.3 193.95 586.4 194.95 586.3 195.15 586.3 195.4 Q586.85 197.45 586.35 199.8 585.55 203.75 582.15 206 578.75 208.2 574.7 207.4 571.6 206.8 569.55 204.65 L569.25 204.5 Q569 204.5 568.9 204.65 L568.35 205.15 568.15 205.45 568.25 205.8 Q570.8 209.25 575.1 210.1 579.8 211 583.85 208.45 L585.9 206.75 Q583.95 218.35 585.95 231.4 574.35 233.3 562.7 233.25 L562.2 233.25 561.7 233.25 Q550.05 233.3 538.45 231.4 540.5 217.95 538.4 206.05 539.5 207.4 541.1 208.45 545.1 211 549.8 210.1 554.1 209.25 556.65 205.8 L556.75 205.45 556.6 205.15 556.05 204.65 555.7 204.5 555.35 204.65 Q553.3 206.8 550.2 207.4 546.15 208.2 542.8 206 539.35 203.75 538.55 199.8 538.05 197.45 538.65 195.4 L538.65 195.15 538.55 194.95 537.65 193.95 537.35 193.75 537.05 193.8 536.85 194"/>
    <path stroke="none" fill="#BF493B" d="M536.85 194 L537.05 193.8 537.35 193.75 537.65 193.95 538.55 194.95 538.65 195.15 538.65 195.4 Q538.05 197.45 538.55 199.8 539.35 203.75 542.8 206 546.15 208.2 550.2 207.4 553.3 206.8 555.35 204.65 L555.7 204.5 556.05 204.65 556.6 205.15 556.75 205.45 556.65 205.8 Q554.1 209.25 549.8 210.1 545.1 211 541.1 208.45 539.5 207.4 538.4 206.05 536.65 203.95 536.05 201.05 535.25 197.3 536.8 194.05 L536.85 194 M585.9 206.75 L583.85 208.45 Q579.8 211 575.1 210.1 570.8 209.25 568.25 205.8 L568.15 205.45 568.35 205.15 568.9 204.65 Q569 204.5 569.25 204.5 L569.55 204.65 Q571.6 206.8 574.7 207.4 578.75 208.2 582.15 206 585.55 203.75 586.35 199.8 586.85 197.45 586.3 195.4 L586.3 195.15 586.4 194.95 587.3 193.95 587.55 193.75 587.6 193.75 587.9 193.8 588.1 194.05 Q589.65 197.3 588.85 201.05 588.15 204.4 585.9 206.75"/>
    <path stroke="none" fill="#BF493B" d="M649.05 218.85 L647.65 217.15 Q655.6 210.3 657.65 199.5 L661.15 203.9 Q657.8 212.1 649.05 218.85"/>
    <path stroke="none" fill="#EC6656" d="M649.05 218.85 Q657.8 212.1 661.15 203.9 L665 209.8 Q662 218.6 651.65 222.5 L649.05 218.85"/>
    <path stroke="none" fill="#E05848" d="M647.65 217.15 Q636.25 204.05 615.75 202.7 603.9 189.5 610.35 175.35 L612.9 175.8 Q641.65 180.95 657.65 199.5 655.6 210.3 647.65 217.15"/>
    <path stroke="none" fill="#BF493B" d="M635.85 243 Q637.95 244 640 245.15 637 256.65 629.5 265.25 L627.55 264.65 Q635 254.8 635.85 243"/>
    <path stroke="none" fill="#E05848" d="M635.85 243 Q635 254.8 627.55 264.65 622.05 263.1 615.75 262.7 603.9 249.5 610.35 235.35 L612.9 235.8 Q625.6 238.05 635.85 243"/>
    <path stroke="none" fill="#EC6656" d="M640 245.15 Q643.8 247.25 647.25 249.85 642.95 260.75 634.75 267.35 632.25 266.15 629.5 265.25 637 256.65 640 245.15"/>
    <path stroke="none" fill="#EC6656" d="M624.2 278.5 L630.05 280.5 Q630.25 293.65 624.2 303.85 L620.2 303.15 Q623.9 291.3 624.2 278.5"/>
    <path stroke="none" fill="#BF493B" d="M624.2 278.5 Q623.9 291.3 620.2 303.15 L618.55 302.95 Q621.6 289.9 620.25 277.4 L624.2 278.5"/>
    <path stroke="none" fill="#E05848" d="M618.55 302.95 L615.75 302.7 Q603.9 289.5 610.35 275.35 L612.9 275.8 Q616.7 276.45 620.25 277.4 621.6 289.9 618.55 302.95"/>
    <path stroke="none" fill="#E05848" d="M578.05 245.35 L580.55 245.8 Q590.2 256.65 586.6 273 583.65 286.2 585.95 301.4 574.35 303.3 562.7 303.25 L562.2 303.25 561.7 303.25 Q550.05 303.3 538.45 301.4 540.75 286.2 537.8 273 534.2 256.65 543.85 245.8 L546.35 245.35 Q547 248.9 550.9 251.5 555.6 254.7 562.2 254.7 568.8 254.7 573.5 251.5 577.4 248.9 578.05 245.35 M541.05 264.2 L540.8 264.45 Q539.4 267.4 540.15 270.8 541.05 275.05 544.7 277.5 548.35 279.8 552.6 279 556.45 278.2 558.75 275.1 L558.85 274.8 558.7 274.45 558.25 274 Q558.1 273.85 557.9 273.85 557.7 273.85 557.55 274 555.7 275.9 552.9 276.45 549.3 277.15 546.3 275.2 543.2 273.2 542.5 269.65 542.05 267.55 542.6 265.7 L542.6 265.45 542.5 265.2 541.65 264.3 541.35 264.15 541.05 264.2 M584.75 270.8 Q585.5 267.4 584.1 264.45 L583.9 264.2 583.6 264.15 583.3 264.3 582.45 265.2 582.35 265.45 582.35 265.7 Q582.85 267.55 582.4 269.65 581.7 273.2 578.65 275.2 575.6 277.15 572 276.45 569.2 275.9 567.45 274 L567.1 273.85 Q566.85 273.85 566.75 274 L566.25 274.45 566.05 274.75 566.15 275.1 Q568.45 278.2 572.35 279 576.6 279.8 580.25 277.5 583.85 275.05 584.75 270.8"/>
    <path stroke="none" fill="#BF493B" d="M584.75 270.8 Q583.85 275.05 580.25 277.5 576.6 279.8 572.35 279 568.45 278.2 566.15 275.1 L566.05 274.75 566.25 274.45 566.75 274 Q566.85 273.85 567.1 273.85 L567.45 274 Q569.2 275.9 572 276.45 575.6 277.15 578.65 275.2 581.7 273.2 582.4 269.65 582.85 267.55 582.35 265.7 L582.35 265.45 582.45 265.2 583.3 264.3 583.6 264.15 583.9 264.2 584.1 264.45 Q585.5 267.4 584.75 270.8 M541.05 264.2 L541.35 264.15 541.65 264.3 542.5 265.2 542.6 265.45 542.6 265.7 Q542.05 267.55 542.5 269.65 543.2 273.2 546.3 275.2 549.3 277.15 552.9 276.45 555.7 275.9 557.55 274 557.7 273.85 557.9 273.85 558.1 273.85 558.25 274 L558.7 274.45 558.85 274.8 558.75 275.1 Q556.45 278.2 552.6 279 548.35 279.8 544.7 277.5 541.05 275.05 540.15 270.8 539.4 267.4 540.8 264.45 L541.05 264.2"/>
    <path stroke="none" fill="#E05848" d="M520.45 269.95 L519.85 262.1 507.8 263.7 508.55 272.2 514.9 274.4 520.45 269.95 M501.2 303.25 Q489.8 303.25 478.45 301.4 480.75 286.2 477.8 273 474.2 256.65 483.85 245.8 L486.35 245.35 Q487 248.9 490.9 251.5 494.9 254.25 500.35 254.65 L501.2 303.25 M502.1 254.7 L502.2 254.7 Q508.8 254.7 513.5 251.5 517.4 248.9 518.05 245.35 L520.55 245.8 Q530.2 256.65 526.6 273 523.65 286.2 525.95 301.4 515.75 303.05 505.5 303.25 L502.1 254.7"/>
    <path stroke="none" fill="#BF493B" d="M501.2 303.25 L500.35 254.65 502.1 254.7 505.5 303.25 502.7 303.25 502.2 303.25 501.7 303.25 501.2 303.25 M520.45 269.95 L514.9 274.4 508.55 272.2 507.8 263.7 519.85 262.1 520.45 269.95"/>
    <path stroke="none" fill="#E05848" d="M442.1 254.7 L442.2 254.7 Q448.8 254.7 453.5 251.5 457.4 248.9 458.05 245.35 L460.55 245.8 Q470.2 256.65 466.6 273 463.65 286.2 465.95 301.4 455.75 303.05 445.5 303.25 L442.1 254.7 M441.2 303.25 Q429.8 303.25 418.45 301.4 420.75 286.2 417.8 273 414.2 256.65 423.85 245.8 L426.35 245.35 Q427 248.9 430.9 251.5 434.9 254.25 440.35 254.65 L441.2 303.25"/>
    <path stroke="none" fill="#BF493B" d="M441.2 303.25 L440.35 254.65 442.1 254.7 445.5 303.25 442.7 303.25 442.2 303.25 441.7 303.25 441.2 303.25"/>
    <path stroke="none" fill="#E05848" d="M380.55 254.65 L382.2 254.7 383.85 254.65 386.95 261.45 400.05 248.7 398.05 245.35 400.55 245.8 Q410.2 256.65 406.6 273 403.65 286.2 405.95 301.4 394.35 303.3 382.7 303.25 L382.2 303.25 381.7 303.25 Q370.05 303.3 358.45 301.4 360.75 286.2 357.8 273 354.2 256.65 363.85 245.8 L366.35 245.35 364.35 248.7 377.45 261.45 380.55 254.65"/>
    <path stroke="none" fill="#BF493B" d="M398.05 245.35 L400.05 248.7 386.95 261.45 383.85 254.65 Q389.4 254.3 393.5 251.5 397.4 248.9 398.05 245.35 M380.55 254.65 L377.45 261.45 364.35 248.7 366.35 245.35 Q367 248.9 370.9 251.5 375 254.3 380.55 254.65"/>
    <path stroke="none" fill="#95A5A6" d="M398.05 395.35 L400.55 395.8 Q410.2 406.65 406.6 423 403.65 436.2 405.95 451.4 L398.45 452.45 382.7 453.25 382.2 453.25 381.7 453.25 Q370.05 453.3 358.45 451.4 360.75 436.2 357.8 423 354.2 406.65 363.85 395.8 L366.35 395.35 364.35 398.7 377.45 411.45 380.55 404.65 382.2 404.7 383.85 404.65 386.95 411.45 400.05 398.7 398.05 395.35"/>
    <path stroke="none" fill="#7B8F91" d="M398.05 395.35 L400.05 398.7 386.95 411.45 383.85 404.65 Q389.4 404.3 393.5 401.5 397.4 398.9 398.05 395.35 M380.55 404.65 L377.45 411.45 364.35 398.7 366.35 395.35 Q367 398.9 370.9 401.5 375 404.3 380.55 404.65"/>
    <path stroke="none" fill="#95A5A6" d="M441.2 453.25 Q429.8 453.25 418.45 451.4 420.75 436.2 417.8 423 414.2 406.65 423.85 395.8 L426.35 395.35 Q427 398.9 430.9 401.5 434.9 404.25 440.35 404.65 L441.2 453.25 M442.1 404.7 L442.2 404.7 Q448.8 404.7 453.5 401.5 457.4 398.9 458.05 395.35 L460.55 395.8 Q470.2 406.65 466.6 423 463.65 436.2 465.95 451.4 455.75 453.05 445.5 453.25 L442.1 404.7"/>
    <path stroke="none" fill="#7B8F91" d="M441.2 453.25 L440.35 404.65 442.1 404.7 445.5 453.25 442.7 453.25 442.2 453.25 441.7 453.25 441.2 453.25"/>
    <path stroke="none" fill="#95A5A6" d="M502.1 404.7 L502.2 404.7 Q508.8 404.7 513.5 401.5 517.4 398.9 518.05 395.35 L520.55 395.8 Q530.2 406.65 526.6 423 523.65 436.2 525.95 451.4 515.75 453.05 505.5 453.25 L502.1 404.7 M501.2 453.25 Q489.8 453.25 478.45 451.4 480.75 436.2 477.8 423 474.2 406.65 483.85 395.8 L486.35 395.35 Q487 398.9 490.9 401.5 494.9 404.25 500.35 404.65 L501.2 453.25 M519.85 412.1 L507.8 413.7 508.55 422.2 514.9 424.4 520.45 419.95 519.85 412.1"/>
    <path stroke="none" fill="#7B8F91" d="M519.85 412.1 L520.45 419.95 514.9 424.4 508.55 422.2 507.8 413.7 519.85 412.1 M502.1 404.7 L505.5 453.25 502.7 453.25 502.2 453.25 501.7 453.25 501.2 453.25 500.35 404.65 502.1 404.7"/>
    <path stroke="none" fill="#95A5A6" d="M542.6 415.7 L542.6 415.45 542.5 415.2 541.65 414.3 541.35 414.15 541.05 414.2 540.8 414.45 Q539.4 417.4 540.15 420.8 541.05 425.05 544.7 427.5 548.35 429.8 552.6 429 556.45 428.2 558.75 425.1 L558.85 424.8 558.7 424.45 558.25 424 Q558.1 423.85 557.9 423.85 557.7 423.85 557.55 424 555.7 425.9 552.9 426.45 549.3 427.15 546.3 425.2 543.2 423.2 542.5 419.65 542.05 417.55 542.6 415.7 M543.85 395.8 L546.35 395.35 Q547 398.9 550.9 401.5 555.6 404.7 562.2 404.7 568.8 404.7 573.5 401.5 577.4 398.9 578.05 395.35 L580.55 395.8 Q590.2 406.65 586.6 423 583.65 436.2 585.95 451.4 574.35 453.3 562.7 453.25 L562.2 453.25 561.7 453.25 Q550.05 453.3 538.45 451.4 540.75 436.2 537.8 423 534.2 406.65 543.85 395.8 M582.35 415.7 Q582.85 417.55 582.4 419.65 581.7 423.2 578.65 425.2 575.6 427.15 572 426.45 569.2 425.9 567.45 424 L567.1 423.85 Q566.85 423.85 566.75 424 L566.25 424.45 566.05 424.75 566.15 425.1 Q568.45 428.2 572.35 429 576.6 429.8 580.25 427.5 583.85 425.05 584.75 420.8 585.5 417.4 584.1 414.45 L583.9 414.2 583.6 414.15 583.3 414.3 582.45 415.2 582.35 415.45 582.35 415.7"/>
    <path stroke="none" fill="#7B8F91" d="M582.35 415.7 L582.35 415.45 582.45 415.2 583.3 414.3 583.6 414.15 583.9 414.2 584.1 414.45 Q585.5 417.4 584.75 420.8 583.85 425.05 580.25 427.5 576.6 429.8 572.35 429 568.45 428.2 566.15 425.1 L566.05 424.75 566.25 424.45 566.75 424 Q566.85 423.85 567.1 423.85 L567.45 424 Q569.2 425.9 572 426.45 575.6 427.15 578.65 425.2 581.7 423.2 582.4 419.65 582.85 417.55 582.35 415.7 M542.6 415.7 Q542.05 417.55 542.5 419.65 543.2 423.2 546.3 425.2 549.3 427.15 552.9 426.45 555.7 425.9 557.55 424 557.7 423.85 557.9 423.85 558.1 423.85 558.25 424 L558.7 424.45 558.85 424.8 558.75 425.1 Q556.45 428.2 552.6 429 548.35 429.8 544.7 427.5 541.05 425.05 540.15 420.8 539.4 417.4 540.8 414.45 L541.05 414.2 541.35 414.15 541.65 414.3 542.5 415.2 542.6 415.45 542.6 415.7"/>
    <path stroke="none" fill="#AAB3B4" d="M624.2 428.5 L630.05 430.5 Q630.25 443.65 624.2 453.85 L620.2 453.15 Q623.9 441.3 624.2 428.5"/>
    <path stroke="none" fill="#7B8F91" d="M624.2 428.5 Q623.9 441.3 620.2 453.15 L618.55 452.95 Q621.6 439.9 620.25 427.4 L624.2 428.5"/>
    <path stroke="none" fill="#95A5A6" d="M618.55 452.95 L615.75 452.7 Q603.9 439.5 610.35 425.35 L612.9 425.8 Q616.7 426.45 620.25 427.4 621.6 439.9 618.55 452.95"/>
    <path stroke="none" fill="#7B8F91" d="M635.85 393 Q637.95 394 640 395.15 637 406.65 629.5 415.25 L627.55 414.65 Q635 404.8 635.85 393"/>
    <path stroke="none" fill="#95A5A6" d="M635.85 393 Q635 404.8 627.55 414.65 622.05 413.1 615.75 412.7 603.9 399.5 610.35 385.35 L612.9 385.8 Q625.6 388.05 635.85 393"/>
    <path stroke="none" fill="#AAB3B4" d="M640 395.15 Q643.8 397.25 647.25 399.85 642.95 410.75 634.75 417.35 632.25 416.15 629.5 415.25 637 406.65 640 395.15"/>
    <path stroke="none" fill="#7B8F91" d="M647.65 367.15 Q655.6 360.3 657.65 349.5 L661.15 353.9 Q657.8 362.1 649.05 368.85 L647.65 367.15"/>
    <path stroke="none" fill="#AAB3B4" d="M661.15 353.9 L665 359.8 Q662 368.6 651.65 372.5 L649.05 368.85 Q657.8 362.1 661.15 353.9"/>
    <path stroke="none" fill="#95A5A6" d="M647.65 367.15 Q636.25 354.05 615.75 352.7 603.9 339.5 610.35 325.35 L612.9 325.8 Q641.65 330.95 657.65 349.5 655.6 360.3 647.65 367.15"/>
    <path stroke="none" fill="#95A5A6" d="M536.85 344 Q537 333.5 543.85 325.8 L546.35 325.35 Q547 328.9 550.9 331.5 555.6 334.7 562.2 334.7 568.8 334.7 573.5 331.5 577.4 328.9 578.05 325.35 L580.55 325.8 Q587.35 333.4 587.6 343.75 L587.55 343.75 587.3 343.95 586.4 344.95 586.3 345.15 586.3 345.4 Q586.85 347.45 586.35 349.8 585.55 353.75 582.15 356 578.75 358.2 574.7 357.4 571.6 356.8 569.55 354.65 L569.25 354.5 Q569 354.5 568.9 354.65 L568.35 355.15 568.15 355.45 568.25 355.8 Q570.8 359.25 575.1 360.1 579.8 361 583.85 358.45 L585.9 356.75 Q583.95 368.35 585.95 381.4 574.35 383.3 562.7 383.25 L562.2 383.25 561.7 383.25 Q550.05 383.3 538.45 381.4 540.5 367.95 538.4 356.05 539.5 357.4 541.1 358.45 545.1 361 549.8 360.1 554.1 359.25 556.65 355.8 L556.75 355.45 556.6 355.15 556.05 354.65 555.7 354.5 555.35 354.65 Q553.3 356.8 550.2 357.4 546.15 358.2 542.8 356 539.35 353.75 538.55 349.8 538.05 347.45 538.65 345.4 L538.65 345.15 538.55 344.95 537.65 343.95 537.35 343.75 537.05 343.8 536.85 344"/>
    <path stroke="none" fill="#7B8F91" d="M536.85 344 L537.05 343.8 537.35 343.75 537.65 343.95 538.55 344.95 538.65 345.15 538.65 345.4 Q538.05 347.45 538.55 349.8 539.35 353.75 542.8 356 546.15 358.2 550.2 357.4 553.3 356.8 555.35 354.65 L555.7 354.5 556.05 354.65 556.6 355.15 556.75 355.45 556.65 355.8 Q554.1 359.25 549.8 360.1 545.1 361 541.1 358.45 539.5 357.4 538.4 356.05 536.65 353.95 536.05 351.05 535.25 347.3 536.8 344.05 L536.85 344 M585.9 356.75 L583.85 358.45 Q579.8 361 575.1 360.1 570.8 359.25 568.25 355.8 L568.15 355.45 568.35 355.15 568.9 354.65 Q569 354.5 569.25 354.5 L569.55 354.65 Q571.6 356.8 574.7 357.4 578.75 358.2 582.15 356 585.55 353.75 586.35 349.8 586.85 347.45 586.3 345.4 L586.3 345.15 586.4 344.95 587.3 343.95 587.55 343.75 587.6 343.75 587.9 343.8 588.1 344.05 Q589.65 347.3 588.85 351.05 588.15 354.4 585.9 356.75"/>
    <path stroke="none" fill="#95A5A6" d="M478.45 381.4 Q480.75 366.2 477.8 353 474.2 336.65 483.85 325.8 L486.35 325.35 Q487 328.9 490.9 331.5 495.6 334.7 502.2 334.7 508.8 334.7 513.5 331.5 517.4 328.9 518.05 325.35 L520.55 325.8 Q530.2 336.65 526.6 353 523.65 366.2 525.95 381.4 514.35 383.3 502.7 383.25 L502.2 383.25 501.7 383.25 Q490.05 383.3 478.45 381.4 M519.85 342.1 L507.8 343.7 508.55 352.2 514.9 354.4 520.45 349.95 519.85 342.1"/>
    <path stroke="none" fill="#7B8F91" d="M519.85 342.1 L520.45 349.95 514.9 354.4 508.55 352.2 507.8 343.7 519.85 342.1"/>
    <path stroke="none" fill="#95A5A6" d="M430.65 382.85 L418.45 381.4 Q420.75 366.2 417.8 353 414.2 336.65 423.85 325.8 L426.35 325.35 Q427 328.9 430.9 331.5 435.6 334.7 442.2 334.7 448.8 334.7 453.5 331.5 457.4 328.9 458.05 325.35 L460.55 325.8 Q470.2 336.65 466.6 353 463.65 366.2 465.95 381.4 L453.8 382.85 456.2 371.8 451.35 365.65 433.05 365.65 428.2 371.8 430.65 382.85"/>
    <path stroke="none" fill="#7B8F91" d="M430.65 382.85 L428.2 371.8 433.05 365.65 451.35 365.65 456.2 371.8 453.8 382.85 442.7 383.25 442.2 383.25 441.7 383.25 430.65 382.85"/>
    <path stroke="none" fill="#95A5A6" d="M370.9 331.5 Q375.6 334.7 382.2 334.7 388.8 334.7 393.5 331.5 397.4 328.9 398.05 325.35 L400.55 325.8 Q410.2 336.65 406.6 353 403.65 366.2 405.95 381.4 L391.65 383 382.7 383.25 382.2 383.25 381.7 383.25 372.75 383 358.45 381.4 Q360.75 366.2 357.8 353 354.2 336.65 363.85 325.8 L366.35 325.35 Q367 328.9 370.9 331.5"/>
    <path stroke="none" fill="#16A085" d="M40.9 331.5 Q45.6 334.7 52.2 334.7 58.8 334.7 63.5 331.5 67.4 328.9 68.05 325.35 L70.55 325.8 Q80.2 336.65 76.6 353 73.65 366.2 75.95 381.4 64.35 383.3 52.7 383.25 L52.2 383.25 51.7 383.25 Q40.05 383.3 28.45 381.4 30.75 366.2 27.8 353 24.2 336.65 33.85 325.8 L36.35 325.35 Q37 328.9 40.9 331.5"/>
    <path stroke="none" fill="#16A085" d="M100.65 382.85 L88.45 381.4 Q90.75 366.2 87.8 353 84.2 336.65 93.85 325.8 L96.35 325.35 Q97 328.9 100.9 331.5 105.6 334.7 112.2 334.7 118.8 334.7 123.5 331.5 127.4 328.9 128.05 325.35 L130.55 325.8 Q140.2 336.65 136.6 353 133.65 366.2 135.95 381.4 L123.8 382.85 126.2 371.8 121.35 365.65 103.05 365.65 98.2 371.8 100.65 382.85"/>
    <path stroke="none" fill="#108A72" d="M100.65 382.85 L98.2 371.8 103.05 365.65 121.35 365.65 126.2 371.8 123.8 382.85 112.7 383.25 112.2 383.25 111.7 383.25 100.65 382.85"/>
    <path stroke="none" fill="#16A085" d="M156.35 325.35 Q157 328.9 160.9 331.5 165.6 334.7 172.2 334.7 178.8 334.7 183.5 331.5 187.4 328.9 188.05 325.35 L190.55 325.8 Q200.2 336.65 196.6 353 193.65 366.2 195.95 381.4 184.35 383.3 172.7 383.25 L172.2 383.25 171.7 383.25 Q160.05 383.3 148.45 381.4 150.75 366.2 147.8 353 144.2 336.65 153.85 325.8 L156.35 325.35 M189.85 342.1 L177.8 343.7 178.55 352.2 184.9 354.4 190.45 349.95 189.85 342.1"/>
    <path stroke="none" fill="#108A72" d="M189.85 342.1 L190.45 349.95 184.9 354.4 178.55 352.2 177.8 343.7 189.85 342.1"/>
    <path stroke="none" fill="#16A085" d="M206.85 344 Q207 333.5 213.85 325.8 L216.35 325.35 Q217 328.9 220.9 331.5 225.6 334.7 232.2 334.7 238.8 334.7 243.5 331.5 247.4 328.9 248.05 325.35 L250.55 325.8 Q257.35 333.4 257.6 343.75 L257.55 343.75 257.3 343.95 256.4 344.95 256.3 345.15 256.3 345.4 Q256.85 347.45 256.35 349.8 255.55 353.75 252.15 356 248.75 358.2 244.7 357.4 241.6 356.8 239.55 354.65 L239.25 354.5 Q239 354.5 238.9 354.65 L238.35 355.15 238.15 355.45 238.25 355.8 Q240.8 359.25 245.1 360.1 249.8 361 253.85 358.45 L255.9 356.75 Q253.95 368.35 255.95 381.4 244.35 383.3 232.7 383.25 L232.2 383.25 231.7 383.25 Q220.05 383.3 208.45 381.4 210.5 367.95 208.4 356.05 209.5 357.4 211.1 358.45 215.1 361 219.8 360.1 224.1 359.25 226.65 355.8 L226.75 355.45 226.6 355.15 226.05 354.65 225.7 354.5 Q225.5 354.5 225.35 354.65 223.3 356.8 220.2 357.4 216.15 358.2 212.8 356 209.35 353.75 208.55 349.8 208.05 347.45 208.65 345.4 L208.65 345.15 208.55 344.95 207.65 343.95 207.35 343.75 207.05 343.8 206.85 344"/>
    <path stroke="none" fill="#108A72" d="M206.85 344 L207.05 343.8 207.35 343.75 207.65 343.95 208.55 344.95 208.65 345.15 208.65 345.4 Q208.05 347.45 208.55 349.8 209.35 353.75 212.8 356 216.15 358.2 220.2 357.4 223.3 356.8 225.35 354.65 225.5 354.5 225.7 354.5 L226.05 354.65 226.6 355.15 226.75 355.45 226.65 355.8 Q224.1 359.25 219.8 360.1 215.1 361 211.1 358.45 209.5 357.4 208.4 356.05 206.65 353.95 206.05 351.05 205.25 347.3 206.8 344.05 L206.85 344 M255.9 356.75 L253.85 358.45 Q249.8 361 245.1 360.1 240.8 359.25 238.25 355.8 L238.15 355.45 238.35 355.15 238.9 354.65 Q239 354.5 239.25 354.5 L239.55 354.65 Q241.6 356.8 244.7 357.4 248.75 358.2 252.15 356 255.55 353.75 256.35 349.8 256.85 347.45 256.3 345.4 L256.3 345.15 256.4 344.95 257.3 343.95 257.55 343.75 257.6 343.75 257.9 343.8 258.1 344.05 Q259.65 347.3 258.85 351.05 258.15 354.4 255.9 356.75"/>
    <path stroke="none" fill="#16A085" d="M213.85 395.8 L216.35 395.35 Q217 398.9 220.9 401.5 225.6 404.7 232.2 404.7 238.8 404.7 243.5 401.5 247.4 398.9 248.05 395.35 L250.55 395.8 Q260.2 406.65 256.6 423 253.65 436.2 255.95 451.4 244.35 453.3 232.7 453.25 L232.2 453.25 231.7 453.25 Q220.05 453.3 208.45 451.4 210.75 436.2 207.8 423 204.2 406.65 213.85 395.8 M212.6 415.45 L212.5 415.2 211.65 414.3 211.35 414.15 211.05 414.2 210.8 414.45 Q209.4 417.4 210.15 420.8 211.05 425.05 214.7 427.5 218.35 429.8 222.6 429 226.45 428.2 228.75 425.1 L228.85 424.8 228.7 424.45 228.25 424 Q228.1 423.85 227.9 423.85 L227.55 424 Q225.7 425.9 222.9 426.45 219.3 427.15 216.3 425.2 213.2 423.2 212.5 419.65 212.05 417.55 212.6 415.7 L212.6 415.45 M253.3 414.3 L252.45 415.2 252.35 415.45 252.35 415.7 Q252.85 417.55 252.4 419.65 251.7 423.2 248.65 425.2 245.6 427.15 242 426.45 239.2 425.9 237.45 424 L237.1 423.85 Q236.85 423.85 236.75 424 L236.25 424.45 236.05 424.75 236.15 425.1 Q238.45 428.2 242.35 429 246.6 429.8 250.25 427.5 253.85 425.05 254.75 420.8 255.5 417.4 254.1 414.45 L253.9 414.2 253.6 414.15 253.3 414.3"/>
    <path stroke="none" fill="#108A72" d="M253.3 414.3 L253.6 414.15 253.9 414.2 254.1 414.45 Q255.5 417.4 254.75 420.8 253.85 425.05 250.25 427.5 246.6 429.8 242.35 429 238.45 428.2 236.15 425.1 L236.05 424.75 236.25 424.45 236.75 424 Q236.85 423.85 237.1 423.85 L237.45 424 Q239.2 425.9 242 426.45 245.6 427.15 248.65 425.2 251.7 423.2 252.4 419.65 252.85 417.55 252.35 415.7 L252.35 415.45 252.45 415.2 253.3 414.3 M212.6 415.45 L212.6 415.7 Q212.05 417.55 212.5 419.65 213.2 423.2 216.3 425.2 219.3 427.15 222.9 426.45 225.7 425.9 227.55 424 L227.9 423.85 Q228.1 423.85 228.25 424 L228.7 424.45 228.85 424.8 228.75 425.1 Q226.45 428.2 222.6 429 218.35 429.8 214.7 427.5 211.05 425.05 210.15 420.8 209.4 417.4 210.8 414.45 L211.05 414.2 211.35 414.15 211.65 414.3 212.5 415.2 212.6 415.45"/>
    <path stroke="none" fill="#16A085" d="M171.2 453.25 Q159.8 453.25 148.45 451.4 150.75 436.2 147.8 423 144.2 406.65 153.85 395.8 L156.35 395.35 Q157 398.9 160.9 401.5 164.9 404.25 170.35 404.65 L171.2 453.25 M172.1 404.7 L172.2 404.7 Q178.8 404.7 183.5 401.5 187.4 398.9 188.05 395.35 L190.55 395.8 Q200.2 406.65 196.6 423 193.65 436.2 195.95 451.4 185.75 453.05 175.5 453.25 L172.1 404.7 M190.45 419.95 L189.85 412.1 177.8 413.7 178.55 422.2 184.9 424.4 190.45 419.95"/>
    <path stroke="none" fill="#108A72" d="M190.45 419.95 L184.9 424.4 178.55 422.2 177.8 413.7 189.85 412.1 190.45 419.95 M171.2 453.25 L170.35 404.65 172.1 404.7 175.5 453.25 172.7 453.25 172.2 453.25 171.7 453.25 171.2 453.25"/>
    <path stroke="none" fill="#16A085" d="M111.2 453.25 Q99.8 453.25 88.45 451.4 90.75 436.2 87.8 423 84.2 406.65 93.85 395.8 L96.35 395.35 Q97 398.9 100.9 401.5 104.9 404.25 110.35 404.65 L111.2 453.25 M112.1 404.7 L112.2 404.7 Q118.8 404.7 123.5 401.5 127.4 398.9 128.05 395.35 L130.55 395.8 Q140.2 406.65 136.6 423 133.65 436.2 135.95 451.4 125.75 453.05 115.5 453.25 L112.1 404.7"/>
    <path stroke="none" fill="#108A72" d="M112.1 404.7 L115.5 453.25 112.7 453.25 112.2 453.25 111.7 453.25 111.2 453.25 110.35 404.65 112.1 404.7"/>
    <path stroke="none" fill="#16A085" d="M68.05 395.35 L70.55 395.8 Q80.2 406.65 76.6 423 73.65 436.2 75.95 451.4 64.35 453.3 52.7 453.25 L52.2 453.25 51.7 453.25 Q40.05 453.3 28.45 451.4 30.75 436.2 27.8 423 24.2 406.65 33.85 395.8 L36.35 395.35 34.35 398.7 47.45 411.45 50.55 404.65 52.2 404.7 53.85 404.65 56.95 411.45 70.05 398.7 68.05 395.35"/>
    <path stroke="none" fill="#108A72" d="M68.05 395.35 L70.05 398.7 56.95 411.45 53.85 404.65 Q59.4 404.3 63.5 401.5 67.4 398.9 68.05 395.35 M50.55 404.65 L47.45 411.45 34.35 398.7 36.35 395.35 Q37 398.9 40.9 401.5 45 404.3 50.55 404.65"/>
    <path stroke="none" fill="#108A72" d="M290.2 453.15 L288.55 452.95 Q291.6 439.9 290.25 427.4 L294.2 428.5 Q293.9 441.3 290.2 453.15"/>
    <path stroke="none" fill="#26AF94" d="M290.2 453.15 Q293.9 441.3 294.2 428.5 L300.05 430.5 Q300.25 443.65 294.2 453.85 L290.2 453.15"/>
    <path stroke="none" fill="#16A085" d="M288.55 452.95 L285.75 452.7 Q273.9 439.5 280.35 425.35 L282.9 425.8 290.25 427.4 Q291.6 439.9 288.55 452.95"/>
    <path stroke="none" fill="#16A085" d="M297.55 414.65 Q292.05 413.1 285.75 412.7 273.9 399.5 280.35 385.35 L282.9 385.8 Q295.6 388.05 305.85 393 305 404.8 297.55 414.65"/>
    <path stroke="none" fill="#108A72" d="M297.55 414.65 Q305 404.8 305.85 393 307.95 394 310 395.15 307 406.65 299.5 415.25 L297.55 414.65"/>
    <path stroke="none" fill="#26AF94" d="M310 395.15 Q313.8 397.25 317.25 399.85 312.95 410.75 304.75 417.35 302.25 416.15 299.5 415.25 307 406.65 310 395.15"/>
    <path stroke="none" fill="#26AF94" d="M331.15 353.9 L335 359.8 Q332 368.6 321.65 372.5 L319.05 368.85 Q327.8 362.1 331.15 353.9"/>
    <path stroke="none" fill="#108A72" d="M331.15 353.9 Q327.8 362.1 319.05 368.85 L317.65 367.15 Q325.6 360.3 327.65 349.5 L331.15 353.9"/>
    <path stroke="none" fill="#16A085" d="M317.65 367.15 Q306.25 354.05 285.75 352.7 273.9 339.5 280.35 325.35 L282.9 325.8 Q311.65 330.95 327.65 349.5 325.6 360.3 317.65 367.15"/>
    <path stroke="none" fill="#34495E" d="M33.85 475.8 L36.35 475.35 Q37 478.9 40.9 481.5 45.6 484.7 52.2 484.7 58.8 484.7 63.5 481.5 67.4 478.9 68.05 475.35 L70.55 475.8 Q80.2 486.65 76.6 503 73.65 516.2 75.95 531.4 64.35 533.3 52.7 533.25 L52.2 533.25 51.7 533.25 Q40.05 533.3 28.45 531.4 30.75 516.2 27.8 503 24.2 486.65 33.85 475.8"/>
    <path stroke="none" fill="#34495E" d="M100.65 532.85 L88.45 531.4 Q90.75 516.2 87.8 503 84.2 486.65 93.85 475.8 L96.35 475.35 Q97 478.9 100.9 481.5 105.6 484.7 112.2 484.7 118.8 484.7 123.5 481.5 127.4 478.9 128.05 475.35 L130.55 475.8 Q140.2 486.65 136.6 503 133.65 516.2 135.95 531.4 L123.8 532.85 126.2 521.8 121.35 515.65 103.05 515.65 98.2 521.8 100.65 532.85"/>
    <path stroke="none" fill="#2A3C4F" d="M100.65 532.85 L98.2 521.8 103.05 515.65 121.35 515.65 126.2 521.8 123.8 532.85 112.7 533.25 112.2 533.25 111.7 533.25 100.65 532.85"/>
    <path stroke="none" fill="#34495E" d="M183.5 481.5 Q187.4 478.9 188.05 475.35 L190.55 475.8 Q200.2 486.65 196.6 503 193.65 516.2 195.95 531.4 184.35 533.3 172.7 533.25 L172.2 533.25 171.7 533.25 Q160.05 533.3 148.45 531.4 150.75 516.2 147.8 503 144.2 486.65 153.85 475.8 L156.35 475.35 Q157 478.9 160.9 481.5 165.6 484.7 172.2 484.7 178.8 484.7 183.5 481.5 M189.85 492.1 L177.8 493.7 178.55 502.2 184.9 504.4 190.45 499.95 189.85 492.1"/>
    <path stroke="none" fill="#2A3C4F" d="M189.85 492.1 L190.45 499.95 184.9 504.4 178.55 502.2 177.8 493.7 189.85 492.1"/>
    <path stroke="none" fill="#2A3C4F" d="M206.85 494 L207.05 493.8 207.35 493.75 207.65 493.95 208.55 494.95 208.65 495.15 208.65 495.4 Q208.05 497.45 208.55 499.8 209.35 503.75 212.8 506 216.15 508.2 220.2 507.4 223.3 506.8 225.35 504.65 225.5 504.5 225.7 504.5 L226.05 504.65 226.6 505.15 226.75 505.45 226.65 505.8 Q224.1 509.25 219.8 510.1 215.1 511 211.1 508.45 209.5 507.4 208.4 506.05 206.65 503.95 206.05 501.05 205.25 497.3 206.8 494.05 L206.85 494 M255.9 506.75 L253.85 508.45 Q249.8 511 245.1 510.1 240.8 509.25 238.25 505.8 L238.15 505.45 238.35 505.15 238.9 504.65 Q239 504.5 239.25 504.5 L239.55 504.65 Q241.6 506.8 244.7 507.4 248.75 508.2 252.15 506 255.55 503.75 256.35 499.8 256.85 497.45 256.3 495.4 L256.3 495.15 256.4 494.95 257.3 493.95 257.55 493.75 257.6 493.75 257.9 493.8 258.1 494.05 Q259.65 497.3 258.85 501.05 258.15 504.4 255.9 506.75"/>
    <path stroke="none" fill="#34495E" d="M255.9 506.75 Q253.95 518.35 255.95 531.4 244.35 533.3 232.7 533.25 L232.2 533.25 231.7 533.25 Q220.05 533.3 208.45 531.4 210.5 517.95 208.4 506.05 209.5 507.4 211.1 508.45 215.1 511 219.8 510.1 224.1 509.25 226.65 505.8 L226.75 505.45 226.6 505.15 226.05 504.65 225.7 504.5 Q225.5 504.5 225.35 504.65 223.3 506.8 220.2 507.4 216.15 508.2 212.8 506 209.35 503.75 208.55 499.8 208.05 497.45 208.65 495.4 L208.65 495.15 208.55 494.95 207.65 493.95 207.35 493.75 207.05 493.8 206.85 494 Q207 483.5 213.85 475.8 L216.35 475.35 Q217 478.9 220.9 481.5 225.6 484.7 232.2 484.7 238.8 484.7 243.5 481.5 247.4 478.9 248.05 475.35 L250.55 475.8 Q257.35 483.4 257.6 493.75 L257.55 493.75 257.3 493.95 256.4 494.95 256.3 495.15 256.3 495.4 Q256.85 497.45 256.35 499.8 255.55 503.75 252.15 506 248.75 508.2 244.7 507.4 241.6 506.8 239.55 504.65 L239.25 504.5 Q239 504.5 238.9 504.65 L238.35 505.15 238.15 505.45 238.25 505.8 Q240.8 509.25 245.1 510.1 249.8 511 253.85 508.45 L255.9 506.75"/>
    <path stroke="none" fill="#34495E" d="M212.6 565.7 L212.6 565.45 212.5 565.2 211.65 564.3 211.35 564.15 211.05 564.2 210.8 564.45 Q209.4 567.4 210.15 570.8 211.05 575.05 214.7 577.5 218.35 579.8 222.6 579 226.45 578.2 228.75 575.1 L228.85 574.8 228.7 574.45 228.25 574 Q228.1 573.85 227.9 573.85 L227.55 574 Q225.7 575.9 222.9 576.45 219.3 577.15 216.3 575.2 213.2 573.2 212.5 569.65 212.05 567.55 212.6 565.7 M216.35 545.35 Q217 548.9 220.9 551.5 225.6 554.7 232.2 554.7 238.8 554.7 243.5 551.5 247.4 548.9 248.05 545.35 L250.55 545.8 Q260.2 556.65 256.6 573 253.65 586.2 255.95 601.4 244.35 603.3 232.7 603.25 L232.2 603.25 231.7 603.25 Q220.05 603.3 208.45 601.4 210.75 586.2 207.8 573 204.2 556.65 213.85 545.8 L216.35 545.35 M242 576.45 Q239.2 575.9 237.45 574 L237.1 573.85 Q236.85 573.85 236.75 574 L236.25 574.45 236.05 574.75 236.15 575.1 Q238.45 578.2 242.35 579 246.6 579.8 250.25 577.5 253.85 575.05 254.75 570.8 255.5 567.4 254.1 564.45 L253.9 564.2 253.6 564.15 253.3 564.3 252.45 565.2 252.35 565.45 252.35 565.7 Q252.85 567.55 252.4 569.65 251.7 573.2 248.65 575.2 245.6 577.15 242 576.45"/>
    <path stroke="none" fill="#2A3C4F" d="M242 576.45 Q245.6 577.15 248.65 575.2 251.7 573.2 252.4 569.65 252.85 567.55 252.35 565.7 L252.35 565.45 252.45 565.2 253.3 564.3 253.6 564.15 253.9 564.2 254.1 564.45 Q255.5 567.4 254.75 570.8 253.85 575.05 250.25 577.5 246.6 579.8 242.35 579 238.45 578.2 236.15 575.1 L236.05 574.75 236.25 574.45 236.75 574 Q236.85 573.85 237.1 573.85 L237.45 574 Q239.2 575.9 242 576.45 M212.6 565.7 Q212.05 567.55 212.5 569.65 213.2 573.2 216.3 575.2 219.3 577.15 222.9 576.45 225.7 575.9 227.55 574 L227.9 573.85 Q228.1 573.85 228.25 574 L228.7 574.45 228.85 574.8 228.75 575.1 Q226.45 578.2 222.6 579 218.35 579.8 214.7 577.5 211.05 575.05 210.15 570.8 209.4 567.4 210.8 564.45 L211.05 564.2 211.35 564.15 211.65 564.3 212.5 565.2 212.6 565.45 212.6 565.7"/>
    <path stroke="none" fill="#34495E" d="M172.1 554.7 L172.2 554.7 Q178.8 554.7 183.5 551.5 187.4 548.9 188.05 545.35 L190.55 545.8 Q200.2 556.65 196.6 573 193.65 586.2 195.95 601.4 185.75 603.05 175.5 603.25 L172.1 554.7 M171.2 603.25 Q159.8 603.25 148.45 601.4 150.75 586.2 147.8 573 144.2 556.65 153.85 545.8 L156.35 545.35 Q157 548.9 160.9 551.5 164.9 554.25 170.35 554.65 L171.2 603.25 M184.9 574.4 L190.45 569.95 189.85 562.1 177.8 563.7 178.55 572.2 184.9 574.4"/>
    <path stroke="none" fill="#2A3C4F" d="M184.9 574.4 L178.55 572.2 177.8 563.7 189.85 562.1 190.45 569.95 184.9 574.4 M172.1 554.7 L175.5 603.25 172.7 603.25 172.2 603.25 171.7 603.25 171.2 603.25 170.35 554.65 172.1 554.7"/>
    <path stroke="none" fill="#34495E" d="M111.2 603.25 Q99.8 603.25 88.45 601.4 90.75 586.2 87.8 573 84.2 556.65 93.85 545.8 L96.35 545.35 Q97 548.9 100.9 551.5 104.9 554.25 110.35 554.65 L111.2 603.25 M112.1 554.7 L112.2 554.7 Q118.8 554.7 123.5 551.5 127.4 548.9 128.05 545.35 L130.55 545.8 Q140.2 556.65 136.6 573 133.65 586.2 135.95 601.4 125.75 603.05 115.5 603.25 L112.1 554.7"/>
    <path stroke="none" fill="#2A3C4F" d="M112.1 554.7 L115.5 603.25 112.7 603.25 112.2 603.25 111.7 603.25 111.2 603.25 110.35 554.65 112.1 554.7"/>
    <path stroke="none" fill="#34495E" d="M68.05 545.35 L70.55 545.8 Q80.2 556.65 76.6 573 73.65 586.2 75.95 601.4 64.35 603.3 52.7 603.25 L52.2 603.25 51.7 603.25 Q40.05 603.3 28.45 601.4 30.75 586.2 27.8 573 24.2 556.65 33.85 545.8 L36.35 545.35 34.35 548.7 47.45 561.45 50.55 554.65 52.2 554.7 53.85 554.65 56.95 561.45 70.05 548.7 68.05 545.35"/>
    <path stroke="none" fill="#2A3C4F" d="M68.05 545.35 L70.05 548.7 56.95 561.45 53.85 554.65 Q59.4 554.3 63.5 551.5 67.4 548.9 68.05 545.35 M50.55 554.65 L47.45 561.45 34.35 548.7 36.35 545.35 Q37 548.9 40.9 551.5 45 554.3 50.55 554.65"/>
    <path stroke="none" fill="#34495E" d="M288.55 602.95 L285.75 602.7 Q273.9 589.5 280.35 575.35 L282.9 575.8 290.25 577.4 Q291.6 589.9 288.55 602.95"/>
    <path stroke="none" fill="#455A70" d="M294.2 578.5 L300.05 580.5 Q300.25 593.65 294.2 603.85 L290.2 603.15 Q293.9 591.3 294.2 578.5"/>
    <path stroke="none" fill="#2A3C4F" d="M294.2 578.5 Q293.9 591.3 290.2 603.15 L288.55 602.95 Q291.6 589.9 290.25 577.4 L294.2 578.5"/>
    <path stroke="none" fill="#34495E" d="M297.55 564.65 Q292.05 563.1 285.75 562.7 273.9 549.5 280.35 535.35 L282.9 535.8 Q295.6 538.05 305.85 543 305 554.8 297.55 564.65"/>
    <path stroke="none" fill="#2A3C4F" d="M297.55 564.65 Q305 554.8 305.85 543 307.95 544 310 545.15 307 556.65 299.5 565.25 L297.55 564.65"/>
    <path stroke="none" fill="#455A70" d="M310 545.15 Q313.8 547.25 317.25 549.85 312.95 560.75 304.75 567.35 302.25 566.15 299.5 565.25 307 556.65 310 545.15"/>
    <path stroke="none" fill="#34495E" d="M317.65 517.15 Q306.25 504.05 285.75 502.7 273.9 489.5 280.35 475.35 L282.9 475.8 Q311.65 480.95 327.65 499.5 325.6 510.3 317.65 517.15"/>
    <path stroke="none" fill="#2A3C4F" d="M317.65 517.15 Q325.6 510.3 327.65 499.5 L331.15 503.9 Q327.8 512.1 319.05 518.85 L317.65 517.15"/>
    <path stroke="none" fill="#455A70" d="M331.15 503.9 L335 509.8 Q332 518.6 321.65 522.5 L319.05 518.85 Q327.8 512.1 331.15 503.9"/>
    <path stroke="none" fill="#FFCC00" d="M370.9 481.5 Q375.6 484.7 382.2 484.7 388.8 484.7 393.5 481.5 397.4 478.9 398.05 475.35 L400.55 475.8 Q410.2 486.65 406.6 503 403.65 516.2 405.95 531.4 394.35 533.3 382.7 533.25 L382.2 533.25 381.7 533.25 Q370.05 533.3 358.45 531.4 360.75 516.2 357.8 503 354.2 486.65 363.85 475.8 L366.35 475.35 Q367 478.9 370.9 481.5"/>
    <path stroke="none" fill="#FFCC00" d="M398.05 545.35 L400.55 545.8 Q410.2 556.65 406.6 573 403.65 586.2 405.95 601.4 394.35 603.3 382.7 603.25 L382.2 603.25 381.7 603.25 Q370.05 603.3 358.45 601.4 360.75 586.2 357.8 573 354.2 556.65 363.85 545.8 L366.35 545.35 364.35 548.7 377.45 561.45 380.55 554.65 382.2 554.7 383.85 554.65 386.95 561.45 400.05 548.7 398.05 545.35"/>
    <path stroke="none" fill="#E7B900" d="M398.05 545.35 L400.05 548.7 386.95 561.45 383.85 554.65 Q389.4 554.3 393.5 551.5 397.4 548.9 398.05 545.35 M380.55 554.65 L377.45 561.45 364.35 548.7 366.35 545.35 Q367 548.9 370.9 551.5 375 554.3 380.55 554.65"/>
    <path stroke="none" fill="#E7B900" d="M441.2 603.25 L440.35 554.65 442.1 554.7 445.5 603.25 442.7 603.25 442.2 603.25 441.7 603.25 441.2 603.25"/>
    <path stroke="none" fill="#FFCC00" d="M441.2 603.25 Q429.8 603.25 418.45 601.4 420.75 586.2 417.8 573 414.2 556.65 423.85 545.8 L426.35 545.35 Q427 548.9 430.9 551.5 434.9 554.25 440.35 554.65 L441.2 603.25 M442.1 554.7 L442.2 554.7 Q448.8 554.7 453.5 551.5 457.4 548.9 458.05 545.35 L460.55 545.8 Q470.2 556.65 466.6 573 463.65 586.2 465.95 601.4 455.75 603.05 445.5 603.25 L442.1 554.7"/>
    <path stroke="none" fill="#FFCC00" d="M502.1 554.7 L502.2 554.7 Q508.8 554.7 513.5 551.5 517.4 548.9 518.05 545.35 L520.55 545.8 Q530.2 556.65 526.6 573 523.65 586.2 525.95 601.4 515.75 603.05 505.5 603.25 L502.1 554.7 M501.2 603.25 Q489.8 603.25 478.45 601.4 480.75 586.2 477.8 573 474.2 556.65 483.85 545.8 L486.35 545.35 Q487 548.9 490.9 551.5 494.9 554.25 500.35 554.65 L501.2 603.25 M519.85 562.1 L507.8 563.7 508.55 572.2 514.9 574.4 520.45 569.95 519.85 562.1"/>
    <path stroke="none" fill="#E7B900" d="M519.85 562.1 L520.45 569.95 514.9 574.4 508.55 572.2 507.8 563.7 519.85 562.1 M502.1 554.7 L505.5 603.25 502.7 603.25 502.2 603.25 501.7 603.25 501.2 603.25 500.35 554.65 502.1 554.7"/>
    <path stroke="none" fill="#FFCC00" d="M550.9 551.5 Q555.6 554.7 562.2 554.7 568.8 554.7 573.5 551.5 577.4 548.9 578.05 545.35 L580.55 545.8 Q590.2 556.65 586.6 573 583.65 586.2 585.95 601.4 574.35 603.3 562.7 603.25 L562.2 603.25 561.7 603.25 Q550.05 603.3 538.45 601.4 540.75 586.2 537.8 573 534.2 556.65 543.85 545.8 L546.35 545.35 Q547 548.9 550.9 551.5 M566.75 574 L566.25 574.45 566.05 574.75 566.15 575.1 Q568.45 578.2 572.35 579 576.6 579.8 580.25 577.5 583.85 575.05 584.75 570.8 585.5 567.4 584.1 564.45 L583.9 564.2 583.6 564.15 583.3 564.3 582.45 565.2 582.35 565.45 582.35 565.7 Q582.85 567.55 582.4 569.65 581.7 573.2 578.65 575.2 575.6 577.15 572 576.45 569.2 575.9 567.45 574 L567.1 573.85 Q566.85 573.85 566.75 574 M542.6 565.7 L542.6 565.45 542.5 565.2 541.65 564.3 541.35 564.15 541.05 564.2 540.8 564.45 Q539.4 567.4 540.15 570.8 541.05 575.05 544.7 577.5 548.35 579.8 552.6 579 556.45 578.2 558.75 575.1 L558.85 574.8 558.7 574.45 558.25 574 Q558.1 573.85 557.9 573.85 557.7 573.85 557.55 574 555.7 575.9 552.9 576.45 549.3 577.15 546.3 575.2 543.2 573.2 542.5 569.65 542.05 567.55 542.6 565.7"/>
    <path stroke="none" fill="#E7B900" d="M542.6 565.7 Q542.05 567.55 542.5 569.65 543.2 573.2 546.3 575.2 549.3 577.15 552.9 576.45 555.7 575.9 557.55 574 557.7 573.85 557.9 573.85 558.1 573.85 558.25 574 L558.7 574.45 558.85 574.8 558.75 575.1 Q556.45 578.2 552.6 579 548.35 579.8 544.7 577.5 541.05 575.05 540.15 570.8 539.4 567.4 540.8 564.45 L541.05 564.2 541.35 564.15 541.65 564.3 542.5 565.2 542.6 565.45 542.6 565.7 M566.75 574 Q566.85 573.85 567.1 573.85 L567.45 574 Q569.2 575.9 572 576.45 575.6 577.15 578.65 575.2 581.7 573.2 582.4 569.65 582.85 567.55 582.35 565.7 L582.35 565.45 582.45 565.2 583.3 564.3 583.6 564.15 583.9 564.2 584.1 564.45 Q585.5 567.4 584.75 570.8 583.85 575.05 580.25 577.5 576.6 579.8 572.35 579 568.45 578.2 566.15 575.1 L566.05 574.75 566.25 574.45 566.75 574"/>
    <path stroke="none" fill="#E7B900" d="M536.85 494 L537.05 493.8 537.35 493.75 537.65 493.95 538.55 494.95 538.65 495.15 538.65 495.4 Q538.05 497.45 538.55 499.8 539.35 503.75 542.8 506 546.15 508.2 550.2 507.4 553.3 506.8 555.35 504.65 L555.7 504.5 556.05 504.65 556.6 505.15 556.75 505.45 556.65 505.8 Q554.1 509.25 549.8 510.1 545.1 511 541.1 508.45 539.5 507.4 538.4 506.05 536.65 503.95 536.05 501.05 535.25 497.3 536.8 494.05 L536.85 494 M585.9 506.75 L583.85 508.45 Q579.8 511 575.1 510.1 570.8 509.25 568.25 505.8 L568.15 505.45 568.35 505.15 568.9 504.65 Q569 504.5 569.25 504.5 L569.55 504.65 Q571.6 506.8 574.7 507.4 578.75 508.2 582.15 506 585.55 503.75 586.35 499.8 586.85 497.45 586.3 495.4 L586.3 495.15 586.4 494.95 587.3 493.95 587.55 493.75 587.6 493.75 587.9 493.8 588.1 494.05 Q589.65 497.3 588.85 501.05 588.15 504.4 585.9 506.75"/>
    <path stroke="none" fill="#FFCC00" d="M585.9 506.75 Q583.95 518.35 585.95 531.4 574.35 533.3 562.7 533.25 L562.2 533.25 561.7 533.25 Q550.05 533.3 538.45 531.4 540.5 517.95 538.4 506.05 539.5 507.4 541.1 508.45 545.1 511 549.8 510.1 554.1 509.25 556.65 505.8 L556.75 505.45 556.6 505.15 556.05 504.65 555.7 504.5 555.35 504.65 Q553.3 506.8 550.2 507.4 546.15 508.2 542.8 506 539.35 503.75 538.55 499.8 538.05 497.45 538.65 495.4 L538.65 495.15 538.55 494.95 537.65 493.95 537.35 493.75 537.05 493.8 536.85 494 Q537 483.5 543.85 475.8 L546.35 475.35 Q547 478.9 550.9 481.5 555.6 484.7 562.2 484.7 568.8 484.7 573.5 481.5 577.4 478.9 578.05 475.35 L580.55 475.8 Q587.35 483.4 587.6 493.75 L587.55 493.75 587.3 493.95 586.4 494.95 586.3 495.15 586.3 495.4 Q586.85 497.45 586.35 499.8 585.55 503.75 582.15 506 578.75 508.2 574.7 507.4 571.6 506.8 569.55 504.65 L569.25 504.5 Q569 504.5 568.9 504.65 L568.35 505.15 568.15 505.45 568.25 505.8 Q570.8 509.25 575.1 510.1 579.8 511 583.85 508.45 L585.9 506.75"/>
    <path stroke="none" fill="#FFCC00" d="M490.9 481.5 Q495.6 484.7 502.2 484.7 508.8 484.7 513.5 481.5 517.4 478.9 518.05 475.35 L520.55 475.8 Q530.2 486.65 526.6 503 523.65 516.2 525.95 531.4 514.35 533.3 502.7 533.25 L502.2 533.25 501.7 533.25 Q490.05 533.3 478.45 531.4 480.75 516.2 477.8 503 474.2 486.65 483.85 475.8 L486.35 475.35 Q487 478.9 490.9 481.5 M519.85 492.1 L507.8 493.7 508.55 502.2 514.9 504.4 520.45 499.95 519.85 492.1"/>
    <path stroke="none" fill="#E7B900" d="M519.85 492.1 L520.45 499.95 514.9 504.4 508.55 502.2 507.8 493.7 519.85 492.1"/>
    <path stroke="none" fill="#FFCC00" d="M430.65 532.85 L418.45 531.4 Q420.75 516.2 417.8 503 414.2 486.65 423.85 475.8 L426.35 475.35 Q427 478.9 430.9 481.5 435.6 484.7 442.2 484.7 448.8 484.7 453.5 481.5 457.4 478.9 458.05 475.35 L460.55 475.8 Q470.2 486.65 466.6 503 463.65 516.2 465.95 531.4 L453.8 532.85 456.2 521.8 451.35 515.65 433.05 515.65 428.2 521.8 430.65 532.85"/>
    <path stroke="none" fill="#E7B900" d="M430.65 532.85 L428.2 521.8 433.05 515.65 451.35 515.65 456.2 521.8 453.8 532.85 442.7 533.25 442.2 533.25 441.7 533.25 430.65 532.85"/>
    <path stroke="none" fill="#E7B900" d="M649.05 518.85 L647.65 517.15 Q655.6 510.3 657.65 499.5 L661.15 503.9 Q657.8 512.1 649.05 518.85"/>
    <path stroke="none" fill="#FFDB4F" d="M649.05 518.85 Q657.8 512.1 661.15 503.9 L665 509.8 Q662 518.6 651.65 522.5 L649.05 518.85"/>
    <path stroke="none" fill="#FFCC00" d="M647.65 517.15 Q636.25 504.05 615.75 502.7 603.9 489.5 610.35 475.35 L612.9 475.8 Q641.65 480.95 657.65 499.5 655.6 510.3 647.65 517.15"/>
    <path stroke="none" fill="#FFCC00" d="M627.55 564.65 Q622.05 563.1 615.75 562.7 603.9 549.5 610.35 535.35 L612.9 535.8 Q625.6 538.05 635.85 543 635 554.8 627.55 564.65"/>
    <path stroke="none" fill="#E7B900" d="M627.55 564.65 Q635 554.8 635.85 543 637.95 544 640 545.15 637 556.65 629.5 565.25 L627.55 564.65"/>
    <path stroke="none" fill="#FFDB4F" d="M640 545.15 Q643.8 547.25 647.25 549.85 642.95 560.75 634.75 567.35 632.25 566.15 629.5 565.25 637 556.65 640 545.15"/>
    <path stroke="none" fill="#FFDB4F" d="M624.2 578.5 L630.05 580.5 Q630.25 593.65 624.2 603.85 L620.2 603.15 Q623.9 591.3 624.2 578.5"/>
    <path stroke="none" fill="#E7B900" d="M624.2 578.5 Q623.9 591.3 620.2 603.15 L618.55 602.95 Q621.6 589.9 620.25 577.4 L624.2 578.5"/>
    <path stroke="none" fill="#FFCC00" d="M618.55 602.95 L615.75 602.7 Q603.9 589.5 610.35 575.35 L612.9 575.8 Q616.7 576.45 620.25 577.4 621.6 589.9 618.55 602.95"/>
  </g>
</svg>