<svg xmlns="http://www.w3.org/2000/svg" viewBox="0 0 150 180"><defs><linearGradient id="a" x1="107.074%" x2="12.231%" y1="97.514%" y2="16.791%"><stop offset="0%" stop-color="#FFF"/><stop offset="100%" stop-color="#00D38F"/></linearGradient><linearGradient id="b" x1="89.32%" x2="23.539%" y1="-5.482%" y2="50%"><stop offset="0%" stop-color="#FFF"/><stop offset="100%" stop-color="#C2C2C2"/></linearGradient><linearGradient id="c" x1="106.017%" x2="15.217%" y1="-4.955%" y2="97.197%"><stop offset="0%" stop-color="#FFF"/><stop offset="100%" stop-color="#696969"/></linearGradient><linearGradient id="d" x1="89.044%" x2="40.176%" y1="6.398%" y2="73.701%"><stop offset="0%" stop-color="#161A1F" stop-opacity="0"/><stop offset="2.836%" stop-color="#161A1F" stop-opacity=".028"/><stop offset="5.672%" stop-color="#161A1F" stop-opacity=".056"/><stop offset="8.509%" stop-color="#161A1F" stop-opacity=".084"/><stop offset="11.345%" stop-color="#161A1F" stop-opacity=".112"/><stop offset="14.181%" stop-color="#161A1F" stop-opacity=".14"/><stop offset="14.181%" stop-color="#161A1F" stop-opacity=".14"/><stop offset="31.345%" stop-color="#161A1F" stop-opacity=".312"/><stop offset="48.509%" stop-color="#161A1F" stop-opacity=".484"/><stop offset="65.672%" stop-color="#161A1F" stop-opacity=".656"/><stop offset="82.836%" stop-color="#161A1F" stop-opacity=".828"/><stop offset="100%" stop-color="#161A1F"/></linearGradient><linearGradient id="e" x1="67.772%" x2="42.456%" y1="32.604%" y2="57.328%"><stop offset="0%" stop-color="#292F34" stop-opacity="0"/><stop offset="7.042%" stop-color="#292F34" stop-opacity=".038"/><stop offset="14.084%" stop-color="#292F34" stop-opacity=".076"/><stop offset="21.126%" stop-color="#292F34" stop-opacity=".114"/><stop offset="28.168%" stop-color="#292F34" stop-opacity=".152"/><stop offset="35.21%" stop-color="#292F34" stop-opacity=".19"/><stop offset="35.21%" stop-color="#292F34" stop-opacity=".19"/><stop offset="48.168%" stop-color="#292F34" stop-opacity=".352"/><stop offset="61.126%" stop-color="#292F34" stop-opacity=".514"/><stop offset="74.084%" stop-color="#292F34" stop-opacity=".676"/><stop offset="87.042%" stop-color="#292F34" stop-opacity=".838"/><stop offset="100%" stop-color="#292F34"/></linearGradient><linearGradient id="f" x1="0%" x2="100%" y1=".541%" y2="105.208%"><stop offset="0%" stop-color="#161A1F" stop-opacity="0"/><stop offset="100%" stop-color="#161A1F"/></linearGradient><linearGradient id="g" x1="61.964%" x2="5.575%" y1="39.347%" y2="100%"><stop offset="0%" stop-color="#292F34" stop-opacity="0"/><stop offset="100%" stop-color="#292F34"/></linearGradient><linearGradient id="h" x1="94.123%" x2="5.877%" y1="15.002%" y2="100%"><stop offset="0%" stop-color="#00EBC2"/><stop offset="100%" stop-color="#00D38F"/></linearGradient></defs><g fill="none" fill-rule="evenodd"><path fill="url(#a)" fill-rule="nonzero" d="M59.43 21.612l5.647-5.409 41.495 21.244 1 20.608-8.978-1.335 17.065 8.693-1.892 8.652-8.627 2.803 9.721 5.364-6.015.903-9.753-2.508.417-8.128 5.627-.777-24.479-7.567.756-16.664 10.526 1.711-43.625-17.101-1.316-4.051 5.716-7.64z" transform="scale(-1 1) rotate(18 -75.451 -490.703)"/><path fill="url(#b)" fill-rule="nonzero" d="M100.091 21.777L109 13H15v106l9.594-8.777V21.777z" transform="matrix(-1 0 0 1 136 22)"/><path fill="url(#c)" fill-rule="nonzero" d="M15 119c1.19-1.166 2.37-2.35 3.56-3.55l9.678-9.555 6.945-7.013 2.084-2.103L52.892 81l30.074 29.222h1.568L79 104.94 91.635 93l18.126 17.222h1.259V22l8.98-9v106z" transform="matrix(-1 0 0 1 147 22)"/><path fill="#000" fill-opacity=".1" fill-rule="nonzero" d="M42.624 162.1c-9.078-.575-13.62-1.275-13.624-2.1-.005-.825 4.537-1.537 13.624-2.137 9.088-.576 20.053-.863 32.897-.863 12.843 0 23.808.287 32.896.863 9.05.6 13.578 1.312 13.583 2.137.005.825-4.537 1.525-13.624 2.1-9.088.6-20.053.9-32.897.9-12.843 0-23.794-.3-32.855-.9z"/><path fill="url(#d)" d="M45.936 19.98a18.51 18.51 0 01-.27 1.967l-.035.18a18.46 18.46 0 01-2.264 5.836l-.25.406a18.648 18.648 0 01-2.669 3.3A18.517 18.517 0 0127.475 37C17.276 36.989 9.01 28.724 9 18.525c0-.43.014-.857.042-1.283l.044-.526a18.492 18.492 0 014.37-10.26l.305-.348a18.509 18.509 0 011.262-1.27l.102-.092A18.495 18.495 0 0127.475 0C37.695.028 45.972 8.306 46 18.525c-.002.32-.012.638-.03.954z" transform="matrix(-1 0 0 1 67 22)"/><path fill="url(#e)" d="M40.519 31.43c-4.394-1.171-9.41-2.973-14.621-5.33l-.45-.204-.918-.426c-5.247-2.456-9.973-5.145-13.844-7.784l-.644-.444-.29-.203-.687-.492-.667-.49C2.383 11.58-.907 7.418.218 4.995 1.426 2.4 7.414 2.418 15.513 4.58l.613.167-.102.092-.315.294-.309.303-.324.333-.314.34-.306.347-.112-.028c-4.847-1.219-8.2-1.289-8.836.08-.59 1.266 1.256 3.533 4.74 6.203l.613.462c3.71 2.745 9.05 5.867 15.193 8.748 6.628 3.108 12.87 5.315 17.467 6.323l.597.126.656.126.63.108c3.08.493 5.128.283 5.612-.756.539-1.158-.959-3.153-3.884-5.529l-.465-.371.087-.485c.053-.325.098-.653.135-.984l.048-.498.035-.501.237.173c6.265 4.587 9.723 8.877 8.573 11.353-1.13 2.43-6.452 2.569-13.773.802l-.56-.137-.93-.24z" transform="matrix(-1 0 0 1 68 22)"/><path fill="url(#f)" fill-rule="nonzero" d="M88.524 73.071a1.922 1.922 0 00-1.504.201c-.49.284-.837.76-.958 1.312a1.852 1.852 0 00.25 1.505c.297.477.767.82 1.311.958a1.866 1.866 0 001.513-.25c.487-.283.832-.76.95-1.311a2.07 2.07 0 00-.25-1.505 1.963 1.963 0 00-1.312-.91z" transform="translate(12 22)"/><path fill="#00E59B" fill-rule="nonzero" d="M42.225 86.054a.784.784 0 00-.763.108 1.02 1.02 0 00-.45.58c-.038.255.014.515.15.737.136.231.354.407.613.496.262.064.54.005.75-.158.222-.132.386-.338.463-.58a1.092 1.092 0 00-.15-.736.96.96 0 00-.613-.447z"/><path fill="#FFF" fill-rule="nonzero" d="M86.829 57.941L88 56l-1.941 1.171a1.893 1.893 0 01-2.118 0L82 56l1.171 1.941c.432.64.432 1.478 0 2.118L82 62l1.893-1.203a1.941 1.941 0 012.118 0l1.94 1.187-1.17-1.941a1.893 1.893 0 01.048-2.102z"/><path fill="#231F20" fill-rule="nonzero" d="M69.368 49.23a.804.804 0 10-1.127 1.149.804.804 0 001.127-1.149z"/><path fill="url(#g)" fill-rule="nonzero" d="M37.772 55.068a.804.804 0 00.482-.16L66.294 24 37.209 53.861a.555.555 0 00-.2.523c.002.212.089.415.24.564.152.109.34.152.524.12zm-6 28a.804.804 0 00.482-.16L60.294 52 31.209 81.861a.555.555 0 00-.2.523c.002.212.089.415.24.564.152.109.34.152.524.12z" transform="translate(12 22)"/><path fill="url(#h)" fill-rule="nonzero" d="M90.817 53.99a.85.85 0 00.51-.172L121 21 90.22 52.707a.59.59 0 00-.212.556c.003.225.095.44.255.598a.73.73 0 00.554.128z" transform="translate(12 22)"/><path fill="#00E59B" d="M69.705 94.295L68 93.5l1.705-.795L70.5 91l.795 1.705L73 93.5l-1.705.795L70.5 96z"/></g></svg>