<svg xmlns="http://www.w3.org/2000/svg" viewBox="0 0 150 180"><defs><linearGradient id="a" x1="-80.717%" x2="-1339.717%" y1="-259%" y2="-3440%"><stop offset="0%" stop-color="#00D38F"/><stop offset="100%" stop-color="#00D38F" stop-opacity="0"/></linearGradient><linearGradient id="b" x1="71.925%" x2="0%" y1="52.615%" y2="48.879%"><stop offset="0%" stop-color="#C2C2C2"/><stop offset="100%" stop-color="#FFF"/></linearGradient><linearGradient id="c" x1="98.496%" x2="-1.058%" y1="41.483%" y2="18.389%"><stop offset="0%" stop-color="#C2C2C2"/><stop offset="100%" stop-color="#FFF"/></linearGradient><linearGradient id="d" x1="66.948%" x2="25.115%" y1="119.103%" y2="-45.954%"><stop offset="0%" stop-color="#00D38F" stop-opacity=".65"/><stop offset="100%" stop-color="#00D38F" stop-opacity="0"/></linearGradient><linearGradient id="e" x1="199.692%" x2="10.047%" y1="183.156%" y2="22.005%"><stop offset="0%" stop-color="#00D38F" stop-opacity=".98"/><stop offset="100%" stop-color="#00D38F" stop-opacity="0"/></linearGradient><linearGradient id="f" x1="28.844%" x2="50%" y1="36.055%" y2="63.164%"><stop offset="0%" stop-color="#C2C2C2"/><stop offset="100%" stop-color="#9A9EA1"/></linearGradient><linearGradient id="g" x1="45.216%" x2="51.394%" y1="94.33%" y2="37.496%"><stop offset="0%" stop-color="#FFF" stop-opacity="0"/><stop offset="100%" stop-color="#FFF"/></linearGradient><linearGradient id="h" x1="57.295%" x2="57.295%" y1="0%" y2="30.302%"><stop offset="0%" stop-color="#00D38F"/><stop offset="100%" stop-color="#00D38F" stop-opacity="0"/></linearGradient><linearGradient id="i" x1="50%" x2="50%" y1="0%" y2="40.303%"><stop offset="0%" stop-color="#00D38F"/><stop offset="100%" stop-color="#00D38F" stop-opacity="0"/></linearGradient><linearGradient id="j" x1="50%" x2="50%" y1="0%" y2="50%"><stop offset="0%" stop-color="#00D38F"/><stop offset="100%" stop-color="#00D38F" stop-opacity="0"/></linearGradient><linearGradient id="k" x1="2.234%" x2="74.527%" y1="48.331%" y2="51.764%"><stop offset="0%" stop-color="#C2C2C2"/><stop offset="100%" stop-color="#9A9EA1"/></linearGradient></defs><g fill="none" fill-rule="evenodd" transform="translate(21 14)"><path fill="#161A1F" d="M40.576 120l28.56-1.895L78 108l-6.152-3.158L43.53 102l-24.054 2.069L13 107.684l6.894 8.527z"/><path fill="url(#a)" fill-rule="nonzero" d="M77.453 90.45a.5.5 0 000 .15.52.52 0 00.1-.2h-.1v.05z"/><path fill="#696969" fill-rule="nonzero" d="M22 104v24h44.969c.041-.018.041-8.018 0-24H22z"/><path fill="url(#b)" fill-rule="nonzero" d="M0 128.776L29.766 145 92 130.804l-14-10.14v-6.235c-5.208 2.582-8.455 3.984-9.742 4.207-1.93.333-20.903 4.68-31.656 4.056-13.19 0-21.057-2.755-23.602-8.263v6.235l-13 8.112z"/><path fill="#161A1F" fill-rule="nonzero" d="M50.087 61.872h-.078l-2.308-.497L31.688 58l-16.236 5.444c-.086.151-.414.773-.535.95-2.553 4.335-3.962 8.725-4.572 13.757a42.516 42.516 0 001.18 16.687c.195.663 1.02 2.934 2.475 6.811l2.675 1.582 7.804 3.064.612.177L29.397 108l7.029-1.075 10.336-1.625 3.316-.533h.043l5.013-.817 4.152-.621 5.926-15.347-.259-1.163c-.336-1.493.346-3.672 2.047-6.536-1.628-1.708-2.382-2.933-2.262-3.677l-7.752-13.269-6.9-1.465z"/><path fill="url(#c)" fill-rule="nonzero" d="M62.084 49.939L46.007 47l-12.826 2.234-15.256 9.521-2.547 4.831 15.486-4.335 17.83 3.701h.043l6.719 1.376 9.813 14.999c0 .583-.771 3.586-2.312 9.009l-5.259 14.221-4.048.595-4.888.78h-.067l-3.234.51-10.078 1.554-6.845 1.027-4.2-1.46-.596-.17L14 101.65c.084.17 2.312 3.914 3.275 5.374.513.85 1.084 1.622 1.68 2.454L30.134 113l24.507-2.063 13.48-6.19 6.34-7.309 4.306-7.336L79 73.695l-.981-5.878-5.14-9.062-10.795-8.816z"/><path fill="url(#d)" fill-rule="nonzero" d="M53.478 92.733l-1.802.755c.427.272.838.518 1.241.755A9.645 9.645 0 0152.751 96c.463-.619.959-1.205 1.486-1.757.575-.287 1.163-.54 1.763-.755a5.87 5.87 0 00-1.162-.755 10.927 10.927 0 00-.08-1.818c-.388.637-.816 1.245-1.28 1.818zM49.96 68c0 .878 0 1.844-.079 2.846-.672.272-1.296.553-1.881.878.66.41 1.342.78 2.04 1.107.213.948.466 1.914.79 2.89.245-.976.443-1.942.6-2.89.673-.325 1.392-.65 2.167-.975a38.808 38.808 0 01-2.372-.984A28.026 28.026 0 0049.96 68z"/><path fill="url(#e)" fill-rule="nonzero" d="M33.41 59.573L30.525 59l-14.718 4.789-.267.442a28.743 28.743 0 00-2.357 4.659 32.227 32.227 0 00-2.011 7.911L11 78.38a15.774 15.774 0 002.184 3.817 18.45 18.45 0 005.861 4.84 14.3 14.3 0 0016.824-1.734c1.114.355 2.176.676 3.194.963 4.316 1.058 6.906.737 7.77-.963.661-1.463-.637-4.025-3.894-7.686-.172-.168-1.018-1.12-2.538-2.854a1.595 1.595 0 01-.043-.347 18.147 18.147 0 00-.656-5.89 16.1 16.1 0 00-6.293-8.919v-.034zm6.905 17.306c2.477 3.106 3.6 5.353 3.367 6.767-1.105.52-3.03.408-5.775-.356a.301.301 0 00-.302-.087c.461-.7.871-1.434 1.225-2.194a22.359 22.359 0 001.356-4.399.87.87 0 00.129.27z"/><path fill="url(#f)" fill-rule="nonzero" d="M72.002 65l-5.711 3.329L63 76.421l.22 9.943 3.071 6.459L71.514 95l4.113-.998 3.084-3.99 1.028-6.983.261-3.971-1.962-9.329-3.098-3.709z"/><path fill="#000" fill-rule="nonzero" d="M75.221 71.2L77 71h-4.16l-1.811 2.155L69 79.723l1.397 6.692L72.84 89h3.12l-2.27-1.214-.952-1.412-1.397-6.692 2.029-6.568.498-.666 1.353-1.289z"/><path fill="#C2C2C2" fill-rule="nonzero" d="M75 71l-2.049 2.627L71 80.196l2 6.909L75 89h3l3-2.842 1-5.684-1-6.632L78 71z"/><path fill="#FFF" fill-rule="nonzero" d="M45.835 93.165a.437.437 0 01.165.338.544.544 0 01-.165.363.462.462 0 01-.338.132.454.454 0 01-.495-.495.462.462 0 01.132-.338.544.544 0 01.363-.165.437.437 0 01.338.165zm-15.999 7.678a.439.439 0 00.164-.347.514.514 0 00-.164-.363.44.44 0 00-.336-.132.53.53 0 00-.36.132.556.556 0 00-.14.363.473.473 0 00.14.347.482.482 0 00.36.157.409.409 0 00.336-.157zm13.388-33.619a.35.35 0 00-.13.27.41.41 0 00.4.41.38.38 0 00.41-.41.41.41 0 00-.41-.4.35.35 0 00-.27.13zm2.001-.999a.35.35 0 00-.13.27c0 .11.047.216.13.29a.37.37 0 00.27.12.41.41 0 00.41-.41.37.37 0 00-.12-.27.39.39 0 00-.29-.13.35.35 0 00-.27.13zM59.32 83.32a.23.23 0 00-.09.18.26.26 0 00.09.19.25.25 0 00.18.08.32.32 0 00.2-.08.28.28 0 00.07-.19.24.24 0 00-.07-.18.28.28 0 00-.2-.09.23.23 0 00-.18.09zm-3.484-5.156A.442.442 0 0156 78.5a.524.524 0 01-.164.36c-.089.09-.21.14-.336.14a.475.475 0 01-.5-.5c0-.126.05-.247.14-.336A.524.524 0 0155.5 78c.131.002.254.062.336.164zM43.32 100.319a.23.23 0 00-.09.18.28.28 0 00.09.2.24.24 0 00.18.07.24.24 0 00.27-.27.24.24 0 00-.07-.18.28.28 0 00-.2-.09.23.23 0 00-.18.09zm-10.999-7a.23.23 0 00-.09.18.28.28 0 00.09.2.24.24 0 00.18.07.28.28 0 00.19-.07.32.32 0 00.08-.2.25.25 0 00-.08-.18.26.26 0 00-.19-.09.23.23 0 00-.18.09z"/><path fill="#FFF" fill-opacity=".2" fill-rule="nonzero" d="M15.234 66.507l-2.932 9.063c-1.155 5.383-1.541 9.527-1.16 12.433a31.691 31.691 0 002.27 8.395c.361.99.865 1.92 1.495 2.76L28.269 105C25.279 91.026 25.857 76.693 30 62l-14.766 4.507z"/><path fill="url(#g)" fill-rule="nonzero" d="M14.706 92.622L18.01 96a35.97 35.97 0 00-.154-4.756l-3.695-4.94c-.33.754-.154 2.86.545 6.318zm5.256-18.577L16.066 70c-1.465 6.137-2.049 10.612-1.751 13.426l3.972 5.265c.281-7.395.853-12.268 1.713-14.62l-.038-.026z"/><path fill="#000" fill-rule="nonzero" d="M79.379 33.565A1.92 1.92 0 0078 33.001a1.955 1.955 0 00-2 2 1.842 1.842 0 00.577 1.366A1.92 1.92 0 0078 37a2.158 2.158 0 002-2 1.977 1.977 0 00-.621-1.435z"/><path fill="#000" d="M77.35 35H79v46.803L78 83h-2v-2h1z"/><circle cx="79.5" cy="29.5" r="22" stroke="url(#h)" transform="rotate(25 79.5 29.5)"/><path stroke="url(#i)" d="M79.511 43.5a13.961 13.961 0 01-8.655-3.001 14 14 0 01-5.356-11.01 13.933 13.933 0 014.092-9.897A13.933 13.933 0 0179.49 15.5a13.98 13.98 0 019.902 4.109A13.98 13.98 0 0193.5 29.51a13.933 13.933 0 01-4.092 9.897A13.933 13.933 0 0179.51 43.5z" transform="rotate(25 79.5 29.5)"/><circle cx="78.5" cy="33.5" r="8" stroke="url(#j)" transform="rotate(25 78.5 33.5)"/><path fill="url(#k)" d="M32.547 124l35.605-3L78 114.429V108l-10.833 6-34.47 3-13.938-3L13 107.684V116l5.909 5z"/></g></svg>