<svg xmlns="http://www.w3.org/2000/svg" xmlns:xlink="http://www.w3.org/1999/xlink" viewBox="0 0 150 180"><defs><linearGradient id="a" x1="77.347%" x2="2.954%" y1="100%" y2="-12.693%"><stop offset="0%" stop-color="#C2C2C2"/><stop offset="1.183%" stop-color="#C2C2C2"/><stop offset="2.365%" stop-color="#C2C2C2"/><stop offset="3.548%" stop-color="#C2C2C2"/><stop offset="4.73%" stop-color="#C2C2C2"/><stop offset="5.913%" stop-color="#C2C2C2"/><stop offset="5.913%" stop-color="#C2C2C2"/><stop offset="7.095%" stop-color="#C2C2C2"/><stop offset="8.278%" stop-color="#C2C2C2"/><stop offset="9.46%" stop-color="#C2C2C2"/><stop offset="10.643%" stop-color="#C2C2C2"/><stop offset="11.825%" stop-color="#C2C2C2"/><stop offset="11.825%" stop-color="#C2C2C2"/><stop offset="13.008%" stop-color="#C2C2C2"/><stop offset="14.19%" stop-color="#C2C2C2"/><stop offset="15.373%" stop-color="#C2C2C2"/><stop offset="16.555%" stop-color="#C2C2C2"/><stop offset="17.738%" stop-color="#C2C2C2"/><stop offset="17.738%" stop-color="#C2C2C2"/><stop offset="18.92%" stop-color="#C2C2C2"/><stop offset="20.103%" stop-color="#C2C2C2"/><stop offset="21.285%" stop-color="#C2C2C2"/><stop offset="22.468%" stop-color="#C2C2C2"/><stop offset="23.65%" stop-color="#C2C2C2"/><stop offset="23.65%" stop-color="#C2C2C2"/><stop offset="24.833%" stop-color="#C2C2C2"/><stop offset="26.015%" stop-color="#C2C2C2"/><stop offset="27.198%" stop-color="#C2C2C2"/><stop offset="28.38%" stop-color="#C2C2C2"/><stop offset="29.563%" stop-color="#C2C2C2"/><stop offset="29.563%" stop-color="#C2C2C2"/><stop offset="29.563%" stop-color="#C2C2C2"/><stop offset="29.563%" stop-color="#C2C2C2"/><stop offset="29.563%" stop-color="#C2C2C2"/><stop offset="29.563%" stop-color="#C2C2C2"/><stop offset="29.563%" stop-color="#C2C2C2"/><stop offset="29.563%" stop-color="#C2C2C2"/><stop offset="32.38%" stop-color="#C4C4C4"/><stop offset="35.198%" stop-color="#C7C7C7"/><stop offset="38.015%" stop-color="#C9C9C9"/><stop offset="40.833%" stop-color="#CCC"/><stop offset="43.65%" stop-color="#CECECE"/><stop offset="43.65%" stop-color="#CECECE"/><stop offset="46.468%" stop-color="#D0D0D0"/><stop offset="49.285%" stop-color="#D3D3D3"/><stop offset="52.103%" stop-color="#D5D5D5"/><stop offset="54.92%" stop-color="#D8D8D8"/><stop offset="57.738%" stop-color="#DADADA"/><stop offset="57.738%" stop-color="#DADADA"/><stop offset="60.555%" stop-color="#DDD"/><stop offset="63.373%" stop-color="#DFDFDF"/><stop offset="66.19%" stop-color="#E2E2E2"/><stop offset="69.008%" stop-color="#E4E4E4"/><stop offset="71.825%" stop-color="#E7E7E7"/><stop offset="71.825%" stop-color="#E7E7E7"/><stop offset="74.643%" stop-color="#E9E9E9"/><stop offset="77.46%" stop-color="#ECECEC"/><stop offset="80.278%" stop-color="#EEE"/><stop offset="83.095%" stop-color="#F1F1F1"/><stop offset="85.913%" stop-color="#F3F3F3"/><stop offset="85.913%" stop-color="#F3F3F3"/><stop offset="88.73%" stop-color="#F5F5F5"/><stop offset="91.548%" stop-color="#F8F8F8"/><stop offset="94.365%" stop-color="#FAFAFA"/><stop offset="97.183%" stop-color="#FDFDFD"/><stop offset="100%" stop-color="#FFF"/></linearGradient><linearGradient id="c" x1="50%" x2="50%" y1="0%" y2="100%"><stop offset="0%" stop-color="#9A9EA1" stop-opacity="0"/><stop offset="100%" stop-color="#9A9EA1"/></linearGradient><linearGradient id="d" x1="50%" x2="50%" y1="0%" y2="100%"><stop offset="0%" stop-color="#9A9EA1" stop-opacity="0"/><stop offset="100%" stop-color="#9A9EA1"/></linearGradient><linearGradient id="e" x1="50%" x2="50%" y1="0%" y2="100%"><stop offset="0%" stop-color="#9A9EA1" stop-opacity="0"/><stop offset="100%" stop-color="#9A9EA1"/></linearGradient><linearGradient id="f" x1="22.107%" x2="91.25%" y1="35.469%" y2="71.493%"><stop offset="0%" stop-color="#9A9EA1" stop-opacity="0"/><stop offset="100%" stop-color="#9A9EA1"/></linearGradient><linearGradient id="g" x1="17.254%" x2="50%" y1="23.881%" y2="100%"><stop offset="0%" stop-color="#9A9EA1" stop-opacity="0"/><stop offset="100%" stop-color="#9A9EA1"/></linearGradient><linearGradient id="h" x1="-11.178%" x2="100%" y1="49.046%" y2="50.523%"><stop offset="0%" stop-color="#161A1F" stop-opacity="0"/><stop offset="100%" stop-color="#161A1F"/></linearGradient><linearGradient id="i" x1="-11.178%" x2="100%" y1="48.994%" y2="50.551%"><stop offset="0%" stop-color="#161A1F" stop-opacity="0"/><stop offset="100%" stop-color="#161A1F"/></linearGradient><linearGradient id="j" x1="-11.178%" x2="100%" y1="49.015%" y2="50.54%"><stop offset="0%" stop-color="#161A1F" stop-opacity="0"/><stop offset="100%" stop-color="#161A1F"/></linearGradient><linearGradient id="k" x1="-11.178%" x2="100%" y1="30.879%" y2="60.48%"><stop offset="0%" stop-color="#161A1F" stop-opacity="0"/><stop offset="100%" stop-color="#161A1F"/></linearGradient><linearGradient id="l" x1="4.535%" x2="87.158%" y1="-51.83%" y2="105.812%"><stop offset="0%" stop-color="#161A1F" stop-opacity="0"/><stop offset="100%" stop-color="#161A1F"/></linearGradient><linearGradient id="m" x1="76.625%" x2="-12.87%" y1="79.897%" y2="-13.205%"><stop offset="0%" stop-color="#00D38F"/><stop offset="100%" stop-color="#00D38F" stop-opacity="0"/></linearGradient><linearGradient id="n" x1="24.39%" x2="110.365%" y1="100%" y2="-49.765%"><stop offset="0%" stop-color="#00D38F"/><stop offset="100%" stop-color="#00D38F" stop-opacity=".05"/></linearGradient><linearGradient id="o" x1="25.803%" x2="107.034%" y1="100%" y2="-49.765%"><stop offset="0%" stop-color="#00D38F"/><stop offset="100%" stop-color="#00D38F" stop-opacity=".05"/></linearGradient><linearGradient id="p" x1="-46.797%" x2="115.013%" y1="167.052%" y2="-26%"><stop offset="0%" stop-color="#00D38F"/><stop offset="100%" stop-color="#00D38F" stop-opacity=".05"/></linearGradient><path id="b" d="M11.533 8.589l77.211.118.151 98.704-77.211-.118z"/></defs><g fill="none" fill-rule="evenodd"><g transform="translate(27 30)"><path fill="#000" fill-opacity=".1" fill-rule="nonzero" d="M49.5 128.005a693.124 693.124 0 00-34.29.717C5.735 129.222 1 129.814 1 130.5c0 .686 4.736 1.268 14.21 1.747 11.378.542 22.832.792 34.29.748a666.738 666.738 0 0034.29-.748c9.463-.483 14.2-1.065 14.21-1.747.01-.682-4.726-1.275-14.21-1.778a693.124 693.124 0 00-34.29-.717z"/><use fill="url(#a)" fill-rule="nonzero" transform="rotate(15 50.214 58)" xlink:href="#b"/><path fill="url(#c)" fill-rule="nonzero" d="M39.532 79l42.02 11.338-1.532 5.755L38 84.754z"/><path fill="url(#d)" d="M31.553 90l46.451 12.53-1.544 5.798L30 95.796z"/><path fill="url(#e)" d="M47.553 68l37.171 9.96-1.544 5.798L46 73.796z"/><path fill="url(#f)" fill-rule="nonzero" d="M20.468 19.679l50.373 13.58-6.234 25.336-50.876-13.618z"/><path fill="url(#g)" d="M83.848 15.954l16.341 4.405-5.139 19.3-16.377-4.388 5.175-19.317z"/></g><path fill="url(#h)" d="M33 94h62v6H33z" transform="rotate(15 -34.638 198.851)"/><path fill="url(#i)" fill-rule="nonzero" d="M40.036 82.726l60.99.109.01 5.954-60.99-.108z" transform="rotate(15 -28.102 187.61)"/><path fill="url(#j)" d="M48 72h61v6H48z" transform="rotate(15 -20.138 176.851)"/><path fill="url(#k)" d="M6 19h63v27.3H6z" transform="rotate(15 -61.138 134.501)"/><path fill="url(#l)" d="M84 6h25v29H84z" transform="rotate(15 -2.138 122.351)"/><g transform="translate(23 29.168)"><path fill="url(#m)" fill-rule="nonzero" d="M97.479 54.358L102 56.832l-4.521 2.474-2.483 4.526-2.475-4.526L88 56.832l4.521-2.474 2.475-4.526z"/><circle cx="56" cy="14.832" r="1" fill="#000"/><path fill="url(#n)" fill-rule="nonzero" d="M8.608 67.732l24.284-35.698v-.202L7.089 66.361 7 67.112l.328.614.672.285.586-.234z" transform="scale(-1 1) rotate(-81 0 73.275)"/><path fill="url(#o)" fill-rule="nonzero" d="M35.993 113.655L51 90.961v-.129l-15.945 21.952-.055.476.203.391.415.181.362-.148z" transform="scale(-1 1) rotate(-81 0 152.678)"/><path fill="#FFF" fill-rule="nonzero" d="M20 80.333l3.532-1.04-1.033 3.539 1.033 3.54L20 85.33l-3.54 1.033 1.041-3.532-1.04-3.532z"/><path fill="#292F34" d="M69.645 1.11l2.144.328 1.08 1.881-.798 2.018-2.074.634-1.79-1.226-.156-2.164z"/><path fill="url(#p)" fill-rule="nonzero" d="M84.56 54.311l27.199-40.455v-.23L82.858 52.757l-.099.851.368.696.753.322.655-.264z" transform="scale(-1 1) rotate(-81 0 148.002)"/></g></g></svg>