<svg xmlns="http://www.w3.org/2000/svg" xmlns:xlink="http://www.w3.org/1999/xlink" viewBox="0 0 150 180"><defs><linearGradient id="b" x1="34.404%" x2="77.429%" y1="22.938%" y2="77.849%"><stop offset="0%" stop-color="#C2C2C2"/><stop offset="100%" stop-color="#9A9EA1"/></linearGradient><linearGradient id="d" x1="50%" x2="50%" y1="0%" y2="100%"><stop offset="0%" stop-color="#00D38F" stop-opacity="0"/><stop offset="100%" stop-color="#00D38F"/></linearGradient><linearGradient id="e" x1="50%" x2="50%" y1="0%" y2="100%"><stop offset="0%" stop-color="#00D38F" stop-opacity="0"/><stop offset="100%" stop-color="#00D38F"/></linearGradient><linearGradient id="f" x1="37.025%" x2="50%" y1="45.486%" y2="57.56%"><stop offset="0%" stop-color="#9A9EA1" stop-opacity="0"/><stop offset="100%" stop-color="#9A9EA1"/><stop offset="100%" stop-color="#9A9EA1"/></linearGradient><linearGradient id="g" x1="3.628%" x2="44.472%" y1="8.648%" y2="79.193%"><stop offset="0%" stop-color="#FFF"/><stop offset="100%" stop-color="#292F34"/></linearGradient><linearGradient id="h" x1="65.77%" x2="36.21%" y1="19.942%" y2="76.17%"><stop offset="0%" stop-color="#161A1F" stop-opacity="0"/><stop offset="100%" stop-color="#161A1F"/></linearGradient><linearGradient id="j" x1="38.446%" x2="23.243%" y1="72.713%" y2="101.843%"><stop offset="0%" stop-color="#00D38F" stop-opacity="0"/><stop offset="15.822%" stop-color="#00D38F" stop-opacity=".009"/><stop offset="40.729%" stop-color="#00D38F" stop-opacity=".133"/><stop offset="100%" stop-color="#00D38F"/></linearGradient><linearGradient id="l" x1="50%" x2="50%" y1="0%" y2="100%"><stop offset="0%" stop-color="#00EBC2"/><stop offset="100%" stop-color="#00D38F"/></linearGradient><linearGradient id="m" x1="50%" x2="50%" y1="0%" y2="100%"><stop offset="0%" stop-color="#00EBC2"/><stop offset="100%" stop-color="#00D38F"/></linearGradient><linearGradient id="n" x1="24.39%" x2="65.446%" y1="100%" y2="14.794%"><stop offset="0%" stop-color="#00D38F"/><stop offset="100%" stop-color="#00D38F" stop-opacity=".05"/></linearGradient><linearGradient id="o" x1="23.781%" x2="65.39%" y1="100%" y2="19.211%"><stop offset="0%" stop-color="#00D38F"/><stop offset="100%" stop-color="#00D38F" stop-opacity=".05"/></linearGradient><path id="a" d="M30.168 6.546l-4.87.036 1.199-1.708.327-2.49L21.736.036 21.663 0 11.159 2.562 2.435 7.934v.035L.582 13.235l2.471 2.027h1.49l-3.234 3.202L0 22.058l4.689 14.48 9.196.462 11.195-2.455.799-.178 9.051-6.048L41 21.524 33.694 8.147z"/><path id="i" d="M52.934 16.952L10.596 76.228l-2.968 5.824-.983 2.975 3.234-3.02 3.237-3.574 41.938-61.852 5.015-6.884z"/><path id="k" d="M52.934 16.952L10.596 76.228l-2.968 5.824-.983 2.975 3.234-3.02 3.237-3.574 41.938-61.852 5.015-6.884z"/></defs><g fill="none" fill-rule="evenodd"><g transform="translate(45 116)"><mask id="c" fill="#fff"><use xlink:href="#a"/></mask><use fill="url(#b)" fill-rule="nonzero" xlink:href="#a"/><path fill="#9A9EA1" fill-rule="nonzero" d="M7.209 16.249l8.105-4.427 4.756-3.687-4.543 4.686-2.947 2.091-6.513 3.341-2.81.598 1.258-2.029z" mask="url(#c)" transform="rotate(12 11.664 13.493)"/><path fill="url(#d)" fill-rule="nonzero" d="M19 20.923l-5.724-1.614-7.172 1.614L3 27.049l3.5 6.382 6.776 1.333 10.535-2.657 9.301-6.026 1.178-5.158L33.112 17 31 18.5l-4 2.423z" mask="url(#c)"/><path fill="url(#e)" fill-rule="nonzero" d="M28.114 11l-3.325 3.26c-.233-.151-1.875.268-4.925 1.258l-1.505 2.349 1.505.633 2.631-1.017 5.104-.417 3.745-1.82L32 12.1 28.114 11z" mask="url(#c)"/><path fill="url(#f)" fill-rule="nonzero" d="M11.17 2.099L3.483 6.337l-.475 1.898L6.719 9l7.798-2.242 6.219-3.48 1.272-2.28-3.413-.685z" mask="url(#c)" transform="rotate(-3 12.508 4.656)"/></g><path fill="#FFF" d="M52.5 139.598l-3.182 2.084 2.083-3.182-2.083-3.182 3.182 2.083 3.182-2.083-2.083 3.182 2.083 3.182z"/><g fill-rule="nonzero" transform="rotate(-1 1551.136 -2748.422)"><path fill="url(#g)" d="M71.133 1.125l-11.282.936-10.845 6.564-9.917 7.275-10.865 17.084 1.495 4.251-2.8-1.07 1.848 2.381-2.988.285-8.193 18.024-.034 12.576 10.667-2.845c1.47-.449 4.04-2.083 7.71-4.903a121.741 121.741 0 005.175-4.12L53.992 44.62l4.255-8.524 1.602-2.008-5.993-3.299 7.437 2.145 2.53-6.767 2.059-15.7 5.251-9.342z" transform="rotate(-1 44.343 35.278)"/><use fill="url(#h)" transform="rotate(-1 33.357 47.362)" xlink:href="#i"/><use fill="url(#j)" transform="rotate(-1 33.357 47.362)" xlink:href="#k"/></g><path fill="#161A1F" fill-rule="nonzero" d="M22 45.994L22.742 47 24 46.607V45.38L22.805 45z"/><path fill="#292F34" d="M125 51l1.414.586L127 53l-.586 1.414L125 55l-1.414-.586L123 53l.586-1.414z"/><path fill="#00E59B" d="M47.5 71l1.061.439L49 72.5l-.439 1.06L47.5 74l-1.061-.44L46 72.5l.439-1.061z"/><path fill="url(#l)" fill-rule="nonzero" d="M23 91.498l-7.092-4.472-5.499 1.582L9 94.771l3.956 1.255 5.789-4.364z" transform="translate(22 24.974)"/><path fill="url(#m)" fill-rule="nonzero" d="M22.809 79.662L27 81.026l-.111-7.556-4.56-.444L21 77.45z" transform="translate(22 24.974)"/><path fill="#000" fill-opacity=".1" fill-rule="nonzero" d="M72 159.004a212.435 212.435 0 00-16.969.574C50.344 159.977 48 160.45 48 161c0 .549 2.344 1.014 7.031 1.397 5.631.434 11.299.634 16.969.599 5.67.035 11.338-.165 16.969-.6 4.682-.385 7.026-.85 7.031-1.396.005-.546-2.339-1.02-7.031-1.422-5.633-.417-11.3-.609-16.969-.574z"/><path fill="url(#n)" fill-rule="nonzero" d="M99.608 133.9l24.284-35.697V98l-25.803 34.529-.089.751.328.614.672.285.586-.234z" transform="scale(-1 1) rotate(-81 0 245.99)"/><path fill="url(#o)" fill-rule="nonzero" d="M31.07 77.982l39.392-57.23.001-.324-41.857 55.356-.143 1.202.532.986 1.09.456.949-.374z" transform="scale(-1 1) rotate(-81 0 107.341)"/></g></svg>