<svg xmlns="http://www.w3.org/2000/svg" viewBox="0 0 150 180"><defs><linearGradient id="a" x1="50%" x2="50%" y1="0%" y2="100%"><stop offset="0%" stop-color="#00D38F"/><stop offset="100%" stop-color="#FFF"/></linearGradient><linearGradient id="b" x1="0%" x2="70.438%" y1="-13.173%" y2="74.687%"><stop offset="0%" stop-color="#FFF"/><stop offset="100%" stop-color="#292F34"/></linearGradient><linearGradient id="c" x1="50%" x2="50%" y1="100%" y2="21.4%"><stop offset="0%" stop-color="#C2C2C2" stop-opacity="0"/><stop offset="100%" stop-color="#C2C2C2"/></linearGradient><linearGradient id="d" x1="50%" x2="50%" y1="100%" y2="0%"><stop offset="0%" stop-color="#C2C2C2" stop-opacity="0"/><stop offset="100%" stop-color="#C2C2C2"/></linearGradient><linearGradient id="e" x1="-11.178%" x2="58.468%" y1="-16.227%" y2="50%"><stop offset="0%" stop-color="#FFF"/><stop offset="100%" stop-color="#292F34"/></linearGradient><linearGradient id="f" x1="0%" x2="50%" y1=".181%" y2="99.819%"><stop offset="0%" stop-color="#00EBC2"/><stop offset="100%" stop-color="#00D38F"/></linearGradient><linearGradient id="g" x1="33.466%" x2="70.085%" y1="-16.308%" y2="83.837%"><stop offset="0%" stop-color="#FFF"/><stop offset="100%" stop-color="#161A1F"/></linearGradient><linearGradient id="h" x1="-71.069%" x2="100%" y1="-66.772%" y2="50%"><stop offset="0%" stop-color="#FFF" stop-opacity="0"/><stop offset="100%" stop-color="#FFF"/></linearGradient><linearGradient id="i" x1="-11.178%" x2="100%" y1="-51.83%" y2="105.812%"><stop offset="0%" stop-color="#292F34" stop-opacity="0"/><stop offset="100%" stop-color="#292F34"/></linearGradient><linearGradient id="j" x1="-164.66%" x2="620.33%" y1="119.527%" y2="-261.971%"><stop offset="0%" stop-color="#00D38F" stop-opacity="0"/><stop offset="100%" stop-color="#00D38F"/></linearGradient><linearGradient id="k" x1="-248.407%" x2="223.927%" y1="100%" y2="100%"><stop offset="0%" stop-color="#292F34" stop-opacity="0"/><stop offset="100%" stop-color="#292F34"/></linearGradient></defs><g fill="none" fill-rule="evenodd"><g fill-rule="nonzero"><path fill="url(#a)" d="M19 32v103h31V32z" transform="translate(38 26)"/><path fill="url(#b)" d="M22.326 80.516l-8.81-3.392-8.875 3.392L1 88.696l3.641 8.118 8.875 3.31 8.843-3.367L26 88.639z" transform="translate(38 26)"/><path fill="#FFF" d="M52.828 107.124L52 108.442l.087 2.076.964 1.848 1.391.758 1.169-.682.389-1.803-.563-2.099-1.236-1.386z"/><path fill="url(#c)" d="M74 75H45v60h29z" transform="translate(38 26)"/><path fill="url(#d)" d="M0 103v32h29v-32z" transform="translate(38 26)"/><path fill="url(#e)" d="M29.87 22.401h2.903v4.874l.55 1.387 1.295.462.863-1.68V22.4h3.767v4.874l.55 1.387 1.294.462.864-1.68-.079-5.043h2.355v4.874l.549 1.387 1.295.462.863-1.68-.078-5.043h.98L50 14.628l-2.276-8.614-2.668-.966a17.376 17.376 0 00-3.414-.924H27.397a16.896 16.896 0 00-3.453.924l-2.59.966L19 14.628l2.158 7.773h1.099v4.874l.589 1.387 1.295.462.863-1.68-.079-5.043h2.316v4.874l.51 1.387 1.334.462.863-1.68-.078-5.043z" transform="translate(38 26)"/><path fill="#FFF" d="M62 133.586l-.415 1.412.417 1.415-1.418-.414-1.412.415.412-1.415-.41-1.415 1.411.414z"/><path fill="#FFF" fill-opacity=".5" d="M69.342 68.73l-3.14-1.6 3.07-1.774 1.624-3.138 1.745 3.041 3.167 1.595-3.07 1.773-1.634 3.155z"/><path fill="url(#f)" d="M54.488 9.098l-4.312-.996-4.155 1.49.992-4.298-1.501-4.144 4.289 1.002 4.172-1.52-.992 4.298z" transform="translate(38 26)"/><path fill="#FFF" d="M64.504 37.124l-.977.361-.527.905.183 1.026.794.708h1.046l.794-.708L66 38.39l-.527-.905zM81.532 37.124l-.977.361-.555.905.183 1.026.794.708h1.046l.794-.708L83 38.39l-.527-.905z"/><path fill="url(#g)" d="M71.252 65.492l-4.27 5.34-5.893 2.292-4.094-.198-4.796-2.163-2.724-2.727-1.834-3.554L47 59.713l1.024-4.397 3.171-4.147 19.118-13.045L72 60.248z" transform="translate(38 26)"/><path fill="#FFF" d="M97.6 86.234l2.716-1.436-.834-2.565-2.719 1.436zM89.386 83.728l2.062-1.61-.375-2.472-2.065 1.62z"/></g><path fill="url(#h)" d="M78 97l.782.377.193.846-.541.678h-.868l-.541-.678.193-.846z" transform="matrix(-1 0 0 1 156 0)"/><path fill="url(#i)" d="M75.5 75l1.173.565.289 1.269-.811 1.017h-1.302l-.811-1.017.289-1.269z" transform="rotate(30 75.5 76.5)"/><path fill="url(#j)" d="M75 116l1.564.753.386 1.692-1.082 1.357h-1.736l-1.082-1.357.386-1.692z" transform="rotate(51 75 118)"/><path fill="url(#k)" d="M69.797 88.426l.782.377.193.846-.541.678h-.868l-.541-.678.193-.846z" transform="rotate(51 69.797 89.426)"/><path fill="url(#h)" d="M77.5 80l.391.188.096.423-.27.339h-.434l-.27-.339.096-.423z" transform="matrix(-1 0 0 1 155 0)"/><path fill="#FFF" d="M88 107.611l-2.121 1.51 1.51-2.121-1.51-2.121 2.121 1.51 2.121-1.51-1.51 2.121 1.51 2.121z"/></g></svg>