<svg xmlns="http://www.w3.org/2000/svg" xmlns:xlink="http://www.w3.org/1999/xlink" viewBox="0 0 150 180"><defs><linearGradient id="a" x1="65.633%" x2="23.719%" y1="16.717%" y2="100%"><stop offset="0%" stop-color="#FFF"/><stop offset="100%" stop-color="#161A1F"/></linearGradient><linearGradient id="b" x1="64.573%" x2="25.5%" y1="16.717%" y2="100%"><stop offset="0%" stop-color="#FFF"/><stop offset="100%" stop-color="#161A1F"/></linearGradient><linearGradient id="c" x1="13.265%" x2="55.833%" y1="62.438%" y2="77.288%"><stop offset="0%" stop-color="#FFF"/><stop offset="100%" stop-color="#00D38F"/></linearGradient><linearGradient id="d" x1="32.304%" x2="50%" y1="0%" y2="80.166%"><stop offset="0%" stop-color="#FFF"/><stop offset="100%" stop-color="#161A1F"/></linearGradient><linearGradient id="e" x1="25%" x2="70.432%" y1="-51.83%" y2="17.259%"><stop offset="0%" stop-color="#FFF"/><stop offset="100%" stop-color="#161A1F"/></linearGradient><linearGradient id="g" x1="50%" x2="3.521%" y1="34.973%" y2="100%"><stop offset="0%" stop-color="#00D38F" stop-opacity="0"/><stop offset="100%" stop-color="#00D38F"/></linearGradient><linearGradient id="h" x1="48.225%" x2="51.775%" y1="0%" y2="100%"><stop offset="0%" stop-color="#C2C2C2"/><stop offset="100%" stop-color="#FFF"/><stop offset="100%" stop-color="#FFF"/></linearGradient><path id="f" d="M13.193 2.994l-5.506 2.22-3.623 6.216v6.9l1.574 7.625.53 6.6 5.71-4.641c4.997-3.395 7.5-5.104 7.51-5.127l3.573-6.237V9.684l-3.574-5.447-6.194-1.243z"/></defs><g fill="none" fill-rule="evenodd"><path fill="url(#a)" fill-rule="nonzero" d="M104.428 101.52l27.199-39.468.001-.224-28.901 38.177-.099.829.367.68.753.314.655-.258z" transform="scale(-1 1) rotate(-81 0 218.967)"/><path fill="url(#b)" fill-rule="nonzero" d="M37.666 109.818l13.13-19.734v-.112L36.844 109.06l-.048.415.178.34.363.157.317-.129z" transform="scale(-1 1) rotate(-81 0 151.251)"/><path fill="#5D5D5D" fill-opacity=".2" fill-rule="nonzero" d="M101.13 161.28c7.243-.484 10.87-1.082 10.87-1.78 0-.699-3.627-1.29-10.87-1.781a397.867 397.867 0 00-26.13-.713c-8.746-.048-17.49.19-26.184.713C41.614 158.21 38 158.8 38 159.499c0 .699 3.614 1.297 10.816 1.782 8.693.525 17.437.763 26.184.712 8.73.052 17.456-.186 26.13-.712z"/><path fill="url(#c)" d="M32.831 73.479L17.827 86.322l2.935 1.972 8.848-.793-16.164 15.64 8.083 2.909 9.341-3.017-20.817 21.566L0 132.793 6.298 134l10.976-3.716 9.875-5.518L54 98.86l-7.257-7.87-18.878 4.872 7.996-7.579 2.821-3.661-1.963-3.457-9.57 1.879L38.682 71z" transform="translate(37 19)"/><path fill="#FFF" fill-rule="nonzero" d="M78.083 120.251l1.769-.52-.517 1.772.519 1.765-1.769-.516-1.769.514.518-1.765-.516-1.769z"/><g fill-rule="nonzero"><path fill="url(#d)" d="M26.698 43.978l23.179-30.855 2.187-5.6-.648-2.739-3.924 1.35-2.8 1.87-27.857 24.165-3.771 10.123 5.653 4.492z" transform="rotate(-17 130.499 -171.796)"/><path fill="#9A9EA1" d="M92.761 61.97l-3.089-3.559-5.754-.993-2.81 2.898-.326 6.934 6.627 2.695 5.39-3.874z"/><g transform="rotate(-17 244.993 -178.865)"><use fill="url(#e)" transform="rotate(17 13.512 17.774)" xlink:href="#f"/><path fill="url(#g)" d="M6.714 8.603l3.289 4.03 5.34-.88 2.711 5.01 4.495 2.945a2992.758 2992.758 0 00-4.884 4.577c-.008.01-2.901.913-8.68 2.708l-7.1 3.041 1.705-6.739.724-7.752 2.107-6.67.293-.27z"/></g></g><path fill="url(#h)" d="M0 0h13v69H0z" transform="translate(16 25)"/><path fill="#00D38F" d="M19 66h7v7h-7z"/><path fill="#696969" d="M19 76h7v7h-7z"/><g fill="#696969"><path d="M25.166 46.218l-1.114 3.39-2.474-2.68-2.475-2.682 3.084-1.19zM26.694 41.374l-1.056 3.452-2.1-2.321z"/></g><g fill="#696969"><path d="M26.157 54.122l.404 2.997-1.536 2.378-2.166-.189-1.889-1.888-.188-2.166 2.377-1.537zM20.155 57.768L23 60.571l-1.155 1.197L19 58.965z"/></g><path fill="#696969" d="M26.078 29.87l-2.475 8.1-1.83-3.403-3.12-1.997z"/><path fill="#292F34" d="M48.5 63l1.173.565.289 1.269-.811 1.017h-1.302l-.811-1.017.289-1.269z"/><path fill="#00D38F" d="M89.5 139l1.173.565.289 1.269-.811 1.017h-1.302l-.811-1.017.289-1.269z"/><path fill="#00E59B" d="M72.283 41.056L70 43.464l.944-3.181L68.536 38l3.181.944L74 36.536l-.944 3.181L75.464 42z"/></g></svg>