<svg xmlns="http://www.w3.org/2000/svg" xmlns:xlink="http://www.w3.org/1999/xlink" viewBox="0 0 150 180"><defs><linearGradient id="b" x1="19.132%" x2="50%" y1="7.867%" y2="50%"><stop offset="0%" stop-color="#FFF"/><stop offset="20%" stop-color="#F3F3F3"/><stop offset="40%" stop-color="#E7E7E7"/><stop offset="60%" stop-color="#DADADA"/><stop offset="80%" stop-color="#CECECE"/><stop offset="100%" stop-color="#C2C2C2"/></linearGradient><linearGradient id="c" x1="100%" x2="36.337%" y1="50%" y2="0%"><stop offset="0%" stop-color="#292F34" stop-opacity="0"/><stop offset="100%" stop-color="#292F34"/></linearGradient><linearGradient id="e" x1="5.382%" x2="84.771%" y1="-13.438%" y2="100%"><stop offset="0%" stop-color="#696969" stop-opacity="0"/><stop offset="100%" stop-color="#696969"/></linearGradient><linearGradient id="f" x1="80.891%" x2="25.728%" y1="90.657%" y2="0%"><stop offset="0%" stop-color="#696969" stop-opacity="0"/><stop offset="100%" stop-color="#696969"/></linearGradient><linearGradient id="g" x1="30.059%" x2="63.781%" y1="-8.23%" y2="73.537%"><stop offset="0%" stop-color="#00D38F" stop-opacity="0"/><stop offset="100%" stop-color="#00D38F"/></linearGradient><linearGradient id="h" x1="24.267%" x2="65.105%" y1="100%" y2="19.211%"><stop offset="0%" stop-color="#00D38F"/><stop offset="100%" stop-color="#00D38F" stop-opacity=".05"/></linearGradient><linearGradient id="i" x1="23.554%" x2="65.524%" y1="100%" y2="19.211%"><stop offset="0%" stop-color="#00D38F"/><stop offset="100%" stop-color="#00D38F" stop-opacity=".05"/></linearGradient><linearGradient id="j" x1="-102.524%" x2="50%" y1="0%" y2="100%"><stop offset="0%" stop-color="#696969" stop-opacity="0"/><stop offset="100%" stop-color="#696969"/></linearGradient><linearGradient id="k" x1="20.4%" x2="72.252%" y1="-15.779%" y2="40.662%"><stop offset="0%" stop-color="#FFF"/><stop offset="100%" stop-color="#C2C2C2"/></linearGradient><linearGradient id="l" x1="60.484%" x2="16.214%" y1="69.68%" y2="-6.901%"><stop offset="0%" stop-color="#161A1F" stop-opacity="0"/><stop offset="100%" stop-color="#161A1F"/></linearGradient><linearGradient id="m" x1="27.615%" x2="73.864%" y1="0%" y2="87.66%"><stop offset="0%" stop-color="#161A1F" stop-opacity="0"/><stop offset="100%" stop-color="#161A1F"/></linearGradient><linearGradient id="n" x1="23.92%" x2="65.309%" y1="100%" y2="19.211%"><stop offset="0%" stop-color="#00D38F"/><stop offset="100%" stop-color="#00D38F" stop-opacity=".05"/></linearGradient><path id="a" d="M43.5 0l21.759 5.818 15.923 15.923L87 43.5l-5.818 21.741-15.923 15.923L43.5 87l-21.741-5.836L5.836 65.241 0 43.5l5.836-21.759L21.759 5.818z"/></defs><g fill="none" fill-rule="evenodd"><path fill="#000" fill-opacity=".1" fill-rule="nonzero" d="M108.933 162.1c9.378-.575 14.067-1.275 14.067-2.1 0-.825-4.69-1.537-14.067-2.137-9.378-.58-20.691-.868-33.94-.863-13.248.005-24.559.293-33.932.863C31.687 158.463 27 159.175 27 160s4.687 1.525 14.06 2.1c9.387.6 20.698.9 33.933.9 13.236 0 24.549-.3 33.94-.9z"/><g transform="translate(11 23)"><g transform="translate(23 16)"><mask id="d" fill="#fff"><use xlink:href="#a"/></mask><use fill="url(#b)" fill-rule="nonzero" xlink:href="#a"/><path fill="url(#c)" fill-rule="nonzero" d="M14.819 60.231l11.716 3.133 8.574 8.574 3.133 11.716-3.133 11.707-8.574 8.574-11.716 3.142-11.707-3.142-8.574-8.574-3.142-11.707 3.142-11.716 8.574-8.574z" mask="url(#d)"/><path fill="url(#e)" fill-rule="nonzero" d="M59.996 14.554l12.45 12.45L77 44.009l-4.554 16.987-12.45 12.45L42.991 78l-17.004-4.554-12.433-12.45L9 44.009l4.554-17.005 12.433-12.45L42.991 10z"/><path stroke="url(#f)" stroke-width="2" d="M42.991 10l17.005 4.554 12.45 12.45L77 44.009l-4.554 16.987-12.45 12.45L42.991 78l-17.004-4.554-12.433-12.45L9 44.009l4.554-17.005 12.433-12.45z"/><path fill="url(#g)" d="M47.21 24.722l-2.913 6.54-.905.742H33v9.976h5.708l.511.722L33 56.718V64h6.18l.61-.742 2.913-6.54.905-.722H54v-9.995h-5.708l-.511-.722L54 31.262V24h-6.16z"/><path fill="#292F34" d="M65 40l4 4-4 4-4-4zM21 40l4 4-4 4-4-4z"/></g><path fill="url(#h)" fill-rule="nonzero" d="M87.797 125.646l30.951-45.389.001-.257-32.888 43.903-.112.954.418.782.857.361.745-.296z" transform="scale(-1 1) rotate(-81 0 222.718)"/><path fill="url(#i)" fill-rule="nonzero" d="M5.109 47.448L20.116 25.74v-.123L4.171 46.614l-.055.457.203.373.415.173.362-.142z" transform="scale(-1 1) rotate(-81 0 50.803)"/><circle cx="11.249" cy="71.5" r="1.5" fill="#696969"/><path fill="#696969" d="M31.441 11l2.346 1.13.579 2.538-1.623 2.035h-2.604l-1.623-2.035.58-2.538z"/><path fill="url(#j)" d="M124.193 60l1.954.941.483 2.115-1.353 1.696h-2.169l-1.353-1.696.483-2.115z"/><path fill="url(#k)" fill-rule="nonzero" d="M21.749 0l10.504 2.809 7.687 7.687L42.749 21 39.94 31.496l-7.687 7.687L21.749 42l-10.496-2.817-7.687-7.687L.749 21l2.817-10.504 7.687-7.687z" transform="translate(12.693 74)"/><path fill="url(#e)" fill-rule="nonzero" d="M21.745 5l8.002 2.143 5.859 5.859 2.143 8.002-2.143 7.994-5.859 5.859L21.745 37l-8.002-2.143-5.852-5.859-2.142-7.994 2.142-8.002 5.852-5.859z" transform="translate(12.693 74)"/><path stroke="url(#l)" d="M21.745 6l7.502 2.009 5.492 5.493 2.01 7.502-2.01 7.494-5.492 5.493L21.745 36l-7.502-2.009-5.485-5.493-2.009-7.494 2.009-7.502 5.485-5.493z" transform="translate(12.693 74)"/><path fill="url(#m)" d="M21.749 26l-5.878 3.09 1.122-6.545-4.755-4.635 6.572-.955L21.749 11l2.938 5.955 6.572.955-4.755 4.635 1.122 6.545z" transform="translate(12.693 74)"/><path fill="#FFF" d="M87.257 36.492L80.75 34l6.507-2.493L89.75 25l2.492 6.508L98.748 34l-6.507 2.493-2.493 6.507z"/><path fill="#C2C2C2" d="M72 6.364l-3.536 2.172L70.636 5l-2.172-3.536L72 3.636l3.536-2.172L73.364 5l2.172 3.536z"/><path fill="url(#n)" fill-rule="nonzero" d="M70.614 33.723l14.423-21.128L95-2 84.406 12.048 69.089 32.359l-.089.746.33.612.675.283z" transform="scale(-1 1) rotate(-81 0 112.01)"/></g></g></svg>