<svg xmlns="http://www.w3.org/2000/svg" xmlns:xlink="http://www.w3.org/1999/xlink" width="50" height="50" viewBox="0 0 30 30"><defs><linearGradient id="A" x1="50%" x2="50%" y1="0%" y2="100%"><stop offset="0%" stop-color="#23272f"/><stop offset="100%" stop-color="#1e2527"/></linearGradient><linearGradient id="B" x1="84.245%" x2="2.334%" y1="34.376%" y2="34.376%"><stop offset="0%" stop-color="#eee" stop-opacity=".04"/><stop offset="100%" stop-color="#d8d8d8" stop-opacity="0"/></linearGradient><linearGradient id="C" x1="50%" x2="50%" y1="0%" y2="94.98%"><stop offset="0%" stop-color="#161a1f" stop-opacity=".24"/><stop offset="100%" stop-color="#161a1f"/></linearGradient><path id="D" d="M12 3a5 5 0 1 1 0 10 5 5 0 0 1 0-10zM7 15h10a3 3 0 0 1 3 3v2a1 1 0 0 1-1 1H5a1 1 0 0 1-1-1v-2a3 3 0 0 1 3-3z"/></defs><g fill="none" fill-rule="evenodd"><path fill="#f2f2f2" d="M-110-519h4080v7231H-110z"/><g fill-rule="nonzero"><path fill="#161a1f" d="M0 0h30v30H0z"/><path fill="url(#A)" d="M0 0h30v16.88H0z"/><path fill="url(#B)" d="M0 0h19.43l-7.027 16.88H0z"/><path fill="url(#C)" d="M0 .087h30v16.88H0z"/></g><g transform="translate(3 3)"><mask id="E" fill="#fff"><use xlink:href="#D"/></mask><use fill="#06070d" xlink:href="#D"/><g fill="#5d5d6c" mask="url(#E)"><path d="M1.1 1.273H22.9V23.1H1.1z"/></g></g></g></svg>
