<svg xmlns="http://www.w3.org/2000/svg" xmlns:xlink="http://www.w3.org/1999/xlink">
  <defs/>
  <g>
    <path stroke="none" fill="#BB8044" d="M602.4 152.4 Q602.8 152 603.65 152 L724.35 152 Q725.2 152 725.6 152.4 L714 164 614 164 602.4 152.4 M725.6 275.6 Q725.2 276 724.35 276 L603.65 276 Q602.8 276 602.4 275.6 L614 264 714 264 725.6 275.6 M620 170 L708 170 708 258 620 258 620 170"/>
    <path stroke="none" fill="#AD763E" d="M620 170 L620 258 708 258 708 170 620 170 M725.6 152.4 Q726 152.8 726 153.6 L726 274.35 Q726 275.2 725.6 275.6 L714 264 714 164 725.6 152.4 M602.4 275.6 Q602 275.15 602 274.35 L602 153.6 Q602 152.8 602.4 152.4 L614 164 614 264 602.4 275.6 M616 166 L712 166 712 262 616 262 616 166"/>
    <path stroke="none" fill="#82592F" d="M603.65 150 L724.35 150 Q726.2 150 727.1 150.9 728 151.8 728 153.6 L728 274.35 Q728 276.2 727.1 277.1 726.2 278 724.35 278 L603.65 278 Q601.8 278 600.9 277.1 600 276.15 600 274.35 L600 153.6 Q600 151.8 600.9 150.9 601.8 150 603.65 150 M725.6 152.4 Q725.2 152 724.35 152 L603.65 152 Q602.8 152 602.4 152.4 602 152.8 602 153.6 L602 274.35 Q602 275.15 602.4 275.6 602.8 276 603.65 276 L724.35 276 Q725.2 276 725.6 275.6 726 275.2 726 274.35 L726 153.6 Q726 152.8 725.6 152.4"/>
    <path stroke="none" fill="#D9944F" d="M614 164 L714 164 714 264 614 264 614 164 M616 166 L616 262 712 262 712 166 616 166"/>
    <path stroke="none" fill="#419FDD" d="M552.3 175.8 L552.3 175.75 Q536.45 159.85 514 159.85 491.55 159.85 475.75 175.75 L475.7 175.8 Q459.8 191.6 459.8 214 459.8 236.45 475.7 252.35 491.55 268.2 514 268.2 536.45 268.2 552.3 252.35 568.15 236.45 568.15 214 568.15 191.6 552.3 175.8 M557.95 170.1 Q576.15 188.25 576.15 214 576.15 239.75 557.95 258 539.75 276.2 514 276.2 488.25 276.2 470.05 258 451.8 239.75 451.8 214 451.8 188.25 470.05 170.1 488.25 151.85 514 151.85 539.75 151.85 557.95 170.1"/>
    <path stroke="none" fill="#378AC2" d="M550.85 177.2 L550.85 177.15 Q535.6 161.85 514 161.85 492.4 161.85 477.15 177.15 L477.15 177.2 477.1 177.2 Q461.8 192.4 461.8 214 461.8 235.6 477.15 250.95 492.4 266.2 514 266.2 535.55 266.2 550.85 251 L550.9 250.95 Q566.15 235.6 566.15 214 566.15 192.4 550.9 177.2 L550.85 177.2 M552.3 175.8 Q568.15 191.6 568.15 214 568.15 236.45 552.3 252.35 536.45 268.2 514 268.2 491.55 268.2 475.7 252.35 459.8 236.45 459.8 214 459.8 191.6 475.7 175.8 L475.75 175.75 Q491.55 159.85 514 159.85 536.45 159.85 552.3 175.75 L552.3 175.8"/>
    <path stroke="none" fill="#E0F0ED" d="M514 169.85 Q495.9 169.85 483.1 182.55 L482.85 182.85 482.8 182.9 482.5 183.15 Q469.8 195.9 469.8 214 469.8 232.3 482.8 245.3 495.7 258.2 514 258.2 532.25 258.2 545.2 245.35 L545.25 245.3 Q558.15 232.3 558.15 214 558.15 195.9 545.5 183.15 L544.95 182.55 Q532.1 169.85 514 169.85 M550.85 177.2 L550.9 177.2 Q566.15 192.4 566.15 214 566.15 235.6 550.9 250.95 L550.85 251 Q535.55 266.2 514 266.2 492.4 266.2 477.15 250.95 461.8 235.6 461.8 214 461.8 192.4 477.1 177.2 L477.15 177.2 477.15 177.15 Q492.4 161.85 514 161.85 535.6 161.85 550.85 177.15 L550.85 177.2"/>
    <path stroke="none" fill="#EEFFFB" d="M514 169.85 Q532.1 169.85 544.95 182.55 L545.5 183.15 Q558.15 195.9 558.15 214 558.15 232.3 545.25 245.3 L545.2 245.35 Q532.25 258.2 514 258.2 495.7 258.2 482.8 245.3 469.8 232.3 469.8 214 469.8 195.9 482.5 183.15 L482.8 182.9 482.85 182.85 483.1 182.55 Q495.9 169.85 514 169.85"/>
    <path stroke="none" fill="#2C6E9A" d="M557.95 170.1 Q539.75 151.85 514 151.85 488.25 151.85 470.05 170.1 451.8 188.25 451.8 214 451.8 239.75 470.05 258 488.25 276.2 514 276.2 539.75 276.2 557.95 258 576.15 239.75 576.15 214 576.15 188.25 557.95 170.1 M578 214 Q578 240.55 559.25 259.25 540.5 278 514 278 487.5 278 468.75 259.25 450 240.55 450 214 450 187.5 468.75 168.75 487.5 150 514 150 540.5 150 559.25 168.75 578 187.5 578 214"/>
    <path stroke="none" fill="#EEFFFB" d="M364.05 164.55 L415 190.05 415 238 364.05 263.5 313 237.95 313 190.05 364.05 164.55 M364.05 169 L317 192.55 317 235.5 364.05 259 411 235.5 411 192.5 364.05 169"/>
    <path stroke="none" fill="#E0F0ED" d="M364.05 169 L411 192.5 411 235.5 364.05 259 317 235.5 317 192.55 364.05 169"/>
    <path stroke="none" fill="#D177F5" d="M364.05 161.2 L418 188.2 418 239.85 364.05 266.85 310 239.8 310 188.2 364.05 161.2 M364.05 164.55 L313 190.05 313 237.95 364.05 263.5 415 238 415 190.05 364.05 164.55"/>
    <path stroke="none" fill="#B165D0" d="M364.05 152.25 L426 183.25 426 244.75 364.05 275.75 302 244.75 302 183.25 364.05 152.25 M364.05 161.2 L310 188.2 310 239.8 364.05 266.85 418 239.85 418 188.2 364.05 161.2"/>
    <path stroke="none" fill="#7B4691" d="M364.05 150 L428 182 428 246 364.05 278 300 246 300 182 364.05 150 M364.05 152.25 L302 183.25 302 244.75 364.05 275.75 426 244.75 426 183.25 364.05 152.25"/>
    <path stroke="none" fill="#6A7279" d="M272.5 152 L155.55 152 Q152 152 152 155.5 L152 272.5 Q152 276 155.55 276 L272.5 276 Q276 276 276 272.5 L276 155.5 Q276 152 272.5 152 M155.55 150 L272.5 150 Q278 150 278 155.5 L278 272.5 Q278 278 272.5 278 L155.55 278 Q150 278 150 272.5 L150 155.5 Q150 150 155.55 150"/>
    <path stroke="none" fill="#454A4F" d="M272.5 152 Q276 152 276 155.5 L276 272.5 Q276 276 272.5 276 L155.55 276 Q152 276 152 272.5 L152 155.5 Q152 152 155.55 152 L272.5 152 M156 156 L156 272 272 272 272 156 156 156"/>
    <path stroke="none" fill="#4D5358" d="M156 156 L272 156 272 272 156 272 156 156 M270 158 L158 158 158 248 270 248 270 158"/>
    <path stroke="none" fill="#303337" d="M270 158 L270 248 158 248 158 158 270 158"/>
    <path stroke="none" fill="#82592F" d="M3.65 150 L124.35 150 Q126.2 150 127.1 150.9 128 151.8 128 153.6 L128 274.35 Q128 276.2 127.1 277.1 126.2 278 124.35 278 L3.65 278 Q1.8 278 0.9 277.1 0 276.15 0 274.35 L0 153.6 Q0 151.8 0.9 150.9 1.8 150 3.65 150 M125.6 152.4 Q125.2 152 124.35 152 L3.65 152 Q2.8 152 2.4 152.4 2 152.8 2 153.6 L2 274.35 Q2 275.15 2.4 275.6 2.8 276 3.65 276 L124.35 276 Q125.2 276 125.6 275.6 126 275.2 126 274.35 L126 153.6 Q126 152.8 125.6 152.4"/>
    <path stroke="none" fill="#BB8044" d="M125.6 152.4 L114 164 14 164 2.4 152.4 Q2.8 152 3.65 152 L124.35 152 Q125.2 152 125.6 152.4 M125.6 275.6 Q125.2 276 124.35 276 L3.65 276 Q2.8 276 2.4 275.6 L14 264 114 264 125.6 275.6"/>
    <path stroke="none" fill="#AD763E" d="M125.6 275.6 L114 264 114 164 125.6 152.4 Q126 152.8 126 153.6 L126 274.35 Q126 275.2 125.6 275.6 M2.4 275.6 Q2 275.15 2 274.35 L2 153.6 Q2 152.8 2.4 152.4 L14 164 14 264 2.4 275.6"/>
    <path stroke="none" fill="#778F91" d="M20 186.3 L20 189.75 20 218.9 20 244.6 20 255.1 20 258 40.9 258 77.05 258 88.5 258 101.45 258 106.7 258 108 258 108 240.75 108 224.35 108 184.3 108 174.5 108 170 81.6 170 77.15 170 40.8 170 36.85 170 20 170 20 186.3 M16 262 L16 166 112 166 112 262 16 262"/>
    <path stroke="none" fill="#89A4A6" d="M20 189.75 L20 186.3 22.45 188.75 Q24.5 190.45 26.2 190.55 27.85 190.7 30.2 189.25 L34.85 185.65 39.1 181.55 Q40.85 179.5 40.9 177.8 41.15 176.15 39.7 173.8 L36.85 170 40.8 170 41.75 171.5 Q43.1 173.35 47.3 177.7 L53.5 183.25 Q56.6 185.5 58.9 185.45 61.3 185.5 64.4 183.25 66.2 181.9 70.6 177.7 L76.15 171.5 77.15 170 81.6 170 Q81.15 171.05 81.2 172 81.1 173.65 82.7 175.85 L86.65 180.25 91.1 184.25 Q93.25 185.8 94.9 185.75 96.65 185.8 98.8 184.25 L103.25 180.25 107.15 175.85 108 174.5 108 184.3 106.4 184.1 Q103.9 184 100.75 186.35 98.8 187.75 94.25 192.1 89.9 196.7 88.45 198.65 86.15 201.85 86.2 204.35 86.15 206.8 88.45 209.95 89.9 211.9 94.25 216.5 L100.75 222.25 Q103.9 224.6 106.4 224.5 L108 224.35 108 240.75 107.05 241.3 104 244.1 101.3 247.1 Q100.15 248.65 100.25 249.8 100.15 251 101.3 252.5 L104 255.55 106.7 258 101.45 258 Q99.7 256.4 98.8 255.8 96.65 254.2 94.9 254.2 93.25 254.2 91.1 255.8 L88.5 258 77.05 258 76.15 256.7 70.6 250.4 Q66.2 246.2 64.4 244.85 61.3 242.6 58.9 242.65 56.6 242.6 53.5 244.85 51.7 246.2 47.3 250.4 43.1 254.8 41.75 256.7 L40.9 258 20 258 20 255.1 22.25 252.5 Q23.35 251 23.3 249.8 23.35 248.65 22.25 247.1 L20 244.6 20 218.9 22.55 216.5 28.3 209.95 Q30.65 206.8 30.55 204.35 30.65 201.85 28.3 198.65 26.9 196.7 22.55 192.1 L20 189.75 M47.2 191.2 L44.5 188.05 Q43.15 186.7 42.05 186.55 40.9 186.4 39.25 187.25 38.3 187.75 35.8 189.5 L32.65 192.2 Q31.4 193.55 31.25 194.65 31 195.8 31.9 197.45 L34.15 200.9 36.8 204.05 Q38.15 205.4 39.25 205.45 40.45 205.7 42.05 204.8 L45.5 202.55 48.65 199.9 Q50 198.55 50.05 197.45 50.3 196.25 49.45 194.65 L47.2 191.2 M77 202 Q72.7 197.35 70.85 195.85 67.75 193.3 65.3 193.25 62.8 193 59.5 195.2 57.5 196.45 52.7 200.6 48.05 204.85 46.55 206.75 44 209.8 43.9 212.3 43.7 214.7 45.85 218.05 L51.25 224.9 Q55.55 229.55 57.4 231.05 60.5 233.5 62.9 233.6 65.35 233.8 68.75 231.7 L75.55 226.3 81.7 220.15 Q84.25 217.1 84.35 214.6 84.55 212.15 82.4 208.85 L77 202 M83.35 180.2 L80.3 177.5 Q78.8 176.35 77.6 176.35 76.45 176.35 74.95 177.5 74.05 178.1 71.9 180.2 L69.1 183.25 Q68.05 184.75 68.05 185.9 68.05 187.1 69.1 188.6 L71.9 191.65 74.95 194.45 Q76.45 195.5 77.6 195.5 78.8 195.5 80.3 194.45 L83.35 191.65 86.05 188.6 Q87.2 187.1 87.1 185.9 87.2 184.75 86.05 183.25 L83.35 180.2 M98.9 227.05 Q95.75 224.05 94.45 223.1 92.3 221.5 90.55 221.6 88.9 221.5 86.75 223.1 L82.3 227.05 Q79.4 230.15 78.4 231.5 76.75 233.65 76.85 235.3 76.75 237.05 78.4 239.2 L82.3 243.65 86.75 247.6 Q88.9 249.2 90.55 249.1 92.3 249.2 94.45 247.6 L98.9 243.65 102.85 239.2 Q104.45 237.05 104.35 235.3 104.45 233.65 102.85 231.5 L98.9 227.05 M43.7 222.35 Q40.25 219.7 38.8 218.9 36.5 217.55 34.85 217.75 33.1 217.9 31.15 219.7 29.95 220.85 27.2 224.15 24.55 227.6 23.8 229 22.45 231.35 22.7 233 22.75 234.65 24.65 236.65 L29 240.65 33.85 244 Q36.2 245.35 37.85 245.15 39.55 245 41.5 243.2 L45.5 238.75 48.95 233.95 Q50.3 231.65 50 229.9 49.9 228.25 48.05 226.25 L43.7 222.35"/>
    <path stroke="none" fill="#819A9C" d="M43.7 222.35 L48.05 226.25 Q49.9 228.25 50 229.9 50.3 231.65 48.95 233.95 L45.5 238.75 41.5 243.2 Q39.55 245 37.85 245.15 36.2 245.35 33.85 244 L29 240.65 24.65 236.65 Q22.75 234.65 22.7 233 22.45 231.35 23.8 229 24.55 227.6 27.2 224.15 29.95 220.85 31.15 219.7 33.1 217.9 34.85 217.75 36.5 217.55 38.8 218.9 40.25 219.7 43.7 222.35 M20 186.3 L20 170 36.85 170 39.7 173.8 Q41.15 176.15 40.9 177.8 40.85 179.5 39.1 181.55 L34.85 185.65 30.2 189.25 Q27.85 190.7 26.2 190.55 24.5 190.45 22.45 188.75 L20 186.3 M81.6 170 L108 170 108 174.5 107.15 175.85 103.25 180.25 98.8 184.25 Q96.65 185.8 94.9 185.75 93.25 185.8 91.1 184.25 L86.65 180.25 82.7 175.85 Q81.1 173.65 81.2 172 81.15 171.05 81.6 170 M108 184.3 L108 224.35 106.4 224.5 Q103.9 224.6 100.75 222.25 L94.25 216.5 Q89.9 211.9 88.45 209.95 86.15 206.8 86.2 204.35 86.15 201.85 88.45 198.65 89.9 196.7 94.25 192.1 98.8 187.75 100.75 186.35 103.9 184 106.4 184.1 L108 184.3 M108 240.75 L108 258 106.7 258 104 255.55 101.3 252.5 Q100.15 251 100.25 249.8 100.15 248.65 101.3 247.1 L104 244.1 107.05 241.3 108 240.75 M101.45 258 L88.5 258 91.1 255.8 Q93.25 254.2 94.9 254.2 96.65 254.2 98.8 255.8 99.7 256.4 101.45 258 M20 255.1 L20 244.6 22.25 247.1 Q23.35 248.65 23.3 249.8 23.35 251 22.25 252.5 L20 255.1 M47.2 191.2 L49.45 194.65 Q50.3 196.25 50.05 197.45 50 198.55 48.65 199.9 L45.5 202.55 42.05 204.8 Q40.45 205.7 39.25 205.45 38.15 205.4 36.8 204.05 L34.15 200.9 31.9 197.45 Q31 195.8 31.25 194.65 31.4 193.55 32.65 192.2 L35.8 189.5 Q38.3 187.75 39.25 187.25 40.9 186.4 42.05 186.55 43.15 186.7 44.5 188.05 L47.2 191.2 M83.35 180.2 L86.05 183.25 Q87.2 184.75 87.1 185.9 87.2 187.1 86.05 188.6 L83.35 191.65 80.3 194.45 Q78.8 195.5 77.6 195.5 76.45 195.5 74.95 194.45 L71.9 191.65 69.1 188.6 Q68.05 187.1 68.05 185.9 68.05 184.75 69.1 183.25 L71.9 180.2 Q74.05 178.1 74.95 177.5 76.45 176.35 77.6 176.35 78.8 176.35 80.3 177.5 L83.35 180.2 M77 202 L82.4 208.85 Q84.55 212.15 84.35 214.6 84.25 217.1 81.7 220.15 L75.55 226.3 68.75 231.7 Q65.35 233.8 62.9 233.6 60.5 233.5 57.4 231.05 55.55 229.55 51.25 224.9 L45.85 218.05 Q43.7 214.7 43.9 212.3 44 209.8 46.55 206.75 48.05 204.85 52.7 200.6 57.5 196.45 59.5 195.2 62.8 193 65.3 193.25 67.75 193.3 70.85 195.85 72.7 197.35 77 202"/>
    <path stroke="none" fill="#8EABAD" d="M40.8 170 L77.15 170 76.15 171.5 70.6 177.7 Q66.2 181.9 64.4 183.25 61.3 185.5 58.9 185.45 56.6 185.5 53.5 183.25 L47.3 177.7 Q43.1 173.35 41.75 171.5 L40.8 170 M77.05 258 L40.9 258 41.75 256.7 Q43.1 254.8 47.3 250.4 51.7 246.2 53.5 244.85 56.6 242.6 58.9 242.65 61.3 242.6 64.4 244.85 66.2 246.2 70.6 250.4 L76.15 256.7 77.05 258 M20 218.9 L20 189.75 22.55 192.1 Q26.9 196.7 28.3 198.65 30.65 201.85 30.55 204.35 30.65 206.8 28.3 209.95 L22.55 216.5 20 218.9 M98.9 227.05 L102.85 231.5 Q104.45 233.65 104.35 235.3 104.45 237.05 102.85 239.2 L98.9 243.65 94.45 247.6 Q92.3 249.2 90.55 249.1 88.9 249.2 86.75 247.6 L82.3 243.65 78.4 239.2 Q76.75 237.05 76.85 235.3 76.75 233.65 78.4 231.5 79.4 230.15 82.3 227.05 L86.75 223.1 Q88.9 221.5 90.55 221.6 92.3 221.5 94.45 223.1 95.75 224.05 98.9 227.05"/>
    <path stroke="none" fill="#D9944F" d="M14 164 L114 164 114 264 14 264 14 164 M16 262 L112 262 112 166 16 166 16 262"/>
    <path stroke="none" fill="#5F7274" d="M3.65 0 L124.35 0 Q128 0 128 3.6 L128 124.35 Q128 128 124.35 128 L3.65 128 Q0 128 0 124.35 L0 3.6 Q0 0 3.65 0 M124.35 2 L3.65 2 Q2 2 2 3.6 L2 124.35 Q2 126 3.65 126 L124.35 126 Q126 126 126 124.35 L126 3.6 Q126 2 124.35 2"/>
    <path stroke="none" fill="#89A4A6" d="M124.35 2 Q126 2 126 3.6 L126 124.35 Q126 126 124.35 126 L3.65 126 Q2 126 2 124.35 L2 3.6 Q2 2 3.65 2 L124.35 2 M14 14 L14 114 114 114 114 14 14 14"/>
    <path stroke="none" fill="#ADD0D2" d="M14 14 L114 14 114 114 14 114 14 14 M16 112 L112 112 112 16 16 16 16 112"/>
    <path stroke="none" fill="#AA743E" d="M16 112 L16 16 112 16 112 112 16 112 M108 108 L108 20 20 20 20 108 108 108"/>
    <path stroke="none" fill="#BB8044" d="M108 108 L20 108 20 20 108 20 108 108"/>
    <path stroke="none" fill="#F5E1B4" d="M250.85 27.2 L250.9 27.2 Q266.15 42.4 266.15 64 266.15 85.6 250.9 100.95 L250.85 101 Q235.55 116.2 214 116.2 192.4 116.2 177.15 100.95 161.8 85.6 161.8 64 161.8 42.4 177.1 27.2 L177.15 27.2 177.15 27.15 Q192.4 11.85 214 11.85 235.6 11.85 250.85 27.15 L250.85 27.2 M214 15.85 Q194.25 15.85 180.25 29.7 L180 30 179.95 30.05 179.65 30.3 Q165.8 44.25 165.8 64 165.8 83.95 179.95 98.1 194.05 112.2 214 112.2 233.9 112.2 248 98.15 L248.05 98.1 Q262.15 83.95 262.15 64 262.15 44.25 248.35 30.3 L248.05 30.05 248.05 30 247.75 29.7 Q233.75 15.85 214 15.85"/>
    <path stroke="none" fill="#FFF3D9" d="M214 15.85 Q233.75 15.85 247.75 29.7 L248.05 30 248.05 30.05 248.35 30.3 Q262.15 44.25 262.15 64 262.15 83.95 248.05 98.1 L248 98.15 Q233.9 112.2 214 112.2 194.05 112.2 179.95 98.1 165.8 83.95 165.8 64 165.8 44.25 179.65 30.3 L179.95 30.05 180 30 180.25 29.7 Q194.25 15.85 214 15.85"/>
    <path stroke="none" fill="#D9944F" d="M252.3 25.8 Q268.15 41.6 268.15 64 268.15 86.45 252.3 102.35 236.45 118.2 214 118.2 191.55 118.2 175.7 102.35 159.8 86.45 159.8 64 159.8 41.6 175.7 25.8 L175.75 25.75 Q191.55 9.85 214 9.85 236.45 9.85 252.3 25.75 L252.3 25.8 M250.85 27.2 L250.85 27.15 Q235.6 11.85 214 11.85 192.4 11.85 177.15 27.15 L177.15 27.2 177.1 27.2 Q161.8 42.4 161.8 64 161.8 85.6 177.15 100.95 192.4 116.2 214 116.2 235.55 116.2 250.85 101 L250.9 100.95 Q266.15 85.6 266.15 64 266.15 42.4 250.9 27.2 L250.85 27.2"/>
    <path stroke="none" fill="#BB8044" d="M252.3 25.8 L252.3 25.75 Q236.45 9.85 214 9.85 191.55 9.85 175.75 25.75 L175.7 25.8 Q159.8 41.6 159.8 64 159.8 86.45 175.7 102.35 191.55 118.2 214 118.2 236.45 118.2 252.3 102.35 268.15 86.45 268.15 64 268.15 41.6 252.3 25.8 M257.95 20.1 Q276.15 38.25 276.15 64 276.15 89.75 257.95 108 239.75 126.2 214 126.2 188.25 126.2 170.05 108 151.8 89.75 151.8 64 151.8 38.25 170.05 20.1 188.25 1.85 214 1.85 239.75 1.85 257.95 20.1"/>
    <path stroke="none" fill="#82592F" d="M257.95 20.1 Q239.75 1.85 214 1.85 188.25 1.85 170.05 20.1 151.8 38.25 151.8 64 151.8 89.75 170.05 108 188.25 126.2 214 126.2 239.75 126.2 257.95 108 276.15 89.75 276.15 64 276.15 38.25 257.95 20.1 M278 64 Q278 90.55 259.25 109.25 240.5 128 214 128 187.5 128 168.75 109.25 150 90.55 150 64 150 37.5 168.75 18.75 187.5 0 214 0 240.5 0 259.25 18.75 278 37.5 278 64"/>
    <path stroke="none" fill="#FFCC00" d="M412 19 L412 16 316 16 316 19 316 112 412 112 412 19 M423 10 Q423 7.9 421.5 6.45 420.05 5 418 5 415.9 5 414.45 6.45 413 7.9 413 10 413 12.05 414.45 13.5 415.9 15 418 15 420.05 15 421.5 13.5 423 12.05 423 10 M417.5 2 Q426 2 426 10.55 L426 117.45 Q426 126 417.5 126 L310.55 126 Q302 126 302 117.45 L302 10.55 Q302 2 310.55 2 L417.5 2 M315 118 Q315 115.9 313.5 114.45 312.05 113 310 113 307.9 113 306.45 114.45 305 115.9 305 118 305 120.05 306.45 121.5 307.9 123 310 123 312.05 123 313.5 121.5 315 120.05 315 118 M315 10 Q315 7.9 313.5 6.45 312.05 5 310 5 307.9 5 306.45 6.45 305 7.9 305 10 305 12.05 306.45 13.5 307.9 15 310 15 312.05 15 313.5 13.5 315 12.05 315 10 M423 118 Q423 115.9 421.5 114.45 420.05 113 418 113 415.9 113 414.45 114.45 413 115.9 413 118 413 120.05 414.45 121.5 415.9 123 418 123 420.05 123 421.5 121.5 423 120.05 423 118"/>
    <path stroke="none" fill="#E7B800" d="M423 118 Q423 120.05 421.5 121.5 420.05 123 418 123 415.9 123 414.45 121.5 413 120.05 413 118 413 115.9 414.45 114.45 415.9 113 418 113 420.05 113 421.5 114.45 423 115.9 423 118 M423 10 Q423 12.05 421.5 13.5 420.05 15 418 15 415.9 15 414.45 13.5 413 12.05 413 10 413 7.9 414.45 6.45 415.9 5 418 5 420.05 5 421.5 6.45 423 7.9 423 10 M315 10 Q315 12.05 313.5 13.5 312.05 15 310 15 307.9 15 306.45 13.5 305 12.05 305 10 305 7.9 306.45 6.45 307.9 5 310 5 312.05 5 313.5 6.45 315 7.9 315 10 M315 118 Q315 120.05 313.5 121.5 312.05 123 310 123 307.9 123 306.45 121.5 305 120.05 305 118 305 115.9 306.45 114.45 307.9 113 310 113 312.05 113 313.5 114.45 315 115.9 315 118"/>
    <path stroke="none" fill="#799193" d="M316 19 L316 16 412 16 412 19 316 19"/>
    <path stroke="none" fill="#B28E00" d="M417.5 2 L310.55 2 Q302 2 302 10.55 L302 117.45 Q302 126 310.55 126 L417.5 126 Q426 126 426 117.45 L426 10.55 Q426 2 417.5 2 M310.55 0 L417.5 0 Q428 0 428 10.55 L428 117.45 Q428 128 417.5 128 L310.55 128 Q300 128 300 117.45 L300 10.55 Q300 0 310.55 0"/>
    <path stroke="none" fill="#89A4A6" d="M412 19 L412 112 316 112 316 19 412 19"/>
    <path stroke="none" fill="#BB3B2F" d="M519.5 2.75 L575.25 58.55 Q580.75 64.05 575.25 69.55 L519.5 125.3 Q514 130.8 508.5 125.3 L452.75 69.5 Q447.25 64 452.75 58.5 L508.5 2.75 Q514 -2.75 519.5 2.75 M573.85 60 L518.1 4.2 Q514 0.1 509.95 4.2 L454.2 59.95 Q450.1 64 454.2 68.1 L509.95 123.9 Q514 127.95 518.1 123.9 L573.85 68.15 Q577.9 64.05 573.85 60"/>
    <path stroke="none" fill="#E74C3C" d="M573.85 60 Q577.9 64.05 573.85 68.15 L518.1 123.9 Q514 127.95 509.95 123.9 L454.2 68.1 Q450.1 64 454.2 59.95 L509.95 4.2 Q514 0.1 518.1 4.2 L573.85 60 M514 11.4 L461.4 64 514 116.65 566.6 64.05 514 11.4"/>
    <path stroke="none" fill="#FF6151" d="M514 11.4 L566.6 64.05 514 116.65 461.4 64 514 11.4 M514 14.25 L464.25 64 514 113.8 563.75 64.05 514 14.25"/>
    <path stroke="none" fill="#E0F0ED" d="M514 14.25 L563.75 64.05 514 113.8 464.25 64 514 14.25"/>
    <path stroke="none" fill="#2ECC71" d="M710 22.45 L710 105.55 Q710 110 705.5 110 L622.45 110 Q618 110 618 105.55 L618 22.45 Q618 20.15 618.95 18.95 620.15 18 622.45 18 L705.5 18 Q710 18 710 22.45"/>
    <path stroke="none" fill="#31DE7B" d="M710 22.45 Q710 18 705.5 18 L622.45 18 Q620.15 18 618.95 18.95 618 20.15 618 22.45 L618 105.55 Q618 110 622.45 110 L705.5 110 Q710 110 710 105.55 L710 22.45 M705.5 12 Q716 12 716 22.45 L716 105.55 Q716 116 705.5 116 L622.45 116 Q612 116 612 105.55 L612 22.45 Q612 17.25 614.7 14.7 617.25 12 622.45 12 L705.5 12"/>
    <path stroke="none" fill="#2BC26B" d="M705.5 2 Q726 2 726 22.45 L726 105.55 Q726 119.55 716.45 123.95 712 126 705.5 126 L622.45 126 Q616 126 611.55 123.95 602 119.55 602 105.55 L602 22.45 Q602 2 622.45 2 L705.5 2 M705.5 12 L622.45 12 Q617.25 12 614.7 14.7 612 17.25 612 22.45 L612 105.55 Q612 116 622.45 116 L705.5 116 Q716 116 716 105.55 L716 22.45 Q716 12 705.5 12"/>
    <path stroke="none" fill="#208E4F" d="M622.45 0 L705.5 0 Q728 0 728 22.45 L728 105.55 Q728 118.45 720.55 123.95 715.05 128 705.5 128 L622.45 128 Q612.9 128 607.45 123.95 603.8 121.25 601.95 116.85 600 112.15 600 105.55 L600 22.45 Q600 15.85 601.95 11.2 606.6 0 622.45 0 M705.5 2 L622.45 2 Q602 2 602 22.45 L602 105.55 Q602 119.55 611.55 123.95 616 126 622.45 126 L705.5 126 Q712 126 716.45 123.95 726 119.55 726 105.55 L726 22.45 Q726 2 705.5 2"/>
  </g>
</svg>