<svg xmlns="http://www.w3.org/2000/svg" xmlns:xlink="http://www.w3.org/1999/xlink">
  <defs/>
  <g>
    <path stroke="none" fill="#B16F1E" d="M0.05 173.75 L0.05 141.25 32.6 100 0.05 173.75"/>
    <path stroke="none" fill="#D07F1E" d="M32.6 100 L65.05 141.25 65.05 173.75 32.6 100"/>
    <path stroke="none" fill="#E08E2B" d="M65.05 173.75 L65.05 175.75 32.2 191.8 0.05 175.75 0.05 173.75 32.6 190 65.05 173.75"/>
    <path stroke="none" fill="#C2771E" d="M0.05 173.75 L32.6 100 32.6 190 0.05 173.75"/>
    <path stroke="none" fill="#C97919" d="M32.6 100 L65.05 173.75 32.6 190 32.6 100"/>
    <path stroke="none" fill="#B16F1E" d="M75 175.55 L75 143.05 Q91.3 134.95 107.55 126.8 L75 175.55"/>
    <path stroke="none" fill="#E08E2B" d="M75 175.55 L107.55 191.8 140 175.55 140 177.55 107.15 193.6 75 177.55 75 175.55"/>
    <path stroke="none" fill="#C2771E" d="M75 175.55 L107.55 126.8 107.55 191.8 75 175.55"/>
    <path stroke="none" fill="#D07F1E" d="M107.55 126.8 L140 143.05 140 175.55 107.55 126.8"/>
    <path stroke="none" fill="#C97919" d="M107.55 126.8 L140 175.55 107.55 191.8 107.55 126.8"/>
    <path stroke="none" fill="#AAB5B5" d="M65 250.55 L65 252.55 32.15 268.6 0 252.55 0 250.55 32.55 266.8 65 250.55"/>
    <path stroke="none" fill="#929F9F" d="M65 250.55 L32.55 266.8 0 250.55 0 218.05 32.55 201.8 65 218.05 65 250.55"/>
    <path stroke="none" fill="#869595" d="M65 252.55 L65 274.55 32.55 290.8 0 274.55 0 252.55 32.15 268.6 65 252.55"/>
    <path stroke="none" fill="#000000" fill-opacity="0.10196078431372549" d="M32.55 268.8 L32.55 290.8 0 274.55 0 252.55 32.55 268.8"/>
    <path stroke="none" fill="#5F6D6D" d="M46 279.8 L46 270.1 Q46 268.45 47.15 266.7 48.3 264.95 49.95 264.25 L52.85 264.05 Q54 264.75 54 266.35 L54 275.8 46 279.8"/>
    <path stroke="none" fill="#FFFFFF" fill-opacity="0.2" d="M46 279.8 L54 275.8 54 277.8 46 281.8 46 279.8"/>
    <path stroke="none" fill="#AAB5B5" d="M75 252.55 L75 250.55 107.55 266.8 140 250.55 140 252.55 107.15 268.6 75 252.55"/>
    <path stroke="none" fill="#869595" d="M75 252.55 L107.15 268.6 140 252.55 140 274.55 107.55 290.8 75 274.55 75 252.55"/>
    <path stroke="none" fill="#929F9F" d="M75 250.55 L75 218.05 Q91.3 209.95 107.55 201.8 L140 218.05 140 250.55 107.55 266.8 75 250.55"/>
    <path stroke="none" fill="#5F6D6D" d="M87 275.8 L87 266.35 Q87 264.75 88.15 264.05 L91.05 264.25 Q92.7 264.95 93.85 266.7 95 268.45 95 270.1 L95 279.8 87 275.8"/>
    <path stroke="none" fill="#FFFFFF" fill-opacity="0.2" d="M87 275.8 L95 279.8 95 281.8 87 277.8 87 275.8"/>
    <path stroke="none" fill="#000000" fill-opacity="0.10196078431372549" d="M107.55 268.8 L107.55 290.8 75 274.55 75 252.55 107.55 268.8"/>
    <path stroke="none" fill="#929F9F" d="M150 250.55 L150 218.05 182.55 201.8 215 218.05 215 250.55 182.55 266.8 150 250.55"/>
    <path stroke="none" fill="#AAB5B5" d="M150 250.55 L182.55 266.8 215 250.55 215 252.55 Q198.6 260.6 182.15 268.6 L150 252.55 150 250.55"/>
    <path stroke="none" fill="#869595" d="M215 252.55 L215 274.55 182.55 290.8 150 274.55 150 252.55 182.15 268.6 Q198.6 260.6 215 252.55"/>
    <path stroke="none" fill="#5F6D6D" d="M162 275.8 L162 266.35 Q162 264.75 163.15 264.05 L166.05 264.25 Q167.7 264.95 168.85 266.7 170 268.45 170 270.1 L170 279.8 162 275.8"/>
    <path stroke="none" fill="#FFFFFF" fill-opacity="0.2" d="M162 275.8 L170 279.8 170 281.8 162 277.8 162 275.8"/>
    <path stroke="none" fill="#000000" fill-opacity="0.10196078431372549" d="M182.55 268.8 L182.55 290.8 150 274.55 150 252.55 182.55 268.8"/>
    <path stroke="none" fill="#5F6D6D" d="M196 279.8 L196 270.1 Q196 268.45 197.15 266.7 198.3 264.95 199.95 264.25 L202.85 264.05 Q204 264.75 204 266.35 L204 275.8 196 279.8"/>
    <path stroke="none" fill="#FFFFFF" fill-opacity="0.2" d="M196 279.8 L204 275.8 204 277.8 196 281.8 196 279.8"/>
    <path stroke="none" fill="#929F9F" d="M225 250.55 L225 218.05 Q241.3 209.95 257.55 201.8 L290 218.05 290 250.55 257.55 266.8 225 250.55"/>
    <path stroke="none" fill="#869595" d="M290 252.55 L290 274.55 257.55 290.8 225 274.55 225 252.55 257.15 268.6 Q273.6 260.6 290 252.55"/>
    <path stroke="none" fill="#AAB5B5" d="M290 252.55 Q273.6 260.6 257.15 268.6 L225 252.55 225 250.55 257.55 266.8 290 250.55 290 252.55"/>
    <path stroke="none" fill="#000000" fill-opacity="0.10196078431372549" d="M257.55 268.8 L257.55 290.8 225 274.55 225 252.55 257.55 268.8"/>
    <path stroke="none" fill="#C58F5C" d="M267 281.8 L267 268.25 269.85 268.05 Q270.9 268.7 271 270.1 L271 279.8 267 281.8 M279 266.1 Q279 264.45 280.15 262.7 281.3 260.95 282.95 260.25 L283 260.25 283 273.8 279 275.8 279 266.1"/>
    <path stroke="none" fill="#5F6D6D" d="M279 266.1 L279 275.8 271 279.8 271 270.1 Q271 268.45 272.15 266.7 273.3 264.95 274.95 264.25 L277.85 264.05 Q278.9 264.7 279 266.1"/>
    <path stroke="none" fill="#000000" fill-opacity="0.10196078431372549" d="M283 273.8 L283 275.8 279 277.8 279 275.8 283 273.8 M271 281.8 L267 283.8 267 281.8 271 279.8 271 281.8"/>
    <path stroke="none" fill="#FFFFFF" fill-opacity="0.2" d="M271 281.8 L271 279.8 279 275.8 279 277.8 271 281.8"/>
    <path stroke="none" fill="#929F9F" d="M300 250.55 L300 218.05 332.55 201.8 365 218.05 365 250.55 332.55 266.8 300 250.55"/>
    <path stroke="none" fill="#869595" d="M365 252.55 L365 274.55 332.55 290.8 300 274.55 300 252.55 332.15 268.6 Q348.6 260.6 365 252.55"/>
    <path stroke="none" fill="#AAB5B5" d="M365 252.55 Q348.6 260.6 332.15 268.6 L300 252.55 300 250.55 332.55 266.8 365 250.55 365 252.55"/>
    <path stroke="none" fill="#C58F5C" d="M308 273.8 L308 260.25 308.05 260.25 Q309.7 260.95 310.85 262.7 312 264.45 312 266.1 L312 275.8 308 273.8 M320 270.1 Q320.1 268.7 321.15 268.05 L324 268.25 324 281.8 320 279.8 320 270.1"/>
    <path stroke="none" fill="#5F6D6D" d="M320 270.1 L320 279.8 312 275.8 312 266.1 Q312.1 264.7 313.15 264.05 L316.05 264.25 Q317.7 264.95 318.85 266.7 320 268.45 320 270.1"/>
    <path stroke="none" fill="#000000" fill-opacity="0.10196078431372549" d="M324 281.8 L324 283.8 320 281.8 320 279.8 324 281.8 M312 277.8 L308 275.8 308 273.8 312 275.8 312 277.8"/>
    <path stroke="none" fill="#FFFFFF" fill-opacity="0.2" d="M312 277.8 L312 275.8 320 279.8 320 281.8 312 277.8"/>
    <path stroke="none" fill="#000000" fill-opacity="0.10196078431372549" d="M332.55 268.8 L332.55 290.8 300 274.55 300 252.55 332.55 268.8"/>
    <path stroke="none" fill="#AAB5B5" d="M450 252.55 L450 250.55 482.55 266.8 515 250.55 515 252.55 482.15 268.6 450 252.55"/>
    <path stroke="none" fill="#929F9F" d="M450 250.55 L450 218.05 482.55 201.8 515 218.05 515 250.55 482.55 266.8 450 250.55"/>
    <path stroke="none" fill="#869595" d="M515 252.55 L515 274.55 482.55 290.8 450 274.55 450 252.55 482.15 268.6 515 252.55"/>
    <path stroke="none" fill="#000000" fill-opacity="0.10196078431372549" d="M450 252.55 L482.55 268.8 482.55 290.8 450 274.55 450 252.55"/>
    <path stroke="none" fill="#5F6D6D" d="M496.15 270.1 Q496.15 268.45 497.3 266.7 498.45 264.95 500.1 264.25 L503 264.05 Q504.15 264.75 504.15 266.35 L504.15 280 496.15 284 496.15 282.1 496.15 281.8 496.15 270.1"/>
    <path stroke="none" fill="#929F9F" d="M675 250.55 L675 218.05 707.45 201.8 740 218.05 740 250.55 Q723.75 258.7 707.45 266.8 L675 250.55"/>
    <path stroke="none" fill="#AAB5B5" d="M675 250.55 L707.45 266.8 Q723.75 258.7 740 250.55 L740 252.55 707.85 268.6 675 252.55 675 250.55"/>
    <path stroke="none" fill="#869595" d="M740 252.55 L740 274.55 Q723.75 282.7 707.45 290.8 L675 274.55 675 252.55 707.85 268.6 740 252.55"/>
    <path stroke="none" fill="#5F6D6D" d="M697.3 268.75 L698 269.7 Q701 274.25 701 278.55 L701 287.6 680.25 277.2 697.3 268.75"/>
    <path stroke="none" fill="#788585" d="M697.3 268.75 L680.25 277.2 680.25 268.3 Q680.25 264 683.3 262.45 686.3 260.9 690.6 263.05 L690.65 263.05 Q694.5 264.95 697.3 268.75"/>
    <path stroke="none" fill="#000000" fill-opacity="0.10196078431372549" d="M674.95 274.55 L674.95 252.55 707.5 268.8 707.5 290.8 674.95 274.55"/>
    <path stroke="none" fill="#AAB5B5" d="M590 250.55 L590 252.55 557.85 268.6 525 252.55 525 250.55 557.45 266.8 590 250.55"/>
    <path stroke="none" fill="#929F9F" d="M590 250.55 L557.45 266.8 525 250.55 525 218.05 557.45 201.8 590 218.05 590 250.55"/>
    <path stroke="none" fill="#869595" d="M525 252.55 L557.85 268.6 590 252.55 590 274.55 557.45 290.8 525 274.55 525 252.55"/>
    <path stroke="none" fill="#5F6D6D" d="M543.85 270.1 L543.85 281.8 543.85 282.1 543.85 284 535.85 280 535.85 266.35 Q535.85 264.75 537 264.05 L539.9 264.25 Q541.55 264.95 542.7 266.7 543.85 268.45 543.85 270.1"/>
    <path stroke="none" fill="#000000" fill-opacity="0.10196078431372549" d="M525 274.55 L525 252.55 557.55 268.8 557.55 290.8 525 274.55"/>
    <path stroke="none" fill="#AAB5B5" d="M665 250.55 L665 252.55 632.15 268.6 600 252.55 600 250.55 632.55 266.8 665 250.55"/>
    <path stroke="none" fill="#929F9F" d="M665 250.55 L632.55 266.8 600 250.55 600 218.05 632.55 201.8 665 218.05 665 250.55"/>
    <path stroke="none" fill="#869595" d="M665 252.55 L665 274.55 632.55 290.8 600 274.55 600 252.55 632.15 268.6 665 252.55"/>
    <path stroke="none" fill="#000000" fill-opacity="0.10196078431372549" d="M632.55 290.8 L600 274.55 600 252.55 632.55 268.8 632.55 290.8"/>
    <path stroke="none" fill="#5F6D6D" d="M642.7 268.75 L659.75 277.2 639 287.6 639 278.55 Q639 274.25 642 269.7 L642.7 268.75"/>
    <path stroke="none" fill="#788585" d="M642.7 268.75 Q645.5 264.95 649.35 263.05 L649.4 263.05 Q653.7 260.9 656.7 262.45 659.75 264 659.75 268.3 L659.75 277.2 642.7 268.75"/>
    <path stroke="none" fill="#CFDADB" d="M0 351.55 L0 349.55 32.55 365.8 65 349.55 65 351.55 32.15 367.6 0 351.55"/>
    <path stroke="none" fill="#C2D0D1" d="M0 349.55 L0 317.05 32.55 300.8 65 317.05 65 349.55 32.55 365.8 0 349.55"/>
    <path stroke="none" fill="#BBCBCC" d="M65 351.55 L65 373.55 32.55 389.8 0 373.55 0 351.55 32.15 367.6 65 351.55"/>
    <path stroke="none" fill="#000000" fill-opacity="0.10196078431372549" d="M32.55 367.8 L32.55 389.8 0 373.55 0 351.55 32.55 367.8"/>
    <path stroke="none" fill="#5F6D6D" d="M46.1 378.8 L46.1 369.1 Q46.1 367.45 47.25 365.7 48.4 363.95 50.05 363.25 L52.95 363.05 Q54.1 363.75 54.1 365.35 L54.1 374.8 46.1 378.8"/>
    <path stroke="none" fill="#FFFFFF" fill-opacity="0.2" d="M46.1 378.8 L54.1 374.8 54.1 376.8 46.1 380.8 46.1 378.8"/>
    <path stroke="none" fill="#D6B08D" d="M65 448.55 L65 450.55 32.15 466.6 0 450.55 0 448.55 32.55 464.8 65 448.55"/>
    <path stroke="none" fill="#CA9A6C" d="M65 448.55 L32.55 464.8 0 448.55 0 416.05 32.55 399.8 65 416.05 65 448.55"/>
    <path stroke="none" fill="#C58F5C" d="M65 450.55 L65 472.55 32.55 488.8 0 472.55 0 450.55 32.15 466.6 65 450.55"/>
    <path stroke="none" fill="#000000" fill-opacity="0.10196078431372549" d="M32.55 466.8 L32.55 488.8 0 472.55 0 450.55 32.55 466.8"/>
    <path stroke="none" fill="#5F6D6D" d="M46.1 477.8 L46.1 468.1 Q46.1 466.45 47.25 464.7 48.4 462.95 50.05 462.25 L52.95 462.05 Q54.1 462.75 54.1 464.35 L54.1 473.8 46.1 477.8"/>
    <path stroke="none" fill="#FFFFFF" fill-opacity="0.2" d="M46.1 477.8 L54.1 473.8 54.1 475.8 46.1 479.8 46.1 477.8"/>
    <path stroke="none" fill="#F5EFDA" d="M0.05 549.55 L0.05 547.55 32.6 563.8 65.05 547.55 65.05 549.55 32.2 565.6 0.05 549.55"/>
    <path stroke="none" fill="#E7DFC2" d="M0.05 549.55 L32.2 565.6 65.05 549.55 65.05 571.55 32.6 587.8 0.05 571.55 0.05 549.55"/>
    <path stroke="none" fill="#EEE7CD" d="M0.05 547.55 L0.05 515.05 32.6 498.8 65.05 515.05 65.05 547.55 32.6 563.8 0.05 547.55"/>
    <path stroke="none" fill="#000000" fill-opacity="0.10196078431372549" d="M32.6 565.8 L32.6 587.8 0.05 571.55 0.05 549.55 32.6 565.8"/>
    <path stroke="none" fill="#5F6D6D" d="M46.15 576.8 L46.15 567.1 Q46.15 565.45 47.3 563.7 48.45 561.95 50.1 561.25 L53 561.05 Q54.15 561.75 54.15 563.35 L54.15 572.8 46.15 576.8"/>
    <path stroke="none" fill="#FFFFFF" fill-opacity="0.2" d="M46.15 576.8 L54.15 572.8 54.15 574.8 46.15 578.8 46.15 576.8"/>
    <path stroke="none" fill="#CFDADB" d="M75 351.55 L75 349.55 107.55 365.8 140 349.55 140 351.55 107.15 367.6 75 351.55"/>
    <path stroke="none" fill="#C2D0D1" d="M75 349.55 L75 317.05 Q91.3 308.95 107.55 300.8 L140 317.05 140 349.55 107.55 365.8 75 349.55"/>
    <path stroke="none" fill="#BBCBCC" d="M140 351.55 L140 373.55 107.55 389.8 75 373.55 75 351.55 107.15 367.6 140 351.55"/>
    <path stroke="none" fill="#5F6D6D" d="M87.1 374.8 L87.1 365.35 Q87.1 363.75 88.25 363.05 L91.15 363.25 Q92.8 363.95 93.95 365.7 95.1 367.45 95.1 369.1 L95.1 378.8 87.1 374.8"/>
    <path stroke="none" fill="#FFFFFF" fill-opacity="0.2" d="M87.1 374.8 L95.1 378.8 95.1 380.8 87.1 376.8 87.1 374.8"/>
    <path stroke="none" fill="#000000" fill-opacity="0.10196078431372549" d="M107.55 367.8 L107.55 389.8 75 373.55 75 351.55 107.55 367.8"/>
    <path stroke="none" fill="#D6B08D" d="M140 448.55 L140 450.55 107.15 466.6 75 450.55 75 448.55 107.55 464.8 140 448.55"/>
    <path stroke="none" fill="#CA9A6C" d="M140 448.55 L107.55 464.8 75 448.55 75 416.05 Q91.3 407.95 107.55 399.8 L140 416.05 140 448.55"/>
    <path stroke="none" fill="#C58F5C" d="M140 450.55 L140 472.55 107.55 488.8 75 472.55 75 450.55 107.15 466.6 140 450.55"/>
    <path stroke="none" fill="#5F6D6D" d="M87.1 473.8 L87.1 464.35 Q87.1 462.75 88.25 462.05 L91.15 462.25 Q92.8 462.95 93.95 464.7 95.1 466.45 95.1 468.1 L95.1 477.8 87.1 473.8"/>
    <path stroke="none" fill="#FFFFFF" fill-opacity="0.2" d="M87.1 473.8 L95.1 477.8 95.1 479.8 87.1 475.8 87.1 473.8"/>
    <path stroke="none" fill="#000000" fill-opacity="0.10196078431372549" d="M107.55 466.8 L107.55 488.8 75 472.55 75 450.55 107.55 466.8"/>
    <path stroke="none" fill="#F5EFDA" d="M140.05 547.55 L140.05 549.55 107.2 565.6 75.05 549.55 75.05 547.55 107.6 563.8 140.05 547.55"/>
    <path stroke="none" fill="#EEE7CD" d="M140.05 547.55 L107.6 563.8 75.05 547.55 75.05 515.05 107.6 498.8 140.05 515.05 140.05 547.55"/>
    <path stroke="none" fill="#E7DFC2" d="M140.05 549.55 L140.05 571.55 107.6 587.8 75.05 571.55 75.05 549.55 107.2 565.6 140.05 549.55"/>
    <path stroke="none" fill="#5F6D6D" d="M87.15 572.8 L87.15 563.35 Q87.15 561.75 88.3 561.05 L91.2 561.25 Q92.85 561.95 94 563.7 95.15 565.45 95.15 567.1 L95.15 576.8 87.15 572.8"/>
    <path stroke="none" fill="#FFFFFF" fill-opacity="0.2" d="M87.15 572.8 L95.15 576.8 95.15 578.8 87.15 574.8 87.15 572.8"/>
    <path stroke="none" fill="#000000" fill-opacity="0.10196078431372549" d="M107.6 565.8 L107.6 587.8 75.05 571.55 75.05 549.55 107.6 565.8"/>
    <path stroke="none" fill="#C2D0D1" d="M150 349.55 L150 317.05 182.55 300.8 215 317.05 215 349.55 182.55 365.8 150 349.55"/>
    <path stroke="none" fill="#CFDADB" d="M150 349.55 L182.55 365.8 215 349.55 215 351.55 Q198.6 359.6 182.15 367.6 L150 351.55 150 349.55"/>
    <path stroke="none" fill="#BBCBCC" d="M215 351.55 L215 373.55 182.55 389.8 150 373.55 150 351.55 182.15 367.6 Q198.6 359.6 215 351.55"/>
    <path stroke="none" fill="#5F6D6D" d="M162.1 374.8 L162.1 365.35 Q162.1 363.75 163.25 363.05 L166.15 363.25 Q167.8 363.95 168.95 365.7 170.1 367.45 170.1 369.1 L170.1 378.8 162.1 374.8"/>
    <path stroke="none" fill="#FFFFFF" fill-opacity="0.2" d="M162.1 374.8 L170.1 378.8 170.1 380.8 162.1 376.8 162.1 374.8"/>
    <path stroke="none" fill="#5F6D6D" d="M196.1 378.8 L196.1 369.1 Q196.1 367.45 197.25 365.7 198.4 363.95 200.05 363.25 L202.95 363.05 Q204.1 363.75 204.1 365.35 L204.1 374.8 196.1 378.8"/>
    <path stroke="none" fill="#FFFFFF" fill-opacity="0.2" d="M196.1 378.8 L204.1 374.8 204.1 376.8 196.1 380.8 196.1 378.8"/>
    <path stroke="none" fill="#000000" fill-opacity="0.10196078431372549" d="M182.55 367.8 L182.55 389.8 150 373.55 150 351.55 182.55 367.8"/>
    <path stroke="none" fill="#CA9A6C" d="M150 448.55 L150 416.05 182.55 399.8 215 416.05 215 448.55 182.55 464.8 150 448.55"/>
    <path stroke="none" fill="#D6B08D" d="M150 448.55 L182.55 464.8 215 448.55 215 450.55 Q198.6 458.6 182.15 466.6 L150 450.55 150 448.55"/>
    <path stroke="none" fill="#C58F5C" d="M215 450.55 L215 472.55 182.55 488.8 150 472.55 150 450.55 182.15 466.6 Q198.6 458.6 215 450.55"/>
    <path stroke="none" fill="#5F6D6D" d="M162.1 473.8 L162.1 464.35 Q162.1 462.75 163.25 462.05 L166.15 462.25 Q167.8 462.95 168.95 464.7 170.1 466.45 170.1 468.1 L170.1 477.8 162.1 473.8"/>
    <path stroke="none" fill="#FFFFFF" fill-opacity="0.2" d="M162.1 473.8 L170.1 477.8 170.1 479.8 162.1 475.8 162.1 473.8"/>
    <path stroke="none" fill="#5F6D6D" d="M196.1 477.8 L196.1 468.1 Q196.1 466.45 197.25 464.7 198.4 462.95 200.05 462.25 L202.95 462.05 Q204.1 462.75 204.1 464.35 L204.1 473.8 196.1 477.8"/>
    <path stroke="none" fill="#FFFFFF" fill-opacity="0.2" d="M196.1 477.8 L204.1 473.8 204.1 475.8 196.1 479.8 196.1 477.8"/>
    <path stroke="none" fill="#000000" fill-opacity="0.10196078431372549" d="M182.55 466.8 L182.55 488.8 150 472.55 150 450.55 182.55 466.8"/>
    <path stroke="none" fill="#EEE7CD" d="M150.05 547.55 L150.05 515.05 182.6 498.8 215.05 515.05 215.05 547.55 182.6 563.8 150.05 547.55"/>
    <path stroke="none" fill="#F5EFDA" d="M150.05 547.55 L182.6 563.8 215.05 547.55 215.05 549.55 182.2 565.6 150.05 549.55 150.05 547.55"/>
    <path stroke="none" fill="#E7DFC2" d="M215.05 549.55 L215.05 571.55 182.6 587.8 150.05 571.55 150.05 549.55 182.2 565.6 215.05 549.55"/>
    <path stroke="none" fill="#5F6D6D" d="M162.15 572.8 L162.15 563.35 Q162.15 561.75 163.3 561.05 L166.2 561.25 Q167.85 561.95 169 563.7 170.15 565.45 170.15 567.1 L170.15 576.8 162.15 572.8"/>
    <path stroke="none" fill="#FFFFFF" fill-opacity="0.2" d="M162.15 572.8 L170.15 576.8 170.15 578.8 162.15 574.8 162.15 572.8"/>
    <path stroke="none" fill="#5F6D6D" d="M196.15 576.8 L196.15 567.1 Q196.15 565.45 197.3 563.7 198.45 561.95 200.1 561.25 L203 561.05 Q204.15 561.75 204.15 563.35 L204.15 572.8 196.15 576.8"/>
    <path stroke="none" fill="#FFFFFF" fill-opacity="0.2" d="M196.15 576.8 L204.15 572.8 204.15 574.8 196.15 578.8 196.15 576.8"/>
    <path stroke="none" fill="#000000" fill-opacity="0.10196078431372549" d="M182.6 565.8 L182.6 587.8 150.05 571.55 150.05 549.55 182.6 565.8"/>
    <path stroke="none" fill="#C2D0D1" d="M225 349.55 L225 317.05 Q241.3 308.95 257.55 300.8 L290 317.05 290 349.55 257.55 365.8 225 349.55"/>
    <path stroke="none" fill="#BBCBCC" d="M290 351.55 L290 373.55 257.55 389.8 225 373.55 225 351.55 257.15 367.6 Q273.6 359.6 290 351.55"/>
    <path stroke="none" fill="#CFDADB" d="M290 351.55 Q273.6 359.6 257.15 367.6 L225 351.55 225 349.55 257.55 365.8 290 349.55 290 351.55"/>
    <path stroke="none" fill="#000000" fill-opacity="0.10196078431372549" d="M257.55 367.8 L257.55 389.8 225 373.55 225 351.55 257.55 367.8"/>
    <path stroke="none" fill="#C58F5C" d="M267.1 380.8 L267.1 367.25 269.95 367.05 Q271 367.7 271.1 369.1 L271.1 378.8 267.1 380.8 M279.1 365.1 Q279.1 363.45 280.25 361.7 281.4 359.95 283.05 359.25 L283.1 359.25 283.1 372.8 279.1 374.8 279.1 365.1"/>
    <path stroke="none" fill="#5F6D6D" d="M279.1 365.1 L279.1 374.8 271.1 378.8 271.1 369.1 Q271.1 367.45 272.25 365.7 273.4 363.95 275.05 363.25 L277.95 363.05 Q279 363.7 279.1 365.1"/>
    <path stroke="none" fill="#000000" fill-opacity="0.10196078431372549" d="M283.1 372.8 L283.1 374.8 279.1 376.8 279.1 374.8 283.1 372.8 M271.1 380.8 L267.1 382.8 267.1 380.8 271.1 378.8 271.1 380.8"/>
    <path stroke="none" fill="#FFFFFF" fill-opacity="0.2" d="M271.1 380.8 L271.1 378.8 279.1 374.8 279.1 376.8 271.1 380.8"/>
    <path stroke="none" fill="#CA9A6C" d="M225 448.55 L225 416.05 Q241.3 407.95 257.55 399.8 L290 416.05 290 448.55 257.55 464.8 225 448.55"/>
    <path stroke="none" fill="#C58F5C" d="M290 450.55 L290 472.55 257.55 488.8 225 472.55 225 450.55 257.15 466.6 Q273.6 458.6 290 450.55"/>
    <path stroke="none" fill="#D6B08D" d="M290 450.55 Q273.6 458.6 257.15 466.6 L225 450.55 225 448.55 257.55 464.8 290 448.55 290 450.55"/>
    <path stroke="none" fill="#C58F5C" d="M267.1 479.8 L267.1 466.25 269.95 466.05 Q271 466.7 271.1 468.1 L271.1 477.8 267.1 479.8 M279.1 464.1 Q279.1 462.45 280.25 460.7 281.4 458.95 283.05 458.25 L283.1 458.25 283.1 471.8 279.1 473.8 279.1 464.1"/>
    <path stroke="none" fill="#5F6D6D" d="M279.1 464.1 L279.1 473.8 271.1 477.8 271.1 468.1 Q271.1 466.45 272.25 464.7 273.4 462.95 275.05 462.25 L277.95 462.05 Q279 462.7 279.1 464.1"/>
    <path stroke="none" fill="#000000" fill-opacity="0.10196078431372549" d="M283.1 471.8 L283.1 473.8 279.1 475.8 279.1 473.8 283.1 471.8 M271.1 479.8 L267.1 481.8 267.1 479.8 271.1 477.8 271.1 479.8"/>
    <path stroke="none" fill="#FFFFFF" fill-opacity="0.2" d="M271.1 479.8 L271.1 477.8 279.1 473.8 279.1 475.8 271.1 479.8"/>
    <path stroke="none" fill="#000000" fill-opacity="0.10196078431372549" d="M257.55 466.8 L257.55 488.8 225 472.55 225 450.55 257.55 466.8"/>
    <path stroke="none" fill="#EEE7CD" d="M225.05 547.55 L225.05 515.05 257.6 498.8 290.05 515.05 290.05 547.55 257.6 563.8 225.05 547.55"/>
    <path stroke="none" fill="#E7DFC2" d="M290.05 549.55 L290.05 571.55 257.6 587.8 225.05 571.55 225.05 549.55 257.2 565.6 290.05 549.55"/>
    <path stroke="none" fill="#F5EFDA" d="M290.05 549.55 L257.2 565.6 225.05 549.55 225.05 547.55 257.6 563.8 290.05 547.55 290.05 549.55"/>
    <path stroke="none" fill="#000000" fill-opacity="0.10196078431372549" d="M257.6 565.8 L257.6 587.8 225.05 571.55 225.05 549.55 257.6 565.8"/>
    <path stroke="none" fill="#C58F5C" d="M267.15 578.8 L267.15 565.25 270 565.05 Q271.05 565.7 271.15 567.1 L271.15 576.8 267.15 578.8 M279.15 563.1 Q279.15 561.45 280.3 559.7 281.45 557.95 283.1 557.25 L283.15 557.25 283.15 570.8 279.15 572.8 279.15 563.1"/>
    <path stroke="none" fill="#5F6D6D" d="M279.15 563.1 L279.15 572.8 271.15 576.8 271.15 567.1 Q271.15 565.45 272.3 563.7 273.45 561.95 275.1 561.25 L278 561.05 Q279.05 561.7 279.15 563.1"/>
    <path stroke="none" fill="#000000" fill-opacity="0.10196078431372549" d="M283.15 570.8 L283.15 572.8 279.15 574.8 279.15 572.8 283.15 570.8 M271.15 578.8 L267.15 580.8 267.15 578.8 271.15 576.8 271.15 578.8"/>
    <path stroke="none" fill="#FFFFFF" fill-opacity="0.2" d="M271.15 578.8 L271.15 576.8 279.15 572.8 279.15 574.8 271.15 578.8"/>
    <path stroke="none" fill="#C2D0D1" d="M300 349.55 L300 317.05 332.55 300.8 365 317.05 365 349.55 332.55 365.8 300 349.55"/>
    <path stroke="none" fill="#CFDADB" d="M300 349.55 L332.55 365.8 365 349.55 365 351.55 Q348.6 359.6 332.15 367.6 L300 351.55 300 349.55"/>
    <path stroke="none" fill="#BBCBCC" d="M365 351.55 L365 373.55 332.55 389.8 300 373.55 300 351.55 332.15 367.6 Q348.6 359.6 365 351.55"/>
    <path stroke="none" fill="#C58F5C" d="M308.1 372.8 L308.1 359.25 308.15 359.25 Q309.8 359.95 310.95 361.7 312.1 363.45 312.1 365.1 L312.1 374.8 308.1 372.8 M320.1 369.1 Q320.2 367.7 321.25 367.05 L324.1 367.25 324.1 380.8 320.1 378.8 320.1 369.1"/>
    <path stroke="none" fill="#5F6D6D" d="M320.1 369.1 L320.1 378.8 312.1 374.8 312.1 365.1 Q312.2 363.7 313.25 363.05 L316.15 363.25 Q317.8 363.95 318.95 365.7 320.1 367.45 320.1 369.1"/>
    <path stroke="none" fill="#000000" fill-opacity="0.10196078431372549" d="M324.1 380.8 L324.1 382.8 320.1 380.8 320.1 378.8 324.1 380.8 M312.1 376.8 L308.1 374.8 308.1 372.8 312.1 374.8 312.1 376.8"/>
    <path stroke="none" fill="#FFFFFF" fill-opacity="0.2" d="M312.1 376.8 L312.1 374.8 320.1 378.8 320.1 380.8 312.1 376.8"/>
    <path stroke="none" fill="#000000" fill-opacity="0.10196078431372549" d="M332.55 367.8 L332.55 389.8 300 373.55 300 351.55 332.55 367.8"/>
    <path stroke="none" fill="#CA9A6C" d="M300 448.55 L300 416.05 332.55 399.8 365 416.05 365 448.55 332.55 464.8 300 448.55"/>
    <path stroke="none" fill="#C58F5C" d="M365 450.55 L365 472.55 332.55 488.8 300 472.55 300 450.55 332.15 466.6 Q348.6 458.6 365 450.55"/>
    <path stroke="none" fill="#D6B08D" d="M365 450.55 Q348.6 458.6 332.15 466.6 L300 450.55 300 448.55 332.55 464.8 365 448.55 365 450.55"/>
    <path stroke="none" fill="#C58F5C" d="M308.1 471.8 L308.1 458.25 308.15 458.25 Q309.8 458.95 310.95 460.7 312.1 462.45 312.1 464.1 L312.1 473.8 308.1 471.8 M320.1 468.1 Q320.2 466.7 321.25 466.05 L324.1 466.25 324.1 479.8 320.1 477.8 320.1 468.1"/>
    <path stroke="none" fill="#5F6D6D" d="M320.1 468.1 L320.1 477.8 312.1 473.8 312.1 464.1 Q312.2 462.7 313.25 462.05 L316.15 462.25 Q317.8 462.95 318.95 464.7 320.1 466.45 320.1 468.1"/>
    <path stroke="none" fill="#000000" fill-opacity="0.10196078431372549" d="M324.1 479.8 L324.1 481.8 320.1 479.8 320.1 477.8 324.1 479.8 M312.1 475.8 L308.1 473.8 308.1 471.8 312.1 473.8 312.1 475.8"/>
    <path stroke="none" fill="#FFFFFF" fill-opacity="0.2" d="M312.1 475.8 L312.1 473.8 320.1 477.8 320.1 479.8 312.1 475.8"/>
    <path stroke="none" fill="#000000" fill-opacity="0.10196078431372549" d="M332.55 466.8 L332.55 488.8 300 472.55 300 450.55 332.55 466.8"/>
    <path stroke="none" fill="#EEE7CD" d="M300.05 547.55 L300.05 515.05 332.6 498.8 365.05 515.05 365.05 547.55 332.6 563.8 300.05 547.55"/>
    <path stroke="none" fill="#E7DFC2" d="M365.05 549.55 L365.05 571.55 332.6 587.8 300.05 571.55 300.05 549.55 332.2 565.6 365.05 549.55"/>
    <path stroke="none" fill="#F5EFDA" d="M365.05 549.55 L332.2 565.6 300.05 549.55 300.05 547.55 332.6 563.8 365.05 547.55 365.05 549.55"/>
    <path stroke="none" fill="#C58F5C" d="M308.15 570.8 L308.15 557.25 308.2 557.25 Q309.85 557.95 311 559.7 312.15 561.45 312.15 563.1 L312.15 572.8 308.15 570.8 M320.15 567.1 Q320.25 565.7 321.3 565.05 L324.15 565.25 324.15 578.8 320.15 576.8 320.15 567.1"/>
    <path stroke="none" fill="#5F6D6D" d="M320.15 567.1 L320.15 576.8 312.15 572.8 312.15 563.1 Q312.25 561.7 313.3 561.05 L316.2 561.25 Q317.85 561.95 319 563.7 320.15 565.45 320.15 567.1"/>
    <path stroke="none" fill="#000000" fill-opacity="0.10196078431372549" d="M324.15 578.8 L324.15 580.8 320.15 578.8 320.15 576.8 324.15 578.8 M312.15 574.8 L308.15 572.8 308.15 570.8 312.15 572.8 312.15 574.8"/>
    <path stroke="none" fill="#FFFFFF" fill-opacity="0.2" d="M312.15 574.8 L312.15 572.8 320.15 576.8 320.15 578.8 312.15 574.8"/>
    <path stroke="none" fill="#000000" fill-opacity="0.10196078431372549" d="M332.6 565.8 L332.6 587.8 300.05 571.55 300.05 549.55 332.6 565.8"/>
    <path stroke="none" fill="#CFDADB" d="M375 351.55 L375 349.55 407.55 365.8 440 349.55 440 351.55 Q423.6 359.6 407.15 367.6 L375 351.55"/>
    <path stroke="none" fill="#C2D0D1" d="M375 349.55 L375 317.05 407.55 300.8 440 317.05 440 349.55 407.55 365.8 375 349.55"/>
    <path stroke="none" fill="#BBCBCC" d="M440 351.55 L440 373.55 407.55 389.8 375 373.55 375 351.55 407.15 367.6 Q423.6 359.6 440 351.55"/>
    <path stroke="none" fill="#C58F5C" d="M395.1 369.1 Q395.2 367.7 396.25 367.05 L399.1 367.25 399.1 380.8 395.1 378.8 395.1 369.1 M383.1 372.8 L383.1 359.25 383.15 359.25 Q384.8 359.95 385.95 361.7 387.1 363.45 387.1 365.1 L387.1 374.8 383.1 372.8"/>
    <path stroke="none" fill="#5F6D6D" d="M387.1 365.1 Q387.2 363.7 388.25 363.05 L391.15 363.25 Q392.8 363.95 393.95 365.7 395.1 367.45 395.1 369.1 L395.1 378.8 387.1 374.8 387.1 365.1"/>
    <path stroke="none" fill="#000000" fill-opacity="0.10196078431372549" d="M399.1 380.8 L399.1 382.8 395.1 380.8 395.1 378.8 399.1 380.8 M387.1 376.8 L383.1 374.8 383.1 372.8 387.1 374.8 387.1 376.8"/>
    <path stroke="none" fill="#FFFFFF" fill-opacity="0.2" d="M387.1 376.8 L387.1 374.8 395.1 378.8 395.1 380.8 387.1 376.8"/>
    <path stroke="none" fill="#5F6D6D" d="M421.1 369.1 Q421.1 367.45 422.25 365.7 423.4 363.95 425.05 363.25 L427.95 363.05 Q429 363.7 429.1 365.1 L429.1 374.8 421.1 378.8 421.1 369.1"/>
    <path stroke="none" fill="#C58F5C" d="M421.1 369.1 L421.1 378.8 417.1 380.8 417.1 367.25 419.95 367.05 Q421 367.7 421.1 369.1 M429.1 365.1 Q429.1 363.45 430.25 361.7 431.4 359.95 433.05 359.25 L433.1 359.25 433.1 372.8 429.1 374.8 429.1 365.1"/>
    <path stroke="none" fill="#FFFFFF" fill-opacity="0.2" d="M429.1 376.8 L421.1 380.8 421.1 378.8 429.1 374.8 429.1 376.8"/>
    <path stroke="none" fill="#000000" fill-opacity="0.10196078431372549" d="M429.1 376.8 L429.1 374.8 433.1 372.8 433.1 374.8 429.1 376.8 M421.1 380.8 L417.1 382.8 417.1 380.8 421.1 378.8 421.1 380.8"/>
    <path stroke="none" fill="#000000" fill-opacity="0.10196078431372549" d="M407.55 367.8 L407.55 389.8 375 373.55 375 351.55 407.55 367.8"/>
    <path stroke="none" fill="#D6B08D" d="M440 448.55 L440 450.55 Q423.6 458.6 407.15 466.6 L375 450.55 375 448.55 407.55 464.8 440 448.55"/>
    <path stroke="none" fill="#C58F5C" d="M440 450.55 L440 472.55 407.55 488.8 375 472.55 375 450.55 407.15 466.6 Q423.6 458.6 440 450.55"/>
    <path stroke="none" fill="#CA9A6C" d="M375 448.55 L375 416.05 407.55 399.8 440 416.05 440 448.55 407.55 464.8 375 448.55"/>
    <path stroke="none" fill="#C58F5C" d="M395.1 468.1 Q395.2 466.7 396.25 466.05 L399.1 466.25 399.1 479.8 395.1 477.8 395.1 468.1 M383.1 471.8 L383.1 458.25 383.15 458.25 Q384.8 458.95 385.95 460.7 387.1 462.45 387.1 464.1 L387.1 473.8 383.1 471.8"/>
    <path stroke="none" fill="#5F6D6D" d="M387.1 464.1 Q387.2 462.7 388.25 462.05 L391.15 462.25 Q392.8 462.95 393.95 464.7 395.1 466.45 395.1 468.1 L395.1 477.8 387.1 473.8 387.1 464.1"/>
    <path stroke="none" fill="#000000" fill-opacity="0.10196078431372549" d="M399.1 479.8 L399.1 481.8 395.1 479.8 395.1 477.8 399.1 479.8 M387.1 475.8 L383.1 473.8 383.1 471.8 387.1 473.8 387.1 475.8"/>
    <path stroke="none" fill="#FFFFFF" fill-opacity="0.2" d="M387.1 475.8 L387.1 473.8 395.1 477.8 395.1 479.8 387.1 475.8"/>
    <path stroke="none" fill="#5F6D6D" d="M421.1 468.1 Q421.1 466.45 422.25 464.7 423.4 462.95 425.05 462.25 L427.95 462.05 Q429 462.7 429.1 464.1 L429.1 473.8 421.1 477.8 421.1 468.1"/>
    <path stroke="none" fill="#C58F5C" d="M421.1 468.1 L421.1 477.8 417.1 479.8 417.1 466.25 419.95 466.05 Q421 466.7 421.1 468.1 M429.1 464.1 Q429.1 462.45 430.25 460.7 431.4 458.95 433.05 458.25 L433.1 458.25 433.1 471.8 429.1 473.8 429.1 464.1"/>
    <path stroke="none" fill="#FFFFFF" fill-opacity="0.2" d="M429.1 475.8 L421.1 479.8 421.1 477.8 429.1 473.8 429.1 475.8"/>
    <path stroke="none" fill="#000000" fill-opacity="0.10196078431372549" d="M429.1 475.8 L429.1 473.8 433.1 471.8 433.1 473.8 429.1 475.8 M421.1 479.8 L417.1 481.8 417.1 479.8 421.1 477.8 421.1 479.8"/>
    <path stroke="none" fill="#000000" fill-opacity="0.10196078431372549" d="M375 472.55 L375 450.55 407.55 466.8 407.55 488.8 375 472.55"/>
    <path stroke="none" fill="#F5EFDA" d="M375.05 549.55 L375.05 547.55 407.6 563.8 440.05 547.55 440.05 549.55 407.2 565.6 375.05 549.55"/>
    <path stroke="none" fill="#EEE7CD" d="M375.05 547.55 L375.05 515.05 407.6 498.8 440.05 515.05 440.05 547.55 407.6 563.8 375.05 547.55"/>
    <path stroke="none" fill="#E7DFC2" d="M440.05 549.55 L440.05 571.55 407.6 587.8 375.05 571.55 375.05 549.55 407.2 565.6 440.05 549.55"/>
    <path stroke="none" fill="#C58F5C" d="M395.15 567.1 Q395.25 565.7 396.3 565.05 L399.15 565.25 399.15 578.8 395.15 576.8 395.15 567.1 M383.15 570.8 L383.15 557.25 383.2 557.25 Q384.85 557.95 386 559.7 387.15 561.45 387.15 563.1 L387.15 572.8 383.15 570.8"/>
    <path stroke="none" fill="#5F6D6D" d="M387.15 563.1 Q387.25 561.7 388.3 561.05 L391.2 561.25 Q392.85 561.95 394 563.7 395.15 565.45 395.15 567.1 L395.15 576.8 387.15 572.8 387.15 563.1"/>
    <path stroke="none" fill="#000000" fill-opacity="0.10196078431372549" d="M399.15 578.8 L399.15 580.8 395.15 578.8 395.15 576.8 399.15 578.8 M387.15 574.8 L383.15 572.8 383.15 570.8 387.15 572.8 387.15 574.8"/>
    <path stroke="none" fill="#FFFFFF" fill-opacity="0.2" d="M387.15 574.8 L387.15 572.8 395.15 576.8 395.15 578.8 387.15 574.8"/>
    <path stroke="none" fill="#5F6D6D" d="M421.15 567.1 Q421.15 565.45 422.3 563.7 423.45 561.95 425.1 561.25 L428 561.05 Q429.05 561.7 429.15 563.1 L429.15 572.8 421.15 576.8 421.15 567.1"/>
    <path stroke="none" fill="#C58F5C" d="M421.15 567.1 L421.15 576.8 417.15 578.8 417.15 565.25 420 565.05 Q421.05 565.7 421.15 567.1 M429.15 563.1 Q429.15 561.45 430.3 559.7 431.45 557.95 433.1 557.25 L433.15 557.25 433.15 570.8 429.15 572.8 429.15 563.1"/>
    <path stroke="none" fill="#FFFFFF" fill-opacity="0.2" d="M429.15 574.8 L421.15 578.8 421.15 576.8 429.15 572.8 429.15 574.8"/>
    <path stroke="none" fill="#000000" fill-opacity="0.10196078431372549" d="M429.15 574.8 L429.15 572.8 433.15 570.8 433.15 572.8 429.15 574.8 M421.15 578.8 L417.15 580.8 417.15 578.8 421.15 576.8 421.15 578.8"/>
    <path stroke="none" fill="#000000" fill-opacity="0.10196078431372549" d="M407.6 565.8 L407.6 587.8 375.05 571.55 375.05 549.55 407.6 565.8"/>
    <path stroke="none" fill="#CFDADB" d="M450 351.55 L450 349.55 482.55 365.8 515 349.55 515 351.55 482.15 367.6 450 351.55"/>
    <path stroke="none" fill="#C2D0D1" d="M450 349.55 L450 317.05 482.55 300.8 515 317.05 515 349.55 482.55 365.8 450 349.55"/>
    <path stroke="none" fill="#BBCBCC" d="M515 351.55 L515 373.55 482.55 389.8 450 373.55 450 351.55 482.15 367.6 515 351.55"/>
    <path stroke="none" fill="#000000" fill-opacity="0.10196078431372549" d="M482.55 367.8 L482.55 389.8 450 373.55 450 351.55 482.55 367.8"/>
    <path stroke="none" fill="#5F6D6D" d="M496.25 369.1 Q496.25 367.45 497.4 365.7 498.55 363.95 500.2 363.25 L503.1 363.05 Q504.25 363.75 504.25 365.35 L504.25 379 496.25 383 496.25 381.1 496.25 380.8 496.25 369.1"/>
    <path stroke="none" fill="#D6B08D" d="M515 448.55 L515 450.55 482.15 466.6 450 450.55 450 448.55 482.55 464.8 515 448.55"/>
    <path stroke="none" fill="#C58F5C" d="M515 450.55 L515 472.55 482.55 488.8 450 472.55 450 450.55 482.15 466.6 515 450.55"/>
    <path stroke="none" fill="#CA9A6C" d="M450 448.55 L450 416.05 482.55 399.8 515 416.05 515 448.55 482.55 464.8 450 448.55"/>
    <path stroke="none" fill="#000000" fill-opacity="0.10196078431372549" d="M482.55 488.8 L450 472.55 450 450.55 482.55 466.8 482.55 488.8"/>
    <path stroke="none" fill="#5F6D6D" d="M496.25 468.1 Q496.25 466.45 497.4 464.7 498.55 462.95 500.2 462.25 L503.1 462.05 Q504.25 462.75 504.25 464.35 L504.25 478 496.25 482 496.25 480.1 496.25 479.8 496.25 468.1"/>
    <path stroke="none" fill="#F5EFDA" d="M515.05 547.55 L515.05 549.55 482.2 565.6 450.05 549.55 450.05 547.55 482.6 563.8 515.05 547.55"/>
    <path stroke="none" fill="#E7DFC2" d="M515.05 549.55 L515.05 571.55 482.6 587.8 450.05 571.55 450.05 549.55 482.2 565.6 515.05 549.55"/>
    <path stroke="none" fill="#EEE7CD" d="M450.05 547.55 L450.05 515.05 Q466.35 506.95 482.6 498.8 L515.05 515.05 515.05 547.55 482.6 563.8 450.05 547.55"/>
    <path stroke="none" fill="#000000" fill-opacity="0.10196078431372549" d="M450.05 571.55 L450.05 549.55 482.6 565.8 482.6 587.8 450.05 571.55"/>
    <path stroke="none" fill="#5F6D6D" d="M496.3 567.1 Q496.3 565.45 497.45 563.7 498.6 561.95 500.25 561.25 L503.15 561.05 Q504.3 561.75 504.3 563.35 L504.3 577 496.3 581 496.3 579.1 496.3 578.8 496.3 567.1"/>
    <path stroke="none" fill="#CFDADB" d="M525 351.55 L525 349.55 557.55 365.8 590 349.55 590 351.55 557.15 367.6 525 351.55"/>
    <path stroke="none" fill="#C2D0D1" d="M525 349.55 L525 317.05 557.55 300.8 590 317.05 590 349.55 557.55 365.8 525 349.55"/>
    <path stroke="none" fill="#BBCBCC" d="M590 351.55 L590 373.55 557.55 389.8 525 373.55 525 351.55 557.15 367.6 590 351.55"/>
    <path stroke="none" fill="#5F6D6D" d="M540 363.25 Q541.65 363.95 542.8 365.7 543.95 367.45 543.95 369.1 L543.95 380.8 543.95 381.1 543.95 383 535.95 379 535.95 365.35 Q535.95 363.75 537.1 363.05 L540 363.25"/>
    <path stroke="none" fill="#000000" fill-opacity="0.10196078431372549" d="M557.55 367.8 L557.55 389.8 525 373.55 525 351.55 557.55 367.8"/>
    <path stroke="none" fill="#D6B08D" d="M590 448.55 L590 450.55 557.15 466.6 525 450.55 525 448.55 557.55 464.8 590 448.55"/>
    <path stroke="none" fill="#C58F5C" d="M590 450.55 L590 472.55 557.55 488.8 525 472.55 525 450.55 557.15 466.6 590 450.55"/>
    <path stroke="none" fill="#CA9A6C" d="M525 448.55 L525 416.05 557.55 399.8 590 416.05 590 448.55 557.55 464.8 525 448.55"/>
    <path stroke="none" fill="#5F6D6D" d="M543.95 468.1 L543.95 479.8 543.95 480.1 543.95 482 535.95 478 535.95 464.35 Q535.95 462.75 537.1 462.05 L540 462.25 Q541.65 462.95 542.8 464.7 543.95 466.45 543.95 468.1"/>
    <path stroke="none" fill="#000000" fill-opacity="0.10196078431372549" d="M525 472.55 L525 450.55 557.55 466.8 557.55 488.8 525 472.55"/>
    <path stroke="none" fill="#F5EFDA" d="M525.05 549.55 L525.05 547.55 557.6 563.8 Q573.85 555.7 590.05 547.55 L590.05 549.55 557.2 565.6 525.05 549.55"/>
    <path stroke="none" fill="#EEE7CD" d="M525.05 547.55 L525.05 515.05 557.6 498.8 590.05 515.05 590.05 547.55 Q573.85 555.7 557.6 563.8 L525.05 547.55"/>
    <path stroke="none" fill="#E7DFC2" d="M590.05 549.55 L590.05 571.55 Q573.85 579.7 557.6 587.8 L525.05 571.55 525.05 549.55 557.2 565.6 590.05 549.55"/>
    <path stroke="none" fill="#5F6D6D" d="M540.05 561.25 Q541.7 561.95 542.85 563.7 544 565.45 544 567.1 L544 578.8 544 579.1 544 581 536 577 536 563.35 Q536 561.75 537.15 561.05 L540.05 561.25"/>
    <path stroke="none" fill="#000000" fill-opacity="0.10196078431372549" d="M557.6 565.8 L557.6 587.8 525.05 571.55 525.05 549.55 557.6 565.8"/>
    <path stroke="none" fill="#CFDADB" d="M665 349.55 L665 351.55 632.15 367.6 600 351.55 600 349.55 632.55 365.8 665 349.55"/>
    <path stroke="none" fill="#C2D0D1" d="M665 349.55 L632.55 365.8 600 349.55 600 317.05 632.55 300.8 665 317.05 665 349.55"/>
    <path stroke="none" fill="#BBCBCC" d="M665 351.55 L665 373.55 632.55 389.8 600 373.55 600 351.55 632.15 367.6 665 351.55"/>
    <path stroke="none" fill="#000000" fill-opacity="0.10196078431372549" d="M632.55 389.8 L600 373.55 600 351.55 632.55 367.8 632.55 389.8"/>
    <path stroke="none" fill="#5F6D6D" d="M642.8 367.75 L659.85 376.2 639.1 386.6 639.1 377.55 Q639.1 373.25 642.1 368.7 L642.8 367.75"/>
    <path stroke="none" fill="#788585" d="M642.8 367.75 Q645.6 363.95 649.45 362.05 L649.5 362.05 Q653.8 359.9 656.8 361.45 659.85 363 659.85 367.3 L659.85 376.2 642.8 367.75"/>
    <path stroke="none" fill="#D6B08D" d="M665 448.55 L665 450.55 632.15 466.6 600 450.55 600 448.55 632.55 464.8 665 448.55"/>
    <path stroke="none" fill="#CA9A6C" d="M665 448.55 L632.55 464.8 600 448.55 600 416.05 632.55 399.8 665 416.05 665 448.55"/>
    <path stroke="none" fill="#C58F5C" d="M665 450.55 L665 472.55 632.55 488.8 600 472.55 600 450.55 632.15 466.6 665 450.55"/>
    <path stroke="none" fill="#000000" fill-opacity="0.10196078431372549" d="M632.55 488.8 L600 472.55 600 450.55 632.55 466.8 632.55 488.8"/>
    <path stroke="none" fill="#5F6D6D" d="M642.8 466.75 L659.85 475.2 639.1 485.6 639.1 476.55 Q639.1 472.25 642.1 467.7 L642.8 466.75"/>
    <path stroke="none" fill="#788585" d="M642.8 466.75 Q645.6 462.95 649.45 461.05 L649.5 461.05 Q653.8 458.9 656.8 460.45 659.85 462 659.85 466.3 L659.85 475.2 642.8 466.75"/>
    <path stroke="none" fill="#F5EFDA" d="M665.05 547.55 L665.05 549.55 632.2 565.6 600.05 549.55 600.05 547.55 632.6 563.8 665.05 547.55"/>
    <path stroke="none" fill="#EEE7CD" d="M665.05 547.55 L632.6 563.8 600.05 547.55 600.05 515.05 632.6 498.8 665.05 515.05 665.05 547.55"/>
    <path stroke="none" fill="#E7DFC2" d="M665.05 549.55 L665.05 571.55 632.6 587.8 600.05 571.55 600.05 549.55 632.2 565.6 665.05 549.55"/>
    <path stroke="none" fill="#000000" fill-opacity="0.10196078431372549" d="M632.6 587.8 L600.05 571.55 600.05 549.55 632.6 565.8 632.6 587.8"/>
    <path stroke="none" fill="#5F6D6D" d="M642.85 565.75 L659.9 574.2 639.15 584.6 639.15 575.55 Q639.15 571.25 642.15 566.7 L642.85 565.75"/>
    <path stroke="none" fill="#788585" d="M642.85 565.75 Q645.65 561.95 649.5 560.05 L649.55 560.05 Q653.85 557.9 656.85 559.45 659.9 561 659.9 565.3 L659.9 574.2 642.85 565.75"/>
    <path stroke="none" fill="#CFDADB" d="M675 351.55 L675 349.55 707.55 365.8 740 349.55 740 351.55 707.15 367.6 675 351.55"/>
    <path stroke="none" fill="#C2D0D1" d="M675 349.55 L675 317.05 Q691.3 308.95 707.55 300.8 L740 317.05 740 349.55 707.55 365.8 675 349.55"/>
    <path stroke="none" fill="#BBCBCC" d="M740 351.55 L740 373.55 707.55 389.8 675 373.55 675 351.55 707.15 367.6 740 351.55"/>
    <path stroke="none" fill="#5F6D6D" d="M697.4 367.75 L698.1 368.7 Q701.1 373.25 701.1 377.55 L701.1 386.6 680.35 376.2 697.4 367.75"/>
    <path stroke="none" fill="#788585" d="M697.4 367.75 L680.35 376.2 680.35 367.3 Q680.35 363 683.4 361.45 686.4 359.9 690.7 362.05 L690.75 362.05 Q694.6 363.95 697.4 367.75"/>
    <path stroke="none" fill="#000000" fill-opacity="0.10196078431372549" d="M707.55 367.8 L707.55 389.8 675 373.55 675 351.55 707.55 367.8"/>
    <path stroke="none" fill="#CA9A6C" d="M675 448.55 L675 416.05 Q691.3 407.95 707.55 399.8 L740 416.05 740 448.55 707.55 464.8 675 448.55"/>
    <path stroke="none" fill="#C58F5C" d="M740 450.55 L740 472.55 707.55 488.8 675 472.55 675 450.55 707.15 466.6 740 450.55"/>
    <path stroke="none" fill="#D6B08D" d="M740 450.55 L707.15 466.6 675 450.55 675 448.55 707.55 464.8 740 448.55 740 450.55"/>
    <path stroke="none" fill="#5F6D6D" d="M697.4 466.75 L698.1 467.7 Q701.1 472.25 701.1 476.55 L701.1 485.6 680.35 475.2 697.4 466.75"/>
    <path stroke="none" fill="#788585" d="M697.4 466.75 L680.35 475.2 680.35 466.3 Q680.35 462 683.4 460.45 686.4 458.9 690.7 461.05 L690.75 461.05 Q694.6 462.95 697.4 466.75"/>
    <path stroke="none" fill="#000000" fill-opacity="0.10196078431372549" d="M675 472.55 L675 450.55 707.55 466.8 707.55 488.8 675 472.55"/>
    <path stroke="none" fill="#F5EFDA" d="M675.05 549.55 L675.05 547.55 707.6 563.8 740.05 547.55 740.05 549.55 707.2 565.6 675.05 549.55"/>
    <path stroke="none" fill="#EEE7CD" d="M675.05 547.55 L675.05 515.05 707.6 498.8 740.05 515.05 740.05 547.55 707.6 563.8 675.05 547.55"/>
    <path stroke="none" fill="#E7DFC2" d="M740.05 549.55 L740.05 571.55 707.6 587.8 675.05 571.55 675.05 549.55 707.2 565.6 740.05 549.55"/>
    <path stroke="none" fill="#5F6D6D" d="M697.45 565.75 L698.15 566.7 Q701.15 571.25 701.15 575.55 L701.15 584.6 680.4 574.2 697.45 565.75"/>
    <path stroke="none" fill="#788585" d="M697.45 565.75 L680.4 574.2 680.4 565.3 Q680.4 561 683.45 559.45 686.45 557.9 690.75 560.05 L690.8 560.05 Q694.65 561.95 697.45 565.75"/>
    <path stroke="none" fill="#000000" fill-opacity="0.10196078431372549" d="M707.6 565.8 L707.6 587.8 675.05 571.55 675.05 549.55 707.6 565.8"/>
    <path stroke="none" fill="#AAB5B5" d="M440 250.55 L440 252.55 Q423.6 260.6 407.15 268.6 L375 252.55 375 250.55 407.55 266.8 440 250.55"/>
    <path stroke="none" fill="#869595" d="M440 252.55 L440 274.55 407.55 290.8 375 274.55 375 252.55 407.15 268.6 Q423.6 260.6 440 252.55"/>
    <path stroke="none" fill="#929F9F" d="M375 250.55 L375 218.05 407.55 201.8 440 218.05 440 250.55 407.55 266.8 375 250.55"/>
    <path stroke="none" fill="#C58F5C" d="M395 270.1 Q395.1 268.7 396.15 268.05 L399 268.25 399 281.8 395 279.8 395 270.1 M383 273.8 L383 260.25 383.05 260.25 Q384.7 260.95 385.85 262.7 387 264.45 387 266.1 L387 275.8 383 273.8"/>
    <path stroke="none" fill="#5F6D6D" d="M387 266.1 Q387.1 264.7 388.15 264.05 L391.05 264.25 Q392.7 264.95 393.85 266.7 395 268.45 395 270.1 L395 279.8 387 275.8 387 266.1"/>
    <path stroke="none" fill="#000000" fill-opacity="0.10196078431372549" d="M399 281.8 L399 283.8 395 281.8 395 279.8 399 281.8 M387 277.8 L383 275.8 383 273.8 387 275.8 387 277.8"/>
    <path stroke="none" fill="#FFFFFF" fill-opacity="0.2" d="M387 277.8 L387 275.8 395 279.8 395 281.8 387 277.8"/>
    <path stroke="none" fill="#5F6D6D" d="M421 270.1 Q421 268.45 422.15 266.7 423.3 264.95 424.95 264.25 L427.85 264.05 Q428.9 264.7 429 266.1 L429 275.8 421 279.8 421 270.1"/>
    <path stroke="none" fill="#C58F5C" d="M421 270.1 L421 279.8 417 281.8 417 268.25 419.85 268.05 Q420.9 268.7 421 270.1 M429 266.1 Q429 264.45 430.15 262.7 431.3 260.95 432.95 260.25 L433 260.25 433 273.8 429 275.8 429 266.1"/>
    <path stroke="none" fill="#FFFFFF" fill-opacity="0.2" d="M429 277.8 L421 281.8 421 279.8 429 275.8 429 277.8"/>
    <path stroke="none" fill="#000000" fill-opacity="0.10196078431372549" d="M429 277.8 L429 275.8 433 273.8 433 275.8 429 277.8 M421 281.8 L417 283.8 417 281.8 421 279.8 421 281.8"/>
    <path stroke="none" fill="#000000" fill-opacity="0.10196078431372549" d="M375 274.55 L375 252.55 407.55 268.8 407.55 290.8 375 274.55"/>
    <path stroke="none" fill="#C2771E" d="M182.55 101.8 L182.55 102.8 182.55 191.8 150 175.55 176.15 116.35 Q179.7 109.75 182.55 101.8"/>
    <path stroke="none" fill="#D07F1E" d="M182.55 101.8 Q189.95 122.6 202.55 134.3 208.3 139.6 215.1 143.05 L215 143.05 215 175.55 182.55 102.8 182.55 101.8"/>
    <path stroke="none" fill="#B16F1E" d="M176.15 116.35 L150 175.55 150 143.05 Q156.8 139.6 162.55 134.3 170.3 127.05 176.15 116.35"/>
    <path stroke="none" fill="#E08E2B" d="M150 175.55 L182.55 191.8 215 175.55 215 177.55 Q198.6 185.6 182.15 193.6 L150 177.55 150 175.55"/>
    <path stroke="none" fill="#C97919" d="M182.55 191.8 L182.55 102.8 215 175.55 182.55 191.8"/>
    <path stroke="none" fill="#B16F1E" d="M225.1 175.55 L225.1 143.05 257.65 106.35 257.65 138.85 225.1 175.55"/>
    <path stroke="none" fill="#D07F1E" d="M257.65 106.35 L290.1 143.05 290.1 175.55 257.65 138.85 257.65 106.35"/>
    <path stroke="none" fill="#C97919" d="M257.65 138.85 L290.1 175.55 257.65 191.8 257.65 138.85"/>
    <path stroke="none" fill="#E08E2B" d="M290.1 175.55 L290.1 177.55 257.25 193.6 225.1 177.55 225.1 175.55 257.65 191.8 290.1 175.55"/>
    <path stroke="none" fill="#C2771E" d="M257.65 191.8 L225.1 175.55 257.65 138.85 257.65 191.8"/>
    <path stroke="none" fill="#B16F1E" d="M300.1 175.55 L300.1 143.05 332.65 126.35 332.65 138.85 300.1 175.55"/>
    <path stroke="none" fill="#D07F1E" d="M332.65 126.35 L365.1 143.05 365.1 175.55 332.65 138.85 332.65 126.35"/>
    <path stroke="none" fill="#E08E2B" d="M365.1 175.55 L365.1 177.55 Q348.7 185.6 332.25 193.6 L300.1 177.55 300.1 175.55 332.65 191.8 365.1 175.55"/>
    <path stroke="none" fill="#C2771E" d="M300.1 175.55 L332.65 138.85 332.65 191.8 300.1 175.55"/>
    <path stroke="none" fill="#C97919" d="M332.65 191.8 L332.65 138.85 365.1 175.55 332.65 191.8"/>
    <path stroke="none" fill="#A87C51" d="M0.05 73.75 L0.05 41.25 32.6 0 0.05 73.75"/>
    <path stroke="none" fill="#D6B08D" d="M0.05 73.75 L32.6 90 65.05 73.75 65.05 75.75 32.2 91.8 0.05 75.75 0.05 73.75"/>
    <path stroke="none" fill="#B08052" d="M0.05 73.75 L32.6 0 32.6 90 0.05 73.75"/>
    <path stroke="none" fill="#C58F5C" d="M32.6 0 L65.05 73.75 32.6 90 32.6 0"/>
    <path stroke="none" fill="#CA9A6C" d="M32.6 0 L65.05 41.25 65.05 73.75 32.6 0"/>
    <path stroke="none" fill="#D6B08D" d="M140 75.55 L140 77.55 107.15 93.6 75 77.55 75 75.55 107.55 91.8 140 75.55"/>
    <path stroke="none" fill="#CA9A6C" d="M140 75.55 L107.55 26.8 140 43.05 140 75.55"/>
    <path stroke="none" fill="#A87C51" d="M75 75.55 L75 43.05 Q91.3 34.95 107.55 26.8 L75 75.55"/>
    <path stroke="none" fill="#B08052" d="M75 75.55 L107.55 26.8 107.55 91.8 75 75.55"/>
    <path stroke="none" fill="#C58F5C" d="M107.55 26.8 L140 75.55 107.55 91.8 107.55 26.8"/>
    <path stroke="none" fill="#B08052" d="M182.55 1.8 L182.55 2.8 182.55 91.8 150 75.55 176.15 16.35 Q179.7 9.75 182.55 1.8"/>
    <path stroke="none" fill="#CA9A6C" d="M182.55 1.8 Q189.95 22.6 202.55 34.3 208.3 39.6 215.1 43.05 L215 43.05 215 75.55 182.55 2.8 182.55 1.8"/>
    <path stroke="none" fill="#A87C51" d="M176.15 16.35 L150 75.55 150 43.05 Q156.8 39.6 162.55 34.3 170.3 27.05 176.15 16.35"/>
    <path stroke="none" fill="#D6B08D" d="M150 75.55 L182.55 91.8 215 75.55 215 77.55 Q198.6 85.6 182.15 93.6 L150 77.55 150 75.55"/>
    <path stroke="none" fill="#C58F5C" d="M182.55 91.8 L182.55 2.8 215 75.55 182.55 91.8"/>
    <path stroke="none" fill="#A87C51" d="M225.1 75.55 L225.1 43.05 257.65 6.35 257.65 38.85 225.1 75.55"/>
    <path stroke="none" fill="#CA9A6C" d="M257.65 6.35 L290.1 43.05 290.1 75.55 257.65 38.85 257.65 6.35"/>
    <path stroke="none" fill="#C58F5C" d="M257.65 38.85 L290.1 75.55 257.65 91.8 257.65 38.85"/>
    <path stroke="none" fill="#D6B08D" d="M290.1 75.55 L290.1 77.55 257.25 93.6 225.1 77.55 225.1 75.55 257.65 91.8 290.1 75.55"/>
    <path stroke="none" fill="#B08052" d="M257.65 91.8 L225.1 75.55 257.65 38.85 257.65 91.8"/>
    <path stroke="none" fill="#A87C51" d="M300.1 75.55 L300.1 43.05 332.65 26.35 332.65 38.85 300.1 75.55"/>
    <path stroke="none" fill="#CA9A6C" d="M332.65 38.85 L332.65 26.35 365.1 43.05 365.1 75.55 332.65 38.85"/>
    <path stroke="none" fill="#D6B08D" d="M365.1 75.55 L365.1 77.55 Q348.7 85.6 332.25 93.6 L300.1 77.55 300.1 75.55 332.65 91.8 365.1 75.55"/>
    <path stroke="none" fill="#B08052" d="M300.1 75.55 L332.65 38.85 332.65 91.8 300.1 75.55"/>
    <path stroke="none" fill="#C58F5C" d="M332.65 91.8 L332.65 38.85 365.1 75.55 332.65 91.8"/>
    <path stroke="none" fill="#EEE7CD" d="M407.65 1.8 L440.1 43.05 440.1 75.55 407.65 1.8"/>
    <path stroke="none" fill="#F5EFDA" d="M440.1 75.55 L440.1 77.55 Q423.7 85.6 407.25 93.6 L375.1 77.55 375.1 75.55 407.65 91.8 440.1 75.55"/>
    <path stroke="none" fill="#E7DFC2" d="M440.1 75.55 L407.65 91.8 407.65 1.8 440.1 75.55"/>
    <path stroke="none" fill="#CFC8AE" d="M407.65 91.8 L375.1 75.55 407.65 1.8 407.65 91.8"/>
    <path stroke="none" fill="#C2BCA5" d="M375.1 75.55 L375.1 43.05 407.65 1.8 375.1 75.55"/>
    <path stroke="none" fill="#CFC8AE" d="M551.2 18.15 Q554.75 11.55 557.6 3.6 L557.6 4.6 557.6 93.6 525.05 77.35 551.2 18.15"/>
    <path stroke="none" fill="#EEE7CD" d="M557.6 3.6 Q565 24.4 577.6 36.1 583.35 41.4 590.15 44.85 L590.05 44.85 590.05 77.35 557.6 4.6 557.6 3.6"/>
    <path stroke="none" fill="#C2BCA5" d="M525.05 77.35 L525.05 44.85 Q531.85 41.4 537.6 36.1 545.35 28.85 551.2 18.15 L525.05 77.35"/>
    <path stroke="none" fill="#F5EFDA" d="M525.05 77.35 L557.6 93.6 Q573.85 85.5 590.05 77.35 L590.05 79.35 557.2 95.4 525.05 79.35 525.05 77.35"/>
    <path stroke="none" fill="#E7DFC2" d="M557.6 93.6 L557.6 4.6 590.05 77.35 Q573.85 85.5 557.6 93.6"/>
    <path stroke="none" fill="#EEE7CD" d="M482.6 28.6 L515.05 44.85 515.05 77.35 482.6 28.6"/>
    <path stroke="none" fill="#F5EFDA" d="M515.05 77.35 L515.05 79.35 482.2 95.4 450.05 79.35 450.05 77.35 482.6 93.6 515.05 77.35"/>
    <path stroke="none" fill="#E7DFC2" d="M515.05 77.35 L482.6 93.6 482.6 28.6 515.05 77.35"/>
    <path stroke="none" fill="#CFC8AE" d="M482.6 93.6 L450.05 77.35 482.6 28.6 482.6 93.6"/>
    <path stroke="none" fill="#C2BCA5" d="M450.05 77.35 L450.05 44.85 Q466.35 36.75 482.6 28.6 L450.05 77.35"/>
    <path stroke="none" fill="#C2BCA5" d="M600.15 77.35 L600.15 44.85 632.7 8.15 632.7 40.65 600.15 77.35"/>
    <path stroke="none" fill="#EEE7CD" d="M632.7 8.15 L665.15 44.85 665.15 77.35 632.7 40.65 632.7 8.15"/>
    <path stroke="none" fill="#F5EFDA" d="M665.15 77.35 L665.15 79.35 632.3 95.4 600.15 79.35 600.15 77.35 632.7 93.6 665.15 77.35"/>
    <path stroke="none" fill="#E7DFC2" d="M665.15 77.35 L632.7 93.6 632.7 40.65 665.15 77.35"/>
    <path stroke="none" fill="#CFC8AE" d="M632.7 93.6 L600.15 77.35 632.7 40.65 632.7 93.6"/>
    <path stroke="none" fill="#C2BCA5" d="M675.15 77.35 L675.15 44.85 707.7 28.15 707.7 40.65 675.15 77.35"/>
    <path stroke="none" fill="#EEE7CD" d="M707.7 28.15 L740.15 44.85 740.15 77.35 707.7 40.65 707.7 28.15"/>
    <path stroke="none" fill="#F5EFDA" d="M740.15 77.35 L740.15 79.35 707.3 95.4 675.15 79.35 675.15 77.35 707.7 93.6 740.15 77.35"/>
    <path stroke="none" fill="#E7DFC2" d="M740.15 77.35 L707.7 93.6 707.7 40.65 740.15 77.35"/>
    <path stroke="none" fill="#CFC8AE" d="M707.7 93.6 L675.15 77.35 707.7 40.65 707.7 93.6"/>
    <path stroke="none" fill="#C2D0D1" d="M482.6 128.6 L515.05 144.85 515.05 177.35 482.6 128.6"/>
    <path stroke="none" fill="#CFDADB" d="M515.05 177.35 L515.05 179.35 482.2 195.4 450.05 179.35 450.05 177.35 482.6 193.6 515.05 177.35"/>
    <path stroke="none" fill="#BBCBCC" d="M515.05 177.35 L482.6 193.6 482.6 128.6 515.05 177.35"/>
    <path stroke="none" fill="#A8B6B7" d="M482.6 193.6 L450.05 177.35 482.6 128.6 482.6 193.6"/>
    <path stroke="none" fill="#9FAAAA" d="M450.05 177.35 L450.05 144.85 Q466.35 136.75 482.6 128.6 L450.05 177.35"/>
    <path stroke="none" fill="#9FAAAA" d="M525.05 177.35 L525.05 144.85 Q531.85 141.4 537.6 136.1 545.35 128.85 551.2 118.15 L525.05 177.35"/>
    <path stroke="none" fill="#A8B6B7" d="M525.05 177.35 L551.2 118.15 Q554.75 111.55 557.6 103.6 L557.6 104.6 557.6 193.6 525.05 177.35"/>
    <path stroke="none" fill="#C2D0D1" d="M557.6 103.6 Q565 124.4 577.6 136.1 583.35 141.4 590.15 144.85 L590.05 144.85 590.05 177.35 557.6 104.6 557.6 103.6"/>
    <path stroke="none" fill="#CFDADB" d="M590.05 177.35 L590.05 179.35 557.2 195.4 525.05 179.35 525.05 177.35 557.6 193.6 Q573.85 185.5 590.05 177.35"/>
    <path stroke="none" fill="#BBCBCC" d="M590.05 177.35 Q573.85 185.5 557.6 193.6 L557.6 104.6 590.05 177.35"/>
    <path stroke="none" fill="#9FAAAA" d="M600.15 177.35 L600.15 144.85 632.7 108.15 632.7 140.65 600.15 177.35"/>
    <path stroke="none" fill="#C2D0D1" d="M632.7 108.15 L665.15 144.85 665.15 177.35 632.7 140.65 632.7 108.15"/>
    <path stroke="none" fill="#CFDADB" d="M665.15 177.35 L665.15 179.35 632.3 195.4 600.15 179.35 600.15 177.35 632.7 193.6 665.15 177.35"/>
    <path stroke="none" fill="#BBCBCC" d="M665.15 177.35 L632.7 193.6 632.7 140.65 665.15 177.35"/>
    <path stroke="none" fill="#A8B6B7" d="M632.7 193.6 L600.15 177.35 632.7 140.65 632.7 193.6"/>
    <path stroke="none" fill="#9FAAAA" d="M675.15 177.35 L675.15 144.85 707.7 128.15 707.7 140.65 675.15 177.35"/>
    <path stroke="none" fill="#C2D0D1" d="M707.7 128.15 L740.15 144.85 740.15 177.35 707.7 140.65 707.7 128.15"/>
    <path stroke="none" fill="#BBCBCC" d="M707.7 140.65 L740.15 177.35 707.7 193.6 707.7 140.65"/>
    <path stroke="none" fill="#CFDADB" d="M740.15 177.35 L740.15 179.35 707.3 195.4 675.15 179.35 675.15 177.35 707.7 193.6 740.15 177.35"/>
    <path stroke="none" fill="#A8B6B7" d="M707.7 193.6 L675.15 177.35 707.7 140.65 707.7 193.6"/>
    <path stroke="none" fill="#C2D0D1" d="M407.65 101.8 L440.1 143.05 440.1 175.55 407.65 101.8"/>
    <path stroke="none" fill="#9FAAAA" d="M407.65 101.8 L375.1 175.55 375.1 143.05 407.65 101.8"/>
    <path stroke="none" fill="#CFDADB" d="M440.1 175.55 L440.1 177.55 Q423.7 185.6 407.25 193.6 L375.1 177.55 375.1 175.55 407.65 191.8 440.1 175.55"/>
    <path stroke="none" fill="#BBCBCC" d="M440.1 175.55 L407.65 191.8 407.65 101.8 440.1 175.55"/>
    <path stroke="none" fill="#A8B6B7" d="M407.65 191.8 L375.1 175.55 407.65 101.8 407.65 191.8"/>
    <path stroke="none" fill="#929F9F" d="M750 250.55 L750 218.05 782.55 201.8 815 218.05 815 250.55 782.55 266.8 750 250.55"/>
    <path stroke="none" fill="#869595" d="M815 252.55 L815 274.55 782.55 290.8 750 274.55 750 252.55 782.15 268.6 815 252.55"/>
    <path stroke="none" fill="#AAB5B5" d="M815 252.55 L782.15 268.6 750 252.55 750 250.55 782.55 266.8 815 250.55 815 252.55"/>
    <path stroke="none" fill="#5F6D6D" d="M762 275.8 L762 266.35 Q762 264.75 763.15 264.05 L766.05 264.25 Q767.7 264.95 768.85 266.7 770 268.45 770 270.1 L770 279.8 762 275.8"/>
    <path stroke="none" fill="#FFFFFF" fill-opacity="0.2" d="M762 275.8 L770 279.8 770 281.8 762 277.8 762 275.8"/>
    <path stroke="none" fill="#000000" fill-opacity="0.10196078431372549" d="M782.55 268.8 L782.55 290.8 750 274.55 750 252.55 782.55 268.8"/>
    <path stroke="none" fill="#5F6D6D" d="M800.1 264.25 L803 264.05 Q804.15 264.75 804.15 266.35 L804.15 280 796.15 284 796.15 282.1 796.15 281.8 796.15 270.1 Q796.15 268.45 797.3 266.7 798.45 264.95 800.1 264.25"/>
    <path stroke="none" fill="#AAB5B5" d="M890 250.55 L890 252.55 857.85 268.6 825 252.55 825 250.55 857.45 266.8 890 250.55"/>
    <path stroke="none" fill="#929F9F" d="M890 250.55 L857.45 266.8 825 250.55 825 218.05 857.45 201.8 890 218.05 890 250.55"/>
    <path stroke="none" fill="#869595" d="M825 252.55 L857.85 268.6 890 252.55 890 274.55 857.45 290.8 825 274.55 825 252.55"/>
    <path stroke="none" fill="#5F6D6D" d="M839.9 264.25 Q841.55 264.95 842.7 266.7 843.85 268.45 843.85 270.1 L843.85 281.8 843.85 282.1 843.85 284 835.85 280 835.85 266.35 Q835.85 264.75 837 264.05 L839.9 264.25"/>
    <path stroke="none" fill="#000000" fill-opacity="0.10196078431372549" d="M857.55 268.8 L857.55 290.8 825 274.55 825 252.55 857.55 268.8"/>
    <path stroke="none" fill="#5F6D6D" d="M870.9 279.8 L870.9 270.1 Q870.9 268.45 872.05 266.7 873.2 264.95 874.85 264.25 L877.75 264.05 Q878.9 264.75 878.9 266.35 L878.9 275.8 870.9 279.8"/>
    <path stroke="none" fill="#FFFFFF" fill-opacity="0.2" d="M870.9 279.8 L878.9 275.8 878.9 277.8 870.9 281.8 870.9 279.8"/>
    <path stroke="none" fill="#AAB5B5" d="M965 250.55 L965 252.55 932.15 268.6 900 252.55 900 250.55 932.55 266.8 Q948.8 258.7 965 250.55"/>
    <path stroke="none" fill="#929F9F" d="M965 250.55 Q948.8 258.7 932.55 266.8 L900 250.55 900 218.05 932.55 201.8 965 218.05 965 250.55"/>
    <path stroke="none" fill="#869595" d="M965 252.55 L965 274.55 Q948.8 282.7 932.55 290.8 L900 274.55 900 252.55 932.15 268.6 965 252.55"/>
    <path stroke="none" fill="#C58F5C" d="M920 270.1 Q920.1 268.7 921.15 268.05 L924 268.25 924 281.8 920 279.8 920 270.1 M908 273.8 L908 260.25 908.05 260.25 Q909.7 260.95 910.85 262.7 912 264.45 912 266.1 L912 275.8 908 273.8"/>
    <path stroke="none" fill="#5F6D6D" d="M912 266.1 Q912.1 264.7 913.15 264.05 L916.05 264.25 Q917.7 264.95 918.85 266.7 920 268.45 920 270.1 L920 279.8 912 275.8 912 266.1"/>
    <path stroke="none" fill="#000000" fill-opacity="0.10196078431372549" d="M924 281.8 L924 283.8 920 281.8 920 279.8 924 281.8 M912 277.8 L908 275.8 908 273.8 912 275.8 912 277.8"/>
    <path stroke="none" fill="#FFFFFF" fill-opacity="0.2" d="M912 277.8 L912 275.8 920 279.8 920 281.8 912 277.8"/>
    <path stroke="none" fill="#000000" fill-opacity="0.10196078431372549" d="M932.55 268.8 L932.55 290.8 900 274.55 900 252.55 932.55 268.8"/>
    <path stroke="none" fill="#5F6D6D" d="M950.1 264.25 L953 264.05 Q954.15 264.75 954.15 266.35 L954.15 280 946.15 284 946.15 282.1 946.15 281.8 946.15 270.1 Q946.15 268.45 947.3 266.7 948.45 264.95 950.1 264.25"/>
    <path stroke="none" fill="#AAB5B5" d="M1040 250.55 L1040 252.55 1007.85 268.6 975 252.55 975 250.55 1007.45 266.8 1040 250.55"/>
    <path stroke="none" fill="#929F9F" d="M1040 250.55 L1007.45 266.8 975 250.55 975 218.05 1007.45 201.8 1040 218.05 1040 250.55"/>
    <path stroke="none" fill="#869595" d="M975 252.55 L1007.85 268.6 1040 252.55 1040 274.55 1007.45 290.8 975 274.55 975 252.55"/>
    <path stroke="none" fill="#5F6D6D" d="M993.85 270.1 L993.85 281.8 993.85 282.1 993.85 284 985.85 280 985.85 266.35 Q985.85 264.75 987 264.05 L989.9 264.25 Q991.55 264.95 992.7 266.7 993.85 268.45 993.85 270.1"/>
    <path stroke="none" fill="#000000" fill-opacity="0.10196078431372549" d="M1007.55 268.8 L1007.55 290.8 975 274.55 975 252.55 1007.55 268.8"/>
    <path stroke="none" fill="#5F6D6D" d="M1021 270.1 Q1021 268.45 1022.15 266.7 1023.3 264.95 1024.95 264.25 L1027.85 264.05 Q1028.9 264.7 1029 266.1 L1029 275.8 1021 279.8 1021 270.1"/>
    <path stroke="none" fill="#C58F5C" d="M1021 270.1 L1021 279.8 1017 281.8 1017 268.25 1019.85 268.05 Q1020.9 268.7 1021 270.1 M1029 266.1 Q1029 264.45 1030.15 262.7 1031.3 260.95 1032.95 260.25 L1033 260.25 1033 273.8 1029 275.8 1029 266.1"/>
    <path stroke="none" fill="#FFFFFF" fill-opacity="0.2" d="M1029 277.8 L1021 281.8 1021 279.8 1029 275.8 1029 277.8"/>
    <path stroke="none" fill="#000000" fill-opacity="0.10196078431372549" d="M1029 277.8 L1029 275.8 1033 273.8 1033 275.8 1029 277.8 M1021 281.8 L1017 283.8 1017 281.8 1021 279.8 1021 281.8"/>
    <path stroke="none" fill="#F5EFDA" d="M815.05 547.55 L815.05 549.55 782.2 565.6 750.05 549.55 750.05 547.55 782.6 563.8 815.05 547.55"/>
    <path stroke="none" fill="#EEE7CD" d="M815.05 547.55 L782.6 563.8 750.05 547.55 750.05 515.05 782.6 498.8 815.05 515.05 815.05 547.55"/>
    <path stroke="none" fill="#E7DFC2" d="M815.05 549.55 L815.05 571.55 782.6 587.8 750.05 571.55 750.05 549.55 782.2 565.6 815.05 549.55"/>
    <path stroke="none" fill="#5F6D6D" d="M762.05 572.8 L762.05 563.35 Q762.05 561.75 763.2 561.05 L766.1 561.25 Q767.75 561.95 768.9 563.7 770.05 565.45 770.05 567.1 L770.05 576.8 762.05 572.8"/>
    <path stroke="none" fill="#FFFFFF" fill-opacity="0.2" d="M762.05 572.8 L770.05 576.8 770.05 578.8 762.05 574.8 762.05 572.8"/>
    <path stroke="none" fill="#5F6D6D" d="M800.15 561.25 L803.05 561.05 Q804.2 561.75 804.2 563.35 L804.2 577 796.2 581 796.2 579.1 796.2 578.8 796.2 567.1 Q796.2 565.45 797.35 563.7 798.5 561.95 800.15 561.25"/>
    <path stroke="none" fill="#000000" fill-opacity="0.10196078431372549" d="M782.6 565.8 L782.6 587.8 750.05 571.55 750.05 549.55 782.6 565.8"/>
    <path stroke="none" fill="#C2D0D1" d="M750 349.55 L750 317.05 782.55 300.8 815 317.05 815 349.55 782.55 365.8 750 349.55"/>
    <path stroke="none" fill="#CFDADB" d="M750 349.55 L782.55 365.8 815 349.55 815 351.55 782.15 367.6 750 351.55 750 349.55"/>
    <path stroke="none" fill="#BBCBCC" d="M815 351.55 L815 373.55 782.55 389.8 750 373.55 750 351.55 782.15 367.6 815 351.55"/>
    <path stroke="none" fill="#5F6D6D" d="M762 374.8 L762 365.35 Q762 363.75 763.15 363.05 L766.05 363.25 Q767.7 363.95 768.85 365.7 770 367.45 770 369.1 L770 378.8 762 374.8"/>
    <path stroke="none" fill="#FFFFFF" fill-opacity="0.2" d="M762 374.8 L770 378.8 770 380.8 762 376.8 762 374.8"/>
    <path stroke="none" fill="#5F6D6D" d="M800.1 363.25 L803 363.05 Q804.15 363.75 804.15 365.35 L804.15 379 796.15 383 796.15 381.1 796.15 380.8 796.15 369.1 Q796.15 367.45 797.3 365.7 798.45 363.95 800.1 363.25"/>
    <path stroke="none" fill="#000000" fill-opacity="0.10196078431372549" d="M782.55 367.8 L782.55 389.8 750 373.55 750 351.55 782.55 367.8"/>
    <path stroke="none" fill="#D6B08D" d="M815 448.55 L815 450.55 782.15 466.6 750 450.55 750 448.55 782.55 464.8 815 448.55"/>
    <path stroke="none" fill="#CA9A6C" d="M815 448.55 L782.55 464.8 750 448.55 750 416.05 782.55 399.8 815 416.05 815 448.55"/>
    <path stroke="none" fill="#C58F5C" d="M815 450.55 L815 472.55 782.55 488.8 750 472.55 750 450.55 782.15 466.6 815 450.55"/>
    <path stroke="none" fill="#5F6D6D" d="M762 473.8 L762 464.35 Q762 462.75 763.15 462.05 L766.05 462.25 Q767.7 462.95 768.85 464.7 770 466.45 770 468.1 L770 477.8 762 473.8"/>
    <path stroke="none" fill="#FFFFFF" fill-opacity="0.2" d="M762 473.8 L770 477.8 770 479.8 762 475.8 762 473.8"/>
    <path stroke="none" fill="#5F6D6D" d="M800.1 462.25 L803 462.05 Q804.15 462.75 804.15 464.35 L804.15 478 796.15 482 796.15 480.1 796.15 479.8 796.15 468.1 Q796.15 466.45 797.3 464.7 798.45 462.95 800.1 462.25"/>
    <path stroke="none" fill="#000000" fill-opacity="0.10196078431372549" d="M782.55 466.8 L782.55 488.8 750 472.55 750 450.55 782.55 466.8"/>
    <path stroke="none" fill="#EEE7CD" d="M825.05 547.55 L825.05 515.05 857.6 498.8 890.05 515.05 890.05 547.55 857.6 563.8 825.05 547.55"/>
    <path stroke="none" fill="#E7DFC2" d="M890.05 549.55 L890.05 571.55 857.6 587.8 825.05 571.55 825.05 549.55 857.2 565.6 890.05 549.55"/>
    <path stroke="none" fill="#F5EFDA" d="M890.05 549.55 L857.2 565.6 825.05 549.55 825.05 547.55 857.6 563.8 890.05 547.55 890.05 549.55"/>
    <path stroke="none" fill="#5F6D6D" d="M839.95 561.25 Q841.6 561.95 842.75 563.7 843.9 565.45 843.9 567.1 L843.9 578.8 843.9 579.1 843.9 581 835.9 577 835.9 563.35 Q835.9 561.75 837.05 561.05 L839.95 561.25"/>
    <path stroke="none" fill="#5F6D6D" d="M870.95 576.8 L870.95 567.1 Q870.95 565.45 872.1 563.7 873.25 561.95 874.9 561.25 L877.8 561.05 Q878.95 561.75 878.95 563.35 L878.95 572.8 870.95 576.8"/>
    <path stroke="none" fill="#FFFFFF" fill-opacity="0.2" d="M870.95 576.8 L878.95 572.8 878.95 574.8 870.95 578.8 870.95 576.8"/>
    <path stroke="none" fill="#000000" fill-opacity="0.10196078431372549" d="M857.6 565.8 L857.6 587.8 825.05 571.55 825.05 549.55 857.6 565.8"/>
    <path stroke="none" fill="#C2D0D1" d="M825 349.55 L825 317.05 857.55 300.8 890 317.05 890 349.55 857.55 365.8 825 349.55"/>
    <path stroke="none" fill="#CFDADB" d="M825 349.55 L857.55 365.8 890 349.55 890 351.55 857.15 367.6 825 351.55 825 349.55"/>
    <path stroke="none" fill="#BBCBCC" d="M890 351.55 L890 373.55 857.55 389.8 825 373.55 825 351.55 857.15 367.6 890 351.55"/>
    <path stroke="none" fill="#5F6D6D" d="M839.9 363.25 Q841.55 363.95 842.7 365.7 843.85 367.45 843.85 369.1 L843.85 380.8 843.85 381.1 843.85 383 835.85 379 835.85 365.35 Q835.85 363.75 837 363.05 L839.9 363.25"/>
    <path stroke="none" fill="#5F6D6D" d="M870.9 378.8 L870.9 369.1 Q870.9 367.45 872.05 365.7 873.2 363.95 874.85 363.25 L877.75 363.05 Q878.9 363.75 878.9 365.35 L878.9 374.8 870.9 378.8"/>
    <path stroke="none" fill="#FFFFFF" fill-opacity="0.2" d="M870.9 378.8 L878.9 374.8 878.9 376.8 870.9 380.8 870.9 378.8"/>
    <path stroke="none" fill="#000000" fill-opacity="0.10196078431372549" d="M857.55 367.8 L857.55 389.8 825 373.55 825 351.55 857.55 367.8"/>
    <path stroke="none" fill="#D6B08D" d="M890 448.55 L890 450.55 857.15 466.6 825 450.55 825 448.55 857.55 464.8 890 448.55"/>
    <path stroke="none" fill="#CA9A6C" d="M890 448.55 L857.55 464.8 825 448.55 825 416.05 857.55 399.8 890 416.05 890 448.55"/>
    <path stroke="none" fill="#C58F5C" d="M890 450.55 L890 472.55 857.55 488.8 825 472.55 825 450.55 857.15 466.6 890 450.55"/>
    <path stroke="none" fill="#5F6D6D" d="M839.9 462.25 Q841.55 462.95 842.7 464.7 843.85 466.45 843.85 468.1 L843.85 479.8 843.85 480.1 843.85 482 835.85 478 835.85 464.35 Q835.85 462.75 837 462.05 L839.9 462.25"/>
    <path stroke="none" fill="#5F6D6D" d="M870.9 477.8 L870.9 468.1 Q870.9 466.45 872.05 464.7 873.2 462.95 874.85 462.25 L877.75 462.05 Q878.9 462.75 878.9 464.35 L878.9 473.8 870.9 477.8"/>
    <path stroke="none" fill="#FFFFFF" fill-opacity="0.2" d="M870.9 477.8 L878.9 473.8 878.9 475.8 870.9 479.8 870.9 477.8"/>
    <path stroke="none" fill="#000000" fill-opacity="0.10196078431372549" d="M857.55 466.8 L857.55 488.8 825 472.55 825 450.55 857.55 466.8"/>
    <path stroke="none" fill="#F5EFDA" d="M900.05 549.55 L900.05 547.55 932.6 563.8 965.05 547.55 965.05 549.55 932.2 565.6 900.05 549.55"/>
    <path stroke="none" fill="#E7DFC2" d="M900.05 549.55 L932.2 565.6 965.05 549.55 965.05 571.55 932.6 587.8 900.05 571.55 900.05 549.55"/>
    <path stroke="none" fill="#EEE7CD" d="M900.05 547.55 L900.05 515.05 932.6 498.8 965.05 515.05 965.05 547.55 932.6 563.8 900.05 547.55"/>
    <path stroke="none" fill="#C58F5C" d="M920.05 567.1 Q920.15 565.7 921.2 565.05 L924.05 565.25 924.05 578.8 920.05 576.8 920.05 567.1 M908.05 570.8 L908.05 557.25 908.1 557.25 Q909.75 557.95 910.9 559.7 912.05 561.45 912.05 563.1 L912.05 572.8 908.05 570.8"/>
    <path stroke="none" fill="#5F6D6D" d="M912.05 563.1 Q912.15 561.7 913.2 561.05 L916.1 561.25 Q917.75 561.95 918.9 563.7 920.05 565.45 920.05 567.1 L920.05 576.8 912.05 572.8 912.05 563.1"/>
    <path stroke="none" fill="#000000" fill-opacity="0.10196078431372549" d="M924.05 578.8 L924.05 580.8 920.05 578.8 920.05 576.8 924.05 578.8 M912.05 574.8 L908.05 572.8 908.05 570.8 912.05 572.8 912.05 574.8"/>
    <path stroke="none" fill="#FFFFFF" fill-opacity="0.2" d="M912.05 574.8 L912.05 572.8 920.05 576.8 920.05 578.8 912.05 574.8"/>
    <path stroke="none" fill="#5F6D6D" d="M950.15 561.25 L953.05 561.05 Q954.2 561.75 954.2 563.35 L954.2 577 946.2 581 946.2 579.1 946.2 578.8 946.2 567.1 Q946.2 565.45 947.35 563.7 948.5 561.95 950.15 561.25"/>
    <path stroke="none" fill="#000000" fill-opacity="0.10196078431372549" d="M932.6 565.8 L932.6 587.8 900.05 571.55 900.05 549.55 932.6 565.8"/>
    <path stroke="none" fill="#CFDADB" d="M965 349.55 L965 351.55 932.15 367.6 900 351.55 900 349.55 932.55 365.8 Q948.8 357.7 965 349.55"/>
    <path stroke="none" fill="#C2D0D1" d="M965 349.55 Q948.8 357.7 932.55 365.8 L900 349.55 900 317.05 932.55 300.8 965 317.05 965 349.55"/>
    <path stroke="none" fill="#BBCBCC" d="M965 351.55 L965 373.55 Q948.8 381.7 932.55 389.8 L900 373.55 900 351.55 932.15 367.6 965 351.55"/>
    <path stroke="none" fill="#5F6D6D" d="M912 365.1 Q912.1 363.7 913.15 363.05 L916.05 363.25 Q917.7 363.95 918.85 365.7 920 367.45 920 369.1 L920 378.8 912 374.8 912 365.1"/>
    <path stroke="none" fill="#C58F5C" d="M912 365.1 L912 374.8 908 372.8 908 359.25 908.05 359.25 Q909.7 359.95 910.85 361.7 912 363.45 912 365.1 M920 369.1 Q920.1 367.7 921.15 367.05 L924 367.25 924 380.8 920 378.8 920 369.1"/>
    <path stroke="none" fill="#000000" fill-opacity="0.10196078431372549" d="M924 380.8 L924 382.8 920 380.8 920 378.8 924 380.8 M912 376.8 L908 374.8 908 372.8 912 374.8 912 376.8"/>
    <path stroke="none" fill="#FFFFFF" fill-opacity="0.2" d="M912 376.8 L912 374.8 920 378.8 920 380.8 912 376.8"/>
    <path stroke="none" fill="#5F6D6D" d="M950.1 363.25 L953 363.05 Q954.15 363.75 954.15 365.35 L954.15 379 946.15 383 946.15 381.1 946.15 380.8 946.15 369.1 Q946.15 367.45 947.3 365.7 948.45 363.95 950.1 363.25"/>
    <path stroke="none" fill="#000000" fill-opacity="0.10196078431372549" d="M932.55 367.8 L932.55 389.8 900 373.55 900 351.55 932.55 367.8"/>
    <path stroke="none" fill="#D6B08D" d="M900 450.55 L900 448.55 932.55 464.8 Q948.8 456.7 965 448.55 L965 450.55 932.15 466.6 900 450.55"/>
    <path stroke="none" fill="#C58F5C" d="M900 450.55 L932.15 466.6 965 450.55 965 472.55 Q948.8 480.7 932.55 488.8 L900 472.55 900 450.55"/>
    <path stroke="none" fill="#CA9A6C" d="M900 448.55 L900 416.05 932.55 399.8 965 416.05 965 448.55 Q948.8 456.7 932.55 464.8 L900 448.55"/>
    <path stroke="none" fill="#C58F5C" d="M920 468.1 Q920.1 466.7 921.15 466.05 L924 466.25 924 479.8 920 477.8 920 468.1 M908 471.8 L908 458.25 908.05 458.25 Q909.7 458.95 910.85 460.7 912 462.45 912 464.1 L912 473.8 908 471.8"/>
    <path stroke="none" fill="#5F6D6D" d="M912 464.1 Q912.1 462.7 913.15 462.05 L916.05 462.25 Q917.7 462.95 918.85 464.7 920 466.45 920 468.1 L920 477.8 912 473.8 912 464.1"/>
    <path stroke="none" fill="#000000" fill-opacity="0.10196078431372549" d="M924 479.8 L924 481.8 920 479.8 920 477.8 924 479.8 M912 475.8 L908 473.8 908 471.8 912 473.8 912 475.8"/>
    <path stroke="none" fill="#FFFFFF" fill-opacity="0.2" d="M912 475.8 L912 473.8 920 477.8 920 479.8 912 475.8"/>
    <path stroke="none" fill="#5F6D6D" d="M950.1 462.25 L953 462.05 Q954.15 462.75 954.15 464.35 L954.15 478 946.15 482 946.15 480.1 946.15 479.8 946.15 468.1 Q946.15 466.45 947.3 464.7 948.45 462.95 950.1 462.25"/>
    <path stroke="none" fill="#000000" fill-opacity="0.10196078431372549" d="M932.55 466.8 L932.55 488.8 900 472.55 900 450.55 932.55 466.8"/>
    <path stroke="none" fill="#F5EFDA" d="M975.05 549.55 L975.05 547.55 1007.6 563.8 1040.05 547.55 1040.05 549.55 1007.2 565.6 975.05 549.55"/>
    <path stroke="none" fill="#E7DFC2" d="M975.05 549.55 L1007.2 565.6 1040.05 549.55 1040.05 571.55 1007.6 587.8 975.05 571.55 975.05 549.55"/>
    <path stroke="none" fill="#EEE7CD" d="M975.05 547.55 L975.05 515.05 1007.6 498.8 1040.05 515.05 1040.05 547.55 1007.6 563.8 975.05 547.55"/>
    <path stroke="none" fill="#5F6D6D" d="M993.9 567.1 L993.9 578.8 993.9 579.1 993.9 581 985.9 577 985.9 563.35 Q985.9 561.75 987.05 561.05 L989.95 561.25 Q991.6 561.95 992.75 563.7 993.9 565.45 993.9 567.1"/>
    <path stroke="none" fill="#C58F5C" d="M1029.05 563.1 Q1029.05 561.45 1030.2 559.7 1031.35 557.95 1033 557.25 L1033.05 557.25 1033.05 570.8 1029.05 572.8 1029.05 563.1 M1017.05 578.8 L1017.05 565.25 1019.9 565.05 Q1020.95 565.7 1021.05 567.1 L1021.05 576.8 1017.05 578.8"/>
    <path stroke="none" fill="#5F6D6D" d="M1021.05 567.1 Q1021.05 565.45 1022.2 563.7 1023.35 561.95 1025 561.25 L1027.9 561.05 Q1028.95 561.7 1029.05 563.1 L1029.05 572.8 1021.05 576.8 1021.05 567.1"/>
    <path stroke="none" fill="#000000" fill-opacity="0.10196078431372549" d="M1033.05 570.8 L1033.05 572.8 1029.05 574.8 1029.05 572.8 1033.05 570.8 M1021.05 578.8 L1017.05 580.8 1017.05 578.8 1021.05 576.8 1021.05 578.8"/>
    <path stroke="none" fill="#FFFFFF" fill-opacity="0.2" d="M1021.05 578.8 L1021.05 576.8 1029.05 572.8 1029.05 574.8 1021.05 578.8"/>
    <path stroke="none" fill="#000000" fill-opacity="0.10196078431372549" d="M1007.6 565.8 L1007.6 587.8 975.05 571.55 975.05 549.55 1007.6 565.8"/>
    <path stroke="none" fill="#CFDADB" d="M975 351.55 L975 349.55 1007.55 365.8 1040 349.55 1040 351.55 1007.15 367.6 975 351.55"/>
    <path stroke="none" fill="#C2D0D1" d="M975 349.55 L975 317.05 1007.55 300.8 1040 317.05 1040 349.55 1007.55 365.8 975 349.55"/>
    <path stroke="none" fill="#BBCBCC" d="M1040 351.55 L1040 373.55 1007.55 389.8 975 373.55 975 351.55 1007.15 367.6 1040 351.55"/>
    <path stroke="none" fill="#5F6D6D" d="M993.85 369.1 L993.85 380.8 993.85 381.1 993.85 383 985.85 379 985.85 365.35 Q985.85 363.75 987 363.05 L989.9 363.25 Q991.55 363.95 992.7 365.7 993.85 367.45 993.85 369.1"/>
    <path stroke="none" fill="#C58F5C" d="M1029 365.1 Q1029 363.45 1030.15 361.7 1031.3 359.95 1032.95 359.25 L1033 359.25 1033 372.8 1029 374.8 1029 365.1 M1017 380.8 L1017 367.25 1019.85 367.05 Q1020.9 367.7 1021 369.1 L1021 378.8 1017 380.8"/>
    <path stroke="none" fill="#5F6D6D" d="M1021 369.1 Q1021 367.45 1022.15 365.7 1023.3 363.95 1024.95 363.25 L1027.85 363.05 Q1028.9 363.7 1029 365.1 L1029 374.8 1021 378.8 1021 369.1"/>
    <path stroke="none" fill="#000000" fill-opacity="0.10196078431372549" d="M1033 372.8 L1033 374.8 1029 376.8 1029 374.8 1033 372.8 M1021 380.8 L1017 382.8 1017 380.8 1021 378.8 1021 380.8"/>
    <path stroke="none" fill="#FFFFFF" fill-opacity="0.2" d="M1021 380.8 L1021 378.8 1029 374.8 1029 376.8 1021 380.8"/>
    <path stroke="none" fill="#000000" fill-opacity="0.10196078431372549" d="M1007.55 367.8 L1007.55 389.8 975 373.55 975 351.55 1007.55 367.8"/>
    <path stroke="none" fill="#D6B08D" d="M1040 448.55 L1040 450.55 1007.15 466.6 975 450.55 975 448.55 1007.55 464.8 1040 448.55"/>
    <path stroke="none" fill="#CA9A6C" d="M1040 448.55 L1007.55 464.8 975 448.55 975 416.05 1007.55 399.8 1040 416.05 1040 448.55"/>
    <path stroke="none" fill="#C58F5C" d="M1040 450.55 L1040 472.55 1007.55 488.8 975 472.55 975 450.55 1007.15 466.6 1040 450.55"/>
    <path stroke="none" fill="#5F6D6D" d="M993.85 468.1 L993.85 479.8 993.85 480.1 993.85 482 985.85 478 985.85 464.35 Q985.85 462.75 987 462.05 L989.9 462.25 Q991.55 462.95 992.7 464.7 993.85 466.45 993.85 468.1"/>
    <path stroke="none" fill="#5F6D6D" d="M1021 468.1 Q1021 466.45 1022.15 464.7 1023.3 462.95 1024.95 462.25 L1027.85 462.05 Q1028.9 462.7 1029 464.1 L1029 473.8 1021 477.8 1021 468.1"/>
    <path stroke="none" fill="#C58F5C" d="M1021 468.1 L1021 477.8 1017 479.8 1017 466.25 1019.85 466.05 Q1020.9 466.7 1021 468.1 M1029 464.1 Q1029 462.45 1030.15 460.7 1031.3 458.95 1032.95 458.25 L1033 458.25 1033 471.8 1029 473.8 1029 464.1"/>
    <path stroke="none" fill="#FFFFFF" fill-opacity="0.2" d="M1029 475.8 L1021 479.8 1021 477.8 1029 473.8 1029 475.8"/>
    <path stroke="none" fill="#000000" fill-opacity="0.10196078431372549" d="M1029 475.8 L1029 473.8 1033 471.8 1033 473.8 1029 475.8 M1021 479.8 L1017 481.8 1017 479.8 1021 477.8 1021 479.8"/>
    <path stroke="none" fill="#000000" fill-opacity="0.10196078431372549" d="M1007.55 466.8 L1007.55 488.8 975 472.55 975 450.55 1007.55 466.8"/>
    <path stroke="none" fill="#A7B3B3" d="M757.5 139.2 L757.5 137.2 782.55 124.7 807.5 137.2 807.5 139.2 782.55 126.7 757.5 139.2 M815 165.05 L815 167.05 782.15 183.1 750 167.05 750 165.05 782.55 181.3 815 165.05"/>
    <path stroke="none" fill="#929F9F" d="M815 165.05 L782.55 181.3 750 165.05 750 132.55 782.55 116.3 815 132.55 815 165.05 M807.5 145.7 L807.5 139.2 807.5 137.2 782.55 124.7 757.5 137.2 757.5 139.2 757.5 145.7 757.5 160.45 782.55 172.95 807.5 160.45 807.5 145.7"/>
    <path stroke="none" fill="#788585" d="M807.5 145.7 L782.55 133.2 782.55 126.7 807.5 139.2 807.5 145.7"/>
    <path stroke="none" fill="#869595" d="M757.5 145.7 L757.5 139.2 782.55 126.7 782.55 133.2 757.5 145.7 M815 167.05 L815 175.55 782.55 191.8 750 175.55 750 167.05 782.15 183.1 815 167.05"/>
    <path stroke="none" fill="#000000" fill-opacity="0.10196078431372549" d="M782.55 182.9 L782.55 191.8 750 175.55 750 167.05 782.15 183.1 782.55 182.9"/>
    <path stroke="none" fill="#BBCBCC" d="M857.45 126.7 L857.45 133.2 832.4 145.7 832.4 139.2 857.45 126.7 M889.9 167.05 L889.9 175.55 857.45 191.8 824.9 175.55 824.9 167.05 857.05 183.1 889.9 167.05"/>
    <path stroke="none" fill="#A8B6B7" d="M857.45 133.2 L857.45 126.7 882.4 139.2 882.4 145.7 857.45 133.2"/>
    <path stroke="none" fill="#C2D0D1" d="M832.4 139.2 L832.4 145.7 832.4 160.45 857.45 172.95 882.4 160.45 882.4 145.7 882.4 139.2 882.4 137.2 857.45 124.7 832.4 137.2 832.4 139.2 M824.9 165.05 L824.9 132.55 857.45 116.3 889.9 132.55 889.9 165.05 857.45 181.3 824.9 165.05"/>
    <path stroke="none" fill="#CFDADB" d="M824.9 165.05 L857.45 181.3 889.9 165.05 889.9 167.05 857.05 183.1 824.9 167.05 824.9 165.05 M857.45 126.7 L832.4 139.2 832.4 137.2 857.45 124.7 882.4 137.2 882.4 139.2 857.45 126.7"/>
    <path stroke="none" fill="#000000" fill-opacity="0.10196078431372549" d="M857.45 182.9 L857.45 191.8 824.9 175.55 824.9 167.05 857.05 183.1 857.45 182.9"/>
    <path stroke="none" fill="#D6B08D" d="M907.5 139.2 L907.5 137.2 932.55 124.7 957.5 137.2 957.5 139.2 932.55 126.7 907.5 139.2 M965 165.05 L965 167.05 932.15 183.1 900 167.05 900 165.05 932.55 181.3 Q948.8 173.2 965 165.05"/>
    <path stroke="none" fill="#CA9A6C" d="M965 165.05 Q948.8 173.2 932.55 181.3 L900 165.05 900 132.55 932.55 116.3 965 132.55 965 165.05 M957.5 145.7 L957.5 139.2 957.5 137.2 932.55 124.7 907.5 137.2 907.5 139.2 907.5 145.7 907.5 160.45 932.55 172.95 957.5 160.45 957.5 145.7"/>
    <path stroke="none" fill="#B08052" d="M957.5 145.7 L932.55 133.2 932.55 126.7 957.5 139.2 957.5 145.7"/>
    <path stroke="none" fill="#C58F5C" d="M907.5 145.7 L907.5 139.2 932.55 126.7 932.55 133.2 907.5 145.7 M965 167.05 L965 175.55 Q948.8 183.7 932.55 191.8 L900 175.55 900 167.05 932.15 183.1 965 167.05"/>
    <path stroke="none" fill="#000000" fill-opacity="0.10196078431372549" d="M932.55 182.9 L932.55 191.8 900 175.55 900 167.05 932.15 183.1 932.55 182.9"/>
    <path stroke="none" fill="#F5EFDA" d="M1007.45 126.7 L982.4 139.2 982.4 137.2 1007.45 124.7 1032.4 137.2 1032.4 139.2 1007.45 126.7 M1039.9 165.05 L1039.9 167.05 1007.05 183.1 974.9 167.05 974.9 165.05 1007.45 181.3 1039.9 165.05"/>
    <path stroke="none" fill="#EEE7CD" d="M1039.9 165.05 L1007.45 181.3 974.9 165.05 974.9 132.55 1007.45 116.3 1039.9 132.55 1039.9 165.05 M982.4 139.2 L982.4 145.7 982.4 160.45 1007.45 172.95 1032.4 160.45 1032.4 145.7 1032.4 139.2 1032.4 137.2 1007.45 124.7 982.4 137.2 982.4 139.2"/>
    <path stroke="none" fill="#E7DFC2" d="M982.4 139.2 L1007.45 126.7 1007.45 133.2 982.4 145.7 982.4 139.2 M1039.9 167.05 L1039.9 175.55 1007.45 191.8 974.9 175.55 974.9 167.05 1007.05 183.1 1039.9 167.05"/>
    <path stroke="none" fill="#CFC8AE" d="M1007.45 133.2 L1007.45 126.7 1032.4 139.2 1032.4 145.7 1007.45 133.2"/>
    <path stroke="none" fill="#000000" fill-opacity="0.10196078431372549" d="M1007.45 182.9 L1007.45 191.8 974.9 175.55 974.9 167.05 1007.05 183.1 1007.45 182.9"/>
    <path stroke="none" fill="#5F6D6D" d="M795.9 95.3 L795.9 85.6 Q795.9 83.95 797.05 82.2 798.2 80.45 799.85 79.75 L802.75 79.55 Q803.9 80.25 803.9 81.85 L803.9 91.3 795.9 95.3"/>
    <path stroke="none" fill="#FFFFFF" fill-opacity="0.2" d="M795.9 95.3 L803.9 91.3 803.9 93.3 795.9 97.3 795.9 95.3"/>
    <path stroke="none" fill="#5F6D6D" d="M870.9 85.6 Q870.9 83.95 872.05 82.2 873.2 80.45 874.85 79.75 L877.75 79.55 Q878.8 80.2 878.9 81.6 L878.9 91.3 870.9 95.3 870.9 85.6"/>
    <path stroke="none" fill="#C58F5C" d="M870.9 85.6 L870.9 95.3 866.9 97.3 866.9 83.75 Q868.55 82.95 869.75 83.55 870.8 84.2 870.9 85.6 M878.9 81.6 Q878.9 79.95 880.05 78.2 881.2 76.45 882.85 75.75 L882.9 75.75 882.9 89.3 878.9 91.3 878.9 81.6"/>
    <path stroke="none" fill="#FFFFFF" fill-opacity="0.2" d="M878.9 93.3 L870.9 97.3 870.9 95.3 878.9 91.3 878.9 93.3"/>
    <path stroke="none" fill="#000000" fill-opacity="0.10196078431372549" d="M878.9 93.3 L878.9 91.3 882.9 89.3 882.9 91.3 878.9 93.3 M870.9 97.3 L866.9 99.3 866.9 97.3 870.9 95.3 870.9 97.3"/>
    <path stroke="none" fill="#5F6D6D" d="M950 79.75 L952.9 79.55 Q954.05 80.25 954.05 81.85 L954.05 95.5 946.05 99.5 946.05 97.6 946.05 97.3 946.05 85.6 Q946.05 83.95 947.2 82.2 948.35 80.45 950 79.75"/>
    <path stroke="none" fill="#5F6D6D" d="M1017.6 84.25 L1034.65 92.7 1013.9 103.1 1013.9 94.05 Q1013.9 89.75 1016.9 85.2 L1017.6 84.25"/>
    <path stroke="none" fill="#788585" d="M1017.6 84.25 Q1020.4 80.45 1024.25 78.55 L1024.3 78.55 Q1028.6 76.4 1031.6 77.95 1034.65 79.5 1034.65 83.8 L1034.65 92.7 1017.6 84.25"/>
  </g>
</svg>