
<svg xmlns="http://www.w3.org/2000/svg" version="1.1" xmlns:xlink="http://www.w3.org/1999/xlink" preserveAspectRatio="none" x="0px" y="0px" width="350px" height="480px" viewBox="0 0 350 480">
<defs>
<g id="Symbol_24_0_Layer0_0_MEMBER_0_FILL">
<path fill="#89A4A6" stroke="none" d="
M 10.2 79.05
Q 4.1 33.65 18.5 -8.1
L -9.85 -17.85
Q -26.5 30.45 -19.55 83
L 10.2 79.05 Z"/>
</g>

<g id="Symbol_24_0_Layer0_0_MEMBER_1_FILL">
<path fill="#6F8687" stroke="none" d="
M 18.1 96.65
Q 18.5 93.65 18.5 90.45 18.5 73.65 6.65 61.8 -5.2 49.95 -22 49.95 -38.75 49.95 -50.6 61.8 -62.5 73.65 -62.5 90.45 -62.5 93.65 -62.05 96.65 -60.2 101.6 -50.6 105.25 -38.75 109.8 -22 109.8 -5.2 109.8 6.65 105.25 16.25 101.6 18.1 96.65 Z"/>
</g>

<g id="Symbol_25_0_Layer0_0_MEMBER_0_FILL">
<path fill="#89A4A6" stroke="none" d="
M 14.3 -16.85
L -14.05 -7.1
Q 0.35 34.65 -5.75 80.05
L 24 84
Q 30.95 31.45 14.3 -16.85 Z"/>
</g>

<g id="Symbol_25_0_Layer0_0_MEMBER_1_FILL">
<path fill="#6F8687" stroke="none" d="
M 31.55 50.95
Q 14.8 50.95 2.95 62.8 -8.95 74.65 -8.95 91.45 -8.95 94.65 -8.5 97.65 -6.65 102.6 2.95 106.25 14.8 110.8 31.55 110.8 48.35 110.8 60.2 106.25 69.8 102.6 71.65 97.65 72.05 94.65 72.05 91.45 72.05 74.65 60.2 62.8 48.35 50.95 31.55 50.95 Z"/>
</g>

<g id="Symbol_21_0_Layer0_0_MEMBER_1_FILL">
<path fill="#89A4A6" stroke="none" d="
M 46.5 64.25
Q 47.5 60.35 49.85 57.45 46 58.6 42.25 60.75
L 42.2 60.8 42.15 60.8
Q 29.95 67.9 26.3 81.6 22.6 95.3 29.7 107.55 34.5 115.9 42.35 120.3
L 54.05 99.6
Q 51.7 98.25 50.2 95.7 48.1 91.95 49.25 87.75 50 84.85 51.95 83 49.85 81 48.3 78.35 44.5 71.7 46.5 64.25
M 89 73.35
Q 86.35 68.7 82.8 65.35 83.6 69.5 82.45 73.9 80.45 81.35 73.75 85.15 71.55 86.45 69.3 87.1 70.35 90 69.5 93.2 68.35 97.35 64.65 99.5
L 64.55 99.55 64.55 99.6
Q 62.15 100.95 59.6 101.05
L 59.8 124.8
Q 68.5 124.75 76.5 120.05
L 76.45 120.15
Q 88.75 113.05 92.45 99.35 96.1 85.65 89 73.35 Z"/>

<path fill="#6F8687" stroke="none" d="
M 82.45 73.9
Q 83.6 69.5 82.8 65.35 82.15 62.45 80.6 59.75 76.75 53.1 69.3 51.1 61.85 49.1 55.15 52.95 51.95 54.8 49.85 57.45 47.5 60.35 46.5 64.25 44.5 71.7 48.3 78.35 49.85 81 51.95 83 55.15 85.85 59.65 87.05 64.65 88.4 69.3 87.1 71.55 86.45 73.75 85.15 80.45 81.35 82.45 73.9 Z"/>
</g>

<g id="Symbol_22_0_Layer0_0_MEMBER_1_FILL">
<path fill="#89A4A6" stroke="none" d="
M -78.3 72.9
Q -79.45 68.5 -78.65 64.35 -82.2 67.7 -84.85 72.35 -91.95 84.65 -88.3 98.35 -84.6 112.05 -72.3 119.15
L -72.35 119.05
Q -64.35 123.75 -55.65 123.8
L -55.45 100.05
Q -58 99.95 -60.4 98.6
L -60.4 98.55 -60.5 98.5
Q -64.2 96.35 -65.35 92.2 -66.2 89 -65.15 86.1 -67.4 85.45 -69.6 84.15 -76.3 80.35 -78.3 72.9
M -45.7 56.45
Q -43.35 59.35 -42.35 63.25 -40.35 70.7 -44.15 77.35 -45.7 80 -47.8 82 -45.85 83.85 -45.1 86.75 -43.95 90.95 -46.05 94.7 -47.55 97.25 -49.9 98.6
L -38.2 119.3
Q -30.35 114.9 -25.55 106.55 -18.45 94.3 -22.15 80.6 -25.8 66.9 -38 59.8
L -38.05 59.8 -38.1 59.75
Q -41.85 57.6 -45.7 56.45 Z"/>

<path fill="#6F8687" stroke="none" d="
M -45.7 56.45
Q -47.8 53.8 -51 51.95 -57.7 48.1 -65.15 50.1 -72.6 52.1 -76.45 58.75 -78 61.45 -78.65 64.35 -79.45 68.5 -78.3 72.9 -76.3 80.35 -69.6 84.15 -67.4 85.45 -65.15 86.1 -60.5 87.4 -55.5 86.05 -51 84.85 -47.8 82 -45.7 80 -44.15 77.35 -40.35 70.7 -42.35 63.25 -43.35 59.35 -45.7 56.45 Z"/>
</g>

<g id="Symbol_23_0_Layer0_0_FILL">
<path fill="#6F8687" stroke="none" d="
M 0.05 20.4
Q 25.6 19.15 43.8 10.1 48.35 -24.55 31.85 -90.35
L -31.7 -90.35
Q -48.35 -24.55 -43.75 10.1 -25.55 19.15 0.05 20.4 Z"/>
</g>

<g id="Symbol_23_0_Layer0_0_MEMBER_0_FILL">
<path fill="#89A4A6" stroke="none" d="
M 16.55 -53.35
Q 10.15 -59.75 1 -59.75 -8.15 -59.75 -14.6 -53.35 -21 -46.9 -21 -37.75 -21 -28.6 -14.6 -22.2 -8.15 -15.75 1 -15.75 10.15 -15.75 16.55 -22.2 23 -28.6 23 -37.75 23 -46.9 16.55 -53.35
M 12.15 -37.75
Q 12.15 -33.15 8.9 -29.85 5.6 -26.6 1 -26.6 -3.6 -26.6 -6.9 -29.85 -10.15 -33.15 -10.15 -37.75 -10.15 -42.35 -6.9 -45.65 -3.6 -48.9 1 -48.9 5.6 -48.9 8.9 -45.65 12.15 -42.35 12.15 -37.75 Z"/>
</g>

<g id="Symbol_26_0_Layer0_0_MEMBER_0_FILL">
<path fill="#E74C3C" stroke="none" d="
M -12.3 -160.4
Q -12.3 -174.6 -22.35 -184.65 -32.4 -194.7 -46.6 -194.7 -60.85 -194.7 -70.85 -184.65 -80.9 -174.6 -80.9 -160.4 -80.9 -146.15 -70.85 -136.15 -60.85 -126.1 -46.6 -126.1 -32.4 -126.1 -22.35 -136.15 -12.3 -146.15 -12.3 -160.4 Z"/>
</g>

<g id="Symbol_26_0_Layer0_0_MEMBER_2_FILL">
<path fill="#89A4A6" stroke="none" d="
M 78.65 -96.5
Q 76.4 -119.9 56.15 -121.7 1.15 -125.8 -52.9 -121.35 -74.1 -119.9 -77.05 -99.45 -85 -44.65 -77.25 9 -74.1 30.6 -54.5 32.9 1.15 40.25 54.75 33.5 76.4 30.6 78.25 12.3 83.75 -42.8 78.65 -96.5
M -0.1 -38.9
Q -0.1 -35.2 -2.75 -32.55 -5.35 -29.9 -9.1 -29.9 -12.8 -29.9 -15.45 -32.55 -18.1 -35.2 -18.1 -38.9 -18.1 -42.65 -15.45 -45.3 -12.8 -47.9 -9.1 -47.9 -5.35 -47.9 -2.75 -45.3 -0.1 -42.65 -0.1 -38.9 Z"/>
</g>

<g id="Symbol_26_0_Layer0_0_MEMBER_3_FILL">
<path fill="#FFFFFF" stroke="none" d="
M -2.7 -54.85
Q -11.8 -63.95 -24.65 -63.95 -37.5 -63.95 -46.65 -54.85 -55.75 -45.7 -55.75 -32.85 -55.75 -19.95 -46.65 -10.85 -37.5 -1.75 -24.65 -1.75 -11.8 -1.75 -2.7 -10.85 6.45 -19.95 6.45 -32.85 6.45 -45.7 -2.7 -54.85 Z"/>
</g>

<g id="Symbol_26_0_Layer0_0_MEMBER_4_FILL">
<path fill="#E74C3C" stroke="none" d="
M -5.35 -20.25
Q -2.4 -23.2 -2.4 -27.3 -2.4 -31.5 -5.35 -34.4 -8.25 -37.3 -12.4 -37.3 -16.5 -37.3 -19.45 -34.4 -22.4 -31.5 -22.4 -27.3 -22.4 -23.2 -19.45 -20.25 -16.5 -17.3 -12.4 -17.3 -8.25 -17.3 -5.35 -20.25 Z"/>
</g>

<g id="Symbol_26_0_Layer0_0_MEMBER_5_FILL">
<path fill="#FFFFFF" stroke="none" d="
M 68.45 -54.85
Q 59.35 -63.95 46.45 -63.95 33.55 -63.95 24.5 -54.85 15.35 -45.7 15.35 -32.85 15.35 -19.95 24.5 -10.85 33.55 -1.75 46.45 -1.75 59.35 -1.75 68.45 -10.85 77.55 -19.95 77.55 -32.85 77.55 -45.7 68.45 -54.85 Z"/>
</g>

<g id="Symbol_26_0_Layer0_0_MEMBER_6_FILL">
<path fill="#E74C3C" stroke="none" d="
M 47.25 -27.3
Q 47.25 -23.2 50.2 -20.25 53.05 -17.3 57.25 -17.3 61.35 -17.3 64.3 -20.25 67.25 -23.2 67.25 -27.3 67.25 -31.45 64.3 -34.4 61.35 -37.3 57.25 -37.3 53.05 -37.3 50.2 -34.4 47.25 -31.45 47.25 -27.3 Z"/>
</g>

<path id="Symbol_21_0_Layer0_0_MEMBER_0_1_STROKES" stroke="#89A4A6" stroke-width="30" stroke-linejoin="miter" stroke-linecap="round" stroke-miterlimit="3" fill="none" d="
M 0 0
Q 53.4 16.55 63.15 61"/>

<path id="Symbol_22_0_Layer0_0_MEMBER_0_1_STROKES" stroke="#89A4A6" stroke-width="30" stroke-linejoin="miter" stroke-linecap="round" stroke-miterlimit="3" fill="none" d="
M 1.55 0
Q -51.85 16.55 -61.6 61"/>

<path id="Symbol_26_0_Layer0_0_MEMBER_1_1_STROKES" stroke="#6F8687" stroke-width="20" stroke-linejoin="miter" stroke-linecap="round" stroke-miterlimit="3" fill="none" d="
M -30.1 -145.9
Q -3.15 -129.6 -3.1 -97.9"/>

<path id="Symbol_26_0_Layer0_0_MEMBER_7_1_STROKES" stroke="#6F8687" stroke-width="10" stroke-linejoin="miter" stroke-linecap="butt" stroke-miterlimit="3" fill="none" d="
M 27.75 6.1
Q 20.65 12.15 11 12.15 1.4 12.15 -5.75 6.1"/>
</defs>

<g transform="matrix( 1, 0, 0, 1, 144,347.3) ">
<g transform="matrix( 1, 0, 0, 1, 0,0) ">
<use xlink:href="#Symbol_24_0_Layer0_0_MEMBER_0_FILL"/>
</g>

<g transform="matrix( 1, 0, 0, 1, 0,0) ">
<use xlink:href="#Symbol_24_0_Layer0_0_MEMBER_1_FILL"/>
</g>
</g>

<g transform="matrix( 1, 0, 0, 1, 185.45,347.3) ">
<g transform="matrix( 1, 0, 0, 1, 0,0) ">
<use xlink:href="#Symbol_25_0_Layer0_0_MEMBER_0_FILL"/>
</g>

<g transform="matrix( 1, 0, 0, 1, 0,0) ">
<use xlink:href="#Symbol_25_0_Layer0_0_MEMBER_1_FILL"/>
</g>
</g>

<g transform="matrix( 1, 0, 0, 1, 211.6,271.45) ">
<g transform="matrix( 1, 0, 0, 1, 0,0) ">
<use xlink:href="#Symbol_21_0_Layer0_0_MEMBER_0_1_STROKES"/>
</g>

<g transform="matrix( 1, 0, 0, 1, 0,0) ">
<use xlink:href="#Symbol_21_0_Layer0_0_MEMBER_1_FILL"/>
</g>
</g>

<g transform="matrix( 1, 0, 0, 1, 125.25,272.45) ">
<g transform="matrix( 1, 0, 0, 1, 0,0) ">
<use xlink:href="#Symbol_22_0_Layer0_0_MEMBER_0_1_STROKES"/>
</g>

<g transform="matrix( 1, 0, 0, 1, 0,0) ">
<use xlink:href="#Symbol_22_0_Layer0_0_MEMBER_1_FILL"/>
</g>
</g>

<g transform="matrix( 1, 0, 0, 1, 166.8,340.2) ">
<g transform="matrix( 1, 0, 0, 1, 0,0) ">
<use xlink:href="#Symbol_23_0_Layer0_0_FILL"/>
</g>

<g transform="matrix( 1, 0, 0, 1, 0,0) ">
<use xlink:href="#Symbol_23_0_Layer0_0_MEMBER_0_FILL"/>
</g>
</g>

<g transform="matrix( 1, 0, 0, 1, 169.8,224.7) ">
<g transform="matrix( 1, 0, 0, 1, 0,0) ">
<use xlink:href="#Symbol_26_0_Layer0_0_MEMBER_0_FILL"/>
</g>

<g transform="matrix( 1, 0, 0, 1, 0,0) ">
<use xlink:href="#Symbol_26_0_Layer0_0_MEMBER_1_1_STROKES"/>
</g>

<g transform="matrix( 1, 0, 0, 1, 0,0) ">
<use xlink:href="#Symbol_26_0_Layer0_0_MEMBER_2_FILL"/>
</g>

<g transform="matrix( 1, 0, 0, 1, 0,0) ">
<use xlink:href="#Symbol_26_0_Layer0_0_MEMBER_3_FILL"/>
</g>

<g transform="matrix( 1, 0, 0, 1, 0,0) ">
<use xlink:href="#Symbol_26_0_Layer0_0_MEMBER_4_FILL"/>
</g>

<g transform="matrix( 1, 0, 0, 1, 0,0) ">
<use xlink:href="#Symbol_26_0_Layer0_0_MEMBER_5_FILL"/>
</g>

<g transform="matrix( 1, 0, 0, 1, 0,0) ">
<use xlink:href="#Symbol_26_0_Layer0_0_MEMBER_6_FILL"/>
</g>

<g transform="matrix( 1, 0, 0, 1, 0,0) ">
<use xlink:href="#Symbol_26_0_Layer0_0_MEMBER_7_1_STROKES"/>
</g>
</g>
</svg>
