<svg xmlns="http://www.w3.org/2000/svg" xmlns:xlink="http://www.w3.org/1999/xlink">
  <defs/>
  <g>
    <path stroke="none" fill="#3399CC" d="M324.85 757.5 L324.65 757.3 325 757.4 324.85 757.5 M801.9 742.65 L802.05 742.7 801.9 742.7 801.9 742.65 M856.85 762.7 L856.9 762.7 856.85 762.75 856.85 762.7"/>
    <path stroke="none" fill="#62391B" d="M802.2 222.2 Q790 209.95 790 192.7 790 175.4 802.2 163.2 808.25 157.15 815.55 154.15 819.15 149.05 823.8 144.4 844.6 123.65 874 123.65 903.45 123.65 924.2 144.4 928.25 148.45 931.6 152.95 L932.45 154.15 Q939.75 157.15 945.8 163.2 958 175.4 958 192.7 958 209.95 945.8 222.2 941.25 226.75 936 229.6 934 233.05 931.6 236.35 L931.55 236.35 927.7 241.1 924.25 244.8 924.2 244.8 Q914 255.05 901.7 260.25 888.9 265.65 874 265.65 859.1 265.65 846.4 260.25 834 255.05 823.8 244.8 L820.3 241.1 Q815.5 235.6 812.05 229.6 806.75 226.75 802.2 222.2"/>
    <path stroke="none" fill="#1C3943" d="M655.8 144.4 Q676.6 123.65 706 123.65 735.45 123.65 756.2 144.4 760.25 148.45 763.6 152.95 776.95 171 777 194.65 776.95 218.25 763.6 236.35 L763.55 236.35 759.7 241.1 756.25 244.8 756.2 244.8 Q746 255.05 733.7 260.25 720.9 265.65 706 265.65 691.1 265.65 678.4 260.25 666 255.05 655.8 244.8 L652.3 241.1 Q635 221.45 635 194.65 635 165.2 655.8 144.4"/>
    <path stroke="none" fill="#8E488E" d="M641.1 330.7 L641.55 330.95 Q657.35 321.7 677 321.65 696.65 321.7 712.5 330.95 L712.95 330.7 712.9 330.7 Q722.2 325.3 731.15 325.45 L731.2 325.45 Q741.75 325.6 745.9 331.95 L746.05 332.15 747.8 335.05 747.85 335.1 747.9 335.2 747.95 335.35 Q756.1 349.6 755.75 363.15 755.5 377.3 747.5 383.55 748 388 748 392.65 748 419.45 730.7 439.1 L727.25 442.8 727.2 442.8 Q706.45 463.65 677 463.65 647.6 463.65 626.8 442.8 L623.3 439.1 Q606 419.45 606 392.65 606 388 606.55 383.55 598.5 377.3 598.25 363.15 597.9 349.5 606.15 335.15 L607.85 332.35 608.1 331.95 Q612.25 325.6 622.8 325.45 L622.85 325.45 Q631.8 325.3 641.1 330.7"/>
    <path stroke="none" fill="#7B1E06" d="M487.8 144.4 Q508.6 123.65 538 123.65 567.45 123.65 588.2 144.4 609 165.2 609 194.65 609 221.45 591.7 241.1 L588.25 244.8 588.2 244.8 Q578 255.05 565.7 260.25 552.9 265.65 538 265.65 523.1 265.65 510.4 260.25 498 255.05 487.8 244.8 L484.3 241.1 Q467 221.45 467 194.65 467 165.2 487.8 144.4"/>
    <path stroke="none" fill="#8C8C8C" d="M287 168.7 Q287 151.6 299.1 139.5 311.15 127.45 328.25 127.45 335.2 127.45 341.35 129.45 354.45 123.65 370 123.65 385.55 123.65 398.7 129.45 404.8 127.45 411.75 127.45 428.85 127.45 440.95 139.5 L440.95 139.55 Q453 151.6 453 168.7 453 185.8 440.95 197.85 L440.95 197.9 Q439.95 222.65 423.7 241.1 L420.25 244.8 420.2 244.8 Q410 255.05 397.7 260.25 384.9 265.65 370 265.65 355.1 265.65 342.4 260.25 330 255.05 319.8 244.8 L316.3 241.1 Q300.05 222.65 299.1 197.8 287 185.75 287 168.7"/>
    <path stroke="none" fill="#347E0F" d="M373 470.1 Q373 479 365.55 480.65 L361.5 481.7 350.05 470.25 338.55 481.7 334.45 480.65 Q327 479 327 470.1 L327 464.45 Q323.55 466.15 320.05 464.6 317 463.85 314.25 459.5 L308.25 450.15 Q303.85 446.85 299.8 442.8 L296.3 439.1 Q279 419.45 279 392.65 279 363.2 299.8 342.4 320.6 321.65 350 321.65 379.45 321.65 400.2 342.4 421 363.2 421 392.65 421 419.45 403.7 439.1 L400.25 442.8 400.2 442.8 Q396.1 446.95 391.7 450.25 L385.75 459.55 385.75 459.5 Q383 463.85 379.95 464.6 376.45 466.15 373 464.45 L373 470.1 M324.85 457.5 L325 457.4 324.65 457.3 324.85 457.5"/>
    <path stroke="none" fill="#28538E" d="M569.3 349.7 Q566.05 355.35 561.95 359.4 569.95 374.35 570 392.65 570 419.45 552.7 439.1 L549.25 442.8 549.2 442.8 Q528.45 463.65 499 463.65 469.6 463.65 448.8 442.8 L445.3 439.1 Q428 419.45 428 392.65 428.05 374.35 436.05 359.4 431.95 355.35 428.7 349.7 L428.7 349.75 427.2 346.95 426.9 346.2 Q424.25 340.55 429.05 332.95 L429.05 333 Q432.75 326.9 440.45 322.45 L440.5 322.45 Q448.15 318.05 455.2 317.85 L455.25 317.85 Q464.1 317.5 467.8 322.55 L468.35 323.35 469.9 325.9 470.7 327.3 Q483.7 321.7 499 321.65 514.35 321.7 527.35 327.3 L528.1 325.9 529.65 323.35 530.25 322.55 Q533.9 317.5 542.7 317.85 549.9 318 557.55 322.45 L557.6 322.45 Q565.2 326.9 568.95 332.95 573.75 340.55 571.15 346.2 L570.8 346.95 569.3 349.75 569.3 349.7"/>
    <path stroke="none" fill="#9A7B00" d="M149.85 119.05 L152.15 120.35 Q161.35 125.65 166.75 132.8 170 130.95 173.35 129.45 L171.75 124.8 170.65 124.25 170.45 124.15 Q164.2 120.4 162.3 113.45 L162.3 113.4 Q160.4 106.3 164.05 100 167.7 93.7 174.75 91.8 181.5 90 187.5 93.25 L188.2 93.6 Q194.4 97.25 196.3 104.3 198.1 111.05 195 117.05 L194.5 118 193.9 118.85 194.9 124 202 123.65 209.2 124 210.15 118.85 209.6 117.95 209 116.85 Q205.95 110.95 207.75 104.4 L207.8 104.2 Q209.65 97.15 215.9 93.55 222.2 89.9 229.3 91.8 L229.35 91.8 Q236.25 93.7 240 99.95 L240 100 Q243.65 106.3 241.75 113.4 L241.75 113.45 Q239.85 120.35 233.65 124.1 L233.6 124.1 232.45 124.75 230.75 129.5 Q234.05 130.95 237.25 132.8 242.65 125.65 251.85 120.35 L252 120.25 254.05 119.15 254.85 118.75 Q260.8 115.75 269 120.25 L269.15 120.35 Q275.95 124.1 280.65 132.25 L280.6 132.25 Q285.3 140.3 285.15 148.05 L285.15 148.15 Q285 157.6 279.35 161.3 L278.95 161.6 276.55 163.05 Q272.1 165.6 267.7 167.2 272.95 179.85 273 194.65 273 221.45 255.7 241.1 L252.25 244.8 252.2 244.8 Q231.45 265.65 202 265.65 172.6 265.65 151.8 244.8 L148.3 241.1 Q131 221.45 131 194.65 131.05 179.85 136.3 167.2 131.9 165.6 127.45 163.05 L127.5 163.05 125.1 161.6 124.65 161.3 Q119 157.6 118.85 148.15 L118.85 148.05 Q118.7 140.3 123.4 132.25 128.05 124.1 134.9 120.35 L135 120.25 Q143.2 115.75 149.2 118.75 149.5 118.85 149.85 119.05"/>
    <path stroke="none" fill="#747474" d="M161.35 280 Q173.05 275.35 186.65 296.15 193.65 306.9 199 321.7 L202 321.65 205 321.7 Q210.35 306.9 217.4 296.1 230.95 275.3 242.65 280 255.15 281.8 256.6 306.55 L256.6 306.6 Q257.45 322.8 252.85 343.1 273 363.65 273 392.65 273 419.45 255.7 439.1 L252.25 442.8 252.2 442.8 Q231.45 463.65 202 463.65 172.6 463.65 151.8 442.8 L148.3 439.1 Q131 419.45 131 392.65 131 363.7 151.15 343.1 146.55 322.75 147.45 306.65 148.75 281.8 161.35 280"/>
    <path stroke="none" fill="#747474" d="M801.9 442.65 L801.9 442.7 802.05 442.7 801.9 442.65 M856.85 462.7 L856.8 462.75 856.85 462.75 856.9 462.7 856.85 462.7 M784.15 413.5 Q771.8 393.55 771.35 365.5 L771.35 363.95 Q771.35 344.45 785.2 330.7 799 316.85 818.6 316.85 833.15 316.9 844.5 324.5 854.15 321.65 865 321.65 875.85 321.65 885.55 324.5 896.9 316.95 911.4 316.85 L911.45 316.85 Q931 316.9 944.8 330.75 958.7 344.55 958.65 364.2 L958.65 364.25 958.65 365.45 958.65 365.55 Q958.2 393.55 945.9 413.5 941.5 420.65 936.55 425.45 939.4 431.55 941.75 439.2 943 441.95 942.1 445.55 L941.5 447.05 Q940.5 449.15 938.7 450.7 L938.45 450.9 934 454.4 933 455.05 930.55 456.15 930.25 456.25 927.95 456.55 924.6 456.05 923.75 455.75 Q920.85 454.55 919.2 452.1 916.15 448.1 912.65 445.25 898.65 458.15 880.85 462 877.15 469.4 872.9 470.7 869.65 471.75 865.05 471.75 860.6 471.75 857.25 470.7 L857.15 470.7 Q852.95 469.35 849.65 462.15 831.6 458.35 817.45 445.35 813.85 448.2 810.8 452.25 809.15 454.75 806.1 455.9 L805.9 455.95 802.1 456.6 799.5 456.2 798.1 455.7 Q797.2 455.25 796.4 454.65 L795.95 454.3 Q791.85 451.25 788.85 445.35 L788.7 445.05 788.25 444.05 Q787.45 441.95 788.15 439.7 790.6 431.75 793.6 425.45 788.55 420.65 784.15 413.5"/>
    <path stroke="none" fill="#BDB6B6" d="M858.9 364.15 Q858.8 364.8 858.85 365.45 858.4 391.35 847.05 409.85 835.3 429 818.6 429 801.9 429 790.1 409.8 778.75 391.35 778.35 365.4 L778.35 364.15 Q778.3 347.45 790.15 335.65 801.9 323.85 818.6 323.85 835.35 323.85 847.1 335.7 858.85 347.45 858.9 364.15 M871.1 364.15 Q871.1 347.5 882.9 335.75 894.7 323.9 911.4 323.85 928.1 323.9 939.85 335.7 951.7 347.45 951.65 364.2 L951.65 365.45 Q951.25 391.35 939.9 409.85 928.15 429 911.4 429.05 894.7 429 882.95 409.9 871.6 391.4 871.2 365.45 L871.1 364.15"/>
    <path stroke="none" fill="#D2D0D0" d="M816.55 434.45 Q801 416.8 801 392.65 801 366.1 819.75 347.35 838.5 328.65 865 328.65 891.55 328.65 910.25 347.35 929 366.1 929 392.65 929 416.8 913.45 434.45 L910.25 437.85 Q891.55 456.65 865 456.65 838.5 456.65 819.75 437.85 L816.55 434.45"/>
    <path stroke="none" fill="#BDB6B6" d="M881.4 404.05 Q886.75 410 884.9 417.2 L873.75 461.95 Q873.45 463.2 870.8 464 868.4 464.75 865.05 464.75 861.75 464.75 859.25 464 856.7 463.2 856.4 461.95 L845.2 417.2 Q843.4 410 848.6 404.05 854.75 397.35 865.05 397.35 875.4 397.35 881.4 404.05"/>
    <path stroke="none" fill="#FFFFFF" d="M935.2 441.75 Q935.6 442.6 935.3 443.75 L935.2 443.9 934.15 445.35 929.7 448.85 929.55 448.9 928.3 449.5 927.95 449.55 926.5 449.3 926.45 449.3 Q925.5 448.9 924.95 448.1 911.5 430.3 890.1 431.2 L889.95 431.2 888.45 430.85 888.35 430.8 Q887.55 430.35 887.2 429.65 L887.1 429.6 Q886.6 428.75 886.65 428.05 L886.6 428 Q886.15 411.75 909.45 407.8 910.35 407.6 911.45 408.1 926.9 414.4 935.2 441.75 M818.65 408.15 Q819.65 407.65 820.65 407.85 843.85 411.8 843.45 428.05 L843.4 428.05 Q843.45 428.85 842.95 429.65 L842.9 429.75 841.75 430.85 841.55 430.9 840.15 431.3 839.95 431.3 Q818.55 430.4 805.05 448.2 804.55 449 803.55 449.35 L803.55 449.4 802.1 449.6 801.7 449.55 800.5 449 800.4 448.9 795.95 445.45 795.9 445.45 Q795.15 444.85 794.85 444 L794.8 443.85 Q794.45 442.65 794.85 441.75 803.15 414.5 818.65 408.15"/>
    <path stroke="none" fill="#333333" d="M842.65 396.3 L842.65 396.55 842.65 397.05 Q842.3 400.1 839.55 402.2 836.5 404.6 832.2 404.6 827.9 404.6 824.85 402.2 822.1 400.1 821.85 397.05 L821.8 396.55 821.8 396.3 821.8 396.2 Q821.85 390.35 824.85 386.2 827.9 382 832.2 382 836.5 382 839.55 386.2 842.6 390.35 842.65 396.2 L842.65 396.3 M908.25 396.3 L908.25 396.55 908.25 397.05 Q907.95 400.1 905.2 402.2 902.1 404.6 897.8 404.6 893.5 404.6 890.45 402.2 887.7 400.1 887.45 397.05 L887.4 396.55 887.4 396.3 887.4 396.2 Q887.45 390.35 890.45 386.2 893.5 382 897.8 382 902.1 382 905.2 386.2 908.2 390.35 908.25 396.2 L908.25 396.3"/>
    <path stroke="none" fill="#D23007" d="M513.1 253.8 Q501.95 249.1 492.75 239.85 L489.55 236.45 Q474 218.8 474 194.65 474 168.1 492.75 149.35 511.5 130.65 538 130.65 564.55 130.65 583.25 149.35 602 168.1 602 194.65 602 218.8 586.45 236.45 L583.25 239.85 Q574.05 249.1 562.95 253.8 560.95 248.85 556.9 244.8 549.1 237 538 237 526.9 237 519.05 244.8 515 248.85 513.1 253.8"/>
    <path stroke="none" fill="#FFCC00" d="M513.1 253.8 Q515 248.85 519.05 244.8 526.9 237 538 237 549.1 237 556.9 244.8 560.95 248.85 562.95 253.8 551.45 258.65 538 258.65 524.55 258.65 513.1 253.8"/>
    <path stroke="none" fill="#BB2905" d="M552.45 148.7 Q556.35 155.45 557.1 161.35 558 167.2 555.25 168.75 552.5 170.35 547.8 166.7 543.2 163.05 539.3 156.3 L538.4 154.75 Q536.8 151.55 537.2 148.25 537.6 144.6 540.35 143 543.1 141.45 546.5 142.9 549.5 144.2 551.5 147.2 L552.45 148.7"/>
    <path stroke="none" fill="#BB2905" d="M532.75 156.4 Q530.2 160.9 527.05 163.3 524 165.75 522.2 164.65 520.4 163.65 520.95 159.75 521.5 155.85 524.05 151.4 L524.65 150.35 Q526 148.35 528 147.5 530.25 146.5 532.05 147.55 533.85 148.65 534.15 151.1 534.4 153.2 533.35 155.35 L532.75 156.4"/>
    <path stroke="none" fill="#FFFFFF" d="M528.1 198.15 L528 198.75 Q524.45 211.85 516.7 219.7 509 227.55 501.6 225.5 494.15 223.5 491.3 212.9 488.5 202.2 492.05 189.1 L492.15 188.55 Q494.25 181.4 500.75 177.7 507.4 173.8 514.9 175.75 522.3 177.8 526.2 184.45 529.9 191 528.1 198.15 M584.15 189.1 Q587.7 202.2 584.9 212.9 582.1 223.5 574.65 225.5 567.2 227.55 559.5 219.7 551.8 211.85 548.2 198.75 L548.15 198.15 Q546.35 191 550 184.45 553.9 177.8 561.35 175.75 568.8 173.8 575.45 177.7 581.95 181.4 584.05 188.55 L584.15 189.1"/>
    <path stroke="none" fill="#333333" d="M521 195.35 L521 195.5 521 195.95 Q520.75 198.25 518.65 199.9 516.3 201.75 513 201.75 509.7 201.75 507.35 199.9 505.25 198.25 505.05 195.95 L505 195.5 505 195.35 505 195.25 Q505.05 190.75 507.35 187.6 509.7 184.35 513 184.35 516.3 184.35 518.65 187.6 520.95 190.75 521 195.25 L521 195.35 M571.4 195.35 L571.4 195.5 571.4 195.95 Q571.2 198.25 569.05 199.9 566.7 201.75 563.4 201.75 560.1 201.75 557.75 199.9 555.65 198.25 555.45 195.95 L555.4 195.5 555.4 195.35 555.4 195.25 Q555.45 190.75 557.75 187.6 560.1 184.35 563.4 184.35 566.7 184.35 569.05 187.6 571.4 190.75 571.4 195.25 L571.4 195.35"/>
    <path stroke="none" fill="#5D9CF3" d="M555.9 223.45 Q538.05 228 520.15 223.45 L520.05 222.6 519.95 220.65 519.95 210.8 Q519.95 208.45 520.5 206.3 L520.75 205.45 520.8 205.3 Q522.05 201.3 525.2 198.15 530.55 192.85 538.05 192.85 545.55 192.85 550.8 198.15 554 201.3 555.25 205.3 L555.3 205.45 555.5 206.3 Q556.1 208.45 556.1 210.8 L556.1 220.65 556 222.6 555.9 223.45"/>
    <path stroke="none" fill="#397EDE" d="M555.9 223.45 Q555.05 229.15 550.8 233.4 545.55 238.7 538.05 238.7 530.55 238.7 525.2 233.4 520.95 229.15 520.15 223.45 538.05 228 555.9 223.45"/>
    <path stroke="none" fill="#915B32" d="M797 192.7 Q797 178.3 807.15 168.15 817.3 158 831.7 158 846.1 158 856.25 168.15 866.4 178.3 866.4 192.7 866.4 207.05 856.25 217.25 846.1 227.4 831.7 227.4 817.3 227.4 807.15 217.25 797 207.05 797 192.7 M940.85 168.15 Q951 178.3 951 192.7 951 207.05 940.85 217.25 930.7 227.4 916.3 227.4 901.95 227.4 891.75 217.25 881.6 207.05 881.6 192.7 881.6 178.3 891.75 168.15 901.95 158 916.3 158 930.7 158 940.85 168.15"/>
    <path stroke="none" fill="#A16639" d="M849.1 253.8 Q837.95 249.1 828.75 239.85 L825.55 236.45 Q810 218.8 810 194.65 810 168.1 828.75 149.35 847.5 130.65 874 130.65 900.55 130.65 919.25 149.35 922.95 153.05 925.95 157.1 938 173.35 938 194.65 938 215.9 925.95 232.15 L922.45 236.45 919.25 239.85 Q910.05 249.1 898.95 253.8 887.45 258.65 874 258.65 860.55 258.65 849.1 253.8"/>
    <path stroke="none" fill="#BF8559" d="M913.45 166.5 Q920.85 173.9 920.85 184.3 920.85 194.75 913.45 202.2 L909.2 205.6 Q909.1 220.25 898.75 230.6 888.25 241.05 873.45 241.05 858.7 241.05 848.2 230.6 837.8 220.25 837.75 205.6 L833.55 202.2 833.5 202.2 Q826.1 194.75 826.1 184.3 826.1 173.9 833.5 166.5 840.9 159.1 851.35 159.1 861.75 159.1 869.15 166.5 L871.9 169.65 873.45 169.6 875.05 169.65 Q876.25 168 877.8 166.5 885.15 159.1 895.65 159.1 906.05 159.1 913.45 166.5"/>
    <path stroke="none" fill="#A16639" d="M878.75 200.35 Q880.7 198.4 882.85 197.75 885.1 197.15 886.2 198.25 887.3 199.35 886.7 201.6 886.1 203.75 884.1 205.7 L884 205.85 Q882.9 206.9 881.4 206.9 879.8 206.9 878.7 205.8 877.55 204.65 877.55 203.05 877.55 201.5 878.6 200.45 L878.75 200.35 M869.1 205.8 Q867.9 206.9 866.35 206.9 864.8 206.9 863.7 205.85 L863.6 205.7 Q861.6 203.75 861.05 201.6 860.45 199.35 861.55 198.25 862.7 197.15 864.9 197.75 867.1 198.4 869 200.35 L869.15 200.45 Q870.2 201.5 870.2 203.05 870.2 204.65 869.1 205.8"/>
    <path stroke="none" fill="#333333" d="M856.45 187.15 L856.45 187.3 856.45 187.75 Q856.15 190.15 854 191.8 851.6 193.7 848.2 193.7 844.8 193.7 842.4 191.8 840.25 190.15 840 187.75 L839.95 187.3 839.95 187.15 839.95 187.05 Q840 182.45 842.4 179.15 844.8 175.85 848.2 175.85 851.6 175.85 854 179.15 856.4 182.45 856.45 187.05 L856.45 187.15 M908.2 187.15 L908.2 187.3 908.2 187.75 Q907.95 190.15 905.75 191.8 903.35 193.7 899.95 193.7 896.55 193.7 894.15 191.8 892 190.15 891.75 187.75 L891.7 187.3 891.7 187.15 891.7 187.05 Q891.75 182.45 894.15 179.15 896.55 175.85 899.95 175.85 903.35 175.85 905.75 179.15 908.15 182.45 908.2 187.05 L908.2 187.15"/>
    <path stroke="none" fill="#FFFFFF" d="M887.55 211.1 Q890.55 209.85 893.6 211.1 896.65 212.3 897.9 215.35 899.15 218.4 897.95 221.45 896.7 224.45 893.7 225.8 876 233.4 854.6 225.95 851.45 224.85 850.05 221.9 848.6 218.9 849.7 215.85 850.75 212.7 853.75 211.25 856.75 209.85 859.8 210.9 874.95 216.2 887.55 211.1"/>
    <path stroke="none" fill="#365A66" d="M730.95 253.8 Q728.95 248.85 724.9 244.8 717.1 237 706 237 694.9 237 687.05 244.8 683 248.85 681.1 253.8 669.95 249.1 660.75 239.85 L657.55 236.45 Q642 218.8 642 194.65 642 168.1 660.75 149.35 679.5 130.65 706 130.65 732.55 130.65 751.25 149.35 754.95 153.05 757.95 157.1 770 173.35 770 194.65 770 215.9 757.95 232.15 L754.45 236.45 751.25 239.85 Q742.05 249.1 730.95 253.8"/>
    <path stroke="none" fill="#E5F3F7" d="M730.95 253.8 Q719.45 258.65 706 258.65 692.55 258.65 681.1 253.8 683 248.85 687.05 244.8 694.9 237 706 237 717.1 237 724.9 244.8 728.95 248.85 730.95 253.8"/>
    <path stroke="none" fill="#F2F9FB" d="M748.7 185.15 L748.85 185.65 Q751.8 196.7 749.55 205.65 747.2 214.65 740.95 216.3 734.7 217.95 728.15 211.4 721.6 204.8 718.65 193.75 L718.5 193.25 Q717.05 187.15 720.2 181.75 723.45 176.05 729.7 174.4 735.95 172.75 741.6 176 747 179.15 748.7 185.15 M693.6 193.3 L693.45 193.8 Q690.5 204.85 684.05 211.4 677.5 218 671.2 216.35 665 214.65 662.65 205.7 660.25 196.7 663.2 185.65 L663.35 185.15 Q665.1 179.15 670.55 176 676.2 172.75 682.45 174.45 688.75 176.1 691.95 181.75 695.15 187.2 693.6 193.3"/>
    <path stroke="none" fill="#333333" d="M688.8 192.35 L688.8 192.55 688.8 193 Q688.5 195.35 686.4 197 684 198.85 680.65 198.85 677.3 198.85 674.9 197 672.75 195.35 672.55 193 L672.5 192.55 672.5 192.35 672.5 192.3 Q672.55 187.7 674.9 184.5 677.3 181.25 680.65 181.25 684 181.25 686.4 184.5 688.75 187.7 688.8 192.3 L688.8 192.35 M739.95 192.35 L739.95 192.55 739.95 193 Q739.7 195.35 737.55 197 735.15 198.85 731.8 198.85 728.45 198.85 726.05 197 723.95 195.35 723.7 193 L723.65 192.55 723.65 192.35 723.65 192.3 Q723.7 187.7 726.05 184.5 728.45 181.25 731.8 181.25 735.15 181.25 737.55 184.5 739.9 187.7 739.95 192.3 L739.95 192.35"/>
    <path stroke="none" fill="#FF9900" d="M720.35 212.8 Q720.1 216 716.2 218.3 712 220.75 706.05 220.75 700.05 220.75 695.8 218.3 691.95 216 691.65 212.8 L691.6 211.85 Q691.6 205.9 695.8 201.65 700.05 197.45 706.05 197.45 712 197.45 716.2 201.65 720.4 205.9 720.4 211.85 L720.35 212.8"/>
    <path stroke="none" fill="#272626" d="M387.55 144.45 Q397.55 134.45 411.75 134.45 425.95 134.45 436 144.45 446 154.5 446 168.7 446 182.9 436 192.9 425.95 202.95 411.75 202.95 397.55 202.95 387.55 192.9 377.5 182.9 377.5 168.7 377.5 154.5 387.55 144.45 M391.7 172.05 Q391.7 178.95 396.6 183.85 401.5 188.75 408.4 188.75 415.35 188.75 420.25 183.85 425.15 178.95 425.15 172.05 425.15 165.1 420.25 160.2 415.35 155.35 408.4 155.35 401.5 155.35 396.6 160.2 391.7 165.1 391.7 172.05"/>
    <path stroke="none" fill="#383737" d="M391.7 172.05 Q391.7 165.1 396.6 160.2 401.5 155.35 408.4 155.35 415.35 155.35 420.25 160.2 425.15 165.1 425.15 172.05 425.15 178.95 420.25 183.85 415.35 188.75 408.4 188.75 401.5 188.75 396.6 183.85 391.7 178.95 391.7 172.05"/>
    <path stroke="none" fill="#272626" d="M352.45 144.45 Q362.5 154.5 362.5 168.7 362.5 182.9 352.45 192.9 342.45 202.95 328.25 202.95 314.05 202.95 304.05 192.9 294 182.9 294 168.7 294 154.5 304.05 144.45 314.05 134.45 328.25 134.45 342.45 134.45 352.45 144.45 M319.75 183.85 Q324.65 188.75 331.6 188.75 338.5 188.75 343.4 183.85 348.3 178.95 348.3 172.05 348.3 165.1 343.4 160.2 338.5 155.35 331.6 155.35 324.65 155.35 319.75 160.2 314.9 165.1 314.9 172.05 314.9 178.95 319.75 183.85"/>
    <path stroke="none" fill="#383737" d="M319.75 183.85 Q314.9 178.95 314.9 172.05 314.9 165.1 319.75 160.2 324.65 155.35 331.6 155.35 338.5 155.35 343.4 160.2 348.3 165.1 348.3 172.05 348.3 178.95 343.4 183.85 338.5 188.75 331.6 188.75 324.65 188.75 319.75 183.85"/>
    <path stroke="none" fill="#FFFFFF" d="M345.1 253.8 Q333.95 249.1 324.75 239.85 L321.55 236.45 Q306 218.8 306 194.65 306 168.1 324.75 149.35 343.5 130.65 370 130.65 396.55 130.65 415.25 149.35 434 168.1 434 194.65 434 218.8 418.45 236.45 L415.25 239.85 Q406.05 249.1 394.95 253.8 392.95 248.85 388.9 244.8 381.1 237 370 237 358.9 237 351.05 244.8 347 248.85 345.1 253.8"/>
    <path stroke="none" fill="#EEEEEE" d="M345.1 253.8 Q347 248.85 351.05 244.8 358.9 237 370 237 381.1 237 388.9 244.8 392.95 248.85 394.95 253.8 383.45 258.65 370 258.65 356.55 258.65 345.1 253.8"/>
    <path stroke="none" fill="#272626" d="M404 181.05 Q410.2 184.7 413.15 189.7 416.1 194.75 414.1 198.25 412.05 201.8 406.2 201.75 400.35 201.7 394.15 198.1 L393.9 197.9 Q390.5 195.95 389.5 192.1 388.45 188.15 390.45 184.65 392.5 181.1 396.45 180.05 400.25 179.05 403.7 180.9 L404 181.05"/>
    <path stroke="none" fill="#272626" d="M346.15 197.9 L345.9 198.1 Q339.65 201.7 333.85 201.75 328 201.8 325.95 198.25 323.9 194.75 326.9 189.7 329.85 184.7 336.05 181.05 L336.3 180.9 Q339.75 179.05 343.6 180.05 347.5 181.1 349.6 184.65 351.6 188.15 350.55 192.1 349.5 195.95 346.15 197.9"/>
    <path stroke="none" fill="#272626" d="M370 216.35 Q364.6 216.35 360.75 212.5 356.95 208.7 356.95 203.25 L356.95 202.35 Q357.25 199.95 360.75 198.25 364.6 196.4 370 196.4 375.4 196.4 379.25 198.25 382.7 199.95 383.05 202.35 L383.05 203.25 Q383.05 208.7 379.25 212.5 375.4 216.35 370 216.35"/>
    <path stroke="none" fill="#272626" d="M393.1 218.15 Q392.15 219.95 390.55 221.6 386.3 225.8 380.4 225.8 374.5 225.8 370.3 221.6 L370 221.3 369.7 221.6 Q365.45 225.8 359.55 225.8 353.6 225.8 349.45 221.6 347.85 220 346.9 218.25 346.7 217.9 346.85 217.6 346.9 217.25 347.25 217.05 L351.85 214.5 352.5 214.4 353.05 214.85 354.4 216.6 Q356.55 218.75 359.55 218.75 362.55 218.75 364.7 216.6 366.05 215.2 366.55 213.45 L368.6 206.15 368.95 205.7 369.45 205.5 370.35 205.5 370.85 205.7 371.2 206.15 373.35 213.35 373.4 213.4 Q373.85 215.2 375.3 216.6 377.4 218.75 380.4 218.75 383.4 218.75 385.55 216.6 L386.8 214.95 387.3 214.5 388 214.55 392.7 217 393.15 217.5 393.1 218.15"/>
    <path stroke="none" fill="#E9BB00" d="M125.85 148 Q125.8 142 129.45 135.75 133.1 129.4 138.35 126.4 143.1 123.8 146.5 125.2 L148.65 126.4 Q159.1 132.45 163.85 141.2 168.7 149.95 165.1 156.25 161.4 162.6 151.4 162.8 141.45 163 130.95 156.95 L128.9 155.7 Q125.95 153.45 125.85 148 M278.15 148 Q278.05 153.45 275.1 155.7 L273.05 156.95 Q262.55 163 252.65 162.8 242.6 162.6 238.95 156.25 235.3 149.95 240.15 141.2 244.9 132.45 255.35 126.4 L257.5 125.2 Q260.9 123.8 265.65 126.4 270.9 129.4 274.55 135.75 278.2 142 278.15 148"/>
    <path stroke="none" fill="#FFCC00" d="M250.45 236.45 Q246.65 229.3 240.5 223.15 224.6 207.25 202 207.25 179.45 207.25 163.5 223.15 157.35 229.3 153.55 236.45 138 218.8 138 194.65 138 168.1 156.75 149.35 175.5 130.65 202 130.65 228.55 130.65 247.25 149.35 266 168.1 266 194.65 266 218.8 250.45 236.45"/>
    <path stroke="none" fill="#CBA200" d="M250.45 236.45 L247.25 239.85 Q228.55 258.65 202 258.65 175.5 258.65 156.75 239.85 L153.55 236.45 Q157.35 229.3 163.5 223.15 179.45 207.25 202 207.25 224.6 207.25 240.5 223.15 246.65 229.3 250.45 236.45"/>
    <path stroke="none" fill="#A38200" d="M220.5 220.2 Q222.05 221.75 221.2 224.7 220.4 227.65 217.75 230.3 L217.6 230.45 Q216.1 231.85 214.05 231.85 211.9 231.85 210.4 230.35 208.9 228.85 208.9 226.7 208.9 224.6 210.3 223.15 L210.45 223 Q213.1 220.35 216.05 219.55 219 218.7 220.5 220.2 M186.4 230.45 L186.25 230.3 Q183.6 227.65 182.8 224.7 181.95 221.75 183.5 220.2 185 218.7 187.95 219.55 190.9 220.35 193.55 223 L193.7 223.15 Q195.1 224.6 195.1 226.7 195.1 228.85 193.6 230.35 192.1 231.85 189.95 231.85 187.9 231.85 186.4 230.45"/>
    <path stroke="none" fill="#543209" d="M180.35 194.4 L180.35 194.6 180.35 195.1 Q180.05 198.05 177.4 200.1 174.45 202.4 170.3 202.4 166.15 202.4 163.2 200.1 160.55 198.05 160.3 195.1 L160.25 194.6 160.25 194.4 160.25 194.25 Q160.3 188.6 163.2 184.6 166.15 180.55 170.3 180.55 174.45 180.55 177.4 184.6 180.3 188.6 180.35 194.25 L180.35 194.4"/>
    <path stroke="none" fill="#543209" d="M243.75 194.4 L243.75 194.6 243.75 195.1 Q243.45 198.05 240.8 200.1 237.85 202.4 233.7 202.4 229.5 202.4 226.55 200.1 223.9 198.05 223.65 195.1 L223.6 194.6 223.6 194.4 223.6 194.25 Q223.65 188.6 226.55 184.6 229.5 180.55 233.7 180.55 237.85 180.55 240.8 184.6 243.7 188.6 243.75 194.25 L243.75 194.4"/>
    <path stroke="none" fill="#E9BB00" d="M197.6 155.85 L192.65 162.65 Q192.15 163.3 191.35 163.55 190.5 163.8 189.7 163.55 L181.75 160.95 Q180.9 160.7 180.4 160.05 179.9 159.35 179.9 158.45 L179.9 150.05 Q179.9 149.2 180.4 148.55 180.9 147.85 181.75 147.55 L189.7 145 Q190.5 144.7 191.35 145 L192.65 145.95 197.6 152.75 Q198.05 153.45 198.05 154.3 198.05 155.15 197.6 155.85 M189 179.5 L187.7 173.4 Q187.5 172.5 187.85 171.75 188.2 170.9 188.95 170.5 L194.4 167.35 Q195.15 166.95 196 167.05 196.85 167.1 197.5 167.7 L202.15 171.9 Q202.75 172.45 202.95 173.35 203.1 174.15 202.75 174.95 L200.2 180.65 Q199.85 181.45 199.1 181.9 198.35 182.35 197.5 182.25 L191.3 181.6 Q190.45 181.45 189.8 180.95 189.2 180.3 189 179.5 M210.25 171.8 L200.5 164.75 Q199.8 164.2 199.55 163.4 199.3 162.6 199.55 161.8 L203.25 150.35 Q203.5 149.5 204.2 149 204.85 148.5 205.75 148.5 L217.8 148.5 Q218.7 148.5 219.4 149 220.05 149.5 220.3 150.35 L224 161.8 Q224.25 162.6 224 163.4 223.75 164.2 223.1 164.75 L213.4 171.8 211.8 172.3 Q210.95 172.3 210.25 171.8"/>
    <path stroke="none" fill="#CBA200" d="M227.5 98.55 Q231.7 99.7 233.95 103.5 236.15 107.3 235 111.6 233.85 115.8 230.05 118.05 228.5 118.95 226.9 119.3 L220.35 137.95 220.35 138 Q219.85 139.25 218.7 139.85 L218.7 139.9 216.3 140.15 216.35 140.15 Q215.15 139.9 214.4 138.7 213.7 137.6 214 136.25 L217.65 116.85 215.5 114.2 215.5 114.15 Q213.3 110.35 214.5 106.1 215.6 101.8 219.4 99.6 223.2 97.4 227.5 98.55 M169.05 111.6 Q167.9 107.3 170.1 103.5 172.3 99.7 176.55 98.55 180.85 97.4 184.6 99.65 L184.65 99.65 Q188.4 101.85 189.55 106.1 190.7 110.4 188.55 114.2 L188.55 114.25 186.4 116.85 190.1 136.3 190.05 136.25 Q190.3 137.6 189.6 138.75 L189.65 138.75 Q188.95 139.8 187.75 140.2 L185.35 139.95 185.25 139.9 Q184.2 139.3 183.75 138 L183.7 138 177.2 119.3 Q175.55 118.95 174 118.1 170.2 115.85 169.05 111.6"/>
    <path stroke="none" fill="#BDBDBD" d="M163.15 286.75 Q170.8 284.7 180.75 299.95 190.3 314.65 196.55 337.2 L196.65 337.7 Q198.6 344.8 194.45 351.3 190.35 357.8 182.7 359.85 175 361.9 168.2 358.35 161.35 354.8 159.45 347.7 L159.3 347.15 Q153.5 324.5 154.45 307 155.4 288.8 163.15 286.75 M240.85 286.75 Q248.55 288.8 249.6 306.95 250.5 324.5 244.65 347.15 L244.55 347.65 Q242.6 354.75 235.85 358.3 229 361.9 221.3 359.85 213.6 357.75 209.5 351.25 205.4 344.75 207.3 337.65 L207.45 337.15 Q213.7 314.65 223.25 299.9 233.2 284.65 240.85 286.75"/>
    <path stroke="none" fill="#D2D0D0" d="M153.55 434.45 Q138 416.8 138 392.65 138 366.1 156.75 347.35 175.5 328.65 202 328.65 228.55 328.65 247.25 347.35 266 366.1 266 392.65 266 416.8 250.45 434.45 L247.25 437.85 Q228.55 456.65 202 456.65 175.5 456.65 156.75 437.85 L153.55 434.45"/>
    <path stroke="none" fill="#B1B1B1" d="M212.6 418.25 Q212.6 422.9 209.3 426.15 206.05 429.5 201.4 429.5 196.7 429.5 193.4 426.15 190.15 422.9 190.15 418.25 190.15 413.6 193.4 410.25 196.7 407 201.4 407 206.05 407 209.3 410.25 212.6 413.6 212.6 418.25"/>
    <path stroke="none" fill="#FFFFFF" d="M189.85 393.75 L215.35 393.75 Q221.55 393.85 226 398.3 230.6 402.9 230.6 409.35 230.6 415.85 226 420.45 221.4 425 214.95 425 208.45 425 203.9 420.45 L202.2 418.4 200.5 420.45 Q195.9 425 189.4 425 182.95 425 178.35 420.45 173.8 415.85 173.8 409.35 173.8 402.9 178.35 398.3 182.95 393.75 189.4 393.75 L189.85 393.75"/>
    <path stroke="none" fill="#EE9FEE" d="M211.55 385.85 Q214.9 387.5 215.2 389.8 L215.25 390.7 Q215.25 395.9 211.55 399.55 207.9 403.25 202.7 403.25 197.5 403.25 193.8 399.55 190.15 395.9 190.15 390.7 L190.15 389.8 Q190.45 387.5 193.8 385.85 197.5 384.05 202.7 384.05 207.9 384.05 211.55 385.85"/>
    <path stroke="none" fill="#543209" d="M184.1 383.95 L184.1 384.1 184.1 384.6 Q183.85 387.1 181.5 388.85 178.95 390.85 175.35 390.85 171.75 390.85 169.2 388.85 166.9 387.1 166.65 384.6 L166.65 384.1 166.65 383.95 166.65 383.8 Q166.65 378.95 169.2 375.45 171.75 371.95 175.35 371.95 178.95 371.95 181.5 375.45 184.05 378.95 184.1 383.8 L184.1 383.95"/>
    <path stroke="none" fill="#543209" d="M239 383.95 L239 384.1 239 384.6 Q238.7 387.1 236.4 388.85 233.85 390.85 230.25 390.85 226.65 390.85 224.1 388.85 221.8 387.1 221.55 384.6 L221.55 384.1 221.55 383.95 221.55 383.8 Q221.55 378.95 224.1 375.45 226.65 371.95 230.25 371.95 233.85 371.95 236.4 375.45 238.95 378.95 239 383.8 L239 383.95"/>
    <path stroke="none" fill="#B1B1B1" d="M241.05 401.6 L240.55 405.55 240.3 406 239.85 406.1 Q230.75 404.9 222.2 407.95 L221.75 407.9 221.35 407.5 220.05 403.85 Q219.95 403.55 220.1 403.3 L220.45 403 Q230.15 399.5 240.5 400.9 240.8 400.95 240.95 401.15 L241.05 401.6 M221.35 409.55 Q232.65 409.45 238.1 415.1 L238.3 415.55 238.1 416.05 235.3 418.8 234.85 419 Q234.55 419 234.4 418.8 230.1 414.75 221.35 414.8 L220.9 414.65 220.7 414.15 220.7 410.25 Q220.65 409.95 220.85 409.75 L221.35 409.55 M182.75 409.55 L183.25 409.75 183.4 410.25 183.35 414.15 183.15 414.65 182.7 414.8 Q174 414.75 169.65 418.8 169.5 419 169.2 419 L168.8 418.8 166 416.05 165.75 415.55 166 415.1 Q171.4 409.45 182.75 409.55 M162.95 401.6 L163.1 401.15 Q163.25 400.95 163.55 400.9 173.95 399.5 183.6 403 L184 403.3 184 403.85 182.7 407.5 182.35 407.9 181.85 407.95 Q173.35 404.9 164.25 406.1 L163.8 406 163.55 405.55 162.95 401.6"/>
    <path stroke="none" fill="#D23007" d="M366 449.05 L366 470.1 Q366 473.2 363.6 473.9 L352.8 463.1 Q350 460.3 347.2 463.15 L336.4 473.9 Q334 473.2 334 470.1 L334 449.05 366 449.05"/>
    <path stroke="none" fill="#FFFFFF" d="M313.85 445.9 L331.15 452.15 324.85 457.5 Q322.5 459.45 320.15 455.75 L313.85 445.9 M386.15 445.9 L379.85 455.75 Q377.5 459.45 375.15 457.5 L368.85 452.15 386.15 445.9"/>
    <path stroke="none" fill="#66CC33" d="M301.55 434.45 Q286 416.8 286 392.65 286 366.1 304.75 347.35 323.5 328.65 350 328.65 376.55 328.65 395.25 347.35 414 366.1 414 392.65 414 416.8 398.45 434.45 394.65 427.3 388.5 421.15 372.6 405.25 350 405.25 327.45 405.25 311.5 421.15 305.35 427.3 301.55 434.45"/>
    <path stroke="none" fill="#79DB48" d="M301.55 434.45 Q305.35 427.3 311.5 421.15 327.45 405.25 350 405.25 372.6 405.25 388.5 421.15 394.65 427.3 398.45 434.45 L395.25 437.85 Q376.55 456.65 350 456.65 323.5 456.65 304.75 437.85 L301.55 434.45"/>
    <path stroke="none" fill="#333333" d="M385.55 386.15 L385.75 386.15 386.3 386.15 Q389.25 386.45 391.4 389.2 393.75 392.2 393.75 396.5 393.75 400.75 391.4 403.8 389.25 406.5 386.3 406.75 L385.75 406.8 385.55 406.8 385.4 406.8 380.35 406.1 Q377.65 405.35 375.5 403.8 371.35 400.75 371.35 396.5 371.35 392.2 375.5 389.2 377.65 387.6 380.35 386.8 L385.4 386.15 385.55 386.15 M314.45 406.8 L314.25 406.8 313.7 406.8 Q310.75 406.5 308.6 403.8 306.25 400.75 306.25 396.5 306.25 392.2 308.6 389.2 310.75 386.45 313.7 386.2 L314.25 386.15 314.45 386.15 314.6 386.15 Q317.35 386.15 319.65 386.85 322.35 387.6 324.5 389.2 328.65 392.2 328.65 396.5 328.65 400.75 324.5 403.8 322.35 405.35 319.65 406.15 L314.6 406.8 314.45 406.8"/>
    <path stroke="none" fill="#549F2E" d="M370.6 419 Q372.2 420.6 371.35 423.7 370.5 426.85 367.7 429.6 L367.55 429.75 Q366 431.25 363.8 431.25 361.55 431.25 359.95 429.65 358.35 428.05 358.35 425.8 358.35 423.6 359.85 422.05 L360 421.9 Q362.8 419.15 365.9 418.3 369 417.4 370.6 419 M340.05 429.65 Q338.45 431.25 336.2 431.25 334.05 431.25 332.45 429.75 L332.3 429.6 Q329.55 426.85 328.65 423.7 327.8 420.6 329.4 419 331 417.4 334.1 418.3 337.2 419.15 340 421.9 L340.15 422.05 Q341.65 423.6 341.65 425.8 341.65 428.05 340.05 429.65"/>
    <path stroke="none" fill="#79DB48" d="M374 355.25 Q373.6 356.25 372.65 356.75 351.05 367.7 327.45 356.8 L327.45 356.75 Q326.35 356.2 326 355.2 325.65 354.2 326 353.3 326.35 352.15 327.5 351.7 L327.45 351.7 Q351.05 340.7 372.65 351.75 L372.6 351.7 Q373.6 352.1 374.05 353.25 L374.05 353.3 Q374.35 354.2 374.05 355.2 L374 355.25 M335.45 374.3 Q334.5 373.85 334.25 373.05 333.9 372.2 334.2 371.5 334.45 370.5 335.5 370.1 350.7 363 364.65 370.15 L364.7 370.15 Q365.55 370.55 365.85 371.5 366.1 372.2 365.8 373.05 L365.85 372.95 Q365.55 373.85 364.7 374.25 L364.65 374.3 Q350.65 381.35 335.4 374.3 L335.45 374.3"/>
    <path stroke="none" fill="#D987D9" d="M647.2 362.3 Q640.4 372.85 631.1 377.9 626.15 380.65 621.85 381.15 617.05 381.65 613 379.35 605.45 375 605.25 363 605 351.1 612.25 338.55 L613.7 336.15 Q616.4 332.55 622.9 332.45 630.1 332.4 637.6 336.75 645.2 341.1 648.8 347.35 651.9 353.05 650.2 357.15 L648.8 359.7 647.2 362.3 M706.85 362.3 L705.25 359.7 703.8 357.15 Q702.1 353.05 705.25 347.35 708.8 341.1 716.4 336.75 723.9 332.4 731.1 332.45 737.6 332.55 740.3 336.15 L741.75 338.55 Q749 351.1 748.75 363 748.55 375 741 379.35 736.95 381.65 732.15 381.15 727.85 380.65 722.9 377.9 713.6 372.85 706.85 362.3"/>
    <path stroke="none" fill="#EE9FEE" d="M628.55 434.45 Q613 416.8 613 392.65 613 366.1 631.75 347.35 650.5 328.65 677 328.65 703.55 328.65 722.25 347.35 741 366.1 741 392.65 741 416.8 725.45 434.45 L722.25 437.85 Q703.55 456.65 677 456.65 650.5 456.65 631.75 437.85 L628.55 434.45"/>
    <path stroke="none" fill="#CD76CD" d="M677 390 Q686.45 390 693.1 396.65 699.75 403.35 699.75 412.75 699.75 422.2 693.1 428.85 686.45 435.5 677 435.5 667.6 435.5 660.9 428.85 654.25 422.2 654.25 412.75 654.25 403.35 660.9 396.65 667.6 390 677 390"/>
    <path stroke="none" fill="#EE9FEE" d="M682.55 412.45 Q684.75 410.25 687.2 409.5 689.75 408.85 691 410.1 692.25 411.35 691.6 413.9 690.9 416.35 688.65 418.55 L688.55 418.7 Q687.3 419.9 685.55 419.9 683.75 419.9 682.5 418.65 681.2 417.35 681.2 415.55 681.2 413.75 682.4 412.55 L682.55 412.45 M671.5 412.45 L671.65 412.55 Q672.85 413.75 672.85 415.55 672.85 417.35 671.6 418.65 670.25 419.9 668.45 419.9 666.7 419.9 665.45 418.7 L665.35 418.55 Q663.1 416.35 662.45 413.9 661.75 411.35 663.05 410.1 664.3 408.85 666.8 409.5 669.3 410.25 671.5 412.45"/>
    <path stroke="none" fill="#333333" d="M651.75 395.9 L651.75 396.15 651.75 396.75 Q651.4 400.15 648.3 402.55 644.85 405.25 640 405.25 635.15 405.25 631.7 402.55 628.6 400.15 628.3 396.75 L628.25 396.15 628.25 395.9 628.25 395.75 Q628.3 389.15 631.7 384.5 635.15 379.75 640 379.75 644.85 379.75 648.3 384.5 651.7 389.15 651.75 395.75 L651.75 395.9 M725.75 395.9 L725.75 396.15 725.75 396.75 Q725.4 400.15 722.3 402.55 718.85 405.25 714 405.25 709.15 405.25 705.7 402.55 702.6 400.15 702.3 396.75 L702.25 396.15 702.25 395.9 702.25 395.75 Q702.3 389.15 705.7 384.5 709.15 379.75 714 379.75 718.85 379.75 722.3 384.5 725.7 389.15 725.75 395.75 L725.75 395.9"/>
    <path stroke="none" fill="#4178C2" d="M455.5 324.85 Q460.35 324.65 462.45 327.1 L463.85 329.4 Q469.25 338.75 468.85 347.85 468.35 356.9 462.35 360.4 456.3 363.9 448.25 359.7 440.15 355.55 434.75 346.2 L433.45 343.8 Q432.35 340.8 434.95 336.7 437.9 332 443.95 328.5 450 325.05 455.5 324.85 M542.45 324.85 Q548.05 325.05 554.05 328.5 560.05 332 563.05 336.7 565.65 340.8 564.55 343.8 L563.25 346.2 Q557.85 355.55 549.75 359.7 541.65 363.9 535.65 360.4 529.65 356.9 529.2 347.85 528.75 338.75 534.15 329.4 L535.55 327.1 Q537.65 324.65 542.45 324.85"/>
    <path stroke="none" fill="#528CDB" d="M450.55 434.45 Q435 416.8 435 392.65 435 366.1 453.75 347.35 472.5 328.65 499 328.65 525.55 328.65 544.25 347.35 563 366.1 563 392.65 563 416.8 547.45 434.45 543.65 427.3 537.5 421.15 521.6 405.25 499 405.25 476.45 405.25 460.5 421.15 454.35 427.3 450.55 434.45"/>
    <path stroke="none" fill="#4178C2" d="M450.55 434.45 Q454.35 427.3 460.5 421.15 476.45 405.25 499 405.25 521.6 405.25 537.5 421.15 543.65 427.3 547.45 434.45 L544.25 437.85 Q525.55 456.65 499 456.65 472.5 456.65 453.75 437.85 L450.55 434.45 M517.5 418.2 Q516 416.7 513.05 417.55 510.1 418.35 507.45 421 L507.3 421.15 Q505.9 422.6 505.9 424.7 505.9 426.85 507.4 428.35 508.9 429.85 511.05 429.85 513.1 429.85 514.6 428.45 L514.75 428.3 Q517.4 425.65 518.2 422.7 519.05 419.75 517.5 418.2 M483.4 428.45 Q484.9 429.85 486.95 429.85 489.1 429.85 490.6 428.35 492.1 426.85 492.1 424.7 492.1 422.6 490.7 421.15 L490.55 421 Q487.9 418.35 484.95 417.55 482 416.7 480.5 418.2 478.95 419.75 479.8 422.7 480.6 425.65 483.25 428.3 L483.4 428.45"/>
    <path stroke="none" fill="#3164A8" d="M483.4 428.45 L483.25 428.3 Q480.6 425.65 479.8 422.7 478.95 419.75 480.5 418.2 482 416.7 484.95 417.55 487.9 418.35 490.55 421 L490.7 421.15 Q492.1 422.6 492.1 424.7 492.1 426.85 490.6 428.35 489.1 429.85 486.95 429.85 484.9 429.85 483.4 428.45 M517.5 418.2 Q519.05 419.75 518.2 422.7 517.4 425.65 514.75 428.3 L514.6 428.45 Q513.1 429.85 511.05 429.85 508.9 429.85 507.4 428.35 505.9 426.85 505.9 424.7 505.9 422.6 507.3 421.15 L507.45 421 Q510.1 418.35 513.05 417.55 516 416.7 517.5 418.2"/>
    <path stroke="none" fill="#333333" d="M476.85 392.5 L476.85 392.7 476.85 393.25 Q476.55 396.2 473.85 398.3 470.8 400.7 466.55 400.7 462.3 400.7 459.25 398.3 456.55 396.2 456.3 393.25 L456.25 392.7 456.25 392.5 456.25 392.35 Q456.3 386.55 459.25 382.5 462.3 378.3 466.55 378.3 470.8 378.3 473.85 382.5 476.8 386.55 476.85 392.35 L476.85 392.5 M541.75 392.5 L541.75 392.7 541.75 393.25 Q541.45 396.2 538.7 398.3 535.7 400.7 531.45 400.7 527.2 400.7 524.15 398.3 521.45 396.2 521.2 393.25 L521.15 392.7 521.15 392.5 521.15 392.35 Q521.2 386.55 524.15 382.5 527.2 378.3 531.45 378.3 535.7 378.3 538.7 382.5 541.7 386.55 541.75 392.35 L541.75 392.5"/>
  </g>
</svg>