<svg xmlns="http://www.w3.org/2000/svg" xmlns:xlink="http://www.w3.org/1999/xlink">
  <defs/>
  <g>
    <path stroke="none" fill="#D2D0D0" d="M816.55 434.45 Q801 416.8 801 392.65 801 366.1 819.75 347.35 838.5 328.65 865 328.65 891.55 328.65 910.25 347.35 929 366.1 929 392.65 929 416.8 913.45 434.45 L910.25 437.85 Q891.55 456.65 865 456.65 838.5 456.65 819.75 437.85 L816.55 434.45"/>
    <path stroke="none" fill="#BDB6B6" d="M881.4 404.05 Q885.75 408.85 885.35 414.5 L884.9 416.7 873.75 452.95 Q873.45 454 870.8 454.65 L865.05 455.25 859.25 454.65 Q856.7 454 856.4 452.95 L845.2 416.7 Q844.85 415.6 844.8 414.5 844.4 408.85 848.6 404.05 854.75 397.35 865.05 397.35 875.4 397.35 881.4 404.05"/>
    <path stroke="none" fill="#FFFFFF" d="M909.95 429.55 Q910.2 430.1 910 430.85 L909.95 430.95 909.25 431.85 906.45 434.1 906.35 434.15 905.55 434.5 905.35 434.55 904.4 434.4 904.35 434.4 903.4 433.65 Q894.75 422.2 881.05 422.8 L880.95 422.8 880 422.6 879.95 422.55 879.2 421.8 879.15 421.8 878.85 420.75 Q878.55 410.35 893.45 407.8 L894.75 408 Q904.65 412.05 909.95 429.55 M835.3 408.05 L836.55 407.85 Q851.45 410.35 851.15 420.75 L851.15 420.8 850.85 421.8 850.85 421.85 850.1 422.6 850 422.6 849.05 422.85 848.95 422.85 Q835.25 422.25 826.6 433.7 L825.65 434.4 825.65 434.45 824.7 434.6 824.45 434.55 823.7 434.2 823.6 434.15 820.75 431.9 820.05 431 820 430.9 Q819.8 430.15 820.05 429.55 825.35 412.1 835.3 408.05"/>
    <path stroke="none" fill="#333333" d="M842.65 396.3 L842.65 396.55 842.65 397.05 Q842.3 400.1 839.55 402.2 836.5 404.6 832.2 404.6 827.9 404.6 824.85 402.2 822.1 400.1 821.85 397.05 L821.8 396.55 821.8 396.3 821.8 396.2 Q821.85 390.35 824.85 386.2 827.9 382 832.2 382 836.5 382 839.55 386.2 842.6 390.35 842.65 396.2 L842.65 396.3 M908.25 396.3 L908.25 396.55 908.25 397.05 Q907.95 400.1 905.2 402.2 902.1 404.6 897.8 404.6 893.5 404.6 890.45 402.2 887.7 400.1 887.45 397.05 L887.4 396.55 887.4 396.3 887.4 396.2 Q887.45 390.35 890.45 386.2 893.5 382 897.8 382 902.1 382 905.2 386.2 908.2 390.35 908.25 396.2 L908.25 396.3"/>
    <path stroke="none" fill="#D23007" d="M513.1 253.8 Q501.95 249.1 492.75 239.85 L489.55 236.45 Q474 218.8 474 194.65 474 168.1 492.75 149.35 511.5 130.65 538 130.65 564.55 130.65 583.25 149.35 602 168.1 602 194.65 602 218.8 586.45 236.45 L583.25 239.85 Q574.05 249.1 562.95 253.8 560.95 248.85 556.9 244.8 549.1 237 538 237 526.9 237 519.05 244.8 515 248.85 513.1 253.8"/>
    <path stroke="none" fill="#FFCC00" d="M513.1 253.8 Q515 248.85 519.05 244.8 526.9 237 538 237 549.1 237 556.9 244.8 560.95 248.85 562.95 253.8 551.45 258.65 538 258.65 524.55 258.65 513.1 253.8"/>
    <path stroke="none" fill="#BB2905" d="M552.45 148.7 Q556.35 155.45 557.1 161.35 558 167.2 555.25 168.75 552.5 170.35 547.8 166.7 543.2 163.05 539.3 156.3 L538.4 154.75 Q536.8 151.55 537.2 148.25 537.6 144.6 540.35 143 543.1 141.45 546.5 142.9 549.5 144.2 551.5 147.2 L552.45 148.7"/>
    <path stroke="none" fill="#BB2905" d="M532.75 156.4 Q530.2 160.9 527.05 163.3 524 165.75 522.2 164.65 520.4 163.65 520.95 159.75 521.5 155.85 524.05 151.4 L524.65 150.35 Q526 148.35 528 147.5 530.25 146.5 532.05 147.55 533.85 148.65 534.15 151.1 534.4 153.2 533.35 155.35 L532.75 156.4"/>
    <path stroke="none" fill="#FFFFFF" d="M528.1 198.15 L528 198.75 Q524.45 211.85 516.7 219.7 509 227.55 501.6 225.5 494.15 223.5 491.3 212.9 488.5 202.2 492.05 189.1 L492.15 188.55 Q494.25 181.4 500.75 177.7 507.4 173.8 514.9 175.75 522.3 177.8 526.2 184.45 529.9 191 528.1 198.15 M584.15 189.1 Q587.7 202.2 584.9 212.9 582.1 223.5 574.65 225.5 567.2 227.55 559.5 219.7 551.8 211.85 548.2 198.75 L548.15 198.15 Q546.35 191 550 184.45 553.9 177.8 561.35 175.75 568.8 173.8 575.45 177.7 581.95 181.4 584.05 188.55 L584.15 189.1"/>
    <path stroke="none" fill="#333333" d="M521 195.35 L521 195.5 521 195.95 Q520.75 198.25 518.65 199.9 516.3 201.75 513 201.75 509.7 201.75 507.35 199.9 505.25 198.25 505.05 195.95 L505 195.5 505 195.35 505 195.25 Q505.05 190.75 507.35 187.6 509.7 184.35 513 184.35 516.3 184.35 518.65 187.6 520.95 190.75 521 195.25 L521 195.35 M571.4 195.35 L571.4 195.5 571.4 195.95 Q571.2 198.25 569.05 199.9 566.7 201.75 563.4 201.75 560.1 201.75 557.75 199.9 555.65 198.25 555.45 195.95 L555.4 195.5 555.4 195.35 555.4 195.25 Q555.45 190.75 557.75 187.6 560.1 184.35 563.4 184.35 566.7 184.35 569.05 187.6 571.4 190.75 571.4 195.25 L571.4 195.35"/>
    <path stroke="none" fill="#5D9CF3" d="M555.9 223.45 Q538.05 228 520.15 223.45 L520.05 222.6 519.95 220.65 519.95 210.8 Q519.95 208.45 520.5 206.3 L520.75 205.45 520.8 205.3 Q522.05 201.3 525.2 198.15 530.55 192.85 538.05 192.85 545.55 192.85 550.8 198.15 554 201.3 555.25 205.3 L555.3 205.45 555.5 206.3 Q556.1 208.45 556.1 210.8 L556.1 220.65 556 222.6 555.9 223.45"/>
    <path stroke="none" fill="#397EDE" d="M555.9 223.45 Q555.05 229.15 550.8 233.4 545.55 238.7 538.05 238.7 530.55 238.7 525.2 233.4 520.95 229.15 520.15 223.45 538.05 228 555.9 223.45"/>
    <path stroke="none" fill="#A16639" d="M849.1 253.8 Q837.95 249.1 828.75 239.85 L825.55 236.45 Q810 218.8 810 194.65 810 168.1 828.75 149.35 847.5 130.65 874 130.65 900.55 130.65 919.25 149.35 922.95 153.05 925.95 157.1 938 173.35 938 194.65 938 215.9 925.95 232.15 L922.45 236.45 919.25 239.85 Q910.05 249.1 898.95 253.8 887.45 258.65 874 258.65 860.55 258.65 849.1 253.8"/>
    <path stroke="none" fill="#BF8559" d="M913.45 166.5 Q920.85 173.9 920.85 184.3 920.85 194.75 913.45 202.2 L909.2 205.6 Q909.1 220.25 898.75 230.6 888.25 241.05 873.45 241.05 858.7 241.05 848.2 230.6 837.8 220.25 837.75 205.6 L833.55 202.2 833.5 202.2 Q826.1 194.75 826.1 184.3 826.1 173.9 833.5 166.5 840.9 159.1 851.35 159.1 861.75 159.1 869.15 166.5 L871.9 169.65 873.45 169.6 875.05 169.65 Q876.25 168 877.8 166.5 885.15 159.1 895.65 159.1 906.05 159.1 913.45 166.5"/>
    <path stroke="none" fill="#A16639" d="M878.75 200.35 Q880.7 198.4 882.85 197.75 885.1 197.15 886.2 198.25 887.3 199.35 886.7 201.6 886.1 203.75 884.1 205.7 L884 205.85 Q882.9 206.9 881.4 206.9 879.8 206.9 878.7 205.8 877.55 204.65 877.55 203.05 877.55 201.5 878.6 200.45 L878.75 200.35 M869.1 205.8 Q867.9 206.9 866.35 206.9 864.8 206.9 863.7 205.85 L863.6 205.7 Q861.6 203.75 861.05 201.6 860.45 199.35 861.55 198.25 862.7 197.15 864.9 197.75 867.1 198.4 869 200.35 L869.15 200.45 Q870.2 201.5 870.2 203.05 870.2 204.65 869.1 205.8"/>
    <path stroke="none" fill="#333333" d="M856.45 187.15 L856.45 187.3 856.45 187.75 Q856.15 190.15 854 191.8 851.6 193.7 848.2 193.7 844.8 193.7 842.4 191.8 840.25 190.15 840 187.75 L839.95 187.3 839.95 187.15 839.95 187.05 Q840 182.45 842.4 179.15 844.8 175.85 848.2 175.85 851.6 175.85 854 179.15 856.4 182.45 856.45 187.05 L856.45 187.15 M908.2 187.15 L908.2 187.3 908.2 187.75 Q907.95 190.15 905.75 191.8 903.35 193.7 899.95 193.7 896.55 193.7 894.15 191.8 892 190.15 891.75 187.75 L891.7 187.3 891.7 187.15 891.7 187.05 Q891.75 182.45 894.15 179.15 896.55 175.85 899.95 175.85 903.35 175.85 905.75 179.15 908.15 182.45 908.2 187.05 L908.2 187.15"/>
    <path stroke="none" fill="#FFFFFF" d="M887.55 211.1 Q890.55 209.85 893.6 211.1 896.65 212.3 897.9 215.35 899.15 218.4 897.95 221.45 896.7 224.45 893.7 225.8 876 233.4 854.6 225.95 851.45 224.85 850.05 221.9 848.6 218.9 849.7 215.85 850.75 212.7 853.75 211.25 856.75 209.85 859.8 210.9 874.95 216.2 887.55 211.1"/>
    <path stroke="none" fill="#365A66" d="M681.1 253.8 Q669.95 249.1 660.75 239.85 L657.55 236.45 Q642 218.8 642 194.65 642 168.1 660.75 149.35 679.5 130.65 706 130.65 732.55 130.65 751.25 149.35 754.95 153.05 757.95 157.1 770 173.35 770 194.65 770 215.9 757.95 232.15 L754.45 236.45 751.25 239.85 Q742.05 249.1 730.95 253.8 728.95 248.85 724.9 244.8 717.1 237 706 237 694.9 237 687.05 244.8 683 248.85 681.1 253.8"/>
    <path stroke="none" fill="#E5F3F7" d="M681.1 253.8 Q683 248.85 687.05 244.8 694.9 237 706 237 717.1 237 724.9 244.8 728.95 248.85 730.95 253.8 719.45 258.65 706 258.65 692.55 258.65 681.1 253.8"/>
    <path stroke="none" fill="#F2F9FB" d="M748.7 185.15 L748.85 185.65 Q751.8 196.7 749.55 205.65 747.2 214.65 740.95 216.3 734.7 217.95 728.15 211.4 721.6 204.8 718.65 193.75 L718.5 193.25 Q717.05 187.15 720.2 181.75 723.45 176.05 729.7 174.4 735.95 172.75 741.6 176 747 179.15 748.7 185.15 M693.6 193.3 L693.45 193.8 Q690.5 204.85 684.05 211.4 677.5 218 671.2 216.35 665 214.65 662.65 205.7 660.25 196.7 663.2 185.65 L663.35 185.15 Q665.1 179.15 670.55 176 676.2 172.75 682.45 174.45 688.75 176.1 691.95 181.75 695.15 187.2 693.6 193.3"/>
    <path stroke="none" fill="#333333" d="M688.8 192.35 L688.8 192.55 688.8 193 Q688.5 195.35 686.4 197 684 198.85 680.65 198.85 677.3 198.85 674.9 197 672.75 195.35 672.55 193 L672.5 192.55 672.5 192.35 672.5 192.3 Q672.55 187.7 674.9 184.5 677.3 181.25 680.65 181.25 684 181.25 686.4 184.5 688.75 187.7 688.8 192.3 L688.8 192.35 M739.95 192.35 L739.95 192.55 739.95 193 Q739.7 195.35 737.55 197 735.15 198.85 731.8 198.85 728.45 198.85 726.05 197 723.95 195.35 723.7 193 L723.65 192.55 723.65 192.35 723.65 192.3 Q723.7 187.7 726.05 184.5 728.45 181.25 731.8 181.25 735.15 181.25 737.55 184.5 739.9 187.7 739.95 192.3 L739.95 192.35"/>
    <path stroke="none" fill="#FF9900" d="M720.35 212.8 Q720.1 216 716.2 218.3 712 220.75 706.05 220.75 700.05 220.75 695.8 218.3 691.95 216 691.65 212.8 L691.6 211.85 Q691.6 205.9 695.8 201.65 700.05 197.45 706.05 197.45 712 197.45 716.2 201.65 720.4 205.9 720.4 211.85 L720.35 212.8"/>
    <path stroke="none" fill="#FFFFFF" d="M394.95 253.8 Q392.95 248.85 388.9 244.8 381.1 237 370 237 358.9 237 351.05 244.8 347 248.85 345.1 253.8 333.95 249.1 324.75 239.85 L321.55 236.45 Q306 218.8 306 194.65 306 168.1 324.75 149.35 343.5 130.65 370 130.65 396.55 130.65 415.25 149.35 434 168.1 434 194.65 434 218.8 418.45 236.45 L415.25 239.85 Q406.05 249.1 394.95 253.8"/>
    <path stroke="none" fill="#EEEEEE" d="M394.95 253.8 Q383.45 258.65 370 258.65 356.55 258.65 345.1 253.8 347 248.85 351.05 244.8 358.9 237 370 237 381.1 237 388.9 244.8 392.95 248.85 394.95 253.8"/>
    <path stroke="none" fill="#272626" d="M404 181.05 Q410.2 184.7 413.15 189.7 416.1 194.75 414.1 198.25 412.05 201.8 406.2 201.75 400.35 201.7 394.15 198.1 L393.9 197.9 Q390.5 195.95 389.5 192.1 388.45 188.15 390.45 184.65 392.5 181.1 396.45 180.05 400.25 179.05 403.7 180.9 L404 181.05"/>
    <path stroke="none" fill="#272626" d="M346.15 197.9 L345.9 198.1 Q339.65 201.7 333.85 201.75 328 201.8 325.95 198.25 323.9 194.75 326.9 189.7 329.85 184.7 336.05 181.05 L336.3 180.9 Q339.75 179.05 343.6 180.05 347.5 181.1 349.6 184.65 351.6 188.15 350.55 192.1 349.5 195.95 346.15 197.9"/>
    <path stroke="none" fill="#272626" d="M370 216.35 Q364.6 216.35 360.75 212.5 356.95 208.7 356.95 203.25 L356.95 202.35 Q357.25 199.95 360.75 198.25 364.6 196.4 370 196.4 375.4 196.4 379.25 198.25 382.7 199.95 383.05 202.35 L383.05 203.25 Q383.05 208.7 379.25 212.5 375.4 216.35 370 216.35"/>
    <path stroke="none" fill="#272626" d="M393.1 218.15 Q392.15 219.95 390.55 221.6 386.3 225.8 380.4 225.8 374.5 225.8 370.3 221.6 L370 221.3 369.7 221.6 Q365.45 225.8 359.55 225.8 353.6 225.8 349.45 221.6 347.85 220 346.9 218.25 346.7 217.9 346.85 217.6 346.9 217.25 347.25 217.05 L351.85 214.5 352.5 214.4 353.05 214.85 354.4 216.6 Q356.55 218.75 359.55 218.75 362.55 218.75 364.7 216.6 366.05 215.2 366.55 213.45 L368.6 206.15 368.95 205.7 369.45 205.5 370.35 205.5 370.85 205.7 371.2 206.15 373.35 213.35 373.4 213.4 Q373.85 215.2 375.3 216.6 377.4 218.75 380.4 218.75 383.4 218.75 385.55 216.6 L386.8 214.95 387.3 214.5 388 214.55 392.7 217 393.15 217.5 393.1 218.15"/>
    <path stroke="none" fill="#FFCC00" d="M153.55 236.45 Q138 218.8 138 194.65 138 168.1 156.75 149.35 175.5 130.65 202 130.65 228.55 130.65 247.25 149.35 266 168.1 266 194.65 266 218.8 250.45 236.45 246.65 229.3 240.5 223.15 224.6 207.25 202 207.25 179.45 207.25 163.5 223.15 157.35 229.3 153.55 236.45"/>
    <path stroke="none" fill="#CBA200" d="M153.55 236.45 Q157.35 229.3 163.5 223.15 179.45 207.25 202 207.25 224.6 207.25 240.5 223.15 246.65 229.3 250.45 236.45 L247.25 239.85 Q228.55 258.65 202 258.65 175.5 258.65 156.75 239.85 L153.55 236.45"/>
    <path stroke="none" fill="#A38200" d="M220.5 220.2 Q222.05 221.75 221.2 224.7 220.4 227.65 217.75 230.3 L217.6 230.45 Q216.1 231.85 214.05 231.85 211.9 231.85 210.4 230.35 208.9 228.85 208.9 226.7 208.9 224.6 210.3 223.15 L210.45 223 Q213.1 220.35 216.05 219.55 219 218.7 220.5 220.2 M186.4 230.45 L186.25 230.3 Q183.6 227.65 182.8 224.7 181.95 221.75 183.5 220.2 185 218.7 187.95 219.55 190.9 220.35 193.55 223 L193.7 223.15 Q195.1 224.6 195.1 226.7 195.1 228.85 193.6 230.35 192.1 231.85 189.95 231.85 187.9 231.85 186.4 230.45"/>
    <path stroke="none" fill="#543209" d="M180.35 194.4 L180.35 194.6 180.35 195.1 Q180.05 198.05 177.4 200.1 174.45 202.4 170.3 202.4 166.15 202.4 163.2 200.1 160.55 198.05 160.3 195.1 L160.25 194.6 160.25 194.4 160.25 194.25 Q160.3 188.6 163.2 184.6 166.15 180.55 170.3 180.55 174.45 180.55 177.4 184.6 180.3 188.6 180.35 194.25 L180.35 194.4"/>
    <path stroke="none" fill="#543209" d="M243.75 194.4 L243.75 194.6 243.75 195.1 Q243.45 198.05 240.8 200.1 237.85 202.4 233.7 202.4 229.5 202.4 226.55 200.1 223.9 198.05 223.65 195.1 L223.6 194.6 223.6 194.4 223.6 194.25 Q223.65 188.6 226.55 184.6 229.5 180.55 233.7 180.55 237.85 180.55 240.8 184.6 243.7 188.6 243.75 194.25 L243.75 194.4"/>
    <path stroke="none" fill="#E9BB00" d="M197.6 155.85 L192.65 162.65 Q192.15 163.3 191.35 163.55 190.5 163.8 189.7 163.55 L181.75 160.95 Q180.9 160.7 180.4 160.05 179.9 159.35 179.9 158.45 L179.9 150.05 Q179.9 149.2 180.4 148.55 180.9 147.85 181.75 147.55 L189.7 145 Q190.5 144.7 191.35 145 L192.65 145.95 197.6 152.75 Q198.05 153.45 198.05 154.3 198.05 155.15 197.6 155.85 M189 179.5 L187.7 173.4 Q187.5 172.5 187.85 171.75 188.2 170.9 188.95 170.5 L194.4 167.35 Q195.15 166.95 196 167.05 196.85 167.1 197.5 167.7 L202.15 171.9 Q202.75 172.45 202.95 173.35 203.1 174.15 202.75 174.95 L200.2 180.65 Q199.85 181.45 199.1 181.9 198.35 182.35 197.5 182.25 L191.3 181.6 Q190.45 181.45 189.8 180.95 189.2 180.3 189 179.5 M210.25 171.8 L200.5 164.75 Q199.8 164.2 199.55 163.4 199.3 162.6 199.55 161.8 L203.25 150.35 Q203.5 149.5 204.2 149 204.85 148.5 205.75 148.5 L217.8 148.5 Q218.7 148.5 219.4 149 220.05 149.5 220.3 150.35 L224 161.8 Q224.25 162.6 224 163.4 223.75 164.2 223.1 164.75 L213.4 171.8 211.8 172.3 Q210.95 172.3 210.25 171.8"/>
    <path stroke="none" fill="#D2D0D0" d="M153.55 434.45 Q138 416.8 138 392.65 138 366.1 156.75 347.35 175.5 328.65 202 328.65 228.55 328.65 247.25 347.35 266 366.1 266 392.65 266 416.8 250.45 434.45 L247.25 437.85 Q228.55 456.65 202 456.65 175.5 456.65 156.75 437.85 L153.55 434.45"/>
    <path stroke="none" fill="#B1B1B1" d="M212.6 418.25 Q212.6 422.9 209.3 426.15 206.05 429.5 201.4 429.5 196.7 429.5 193.4 426.15 190.15 422.9 190.15 418.25 190.15 413.6 193.4 410.25 196.7 407 201.4 407 206.05 407 209.3 410.25 212.6 413.6 212.6 418.25"/>
    <path stroke="none" fill="#FFFFFF" d="M189.85 393.75 L215.35 393.75 Q221.55 393.85 226 398.3 230.6 402.9 230.6 409.35 230.6 415.85 226 420.45 221.4 425 214.95 425 208.45 425 203.9 420.45 L202.2 418.4 200.5 420.45 Q195.9 425 189.4 425 182.95 425 178.35 420.45 173.8 415.85 173.8 409.35 173.8 402.9 178.35 398.3 182.95 393.75 189.4 393.75 L189.85 393.75"/>
    <path stroke="none" fill="#EE9FEE" d="M211.55 385.85 Q214.9 387.5 215.2 389.8 L215.25 390.7 Q215.25 395.9 211.55 399.55 207.9 403.25 202.7 403.25 197.5 403.25 193.8 399.55 190.15 395.9 190.15 390.7 L190.15 389.8 Q190.45 387.5 193.8 385.85 197.5 384.05 202.7 384.05 207.9 384.05 211.55 385.85"/>
    <path stroke="none" fill="#543209" d="M184.1 383.95 L184.1 384.1 184.1 384.6 Q183.85 387.1 181.5 388.85 178.95 390.85 175.35 390.85 171.75 390.85 169.2 388.85 166.9 387.1 166.65 384.6 L166.65 384.1 166.65 383.95 166.65 383.8 Q166.65 378.95 169.2 375.45 171.75 371.95 175.35 371.95 178.95 371.95 181.5 375.45 184.05 378.95 184.1 383.8 L184.1 383.95"/>
    <path stroke="none" fill="#543209" d="M239 383.95 L239 384.1 239 384.6 Q238.7 387.1 236.4 388.85 233.85 390.85 230.25 390.85 226.65 390.85 224.1 388.85 221.8 387.1 221.55 384.6 L221.55 384.1 221.55 383.95 221.55 383.8 Q221.55 378.95 224.1 375.45 226.65 371.95 230.25 371.95 233.85 371.95 236.4 375.45 238.95 378.95 239 383.8 L239 383.95"/>
    <path stroke="none" fill="#B1B1B1" d="M241.05 401.6 L240.55 405.55 240.3 406 239.85 406.1 Q230.75 404.9 222.2 407.95 L221.75 407.9 221.35 407.5 220.05 403.85 Q219.95 403.55 220.1 403.3 L220.45 403 Q230.15 399.5 240.5 400.9 240.8 400.95 240.95 401.15 L241.05 401.6 M221.35 409.55 Q232.65 409.45 238.1 415.1 L238.3 415.55 238.1 416.05 235.3 418.8 234.85 419 Q234.55 419 234.4 418.8 230.1 414.75 221.35 414.8 L220.9 414.65 220.7 414.15 220.7 410.25 Q220.65 409.95 220.85 409.75 L221.35 409.55 M182.75 409.55 L183.25 409.75 183.4 410.25 183.35 414.15 183.15 414.65 182.7 414.8 Q174 414.75 169.65 418.8 169.5 419 169.2 419 L168.8 418.8 166 416.05 165.75 415.55 166 415.1 Q171.4 409.45 182.75 409.55 M162.95 401.6 L163.1 401.15 Q163.25 400.95 163.55 400.9 173.95 399.5 183.6 403 L184 403.3 184 403.85 182.7 407.5 182.35 407.9 181.85 407.95 Q173.35 404.9 164.25 406.1 L163.8 406 163.55 405.55 162.95 401.6"/>
    <path stroke="none" fill="#66CC33" d="M301.55 434.45 Q286 416.8 286 392.65 286 366.1 304.75 347.35 323.5 328.65 350 328.65 376.55 328.65 395.25 347.35 414 366.1 414 392.65 414 416.8 398.45 434.45 394.65 427.3 388.5 421.15 372.6 405.25 350 405.25 327.45 405.25 311.5 421.15 305.35 427.3 301.55 434.45"/>
    <path stroke="none" fill="#79DB48" d="M301.55 434.45 Q305.35 427.3 311.5 421.15 327.45 405.25 350 405.25 372.6 405.25 388.5 421.15 394.65 427.3 398.45 434.45 L395.25 437.85 Q376.55 456.65 350 456.65 323.5 456.65 304.75 437.85 L301.55 434.45"/>
    <path stroke="none" fill="#333333" d="M385.55 386.15 L385.75 386.15 386.3 386.15 Q389.25 386.45 391.4 389.2 393.75 392.2 393.75 396.5 393.75 400.75 391.4 403.8 389.25 406.5 386.3 406.75 L385.75 406.8 385.55 406.8 385.4 406.8 380.35 406.1 Q377.65 405.35 375.5 403.8 371.35 400.75 371.35 396.5 371.35 392.2 375.5 389.2 377.65 387.6 380.35 386.8 L385.4 386.15 385.55 386.15 M314.45 406.8 L314.25 406.8 313.7 406.8 Q310.75 406.5 308.6 403.8 306.25 400.75 306.25 396.5 306.25 392.2 308.6 389.2 310.75 386.45 313.7 386.2 L314.25 386.15 314.45 386.15 314.6 386.15 Q317.35 386.15 319.65 386.85 322.35 387.6 324.5 389.2 328.65 392.2 328.65 396.5 328.65 400.75 324.5 403.8 322.35 405.35 319.65 406.15 L314.6 406.8 314.45 406.8"/>
    <path stroke="none" fill="#549F2E" d="M370.6 419 Q372.2 420.6 371.35 423.7 370.5 426.85 367.7 429.6 L367.55 429.75 Q366 431.25 363.8 431.25 361.55 431.25 359.95 429.65 358.35 428.05 358.35 425.8 358.35 423.6 359.85 422.05 L360 421.9 Q362.8 419.15 365.9 418.3 369 417.4 370.6 419 M340.05 429.65 Q338.45 431.25 336.2 431.25 334.05 431.25 332.45 429.75 L332.3 429.6 Q329.55 426.85 328.65 423.7 327.8 420.6 329.4 419 331 417.4 334.1 418.3 337.2 419.15 340 421.9 L340.15 422.05 Q341.65 423.6 341.65 425.8 341.65 428.05 340.05 429.65"/>
    <path stroke="none" fill="#79DB48" d="M374 355.25 Q373.6 356.25 372.65 356.75 351.05 367.7 327.45 356.8 L327.45 356.75 Q326.35 356.2 326 355.2 325.65 354.2 326 353.3 326.35 352.15 327.5 351.7 L327.45 351.7 Q351.05 340.7 372.65 351.75 L372.6 351.7 Q373.6 352.1 374.05 353.25 L374.05 353.3 Q374.35 354.2 374.05 355.2 L374 355.25 M335.45 374.3 Q334.5 373.85 334.25 373.05 333.9 372.2 334.2 371.5 334.45 370.5 335.5 370.1 350.7 363 364.65 370.15 L364.7 370.15 Q365.55 370.55 365.85 371.5 366.1 372.2 365.8 373.05 L365.85 372.95 Q365.55 373.85 364.7 374.25 L364.65 374.3 Q350.65 381.35 335.4 374.3 L335.45 374.3"/>
    <path stroke="none" fill="#EE9FEE" d="M628.55 434.45 Q613 416.8 613 392.65 613 366.1 631.75 347.35 650.5 328.65 677 328.65 703.55 328.65 722.25 347.35 741 366.1 741 392.65 741 416.8 725.45 434.45 L722.25 437.85 Q703.55 456.65 677 456.65 650.5 456.65 631.75 437.85 L628.55 434.45"/>
    <path stroke="none" fill="#CD76CD" d="M677 390 Q686.45 390 693.1 396.65 699.75 403.35 699.75 412.75 699.75 422.2 693.1 428.85 686.45 435.5 677 435.5 667.6 435.5 660.9 428.85 654.25 422.2 654.25 412.75 654.25 403.35 660.9 396.65 667.6 390 677 390"/>
    <path stroke="none" fill="#EE9FEE" d="M682.55 412.45 Q684.75 410.25 687.2 409.5 689.75 408.85 691 410.1 692.25 411.35 691.6 413.9 690.9 416.35 688.65 418.55 L688.55 418.7 Q687.3 419.9 685.55 419.9 683.75 419.9 682.5 418.65 681.2 417.35 681.2 415.55 681.2 413.75 682.4 412.55 L682.55 412.45 M671.5 412.45 L671.65 412.55 Q672.85 413.75 672.85 415.55 672.85 417.35 671.6 418.65 670.25 419.9 668.45 419.9 666.7 419.9 665.45 418.7 L665.35 418.55 Q663.1 416.35 662.45 413.9 661.75 411.35 663.05 410.1 664.3 408.85 666.8 409.5 669.3 410.25 671.5 412.45"/>
    <path stroke="none" fill="#333333" d="M651.75 395.9 L651.75 396.15 651.75 396.75 Q651.4 400.15 648.3 402.55 644.85 405.25 640 405.25 635.15 405.25 631.7 402.55 628.6 400.15 628.3 396.75 L628.25 396.15 628.25 395.9 628.25 395.75 Q628.3 389.15 631.7 384.5 635.15 379.75 640 379.75 644.85 379.75 648.3 384.5 651.7 389.15 651.75 395.75 L651.75 395.9 M725.75 395.9 L725.75 396.15 725.75 396.75 Q725.4 400.15 722.3 402.55 718.85 405.25 714 405.25 709.15 405.25 705.7 402.55 702.6 400.15 702.3 396.75 L702.25 396.15 702.25 395.9 702.25 395.75 Q702.3 389.15 705.7 384.5 709.15 379.75 714 379.75 718.85 379.75 722.3 384.5 725.7 389.15 725.75 395.75 L725.75 395.9"/>
    <path stroke="none" fill="#528CDB" d="M450.55 434.45 Q435 416.8 435 392.65 435 366.1 453.75 347.35 472.5 328.65 499 328.65 525.55 328.65 544.25 347.35 563 366.1 563 392.65 563 416.8 547.45 434.45 543.65 427.3 537.5 421.15 521.6 405.25 499 405.25 476.45 405.25 460.5 421.15 454.35 427.3 450.55 434.45"/>
    <path stroke="none" fill="#4178C2" d="M450.55 434.45 Q454.35 427.3 460.5 421.15 476.45 405.25 499 405.25 521.6 405.25 537.5 421.15 543.65 427.3 547.45 434.45 L544.25 437.85 Q525.55 456.65 499 456.65 472.5 456.65 453.75 437.85 L450.55 434.45 M517.5 418.2 Q516 416.7 513.05 417.55 510.1 418.35 507.45 421 L507.3 421.15 Q505.9 422.6 505.9 424.7 505.9 426.85 507.4 428.35 508.9 429.85 511.05 429.85 513.1 429.85 514.6 428.45 L514.75 428.3 Q517.4 425.65 518.2 422.7 519.05 419.75 517.5 418.2 M483.4 428.45 Q484.9 429.85 486.95 429.85 489.1 429.85 490.6 428.35 492.1 426.85 492.1 424.7 492.1 422.6 490.7 421.15 L490.55 421 Q487.9 418.35 484.95 417.55 482 416.7 480.5 418.2 478.95 419.75 479.8 422.7 480.6 425.65 483.25 428.3 L483.4 428.45"/>
    <path stroke="none" fill="#3164A8" d="M483.4 428.45 L483.25 428.3 Q480.6 425.65 479.8 422.7 478.95 419.75 480.5 418.2 482 416.7 484.95 417.55 487.9 418.35 490.55 421 L490.7 421.15 Q492.1 422.6 492.1 424.7 492.1 426.85 490.6 428.35 489.1 429.85 486.95 429.85 484.9 429.85 483.4 428.45 M517.5 418.2 Q519.05 419.75 518.2 422.7 517.4 425.65 514.75 428.3 L514.6 428.45 Q513.1 429.85 511.05 429.85 508.9 429.85 507.4 428.35 505.9 426.85 505.9 424.7 505.9 422.6 507.3 421.15 L507.45 421 Q510.1 418.35 513.05 417.55 516 416.7 517.5 418.2"/>
    <path stroke="none" fill="#333333" d="M476.85 392.5 L476.85 392.7 476.85 393.25 Q476.55 396.2 473.85 398.3 470.8 400.7 466.55 400.7 462.3 400.7 459.25 398.3 456.55 396.2 456.3 393.25 L456.25 392.7 456.25 392.5 456.25 392.35 Q456.3 386.55 459.25 382.5 462.3 378.3 466.55 378.3 470.8 378.3 473.85 382.5 476.8 386.55 476.85 392.35 L476.85 392.5 M541.75 392.5 L541.75 392.7 541.75 393.25 Q541.45 396.2 538.7 398.3 535.7 400.7 531.45 400.7 527.2 400.7 524.15 398.3 521.45 396.2 521.2 393.25 L521.15 392.7 521.15 392.5 521.15 392.35 Q521.2 386.55 524.15 382.5 527.2 378.3 531.45 378.3 535.7 378.3 538.7 382.5 541.7 386.55 541.75 392.35 L541.75 392.5"/>
  </g>
</svg>