<svg xmlns="http://www.w3.org/2000/svg" xmlns:xlink="http://www.w3.org/1999/xlink">
  <defs/>
  <g>
    <path stroke="none" fill="#747474" d="M990 396.6 L989.3 399 Q981.2 427.1 964.3 445.05 968.45 453 971.7 463.6 973 466.5 972 470.25 L971.35 471.9 Q970.35 473.9 968.55 475.5 L968.3 475.7 963.3 479.65 962.1 480.4 Q960.7 481.2 959.2 481.65 L959.1 481.65 957.4 481.9 Q954.95 482 953.1 481.3 L952.65 481.15 952.2 480.95 Q948.3 484.05 941.35 484.05 L904.35 484.05 902.7 490.6 Q902.6 495.45 894.65 497.9 L894.7 497.9 Q891.05 499.05 886.1 499.05 881.2 499.05 877.55 497.9 L877.5 497.9 Q869.45 495.4 869.5 490.4 L867.95 484.05 830.65 484.05 Q823.75 484.05 819.9 481 L818.95 481.4 Q817.15 482 815.05 482 L812.4 481.6 Q810.75 481.1 809.45 480.2 L808.4 479.45 804.25 476.2 803.6 475.7 Q801.2 473.75 800.3 471.1 L800.1 470.5 800.05 470.3 Q798.95 466.5 800.3 463.65 803.55 452.95 807.8 445 790.9 427.1 782.8 399 L782.15 396.6 Q776.5 375 787.7 355.65 798.95 336.15 820.8 330.3 842.6 324.45 862.15 335.75 867.05 338.55 871.1 342.05 L901.1 342.05 Q905.05 338.55 909.95 335.75 929.5 324.45 951.3 330.3 973.15 336.15 984.45 355.65 L984.4 355.65 Q995.6 375 990 396.6 M200.05 296.1 Q215.2 272.75 228.25 277.8 242.05 279.95 243.65 307.75 L243.65 307.8 Q244.5 323.4 240.95 342.3 253 343.95 253 357.75 L253 468.4 Q253 484.05 237.35 484.05 L126.65 484.05 Q111 484.05 111 468.4 L111 357.75 Q111 345 121.3 342.6 117.7 323.55 118.55 307.85 120.05 279.95 133.9 277.8 146.9 272.8 162.15 296.15 173.6 313.65 181.1 340.25 188.6 313.6 200.05 296.1"/>
    <path stroke="none" fill="#62391B" d="M802.05 206.65 Q788 192.6 788 172.7 788 152.8 802.05 138.75 808 132.8 815 129.4 815.15 114 830.65 114 L941.35 114 Q956.85 114 957 129.4 964 132.8 969.95 138.75 984 152.8 984 172.7 984 192.6 969.95 206.65 964 212.6 957 216.05 L957 240.35 Q957 256 941.35 256 L830.65 256 Q815 256 815 240.35 L815 216.05 Q808 212.6 802.05 206.65"/>
    <path stroke="none" fill="#1C3943" d="M763.35 114 Q779 114 779 129.7 L779 240.35 Q779 256 763.35 256 L652.65 256 Q637 256 637 240.35 L637 129.7 Q637 114 652.65 114 L763.35 114"/>
    <path stroke="none" fill="#8E488E" d="M625.3 331.7 Q635.35 331.55 645.8 337.6 649.4 339.65 652.35 342.05 L723.2 342.05 Q726.1 339.65 729.7 337.6 740.15 331.55 750.2 331.7 L750.25 331.7 Q761.8 331.85 766.35 338.75 L766.6 339.1 768.5 342.25 768.6 342.4 Q777.9 358.6 777.5 374.1 777.15 392.4 765.1 398.85 L765.05 398.9 Q762.05 400.6 758.8 401.35 L758.8 468.4 Q758.8 484.05 743.15 484.05 L632.45 484.05 Q616.8 484.05 616.8 468.4 L616.8 401.4 Q613.5 400.6 610.5 398.9 L610.45 398.85 Q598.35 392.4 598 374.1 597.6 358.6 606.95 342.4 L607 342.25 Q607.9 340.6 608.95 339.1 L609.15 338.75 Q613.7 331.85 625.25 331.7 L625.3 331.7"/>
    <path stroke="none" fill="#7B1E06" d="M615.35 114 Q631 114 631 129.7 L631 240.35 Q631 256 615.35 256 L504.65 256 Q489 256 489 240.35 L489 129.7 Q489 114 504.65 114 L615.35 114"/>
    <path stroke="none" fill="#8C8C8C" d="M288 138.7 Q288 118.8 302.05 104.75 316.1 90.7 336 90.7 355.9 90.7 369.95 104.75 374.3 109.1 377.3 114 L394.75 114 Q397.7 109.1 402.05 104.75 416.1 90.7 436 90.7 455.9 90.7 469.95 104.75 484 118.8 484 138.7 484 158.6 469.95 172.65 464 178.6 457 182.05 L457 240.35 Q457 256 441.35 256 L330.65 256 Q315 256 315 240.35 L315 182.05 Q308 178.6 302.05 172.65 288 158.6 288 138.7"/>
    <path stroke="none" fill="#28538E" d="M591.7 353.95 L590.2 356.75 Q586.15 363.65 580.9 368.2 L580.9 468.5 Q580.9 484.15 565.25 484.15 L551.75 484.15 551.75 485.15 Q551.75 496.15 540.75 496.15 L517.75 496.15 Q512.65 496.15 509.9 493.8 507.15 496.15 502.05 496.15 L479.05 496.15 Q468.05 496.15 468.05 485.15 L468.05 484.15 454.55 484.15 Q438.9 484.15 438.9 468.5 L438.9 368.2 Q433.65 363.65 429.6 356.75 L428.1 353.95 427.8 353.2 Q425.15 347.55 429.95 339.95 L429.95 340 Q433.65 333.9 441.35 329.45 L441.4 329.45 Q449.05 325.05 456.1 324.85 L456.15 324.85 Q465 324.5 468.7 329.55 L469.25 330.35 470.8 332.9 470.85 332.95 Q473.5 337.55 475 342.15 L544.85 342.15 Q546.3 337.55 549 332.95 L549 332.9 550.55 330.35 551.15 329.55 Q554.8 324.5 563.6 324.85 570.8 325 578.45 329.45 L578.5 329.45 Q586.1 333.9 589.85 339.95 594.65 347.55 592.05 353.2 L591.7 353.95"/>
    <path stroke="none" fill="#347E0F" d="M407.35 342.05 Q423 342.05 423 357.75 L423 468.4 Q423 484.05 407.35 484.05 L396.25 484.05 390.75 489.55 Q382.9 497.4 375.2 489.6 L375 489.4 375 498.1 Q375 507 367.55 508.65 365.7 509.15 363.85 508.7 362 508.2 360.65 506.85 L352.05 498.25 343.35 506.85 Q342 508.2 340.15 508.7 338.3 509.15 336.45 508.65 329 507 329 498.1 L329 489.5 328.95 489.55 Q321.1 497.4 313.4 489.6 L307.9 484.05 296.65 484.05 Q281 484.05 281 468.4 L281 357.75 Q281 342.05 296.65 342.05 L407.35 342.05"/>
    <path stroke="none" fill="#9A7B00" d="M147.15 71.65 Q155.3 69.45 162.6 73.55 L163 73.8 Q167.25 76.25 169.8 80.15 L169.8 80.2 Q171.6 82.9 172.55 86.4 174.7 94.4 170.9 101.6 L170.4 102.55 169.25 104.2 171.1 114 193 114 194.85 104.2 193.6 102.4 193.5 102.2 193.4 102 Q189.15 94.6 191.45 86.4 L191.45 86.3 Q192.35 82.9 194.15 80.2 L194.15 80.15 Q196.7 76.25 201.05 73.7 L201.1 73.7 Q208.55 69.35 216.95 71.6 224.55 73.65 228.85 80.1 L228.85 80.15 229.55 81.25 229.6 81.3 Q233.85 88.75 231.7 97.1 L231.65 97.2 Q229.35 105.4 222.05 109.75 L221.9 109.8 219.85 110.85 218.75 114 223.45 114 Q229.6 105.7 240.2 99.6 L240.3 99.55 243 98.1 243.5 97.85 Q250 94.6 259 99.5 L259.15 99.6 Q266.75 103.9 272 113 277.25 122.05 277.1 130.75 L277.1 130.8 Q276.95 141.15 270.8 145.2 L270.4 145.5 267.75 147.1 267.7 147.15 Q260.25 151.4 253 153.35 L253 240.35 Q253 256 237.35 256 L126.65 256 Q111 256 111 240.35 L111 153.35 Q103.7 151.45 96.2 147.1 L93.55 145.5 93.15 145.2 Q86.95 141.15 86.8 130.8 L86.8 130.75 Q86.65 122.05 91.9 113 97.15 103.9 104.75 99.6 L104.9 99.5 Q113.9 94.6 120.4 97.85 L120.95 98.1 123.65 99.55 123.7 99.6 Q134.3 105.7 140.45 114 L145.35 114 144.3 110.9 142.2 109.85 142.05 109.8 Q134.65 105.45 132.4 97.15 130.15 88.75 134.5 81.3 L134.5 81.25 135.2 80.15 135.25 80.1 Q139.5 73.65 147.2 71.65 L147.15 71.65"/>
    <path stroke="none" fill="#BDB6B6" d="M891.35 370.65 Q896.45 351.65 913.45 341.8 930.5 331.95 949.5 337.05 968.55 342.15 978.35 359.15 988.2 376.2 983.1 395.2 L982.7 396.65 Q974.3 426.05 955.75 443.65 936.5 461.9 917.45 456.8 898.45 451.7 890.85 426.3 883.6 401.75 891 372.1 L891.35 370.65 M880.75 370.65 L881.1 372.1 Q888.5 401.75 881.25 426.3 873.65 451.7 854.65 456.8 835.6 461.9 816.35 443.65 797.8 426.05 789.4 396.65 L789 395.2 Q783.9 376.2 793.75 359.15 803.55 342.15 822.6 337.05 841.6 331.95 858.65 341.8 875.65 351.65 880.75 370.65"/>
    <path stroke="none" fill="#D2D0D0" d="M830.65 349.05 L941.35 349.05 Q950 349.05 950 357.75 L950 468.4 Q950 477.05 941.35 477.05 L830.65 477.05 Q822 477.05 822 468.4 L822 357.75 Q822 349.05 830.65 349.05"/>
    <path stroke="none" fill="#FFFFFF" d="M965.15 466.1 Q965.6 467.1 965.25 468.4 L965.15 468.55 Q964.75 469.5 963.95 470.2 L958.95 474.15 958.8 474.2 957.4 474.85 957 474.9 955.35 474.65 955.3 474.65 Q954.2 474.2 953.6 473.3 938.4 453.2 914.3 454.25 L914.1 454.25 Q913.2 454.25 912.45 453.85 L912.3 453.8 Q911.4 453.25 911 452.5 L910.9 452.45 Q910.35 451.45 910.4 450.65 L910.35 450.6 Q909.85 432.3 936.1 427.85 L938.35 428.15 Q955.8 435.3 965.15 466.1 M833.7 428.25 Q834.85 427.65 835.95 427.9 862.15 432.35 861.65 450.65 L861.6 450.7 Q861.65 451.55 861.1 452.5 L861.05 452.6 859.75 453.85 859.55 453.9 857.95 454.35 857.75 454.35 Q833.6 453.3 818.35 473.4 817.8 474.3 816.7 474.7 L816.7 474.75 815.05 475 814.6 474.95 813.25 474.3 813.1 474.2 808.1 470.3 808.05 470.3 Q807.2 469.6 806.85 468.65 L806.8 468.5 Q806.4 467.15 806.85 466.15 816.2 435.4 833.7 428.25"/>
    <path stroke="none" fill="#BDB6B6" d="M904.55 423.6 Q910.55 430.3 908.5 438.45 L895.9 488.9 Q895.55 490.3 892.6 491.2 889.85 492.05 886.1 492.05 882.35 492.05 879.55 491.2 876.65 490.3 876.35 488.9 L863.7 438.45 Q861.65 430.3 867.55 423.6 874.45 416.05 886.1 416.05 897.75 416.05 904.55 423.6"/>
    <path stroke="none" fill="#333333" d="M935.5 414.9 L935.5 415.15 935.5 415.75 Q935.15 419.15 932.05 421.55 928.6 424.25 923.75 424.25 918.9 424.25 915.45 421.55 912.35 419.15 912.05 415.75 L912 415.15 912 414.9 912 414.75 Q912.05 408.15 915.45 403.5 918.9 398.75 923.75 398.75 928.6 398.75 932.05 403.5 935.45 408.15 935.5 414.75 L935.5 414.9 M861.5 414.9 L861.5 415.15 861.5 415.75 Q861.15 419.15 858.05 421.55 854.6 424.25 849.75 424.25 844.9 424.25 841.45 421.55 838.35 419.15 838.05 415.75 L838 415.15 838 414.9 838 414.75 Q838.05 408.15 841.45 403.5 844.9 398.75 849.75 398.75 854.6 398.75 858.05 403.5 861.45 408.15 861.5 414.75 L861.5 414.9"/>
    <path stroke="none" fill="#D23007" d="M624 231.8 Q596.15 237.5 560 237.5 525.15 237.5 498.05 232.2 L496 231.8 496 129.7 Q496 121 504.65 121 L615.35 121 Q624 121 624 129.7 L624 231.8"/>
    <path stroke="none" fill="#FFCC00" d="M624 231.8 L624 240.35 Q624 249 615.35 249 L504.65 249 Q496 249 496 240.35 L496 231.8 498.05 232.2 Q525.15 237.5 560 237.5 596.15 237.5 624 231.8"/>
    <path stroke="none" fill="#FFFFFF" d="M548.3 184.6 L548.2 185.3 Q544.05 200.6 535.05 209.75 526.05 218.9 517.4 216.5 508.7 214.2 505.4 201.8 502.15 189.35 506.3 174.05 L506.4 173.4 Q508.85 165.05 516.45 160.75 524.2 156.2 532.9 158.5 541.55 160.85 546.1 168.65 550.4 176.25 548.3 184.6 M613.7 174.05 Q617.85 189.35 614.6 201.8 611.3 214.2 602.6 216.5 593.95 218.9 584.95 209.75 575.95 200.6 571.8 185.3 L571.7 184.6 Q569.6 176.25 573.9 168.65 578.45 160.85 587.1 158.5 595.8 156.2 603.55 160.75 611.15 165.05 613.6 173.4 L613.7 174.05"/>
    <path stroke="none" fill="#333333" d="M540.2 181.4 L540.2 181.6 540.2 182.1 Q539.9 184.8 537.45 186.7 534.7 188.85 530.85 188.85 527 188.85 524.25 186.7 521.8 184.8 521.55 182.1 L521.5 181.6 521.5 181.4 521.5 181.3 Q521.55 176.05 524.25 172.35 527 168.6 530.85 168.6 534.7 168.6 537.45 172.35 540.15 176.05 540.2 181.3 L540.2 181.4 M599 181.4 L599 181.6 599 182.1 Q598.75 184.8 596.25 186.7 593.5 188.85 589.65 188.85 585.8 188.85 583.05 186.7 580.6 184.8 580.35 182.1 L580.3 181.6 580.3 181.4 580.3 181.3 Q580.35 176.05 583.05 172.35 585.8 168.6 589.65 168.6 593.5 168.6 596.25 172.35 598.95 176.05 599 181.3 L599 181.4"/>
    <path stroke="none" fill="#5D9CF3" d="M580.9 214.2 Q560.05 219.5 539.2 214.2 L539.05 213.2 538.95 210.9 538.95 199.45 Q538.95 196.7 539.6 194.2 L539.9 193.2 539.95 193 Q541.4 188.35 545.1 184.65 551.3 178.5 560.05 178.5 568.8 178.5 574.95 184.65 578.65 188.35 580.15 193 L580.2 193.2 580.45 194.2 Q581.1 196.7 581.1 199.45 L581.1 210.9 581 213.2 580.9 214.2"/>
    <path stroke="none" fill="#397EDE" d="M580.9 214.2 Q579.9 220.85 574.95 225.8 568.8 232 560.05 232 551.3 232 545.1 225.8 540.15 220.85 539.2 214.2 560.05 219.5 580.9 214.2"/>
    <path stroke="none" fill="#BB2905" d="M573.45 135.7 Q577.35 142.45 578.1 148.35 579 154.2 576.25 155.75 573.5 157.35 568.8 153.7 564.2 150.05 560.3 143.3 L559.4 141.75 Q557.8 138.55 558.2 135.25 558.6 131.6 561.35 130 564.1 128.45 567.5 129.9 570.5 131.2 572.5 134.2 L573.45 135.7"/>
    <path stroke="none" fill="#BB2905" d="M553.75 143.4 Q551.2 147.9 548.05 150.3 545 152.75 543.2 151.65 541.4 150.65 541.95 146.75 542.5 142.85 545.05 138.4 L545.65 137.35 Q547 135.35 549 134.5 551.25 133.5 553.05 134.55 554.85 135.65 555.15 138.1 555.4 140.2 554.35 142.35 L553.75 143.4"/>
    <path stroke="none" fill="#365A66" d="M749.45 249 Q746.2 238.15 740.85 228.8 727.25 204.95 708 204.95 688.75 204.95 675.1 228.8 669.8 238.15 666.55 249 L652.65 249 Q644 249 644 240.35 L644 129.7 Q644 121 652.65 121 L763.35 121 Q772 121 772 129.7 L772 240.35 Q772 249 763.35 249 L749.45 249"/>
    <path stroke="none" fill="#E5F3F7" d="M749.45 249 L666.55 249 Q669.8 238.15 675.1 228.8 688.75 204.95 708 204.95 727.25 204.95 740.85 228.8 746.2 238.15 749.45 249"/>
    <path stroke="none" fill="#F2F9FB" d="M755.5 170.7 L755.65 171.25 Q758.95 183.55 756.4 193.5 753.8 203.5 746.85 205.35 739.9 207.2 732.6 199.9 725.35 192.55 722.05 180.25 L721.9 179.7 Q720.25 172.95 723.8 166.9 727.4 160.6 734.35 158.75 741.3 156.9 747.6 160.5 753.6 164.05 755.5 170.7 M694.2 179.75 L694.05 180.3 Q690.75 192.6 683.55 199.9 676.3 207.25 669.3 205.4 662.35 203.5 659.75 193.55 657.1 183.55 660.4 171.25 L660.55 170.7 Q662.5 164.05 668.55 160.55 674.85 156.9 681.8 158.8 688.8 160.65 692.35 166.9 695.9 173 694.2 179.75"/>
    <path stroke="none" fill="#333333" d="M688.85 178.8 L688.85 179 688.85 179.5 Q688.55 182.1 686.15 183.95 683.5 186 679.8 186 676.05 186 673.4 183.95 671 182.1 670.8 179.5 L670.75 179 670.75 178.8 670.75 178.7 Q670.8 173.65 673.4 170.05 676.05 166.45 679.8 166.45 683.5 166.45 686.15 170.05 688.8 173.65 688.85 178.7 L688.85 178.8 M745.75 178.8 L745.75 179 745.75 179.5 Q745.5 182.1 743.05 183.95 740.4 186 736.7 186 732.95 186 730.3 183.95 727.95 182.1 727.7 179.5 L727.65 179 727.65 178.8 727.65 178.7 Q727.7 173.65 730.3 170.05 732.95 166.45 736.7 166.45 740.4 166.45 743.05 170.05 745.7 173.65 745.75 178.7 L745.75 178.8"/>
    <path stroke="none" fill="#FF9900" d="M724 201.55 Q723.7 205.1 719.35 207.65 714.7 210.4 708.05 210.4 701.4 210.4 696.7 207.65 692.4 205.1 692.05 201.55 L692 200.5 Q692 193.85 696.7 189.15 701.4 184.5 708.05 184.5 714.7 184.5 719.35 189.15 724.05 193.85 724.05 200.5 L724 201.55"/>
    <path stroke="none" fill="#915B32" d="M795 172.7 Q795 155.7 807 143.7 819 131.7 836 131.7 853 131.7 865 143.7 877 155.7 877 172.7 877 189.7 865 201.7 853 213.7 836 213.7 819 213.7 807 201.7 795 189.7 795 172.7 M965 143.7 Q977 155.7 977 172.7 977 189.7 965 201.7 953 213.7 936 213.7 919 213.7 907 201.7 895 189.7 895 172.7 895 155.7 907 143.7 919 131.7 936 131.7 953 131.7 965 143.7"/>
    <path stroke="none" fill="#A16639" d="M950 129.7 L950 240.35 Q950 249 941.35 249 L830.65 249 Q822 249 822 240.35 L822 129.7 Q822 121 830.65 121 L941.35 121 Q950 121 950 129.7"/>
    <path stroke="none" fill="#BF8559" d="M930.95 149.95 Q939.35 158.35 939.35 170.2 939.35 182.05 930.95 190.5 L930.9 190.5 Q928.65 192.7 926.1 194.4 926 211 914.2 222.8 902.3 234.65 885.5 234.65 868.7 234.65 856.8 222.8 845 211 844.9 194.35 842.4 192.7 840.15 190.5 L840.1 190.5 Q831.7 182.05 831.7 170.2 831.7 158.35 840.1 149.95 848.5 141.55 860.4 141.55 872.2 141.55 880.6 149.95 L883.7 153.55 885.5 153.5 887.3 153.55 890.4 149.95 Q898.8 141.55 910.7 141.55 922.5 141.55 930.95 149.95"/>
    <path stroke="none" fill="#A16639" d="M880.6 194.6 Q879.25 195.85 877.45 195.85 875.7 195.85 874.45 194.65 L874.35 194.5 Q872.1 192.3 871.45 189.85 870.75 187.3 872.05 186.05 873.3 184.8 875.8 185.45 878.3 186.2 880.5 188.4 L880.65 188.5 Q881.85 189.7 881.85 191.5 881.85 193.3 880.6 194.6 M891.55 188.4 Q893.75 186.2 896.2 185.45 898.75 184.8 900 186.05 901.25 187.3 900.6 189.85 899.9 192.3 897.65 194.5 L897.55 194.65 Q896.3 195.85 894.55 195.85 892.75 195.85 891.5 194.6 890.2 193.3 890.2 191.5 890.2 189.7 891.4 188.5 L891.55 188.4"/>
    <path stroke="none" fill="#333333" d="M866.2 173.4 L866.2 173.6 866.2 174.1 Q865.9 176.8 863.45 178.7 860.7 180.85 856.85 180.85 853 180.85 850.25 178.7 847.8 176.8 847.55 174.1 L847.5 173.6 847.5 173.4 847.5 173.3 Q847.55 168.05 850.25 164.35 853 160.6 856.85 160.6 860.7 160.6 863.45 164.35 866.15 168.05 866.2 173.3 L866.2 173.4 M925 173.4 L925 173.6 925 174.1 Q924.75 176.8 922.25 178.7 919.5 180.85 915.65 180.85 911.8 180.85 909.05 178.7 906.6 176.8 906.35 174.1 L906.3 173.6 906.3 173.4 906.3 173.3 Q906.35 168.05 909.05 164.35 911.8 160.6 915.65 160.6 919.5 160.6 922.25 164.35 924.95 168.05 925 173.3 L925 173.4"/>
    <path stroke="none" fill="#FFFFFF" d="M901.55 200.65 Q904.95 199.2 908.45 200.6 911.9 202 913.3 205.45 914.75 208.9 913.35 212.4 911.95 215.8 908.55 217.3 888.45 225.95 864.15 217.5 860.55 216.25 858.95 212.9 857.3 209.5 858.55 206 859.75 202.45 863.15 200.8 866.55 199.2 870.05 200.4 887.25 206.4 901.55 200.65"/>
    <path stroke="none" fill="#272626" d="M407 109.7 Q419 97.7 436 97.7 453 97.7 465 109.7 477 121.7 477 138.7 477 155.7 465 167.7 453 179.7 436 179.7 419 179.7 407 167.7 395 155.7 395 138.7 395 121.7 407 109.7 M412 142.7 Q412 151 417.85 156.85 423.7 162.7 432 162.7 440.3 162.7 446.15 156.85 452 151 452 142.7 452 134.4 446.15 128.55 440.3 122.7 432 122.7 423.7 122.7 417.85 128.55 412 134.4 412 142.7"/>
    <path stroke="none" fill="#383737" d="M412 142.7 Q412 134.4 417.85 128.55 423.7 122.7 432 122.7 440.3 122.7 446.15 128.55 452 134.4 452 142.7 452 151 446.15 156.85 440.3 162.7 432 162.7 423.7 162.7 417.85 156.85 412 151 412 142.7"/>
    <path stroke="none" fill="#272626" d="M365 109.7 Q377 121.7 377 138.7 377 155.7 365 167.7 353 179.7 336 179.7 319 179.7 307 167.7 295 155.7 295 138.7 295 121.7 307 109.7 319 97.7 336 97.7 353 97.7 365 109.7 M325.85 156.85 Q331.7 162.7 340 162.7 348.3 162.7 354.15 156.85 360 151 360 142.7 360 134.4 354.15 128.55 348.3 122.7 340 122.7 331.7 122.7 325.85 128.55 320 134.4 320 142.7 320 151 325.85 156.85"/>
    <path stroke="none" fill="#383737" d="M325.85 156.85 Q320 151 320 142.7 320 134.4 325.85 128.55 331.7 122.7 340 122.7 348.3 122.7 354.15 128.55 360 134.4 360 142.7 360 151 354.15 156.85 348.3 162.7 340 162.7 331.7 162.7 325.85 156.85"/>
    <path stroke="none" fill="#FFFFFF" d="M338.25 249 L330.65 249 Q322 249 322 240.35 L322 129.7 Q322 121 330.65 121 L441.35 121 Q450 121 450 129.7 L450 240.35 Q450 249 441.35 249 L433.8 249 Q432.2 239.1 419.95 231.85 405.9 223.5 386 223.5 366.1 223.5 352.05 231.85 339.8 239.1 338.25 249"/>
    <path stroke="none" fill="#EEEEEE" d="M338.25 249 Q339.8 239.1 352.05 231.85 366.1 223.5 386 223.5 405.9 223.5 419.95 231.85 432.2 239.1 433.8 249 L338.25 249"/>
    <path stroke="none" fill="#272626" d="M424.5 166.1 Q431.55 170.2 434.9 175.9 438.25 181.6 435.95 185.6 433.65 189.6 427 189.55 420.4 189.5 413.35 185.4 L413.05 185.2 Q409.25 182.95 408.1 178.6 406.9 174.15 409.15 170.15 411.5 166.15 415.95 164.95 420.3 163.8 424.2 165.9 L424.5 166.1"/>
    <path stroke="none" fill="#272626" d="M358.95 185.2 L358.65 185.4 Q351.6 189.5 345 189.55 338.35 189.6 336.05 185.6 333.75 181.6 337.1 175.9 340.45 170.2 347.5 166.1 L347.8 165.9 Q351.7 163.8 356.05 164.95 360.5 166.15 362.85 170.15 365.15 174.15 363.95 178.6 362.75 182.95 358.95 185.2"/>
    <path stroke="none" fill="#272626" d="M386 205.95 Q379.85 205.95 375.5 201.6 371.2 197.3 371.2 191.15 L371.2 190.1 Q371.55 187.4 375.5 185.45 379.85 183.35 386 183.35 392.1 183.35 396.45 185.45 400.4 187.4 400.75 190.1 L400.8 191.15 Q400.8 197.3 396.45 201.6 392.1 205.95 386 205.95"/>
    <path stroke="none" fill="#272626" d="M412.25 208.25 Q411.15 210.3 409.35 212.15 404.55 216.9 397.85 216.9 391.15 216.9 386.4 212.15 L386.05 211.8 385.7 212.15 Q380.9 216.9 374.2 216.9 367.5 216.9 362.75 212.15 360.95 210.35 359.85 208.35 359.65 207.95 359.8 207.6 L360.25 207 365.5 204.1 366.25 204 Q366.65 204.1 366.85 204.5 L368.4 206.5 Q370.8 208.9 374.2 208.9 377.6 208.9 380.05 206.5 381.6 204.9 382.15 202.9 L384.5 194.65 Q384.6 194.3 384.85 194.1 385.1 193.9 385.45 193.9 L386.45 193.9 387.05 194.1 387.4 194.6 389.85 202.8 389.9 202.85 Q390.45 204.9 392.05 206.5 394.45 208.9 397.85 208.9 401.25 208.9 403.7 206.5 L405.1 204.6 Q405.3 204.2 405.7 204.1 L406.45 204.15 411.8 206.9 Q412.15 207.05 412.3 207.5 L412.25 208.25"/>
    <path stroke="none" fill="#E9BB00" d="M270.1 130.7 Q270 137 266.55 139.6 L264.2 141.05 Q252.05 148.05 240.55 147.8 228.95 147.55 224.7 140.25 220.5 132.95 226.1 122.8 231.6 112.65 243.7 105.65 L246.2 104.3 Q250.15 102.65 255.65 105.65 261.7 109.15 265.95 116.5 270.15 123.75 270.1 130.7 M93.8 130.7 Q93.75 123.75 97.95 116.5 102.2 109.15 108.25 105.65 113.75 102.65 117.7 104.3 L120.2 105.65 Q132.3 112.65 137.8 122.8 143.4 132.95 139.2 140.25 134.95 147.55 123.35 147.8 111.85 148.05 99.7 141.05 L97.35 139.6 Q93.9 137 93.8 130.7"/>
    <path stroke="none" fill="#FFCC00" d="M118 221.55 L118 129.7 Q118 121 126.65 121 L237.35 121 Q246 121 246 129.7 L246 221.5 Q242.8 218.55 239 215.8 215.4 198.7 182 198.7 148.65 198.7 125.05 215.8 121.2 218.55 118 221.55"/>
    <path stroke="none" fill="#CBA200" d="M118 221.55 Q121.2 218.55 125.05 215.8 148.65 198.7 182 198.7 215.4 198.7 239 215.8 242.8 218.55 246 221.5 L246 240.35 Q246 249 237.35 249 L126.65 249 Q118 249 118 240.35 L118 221.55"/>
    <path stroke="none" fill="#CBA200" d="M215.1 78.35 Q220.6 79.85 223.5 84.8 226.35 89.75 224.9 95.3 223.35 100.8 218.45 103.7 216.4 104.85 214.35 105.3 L205.85 129.55 205.85 129.6 Q205.2 131.25 203.7 132.05 L203.7 132.1 Q202.15 132.85 200.6 132.45 L200.65 132.45 Q199.05 132.1 198.1 130.55 197.2 129.1 197.6 127.35 L202.35 102.15 Q200.75 100.65 199.55 98.7 L199.55 98.65 Q196.65 93.7 198.2 88.15 199.65 82.6 204.6 79.75 209.55 76.85 215.1 78.35 M139.15 95.3 Q137.65 89.75 140.55 84.8 143.4 79.85 148.95 78.4 154.5 76.9 159.4 79.8 L159.45 79.8 Q164.3 82.65 165.8 88.2 167.3 93.75 164.5 98.7 L164.5 98.75 Q163.25 100.7 161.7 102.15 L166.5 127.4 166.45 127.35 Q166.8 129.1 165.9 130.6 L165.95 130.6 Q165.05 132 163.45 132.5 161.95 132.9 160.35 132.15 L160.2 132.1 Q158.85 131.3 158.25 129.65 L158.2 129.6 149.75 105.35 Q147.65 104.9 145.6 103.75 140.65 100.85 139.15 95.3"/>
    <path stroke="none" fill="#A38200" d="M201 211.2 Q202.55 212.75 201.7 215.7 200.9 218.65 198.25 221.3 L198.1 221.45 Q196.6 222.85 194.55 222.85 192.4 222.85 190.9 221.35 189.4 219.85 189.4 217.7 189.4 215.6 190.8 214.15 L190.95 214 Q193.6 211.35 196.55 210.55 199.5 209.7 201 211.2 M166.9 221.45 L166.75 221.3 Q164.1 218.65 163.3 215.7 162.45 212.75 164 211.2 165.5 209.7 168.45 210.55 171.4 211.35 174.05 214 L174.2 214.15 Q175.6 215.6 175.6 217.7 175.6 219.85 174.1 221.35 172.6 222.85 170.45 222.85 168.4 222.85 166.9 221.45"/>
    <path stroke="none" fill="#543209" d="M157.5 183.9 L157.5 184.15 157.5 184.75 Q157.15 188.15 154.05 190.55 150.6 193.25 145.75 193.25 140.9 193.25 137.45 190.55 134.35 188.15 134.05 184.75 L134 184.15 134 183.9 134 183.75 Q134.05 177.15 137.45 172.5 140.9 167.75 145.75 167.75 150.6 167.75 154.05 172.5 157.45 177.15 157.5 183.75 L157.5 183.9"/>
    <path stroke="none" fill="#543209" d="M231.5 183.9 L231.5 184.15 231.5 184.75 Q231.15 188.15 228.05 190.55 224.6 193.25 219.75 193.25 214.9 193.25 211.45 190.55 208.35 188.15 208.05 184.75 L208 184.15 208 183.9 208 183.75 Q208.05 177.15 211.45 172.5 214.9 167.75 219.75 167.75 224.6 167.75 228.05 172.5 231.45 177.15 231.5 183.75 L231.5 183.9"/>
    <path stroke="none" fill="#E9BB00" d="M179.25 147.85 L174.3 154.65 173 155.55 Q172.15 155.8 171.35 155.55 L163.4 152.95 Q162.55 152.7 162.05 152.05 161.55 151.35 161.55 150.45 L161.55 142.05 Q161.55 141.2 162.05 140.55 162.55 139.85 163.4 139.55 L171.35 137 Q172.15 136.7 173 137 173.8 137.25 174.3 137.95 L179.25 144.75 Q179.7 145.45 179.7 146.3 L179.25 147.85 M191.9 163.8 L182.15 156.75 Q181.45 156.2 181.2 155.4 180.95 154.6 181.2 153.8 L184.9 142.35 Q185.15 141.5 185.85 141 186.5 140.5 187.4 140.5 L199.45 140.5 Q200.35 140.5 201.05 141 201.7 141.5 201.95 142.35 L205.65 153.8 Q205.9 154.6 205.65 155.4 205.4 156.2 204.75 156.75 L195.05 163.8 Q194.35 164.3 193.45 164.3 192.6 164.3 191.9 163.8 M170.65 171.5 L169.35 165.4 Q169.15 164.5 169.5 163.75 169.85 162.9 170.6 162.5 L176.05 159.35 Q176.8 158.95 177.65 159.05 178.5 159.1 179.15 159.7 L183.8 163.9 Q184.4 164.45 184.6 165.35 184.75 166.15 184.4 166.95 L181.85 172.65 Q181.5 173.45 180.75 173.9 L179.15 174.25 172.95 173.6 Q172.1 173.45 171.45 172.95 170.85 172.3 170.65 171.5"/>
    <path stroke="none" fill="#BDBDBD" d="M135.7 284.55 Q144.65 282.15 156.25 299.95 167.45 317.15 174.7 343.45 L174.85 344.05 Q177.1 352.35 172.3 359.9 167.5 367.5 158.55 369.9 149.55 372.3 141.6 368.15 133.65 364 131.4 355.7 L131.25 355.1 Q124.45 328.65 125.55 308.2 126.7 286.95 135.7 284.55 M226.45 284.55 Q235.45 286.95 236.65 308.15 237.7 328.65 230.9 355.05 L230.75 355.65 Q228.5 363.95 220.6 368.1 212.6 372.3 203.6 369.9 194.65 367.45 189.85 359.85 185.05 352.3 187.3 344 L187.45 343.4 Q194.75 317.1 205.9 299.9 217.5 282.1 226.45 284.55"/>
    <path stroke="none" fill="#D2D0D0" d="M126.65 349.05 L237.35 349.05 Q246 349.05 246 357.75 L246 468.4 Q246 477.05 237.35 477.05 L126.65 477.05 Q118 477.05 118 468.4 L118 357.75 Q118 349.05 126.65 349.05"/>
    <path stroke="none" fill="#B1B1B1" d="M194.3 442.05 Q194.3 447.55 190.4 451.4 186.55 455.3 181.05 455.3 175.55 455.3 171.65 451.4 167.8 447.55 167.8 442.05 167.8 436.55 171.65 432.65 175.55 428.8 181.05 428.8 186.55 428.8 190.4 432.65 194.3 436.55 194.3 442.05"/>
    <path stroke="none" fill="#FFFFFF" d="M167.45 413.15 L197.5 413.15 Q204.85 413.3 210.1 418.55 215.5 423.95 215.5 431.55 215.5 439.2 210.1 444.65 204.65 450 197.05 450 189.4 450 184 444.65 L182 442.25 180 444.65 Q174.55 450 166.9 450 159.3 450 153.9 444.65 148.5 439.2 148.5 431.55 148.5 423.95 153.9 418.55 159.3 413.15 166.9 413.15 L167.45 413.15"/>
    <path stroke="none" fill="#EE9FEE" d="M193.05 403.85 Q197 405.8 197.35 408.5 L197.4 409.55 Q197.4 415.7 193.05 420 188.7 424.35 182.6 424.35 176.45 424.35 172.1 420 167.8 415.7 167.8 409.55 L167.8 408.5 Q168.15 405.8 172.1 403.85 176.45 401.75 182.6 401.75 188.7 401.75 193.05 403.85"/>
    <path stroke="none" fill="#543209" d="M160.65 401.6 L160.65 401.8 160.65 402.35 Q160.35 405.3 157.6 407.4 154.6 409.75 150.35 409.75 146.1 409.75 143.1 407.4 140.4 405.3 140.1 402.35 L140.1 401.8 140.1 401.6 140.1 401.45 Q140.1 395.7 143.1 391.6 146.1 387.45 150.35 387.45 154.6 387.45 157.6 391.6 160.6 395.7 160.65 401.45 L160.65 401.6"/>
    <path stroke="none" fill="#543209" d="M225.4 401.6 L225.4 401.8 225.4 402.35 Q225.05 405.3 222.35 407.4 219.35 409.75 215.1 409.75 210.85 409.75 207.85 407.4 205.1 405.3 204.85 402.35 L204.8 401.8 204.8 401.6 204.8 401.45 Q204.85 395.7 207.85 391.6 210.85 387.45 215.1 387.45 219.35 387.45 222.35 391.6 225.35 395.7 225.4 401.45 L225.4 401.6"/>
    <path stroke="none" fill="#B1B1B1" d="M227.85 422.45 L227.25 427.05 226.95 427.6 226.4 427.75 Q215.65 426.3 205.6 429.9 L205.05 429.85 204.6 429.4 203.05 425.05 Q202.95 424.7 203.1 424.45 L203.55 424.05 Q214.95 419.95 227.2 421.6 L227.7 421.9 227.85 422.45 M204.6 431.8 Q217.9 431.7 224.35 438.35 L224.6 438.9 224.35 439.45 221.05 442.7 220.5 442.95 220 442.7 Q214.9 437.9 204.6 438 204.25 438 204.05 437.8 L203.85 437.2 203.8 432.6 Q203.75 432.25 204 432.05 204.25 431.8 204.6 431.8 M135.75 422.45 L135.9 421.9 Q136.1 421.65 136.45 421.6 148.7 419.95 160.05 424.05 L160.55 424.45 160.55 425.05 159 429.4 158.6 429.85 158 429.9 Q148 426.3 137.25 427.75 L136.7 427.6 136.4 427.05 135.75 422.45 M159.05 431.8 Q159.4 431.8 159.65 432.05 L159.85 432.6 159.8 437.2 159.55 437.8 Q159.35 438 159 438 148.75 437.9 143.65 442.7 L143.1 442.95 142.6 442.7 139.3 439.45 139.05 438.9 Q139.05 438.55 139.3 438.35 145.7 431.7 159.05 431.8"/>
    <path stroke="none" fill="#66CC33" d="M288 449.75 L288 357.75 Q288 349.05 296.65 349.05 L407.35 349.05 Q416 349.05 416 357.75 L416 449.75 Q388.85 437 352 437 315.15 437 288 449.75"/>
    <path stroke="none" fill="#FFFFFF" d="M393.35 477.05 L385.8 484.6 Q382.95 487.45 380.15 484.65 L372.6 477.05 393.35 477.05 M331.55 477.05 L324 484.6 Q321.15 487.45 318.35 484.65 L310.8 477.05 331.55 477.05"/>
    <path stroke="none" fill="#79DB48" d="M331.55 477.05 L310.8 477.05 296.65 477.05 Q288 477.05 288 468.4 L288 449.75 Q315.15 437 352 437 388.85 437 416 449.75 L416 468.4 Q416 477.05 407.35 477.05 L393.35 477.05 372.6 477.05 368 477.05 336 477.05 331.55 477.05"/>
    <path stroke="none" fill="#D23007" d="M368 477.05 L368 498.1 Q368 501.2 365.6 501.9 L354.8 491.1 Q352 488.3 349.2 491.15 L338.4 501.9 Q336 501.2 336 498.1 L336 477.05 368 477.05"/>
    <path stroke="none" fill="#79DB48" d="M331.35 396.3 Q330.1 395.7 329.75 394.6 329.3 393.55 329.7 392.55 330.05 391.25 331.4 390.75 351.5 381.35 370 390.8 L370.05 390.85 Q371.15 391.35 371.6 392.55 371.95 393.55 371.5 394.6 L371.6 394.5 Q371.15 395.65 370.05 396.2 L370 396.25 Q351.45 405.6 331.3 396.3 L331.35 396.3 M382.35 371.1 Q381.8 372.4 380.6 373.05 351.95 387.6 320.8 373.15 L320.75 373.1 Q319.3 372.35 318.85 371 318.4 369.7 318.85 368.45 319.35 367 320.85 366.35 L320.8 366.35 Q351.95 351.85 380.6 366.45 L380.5 366.35 Q381.8 366.9 382.4 368.45 382.85 369.65 382.4 371 L382.35 371.1"/>
    <path stroke="none" fill="#549F2E" d="M372.6 447 Q374.2 448.6 373.35 451.7 372.5 454.85 369.7 457.6 L369.55 457.75 Q368 459.25 365.8 459.25 363.55 459.25 361.95 457.65 360.35 456.05 360.35 453.8 360.35 451.6 361.85 450.05 L362 449.9 Q364.8 447.15 367.9 446.3 371 445.4 372.6 447 M342.05 457.65 Q340.45 459.25 338.2 459.25 336.05 459.25 334.45 457.75 L334.3 457.6 Q331.55 454.85 330.65 451.7 329.8 448.6 331.4 447 333 445.4 336.1 446.3 339.2 447.15 342 449.9 L342.15 450.05 Q343.65 451.6 343.65 453.8 343.65 456.05 342.05 457.65"/>
    <path stroke="none" fill="#333333" d="M316.45 430.8 L316.25 430.8 315.7 430.8 Q312.75 430.5 310.6 427.8 308.25 424.75 308.25 420.5 308.25 416.2 310.6 413.2 312.75 410.45 315.7 410.2 L316.25 410.15 316.45 410.15 316.6 410.15 Q319.35 410.15 321.65 410.85 324.35 411.6 326.5 413.2 330.65 416.2 330.65 420.5 330.65 424.75 326.5 427.8 324.35 429.35 321.65 430.15 L316.6 430.8 316.45 430.8 M387.55 410.15 L387.75 410.15 388.3 410.15 Q391.25 410.45 393.4 413.2 395.75 416.2 395.75 420.5 395.75 424.75 393.4 427.8 391.25 430.5 388.3 430.75 L387.75 430.8 387.55 430.8 387.4 430.8 382.35 430.1 Q379.65 429.35 377.5 427.8 373.35 424.75 373.35 420.5 373.35 416.2 377.5 413.2 379.65 411.6 382.35 410.8 L387.4 410.15 387.55 410.15"/>
    <path stroke="none" fill="#D987D9" d="M653.35 373.15 Q645.55 385.3 634.8 391.15 629.1 394.3 624.15 394.85 618.6 395.45 613.95 392.8 605.25 387.75 605 373.95 604.7 360.2 613.05 345.75 L614.75 342.95 Q617.85 338.8 625.35 338.7 633.65 338.65 642.3 343.65 651.05 348.7 655.2 355.9 658.8 362.45 656.85 367.2 L655.2 370.15 653.35 373.15 M722.15 373.15 L720.3 370.15 718.65 367.2 Q716.7 362.45 720.3 355.9 724.45 348.7 733.2 343.65 741.85 338.65 750.15 338.7 757.65 338.8 760.75 342.95 L762.45 345.75 Q770.8 360.2 770.5 373.95 770.25 387.75 761.55 392.8 756.9 395.45 751.35 394.85 746.4 394.3 740.7 391.15 729.95 385.3 722.15 373.15"/>
    <path stroke="none" fill="#EE9FEE" d="M751.8 357.75 L751.8 468.4 Q751.8 477.05 743.15 477.05 L632.45 477.05 Q623.8 477.05 623.8 468.4 L623.8 357.75 Q623.8 349.05 632.45 349.05 L743.15 349.05 Q751.8 349.05 751.8 357.75"/>
    <path stroke="none" fill="#CD76CD" d="M688.8 410 Q698.25 410 704.9 416.65 711.55 423.35 711.55 432.75 711.55 442.2 704.9 448.85 698.25 455.5 688.8 455.5 679.4 455.5 672.7 448.85 666.05 442.2 666.05 432.75 666.05 423.35 672.7 416.65 679.4 410 688.8 410"/>
    <path stroke="none" fill="#EE9FEE" d="M694.35 432.45 Q696.55 430.25 699 429.5 701.55 428.85 702.8 430.1 704.05 431.35 703.4 433.9 702.7 436.35 700.45 438.55 L700.35 438.7 Q699.1 439.9 697.35 439.9 695.55 439.9 694.3 438.65 693 437.35 693 435.55 693 433.75 694.2 432.55 L694.35 432.45 M683.3 432.45 L683.45 432.55 Q684.65 433.75 684.65 435.55 684.65 437.35 683.4 438.65 682.05 439.9 680.25 439.9 678.5 439.9 677.25 438.7 L677.15 438.55 Q674.9 436.35 674.25 433.9 673.55 431.35 674.85 430.1 676.1 428.85 678.6 429.5 681.1 430.25 683.3 432.45"/>
    <path stroke="none" fill="#333333" d="M737.5 415.9 L737.5 416.15 737.5 416.75 Q737.15 420.15 734.05 422.55 730.6 425.25 725.75 425.25 720.9 425.25 717.45 422.55 714.35 420.15 714.05 416.75 L714 416.15 714 415.9 714 415.75 Q714.05 409.15 717.45 404.5 720.9 399.75 725.75 399.75 730.6 399.75 734.05 404.5 737.45 409.15 737.5 415.75 L737.5 415.9 M663.5 415.9 L663.5 416.15 663.5 416.75 Q663.15 420.15 660.05 422.55 656.6 425.25 651.75 425.25 646.9 425.25 643.45 422.55 640.35 420.15 640.05 416.75 L640 416.15 640 415.9 640 415.75 Q640.05 409.15 643.45 404.5 646.9 399.75 651.75 399.75 656.6 399.75 660.05 404.5 663.45 409.15 663.5 415.75 L663.5 415.9"/>
    <path stroke="none" fill="#4178C2" d="M456.4 331.85 Q461.25 331.65 463.35 334.1 L464.75 336.4 Q470.15 345.75 469.75 354.85 469.25 363.9 463.25 367.4 457.2 370.9 449.15 366.7 441.05 362.55 435.65 353.2 L434.35 350.8 Q433.25 347.8 435.85 343.7 438.8 339 444.85 335.5 450.9 332.05 456.4 331.85 M563.35 331.85 Q568.95 332.05 574.95 335.5 580.95 339 583.95 343.7 586.55 347.8 585.45 350.8 L584.15 353.2 Q578.75 362.55 570.65 366.7 562.55 370.9 556.55 367.4 550.55 363.9 550.1 354.85 549.65 345.75 555.05 336.4 L556.45 334.1 Q558.55 331.65 563.35 331.85"/>
    <path stroke="none" fill="#528CDB" d="M445.9 439.7 L445.9 357.85 Q445.9 349.15 454.55 349.15 L565.25 349.15 Q573.9 349.15 573.9 357.85 L573.9 439.65 Q570.7 436.7 566.9 433.95 543.3 416.85 509.9 416.85 476.55 416.85 452.95 433.95 449.1 436.7 445.9 439.7"/>
    <path stroke="none" fill="#4178C2" d="M445.9 439.7 Q449.1 436.7 452.95 433.95 476.55 416.85 509.9 416.85 543.3 416.85 566.9 433.95 570.7 436.7 573.9 439.65 L573.9 468.5 Q573.9 477.15 565.25 477.15 L454.55 477.15 Q445.9 477.15 445.9 468.5 L445.9 439.7"/>
    <path stroke="none" fill="#FFFFFF" d="M502.05 489.15 L479.05 489.15 Q475.05 489.15 475.05 485.15 L475.05 477.15 506.05 477.15 506.05 485.15 Q506.05 489.15 502.05 489.15 M540.75 489.15 L517.75 489.15 Q513.75 489.15 513.75 485.15 L513.75 477.15 544.75 477.15 544.75 485.15 Q544.75 489.15 540.75 489.15"/>
    <path stroke="none" fill="#3164A8" d="M526.65 440.1 Q528.25 441.7 527.35 444.8 526.5 447.9 523.75 450.65 L523.6 450.8 Q522.05 452.3 519.9 452.3 517.65 452.3 516.05 450.7 514.5 449.1 514.5 446.9 514.5 444.7 516 443.15 L516.15 443 Q518.9 440.25 522 439.4 525.05 438.55 526.65 440.1 M503.8 450.7 Q502.2 452.3 499.95 452.3 497.8 452.3 496.2 450.8 L496.1 450.65 Q493.3 447.9 492.45 444.8 491.6 441.7 493.2 440.1 494.75 438.55 497.85 439.4 500.95 440.25 503.7 443 L503.85 443.15 Q505.35 444.7 505.35 446.9 505.35 449.1 503.8 450.7"/>
    <path stroke="none" fill="#333333" d="M483.5 403.9 L483.5 404.15 483.5 404.75 Q483.15 408.15 480.05 410.55 476.6 413.25 471.75 413.25 466.9 413.25 463.45 410.55 460.35 408.15 460.05 404.75 L460 404.15 460 403.9 460 403.75 Q460.05 397.15 463.45 392.5 466.9 387.75 471.75 387.75 476.6 387.75 480.05 392.5 483.45 397.15 483.5 403.75 L483.5 403.9 M557.5 403.9 L557.5 404.15 557.5 404.75 Q557.15 408.15 554.05 410.55 550.6 413.25 545.75 413.25 540.9 413.25 537.45 410.55 534.35 408.15 534.05 404.75 L534 404.15 534 403.9 534 403.75 Q534.05 397.15 537.45 392.5 540.9 387.75 545.75 387.75 550.6 387.75 554.05 392.5 557.45 397.15 557.5 403.75 L557.5 403.9"/>
  </g>
</svg>