<svg xmlns="http://www.w3.org/2000/svg" xmlns:xlink="http://www.w3.org/1999/xlink">
  <defs/>
  <g>
    <path stroke="none" fill="#BDB6B6" d="M891.35 350.65 Q896.45 331.65 913.45 321.8 930.5 311.95 949.5 317.05 968.55 322.15 978.35 339.15 988.2 356.2 983.1 375.2 L982.7 376.65 Q974.3 406.05 955.75 423.65 936.5 441.9 917.45 436.8 898.45 431.7 890.85 406.3 883.6 381.75 891 352.1 L891.35 350.65 M880.75 350.65 L881.1 352.1 Q888.5 381.75 881.25 406.3 873.65 431.7 854.65 436.8 835.6 441.9 816.35 423.65 797.8 406.05 789.4 376.65 L789 375.2 Q783.9 356.2 793.75 339.15 803.55 322.15 822.6 317.05 841.6 311.95 858.65 321.8 875.65 331.65 880.75 350.65"/>
    <path stroke="none" fill="#D2D0D0" d="M830.65 329.05 L941.35 329.05 Q950 329.05 950 337.75 L950 448.4 Q950 457.05 941.35 457.05 L830.65 457.05 Q822 457.05 822 448.4 L822 337.75 Q822 329.05 830.65 329.05"/>
    <path stroke="none" fill="#FFFFFF" d="M965.15 446.1 Q965.6 447.1 965.25 448.4 L965.15 448.55 Q964.75 449.5 963.95 450.2 L958.95 454.15 958.8 454.2 957.4 454.85 957 454.9 955.35 454.65 955.3 454.65 Q954.2 454.2 953.6 453.3 938.4 433.2 914.3 434.25 L914.1 434.25 Q913.2 434.25 912.45 433.85 L912.3 433.8 Q911.4 433.25 911 432.5 L910.9 432.45 Q910.35 431.45 910.4 430.65 L910.35 430.6 Q909.85 412.3 936.1 407.85 L938.35 408.15 Q955.8 415.3 965.15 446.1 M833.7 408.25 Q834.85 407.65 835.95 407.9 862.15 412.35 861.65 430.65 L861.6 430.7 Q861.65 431.55 861.1 432.5 L861.05 432.6 859.75 433.85 859.55 433.9 857.95 434.35 857.75 434.35 Q833.6 433.3 818.35 453.4 817.8 454.3 816.7 454.7 L816.7 454.75 815.05 455 814.6 454.95 813.25 454.3 813.1 454.2 808.1 450.3 808.05 450.3 Q807.2 449.6 806.85 448.65 L806.8 448.5 Q806.4 447.15 806.85 446.15 816.2 415.4 833.7 408.25"/>
    <path stroke="none" fill="#BDB6B6" d="M904.55 403.6 Q910.55 410.3 908.5 418.45 L895.9 468.9 Q895.55 470.3 892.6 471.2 889.85 472.05 886.1 472.05 882.35 472.05 879.55 471.2 876.65 470.3 876.35 468.9 L863.7 418.45 Q861.65 410.3 867.55 403.6 874.45 396.05 886.1 396.05 897.75 396.05 904.55 403.6"/>
    <path stroke="none" fill="#333333" d="M861.5 394.9 L861.5 395.15 861.5 395.75 Q861.15 399.15 858.05 401.55 854.6 404.25 849.75 404.25 844.9 404.25 841.45 401.55 838.35 399.15 838.05 395.75 L838 395.15 838 394.9 838 394.75 Q838.05 388.15 841.45 383.5 844.9 378.75 849.75 378.75 854.6 378.75 858.05 383.5 861.45 388.15 861.5 394.75 L861.5 394.9 M935.5 394.9 L935.5 395.15 935.5 395.75 Q935.15 399.15 932.05 401.55 928.6 404.25 923.75 404.25 918.9 404.25 915.45 401.55 912.35 399.15 912.05 395.75 L912 395.15 912 394.9 912 394.75 Q912.05 388.15 915.45 383.5 918.9 378.75 923.75 378.75 928.6 378.75 932.05 383.5 935.45 388.15 935.5 394.75 L935.5 394.9"/>
    <path stroke="none" fill="#D23007" d="M496 231.8 L496 129.7 Q496 121 504.65 121 L615.35 121 Q624 121 624 129.7 L624 231.8 Q596.15 237.5 560 237.5 525.15 237.5 498.05 232.2 L496 231.8"/>
    <path stroke="none" fill="#FFCC00" d="M496 231.8 L498.05 232.2 Q525.15 237.5 560 237.5 596.15 237.5 624 231.8 L624 240.35 Q624 249 615.35 249 L504.65 249 Q496 249 496 240.35 L496 231.8"/>
    <path stroke="none" fill="#FFFFFF" d="M548.3 184.6 L548.2 185.3 Q544.05 200.6 535.05 209.75 526.05 218.9 517.4 216.5 508.7 214.2 505.4 201.8 502.15 189.35 506.3 174.05 L506.4 173.4 Q508.85 165.05 516.45 160.75 524.2 156.2 532.9 158.5 541.55 160.85 546.1 168.65 550.4 176.25 548.3 184.6 M613.7 174.05 Q617.85 189.35 614.6 201.8 611.3 214.2 602.6 216.5 593.95 218.9 584.95 209.75 575.95 200.6 571.8 185.3 L571.7 184.6 Q569.6 176.25 573.9 168.65 578.45 160.85 587.1 158.5 595.8 156.2 603.55 160.75 611.15 165.05 613.6 173.4 L613.7 174.05"/>
    <path stroke="none" fill="#333333" d="M540.2 181.4 L540.2 181.6 540.2 182.1 Q539.9 184.8 537.45 186.7 534.7 188.85 530.85 188.85 527 188.85 524.25 186.7 521.8 184.8 521.55 182.1 L521.5 181.6 521.5 181.4 521.5 181.3 Q521.55 176.05 524.25 172.35 527 168.6 530.85 168.6 534.7 168.6 537.45 172.35 540.15 176.05 540.2 181.3 L540.2 181.4 M599 181.4 L599 181.6 599 182.1 Q598.75 184.8 596.25 186.7 593.5 188.85 589.65 188.85 585.8 188.85 583.05 186.7 580.6 184.8 580.35 182.1 L580.3 181.6 580.3 181.4 580.3 181.3 Q580.35 176.05 583.05 172.35 585.8 168.6 589.65 168.6 593.5 168.6 596.25 172.35 598.95 176.05 599 181.3 L599 181.4"/>
    <path stroke="none" fill="#5D9CF3" d="M539.2 214.2 L539.05 213.2 538.95 210.9 538.95 199.45 Q538.95 196.7 539.6 194.2 L539.9 193.2 539.95 193 Q541.4 188.35 545.1 184.65 551.3 178.5 560.05 178.5 568.8 178.5 574.95 184.65 578.65 188.35 580.15 193 L580.2 193.2 580.45 194.2 Q581.1 196.7 581.1 199.45 L581.1 210.9 581 213.2 580.9 214.2 Q560.05 219.5 539.2 214.2"/>
    <path stroke="none" fill="#397EDE" d="M539.2 214.2 Q560.05 219.5 580.9 214.2 579.9 220.85 574.95 225.8 568.8 232 560.05 232 551.3 232 545.1 225.8 540.15 220.85 539.2 214.2"/>
    <path stroke="none" fill="#BB2905" d="M573.45 135.7 Q577.35 142.45 578.1 148.35 579 154.2 576.25 155.75 573.5 157.35 568.8 153.7 564.2 150.05 560.3 143.3 L559.4 141.75 Q557.8 138.55 558.2 135.25 558.6 131.6 561.35 130 564.1 128.45 567.5 129.9 570.5 131.2 572.5 134.2 L573.45 135.7"/>
    <path stroke="none" fill="#BB2905" d="M553.75 143.4 Q551.2 147.9 548.05 150.3 545 152.75 543.2 151.65 541.4 150.65 541.95 146.75 542.5 142.85 545.05 138.4 L545.65 137.35 Q547 135.35 549 134.5 551.25 133.5 553.05 134.55 554.85 135.65 555.15 138.1 555.4 140.2 554.35 142.35 L553.75 143.4"/>
    <path stroke="none" fill="#365A66" d="M666.55 249 L652.65 249 Q644 249 644 240.35 L644 129.7 Q644 121 652.65 121 L763.35 121 Q772 121 772 129.7 L772 240.35 Q772 249 763.35 249 L749.45 249 Q746.2 238.15 740.85 228.8 727.25 204.95 708 204.95 688.75 204.95 675.1 228.8 669.8 238.15 666.55 249"/>
    <path stroke="none" fill="#E5F3F7" d="M666.55 249 Q669.8 238.15 675.1 228.8 688.75 204.95 708 204.95 727.25 204.95 740.85 228.8 746.2 238.15 749.45 249 L666.55 249"/>
    <path stroke="none" fill="#F2F9FB" d="M755.5 170.7 L755.65 171.25 Q758.95 183.55 756.4 193.5 753.8 203.5 746.85 205.35 739.9 207.2 732.6 199.9 725.35 192.55 722.05 180.25 L721.9 179.7 Q720.25 172.95 723.8 166.9 727.4 160.6 734.35 158.75 741.3 156.9 747.6 160.5 753.6 164.05 755.5 170.7 M694.2 179.75 L694.05 180.3 Q690.75 192.6 683.55 199.9 676.3 207.25 669.3 205.4 662.35 203.5 659.75 193.55 657.1 183.55 660.4 171.25 L660.55 170.7 Q662.5 164.05 668.55 160.55 674.85 156.9 681.8 158.8 688.8 160.65 692.35 166.9 695.9 173 694.2 179.75"/>
    <path stroke="none" fill="#333333" d="M688.85 178.8 L688.85 179 688.85 179.5 Q688.55 182.1 686.15 183.95 683.5 186 679.8 186 676.05 186 673.4 183.95 671 182.1 670.8 179.5 L670.75 179 670.75 178.8 670.75 178.7 Q670.8 173.65 673.4 170.05 676.05 166.45 679.8 166.45 683.5 166.45 686.15 170.05 688.8 173.65 688.85 178.7 L688.85 178.8 M745.75 178.8 L745.75 179 745.75 179.5 Q745.5 182.1 743.05 183.95 740.4 186 736.7 186 732.95 186 730.3 183.95 727.95 182.1 727.7 179.5 L727.65 179 727.65 178.8 727.65 178.7 Q727.7 173.65 730.3 170.05 732.95 166.45 736.7 166.45 740.4 166.45 743.05 170.05 745.7 173.65 745.75 178.7 L745.75 178.8"/>
    <path stroke="none" fill="#FF9900" d="M724 201.55 Q723.7 205.1 719.35 207.65 714.7 210.4 708.05 210.4 701.4 210.4 696.7 207.65 692.4 205.1 692.05 201.55 L692 200.5 Q692 193.85 696.7 189.15 701.4 184.5 708.05 184.5 714.7 184.5 719.35 189.15 724.05 193.85 724.05 200.5 L724 201.55"/>
    <path stroke="none" fill="#915B32" d="M795 172.7 Q795 155.7 807 143.7 819 131.7 836 131.7 853 131.7 865 143.7 877 155.7 877 172.7 877 189.7 865 201.7 853 213.7 836 213.7 819 213.7 807 201.7 795 189.7 795 172.7 M965 143.7 Q977 155.7 977 172.7 977 189.7 965 201.7 953 213.7 936 213.7 919 213.7 907 201.7 895 189.7 895 172.7 895 155.7 907 143.7 919 131.7 936 131.7 953 131.7 965 143.7"/>
    <path stroke="none" fill="#A16639" d="M950 129.7 L950 240.35 Q950 249 941.35 249 L830.65 249 Q822 249 822 240.35 L822 129.7 Q822 121 830.65 121 L941.35 121 Q950 121 950 129.7"/>
    <path stroke="none" fill="#BF8559" d="M930.95 149.95 Q939.35 158.35 939.35 170.2 939.35 182.05 930.95 190.5 L930.9 190.5 Q928.65 192.7 926.1 194.4 926 211 914.2 222.8 902.3 234.65 885.5 234.65 868.7 234.65 856.8 222.8 845 211 844.9 194.35 842.4 192.7 840.15 190.5 L840.1 190.5 Q831.7 182.05 831.7 170.2 831.7 158.35 840.1 149.95 848.5 141.55 860.4 141.55 872.2 141.55 880.6 149.95 L883.7 153.55 885.5 153.5 887.3 153.55 890.4 149.95 Q898.8 141.55 910.7 141.55 922.5 141.55 930.95 149.95"/>
    <path stroke="none" fill="#A16639" d="M880.6 194.6 Q879.25 195.85 877.45 195.85 875.7 195.85 874.45 194.65 L874.35 194.5 Q872.1 192.3 871.45 189.85 870.75 187.3 872.05 186.05 873.3 184.8 875.8 185.45 878.3 186.2 880.5 188.4 L880.65 188.5 Q881.85 189.7 881.85 191.5 881.85 193.3 880.6 194.6 M891.55 188.4 Q893.75 186.2 896.2 185.45 898.75 184.8 900 186.05 901.25 187.3 900.6 189.85 899.9 192.3 897.65 194.5 L897.55 194.65 Q896.3 195.85 894.55 195.85 892.75 195.85 891.5 194.6 890.2 193.3 890.2 191.5 890.2 189.7 891.4 188.5 L891.55 188.4"/>
    <path stroke="none" fill="#333333" d="M866.2 173.4 L866.2 173.6 866.2 174.1 Q865.9 176.8 863.45 178.7 860.7 180.85 856.85 180.85 853 180.85 850.25 178.7 847.8 176.8 847.55 174.1 L847.5 173.6 847.5 173.4 847.5 173.3 Q847.55 168.05 850.25 164.35 853 160.6 856.85 160.6 860.7 160.6 863.45 164.35 866.15 168.05 866.2 173.3 L866.2 173.4 M925 173.4 L925 173.6 925 174.1 Q924.75 176.8 922.25 178.7 919.5 180.85 915.65 180.85 911.8 180.85 909.05 178.7 906.6 176.8 906.35 174.1 L906.3 173.6 906.3 173.4 906.3 173.3 Q906.35 168.05 909.05 164.35 911.8 160.6 915.65 160.6 919.5 160.6 922.25 164.35 924.95 168.05 925 173.3 L925 173.4"/>
    <path stroke="none" fill="#FFFFFF" d="M901.55 200.65 Q904.95 199.2 908.45 200.6 911.9 202 913.3 205.45 914.75 208.9 913.35 212.4 911.95 215.8 908.55 217.3 888.45 225.95 864.15 217.5 860.55 216.25 858.95 212.9 857.3 209.5 858.55 206 859.75 202.45 863.15 200.8 866.55 199.2 870.05 200.4 887.25 206.4 901.55 200.65"/>
    <path stroke="none" fill="#272626" d="M411 109.7 Q423 97.7 440 97.7 457 97.7 469 109.7 481 121.7 481 138.7 481 155.7 469 167.7 457 179.7 440 179.7 423 179.7 411 167.7 399 155.7 399 138.7 399 121.7 411 109.7 M416 142.7 Q416 151 421.85 156.85 427.7 162.7 436 162.7 444.3 162.7 450.15 156.85 456 151 456 142.7 456 134.4 450.15 128.55 444.3 122.7 436 122.7 427.7 122.7 421.85 128.55 416 134.4 416 142.7"/>
    <path stroke="none" fill="#383737" d="M416 142.7 Q416 134.4 421.85 128.55 427.7 122.7 436 122.7 444.3 122.7 450.15 128.55 456 134.4 456 142.7 456 151 450.15 156.85 444.3 162.7 436 162.7 427.7 162.7 421.85 156.85 416 151 416 142.7"/>
    <path stroke="none" fill="#272626" d="M329.85 156.85 Q335.7 162.7 344 162.7 352.3 162.7 358.15 156.85 364 151 364 142.7 364 134.4 358.15 128.55 352.3 122.7 344 122.7 335.7 122.7 329.85 128.55 324 134.4 324 142.7 324 151 329.85 156.85 M369 109.7 Q381 121.7 381 138.7 381 155.7 369 167.7 357 179.7 340 179.7 323 179.7 311 167.7 299 155.7 299 138.7 299 121.7 311 109.7 323 97.7 340 97.7 357 97.7 369 109.7"/>
    <path stroke="none" fill="#383737" d="M329.85 156.85 Q324 151 324 142.7 324 134.4 329.85 128.55 335.7 122.7 344 122.7 352.3 122.7 358.15 128.55 364 134.4 364 142.7 364 151 358.15 156.85 352.3 162.7 344 162.7 335.7 162.7 329.85 156.85"/>
    <path stroke="none" fill="#FFFFFF" d="M342.25 249 L334.65 249 Q326 249 326 240.35 L326 129.7 Q326 121 334.65 121 L445.35 121 Q454 121 454 129.7 L454 240.35 Q454 249 445.35 249 L437.8 249 Q436.2 239.1 423.95 231.85 409.9 223.5 390 223.5 370.1 223.5 356.05 231.85 343.8 239.1 342.25 249"/>
    <path stroke="none" fill="#EEEEEE" d="M342.25 249 Q343.8 239.1 356.05 231.85 370.1 223.5 390 223.5 409.9 223.5 423.95 231.85 436.2 239.1 437.8 249 L342.25 249"/>
    <path stroke="none" fill="#272626" d="M428.5 166.1 Q435.55 170.2 438.9 175.9 442.25 181.6 439.95 185.6 437.65 189.6 431 189.55 424.4 189.5 417.35 185.4 L417.05 185.2 Q413.25 182.95 412.1 178.6 410.9 174.15 413.15 170.15 415.5 166.15 419.95 164.95 424.3 163.8 428.2 165.9 L428.5 166.1"/>
    <path stroke="none" fill="#272626" d="M362.95 185.2 L362.65 185.4 Q355.6 189.5 349 189.55 342.35 189.6 340.05 185.6 337.75 181.6 341.1 175.9 344.45 170.2 351.5 166.1 L351.8 165.9 Q355.7 163.8 360.05 164.95 364.5 166.15 366.85 170.15 369.15 174.15 367.95 178.6 366.75 182.95 362.95 185.2"/>
    <path stroke="none" fill="#272626" d="M390 205.95 Q383.85 205.95 379.5 201.6 375.2 197.3 375.2 191.15 L375.2 190.1 Q375.55 187.4 379.5 185.45 383.85 183.35 390 183.35 396.1 183.35 400.45 185.45 404.4 187.4 404.75 190.1 L404.8 191.15 Q404.8 197.3 400.45 201.6 396.1 205.95 390 205.95"/>
    <path stroke="none" fill="#272626" d="M416.25 208.25 Q415.15 210.3 413.35 212.15 408.55 216.9 401.85 216.9 395.15 216.9 390.4 212.15 L390.05 211.8 389.7 212.15 Q384.9 216.9 378.2 216.9 371.5 216.9 366.75 212.15 364.95 210.35 363.85 208.35 363.65 207.95 363.8 207.6 L364.25 207 369.5 204.1 370.25 204 370.85 204.5 372.4 206.5 Q374.8 208.9 378.2 208.9 381.6 208.9 384.05 206.5 385.6 204.9 386.15 202.9 L388.5 194.65 Q388.6 194.3 388.85 194.1 L389.45 193.9 390.45 193.9 391.05 194.1 391.4 194.6 393.85 202.8 393.9 202.85 Q394.45 204.9 396.05 206.5 398.45 208.9 401.85 208.9 405.25 208.9 407.7 206.5 L409.1 204.6 Q409.3 204.2 409.7 204.1 L410.45 204.15 415.8 206.9 Q416.15 207.05 416.3 207.5 L416.25 208.25"/>
    <path stroke="none" fill="#E9BB00" d="M290.1 130.7 Q290 137 286.55 139.6 L284.2 141.05 Q272.05 148.05 260.55 147.8 248.95 147.55 244.7 140.25 240.5 132.95 246.1 122.8 251.6 112.65 263.7 105.65 L266.2 104.3 Q270.15 102.65 275.65 105.65 281.7 109.15 285.95 116.5 290.15 123.75 290.1 130.7 M113.8 130.7 Q113.75 123.75 117.95 116.5 122.2 109.15 128.25 105.65 133.75 102.65 137.7 104.3 L140.2 105.65 Q152.3 112.65 157.8 122.8 163.4 132.95 159.2 140.25 154.95 147.55 143.35 147.8 131.85 148.05 119.7 141.05 L117.35 139.6 Q113.9 137 113.8 130.7"/>
    <path stroke="none" fill="#FFCC00" d="M138 221.55 L138 129.7 Q138 121 146.65 121 L257.35 121 Q266 121 266 129.7 L266 221.5 Q262.8 218.55 259 215.8 235.4 198.7 202 198.7 168.65 198.7 145.05 215.8 141.2 218.55 138 221.55"/>
    <path stroke="none" fill="#CBA200" d="M138 221.55 Q141.2 218.55 145.05 215.8 168.65 198.7 202 198.7 235.4 198.7 259 215.8 262.8 218.55 266 221.5 L266 240.35 Q266 249 257.35 249 L146.65 249 Q138 249 138 240.35 L138 221.55"/>
    <path stroke="none" fill="#CBA200" d="M235.1 78.35 Q240.6 79.85 243.5 84.8 246.35 89.75 244.9 95.3 243.35 100.8 238.45 103.7 236.4 104.85 234.35 105.3 L225.85 129.55 225.85 129.6 Q225.2 131.25 223.7 132.05 L223.7 132.1 Q222.15 132.85 220.6 132.45 L220.65 132.45 Q219.05 132.1 218.1 130.55 217.2 129.1 217.6 127.35 L222.35 102.15 Q220.75 100.65 219.55 98.7 L219.55 98.65 Q216.65 93.7 218.2 88.15 219.65 82.6 224.6 79.75 229.55 76.85 235.1 78.35 M159.15 95.3 Q157.65 89.75 160.55 84.8 163.4 79.85 168.95 78.4 174.5 76.9 179.4 79.8 L179.45 79.8 Q184.3 82.65 185.8 88.2 187.3 93.75 184.5 98.7 L184.5 98.75 181.7 102.15 186.5 127.4 186.45 127.35 Q186.8 129.1 185.9 130.6 L185.95 130.6 Q185.05 132 183.45 132.5 181.95 132.9 180.35 132.15 L180.2 132.1 Q178.85 131.3 178.25 129.65 L178.2 129.6 169.75 105.35 Q167.65 104.9 165.6 103.75 160.65 100.85 159.15 95.3"/>
    <path stroke="none" fill="#A38200" d="M221 211.2 Q222.55 212.75 221.7 215.7 220.9 218.65 218.25 221.3 L218.1 221.45 Q216.6 222.85 214.55 222.85 212.4 222.85 210.9 221.35 209.4 219.85 209.4 217.7 209.4 215.6 210.8 214.15 L210.95 214 Q213.6 211.35 216.55 210.55 219.5 209.7 221 211.2 M186.9 221.45 L186.75 221.3 Q184.1 218.65 183.3 215.7 182.45 212.75 184 211.2 185.5 209.7 188.45 210.55 191.4 211.35 194.05 214 L194.2 214.15 Q195.6 215.6 195.6 217.7 195.6 219.85 194.1 221.35 192.6 222.85 190.45 222.85 188.4 222.85 186.9 221.45"/>
    <path stroke="none" fill="#543209" d="M177.5 183.9 L177.5 184.15 177.5 184.75 Q177.15 188.15 174.05 190.55 170.6 193.25 165.75 193.25 160.9 193.25 157.45 190.55 154.35 188.15 154.05 184.75 L154 184.15 154 183.9 154 183.75 Q154.05 177.15 157.45 172.5 160.9 167.75 165.75 167.75 170.6 167.75 174.05 172.5 177.45 177.15 177.5 183.75 L177.5 183.9"/>
    <path stroke="none" fill="#543209" d="M251.5 183.9 L251.5 184.15 251.5 184.75 Q251.15 188.15 248.05 190.55 244.6 193.25 239.75 193.25 234.9 193.25 231.45 190.55 228.35 188.15 228.05 184.75 L228 184.15 228 183.9 228 183.75 Q228.05 177.15 231.45 172.5 234.9 167.75 239.75 167.75 244.6 167.75 248.05 172.5 251.45 177.15 251.5 183.75 L251.5 183.9"/>
    <path stroke="none" fill="#E9BB00" d="M211.9 163.8 L202.15 156.75 Q201.45 156.2 201.2 155.4 200.95 154.6 201.2 153.8 L204.9 142.35 Q205.15 141.5 205.85 141 206.5 140.5 207.4 140.5 L219.45 140.5 Q220.35 140.5 221.05 141 221.7 141.5 221.95 142.35 L225.65 153.8 Q225.9 154.6 225.65 155.4 225.4 156.2 224.75 156.75 L215.05 163.8 Q214.35 164.3 213.45 164.3 212.6 164.3 211.9 163.8 M199.25 147.85 L194.3 154.65 Q193.8 155.3 193 155.55 192.15 155.8 191.35 155.55 L183.4 152.95 Q182.55 152.7 182.05 152.05 181.55 151.35 181.55 150.45 L181.55 142.05 Q181.55 141.2 182.05 140.55 182.55 139.85 183.4 139.55 L191.35 137 Q192.15 136.7 193 137 193.8 137.25 194.3 137.95 L199.25 144.75 Q199.7 145.45 199.7 146.3 L199.25 147.85 M190.65 171.5 L189.35 165.4 Q189.15 164.5 189.5 163.75 189.85 162.9 190.6 162.5 L196.05 159.35 Q196.8 158.95 197.65 159.05 198.5 159.1 199.15 159.7 L203.8 163.9 Q204.4 164.45 204.6 165.35 204.75 166.15 204.4 166.95 L201.85 172.65 200.75 173.9 Q200 174.35 199.15 174.25 L192.95 173.6 191.45 172.95 Q190.85 172.3 190.65 171.5"/>
    <path stroke="none" fill="#BDBDBD" d="M155.7 264.55 Q164.65 262.15 176.25 279.95 187.45 297.15 194.7 323.45 L194.85 324.05 Q197.1 332.35 192.3 339.9 187.5 347.5 178.55 349.9 169.55 352.3 161.6 348.15 153.65 344 151.4 335.7 L151.25 335.1 Q144.45 308.65 145.55 288.2 146.7 266.95 155.7 264.55 M246.45 264.55 Q255.45 266.95 256.65 288.15 257.7 308.65 250.9 335.05 L250.75 335.65 Q248.5 343.95 240.6 348.1 232.6 352.3 223.6 349.9 214.65 347.45 209.85 339.85 205.05 332.3 207.3 324 L207.45 323.4 Q214.75 297.1 225.9 279.9 237.5 262.1 246.45 264.55"/>
    <path stroke="none" fill="#D2D0D0" d="M146.65 329.05 L257.35 329.05 Q266 329.05 266 337.75 L266 448.4 Q266 457.05 257.35 457.05 L146.65 457.05 Q138 457.05 138 448.4 L138 337.75 Q138 329.05 146.65 329.05"/>
    <path stroke="none" fill="#B1B1B1" d="M214.3 422.05 Q214.3 427.55 210.4 431.4 206.55 435.3 201.05 435.3 195.55 435.3 191.65 431.4 187.8 427.55 187.8 422.05 187.8 416.55 191.65 412.65 195.55 408.8 201.05 408.8 206.55 408.8 210.4 412.65 214.3 416.55 214.3 422.05"/>
    <path stroke="none" fill="#FFFFFF" d="M187.45 393.15 L217.5 393.15 Q224.85 393.3 230.1 398.55 235.5 403.95 235.5 411.55 235.5 419.2 230.1 424.65 224.65 430 217.05 430 209.4 430 204 424.65 L202 422.25 200 424.65 Q194.55 430 186.9 430 179.3 430 173.9 424.65 168.5 419.2 168.5 411.55 168.5 403.95 173.9 398.55 179.3 393.15 186.9 393.15 L187.45 393.15"/>
    <path stroke="none" fill="#EE9FEE" d="M213.05 383.85 Q217 385.8 217.35 388.5 L217.4 389.55 Q217.4 395.7 213.05 400 208.7 404.35 202.6 404.35 196.45 404.35 192.1 400 187.8 395.7 187.8 389.55 L187.8 388.5 Q188.15 385.8 192.1 383.85 196.45 381.75 202.6 381.75 208.7 381.75 213.05 383.85"/>
    <path stroke="none" fill="#543209" d="M180.65 381.6 L180.65 381.8 180.65 382.35 Q180.35 385.3 177.6 387.4 174.6 389.75 170.35 389.75 166.1 389.75 163.1 387.4 160.4 385.3 160.1 382.35 L160.1 381.8 160.1 381.6 160.1 381.45 Q160.1 375.7 163.1 371.6 166.1 367.45 170.35 367.45 174.6 367.45 177.6 371.6 180.6 375.7 180.65 381.45 L180.65 381.6"/>
    <path stroke="none" fill="#543209" d="M245.4 381.6 L245.4 381.8 245.4 382.35 Q245.05 385.3 242.35 387.4 239.35 389.75 235.1 389.75 230.85 389.75 227.85 387.4 225.1 385.3 224.85 382.35 L224.8 381.8 224.8 381.6 224.8 381.45 Q224.85 375.7 227.85 371.6 230.85 367.45 235.1 367.45 239.35 367.45 242.35 371.6 245.35 375.7 245.4 381.45 L245.4 381.6"/>
    <path stroke="none" fill="#B1B1B1" d="M224.6 411.8 Q237.9 411.7 244.35 418.35 L244.6 418.9 244.35 419.45 241.05 422.7 240.5 422.95 240 422.7 Q234.9 417.9 224.6 418 L224.05 417.8 223.85 417.2 223.8 412.6 Q223.75 412.25 224 412.05 224.25 411.8 224.6 411.8 M247.85 402.45 L247.25 407.05 246.95 407.6 246.4 407.75 Q235.65 406.3 225.6 409.9 L225.05 409.85 224.6 409.4 223.05 405.05 Q222.95 404.7 223.1 404.45 L223.55 404.05 Q234.95 399.95 247.2 401.6 L247.7 401.9 247.85 402.45 M179.05 411.8 L179.65 412.05 179.85 412.6 179.8 417.2 179.55 417.8 179 418 Q168.75 417.9 163.65 422.7 L163.1 422.95 162.6 422.7 159.3 419.45 159.05 418.9 Q159.05 418.55 159.3 418.35 165.7 411.7 179.05 411.8 M155.75 402.45 Q155.75 402.15 155.9 401.9 L156.45 401.6 Q168.7 399.95 180.05 404.05 L180.55 404.45 180.55 405.05 179 409.4 178.6 409.85 178 409.9 Q168 406.3 157.25 407.75 L156.7 407.6 156.4 407.05 155.75 402.45"/>
    <path stroke="none" fill="#66CC33" d="M288 429.75 L288 337.75 Q288 329.05 296.65 329.05 L407.35 329.05 Q416 329.05 416 337.75 L416 429.75 Q388.85 417 352 417 315.15 417 288 429.75"/>
    <path stroke="none" fill="#79DB48" d="M288 429.75 Q315.15 417 352 417 388.85 417 416 429.75 L416 448.4 Q416 457.05 407.35 457.05 L393.35 457.05 372.6 457.05 368 457.05 336 457.05 331.55 457.05 310.8 457.05 296.65 457.05 Q288 457.05 288 448.4 L288 429.75"/>
    <path stroke="none" fill="#FFFFFF" d="M393.35 457.05 L385.8 464.6 Q382.95 467.45 380.15 464.65 L372.6 457.05 393.35 457.05 M331.55 457.05 L324 464.6 Q321.15 467.45 318.35 464.65 L310.8 457.05 331.55 457.05"/>
    <path stroke="none" fill="#D23007" d="M368 457.05 L368 478.1 Q368 481.2 365.6 481.9 L354.8 471.1 Q352 468.3 349.2 471.15 L338.4 481.9 Q336 481.2 336 478.1 L336 457.05 368 457.05"/>
    <path stroke="none" fill="#79DB48" d="M382.35 351.1 Q381.8 352.4 380.6 353.05 351.95 367.6 320.8 353.15 L320.75 353.1 Q319.3 352.35 318.85 351 318.4 349.7 318.85 348.45 319.35 347 320.85 346.35 L320.8 346.35 Q351.95 331.85 380.6 346.45 L380.5 346.35 Q381.8 346.9 382.4 348.45 382.85 349.65 382.4 351 L382.35 351.1 M331.35 376.3 Q330.1 375.7 329.75 374.6 329.3 373.55 329.7 372.55 330.05 371.25 331.4 370.75 351.5 361.35 370 370.8 L370.05 370.85 Q371.15 371.35 371.6 372.55 371.95 373.55 371.5 374.6 L371.6 374.5 Q371.15 375.65 370.05 376.2 L370 376.25 Q351.45 385.6 331.3 376.3 L331.35 376.3"/>
    <path stroke="none" fill="#549F2E" d="M372.6 427 Q374.2 428.6 373.35 431.7 372.5 434.85 369.7 437.6 L369.55 437.75 Q368 439.25 365.8 439.25 363.55 439.25 361.95 437.65 360.35 436.05 360.35 433.8 360.35 431.6 361.85 430.05 L362 429.9 Q364.8 427.15 367.9 426.3 371 425.4 372.6 427 M342.05 437.65 Q340.45 439.25 338.2 439.25 336.05 439.25 334.45 437.75 L334.3 437.6 Q331.55 434.85 330.65 431.7 329.8 428.6 331.4 427 333 425.4 336.1 426.3 339.2 427.15 342 429.9 L342.15 430.05 Q343.65 431.6 343.65 433.8 343.65 436.05 342.05 437.65"/>
    <path stroke="none" fill="#333333" d="M387.55 390.15 L387.75 390.15 388.3 390.15 Q391.25 390.45 393.4 393.2 395.75 396.2 395.75 400.5 395.75 404.75 393.4 407.8 391.25 410.5 388.3 410.75 L387.75 410.8 387.55 410.8 387.4 410.8 382.35 410.1 Q379.65 409.35 377.5 407.8 373.35 404.75 373.35 400.5 373.35 396.2 377.5 393.2 379.65 391.6 382.35 390.8 L387.4 390.15 387.55 390.15 M316.45 410.8 L316.25 410.8 315.7 410.8 Q312.75 410.5 310.6 407.8 308.25 404.75 308.25 400.5 308.25 396.2 310.6 393.2 312.75 390.45 315.7 390.2 L316.25 390.15 316.45 390.15 316.6 390.15 Q319.35 390.15 321.65 390.85 324.35 391.6 326.5 393.2 330.65 396.2 330.65 400.5 330.65 404.75 326.5 407.8 324.35 409.35 321.65 410.15 L316.6 410.8 316.45 410.8"/>
    <path stroke="none" fill="#D987D9" d="M653.35 353.15 Q645.55 365.3 634.8 371.15 629.1 374.3 624.15 374.85 618.6 375.45 613.95 372.8 605.25 367.75 605 353.95 604.7 340.2 613.05 325.75 L614.75 322.95 Q617.85 318.8 625.35 318.7 633.65 318.65 642.3 323.65 651.05 328.7 655.2 335.9 658.8 342.45 656.85 347.2 L655.2 350.15 653.35 353.15 M722.15 353.15 L720.3 350.15 718.65 347.2 Q716.7 342.45 720.3 335.9 724.45 328.7 733.2 323.65 741.85 318.65 750.15 318.7 757.65 318.8 760.75 322.95 L762.45 325.75 Q770.8 340.2 770.5 353.95 770.25 367.75 761.55 372.8 756.9 375.45 751.35 374.85 746.4 374.3 740.7 371.15 729.95 365.3 722.15 353.15"/>
    <path stroke="none" fill="#EE9FEE" d="M751.8 337.75 L751.8 448.4 Q751.8 457.05 743.15 457.05 L632.45 457.05 Q623.8 457.05 623.8 448.4 L623.8 337.75 Q623.8 329.05 632.45 329.05 L743.15 329.05 Q751.8 329.05 751.8 337.75"/>
    <path stroke="none" fill="#CD76CD" d="M688.8 390 Q698.25 390 704.9 396.65 711.55 403.35 711.55 412.75 711.55 422.2 704.9 428.85 698.25 435.5 688.8 435.5 679.4 435.5 672.7 428.85 666.05 422.2 666.05 412.75 666.05 403.35 672.7 396.65 679.4 390 688.8 390"/>
    <path stroke="none" fill="#EE9FEE" d="M694.35 412.45 Q696.55 410.25 699 409.5 701.55 408.85 702.8 410.1 704.05 411.35 703.4 413.9 702.7 416.35 700.45 418.55 L700.35 418.7 Q699.1 419.9 697.35 419.9 695.55 419.9 694.3 418.65 693 417.35 693 415.55 693 413.75 694.2 412.55 L694.35 412.45 M683.3 412.45 L683.45 412.55 Q684.65 413.75 684.65 415.55 684.65 417.35 683.4 418.65 682.05 419.9 680.25 419.9 678.5 419.9 677.25 418.7 L677.15 418.55 Q674.9 416.35 674.25 413.9 673.55 411.35 674.85 410.1 676.1 408.85 678.6 409.5 681.1 410.25 683.3 412.45"/>
    <path stroke="none" fill="#333333" d="M663.5 395.9 L663.5 396.15 663.5 396.75 Q663.15 400.15 660.05 402.55 656.6 405.25 651.75 405.25 646.9 405.25 643.45 402.55 640.35 400.15 640.05 396.75 L640 396.15 640 395.9 640 395.75 Q640.05 389.15 643.45 384.5 646.9 379.75 651.75 379.75 656.6 379.75 660.05 384.5 663.45 389.15 663.5 395.75 L663.5 395.9 M737.5 395.9 L737.5 396.15 737.5 396.75 Q737.15 400.15 734.05 402.55 730.6 405.25 725.75 405.25 720.9 405.25 717.45 402.55 714.35 400.15 714.05 396.75 L714 396.15 714 395.9 714 395.75 Q714.05 389.15 717.45 384.5 720.9 379.75 725.75 379.75 730.6 379.75 734.05 384.5 737.45 389.15 737.5 395.75 L737.5 395.9"/>
    <path stroke="none" fill="#4178C2" d="M456.4 311.85 Q461.25 311.65 463.35 314.1 L464.75 316.4 Q470.15 325.75 469.75 334.85 469.25 343.9 463.25 347.4 457.2 350.9 449.15 346.7 441.05 342.55 435.65 333.2 L434.35 330.8 Q433.25 327.8 435.85 323.7 438.8 319 444.85 315.5 450.9 312.05 456.4 311.85 M563.35 311.85 Q568.95 312.05 574.95 315.5 580.95 319 583.95 323.7 586.55 327.8 585.45 330.8 L584.15 333.2 Q578.75 342.55 570.65 346.7 562.55 350.9 556.55 347.4 550.55 343.9 550.1 334.85 549.65 325.75 555.05 316.4 L556.45 314.1 Q558.55 311.65 563.35 311.85"/>
    <path stroke="none" fill="#528CDB" d="M445.9 419.7 L445.9 337.85 Q445.9 329.15 454.55 329.15 L565.25 329.15 Q573.9 329.15 573.9 337.85 L573.9 419.65 Q570.7 416.7 566.9 413.95 543.3 396.85 509.9 396.85 476.55 396.85 452.95 413.95 449.1 416.7 445.9 419.7"/>
    <path stroke="none" fill="#4178C2" d="M445.9 419.7 Q449.1 416.7 452.95 413.95 476.55 396.85 509.9 396.85 543.3 396.85 566.9 413.95 570.7 416.7 573.9 419.65 L573.9 448.5 Q573.9 457.15 565.25 457.15 L454.55 457.15 Q445.9 457.15 445.9 448.5 L445.9 419.7"/>
    <path stroke="none" fill="#FFFFFF" d="M540.75 469.15 L517.75 469.15 Q513.75 469.15 513.75 465.15 L513.75 457.15 544.75 457.15 544.75 465.15 Q544.75 469.15 540.75 469.15 M502.05 469.15 L479.05 469.15 Q475.05 469.15 475.05 465.15 L475.05 457.15 506.05 457.15 506.05 465.15 Q506.05 469.15 502.05 469.15"/>
    <path stroke="none" fill="#3164A8" d="M526.65 420.1 Q528.25 421.7 527.35 424.8 526.5 427.9 523.75 430.65 L523.6 430.8 Q522.05 432.3 519.9 432.3 517.65 432.3 516.05 430.7 514.5 429.1 514.5 426.9 514.5 424.7 516 423.15 L516.15 423 Q518.9 420.25 522 419.4 525.05 418.55 526.65 420.1 M503.8 430.7 Q502.2 432.3 499.95 432.3 497.8 432.3 496.2 430.8 L496.1 430.65 Q493.3 427.9 492.45 424.8 491.6 421.7 493.2 420.1 494.75 418.55 497.85 419.4 500.95 420.25 503.7 423 L503.85 423.15 Q505.35 424.7 505.35 426.9 505.35 429.1 503.8 430.7"/>
    <path stroke="none" fill="#333333" d="M483.5 383.9 L483.5 384.15 483.5 384.75 Q483.15 388.15 480.05 390.55 476.6 393.25 471.75 393.25 466.9 393.25 463.45 390.55 460.35 388.15 460.05 384.75 L460 384.15 460 383.9 460 383.75 Q460.05 377.15 463.45 372.5 466.9 367.75 471.75 367.75 476.6 367.75 480.05 372.5 483.45 377.15 483.5 383.75 L483.5 383.9 M557.5 383.9 L557.5 384.15 557.5 384.75 Q557.15 388.15 554.05 390.55 550.6 393.25 545.75 393.25 540.9 393.25 537.45 390.55 534.35 388.15 534.05 384.75 L534 384.15 534 383.9 534 383.75 Q534.05 377.15 537.45 372.5 540.9 367.75 545.75 367.75 550.6 367.75 554.05 372.5 557.45 377.15 557.5 383.75 L557.5 383.9"/>
  </g>
</svg>