<svg xmlns="http://www.w3.org/2000/svg" xmlns:xlink="http://www.w3.org/1999/xlink">
  <defs/>
  <g>
    <path stroke="none" fill="#BDB6B6" d="M807.9 329.05 Q807.9 337 805.45 346.05 801.55 360.65 793.7 369.6 789.8 374.05 786 375.8 L786 337.75 Q786 329.05 794.65 329.05 L807.9 329.05 M914 375.8 Q910.25 374.05 906.3 369.6 898.45 360.65 894.55 346.05 892.1 337 892.15 329.05 L905.35 329.05 Q914 329.05 914 337.75 L914 375.8"/>
    <path stroke="none" fill="#D2D0D0" d="M914 375.8 L914 448.4 Q914 457.05 905.35 457.05 L794.65 457.05 Q786 457.05 786 448.4 L786 375.8 Q789.8 374.05 793.7 369.6 801.55 360.65 805.45 346.05 807.9 337 807.9 329.05 L892.15 329.05 Q892.1 337 894.55 346.05 898.45 360.65 906.3 369.6 910.25 374.05 914 375.8"/>
    <path stroke="none" fill="#333333" d="M824.75 394.9 L824.75 395.15 824.75 395.75 Q824.4 399.15 821.3 401.55 817.85 404.25 813 404.25 808.15 404.25 804.7 401.55 801.6 399.15 801.3 395.75 L801.25 395.15 801.25 394.9 801.25 394.75 Q801.3 388.15 804.7 383.5 808.15 378.75 813 378.75 817.85 378.75 821.3 383.5 824.7 388.15 824.75 394.75 L824.75 394.9 M898.75 394.9 L898.75 395.15 898.75 395.75 Q898.4 399.15 895.3 401.55 891.85 404.25 887 404.25 882.15 404.25 878.7 401.55 875.6 399.15 875.3 395.75 L875.25 395.15 875.25 394.9 875.25 394.75 Q875.3 388.15 878.7 383.5 882.15 378.75 887 378.75 891.85 378.75 895.3 383.5 898.7 388.15 898.75 394.75 L898.75 394.9"/>
    <path stroke="none" fill="#FFFFFF" d="M911.5 444.45 Q911.85 445.2 911.6 446.15 L911.5 446.25 910.6 447.5 906.85 450.5 906.75 450.5 905.7 451 905.4 451.05 904.15 450.85 904.1 450.85 Q903.3 450.5 902.85 449.85 891.4 434.75 873.3 435.55 L873.15 435.55 871.95 435.25 871.8 435.2 Q871.15 434.8 870.85 434.2 L870.75 434.15 Q870.35 433.4 870.4 432.8 L870.35 432.8 Q869.95 419.05 889.7 415.7 L891.4 415.9 Q904.5 421.3 911.5 444.45 M788.5 444.45 Q795.5 421.3 808.6 415.9 L810.3 415.7 Q830.05 419.05 829.65 432.8 L829.6 432.8 829.25 434.15 829.15 434.2 828.2 435.2 828.05 435.25 826.85 435.55 826.7 435.55 Q808.6 434.75 797.15 449.85 L795.9 450.85 795.85 450.85 794.6 451.05 794.3 451 Q793.75 450.85 793.25 450.5 L793.15 450.5 789.4 447.5 788.5 446.25 788.4 446.15 Q788.15 445.2 788.5 444.45"/>
    <path stroke="none" fill="#BDB6B6" d="M868.45 403.6 Q872.9 408.6 872.95 414.35 872.95 415.85 872.4 417.4 L859.8 454.65 Q859.45 455.65 856.5 456.35 L850 456.95 843.45 456.35 Q840.55 455.65 840.25 454.65 L828.1 418.9 Q827.05 415.85 827.1 414.35 827.05 408.6 831.45 403.6 838.35 396.05 850 396.05 861.65 396.05 868.45 403.6"/>
    <path stroke="none" fill="#D23007" d="M496 231.8 L496 129.7 Q496 121 504.65 121 L615.35 121 Q624 121 624 129.7 L624 231.8 Q596.15 237.5 560 237.5 525.15 237.5 498.05 232.2 L496 231.8"/>
    <path stroke="none" fill="#FFCC00" d="M496 231.8 L498.05 232.2 Q525.15 237.5 560 237.5 596.15 237.5 624 231.8 L624 240.35 Q624 249 615.35 249 L504.65 249 Q496 249 496 240.35 L496 231.8"/>
    <path stroke="none" fill="#FFFFFF" d="M548.3 184.6 L548.2 185.3 Q544.05 200.6 535.05 209.75 526.05 218.9 517.4 216.5 508.7 214.2 505.4 201.8 502.15 189.35 506.3 174.05 L506.4 173.4 Q508.85 165.05 516.45 160.75 524.2 156.2 532.9 158.5 541.55 160.85 546.1 168.65 550.4 176.25 548.3 184.6 M613.7 174.05 Q617.85 189.35 614.6 201.8 611.3 214.2 602.6 216.5 593.95 218.9 584.95 209.75 575.95 200.6 571.8 185.3 L571.7 184.6 Q569.6 176.25 573.9 168.65 578.45 160.85 587.1 158.5 595.8 156.2 603.55 160.75 611.15 165.05 613.6 173.4 L613.7 174.05"/>
    <path stroke="none" fill="#333333" d="M540.2 181.4 L540.2 181.6 540.2 182.1 Q539.9 184.8 537.45 186.7 534.7 188.85 530.85 188.85 527 188.85 524.25 186.7 521.8 184.8 521.55 182.1 L521.5 181.6 521.5 181.4 521.5 181.3 Q521.55 176.05 524.25 172.35 527 168.6 530.85 168.6 534.7 168.6 537.45 172.35 540.15 176.05 540.2 181.3 L540.2 181.4 M599 181.4 L599 181.6 599 182.1 Q598.75 184.8 596.25 186.7 593.5 188.85 589.65 188.85 585.8 188.85 583.05 186.7 580.6 184.8 580.35 182.1 L580.3 181.6 580.3 181.4 580.3 181.3 Q580.35 176.05 583.05 172.35 585.8 168.6 589.65 168.6 593.5 168.6 596.25 172.35 598.95 176.05 599 181.3 L599 181.4"/>
    <path stroke="none" fill="#5D9CF3" d="M539.2 214.2 L539.05 213.2 538.95 210.9 538.95 199.45 Q538.95 196.7 539.6 194.2 L539.9 193.2 539.95 193 Q541.4 188.35 545.1 184.65 551.3 178.5 560.05 178.5 568.8 178.5 574.95 184.65 578.65 188.35 580.15 193 L580.2 193.2 580.45 194.2 Q581.1 196.7 581.1 199.45 L581.1 210.9 581 213.2 580.9 214.2 Q560.05 219.5 539.2 214.2"/>
    <path stroke="none" fill="#397EDE" d="M539.2 214.2 Q560.05 219.5 580.9 214.2 579.9 220.85 574.95 225.8 568.8 232 560.05 232 551.3 232 545.1 225.8 540.15 220.85 539.2 214.2"/>
    <path stroke="none" fill="#BB2905" d="M573.45 135.7 Q577.35 142.45 578.1 148.35 579 154.2 576.25 155.75 573.5 157.35 568.8 153.7 564.2 150.05 560.3 143.3 L559.4 141.75 Q557.8 138.55 558.2 135.25 558.6 131.6 561.35 130 564.1 128.45 567.5 129.9 570.5 131.2 572.5 134.2 L573.45 135.7"/>
    <path stroke="none" fill="#BB2905" d="M553.75 143.4 Q551.2 147.9 548.05 150.3 545 152.75 543.2 151.65 541.4 150.65 541.95 146.75 542.5 142.85 545.05 138.4 L545.65 137.35 Q547 135.35 549 134.5 551.25 133.5 553.05 134.55 554.85 135.65 555.15 138.1 555.4 140.2 554.35 142.35 L553.75 143.4"/>
    <path stroke="none" fill="#365A66" d="M666.55 249 L652.65 249 Q644 249 644 240.35 L644 129.7 Q644 121 652.65 121 L763.35 121 Q772 121 772 129.7 L772 240.35 Q772 249 763.35 249 L749.45 249 Q746.2 238.15 740.85 228.8 727.25 204.95 708 204.95 688.75 204.95 675.1 228.8 669.8 238.15 666.55 249"/>
    <path stroke="none" fill="#E5F3F7" d="M666.55 249 Q669.8 238.15 675.1 228.8 688.75 204.95 708 204.95 727.25 204.95 740.85 228.8 746.2 238.15 749.45 249 L666.55 249"/>
    <path stroke="none" fill="#F2F9FB" d="M755.5 170.7 L755.65 171.25 Q758.95 183.55 756.4 193.5 753.8 203.5 746.85 205.35 739.9 207.2 732.6 199.9 725.35 192.55 722.05 180.25 L721.9 179.7 Q720.25 172.95 723.8 166.9 727.4 160.6 734.35 158.75 741.3 156.9 747.6 160.5 753.6 164.05 755.5 170.7 M694.2 179.75 L694.05 180.3 Q690.75 192.6 683.55 199.9 676.3 207.25 669.3 205.4 662.35 203.5 659.75 193.55 657.1 183.55 660.4 171.25 L660.55 170.7 Q662.5 164.05 668.55 160.55 674.85 156.9 681.8 158.8 688.8 160.65 692.35 166.9 695.9 173 694.2 179.75"/>
    <path stroke="none" fill="#333333" d="M688.85 178.8 L688.85 179 688.85 179.5 Q688.55 182.1 686.15 183.95 683.5 186 679.8 186 676.05 186 673.4 183.95 671 182.1 670.8 179.5 L670.75 179 670.75 178.8 670.75 178.7 Q670.8 173.65 673.4 170.05 676.05 166.45 679.8 166.45 683.5 166.45 686.15 170.05 688.8 173.65 688.85 178.7 L688.85 178.8 M745.75 178.8 L745.75 179 745.75 179.5 Q745.5 182.1 743.05 183.95 740.4 186 736.7 186 732.95 186 730.3 183.95 727.95 182.1 727.7 179.5 L727.65 179 727.65 178.8 727.65 178.7 Q727.7 173.65 730.3 170.05 732.95 166.45 736.7 166.45 740.4 166.45 743.05 170.05 745.7 173.65 745.75 178.7 L745.75 178.8"/>
    <path stroke="none" fill="#FF9900" d="M724 201.55 Q723.7 205.1 719.35 207.65 714.7 210.4 708.05 210.4 701.4 210.4 696.7 207.65 692.4 205.1 692.05 201.55 L692 200.5 Q692 193.85 696.7 189.15 701.4 184.5 708.05 184.5 714.7 184.5 719.35 189.15 724.05 193.85 724.05 200.5 L724 201.55"/>
    <path stroke="none" fill="#A16639" d="M950 129.7 L950 240.35 Q950 249 941.35 249 L830.65 249 Q822 249 822 240.35 L822 129.7 Q822 121 830.65 121 L941.35 121 Q950 121 950 129.7"/>
    <path stroke="none" fill="#BF8559" d="M930.95 149.95 Q939.35 158.35 939.35 170.2 939.35 182.05 930.95 190.5 L930.9 190.5 Q928.65 192.7 926.1 194.4 926 211 914.2 222.8 902.3 234.65 885.5 234.65 868.7 234.65 856.8 222.8 845 211 844.9 194.35 842.4 192.7 840.15 190.5 L840.1 190.5 Q831.7 182.05 831.7 170.2 831.7 158.35 840.1 149.95 848.5 141.55 860.4 141.55 872.2 141.55 880.6 149.95 L883.7 153.55 885.5 153.5 887.3 153.55 890.4 149.95 Q898.8 141.55 910.7 141.55 922.5 141.55 930.95 149.95"/>
    <path stroke="none" fill="#A16639" d="M880.6 194.6 Q879.25 195.85 877.45 195.85 875.7 195.85 874.45 194.65 L874.35 194.5 Q872.1 192.3 871.45 189.85 870.75 187.3 872.05 186.05 873.3 184.8 875.8 185.45 878.3 186.2 880.5 188.4 L880.65 188.5 Q881.85 189.7 881.85 191.5 881.85 193.3 880.6 194.6 M891.55 188.4 Q893.75 186.2 896.2 185.45 898.75 184.8 900 186.05 901.25 187.3 900.6 189.85 899.9 192.3 897.65 194.5 L897.55 194.65 Q896.3 195.85 894.55 195.85 892.75 195.85 891.5 194.6 890.2 193.3 890.2 191.5 890.2 189.7 891.4 188.5 L891.55 188.4"/>
    <path stroke="none" fill="#333333" d="M866.2 173.4 L866.2 173.6 866.2 174.1 Q865.9 176.8 863.45 178.7 860.7 180.85 856.85 180.85 853 180.85 850.25 178.7 847.8 176.8 847.55 174.1 L847.5 173.6 847.5 173.4 847.5 173.3 Q847.55 168.05 850.25 164.35 853 160.6 856.85 160.6 860.7 160.6 863.45 164.35 866.15 168.05 866.2 173.3 L866.2 173.4 M925 173.4 L925 173.6 925 174.1 Q924.75 176.8 922.25 178.7 919.5 180.85 915.65 180.85 911.8 180.85 909.05 178.7 906.6 176.8 906.35 174.1 L906.3 173.6 906.3 173.4 906.3 173.3 Q906.35 168.05 909.05 164.35 911.8 160.6 915.65 160.6 919.5 160.6 922.25 164.35 924.95 168.05 925 173.3 L925 173.4"/>
    <path stroke="none" fill="#FFFFFF" d="M901.55 200.65 Q904.95 199.2 908.45 200.6 911.9 202 913.3 205.45 914.75 208.9 913.35 212.4 911.95 215.8 908.55 217.3 888.45 225.95 864.15 217.5 860.55 216.25 858.95 212.9 857.3 209.5 858.55 206 859.75 202.45 863.15 200.8 866.55 199.2 870.05 200.4 887.25 206.4 901.55 200.65"/>
    <path stroke="none" fill="#414141" d="M347.9 121 Q347.9 128.95 345.45 138 341.55 152.6 333.7 161.55 329.8 166 326 167.75 L326 129.7 Q326 121 334.65 121 L347.9 121 M454 167.75 Q450.25 166 446.3 161.55 438.45 152.6 434.55 138 432.1 128.95 432.15 121 L445.35 121 Q454 121 454 129.7 L454 167.75"/>
    <path stroke="none" fill="#FFFFFF" d="M454 167.75 L454 240.35 Q454 249 445.35 249 L437.8 249 Q436.2 239.1 423.95 231.85 409.9 223.5 390 223.5 370.1 223.5 356.05 231.85 343.8 239.1 342.25 249 L334.65 249 Q326 249 326 240.35 L326 167.75 Q329.8 166 333.7 161.55 341.55 152.6 345.45 138 347.9 128.95 347.9 121 L432.15 121 Q432.1 128.95 434.55 138 438.45 152.6 446.3 161.55 450.25 166 454 167.75"/>
    <path stroke="none" fill="#EEEEEE" d="M342.25 249 Q343.8 239.1 356.05 231.85 370.1 223.5 390 223.5 409.9 223.5 423.95 231.85 436.2 239.1 437.8 249 L342.25 249"/>
    <path stroke="none" fill="#272626" d="M428.5 166.1 Q435.55 170.2 438.9 175.9 442.25 181.6 439.95 185.6 437.65 189.6 431 189.55 424.4 189.5 417.35 185.4 L417.05 185.2 Q413.25 182.95 412.1 178.6 410.9 174.15 413.15 170.15 415.5 166.15 419.95 164.95 424.3 163.8 428.2 165.9 L428.5 166.1"/>
    <path stroke="none" fill="#272626" d="M362.95 185.2 L362.65 185.4 Q355.6 189.5 349 189.55 342.35 189.6 340.05 185.6 337.75 181.6 341.1 175.9 344.45 170.2 351.5 166.1 L351.8 165.9 Q355.7 163.8 360.05 164.95 364.5 166.15 366.85 170.15 369.15 174.15 367.95 178.6 366.75 182.95 362.95 185.2"/>
    <path stroke="none" fill="#272626" d="M390 205.95 Q383.85 205.95 379.5 201.6 375.2 197.3 375.2 191.15 L375.2 190.1 Q375.55 187.4 379.5 185.45 383.85 183.35 390 183.35 396.1 183.35 400.45 185.45 404.4 187.4 404.75 190.1 L404.8 191.15 Q404.8 197.3 400.45 201.6 396.1 205.95 390 205.95"/>
    <path stroke="none" fill="#272626" d="M416.25 208.25 Q415.15 210.3 413.35 212.15 408.55 216.9 401.85 216.9 395.15 216.9 390.4 212.15 L390.05 211.8 389.7 212.15 Q384.9 216.9 378.2 216.9 371.5 216.9 366.75 212.15 364.95 210.35 363.85 208.35 363.65 207.95 363.8 207.6 L364.25 207 369.5 204.1 370.25 204 370.85 204.5 372.4 206.5 Q374.8 208.9 378.2 208.9 381.6 208.9 384.05 206.5 385.6 204.9 386.15 202.9 L388.5 194.65 Q388.6 194.3 388.85 194.1 L389.45 193.9 390.45 193.9 391.05 194.1 391.4 194.6 393.85 202.8 393.9 202.85 Q394.45 204.9 396.05 206.5 398.45 208.9 401.85 208.9 405.25 208.9 407.7 206.5 L409.1 204.6 Q409.3 204.2 409.7 204.1 L410.45 204.15 415.8 206.9 Q416.15 207.05 416.3 207.5 L416.25 208.25"/>
    <path stroke="none" fill="#FFCC00" d="M266 221.5 Q262.8 218.55 259 215.8 235.4 198.7 202 198.7 168.65 198.7 145.05 215.8 141.2 218.55 138 221.55 L138 129.7 Q138 121 146.65 121 L257.35 121 Q266 121 266 129.7 L266 221.5"/>
    <path stroke="none" fill="#CBA200" d="M266 221.5 L266 240.35 Q266 249 257.35 249 L146.65 249 Q138 249 138 240.35 L138 221.55 Q141.2 218.55 145.05 215.8 168.65 198.7 202 198.7 235.4 198.7 259 215.8 262.8 218.55 266 221.5"/>
    <path stroke="none" fill="#A38200" d="M221 211.2 Q222.55 212.75 221.7 215.7 220.9 218.65 218.25 221.3 L218.1 221.45 Q216.6 222.85 214.55 222.85 212.4 222.85 210.9 221.35 209.4 219.85 209.4 217.7 209.4 215.6 210.8 214.15 L210.95 214 Q213.6 211.35 216.55 210.55 219.5 209.7 221 211.2 M186.9 221.45 L186.75 221.3 Q184.1 218.65 183.3 215.7 182.45 212.75 184 211.2 185.5 209.7 188.45 210.55 191.4 211.35 194.05 214 L194.2 214.15 Q195.6 215.6 195.6 217.7 195.6 219.85 194.1 221.35 192.6 222.85 190.45 222.85 188.4 222.85 186.9 221.45"/>
    <path stroke="none" fill="#543209" d="M177.5 183.9 L177.5 184.15 177.5 184.75 Q177.15 188.15 174.05 190.55 170.6 193.25 165.75 193.25 160.9 193.25 157.45 190.55 154.35 188.15 154.05 184.75 L154 184.15 154 183.9 154 183.75 Q154.05 177.15 157.45 172.5 160.9 167.75 165.75 167.75 170.6 167.75 174.05 172.5 177.45 177.15 177.5 183.75 L177.5 183.9"/>
    <path stroke="none" fill="#543209" d="M251.5 183.9 L251.5 184.15 251.5 184.75 Q251.15 188.15 248.05 190.55 244.6 193.25 239.75 193.25 234.9 193.25 231.45 190.55 228.35 188.15 228.05 184.75 L228 184.15 228 183.9 228 183.75 Q228.05 177.15 231.45 172.5 234.9 167.75 239.75 167.75 244.6 167.75 248.05 172.5 251.45 177.15 251.5 183.75 L251.5 183.9"/>
    <path stroke="none" fill="#E9BB00" d="M211.9 163.8 L202.15 156.75 Q201.45 156.2 201.2 155.4 200.95 154.6 201.2 153.8 L204.9 142.35 Q205.15 141.5 205.85 141 206.5 140.5 207.4 140.5 L219.45 140.5 Q220.35 140.5 221.05 141 221.7 141.5 221.95 142.35 L225.65 153.8 Q225.9 154.6 225.65 155.4 225.4 156.2 224.75 156.75 L215.05 163.8 Q214.35 164.3 213.45 164.3 212.6 164.3 211.9 163.8 M199.25 147.85 L194.3 154.65 Q193.8 155.3 193 155.55 192.15 155.8 191.35 155.55 L183.4 152.95 Q182.55 152.7 182.05 152.05 181.55 151.35 181.55 150.45 L181.55 142.05 Q181.55 141.2 182.05 140.55 182.55 139.85 183.4 139.55 L191.35 137 Q192.15 136.7 193 137 193.8 137.25 194.3 137.95 L199.25 144.75 Q199.7 145.45 199.7 146.3 L199.25 147.85 M190.65 171.5 L189.35 165.4 Q189.15 164.5 189.5 163.75 189.85 162.9 190.6 162.5 L196.05 159.35 Q196.8 158.95 197.65 159.05 198.5 159.1 199.15 159.7 L203.8 163.9 Q204.4 164.45 204.6 165.35 204.75 166.15 204.4 166.95 L201.85 172.65 200.75 173.9 Q200 174.35 199.15 174.25 L192.95 173.6 191.45 172.95 Q190.85 172.3 190.65 171.5"/>
    <path stroke="none" fill="#D2D0D0" d="M146.65 329.05 L257.35 329.05 Q266 329.05 266 337.75 L266 448.4 Q266 457.05 257.35 457.05 L146.65 457.05 Q138 457.05 138 448.4 L138 337.75 Q138 329.05 146.65 329.05"/>
    <path stroke="none" fill="#B1B1B1" d="M214.3 422.05 Q214.3 427.55 210.4 431.4 206.55 435.3 201.05 435.3 195.55 435.3 191.65 431.4 187.8 427.55 187.8 422.05 187.8 416.55 191.65 412.65 195.55 408.8 201.05 408.8 206.55 408.8 210.4 412.65 214.3 416.55 214.3 422.05"/>
    <path stroke="none" fill="#FFFFFF" d="M187.45 393.15 L217.5 393.15 Q224.85 393.3 230.1 398.55 235.5 403.95 235.5 411.55 235.5 419.2 230.1 424.65 224.65 430 217.05 430 209.4 430 204 424.65 L202 422.25 200 424.65 Q194.55 430 186.9 430 179.3 430 173.9 424.65 168.5 419.2 168.5 411.55 168.5 403.95 173.9 398.55 179.3 393.15 186.9 393.15 L187.45 393.15"/>
    <path stroke="none" fill="#EE9FEE" d="M213.05 383.85 Q217 385.8 217.35 388.5 L217.4 389.55 Q217.4 395.7 213.05 400 208.7 404.35 202.6 404.35 196.45 404.35 192.1 400 187.8 395.7 187.8 389.55 L187.8 388.5 Q188.15 385.8 192.1 383.85 196.45 381.75 202.6 381.75 208.7 381.75 213.05 383.85"/>
    <path stroke="none" fill="#543209" d="M180.65 381.6 L180.65 381.8 180.65 382.35 Q180.35 385.3 177.6 387.4 174.6 389.75 170.35 389.75 166.1 389.75 163.1 387.4 160.4 385.3 160.1 382.35 L160.1 381.8 160.1 381.6 160.1 381.45 Q160.1 375.7 163.1 371.6 166.1 367.45 170.35 367.45 174.6 367.45 177.6 371.6 180.6 375.7 180.65 381.45 L180.65 381.6"/>
    <path stroke="none" fill="#543209" d="M245.4 381.6 L245.4 381.8 245.4 382.35 Q245.05 385.3 242.35 387.4 239.35 389.75 235.1 389.75 230.85 389.75 227.85 387.4 225.1 385.3 224.85 382.35 L224.8 381.8 224.8 381.6 224.8 381.45 Q224.85 375.7 227.85 371.6 230.85 367.45 235.1 367.45 239.35 367.45 242.35 371.6 245.35 375.7 245.4 381.45 L245.4 381.6"/>
    <path stroke="none" fill="#B1B1B1" d="M224.6 411.8 Q237.9 411.7 244.35 418.35 L244.6 418.9 244.35 419.45 241.05 422.7 240.5 422.95 240 422.7 Q234.9 417.9 224.6 418 L224.05 417.8 223.85 417.2 223.8 412.6 Q223.75 412.25 224 412.05 224.25 411.8 224.6 411.8 M247.85 402.45 L247.25 407.05 246.95 407.6 246.4 407.75 Q235.65 406.3 225.6 409.9 L225.05 409.85 224.6 409.4 223.05 405.05 Q222.95 404.7 223.1 404.45 L223.55 404.05 Q234.95 399.95 247.2 401.6 L247.7 401.9 247.85 402.45 M179.05 411.8 L179.65 412.05 179.85 412.6 179.8 417.2 179.55 417.8 179 418 Q168.75 417.9 163.65 422.7 L163.1 422.95 162.6 422.7 159.3 419.45 159.05 418.9 Q159.05 418.55 159.3 418.35 165.7 411.7 179.05 411.8 M155.75 402.45 Q155.75 402.15 155.9 401.9 L156.45 401.6 Q168.7 399.95 180.05 404.05 L180.55 404.45 180.55 405.05 179 409.4 178.6 409.85 178 409.9 Q168 406.3 157.25 407.75 L156.7 407.6 156.4 407.05 155.75 402.45"/>
    <path stroke="none" fill="#66CC33" d="M288 429.75 L288 337.75 Q288 329.05 296.65 329.05 L407.35 329.05 Q416 329.05 416 337.75 L416 429.75 Q388.85 417 352 417 315.15 417 288 429.75"/>
    <path stroke="none" fill="#79DB48" d="M288 429.75 Q315.15 417 352 417 388.85 417 416 429.75 L416 448.4 Q416 457.05 407.35 457.05 L296.65 457.05 Q288 457.05 288 448.4 L288 429.75"/>
    <path stroke="none" fill="#79DB48" d="M382.35 351.1 Q381.8 352.4 380.6 353.05 351.95 367.6 320.8 353.15 L320.75 353.1 Q319.3 352.35 318.85 351 318.4 349.7 318.85 348.45 319.35 347 320.85 346.35 L320.8 346.35 Q351.95 331.85 380.6 346.45 L380.5 346.35 Q381.8 346.9 382.4 348.45 382.85 349.65 382.4 351 L382.35 351.1 M331.35 376.3 Q330.1 375.7 329.75 374.6 329.3 373.55 329.7 372.55 330.05 371.25 331.4 370.75 351.5 361.35 370 370.8 L370.05 370.85 Q371.15 371.35 371.6 372.55 371.95 373.55 371.5 374.6 L371.6 374.5 Q371.15 375.65 370.05 376.2 L370 376.25 Q351.45 385.6 331.3 376.3 L331.35 376.3"/>
    <path stroke="none" fill="#549F2E" d="M372.6 427 Q374.2 428.6 373.35 431.7 372.5 434.85 369.7 437.6 L369.55 437.75 Q368 439.25 365.8 439.25 363.55 439.25 361.95 437.65 360.35 436.05 360.35 433.8 360.35 431.6 361.85 430.05 L362 429.9 Q364.8 427.15 367.9 426.3 371 425.4 372.6 427 M342.05 437.65 Q340.45 439.25 338.2 439.25 336.05 439.25 334.45 437.75 L334.3 437.6 Q331.55 434.85 330.65 431.7 329.8 428.6 331.4 427 333 425.4 336.1 426.3 339.2 427.15 342 429.9 L342.15 430.05 Q343.65 431.6 343.65 433.8 343.65 436.05 342.05 437.65"/>
    <path stroke="none" fill="#333333" d="M387.55 390.15 L387.75 390.15 388.3 390.15 Q391.25 390.45 393.4 393.2 395.75 396.2 395.75 400.5 395.75 404.75 393.4 407.8 391.25 410.5 388.3 410.75 L387.75 410.8 387.55 410.8 387.4 410.8 382.35 410.1 Q379.65 409.35 377.5 407.8 373.35 404.75 373.35 400.5 373.35 396.2 377.5 393.2 379.65 391.6 382.35 390.8 L387.4 390.15 387.55 390.15 M316.45 410.8 L316.25 410.8 315.7 410.8 Q312.75 410.5 310.6 407.8 308.25 404.75 308.25 400.5 308.25 396.2 310.6 393.2 312.75 390.45 315.7 390.2 L316.25 390.15 316.45 390.15 316.6 390.15 Q319.35 390.15 321.65 390.85 324.35 391.6 326.5 393.2 330.65 396.2 330.65 400.5 330.65 404.75 326.5 407.8 324.35 409.35 321.65 410.15 L316.6 410.8 316.45 410.8"/>
    <path stroke="none" fill="#EE9FEE" d="M751.8 337.75 L751.8 448.4 Q751.8 457.05 743.15 457.05 L632.45 457.05 Q623.8 457.05 623.8 448.4 L623.8 337.75 Q623.8 329.05 632.45 329.05 L743.15 329.05 Q751.8 329.05 751.8 337.75"/>
    <path stroke="none" fill="#CD76CD" d="M688.8 390 Q698.25 390 704.9 396.65 711.55 403.35 711.55 412.75 711.55 422.2 704.9 428.85 698.25 435.5 688.8 435.5 679.4 435.5 672.7 428.85 666.05 422.2 666.05 412.75 666.05 403.35 672.7 396.65 679.4 390 688.8 390"/>
    <path stroke="none" fill="#EE9FEE" d="M694.35 412.45 Q696.55 410.25 699 409.5 701.55 408.85 702.8 410.1 704.05 411.35 703.4 413.9 702.7 416.35 700.45 418.55 L700.35 418.7 Q699.1 419.9 697.35 419.9 695.55 419.9 694.3 418.65 693 417.35 693 415.55 693 413.75 694.2 412.55 L694.35 412.45 M683.3 412.45 L683.45 412.55 Q684.65 413.75 684.65 415.55 684.65 417.35 683.4 418.65 682.05 419.9 680.25 419.9 678.5 419.9 677.25 418.7 L677.15 418.55 Q674.9 416.35 674.25 413.9 673.55 411.35 674.85 410.1 676.1 408.85 678.6 409.5 681.1 410.25 683.3 412.45"/>
    <path stroke="none" fill="#333333" d="M663.5 395.9 L663.5 396.15 663.5 396.75 Q663.15 400.15 660.05 402.55 656.6 405.25 651.75 405.25 646.9 405.25 643.45 402.55 640.35 400.15 640.05 396.75 L640 396.15 640 395.9 640 395.75 Q640.05 389.15 643.45 384.5 646.9 379.75 651.75 379.75 656.6 379.75 660.05 384.5 663.45 389.15 663.5 395.75 L663.5 395.9 M737.5 395.9 L737.5 396.15 737.5 396.75 Q737.15 400.15 734.05 402.55 730.6 405.25 725.75 405.25 720.9 405.25 717.45 402.55 714.35 400.15 714.05 396.75 L714 396.15 714 395.9 714 395.75 Q714.05 389.15 717.45 384.5 720.9 379.75 725.75 379.75 730.6 379.75 734.05 384.5 737.45 389.15 737.5 395.75 L737.5 395.9"/>
    <path stroke="none" fill="#528CDB" d="M455.9 419.7 L455.9 337.85 Q455.9 329.15 464.55 329.15 L575.25 329.15 Q583.9 329.15 583.9 337.85 L583.9 419.65 Q580.7 416.7 576.9 413.95 553.3 396.85 519.9 396.85 486.55 396.85 462.95 413.95 459.1 416.7 455.9 419.7"/>
    <path stroke="none" fill="#4178C2" d="M455.9 419.7 Q459.1 416.7 462.95 413.95 486.55 396.85 519.9 396.85 553.3 396.85 576.9 413.95 580.7 416.7 583.9 419.65 L583.9 448.5 Q583.9 457.15 575.25 457.15 L464.55 457.15 Q455.9 457.15 455.9 448.5 L455.9 419.7"/>
    <path stroke="none" fill="#3164A8" d="M536.65 420.1 Q538.25 421.7 537.35 424.8 536.5 427.9 533.75 430.65 L533.6 430.8 Q532.05 432.3 529.9 432.3 527.65 432.3 526.05 430.7 524.5 429.1 524.5 426.9 524.5 424.7 526 423.15 L526.15 423 Q528.9 420.25 532 419.4 535.05 418.55 536.65 420.1 M513.8 430.7 Q512.2 432.3 509.95 432.3 507.8 432.3 506.2 430.8 L506.1 430.65 Q503.3 427.9 502.45 424.8 501.6 421.7 503.2 420.1 504.75 418.55 507.85 419.4 510.95 420.25 513.7 423 L513.85 423.15 Q515.35 424.7 515.35 426.9 515.35 429.1 513.8 430.7"/>
    <path stroke="none" fill="#333333" d="M493.5 383.9 L493.5 384.15 493.5 384.75 Q493.15 388.15 490.05 390.55 486.6 393.25 481.75 393.25 476.9 393.25 473.45 390.55 470.35 388.15 470.05 384.75 L470 384.15 470 383.9 470 383.75 Q470.05 377.15 473.45 372.5 476.9 367.75 481.75 367.75 486.6 367.75 490.05 372.5 493.45 377.15 493.5 383.75 L493.5 383.9 M567.5 383.9 L567.5 384.15 567.5 384.75 Q567.15 388.15 564.05 390.55 560.6 393.25 555.75 393.25 550.9 393.25 547.45 390.55 544.35 388.15 544.05 384.75 L544 384.15 544 383.9 544 383.75 Q544.05 377.15 547.45 372.5 550.9 367.75 555.75 367.75 560.6 367.75 564.05 372.5 567.45 377.15 567.5 383.75 L567.5 383.9"/>
    <path stroke="none" fill="#FFFFFF" d="M467.2 457.15 L467.2 443.15 Q467.2 439.15 471.2 439.15 L494.2 439.15 Q498.2 439.15 498.2 443.15 L498.2 457.15 467.2 457.15 M541.9 457.15 L541.9 443.15 Q541.9 439.15 545.9 439.15 L568.9 439.15 Q572.9 439.15 572.9 443.15 L572.9 457.15 541.9 457.15"/>
  </g>
</svg>