
<svg xmlns="http://www.w3.org/2000/svg" version="1.1" xmlns:xlink="http://www.w3.org/1999/xlink" preserveAspectRatio="none" x="0px" y="0px" width="770px" height="280px" viewBox="0 0 770 280">
<defs>
<linearGradient id="Gradient_1" gradientUnits="userSpaceOnUse" x1="51.75" y1="175.8" x2="45.25" y2="169.3" spreadMethod="pad">
<stop  offset="0%" stop-color="#FFCC00"/>

<stop  offset="100%" stop-color="#DBAF02"/>
</linearGradient>

<linearGradient id="Gradient_2" gradientUnits="userSpaceOnUse" x1="121.75" y1="175.8" x2="115.25" y2="169.3" spreadMethod="pad">
<stop  offset="0%" stop-color="#73CD4B"/>

<stop  offset="100%" stop-color="#51A12E"/>
</linearGradient>

<linearGradient id="Gradient_3" gradientUnits="userSpaceOnUse" x1="191.75" y1="175.8" x2="185.25" y2="169.3" spreadMethod="pad">
<stop  offset="0%" stop-color="#E86A17"/>

<stop  offset="100%" stop-color="#C35813"/>
</linearGradient>

<linearGradient id="Gradient_4" gradientUnits="userSpaceOnUse" x1="261.75" y1="175.8" x2="255.25" y2="169.3" spreadMethod="pad">
<stop  offset="0%" stop-color="#1EA7E1"/>

<stop  offset="100%" stop-color="#1788B8"/>
</linearGradient>

<g id="Layer0_0_FILL">
<path fill="#1EA7E1" stroke="none" d="
M 262.5 21.5
L 262.45 21.45 262.35 21.3
Q 261.2 19.75 259.7 19
L 259.7 19.05
Q 259.65 19 259.6 19 259.55 18.95 259.5 18.95 257.8 18.05 255.9 18.05
L 234.1 18.05
Q 232.05 18.1 230.4 19
L 230.45 18.95
Q 228.8 19.75 227.7 21.3
L 227.65 21.3 227.55 21.45 227.5 21.5 221.4 30.3
Q 221.3 30.45 221.2 30.6 220.05 32.45 220 34.8
L 220 36.85
Q 220 38.9 221 40.7 221.9 42.3 223.3 43.35 223.4 43.4 223.5 43.5
L 223.55 43.55 223.6 43.55 240.5 54.65
Q 240.55 54.65 240.6 54.7 240.7 54.8 240.8 54.85 242.7 56 245 56
L 245.05 56
Q 247.35 56 249.25 54.85 249.35 54.8 249.5 54.7
L 249.45 54.7 266.4 43.55 266.45 43.55
Q 266.5 43.5 266.55 43.5 266.6 43.4 266.7 43.35 268.1 42.3 269 40.7 270 38.9 270 36.85
L 270 34.8
Q 269.95 32.45 268.8 30.6 268.7 30.45 268.6 30.3
L 262.5 21.5
M 259.95 23.1
Q 260 23.15 260.05 23.2
L 266.15 32 266.1 32
Q 267 33.25 267 34.85
L 267 36.85
Q 267 38.1 266.4 39.25 265.8 40.25 264.9 40.95 264.8 41 264.75 41.05
L 247.8 52.2
Q 247.75 52.25 247.7 52.3 246.5 53 245.05 53
L 245 53
Q 243.55 53 242.35 52.3 242.3 52.25 242.25 52.2
L 225.25 41.05
Q 225.2 41 225.1 40.95 224.2 40.25 223.65 39.25 223 38.1 223 36.85
L 223 34.85
Q 223 33.25 223.9 32
L 230 23.2
Q 230 23.15 230.05 23.1 230.75 22.15 231.8 21.65 232.85 21.05 234.1 21.05
L 255.9 21.05
Q 257.1 21.05 258.2 21.65 258.25 21.65 258.3 21.7 259.25 22.15 259.95 23.1
M 263.05 34.85
L 245 34.85 245 50 245.05 50
Q 245.65 50 246.15 49.7
L 263.1 38.55
Q 263.5 38.25 263.75 37.8 264 37.35 264 36.85
L 264 36.75
Q 263.9890625 36.184375 263.65 35.7
L 263.05 34.85 Z"/>

<path fill="#A5DCF3" stroke="none" d="
M 260.05 23.2
Q 260 23.15 259.95 23.1 259.25 22.15 258.3 21.7 258.25 21.65 258.2 21.65 257.1 21.05 255.9 21.05
L 234.1 21.05
Q 232.85 21.05 231.8 21.65 230.75 22.15 230.05 23.1 230 23.15 230 23.2
L 223.9 32
Q 223 33.25 223 34.85
L 223 36.85
Q 223 38.1 223.65 39.25 224.2 40.25 225.1 40.95 225.2 41 225.25 41.05
L 242.25 52.2
Q 242.3 52.25 242.35 52.3 243.55 53 245 53
L 245.05 53
Q 246.5 53 247.7 52.3 247.75 52.25 247.8 52.2
L 264.75 41.05
Q 264.8 41 264.9 40.95 265.8 40.25 266.4 39.25 267 38.1 267 36.85
L 267 34.85
Q 267 33.25 266.1 32
L 266.15 32 260.05 23.2
M 255.9 24.05
Q 256.4 24.05 256.85 24.3 257.25 24.5 257.55 24.9
L 263.65 33.7
Q 264 34.2 264 34.85
L 264 36.75 264 36.85
Q 264 37.35 263.75 37.8 263.5 38.25 263.1 38.55
L 246.15 49.7
Q 245.65 50 245.05 50
L 245 50
Q 244.4 50 243.9 49.7
L 226.9 38.55
Q 226.5 38.25 226.25 37.8 226 37.35 226 36.85
L 226 36.75 226 34.85
Q 226 34.2 226.35 33.7
L 232.45 24.9
Q 232.75 24.5 233.2 24.3 233.6 24.05 234.1 24.05
L 255.9 24.05 Z"/>

<path fill="#2FB2E9" stroke="none" d="
M 243.9 49.7
Q 244.4 50 245 50
L 245 34.85 226.95 34.85 226.35 35.7
Q 226.0109375 36.184375 226 36.75
L 226 36.85
Q 226 37.35 226.25 37.8 226.5 38.25 226.9 38.55
L 243.9 49.7 Z"/>

<path fill="#69C5EB" stroke="none" d="
M 256.85 24.3
Q 256.4 24.05 255.9 24.05
L 234.1 24.05
Q 233.6 24.05 233.2 24.3 232.75 24.5 232.45 24.9
L 226.35 33.7
Q 226 34.2 226 34.85
L 226 36.75
Q 226.0109375 36.184375 226.35 35.7
L 226.95 34.85 245 34.85 263.05 34.85 263.65 35.7
Q 263.9890625 36.184375 264 36.75
L 264 34.85
Q 264 34.2 263.65 33.7
L 257.55 24.9
Q 257.25 24.5 256.85 24.3 Z"/>
</g>

<g id="Layer0_1_FILL">
<path fill="#E86A17" stroke="none" d="
M 189.7 19
L 189.7 19.05
Q 189.65 19 189.6 19 189.55 18.95 189.5 18.95 187.8 18.05 185.9 18.05
L 164.1 18.05
Q 162.05 18.1 160.4 19
L 160.45 18.95
Q 158.8 19.75 157.7 21.3
L 157.65 21.3 157.55 21.45 157.5 21.5 151.4 30.3
Q 151.3 30.45 151.2 30.6 150.05 32.45 150 34.8
L 150 36.85
Q 150 38.9 151 40.7 151.9 42.3 153.3 43.35 153.4 43.4 153.5 43.5
L 153.55 43.55 153.6 43.55 170.5 54.65
Q 170.55 54.65 170.6 54.7 170.7 54.8 170.8 54.85 172.7 56 175 56
L 175.05 56
Q 177.35 56 179.25 54.85 179.35 54.8 179.5 54.7
L 179.45 54.7 196.4 43.55 196.45 43.55
Q 196.5 43.5 196.55 43.5 196.6 43.4 196.7 43.35 198.1 42.3 199 40.7 200 38.9 200 36.85
L 200 34.8
Q 199.95 32.45 198.8 30.6 198.7 30.45 198.6 30.3
L 192.5 21.5 192.45 21.45 192.35 21.3
Q 191.2 19.75 189.7 19
M 188.2 21.65
Q 188.25 21.65 188.3 21.7 189.25 22.15 189.95 23.1 190 23.15 190.05 23.2
L 196.15 32 196.1 32
Q 197 33.25 197 34.85
L 197 36.85
Q 197 38.1 196.4 39.25 195.8 40.25 194.9 40.95 194.8 41 194.75 41.05
L 177.8 52.2
Q 177.75 52.25 177.7 52.3 176.5 53 175.05 53
L 175 53
Q 173.55 53 172.35 52.3 172.3 52.25 172.25 52.2
L 155.25 41.05
Q 155.2 41 155.1 40.95 154.2 40.25 153.65 39.25 153 38.1 153 36.85
L 153 34.85
Q 153 33.25 153.9 32
L 160 23.2
Q 160 23.15 160.05 23.1 160.75 22.15 161.8 21.65 162.85 21.05 164.1 21.05
L 185.9 21.05
Q 187.1 21.05 188.2 21.65
M 194 36.75
Q 193.9890625 36.184375 193.65 35.7
L 193.05 34.85 175 34.85 175 50 175.05 50
Q 175.65 50 176.15 49.7
L 193.1 38.55
Q 193.5 38.25 193.75 37.8 194 37.35 194 36.85
L 194 36.75 Z"/>

<path fill="#F5C09D" stroke="none" d="
M 188.3 21.7
Q 188.25 21.65 188.2 21.65 187.1 21.05 185.9 21.05
L 164.1 21.05
Q 162.85 21.05 161.8 21.65 160.75 22.15 160.05 23.1 160 23.15 160 23.2
L 153.9 32
Q 153 33.25 153 34.85
L 153 36.85
Q 153 38.1 153.65 39.25 154.2 40.25 155.1 40.95 155.2 41 155.25 41.05
L 172.25 52.2
Q 172.3 52.25 172.35 52.3 173.55 53 175 53
L 175.05 53
Q 176.5 53 177.7 52.3 177.75 52.25 177.8 52.2
L 194.75 41.05
Q 194.8 41 194.9 40.95 195.8 40.25 196.4 39.25 197 38.1 197 36.85
L 197 34.85
Q 197 33.25 196.1 32
L 196.15 32 190.05 23.2
Q 190 23.15 189.95 23.1 189.25 22.15 188.3 21.7
M 185.9 24.05
Q 186.4 24.05 186.85 24.3 187.25 24.5 187.55 24.9
L 193.65 33.7
Q 194 34.2 194 34.85
L 194 36.75 194 36.85
Q 194 37.35 193.75 37.8 193.5 38.25 193.1 38.55
L 176.15 49.7
Q 175.65 50 175.05 50
L 175 50
Q 174.4 50 173.9 49.7
L 156.9 38.55
Q 156.5 38.25 156.25 37.8 156 37.35 156 36.85
L 156 36.75 156 34.85
Q 156 34.2 156.35 33.7
L 162.45 24.9
Q 162.75 24.5 163.2 24.3 163.6 24.05 164.1 24.05
L 185.9 24.05 Z"/>

<path fill="#F37E31" stroke="none" d="
M 173.9 49.7
Q 174.4 50 175 50
L 175 34.85 156.95 34.85 156.35 35.7
Q 156.0109375 36.184375 156 36.75
L 156 36.85
Q 156 37.35 156.25 37.8 156.5 38.25 156.9 38.55
L 173.9 49.7 Z"/>

<path fill="#EF975C" stroke="none" d="
M 186.85 24.3
Q 186.4 24.05 185.9 24.05
L 164.1 24.05
Q 163.6 24.05 163.2 24.3 162.75 24.5 162.45 24.9
L 156.35 33.7
Q 156 34.2 156 34.85
L 156 36.75
Q 156.0109375 36.184375 156.35 35.7
L 156.95 34.85 175 34.85 193.05 34.85 193.65 35.7
Q 193.9890625 36.184375 194 36.75
L 194 34.85
Q 194 34.2 193.65 33.7
L 187.55 24.9
Q 187.25 24.5 186.85 24.3 Z"/>
</g>

<g id="Layer0_2_FILL">
<path fill="#73CD4B" stroke="none" d="
M 122.45 21.45
L 122.35 21.3
Q 121.2 19.75 119.7 19
L 119.7 19.05
Q 119.65 19 119.6 19 119.55 18.95 119.5 18.95 117.8 18.05 115.9 18.05
L 94.1 18.05
Q 92.05 18.1 90.4 19
L 90.45 18.95
Q 88.8 19.75 87.7 21.3
L 87.65 21.3 87.55 21.45 87.5 21.5 81.4 30.3
Q 81.3 30.45 81.2 30.6 80.05 32.45 80 34.8
L 80 36.85
Q 80 38.9 81 40.7 81.9 42.3 83.3 43.35 83.4 43.4 83.5 43.5
L 83.55 43.55 83.6 43.55 100.5 54.65
Q 100.55 54.65 100.6 54.7 100.7 54.8 100.8 54.85 102.7 56 105 56
L 105.05 56
Q 107.35 56 109.25 54.85 109.35 54.8 109.5 54.7
L 109.45 54.7 126.4 43.55 126.45 43.55
Q 126.5 43.5 126.55 43.5 126.6 43.4 126.7 43.35 128.1 42.3 129 40.7 130 38.9 130 36.85
L 130 34.8
Q 129.95 32.45 128.8 30.6 128.7 30.45 128.6 30.3
L 122.5 21.5 122.45 21.45
M 126.15 32
L 126.1 32
Q 127 33.25 127 34.85
L 127 36.85
Q 127 38.1 126.4 39.25 125.8 40.25 124.9 40.95 124.8 41 124.75 41.05
L 107.8 52.2
Q 107.75 52.25 107.7 52.3 106.5 53 105.05 53
L 105 53
Q 103.55 53 102.35 52.3 102.3 52.25 102.25 52.2
L 85.25 41.05
Q 85.2 41 85.1 40.95 84.2 40.25 83.65 39.25 83 38.1 83 36.85
L 83 34.85
Q 83 33.25 83.9 32
L 90 23.2
Q 90 23.15 90.05 23.1 90.75 22.15 91.8 21.65 92.85 21.05 94.1 21.05
L 115.9 21.05
Q 117.1 21.05 118.2 21.65 118.25 21.65 118.3 21.7 119.25 22.15 119.95 23.1 120 23.15 120.05 23.2
L 126.15 32
M 124 36.85
L 124 36.75
Q 123.9890625 36.184375 123.65 35.7
L 123.05 34.85 105 34.85 105 50 105.05 50
Q 105.65 50 106.15 49.7
L 123.1 38.55
Q 123.5 38.25 123.75 37.8 124 37.35 124 36.85 Z"/>

<path fill="#DCF7D1" stroke="none" d="
M 126.1 32
L 126.15 32 120.05 23.2
Q 120 23.15 119.95 23.1 119.25 22.15 118.3 21.7 118.25 21.65 118.2 21.65 117.1 21.05 115.9 21.05
L 94.1 21.05
Q 92.85 21.05 91.8 21.65 90.75 22.15 90.05 23.1 90 23.15 90 23.2
L 83.9 32
Q 83 33.25 83 34.85
L 83 36.85
Q 83 38.1 83.65 39.25 84.2 40.25 85.1 40.95 85.2 41 85.25 41.05
L 102.25 52.2
Q 102.3 52.25 102.35 52.3 103.55 53 105 53
L 105.05 53
Q 106.5 53 107.7 52.3 107.75 52.25 107.8 52.2
L 124.75 41.05
Q 124.8 41 124.9 40.95 125.8 40.25 126.4 39.25 127 38.1 127 36.85
L 127 34.85
Q 127 33.25 126.1 32
M 124 36.75
L 124 36.85
Q 124 37.35 123.75 37.8 123.5 38.25 123.1 38.55
L 106.15 49.7
Q 105.65 50 105.05 50
L 105 50
Q 104.4 50 103.9 49.7
L 86.9 38.55
Q 86.5 38.25 86.25 37.8 86 37.35 86 36.85
L 86 36.75 86 34.85
Q 86 34.2 86.35 33.7
L 92.45 24.9
Q 92.75 24.5 93.2 24.3 93.6 24.05 94.1 24.05
L 115.9 24.05
Q 116.4 24.05 116.85 24.3 117.25 24.5 117.55 24.9
L 123.65 33.7
Q 124 34.2 124 34.85
L 124 36.75 Z"/>

<path fill="#82D95B" stroke="none" d="
M 86 36.75
L 86 36.85
Q 86 37.35 86.25 37.8 86.5 38.25 86.9 38.55
L 103.9 49.7
Q 104.4 50 105 50
L 105 34.85 86.95 34.85 86.35 35.7
Q 86.0109375 36.184375 86 36.75 Z"/>

<path fill="#B1E39B" stroke="none" d="
M 124 36.75
L 124 34.85
Q 124 34.2 123.65 33.7
L 117.55 24.9
Q 117.25 24.5 116.85 24.3 116.4 24.05 115.9 24.05
L 94.1 24.05
Q 93.6 24.05 93.2 24.3 92.75 24.5 92.45 24.9
L 86.35 33.7
Q 86 34.2 86 34.85
L 86 36.75
Q 86.0109375 36.184375 86.35 35.7
L 86.95 34.85 105 34.85 123.05 34.85 123.65 35.7
Q 123.9890625 36.184375 124 36.75 Z"/>
</g>

<g id="Layer0_3_FILL">
<path fill="#FFCC00" stroke="none" d="
M 49.6 19
Q 49.55 18.95 49.5 18.95 47.8 18.05 45.9 18.05
L 24.1 18.05
Q 22.05 18.1 20.4 19
L 20.45 18.95
Q 18.8 19.75 17.7 21.3
L 17.65 21.3 17.55 21.45 17.5 21.5 11.4 30.3
Q 11.3 30.45 11.2 30.6 10.05 32.45 10 34.8
L 10 36.85
Q 10 38.9 11 40.7 11.9 42.3 13.3 43.35 13.4 43.4 13.5 43.5
L 13.55 43.55 13.6 43.55 30.5 54.65
Q 30.55 54.65 30.6 54.7 30.7 54.8 30.8 54.85 32.7 56 35 56
L 35.05 56
Q 37.35 56 39.25 54.85 39.35 54.8 39.5 54.7
L 39.45 54.7 56.4 43.55 56.45 43.55
Q 56.5 43.5 56.55 43.5 56.6 43.4 56.7 43.35 58.1 42.3 59 40.7 60 38.9 60 36.85
L 60 34.8
Q 59.95 32.45 58.8 30.6 58.7 30.45 58.6 30.3
L 52.5 21.5 52.45 21.45 52.35 21.3
Q 51.2 19.75 49.7 19
L 49.7 19.05
Q 49.65 19 49.6 19
M 45.9 21.05
Q 47.1 21.05 48.2 21.65 48.25 21.65 48.3 21.7 49.25 22.15 49.95 23.1 50 23.15 50.05 23.2
L 56.15 32 56.1 32
Q 57 33.25 57 34.85
L 57 36.85
Q 57 38.1 56.4 39.25 55.8 40.25 54.9 40.95 54.8 41 54.75 41.05
L 37.8 52.2
Q 37.75 52.25 37.7 52.3 36.5 53 35.05 53
L 35 53
Q 33.55 53 32.35 52.3 32.3 52.25 32.25 52.2
L 15.25 41.05
Q 15.2 41 15.1 40.95 14.2 40.25 13.65 39.25 13 38.1 13 36.85
L 13 34.85
Q 13 33.25 13.9 32
L 20 23.2
Q 20 23.15 20.05 23.1 20.75 22.15 21.8 21.65 22.85 21.05 24.1 21.05
L 45.9 21.05
M 53.65 35.7
L 53.05 34.85 35 34.85 35 50 35.05 50
Q 35.65 50 36.15 49.7
L 53.1 38.55
Q 53.5 38.25 53.75 37.8 54 37.35 54 36.85
L 54 36.75
Q 53.9890625 36.184375 53.65 35.7 Z"/>

<path fill="#FFFAE9" stroke="none" d="
M 48.2 21.65
Q 47.1 21.05 45.9 21.05
L 24.1 21.05
Q 22.85 21.05 21.8 21.65 20.75 22.15 20.05 23.1 20 23.15 20 23.2
L 13.9 32
Q 13 33.25 13 34.85
L 13 36.85
Q 13 38.1 13.65 39.25 14.2 40.25 15.1 40.95 15.2 41 15.25 41.05
L 32.25 52.2
Q 32.3 52.25 32.35 52.3 33.55 53 35 53
L 35.05 53
Q 36.5 53 37.7 52.3 37.75 52.25 37.8 52.2
L 54.75 41.05
Q 54.8 41 54.9 40.95 55.8 40.25 56.4 39.25 57 38.1 57 36.85
L 57 34.85
Q 57 33.25 56.1 32
L 56.15 32 50.05 23.2
Q 50 23.15 49.95 23.1 49.25 22.15 48.3 21.7 48.25 21.65 48.2 21.65
M 45.9 24.05
Q 46.4 24.05 46.85 24.3 47.25 24.5 47.55 24.9
L 53.65 33.7
Q 54 34.2 54 34.85
L 54 36.75 54 36.85
Q 54 37.35 53.75 37.8 53.5 38.25 53.1 38.55
L 36.15 49.7
Q 35.65 50 35.05 50
L 35 50
Q 34.4 50 33.9 49.7
L 16.9 38.55
Q 16.5 38.25 16.25 37.8 16 37.35 16 36.85
L 16 36.75 16 34.85
Q 16 34.2 16.35 33.7
L 22.45 24.9
Q 22.75 24.5 23.2 24.3 23.6 24.05 24.1 24.05
L 45.9 24.05 Z"/>

<path fill="#FFD83C" stroke="none" d="
M 16 36.75
L 16 36.85
Q 16 37.35 16.25 37.8 16.5 38.25 16.9 38.55
L 33.9 49.7
Q 34.4 50 35 50
L 35 34.85 16.95 34.85 16.35 35.7
Q 16.0109375 36.184375 16 36.75 Z"/>

<path fill="#FEE481" stroke="none" d="
M 46.85 24.3
Q 46.4 24.05 45.9 24.05
L 24.1 24.05
Q 23.6 24.05 23.2 24.3 22.75 24.5 22.45 24.9
L 16.35 33.7
Q 16 34.2 16 34.85
L 16 36.75
Q 16.0109375 36.184375 16.35 35.7
L 16.95 34.85 35 34.85 53.05 34.85 53.65 35.7
Q 53.9890625 36.184375 54 36.75
L 54 34.85
Q 54 34.2 53.65 33.7
L 47.55 24.9
Q 47.25 24.5 46.85 24.3 Z"/>
</g>

<g id="Layer0_4_FILL">
<path fill="#1EA7E1" stroke="none" d="
M 539.7 19
L 539.7 19.05
Q 539.65 19 539.6 19 539.55 18.95 539.5 18.95 537.8 18.05 535.9 18.05
L 514.1 18.05
Q 512.05 18.1 510.4 19
L 510.45 18.95
Q 508.8 19.75 507.7 21.3
L 507.65 21.3 507.55 21.45 507.5 21.5 501.4 30.3
Q 501.3 30.45 501.2 30.6 500.05 32.45 500 34.8
L 500 36.85
Q 500 38.9 501 40.7 501.9 42.3 503.3 43.35 503.4 43.4 503.5 43.5
L 503.55 43.55 503.6 43.55 520.5 54.65
Q 520.55 54.65 520.6 54.7 520.7 54.8 520.8 54.85 522.7 56 525 56
L 525.05 56
Q 527.35 56 529.25 54.85 529.35 54.8 529.5 54.7
L 529.45 54.7 546.4 43.55 546.45 43.55
Q 546.5 43.5 546.55 43.5 546.6 43.4 546.7 43.35 548.1 42.3 549 40.7 550 38.9 550 36.85
L 550 34.8
Q 549.95 32.45 548.8 30.6 548.7 30.45 548.6 30.3
L 542.5 21.5 542.45 21.45 542.35 21.3
Q 541.2 19.75 539.7 19
M 538.2 21.65
Q 538.25 21.65 538.3 21.7 539.25 22.15 539.95 23.1 540 23.15 540.05 23.2
L 546.15 32 546.1 32
Q 547 33.25 547 34.85
L 547 36.85
Q 547 38.1 546.4 39.25 545.8 40.25 544.9 40.95 544.8 41 544.75 41.05
L 527.8 52.2
Q 527.75 52.25 527.7 52.3 526.5 53 525.05 53
L 525 53
Q 523.55 53 522.35 52.3 522.3 52.25 522.25 52.2
L 505.25 41.05
Q 505.2 41 505.1 40.95 504.2 40.25 503.65 39.25 503 38.1 503 36.85
L 503 34.85
Q 503 33.25 503.9 32
L 510 23.2
Q 510 23.15 510.05 23.1 510.75 22.15 511.8 21.65 512.85 21.05 514.1 21.05
L 535.9 21.05
Q 537.1 21.05 538.2 21.65 Z"/>
</g>

<g id="Layer0_5_FILL">
<path fill="#E86A17" stroke="none" d="
M 469.7 19
L 469.7 19.05
Q 469.65 19 469.6 19 469.55 18.95 469.5 18.95 467.8 18.05 465.9 18.05
L 444.1 18.05
Q 442.05 18.1 440.4 19
L 440.45 18.95
Q 438.8 19.75 437.7 21.3
L 437.65 21.3 437.55 21.45 437.5 21.5 431.4 30.3
Q 431.3 30.45 431.2 30.6 430.05 32.45 430 34.8
L 430 36.85
Q 430 38.9 431 40.7 431.9 42.3 433.3 43.35 433.4 43.4 433.5 43.5
L 433.55 43.55 433.6 43.55 450.5 54.65
Q 450.55 54.65 450.6 54.7 450.7 54.8 450.8 54.85 452.7 56 455 56
L 455.05 56
Q 457.35 56 459.25 54.85 459.35 54.8 459.5 54.7
L 459.45 54.7 476.4 43.55 476.45 43.55
Q 476.5 43.5 476.55 43.5 476.6 43.4 476.7 43.35 478.1 42.3 479 40.7 480 38.9 480 36.85
L 480 34.8
Q 479.95 32.45 478.8 30.6 478.7 30.45 478.6 30.3
L 472.5 21.5 472.45 21.45 472.35 21.3
Q 471.2 19.75 469.7 19
M 465.9 21.05
Q 467.1 21.05 468.2 21.65 468.25 21.65 468.3 21.7 469.25 22.15 469.95 23.1 470 23.15 470.05 23.2
L 476.15 32 476.1 32
Q 477 33.25 477 34.85
L 477 36.85
Q 477 38.1 476.4 39.25 475.8 40.25 474.9 40.95 474.8 41 474.75 41.05
L 457.8 52.2
Q 457.75 52.25 457.7 52.3 456.5 53 455.05 53
L 455 53
Q 453.55 53 452.35 52.3 452.3 52.25 452.25 52.2
L 435.25 41.05
Q 435.2 41 435.1 40.95 434.2 40.25 433.65 39.25 433 38.1 433 36.85
L 433 34.85
Q 433 33.25 433.9 32
L 440 23.2
Q 440 23.15 440.05 23.1 440.75 22.15 441.8 21.65 442.85 21.05 444.1 21.05
L 465.9 21.05 Z"/>
</g>

<g id="Layer0_6_FILL">
<path fill="#73CD4B" stroke="none" d="
M 410 36.85
L 410 34.8
Q 409.95 32.45 408.8 30.6 408.7 30.45 408.6 30.3
L 402.5 21.5 402.45 21.45 402.35 21.3
Q 401.2 19.75 399.7 19
L 399.7 19.05
Q 399.65 19 399.6 19 399.55 18.95 399.5 18.95 397.8 18.05 395.9 18.05
L 374.1 18.05
Q 372.05 18.1 370.4 19
L 370.45 18.95
Q 368.8 19.75 367.7 21.3
L 367.65 21.3 367.55 21.45 367.5 21.5 361.4 30.3
Q 361.3 30.45 361.2 30.6 360.05 32.45 360 34.8
L 360 36.85
Q 360 38.9 361 40.7 361.9 42.3 363.3 43.35 363.4 43.4 363.5 43.5
L 363.55 43.55 363.6 43.55 380.5 54.65
Q 380.55 54.65 380.6 54.7 380.7 54.8 380.8 54.85 382.7 56 385 56
L 385.05 56
Q 387.35 56 389.25 54.85 389.35 54.8 389.5 54.7
L 389.45 54.7 406.4 43.55 406.45 43.55
Q 406.5 43.5 406.55 43.5 406.6 43.4 406.7 43.35 408.1 42.3 409 40.7 410 38.9 410 36.85
M 406.15 32
L 406.1 32
Q 407 33.25 407 34.85
L 407 36.85
Q 407 38.1 406.4 39.25 405.8 40.25 404.9 40.95 404.8 41 404.75 41.05
L 387.8 52.2
Q 387.75 52.25 387.7 52.3 386.5 53 385.05 53
L 385 53
Q 383.55 53 382.35 52.3 382.3 52.25 382.25 52.2
L 365.25 41.05
Q 365.2 41 365.1 40.95 364.2 40.25 363.65 39.25 363 38.1 363 36.85
L 363 34.85
Q 363 33.25 363.9 32
L 370 23.2
Q 370 23.15 370.05 23.1 370.75 22.15 371.8 21.65 372.85 21.05 374.1 21.05
L 395.9 21.05
Q 397.1 21.05 398.2 21.65 398.25 21.65 398.3 21.7 399.25 22.15 399.95 23.1 400 23.15 400.05 23.2
L 406.15 32 Z"/>
</g>

<g id="Layer0_7_FILL">
<path fill="#FFCC00" stroke="none" d="
M 332.5 21.5
L 332.45 21.45 332.35 21.3
Q 331.2 19.75 329.7 19
L 329.7 19.05
Q 329.65 19 329.6 19 329.55 18.95 329.5 18.95 327.8 18.05 325.9 18.05
L 304.1 18.05
Q 302.05 18.1 300.4 19
L 300.45 18.95
Q 298.8 19.75 297.7 21.3
L 297.65 21.3 297.55 21.45 297.5 21.5 291.4 30.3
Q 291.3 30.45 291.2 30.6 290.05 32.45 290 34.8
L 290 36.85
Q 290 38.9 291 40.7 291.9 42.3 293.3 43.35 293.4 43.4 293.5 43.5
L 293.55 43.55 293.6 43.55 310.5 54.65
Q 310.55 54.65 310.6 54.7 310.7 54.8 310.8 54.85 312.7 56 315 56
L 315.05 56
Q 317.35 56 319.25 54.85 319.35 54.8 319.5 54.7
L 319.45 54.7 336.4 43.55 336.45 43.55
Q 336.5 43.5 336.55 43.5 336.6 43.4 336.7 43.35 338.1 42.3 339 40.7 340 38.9 340 36.85
L 340 34.8
Q 339.95 32.45 338.8 30.6 338.7 30.45 338.6 30.3
L 332.5 21.5
M 325.9 21.05
Q 327.1 21.05 328.2 21.65 328.25 21.65 328.3 21.7 329.25 22.15 329.95 23.1 330 23.15 330.05 23.2
L 336.15 32 336.1 32
Q 337 33.25 337 34.85
L 337 36.85
Q 337 38.1 336.4 39.25 335.8 40.25 334.9 40.95 334.8 41 334.75 41.05
L 317.8 52.2
Q 317.75 52.25 317.7 52.3 316.5 53 315.05 53
L 315 53
Q 313.55 53 312.35 52.3 312.3 52.25 312.25 52.2
L 295.25 41.05
Q 295.2 41 295.1 40.95 294.2 40.25 293.65 39.25 293 38.1 293 36.85
L 293 34.85
Q 293 33.25 293.9 32
L 300 23.2
Q 300 23.15 300.05 23.1 300.75 22.15 301.8 21.65 302.85 21.05 304.1 21.05
L 325.9 21.05 Z"/>
</g>

<g id="Layer0_8_FILL">
<path fill="#B64A21" stroke="none" d="
M 12.85 89.3
L 12.75 89.4
Q 8.15 94.1 8.15 100.65 8.15 104.6 9.85 107.9 9.95 108.05 10.05 108.2 10.65 109.4 12 111.35
L 12.05 111.4
Q 12.3 111.8 12.65 112.15 12.7 112.15 12.7 112.2 13.05 112.55 13.45 112.95
L 13.55 113.05
Q 13.6 113.1 13.65 113.15
L 30.1 128.15 30.15 128.15
Q 31.85 129.7 34.15 129.7 36.45 129.7 38.2 128.15
L 54.65 113.15
Q 54.7 113.1 54.75 113.05
L 54.85 112.95
Q 55.25 112.55 55.6 112.2 56 111.8 56.3 111.35 56.3 111.3 56.35 111.3 57.7 109.25 58.35 108.1 58.35 108.05 58.4 108.05 58.4 107.95 58.45 107.9 60.15 104.6 60.15 100.65 60.15 94.1 55.55 89.4
L 55.45 89.3
Q 51.65 85.6 46.65 84.9 45.9 84.75 45.15 84.75 44.65 84.7 44.15 84.7 38.4 84.7 34.15 88.2 29.9 84.7 24.15 84.7 17.55 84.7 12.85 89.3
M 14.9 91.5
L 14.95 91.45
Q 18.75 87.7 24.15 87.7 29.55 87.7 33.35 91.5 33.75 91.9 34.15 92.4 34.55 91.9 35 91.5 38.75 87.7 44.15 87.7 44.65 87.7 45.15 87.75 45.9 87.8 46.65 87.9 50.45 88.6 53.35 91.45
L 53.4 91.5
Q 57.15 95.35 57.15 100.65 57.15 103.85 55.8 106.55 55.75 106.55 55.75 106.6 55.15 107.7 53.85 109.65 53.7 109.85 53.5 110.1 53.15 110.45 52.75 110.85 52.65 110.85 52.65 110.95
L 36.2 125.95
Q 35.3 126.7 34.15 126.7 33 126.7 32.15 125.95
L 15.7 110.95
Q 15.65 110.85 15.6 110.85 15.2 110.45 14.85 110.1 14.65 109.85 14.5 109.65 13.05 107.65 12.55 106.5
L 12.55 106.55
Q 11.15 103.85 11.15 100.65 11.15 95.35 14.9 91.5 Z"/>

<path fill="#FA6A34" stroke="none" d="
M 14.95 91.45
L 14.9 91.5
Q 11.15 95.35 11.15 100.65 11.15 103.85 12.55 106.55
L 12.55 106.5
Q 13.05 107.65 14.5 109.65 14.65 109.85 14.85 110.1 15.2 110.45 15.6 110.85 15.65 110.85 15.7 110.95
L 32.15 125.95
Q 33 126.7 34.15 126.7 35.3 126.7 36.2 125.95
L 52.65 110.95
Q 52.65 110.85 52.75 110.85 53.15 110.45 53.5 110.1 53.7 109.85 53.85 109.65 55.15 107.7 55.75 106.6 55.75 106.55 55.8 106.55 57.15 103.85 57.15 100.65 57.15 95.35 53.4 91.5
L 53.35 91.45
Q 50.45 88.6 46.65 87.9 45.9 87.8 45.15 87.75 44.65 87.7 44.15 87.7 38.75 87.7 35 91.5 34.55 91.9 34.15 92.4 33.75 91.9 33.35 91.5 29.55 87.7 24.15 87.7 18.75 87.7 14.95 91.45
M 24.15 90.7
Q 28.3 90.7 31.2 93.6 34.1 96.5 34.15 100.55 34.2 96.5 37.1 93.6 40 90.7 44.15 90.7 44.65 90.7 45.15 90.75 45.9 90.8 46.65 91 49.25 91.6 51.25 93.6 54.15 96.55 54.15 100.65 54.15 103.1 53.1 105.15 52.55 106.15 51.35 107.95 51 108.3 50.6 108.7
L 34.15 123.7 17.7 108.7
Q 17.3 108.3 16.95 107.95 15.7 106.15 15.2 105.15 14.15 103.1 14.15 100.65 14.15 96.55 17.05 93.6 20 90.7 24.15 90.7 Z"/>

<path fill="#E85017" stroke="none" d="
M 31.2 93.6
Q 28.3 90.7 24.15 90.7 20 90.7 17.05 93.6 14.15 96.55 14.15 100.65 14.15 103.1 15.2 105.15 15.7 106.15 16.95 107.95 17.3 108.3 17.7 108.7
L 34.15 123.7 50.6 108.7
Q 51 108.3 51.35 107.95 52.55 106.15 53.1 105.15 54.15 103.1 54.15 100.65 54.15 96.55 51.25 93.6 49.25 91.6 46.65 91 45.9 90.8 45.15 90.75 44.65 90.7 44.15 90.7 40 90.7 37.1 93.6 34.2 96.5 34.15 100.55 34.1 96.5 31.2 93.6 Z"/>
</g>

<g id="Layer0_9_FILL">
<path fill="#FFFFFF" fill-opacity="0.2" stroke="none" d="
M 120.25 93.6
Q 117.3 90.7 113.15 90.7 109 90.7 106.1 93.6 103.25 96.45 103.15 100.45
L 103.15 123.7 119.6 108.7
Q 120 108.3 120.35 107.95 121.55 106.15 122.1 105.15 123.15 103.1 123.15 100.65 123.15 96.55 120.25 93.6 Z"/>

<path fill="#B8B8B8" stroke="none" d="
M 103.15 92.4
Q 103.55 91.9 104 91.5 107.75 87.7 113.15 87.7 118.55 87.7 122.35 91.45
L 122.4 91.5
Q 126.15 95.35 126.15 100.65 126.15 103.85 124.8 106.55 124.75 106.55 124.75 106.6 124.15 107.7 122.85 109.65 122.7 109.85 122.5 110.1 122.15 110.45 121.75 110.85 121.65 110.85 121.65 110.95
L 105.2 125.95
Q 104.3 126.7 103.15 126.7
L 103.15 129.7
Q 105.45 129.7 107.2 128.15
L 123.65 113.15
Q 123.7 113.1 123.75 113.05
L 123.85 112.95
Q 124.25 112.55 124.6 112.2 125 111.8 125.3 111.35 125.3 111.3 125.35 111.3 126.7 109.25 127.35 108.1 127.35 108.05 127.4 108.05 127.4 107.95 127.45 107.9 129.15 104.6 129.15 100.65 129.15 94.1 124.55 89.4
L 124.45 89.3
Q 119.75 84.7 113.15 84.7 107.4 84.7 103.15 88.2
L 103.15 92.4 Z"/>

<path fill="#FFFFFF" stroke="none" d="
M 104 91.5
Q 103.55 91.9 103.15 92.4
L 103.15 100.45
Q 103.25 96.45 106.1 93.6 109 90.7 113.15 90.7 117.3 90.7 120.25 93.6 123.15 96.55 123.15 100.65 123.15 103.1 122.1 105.15 121.55 106.15 120.35 107.95 120 108.3 119.6 108.7
L 103.15 123.7 103.15 126.7
Q 104.3 126.7 105.2 125.95
L 121.65 110.95
Q 121.65 110.85 121.75 110.85 122.15 110.45 122.5 110.1 122.7 109.85 122.85 109.65 124.15 107.7 124.75 106.6 124.75 106.55 124.8 106.55 126.15 103.85 126.15 100.65 126.15 95.35 122.4 91.5
L 122.35 91.45
Q 118.55 87.7 113.15 87.7 107.75 87.7 104 91.5 Z"/>

<path fill="#B64A21" stroke="none" d="
M 93.15 84.7
Q 86.55 84.7 81.85 89.3
L 81.75 89.4
Q 77.15 94.1 77.15 100.65 77.15 104.6 78.85 107.9 78.95 108.05 79.05 108.2 79.65 109.4 81 111.35
L 81.05 111.4
Q 81.3 111.8 81.65 112.15 81.7 112.15 81.7 112.2 82.05 112.55 82.45 112.95
L 82.55 113.05
Q 82.6 113.1 82.65 113.15
L 99.1 128.15 99.15 128.15
Q 100.85 129.7 103.15 129.7
L 103.15 126.7
Q 102 126.7 101.15 125.95
L 84.7 110.95
Q 84.65 110.85 84.6 110.85 84.2 110.45 83.85 110.1 83.65 109.85 83.5 109.65 82.05 107.65 81.55 106.5
L 81.55 106.55
Q 80.15 103.85 80.15 100.65 80.15 95.35 83.9 91.5
L 83.95 91.45
Q 87.75 87.7 93.15 87.7 98.55 87.7 102.35 91.5 102.75 91.9 103.15 92.4
L 103.15 88.2
Q 98.9 84.7 93.15 84.7 Z"/>

<path fill="#E85017" stroke="none" d="
M 100.2 93.6
Q 97.3 90.7 93.15 90.7 89 90.7 86.05 93.6 83.15 96.55 83.15 100.65 83.15 103.1 84.2 105.15 84.7 106.15 85.95 107.95 86.3 108.3 86.7 108.7
L 103.15 123.7 103.15 100.45
Q 103.05 96.45 100.2 93.6 Z"/>

<path fill="#FA6A34" stroke="none" d="
M 93.15 90.7
Q 97.3 90.7 100.2 93.6 103.05 96.45 103.15 100.45
L 103.15 92.4
Q 102.75 91.9 102.35 91.5 98.55 87.7 93.15 87.7 87.75 87.7 83.95 91.45
L 83.9 91.5
Q 80.15 95.35 80.15 100.65 80.15 103.85 81.55 106.55
L 81.55 106.5
Q 82.05 107.65 83.5 109.65 83.65 109.85 83.85 110.1 84.2 110.45 84.6 110.85 84.65 110.85 84.7 110.95
L 101.15 125.95
Q 102 126.7 103.15 126.7
L 103.15 123.7 86.7 108.7
Q 86.3 108.3 85.95 107.95 84.7 106.15 84.2 105.15 83.15 103.1 83.15 100.65 83.15 96.55 86.05 93.6 89 90.7 93.15 90.7 Z"/>
</g>

<g id="Layer0_10_FILL">
<path fill="#B8B8B8" stroke="none" d="
M 174.15 88.2
Q 169.9 84.7 164.15 84.7 157.55 84.7 152.85 89.3
L 152.75 89.4
Q 148.15 94.1 148.15 100.65 148.15 104.6 149.85 107.9 149.95 108.05 150.05 108.2 150.65 109.4 152 111.35
L 152.05 111.4
Q 152.3 111.8 152.65 112.15 152.7 112.15 152.7 112.2 153.05 112.55 153.45 112.95
L 153.55 113.05
Q 153.6 113.1 153.65 113.15
L 170.1 128.15 170.15 128.15
Q 171.85 129.7 174.15 129.7 176.45 129.7 178.2 128.15
L 194.65 113.15
Q 194.7 113.1 194.75 113.05
L 194.85 112.95
Q 195.25 112.55 195.6 112.2 196 111.8 196.3 111.35 196.3 111.3 196.35 111.3 197.7 109.25 198.35 108.1 198.35 108.05 198.4 108.05 198.4 107.95 198.45 107.9 200.15 104.6 200.15 100.65 200.15 94.1 195.55 89.4
L 195.45 89.3
Q 190.75 84.7 184.15 84.7 178.4 84.7 174.15 88.2
M 173.35 91.5
Q 173.75 91.9 174.15 92.4 174.55 91.9 175 91.5 178.75 87.7 184.15 87.7 189.55 87.7 193.35 91.45
L 193.4 91.5
Q 197.15 95.35 197.15 100.65 197.15 103.85 195.8 106.55 195.75 106.55 195.75 106.6 195.15 107.7 193.85 109.65 193.7 109.85 193.5 110.1 193.15 110.45 192.75 110.85 192.65 110.85 192.65 110.95
L 176.2 125.95
Q 175.3 126.7 174.15 126.7 173 126.7 172.15 125.95
L 155.7 110.95
Q 155.65 110.85 155.6 110.85 155.2 110.45 154.85 110.1 154.65 109.85 154.5 109.65 153.05 107.65 152.55 106.5
L 152.55 106.55
Q 151.15 103.85 151.15 100.65 151.15 95.35 154.9 91.5
L 154.95 91.45
Q 158.75 87.7 164.15 87.7 169.55 87.7 173.35 91.5 Z"/>

<path fill="#FFFFFF" stroke="none" d="
M 174.15 92.4
Q 173.75 91.9 173.35 91.5 169.55 87.7 164.15 87.7 158.75 87.7 154.95 91.45
L 154.9 91.5
Q 151.15 95.35 151.15 100.65 151.15 103.85 152.55 106.55
L 152.55 106.5
Q 153.05 107.65 154.5 109.65 154.65 109.85 154.85 110.1 155.2 110.45 155.6 110.85 155.65 110.85 155.7 110.95
L 172.15 125.95
Q 173 126.7 174.15 126.7 175.3 126.7 176.2 125.95
L 192.65 110.95
Q 192.65 110.85 192.75 110.85 193.15 110.45 193.5 110.1 193.7 109.85 193.85 109.65 195.15 107.7 195.75 106.6 195.75 106.55 195.8 106.55 197.15 103.85 197.15 100.65 197.15 95.35 193.4 91.5
L 193.35 91.45
Q 189.55 87.7 184.15 87.7 178.75 87.7 175 91.5 174.55 91.9 174.15 92.4
M 164.15 90.7
Q 168.3 90.7 171.2 93.6 174.1 96.5 174.15 100.55 174.2 96.5 177.1 93.6 180 90.7 184.15 90.7 188.3 90.7 191.25 93.6 194.15 96.55 194.15 100.65 194.15 103.1 193.1 105.15 192.55 106.15 191.35 107.95 191 108.3 190.6 108.7
L 174.15 123.7 157.7 108.7
Q 157.3 108.3 156.95 107.95 155.7 106.15 155.2 105.15 154.15 103.1 154.15 100.65 154.15 96.55 157.05 93.6 160 90.7 164.15 90.7 Z"/>

<path fill="#FFFFFF" fill-opacity="0.2" stroke="none" d="
M 171.2 93.6
Q 168.3 90.7 164.15 90.7 160 90.7 157.05 93.6 154.15 96.55 154.15 100.65 154.15 103.1 155.2 105.15 155.7 106.15 156.95 107.95 157.3 108.3 157.7 108.7
L 174.15 123.7 190.6 108.7
Q 191 108.3 191.35 107.95 192.55 106.15 193.1 105.15 194.15 103.1 194.15 100.65 194.15 96.55 191.25 93.6 188.3 90.7 184.15 90.7 180 90.7 177.1 93.6 174.2 96.5 174.15 100.55 174.1 96.5 171.2 93.6 Z"/>
</g>

<g id="Layer0_11_FILL">
<path fill="#C9A000" stroke="none" d="
M 262.1 88.95
Q 255.25 82 245.5 82 235.95 82 229.25 88.6 229.05 88.7 228.85 88.9 222.9 94.85 222.15 102.9 222 104.2 222 105.5
L 222 105.55
Q 222 106.05 222.05 106.55 222.05 107.3 222.15 108.15 222.9 115.9 228.5 121.75 228.65 121.95 228.85 122.15 235.7 129 245.5 129 255.25 129 262.1 122.15 268.55 115.7 269 106.8
L 269 106.75
Q 269 106.55 269 106.45 269 105.95 269 105.5 269 95.75 262.1 88.95
M 245.5 85
Q 254 85 259.95 91.05
L 260 91.05
Q 266 97 266 105.5 266 106 266 106.5 266 106.55 266 106.65 265.6 114.4 260 120.05 254 126 245.5 126 236.95 126 231 120.05
L 231 120
Q 225.8 114.8 225.15 107.8 225.05 107.15 225.05 106.5 225 106 225 105.5 225 104.35 225.15 103.2 225.8 96.2 231 91.05 236.95 85 245.5 85 Z"/>

<path fill="#FFE685" stroke="none" d="
M 259.95 91.05
Q 254 85 245.5 85 236.95 85 231 91.05 225.8 96.2 225.15 103.2 225 104.35 225 105.5 225 106 225.05 106.5 225.05 107.15 225.15 107.8 225.8 114.8 231 120
L 231 120.05
Q 236.95 126 245.5 126 254 126 260 120.05 265.6 114.4 266 106.65 266 106.55 266 106.5 266 106 266 105.5 266 97 260 91.05
L 259.95 91.05
M 245.5 88
Q 252.75 88 257.85 93.15 263 98.25 263 105.5 263 106 263 106.5 262.65 113.1 257.85 117.9 252.75 123 245.5 123 238.2 123 233.1 117.9 228.7 113.45 228.1 107.5 228.05 107 228.05 106.5 228 106 228 105.5 228 104.5 228.1 103.5 228.7 97.55 233.1 93.15 238.2 88 245.5 88 Z"/>

<path fill="#FFCC00" stroke="none" d="
M 257.85 93.15
Q 252.75 88 245.5 88 238.2 88 233.1 93.15 228.7 97.55 228.1 103.5 228 104.5 228 105.5 228 106 228.05 106.5 228.05 107 228.1 107.5 228.7 113.45 233.1 117.9 238.2 123 245.5 123 252.75 123 257.85 117.9 262.65 113.1 263 106.5 263 106 263 105.5 263 98.25 257.85 93.15
M 245.5 95
Q 249.85 95 252.9 98.1 256 101.15 256 105.5 256 105.8 256 106.1 256 106.35 256 106.6 255.6 110.25 252.9 112.95 249.85 116 245.5 116 241.1 116 238.05 112.95 235.25 110.15 235.05 106.3 235.05 106.2 235.05 106.1 235 105.8 235 105.5 235 101.15 238.05 98.1 241.1 95 245.5 95
M 247.65 101.55
Q 247.65 100.7 247 100.05 246.4 99.45 245.55 99.45
L 245.5 99.45
Q 244.65 99.45 244 100.05 243.4 100.7 243.4 101.55
L 243.4 109.45
Q 243.4 110.3 244 110.9 244.65 111.55 245.5 111.55
L 245.55 111.55
Q 246.4 111.55 247 110.9 247.65 110.3 247.65 109.45
L 247.65 101.55 Z"/>

<path fill="#E3B602" stroke="none" d="
M 252.9 98.1
Q 249.85 95 245.5 95 241.1 95 238.05 98.1 235 101.15 235 105.5 235 105.8 235.05 106.1 235.05 106.2 235.05 106.3 235.25 110.15 238.05 112.95 241.1 116 245.5 116 249.85 116 252.9 112.95 255.6 110.25 256 106.6 256 106.35 256 106.1 256 105.8 256 105.5 256 101.15 252.9 98.1
M 247 100.05
Q 247.65 100.7 247.65 101.55
L 247.65 109.45
Q 247.65 110.3 247 110.9 246.4 111.55 245.55 111.55
L 245.5 111.55
Q 244.65 111.55 244 110.9 243.4 110.3 243.4 109.45
L 243.4 101.55
Q 243.4 100.7 244 100.05 244.65 99.45 245.5 99.45
L 245.55 99.45
Q 246.4 99.45 247 100.05 Z"/>
</g>

<g id="Layer0_12_FILL">
<path fill="#B1900B" stroke="none" d="
M 31.45 170
Q 29.75 169.25 27.95 168.95 27.7 168.9 27.45 168.9 25.8 168.65 24.3 168.75
L 24.25 168.75
Q 20.25 169.1 17.5 171.95 17.4 171.95 17.4 172.05 14.55 174.8 14.25 178.85
L 14.3 178.7
Q 14.1 180.2 14.35 181.85
L 14.35 181.9
Q 14.25 182.25 14.5 182.85 15.3 187.5 19.15 191.35 19.45 191.65 19.9 191.95 23.6 195.4 28.15 196.1
L 28.15 196.15
Q 34.55 197.1 38.35 193.05 38.4 193 38.45 193 38.45 192.95 38.5 192.9 42.4 189.25 41.55 183.3 41.55 182.95 41.5 182.65 41.15 180.65 40.4 178.85
L 41.25 177.95 43.85 180.55
Q 47.3 184 50.8 180.65
L 51.85 179.6
Q 51.85 179.5 51.95 179.5 52.9 178.5 53 177.3 53 177.2 53 177.1
L 53.05 177.1
Q 53.15 177.05 53.3 177.05 54.5 176.85 55.35 176.1
L 56.4 175.05
Q 56.4 175 56.45 174.95 58.2 173.25 58.05 171.45 58.2 169.65 56.5 167.95
L 53.05 164.5
Q 53.1 163.9 53.05 163.25 53 163 52.95 162.8 52.75 161.35 51.85 160.1 51.8 160.05 51.75 160 51.45 159.6 51.1 159.25 49.45 157.6 47.3 157.35 44.2 156.9 42.6 158.85
L 31.45 170
M 24.5 171.75
Q 25.8 171.65 27.25 171.9 27.35 171.9 27.45 171.9 29.85 172.3 32 173.7
L 44.7 160.95
Q 45.45 160.1 46.85 160.3 48.05 160.45 48.95 161.35 49.2 161.6 49.4 161.85 49.95 162.6 50 163.45
L 50.05 163.5
Q 50.15 164.55 49.6 165.3
L 49.65 165.35 54.35 170.05
Q 55.75 171.45 54.35 172.8
L 53.3 173.85
Q 53.1 174.05 52.8 174.1 52.6 174.1 52.4 173.9
L 51.7 173.2 49.15 175.75 49.85 176.45
Q 50.05 176.65 50 176.9 50 177.15 49.8 177.35
L 48.75 178.4
Q 47.35 179.8 45.95 178.4
L 41.25 173.7 36.7 178.3
Q 38.1 180.55 38.55 183.15
L 38.5 183.2
Q 39.35 188 36.3 190.85 33.45 193.9 28.6 193.15 24.85 192.55 21.75 189.6 21.45 189.4 21.25 189.2 18 185.95 17.35 181.95 17.3 181.85 17.35 181.85 17.1 180.35 17.25 179.05 17.45 176.1 19.55 174.1 21.55 172 24.5 171.75
M 32.1 184.4
Q 32.05 184.3 32.05 184.2 31.75 182.45 30.45 180.9 30.2 180.65 30 180.45
L 29.9 180.35
Q 28.2 178.75 26.2 178.35 25 178.15 24.2 178.75 23.6 179.55 23.8 180.75 24.15 182.8 25.9 184.55 26.1 184.75 26.4 185 27.85 186.3 29.65 186.6 29.75 186.6 29.8 186.7 30.95 186.8 31.65 186.2 32.25 185.5 32.1 184.4 Z"/>

<path fill="url(#Gradient_1)" stroke="none" d="
M 54.35 172.8
Q 55.75 171.45 54.35 170.05
L 49.65 165.35 41.25 173.7 45.95 178.4
Q 47.35 179.8 48.75 178.4
L 49.8 177.35
Q 50 177.15 50 176.9 50.05 176.65 49.85 176.45
L 49.15 175.75 51.7 173.2 52.4 173.9
Q 52.6 174.1 52.8 174.1 53.1 174.05 53.3 173.85
L 54.35 172.8 Z"/>

<path fill="#FFCC00" stroke="none" d="
M 27.25 171.9
Q 25.8 171.65 24.5 171.75 21.55 172 19.55 174.1 17.45 176.1 17.25 179.05 17.1 180.35 17.35 181.85 17.3 181.85 17.35 181.95 18 185.95 21.25 189.2 21.45 189.4 21.75 189.6 24.85 192.55 28.6 193.15 33.45 193.9 36.3 190.85 39.35 188 38.5 183.2
L 38.55 183.15
Q 38.1 180.55 36.7 178.3
L 41.25 173.7 49.65 165.35 49.6 165.3
Q 50.15 164.55 50.05 163.5
L 50 163.45
Q 49.95 162.6 49.4 161.85 49.2 161.6 48.95 161.35 48.05 160.45 46.85 160.3 45.45 160.1 44.7 160.95
L 32 173.7
Q 29.85 172.3 27.45 171.9 27.35 171.9 27.25 171.9
M 32.05 184.2
Q 32.05 184.3 32.1 184.4 32.25 185.5 31.65 186.2 30.95 186.8 29.8 186.7 29.75 186.6 29.65 186.6 27.85 186.3 26.4 185 26.1 184.75 25.9 184.55 24.15 182.8 23.8 180.75 23.6 179.55 24.2 178.75 25 178.15 26.2 178.35 28.2 178.75 29.9 180.35
L 30 180.45
Q 30.2 180.65 30.45 180.9 31.75 182.45 32.05 184.2 Z"/>
</g>

<g id="Layer0_13_FILL">
<path fill="#559A35" stroke="none" d="
M 117.3 157.35
Q 114.2 156.9 112.6 158.85
L 101.45 170
Q 99.75 169.25 97.95 168.95 97.7 168.9 97.45 168.9 95.8 168.65 94.3 168.75
L 94.25 168.75
Q 90.25 169.1 87.5 171.95 87.4 171.95 87.4 172.05 84.55 174.8 84.25 178.85
L 84.3 178.7
Q 84.1 180.2 84.35 181.85
L 84.35 181.9
Q 84.25 182.25 84.5 182.85 85.3 187.5 89.15 191.35 89.45 191.65 89.9 191.95 93.6 195.4 98.15 196.1
L 98.15 196.15
Q 104.55 197.1 108.35 193.05 108.4 193 108.45 193 108.45 192.95 108.5 192.9 112.4 189.25 111.55 183.3 111.55 182.95 111.5 182.65 111.15 180.65 110.4 178.85
L 111.25 177.95 113.85 180.55
Q 117.3 184 120.8 180.65
L 121.85 179.6
Q 121.85 179.5 121.95 179.5 122.9 178.5 123 177.3 123 177.2 123 177.1
L 123.05 177.1
Q 123.15 177.05 123.3 177.05 124.5 176.85 125.35 176.1
L 126.4 175.05
Q 126.4 175 126.45 174.95 128.2 173.25 128.05 171.45 128.2 169.65 126.5 167.95
L 123.05 164.5
Q 123.1 163.9 123.05 163.25 123 163 122.95 162.8 122.75 161.35 121.85 160.1 121.8 160.05 121.75 160 121.45 159.6 121.1 159.25 119.45 157.6 117.3 157.35
M 118.95 161.35
Q 119.2 161.6 119.4 161.85 119.95 162.6 120 163.45
L 120.05 163.5
Q 120.15 164.55 119.6 165.3
L 119.65 165.35 124.35 170.05
Q 125.75 171.45 124.35 172.8
L 123.3 173.85
Q 123.1 174.05 122.8 174.1 122.6 174.1 122.4 173.9
L 121.7 173.2 119.15 175.75 119.85 176.45
Q 120.05 176.65 120 176.9 120 177.15 119.8 177.35
L 118.75 178.4
Q 117.35 179.8 115.95 178.4
L 111.25 173.7 106.7 178.3
Q 108.1 180.55 108.55 183.15
L 108.5 183.2
Q 109.35 188 106.3 190.85 103.45 193.9 98.6 193.15 94.85 192.55 91.75 189.6 91.45 189.4 91.25 189.2 88 185.95 87.35 181.95 87.3 181.85 87.35 181.85 87.1 180.35 87.25 179.05 87.45 176.1 89.55 174.1 91.55 172 94.5 171.75 95.8 171.65 97.25 171.9 97.35 171.9 97.45 171.9 99.85 172.3 102 173.7
L 114.7 160.95
Q 115.45 160.1 116.85 160.3 118.05 160.45 118.95 161.35
M 100.45 180.9
Q 100.2 180.65 100 180.45
L 99.9 180.35
Q 98.2 178.75 96.2 178.35 95 178.15 94.2 178.75 93.6 179.55 93.8 180.75 94.15 182.8 95.9 184.55 96.1 184.75 96.4 185 97.85 186.3 99.65 186.6 99.75 186.6 99.8 186.7 100.95 186.8 101.65 186.2 102.25 185.5 102.1 184.4 102.05 184.3 102.05 184.2 101.75 182.45 100.45 180.9 Z"/>

<path fill="url(#Gradient_2)" stroke="none" d="
M 119.85 176.45
L 119.15 175.75 121.7 173.2 122.4 173.9
Q 122.6 174.1 122.8 174.1 123.1 174.05 123.3 173.85
L 124.35 172.8
Q 125.75 171.45 124.35 170.05
L 119.65 165.35 111.25 173.7 115.95 178.4
Q 117.35 179.8 118.75 178.4
L 119.8 177.35
Q 120 177.15 120 176.9 120.05 176.65 119.85 176.45 Z"/>

<path fill="#73CD4B" stroke="none" d="
M 119.4 161.85
Q 119.2 161.6 118.95 161.35 118.05 160.45 116.85 160.3 115.45 160.1 114.7 160.95
L 102 173.7
Q 99.85 172.3 97.45 171.9 97.35 171.9 97.25 171.9 95.8 171.65 94.5 171.75 91.55 172 89.55 174.1 87.45 176.1 87.25 179.05 87.1 180.35 87.35 181.85 87.3 181.85 87.35 181.95 88 185.95 91.25 189.2 91.45 189.4 91.75 189.6 94.85 192.55 98.6 193.15 103.45 193.9 106.3 190.85 109.35 188 108.5 183.2
L 108.55 183.15
Q 108.1 180.55 106.7 178.3
L 111.25 173.7 119.65 165.35 119.6 165.3
Q 120.15 164.55 120.05 163.5
L 120 163.45
Q 119.95 162.6 119.4 161.85
M 100 180.45
Q 100.2 180.65 100.45 180.9 101.75 182.45 102.05 184.2 102.05 184.3 102.1 184.4 102.25 185.5 101.65 186.2 100.95 186.8 99.8 186.7 99.75 186.6 99.65 186.6 97.85 186.3 96.4 185 96.1 184.75 95.9 184.55 94.15 182.8 93.8 180.75 93.6 179.55 94.2 178.75 95 178.15 96.2 178.35 98.2 178.75 99.9 180.35
L 100 180.45 Z"/>
</g>

<g id="Layer0_14_FILL">
<path fill="#B15010" stroke="none" d="
M 187.3 157.35
Q 184.2 156.9 182.6 158.85
L 171.45 170
Q 169.75 169.25 167.95 168.95 167.7 168.9 167.45 168.9 165.8 168.65 164.3 168.75
L 164.25 168.75
Q 160.25 169.1 157.5 171.95 157.4 171.95 157.4 172.05 154.55 174.8 154.25 178.85
L 154.3 178.7
Q 154.1 180.2 154.35 181.85
L 154.35 181.9
Q 154.25 182.25 154.5 182.85 155.3 187.5 159.15 191.35 159.45 191.65 159.9 191.95 163.6 195.4 168.15 196.1
L 168.15 196.15
Q 174.55 197.1 178.35 193.05 178.4 193 178.45 193 178.45 192.95 178.5 192.9 182.4 189.25 181.55 183.3 181.55 182.95 181.5 182.65 181.15 180.65 180.4 178.85
L 181.25 177.95 183.85 180.55
Q 187.3 184 190.8 180.65
L 191.85 179.6
Q 191.85 179.5 191.95 179.5 192.9 178.5 193 177.3 193 177.2 193 177.1
L 193.05 177.1
Q 193.15 177.05 193.3 177.05 194.5 176.85 195.35 176.1
L 196.4 175.05
Q 196.4 175 196.45 174.95 198.2 173.25 198.05 171.45 198.2 169.65 196.5 167.95
L 193.05 164.5
Q 193.1 163.9 193.05 163.25 193 163 192.95 162.8 192.75 161.35 191.85 160.1 191.8 160.05 191.75 160 191.45 159.6 191.1 159.25 189.45 157.6 187.3 157.35
M 189.6 165.3
L 189.65 165.35 194.35 170.05
Q 195.75 171.45 194.35 172.8
L 193.3 173.85
Q 193.1 174.05 192.8 174.1 192.6 174.1 192.4 173.9
L 191.7 173.2 189.15 175.75 189.85 176.45
Q 190.05 176.65 190 176.9 190 177.15 189.8 177.35
L 188.75 178.4
Q 187.35 179.8 185.95 178.4
L 181.25 173.7 176.7 178.3
Q 178.1 180.55 178.55 183.15
L 178.5 183.2
Q 179.35 188 176.3 190.85 173.45 193.9 168.6 193.15 164.85 192.55 161.75 189.6 161.45 189.4 161.25 189.2 158 185.95 157.35 181.95 157.3 181.85 157.35 181.85 157.1 180.35 157.25 179.05 157.45 176.1 159.55 174.1 161.55 172 164.5 171.75 165.8 171.65 167.25 171.9 167.35 171.9 167.45 171.9 169.85 172.3 172 173.7
L 184.7 160.95
Q 185.45 160.1 186.85 160.3 188.05 160.45 188.95 161.35 189.2 161.6 189.4 161.85 189.95 162.6 190 163.45
L 190.05 163.5
Q 190.15 164.55 189.6 165.3
M 166.2 178.35
Q 165 178.15 164.2 178.75 163.6 179.55 163.8 180.75 164.15 182.8 165.9 184.55 166.1 184.75 166.4 185 167.85 186.3 169.65 186.6 169.75 186.6 169.8 186.7 170.95 186.8 171.65 186.2 172.25 185.5 172.1 184.4 172.05 184.3 172.05 184.2 171.75 182.45 170.45 180.9 170.2 180.65 170 180.45
L 169.9 180.35
Q 168.2 178.75 166.2 178.35 Z"/>

<path fill="url(#Gradient_3)" stroke="none" d="
M 194.35 172.8
Q 195.75 171.45 194.35 170.05
L 189.65 165.35 181.25 173.7 185.95 178.4
Q 187.35 179.8 188.75 178.4
L 189.8 177.35
Q 190 177.15 190 176.9 190.05 176.65 189.85 176.45
L 189.15 175.75 191.7 173.2 192.4 173.9
Q 192.6 174.1 192.8 174.1 193.1 174.05 193.3 173.85
L 194.35 172.8 Z"/>

<path fill="#E86A17" stroke="none" d="
M 189.65 165.35
L 189.6 165.3
Q 190.15 164.55 190.05 163.5
L 190 163.45
Q 189.95 162.6 189.4 161.85 189.2 161.6 188.95 161.35 188.05 160.45 186.85 160.3 185.45 160.1 184.7 160.95
L 172 173.7
Q 169.85 172.3 167.45 171.9 167.35 171.9 167.25 171.9 165.8 171.65 164.5 171.75 161.55 172 159.55 174.1 157.45 176.1 157.25 179.05 157.1 180.35 157.35 181.85 157.3 181.85 157.35 181.95 158 185.95 161.25 189.2 161.45 189.4 161.75 189.6 164.85 192.55 168.6 193.15 173.45 193.9 176.3 190.85 179.35 188 178.5 183.2
L 178.55 183.15
Q 178.1 180.55 176.7 178.3
L 181.25 173.7 189.65 165.35
M 164.2 178.75
Q 165 178.15 166.2 178.35 168.2 178.75 169.9 180.35
L 170 180.45
Q 170.2 180.65 170.45 180.9 171.75 182.45 172.05 184.2 172.05 184.3 172.1 184.4 172.25 185.5 171.65 186.2 170.95 186.8 169.8 186.7 169.75 186.6 169.65 186.6 167.85 186.3 166.4 185 166.1 184.75 165.9 184.55 164.15 182.8 163.8 180.75 163.6 179.55 164.2 178.75 Z"/>
</g>

<g id="Layer0_15_FILL">
<path fill="#177DA8" stroke="none" d="
M 227.5 171.95
Q 227.4 171.95 227.4 172.05 224.55 174.8 224.25 178.85
L 224.3 178.7
Q 224.1 180.2 224.35 181.85
L 224.35 181.9
Q 224.25 182.25 224.5 182.85 225.3 187.5 229.15 191.35 229.45 191.65 229.9 191.95 233.6 195.4 238.15 196.1
L 238.15 196.15
Q 244.55 197.1 248.35 193.05 248.4 193 248.45 193 248.45 192.95 248.5 192.9 252.4 189.25 251.55 183.3 251.55 182.95 251.5 182.65 251.15 180.65 250.4 178.85
L 251.25 177.95 253.85 180.55
Q 257.3 184 260.8 180.65
L 261.85 179.6
Q 261.85 179.5 261.95 179.5 262.9 178.5 263 177.3 263 177.2 263 177.1
L 263.05 177.1
Q 263.15 177.05 263.3 177.05 264.5 176.85 265.35 176.1
L 266.4 175.05
Q 266.4 175 266.45 174.95 268.2 173.25 268.05 171.45 268.2 169.65 266.5 167.95
L 263.05 164.5
Q 263.1 163.9 263.05 163.25 263 163 262.95 162.8 262.75 161.35 261.85 160.1 261.8 160.05 261.75 160 261.45 159.6 261.1 159.25 259.45 157.6 257.3 157.35 254.2 156.9 252.6 158.85
L 241.45 170
Q 239.75 169.25 237.95 168.95 237.7 168.9 237.45 168.9 235.8 168.65 234.3 168.75
L 234.25 168.75
Q 230.25 169.1 227.5 171.95
M 237.25 171.9
Q 237.35 171.9 237.45 171.9 239.85 172.3 242 173.7
L 254.7 160.95
Q 255.45 160.1 256.85 160.3 258.05 160.45 258.95 161.35 259.2 161.6 259.4 161.85 259.95 162.6 260 163.45
L 260.05 163.5
Q 260.15 164.55 259.6 165.3
L 259.65 165.35 264.35 170.05
Q 265.75 171.45 264.35 172.8
L 263.3 173.85
Q 263.1 174.05 262.8 174.1 262.6 174.1 262.4 173.9
L 261.7 173.2 259.15 175.75 259.85 176.45
Q 260.05 176.65 260 176.9 260 177.15 259.8 177.35
L 258.75 178.4
Q 257.35 179.8 255.95 178.4
L 251.25 173.7 246.7 178.3
Q 248.1 180.55 248.55 183.15
L 248.5 183.2
Q 249.35 188 246.3 190.85 243.45 193.9 238.6 193.15 234.85 192.55 231.75 189.6 231.45 189.4 231.25 189.2 228 185.95 227.35 181.95 227.3 181.85 227.35 181.85 227.1 180.35 227.25 179.05 227.45 176.1 229.55 174.1 231.55 172 234.5 171.75 235.8 171.65 237.25 171.9
M 236.2 178.35
Q 235 178.15 234.2 178.75 233.6 179.55 233.8 180.75 234.15 182.8 235.9 184.55 236.1 184.75 236.4 185 237.85 186.3 239.65 186.6 239.75 186.6 239.8 186.7 240.95 186.8 241.65 186.2 242.25 185.5 242.1 184.4 242.05 184.3 242.05 184.2 241.75 182.45 240.45 180.9 240.2 180.65 240 180.45
L 239.9 180.35
Q 238.2 178.75 236.2 178.35 Z"/>

<path fill="url(#Gradient_4)" stroke="none" d="
M 264.35 172.8
Q 265.75 171.45 264.35 170.05
L 259.65 165.35 251.25 173.7 255.95 178.4
Q 257.35 179.8 258.75 178.4
L 259.8 177.35
Q 260 177.15 260 176.9 260.05 176.65 259.85 176.45
L 259.15 175.75 261.7 173.2 262.4 173.9
Q 262.6 174.1 262.8 174.1 263.1 174.05 263.3 173.85
L 264.35 172.8 Z"/>

<path fill="#1EA7E1" stroke="none" d="
M 237.45 171.9
Q 237.35 171.9 237.25 171.9 235.8 171.65 234.5 171.75 231.55 172 229.55 174.1 227.45 176.1 227.25 179.05 227.1 180.35 227.35 181.85 227.3 181.85 227.35 181.95 228 185.95 231.25 189.2 231.45 189.4 231.75 189.6 234.85 192.55 238.6 193.15 243.45 193.9 246.3 190.85 249.35 188 248.5 183.2
L 248.55 183.15
Q 248.1 180.55 246.7 178.3
L 251.25 173.7 259.65 165.35 259.6 165.3
Q 260.15 164.55 260.05 163.5
L 260 163.45
Q 259.95 162.6 259.4 161.85 259.2 161.6 258.95 161.35 258.05 160.45 256.85 160.3 255.45 160.1 254.7 160.95
L 242 173.7
Q 239.85 172.3 237.45 171.9
M 234.2 178.75
Q 235 178.15 236.2 178.35 238.2 178.75 239.9 180.35
L 240 180.45
Q 240.2 180.65 240.45 180.9 241.75 182.45 242.05 184.2 242.05 184.3 242.1 184.4 242.25 185.5 241.65 186.2 240.95 186.8 239.8 186.7 239.75 186.6 239.65 186.6 237.85 186.3 236.4 185 236.1 184.75 235.9 184.55 234.15 182.8 233.8 180.75 233.6 179.55 234.2 178.75 Z"/>
</g>

<g id="Layer0_16_FILL">
<path fill="#1EA7E1" stroke="none" d="
M 507.5 171.95
Q 507.4 171.95 507.4 172.05 504.55 174.8 504.25 178.85
L 504.3 178.7
Q 504.1 180.2 504.35 181.85
L 504.35 181.9
Q 504.25 182.25 504.5 182.85 505.3 187.5 509.15 191.35 509.45 191.65 509.9 191.95 513.6 195.4 518.15 196.1
L 518.15 196.15
Q 524.55 197.1 528.35 193.05 528.4 193 528.45 193 528.45 192.95 528.5 192.9 532.4 189.25 531.55 183.3 531.55 182.95 531.5 182.65 531.15 180.65 530.4 178.85
L 531.25 177.95 533.85 180.55
Q 537.3 184 540.8 180.65
L 541.85 179.6
Q 541.85 179.5 541.95 179.5 542.9 178.5 543 177.3 543 177.2 543 177.1
L 543.05 177.1
Q 543.15 177.05 543.3 177.05 544.5 176.85 545.35 176.1
L 546.4 175.05
Q 546.4 175 546.45 174.95 548.2 173.25 548.05 171.45 548.2 169.65 546.5 167.95
L 543.05 164.5
Q 543.1 163.9 543.05 163.25 543 163 542.95 162.8 542.75 161.35 541.85 160.1 541.8 160.05 541.75 160 541.45 159.6 541.1 159.25 539.45 157.6 537.3 157.35 534.2 156.9 532.6 158.85
L 521.45 170
Q 519.75 169.25 517.95 168.95 517.7 168.9 517.45 168.9 515.8 168.65 514.3 168.75
L 514.25 168.75
Q 510.25 169.1 507.5 171.95
M 517.25 171.9
Q 517.35 171.9 517.45 171.9 519.85 172.3 522 173.7
L 534.7 160.95
Q 535.45 160.1 536.85 160.3 538.05 160.45 538.95 161.35 539.2 161.6 539.4 161.85 539.95 162.6 540 163.45
L 540.05 163.5
Q 540.15 164.55 539.6 165.3
L 544.35 170.05
Q 545.75 171.45 544.35 172.8
L 543.3 173.85
Q 543.1 174.05 542.8 174.1 542.6 174.1 542.4 173.9
L 541.7 173.2 539.15 175.75 539.85 176.45
Q 540.05 176.65 540 176.9 540 177.15 539.8 177.35
L 538.75 178.4
Q 537.35 179.8 535.95 178.4
L 531.25 173.7 526.7 178.3
Q 528.1 180.55 528.55 183.15
L 528.5 183.2
Q 529.35 188 526.3 190.85 523.45 193.9 518.6 193.15 514.85 192.55 511.75 189.6 511.45 189.4 511.25 189.2 508 185.95 507.35 181.95 507.3 181.85 507.35 181.85 507.1 180.35 507.25 179.05 507.45 176.1 509.55 174.1 511.55 172 514.5 171.75 515.8 171.65 517.25 171.9
M 522.05 184.2
Q 521.75 182.45 520.45 180.9 520.2 180.65 520 180.45
L 519.9 180.35
Q 518.2 178.75 516.2 178.35 515 178.15 514.2 178.75 513.6 179.55 513.8 180.75 514.15 182.8 515.9 184.55 516.1 184.75 516.4 185 517.85 186.3 519.65 186.6 519.75 186.6 519.8 186.7 520.95 186.8 521.65 186.2 522.25 185.5 522.1 184.4 522.05 184.3 522.05 184.2 Z"/>
</g>

<g id="Layer0_17_FILL">
<path fill="#E86A17" stroke="none" d="
M 444.3 168.75
L 444.25 168.75
Q 440.25 169.1 437.5 171.95 437.4 171.95 437.4 172.05 434.55 174.8 434.25 178.85
L 434.3 178.7
Q 434.1 180.2 434.35 181.85
L 434.35 181.9
Q 434.25 182.25 434.5 182.85 435.3 187.5 439.15 191.35 439.45 191.65 439.9 191.95 443.6 195.4 448.15 196.1
L 448.15 196.15
Q 454.55 197.1 458.35 193.05 458.4 193 458.45 193 458.45 192.95 458.5 192.9 462.4 189.25 461.55 183.3 461.55 182.95 461.5 182.65 461.15 180.65 460.4 178.85
L 461.25 177.95 463.85 180.55
Q 467.3 184 470.8 180.65
L 471.85 179.6
Q 471.85 179.5 471.95 179.5 472.9 178.5 473 177.3 473 177.2 473 177.1
L 473.05 177.1
Q 473.15 177.05 473.3 177.05 474.5 176.85 475.35 176.1
L 476.4 175.05
Q 476.4 175 476.45 174.95 478.2 173.25 478.05 171.45 478.2 169.65 476.5 167.95
L 473.05 164.5
Q 473.1 163.9 473.05 163.25 473 163 472.95 162.8 472.75 161.35 471.85 160.1 471.8 160.05 471.75 160 471.45 159.6 471.1 159.25 469.45 157.6 467.3 157.35 464.2 156.9 462.6 158.85
L 451.45 170
Q 449.75 169.25 447.95 168.95 447.7 168.9 447.45 168.9 445.8 168.65 444.3 168.75
M 437.25 179.05
Q 437.45 176.1 439.55 174.1 441.55 172 444.5 171.75 445.8 171.65 447.25 171.9 447.35 171.9 447.45 171.9 449.85 172.3 452 173.7
L 464.7 160.95
Q 465.45 160.1 466.85 160.3 468.05 160.45 468.95 161.35 469.2 161.6 469.4 161.85 469.95 162.6 470 163.45
L 470.05 163.5
Q 470.15 164.55 469.6 165.3
L 474.35 170.05
Q 475.75 171.45 474.35 172.8
L 473.3 173.85
Q 473.1 174.05 472.8 174.1 472.6 174.1 472.4 173.9
L 471.7 173.2 469.15 175.75 469.85 176.45
Q 470.05 176.65 470 176.9 470 177.15 469.8 177.35
L 468.75 178.4
Q 467.35 179.8 465.95 178.4
L 461.25 173.7 456.7 178.3
Q 458.1 180.55 458.55 183.15
L 458.5 183.2
Q 459.35 188 456.3 190.85 453.45 193.9 448.6 193.15 444.85 192.55 441.75 189.6 441.45 189.4 441.25 189.2 438 185.95 437.35 181.95 437.3 181.85 437.35 181.85 437.1 180.35 437.25 179.05
M 444.2 178.75
Q 443.6 179.55 443.8 180.75 444.15 182.8 445.9 184.55 446.1 184.75 446.4 185 447.85 186.3 449.65 186.6 449.75 186.6 449.8 186.7 450.95 186.8 451.65 186.2 452.25 185.5 452.1 184.4 452.05 184.3 452.05 184.2 451.75 182.45 450.45 180.9 450.2 180.65 450 180.45
L 449.9 180.35
Q 448.2 178.75 446.2 178.35 445 178.15 444.2 178.75 Z"/>
</g>

<g id="Layer0_18_FILL">
<path fill="#73CD4B" stroke="none" d="
M 364.25 178.85
L 364.3 178.7
Q 364.1 180.2 364.35 181.85
L 364.35 181.9
Q 364.25 182.25 364.5 182.85 365.3 187.5 369.15 191.35 369.45 191.65 369.9 191.95 373.6 195.4 378.15 196.1
L 378.15 196.15
Q 384.55 197.1 388.35 193.05 388.4 193 388.45 193 388.45 192.95 388.5 192.9 392.4 189.25 391.55 183.3 391.55 182.95 391.5 182.65 391.15 180.65 390.4 178.85
L 391.25 177.95 393.85 180.55
Q 397.3 184 400.8 180.65
L 401.85 179.6
Q 401.85 179.5 401.95 179.5 402.9 178.5 403 177.3 403 177.2 403 177.1
L 403.05 177.1
Q 403.15 177.05 403.3 177.05 404.5 176.85 405.35 176.1
L 406.4 175.05
Q 406.4 175 406.45 174.95 408.2 173.25 408.05 171.45 408.2 169.65 406.5 167.95
L 403.05 164.5
Q 403.1 163.9 403.05 163.25 403 163 402.95 162.8 402.75 161.35 401.85 160.1 401.8 160.05 401.75 160 401.45 159.6 401.1 159.25 399.45 157.6 397.3 157.35 394.2 156.9 392.6 158.85
L 381.45 170
Q 379.75 169.25 377.95 168.95 377.7 168.9 377.45 168.9 375.8 168.65 374.3 168.75
L 374.25 168.75
Q 370.25 169.1 367.5 171.95 367.4 171.95 367.4 172.05 364.55 174.8 364.25 178.85
M 400 163.45
L 400.05 163.5
Q 400.15 164.55 399.6 165.3
L 404.35 170.05
Q 405.75 171.45 404.35 172.8
L 403.3 173.85
Q 403.1 174.05 402.8 174.1 402.6 174.1 402.4 173.9
L 401.7 173.2 399.15 175.75 399.85 176.45
Q 400.05 176.65 400 176.9 400 177.15 399.8 177.35
L 398.75 178.4
Q 397.35 179.8 395.95 178.4
L 391.25 173.7 386.7 178.3
Q 388.1 180.55 388.55 183.15
L 388.5 183.2
Q 389.35 188 386.3 190.85 383.45 193.9 378.6 193.15 374.85 192.55 371.75 189.6 371.45 189.4 371.25 189.2 368 185.95 367.35 181.95 367.3 181.85 367.35 181.85 367.1 180.35 367.25 179.05 367.45 176.1 369.55 174.1 371.55 172 374.5 171.75 375.8 171.65 377.25 171.9 377.35 171.9 377.45 171.9 379.85 172.3 382 173.7
L 394.7 160.95
Q 395.45 160.1 396.85 160.3 398.05 160.45 398.95 161.35 399.2 161.6 399.4 161.85 399.95 162.6 400 163.45
M 380 180.45
L 379.9 180.35
Q 378.2 178.75 376.2 178.35 375 178.15 374.2 178.75 373.6 179.55 373.8 180.75 374.15 182.8 375.9 184.55 376.1 184.75 376.4 185 377.85 186.3 379.65 186.6 379.75 186.6 379.8 186.7 380.95 186.8 381.65 186.2 382.25 185.5 382.1 184.4 382.05 184.3 382.05 184.2 381.75 182.45 380.45 180.9 380.2 180.65 380 180.45 Z"/>
</g>

<g id="Layer0_19_FILL">
<path fill="#FFCC00" stroke="none" d="
M 331.75 160
Q 331.45 159.6 331.1 159.25 329.45 157.6 327.3 157.35 324.2 156.9 322.6 158.85
L 311.45 170
Q 309.75 169.25 307.95 168.95 307.7 168.9 307.45 168.9 305.8 168.65 304.3 168.75
L 304.25 168.75
Q 300.25 169.1 297.5 171.95 297.4 171.95 297.4 172.05 294.55 174.8 294.25 178.85
L 294.3 178.7
Q 294.1 180.2 294.35 181.85
L 294.35 181.9
Q 294.25 182.25 294.5 182.85 295.3 187.5 299.15 191.35 299.45 191.65 299.9 191.95 303.6 195.4 308.15 196.1
L 308.15 196.15
Q 314.55 197.1 318.35 193.05 318.4 193 318.45 193 318.45 192.95 318.5 192.9 322.4 189.25 321.55 183.3 321.55 182.95 321.5 182.65 321.15 180.65 320.4 178.85
L 321.25 177.95 323.85 180.55
Q 327.3 184 330.8 180.65
L 331.85 179.6
Q 331.85 179.5 331.95 179.5 332.9 178.5 333 177.3 333 177.2 333 177.1
L 333.05 177.1
Q 333.15 177.05 333.3 177.05 334.5 176.85 335.35 176.1
L 336.4 175.05
Q 336.4 175 336.45 174.95 338.2 173.25 338.05 171.45 338.2 169.65 336.5 167.95
L 333.05 164.5
Q 333.1 163.9 333.05 163.25 333 163 332.95 162.8 332.75 161.35 331.85 160.1 331.8 160.05 331.75 160
M 328.95 161.35
Q 329.2 161.6 329.4 161.85 329.95 162.6 330 163.45
L 330.05 163.5
Q 330.15 164.55 329.6 165.3
L 334.35 170.05
Q 335.75 171.45 334.35 172.8
L 333.3 173.85
Q 333.1 174.05 332.8 174.1 332.6 174.1 332.4 173.9
L 331.7 173.2 329.15 175.75 329.85 176.45
Q 330.05 176.65 330 176.9 330 177.15 329.8 177.35
L 328.75 178.4
Q 327.35 179.8 325.95 178.4
L 321.25 173.7 316.7 178.3
Q 318.1 180.55 318.55 183.15
L 318.5 183.2
Q 319.35 188 316.3 190.85 313.45 193.9 308.6 193.15 304.85 192.55 301.75 189.6 301.45 189.4 301.25 189.2 298 185.95 297.35 181.95 297.3 181.85 297.35 181.85 297.1 180.35 297.25 179.05 297.45 176.1 299.55 174.1 301.55 172 304.5 171.75 305.8 171.65 307.25 171.9 307.35 171.9 307.45 171.9 309.85 172.3 312 173.7
L 324.7 160.95
Q 325.45 160.1 326.85 160.3 328.05 160.45 328.95 161.35
M 306.2 178.35
Q 305 178.15 304.2 178.75 303.6 179.55 303.8 180.75 304.15 182.8 305.9 184.55 306.1 184.75 306.4 185 307.85 186.3 309.65 186.6 309.75 186.6 309.8 186.7 310.95 186.8 311.65 186.2 312.25 185.5 312.1 184.4 312.05 184.3 312.05 184.2 311.75 182.45 310.45 180.9 310.2 180.65 310 180.45
L 309.9 180.35
Q 308.2 178.75 306.2 178.35 Z"/>
</g>

<g id="Layer0_20_FILL">
<path fill="#5BA18B" stroke="none" d="
M 332.15 89.85
Q 332 89.7 331.9 89.6 325.05 83 315.5 83 305.75 83 298.9 89.85 298.7 90.05 298.6 90.25 292 96.95 292 106.45 292 115.8 298.25 122.45 298.55 122.8 298.9 123.15 305.75 130 315.5 130 325.2 130 332.15 123.15
L 332.05 123.2
Q 332.1 123.15 332.15 123.1 332.3 123 332.4 122.85
L 332.35 122.95 332.4 122.9
Q 332.55 122.75 332.7 122.6 332.7 122.55 332.75 122.55 339 115.85 339 106.45 339 96.7 332.15 89.85
M 330 92
L 330.05 92
Q 336 97.95 336 106.45 336 114.65 330.55 120.5 330.4 120.65 330.25 120.8 330.1 120.9 330 121.05 324 127 315.5 127 307 127 301.05 121.05 300.7 120.7 300.45 120.4 295 114.6 295 106.45 295 97.95 301.05 92 307 86 315.5 86 324 86 330 92 Z"/>

<path fill="#8AE0C5" stroke="none" d="
M 330.05 92
L 330 92
Q 324 86 315.5 86 307 86 301.05 92 295 97.95 295 106.45 295 114.6 300.45 120.4 300.7 120.7 301.05 121.05 307 127 315.5 127 324 127 330 121.05 330.1 120.9 330.25 120.8 330.4 120.65 330.55 120.5 336 114.65 336 106.45 336 97.95 330.05 92
M 328.35 118.45
Q 328.1 118.65 327.9 118.9 322.75 124 315.5 124 308.25 124 303.15 118.9 302.9 118.65 302.7 118.4 298 113.45 298 106.45 298 99.2 303.15 94.1 308.25 89 315.5 89 322.75 89 327.9 94.1 333 99.2 333 106.45 333 113.45 328.35 118.45 Z"/>

<path fill="#6FC4A9" stroke="none" d="
M 327.9 118.9
Q 328.1 118.65 328.35 118.45 333 113.45 333 106.45 333 99.2 327.9 94.1 322.75 89 315.5 89 308.25 89 303.15 94.1 298 99.2 298 106.45 298 113.45 302.7 118.4 302.9 118.65 303.15 118.9 308.25 124 315.5 124 322.75 124 327.9 118.9
M 325.75 102.15
Q 326.95 103.35 326.95 104.95 326.95 106.55 325.75 107.65 324.6 108.85 323.05 108.85 321.35 108.85 320.15 107.65 319.05 106.55 319.05 104.95 319.05 103.35 320.15 102.15 321.35 101 323.05 101 324.6 101 325.75 102.15
M 320 111.1
Q 320.1 110.8 320.4 110.65 320.75 110.5 321.05 110.65 321.3 110.75 321.5 111.05 321.65 111.4 321.5 111.7 321.05 112.8 319.95 113.65 318.3 115 315.95 115 313.55 115 311.9 113.65 310.7 112.8 310.4 111.65 310.3 111.3 310.5 111.05 310.6 110.7 310.9 110.65 311.25 110.55 311.6 110.7 311.85 110.85 311.95 111.15 312.2 111.85 312.9 112.45 314.15 113.4 315.95 113.4 317.7 113.4 319 112.45 319.7 111.85 320 111.1
M 308.95 101
Q 310.55 101 311.7 102.15 312.9 103.35 312.9 104.95 312.9 106.55 311.7 107.65 310.55 108.85 308.95 108.85 307.3 108.85 306.1 107.65 305 106.55 305 104.95 305 103.35 306.1 102.15 307.3 101 308.95 101 Z"/>

<path fill="#347E67" stroke="none" d="
M 311.7 102.15
Q 310.55 101 308.95 101 307.3 101 306.1 102.15 305 103.35 305 104.95 305 106.55 306.1 107.65 307.3 108.85 308.95 108.85 310.55 108.85 311.7 107.65 312.9 106.55 312.9 104.95 312.9 103.35 311.7 102.15
M 320.4 110.65
Q 320.1 110.8 320 111.1 319.7 111.85 319 112.45 317.7 113.4 315.95 113.4 314.15 113.4 312.9 112.45 312.2 111.85 311.95 111.15 311.85 110.85 311.6 110.7 311.25 110.55 310.9 110.65 310.6 110.7 310.5 111.05 310.3 111.3 310.4 111.65 310.7 112.8 311.9 113.65 313.55 115 315.95 115 318.3 115 319.95 113.65 321.05 112.8 321.5 111.7 321.65 111.4 321.5 111.05 321.3 110.75 321.05 110.65 320.75 110.5 320.4 110.65
M 326.95 104.95
Q 326.95 103.35 325.75 102.15 324.6 101 323.05 101 321.35 101 320.15 102.15 319.05 103.35 319.05 104.95 319.05 106.55 320.15 107.65 321.35 108.85 323.05 108.85 324.6 108.85 325.75 107.65 326.95 106.55 326.95 104.95 Z"/>
</g>

<g id="Layer0_21_FILL">
<path fill="#C68096" stroke="none" d="
M 438.9 89.85
Q 438.7 90.05 438.6 90.25 432 96.95 432 106.45 432 115.8 438.25 122.45 438.55 122.8 438.9 123.15 445.75 130 455.5 130 465.2 130 472.15 123.15
L 472.05 123.2
Q 472.1 123.15 472.15 123.1 472.3 123 472.4 122.85
L 472.35 122.95 472.4 122.9
Q 472.55 122.75 472.7 122.6 472.7 122.55 472.75 122.55 479 115.85 479 106.45 479 96.7 472.15 89.85 472 89.7 471.9 89.6 465.05 83 455.5 83 445.75 83 438.9 89.85
M 455.5 86
Q 464 86 470 92
L 470.05 92
Q 476 97.95 476 106.45 476 114.65 470.55 120.5 470.4 120.65 470.25 120.8 470.1 120.9 470 121.05 464 127 455.5 127 447 127 441.05 121.05 440.7 120.7 440.45 120.4 435 114.6 435 106.45 435 97.95 441.05 92 447 86 455.5 86 Z"/>

<path fill="#FFB7D2" stroke="none" d="
M 470 92
Q 464 86 455.5 86 447 86 441.05 92 435 97.95 435 106.45 435 114.6 440.45 120.4 440.7 120.7 441.05 121.05 447 127 455.5 127 464 127 470 121.05 470.1 120.9 470.25 120.8 470.4 120.65 470.55 120.5 476 114.65 476 106.45 476 97.95 470.05 92
L 470 92
M 455.5 89
Q 462.75 89 467.9 94.1 473 99.2 473 106.45 473 113.45 468.35 118.45 468.1 118.65 467.9 118.9 462.75 124 455.5 124 448.25 124 443.15 118.9 442.9 118.65 442.7 118.4 438 113.45 438 106.45 438 99.2 443.15 94.1 448.25 89 455.5 89 Z"/>

<path fill="#F19CB7" stroke="none" d="
M 467.9 94.1
Q 462.75 89 455.5 89 448.25 89 443.15 94.1 438 99.2 438 106.45 438 113.45 442.7 118.4 442.9 118.65 443.15 118.9 448.25 124 455.5 124 462.75 124 467.9 118.9 468.1 118.65 468.35 118.45 473 113.45 473 106.45 473 99.2 467.9 94.1
M 451.75 98.8
Q 453.55 97.05 456.1 97.05 458.4 97.05 460.15 98.8 461.95 100.6 461.95 103 461.95 103.5 461.9 104 461.55 105.75 460.15 107.05 458.4 108.85 456.1 108.85 453.55 108.85 451.75 107.05 450.45 105.75 450.2 104 450.1 103.5 450.1 103 450.1 100.6 451.75 98.8
M 451.9 115.65
Q 450.7 114.8 450.4 113.65 450.3 113.3 450.5 113.05 450.6 112.7 450.9 112.65 451.25 112.55 451.6 112.7 451.85 112.85 451.95 113.15 452.15 113.65 452.55 114.1 452.7 114.3 452.9 114.45 454.15 115.4 455.95 115.4 457.7 115.4 459 114.45 459.25 114.25 459.45 114.05 459.8 113.6 460 113.1 460.1 112.8 460.4 112.65 460.7 112.5 461 112.65
L 461.05 112.65
Q 461.3 112.75 461.5 113.05 461.65 113.4 461.5 113.7 461.05 114.8 459.95 115.65 458.3 117 455.95 117 453.55 117 451.9 115.65 Z"/>

<path fill="#A55B72" stroke="none" d="
M 450.4 113.65
Q 450.7 114.8 451.9 115.65 453.55 117 455.95 117 458.3 117 459.95 115.65 461.05 114.8 461.5 113.7 461.65 113.4 461.5 113.05 461.3 112.75 461.05 112.65
L 461 112.65
Q 460.7 112.5 460.4 112.65 460.1 112.8 460 113.1 459.8 113.6 459.45 114.05 459.25 114.25 459 114.45 457.7 115.4 455.95 115.4 454.15 115.4 452.9 114.45 452.7 114.3 452.55 114.1 452.15 113.65 451.95 113.15 451.85 112.85 451.6 112.7 451.25 112.55 450.9 112.65 450.6 112.7 450.5 113.05 450.3 113.3 450.4 113.65
M 458.75 100.15
Q 457.6 99 456.05 99 454.35 99 453.15 100.15 452.05 101.35 452.05 102.95 452.05 104.55 453.15 105.65 454.35 106.85 456.05 106.85 457.6 106.85 458.75 105.65 459.95 104.55 459.95 102.95 459.95 101.35 458.75 100.15 Z"/>

<path fill="#FFFFFF" stroke="none" d="
M 456.1 97.05
Q 453.55 97.05 451.75 98.8 450.1 100.6 450.1 103 450.1 103.5 450.2 104 450.45 105.75 451.75 107.05 453.55 108.85 456.1 108.85 458.4 108.85 460.15 107.05 461.55 105.75 461.9 104 461.95 103.5 461.95 103 461.95 100.6 460.15 98.8 458.4 97.05 456.1 97.05
M 456.05 99
Q 457.6 99 458.75 100.15 459.95 101.35 459.95 102.95 459.95 104.55 458.75 105.65 457.6 106.85 456.05 106.85 454.35 106.85 453.15 105.65 452.05 104.55 452.05 102.95 452.05 101.35 453.15 100.15 454.35 99 456.05 99 Z"/>
</g>

<g id="Layer0_22_FILL">
<path fill="#7494BE" stroke="none" d="
M 368.9 89.85
Q 368.7 90.05 368.6 90.25 362 96.95 362 106.45 362 115.8 368.25 122.45 368.55 122.8 368.9 123.15 375.75 130 385.5 130 395.2 130 402.15 123.15
L 402.05 123.2
Q 402.1 123.15 402.15 123.1 402.3 123 402.4 122.85
L 402.35 122.95 402.4 122.9
Q 402.55 122.75 402.7 122.6 402.7 122.55 402.75 122.55 409 115.85 409 106.45 409 96.7 402.15 89.85 402 89.7 401.9 89.6 395.05 83 385.5 83 375.75 83 368.9 89.85
M 385.5 86
Q 394 86 400 92
L 400.05 92
Q 406 97.95 406 106.45 406 114.65 400.55 120.5 400.4 120.65 400.25 120.8 400.1 120.9 400 121.05 394 127 385.5 127 377 127 371.05 121.05 370.7 120.7 370.45 120.4 365 114.6 365 106.45 365 97.95 371.05 92 377 86 385.5 86 Z"/>

<path fill="#A9D0FF" stroke="none" d="
M 400 92
Q 394 86 385.5 86 377 86 371.05 92 365 97.95 365 106.45 365 114.6 370.45 120.4 370.7 120.7 371.05 121.05 377 127 385.5 127 394 127 400 121.05 400.1 120.9 400.25 120.8 400.4 120.65 400.55 120.5 406 114.65 406 106.45 406 97.95 400.05 92
L 400 92
M 385.5 89
Q 392.75 89 397.9 94.1 403 99.2 403 106.45 403 113.45 398.35 118.45 398.1 118.65 397.9 118.9 392.75 124 385.5 124 378.25 124 373.15 118.9 372.9 118.65 372.7 118.4 368 113.45 368 106.45 368 99.2 373.15 94.1 378.25 89 385.5 89 Z"/>

<path fill="#8DB5E7" stroke="none" d="
M 397.9 94.1
Q 392.75 89 385.5 89 378.25 89 373.15 94.1 368 99.2 368 106.45 368 113.45 372.7 118.4 372.9 118.65 373.15 118.9 378.25 124 385.5 124 392.75 124 397.9 118.9 398.1 118.65 398.35 118.45 403 113.45 403 106.45 403 99.2 397.9 94.1
M 393.05 102.55
Q 393.95 102.55 394.65 103.25 395.35 103.95 395.35 104.9 395.35 105.9 394.65 106.55 393.95 107.25 393.05 107.25 392 107.25 391.3 106.55 390.65 105.9 390.65 104.9 390.65 103.95 391.3 103.25 392 102.55 393.05 102.55
M 388.35 100.9
Q 388.35 101.9 387.65 102.55 386.95 103.25 386.05 103.25 385 103.25 384.3 102.55 383.65 101.9 383.65 100.9 383.65 99.95 384.3 99.25 385 98.55 386.05 98.55 386.95 98.55 387.65 99.25 388.35 99.95 388.35 100.9
M 389.55 114.75
Q 389.25 115.05 388.85 115.05
L 383 115.05
Q 382.6 115.05 382.3 114.75 382 114.45 382 114.05 382 113.65 382.3 113.35 382.6 113.05 383 113.05
L 388.85 113.05
Q 389.25 113.05 389.55 113.35 389.85 113.65 389.85 114.05 389.85 114.45 389.55 114.75
M 380.6 103.25
Q 381.35 103.95 381.35 104.9 381.35 105.9 380.6 106.55 379.95 107.25 378.95 107.25 378 107.25 377.25 106.55 376.6 105.9 376.6 104.9 376.6 103.95 377.25 103.25 378 102.55 378.95 102.55 379.95 102.55 380.6 103.25 Z"/>

<path fill="#4F719D" stroke="none" d="
M 381.35 104.9
Q 381.35 103.95 380.6 103.25 379.95 102.55 378.95 102.55 378 102.55 377.25 103.25 376.6 103.95 376.6 104.9 376.6 105.9 377.25 106.55 378 107.25 378.95 107.25 379.95 107.25 380.6 106.55 381.35 105.9 381.35 104.9
M 388.85 115.05
Q 389.25 115.05 389.55 114.75 389.85 114.45 389.85 114.05 389.85 113.65 389.55 113.35 389.25 113.05 388.85 113.05
L 383 113.05
Q 382.6 113.05 382.3 113.35 382 113.65 382 114.05 382 114.45 382.3 114.75 382.6 115.05 383 115.05
L 388.85 115.05
M 387.65 102.55
Q 388.35 101.9 388.35 100.9 388.35 99.95 387.65 99.25 386.95 98.55 386.05 98.55 385 98.55 384.3 99.25 383.65 99.95 383.65 100.9 383.65 101.9 384.3 102.55 385 103.25 386.05 103.25 386.95 103.25 387.65 102.55
M 394.65 103.25
Q 393.95 102.55 393.05 102.55 392 102.55 391.3 103.25 390.65 103.95 390.65 104.9 390.65 105.9 391.3 106.55 392 107.25 393.05 107.25 393.95 107.25 394.65 106.55 395.35 105.9 395.35 104.9 395.35 103.95 394.65 103.25 Z"/>
</g>

<g id="Layer0_23_FILL">
<path fill="#999999" stroke="none" d="
M 43.35 239.75
L 43.4 239.75
Q 41.8 238.15 40.2 238.3 38.5 238.05 36.95 239.7 36.9 239.7 36.9 239.75
L 34.2 242.45 31.5 239.7
Q 28.25 236.45 25.05 239.7
L 21.65 243.1
Q 18.4 246.3 21.65 249.55
L 21.65 249.5 24.35 252.25 21.65 254.95
Q 20 256.55 20.25 258.25 20.1 259.85 21.7 261.4
L 25.1 264.8
Q 26.6 266.35 28.3 266.2 29.9 266.35 31.5 264.8
L 34.2 262.1 36.95 264.8
Q 38.45 266.35 40.05 266.25 41.7 266.45 43.35 264.9 43.35 264.85 43.4 264.8
L 46.8 261.35 46.8 261.4
Q 49.9 258.35 46.9 255.05 46.8 254.95 46.75 254.9
L 44.05 252.25 46.75 249.55
Q 46.8 249.5 46.85 249.5 49.85 246.3 46.85 243.15 46.8 243.1 46.75 243.1
L 43.35 239.75
M 44.65 245.2
Q 45.7 246.3 44.65 247.4
L 39.75 252.25 44.65 257.05
Q 45.7 258.2 44.65 259.25
L 41.25 262.7
Q 40.1 263.8 39.05 262.65
L 34.15 257.85 29.35 262.65
Q 28.25 263.75 27.2 262.65
L 23.8 259.25
Q 22.65 258.15 23.75 257.05
L 28.55 252.25 23.75 247.4
Q 22.65 246.3 23.75 245.2
L 27.15 241.8
Q 28.25 240.7 29.35 241.8
L 34.15 246.65 39.05 241.8
Q 40.1 240.7 41.25 241.85
L 44.65 245.2 Z"/>

<path fill="#FFFFFF" stroke="none" d="
M 44.65 247.4
Q 45.7 246.3 44.65 245.2
L 41.25 241.85
Q 40.1 240.7 39.05 241.8
L 34.15 246.65 29.35 241.8
Q 28.25 240.7 27.15 241.8
L 23.75 245.2
Q 22.65 246.3 23.75 247.4
L 28.55 252.25 23.75 257.05
Q 22.65 258.15 23.8 259.25
L 27.2 262.65
Q 28.25 263.75 29.35 262.65
L 34.15 257.85 39.05 262.65
Q 40.1 263.8 41.25 262.7
L 44.65 259.25
Q 45.7 258.2 44.65 257.05
L 39.75 252.25 44.65 247.4 Z"/>
</g>

<g id="Layer0_24_FILL">
<path fill="#999999" stroke="none" d="
M 95.25 235.65
Q 95.15 235.7 95.1 235.8 93.45 237.9 93.05 238.85 92 240.7 91 244.15 90.95 244.2 90.95 244.25 89.75 248.65 90.1 252.9 90.45 257 92.25 260.45 92.25 260.5 92.3 260.6 95.25 265.85 100.4 266.85 100.55 266.85 100.75 266.9 109 267.65 113.65 263.05 118.15 258.85 119.15 249.6 119.15 249.5 119.15 249.45 119.25 246.45 118.6 243.45 118.55 243.4 118.55 243.35 117.3 238.45 114.6 234.8 114.5 234.65 114.4 234.55 109.85 229.5 104.85 230.05 100.15 230.2 95.25 235.65
M 93.85 245
Q 94.8 241.8 95.75 240.15 96 239.5 97.45 237.65 105.35 229 112.15 236.55 114.55 239.8 115.65 244.1 116.25 246.7 116.15 249.3 114.5 265.2 101 263.9 97.15 263.1 94.9 259.1 93.4 256.15 93.1 252.65 92.8 248.9 93.85 245
M 108.65 247.05
Q 107.45 242.45 105.1 242.55 102.1 242.95 100.75 247.85 100.1 250.3 100.45 252.5 101.25 256.65 104 256.75 106.45 257 107.9 254.2 109.5 250.65 108.65 247.05
M 105.2 253
L 105.25 252.85
Q 104.8 253.6 104.3 253.8 104.2 253.75 104.1 253.75 103.7 253.4 103.45 252.05 103.2 250.4 103.65 248.65 104.3 246.35 105.25 245.7 105.3 246.2 105.75 247.8
L 105.75 247.75
Q 106.35 250.4 105.2 253 Z"/>

<path fill="#FFFFFF" stroke="none" d="
M 95.75 240.15
Q 94.8 241.8 93.85 245 92.8 248.9 93.1 252.65 93.4 256.15 94.9 259.1 97.15 263.1 101 263.9 114.5 265.2 116.15 249.3 116.25 246.7 115.65 244.1 114.55 239.8 112.15 236.55 105.35 229 97.45 237.65 96 239.5 95.75 240.15
M 105.1 242.55
Q 107.45 242.45 108.65 247.05 109.5 250.65 107.9 254.2 106.45 257 104 256.75 101.25 256.65 100.45 252.5 100.1 250.3 100.75 247.85 102.1 242.95 105.1 242.55 Z"/>
</g>

<g id="Layer0_25_FILL">
<path fill="#999999" stroke="none" d="
M 159.8 243.6
Q 159.65 244.55 160.15 245.4 160.65 246.25 161.55 246.65 164.9 248.15 168.85 248.6 168.25 254.7 166.95 261.9 166.75 262.95 167.3 263.95 167.85 264.9 168.85 265.3 173.45 267.1 181.85 265.5 182.95 265.3 183.65 264.45 184.3 263.55 184.3 262.5 183.95 247.8 185 233.4 185.1 232.15 184.3 231.2 183.5 230.25 182.3 230.15 176.95 229.7 171.75 229.9 171.05 229.95 170.5 230.25 169.85 230.55 169.45 231.1 165.2 236.75 160.55 241.9 159.85 242.6 159.8 243.6
M 172.15 244.3
Q 171.4 245.05 170.85 245.75 166.4 245.5 162.75 243.9 167.5 238.65 171.85 232.9 176.9 232.7 182 233.15 180.95 247.7 181.3 262.55 173.95 263.95 169.9 262.45 171.75 252.3 172.15 244.3 Z"/>

<path fill="#FFFFFF" stroke="none" d="
M 170.85 245.75
Q 171.4 245.05 172.15 244.3 171.75 252.3 169.9 262.45 173.95 263.95 181.3 262.55 180.95 247.7 182 233.15 176.9 232.7 171.85 232.9 167.5 238.65 162.75 243.9 166.4 245.5 170.85 245.75 Z"/>
</g>

<g id="Layer0_26_FILL">
<path fill="#999999" stroke="none" d="
M 252.8 231.5
Q 248.75 229.85 245.5 230.25
L 245.65 230.2
Q 235.4 230.5 231.2 238.85 231.1 238.95 231.1 239.1 229.15 243.75 230.6 246.75 230.9 247.5 231.55 248 232.2 248.5 233 248.6 236.4 249 238.5 249.25 236.15 251 232.65 253.2 232 253.6 231.65 254.3 231.25 254.95 231.25 255.7 231.15 260.25 232.85 265 233.2 265.95 234.05 266.55 234.9 267.05 235.95 267 251.35 265.55 255.7 266.55 256.85 266.85 257.95 266.25 259 265.6 259.3 264.4 260.35 260.4 260.4 254.75 260.4 253.55 259.6 252.65 258.75 251.75 257.55 251.7 256.55 251.65 255.55 251.65 259.6 246.7 259.35 242.25
L 259.35 242.2
Q 259.4 235.7 253.3 231.75 253.05 231.6 252.8 231.5
M 245.75 233.2
Q 248.4 232.95 251.65 234.25 256.35 237.3 256.35 242.25 256.45 247.85 248.1 254.65 252.5 254.45 257.4 254.7 257.35 259.95 256.4 263.65 251.85 262.5 235.65 264 234.15 259.8 234.25 255.75 244.4 249.4 245.85 245.7 246.35 244.7 246.35 243.9
L 246.3 243.8
Q 246.25 241.3 243.6 241.65 240.95 242.5 241.65 246.55 240 246.4 233.35 245.6 232.5 243.5 233.85 240.2 237.35 233.45 245.75 233.2 Z"/>

<path fill="#FFFFFF" stroke="none" d="
M 251.65 234.25
Q 248.4 232.95 245.75 233.2 237.35 233.45 233.85 240.2 232.5 243.5 233.35 245.6 240 246.4 241.65 246.55 240.95 242.5 243.6 241.65 246.25 241.3 246.3 243.8
L 246.35 243.9
Q 246.35 244.7 245.85 245.7 244.4 249.4 234.25 255.75 234.15 259.8 235.65 264 251.85 262.5 256.4 263.65 257.35 259.95 257.4 254.7 252.5 254.45 248.1 254.65 256.45 247.85 256.35 242.25 256.35 237.3 251.65 234.25 Z"/>
</g>

<g id="Layer0_27_FILL">
<path fill="#999999" stroke="none" d="
M 327 241.85
Q 327 241.75 327.05 241.65 328.35 231.95 317.9 230 317.75 229.95 317.6 229.95 308.15 229.2 302.95 233.15 302.3 233.6 302 234.3 301.65 235 301.7 235.75 301.95 240.15 305.2 244.35 305.65 244.95 306.45 245.3 306.55 245.35 306.7 245.4 306.25 247.85 306.65 251.1 306.65 251.3 306.7 251.5 305.75 251.4 304.9 251.95 300.8 254.25 300.05 259.65 299.9 260.55 300.35 261.4 302 265.65 311.05 267.3 311.2 267.3 311.3 267.35 318.25 268 322.75 264.25 328.75 259.8 326.6 250.6 326.55 250.45 326.5 250.3 325.8 248.4 324.75 246.8 326.5 244.45 327 241.85
M 312.85 240.65
Q 310.45 240.15 307.55 242.5 304.95 239.1 304.7 235.55 309.2 232.3 317.35 232.95 324.9 234.35 324.05 241.25 323.45 244.2 320.8 246.65 322.7 248.65 323.65 251.3 325.35 258.45 320.85 261.9 317.2 264.9 311.6 264.35 304.5 263.05 303 260.05 303.55 256.2 306.4 254.5 307.8 256 309.25 256.7 315.45 258.95 315.65 254.05 315.05 250.8 309.6 250.75 309.25 247.65 309.75 245.35 311.7 245.4 313.4 243.95 314.85 242 312.85 240.65
M 312.8 254.4
Q 312.75 254.4 312.7 254.4
L 312.7 254.2
Q 312.703125 254.303125 312.8 254.4 Z"/>

<path fill="#FFFFFF" stroke="none" d="
M 307.55 242.5
Q 310.45 240.15 312.85 240.65 314.85 242 313.4 243.95 311.7 245.4 309.75 245.35 309.25 247.65 309.6 250.75 315.05 250.8 315.65 254.05 315.45 258.95 309.25 256.7 307.8 256 306.4 254.5 303.55 256.2 303 260.05 304.5 263.05 311.6 264.35 317.2 264.9 320.85 261.9 325.35 258.45 323.65 251.3 322.7 248.65 320.8 246.65 323.45 244.2 324.05 241.25 324.9 234.35 317.35 232.95 309.2 232.3 304.7 235.55 304.95 239.1 307.55 242.5 Z"/>
</g>

<g id="Layer0_28_FILL">
<path fill="#999999" stroke="none" d="
M 383.45 229.4
Q 382.5 229.8 382 230.7 377.2 239.2 371.2 244.75 370.4 245.5 370.25 246.55 369.5 251.95 370.8 256.45 371.05 257.35 371.8 257.95 372.55 258.55 373.55 258.6 375.3 258.65 377.75 258.7 377.65 260.5 377.65 263.15 377.65 264.15 378.3 265 378.9 265.8 379.9 266.05 383.75 267.15 390.35 265.8 391.45 265.55 392.15 264.6 392.85 263.6 392.7 262.45 392.4 260.5 392.35 258.55 392.95 258.6 393.65 258.7 394.85 258.85 395.85 258.1 396.8 257.35 397 256.2 397.75 251.7 397.85 247.05 397.9 246.1 397.4 245.35 396.9 244.6 396.1 244.25 395.3 243.85 394.4 244 393.5 244.1 392.15 244.2 393.9 242.15 395.95 239.55 396.6 238.65 396.55 237.6 396.5 236.55 395.8 235.75 391.5 230.8 385.35 229.25 384.35 229 383.45 229.4
M 373.2 246.95
Q 379.55 241.1 384.6 232.15 389.85 233.5 393.55 237.7 388.45 244.3 384.95 247.4 391.95 247.4 394.85 246.95 394.75 251.4 394.05 255.7 391.1 255.3 389.35 255.55 389.2 259.2 389.7 262.85 384 264.05 380.65 263.15 380.7 257.3 381 255.7 376.45 255.7 373.65 255.6 372.55 251.7 373.2 246.95 Z"/>

<path fill="#FFFFFF" stroke="none" d="
M 384.6 232.15
Q 379.55 241.1 373.2 246.95 372.55 251.7 373.65 255.6 376.45 255.7 381 255.7 380.7 257.3 380.65 263.15 384 264.05 389.7 262.85 389.2 259.2 389.35 255.55 391.1 255.3 394.05 255.7 394.75 251.4 394.85 246.95 391.95 247.4 384.95 247.4 388.45 244.3 393.55 237.7 389.85 233.5 384.6 232.15 Z"/>
</g>

<g id="Layer0_29_FILL">
<path fill="#999999" stroke="none" d="
M 465.5 244.05
Q 464.8 243.2 464 242.45 464.1 242.45 464.15 242.45 464.95 242.5 465.7 242.1 466.4 241.7 466.85 241.05 467.3 240.3 467.3 239.5 467.35 235.3 467.05 231.55 466.95 230.35 466 229.55 465.05 228.7 463.85 228.8 455.9 229.4 444.1 229.1 442.85 229.05 442 229.9 441.1 230.7 441 231.9 440.6 238 440.75 247.9 440.75 248.7 441.2 249.45 441.65 250.15 442.4 250.55 442.75 250.7 443.15 250.8 443.1 250.9 443.05 251 440.65 255.25 440.05 258.75 439.9 259.45 440.15 260.2 440.4 260.95 440.95 261.45 444.2 264.55 450.65 266
L 450.7 266
Q 455.3 267 460.7 264.3 460.85 264.2 460.95 264.15 465.95 261.1 467.9 253.6 467.95 253.35 468 253.15 468.5 247.65 465.5 244.05
M 454.7 240.95
Q 459.9 241.95 463.15 245.95 465.4 248.7 465 252.85 463.4 259.05 459.35 261.6 455 263.8 451.3 263.05 445.8 261.85 443 259.25 443.55 256.2 445.65 252.45 455.1 255.75 456 252.45 456.3 247.9 448.45 247.55 446.05 247.7 443.75 247.85 443.6 238.1 444 232.1 456 232.4 464.05 231.8 464.35 235.4 464.3 239.45 458.25 239.15 451.1 239.3
L 451.05 240.75
Q 452.5 240.55 454.7 240.95 Z"/>

<path fill="#FFFFFF" stroke="none" d="
M 463.15 245.95
Q 459.9 241.95 454.7 240.95 452.5 240.55 451.05 240.75
L 451.1 239.3
Q 458.25 239.15 464.3 239.45 464.35 235.4 464.05 231.8 456 232.4 444 232.1 443.6 238.1 443.75 247.85 446.05 247.7 448.45 247.55 456.3 247.9 456 252.45 455.1 255.75 445.65 252.45 443.55 256.2 443 259.25 445.8 261.85 451.3 263.05 455 263.8 459.35 261.6 463.4 259.05 465 252.85 465.4 248.7 463.15 245.95 Z"/>
</g>

<g id="Layer0_30_FILL">
<path fill="#999999" stroke="none" d="
M 537.6 232.35
Q 537.2 231.75 536.6 231.4 525.2 225 517.1 231.55 517.05 231.55 517.05 231.6 515.15 233 512.65 237.1 512.6 237.15 512.55 237.3 508.05 245.8 511.5 256.3 511.55 256.4 511.6 256.5 513.15 260.5 517.4 263.65 517.6 263.8 517.85 263.95 527.25 268.8 535 263.45 535.1 263.35 535.2 263.3 540.9 258.85 538.6 250.55 538.55 250.5 538.55 250.4 537.35 246.75 534.8 244.8 534.85 244.8 534.95 244.8 535.75 244.65 536.4 244.1 537.05 243.55 537.3 242.75 538.7 238.35 538.1 233.6 538 232.9 537.6 232.35
M 535.1 234
Q 535.65 238.05 534.45 241.8 528.65 239.4 525.3 241 522.8 242.8 523.15 246.7 525.5 245.55 528.55 245.6 533.95 246.1 535.7 251.35 537.45 257.6 533.3 260.95 526.95 265.25 519.2 261.25 515.7 258.65 514.35 255.35 511.3 246.15 515.2 238.65 517.35 235.15 518.9 233.9 525.65 228.7 535.1 234
M 524.2 254.35
Q 524.15 256.05 525.6 256.65 527.85 257 529.05 255.3 530.1 252.7 527.6 251.7 524.15 251.55 524.2 254.35 Z"/>

<path fill="#FFFFFF" stroke="none" d="
M 534.45 241.8
Q 535.65 238.05 535.1 234 525.65 228.7 518.9 233.9 517.35 235.15 515.2 238.65 511.3 246.15 514.35 255.35 515.7 258.65 519.2 261.25 526.95 265.25 533.3 260.95 537.45 257.6 535.7 251.35 533.95 246.1 528.55 245.6 525.5 245.55 523.15 246.7 522.8 242.8 525.3 241 528.65 239.4 534.45 241.8
M 525.6 256.65
Q 524.15 256.05 524.2 254.35 524.15 251.55 527.6 251.7 530.1 252.7 529.05 255.3 527.85 257 525.6 256.65 Z"/>
</g>

<g id="Layer0_31_FILL">
<path fill="#999999" stroke="none" d="
M 609.75 229.05
Q 608.8 228.2 607.6 228.25 594.9 229.05 583.9 228.8 582.75 228.8 581.9 229.5 581.05 230.15 580.85 231.25 579.85 236.7 580.05 241.5 580.1 242.6 580.9 243.45 581.65 244.25 582.8 244.35 585.9 244.6 589.1 244.6 586.5 248.55 584.45 252.8 584.45 252.85 584.4 252.9 582.9 256.35 581.3 261.1 581 261.95 581.25 262.8 581.45 263.65 582.15 264.25 582.8 264.85 583.65 265 589.85 266.05 595 265.95 596 265.95 596.85 265.3 597.65 264.65 597.9 263.65 600.35 253.75 609.9 241.95 610.45 241.2 610.55 240.3 610.95 235.45 610.75 231.1 610.7 229.85 609.75 229.05
M 607.75 231.25
Q 607.95 235.4 607.55 240.05 597.5 252.5 594.95 262.95 590.05 263.05 584.15 262.05 585.7 257.45 587.15 254.1 590.45 247.3 595.2 241.2 588.85 241.85 583.05 241.35 582.85 236.9 583.8 231.8 594.95 232.05 607.75 231.25 Z"/>

<path fill="#FFFFFF" stroke="none" d="
M 607.55 240.05
Q 607.95 235.4 607.75 231.25 594.95 232.05 583.8 231.8 582.85 236.9 583.05 241.35 588.85 241.85 595.2 241.2 590.45 247.3 587.15 254.1 585.7 257.45 584.15 262.05 590.05 263.05 594.95 262.95 597.5 252.5 607.55 240.05 Z"/>
</g>

<g id="Layer0_32_FILL">
<path fill="#999999" stroke="none" d="
M 656 230.1
Q 650.7 234.5 650.95 239.35 651 243.4 652.8 246.15 647.3 252.7 652.7 260.3 652.75 260.3 652.75 260.35 655.5 264.15 660.7 265.3 660.75 265.3 660.8 265.35 668 267.2 675.05 263.4 675.2 263.3 675.35 263.2 681.9 258.55 681.2 252.25 681.2 252.1 681.15 251.95 680.3 247.6 678.05 245.3 680.3 242.4 680 238.45
L 680 238.4
Q 679.35 229.45 669.6 227.05 669.4 227 669.25 227 662.05 226.05 656.25 229.9 656.1 230 656 230.1
M 656.95 246.25
Q 654 243.85 653.95 239.3 653.9 235.75 657.9 232.4 662.8 229.15 668.85 229.95 676.4 231.8 677 238.65 677.3 243.2 672.85 245.7 677.1 246.85 678.2 252.5 678.6 257.2 673.6 260.75 667.6 264 661.45 262.4 657.35 261.5 655.15 258.55 650.45 251.9 656.95 246.25
M 662.7 252.25
Q 662.1 255 663.4 255.75 666.9 257.35 669.25 254.8 670.7 251.7 667.9 250.45 664.65 249.45 662.7 252.25
M 665.45 253.3
L 665.4 253.25
Q 665.45 253.25 665.5 253.2
L 665.45 253.3
M 662.75 239.7
Q 662.5 242.05 663.65 242.65 666.7 243.9 668.45 241.6 669.4 238.85 666.95 237.95 664.1 237.25 662.75 239.7 Z"/>

<path fill="#FFFFFF" stroke="none" d="
M 653.95 239.3
Q 654 243.85 656.95 246.25 650.45 251.9 655.15 258.55 657.35 261.5 661.45 262.4 667.6 264 673.6 260.75 678.6 257.2 678.2 252.5 677.1 246.85 672.85 245.7 677.3 243.2 677 238.65 676.4 231.8 668.85 229.95 662.8 229.15 657.9 232.4 653.9 235.75 653.95 239.3
M 663.65 242.65
Q 662.5 242.05 662.75 239.7 664.1 237.25 666.95 237.95 669.4 238.85 668.45 241.6 666.7 243.9 663.65 242.65
M 663.4 255.75
Q 662.1 255 662.7 252.25 664.65 249.45 667.9 250.45 670.7 251.7 669.25 254.8 666.9 257.35 663.4 255.75 Z"/>
</g>

<g id="Layer0_33_FILL">
<path fill="#999999" stroke="none" d="
M 750.05 238.45
Q 748.65 233.1 744.25 230.25 744.1 230.15 744 230.1 733.25 224.55 725.2 231.25 724.95 231.4 724.75 231.65 719.4 238.05 720.95 245.3 721.05 245.7 721.25 246.1 722.45 248.4 724.2 249.9 724.1 249.9 724.05 249.95 723.25 250.3 722.85 251.05 720 255.4 720 259.65 720 260.5 720.45 261.25 720.85 262 721.65 262.4 730.6 267 737.1 265.65 744.1 264.45 748.35 256.95 748.35 256.85 748.4 256.75 752.5 248.3 750.1 238.5
L 750.05 238.45
M 742.6 232.75
Q 746.05 235 747.15 239.2 749.3 247.95 745.7 255.45 738.75 267.8 723 259.7 723.05 256.25 725.35 252.65 731 256.75 734.7 255.5 737.65 254.1 737.3 248.15 734.85 249.4 731.8 249.6 726.35 249.4 723.9 244.7 722.7 238.8 727.05 233.55 733.75 228.15 742.6 232.75
M 737.45 240.65
Q 737.9 238.2 735.35 237.5 732.65 237.65 731.45 239.85 730.3 243.45 732.8 243.75 736.85 243.75 737.45 240.65 Z"/>

<path fill="#FFFFFF" stroke="none" d="
M 747.15 239.2
Q 746.05 235 742.6 232.75 733.75 228.15 727.05 233.55 722.7 238.8 723.9 244.7 726.35 249.4 731.8 249.6 734.85 249.4 737.3 248.15 737.65 254.1 734.7 255.5 731 256.75 725.35 252.65 723.05 256.25 723 259.7 738.75 267.8 745.7 255.45 749.3 247.95 747.15 239.2
M 735.35 237.5
Q 737.9 238.2 737.45 240.65 736.85 243.75 732.8 243.75 730.3 243.45 731.45 239.85 732.65 237.65 735.35 237.5 Z"/>
</g>
</defs>

<g transform="matrix( 1, 0, 0, 1, 0,0) ">
<use xlink:href="#Layer0_0_FILL"/>
</g>

<g transform="matrix( 1, 0, 0, 1, 0,0) ">
<use xlink:href="#Layer0_1_FILL"/>
</g>

<g transform="matrix( 1, 0, 0, 1, 0,0) ">
<use xlink:href="#Layer0_2_FILL"/>
</g>

<g transform="matrix( 1, 0, 0, 1, 0,0) ">
<use xlink:href="#Layer0_3_FILL"/>
</g>

<g transform="matrix( 1, 0, 0, 1, 0,0) ">
<use xlink:href="#Layer0_4_FILL"/>
</g>

<g transform="matrix( 1, 0, 0, 1, 0,0) ">
<use xlink:href="#Layer0_5_FILL"/>
</g>

<g transform="matrix( 1, 0, 0, 1, 0,0) ">
<use xlink:href="#Layer0_6_FILL"/>
</g>

<g transform="matrix( 1, 0, 0, 1, 0,0) ">
<use xlink:href="#Layer0_7_FILL"/>
</g>

<g transform="matrix( 1, 0, 0, 1, 0,0) ">
<use xlink:href="#Layer0_8_FILL"/>
</g>

<g transform="matrix( 1, 0, 0, 1, 0,0) ">
<use xlink:href="#Layer0_9_FILL"/>
</g>

<g transform="matrix( 1, 0, 0, 1, 0,0) ">
<use xlink:href="#Layer0_10_FILL"/>
</g>

<g transform="matrix( 1, 0, 0, 1, 0,0) ">
<use xlink:href="#Layer0_11_FILL"/>
</g>

<g transform="matrix( 1, 0, 0, 1, 0,0) ">
<use xlink:href="#Layer0_12_FILL"/>
</g>

<g transform="matrix( 1, 0, 0, 1, 0,0) ">
<use xlink:href="#Layer0_13_FILL"/>
</g>

<g transform="matrix( 1, 0, 0, 1, 0,0) ">
<use xlink:href="#Layer0_14_FILL"/>
</g>

<g transform="matrix( 1, 0, 0, 1, 0,0) ">
<use xlink:href="#Layer0_15_FILL"/>
</g>

<g transform="matrix( 1, 0, 0, 1, 0,0) ">
<use xlink:href="#Layer0_16_FILL"/>
</g>

<g transform="matrix( 1, 0, 0, 1, 0,0) ">
<use xlink:href="#Layer0_17_FILL"/>
</g>

<g transform="matrix( 1, 0, 0, 1, 0,0) ">
<use xlink:href="#Layer0_18_FILL"/>
</g>

<g transform="matrix( 1, 0, 0, 1, 0,0) ">
<use xlink:href="#Layer0_19_FILL"/>
</g>

<g transform="matrix( 1, 0, 0, 1, 0,0) ">
<use xlink:href="#Layer0_20_FILL"/>
</g>

<g transform="matrix( 1, 0, 0, 1, 0,0) ">
<use xlink:href="#Layer0_21_FILL"/>
</g>

<g transform="matrix( 1, 0, 0, 1, 0,0) ">
<use xlink:href="#Layer0_22_FILL"/>
</g>

<g transform="matrix( 1, 0, 0, 1, 0,0) ">
<use xlink:href="#Layer0_23_FILL"/>
</g>

<g transform="matrix( 1, 0, 0, 1, 0,0) ">
<use xlink:href="#Layer0_24_FILL"/>
</g>

<g transform="matrix( 1, 0, 0, 1, 0,0) ">
<use xlink:href="#Layer0_25_FILL"/>
</g>

<g transform="matrix( 1, 0, 0, 1, 0,0) ">
<use xlink:href="#Layer0_26_FILL"/>
</g>

<g transform="matrix( 1, 0, 0, 1, 0,0) ">
<use xlink:href="#Layer0_27_FILL"/>
</g>

<g transform="matrix( 1, 0, 0, 1, 0,0) ">
<use xlink:href="#Layer0_28_FILL"/>
</g>

<g transform="matrix( 1, 0, 0, 1, 0,0) ">
<use xlink:href="#Layer0_29_FILL"/>
</g>

<g transform="matrix( 1, 0, 0, 1, 0,0) ">
<use xlink:href="#Layer0_30_FILL"/>
</g>

<g transform="matrix( 1, 0, 0, 1, 0,0) ">
<use xlink:href="#Layer0_31_FILL"/>
</g>

<g transform="matrix( 1, 0, 0, 1, 0,0) ">
<use xlink:href="#Layer0_32_FILL"/>
</g>

<g transform="matrix( 1, 0, 0, 1, 0,0) ">
<use xlink:href="#Layer0_33_FILL"/>
</g>
</svg>
