<?xml version="1.0" encoding="utf-8"?>
<!DOCTYPE svg PUBLIC "-//W3C//DTD SVG 1.1//EN" "http://www.w3.org/Graphics/SVG/1.1/DTD/svg11.dtd">
<svg version="1.1" xmlns="http://www.w3.org/2000/svg" xmlns:xlink="http://www.w3.org/1999/xlink" xmlns:ev="http://www.w3.org/2001/xml-events" width="550.0px" height="400.0px" overflow="visible" viewBox="0.0 0.0 550.0 400.0" enable-background="new 0.0 0.0 550.0 400.0">
	<defs>
		<linearGradient id="Grad1" gradientUnits="userSpaceOnUse" gradientTransform="matrix(0.0 -0.021057129 0.022644043 0.0 240.65 143.6)" x1="-819.2" y1="0" x2="819.2" y2="0">
			<stop offset="0.0" stop-color="#99FFFF" stop-opacity="0.0"/>
			<stop offset="0.34901962" stop-color="#FACC08" stop-opacity="0.08235294"/>
			<stop offset="1.0" stop-color="#6AB7EA"/>
		</linearGradient>
		<linearGradient id="Grad2" gradientUnits="userSpaceOnUse" gradientTransform="matrix(0.0 0.006958008 -0.06455994 0.0 434.95 134.7)" x1="-819.2" y1="0" x2="819.2" y2="0">
			<stop offset="0.0" stop-color="#99FFFF" stop-opacity="0.0"/>
			<stop offset="1.0" stop-color="#6AB7EA" stop-opacity="0.3019608"/>
		</linearGradient>
		<linearGradient id="Grad3" gradientUnits="userSpaceOnUse" gradientTransform="matrix(0.0 -0.021057129 0.022644043 0.0 220.65 143.6)" x1="-819.2" y1="0" x2="819.2" y2="0">
			<stop offset="0.0" stop-color="#99FFFF" stop-opacity="0.0"/>
			<stop offset="1.0" stop-color="#6AB7EA"/>
		</linearGradient>
	</defs>
	<rect width="550.0px" height="400.0px" x="0px" y="0px" fill="#FFFFFF"/>
	<g>
		<g transform="matrix(1.0 0.0 0.0 1.0 0.0 0.0)">
			<path fill="#AEAEAE" stroke-linecap="round" stroke-linejoin="round" d="M 182.95 202.95 L 182.95 211.3 L 182.8 211.9 C 182.66667 212.13333 182.40001 212.26666 182.0 212.3 L 180.6 212.3 C 180.16667 212.3 179.88333 212.16667 179.75 211.9 L 179.6 211.3 L 179.6 202.95 L 178.1 202.95 L 178.1 211.3 L 178.15 211.9 C 178.31667 213.16667 179.13333 213.8 180.6 213.8 L 187.0 213.8 C 188.40001 213.76666 189.18335 213.13333 189.35 211.9 L 189.4 211.3 L 189.4 202.95 L 187.9 202.95 L 187.9 211.3 L 187.75 211.9 C 187.61667 212.13333 187.35 212.26666 186.95 212.3 L 185.55 212.3 C 185.15 212.26666 184.88333 212.13333 184.75 211.9 L 184.6 211.3 L 184.6 202.95 L 182.95 202.95 Z M 187.9 200.55 L 189.4 200.55 L 189.4 199.45 L 187.9 199.45 L 187.9 200.55 Z M 179.6 200.55 L 179.6 199.45 L 178.1 199.45 L 178.1 200.55 L 179.6 200.55 Z M 182.95 199.45 L 182.95 200.55 L 184.6 200.55 L 184.6 199.45 L 182.95 199.45 Z M 187.9 197.05 L 189.4 197.05 L 189.4 195.5 L 189.95 195.25 C 190.31667 195.01666 190.58333 194.65 190.75 194.15 L 188.4 194.15 C 189.03334 194.11667 189.35 193.78334 189.35 193.15 L 189.35 188.65 L 189.35 185.6 L 189.35 184.15 C 189.35 183.48332 189.01668 183.15 188.35 183.15 L 179.4 183.15 C 178.73332 183.15 178.4 183.48332 178.4 184.15 L 178.4 193.15 C 178.4 193.78334 178.71666 194.11667 179.35 194.15 L 177.05 194.15 C 177.18333 194.65 177.45 195.01666 177.85 195.25 L 178.1 195.4 L 178.1 197.05 L 179.6 197.05 L 179.6 194.15 L 182.95 194.15 L 184.6 194.15 L 187.9 194.15 L 187.9 197.05 Z M 189.35 188.65 L 190.85 189.85 C 192.18333 189.45 193.36667 188.73332 194.4 187.7 C 196.13333 185.96667 197.0 183.91667 197.0 181.55 C 197.0 179.11667 196.13333 177.05 194.4 175.35 L 194.2 175.2 L 193.3 174.45 C 192.46667 173.81667 191.58334 173.38333 190.65 173.15 L 189.5 173.3 C 189.13333 173.5 188.9 173.8 188.8 174.2 L 188.0 177.1 C 187.90001 177.5 187.95001 177.86667 188.15 178.2 C 188.31667 178.56667 188.6 178.8 189.0 178.9 L 189.8 179.3 L 189.7 179.25 L 190.3 179.75 C 190.76666 180.28334 191.0 180.88335 191.0 181.55 C 191.0 182.05 190.88333 182.5 190.65 182.9 L 189.35 185.6 C 190.05 185.43333 190.68333 185.08333 191.25 184.55 C 192.08333 183.71667 192.5 182.71667 192.5 181.55 C 192.5 180.41667 192.08333 179.43333 191.25 178.6 L 190.65 178.1 L 189.45 177.5 L 190.25 174.6 C 191.01666 174.8 191.75 175.16667 192.45 175.7 L 193.35 176.5 C 194.78334 177.86667 195.5 179.55 195.5 181.55 C 195.5 183.51666 194.78334 185.21666 193.35 186.65 C 192.21666 187.78334 190.88333 188.45001 189.35 188.65 Z M 193.35 176.5 L 193.35 176.45 Z M 193.3 174.45 L 193.35 174.5 Z M 184.6 197.05 L 184.6 195.5 L 182.95 195.5 L 182.95 197.05 L 184.6 197.05 Z M 180.2 192.45 C 180.0 192.25 179.9 192.0 179.9 191.7 C 179.9 191.4 180.0 191.15 180.2 190.95 C 180.4 190.75 180.65 190.65 180.95 190.65 L 181.6 190.85 L 181.7 190.95 L 182.0 191.7 L 181.7 192.45 L 181.6 192.55 L 180.95 192.75 C 180.65 192.75 180.4 192.65 180.2 192.45 Z M 181.7 189.45 L 181.6 189.55 L 180.95 189.75 C 180.65 189.75 180.4 189.65 180.2 189.45 C 180.0 189.25 179.9 189.0 179.9 188.7 C 179.9 188.4 180.0 188.15 180.2 187.95 C 180.4 187.75 180.65 187.65 180.95 187.65 L 181.6 187.85 L 181.7 187.95 L 182.0 188.7 L 181.7 189.45 Z"/>
			<path fill="#CCCCCC" stroke-linecap="round" stroke-linejoin="round" d="M 182.95 211.3 L 182.95 202.95 L 179.6 202.95 L 179.6 211.3 L 179.75 211.9 C 179.88333 212.16667 180.16667 212.3 180.6 212.3 L 182.0 212.3 C 182.40001 212.26666 182.66667 212.13333 182.8 211.9 L 182.95 211.3 Z M 184.6 202.95 L 184.6 211.3 L 184.75 211.9 C 184.88333 212.13333 185.15 212.26666 185.55 212.3 L 186.95 212.3 C 187.35 212.26666 187.61667 212.13333 187.75 211.9 L 187.9 211.3 L 187.9 202.95 L 184.6 202.95 Z M 179.6 200.55 L 182.95 200.55 L 182.95 199.45 L 179.6 199.45 L 179.6 200.55 Z M 179.6 197.05 L 182.95 197.05 L 182.95 195.5 L 182.95 194.15 L 179.6 194.15 L 179.6 197.05 Z M 187.9 200.55 L 187.9 199.45 L 184.6 199.45 L 184.6 200.55 L 187.9 200.55 Z M 184.6 197.05 L 187.9 197.05 L 187.9 194.15 L 184.6 194.15 L 184.6 195.5 L 184.6 197.05 Z M 189.35 185.6 L 189.35 188.65 C 190.88333 188.45 192.21666 187.78333 193.35 186.65 C 194.78334 185.21666 195.5 183.51666 195.5 181.55 C 195.5 179.55 194.78334 177.85 193.35 176.45 L 192.45 175.7 C 191.75 175.16666 191.01666 174.79999 190.25 174.6 L 189.45 177.5 L 190.65 178.1 L 191.25 178.6 C 192.08333 179.43333 192.5 180.41667 192.5 181.55 C 192.5 182.71667 192.08333 183.71667 191.25 184.55 C 190.68333 185.08334 190.05 185.43335 189.35 185.6 Z M 193.35 176.45 L 193.35 176.5 Z M 179.9 191.7 C 179.9 192.0 180.0 192.25 180.2 192.45 C 180.4 192.65 180.65 192.75 180.95 192.75 L 181.6 192.55 L 181.7 192.45 L 182.0 191.7 L 181.7 190.95 L 181.6 190.85 L 180.95 190.65 C 180.65 190.65 180.4 190.75 180.2 190.95 C 180.0 191.15 179.9 191.4 179.9 191.7 Z M 181.6 189.55 L 181.7 189.45 L 182.0 188.7 L 181.7 187.95 L 181.6 187.85 L 180.95 187.65 C 180.65 187.65 180.4 187.75 180.2 187.95 C 180.0 188.15 179.9 188.4 179.9 188.7 C 179.9 189.0 180.0 189.25 180.2 189.45 C 180.4 189.65 180.65 189.75 180.95 189.75 L 181.6 189.55 Z"/>
			<path fill="#333333" stroke-linecap="round" stroke-linejoin="round" d="M 179.6 202.95 L 182.95 202.95 L 182.95 200.55 L 179.6 200.55 L 179.6 202.95 Z M 184.6 202.95 L 187.9 202.95 L 187.9 200.55 L 184.6 200.55 L 184.6 202.95 Z M 179.6 197.05 L 179.6 199.45 L 182.95 199.45 L 182.95 197.05 L 179.6 197.05 Z M 187.9 199.45 L 187.9 197.05 L 184.6 197.05 L 184.6 199.45 L 187.9 199.45 Z"/>
			<path fill="#222222" stroke-linecap="round" stroke-linejoin="round" d="M 182.95 202.95 L 184.6 202.95 L 184.6 200.55 L 182.95 200.55 L 182.95 202.95 Z M 187.9 202.95 L 189.4 202.95 L 189.4 200.55 L 187.9 200.55 L 187.9 202.95 Z M 178.1 202.95 L 179.6 202.95 L 179.6 200.55 L 178.1 200.55 L 178.1 202.95 Z M 179.6 199.45 L 179.6 197.05 L 178.1 197.05 L 178.1 199.45 L 179.6 199.45 Z M 182.95 197.05 L 182.95 199.45 L 184.6 199.45 L 184.6 197.05 L 182.95 197.05 Z M 187.9 199.45 L 189.4 199.45 L 189.4 197.05 L 187.9 197.05 L 187.9 199.45 Z"/>
			<path fill="#999999" stroke-linecap="round" stroke-linejoin="round" d="M 184.6 194.15 L 182.95 194.15 L 182.95 195.5 L 184.6 195.5 L 184.6 194.15 Z M 177.05 194.15 L 179.35 194.15 C 178.71666 194.11667 178.4 193.78334 178.4 193.15 L 178.4 184.15 C 178.4 183.48332 178.73332 183.15 179.4 183.15 L 188.35 183.15 C 189.01668 183.15 189.35 183.48332 189.35 184.15 L 189.35 185.6 L 190.65 182.9 C 190.28334 182.06667 189.51668 181.65 188.35 181.65 L 179.4 181.65 C 177.73332 181.65 176.9 182.48332 176.9 184.15 L 176.9 193.15 C 176.9 193.51666 176.95 193.84999 177.05 194.15 Z M 189.35 188.65 L 189.35 193.15 C 189.35 193.78334 189.03334 194.11667 188.4 194.15 L 190.75 194.15 L 190.85 193.15 L 190.85 189.85 L 189.35 188.65 Z"/>
			<path fill="#A2A2A2" stroke-linecap="round" stroke-linejoin="round" d="M 152.4 202.05 C 152.3 202.35 152.25 202.68333 152.25 203.05 L 152.25 211.3 C 152.25 212.76666 152.9 213.58333 154.2 213.75 L 154.75 213.8 L 159.0 213.8 C 160.7 213.8 161.55 212.96667 161.55 211.3 L 161.55 203.05 L 161.45 202.05 L 159.05 202.05 C 159.68333 202.08334 160.0 202.41667 160.0 203.05 L 160.0 211.3 C 160.0 211.96667 159.66667 212.3 159.0 212.3 L 154.75 212.3 C 154.08333 212.3 153.75 211.96667 153.75 211.3 L 153.75 203.05 C 153.75 202.41667 154.06667 202.08334 154.7 202.05 L 152.4 202.05 Z M 160.15 200.05 L 160.15 194.55 C 160.58333 194.31667 160.88333 193.95 161.05 193.45 L 158.65 193.45 L 158.65 200.05 L 160.15 200.05 Z M 161.15 177.95 L 161.15 169.3 C 161.15 168.2 160.78333 167.46666 160.05 167.1 L 158.6 166.8 L 155.1 166.8 L 153.7 167.1 C 152.96667 167.46666 152.6 168.2 152.6 169.3 L 152.6 177.95 L 154.1 177.95 L 154.1 169.3 C 154.1 168.63333 154.43333 168.3 155.1 168.3 L 158.6 168.3 C 159.26668 168.3 159.6 168.63333 159.6 169.3 L 159.6 177.95 L 161.15 177.95 Z M 152.75 193.45 C 152.88333 193.95 153.15 194.31667 153.55 194.55 L 153.55 200.05 L 155.05 200.05 L 155.05 193.45 L 152.75 193.45 Z"/>
			<path fill="#959595" stroke-linecap="round" stroke-linejoin="round" d="M 161.45 202.05 C 161.25 201.38333 160.81667 200.93333 160.15 200.7 L 160.15 200.05 L 158.65 200.05 L 158.65 202.05 L 159.05 202.05 L 161.45 202.05 Z M 161.05 193.45 L 161.15 192.45 L 161.15 189.95 L 159.6 189.95 L 159.6 192.45 C 159.6 193.08333 159.28334 193.41666 158.65 193.45 L 161.05 193.45 Z M 152.6 189.95 L 152.6 192.45 C 152.6 192.81667 152.65001 193.15 152.75 193.45 L 155.05 193.45 C 154.41667 193.41666 154.1 193.08333 154.1 192.45 L 154.1 189.95 L 152.6 189.95 Z M 153.55 200.05 L 153.55 200.75 C 152.95 200.98334 152.56667 201.41667 152.4 202.05 L 154.7 202.05 L 155.05 202.05 L 155.05 200.05 L 153.55 200.05 Z"/>
			<path fill="#B7B7B7" stroke-linecap="round" stroke-linejoin="round" d="M 161.15 189.95 L 161.15 187.95 L 159.6 187.95 L 159.6 189.95 L 161.15 189.95 Z M 158.65 193.45 C 159.28334 193.41666 159.6 193.08333 159.6 192.45 L 159.6 189.95 L 154.1 189.95 L 154.1 192.45 C 154.1 193.08333 154.41667 193.41666 155.05 193.45 L 158.65 193.45 Z M 154.1 189.95 L 154.1 187.95 L 152.6 187.95 L 152.6 189.95 L 154.1 189.95 Z M 161.15 181.95 L 161.15 179.95 L 159.6 179.95 L 159.6 181.95 L 161.15 181.95 Z M 152.6 179.95 L 152.6 181.95 L 154.1 181.95 L 154.1 179.95 L 152.6 179.95 Z M 155.05 202.05 L 158.65 202.05 L 158.65 200.05 L 155.05 200.05 L 155.05 202.05 Z"/>
			<path fill="#222222" stroke-linecap="round" stroke-linejoin="round" d="M 161.15 187.95 L 161.15 181.95 L 159.6 181.95 L 159.6 187.95 L 161.15 187.95 Z M 152.6 181.95 L 152.6 187.95 L 154.1 187.95 L 154.1 181.95 L 152.6 181.95 Z"/>
			<path fill="#CAA202" stroke-linecap="round" stroke-linejoin="round" d="M 161.15 179.95 L 161.15 177.95 L 159.6 177.95 L 159.6 179.95 L 161.15 179.95 Z M 152.6 177.95 L 152.6 179.95 L 154.1 179.95 L 154.1 177.95 L 152.6 177.95 Z"/>
			<path fill="#CCCCCC" stroke-linecap="round" stroke-linejoin="round" d="M 154.7 202.05 C 154.06667 202.08334 153.75 202.41667 153.75 203.05 L 153.75 211.3 C 153.75 211.96667 154.08333 212.3 154.75 212.3 L 159.0 212.3 C 159.66667 212.3 160.0 211.96667 160.0 211.3 L 160.0 203.05 C 160.0 202.41667 159.68333 202.08334 159.05 202.05 L 158.65 202.05 L 155.05 202.05 L 154.7 202.05 Z M 155.05 200.05 L 158.65 200.05 L 158.65 193.45 L 155.05 193.45 L 155.05 200.05 Z M 154.1 177.95 L 159.6 177.95 L 159.6 169.3 C 159.6 168.63333 159.26668 168.3 158.6 168.3 L 155.1 168.3 C 154.43333 168.3 154.1 168.63333 154.1 169.3 L 154.1 177.95 Z"/>
			<path fill="#D0D0D0" stroke-linecap="round" stroke-linejoin="round" d="M 154.1 189.95 L 159.6 189.95 L 159.6 187.95 L 154.1 187.95 L 154.1 189.95 Z M 159.6 179.95 L 154.1 179.95 L 154.1 181.95 L 159.6 181.95 L 159.6 179.95 Z"/>
			<path fill="#333333" stroke-linecap="round" stroke-linejoin="round" d="M 154.1 187.95 L 159.6 187.95 L 159.6 181.95 L 154.1 181.95 L 154.1 187.95 Z"/>
			<path fill="#FFCC00" stroke-linecap="round" stroke-linejoin="round" d="M 159.6 179.95 L 159.6 177.95 L 154.1 177.95 L 154.1 179.95 L 159.6 179.95 Z"/>
			<path fill="#AEAEAE" stroke-linecap="round" stroke-linejoin="round" d="M 250.05 173.9 L 247.65 173.9 L 241.95 173.9 L 225.4 173.9 C 224.73332 173.9 224.4 174.23332 224.4 174.9 L 224.4 183.65 C 224.4 184.31667 224.73332 184.65 225.4 184.65 L 226.4 184.65 L 224.9 186.15 C 223.56667 185.98332 222.9 185.15 222.9 183.65 L 222.9 174.9 C 222.9 173.23332 223.73332 172.4 225.4 172.4 L 256.4 172.4 C 258.06665 172.4 258.9 173.23332 258.9 174.9 L 258.9 183.65 C 258.9 185.15 258.23334 185.98332 256.9 186.15 L 255.4 184.65 L 256.4 184.65 C 257.06665 184.65 257.4 184.31667 257.4 183.65 L 257.4 174.9 C 257.4 174.23332 257.06665 173.9 256.4 173.9 L 252.15 173.9 L 250.05 173.9 Z"/>
			<path fill="#CCCCCC" stroke-linecap="round" stroke-linejoin="round" d="M 247.65 173.9 L 250.05 173.9 L 250.05 184.65 L 247.65 184.65 L 247.65 173.9 Z M 252.15 173.9 L 256.4 173.9 C 257.06665 173.9 257.4 174.23332 257.4 174.9 L 257.4 183.65 C 257.4 184.31667 257.06665 184.65 256.4 184.65 L 255.4 184.65 L 252.15 184.65 L 252.15 173.9 Z M 226.4 184.65 L 225.4 184.65 C 224.73332 184.65 224.4 184.31667 224.4 183.65 L 224.4 174.9 C 224.4 174.23332 224.73332 173.9 225.4 173.9 L 241.95 173.9 L 241.95 184.65 L 226.4 184.65 Z"/>
			<path fill="#D9D9D9" stroke-linecap="round" stroke-linejoin="round" d="M 247.65 173.9 L 247.65 184.65 L 241.95 184.65 L 241.95 173.9 L 247.65 173.9 Z M 250.05 184.65 L 250.05 173.9 L 252.15 173.9 L 252.15 184.65 L 250.05 184.65 Z"/>
			<path fill="#848484" stroke-linecap="round" stroke-linejoin="round" d="M 247.65 184.65 L 250.05 184.65 L 252.15 184.65 L 255.4 184.65 L 255.4 186.65 L 226.4 186.65 L 226.4 184.65 L 241.95 184.65 L 247.65 184.65 Z"/>
			<path fill="#6F6F6F" stroke-linecap="round" stroke-linejoin="round" d="M 255.4 184.65 L 256.9 186.15 L 256.9 190.9 C 256.9 192.56667 256.06665 193.4 254.4 193.4 L 227.4 193.4 C 225.73332 193.4 224.9 192.56667 224.9 190.9 L 224.9 186.15 L 226.4 184.65 L 226.4 186.65 L 226.4 190.9 C 226.4 191.56667 226.73332 191.9 227.4 191.9 L 254.4 191.9 C 255.06667 191.9 255.4 191.56667 255.4 190.9 L 255.4 186.65 L 255.4 184.65 Z"/>
			<path fill="#919191" stroke-linecap="round" stroke-linejoin="round" d="M 226.4 186.65 L 255.4 186.65 L 255.4 190.9 C 255.4 191.56667 255.06667 191.9 254.4 191.9 L 227.4 191.9 C 226.73332 191.9 226.4 191.56667 226.4 190.9 L 226.4 186.65 Z"/>
			<path fill="#AEAEAE" stroke-linecap="round" stroke-linejoin="round" d="M 313.5 172.4 L 317.1 172.4 C 317.43335 172.4 317.73334 172.5 318.0 172.7 L 318.55 173.5 L 318.55 174.4 L 313.85 187.55 L 314.2 187.9 L 312.1 187.9 L 317.1 173.9 L 313.5 173.9 L 313.5 172.4 Z M 283.3 187.9 L 283.7 187.55 L 279.0 174.4 C 278.86667 174.09999 278.86667 173.79999 279.0 173.5 C 279.06668 173.16667 279.23334 172.90001 279.5 172.7 C 279.76666 172.5 280.06665 172.4 280.4 172.4 L 308.65 172.4 L 308.65 173.9 L 280.4 173.9 L 285.4 187.9 L 283.3 187.9 Z"/>
			<path fill="#4D4D4D" stroke-linecap="round" stroke-linejoin="round" d="M 314.2 187.9 L 315.4 189.1 C 315.7 189.40001 315.85 189.75 315.85 190.15 L 315.4 191.2 L 314.2 192.4 L 315.4 193.6 C 315.7 193.90001 315.85 194.25 315.85 194.65 L 315.4 195.7 L 313.15 197.95 C 312.85 198.25 312.5 198.4 312.1 198.4 L 285.4 198.4 C 285.0 198.4 284.65 198.25 284.35 197.95 L 282.1 195.7 C 281.8 195.4 281.65 195.04999 281.65 194.65 C 281.65 194.25 281.8 193.90001 282.1 193.6 L 283.3 192.4 L 282.1 191.2 C 281.8 190.9 281.65 190.54999 281.65 190.15 C 281.65 189.75 281.8 189.40001 282.1 189.1 L 283.3 187.9 L 285.4 187.9 L 283.15 190.15 L 285.4 192.4 L 283.15 194.65 L 285.4 196.9 L 312.1 196.9 L 314.35 194.65 L 312.1 192.4 L 314.35 190.15 L 312.1 187.9 L 314.2 187.9 Z"/>
			<path fill="#CCCCCC" stroke-linecap="round" stroke-linejoin="round" d="M 308.65 172.4 L 313.5 172.4 L 313.5 173.9 L 308.65 173.9 L 308.65 172.4 Z M 313.5 173.9 L 317.1 173.9 L 312.1 187.9 L 308.25 187.9 L 313.5 173.9 Z M 308.65 173.9 L 306.15 187.9 L 285.4 187.9 L 280.4 173.9 L 308.65 173.9 Z"/>
			<path fill="#D9D9D9" stroke-linecap="round" stroke-linejoin="round" d="M 313.5 173.9 L 308.25 187.9 L 306.15 187.9 L 308.65 173.9 L 313.5 173.9 Z"/>
			<path fill="#666666" stroke-linecap="round" stroke-linejoin="round" d="M 306.15 187.9 L 308.25 187.9 L 312.1 187.9 L 314.35 190.15 L 283.15 190.15 L 285.4 187.9 L 306.15 187.9 Z M 312.1 192.4 L 314.35 194.65 L 283.15 194.65 L 285.4 192.4 L 312.1 192.4 Z"/>
			<path fill="#595959" stroke-linecap="round" stroke-linejoin="round" d="M 314.35 190.15 L 312.1 192.4 L 285.4 192.4 L 283.15 190.15 L 314.35 190.15 Z M 314.35 194.65 L 312.1 196.9 L 285.4 196.9 L 283.15 194.65 L 314.35 194.65 Z"/>
			<path fill="url(#Grad1)" stroke-linecap="round" stroke-linejoin="round" d="M 234.0 155.2 C 234.0 154.2 234.11667 153.2 234.35 152.2 L 240.65 125.05 L 246.95 152.2 L 247.3 155.2 C 247.3 157.13333 246.63333 158.76666 245.3 160.1 C 244.0 161.40001 242.45 162.08334 240.65 162.15 C 238.84999 162.08333 237.29999 161.4 236.0 160.1 C 234.66667 158.76668 234.0 157.13335 234.0 155.2 Z"/>
			<path fill="url(#Grad2)" stroke-linecap="round" stroke-linejoin="round" d="M 278.95 128.4 L 318.95 128.4 L 318.95 140.4 L 278.95 140.4 L 278.95 128.4 Z"/>
			<path fill="#7B7B7B" stroke-linecap="round" stroke-linejoin="round" d="M 356.55 175.3 L 359.45 172.35 C 359.91666 171.88333 360.38333 171.88333 360.85 172.35 L 363.1 174.65 C 363.56665 175.11667 363.56665 175.58334 363.1 176.05 L 360.2 178.95 C 358.13333 178.58333 356.91666 177.36667 356.55 175.3 Z M 344.15 179.35 L 340.85 176.05 C 340.38333 175.58334 340.38333 175.11667 340.85 174.65 L 343.1 172.35 C 343.56665 171.88333 344.05 171.88333 344.55 172.35 L 347.85 175.7 C 347.28333 177.7 346.05 178.91667 344.15 179.35 Z"/>
			<path fill="#666666" stroke-linecap="round" stroke-linejoin="round" d="M 360.85 172.35 C 360.38333 171.88333 359.91666 171.88333 359.45 172.35 L 356.55 175.3 C 356.91666 177.36667 358.13333 178.58333 360.2 178.95 L 363.1 176.05 C 363.56665 175.58334 363.56665 175.11667 363.1 174.65 L 360.85 172.35 Z M 362.3 178.95 L 360.2 178.95 L 362.55 181.3 L 362.55 183.3 L 342.15 183.3 L 342.15 181.3 L 344.1 179.35 C 346.03333 178.91667 347.28333 177.7 347.85 175.7 L 349.8 173.7 L 354.95 173.7 L 356.55 175.3 L 356.55 173.15 L 358.4 171.3 C 359.56665 170.13333 360.7333 170.13333 361.9 171.3 L 364.15 173.6 C 365.31665 174.76668 365.31665 175.93335 364.15 177.1 L 362.3 178.95 Z M 347.85 173.6 L 347.85 175.65 L 344.55 172.35 C 344.05 171.88333 343.56665 171.88333 343.1 172.35 L 340.85 174.65 C 340.38333 175.11667 340.38333 175.58334 340.85 176.05 L 344.15 179.35 L 342.05 179.35 L 339.8 177.1 C 338.63333 175.93333 338.63333 174.76666 339.8 173.6 L 342.05 171.3 C 343.21664 170.13333 344.4 170.13333 345.6 171.3 L 347.85 173.6 Z"/>
			<path fill="#515151" stroke-linecap="round" stroke-linejoin="round" d="M 360.2 178.95 L 362.3 178.95 L 363.6 180.25 C 363.9 180.55 364.05 180.90001 364.05 181.3 L 364.05 186.3 L 362.55 186.3 L 362.55 183.3 L 362.55 181.3 L 360.2 178.95 Z M 356.55 173.15 L 356.55 175.3 L 354.95 173.7 L 349.8 173.7 L 347.85 175.65 L 347.85 173.6 L 348.75 172.6 C 349.05002 172.3 349.40002 172.15 349.8 172.15 L 354.95 172.15 C 355.35 172.15 355.7 172.3 356.0 172.6 L 356.55 173.15 Z M 342.05 179.35 L 344.1 179.35 L 342.15 181.3 L 342.15 183.3 L 342.15 186.3 L 340.65 186.3 L 340.65 181.3 C 340.65 180.9 340.8 180.54999 341.1 180.25 L 342.05 179.35 Z"/>
			<path fill="#6F6F6F" stroke-linecap="round" stroke-linejoin="round" d="M 342.15 183.3 L 362.55 183.3 L 362.55 186.3 L 342.15 186.3 L 342.15 183.3 Z"/>
			<path fill="#AEAEAE" stroke-linecap="round" stroke-linejoin="round" d="M 364.05 186.3 L 364.05 191.3 L 363.6 192.35 L 362.55 192.8 L 342.15 192.8 C 341.75 192.8 341.4 192.65001 341.1 192.35 C 340.8 192.05 340.65 191.7 340.65 191.3 L 340.65 186.3 L 342.15 186.3 L 342.15 187.3 L 342.15 191.3 L 362.55 191.3 L 362.55 187.3 L 362.55 186.3 L 364.05 186.3 Z"/>
			<path fill="#BFBFBF" stroke-linecap="round" stroke-linejoin="round" d="M 362.55 186.3 L 362.55 187.3 L 342.15 187.3 L 342.15 186.3 L 362.55 186.3 Z"/>
			<path fill="#CCCCCC" stroke-linecap="round" stroke-linejoin="round" d="M 362.55 187.3 L 362.55 191.3 L 342.15 191.3 L 342.15 187.3 L 362.55 187.3 Z"/>
			<path fill="#777777" stroke-linecap="round" stroke-linejoin="round" d="M 134.45 186.2 C 135.65 185.96667 136.25 185.15001 136.25 183.75 L 136.25 170.4 C 136.25 168.73332 135.41667 167.9 133.75 167.9 L 120.4 167.9 C 118.73334 167.9 117.9 168.73332 117.9 170.4 L 117.9 183.75 C 117.9 184.78334 118.21667 185.48334 118.85 185.85 L 120.35 184.75 C 119.71667 184.71666 119.4 184.38333 119.4 183.75 L 119.4 170.4 C 119.4 169.73332 119.73334 169.4 120.4 169.4 L 133.75 169.4 C 134.41667 169.4 134.75 169.73332 134.75 170.4 L 134.75 183.75 C 134.75 184.41667 134.41667 184.75 133.75 184.75 L 132.95 184.75 L 134.45 186.2 Z"/>
			<path fill="#CCCCCC" stroke-linecap="round" stroke-linejoin="round" d="M 118.85 185.85 L 118.85 210.85 C 118.85 212.31667 119.48333 213.13333 120.75 213.3 L 122.25 211.85 L 121.35 211.85 C 120.683334 211.85 120.35 211.51668 120.35 210.85 L 120.35 184.75 L 118.85 185.85 Z M 127.4 213.3 C 128.06667 213.26666 128.56667 213.04999 128.9 212.65 L 129.35 212.1 L 129.4 212.0 L 131.4 208.7 L 131.6 207.95 L 131.6 207.3 L 130.1 205.8 L 130.1 207.95 L 128.05 211.3 L 127.85 211.6 L 127.1 211.85 L 125.9 211.85 L 127.4 213.3 Z M 129.4 212.0 L 129.4 211.95 Z M 129.35 212.1 L 129.35 212.05 Z M 132.95 204.8 L 132.95 184.75 L 132.95 172.8 C 132.95 172.13333 132.61667 171.8 131.95 171.8 L 127.85 171.8 L 127.4 171.85 L 126.95 171.8 L 122.85 171.8 C 122.183334 171.8 121.85 172.13333 121.85 172.8 L 121.85 179.3 L 131.15 183.05 L 131.15 205.8 L 131.95 205.8 C 132.61667 205.8 132.95 205.46667 132.95 204.8 Z M 127.45 198.6 L 127.75 197.9 L 127.45 197.25 C 127.28333 197.05 127.066666 196.95 126.8 196.95 C 126.53333 196.95 126.299995 197.05 126.1 197.25 C 125.933334 197.41667 125.85 197.63333 125.85 197.9 L 126.1 198.6 L 126.8 198.85 L 127.45 198.6 Z M 120.8 196.95 L 120.5 197.0 L 120.5 198.8 L 120.8 198.85 L 121.45 198.6 L 121.75 197.9 L 121.45 197.25 C 121.28333 197.05 121.066666 196.95 120.8 196.95 Z M 123.1 198.6 L 123.8 198.85 L 124.45 198.6 L 124.75 197.9 L 124.45 197.25 C 124.28333 197.05 124.066666 196.95 123.8 196.95 C 123.53333 196.95 123.299995 197.05 123.1 197.25 C 122.933334 197.41667 122.85 197.63333 122.85 197.9 L 123.1 198.6 Z M 120.8 195.85 L 121.45 195.6 L 121.75 194.9 L 121.45 194.25 C 121.28333 194.05 121.066666 193.95 120.8 193.95 L 120.5 194.0 L 120.5 195.8 L 120.8 195.85 Z M 124.45 192.6 L 124.75 191.9 L 124.45 191.25 C 124.28333 191.05 124.066666 190.95 123.8 190.95 C 123.53333 190.95 123.299995 191.05 123.1 191.25 C 122.933334 191.41667 122.85 191.63333 122.85 191.9 L 123.1 192.6 L 123.8 192.85 L 124.45 192.6 Z M 123.8 193.95 C 123.53333 193.95 123.299995 194.05 123.1 194.25 C 122.933334 194.41667 122.85 194.63333 122.85 194.9 L 123.1 195.6 L 123.8 195.85 L 124.45 195.6 L 124.75 194.9 L 124.45 194.25 C 124.28333 194.05 124.066666 193.95 123.8 193.95 Z M 121.45 192.6 L 121.75 191.9 L 121.45 191.25 C 121.28333 191.05 121.066666 190.95 120.8 190.95 L 120.5 191.0 L 120.5 192.8 L 120.8 192.85 L 121.45 192.6 Z M 121.45 189.6 L 121.75 188.9 L 121.45 188.25 C 121.28333 188.05 121.066666 187.95 120.8 187.95 L 120.5 188.0 L 120.5 189.8 L 120.8 189.85 L 121.45 189.6 Z M 124.45 189.6 L 124.75 188.9 L 124.45 188.25 C 124.28333 188.05 124.066666 187.95 123.8 187.95 C 123.53333 187.95 123.299995 188.05 123.1 188.25 C 122.933334 188.41667 122.85 188.63333 122.85 188.9 L 123.1 189.6 L 123.8 189.85 L 124.45 189.6 Z M 120.8 184.95 L 120.5 185.0 L 120.5 186.8 L 120.8 186.85 L 121.45 186.6 L 121.75 185.9 L 121.45 185.25 C 121.28333 185.05 121.066666 184.95 120.8 184.95 Z M 124.45 186.6 L 124.75 185.9 L 124.45 185.25 C 124.28333 185.05 124.066666 184.95 123.8 184.95 C 123.53333 184.95 123.299995 185.05 123.1 185.25 C 122.933334 185.41667 122.85 185.63333 122.85 185.9 L 123.1 186.6 L 123.8 186.85 L 124.45 186.6 Z M 127.45 194.25 C 127.28333 194.05 127.066666 193.95 126.8 193.95 C 126.53333 193.95 126.299995 194.05 126.1 194.25 C 125.933334 194.41667 125.85 194.63333 125.85 194.9 L 126.1 195.6 L 126.8 195.85 L 127.45 195.6 L 127.75 194.9 L 127.45 194.25 Z M 127.45 192.6 L 127.75 191.9 L 127.45 191.25 C 127.28333 191.05 127.066666 190.95 126.8 190.95 C 126.53333 190.95 126.299995 191.05 126.1 191.25 C 125.933334 191.41667 125.85 191.63333 125.85 191.9 L 126.1 192.6 L 126.8 192.85 L 127.45 192.6 Z M 127.45 189.6 L 127.75 188.9 L 127.45 188.25 C 127.28333 188.05 127.066666 187.95 126.8 187.95 C 126.53333 187.95 126.299995 188.05 126.1 188.25 C 125.933334 188.41667 125.85 188.63333 125.85 188.9 L 126.1 189.6 L 126.8 189.85 L 127.45 189.6 Z M 127.45 186.6 L 127.75 185.9 L 127.45 185.25 C 127.28333 185.05 127.066666 184.95 126.8 184.95 C 126.53333 184.95 126.299995 185.05 126.1 185.25 C 125.933334 185.41667 125.85 185.63333 125.85 185.9 L 126.1 186.6 L 126.8 186.85 L 127.45 186.6 Z"/>
			<path fill="#8C8C8C" stroke-linecap="round" stroke-linejoin="round" d="M 120.75 213.3 L 120.75 216.9 C 120.75 218.56667 121.583336 219.4 123.25 219.4 L 124.9 219.4 C 126.566666 219.4 127.4 218.56667 127.4 216.9 L 127.4 213.3 L 125.9 211.85 L 125.9 216.9 C 125.9 217.56667 125.566666 217.9 124.9 217.9 L 123.25 217.9 C 122.583336 217.9 122.25 217.56667 122.25 216.9 L 122.25 211.85 L 120.75 213.3 Z M 131.6 207.3 L 131.95 207.3 C 133.61667 207.3 134.45 206.46667 134.45 204.8 L 134.45 186.2 L 132.95 184.75 L 132.95 204.8 C 132.95 205.46667 132.61667 205.8 131.95 205.8 L 131.15 205.8 L 130.1 205.8 L 131.6 207.3 Z"/>
			<path fill="#AEAEAE" stroke-linecap="round" stroke-linejoin="round" d="M 132.95 184.75 L 133.75 184.75 C 134.41667 184.75 134.75 184.41667 134.75 183.75 L 134.75 170.4 C 134.75 169.73332 134.41667 169.4 133.75 169.4 L 120.4 169.4 C 119.73334 169.4 119.4 169.73332 119.4 170.4 L 119.4 183.75 C 119.4 184.38333 119.71667 184.71666 120.35 184.75 L 120.35 180.2 L 121.85 180.8 L 121.85 179.3 L 121.85 172.8 C 121.85 172.13333 122.183334 171.8 122.85 171.8 L 126.95 171.8 L 127.4 171.85 L 127.85 171.8 L 131.95 171.8 C 132.61667 171.8 132.95 172.13333 132.95 172.8 L 132.95 184.75 Z"/>
			<path fill="#B3B3B3" stroke-linecap="round" stroke-linejoin="round" d="M 125.9 216.9 L 125.9 211.85 L 122.25 211.85 L 122.25 216.9 C 122.25 217.56667 122.583336 217.9 123.25 217.9 L 124.9 217.9 C 125.566666 217.9 125.9 217.56667 125.9 216.9 Z"/>
			<path fill="#EEEEEE" stroke-linecap="round" stroke-linejoin="round" d="M 122.25 211.85 L 125.9 211.85 L 127.1 211.85 L 127.85 211.6 L 128.05 211.3 L 130.1 207.95 L 130.1 205.8 L 130.1 184.1 L 121.85 180.8 L 120.35 180.2 L 120.35 184.75 L 120.35 210.85 C 120.35 211.51668 120.683334 211.85 121.35 211.85 L 122.25 211.85 Z M 127.75 197.9 L 127.45 198.6 L 126.8 198.85 L 126.1 198.6 L 125.85 197.9 C 125.85 197.63333 125.933334 197.41667 126.1 197.25 C 126.3 197.05 126.53334 196.95 126.8 196.95 C 127.066666 196.95 127.28333 197.05 127.45 197.25 L 127.75 197.9 Z M 120.5 197.0 L 120.8 196.95 C 121.066666 196.95 121.28333 197.05 121.45 197.25 L 121.75 197.9 L 121.45 198.6 L 120.8 198.85 L 120.5 198.8 L 120.5 197.0 Z M 123.8 198.85 L 123.1 198.6 L 122.85 197.9 C 122.85 197.63333 122.933334 197.41667 123.1 197.25 C 123.3 197.05 123.53334 196.95 123.8 196.95 C 124.066666 196.95 124.28333 197.05 124.45 197.25 L 124.75 197.9 L 124.45 198.6 L 123.8 198.85 Z M 121.45 195.6 L 120.8 195.85 L 120.5 195.8 L 120.5 194.0 L 120.8 193.95 C 121.066666 193.95 121.28333 194.05 121.45 194.25 L 121.75 194.9 L 121.45 195.6 Z M 124.75 191.9 L 124.45 192.6 L 123.8 192.85 L 123.1 192.6 L 122.85 191.9 C 122.85 191.63333 122.933334 191.41667 123.1 191.25 C 123.3 191.05 123.53334 190.95 123.8 190.95 C 124.066666 190.95 124.28333 191.05 124.45 191.25 L 124.75 191.9 Z M 123.1 194.25 C 123.3 194.05 123.53334 193.95 123.8 193.95 C 124.066666 193.95 124.28333 194.05 124.45 194.25 L 124.75 194.9 L 124.45 195.6 L 123.8 195.85 L 123.1 195.6 L 122.85 194.9 C 122.85 194.63333 122.933334 194.41667 123.1 194.25 Z M 121.75 191.9 L 121.45 192.6 L 120.8 192.85 L 120.5 192.8 L 120.5 191.0 L 120.8 190.95 C 121.066666 190.95 121.28333 191.05 121.45 191.25 L 121.75 191.9 Z M 121.75 188.9 L 121.45 189.6 L 120.8 189.85 L 120.5 189.8 L 120.5 188.0 L 120.8 187.95 C 121.066666 187.95 121.28333 188.05 121.45 188.25 L 121.75 188.9 Z M 124.75 188.9 L 124.45 189.6 L 123.8 189.85 L 123.1 189.6 L 122.85 188.9 C 122.85 188.63333 122.933334 188.41667 123.1 188.25 C 123.3 188.05 123.53334 187.95 123.8 187.95 C 124.066666 187.95 124.28333 188.05 124.45 188.25 L 124.75 188.9 Z M 120.5 185.0 L 120.8 184.95 C 121.066666 184.95 121.28333 185.05 121.45 185.25 L 121.75 185.9 L 121.45 186.6 L 120.8 186.85 L 120.5 186.8 L 120.5 185.0 Z M 124.75 185.9 L 124.45 186.6 L 123.8 186.85 L 123.1 186.6 L 122.85 185.9 C 122.85 185.63333 122.933334 185.41667 123.1 185.25 C 123.3 185.05 123.53334 184.95 123.8 184.95 C 124.066666 184.95 124.28333 185.05 124.45 185.25 L 124.75 185.9 Z M 126.8 193.95 C 127.066666 193.95 127.28333 194.05 127.45 194.25 L 127.75 194.9 L 127.45 195.6 L 126.8 195.85 L 126.1 195.6 L 125.85 194.9 C 125.85 194.63333 125.933334 194.41667 126.1 194.25 C 126.3 194.05 126.53334 193.95 126.8 193.95 Z M 127.75 191.9 L 127.45 192.6 L 126.8 192.85 L 126.1 192.6 L 125.85 191.9 C 125.85 191.63333 125.933334 191.41667 126.1 191.25 C 126.3 191.05 126.53334 190.95 126.8 190.95 C 127.066666 190.95 127.28333 191.05 127.45 191.25 L 127.75 191.9 Z M 127.75 188.9 L 127.45 189.6 L 126.8 189.85 L 126.1 189.6 L 125.85 188.9 C 125.85 188.63333 125.933334 188.41667 126.1 188.25 C 126.3 188.05 126.53334 187.95 126.8 187.95 C 127.066666 187.95 127.28333 188.05 127.45 188.25 L 127.75 188.9 Z M 127.75 185.9 L 127.45 186.6 L 126.8 186.85 L 126.1 186.6 L 125.85 185.9 C 125.85 185.63333 125.933334 185.41667 126.1 185.25 C 126.3 185.05 126.53334 184.95 126.8 184.95 C 127.066666 184.95 127.28333 185.05 127.45 185.25 L 127.75 185.9 Z"/>
			<path fill="#B7B7B7" stroke-linecap="round" stroke-linejoin="round" d="M 121.85 180.8 L 130.1 184.1 L 130.1 205.8 L 131.15 205.8 L 131.15 183.05 L 121.85 179.3 L 121.85 180.8 Z"/>
			<path fill="#A2A2A2" stroke-linecap="round" stroke-linejoin="round" d="M 426.95 172.45 L 432.05 187.9 L 432.1 188.4 L 432.1 188.6 L 429.6 210.85 L 429.3 211.55 L 428.7 212.05 L 422.45 214.8 L 421.85 214.9 L 395.15 214.9 L 394.55 214.8 L 388.3 212.05 L 387.7 211.55 L 387.4 210.85 L 384.9 188.6 L 385.0 187.95 L 390.1 172.45 L 390.65 171.7 C 390.88333 171.5 391.16666 171.4 391.5 171.4 L 425.5 171.4 L 426.4 171.7 L 426.95 172.45 Z M 388.6 207.7 L 388.9 210.65 L 395.15 213.4 L 421.85 213.4 L 428.1 210.65 L 430.05 193.35 L 430.6 188.4 L 425.5 172.9 L 391.5 172.9 L 387.85 184.0 L 386.4 188.4 L 388.6 207.7 Z"/>
			<path fill="#D0D0D0" stroke-linecap="round" stroke-linejoin="round" d="M 401.35 188.4 L 404.6 191.65 L 388.6 207.7 L 386.4 188.4 L 401.35 188.4 Z M 416.25 210.65 L 411.5 202.05 L 430.05 193.35 L 428.1 210.65 L 416.25 210.65 Z"/>
			<path fill="#CCCCCC" stroke-linecap="round" stroke-linejoin="round" d="M 404.6 191.65 L 401.35 188.4 L 430.6 188.4 L 430.05 193.35 L 411.5 202.05 L 416.25 210.65 L 388.9 210.65 L 388.6 207.7 L 404.6 191.65 Z"/>
			<path fill="#B7B7B7" stroke-linecap="round" stroke-linejoin="round" d="M 388.9 210.65 L 416.25 210.65 L 428.1 210.65 L 421.85 213.4 L 395.15 213.4 L 388.9 210.65 Z M 427.4 185.55 L 427.65 186.1 L 427.4 186.6 L 426.9 186.85 L 426.35 186.6 L 426.15 186.1 L 426.35 185.55 L 426.9 185.35 L 427.4 185.55 Z M 390.0 185.35 L 390.5 185.55 L 390.75 186.1 L 390.5 186.6 L 390.0 186.85 L 389.45 186.6 L 389.25 186.1 L 389.45 185.55 L 390.0 185.35 Z"/>
			<path fill="#D9D9D9" stroke-linecap="round" stroke-linejoin="round" d="M 430.6 188.4 L 401.35 188.4 L 392.4 179.45 L 387.85 184.0 L 391.5 172.9 L 425.5 172.9 L 430.6 188.4 Z M 427.65 186.1 L 427.4 185.55 L 426.9 185.35 L 426.35 185.55 L 426.15 186.1 L 426.35 186.6 L 426.9 186.85 L 427.4 186.6 L 427.65 186.1 Z"/>
			<path fill="#DDDDDD" stroke-linecap="round" stroke-linejoin="round" d="M 392.4 179.45 L 401.35 188.4 L 386.4 188.4 L 387.85 184.0 L 392.4 179.45 Z M 390.5 185.55 L 390.0 185.35 L 389.45 185.55 L 389.25 186.1 L 389.45 186.6 L 390.0 186.85 L 390.5 186.6 L 390.75 186.1 L 390.5 185.55 Z"/>
			<path fill="#A2A2A2" stroke-linecap="round" stroke-linejoin="round" d="M 235.7 208.4 C 236.1 208.4 236.45001 208.55 236.75 208.85 C 237.05 209.15001 237.2 209.5 237.2 209.9 L 237.2 219.9 L 237.0 220.65 L 236.45 221.2 L 229.2 225.3 L 229.2 273.4 C 229.2 273.8 229.05 274.15 228.75 274.45 L 227.7 274.9 L 224.45 274.9 C 224.05 274.9 223.7 274.75 223.4 274.45 C 223.06667 274.15 222.9 273.8 222.9 273.4 L 222.9 221.15 C 222.9 220.75 223.06667 220.40001 223.4 220.1 L 234.65 208.85 C 234.95 208.55 235.3 208.4 235.7 208.4 Z M 235.7 219.9 L 235.7 209.9 L 224.45 221.15 L 224.45 273.4 L 227.7 273.4 L 227.7 224.4 L 235.7 219.9 Z"/>
			<path fill="#CCCCCC" stroke-linecap="round" stroke-linejoin="round" d="M 235.7 209.9 L 235.7 219.9 L 227.7 224.4 L 227.7 273.4 L 224.45 273.4 L 224.45 221.15 L 235.7 209.9 Z"/>
			<path fill="#A2A2A2" stroke-linecap="round" stroke-linejoin="round" d="M 272.8 208.4 C 273.76666 208.43333 274.58334 208.81667 275.25 209.55 L 283.0 218.05 C 283.6 218.71667 283.9 219.5 283.9 220.4 L 283.9 256.2 C 283.9 256.76666 283.76666 257.31665 283.5 257.85 L 282.45 259.1 L 264.4 271.6 C 263.6 272.13333 262.73334 272.31665 261.8 272.15 C 260.83334 271.98334 260.08334 271.51666 259.55 270.75 C 258.98334 269.91666 258.78336 269.03333 258.95 268.1 C 259.11667 267.13333 259.6 266.38333 260.4 265.85 L 276.9 254.4 L 276.9 221.75 L 270.1 214.25 C 269.43335 213.55 269.11667 212.73334 269.15 211.8 C 269.18335 210.8 269.56668 209.98334 270.3 209.35 C 271.0 208.68333 271.83334 208.36667 272.8 208.4 Z M 283.5 257.85 L 283.5 257.8 Z M 282.45 259.1 L 282.4 259.1 Z M 259.55 270.75 L 259.55 270.7 Z M 270.1 214.25 L 270.1 214.3 Z M 269.15 211.8 L 269.15 211.75 Z M 272.75 209.9 C 272.18332 209.86667 271.69998 210.05 271.3 210.45 C 270.9 210.81667 270.68332 211.28334 270.65 211.85 C 270.61667 212.38333 270.80002 212.84999 271.2 213.25 L 278.4 221.2 L 278.4 255.15 L 261.25 267.05 C 260.78333 267.38333 260.51666 267.81668 260.45 268.35 C 260.35 268.88333 260.45 269.38333 260.75 269.85 C 261.08334 270.31665 261.51666 270.59998 262.05 270.7 L 263.55 270.35 L 281.55 257.85 L 282.2 257.15 L 282.4 256.2 L 282.4 220.4 C 282.4 219.86667 282.23334 219.41667 281.9 219.05 L 274.15 210.55 C 273.75 210.15 273.28333 209.93332 272.75 209.9 Z"/>
			<path fill="#CCCCCC" stroke-linecap="round" stroke-linejoin="round" d="M 271.3 210.45 C 271.69998 210.05 272.18332 209.86667 272.75 209.9 C 273.28333 209.93333 273.75 210.15001 274.15 210.55 L 281.9 219.05 C 282.23334 219.41667 282.4 219.86667 282.4 220.4 L 282.4 256.2 L 282.2 257.15 L 281.55 257.85 L 263.55 270.35 L 262.05 270.7 C 261.51666 270.6 261.08334 270.31668 260.75 269.85 C 260.44998 269.38333 260.34998 268.88333 260.45 268.35 C 260.51666 267.81665 260.78333 267.3833 261.25 267.05 L 278.4 255.15 L 278.4 221.2 L 271.2 213.25 C 270.80002 212.84999 270.61667 212.38333 270.65 211.85 C 270.68335 211.28334 270.90002 210.81667 271.3 210.45 Z"/>
			<path fill="#BBBBBB" stroke-linecap="round" stroke-linejoin="round" d="M 311.5 234.25 L 319.15 240.5 L 331.95 249.3 L 318.4 241.45 L 311.5 234.25 Z M 308.8 226.95 L 316.45 233.2 L 329.25 242.0 L 315.7 234.15 L 308.8 226.95 Z"/>
			<path fill="#999999" stroke-linecap="round" stroke-linejoin="round" d="M 319.15 240.5 L 311.5 234.25 L 320.25 239.6 L 331.95 249.3 L 319.15 240.5 Z M 316.45 233.2 L 308.8 226.95 L 317.55 232.3 L 329.25 242.0 L 316.45 233.2 Z"/>
			<path fill="#999999" stroke-linecap="round" stroke-linejoin="round" d="M 346.4 243.55 L 352.65 235.45 L 362.4 231.55 L 356.15 237.7 L 346.4 243.55 Z"/>
			<path fill="#BBBBBB" stroke-linecap="round" stroke-linejoin="round" d="M 362.4 231.55 L 356.5 239.55 L 346.4 243.55 L 356.15 237.7 L 362.4 231.55 Z"/>
			<path fill="url(#Grad3)" stroke-linecap="round" stroke-linejoin="round" d="M 226.95 152.2 L 227.3 155.2 C 227.3 157.13333 226.63333 158.76666 225.3 160.1 C 224.0 161.40001 222.45 162.08334 220.65 162.15 C 218.84999 162.08333 217.29999 161.4 216.0 160.1 C 214.66667 158.76668 214.0 157.13335 214.0 155.2 C 214.0 154.2 214.11667 153.2 214.35 152.2 L 220.65 125.05 L 226.95 152.2 Z"/>
		</g>
	</g>
</svg>
