<svg xmlns="http://www.w3.org/2000/svg" xmlns:xlink="http://www.w3.org/1999/xlink">
  <defs/>
  <g>
    <path stroke="none" fill="#9EA4AD" d="M370 314.05 L370 399.95 Q370 403.45 368.15 405.15 366.45 407 362.9 407 L277.05 407 Q270 407 270 399.95 L270 314.05 Q270 307 277.05 307 L362.9 307 Q366.45 307 368.15 308.85 370 310.55 370 314.05 M368 314.05 Q368 309 362.9 309 L277.05 309 Q272 309 272 314.05 L272 399.95 Q272 405 277.05 405 L362.9 405 Q368 405 368 399.95 L368 314.05"/>
    <path stroke="none" fill="#D6DDE7" d="M362.9 311 Q366 311 366 314.05 L366 399.95 Q366 403 362.9 403 L277.05 403 Q274 403 274 399.95 L274 314.05 Q274 311 277.05 311 L362.9 311"/>
    <path stroke="none" fill="#ECF2FA" d="M362.9 311 L277.05 311 Q274 311 274 314.05 L274 399.95 Q274 403 277.05 403 L362.9 403 Q366 403 366 399.95 L366 314.05 Q366 311 362.9 311 M368 314.05 L368 399.95 Q368 405 362.9 405 L277.05 405 Q272 405 272 399.95 L272 314.05 Q272 309 277.05 309 L362.9 309 Q368 309 368 314.05"/>
    <path stroke="none" fill="#9EA4AD" d="M280 315 Q280 315.85 279.4 316.4 278.85 317 278 317 277.15 317 276.55 316.4 276 315.85 276 315 276 314.15 276.55 313.55 277.15 313 278 313 278.85 313 279.4 313.55 280 314.15 280 315"/>
    <path stroke="none" fill="#9EA4AD" d="M363.4 316.4 Q362.85 317 362 317 361.15 317 360.55 316.4 360 315.85 360 315 360 314.15 360.55 313.55 361.15 313 362 313 362.85 313 363.4 313.55 364 314.15 364 315 364 315.85 363.4 316.4"/>
    <path stroke="none" fill="#9EA4AD" d="M279.4 400.4 Q278.85 401 278 401 277.15 401 276.55 400.4 276 399.85 276 399 276 398.15 276.55 397.55 277.15 397 278 397 278.85 397 279.4 397.55 280 398.15 280 399 280 399.85 279.4 400.4"/>
    <path stroke="none" fill="#9EA4AD" d="M362 401 Q361.15 401 360.55 400.4 360 399.85 360 399 360 398.15 360.55 397.55 361.15 397 362 397 362.85 397 363.4 397.55 364 398.15 364 399 364 399.85 363.4 400.4 362.85 401 362 401"/>
    <path stroke="none" fill="#FA8132" d="M382 335.25 L382 314.05 Q382 309 387.05 309 L439.4 309 438.6 311 387.05 311 Q384 311 384 314.05 L384 335.25 382 335.25"/>
    <path stroke="none" fill="#ECF2FA" d="M382 335.25 L384 335.25 429.3 335.25 428.5 337.25 384 337.25 384 399.95 Q384 403 387.05 403 L472.9 403 Q476 403 476 399.95 L476 314.05 Q476 311 472.9 311 L438.6 311 439.4 309 472.9 309 Q478 309 478 314.05 L478 399.95 Q478 405 472.9 405 L387.05 405 Q382 405 382 399.95 L382 335.25"/>
    <path stroke="none" fill="#9EA4AD" d="M382 335.25 L382 399.95 Q382 405 387.05 405 L472.9 405 Q478 405 478 399.95 L478 314.05 Q478 309 472.9 309 L439.4 309 440.15 307 472.9 307 Q476.45 307 478.15 308.85 480 310.55 480 314.05 L480 399.95 Q480 403.45 478.15 405.15 476.45 407 472.9 407 L387.05 407 Q380 407 380 399.95 L380 335.25 382 335.25"/>
    <path stroke="none" fill="#CD5D12" d="M382 335.25 L380 335.25 380 314.05 Q380 307 387.05 307 L440.15 307 439.4 309 387.05 309 Q382 309 382 314.05 L382 335.25"/>
    <path stroke="none" fill="#E86A17" d="M384 335.25 L384 314.05 Q384 311 387.05 311 L438.6 311 429.3 335.25 384 335.25"/>
    <path stroke="none" fill="#D6DDE7" d="M429.3 335.25 L438.6 311 472.9 311 Q476 311 476 314.05 L476 399.95 Q476 403 472.9 403 L387.05 403 Q384 403 384 399.95 L384 337.25 428.5 337.25 429.3 335.25"/>
    <path stroke="none" fill="#9EA4AD" d="M472 317 Q471.15 317 470.55 316.4 470 315.85 470 315 470 314.15 470.55 313.55 471.15 313 472 313 472.85 313 473.4 313.55 474 314.15 474 315 474 315.85 473.4 316.4 472.85 317 472 317"/>
    <path stroke="none" fill="#9EA4AD" d="M388 401 Q387.15 401 386.55 400.4 386 399.85 386 399 386 398.15 386.55 397.55 387.15 397 388 397 388.85 397 389.4 397.55 390 398.15 390 399 390 399.85 389.4 400.4 388.85 401 388 401"/>
    <path stroke="none" fill="#9EA4AD" d="M470.55 400.4 Q470 399.85 470 399 470 398.15 470.55 397.55 471.15 397 472 397 472.85 397 473.4 397.55 474 398.15 474 399 474 399.85 473.4 400.4 472.85 401 472 401 471.15 401 470.55 400.4"/>
    <path stroke="none" fill="#9EA4AD" d="M440.15 417 L472.9 417 Q476.45 417 478.15 418.85 480 420.55 480 424.05 L480 509.95 Q480 513.45 478.15 515.15 476.45 517 472.9 517 L387.05 517 Q380 517 380 509.95 L380 445.25 382 445.25 382 509.95 Q382 515 387.05 515 L472.9 515 Q478 515 478 509.95 L478 424.05 Q478 419 472.9 419 L439.4 419 440.15 417"/>
    <path stroke="none" fill="#ECF2FA" d="M439.4 419 L472.9 419 Q478 419 478 424.05 L478 509.95 Q478 515 472.9 515 L387.05 515 Q382 515 382 509.95 L382 445.25 384 445.25 429.3 445.25 428.5 447.25 384 447.25 384 509.95 Q384 513 387.05 513 L472.9 513 Q476 513 476 509.95 L476 424.05 Q476 421 472.9 421 L438.6 421 439.4 419"/>
    <path stroke="none" fill="#D6DDE7" d="M438.6 421 L472.9 421 Q476 421 476 424.05 L476 509.95 Q476 513 472.9 513 L387.05 513 Q384 513 384 509.95 L384 447.25 428.5 447.25 429.3 445.25 438.6 421"/>
    <path stroke="none" fill="#CDA400" d="M380 445.25 L380 424.05 Q380 417 387.05 417 L440.15 417 439.4 419 387.05 419 Q382 419 382 424.05 L382 445.25 380 445.25"/>
    <path stroke="none" fill="#FFD948" d="M384 445.25 L382 445.25 382 424.05 Q382 419 387.05 419 L439.4 419 438.6 421 387.05 421 Q384 421 384 424.05 L384 445.25"/>
    <path stroke="none" fill="#FFCC00" d="M384 445.25 L384 424.05 Q384 421 387.05 421 L438.6 421 429.3 445.25 384 445.25"/>
    <path stroke="none" fill="#9EA4AD" d="M470.55 426.4 Q470 425.85 470 425 470 424.15 470.55 423.55 471.15 423 472 423 472.85 423 473.4 423.55 474 424.15 474 425 474 425.85 473.4 426.4 472.85 427 472 427 471.15 427 470.55 426.4"/>
    <path stroke="none" fill="#9EA4AD" d="M386.55 510.4 Q386 509.85 386 509 386 508.15 386.55 507.55 387.15 507 388 507 388.85 507 389.4 507.55 390 508.15 390 509 390 509.85 389.4 510.4 388.85 511 388 511 387.15 511 386.55 510.4"/>
    <path stroke="none" fill="#9EA4AD" d="M470 509 Q470 508.15 470.55 507.55 471.15 507 472 507 472.85 507 473.4 507.55 474 508.15 474 509 474 509.85 473.4 510.4 472.85 511 472 511 471.15 511 470.55 510.4 470 509.85 470 509"/>
    <path stroke="none" fill="#9EA4AD" d="M550.15 417 L582.9 417 Q586.45 417 588.15 418.85 590 420.55 590 424.05 L590 509.95 Q590 513.45 588.15 515.15 586.45 517 582.9 517 L497.05 517 Q490 517 490 509.95 L490 445.25 492 445.25 492 509.95 Q492 515 497.05 515 L582.9 515 Q588 515 588 509.95 L588 424.05 Q588 419 582.9 419 L549.4 419 550.15 417"/>
    <path stroke="none" fill="#ECF2FA" d="M549.4 419 L582.9 419 Q588 419 588 424.05 L588 509.95 Q588 515 582.9 515 L497.05 515 Q492 515 492 509.95 L492 445.25 494 445.25 539.3 445.25 538.5 447.25 494 447.25 494 509.95 Q494 513 497.05 513 L582.9 513 Q586 513 586 509.95 L586 424.05 Q586 421 582.9 421 L548.6 421 549.4 419"/>
    <path stroke="none" fill="#D6DDE7" d="M548.6 421 L582.9 421 Q586 421 586 424.05 L586 509.95 Q586 513 582.9 513 L497.05 513 Q494 513 494 509.95 L494 447.25 538.5 447.25 539.3 445.25 548.6 421"/>
    <path stroke="none" fill="#88E060" d="M548.6 421 L497.05 421 Q494 421 494 424.05 L494 445.25 492 445.25 492 424.05 Q492 419 497.05 419 L549.4 419 548.6 421"/>
    <path stroke="none" fill="#5FB13A" d="M490 445.25 L490 424.05 Q490 417 497.05 417 L550.15 417 549.4 419 497.05 419 Q492 419 492 424.05 L492 445.25 490 445.25"/>
    <path stroke="none" fill="#73CD4B" d="M548.6 421 L539.3 445.25 494 445.25 494 424.05 Q494 421 497.05 421 L548.6 421"/>
    <path stroke="none" fill="#9EA4AD" d="M580 425 Q580 424.15 580.55 423.55 581.15 423 582 423 582.85 423 583.4 423.55 584 424.15 584 425 584 425.85 583.4 426.4 582.85 427 582 427 581.15 427 580.55 426.4 580 425.85 580 425"/>
    <path stroke="none" fill="#9EA4AD" d="M496 509 Q496 508.15 496.55 507.55 497.15 507 498 507 498.85 507 499.4 507.55 500 508.15 500 509 500 509.85 499.4 510.4 498.85 511 498 511 497.15 511 496.55 510.4 496 509.85 496 509"/>
    <path stroke="none" fill="#9EA4AD" d="M580.55 507.55 Q581.15 507 582 507 582.85 507 583.4 507.55 584 508.15 584 509 584 509.85 583.4 510.4 582.85 511 582 511 581.15 511 580.55 510.4 580 509.85 580 509 580 508.15 580.55 507.55"/>
    <path stroke="none" fill="#1989B8" d="M549.4 309 L497.05 309 Q492 309 492 314.05 L492 335.25 490 335.25 490 314.05 Q490 307 497.05 307 L550.15 307 549.4 309"/>
    <path stroke="none" fill="#9EA4AD" d="M549.4 309 L550.15 307 582.9 307 Q586.45 307 588.15 308.85 590 310.55 590 314.05 L590 399.95 Q590 403.45 588.15 405.15 586.45 407 582.9 407 L497.05 407 Q490 407 490 399.95 L490 335.25 492 335.25 492 399.95 Q492 405 497.05 405 L582.9 405 Q588 405 588 399.95 L588 314.05 Q588 309 582.9 309 L549.4 309"/>
    <path stroke="none" fill="#35BAF3" d="M549.4 309 L548.6 311 497.05 311 Q494 311 494 314.05 L494 335.25 492 335.25 492 314.05 Q492 309 497.05 309 L549.4 309"/>
    <path stroke="none" fill="#ECF2FA" d="M549.4 309 L582.9 309 Q588 309 588 314.05 L588 399.95 Q588 405 582.9 405 L497.05 405 Q492 405 492 399.95 L492 335.25 494 335.25 539.3 335.25 538.5 337.25 494 337.25 494 399.95 Q494 403 497.05 403 L582.9 403 Q586 403 586 399.95 L586 314.05 Q586 311 582.9 311 L548.6 311 549.4 309"/>
    <path stroke="none" fill="#D6DDE7" d="M539.3 335.25 L548.6 311 582.9 311 Q586 311 586 314.05 L586 399.95 Q586 403 582.9 403 L497.05 403 Q494 403 494 399.95 L494 337.25 538.5 337.25 539.3 335.25"/>
    <path stroke="none" fill="#1EA7E1" d="M539.3 335.25 L494 335.25 494 314.05 Q494 311 497.05 311 L548.6 311 539.3 335.25"/>
    <path stroke="none" fill="#9EA4AD" d="M580.55 316.4 Q580 315.85 580 315 580 314.15 580.55 313.55 581.15 313 582 313 582.85 313 583.4 313.55 584 314.15 584 315 584 315.85 583.4 316.4 582.85 317 582 317 581.15 317 580.55 316.4"/>
    <path stroke="none" fill="#9EA4AD" d="M496.55 400.4 Q496 399.85 496 399 496 398.15 496.55 397.55 497.15 397 498 397 498.85 397 499.4 397.55 500 398.15 500 399 500 399.85 499.4 400.4 498.85 401 498 401 497.15 401 496.55 400.4"/>
    <path stroke="none" fill="#9EA4AD" d="M580 399 Q580 398.15 580.55 397.55 581.15 397 582 397 582.85 397 583.4 397.55 584 398.15 584 399 584 399.85 583.4 400.4 582.85 401 582 401 581.15 401 580.55 400.4 580 399.85 580 399"/>
    <path stroke="none" fill="#CD5D12" d="M600 335.25 L600 314.05 Q600 307 607.05 307 L692.9 307 Q696.45 307 698.15 308.85 700 310.55 700 314.05 L700 335.25 698 335.25 698 314.05 Q698 309 692.9 309 L607.05 309 Q602 309 602 314.05 L602 335.25 600 335.25"/>
    <path stroke="none" fill="#E86A17" d="M604 335.25 L604 314.05 Q604 311 607.05 311 L692.9 311 Q696 311 696 314.05 L696 335.25 604 335.25"/>
    <path stroke="none" fill="#FA8132" d="M604 335.25 L602 335.25 602 314.05 Q602 309 607.05 309 L692.9 309 Q698 309 698 314.05 L698 335.25 696 335.25 696 314.05 Q696 311 692.9 311 L607.05 311 Q604 311 604 314.05 L604 335.25"/>
    <path stroke="none" fill="#9EA4AD" d="M700 335.25 L700 399.95 Q700 403.45 698.15 405.15 696.45 407 692.9 407 L607.05 407 Q600 407 600 399.95 L600 335.25 602 335.25 602 399.95 Q602 405 607.05 405 L692.9 405 Q698 405 698 399.95 L698 335.25 700 335.25"/>
    <path stroke="none" fill="#ECF2FA" d="M604 335.25 L696 335.25 698 335.25 698 399.95 Q698 405 692.9 405 L607.05 405 Q602 405 602 399.95 L602 335.25 604 335.25 M696 399.95 L696 337.25 604 337.25 604 399.95 Q604 403 607.05 403 L692.9 403 Q696 403 696 399.95"/>
    <path stroke="none" fill="#D6DDE7" d="M696 399.95 Q696 403 692.9 403 L607.05 403 Q604 403 604 399.95 L604 337.25 696 337.25 696 399.95"/>
    <path stroke="none" fill="#9EA4AD" d="M609.4 397.55 Q610 398.15 610 399 610 399.85 609.4 400.4 608.85 401 608 401 607.15 401 606.55 400.4 606 399.85 606 399 606 398.15 606.55 397.55 607.15 397 608 397 608.85 397 609.4 397.55"/>
    <path stroke="none" fill="#9EA4AD" d="M690 399 Q690 398.15 690.55 397.55 691.15 397 692 397 692.85 397 693.4 397.55 694 398.15 694 399 694 399.85 693.4 400.4 692.85 401 692 401 691.15 401 690.55 400.4 690 399.85 690 399"/>
    <path stroke="none" fill="#35BAF3" d="M712 335.25 L712 314.05 Q712 309 717.05 309 L802.9 309 Q808 309 808 314.05 L808 335.25 806 335.25 806 314.05 Q806 311 802.9 311 L717.05 311 Q714 311 714 314.05 L714 335.25 712 335.25"/>
    <path stroke="none" fill="#ECF2FA" d="M712 335.25 L714 335.25 806 335.25 808 335.25 808 399.95 Q808 405 802.9 405 L717.05 405 Q712 405 712 399.95 L712 335.25 M714 337.25 L714 399.95 Q714 403 717.05 403 L802.9 403 Q806 403 806 399.95 L806 337.25 714 337.25"/>
    <path stroke="none" fill="#1EA7E1" d="M714 335.25 L714 314.05 Q714 311 717.05 311 L802.9 311 Q806 311 806 314.05 L806 335.25 714 335.25"/>
    <path stroke="none" fill="#1989B8" d="M808 335.25 L808 314.05 Q808 309 802.9 309 L717.05 309 Q712 309 712 314.05 L712 335.25 710 335.25 710 314.05 Q710 307 717.05 307 L802.9 307 Q806.45 307 808.15 308.85 810 310.55 810 314.05 L810 335.25 808 335.25"/>
    <path stroke="none" fill="#9EA4AD" d="M808 335.25 L810 335.25 810 399.95 Q810 403.45 808.15 405.15 806.45 407 802.9 407 L717.05 407 Q710 407 710 399.95 L710 335.25 712 335.25 712 399.95 Q712 405 717.05 405 L802.9 405 Q808 405 808 399.95 L808 335.25"/>
    <path stroke="none" fill="#D6DDE7" d="M714 337.25 L806 337.25 806 399.95 Q806 403 802.9 403 L717.05 403 Q714 403 714 399.95 L714 337.25"/>
    <path stroke="none" fill="#9EA4AD" d="M716 399 Q716 398.15 716.55 397.55 717.15 397 718 397 718.85 397 719.4 397.55 720 398.15 720 399 720 399.85 719.4 400.4 718.85 401 718 401 717.15 401 716.55 400.4 716 399.85 716 399"/>
    <path stroke="none" fill="#9EA4AD" d="M800.55 397.55 Q801.15 397 802 397 802.85 397 803.4 397.55 804 398.15 804 399 804 399.85 803.4 400.4 802.85 401 802 401 801.15 401 800.55 400.4 800 399.85 800 399 800 398.15 800.55 397.55"/>
    <path stroke="none" fill="#5FB13A" d="M710 445.25 L710 424.05 Q710 417 717.05 417 L802.9 417 Q806.45 417 808.15 418.85 810 420.55 810 424.05 L810 445.25 808 445.25 808 424.05 Q808 419 802.9 419 L717.05 419 Q712 419 712 424.05 L712 445.25 710 445.25"/>
    <path stroke="none" fill="#9EA4AD" d="M710 445.25 L712 445.25 712 509.95 Q712 515 717.05 515 L802.9 515 Q808 515 808 509.95 L808 445.25 810 445.25 810 509.95 Q810 513.45 808.15 515.15 806.45 517 802.9 517 L717.05 517 Q710 517 710 509.95 L710 445.25"/>
    <path stroke="none" fill="#88E060" d="M712 445.25 L712 424.05 Q712 419 717.05 419 L802.9 419 Q808 419 808 424.05 L808 445.25 806 445.25 806 424.05 Q806 421 802.9 421 L717.05 421 Q714 421 714 424.05 L714 445.25 712 445.25"/>
    <path stroke="none" fill="#ECF2FA" d="M712 445.25 L714 445.25 806 445.25 808 445.25 808 509.95 Q808 515 802.9 515 L717.05 515 Q712 515 712 509.95 L712 445.25 M717.05 513 L802.9 513 Q806 513 806 509.95 L806 447.25 714 447.25 714 509.95 Q714 513 717.05 513"/>
    <path stroke="none" fill="#73CD4B" d="M714 445.25 L714 424.05 Q714 421 717.05 421 L802.9 421 Q806 421 806 424.05 L806 445.25 714 445.25"/>
    <path stroke="none" fill="#D6DDE7" d="M717.05 513 Q714 513 714 509.95 L714 447.25 806 447.25 806 509.95 Q806 513 802.9 513 L717.05 513"/>
    <path stroke="none" fill="#9EA4AD" d="M716.55 507.55 Q717.15 507 718 507 718.85 507 719.4 507.55 720 508.15 720 509 720 509.85 719.4 510.4 718.85 511 718 511 717.15 511 716.55 510.4 716 509.85 716 509 716 508.15 716.55 507.55"/>
    <path stroke="none" fill="#9EA4AD" d="M802 507 Q802.85 507 803.4 507.55 804 508.15 804 509 804 509.85 803.4 510.4 802.85 511 802 511 801.15 511 800.55 510.4 800 509.85 800 509 800 508.15 800.55 507.55 801.15 507 802 507"/>
    <path stroke="none" fill="#CDA400" d="M600 445.25 L600 424.05 Q600 417 607.05 417 L692.9 417 Q696.45 417 698.15 418.85 700 420.55 700 424.05 L700 445.25 698 445.25 698 424.05 Q698 419 692.9 419 L607.05 419 Q602 419 602 424.05 L602 445.25 600 445.25"/>
    <path stroke="none" fill="#FFCC00" d="M604 445.25 L604 424.05 Q604 421 607.05 421 L692.9 421 Q696 421 696 424.05 L696 445.25 604 445.25"/>
    <path stroke="none" fill="#FFD948" d="M604 445.25 L602 445.25 602 424.05 Q602 419 607.05 419 L692.9 419 Q698 419 698 424.05 L698 445.25 696 445.25 696 424.05 Q696 421 692.9 421 L607.05 421 Q604 421 604 424.05 L604 445.25"/>
    <path stroke="none" fill="#9EA4AD" d="M700 445.25 L700 509.95 Q700 513.45 698.15 515.15 696.45 517 692.9 517 L607.05 517 Q600 517 600 509.95 L600 445.25 602 445.25 602 509.95 Q602 515 607.05 515 L692.9 515 Q698 515 698 509.95 L698 445.25 700 445.25"/>
    <path stroke="none" fill="#ECF2FA" d="M604 445.25 L696 445.25 698 445.25 698 509.95 Q698 515 692.9 515 L607.05 515 Q602 515 602 509.95 L602 445.25 604 445.25 M696 509.95 L696 447.25 604 447.25 604 509.95 Q604 513 607.05 513 L692.9 513 Q696 513 696 509.95"/>
    <path stroke="none" fill="#D6DDE7" d="M696 509.95 Q696 513 692.9 513 L607.05 513 Q604 513 604 509.95 L604 447.25 696 447.25 696 509.95"/>
    <path stroke="none" fill="#9EA4AD" d="M610 509 Q610 509.85 609.4 510.4 608.85 511 608 511 607.15 511 606.55 510.4 606 509.85 606 509 606 508.15 606.55 507.55 607.15 507 608 507 608.85 507 609.4 507.55 610 508.15 610 509"/>
    <path stroke="none" fill="#9EA4AD" d="M690.55 507.55 Q691.15 507 692 507 692.85 507 693.4 507.55 694 508.15 694 509 694 509.85 693.4 510.4 692.85 511 692 511 691.15 511 690.55 510.4 690 509.85 690 509 690 508.15 690.55 507.55"/>
    <path stroke="none" fill="#B6BEC9" d="M290 426.8 L290 425.05 Q290 418 297.05 418 L362.9 418 Q366.45 418 368.15 419.85 370 421.55 370 425.05 L370 426.7 Q369.9 423.45 368.15 421.85 366.45 420 362.9 420 L297.05 420 Q290.15 420 290 426.8"/>
    <path stroke="none" fill="#C9D0D9" d="M290 426.8 Q290.15 420 297.05 420 L362.9 420 Q366.45 420 368.15 421.85 369.9 423.45 370 426.7 L370 491.2 Q369.95 494.5 368.15 496.15 366.45 498 362.9 498 L297.05 498 Q290.15 498 290 491.2 L290 426.8"/>
    <path stroke="none" fill="#CD5D12" d="M68.1 318 Q68.1 314 64.1 314 L56.95 314 55 314.35 Q52.95 315.15 52.95 318 L52.95 331.95 Q52.95 333.95 53.95 334.95 L55 335.65 56.95 335.95 64.1 335.95 Q66.1 335.95 67.1 334.95 68.1 333.95 68.1 331.95 L68.1 318 M68.55 313.6 Q70.1 315.05 70.1 318 L70.1 331.95 Q70.1 333.7 69.55 334.95 L68.55 336.4 Q67.05 337.95 64.1 337.95 L56.95 337.95 55 337.75 Q53.45 337.4 52.55 336.4 L51.5 334.95 Q50.95 333.7 50.95 331.95 L50.95 318 Q50.95 315.05 52.55 313.6 53.45 312.55 55 312.2 L56.95 312 64.1 312 Q67.05 312 68.55 313.6"/>
    <path stroke="none" fill="#FA8132" d="M68.1 318 L68.1 331.95 Q68.1 333.95 67.1 334.95 66.1 335.95 64.1 335.95 L56.95 335.95 55 335.65 53.95 334.95 Q52.95 333.95 52.95 331.95 L52.95 318 Q52.95 315.15 55 314.35 L56.95 314 64.1 314 Q68.1 314 68.1 318 M55 332.55 Q55.25 333.95 56.95 333.95 L64.1 333.95 Q66.1 333.95 66.1 331.95 L66.1 325 54.95 325 54.95 331.95 55 332.55"/>
    <path stroke="none" fill="#E86A17" d="M55 332.55 L54.95 331.95 54.95 325 66.1 325 66.1 331.95 Q66.1 333.95 64.1 333.95 L56.95 333.95 Q55.25 333.95 55 332.55"/>
    <path stroke="none" fill="#1989B8" d="M80.95 318 Q80.95 315.05 82.55 313.6 83.45 312.55 85 312.2 L86.95 312 94.1 312 Q97.05 312 98.55 313.6 100.1 315.05 100.1 318 L100.1 331.95 Q100.1 333.7 99.55 334.95 L98.55 336.4 Q97.05 337.95 94.1 337.95 L86.95 337.95 85 337.75 Q83.45 337.4 82.55 336.4 L81.5 334.95 Q80.95 333.7 80.95 331.95 L80.95 318 M85 314.35 Q82.95 315.15 82.95 318 L82.95 331.95 Q82.95 333.95 83.95 334.95 L85 335.65 86.95 335.95 94.1 335.95 Q96.1 335.95 97.1 334.95 98.1 333.95 98.1 331.95 L98.1 318 Q98.1 314 94.1 314 L86.95 314 85 314.35"/>
    <path stroke="none" fill="#35BAF3" d="M85 314.35 L86.95 314 94.1 314 Q98.1 314 98.1 318 L98.1 331.95 Q98.1 333.95 97.1 334.95 96.1 335.95 94.1 335.95 L86.95 335.95 85 335.65 83.95 334.95 Q82.95 333.95 82.95 331.95 L82.95 318 Q82.95 315.15 85 314.35 M96.1 331.95 L96.1 325 84.95 325 84.95 331.95 85 332.55 Q85.25 333.95 86.95 333.95 L94.1 333.95 Q96.1 333.95 96.1 331.95"/>
    <path stroke="none" fill="#1EA7E1" d="M96.1 331.95 Q96.1 333.95 94.1 333.95 L86.95 333.95 Q85.25 333.95 85 332.55 L84.95 331.95 84.95 325 96.1 325 96.1 331.95"/>
    <path stroke="none" fill="#CDA400" d="M128.55 313.6 Q130.1 315.05 130.1 318 L130.1 331.95 Q130.1 333.7 129.55 334.95 L128.55 336.4 Q127.05 337.95 124.1 337.95 L116.95 337.95 115 337.75 Q113.45 337.4 112.55 336.4 L111.5 334.95 Q110.95 333.7 110.95 331.95 L110.95 318 Q110.95 315.05 112.55 313.6 113.45 312.55 115 312.2 L116.95 312 124.1 312 Q127.05 312 128.55 313.6 M128.1 318 Q128.1 314 124.1 314 L116.95 314 Q115.8 314 115 314.35 112.95 315.15 112.95 318 L112.95 331.95 Q112.95 333.95 113.95 334.95 L115 335.65 116.95 335.95 124.1 335.95 Q126.1 335.95 127.1 334.95 128.1 333.95 128.1 331.95 L128.1 318"/>
    <path stroke="none" fill="#FFD948" d="M128.1 318 L128.1 331.95 Q128.1 333.95 127.1 334.95 126.1 335.95 124.1 335.95 L116.95 335.95 115 335.65 113.95 334.95 Q112.95 333.95 112.95 331.95 L112.95 318 Q112.95 315.15 115 314.35 115.8 314 116.95 314 L124.1 314 Q128.1 314 128.1 318 M126.1 325 L114.95 325 114.95 331.95 115 332.55 Q115.25 333.95 116.95 333.95 L124.1 333.95 Q126.1 333.95 126.1 331.95 L126.1 325"/>
    <path stroke="none" fill="#FFCC00" d="M126.1 325 L126.1 331.95 Q126.1 333.95 124.1 333.95 L116.95 333.95 Q115.25 333.95 115 332.55 L114.95 331.95 114.95 325 126.1 325"/>
    <path stroke="none" fill="#5FB13A" d="M145 314.35 Q142.95 315.15 142.95 318 L142.95 331.95 Q142.95 333.95 143.95 334.95 L145 335.65 146.95 335.95 154.1 335.95 Q156.1 335.95 157.1 334.95 158.1 333.95 158.1 331.95 L158.1 318 Q158.1 314 154.1 314 L146.95 314 Q145.8 314 145 314.35 M145 312.2 L146.95 312 154.1 312 Q157.05 312 158.55 313.6 160.1 315.05 160.1 318 L160.1 331.95 Q160.1 333.7 159.55 334.95 L158.55 336.4 Q157.05 337.95 154.1 337.95 L146.95 337.95 145 337.75 Q143.45 337.4 142.55 336.4 L141.5 334.95 Q140.95 333.7 140.95 331.95 L140.95 318 Q140.95 315.05 142.55 313.6 143.45 312.55 145 312.2"/>
    <path stroke="none" fill="#88E060" d="M145 314.35 Q145.8 314 146.95 314 L154.1 314 Q158.1 314 158.1 318 L158.1 331.95 Q158.1 333.95 157.1 334.95 156.1 335.95 154.1 335.95 L146.95 335.95 145 335.65 143.95 334.95 Q142.95 333.95 142.95 331.95 L142.95 318 Q142.95 315.15 145 314.35 M156.1 325 L144.95 325 144.95 331.95 145 332.55 Q145.25 333.95 146.95 333.95 L154.1 333.95 Q156.1 333.95 156.1 331.95 L156.1 325"/>
    <path stroke="none" fill="#73CD4B" d="M156.1 325 L156.1 331.95 Q156.1 333.95 154.1 333.95 L146.95 333.95 Q145.25 333.95 145 332.55 L144.95 331.95 144.95 325 156.1 325"/>
    <path stroke="none" fill="#B6B6B6" d="M188.1 318 Q188.1 314 184.1 314 L176.95 314 Q175.8 314 175 314.35 172.95 315.15 172.95 318 L172.95 331.95 Q172.95 333.95 173.95 334.95 L175 335.65 176.95 335.95 184.1 335.95 Q186.1 335.95 187.1 334.95 188.1 333.95 188.1 331.95 L188.1 318 M188.55 313.6 Q190.1 315.05 190.1 318 L190.1 331.95 Q190.1 333.7 189.55 334.95 L188.55 336.4 Q187.05 337.95 184.1 337.95 L176.95 337.95 175 337.75 Q173.45 337.4 172.55 336.4 L171.5 334.95 Q170.95 333.7 170.95 331.95 L170.95 318 Q170.95 315.05 172.55 313.6 173.45 312.55 175 312.2 L176.95 312 184.1 312 Q187.05 312 188.55 313.6"/>
    <path stroke="none" fill="#FFFFFF" d="M188.1 318 L188.1 331.95 Q188.1 333.95 187.1 334.95 186.1 335.95 184.1 335.95 L176.95 335.95 175 335.65 173.95 334.95 Q172.95 333.95 172.95 331.95 L172.95 318 Q172.95 315.15 175 314.35 175.8 314 176.95 314 L184.1 314 Q188.1 314 188.1 318 M176.95 333.95 L184.1 333.95 Q186.1 333.95 186.1 331.95 L186.1 325 174.95 325 174.95 331.95 175 332.55 Q175.25 333.95 176.95 333.95"/>
    <path stroke="none" fill="#ECECEC" d="M176.95 333.95 Q175.25 333.95 175 332.55 L174.95 331.95 174.95 325 186.1 325 186.1 331.95 Q186.1 333.95 184.1 333.95 L176.95 333.95"/>
    <path stroke="none" fill="#000000" fill-opacity="0.2" d="M204.5 373.5 Q201 370 201 365 201 360.05 204.5 356.5 208.05 353 213 353 218 353 221.5 356.5 225 360 225 365 225 369.95 221.5 373.45 L221.45 373.5 Q217.95 377 213 377 208 377 204.5 373.5"/>
    <path stroke="none" fill="#000000" fill-opacity="0.2" d="M205 312.2 L206.95 312 214.1 312 Q217.05 312 218.55 313.6 220.1 315.05 220.1 318 L220.1 331.95 Q220.1 333.7 219.55 334.95 L218.55 336.4 Q217.05 337.95 214.1 337.95 L206.95 337.95 205 337.75 Q203.45 337.4 202.55 336.4 L201.5 334.95 Q200.95 333.7 200.95 331.95 L200.95 318 Q200.95 315.05 202.55 313.6 203.45 312.55 205 312.2"/>
    <path stroke="none" fill="#CD5D12" d="M70.05 357.9 Q67.15 355 63 355 58.85 355 55.9 357.9 53 360.85 53 365 53 369.15 55.9 372.05 58.85 375 63 375 67.15 375 70.05 372.05 73 369.15 73 365 73 360.85 70.05 357.9 M71.5 356.5 Q75 360 75 365 75 369.95 71.5 373.45 L71.45 373.5 Q67.95 377 63 377 58 377 54.5 373.5 51 370 51 365 51 360.05 54.5 356.5 58.05 353 63 353 68 353 71.5 356.5"/>
    <path stroke="none" fill="#FA8132" d="M70.05 357.9 Q73 360.85 73 365 73 369.15 70.05 372.05 67.15 375 63 375 58.85 375 55.9 372.05 53 369.15 53 365 53 360.85 55.9 357.9 58.85 355 63 355 67.15 355 70.05 357.9 M68.65 370.65 Q71 368.3 71 365 L55 365 Q55 368.3 57.35 370.65 59.7 373 63 373 66.3 373 68.65 370.65"/>
    <path stroke="none" fill="#E86A17" d="M68.65 370.65 Q66.3 373 63 373 59.7 373 57.35 370.65 55 368.3 55 365 L71 365 Q71 368.3 68.65 370.65"/>
    <path stroke="none" fill="#1989B8" d="M105 365 Q105 369.95 101.5 373.45 L101.45 373.5 Q97.95 377 93 377 88 377 84.5 373.5 81 370 81 365 81 360.05 84.5 356.5 88.05 353 93 353 98 353 101.5 356.5 105 360 105 365 M100.05 357.9 Q97.15 355 93 355 88.85 355 85.9 357.9 83 360.85 83 365 83 369.15 85.9 372.05 88.85 375 93 375 97.15 375 100.05 372.05 103 369.15 103 365 103 360.85 100.05 357.9"/>
    <path stroke="none" fill="#35BAF3" d="M100.05 357.9 Q103 360.85 103 365 103 369.15 100.05 372.05 97.15 375 93 375 88.85 375 85.9 372.05 83 369.15 83 365 83 360.85 85.9 357.9 88.85 355 93 355 97.15 355 100.05 357.9 M85 365 Q85 368.3 87.35 370.65 89.7 373 93 373 96.3 373 98.65 370.65 101 368.3 101 365 L85 365"/>
    <path stroke="none" fill="#1EA7E1" d="M85 365 L101 365 Q101 368.3 98.65 370.65 96.3 373 93 373 89.7 373 87.35 370.65 85 368.3 85 365"/>
    <path stroke="none" fill="#FFD948" d="M113 365 Q113 360.85 115.9 357.9 118.85 355 123 355 127.15 355 130.05 357.9 133 360.85 133 365 133 369.15 130.05 372.05 127.15 375 123 375 118.85 375 115.9 372.05 113 369.15 113 365 M115 365 Q115 368.3 117.35 370.65 119.7 373 123 373 126.3 373 128.65 370.65 131 368.3 131 365 L115 365"/>
    <path stroke="none" fill="#FFCC00" d="M115 365 L131 365 Q131 368.3 128.65 370.65 126.3 373 123 373 119.7 373 117.35 370.65 115 368.3 115 365"/>
    <path stroke="none" fill="#CDA400" d="M111 365 Q111 360.05 114.5 356.5 118.05 353 123 353 128 353 131.5 356.5 135 360 135 365 135 369.95 131.5 373.45 L131.45 373.5 Q127.95 377 123 377 118 377 114.5 373.5 111 370 111 365 M113 365 Q113 369.15 115.9 372.05 118.85 375 123 375 127.15 375 130.05 372.05 133 369.15 133 365 133 360.85 130.05 357.9 127.15 355 123 355 118.85 355 115.9 357.9 113 360.85 113 365"/>
    <path stroke="none" fill="#5FB13A" d="M161.5 356.5 Q165 360 165 365 165 369.95 161.5 373.45 L161.45 373.5 Q157.95 377 153 377 148 377 144.5 373.5 141 370 141 365 141 360.05 144.5 356.5 148.05 353 153 353 158 353 161.5 356.5 M160.05 357.9 Q157.15 355 153 355 148.85 355 145.9 357.9 143 360.85 143 365 143 369.15 145.9 372.05 148.85 375 153 375 157.15 375 160.05 372.05 163 369.15 163 365 163 360.85 160.05 357.9"/>
    <path stroke="none" fill="#88E060" d="M160.05 357.9 Q163 360.85 163 365 163 369.15 160.05 372.05 157.15 375 153 375 148.85 375 145.9 372.05 143 369.15 143 365 143 360.85 145.9 357.9 148.85 355 153 355 157.15 355 160.05 357.9 M158.65 370.65 Q161 368.3 161 365 L145 365 Q145 368.3 147.35 370.65 149.7 373 153 373 156.3 373 158.65 370.65"/>
    <path stroke="none" fill="#73CD4B" d="M158.65 370.65 Q156.3 373 153 373 149.7 373 147.35 370.65 145 368.3 145 365 L161 365 Q161 368.3 158.65 370.65"/>
    <path stroke="none" fill="#B6B6B6" d="M190.05 357.9 Q187.15 355 183 355 178.85 355 175.9 357.9 173 360.85 173 365 173 369.15 175.9 372.05 178.85 375 183 375 187.15 375 190.05 372.05 193 369.15 193 365 193 360.85 190.05 357.9 M191.5 356.5 Q195 360 195 365 195 369.95 191.5 373.45 L191.45 373.5 Q187.95 377 183 377 178 377 174.5 373.5 171 370 171 365 171 360.05 174.5 356.5 178.05 353 183 353 188 353 191.5 356.5"/>
    <path stroke="none" fill="#FFFFFF" d="M190.05 357.9 Q193 360.85 193 365 193 369.15 190.05 372.05 187.15 375 183 375 178.85 375 175.9 372.05 173 369.15 173 365 173 360.85 175.9 357.9 178.85 355 183 355 187.15 355 190.05 357.9 M188.65 370.65 Q191 368.3 191 365 L175 365 Q175 368.3 177.35 370.65 179.7 373 183 373 186.3 373 188.65 370.65"/>
    <path stroke="none" fill="#ECECEC" d="M188.65 370.65 Q186.3 373 183 373 179.7 373 177.35 370.65 175 368.3 175 365 L191 365 Q191 368.3 188.65 370.65"/>
    <path stroke="none" fill="#000000" fill-opacity="0.10196078431372549" d="M174.8 157.05 L174.85 157.6 Q174.8 163.2 172.35 165.95 169.85 169 164.9 168.85 L164.7 168.85 Q161.2 168.35 159.7 165.15 L159.1 163.8 Q150.25 161.25 145.45 154.7 145 154.05 145.1 153.25 145.15 152.8 145.35 152.5 L145.45 152.7 Q150.25 159.25 159.1 161.8 L159.7 163.15 Q161.2 166.35 164.7 166.85 L164.9 166.85 Q169.85 167 172.35 163.95 174.45 161.55 174.8 157.05 M147.85 148.25 L146.1 146.7 Q145.55 146.3 145.4 145.7 145.2 145.05 145.45 144.45 L145.6 144.1 146.1 144.7 Q147.95 146.1 149.2 147.85 L148.95 147.85 Q148.35 147.9 147.85 148.25"/>
    <path stroke="none" fill="#A1A1A1" d="M147.85 148.25 Q148.35 147.9 148.95 147.85 L149.2 147.85 Q147.95 146.1 146.1 144.7 L145.6 144.1 145.4 143.7 Q145.2 143.05 145.45 142.45 146 140.4 149.1 139.15 L148.95 139.2 149 139.15 150 138.95 150.95 139.25 153.95 141.55 Q158.65 140.85 161.8 142.25 L162.55 142.85 Q165.05 146 167.35 151.1 170 152.6 173.45 153.65 L174.5 154.4 Q174.85 154.9 174.85 155.6 L174.8 157.05 Q174.45 161.55 172.35 163.95 169.85 167 164.9 166.85 L164.7 166.85 Q161.2 166.35 159.7 163.15 L159.1 161.8 Q150.25 159.25 145.45 152.7 L145.35 152.5 Q145 151.9 145.1 151.25 145.15 150.45 145.8 149.95 L147.8 148.3 147.85 148.25 M164.95 164.85 Q172.75 165.05 172.85 155.55 168.8 154.3 165.75 152.45 163.5 147.25 161 144.1 159.5 143.45 157.65 143.35 L156.4 143.35 153.95 143.55 153.1 143.7 Q152.2 142.35 149.9 140.95 L149.85 141 Q147.75 141.8 147.3 143.1 151.75 146.5 153.1 151.55 151.1 151.25 149.05 149.85 L147.05 151.5 Q151.75 157.85 160.55 160.1 L161.5 162.3 Q162.55 164.55 164.95 164.85"/>
    <path stroke="none" fill="#E5E5E5" d="M164.95 164.85 Q162.55 164.55 161.5 162.3 L160.55 160.1 Q151.75 157.85 147.05 151.5 L149.05 149.85 Q151.1 151.25 153.1 151.55 151.75 146.5 147.3 143.1 147.75 141.8 149.85 141 L149.9 140.95 Q152.2 142.35 153.1 143.7 L153.95 143.55 156.4 143.35 157.65 143.35 Q159.5 143.45 161 144.1 163.5 147.25 165.75 152.45 168.8 154.3 172.85 155.55 172.75 165.05 164.95 164.85"/>
    <path stroke="none" fill="#B7B7B7" d="M192.95 142 Q193.75 142 194.35 142.55 L210.15 156.8 210.75 157.8 210.7 159 209.95 159.9 208.8 160.25 200.45 160.25 194.25 165.1 Q193.6 165.55 192.85 165.5 192.05 165.45 191.55 164.85 191 164.3 191 163.5 L191 144 Q191 143.2 191.6 142.6 192.15 142 192.95 142 M193 163.5 L199.75 158.25 208.8 158.25 193 144 193 163.5"/>
    <path stroke="none" fill="#FFFFFF" d="M193 163.5 L193 144 208.8 158.25 199.75 158.25 193 163.5"/>
    <path stroke="none" fill="#B7B7B7" d="M221 163.65 L221 144 Q221 143.2 221.6 142.6 222.15 142 222.95 142 223.75 142 224.35 142.55 L240.15 156.8 240.75 157.8 240.7 159 240.15 159.8 239.95 159.9 238.8 160.25 230.45 160.25 224.25 165.1 Q223.6 165.55 222.85 165.5 222.05 165.45 221.55 164.85 221 164.3 221 163.65 M229.75 158.25 L238.8 158.25 223 144 223 163.5 229.75 158.25"/>
    <path stroke="none" fill="#000000" fill-opacity="0.2" d="M240.15 159.8 L240.75 160.8 240.7 162 239.95 162.9 238.8 163.25 230.45 163.25 224.25 168.1 Q223.6 168.55 222.85 168.5 222.05 168.45 221.55 167.85 221 167.3 221 166.5 L221 163.65 Q221 164.3 221.55 164.85 222.05 165.45 222.85 165.5 223.6 165.55 224.25 165.1 L230.45 160.25 238.8 160.25 239.95 159.9 240.15 159.8"/>
    <path stroke="none" fill="#FFFFFF" d="M229.75 158.25 L223 163.5 223 144 238.8 158.25 229.75 158.25"/>
    <path stroke="none" fill="#B7B7B7" d="M193 184 L193 203.5 199.75 198.25 208.8 198.25 193 184 M194.35 182.55 L210.15 196.8 210.75 197.8 210.7 199 209.95 199.9 208.8 200.25 200.45 200.25 194.25 205.1 Q193.6 205.55 192.85 205.5 192.05 205.45 191.55 204.85 191 204.3 191 203.5 L191 184 Q191 183.2 191.6 182.6 192.15 182 192.95 182 193.75 182 194.35 182.55"/>
    <path stroke="none" fill="#E6E6E6" d="M199.75 198.25 L193 203.5 193 184 199.75 198.25"/>
    <path stroke="none" fill="#FFFFFF" d="M193 184 L208.8 198.25 199.75 198.25 193 184"/>
    <path stroke="none" fill="#B7B7B7" d="M221 203.7 L221 184 Q221 183.2 221.6 182.6 222.15 182 222.95 182 223.75 182 224.35 182.55 L240.15 196.8 240.75 197.8 240.7 199 240.15 199.8 239.95 199.9 238.8 200.25 230.45 200.25 224.25 205.1 Q223.6 205.55 222.85 205.5 222.05 205.45 221.55 204.85 221 204.3 221 203.7 M223 184 L223 203.5 229.75 198.25 238.8 198.25 223 184"/>
    <path stroke="none" fill="#000000" fill-opacity="0.2" d="M240.15 199.8 L240.75 200.8 240.7 202 239.95 202.9 238.8 203.25 230.45 203.25 224.25 208.1 Q223.6 208.55 222.85 208.5 222.05 208.45 221.55 207.85 221 207.3 221 206.5 L221 203.7 Q221 204.3 221.55 204.85 222.05 205.45 222.85 205.5 223.6 205.55 224.25 205.1 L230.45 200.25 238.8 200.25 239.95 199.9 240.15 199.8"/>
    <path stroke="none" fill="#E6E6E6" d="M229.75 198.25 L223 203.5 223 184 229.75 198.25"/>
    <path stroke="none" fill="#FFFFFF" d="M229.75 198.25 L223 184 238.8 198.25 229.75 198.25"/>
    <path stroke="none" fill="#333333" d="M288 148 L288 143.05 Q284.55 143.35 281.95 145.95 L281.95 146 Q279.35 148.5 279.05 152 L284 152 284 154 279.05 154 Q279.35 157.55 281.95 160.1 284.55 162.65 288 162.95 L288 158 290 158 290 162.95 292.35 162.5 Q294.4 161.75 296.15 160.1 298.7 157.55 299 154 L294 154 294 152 299 152 Q298.7 148.5 296.15 145.95 294.45 144.25 292.35 143.55 L290 143.05 290 148 288 148 M293 141.65 L292.95 141.65 Q295.45 142.45 297.55 144.55 300.7 147.7 301 152 L304.5 152 304.5 154 301.05 154 Q300.7 158.35 297.55 161.5 L297.55 161.55 Q295.5 163.55 293 164.4 L292.95 164.4 290 165 290 168.5 288 168.5 288 165 Q283.75 164.65 280.55 161.55 277.35 158.4 277.05 154 L273.5 154 273.5 152 277.05 152 Q277.35 147.7 280.55 144.55 283.75 141.35 288 141.05 L288 137.5 290 137.5 290 141.05 293 141.65"/>
    <path stroke="none" fill="#AAE9FF" fill-opacity="0.30196078431372547" d="M338 191.05 L338 187.5 340 187.5 340 191.05 343 191.65 342.95 191.65 Q345.45 192.45 347.55 194.55 350.7 197.7 351 202 L354.5 202 354.5 204 351.05 204 Q350.7 208.35 347.55 211.5 L347.55 211.55 Q345.5 213.55 343 214.4 L342.95 214.4 340 215 340 218.5 338 218.5 338 215 Q333.75 214.65 330.55 211.55 327.35 208.4 327.05 204 L323.5 204 323.5 202 327.05 202 Q327.35 197.7 330.55 194.55 333.75 191.35 338 191.05 M331.95 195.95 L331.95 196 Q329.35 198.5 329.05 202 L334 202 334 204 329.05 204 Q329.35 207.55 331.95 210.1 334.55 212.65 338 212.95 L338 208 340 208 340 212.95 342.35 212.5 Q344.4 211.75 346.15 210.1 348.7 207.55 349 204 L344 204 344 202 349 202 Q348.7 198.5 346.15 195.95 344.45 194.25 342.35 193.55 L340 193.05 340 198 338 198 338 193.05 Q334.55 193.35 331.95 195.95"/>
    <path stroke="none" fill="#E86A17" d="M343 141.65 L342.95 141.65 Q345.45 142.45 347.55 144.55 350.7 147.7 351 152 L354.5 152 354.5 154 351.05 154 Q350.7 158.35 347.55 161.5 L347.55 161.55 Q345.5 163.55 343 164.4 L342.95 164.4 340 165 340 168.5 338 168.5 338 165 Q333.75 164.65 330.55 161.55 327.35 158.4 327.05 154 L323.5 154 323.5 152 327.05 152 Q327.35 147.7 330.55 144.55 333.75 141.35 338 141.05 L338 137.5 340 137.5 340 141.05 343 141.65 M331.95 145.95 L331.95 146 Q329.35 148.5 329.05 152 L334 152 334 154 329.05 154 Q329.35 157.55 331.95 160.1 334.55 162.65 338 162.95 L338 158 340 158 340 162.95 342.35 162.5 Q344.4 161.75 346.15 160.1 348.7 157.55 349 154 L344 154 344 152 349 152 Q348.7 148.5 346.15 145.95 344.45 144.25 342.35 143.55 L340 143.05 340 148 338 148 338 143.05 Q334.55 143.35 331.95 145.95"/>
    <path stroke="none" fill="#FFFFFF" d="M288 187.5 L290 187.5 290 191.05 293 191.65 292.95 191.65 Q295.45 192.45 297.55 194.55 300.7 197.7 301 202 L304.5 202 304.5 204 301.05 204 Q300.7 208.35 297.55 211.5 L297.55 211.55 Q295.5 213.55 293 214.4 L292.95 214.4 290 215 290 218.5 288 218.5 288 215 Q283.75 214.65 280.55 211.55 277.35 208.4 277.05 204 L273.5 204 273.5 202 277.05 202 Q277.35 197.7 280.55 194.55 283.75 191.35 288 191.05 L288 187.5 M281.95 195.95 L281.95 196 Q279.35 198.5 279.05 202 L284 202 284 204 279.05 204 Q279.35 207.55 281.95 210.1 284.55 212.65 288 212.95 L288 208 290 208 290 212.95 292.35 212.5 Q294.4 211.75 296.15 210.1 298.7 207.55 299 204 L294 204 294 202 299 202 Q298.7 198.5 296.15 195.95 294.45 194.25 292.35 193.55 L290 193.05 290 198 288 198 288 193.05 Q284.55 193.35 281.95 195.95"/>
    <path stroke="none" fill="#BDE7F5" fill-opacity="0.8" d="M440 185.5 Q440.85 185.5 441.45 186.1 442 186.65 442 187.5 L442 189.3 443.65 189.75 443.95 189.9 Q446.65 190.85 449 193.15 451.95 196.1 452.75 200 L454.5 200 Q455.35 200 455.95 200.6 456.5 201.15 456.5 202 L456.5 204 Q456.5 204.85 455.95 205.45 455.35 206 454.5 206 L452.8 206 Q452 209.8 449.2 212.75 L448.95 213 Q446.55 215.3 443.65 216.3 L443.3 216.4 442 216.75 442 218.5 Q442 219.35 441.45 219.95 440.85 220.5 440 220.5 L438 220.5 Q437.15 220.5 436.6 219.95 436 219.35 436 218.5 L436 216.75 Q432.15 215.9 429.15 213 426.1 209.95 425.3 206 L423.5 206 Q422.65 206 422.1 205.45 421.5 204.85 421.5 204 L421.5 202 Q421.5 201.15 422.1 200.6 422.65 200 423.5 200 L425.3 200 Q426.1 196.1 429.15 193.15 432.15 190.1 436 189.3 L436 187.5 Q436 186.65 436.6 186.1 437.15 185.5 438 185.5 L440 185.5 M431.95 195.95 Q434.55 193.35 438 193.05 L438 198 440 198 440 193.05 442.35 193.55 Q444.45 194.25 446.15 195.95 448.7 198.5 449 202 L444 202 444 204 449 204 Q448.7 207.55 446.15 210.1 444.4 211.75 442.35 212.5 L440 212.95 440 208 438 208 438 212.95 Q434.55 212.65 431.95 210.1 429.35 207.55 429.05 204 L434 204 434 202 429.05 202 Q429.35 198.5 431.95 196 L431.95 195.95 M443 191.65 L440 191.05 440 187.5 438 187.5 438 191.05 Q433.75 191.35 430.55 194.55 427.35 197.7 427.05 202 L423.5 202 423.5 204 427.05 204 Q427.35 208.4 430.55 211.55 433.75 214.65 438 215 L438 218.5 440 218.5 440 215 442.95 214.4 443 214.4 Q445.5 213.55 447.55 211.55 L447.55 211.5 Q450.7 208.35 451.05 204 L454.5 204 454.5 202 451 202 Q450.7 197.7 447.55 194.55 445.45 192.45 442.95 191.65 L443 191.65"/>
    <path stroke="none" fill="#AAE9FF" fill-opacity="0.30196078431372547" d="M443 191.65 L442.95 191.65 Q445.45 192.45 447.55 194.55 450.7 197.7 451 202 L454.5 202 454.5 204 451.05 204 Q450.7 208.35 447.55 211.5 L447.55 211.55 Q445.5 213.55 443 214.4 L442.95 214.4 440 215 440 218.5 438 218.5 438 215 Q433.75 214.65 430.55 211.55 427.35 208.4 427.05 204 L423.5 204 423.5 202 427.05 202 Q427.35 197.7 430.55 194.55 433.75 191.35 438 191.05 L438 187.5 440 187.5 440 191.05 443 191.65 M431.95 195.95 L431.95 196 Q429.35 198.5 429.05 202 L434 202 434 204 429.05 204 Q429.35 207.55 431.95 210.1 434.55 212.65 438 212.95 L438 208 440 208 440 212.95 442.35 212.5 Q444.4 211.75 446.15 210.1 448.7 207.55 449 204 L444 204 444 202 449 202 Q448.7 198.5 446.15 195.95 444.45 194.25 442.35 193.55 L440 193.05 440 198 438 198 438 193.05 Q434.55 193.35 431.95 195.95"/>
    <path stroke="none" fill="#CD5D12" d="M431.95 145.95 Q434.55 143.35 438 143.05 L438 148 440 148 440 143.05 442.35 143.55 Q444.45 144.25 446.15 145.95 448.7 148.5 449 152 L444 152 444 154 449 154 Q448.7 157.55 446.15 160.1 444.4 161.75 442.35 162.5 L440 162.95 440 158 438 158 438 162.95 Q434.55 162.65 431.95 160.1 429.35 157.55 429.05 154 L434 154 434 152 429.05 152 Q429.35 148.5 431.95 146 L431.95 145.95 M440 135.5 Q440.85 135.5 441.45 136.1 442 136.65 442 137.5 L442 139.3 443.65 139.75 443.95 139.9 Q446.65 140.85 449 143.15 451.95 146.1 452.75 150 L454.5 150 Q455.35 150 455.95 150.6 456.5 151.15 456.5 152 L456.5 154 Q456.5 154.85 455.95 155.45 455.35 156 454.5 156 L452.8 156 Q452 159.8 449.2 162.75 L448.95 163 Q446.55 165.3 443.65 166.3 L443.3 166.4 442 166.75 442 168.5 Q442 169.35 441.45 169.95 440.85 170.5 440 170.5 L438 170.5 Q437.15 170.5 436.6 169.95 436 169.35 436 168.5 L436 166.75 Q432.15 165.9 429.15 163 426.1 159.95 425.3 156 L423.5 156 Q422.65 156 422.1 155.45 421.5 154.85 421.5 154 L421.5 152 Q421.5 151.15 422.1 150.6 422.65 150 423.5 150 L425.3 150 Q426.1 146.1 429.15 143.15 432.15 140.1 436 139.3 L436 137.5 Q436 136.65 436.6 136.1 437.15 135.5 438 135.5 L440 135.5 M443 141.65 L440 141.05 440 137.5 438 137.5 438 141.05 Q433.75 141.35 430.55 144.55 427.35 147.7 427.05 152 L423.5 152 423.5 154 427.05 154 Q427.35 158.4 430.55 161.55 433.75 164.65 438 165 L438 168.5 440 168.5 440 165 442.95 164.4 443 164.4 Q445.5 163.55 447.55 161.55 L447.55 161.5 Q450.7 158.35 451.05 154 L454.5 154 454.5 152 451 152 Q450.7 147.7 447.55 144.55 445.45 142.45 442.95 141.65 L443 141.65"/>
    <path stroke="none" fill="#FA8132" d="M443 141.65 L442.95 141.65 Q445.45 142.45 447.55 144.55 450.7 147.7 451 152 L454.5 152 454.5 154 451.05 154 Q450.7 158.35 447.55 161.5 L447.55 161.55 Q445.5 163.55 443 164.4 L442.95 164.4 440 165 440 168.5 438 168.5 438 165 Q433.75 164.65 430.55 161.55 427.35 158.4 427.05 154 L423.5 154 423.5 152 427.05 152 Q427.35 147.7 430.55 144.55 433.75 141.35 438 141.05 L438 137.5 440 137.5 440 141.05 443 141.65 M431.95 145.95 L431.95 146 Q429.35 148.5 429.05 152 L434 152 434 154 429.05 154 Q429.35 157.55 431.95 160.1 434.55 162.65 438 162.95 L438 158 440 158 440 162.95 442.35 162.5 Q444.4 161.75 446.15 160.1 448.7 157.55 449 154 L444 154 444 152 449 152 Q448.7 148.5 446.15 145.95 444.45 144.25 442.35 143.55 L440 143.05 440 148 438 148 438 143.05 Q434.55 143.35 431.95 145.95"/>
    <path stroke="none" fill="#666666" d="M381.95 145.95 L381.95 146 Q379.35 148.5 379.05 152 L384 152 384 154 379.05 154 Q379.35 157.55 381.95 160.1 384.55 162.65 388 162.95 L388 158 390 158 390 162.95 392.35 162.5 Q394.4 161.75 396.15 160.1 398.7 157.55 399 154 L394 154 394 152 399 152 Q398.7 148.5 396.15 145.95 394.45 144.25 392.35 143.55 L390 143.05 390 148 388 148 388 143.05 Q384.55 143.35 381.95 145.95 M390 137.5 L390 141.05 393 141.65 392.95 141.65 Q395.45 142.45 397.55 144.55 400.7 147.7 401 152 L404.5 152 404.5 154 401.05 154 Q400.7 158.35 397.55 161.5 L397.55 161.55 Q395.5 163.55 393 164.4 L392.95 164.4 390 165 390 168.5 388 168.5 388 165 Q383.75 164.65 380.55 161.55 377.35 158.4 377.05 154 L373.5 154 373.5 152 377.05 152 Q377.35 147.7 380.55 144.55 383.75 141.35 388 141.05 L388 137.5 390 137.5"/>
    <path stroke="none" fill="#414141" d="M390 137.5 L388 137.5 388 141.05 Q383.75 141.35 380.55 144.55 377.35 147.7 377.05 152 L373.5 152 373.5 154 377.05 154 Q377.35 158.4 380.55 161.55 383.75 164.65 388 165 L388 168.5 390 168.5 390 165 392.95 164.4 393 164.4 Q395.5 163.55 397.55 161.55 L397.55 161.5 Q400.7 158.35 401.05 154 L404.5 154 404.5 152 401 152 Q400.7 147.7 397.55 144.55 395.45 142.45 392.95 141.65 L393 141.65 390 141.05 390 137.5 M381.95 145.95 Q384.55 143.35 388 143.05 L388 148 390 148 390 143.05 392.35 143.55 Q394.45 144.25 396.15 145.95 398.7 148.5 399 152 L394 152 394 154 399 154 Q398.7 157.55 396.15 160.1 394.4 161.75 392.35 162.5 L390 162.95 390 158 388 158 388 162.95 Q384.55 162.65 381.95 160.1 379.35 157.55 379.05 154 L384 154 384 152 379.05 152 Q379.35 148.5 381.95 146 L381.95 145.95 M390 135.5 Q390.85 135.5 391.45 136.1 392 136.65 392 137.5 L392 139.3 393.65 139.75 393.95 139.9 Q396.65 140.85 399 143.15 401.95 146.1 402.75 150 L404.5 150 Q405.35 150 405.95 150.6 406.5 151.15 406.5 152 L406.5 154 Q406.5 154.85 405.95 155.45 405.35 156 404.5 156 L402.8 156 Q402 159.8 399.2 162.75 L398.95 163 Q396.55 165.3 393.65 166.3 L393.3 166.4 392 166.75 392 168.5 Q392 169.35 391.45 169.95 390.85 170.5 390 170.5 L388 170.5 Q387.15 170.5 386.6 169.95 386 169.35 386 168.5 L386 166.75 Q382.15 165.9 379.15 163 376.1 159.95 375.3 156 L373.5 156 Q372.65 156 372.1 155.45 371.5 154.85 371.5 154 L371.5 152 Q371.5 151.15 372.1 150.6 372.65 150 373.5 150 L375.3 150 Q376.1 146.1 379.15 143.15 382.15 140.1 386 139.3 L386 137.5 Q386 136.65 386.6 136.1 387.15 135.5 388 135.5 L390 135.5"/>
    <path stroke="none" fill="#FFFFFF" d="M393 191.65 L392.95 191.65 Q395.45 192.45 397.55 194.55 400.7 197.7 401 202 L404.5 202 404.5 204 401.05 204 Q400.7 208.35 397.55 211.5 L397.55 211.55 Q395.5 213.55 393 214.4 L392.95 214.4 390 215 390 218.5 388 218.5 388 215 Q383.75 214.65 380.55 211.55 377.35 208.4 377.05 204 L373.5 204 373.5 202 377.05 202 Q377.35 197.7 380.55 194.55 383.75 191.35 388 191.05 L388 187.5 390 187.5 390 191.05 393 191.65 M381.95 195.95 L381.95 196 Q379.35 198.5 379.05 202 L384 202 384 204 379.05 204 Q379.35 207.55 381.95 210.1 384.55 212.65 388 212.95 L388 208 390 208 390 212.95 392.35 212.5 Q394.4 211.75 396.15 210.1 398.7 207.55 399 204 L394 204 394 202 399 202 Q398.7 198.5 396.15 195.95 394.45 194.25 392.35 193.55 L390 193.05 390 198 388 198 388 193.05 Q384.55 193.35 381.95 195.95"/>
    <path stroke="none" fill="#C9C9C9" d="M381.95 195.95 Q384.55 193.35 388 193.05 L388 198 390 198 390 193.05 392.35 193.55 Q394.45 194.25 396.15 195.95 398.7 198.5 399 202 L394 202 394 204 399 204 Q398.7 207.55 396.15 210.1 394.4 211.75 392.35 212.5 L390 212.95 390 208 388 208 388 212.95 Q384.55 212.65 381.95 210.1 379.35 207.55 379.05 204 L384 204 384 202 379.05 202 Q379.35 198.5 381.95 196 L381.95 195.95 M390 185.5 Q390.85 185.5 391.45 186.1 392 186.65 392 187.5 L392 189.3 393.65 189.75 393.95 189.9 Q396.65 190.85 399 193.15 401.95 196.1 402.75 200 L404.5 200 Q405.35 200 405.95 200.6 406.5 201.15 406.5 202 L406.5 204 Q406.5 204.85 405.95 205.45 405.35 206 404.5 206 L402.8 206 Q402 209.8 399.2 212.75 L398.95 213 Q396.55 215.3 393.65 216.3 L393.3 216.4 392 216.75 392 218.5 Q392 219.35 391.45 219.95 390.85 220.5 390 220.5 L388 220.5 Q387.15 220.5 386.6 219.95 386 219.35 386 218.5 L386 216.75 Q382.15 215.9 379.15 213 376.1 209.95 375.3 206 L373.5 206 Q372.65 206 372.1 205.45 371.5 204.85 371.5 204 L371.5 202 Q371.5 201.15 372.1 200.6 372.65 200 373.5 200 L375.3 200 Q376.1 196.1 379.15 193.15 382.15 190.1 386 189.3 L386 187.5 Q386 186.65 386.6 186.1 387.15 185.5 388 185.5 L390 185.5 M393 191.65 L390 191.05 390 187.5 388 187.5 388 191.05 Q383.75 191.35 380.55 194.55 377.35 197.7 377.05 202 L373.5 202 373.5 204 377.05 204 Q377.35 208.4 380.55 211.55 383.75 214.65 388 215 L388 218.5 390 218.5 390 215 392.95 214.4 393 214.4 Q395.5 213.55 397.55 211.55 L397.55 211.5 Q400.7 208.35 401.05 204 L404.5 204 404.5 202 401 202 Q400.7 197.7 397.55 194.55 395.45 192.45 392.95 191.65 L393 191.65"/>
    <path stroke="none" fill="#FA8132" d="M92.95 73 L92.95 62 Q96.95 62 96.95 66 L96.95 79.95 Q96.95 81.95 95.95 82.95 L95.1 83.55 92.95 83.95 92.95 81.95 Q94.95 81.95 94.95 79.95 L94.95 73 92.95 73"/>
    <path stroke="none" fill="#E86A17" d="M92.95 73 L94.95 73 94.95 79.95 Q94.95 81.95 92.95 81.95 L92.95 73"/>
    <path stroke="none" fill="#CD5D12" d="M92.95 62 L92.95 60 Q95.9 60 97.4 61.6 98.95 63.05 98.95 66 L98.95 79.95 Q98.95 81.7 98.4 82.95 L97.4 84.4 96.85 84.9 Q95.4 85.95 92.95 85.95 L92.95 83.95 95.1 83.55 95.95 82.95 Q96.95 81.95 96.95 79.95 L96.95 66 Q96.95 62 92.95 62"/>
    <path stroke="none" fill="#CD5D12" d="M83 83.95 L83 85.95 67 85.95 67 83.95 83 83.95 M67 62 L67 60 83 60 83 62 67 62"/>
    <path stroke="none" fill="#FA8132" d="M67 62 L83 62 83 73 67 73 67 62 M83 81.95 L83 83.95 67 83.95 67 81.95 83 81.95"/>
    <path stroke="none" fill="#E86A17" d="M83 81.95 L67 81.95 67 73 83 73 83 81.95"/>
    <path stroke="none" fill="#000000" fill-opacity="0.2" d="M55 260.2 L56.95 260 56.95 285.95 55 285.75 Q53.45 285.4 52.55 284.4 L51.5 282.95 Q50.95 281.7 50.95 279.95 L50.95 266 Q50.95 263.05 52.55 261.6 53.45 260.55 55 260.2"/>
    <path stroke="none" fill="#000000" fill-opacity="0.2" d="M83 285.95 L67 285.95 67 260 83 260 83 285.95"/>
    <path stroke="none" fill="#000000" fill-opacity="0.2" d="M96.85 284.9 Q95.4 285.95 92.95 285.95 L92.95 260 Q95.9 260 97.4 261.6 98.95 263.05 98.95 266 L98.95 279.95 Q98.95 281.7 98.4 282.95 L97.4 284.4 96.85 284.9"/>
    <path stroke="none" fill="#E86A17" d="M56.95 81.95 Q55.25 81.95 55 80.55 L54.95 79.95 54.95 73 56.95 73 56.95 81.95"/>
    <path stroke="none" fill="#FA8132" d="M56.95 81.95 L56.95 83.95 55 83.65 53.95 82.95 Q52.95 81.95 52.95 79.95 L52.95 66 Q52.95 63.15 55 62.35 L56.95 62 56.95 73 54.95 73 54.95 79.95 55 80.55 Q55.25 81.95 56.95 81.95"/>
    <path stroke="none" fill="#CD5D12" d="M56.95 62 L55 62.35 Q52.95 63.15 52.95 66 L52.95 79.95 Q52.95 81.95 53.95 82.95 L55 83.65 56.95 83.95 56.95 85.95 55 85.75 Q53.45 85.4 52.55 84.4 L51.5 82.95 Q50.95 81.7 50.95 79.95 L50.95 66 Q50.95 63.05 52.55 61.6 53.45 60.55 55 60.2 L56.95 60 56.95 62"/>
    <path stroke="none" fill="#1989B8" d="M56.95 123.95 L56.95 125.95 55 125.75 Q53.45 125.4 52.55 124.4 L51.5 122.95 Q50.95 121.7 50.95 119.95 L50.95 106 Q50.95 103.05 52.55 101.6 53.45 100.55 55 100.2 L56.95 100 56.95 102 55 102.35 Q52.95 103.15 52.95 106 L52.95 119.95 Q52.95 121.95 53.95 122.95 L55 123.65 56.95 123.95"/>
    <path stroke="none" fill="#35BAF3" d="M56.95 123.95 L55 123.65 53.95 122.95 Q52.95 121.95 52.95 119.95 L52.95 106 Q52.95 103.15 55 102.35 L56.95 102 56.95 113 54.95 113 54.95 119.95 55 120.55 Q55.25 121.95 56.95 121.95 L56.95 123.95"/>
    <path stroke="none" fill="#1EA7E1" d="M56.95 113 L56.95 121.95 Q55.25 121.95 55 120.55 L54.95 119.95 54.95 113 56.95 113"/>
    <path stroke="none" fill="#35BAF3" d="M83 102 L83 113 67 113 67 102 83 102 M83 121.95 L83 123.95 67 123.95 67 121.95 83 121.95"/>
    <path stroke="none" fill="#1EA7E1" d="M83 121.95 L67 121.95 67 113 83 113 83 121.95"/>
    <path stroke="none" fill="#1989B8" d="M67 102 L67 100 83 100 83 102 67 102 M83 123.95 L83 125.95 67 125.95 67 123.95 83 123.95"/>
    <path stroke="none" fill="#1989B8" d="M92.95 123.95 L95.1 123.55 95.95 122.95 Q96.95 121.95 96.95 119.95 L96.95 106 Q96.95 102 92.95 102 L92.95 100 Q95.9 100 97.4 101.6 98.95 103.05 98.95 106 L98.95 119.95 Q98.95 121.7 98.4 122.95 L97.4 124.4 96.85 124.9 Q95.4 125.95 92.95 125.95 L92.95 123.95"/>
    <path stroke="none" fill="#35BAF3" d="M92.95 123.95 L92.95 121.95 Q94.95 121.95 94.95 119.95 L94.95 113 92.95 113 92.95 102 Q96.95 102 96.95 106 L96.95 119.95 Q96.95 121.95 95.95 122.95 L95.1 123.55 92.95 123.95"/>
    <path stroke="none" fill="#1EA7E1" d="M92.95 113 L94.95 113 94.95 119.95 Q94.95 121.95 92.95 121.95 L92.95 113"/>
    <path stroke="none" fill="#CDA400" d="M56.95 142 L55 142.35 Q52.95 143.15 52.95 146 L52.95 159.95 Q52.95 161.95 53.95 162.95 L55 163.65 56.95 163.95 56.95 165.95 55 165.75 Q53.45 165.4 52.55 164.4 L51.5 162.95 Q50.95 161.7 50.95 159.95 L50.95 146 Q50.95 143.05 52.55 141.6 53.45 140.55 55 140.2 L56.95 140 56.95 142"/>
    <path stroke="none" fill="#FFD948" d="M56.95 142 L56.95 153 54.95 153 54.95 159.95 55 160.55 Q55.25 161.95 56.95 161.95 L56.95 163.95 55 163.65 53.95 162.95 Q52.95 161.95 52.95 159.95 L52.95 146 Q52.95 143.15 55 142.35 L56.95 142"/>
    <path stroke="none" fill="#FFCC00" d="M56.95 161.95 Q55.25 161.95 55 160.55 L54.95 159.95 54.95 153 56.95 153 56.95 161.95"/>
    <path stroke="none" fill="#CDA400" d="M67 142 L67 140 83 140 83 142 67 142 M83 163.95 L83 165.95 67 165.95 67 163.95 83 163.95"/>
    <path stroke="none" fill="#FFCC00" d="M83 153 L83 161.95 67 161.95 67 153 83 153"/>
    <path stroke="none" fill="#FFD948" d="M83 153 L67 153 67 142 83 142 83 153 M83 161.95 L83 163.95 67 163.95 67 161.95 83 161.95"/>
    <path stroke="none" fill="#CDA400" d="M92.95 142 L92.95 140 Q95.9 140 97.4 141.6 98.95 143.05 98.95 146 L98.95 159.95 Q98.95 161.7 98.4 162.95 L97.4 164.4 96.85 164.9 Q95.4 165.95 92.95 165.95 L92.95 163.95 95.1 163.55 95.95 162.95 Q96.95 161.95 96.95 159.95 L96.95 146 Q96.95 142 92.95 142"/>
    <path stroke="none" fill="#FFD948" d="M92.95 142 Q96.95 142 96.95 146 L96.95 159.95 Q96.95 161.95 95.95 162.95 L95.1 163.55 92.95 163.95 92.95 161.95 Q94.95 161.95 94.95 159.95 L94.95 153 92.95 153 92.95 142"/>
    <path stroke="none" fill="#FFCC00" d="M92.95 161.95 L92.95 153 94.95 153 94.95 159.95 Q94.95 161.95 92.95 161.95"/>
    <path stroke="none" fill="#5FB13A" d="M92.95 182 L92.95 180 Q95.9 180 97.4 181.6 98.95 183.05 98.95 186 L98.95 199.95 Q98.95 201.7 98.4 202.95 L97.4 204.4 96.85 204.9 Q95.4 205.95 92.95 205.95 L92.95 203.95 95.1 203.55 95.95 202.95 Q96.95 201.95 96.95 199.95 L96.95 186 Q96.95 182 92.95 182"/>
    <path stroke="none" fill="#88E060" d="M92.95 203.95 L92.95 201.95 Q94.95 201.95 94.95 199.95 L94.95 193 92.95 193 92.95 182 Q96.95 182 96.95 186 L96.95 199.95 Q96.95 201.95 95.95 202.95 L95.1 203.55 92.95 203.95"/>
    <path stroke="none" fill="#73CD4B" d="M92.95 201.95 L92.95 193 94.95 193 94.95 199.95 Q94.95 201.95 92.95 201.95"/>
    <path stroke="none" fill="#5FB13A" d="M67 182 L67 180 83 180 83 182 67 182 M83 203.95 L83 205.95 67 205.95 67 203.95 83 203.95"/>
    <path stroke="none" fill="#88E060" d="M83 203.95 L67 203.95 67 201.95 83 201.95 83 203.95 M67 193 L67 182 83 182 83 193 67 193"/>
    <path stroke="none" fill="#73CD4B" d="M67 193 L83 193 83 201.95 67 201.95 67 193"/>
    <path stroke="none" fill="#5FB13A" d="M56.95 203.95 L56.95 205.95 55 205.75 Q53.45 205.4 52.55 204.4 L51.5 202.95 Q50.95 201.7 50.95 199.95 L50.95 186 Q50.95 183.05 52.55 181.6 53.45 180.55 55 180.2 L56.95 180 56.95 182 55 182.35 Q52.95 183.15 52.95 186 L52.95 199.95 Q52.95 201.95 53.95 202.95 L55 203.65 56.95 203.95"/>
    <path stroke="none" fill="#88E060" d="M56.95 203.95 L55 203.65 53.95 202.95 Q52.95 201.95 52.95 199.95 L52.95 186 Q52.95 183.15 55 182.35 L56.95 182 56.95 193 54.95 193 54.95 199.95 55 200.55 Q55.25 201.95 56.95 201.95 L56.95 203.95"/>
    <path stroke="none" fill="#73CD4B" d="M56.95 193 L56.95 201.95 Q55.25 201.95 55 200.55 L54.95 199.95 54.95 193 56.95 193"/>
    <path stroke="none" fill="#B6B6B6" d="M56.95 222 L55 222.35 Q52.95 223.15 52.95 226 L52.95 239.95 Q52.95 241.95 53.95 242.95 L55 243.65 56.95 243.95 56.95 245.95 55 245.75 Q53.45 245.4 52.55 244.4 L51.5 242.95 Q50.95 241.7 50.95 239.95 L50.95 226 Q50.95 223.05 52.55 221.6 53.45 220.55 55 220.2 L56.95 220 56.95 222"/>
    <path stroke="none" fill="#FFFFFF" d="M56.95 222 L56.95 233 54.95 233 54.95 239.95 55 240.55 Q55.25 241.95 56.95 241.95 L56.95 243.95 55 243.65 53.95 242.95 Q52.95 241.95 52.95 239.95 L52.95 226 Q52.95 223.15 55 222.35 L56.95 222"/>
    <path stroke="none" fill="#ECECEC" d="M56.95 241.95 Q55.25 241.95 55 240.55 L54.95 239.95 54.95 233 56.95 233 56.95 241.95"/>
    <path stroke="none" fill="#B6B6B6" d="M67 222 L67 220 83 220 83 222 67 222 M83 243.95 L83 245.95 67 245.95 67 243.95 83 243.95"/>
    <path stroke="none" fill="#FFFFFF" d="M83 243.95 L67 243.95 67 241.95 83 241.95 83 243.95 M83 222 L83 233 67 233 67 222 83 222"/>
    <path stroke="none" fill="#ECECEC" d="M83 233 L83 241.95 67 241.95 67 233 83 233"/>
    <path stroke="none" fill="#B6B6B6" d="M92.95 243.95 L95.1 243.55 95.95 242.95 Q96.95 241.95 96.95 239.95 L96.95 226 Q96.95 222 92.95 222 L92.95 220 Q95.9 220 97.4 221.6 98.95 223.05 98.95 226 L98.95 239.95 Q98.95 241.7 98.4 242.95 L97.4 244.4 96.85 244.9 Q95.4 245.95 92.95 245.95 L92.95 243.95"/>
    <path stroke="none" fill="#ECECEC" d="M92.95 241.95 L92.95 233 94.95 233 94.95 239.95 Q94.95 241.95 92.95 241.95"/>
    <path stroke="none" fill="#FFFFFF" d="M92.95 243.95 L92.95 241.95 Q94.95 241.95 94.95 239.95 L94.95 233 92.95 233 92.95 222 Q96.95 222 96.95 226 L96.95 239.95 Q96.95 241.95 95.95 242.95 L95.1 243.55 92.95 243.95"/>
    <path stroke="none" fill="#CD5D12" d="M344 65 L342 65 342.2 63.05 Q342.55 61.5 343.55 60.6 344.15 59.95 345 59.55 346.25 59 348 59 L361.95 59 Q364.9 59 366.35 60.6 367.4 61.5 367.75 63.05 L367.95 65 365.95 65 Q365.95 63.85 365.6 63.05 364.8 61 361.95 61 L348 61 Q346 61 345 62 344.55 62.45 344.3 63.05 344 63.85 344 65"/>
    <path stroke="none" fill="#E86A17" d="M354.95 65 L346 65 Q346 63.3 347.4 63.05 L348 63 354.95 63 354.95 65"/>
    <path stroke="none" fill="#FA8132" d="M354.95 65 L354.95 63 348 63 347.4 63.05 Q346 63.3 346 65 L344 65 Q344 63.85 344.3 63.05 344.55 62.45 345 62 346 61 348 61 L361.95 61 Q364.8 61 365.6 63.05 365.95 63.85 365.95 65 L354.95 65"/>
    <path stroke="none" fill="#CD5D12" d="M365.95 101 L367.95 101 Q367.95 103.95 366.35 105.45 364.9 107 361.95 107 L348 107 Q346.25 107 345 106.45 L343.55 105.45 343.05 104.9 Q342 103.45 342 101 L344 101 Q344 102.25 344.4 103.15 L345 104 Q346 105 348 105 L361.95 105 Q365.95 105 365.95 101"/>
    <path stroke="none" fill="#E86A17" d="M346 101 L354.95 101 354.95 103 348 103 Q346 103 346 101"/>
    <path stroke="none" fill="#FA8132" d="M346 101 Q346 103 348 103 L354.95 103 354.95 101 365.95 101 Q365.95 105 361.95 105 L348 105 Q346 105 345 104 L344.4 103.15 Q344 102.25 344 101 L346 101"/>
    <path stroke="none" fill="#1989B8" d="M325.95 101 L327.95 101 Q327.95 103.95 326.35 105.45 324.9 107 321.95 107 L308 107 305 106.45 303.55 105.45 303.05 104.9 Q302 103.45 302 101 L304 101 Q304 102.25 304.4 103.15 L305 104 Q306 105 308 105 L321.95 105 Q325.95 105 325.95 101"/>
    <path stroke="none" fill="#1EA7E1" d="M306 101 L314.95 101 314.95 103 308 103 Q306 103 306 101"/>
    <path stroke="none" fill="#35BAF3" d="M306 101 Q306 103 308 103 L314.95 103 314.95 101 325.95 101 Q325.95 105 321.95 105 L308 105 Q306 105 305 104 L304.4 103.15 Q304 102.25 304 101 L306 101"/>
    <path stroke="none" fill="#CDA400" d="M285.95 101 L287.95 101 Q287.95 103.95 286.35 105.45 284.9 107 281.95 107 L268 107 Q266.25 107 265 106.45 L263.55 105.45 263.05 104.9 Q262 103.45 262 101 L264 101 Q264 102.25 264.4 103.15 L265 104 Q266 105 268 105 L281.95 105 Q285.95 105 285.95 101"/>
    <path stroke="none" fill="#FFCC00" d="M266 101 L274.95 101 274.95 103 268 103 Q266 103 266 101"/>
    <path stroke="none" fill="#FFD948" d="M266 101 Q266 103 268 103 L274.95 103 274.95 101 285.95 101 Q285.95 105 281.95 105 L268 105 Q266 105 265 104 L264.4 103.15 Q264 102.25 264 101 L266 101"/>
    <path stroke="none" fill="#73CD4B" d="M234.95 101 L234.95 103 228 103 Q226 103 226 101 L234.95 101"/>
    <path stroke="none" fill="#88E060" d="M234.95 101 L245.95 101 Q245.95 105 241.95 105 L228 105 Q226 105 225 104 L224.4 103.15 Q224 102.25 224 101 L226 101 Q226 103 228 103 L234.95 103 234.95 101"/>
    <path stroke="none" fill="#5FB13A" d="M224 101 Q224 102.25 224.4 103.15 L225 104 Q226 105 228 105 L241.95 105 Q245.95 105 245.95 101 L247.95 101 Q247.95 103.95 246.35 105.45 244.9 107 241.95 107 L228 107 Q226.25 107 225 106.45 L223.55 105.45 223.05 104.9 Q222 103.45 222 101 L224 101"/>
    <path stroke="none" fill="#B6B6B6" d="M205.95 101 L207.95 101 Q207.95 103.95 206.35 105.45 204.9 107 201.95 107 L188 107 185 106.45 183.55 105.45 183.05 104.9 Q182 103.45 182 101 L184 101 Q184 102.25 184.4 103.15 L185 104 Q186 105 188 105 L201.95 105 Q205.95 105 205.95 101"/>
    <path stroke="none" fill="#ECECEC" d="M186 101 L194.95 101 194.95 103 188 103 Q186 103 186 101"/>
    <path stroke="none" fill="#FFFFFF" d="M186 101 Q186 103 188 103 L194.95 103 194.95 101 205.95 101 Q205.95 105 201.95 105 L188 105 Q186 105 185 104 L184.4 103.15 Q184 102.25 184 101 L186 101"/>
    <path stroke="none" fill="#000000" fill-opacity="0.2" d="M166.35 105.45 Q164.9 107 161.95 107 L148 107 Q146.25 107 145 106.45 L143.55 105.45 143.05 104.9 Q142 103.45 142 101 L167.95 101 Q167.95 103.95 166.35 105.45"/>
    <path stroke="none" fill="#000000" fill-opacity="0.2" d="M167.95 91.05 L142 91.05 142 75.05 167.95 75.05 167.95 91.05"/>
    <path stroke="none" fill="#B6B6B6" d="M184 91.05 L182 91.05 182 75.05 184 75.05 184 91.05 M205.95 75.05 L207.95 75.05 207.95 91.05 205.95 91.05 205.95 75.05"/>
    <path stroke="none" fill="#ECECEC" d="M186 75.05 L194.95 75.05 194.95 91.05 186 91.05 186 75.05"/>
    <path stroke="none" fill="#FFFFFF" d="M186 75.05 L186 91.05 184 91.05 184 75.05 186 75.05 M194.95 75.05 L205.95 75.05 205.95 91.05 194.95 91.05 194.95 75.05"/>
    <path stroke="none" fill="#5FB13A" d="M245.95 75.05 L247.95 75.05 247.95 91.05 245.95 91.05 245.95 75.05 M224 91.05 L222 91.05 222 75.05 224 75.05 224 91.05"/>
    <path stroke="none" fill="#88E060" d="M224 91.05 L224 75.05 226 75.05 226 91.05 224 91.05 M245.95 91.05 L234.95 91.05 234.95 75.05 245.95 75.05 245.95 91.05"/>
    <path stroke="none" fill="#73CD4B" d="M234.95 91.05 L226 91.05 226 75.05 234.95 75.05 234.95 91.05"/>
    <path stroke="none" fill="#CDA400" d="M264 91.05 L262 91.05 262 75.05 264 75.05 264 91.05 M285.95 75.05 L287.95 75.05 287.95 91.05 285.95 91.05 285.95 75.05"/>
    <path stroke="none" fill="#FFCC00" d="M266 75.05 L274.95 75.05 274.95 91.05 266 91.05 266 75.05"/>
    <path stroke="none" fill="#FFD948" d="M266 75.05 L266 91.05 264 91.05 264 75.05 266 75.05 M274.95 75.05 L285.95 75.05 285.95 91.05 274.95 91.05 274.95 75.05"/>
    <path stroke="none" fill="#1989B8" d="M325.95 75.05 L327.95 75.05 327.95 91.05 325.95 91.05 325.95 75.05 M304 91.05 L302 91.05 302 75.05 304 75.05 304 91.05"/>
    <path stroke="none" fill="#35BAF3" d="M304 91.05 L304 75.05 306 75.05 306 91.05 304 91.05 M325.95 75.05 L325.95 91.05 314.95 91.05 314.95 75.05 325.95 75.05"/>
    <path stroke="none" fill="#1EA7E1" d="M314.95 91.05 L306 91.05 306 75.05 314.95 75.05 314.95 91.05"/>
    <path stroke="none" fill="#CD5D12" d="M344 75.05 L344 91.05 342 91.05 342 75.05 344 75.05 M365.95 75.05 L367.95 75.05 367.95 91.05 365.95 91.05 365.95 75.05"/>
    <path stroke="none" fill="#FA8132" d="M365.95 75.05 L365.95 91.05 354.95 91.05 354.95 75.05 365.95 75.05 M344 91.05 L344 75.05 346 75.05 346 91.05 344 91.05"/>
    <path stroke="none" fill="#E86A17" d="M346 91.05 L346 75.05 354.95 75.05 354.95 91.05 346 91.05"/>
    <path stroke="none" fill="#1989B8" d="M304 65 L302 65 302.2 63.05 Q302.55 61.5 303.55 60.6 L305 59.55 Q306.25 59 308 59 L321.95 59 Q324.9 59 326.35 60.6 327.4 61.5 327.75 63.05 L327.95 65 325.95 65 Q325.95 63.85 325.6 63.05 324.8 61 321.95 61 L308 61 Q306 61 305 62 L304.3 63.05 Q304 63.85 304 65"/>
    <path stroke="none" fill="#35BAF3" d="M304 65 Q304 63.85 304.3 63.05 L305 62 Q306 61 308 61 L321.95 61 Q324.8 61 325.6 63.05 325.95 63.85 325.95 65 L314.95 65 314.95 63 308 63 307.4 63.05 Q306 63.3 306 65 L304 65"/>
    <path stroke="none" fill="#1EA7E1" d="M314.95 65 L306 65 Q306 63.3 307.4 63.05 L308 63 314.95 63 314.95 65"/>
    <path stroke="none" fill="#CDA400" d="M264 65 L262 65 262.2 63.05 Q262.55 61.5 263.55 60.6 L265 59.55 Q266.25 59 268 59 L281.95 59 Q284.9 59 286.35 60.6 287.4 61.5 287.75 63.05 L287.95 65 285.95 65 Q285.95 63.85 285.6 63.05 284.8 61 281.95 61 L268 61 Q266 61 265 62 L264.3 63.05 Q264 63.85 264 65"/>
    <path stroke="none" fill="#FFD948" d="M264 65 Q264 63.85 264.3 63.05 L265 62 Q266 61 268 61 L281.95 61 Q284.8 61 285.6 63.05 285.95 63.85 285.95 65 L274.95 65 274.95 63 268 63 267.4 63.05 Q266 63.3 266 65 L264 65"/>
    <path stroke="none" fill="#FFCC00" d="M274.95 65 L266 65 Q266 63.3 267.4 63.05 L268 63 274.95 63 274.95 65"/>
    <path stroke="none" fill="#5FB13A" d="M245.95 65 Q245.95 63.85 245.6 63.05 244.8 61 241.95 61 L228 61 Q226 61 225 62 224.55 62.45 224.3 63.05 224 63.85 224 65 L222 65 222.2 63.05 222.25 62.85 Q222.6 61.45 223.55 60.6 224.15 59.95 225 59.55 226.25 59 228 59 L241.95 59 Q244.9 59 246.35 60.6 247.4 61.5 247.75 63.05 L247.95 65 245.95 65"/>
    <path stroke="none" fill="#88E060" d="M245.95 65 L234.95 65 234.95 63 228 63 227.4 63.05 Q226 63.3 226 65 L224 65 Q224 63.85 224.3 63.05 224.55 62.45 225 62 226 61 228 61 L241.95 61 Q244.8 61 245.6 63.05 245.95 63.85 245.95 65"/>
    <path stroke="none" fill="#73CD4B" d="M226 65 Q226 63.3 227.4 63.05 L228 63 234.95 63 234.95 65 226 65"/>
    <path stroke="none" fill="#B6B6B6" d="M184 65 L182 65 182.05 64.05 182.2 63.05 Q182.55 61.5 183.55 60.6 184.15 59.95 185 59.55 186.25 59 188 59 L201.95 59 Q204.9 59 206.35 60.6 207.4 61.5 207.75 63.05 L207.9 64.05 207.95 65 205.95 65 205.9 64.05 205.6 63.05 Q204.8 61 201.95 61 L188 61 Q186 61 185 62 L184.3 63.05 184.05 64.05 184 65"/>
    <path stroke="none" fill="#FFFFFF" d="M184 65 L184.05 64.05 184.3 63.05 185 62 Q186 61 188 61 L201.95 61 Q204.8 61 205.6 63.05 L205.9 64.05 205.95 65 194.95 65 194.95 63 188 63 187.4 63.05 Q186.45 63.2 186.15 64.05 186 64.45 186 65 L184 65"/>
    <path stroke="none" fill="#ECECEC" d="M194.95 65 L186 65 Q186 64.45 186.15 64.05 186.45 63.2 187.4 63.05 L188 63 194.95 63 194.95 65"/>
    <path stroke="none" fill="#000000" fill-opacity="0.2" d="M167.95 65 L142 65 142.2 63.05 Q142.55 61.5 143.55 60.6 L145 59.55 Q146.25 59 148 59 L161.95 59 Q164.9 59 166.35 60.6 167.4 61.5 167.75 63.05 L167.95 65"/>
    <path stroke="none" fill="#8AC2D4" fill-opacity="0.8" d="M507.05 172 Q503.85 172 502.7 174 502 175.2 502 177.05 L502 262.9 Q502 268 507.05 268 L586.5 268 Q587.35 268 587.9 267.45 L597.4 257.95 Q598 257.35 598 256.5 L598 177.05 Q598 175.2 597.3 174 596.15 172 592.95 172 L507.05 172 M500.95 173 Q502.55 170 507.05 170 L592.95 170 Q597.45 170 599 173 600 174.55 600 177.05 L600 256.5 Q600 258.15 598.85 259.35 L589.35 268.85 589.3 268.85 Q588.15 270 586.5 270 L507.05 270 Q503.55 270 501.85 268.15 500 266.45 500 262.9 L500 177.05 Q500 174.55 500.95 173"/>
    <path stroke="none" fill="#AAE9FF" fill-opacity="0.30196078431372547" d="M504 177.05 Q504 174.05 506.9 174 L593.05 174 Q596 174.05 596 177.05 L596 256.5 586.5 266 507.05 266 Q504 266 504 262.9 L504 177.05"/>
    <path stroke="none" fill="#BDE7F5" fill-opacity="0.8" d="M504 177.05 L504 262.9 Q504 266 507.05 266 L586.5 266 596 256.5 596 177.05 Q596 174.05 593.05 174 L506.9 174 Q504 174.05 504 177.05 M507.05 172 L592.95 172 Q596.15 172 597.3 174 598 175.2 598 177.05 L598 256.5 Q598 257.35 597.4 257.95 L587.9 267.45 Q587.35 268 586.5 268 L507.05 268 Q502 268 502 262.9 L502 177.05 Q502 175.2 502.7 174 503.85 172 507.05 172"/>
    <path stroke="none" fill="#AAE9FF" fill-opacity="0.30196078431372547" d="M702.95 174 Q705.95 174 706 176.9 L706 263.05 Q705.95 266 702.95 266 L623.5 266 614 256.5 614 177.05 Q614 174 617.1 174 L702.95 174"/>
    <path stroke="none" fill="#BDE7F5" fill-opacity="0.8" d="M702.95 174 L617.1 174 Q614 174 614 177.05 L614 256.5 623.5 266 702.95 266 Q705.95 266 706 263.05 L706 176.9 Q705.95 174 702.95 174 M708 177.05 L708 262.95 Q708 266.15 706 267.3 704.8 268 702.95 268 L623.5 268 Q622.65 268 622.05 267.4 L612.55 257.9 Q612 257.35 612 256.5 L612 177.05 Q612 172 617.1 172 L702.95 172 Q704.8 172 706 172.7 708 173.85 708 177.05"/>
    <path stroke="none" fill="#8AC2D4" fill-opacity="0.8" d="M708 177.05 Q708 173.85 706 172.7 704.8 172 702.95 172 L617.1 172 Q612 172 612 177.05 L612 256.5 Q612 257.35 612.55 257.9 L622.05 267.4 Q622.65 268 623.5 268 L702.95 268 Q704.8 268 706 267.3 708 266.15 708 262.95 L708 177.05 M710 177.05 L710 262.95 Q710 267.45 707 269 705.45 270 702.95 270 L623.5 270 Q621.85 270 620.65 268.85 L611.15 259.35 611.15 259.3 Q610 258.15 610 256.5 L610 177.05 Q610 173.55 611.85 171.85 613.55 170 617.1 170 L702.95 170 Q705.45 170 707 170.95 710 172.55 710 177.05"/>
    <path stroke="none" fill="#8AC2D4" fill-opacity="0.8" d="M820 177.1 L820 262.95 Q820 265.45 819.05 267 817.45 270 812.95 270 L727.05 270 Q722.55 270 721 267 720 265.45 720 262.95 L720 183.5 Q720 181.85 721.15 180.65 L730.65 171.15 730.7 171.15 Q731.85 170 733.5 170 L812.95 170 Q816.45 170 818.15 171.85 820 173.55 820 177.1 M818 177.1 Q818 172 812.95 172 L733.5 172 Q732.65 172 732.1 172.55 L722.6 182.05 Q722 182.65 722 183.5 L722 262.95 Q722 264.8 722.7 266 723.85 268 727.05 268 L812.95 268 Q816.15 268 817.3 266 818 264.8 818 262.95 L818 177.1"/>
    <path stroke="none" fill="#BDE7F5" fill-opacity="0.8" d="M812.95 174 L733.5 174 724 183.5 724 262.95 Q724 265.95 726.95 266 L813.1 266 Q816 265.95 816 262.95 L816 177.1 Q816 174 812.95 174 M818 177.1 L818 262.95 Q818 264.8 817.3 266 816.15 268 812.95 268 L727.05 268 Q723.85 268 722.7 266 722 264.8 722 262.95 L722 183.5 Q722 182.65 722.6 182.05 L732.1 172.55 Q732.65 172 733.5 172 L812.95 172 Q818 172 818 177.1"/>
    <path stroke="none" fill="#AAE9FF" fill-opacity="0.30196078431372547" d="M812.95 174 Q816 174 816 177.1 L816 262.95 Q816 265.95 813.1 266 L726.95 266 Q724 265.95 724 262.95 L724 183.5 733.5 174 812.95 174"/>
    <path stroke="none" fill="#8AC2D4" fill-opacity="0.8" d="M837.05 172 Q832 172 832 177.05 L832 262.95 Q832 268 837.05 268 L922.9 268 Q928 268 928 262.95 L928 177.05 Q928 172 922.9 172 L837.05 172 M837.05 170 L922.9 170 Q926.45 170 928.15 171.85 930 173.55 930 177.05 L930 262.95 Q930 266.45 928.15 268.15 926.45 270 922.9 270 L837.05 270 Q830 270 830 262.95 L830 177.05 Q830 170 837.05 170"/>
    <path stroke="none" fill="#BDE7F5" fill-opacity="0.8" d="M834 180.95 L834 259.1 Q834.05 262 837.05 262 L922.9 262 Q925.95 262 926 259.1 L926 180.95 Q925.95 178 922.9 178 L837.05 178 Q834.05 178 834 180.95 M837.05 172 L922.9 172 Q928 172 928 177.05 L928 262.95 Q928 268 922.9 268 L837.05 268 Q832 268 832 262.95 L832 177.05 Q832 172 837.05 172"/>
    <path stroke="none" fill="#AAE9FF" fill-opacity="0.30196078431372547" d="M834 180.95 Q834.05 178 837.05 178 L922.9 178 Q925.95 178 926 180.95 L926 259.1 Q925.95 262 922.9 262 L837.05 262 Q834.05 262 834 259.1 L834 180.95"/>
    <path stroke="none" fill="#8AC2D4" fill-opacity="0.8" d="M928 67.05 Q928 62 922.9 62 L837.05 62 Q832 62 832 67.05 L832 152.95 Q832 158 837.05 158 L922.9 158 Q928 158 928 152.95 L928 67.05 M930 67.05 L930 152.95 Q930 156.45 928.15 158.15 926.45 160 922.9 160 L837.05 160 Q830 160 830 152.95 L830 67.05 Q830 60 837.05 60 L922.9 60 Q926.45 60 928.15 61.85 930 63.55 930 67.05"/>
    <path stroke="none" fill="#AAE9FF" fill-opacity="0.30196078431372547" d="M922.9 64 Q926 64 926 67.05 L926 152.95 Q926 156 922.9 156 L837.05 156 Q834 156 834 152.95 L834 67.05 Q834 64 837.05 64 L922.9 64"/>
    <path stroke="none" fill="#BDE7F5" fill-opacity="0.8" d="M922.9 64 L837.05 64 Q834 64 834 67.05 L834 152.95 Q834 156 837.05 156 L922.9 156 Q926 156 926 152.95 L926 67.05 Q926 64 922.9 64 M928 67.05 L928 152.95 Q928 158 922.9 158 L837.05 158 Q832 158 832 152.95 L832 67.05 Q832 62 837.05 62 L922.9 62 Q928 62 928 67.05"/>
    <path stroke="none" fill="#8AC2D4" fill-opacity="0.8" d="M812.9 62 L797.6 62 786.2 50.6 Q785.6 50 784.75 50 L733.75 50 Q732.9 50 732.35 50.6 731.75 51.15 731.75 52 L731.75 62 727.05 62 Q722 62 722 67.05 L722 152.95 Q722 158 727.05 158 L812.9 158 Q818 158 818 152.95 L818 67.05 Q818 62 812.9 62 M818.15 61.85 Q820 63.55 820 67.05 L820 152.95 Q820 156.45 818.15 158.15 816.45 160 812.9 160 L727.05 160 Q720 160 720 152.95 L720 67.05 Q720 60 727.05 60 L729.75 60 729.75 52 Q729.75 50.35 730.9 49.2 L730.95 49.15 Q732.1 48 733.75 48 L784.75 48 Q786.4 48 787.6 49.15 L798.45 60 812.9 60 Q816.45 60 818.15 61.85"/>
    <path stroke="none" fill="#BDE7F5" fill-opacity="0.8" d="M812.9 62 Q818 62 818 67.05 L818 152.95 Q818 158 812.9 158 L727.05 158 Q722 158 722 152.95 L722 67.05 Q722 62 727.05 62 L731.75 62 731.75 52 Q731.75 51.15 732.35 50.6 732.9 50 733.75 50 L784.75 50 Q785.6 50 786.2 50.6 L797.6 62 812.9 62 M816 67.05 Q816 64 812.9 64 L796.75 64 784.75 52 733.75 52 733.75 64 727.05 64 Q724 64 724 67.05 L724 152.95 Q724 156 727.05 156 L812.9 156 Q816 156 816 152.95 L816 67.05"/>
    <path stroke="none" fill="#AAE9FF" fill-opacity="0.30196078431372547" d="M816 67.05 L816 152.95 Q816 156 812.9 156 L727.05 156 Q724 156 724 152.95 L724 67.05 Q724 64 727.05 64 L733.75 64 733.75 52 784.75 52 796.75 64 812.9 64 Q816 64 816 67.05"/>
    <path stroke="none" fill="#8AC2D4" fill-opacity="0.8" d="M710 74 L710 146 Q710 147.65 708.85 148.85 L698.85 158.85 Q697.65 160 696 160 L624 160 Q622.35 160 621.2 158.85 L621.15 158.85 611.15 148.85 Q610 147.65 610 146 L610 74 Q610 72.35 611.15 71.2 L611.15 71.15 621.15 61.15 621.2 61.15 Q622.35 60 624 60 L696 60 Q697.65 60 698.85 61.15 L708.85 71.15 708.85 71.2 Q710 72.35 710 74 M708 74 Q708 73.15 707.45 72.6 L697.45 62.6 Q696.85 62 696 62 L624 62 Q623.15 62 622.6 62.6 L612.6 72.6 Q612 73.15 612 74 L612 146 Q612 146.85 612.6 147.45 L622.6 157.45 Q623.15 158 624 158 L696 158 Q696.85 158 697.45 157.45 L707.45 147.45 Q708 146.85 708 146 L708 74"/>
    <path stroke="none" fill="#BDE7F5" fill-opacity="0.8" d="M708 74 L708 146 Q708 146.85 707.45 147.45 L697.45 157.45 Q696.85 158 696 158 L624 158 Q623.15 158 622.6 157.45 L612.6 147.45 Q612 146.85 612 146 L612 74 Q612 73.15 612.6 72.6 L622.6 62.6 Q623.15 62 624 62 L696 62 Q696.85 62 697.45 62.6 L707.45 72.6 Q708 73.15 708 74 M696 64 L624 64 614 74 614 146 624 156 696 156 706 146 706 74 696 64"/>
    <path stroke="none" fill="#AAE9FF" fill-opacity="0.30196078431372547" d="M696 64 L706 74 706 146 696 156 624 156 614 146 614 74 624 64 696 64"/>
    <path stroke="none" fill="#AAE9FF" fill-opacity="0.30196078431372547" d="M586.5 64 L596 73.5 596 152.95 Q596 156 592.9 156 L507.05 156 Q504.05 156 504 153.1 L504 66.95 Q504.05 64 507.05 64 L586.5 64"/>
    <path stroke="none" fill="#BDE7F5" fill-opacity="0.8" d="M586.5 64 L507.05 64 Q504.05 64 504 66.95 L504 153.1 Q504.05 156 507.05 156 L592.9 156 Q596 156 596 152.95 L596 73.5 586.5 64 M598 73.5 L598 152.95 Q598 158 592.9 158 L507.05 158 Q505.2 158 504 157.3 502 156.15 502 152.95 L502 67.05 Q502 63.85 504 62.7 505.2 62 507.05 62 L586.5 62 Q587.35 62 587.95 62.6 L597.45 72.1 Q598 72.65 598 73.5"/>
    <path stroke="none" fill="#8AC2D4" fill-opacity="0.8" d="M598 73.5 Q598 72.65 597.45 72.1 L587.95 62.6 Q587.35 62 586.5 62 L507.05 62 Q505.2 62 504 62.7 502 63.85 502 67.05 L502 152.95 Q502 156.15 504 157.3 505.2 158 507.05 158 L592.9 158 Q598 158 598 152.95 L598 73.5 M598.85 70.65 L598.85 70.7 Q600 71.85 600 73.5 L600 152.95 Q600 156.45 598.15 158.15 596.45 160 592.9 160 L507.05 160 Q504.55 160 503 159.05 500 157.45 500 152.95 L500 67.05 Q500 62.55 503 61 504.55 60 507.05 60 L586.5 60 Q588.15 60 589.35 61.15 L598.85 70.65"/>
  </g>
</svg>