
<svg xmlns="http://www.w3.org/2000/svg" version="1.1" xmlns:xlink="http://www.w3.org/1999/xlink" preserveAspectRatio="none" x="0px" y="0px" width="1940px" height="1950px" viewBox="0 0 1940 1950">
<defs>
<g id="Layer0_0_FILL">
<path fill="#EC5495" stroke="none" d="
M 640 0
L 0 0 0 480 640 480 640 0 Z"/>
</g>

<g id="Layer0_1_FILL">
<path fill="#CBB394" stroke="none" d="
M 266.95 251.05
Q 262.95 251.05 262.95 255.05
L 262.95 479.95 289.95 479.95 289.95 255.05
Q 289.95 251.05 285.95 251.05
L 266.95 251.05
M 256.95 209.85
Q 256.95 205.85 252.95 205.85
L 233.95 205.85
Q 229.95 205.85 229.95 209.85
L 229.95 479.95 256.95 479.95 256.95 209.85
M 55 293
L 36 293
Q 32 293 32 297
L 32 479.95 59 479.95 59 297
Q 59 293 55 293
M 566.95 297.05
Q 562.95 297.05 562.95 301.05
L 562.95 479.95 589.95 479.95 589.95 301.05
Q 589.95 297.05 585.95 297.05
L 566.95 297.05
M 385.95 317
Q 381.95 317 381.95 321
L 381.95 479.95 408.95 479.95 408.95 321
Q 408.95 317 404.95 317
L 385.95 317
M 449.95 251.05
Q 449.95 247.05 445.95 247.05
L 426.95 247.05
Q 422.95 247.05 422.95 251.05
L 422.95 479.95 449.95 479.95 449.95 251.05 Z"/>
</g>

<g id="Layer0_2_FILL">
<path fill="#EC5495" stroke="none" d="
M 1290 0
L 650 0 650 480 1290 480 1290 0 Z"/>
</g>

<g id="Layer0_3_FILL">
<path fill="#E1C8A9" stroke="none" d="
M 879.9 297
Q 875 301.9 879.95 306.85
L 888.1 315
Q 893 319.9 897.95 315
L 906.1 306.85
Q 911 301.9 906.1 297
L 897.95 288.85
Q 893 283.95 888.1 288.85
L 879.9 297
M 926.3 271.2
Q 921.35 276.1 926.3 281.05
L 934.45 289.2
Q 939.35 294.15 944.25 289.2
L 952.45 281.05
Q 957.35 276.1 952.45 271.2
L 944.3 263.05
Q 939.35 258.1 934.45 263.05
L 926.3 271.2
M 929 231.65
Q 924.05 226.75 919.1 231.65
L 910.95 239.8
Q 906.05 244.7 911 249.65
L 919.1 257.8
Q 924.05 262.7 928.95 257.8
L 937.1 249.65
Q 942.05 244.7 937.1 239.8
L 929 231.65
M 678.15 338.6
Q 673.2 333.7 668.25 338.6
L 650 356.85 650 382.55 668.25 400.75
Q 673.15 405.7 678.15 400.75
L 704.25 374.65
Q 709.2 369.7 704.25 364.8
L 678.15 338.6
M 695.6 320.65
Q 700.5 315.75 695.6 310.8
L 687.45 302.65
Q 682.5 297.75 677.6 302.65
L 669.4 310.8
Q 664.5 315.75 669.45 320.65
L 677.6 328.8
Q 682.5 333.7 687.45 328.8
L 695.6 320.65
M 700.5 325.25
Q 695.6 330.2 700.55 335.1
L 708.7 343.25
Q 713.6 348.15 718.55 343.25
L 726.7 335.1
Q 731.6 330.2 726.7 325.25
L 718.55 317.1
Q 713.6 312.2 708.7 317.1
L 700.5 325.25
M 666.9 222.4
Q 671.9 217.45 666.95 212.55
L 649.95 195.5 649.95 239.35 666.9 222.4
M 798 256.7
Q 793.05 251.75 788.15 256.7
L 741.75 303
Q 736.8 307.95 741.75 312.9
L 788.15 359.3
Q 793.1 364.2 798 359.25
L 844.35 312.9
Q 849.25 307.95 844.3 303.05
L 798 256.7
M 784.65 224.2
Q 779.7 229.15 784.6 234.1
L 810.8 260.2
Q 815.7 265.15 820.7 260.2
L 846.75 234.1
Q 851.75 229.15 846.8 224.25
L 820.7 198.05
Q 815.75 193.15 810.8 198.05
L 784.65 224.2
M 768.45 194.1
Q 763.5 189.2 758.6 194.1
L 750.45 202.25
Q 745.55 207.2 750.5 212.1
L 758.6 220.25
Q 763.5 225.15 768.45 220.25
L 776.65 212.1
Q 781.55 207.2 776.65 202.25
L 768.45 194.1
M 713.15 137.65
Q 708.2 132.75 703.25 137.65
L 677.1 163.8
Q 672.15 168.75 677.1 173.7
L 703.25 199.8
Q 708.15 204.75 713.15 199.8
L 739.25 173.7
Q 744.2 168.75 739.25 163.85
L 713.15 137.65
M 715.5 124.3
Q 710.6 129.25 715.55 134.15
L 723.7 142.3
Q 728.6 147.2 733.55 142.3
L 741.7 134.15
Q 746.6 129.25 741.7 124.3
L 733.55 116.15
Q 728.6 111.25 723.7 116.15
L 715.5 124.3
M 954.9 147.25
L 936.65 129.05
Q 931.7 124.1 926.75 129.05
L 908.6 147.25
Q 903.6 152.2 908.55 157.15
L 926.75 175.35
Q 931.65 180.3 936.65 175.35
L 954.85 157.15
Q 959.8 152.2 954.9 147.25
M 871.35 196.55
L 863.2 188.4
Q 858.25 183.5 853.3 188.4
L 845.15 196.55
Q 840.25 201.5 845.2 206.4
L 853.3 214.55
Q 858.25 219.45 863.2 214.55
L 871.35 206.4
Q 876.25 201.5 871.35 196.55
M 1282.1 374.65
L 1290 382.55 1290 356.85 1282.1 364.75
Q 1277.15 369.7 1282.1 374.65
M 1187.15 344.65
Q 1182.2 339.7 1177.25 344.65
L 1169.1 352.8
Q 1164.2 357.7 1169.15 362.65
L 1177.25 370.8
Q 1182.2 375.75 1187.1 370.8
L 1195.3 362.65
Q 1200.2 357.7 1195.3 352.8
L 1187.15 344.65
M 1185.5 322.8
Q 1180.6 327.75 1185.55 332.65
L 1193.7 340.8
Q 1198.6 345.7 1203.55 340.8
L 1211.7 332.65
Q 1216.6 327.75 1211.7 322.8
L 1203.55 314.65
Q 1198.6 309.75 1193.7 314.65
L 1185.5 322.8
M 1189.6 217.7
Q 1184.65 212.8 1179.7 217.7
L 1171.55 225.85
Q 1166.65 230.8 1171.6 235.7
L 1179.7 243.85
Q 1184.65 248.75 1189.6 243.85
L 1197.75 235.7
Q 1202.65 230.8 1197.75 225.85
L 1189.6 217.7
M 1254.45 273.65
Q 1249.55 278.6 1254.45 283.5
L 1262.6 291.7
Q 1267.5 296.6 1272.45 291.7
L 1280.6 283.5
Q 1285.5 278.6 1280.6 273.65
L 1272.45 265.5
Q 1267.5 260.6 1262.6 265.5
L 1254.45 273.65
M 1233 229.65
Q 1228.05 224.75 1223.1 229.7
L 1204.1 248.7
Q 1199.15 253.65 1204.1 258.55
L 1223.1 277.55
Q 1228.05 282.45 1233 277.5
L 1251.95 258.55
Q 1256.95 253.6 1252 248.7
L 1233 229.65
M 1004.55 391.15
L 996.45 383
Q 991.45 378.1 986.55 383
L 978.4 391.15
Q 973.5 396.05 978.45 401
L 986.55 409.2
Q 991.45 414.1 996.4 409.2
L 1004.55 401
Q 1009.45 396.05 1004.55 391.15
M 988.85 210.65
Q 993.8 205.7 988.85 200.8
L 962.75 174.6
Q 957.8 169.7 952.85 174.6
L 926.7 200.75
Q 921.75 205.7 926.7 210.65
L 952.85 236.75
Q 957.75 241.7 962.75 236.75
L 988.85 210.65
M 1086.6 167.95
Q 1081.7 163 1076.75 167.95
L 969.05 275.7
Q 964.15 280.65 969.05 285.55
L 1076.8 393.3
Q 1081.7 398.25 1086.6 393.3
L 1194.35 285.55
Q 1199.35 280.6 1194.4 275.65
L 1086.6 167.95
M 1049.1 83.35
Q 1044.15 78.4 1039.25 83.35
L 992.85 129.65
Q 987.9 134.6 992.85 139.55
L 1039.25 185.95
Q 1044.2 190.85 1049.1 185.9
L 1095.45 139.55
Q 1100.35 134.6 1095.4 129.7
L 1049.1 83.35
M 972.35 87.85
Q 977.3 82.95 972.35 78.05
L 964.2 69.9
Q 959.3 64.95 954.35 69.9
L 946.2 78.05
Q 941.25 82.95 946.2 87.85
L 954.35 96
Q 959.3 100.95 964.2 96
L 972.35 87.85
M 1125.15 71.75
L 1117 63.6
Q 1112.1 58.7 1107.15 63.6
L 1098.95 71.75
Q 1094.05 76.65 1099 81.6
L 1107.15 89.75
Q 1112.1 94.65 1117 89.75
L 1125.15 81.6
Q 1130.05 76.65 1125.15 71.75
M 1289.95 195.5
L 1287.95 193.5
Q 1283 188.6 1278.05 193.55
L 1259.1 212.55
Q 1254.15 217.5 1259.1 222.4
L 1278.05 241.4
Q 1283 246.3 1287.95 241.35
L 1289.95 239.35 1289.95 195.5
M 1140.5 110.9
Q 1145.4 105.95 1140.5 101.05
L 1132.35 92.9
Q 1127.4 88 1122.5 92.9
L 1114.3 101.05
Q 1109.4 105.95 1114.35 110.9
L 1122.5 119.05
Q 1127.4 123.95 1132.35 119.05
L 1140.5 110.9
M 1150.15 140
Q 1145.2 135.1 1140.25 140.05
L 1121.25 159.05
Q 1116.3 164 1121.25 168.9
L 1140.25 187.95
Q 1145.2 192.85 1150.15 187.9
L 1169.05 168.9
Q 1174.05 163.95 1169.1 159.05
L 1150.15 140 Z"/>
</g>

<g id="Layer0_4_FILL">
<path fill="#D8BF9E" stroke="none" d="
M -10 480
L -10 0 -650 0 -650 480 -10 480 Z"/>
</g>

<g id="Layer0_5_FILL">
<path fill="#EC5495" stroke="none" d="
M 640 490
L 0 490 0 970 640 970 640 490 Z"/>
</g>

<g id="Layer0_6_FILL">
<path fill="#4C3E70" stroke="none" d="
M 385.95 807
Q 381.95 807 381.95 811
L 381.95 969.95 408.95 969.95 408.95 811
Q 408.95 807 404.95 807
L 385.95 807
M 566.95 787.05
Q 562.95 787.05 562.95 791.05
L 562.95 969.95 589.95 969.95 589.95 791.05
Q 589.95 787.05 585.95 787.05
L 566.95 787.05
M 449.95 741.05
Q 449.95 737.05 445.95 737.05
L 426.95 737.05
Q 422.95 737.05 422.95 741.05
L 422.95 969.95 449.95 969.95 449.95 741.05
M 289.95 745.05
Q 289.95 741.05 285.95 741.05
L 266.95 741.05
Q 262.95 741.05 262.95 745.05
L 262.95 969.95 289.95 969.95 289.95 745.05
M 233.95 695.85
Q 229.95 695.85 229.95 699.85
L 229.95 969.95 256.95 969.95 256.95 699.85
Q 256.95 695.85 252.95 695.85
L 233.95 695.85
M 36 783
Q 32 783 32 787
L 32 969.95 59 969.95 59 787
Q 59 783 55 783
L 36 783 Z"/>
</g>

<g id="Layer0_7_FILL">
<path fill="#EC5495" stroke="none" d="
M 1290 490
L 650 490 650 970 1290 970 1290 490 Z"/>
</g>

<g id="Layer0_8_FILL">
<path fill="#594783" stroke="none" d="
M 678.15 828.6
Q 673.2 823.7 668.25 828.6
L 650 846.85 650 872.55 668.25 890.75
Q 673.15 895.7 678.15 890.75
L 704.25 864.65
Q 709.2 859.7 704.25 854.8
L 678.15 828.6
M 695.6 810.65
Q 700.5 805.75 695.6 800.8
L 687.45 792.65
Q 682.5 787.75 677.6 792.65
L 669.4 800.8
Q 664.5 805.75 669.45 810.65
L 677.6 818.8
Q 682.5 823.7 687.45 818.8
L 695.6 810.65
M 700.5 815.25
Q 695.6 820.2 700.55 825.1
L 708.7 833.25
Q 713.6 838.15 718.55 833.25
L 726.7 825.1
Q 731.6 820.2 726.7 815.25
L 718.55 807.1
Q 713.6 802.2 708.7 807.1
L 700.5 815.25
M 1004.55 881.15
L 996.45 873
Q 991.45 868.1 986.55 873
L 978.4 881.15
Q 973.5 886.05 978.45 891
L 986.55 899.2
Q 991.45 904.1 996.4 899.2
L 1004.55 891
Q 1009.45 886.05 1004.55 881.15
M 1187.15 834.65
Q 1182.2 829.7 1177.25 834.65
L 1169.1 842.8
Q 1164.2 847.7 1169.15 852.65
L 1177.25 860.8
Q 1182.2 865.75 1187.1 860.8
L 1195.3 852.65
Q 1200.2 847.7 1195.3 842.8
L 1187.15 834.65
M 1211.7 812.8
L 1203.55 804.65
Q 1198.6 799.75 1193.7 804.65
L 1185.5 812.8
Q 1180.6 817.75 1185.55 822.65
L 1193.7 830.8
Q 1198.6 835.7 1203.55 830.8
L 1211.7 822.65
Q 1216.6 817.75 1211.7 812.8
M 1282.1 864.65
L 1290 872.55 1290 846.85 1282.1 854.75
Q 1277.15 859.7 1282.1 864.65
M 1254.45 763.65
Q 1249.55 768.6 1254.45 773.5
L 1262.6 781.7
Q 1267.5 786.6 1272.45 781.7
L 1280.6 773.5
Q 1285.5 768.6 1280.6 763.65
L 1272.45 755.5
Q 1267.5 750.6 1262.6 755.5
L 1254.45 763.65
M 1204.1 738.7
Q 1199.15 743.65 1204.1 748.55
L 1223.1 767.55
Q 1228.05 772.45 1233 767.5
L 1251.95 748.55
Q 1256.95 743.6 1252 738.7
L 1233 719.65
Q 1228.05 714.75 1223.1 719.7
L 1204.1 738.7
M 1189.6 707.7
Q 1184.65 702.8 1179.7 707.7
L 1171.55 715.85
Q 1166.65 720.8 1171.6 725.7
L 1179.7 733.85
Q 1184.65 738.75 1189.6 733.85
L 1197.75 725.7
Q 1202.65 720.8 1197.75 715.85
L 1189.6 707.7
M 1289.95 685.5
L 1287.95 683.5
Q 1283 678.6 1278.05 683.55
L 1259.1 702.55
Q 1254.15 707.5 1259.1 712.4
L 1278.05 731.4
Q 1283 736.3 1287.95 731.35
L 1289.95 729.35 1289.95 685.5
M 1121.25 649.05
Q 1116.3 654 1121.25 658.9
L 1140.25 677.95
Q 1145.2 682.85 1150.15 677.9
L 1169.05 658.9
Q 1174.05 653.95 1169.1 649.05
L 1150.15 630
Q 1145.2 625.1 1140.25 630.05
L 1121.25 649.05
M 1122.5 582.9
L 1114.3 591.05
Q 1109.4 595.95 1114.35 600.9
L 1122.5 609.05
Q 1127.4 613.95 1132.35 609.05
L 1140.5 600.9
Q 1145.4 595.95 1140.5 591.05
L 1132.35 582.9
Q 1127.4 578 1122.5 582.9
M 1125.15 561.75
L 1117 553.6
Q 1112.1 548.7 1107.15 553.6
L 1098.95 561.75
Q 1094.05 566.65 1099 571.6
L 1107.15 579.75
Q 1112.1 584.65 1117 579.75
L 1125.15 571.6
Q 1130.05 566.65 1125.15 561.75
M 1049.1 573.35
Q 1044.15 568.4 1039.25 573.35
L 992.85 619.65
Q 987.9 624.6 992.85 629.55
L 1039.25 675.95
Q 1044.2 680.85 1049.1 675.9
L 1095.45 629.55
Q 1100.35 624.6 1095.4 619.7
L 1049.1 573.35
M 969.05 765.7
Q 964.15 770.65 969.05 775.55
L 1076.8 883.3
Q 1081.7 888.25 1086.6 883.3
L 1194.35 775.55
Q 1199.35 770.6 1194.4 765.65
L 1086.6 657.95
Q 1081.7 653 1076.75 657.95
L 969.05 765.7
M 926.3 761.2
Q 921.35 766.1 926.3 771.05
L 934.45 779.2
Q 939.35 784.15 944.25 779.2
L 952.45 771.05
Q 957.35 766.1 952.45 761.2
L 944.3 753.05
Q 939.35 748.1 934.45 753.05
L 926.3 761.2
M 937.1 739.65
Q 942.05 734.7 937.1 729.8
L 929 721.65
Q 924.05 716.75 919.1 721.65
L 910.95 729.8
Q 906.05 734.7 911 739.65
L 919.1 747.8
Q 924.05 752.7 928.95 747.8
L 937.1 739.65
M 888.1 778.85
L 879.9 787
Q 875 791.9 879.95 796.85
L 888.1 805
Q 893 809.9 897.95 805
L 906.1 796.85
Q 911 791.9 906.1 787
L 897.95 778.85
Q 893 773.95 888.1 778.85
M 871.35 686.55
L 863.2 678.4
Q 858.25 673.5 853.3 678.4
L 845.15 686.55
Q 840.25 691.5 845.2 696.4
L 853.3 704.55
Q 858.25 709.45 863.2 704.55
L 871.35 696.4
Q 876.25 691.5 871.35 686.55
M 962.75 664.6
Q 957.8 659.7 952.85 664.6
L 926.7 690.75
Q 921.75 695.7 926.7 700.65
L 952.85 726.75
Q 957.75 731.7 962.75 726.75
L 988.85 700.65
Q 993.8 695.7 988.85 690.8
L 962.75 664.6
M 954.9 637.25
L 936.65 619.05
Q 931.7 614.1 926.75 619.05
L 908.6 637.25
Q 903.6 642.2 908.55 647.15
L 926.75 665.35
Q 931.65 670.3 936.65 665.35
L 954.85 647.15
Q 959.8 642.2 954.9 637.25
M 798 746.7
Q 793.05 741.75 788.15 746.7
L 741.75 793
Q 736.8 797.95 741.75 802.9
L 788.15 849.3
Q 793.1 854.2 798 849.25
L 844.35 802.9
Q 849.25 797.95 844.3 793.05
L 798 746.7
M 784.65 714.2
Q 779.7 719.15 784.6 724.1
L 810.8 750.2
Q 815.7 755.15 820.7 750.2
L 846.75 724.1
Q 851.75 719.15 846.8 714.25
L 820.7 688.05
Q 815.75 683.15 810.8 688.05
L 784.65 714.2
M 666.9 712.4
Q 671.9 707.45 666.95 702.55
L 649.95 685.5 649.95 729.35 666.9 712.4
M 768.45 684.1
Q 763.5 679.2 758.6 684.1
L 750.45 692.25
Q 745.55 697.2 750.5 702.1
L 758.6 710.25
Q 763.5 715.15 768.45 710.25
L 776.65 702.1
Q 781.55 697.2 776.65 692.25
L 768.45 684.1
M 739.25 663.7
Q 744.2 658.75 739.25 653.85
L 713.15 627.65
Q 708.2 622.75 703.25 627.65
L 677.1 653.8
Q 672.15 658.75 677.1 663.7
L 703.25 689.8
Q 708.15 694.75 713.15 689.8
L 739.25 663.7
M 733.55 632.3
L 741.7 624.15
Q 746.6 619.25 741.7 614.3
L 733.55 606.15
Q 728.6 601.25 723.7 606.15
L 715.5 614.3
Q 710.6 619.25 715.55 624.15
L 723.7 632.3
Q 728.6 637.2 733.55 632.3
M 964.2 559.9
Q 959.3 554.95 954.35 559.9
L 946.2 568.05
Q 941.25 572.95 946.2 577.85
L 954.35 586
Q 959.3 590.95 964.2 586
L 972.35 577.85
Q 977.3 572.95 972.35 568.05
L 964.2 559.9 Z"/>
</g>

<g id="Layer0_9_FILL">
<path fill="#54447B" stroke="none" d="
M -10 970
L -10 490 -650 490 -650 970 -10 970 Z"/>
</g>

<g id="Layer0_10_FILL">
<path fill="#EC5495" stroke="none" d="
M 640 980
L 0 980 0 1460 640 1460 640 980 Z"/>
</g>

<g id="Layer0_11_FILL">
<path fill="#E9DBAD" stroke="none" d="
M 385.95 1297
Q 381.95 1297 381.95 1301
L 381.95 1459.95 408.95 1459.95 408.95 1301
Q 408.95 1297 404.95 1297
L 385.95 1297
M 449.95 1231.05
Q 449.95 1227.05 445.95 1227.05
L 426.95 1227.05
Q 422.95 1227.05 422.95 1231.05
L 422.95 1459.95 449.95 1459.95 449.95 1231.05
M 589.95 1281.05
Q 589.95 1277.05 585.95 1277.05
L 566.95 1277.05
Q 562.95 1277.05 562.95 1281.05
L 562.95 1459.95 589.95 1459.95 589.95 1281.05
M 36 1273
Q 32 1273 32 1277
L 32 1459.95 59 1459.95 59 1277
Q 59 1273 55 1273
L 36 1273
M 289.95 1235.05
Q 289.95 1231.05 285.95 1231.05
L 266.95 1231.05
Q 262.95 1231.05 262.95 1235.05
L 262.95 1459.95 289.95 1459.95 289.95 1235.05
M 252.95 1185.85
L 233.95 1185.85
Q 229.95 1185.85 229.95 1189.85
L 229.95 1459.95 256.95 1459.95 256.95 1189.85
Q 256.95 1185.85 252.95 1185.85 Z"/>
</g>

<g id="Layer0_12_FILL">
<path fill="#EC5495" stroke="none" d="
M 1290 980
L 650 980 650 1460 1290 1460 1290 980 Z"/>
</g>

<g id="Layer0_13_FILL">
<path fill="#F7E8B7" stroke="none" d="
M 1004.55 1381
Q 1009.45 1376.05 1004.55 1371.15
L 996.45 1363
Q 991.45 1358.1 986.55 1363
L 978.4 1371.15
Q 973.5 1376.05 978.45 1381
L 986.55 1389.2
Q 991.45 1394.1 996.4 1389.2
L 1004.55 1381
M 1282.1 1354.65
L 1290 1362.55 1290 1336.85 1282.1 1344.75
Q 1277.15 1349.7 1282.1 1354.65
M 1187.15 1324.65
Q 1182.2 1319.7 1177.25 1324.65
L 1169.1 1332.8
Q 1164.2 1337.7 1169.15 1342.65
L 1177.25 1350.8
Q 1182.2 1355.75 1187.1 1350.8
L 1195.3 1342.65
Q 1200.2 1337.7 1195.3 1332.8
L 1187.15 1324.65
M 1211.7 1302.8
L 1203.55 1294.65
Q 1198.6 1289.75 1193.7 1294.65
L 1185.5 1302.8
Q 1180.6 1307.75 1185.55 1312.65
L 1193.7 1320.8
Q 1198.6 1325.7 1203.55 1320.8
L 1211.7 1312.65
Q 1216.6 1307.75 1211.7 1302.8
M 1189.6 1197.7
Q 1184.65 1192.8 1179.7 1197.7
L 1171.55 1205.85
Q 1166.65 1210.8 1171.6 1215.7
L 1179.7 1223.85
Q 1184.65 1228.75 1189.6 1223.85
L 1197.75 1215.7
Q 1202.65 1210.8 1197.75 1205.85
L 1189.6 1197.7
M 1254.45 1253.65
Q 1249.55 1258.6 1254.45 1263.5
L 1262.6 1271.7
Q 1267.5 1276.6 1272.45 1271.7
L 1280.6 1263.5
Q 1285.5 1258.6 1280.6 1253.65
L 1272.45 1245.5
Q 1267.5 1240.6 1262.6 1245.5
L 1254.45 1253.65
M 1252 1228.7
L 1233 1209.65
Q 1228.05 1204.75 1223.1 1209.7
L 1204.1 1228.7
Q 1199.15 1233.65 1204.1 1238.55
L 1223.1 1257.55
Q 1228.05 1262.45 1233 1257.5
L 1251.95 1238.55
Q 1256.95 1233.6 1252 1228.7
M 678.15 1318.6
Q 673.2 1313.7 668.25 1318.6
L 650 1336.85 650 1362.55 668.25 1380.75
Q 673.15 1385.7 678.15 1380.75
L 704.25 1354.65
Q 709.2 1349.7 704.25 1344.8
L 678.15 1318.6
M 700.5 1305.25
Q 695.6 1310.2 700.55 1315.1
L 708.7 1323.25
Q 713.6 1328.15 718.55 1323.25
L 726.7 1315.1
Q 731.6 1310.2 726.7 1305.25
L 718.55 1297.1
Q 713.6 1292.2 708.7 1297.1
L 700.5 1305.25
M 687.45 1282.65
Q 682.5 1277.75 677.6 1282.65
L 669.4 1290.8
Q 664.5 1295.75 669.45 1300.65
L 677.6 1308.8
Q 682.5 1313.7 687.45 1308.8
L 695.6 1300.65
Q 700.5 1295.75 695.6 1290.8
L 687.45 1282.65
M 666.9 1202.4
Q 671.9 1197.45 666.95 1192.55
L 649.95 1175.5 649.95 1219.35 666.9 1202.4
M 844.35 1292.9
Q 849.25 1287.95 844.3 1283.05
L 798 1236.7
Q 793.05 1231.75 788.15 1236.7
L 741.75 1283
Q 736.8 1287.95 741.75 1292.9
L 788.15 1339.3
Q 793.1 1344.2 798 1339.25
L 844.35 1292.9
M 926.3 1251.2
Q 921.35 1256.1 926.3 1261.05
L 934.45 1269.2
Q 939.35 1274.15 944.25 1269.2
L 952.45 1261.05
Q 957.35 1256.1 952.45 1251.2
L 944.3 1243.05
Q 939.35 1238.1 934.45 1243.05
L 926.3 1251.2
M 906.1 1286.85
Q 911 1281.9 906.1 1277
L 897.95 1268.85
Q 893 1263.95 888.1 1268.85
L 879.9 1277
Q 875 1281.9 879.95 1286.85
L 888.1 1295
Q 893 1299.9 897.95 1295
L 906.1 1286.85
M 937.1 1229.65
Q 942.05 1224.7 937.1 1219.8
L 929 1211.65
Q 924.05 1206.75 919.1 1211.65
L 910.95 1219.8
Q 906.05 1224.7 911 1229.65
L 919.1 1237.8
Q 924.05 1242.7 928.95 1237.8
L 937.1 1229.65
M 962.75 1154.6
Q 957.8 1149.7 952.85 1154.6
L 926.7 1180.75
Q 921.75 1185.7 926.7 1190.65
L 952.85 1216.75
Q 957.75 1221.7 962.75 1216.75
L 988.85 1190.65
Q 993.8 1185.7 988.85 1180.8
L 962.75 1154.6
M 954.85 1137.15
Q 959.8 1132.2 954.9 1127.25
L 936.65 1109.05
Q 931.7 1104.1 926.75 1109.05
L 908.6 1127.25
Q 903.6 1132.2 908.55 1137.15
L 926.75 1155.35
Q 931.65 1160.3 936.65 1155.35
L 954.85 1137.15
M 845.15 1176.55
Q 840.25 1181.5 845.2 1186.4
L 853.3 1194.55
Q 858.25 1199.45 863.2 1194.55
L 871.35 1186.4
Q 876.25 1181.5 871.35 1176.55
L 863.2 1168.4
Q 858.25 1163.5 853.3 1168.4
L 845.15 1176.55
M 820.7 1178.05
Q 815.75 1173.15 810.8 1178.05
L 784.65 1204.2
Q 779.7 1209.15 784.6 1214.1
L 810.8 1240.2
Q 815.7 1245.15 820.7 1240.2
L 846.75 1214.1
Q 851.75 1209.15 846.8 1204.25
L 820.7 1178.05
M 768.45 1174.1
Q 763.5 1169.2 758.6 1174.1
L 750.45 1182.25
Q 745.55 1187.2 750.5 1192.1
L 758.6 1200.25
Q 763.5 1205.15 768.45 1200.25
L 776.65 1192.1
Q 781.55 1187.2 776.65 1182.25
L 768.45 1174.1
M 713.15 1117.65
Q 708.2 1112.75 703.25 1117.65
L 677.1 1143.8
Q 672.15 1148.75 677.1 1153.7
L 703.25 1179.8
Q 708.15 1184.75 713.15 1179.8
L 739.25 1153.7
Q 744.2 1148.75 739.25 1143.85
L 713.15 1117.65
M 715.5 1104.3
Q 710.6 1109.25 715.55 1114.15
L 723.7 1122.3
Q 728.6 1127.2 733.55 1122.3
L 741.7 1114.15
Q 746.6 1109.25 741.7 1104.3
L 733.55 1096.15
Q 728.6 1091.25 723.7 1096.15
L 715.5 1104.3
M 1289.95 1175.5
L 1287.95 1173.5
Q 1283 1168.6 1278.05 1173.55
L 1259.1 1192.55
Q 1254.15 1197.5 1259.1 1202.4
L 1278.05 1221.4
Q 1283 1226.3 1287.95 1221.35
L 1289.95 1219.35 1289.95 1175.5
M 1121.25 1139.05
Q 1116.3 1144 1121.25 1148.9
L 1140.25 1167.95
Q 1145.2 1172.85 1150.15 1167.9
L 1169.05 1148.9
Q 1174.05 1143.95 1169.1 1139.05
L 1150.15 1120
Q 1145.2 1115.1 1140.25 1120.05
L 1121.25 1139.05
M 1086.6 1147.95
Q 1081.7 1143 1076.75 1147.95
L 969.05 1255.7
Q 964.15 1260.65 969.05 1265.55
L 1076.8 1373.3
Q 1081.7 1378.25 1086.6 1373.3
L 1194.35 1265.55
Q 1199.35 1260.6 1194.4 1255.65
L 1086.6 1147.95
M 1049.1 1063.35
Q 1044.15 1058.4 1039.25 1063.35
L 992.85 1109.65
Q 987.9 1114.6 992.85 1119.55
L 1039.25 1165.95
Q 1044.2 1170.85 1049.1 1165.9
L 1095.45 1119.55
Q 1100.35 1114.6 1095.4 1109.7
L 1049.1 1063.35
M 972.35 1067.85
Q 977.3 1062.95 972.35 1058.05
L 964.2 1049.9
Q 959.3 1044.95 954.35 1049.9
L 946.2 1058.05
Q 941.25 1062.95 946.2 1067.85
L 954.35 1076
Q 959.3 1080.95 964.2 1076
L 972.35 1067.85
M 1122.5 1072.9
L 1114.3 1081.05
Q 1109.4 1085.95 1114.35 1090.9
L 1122.5 1099.05
Q 1127.4 1103.95 1132.35 1099.05
L 1140.5 1090.9
Q 1145.4 1085.95 1140.5 1081.05
L 1132.35 1072.9
Q 1127.4 1068 1122.5 1072.9
M 1125.15 1061.6
Q 1130.05 1056.65 1125.15 1051.75
L 1117 1043.6
Q 1112.1 1038.7 1107.15 1043.6
L 1098.95 1051.75
Q 1094.05 1056.65 1099 1061.6
L 1107.15 1069.75
Q 1112.1 1074.65 1117 1069.75
L 1125.15 1061.6 Z"/>
</g>

<g id="Layer0_14_FILL">
<path fill="#FFEFBD" stroke="none" d="
M -10 1460
L -10 980 -650 980 -650 1460 -10 1460 Z"/>
</g>

<g id="Layer0_15_FILL">
<path fill="#EC5495" stroke="none" d="
M 640 1470
L 0 1470 0 1950 640 1950 640 1470 Z"/>
</g>

<g id="Layer0_16_FILL">
<path fill="#85674D" stroke="none" d="
M 36 1763
Q 32 1763 32 1767
L 32 1949.95 59 1949.95 59 1767
Q 59 1763 55 1763
L 36 1763
M 289.95 1725.05
Q 289.95 1721.05 285.95 1721.05
L 266.95 1721.05
Q 262.95 1721.05 262.95 1725.05
L 262.95 1949.95 289.95 1949.95 289.95 1725.05
M 256.95 1679.85
Q 256.95 1675.85 252.95 1675.85
L 233.95 1675.85
Q 229.95 1675.85 229.95 1679.85
L 229.95 1949.95 256.95 1949.95 256.95 1679.85
M 385.95 1787
Q 381.95 1787 381.95 1791
L 381.95 1949.95 408.95 1949.95 408.95 1791
Q 408.95 1787 404.95 1787
L 385.95 1787
M 449.95 1721.05
Q 449.95 1717.05 445.95 1717.05
L 426.95 1717.05
Q 422.95 1717.05 422.95 1721.05
L 422.95 1949.95 449.95 1949.95 449.95 1721.05
M 566.95 1767.05
Q 562.95 1767.05 562.95 1771.05
L 562.95 1949.95 589.95 1949.95 589.95 1771.05
Q 589.95 1767.05 585.95 1767.05
L 566.95 1767.05 Z"/>
</g>

<g id="Layer0_17_FILL">
<path fill="#EC5495" stroke="none" d="
M 1290 1470
L 650 1470 650 1950 1290 1950 1290 1470 Z"/>
</g>

<g id="Layer0_18_FILL">
<path fill="#937256" stroke="none" d="
M 678.15 1808.6
Q 673.2 1803.7 668.25 1808.6
L 650 1826.85 650 1852.55 668.25 1870.75
Q 673.15 1875.7 678.15 1870.75
L 704.25 1844.65
Q 709.2 1839.7 704.25 1834.8
L 678.15 1808.6
M 700.5 1795.25
Q 695.6 1800.2 700.55 1805.1
L 708.7 1813.25
Q 713.6 1818.15 718.55 1813.25
L 726.7 1805.1
Q 731.6 1800.2 726.7 1795.25
L 718.55 1787.1
Q 713.6 1782.2 708.7 1787.1
L 700.5 1795.25
M 798 1726.7
Q 793.05 1721.75 788.15 1726.7
L 741.75 1773
Q 736.8 1777.95 741.75 1782.9
L 788.15 1829.3
Q 793.1 1834.2 798 1829.25
L 844.35 1782.9
Q 849.25 1777.95 844.3 1773.05
L 798 1726.7
M 687.45 1772.65
Q 682.5 1767.75 677.6 1772.65
L 669.4 1780.8
Q 664.5 1785.75 669.45 1790.65
L 677.6 1798.8
Q 682.5 1803.7 687.45 1798.8
L 695.6 1790.65
Q 700.5 1785.75 695.6 1780.8
L 687.45 1772.65
M 666.95 1682.55
L 649.95 1665.5 649.95 1709.35 666.9 1692.4
Q 671.9 1687.45 666.95 1682.55
M 768.45 1664.1
Q 763.5 1659.2 758.6 1664.1
L 750.45 1672.25
Q 745.55 1677.2 750.5 1682.1
L 758.6 1690.25
Q 763.5 1695.15 768.45 1690.25
L 776.65 1682.1
Q 781.55 1677.2 776.65 1672.25
L 768.45 1664.1
M 739.25 1643.7
Q 744.2 1638.75 739.25 1633.85
L 713.15 1607.65
Q 708.2 1602.75 703.25 1607.65
L 677.1 1633.8
Q 672.15 1638.75 677.1 1643.7
L 703.25 1669.8
Q 708.15 1674.75 713.15 1669.8
L 739.25 1643.7
M 733.55 1612.3
L 741.7 1604.15
Q 746.6 1599.25 741.7 1594.3
L 733.55 1586.15
Q 728.6 1581.25 723.7 1586.15
L 715.5 1594.3
Q 710.6 1599.25 715.55 1604.15
L 723.7 1612.3
Q 728.6 1617.2 733.55 1612.3
M 926.3 1741.2
Q 921.35 1746.1 926.3 1751.05
L 934.45 1759.2
Q 939.35 1764.15 944.25 1759.2
L 952.45 1751.05
Q 957.35 1746.1 952.45 1741.2
L 944.3 1733.05
Q 939.35 1728.1 934.45 1733.05
L 926.3 1741.2
M 937.1 1719.65
Q 942.05 1714.7 937.1 1709.8
L 929 1701.65
Q 924.05 1696.75 919.1 1701.65
L 910.95 1709.8
Q 906.05 1714.7 911 1719.65
L 919.1 1727.8
Q 924.05 1732.7 928.95 1727.8
L 937.1 1719.65
M 888.1 1758.85
L 879.9 1767
Q 875 1771.9 879.95 1776.85
L 888.1 1785
Q 893 1789.9 897.95 1785
L 906.1 1776.85
Q 911 1771.9 906.1 1767
L 897.95 1758.85
Q 893 1753.95 888.1 1758.85
M 845.15 1666.55
Q 840.25 1671.5 845.2 1676.4
L 853.3 1684.55
Q 858.25 1689.45 863.2 1684.55
L 871.35 1676.4
Q 876.25 1671.5 871.35 1666.55
L 863.2 1658.4
Q 858.25 1653.5 853.3 1658.4
L 845.15 1666.55
M 820.7 1668.05
Q 815.75 1663.15 810.8 1668.05
L 784.65 1694.2
Q 779.7 1699.15 784.6 1704.1
L 810.8 1730.2
Q 815.7 1735.15 820.7 1730.2
L 846.75 1704.1
Q 851.75 1699.15 846.8 1694.25
L 820.7 1668.05
M 954.85 1627.15
Q 959.8 1622.2 954.9 1617.25
L 936.65 1599.05
Q 931.7 1594.1 926.75 1599.05
L 908.6 1617.25
Q 903.6 1622.2 908.55 1627.15
L 926.75 1645.35
Q 931.65 1650.3 936.65 1645.35
L 954.85 1627.15
M 1187.15 1814.65
Q 1182.2 1809.7 1177.25 1814.65
L 1169.1 1822.8
Q 1164.2 1827.7 1169.15 1832.65
L 1177.25 1840.8
Q 1182.2 1845.75 1187.1 1840.8
L 1195.3 1832.65
Q 1200.2 1827.7 1195.3 1822.8
L 1187.15 1814.65
M 1211.7 1802.65
Q 1216.6 1797.75 1211.7 1792.8
L 1203.55 1784.65
Q 1198.6 1779.75 1193.7 1784.65
L 1185.5 1792.8
Q 1180.6 1797.75 1185.55 1802.65
L 1193.7 1810.8
Q 1198.6 1815.7 1203.55 1810.8
L 1211.7 1802.65
M 1282.1 1844.65
L 1290 1852.55 1290 1826.85 1282.1 1834.75
Q 1277.15 1839.7 1282.1 1844.65
M 978.45 1871
L 986.55 1879.2
Q 991.45 1884.1 996.4 1879.2
L 1004.55 1871
Q 1009.45 1866.05 1004.55 1861.15
L 996.45 1853
Q 991.45 1848.1 986.55 1853
L 978.4 1861.15
Q 973.5 1866.05 978.45 1871
M 988.85 1680.65
Q 993.8 1675.7 988.85 1670.8
L 962.75 1644.6
Q 957.8 1639.7 952.85 1644.6
L 926.7 1670.75
Q 921.75 1675.7 926.7 1680.65
L 952.85 1706.75
Q 957.75 1711.7 962.75 1706.75
L 988.85 1680.65
M 1254.45 1743.65
Q 1249.55 1748.6 1254.45 1753.5
L 1262.6 1761.7
Q 1267.5 1766.6 1272.45 1761.7
L 1280.6 1753.5
Q 1285.5 1748.6 1280.6 1743.65
L 1272.45 1735.5
Q 1267.5 1730.6 1262.6 1735.5
L 1254.45 1743.65
M 1194.35 1755.55
Q 1199.35 1750.6 1194.4 1745.65
L 1086.6 1637.95
Q 1081.7 1633 1076.75 1637.95
L 969.05 1745.7
Q 964.15 1750.65 969.05 1755.55
L 1076.8 1863.3
Q 1081.7 1868.25 1086.6 1863.3
L 1194.35 1755.55
M 1204.1 1718.7
Q 1199.15 1723.65 1204.1 1728.55
L 1223.1 1747.55
Q 1228.05 1752.45 1233 1747.5
L 1251.95 1728.55
Q 1256.95 1723.6 1252 1718.7
L 1233 1699.65
Q 1228.05 1694.75 1223.1 1699.7
L 1204.1 1718.7
M 1189.6 1687.7
Q 1184.65 1682.8 1179.7 1687.7
L 1171.55 1695.85
Q 1166.65 1700.8 1171.6 1705.7
L 1179.7 1713.85
Q 1184.65 1718.75 1189.6 1713.85
L 1197.75 1705.7
Q 1202.65 1700.8 1197.75 1695.85
L 1189.6 1687.7
M 1169.1 1629.05
L 1150.15 1610
Q 1145.2 1605.1 1140.25 1610.05
L 1121.25 1629.05
Q 1116.3 1634 1121.25 1638.9
L 1140.25 1657.95
Q 1145.2 1662.85 1150.15 1657.9
L 1169.05 1638.9
Q 1174.05 1633.95 1169.1 1629.05
M 1278.05 1663.55
L 1259.1 1682.55
Q 1254.15 1687.5 1259.1 1692.4
L 1278.05 1711.4
Q 1283 1716.3 1287.95 1711.35
L 1289.95 1709.35 1289.95 1665.5 1287.95 1663.5
Q 1283 1658.6 1278.05 1663.55
M 1132.35 1562.9
Q 1127.4 1558 1122.5 1562.9
L 1114.3 1571.05
Q 1109.4 1575.95 1114.35 1580.9
L 1122.5 1589.05
Q 1127.4 1593.95 1132.35 1589.05
L 1140.5 1580.9
Q 1145.4 1575.95 1140.5 1571.05
L 1132.35 1562.9
M 1117 1533.6
Q 1112.1 1528.7 1107.15 1533.6
L 1098.95 1541.75
Q 1094.05 1546.65 1099 1551.6
L 1107.15 1559.75
Q 1112.1 1564.65 1117 1559.75
L 1125.15 1551.6
Q 1130.05 1546.65 1125.15 1541.75
L 1117 1533.6
M 1049.1 1553.35
Q 1044.15 1548.4 1039.25 1553.35
L 992.85 1599.65
Q 987.9 1604.6 992.85 1609.55
L 1039.25 1655.95
Q 1044.2 1660.85 1049.1 1655.9
L 1095.45 1609.55
Q 1100.35 1604.6 1095.4 1599.7
L 1049.1 1553.35
M 964.2 1539.9
Q 959.3 1534.95 954.35 1539.9
L 946.2 1548.05
Q 941.25 1552.95 946.2 1557.85
L 954.35 1566
Q 959.3 1570.95 964.2 1566
L 972.35 1557.85
Q 977.3 1552.95 972.35 1548.05
L 964.2 1539.9 Z"/>
</g>

<g id="Layer0_19_FILL">
<path fill="#8E6E53" stroke="none" d="
M -10 1470
L -650 1470 -650 1950 -10 1950 -10 1470 Z"/>
</g>
</defs>

<g transform="matrix( 1, 0, 0, 1, 650,0) ">
<use xlink:href="#Layer0_0_FILL"/>
</g>

<g transform="matrix( 1, 0, 0, 1, 650,0) ">
<use xlink:href="#Layer0_1_FILL"/>
</g>

<g transform="matrix( 1, 0, 0, 1, 650,0) ">
<use xlink:href="#Layer0_2_FILL"/>
</g>

<g transform="matrix( 1, 0, 0, 1, 650,0) ">
<use xlink:href="#Layer0_3_FILL"/>
</g>

<g transform="matrix( 1, 0, 0, 1, 650,0) ">
<use xlink:href="#Layer0_4_FILL"/>
</g>

<g transform="matrix( 1, 0, 0, 1, 650,0) ">
<use xlink:href="#Layer0_5_FILL"/>
</g>

<g transform="matrix( 1, 0, 0, 1, 650,0) ">
<use xlink:href="#Layer0_6_FILL"/>
</g>

<g transform="matrix( 1, 0, 0, 1, 650,0) ">
<use xlink:href="#Layer0_7_FILL"/>
</g>

<g transform="matrix( 1, 0, 0, 1, 650,0) ">
<use xlink:href="#Layer0_8_FILL"/>
</g>

<g transform="matrix( 1, 0, 0, 1, 650,0) ">
<use xlink:href="#Layer0_9_FILL"/>
</g>

<g transform="matrix( 1, 0, 0, 1, 650,0) ">
<use xlink:href="#Layer0_10_FILL"/>
</g>

<g transform="matrix( 1, 0, 0, 1, 650,0) ">
<use xlink:href="#Layer0_11_FILL"/>
</g>

<g transform="matrix( 1, 0, 0, 1, 650,0) ">
<use xlink:href="#Layer0_12_FILL"/>
</g>

<g transform="matrix( 1, 0, 0, 1, 650,0) ">
<use xlink:href="#Layer0_13_FILL"/>
</g>

<g transform="matrix( 1, 0, 0, 1, 650,0) ">
<use xlink:href="#Layer0_14_FILL"/>
</g>

<g transform="matrix( 1, 0, 0, 1, 650,0) ">
<use xlink:href="#Layer0_15_FILL"/>
</g>

<g transform="matrix( 1, 0, 0, 1, 650,0) ">
<use xlink:href="#Layer0_16_FILL"/>
</g>

<g transform="matrix( 1, 0, 0, 1, 650,0) ">
<use xlink:href="#Layer0_17_FILL"/>
</g>

<g transform="matrix( 1, 0, 0, 1, 650,0) ">
<use xlink:href="#Layer0_18_FILL"/>
</g>

<g transform="matrix( 1, 0, 0, 1, 650,0) ">
<use xlink:href="#Layer0_19_FILL"/>
</g>
</svg>
