<svg xmlns="http://www.w3.org/2000/svg" xmlns:xlink="http://www.w3.org/1999/xlink">
  <defs/>
  <g>
    <path stroke="none" fill="#000000" d="M523.75 272.3 Q526 274.6 526 279.15 L526 516.85 Q526 526 516.85 526 L279.15 526 Q274.6 526 272.3 523.75 270 521.45 270 516.85 L270 279.15 Q270 270 279.15 270 L516.85 270 Q521.45 270 523.75 272.3"/>
    <path stroke="none" fill="#7E5A2F" fill-opacity="0.6" d="M523.75 272.3 Q526 274.6 526 279.15 L526 516.85 Q526 526 516.85 526 L279.15 526 Q274.6 526 272.3 523.75 270 521.45 270 516.85 L270 279.15 Q270 270 279.15 270 L516.85 270 Q521.45 270 523.75 272.3"/>
    <path stroke="none" fill="#9F8266" d="M6.05 250 L2.3 253.75 Q0 251.45 0 246.85 L0 9.15 Q0 0 9.15 0 L246.85 0 Q251.45 0 253.75 2.3 L250 6.05 Q248.95 5 246.85 5 L9.15 5 Q5 5 5 9.15 L5 246.85 Q5 248.95 6.05 250"/>
    <path stroke="none" fill="#7B6147" d="M6.05 250 Q7.1 251 9.15 251 L246.85 251 Q251 251 251 246.85 L251 9.15 Q251 7.1 250 6.05 L253.75 2.3 Q256 4.6 256 9.15 L256 246.85 Q256 256 246.85 256 L9.15 256 Q4.6 256 2.3 253.75 L6.05 250"/>
    <path stroke="none" fill="#8A6F54" d="M6.05 250 Q5 248.95 5 246.85 L5 9.15 Q5 5 9.15 5 L246.85 5 Q248.95 5 250 6.05 251 7.1 251 9.15 L251 246.85 Q251 251 246.85 251 L9.15 251 Q7.1 251 6.05 250 M221 40 L221 35 35 35 35 40 35 221 221 221 221 40"/>
    <path stroke="none" fill="#70573E" d="M221 40 L35 40 35 35 221 35 221 40"/>
    <path stroke="none" fill="#80654A" d="M221 40 L221 221 35 221 35 40 221 40"/>
    <path stroke="none" fill="#D2A800" d="M523.75 2.3 Q526 4.6 526 9.15 L526 246.85 Q526 256 516.85 256 L279.15 256 Q274.6 256 272.3 253.75 L276.05 250 Q277.1 251 279.15 251 L516.85 251 Q521 251 521 246.85 L521 9.15 Q521 7.1 520 6.05 L523.75 2.3"/>
    <path stroke="none" fill="#FFE272" d="M523.75 2.3 L520 6.05 Q518.95 5 516.85 5 L279.15 5 Q275 5 275 9.15 L275 246.85 Q275 248.95 276.05 250 L272.3 253.75 Q270 251.45 270 246.85 L270 9.15 Q270 0 279.15 0 L516.85 0 Q521.45 0 523.75 2.3"/>
    <path stroke="none" fill="#FFCC00" d="M520 6.05 Q521 7.1 521 9.15 L521 246.85 Q521 251 516.85 251 L279.15 251 Q277.1 251 276.05 250 275 248.95 275 246.85 L275 9.15 Q275 5 279.15 5 L516.85 5 Q518.95 5 520 6.05 M491 40 L491 35 305 35 305 40 305 221 491 221 491 40"/>
    <path stroke="none" fill="#86969A" d="M491 40 L305 40 305 35 491 35 491 40"/>
    <path stroke="none" fill="#A5B1B4" d="M491 40 L491 221 305 221 305 40 491 40"/>
    <path stroke="none" fill="#F3C200" d="M511.05 14.9 Q514 17.85 514 22 514 26.15 511.05 29.05 508.15 32 504 32 499.85 32 496.9 29.05 494 26.15 494 22 494 17.85 496.9 14.9 499.85 12 504 12 508.15 12 511.05 14.9 M299.05 29.05 Q296.15 32 292 32 287.85 32 284.9 29.05 282 26.15 282 22 282 17.85 284.9 14.9 287.85 12 292 12 296.15 12 299.05 14.9 302 17.85 302 22 302 26.15 299.05 29.05 M299.05 226.9 Q302 229.85 302 234 302 238.15 299.05 241.05 296.15 244 292 244 287.85 244 284.9 241.05 282 238.15 282 234 282 229.85 284.9 226.9 287.85 224 292 224 296.15 224 299.05 226.9 M496.9 241.05 Q494 238.15 494 234 494 229.85 496.9 226.9 499.85 224 504 224 508.15 224 511.05 226.9 514 229.85 514 234 514 238.15 511.05 241.05 508.15 244 504 244 499.85 244 496.9 241.05"/>
    <path stroke="none" fill="#FFFFFF" fill-opacity="0.30196078431372547" d="M520 276.05 Q518.95 275 516.85 275 L279.15 275 Q275 275 275 279.15 L275 516.85 Q275 518.95 276.05 520 L272.3 523.75 Q270 521.45 270 516.85 L270 279.15 Q270 270 279.15 270 L516.85 270 Q521.45 270 523.75 272.3 L520 276.05"/>
    <path stroke="none" fill="#FFFFFF" fill-opacity="0" d="M520 276.05 Q521 277.1 521 279.15 L521 516.85 Q521 521 516.85 521 L279.15 521 Q277.1 521 276.05 520 275 518.95 275 516.85 L275 279.15 Q275 275 279.15 275 L516.85 275 Q518.95 275 520 276.05 M491 310 L491 305 305 305 305 310 305 491 491 491 491 310"/>
    <path stroke="none" fill="#000000" fill-opacity="0.5019607843137255" d="M305 310 L305 305 491 305 491 310 305 310"/>
    <path stroke="none" fill="#000000" fill-opacity="0.30196078431372547" d="M305 310 L491 310 491 491 305 491 305 310 M520 276.05 L523.75 272.3 Q526 274.6 526 279.15 L526 516.85 Q526 526 516.85 526 L279.15 526 Q274.6 526 272.3 523.75 L276.05 520 Q277.1 521 279.15 521 L516.85 521 Q521 521 521 516.85 L521 279.15 Q521 277.1 520 276.05"/>
    <path stroke="none" fill="#000000" d="M793.75 272.3 Q796 274.6 796 279.15 L796 516.85 Q796 526 786.85 526 L549.15 526 Q544.6 526 542.3 523.75 540 521.45 540 516.85 L540 279.15 Q540 270 549.15 270 L786.85 270 Q791.45 270 793.75 272.3"/>
    <path stroke="none" fill="#FFFFFF" fill-opacity="0" d="M761 310 L761 305 575 305 575 310 575 491 761 491 761 310 M546.05 520 Q545 518.95 545 516.85 L545 279.15 Q545 275 549.15 275 L786.85 275 Q788.95 275 790 276.05 791 277.1 791 279.15 L791 516.85 Q791 521 786.85 521 L549.15 521 Q547.1 521 546.05 520"/>
    <path stroke="none" fill="#000000" fill-opacity="0.5019607843137255" d="M575 310 L575 305 761 305 761 310 575 310"/>
    <path stroke="none" fill="#FFFFFF" fill-opacity="0.30196078431372547" d="M790 276.05 Q788.95 275 786.85 275 L549.15 275 Q545 275 545 279.15 L545 516.85 Q545 518.95 546.05 520 L542.3 523.75 Q540 521.45 540 516.85 L540 279.15 Q540 270 549.15 270 L786.85 270 Q791.45 270 793.75 272.3 L790 276.05"/>
    <path stroke="none" fill="#000000" fill-opacity="0.30196078431372547" d="M790 276.05 L793.75 272.3 Q796 274.6 796 279.15 L796 516.85 Q796 526 786.85 526 L549.15 526 Q544.6 526 542.3 523.75 L546.05 520 Q547.1 521 549.15 521 L786.85 521 Q791 521 791 516.85 L791 279.15 Q791 277.1 790 276.05 M761 310 L761 491 575 491 575 310 761 310"/>
    <path stroke="none" fill="#000000" d="M1063.75 272.3 Q1066 274.6 1066 279.15 L1066 516.85 Q1066 526 1056.85 526 L819.15 526 Q814.6 526 812.3 523.75 810 521.45 810 516.85 L810 279.15 Q810 270 819.15 270 L1056.85 270 Q1061.45 270 1063.75 272.3"/>
    <path stroke="none" fill="#FFFFFF" fill-opacity="0" d="M1031 310 L1031 305 845 305 845 310 845 491 1031 491 1031 310 M1060 276.05 Q1061 277.1 1061 279.15 L1061 516.85 Q1061 521 1056.85 521 L819.15 521 Q817.1 521 816.05 520 815 518.95 815 516.85 L815 279.15 Q815 275 819.15 275 L1056.85 275 Q1058.95 275 1060 276.05"/>
    <path stroke="none" fill="#000000" fill-opacity="0.5019607843137255" d="M845 310 L845 305 1031 305 1031 310 845 310"/>
    <path stroke="none" fill="#FFFFFF" fill-opacity="0.30196078431372547" d="M1063.75 272.3 L1060 276.05 Q1058.95 275 1056.85 275 L819.15 275 Q815 275 815 279.15 L815 516.85 Q815 518.95 816.05 520 L812.3 523.75 Q810 521.45 810 516.85 L810 279.15 Q810 270 819.15 270 L1056.85 270 Q1061.45 270 1063.75 272.3"/>
    <path stroke="none" fill="#000000" fill-opacity="0.30196078431372547" d="M1063.75 272.3 Q1066 274.6 1066 279.15 L1066 516.85 Q1066 526 1056.85 526 L819.15 526 Q814.6 526 812.3 523.75 L816.05 520 Q817.1 521 819.15 521 L1056.85 521 Q1061 521 1061 516.85 L1061 279.15 Q1061 277.1 1060 276.05 L1063.75 272.3 M1031 310 L1031 491 845 491 845 310 1031 310"/>
    <path stroke="none" fill="#C69F00" d="M793.75 2.3 Q796 4.6 796 9.15 L796 246.85 Q796 256 786.85 256 L549.15 256 Q544.6 256 542.3 253.75 540 251.45 540 246.85 L540 9.15 Q540 0 549.15 0 L786.85 0 Q791.45 0 793.75 2.3 M791 9.15 Q791 7 790.25 5.85 789 5 786.85 5 L549.15 5 Q545 5 545 9.15 L545 246.85 Q545 249 545.85 250.25 547 251 549.15 251 L786.85 251 Q791 251 791 246.85 L791 9.15"/>
    <path stroke="none" fill="#FFE479" d="M791 9.15 L791 246.85 Q791 251 786.85 251 L549.15 251 Q547 251 545.85 250.25 545 249 545 246.85 L545 9.15 Q545 5 549.15 5 L786.85 5 Q789 5 790.25 5.85 791 7 791 9.15 M550 10 L550 246 786 246 786 10 550 10"/>
    <path stroke="none" fill="#FFCC00" d="M550 10 L786 10 786 246 550 246 550 10 M761 40 L761 35 575 35 575 40 575 221 761 221 761 40"/>
    <path stroke="none" fill="#86969A" d="M761 40 L575 40 575 35 761 35 761 40"/>
    <path stroke="none" fill="#A5B1B4" d="M761 40 L761 221 575 221 575 40 761 40"/>
    <path stroke="none" fill="#C69F00" d="M1063.75 2.3 Q1066 4.6 1066 9.15 L1066 246.85 Q1066 256 1056.85 256 L819.15 256 Q814.6 256 812.3 253.75 810 251.45 810 246.85 L810 9.15 Q810 0 819.15 0 L1056.85 0 Q1061.45 0 1063.75 2.3 M1061 9.15 Q1061 7 1060.25 5.85 1059 5 1056.85 5 L819.15 5 Q815 5 815 9.15 L815 246.85 Q815 249 815.85 250.25 817 251 819.15 251 L1056.85 251 Q1061 251 1061 246.85 L1061 9.15"/>
    <path stroke="none" fill="#FFE479" d="M1061 9.15 L1061 246.85 Q1061 251 1056.85 251 L819.15 251 Q817 251 815.85 250.25 815 249 815 246.85 L815 9.15 Q815 5 819.15 5 L1056.85 5 Q1059 5 1060.25 5.85 1061 7 1061 9.15 M820 10 L820 246 1056 246 1056 10 820 10"/>
    <path stroke="none" fill="#FFCC00" d="M820 10 L1056 10 1056 246 820 246 820 10"/>
    <path stroke="none" fill="#1F829A" d="M253.75 272.3 Q256 274.6 256 279.15 L256 516.85 Q256 526 246.85 526 L9.15 526 Q4.6 526 2.3 523.75 0 521.45 0 516.85 L0 279.15 Q0 270 9.15 270 L246.85 270 Q251.45 270 253.75 272.3 M251 279.15 Q251 277 250.25 275.85 249 275 246.85 275 L9.15 275 Q5 275 5 279.15 L5 516.85 Q5 519 5.85 520.25 7 521 9.15 521 L246.85 521 Q251 521 251 516.85 L251 279.15"/>
    <path stroke="none" fill="#36C1E2" d="M251 279.15 L251 516.85 Q251 521 246.85 521 L9.15 521 Q7 521 5.85 520.25 5 519 5 516.85 L5 279.15 Q5 275 9.15 275 L246.85 275 Q249 275 250.25 275.85 251 277 251 279.15 M10 280 L10 516 246 516 246 280 10 280"/>
    <path stroke="none" fill="#24B0D2" d="M10 280 L246 280 246 516 10 516 10 280 M221 310 L221 305 35 305 35 310 35 491 221 491 221 310"/>
    <path stroke="none" fill="#1E839C" d="M221 310 L35 310 35 305 221 305 221 310"/>
    <path stroke="none" fill="#269FBD" d="M221 310 L221 491 35 491 35 310 221 310"/>
  </g>
</svg>