<svg xmlns="http://www.w3.org/2000/svg" xmlns:xlink="http://www.w3.org/1999/xlink">
  <defs/>
  <g>
    <path stroke="none" fill="#FFFFFF" d="M340 192 L346 192 346 195 337 195 337 186 340 186 340 192 M393 186 L396 186 396 195 393 195 393 192 390 192 390 195 387 195 387 186 390 186 390 189 393 189 393 186 M437 186 L440 186 440 192 446 192 446 195 437 195 437 186 M440.85 211.1 Q447.05 217.3 447.05 226 447.05 234.75 440.85 240.85 434.75 247 426.05 247 417.3 247 411.15 240.85 405.05 234.75 405.05 226 405.05 217.3 411.15 211.1 417.3 205 426.05 205 434.75 205 440.85 211.1 M438.95 221.45 L439 221 438.75 220.6 431.35 215.15 Q431.15 215 431 215 430.75 215 430.65 215.15 L430.35 215.4 425.35 226.25 Q420.5 227.45 415.3 223.85 L415.05 223.75 414.75 223.75 Q413.45 224.15 413.15 225.15 412.8 226 413.4 227.25 L413.4 227.3 Q417.55 234.05 423.2 233.85 424.2 237.15 429.15 238 L429.55 237.95 429.8 237.65 430.7 236.05 430.75 235.5 430.7 235.2 431.3 234.85 431.5 234.6 438.95 221.45 M389 221 L388.75 220.6 381.35 215.15 381 215 Q380.75 215 380.65 215.15 L380.35 215.4 375.35 226.25 Q370.5 227.45 365.3 223.85 L365.05 223.75 364.75 223.75 Q363.45 224.15 363.15 225.15 362.8 226 363.4 227.25 L363.4 227.3 Q367.55 234.05 373.2 233.85 374.2 237.15 379.15 238 L379.55 237.95 379.8 237.65 380.7 236.05 380.75 235.5 380.7 235.2 381.3 234.85 381.5 234.6 388.95 221.45 389 221 M390.85 240.85 Q384.75 247 376.05 247 367.3 247 361.15 240.85 355.05 234.75 355.05 226 355.05 217.3 361.15 211.1 367.3 205 376.05 205 384.75 205 390.85 211.1 397.05 217.3 397.05 226 397.05 234.75 390.85 240.85 M340.85 211.1 Q347.05 217.3 347.05 226 347.05 234.75 340.85 240.85 334.75 247 326.05 247 317.3 247 311.15 240.85 305.05 234.75 305.05 226 305.05 217.3 311.15 211.1 317.3 205 326.05 205 334.75 205 340.85 211.1 M325.8 220.55 L327.75 218.55 323.85 214.55 321.85 216.55 325.8 220.55 M332.85 217.35 L329.75 218.15 323.85 224.15 325.8 226.2 329.7 222.15 331.95 224.45 322.5 234.1 325.4 237 327 235.4 330.9 235.4 336.8 229.35 334.85 227.4 336.85 225.4 336.8 221.35 332.85 217.35 M326.2 228.2 L318.3 220.2 316.35 222.15 324.2 230.2 326.2 228.2 M290 189 L293 189 293 186 296 186 296 195 293 195 293 192 290 192 290 195 287 195 287 186 290 186 290 189 M319.1 219.35 L323.05 223.35 325 221.4 321.05 217.35 319.1 219.35 M284.85 227.4 L286.85 225.4 286.8 221.35 282.85 217.35 279.75 218.15 273.85 224.15 275.8 226.2 279.7 222.15 281.95 224.45 272.5 234.1 275.4 237 277 235.4 280.9 235.4 286.8 229.35 284.85 227.4 M290.85 240.85 Q284.75 247 276.05 247 267.3 247 261.15 240.85 255.05 234.75 255.05 226 255.05 217.3 261.15 211.1 267.3 205 276.05 205 284.75 205 290.85 211.1 297.05 217.3 297.05 226 297.05 234.75 290.85 240.85 M313.6 225 L321.45 233 323.4 231 315.55 223 313.6 225 M275.8 220.55 L277.75 218.55 273.85 214.55 271.85 216.55 275.8 220.55 M269.1 219.35 L273.05 223.35 275 221.4 271.05 217.35 269.1 219.35 M266.35 222.15 L274.2 230.2 276.2 228.2 268.3 220.2 266.35 222.15 M271.45 233 L273.4 231 265.55 223 263.6 225 271.45 233"/>
    <path stroke="none" fill="#0289E9" d="M324.3 169 L319.05 163.65 321.7 161 326.95 166.35 324.3 169 M333.75 164.7 L339 170.05 339.05 175.45 336.4 178.1 339 180.75 331.1 188.8 325.9 188.8 323.8 190.95 319.95 187.05 332.55 174.2 329.55 171.15 324.3 176.5 321.7 173.8 329.6 165.8 333.75 164.7 M442.6 168.3 L442.9 168.8 442.85 169.4 433.15 186.55 432.85 186.9 432.05 187.3 432.15 187.75 432.05 188.45 430.9 190.55 430.55 190.9 430.05 191 Q423.6 189.85 422.25 185.55 415.75 185.75 410.75 179 L409.45 177.05 409.45 176.95 Q408.65 175.3 409.15 174.2 409.55 172.95 411.25 172.4 L411.6 172.4 411.95 172.55 Q418.75 177.2 425.05 175.65 L431.65 161.5 Q431.75 161.25 432 161.15 432.15 161 432.45 161 L432.5 161 432.9 161.15 442.6 168.3 M438.95 221.45 L431.5 234.6 431.3 234.85 430.7 235.2 430.75 235.5 430.7 236.05 429.8 237.65 429.55 237.95 429.15 238 Q424.2 237.15 423.2 233.85 417.55 234.05 413.4 227.3 L413.4 227.25 Q412.8 226 413.15 225.15 413.45 224.15 414.75 223.75 L415.05 223.75 415.3 223.85 Q420.5 227.45 425.35 226.25 L430.35 215.4 430.65 215.15 Q430.75 215 431 215 431.15 215 431.35 215.15 L438.75 220.6 439 221 438.95 221.45 M332.85 217.35 L336.8 221.35 336.85 225.4 334.85 227.4 336.8 229.35 330.9 235.4 327 235.4 325.4 237 322.5 234.1 331.95 224.45 329.7 222.15 325.8 226.2 323.85 224.15 329.75 218.15 332.85 217.35 M325.8 220.55 L321.85 216.55 323.85 214.55 327.75 218.55 325.8 220.55 M326.2 228.2 L324.2 230.2 316.35 222.15 318.3 220.2 326.2 228.2 M311.7 171.15 L314.35 168.5 324.85 179.2 322.2 181.85 311.7 171.15 M318 164.75 L323.25 170.1 320.65 172.75 315.4 167.4 318 164.75 M321.15 182.95 L318.55 185.6 308.05 174.9 310.65 172.25 321.15 182.95 M319.1 219.35 L321.05 217.35 325 221.4 323.05 223.35 319.1 219.35 M313.6 225 L315.55 223 323.4 231 321.45 233 313.6 225"/>
    <path stroke="none" fill="#EC3300" d="M361.6 172.4 L361.95 172.55 Q368.75 177.2 375.05 175.65 L381.65 161.5 Q381.75 161.25 382 161.15 382.15 161 382.45 161 L382.9 161.15 392.6 168.3 392.9 168.8 392.85 169.4 383.15 186.55 382.85 186.9 382.05 187.3 382.15 187.75 382.05 188.45 380.9 190.55 380.55 190.9 380.05 191 Q373.6 189.85 372.25 185.55 364.85 185.8 359.45 177.05 L359.45 176.95 Q358.65 175.3 359.15 174.2 359.55 172.95 361.25 172.4 L361.6 172.4 M389 221 L388.95 221.45 381.5 234.6 381.3 234.85 380.7 235.2 380.75 235.5 380.7 236.05 379.8 237.65 379.55 237.95 379.15 238 Q374.2 237.15 373.2 233.85 367.55 234.05 363.4 227.3 L363.4 227.25 Q362.8 226 363.15 225.15 363.45 224.15 364.75 223.75 L365.05 223.75 365.3 223.85 Q370.5 227.45 375.35 226.25 L380.35 215.4 380.65 215.15 Q380.75 215 381 215 L381.35 215.15 388.75 220.6 389 221 M271.7 161 L276.95 166.35 274.3 169 269.05 163.65 271.7 161 M270.65 172.75 L265.4 167.4 268 164.75 273.25 170.1 270.65 172.75 M273.8 190.95 L269.95 187.05 282.55 174.2 279.55 171.15 274.3 176.5 271.7 173.8 279.6 165.8 283.75 164.7 289 170.05 289.05 175.45 286.4 178.1 289 180.75 281.1 188.8 275.9 188.8 273.8 190.95 M271.15 182.95 L268.55 185.6 258.05 174.9 260.65 172.25 271.15 182.95 M274.85 179.2 L272.2 181.85 261.7 171.15 264.35 168.5 274.85 179.2 M284.85 227.4 L286.8 229.35 280.9 235.4 277 235.4 275.4 237 272.5 234.1 281.95 224.45 279.7 222.15 275.8 226.2 273.85 224.15 279.75 218.15 282.85 217.35 286.8 221.35 286.85 225.4 284.85 227.4 M275.8 220.55 L271.85 216.55 273.85 214.55 277.75 218.55 275.8 220.55 M271.45 233 L263.6 225 265.55 223 273.4 231 271.45 233 M266.35 222.15 L268.3 220.2 276.2 228.2 274.2 230.2 266.35 222.15 M269.1 219.35 L271.05 217.35 275 221.4 273.05 223.35 269.1 219.35"/>
    <path stroke="none" fill="#EC3300" d="M384.5 16.5 L386 18.3 Q387.45 20.4 387.85 23 L388 25 387.85 27 Q387.45 29.6 386 31.7 L384.5 33.5 Q381 37 376 37 371 37 367.5 33.5 364 30 364 25 364 20 367.5 16.5 371 13 376 13 381 13 384.5 16.5"/>
    <path stroke="none" fill="#EC3300" d="M286 31.7 L284.5 33.5 Q281.1 36.9 276.25 37 L275.75 37 Q270.9 36.9 267.5 33.5 264 30 264 25 264 20 267.5 16.5 271 13 276 13 281 13 284.5 16.5 L286 18.3 Q288 21.2 288 25 288 28.8 286 31.7"/>
    <path stroke="none" fill="#EC3300" d="M338 25 Q338 28.8 336 31.7 L334.5 33.5 Q331.1 36.9 326.25 37 L325.75 37 Q320.9 36.9 317.5 33.5 314 30 314 25 314 20 317.5 16.5 321 13 326 13 331 13 334.5 16.5 L336 18.3 Q338 21.2 338 25"/>
    <path stroke="none" fill="#EC3300" d="M267.5 66.5 Q271 63 276 63 281 63 284.5 66.5 L286 68.3 Q288 71.2 288 75 288 78.8 286 81.7 L284.5 83.5 Q281 87 276 87 271 87 267.5 83.5 264 80 264 75 264 70 267.5 66.5"/>
    <path stroke="none" fill="#EC3300" d="M336 81.7 L334.5 83.5 Q331 87 326 87 321 87 317.5 83.5 314 80 314 75 314 70 317.5 66.5 321 63 326 63 331 63 334.5 66.5 L336 68.3 Q338 71.2 338 75 338 78.8 336 81.7"/>
    <path stroke="none" fill="#EC3300" d="M386 68.3 Q388 71.2 388 75 388 78.8 386 81.7 L384.5 83.5 Q381 87 376 87 371 87 367.5 83.5 364 80 364 75 364 70 367.5 66.5 371 63 376 63 381 63 384.5 66.5 L386 68.3"/>
    <path stroke="none" fill="#EC3300" d="M414 75 Q414 70 417.5 66.5 421 63 426 63 431 63 434.5 66.5 L436 68.3 Q438 71.2 438 75 438 78.8 436 81.7 L434.5 83.5 Q431 87 426 87 421 87 417.5 83.5 414 80 414 75"/>
    <path stroke="none" fill="#EC3300" d="M286 131.7 L284.5 133.5 Q281 137 276 137 271 137 267.5 133.5 264 130 264 125 264 120 267.5 116.5 271 113 276 113 281 113 284.5 116.5 L286 118.3 Q288 121.2 288 125 288 128.8 286 131.7"/>
    <path stroke="none" fill="#EC3300" d="M334.5 133.5 Q331 137 326 137 321 137 317.5 133.5 314 130 314 125 314 120 317.5 116.5 321 113 326 113 331 113 334.5 116.5 L336 118.3 Q338 121.2 338 125 338 128.8 336 131.7 L334.5 133.5"/>
    <path stroke="none" fill="#EC3300" d="M386 118.3 Q388 121.2 388 125 388 128.8 386 131.7 L384.5 133.5 Q381 137 376 137 371 137 367.5 133.5 364 130 364 125 364 120 367.5 116.5 371 113 376 113 381 113 384.5 116.5 L386 118.3"/>
    <path stroke="none" fill="#EC3300" d="M414 125 Q414 120 417.5 116.5 421 113 426 113 431 113 434.5 116.5 L436 118.3 Q438 121.2 438 125 438 128.8 436 131.7 L434.5 133.5 Q431 137 426 137 421 137 417.5 133.5 414 130 414 125"/>
    <path stroke="none" fill="#FFFFFF" d="M182.9 11.15 L192.6 18.3 192.9 18.8 192.85 19.4 183.15 36.55 182.85 36.9 182.05 37.3 182.15 37.75 182.05 38.45 180.9 40.55 180.55 40.9 180.05 41 Q173.6 39.85 172.25 35.55 164.85 35.8 159.45 27.05 L159.45 26.95 Q158.65 25.3 159.15 24.2 159.55 22.95 161.25 22.4 L161.6 22.4 Q161.8 22.35 161.95 22.55 168.75 27.2 175.05 25.65 L181.65 11.5 Q181.75 11.25 182 11.15 182.15 11 182.45 11 L182.9 11.15 M186 68.3 Q188 71.2 188 75 188 78.8 186 81.7 L184.5 83.5 Q181 87 176 87 171 87 167.5 83.5 164 80 164 75 164 70 167.5 66.5 170.3 63.7 174 63.15 L174 59 171 59 176.5 52 182 59 179 59 179 63.35 Q182.1 64.1 184.5 66.5 L186 68.3 M186 118.3 Q188 121.2 188 125 188 128.8 186 131.7 L184.5 133.5 Q181 137 176 137 172.5 137 169.75 135.3 L167 138 170 141 160 141 160 131 163 134 165.75 131.3 Q164 128.5 164 125 164 120 167.5 116.5 171 113 176 113 181 113 184.5 116.5 L186 118.3 M182.9 161.15 L192.6 168.3 192.9 168.8 192.85 169.4 183.15 186.55 182.85 186.9 182.05 187.3 182.15 187.75 182.05 188.45 180.9 190.55 180.55 190.9 180.05 191 Q173.6 189.85 172.25 185.55 164.85 185.8 159.45 177.05 L159.45 176.95 Q158.65 175.3 159.15 174.2 159.55 172.95 161.25 172.4 L161.6 172.4 Q161.8 172.35 161.95 172.55 168.75 177.2 175.05 175.65 L181.65 161.5 Q181.75 161.25 182 161.15 182.15 161 182.45 161 L182.9 161.15 M196 192 L196 195 187 195 187 186 190 186 190 192 196 192 M142.3 15.1 L144.9 13.65 143.45 21.35 136.15 18.5 138.8 17.05 137.15 14.6 Q134.25 11.1 129.75 9.8 123.7 8.1 118.2 11.15 112.65 14.2 110.95 20.15 110.2 22.65 110.35 25.05 111.05 30.6 114.5 35.15 L115.1 35.8 Q119.5 40.25 125.8 40.25 132.1 40.25 136.55 35.8 140.25 32.15 140.85 27.1 L137.85 27.1 Q137.4 29.65 136 31.7 L134.5 33.5 Q131 37 126 37 121 37 117.5 33.5 114 30 114 25 114 20 117.5 16.5 121 13 126 13 131 13 134.5 16.5 L136 18.3 Q137.45 20.4 137.85 23 L137.9 23.1 145 23.1 144.95 25.1 Q144.95 33.1 139.4 38.65 133.8 44.25 125.8 44.25 117.8 44.25 112.25 38.65 108.6 35.05 107.35 30.45 105.4 24.95 107.1 19.05 109.3 11.5 116.3 7.65 123.3 3.75 130.85 5.9 136.95 7.75 140.7 12.6 L142.3 15.1 M86 18.3 Q87.15 20 87.65 22 L74 22 Q73.15 22 72.6 22.6 72 23.15 72 24 L72 28 Q72 28.85 72.6 29.45 73.15 30 74 30 L81.35 30 73.6 36.8 Q70.1 36.1 67.5 33.5 64 30 64 25 64 20 67.5 16.5 71 13 76 13 81 13 84.5 16.5 L86 18.3 M81.35 38 L89 38 89 35 95 40 89 45 89 42 70.7 42 86.7 28 74 28 74 24 97.35 24 81.35 38 M110 73 L114.15 73 Q114.7 69.3 117.5 66.5 121 63 126 63 131 63 134.5 66.5 L136 68.3 Q138 71.2 138 75 138 78.8 136 81.7 L134.5 83.5 Q131 87 126 87 121 87 117.5 83.5 115.1 81.1 114.35 78 L110 78 110 81 103 75.5 110 70 110 73 M86 68.3 Q88 71.2 88 75 88 78.8 86 81.7 L84.5 83.5 Q82.1 85.9 79 86.65 L79 91 82 91 76.5 98 71 91 74 91 74 86.85 Q70.3 86.3 67.5 83.5 64 80 64 75 64 70 67.5 66.5 71 63 76 63 81 63 84.5 66.5 L86 68.3 M34.5 16.5 L36 18.3 Q38 21.2 38 25 L30 25 Q29.15 25 28.6 25.6 28 26.15 28 27 L28 31 Q28 31.85 28.6 32.45 29.15 33 30 33 L31.05 33 27.5 36.95 26.25 37 25.75 37 Q20.9 36.9 17.5 33.5 14 30 14 25 14 20 17.5 16.5 21 13 26 13 31 13 34.5 16.5 M39 37 L39 34 45 39 39 44 39 41 26.5 41 35.55 31 30 31 30 27 44.55 27 35.5 37 39 37 M64 125 Q64 120 67.5 116.5 71 113 76 113 79.5 113 82.3 114.75 L85 112 82 109 92 109 92 119 89 116 86.3 118.75 Q88 121.45 88 125 88 128.8 86 131.7 L84.5 133.5 Q81 137 76 137 71 137 67.5 133.5 64 130 64 125 M26 63 Q31 63 34.5 66.5 L36 68.3 Q37.45 70.4 37.85 73 L42 73 42 70 49 75.5 42 81 42 78 37.65 78 Q37.15 80 36 81.7 L34.5 83.5 Q31 87 26 87 21 87 17.5 83.5 14 80 14 75 14 70 17.5 66.5 21 63 26 63 M34.5 116.5 L36 118.3 Q38 121.2 38 125 38 128.8 36 131.7 L34.5 133.5 Q31 137 26 137 21 137 17.5 133.5 14 130 14 125 14 121.5 15.75 118.75 L13 116 10 119 10 109 20 109 17 112 19.75 114.75 Q22.5 113 26 113 31 113 34.5 116.5 M24.3 169 L19.05 163.65 21.7 161 26.95 166.35 24.3 169 M23.25 170.1 L20.65 172.75 15.4 167.4 18 164.75 23.25 170.1 M33.75 164.7 L39 170.05 39.05 175.45 36.4 178.1 39 180.75 31.1 188.8 25.9 188.8 23.8 190.95 19.95 187.05 32.55 174.2 29.55 171.15 24.3 176.5 21.7 173.8 29.6 165.8 33.75 164.7 M18.55 185.6 L8.05 174.9 10.65 172.25 21.15 182.95 18.55 185.6 M11.7 171.15 L14.35 168.5 24.85 179.2 22.2 181.85 11.7 171.15 M37 186 L40 186 40 189 43 189 43 186 46 186 46 195 43 195 43 192 40 192 40 195 37 195 37 186 M70.65 172.75 L65.4 167.4 68 164.75 73.25 170.1 70.65 172.75 M61.7 171.15 L64.35 168.5 74.85 179.2 72.2 181.85 61.7 171.15 M74.3 169 L69.05 163.65 71.7 161 76.95 166.35 74.3 169 M71.15 182.95 L68.55 185.6 58.05 174.9 60.65 172.25 71.15 182.95 M73.8 190.95 L69.95 187.05 82.55 174.2 79.55 171.15 74.3 176.5 71.7 173.8 79.6 165.8 83.75 164.7 89 170.05 89.05 175.45 86.4 178.1 89 180.75 81.1 188.8 75.9 188.8 73.8 190.95 M136 118.3 Q138 121.2 138 125 138 128.8 136 131.7 L135.9 131.9 138 134 141 131 141 141 131 141 134 138 131.65 135.65 Q129.1 137 126 137 121 137 117.5 133.5 114 130 114 125 114 120 117.5 116.5 121 113 126 113 131 113 134.5 116.5 L136 118.3 M111.95 172.55 Q118.75 177.2 125.05 175.65 L131.65 161.5 Q131.75 161.25 132 161.15 132.15 161 132.45 161 L132.9 161.15 142.6 168.3 142.9 168.8 142.85 169.4 133.15 186.55 132.85 186.9 132.05 187.3 132.15 187.75 132.05 188.45 130.9 190.55 130.55 190.9 130.05 191 Q123.6 189.85 122.25 185.55 114.85 185.8 109.45 177.05 L109.45 176.95 Q108.65 175.3 109.15 174.2 109.55 172.95 111.25 172.4 L111.6 172.4 111.95 172.55 M90 186 L90 192 96 192 96 195 87 195 87 186 90 186 M140 186 L140 189 143 189 143 186 146 186 146 195 143 195 143 192 140 192 140 195 137 195 137 186 140 186 M140.85 211.1 Q147.05 217.3 147.05 226 147.05 234.75 140.85 240.85 134.75 247 126.05 247 117.3 247 111.15 240.85 105.05 234.75 105.05 226 105.05 217.3 111.15 211.1 117.3 205 126.05 205 134.75 205 140.85 211.1 M138.95 221.45 L139 221 138.75 220.6 131.35 215.15 Q131.15 215 131 215 130.75 215 130.65 215.15 L130.35 215.4 125.35 226.25 Q120.5 227.45 115.3 223.85 L115.05 223.75 114.75 223.75 Q113.45 224.15 113.15 225.15 112.8 226 113.4 227.25 L113.4 227.3 Q117.55 234.05 123.2 233.85 124.2 237.15 129.15 238 L129.55 237.95 129.8 237.65 130.7 236.05 130.75 235.5 130.7 235.2 131.3 234.85 131.5 234.6 138.95 221.45 M40.85 240.85 Q34.75 247 26.05 247 17.3 247 11.15 240.85 5.05 234.75 5.05 226 5.05 217.3 11.15 211.1 17.3 205 26.05 205 34.75 205 40.85 211.1 47.05 217.3 47.05 226 47.05 234.75 40.85 240.85 M25.8 220.55 L27.75 218.55 23.85 214.55 21.85 216.55 25.8 220.55 M36.8 221.35 L32.85 217.35 29.75 218.15 23.85 224.15 25.8 226.2 29.7 222.15 31.95 224.45 22.5 234.1 25.4 237 27 235.4 30.9 235.4 36.8 229.35 34.85 227.4 36.85 225.4 36.8 221.35 M21.05 217.35 L19.1 219.35 23.05 223.35 25 221.4 21.05 217.35 M16.35 222.15 L24.2 230.2 26.2 228.2 18.3 220.2 16.35 222.15 M13.6 225 L21.45 233 23.4 231 15.55 223 13.6 225"/>
    <path stroke="none" fill="#FFFFFF" d="M676.5 52 L682 59 679 59 679 63 674 63 674 59 671 59 676.5 52 M640.7 12.6 L642.3 15.1 644.9 13.65 643.45 21.35 636.15 18.5 Q637.5 17.8 638.8 17.05 L637.15 14.6 Q634.25 11.1 629.75 9.8 623.7 8.1 618.2 11.15 612.65 14.2 610.95 20.15 610.2 22.65 610.35 25.05 611.05 30.6 614.5 35.15 L615.1 35.8 Q619.5 40.25 625.8 40.25 632.1 40.25 636.55 35.8 640.25 32.15 640.85 27.1 L637.65 27.1 637.8 25.1 637.65 23.1 645 23.1 644.95 25.1 Q644.95 33.1 639.4 38.65 633.8 44.25 625.8 44.25 617.8 44.25 612.25 38.65 608.6 35.05 607.35 30.45 605.4 24.95 607.1 19.05 609.3 11.5 616.3 7.65 623.3 3.75 630.85 5.9 636.95 7.75 640.7 12.6 M667 138 L670 141 660 141 660 131 663 134 666 131 670 135 667 138 M586.7 28 L574 28 574 24 597.35 24 581.35 38 589 38 589 35 595 40 589 45 589 42 570.7 42 586.7 28 M579 87 L579 91 582 91 576.5 98 571 91 574 91 574 87 579 87 M614 73 L614 78 610 78 610 81 603 75.5 610 70 610 73 614 73 M549 75.5 L542 81 542 78 538 78 538 73 542 73 542 70 549 75.5 M539 37 L539 34 545 39 539 44 539 41 526.5 41 535.55 31 530 31 530 27 544.55 27 535.5 37 539 37 M520 109 L517 112 520 115 516 119 513 116 510 119 510 109 520 109 M634 138 L631 135 635 131 638 134 641 131 641 141 631 141 634 138 M582 109 L592 109 592 119 589 116 586 119 582 115 585 112 582 109"/>
    <path stroke="none" fill="#FFFFFF" d="M390.7 12.6 L392.3 15.1 394.9 13.65 393.45 21.35 386.15 18.5 388.8 17.05 387.15 14.6 Q384.25 11.1 379.75 9.8 373.7 8.1 368.2 11.15 362.65 14.2 360.95 20.15 360.2 22.65 360.35 25.05 361.05 30.6 364.5 35.15 L365.1 35.8 Q369.5 40.25 375.8 40.25 382.1 40.25 386.55 35.8 390.25 32.15 390.85 27.1 L387.65 27.1 387.8 25.1 387.65 23.1 395 23.1 394.95 25.1 Q394.95 33.1 389.4 38.65 383.8 44.25 375.8 44.25 367.8 44.25 362.25 38.65 358.6 35.05 357.35 30.45 355.4 24.95 357.1 19.05 359.3 11.5 366.3 7.65 373.3 3.75 380.85 5.9 386.95 7.75 390.7 12.6 M339 42 L320.7 42 336.7 28 324 28 324 24 347.35 24 331.35 38 339 38 339 35 345 40 339 45 339 42 M289 41 L276.5 41 285.55 31 280 31 280 27 294.55 27 285.5 37 289 37 289 34 295 39 289 44 289 41"/>
    <path stroke="none" fill="#FFFFFF" d="M421 59 L426.5 52 432 59 429 59 429 63 424 63 424 59 421 59 M360 73 L364 73 364 78 360 78 360 81 353 75.5 360 70 360 73 M324 87 L329 87 329 91 332 91 326.5 98 321 91 324 91 324 87 M384 138 L381 135 385 131 388 134 391 131 391 141 381 141 384 138 M292 81 L292 78 288 78 288 73 292 73 292 70 299 75.5 292 81 M417 138 L420 141 410 141 410 131 413 134 416 131 420 135 417 138 M342 109 L342 119 339 116 336 119 332 115 335 112 332 109 342 109 M260 109 L270 109 267 112 270 115 266 119 263 116 260 119 260 109"/>
  </g>
</svg>