<svg xmlns="http://www.w3.org/2000/svg" xmlns:xlink="http://www.w3.org/1999/xlink">
  <defs>
    <linearGradient gradientUnits="userSpaceOnUse" x1="-819.2" x2="819.2" spreadMethod="pad" gradientTransform="matrix(0 -0.029296875 0.029296875 0 44 484)" id="gradient0">
      <stop offset="0" stop-color="#383838"/>
      <stop offset="1" stop-color="#585858"/>
    </linearGradient>
    <linearGradient gradientUnits="userSpaceOnUse" x1="-819.2" x2="819.2" spreadMethod="pad" gradientTransform="matrix(0 -0.029296875 0.029296875 0 104 484)" id="gradient1">
      <stop offset="0" stop-color="#383838"/>
      <stop offset="1" stop-color="#585858"/>
    </linearGradient>
    <linearGradient gradientUnits="userSpaceOnUse" x1="-819.2" x2="819.2" spreadMethod="pad" gradientTransform="matrix(0 -0.029296875 0.029296875 0 164 484)" id="gradient2">
      <stop offset="0" stop-color="#383838"/>
      <stop offset="1" stop-color="#585858"/>
    </linearGradient>
    <linearGradient gradientUnits="userSpaceOnUse" x1="-819.2" x2="819.2" spreadMethod="pad" gradientTransform="matrix(0 -0.029296875 0.029296875 0 224 484)" id="gradient3">
      <stop offset="0" stop-color="#383838"/>
      <stop offset="1" stop-color="#585858"/>
    </linearGradient>
    <linearGradient gradientUnits="userSpaceOnUse" x1="-819.2" x2="819.2" spreadMethod="pad" gradientTransform="matrix(0 -0.029296875 0.029296875 0 284 484)" id="gradient4">
      <stop offset="0" stop-color="#383838"/>
      <stop offset="1" stop-color="#585858"/>
    </linearGradient>
    <linearGradient gradientUnits="userSpaceOnUse" x1="-819.2" x2="819.2" spreadMethod="pad" gradientTransform="matrix(0 -0.029296875 0.029296875 0 344 484)" id="gradient5">
      <stop offset="0" stop-color="#383838"/>
      <stop offset="1" stop-color="#585858"/>
    </linearGradient>
    <linearGradient gradientUnits="userSpaceOnUse" x1="-819.2" x2="819.2" spreadMethod="pad" gradientTransform="matrix(0 -0.029296875 0.029296875 0 44 424)" id="gradient6">
      <stop offset="0" stop-color="#383838"/>
      <stop offset="1" stop-color="#585858"/>
    </linearGradient>
    <linearGradient gradientUnits="userSpaceOnUse" x1="-819.2" x2="819.2" spreadMethod="pad" gradientTransform="matrix(0 -0.029296875 0.029296875 0 104 424)" id="gradient7">
      <stop offset="0" stop-color="#383838"/>
      <stop offset="1" stop-color="#585858"/>
    </linearGradient>
    <linearGradient gradientUnits="userSpaceOnUse" x1="-819.2" x2="819.2" spreadMethod="pad" gradientTransform="matrix(0 -0.029296875 0.029296875 0 164 424)" id="gradient8">
      <stop offset="0" stop-color="#383838"/>
      <stop offset="1" stop-color="#585858"/>
    </linearGradient>
    <linearGradient gradientUnits="userSpaceOnUse" x1="-819.2" x2="819.2" spreadMethod="pad" gradientTransform="matrix(0 -0.029296875 0.029296875 0 224 424)" id="gradient9">
      <stop offset="0" stop-color="#383838"/>
      <stop offset="1" stop-color="#585858"/>
    </linearGradient>
    <linearGradient gradientUnits="userSpaceOnUse" x1="-819.2" x2="819.2" spreadMethod="pad" gradientTransform="matrix(0 -0.029296875 0.029296875 0 284 424)" id="gradient10">
      <stop offset="0" stop-color="#383838"/>
      <stop offset="1" stop-color="#585858"/>
    </linearGradient>
    <linearGradient gradientUnits="userSpaceOnUse" x1="-819.2" x2="819.2" spreadMethod="pad" gradientTransform="matrix(0 -0.029296875 0.029296875 0 344 424)" id="gradient11">
      <stop offset="0" stop-color="#383838"/>
      <stop offset="1" stop-color="#585858"/>
    </linearGradient>
    <linearGradient gradientUnits="userSpaceOnUse" x1="-819.2" x2="819.2" spreadMethod="pad" gradientTransform="matrix(0 -0.029296875 0.029296875 0 44 364)" id="gradient12">
      <stop offset="0" stop-color="#383838"/>
      <stop offset="1" stop-color="#585858"/>
    </linearGradient>
    <linearGradient gradientUnits="userSpaceOnUse" x1="-819.2" x2="819.2" spreadMethod="pad" gradientTransform="matrix(0 -0.029296875 0.029296875 0 104 364)" id="gradient13">
      <stop offset="0" stop-color="#383838"/>
      <stop offset="1" stop-color="#585858"/>
    </linearGradient>
    <linearGradient gradientUnits="userSpaceOnUse" x1="-819.2" x2="819.2" spreadMethod="pad" gradientTransform="matrix(0 -0.029296875 0.029296875 0 164 364)" id="gradient14">
      <stop offset="0" stop-color="#383838"/>
      <stop offset="1" stop-color="#585858"/>
    </linearGradient>
    <linearGradient gradientUnits="userSpaceOnUse" x1="-819.2" x2="819.2" spreadMethod="pad" gradientTransform="matrix(0 -0.029296875 0.029296875 0 224 364)" id="gradient15">
      <stop offset="0" stop-color="#383838"/>
      <stop offset="1" stop-color="#585858"/>
    </linearGradient>
    <linearGradient gradientUnits="userSpaceOnUse" x1="-819.2" x2="819.2" spreadMethod="pad" gradientTransform="matrix(0 -0.029296875 0.029296875 0 284 364)" id="gradient16">
      <stop offset="0" stop-color="#383838"/>
      <stop offset="1" stop-color="#585858"/>
    </linearGradient>
    <linearGradient gradientUnits="userSpaceOnUse" x1="-819.2" x2="819.2" spreadMethod="pad" gradientTransform="matrix(0 -0.029296875 0.029296875 0 344 364)" id="gradient17">
      <stop offset="0" stop-color="#383838"/>
      <stop offset="1" stop-color="#585858"/>
    </linearGradient>
    <linearGradient gradientUnits="userSpaceOnUse" x1="-819.2" x2="819.2" spreadMethod="pad" gradientTransform="matrix(0 -0.02935791015625 0.029296875 0 314 574)" id="gradient18">
      <stop offset="0" stop-color="#383838"/>
      <stop offset="1" stop-color="#585858"/>
    </linearGradient>
    <linearGradient gradientUnits="userSpaceOnUse" x1="-819.2" x2="819.2" spreadMethod="pad" gradientTransform="matrix(0 -0.02935791015625 0.029296875 0 194 574)" id="gradient19">
      <stop offset="0" stop-color="#383838"/>
      <stop offset="1" stop-color="#585858"/>
    </linearGradient>
    <linearGradient gradientUnits="userSpaceOnUse" x1="-819.2" x2="819.2" spreadMethod="pad" gradientTransform="matrix(0 -0.048828125 0.048828125 0 700 470)" id="gradient20">
      <stop offset="0" stop-color="#383838"/>
      <stop offset="1" stop-color="#585858"/>
    </linearGradient>
    <linearGradient gradientUnits="userSpaceOnUse" x1="-819.2" x2="819.2" spreadMethod="pad" gradientTransform="matrix(0 -0.048828125 0.048828125 0 610 470)" id="gradient21">
      <stop offset="0" stop-color="#383838"/>
      <stop offset="1" stop-color="#585858"/>
    </linearGradient>
    <linearGradient gradientUnits="userSpaceOnUse" x1="-819.2" x2="819.2" spreadMethod="pad" gradientTransform="matrix(0 -0.048828125 0.048828125 0 520 470)" id="gradient22">
      <stop offset="0" stop-color="#383838"/>
      <stop offset="1" stop-color="#585858"/>
    </linearGradient>
    <linearGradient gradientUnits="userSpaceOnUse" x1="-819.2" x2="819.2" spreadMethod="pad" gradientTransform="matrix(0 -0.048828125 0.048828125 0 430 470)" id="gradient23">
      <stop offset="0" stop-color="#383838"/>
      <stop offset="1" stop-color="#585858"/>
    </linearGradient>
    <linearGradient gradientUnits="userSpaceOnUse" x1="-819.2" x2="819.2" spreadMethod="pad" gradientTransform="matrix(0 -0.048828125 0.048828125 0 880 380)" id="gradient24">
      <stop offset="0" stop-color="#383838"/>
      <stop offset="1" stop-color="#585858"/>
    </linearGradient>
    <linearGradient gradientUnits="userSpaceOnUse" x1="-819.2" x2="819.2" spreadMethod="pad" gradientTransform="matrix(0 -0.048828125 0.048828125 0 790 380)" id="gradient25">
      <stop offset="0" stop-color="#383838"/>
      <stop offset="1" stop-color="#585858"/>
    </linearGradient>
    <linearGradient gradientUnits="userSpaceOnUse" x1="-819.2" x2="819.2" spreadMethod="pad" gradientTransform="matrix(0 -0.048828125 0.048828125 0 700 380)" id="gradient26">
      <stop offset="0" stop-color="#383838"/>
      <stop offset="1" stop-color="#585858"/>
    </linearGradient>
    <linearGradient gradientUnits="userSpaceOnUse" x1="-819.2" x2="819.2" spreadMethod="pad" gradientTransform="matrix(0 -0.048828125 0.048828125 0 610 380)" id="gradient27">
      <stop offset="0" stop-color="#383838"/>
      <stop offset="1" stop-color="#585858"/>
    </linearGradient>
    <linearGradient gradientUnits="userSpaceOnUse" x1="-819.2" x2="819.2" spreadMethod="pad" gradientTransform="matrix(0 -0.048828125 0.048828125 0 520 380)" id="gradient28">
      <stop offset="0" stop-color="#383838"/>
      <stop offset="1" stop-color="#585858"/>
    </linearGradient>
    <linearGradient gradientUnits="userSpaceOnUse" x1="-819.2" x2="819.2" spreadMethod="pad" gradientTransform="matrix(0 -0.048828125 0.048828125 0 430 380)" id="gradient29">
      <stop offset="0" stop-color="#383838"/>
      <stop offset="1" stop-color="#585858"/>
    </linearGradient>
    <linearGradient gradientUnits="userSpaceOnUse" x1="-819.2" x2="819.2" spreadMethod="pad" gradientTransform="matrix(0 -0.09765625 0.09765625 0 279.95 240)" id="gradient30">
      <stop offset="0" stop-color="#383838"/>
      <stop offset="1" stop-color="#585858"/>
    </linearGradient>
    <linearGradient gradientUnits="userSpaceOnUse" x1="-819.2" x2="819.2" spreadMethod="pad" gradientTransform="matrix(0.0414276123046875 -0.0414276123046875 0.0414276123046875 0.0414276123046875 279.95 70)" id="gradient31">
      <stop offset="0" stop-color="#383838"/>
      <stop offset="1" stop-color="#585858"/>
    </linearGradient>
    <linearGradient gradientUnits="userSpaceOnUse" x1="-819.2" x2="819.2" spreadMethod="pad" gradientTransform="matrix(0 -0.054931640625 0.054931640625 0 279.95 70)" id="gradient32">
      <stop offset="0.00392156862745098" stop-color="#434343"/>
      <stop offset="1" stop-color="#2C2C2C"/>
    </linearGradient>
    <linearGradient gradientUnits="userSpaceOnUse" x1="-819.2" x2="819.2" spreadMethod="pad" gradientTransform="matrix(0 -0.097625732421875 0.097625732421875 0 459.95 239.95)" id="gradient33">
      <stop offset="0" stop-color="#383838"/>
      <stop offset="1" stop-color="#585858"/>
    </linearGradient>
    <linearGradient gradientUnits="userSpaceOnUse" x1="-819.2" x2="819.2" spreadMethod="pad" gradientTransform="matrix(0 -0.02935791015625 0.029296875 0 74 574)" id="gradient34">
      <stop offset="0" stop-color="#383838"/>
      <stop offset="1" stop-color="#585858"/>
    </linearGradient>
    <linearGradient gradientUnits="userSpaceOnUse" x1="-819.2" x2="819.2" spreadMethod="pad" gradientTransform="matrix(0 -0.09765625 0.09765625 0 840 240)" id="gradient35">
      <stop offset="0" stop-color="#383838"/>
      <stop offset="1" stop-color="#585858"/>
    </linearGradient>
    <linearGradient gradientUnits="userSpaceOnUse" x1="-819.2" x2="819.2" spreadMethod="pad" gradientTransform="matrix(0.053924560546875 -0.053924560546875 0.053924560546875 0.053924560546875 839.45 70.45)" id="gradient36">
      <stop offset="0" stop-color="#383838"/>
      <stop offset="1" stop-color="#585858"/>
    </linearGradient>
    <linearGradient gradientUnits="userSpaceOnUse" x1="-819.2" x2="819.2" spreadMethod="pad" gradientTransform="matrix(0 -0.072601318359375 0.072601318359375 0 839.4 70.5)" id="gradient37">
      <stop offset="0.00392156862745098" stop-color="#434343"/>
      <stop offset="1" stop-color="#2C2C2C"/>
    </linearGradient>
    <linearGradient gradientUnits="userSpaceOnUse" x1="-819.2" x2="819.2" spreadMethod="pad" gradientTransform="matrix(0 -0.04608154296875 0.04608154296875 0 650.5 117.75)" id="gradient38">
      <stop offset="0" stop-color="#383838"/>
      <stop offset="1" stop-color="#585858"/>
    </linearGradient>
    <linearGradient gradientUnits="userSpaceOnUse" x1="-819.2" x2="819.2" spreadMethod="pad" gradientTransform="matrix(0 -0.037841796875 0.0372314453125 0 692.7 200.5)" id="gradient39">
      <stop offset="0" stop-color="#383838"/>
      <stop offset="1" stop-color="#585858"/>
    </linearGradient>
    <linearGradient gradientUnits="userSpaceOnUse" x1="-819.2" x2="819.2" spreadMethod="pad" gradientTransform="matrix(0 -0.0447998046875 0.045440673828125 0 650.5 282.7)" id="gradient40">
      <stop offset="0" stop-color="#383838"/>
      <stop offset="1" stop-color="#585858"/>
    </linearGradient>
    <linearGradient gradientUnits="userSpaceOnUse" x1="-819.2" x2="819.2" spreadMethod="pad" gradientTransform="matrix(0 -0.0372314453125 0.0372314453125 0 607.75 200.5)" id="gradient41">
      <stop offset="0" stop-color="#383838"/>
      <stop offset="1" stop-color="#585858"/>
    </linearGradient>
    <linearGradient gradientUnits="userSpaceOnUse" x1="-819.2" x2="819.2" spreadMethod="pad" gradientTransform="matrix(0 -0.09765625 0.09765625 0 100 240)" id="gradient42">
      <stop offset="0" stop-color="#383838"/>
      <stop offset="1" stop-color="#585858"/>
    </linearGradient>
    <linearGradient gradientUnits="userSpaceOnUse" x1="-819.2" x2="819.2" spreadMethod="pad" gradientTransform="matrix(0 -0.05267333984375 0.052642822265625 0 100.05 70.05)" id="gradient43">
      <stop offset="0.00392156862745098" stop-color="#434343"/>
      <stop offset="1" stop-color="#2C2C2C"/>
    </linearGradient>
    <linearGradient gradientUnits="userSpaceOnUse" x1="-819.2" x2="819.2" spreadMethod="pad" gradientTransform="matrix(0.0414276123046875 -0.0414276123046875 0.0414276123046875 0.0414276123046875 100.1 70.15)" id="gradient44">
      <stop offset="0" stop-color="#383838"/>
      <stop offset="1" stop-color="#585858"/>
    </linearGradient>
    <linearGradient gradientUnits="userSpaceOnUse" x1="-819.2" x2="819.2" spreadMethod="pad" gradientTransform="matrix(0 -0.048828125 0.048828125 0 880 470)" id="gradient45">
      <stop offset="0" stop-color="#383838"/>
      <stop offset="1" stop-color="#585858"/>
    </linearGradient>
    <linearGradient gradientUnits="userSpaceOnUse" x1="-819.2" x2="819.2" spreadMethod="pad" gradientTransform="matrix(0 -0.048828125 0.048828125 0 790 470)" id="gradient46">
      <stop offset="0" stop-color="#383838"/>
      <stop offset="1" stop-color="#585858"/>
    </linearGradient>
    <linearGradient gradientUnits="userSpaceOnUse" x1="-819.2" x2="819.2" spreadMethod="pad" gradientTransform="matrix(0 -0.048828125 0.048828125 0 700 560)" id="gradient47">
      <stop offset="0" stop-color="#383838"/>
      <stop offset="1" stop-color="#585858"/>
    </linearGradient>
    <linearGradient gradientUnits="userSpaceOnUse" x1="-819.2" x2="819.2" spreadMethod="pad" gradientTransform="matrix(0 -0.048828125 0.048828125 0 610 560)" id="gradient48">
      <stop offset="0" stop-color="#383838"/>
      <stop offset="1" stop-color="#585858"/>
    </linearGradient>
    <linearGradient gradientUnits="userSpaceOnUse" x1="-819.2" x2="819.2" spreadMethod="pad" gradientTransform="matrix(0 -0.048828125 0.048828125 0 520 560)" id="gradient49">
      <stop offset="0" stop-color="#383838"/>
      <stop offset="1" stop-color="#585858"/>
    </linearGradient>
    <linearGradient gradientUnits="userSpaceOnUse" x1="-819.2" x2="819.2" spreadMethod="pad" gradientTransform="matrix(0 -0.048828125 0.048828125 0 880 560)" id="gradient50">
      <stop offset="0" stop-color="#383838"/>
      <stop offset="1" stop-color="#585858"/>
    </linearGradient>
    <linearGradient gradientUnits="userSpaceOnUse" x1="-819.2" x2="819.2" spreadMethod="pad" gradientTransform="matrix(0 -0.048828125 0.048828125 0 790 560)" id="gradient51">
      <stop offset="0" stop-color="#383838"/>
      <stop offset="1" stop-color="#585858"/>
    </linearGradient>
    <linearGradient gradientUnits="userSpaceOnUse" x1="-819.2" x2="819.2" spreadMethod="pad" gradientTransform="matrix(0 -0.048828125 0.048828125 0 430 560)" id="gradient52">
      <stop offset="0" stop-color="#383838"/>
      <stop offset="1" stop-color="#585858"/>
    </linearGradient>
  </defs>
  <g>
    <path stroke="none" fill="url(#gradient0)" d="M23 465.2 L23 503.05 Q23.1 505 25.2 505 L62.85 505 Q64.9 505 65 503.05 L65 465.2 Q65 463 62.85 463 L25.2 463 Q23 463 23 465.2 M20 465.2 Q20 460 25.2 460 L62.85 460 Q68 460 68 465.2 L68 503.05 Q67.9 508 62.85 508 L25.2 508 Q20.1 508 20 503.05 L20 465.2"/>
    <path stroke="none" fill="#383838" d="M23 465.2 Q23 463 25.2 463 L62.85 463 Q65 463 65 465.2 L65 503.05 Q64.9 505 62.85 505 L25.2 505 Q23.1 505 23 503.05 L23 465.2"/>
    <path stroke="none" fill="#383838" d="M83 465.2 Q83 463 85.2 463 L122.85 463 Q125 463 125 465.2 L125 503.05 Q124.9 505 122.85 505 L85.2 505 Q83.1 505 83 503.05 L83 465.2"/>
    <path stroke="none" fill="url(#gradient1)" d="M83 465.2 L83 503.05 Q83.1 505 85.2 505 L122.85 505 Q124.9 505 125 503.05 L125 465.2 Q125 463 122.85 463 L85.2 463 Q83 463 83 465.2 M122.85 460 Q128 460 128 465.2 L128 503.05 Q127.9 508 122.85 508 L85.2 508 Q80.1 508 80 503.05 L80 465.2 Q80 460 85.2 460 L122.85 460"/>
    <path stroke="none" fill="#383838" d="M182.85 463 Q185 463 185 465.2 L185 503.05 Q184.9 505 182.85 505 L145.2 505 Q143.1 505 143 503.05 L143 465.2 Q143 463 145.2 463 L182.85 463"/>
    <path stroke="none" fill="url(#gradient2)" d="M182.85 463 L145.2 463 Q143 463 143 465.2 L143 503.05 Q143.1 505 145.2 505 L182.85 505 Q184.9 505 185 503.05 L185 465.2 Q185 463 182.85 463 M182.85 460 Q188 460 188 465.2 L188 503.05 Q187.9 508 182.85 508 L145.2 508 Q140.1 508 140 503.05 L140 465.2 Q140 460 145.2 460 L182.85 460"/>
    <path stroke="none" fill="#383838" d="M203 465.2 Q203 463 205.2 463 L242.85 463 Q245 463 245 465.2 L245 503.05 Q244.9 505 242.85 505 L205.2 505 Q203.1 505 203 503.05 L203 465.2"/>
    <path stroke="none" fill="url(#gradient3)" d="M203 465.2 L203 503.05 Q203.1 505 205.2 505 L242.85 505 Q244.9 505 245 503.05 L245 465.2 Q245 463 242.85 463 L205.2 463 Q203 463 203 465.2 M205.2 460 L242.85 460 Q248 460 248 465.2 L248 503.05 Q247.9 508 242.85 508 L205.2 508 Q200.1 508 200 503.05 L200 465.2 Q200 460 205.2 460"/>
    <path stroke="none" fill="#383838" d="M263 465.2 Q263 463 265.2 463 L302.85 463 Q305 463 305 465.2 L305 503.05 Q304.9 505 302.85 505 L265.2 505 Q263.1 505 263 503.05 L263 465.2"/>
    <path stroke="none" fill="url(#gradient4)" d="M263 465.2 L263 503.05 Q263.1 505 265.2 505 L302.85 505 Q304.9 505 305 503.05 L305 465.2 Q305 463 302.85 463 L265.2 463 Q263 463 263 465.2 M260 465.2 Q260 460 265.2 460 L302.85 460 Q308 460 308 465.2 L308 503.05 Q307.9 508 302.85 508 L265.2 508 Q260.1 508 260 503.05 L260 465.2"/>
    <path stroke="none" fill="#383838" d="M323 503.05 L323 465.2 Q323 463 325.2 463 L362.85 463 Q365 463 365 465.2 L365 503.05 Q364.9 505 362.85 505 L325.2 505 Q323.1 505 323 503.05"/>
    <path stroke="none" fill="url(#gradient5)" d="M323 503.05 Q323.1 505 325.2 505 L362.85 505 Q364.9 505 365 503.05 L365 465.2 Q365 463 362.85 463 L325.2 463 Q323 463 323 465.2 L323 503.05 M320 503.05 L320 465.2 Q320 460 325.2 460 L362.85 460 Q368 460 368 465.2 L368 503.05 Q367.9 508 362.85 508 L325.2 508 Q320.1 508 320 503.05"/>
    <path stroke="none" fill="url(#gradient6)" d="M65 405.2 Q65 403 62.85 403 L25.2 403 Q23 403 23 405.2 L23 443.05 Q23.1 445 25.2 445 L62.85 445 Q64.9 445 65 443.05 L65 405.2 M68 405.2 L68 443.05 Q67.9 448 62.85 448 L25.2 448 Q20.1 448 20 443.05 L20 405.2 Q20 400 25.2 400 L62.85 400 Q68 400 68 405.2"/>
    <path stroke="none" fill="#383838" d="M65 405.2 L65 443.05 Q64.9 445 62.85 445 L25.2 445 Q23.1 445 23 443.05 L23 405.2 Q23 403 25.2 403 L62.85 403 Q65 403 65 405.2"/>
    <path stroke="none" fill="url(#gradient7)" d="M125 405.2 Q125 403 122.85 403 L85.2 403 Q83 403 83 405.2 L83 443.05 Q83.1 445 85.2 445 L122.85 445 Q124.9 445 125 443.05 L125 405.2 M128 405.2 L128 443.05 Q127.9 448 122.85 448 L85.2 448 Q80.1 448 80 443.05 L80 405.2 Q80 400 85.2 400 L122.85 400 Q128 400 128 405.2"/>
    <path stroke="none" fill="#383838" d="M125 405.2 L125 443.05 Q124.9 445 122.85 445 L85.2 445 Q83.1 445 83 443.05 L83 405.2 Q83 403 85.2 403 L122.85 403 Q125 403 125 405.2"/>
    <path stroke="none" fill="#383838" d="M185 405.2 L185 443.05 Q184.9 445 182.85 445 L145.2 445 Q143.1 445 143 443.05 L143 405.2 Q143 403 145.2 403 L182.85 403 Q185 403 185 405.2"/>
    <path stroke="none" fill="url(#gradient8)" d="M185 405.2 Q185 403 182.85 403 L145.2 403 Q143 403 143 405.2 L143 443.05 Q143.1 445 145.2 445 L182.85 445 Q184.9 445 185 443.05 L185 405.2 M188 405.2 L188 443.05 Q187.9 448 182.85 448 L145.2 448 Q140.1 448 140 443.05 L140 405.2 Q140 400 145.2 400 L182.85 400 Q188 400 188 405.2"/>
    <path stroke="none" fill="#383838" d="M245 405.2 L245 443.05 Q244.9 445 242.85 445 L205.2 445 Q203.1 445 203 443.05 L203 405.2 Q203 403 205.2 403 L242.85 403 Q245 403 245 405.2"/>
    <path stroke="none" fill="url(#gradient9)" d="M245 405.2 Q245 403 242.85 403 L205.2 403 Q203 403 203 405.2 L203 443.05 Q203.1 445 205.2 445 L242.85 445 Q244.9 445 245 443.05 L245 405.2 M248 405.2 L248 443.05 Q247.9 448 242.85 448 L205.2 448 Q200.1 448 200 443.05 L200 405.2 Q200 400 205.2 400 L242.85 400 Q248 400 248 405.2"/>
    <path stroke="none" fill="#383838" d="M305 405.2 L305 443.05 Q304.9 445 302.85 445 L265.2 445 Q263.1 445 263 443.05 L263 405.2 Q263 403 265.2 403 L302.85 403 Q305 403 305 405.2"/>
    <path stroke="none" fill="url(#gradient10)" d="M305 405.2 Q305 403 302.85 403 L265.2 403 Q263 403 263 405.2 L263 443.05 Q263.1 445 265.2 445 L302.85 445 Q304.9 445 305 443.05 L305 405.2 M308 405.2 L308 443.05 Q307.9 448 302.85 448 L265.2 448 Q260.1 448 260 443.05 L260 405.2 Q260 400 265.2 400 L302.85 400 Q308 400 308 405.2"/>
    <path stroke="none" fill="#383838" d="M323 443.05 L323 405.2 Q323 403 325.2 403 L362.85 403 Q365 403 365 405.2 L365 443.05 Q364.9 445 362.85 445 L325.2 445 Q323.1 445 323 443.05"/>
    <path stroke="none" fill="url(#gradient11)" d="M323 443.05 Q323.1 445 325.2 445 L362.85 445 Q364.9 445 365 443.05 L365 405.2 Q365 403 362.85 403 L325.2 403 Q323 403 323 405.2 L323 443.05 M320 443.05 L320 405.2 Q320 400 325.2 400 L362.85 400 Q368 400 368 405.2 L368 443.05 Q367.9 448 362.85 448 L325.2 448 Q320.1 448 320 443.05"/>
    <path stroke="none" fill="url(#gradient12)" d="M62.85 343 L25.2 343 Q23 343 23 345.2 L23 383.05 Q23.1 385 25.2 385 L62.85 385 Q64.9 385 65 383.05 L65 345.2 Q65 343 62.85 343 M62.85 340 Q68 340 68 345.2 L68 383.05 Q67.9 388 62.85 388 L25.2 388 Q20.1 388 20 383.05 L20 345.2 Q20 340 25.2 340 L62.85 340"/>
    <path stroke="none" fill="#383838" d="M62.85 343 Q65 343 65 345.2 L65 383.05 Q64.9 385 62.85 385 L25.2 385 Q23.1 385 23 383.05 L23 345.2 Q23 343 25.2 343 L62.85 343"/>
    <path stroke="none" fill="url(#gradient13)" d="M80 383.05 L80 345.2 Q80 340 85.2 340 L122.85 340 Q128 340 128 345.2 L128 383.05 Q127.9 388 122.85 388 L85.2 388 Q80.1 388 80 383.05 M122.85 343 L85.2 343 Q83 343 83 345.2 L83 383.05 Q83.1 385 85.2 385 L122.85 385 Q124.9 385 125 383.05 L125 345.2 Q125 343 122.85 343"/>
    <path stroke="none" fill="#383838" d="M122.85 343 Q125 343 125 345.2 L125 383.05 Q124.9 385 122.85 385 L85.2 385 Q83.1 385 83 383.05 L83 345.2 Q83 343 85.2 343 L122.85 343"/>
    <path stroke="none" fill="#383838" d="M143 345.2 Q143 343 145.2 343 L182.85 343 Q185 343 185 345.2 L185 383.05 Q184.9 385 182.85 385 L145.2 385 Q143.1 385 143 383.05 L143 345.2"/>
    <path stroke="none" fill="url(#gradient14)" d="M143 345.2 L143 383.05 Q143.1 385 145.2 385 L182.85 385 Q184.9 385 185 383.05 L185 345.2 Q185 343 182.85 343 L145.2 343 Q143 343 143 345.2 M140 345.2 Q140 340 145.2 340 L182.85 340 Q188 340 188 345.2 L188 383.05 Q187.9 388 182.85 388 L145.2 388 Q140.1 388 140 383.05 L140 345.2"/>
    <path stroke="none" fill="#383838" d="M205.2 343 L242.85 343 Q245 343 245 345.2 L245 383.05 Q244.9 385 242.85 385 L205.2 385 Q203.1 385 203 383.05 L203 345.2 Q203 343 205.2 343"/>
    <path stroke="none" fill="url(#gradient15)" d="M205.2 343 Q203 343 203 345.2 L203 383.05 Q203.1 385 205.2 385 L242.85 385 Q244.9 385 245 383.05 L245 345.2 Q245 343 242.85 343 L205.2 343 M205.2 340 L242.85 340 Q248 340 248 345.2 L248 383.05 Q247.9 388 242.85 388 L205.2 388 Q200.1 388 200 383.05 L200 345.2 Q200 340 205.2 340"/>
    <path stroke="none" fill="#383838" d="M302.85 343 Q305 343 305 345.2 L305 383.05 Q304.9 385 302.85 385 L265.2 385 Q263.1 385 263 383.05 L263 345.2 Q263 343 265.2 343 L302.85 343"/>
    <path stroke="none" fill="url(#gradient16)" d="M302.85 343 L265.2 343 Q263 343 263 345.2 L263 383.05 Q263.1 385 265.2 385 L302.85 385 Q304.9 385 305 383.05 L305 345.2 Q305 343 302.85 343 M302.85 340 Q308 340 308 345.2 L308 383.05 Q307.9 388 302.85 388 L265.2 388 Q260.1 388 260 383.05 L260 345.2 Q260 340 265.2 340 L302.85 340"/>
    <path stroke="none" fill="#383838" d="M325.2 343 L362.85 343 Q365 343 365 345.2 L365 383.05 Q364.9 385 362.85 385 L325.2 385 Q323.1 385 323 383.05 L323 345.2 Q323 343 325.2 343"/>
    <path stroke="none" fill="url(#gradient17)" d="M325.2 343 Q323 343 323 345.2 L323 383.05 Q323.1 385 325.2 385 L362.85 385 Q364.9 385 365 383.05 L365 345.2 Q365 343 362.85 343 L325.2 343 M325.2 340 L362.85 340 Q368 340 368 345.2 L368 383.05 Q367.9 388 362.85 388 L325.2 388 Q320.1 388 320 383.05 L320 345.2 Q320 340 325.2 340"/>
    <path stroke="none" fill="url(#gradient18)" d="M263 555.2 L263 593.05 Q263.1 595 265.2 595 L362.85 595 Q364.95 595 365 593 L365 555.2 Q365 553 362.85 553 L265.2 553 Q263 553 263 555.2 M260 593.05 L260 555.2 Q260 550 265.2 550 L362.85 550 Q368 550 368 555.2 L368 593.05 Q367.9 598 362.85 598 L265.2 598 Q260.1 598 260 593.05"/>
    <path stroke="none" fill="#383838" d="M263 555.2 Q263 553 265.2 553 L362.85 553 Q365 553 365 555.2 L365 593 Q364.95 595 362.85 595 L265.2 595 Q263.1 595 263 593.05 L263 555.2"/>
    <path stroke="none" fill="url(#gradient19)" d="M245 593 L245 555.2 Q245 553 242.85 553 L145.2 553 Q143 553 143 555.2 L143 593.05 Q143.1 595 145.2 595 L242.85 595 Q244.95 595 245 593 M248 555.2 L248 593.05 Q247.9 598 242.85 598 L145.2 598 Q140.1 598 140 593.05 L140 555.2 Q140 550 145.2 550 L242.85 550 Q248 550 248 555.2"/>
    <path stroke="none" fill="#383838" d="M245 593 Q244.95 595 242.85 595 L145.2 595 Q143.1 595 143 593.05 L143 555.2 Q143 553 145.2 553 L242.85 553 Q245 553 245 555.2 L245 593"/>
    <path stroke="none" fill="url(#gradient20)" d="M728.25 441.7 Q740 453.45 740 470 740 486.55 728.25 498.25 716.55 510 700 510 683.35 510 671.65 498.25 660 486.55 660 470 660 453.45 671.65 441.7 683.35 430 700 430 716.55 430 728.25 441.7 M665.7 470 Q665.7 484.25 675.75 494.2 685.75 504.3 700 504.3 714.25 504.3 724.2 494.2 734.3 484.25 734.3 470 734.3 455.85 724.2 445.75 714.25 435.7 700 435.7 685.75 435.7 675.75 445.75 665.7 455.85 665.7 470"/>
    <path stroke="none" fill="#383838" d="M665.7 470 Q665.7 455.85 675.75 445.75 685.75 435.7 700 435.7 714.25 435.7 724.2 445.75 734.3 455.85 734.3 470 734.3 484.25 724.2 494.2 714.25 504.3 700 504.3 685.75 504.3 675.75 494.2 665.7 484.25 665.7 470"/>
    <path stroke="none" fill="url(#gradient21)" d="M638.25 441.7 Q650 453.45 650 470 650 486.55 638.25 498.25 626.55 510 610 510 593.35 510 581.65 498.25 570 486.55 570 470 570 453.45 581.65 441.7 593.35 430 610 430 626.55 430 638.25 441.7 M575.7 470 Q575.7 484.25 585.75 494.2 595.75 504.3 610 504.3 624.25 504.3 634.2 494.2 644.3 484.25 644.3 470 644.3 455.85 634.2 445.75 624.25 435.7 610 435.7 595.75 435.7 585.75 445.75 575.7 455.85 575.7 470"/>
    <path stroke="none" fill="#383838" d="M575.7 470 Q575.7 455.85 585.75 445.75 595.75 435.7 610 435.7 624.25 435.7 634.2 445.75 644.3 455.85 644.3 470 644.3 484.25 634.2 494.2 624.25 504.3 610 504.3 595.75 504.3 585.75 494.2 575.7 484.25 575.7 470"/>
    <path stroke="none" fill="url(#gradient22)" d="M520 430 Q536.55 430 548.25 441.7 560 453.45 560 470 560 486.55 548.25 498.25 536.55 510 520 510 503.35 510 491.65 498.25 480 486.55 480 470 480 453.45 491.65 441.7 503.35 430 520 430 M544.2 494.2 Q554.3 484.25 554.3 470 554.3 455.85 544.2 445.75 534.25 435.7 520 435.7 505.75 435.7 495.75 445.75 485.7 455.85 485.7 470 485.7 484.25 495.75 494.2 505.75 504.3 520 504.3 534.25 504.3 544.2 494.2"/>
    <path stroke="none" fill="#383838" d="M544.2 494.2 Q534.25 504.3 520 504.3 505.75 504.3 495.75 494.2 485.7 484.25 485.7 470 485.7 455.85 495.75 445.75 505.75 435.7 520 435.7 534.25 435.7 544.2 445.75 554.3 455.85 554.3 470 554.3 484.25 544.2 494.2"/>
    <path stroke="none" fill="url(#gradient23)" d="M454.2 494.2 Q464.3 484.25 464.3 470 464.3 455.85 454.2 445.75 444.25 435.7 430 435.7 415.75 435.7 405.75 445.75 395.7 455.85 395.7 470 395.7 484.25 405.75 494.2 415.75 504.3 430 504.3 444.25 504.3 454.2 494.2 M458.25 441.7 Q470 453.45 470 470 470 486.55 458.25 498.25 446.55 510 430 510 413.35 510 401.65 498.25 390 486.55 390 470 390 453.45 401.65 441.7 413.35 430 430 430 446.55 430 458.25 441.7"/>
    <path stroke="none" fill="#383838" d="M454.2 494.2 Q444.25 504.3 430 504.3 415.75 504.3 405.75 494.2 395.7 484.25 395.7 470 395.7 455.85 405.75 445.75 415.75 435.7 430 435.7 444.25 435.7 454.2 445.75 464.3 455.85 464.3 470 464.3 484.25 454.2 494.2"/>
    <path stroke="none" fill="url(#gradient24)" d="M851.65 351.7 Q863.35 340 880 340 896.55 340 908.25 351.7 920 363.45 920 380 920 396.55 908.25 408.25 896.55 420 880 420 863.35 420 851.65 408.25 840 396.55 840 380 840 363.45 851.65 351.7 M855.75 355.75 Q845.7 365.85 845.7 380 845.7 394.25 855.75 404.2 865.75 414.3 880 414.3 894.25 414.3 904.2 404.2 914.3 394.25 914.3 380 914.3 365.85 904.2 355.75 894.25 345.7 880 345.7 865.75 345.7 855.75 355.75"/>
    <path stroke="none" fill="#383838" d="M855.75 355.75 Q865.75 345.7 880 345.7 894.25 345.7 904.2 355.75 914.3 365.85 914.3 380 914.3 394.25 904.2 404.2 894.25 414.3 880 414.3 865.75 414.3 855.75 404.2 845.7 394.25 845.7 380 845.7 365.85 855.75 355.75"/>
    <path stroke="none" fill="url(#gradient25)" d="M761.65 351.7 Q773.35 340 790 340 806.55 340 818.25 351.7 830 363.45 830 380 830 396.55 818.25 408.25 806.55 420 790 420 773.35 420 761.65 408.25 750 396.55 750 380 750 363.45 761.65 351.7 M765.75 355.75 Q755.7 365.85 755.7 380 755.7 394.25 765.75 404.2 775.75 414.3 790 414.3 804.25 414.3 814.2 404.2 824.3 394.25 824.3 380 824.3 365.85 814.2 355.75 804.25 345.7 790 345.7 775.75 345.7 765.75 355.75"/>
    <path stroke="none" fill="#383838" d="M765.75 355.75 Q775.75 345.7 790 345.7 804.25 345.7 814.2 355.75 824.3 365.85 824.3 380 824.3 394.25 814.2 404.2 804.25 414.3 790 414.3 775.75 414.3 765.75 404.2 755.7 394.25 755.7 380 755.7 365.85 765.75 355.75"/>
    <path stroke="none" fill="url(#gradient26)" d="M671.65 351.7 Q683.35 340 700 340 716.55 340 728.25 351.7 740 363.45 740 380 740 396.55 728.25 408.25 716.55 420 700 420 683.35 420 671.65 408.25 660 396.55 660 380 660 363.45 671.65 351.7 M675.75 355.75 Q665.7 365.85 665.7 380 665.7 394.25 675.75 404.2 685.75 414.3 700 414.3 714.25 414.3 724.2 404.2 734.3 394.25 734.3 380 734.3 365.85 724.2 355.75 714.25 345.7 700 345.7 685.75 345.7 675.75 355.75"/>
    <path stroke="none" fill="#383838" d="M675.75 355.75 Q685.75 345.7 700 345.7 714.25 345.7 724.2 355.75 734.3 365.85 734.3 380 734.3 394.25 724.2 404.2 714.25 414.3 700 414.3 685.75 414.3 675.75 404.2 665.7 394.25 665.7 380 665.7 365.85 675.75 355.75"/>
    <path stroke="none" fill="url(#gradient27)" d="M581.65 351.7 Q593.35 340 610 340 626.55 340 638.25 351.7 650 363.45 650 380 650 396.55 638.25 408.25 626.55 420 610 420 593.35 420 581.65 408.25 570 396.55 570 380 570 363.45 581.65 351.7 M585.75 355.75 Q575.7 365.85 575.7 380 575.7 394.25 585.75 404.2 595.75 414.3 610 414.3 624.25 414.3 634.2 404.2 644.3 394.25 644.3 380 644.3 365.85 634.2 355.75 624.25 345.7 610 345.7 595.75 345.7 585.75 355.75"/>
    <path stroke="none" fill="#383838" d="M585.75 355.75 Q595.75 345.7 610 345.7 624.25 345.7 634.2 355.75 644.3 365.85 644.3 380 644.3 394.25 634.2 404.2 624.25 414.3 610 414.3 595.75 414.3 585.75 404.2 575.7 394.25 575.7 380 575.7 365.85 585.75 355.75"/>
    <path stroke="none" fill="url(#gradient28)" d="M560 380 Q560 396.55 548.25 408.25 536.55 420 520 420 503.35 420 491.65 408.25 480 396.55 480 380 480 363.45 491.65 351.7 503.35 340 520 340 536.55 340 548.25 351.7 560 363.45 560 380 M554.3 380 Q554.3 365.85 544.2 355.75 534.25 345.7 520 345.7 505.75 345.7 495.75 355.75 485.7 365.85 485.7 380 485.7 394.25 495.75 404.2 505.75 414.3 520 414.3 534.25 414.3 544.2 404.2 554.3 394.25 554.3 380"/>
    <path stroke="none" fill="#383838" d="M554.3 380 Q554.3 394.25 544.2 404.2 534.25 414.3 520 414.3 505.75 414.3 495.75 404.2 485.7 394.25 485.7 380 485.7 365.85 495.75 355.75 505.75 345.7 520 345.7 534.25 345.7 544.2 355.75 554.3 365.85 554.3 380"/>
    <path stroke="none" fill="url(#gradient29)" d="M401.65 351.7 Q413.35 340 430 340 446.55 340 458.25 351.7 470 363.45 470 380 470 396.55 458.25 408.25 446.55 420 430 420 413.35 420 401.65 408.25 390 396.55 390 380 390 363.45 401.65 351.7 M464.3 380 Q464.3 365.85 454.2 355.75 444.25 345.7 430 345.7 415.75 345.7 405.75 355.75 395.7 365.85 395.7 380 395.7 394.25 405.75 404.2 415.75 414.3 430 414.3 444.25 414.3 454.2 404.2 464.3 394.25 464.3 380"/>
    <path stroke="none" fill="#383838" d="M464.3 380 Q464.3 394.25 454.2 404.2 444.25 414.3 430 414.3 415.75 414.3 405.75 404.2 395.7 394.25 395.7 380 395.7 365.85 405.75 355.75 415.75 345.7 430 345.7 444.25 345.7 454.2 355.75 464.3 365.85 464.3 380"/>
    <path stroke="none" fill="url(#gradient30)" d="M354.95 165.2 L354.75 165 205.1 165 204.95 165.2 204.95 314.85 205.1 315 354.75 315 354.95 314.85 354.95 165.2 M354.75 160 Q359.95 160 359.95 165.2 L359.95 314.85 Q359.95 320 354.75 320 L205.1 320 Q199.95 320 199.95 314.85 L199.95 165.2 Q199.95 160 205.1 160 L354.75 160"/>
    <path stroke="none" fill="#383838" d="M354.95 165.2 L354.95 314.85 354.75 315 205.1 315 204.95 314.85 204.95 165.2 205.1 165 354.75 165 354.95 165.2"/>
    <path stroke="none" fill="#000000" fill-opacity="0.10196078431372549" d="M327.95 113.1 L327.95 115.1 Q327.8 120 322.75 120 L237.1 120 Q232.1 120 231.95 115.1 L231.95 113.1 Q232.1 118 237.1 118 L322.75 118 Q327.8 118 327.95 113.1"/>
    <path stroke="none" fill="url(#gradient31)" d="M327.95 113.1 Q327.8 118 322.75 118 L237.1 118 Q232.1 118 231.95 113.1 L231.95 27.2 Q231.95 22 237.1 22 L322.75 22 Q327.95 22 327.95 27.2 L327.95 113.1 M324.95 113 L324.95 27.2 Q324.95 25 322.75 25 L237.1 25 Q234.95 25 234.95 27.2 L234.95 113.1 Q235.1 115 237.1 115 L322.75 115 Q324.85 115 324.95 113"/>
    <path stroke="none" fill="url(#gradient32)" d="M324.95 113 Q324.85 115 322.75 115 L237.1 115 Q235.1 115 234.95 113.1 L234.95 27.2 Q234.95 25 237.1 25 L322.75 25 Q324.95 25 324.95 27.2 L324.95 113"/>
    <path stroke="none" fill="#666666" d="M284 39 Q284 40.6 282.8 41.8 281.6 43 280 43 278.35 43 277.15 41.8 276 40.6 276 39 L276.05 38.5 Q276.2 37.15 277.15 36.15 278.35 35 280 35 281.6 35 282.8 36.15 283.8 37.15 284 38.5 L284 39 M251.85 67.15 Q252.8 68.15 253 69.5 L253 70 Q253 71.6 251.85 72.8 250.65 74 249 74 247.4 74 246.2 72.8 245 71.6 245 70 L245.05 69.5 Q245.2 68.15 246.2 67.15 247.4 66 249 66 250.65 66 251.85 67.15 M280 97 Q281.6 97 282.8 98.15 283.8 99.15 284 100.5 L284 101 Q284 102.6 282.8 103.8 281.6 105 280 105 278.35 105 277.15 103.8 276 102.6 276 101 L276.05 100.5 Q276.2 99.15 277.15 98.15 278.35 97 280 97 M308.2 67.15 Q309.4 66 311 66 312.65 66 313.85 67.15 314.8 68.15 315 69.5 L315 70 Q315 71.6 313.85 72.8 312.65 74 311 74 309.4 74 308.2 72.8 307 71.6 307 70 L307.05 69.5 Q307.2 68.15 308.2 67.15"/>
    <path stroke="none" fill="url(#gradient33)" d="M487 165 Q487 164 486 164 L435 164 Q434 164 434 165 L434 210 Q434 211.65 432.85 212.85 431.65 214 430 214 L385 214 Q384 214 384 215 L384 266 Q384 267 385 267 L430 267 Q431.65 267 432.85 268.2 434 269.35 434 271 L434 314.95 Q434 315.95 435 315.95 L486 315.95 Q487 315.95 487 314.95 L487 271 Q487 269.35 488.2 268.2 489.35 267 491 267 L534.95 267 Q535.95 267 535.95 266 L535.95 215 Q535.95 214 534.95 214 L491 214 Q489.35 214 488.2 212.85 487 211.65 487 210 L487 165 M486 160 Q491 160 491 165 L491 210 534.95 210 Q539.95 210 539.95 215 L539.95 266 Q539.95 271 534.95 271 L491 271 491 314.95 Q491 319.95 486 319.95 L435 319.95 Q430 319.95 430 314.95 L430 271 385 271 Q380 271 380 266 L380 215 Q380 210 385 210 L430 210 430 165 Q430 160 435 160 L486 160"/>
    <path stroke="none" fill="#383838" d="M487 165 L487 210 Q487 211.65 488.2 212.85 489.35 214 491 214 L534.95 214 Q535.95 214 535.95 215 L535.95 266 Q535.95 267 534.95 267 L491 267 Q489.35 267 488.2 268.2 487 269.35 487 271 L487 314.95 Q487 315.95 486 315.95 L435 315.95 Q434 315.95 434 314.95 L434 271 Q434 269.35 432.85 268.2 431.65 267 430 267 L385 267 Q384 267 384 266 L384 215 Q384 214 385 214 L430 214 Q431.65 214 432.85 212.85 434 211.65 434 210 L434 165 Q434 164 435 164 L486 164 Q487 164 487 165"/>
    <path stroke="none" fill="url(#gradient34)" d="M23 555.2 L23 593.05 Q23.1 595 25.2 595 L122.85 595 Q124.95 595 125 593 L125 555.2 Q125 553 122.85 553 L25.2 553 Q23 553 23 555.2 M20 593.05 L20 555.2 Q20 550 25.2 550 L122.85 550 Q128 550 128 555.2 L128 593.05 Q127.9 598 122.85 598 L25.2 598 Q20.1 598 20 593.05"/>
    <path stroke="none" fill="#383838" d="M23 555.2 Q23 553 25.2 553 L122.85 553 Q125 553 125 555.2 L125 593 Q124.95 595 122.85 595 L25.2 595 Q23.1 595 23 593.05 L23 555.2"/>
    <path stroke="none" fill="#666666" d="M461 175 Q461.35 175 461.65 175.3 L466.7 180.35 Q467.15 180.8 466.9 181.4 466.65 182 466 182 L455.95 182 Q455.3 182 455.05 181.4 L455 181 Q454.95 180.65 455.25 180.35 L455.3 180.35 460.3 175.3 Q460.6 175 461 175 M395 241 Q395 240.65 395.3 240.35 L400.35 235.3 Q400.8 234.85 401.4 235.1 402 235.35 402 236 L402 246.05 Q402 246.7 401.4 246.95 L401 247 Q400.65 247.05 400.35 246.75 L400.35 246.7 395.3 241.7 Q395 241.4 395 241 M466.7 299.65 L461.65 304.7 461 305 460.3 304.7 455.3 299.65 455.25 299.65 Q454.95 299.35 455 299 L455.05 298.6 Q455.3 298 455.95 298 L466 298 Q466.65 298 466.9 298.6 467.15 299.2 466.7 299.65 M525 241 L524.7 241.7 519.65 246.7 519.65 246.75 519 247 518.6 246.95 Q518 246.7 518 246.05 L518 236 Q518 235.35 518.6 235.1 519.2 234.85 519.65 235.3 L524.7 240.35 525 241"/>
    <path stroke="none" fill="#666666" fill-opacity="0.30196078431372547" d="M464 239.5 L464 240 Q464 241.6 462.85 242.8 461.65 244 460 244 458.4 244 457.2 242.8 456 241.6 456 240 L456.05 239.5 Q456.2 238.15 457.2 237.15 458.4 236 460 236 461.65 236 462.85 237.15 463.8 238.15 464 239.5"/>
    <path stroke="none" fill="url(#gradient35)" d="M893.7 186.25 Q871.45 164 840 164 808.35 164 786.15 186.25 764 208.55 764 240 L764 241 764 241.75 764 242 764 242.3 Q764.8 272.25 786.15 293.7 798.05 305.65 812.7 311.2 825.3 316 840 316 854.6 316 867.2 311.2 881.75 305.65 893.7 293.7 915.25 272.2 916 242.15 L916 242 916 241.25 916 241 916 240.5 916 240 Q916 208.55 893.7 186.25 M896.5 183.4 Q920 206.9 920 240 L920 240.5 920 241 920 241.25 920 242 920 242.25 Q919.2 273.9 896.5 296.5 883.95 309.1 868.6 314.95 855.35 320 840 320 824.55 320 811.25 314.95 795.85 309.1 783.3 296.5 760.8 273.9 760 242.3 L760 242 760 241.75 760 241 760 240 Q760 206.9 783.3 183.4 806.7 160 840 160 873.1 160 896.5 183.4"/>
    <path stroke="none" fill="#383838" d="M893.7 186.25 Q916 208.55 916 240 L916 240.5 916 241 916 241.25 916 242 916 242.15 Q915.25 272.2 893.7 293.7 881.75 305.65 867.2 311.2 854.6 316 840 316 825.3 316 812.7 311.2 798.05 305.65 786.15 293.7 764.8 272.25 764 242.3 L764 242 764 241.75 764 241 764 240 Q764 208.55 786.15 186.25 808.35 164 840 164 871.45 164 893.7 186.25"/>
    <path stroke="none" fill="url(#gradient36)" d="M898.95 89 L898.95 53 Q898.95 51 896.95 51 L863 51 Q861.75 51 860.9 50.15 860 49.25 860 48 L860 13 Q860 11 858 11 L822 11 Q820 11 820 13 L820 48 Q820 49.25 819.15 50.15 818.25 51 817 51 L782 51 Q780 51 780 53 L780 89 Q780 91 782 91 L817 91 Q818.25 91 819.15 91.9 820 92.75 820 94 L820 127.95 Q820 129.95 822 129.95 L858 129.95 Q860 129.95 860 127.95 L860 94 Q860 92.75 860.9 91.9 861.75 91 863 91 L896.95 91 Q898.95 91 898.95 89 M777 89.25 L777 53 Q777 48 782 48 L817 48 817 13 Q817 8 822 8 L858 8 Q863 8 863 13 L863 48 896.95 48 Q901.95 48 901.95 53 L901.95 89.25 Q901.8 94 896.95 94 L863 94 863 96 863 128.2 Q862.85 132.95 858 132.95 L822 132.95 Q817.15 132.95 817 128.2 L817 96 817 94 782 94 Q777.15 94 777 89.25"/>
    <path stroke="none" fill="url(#gradient37)" d="M898.95 89 Q898.95 91 896.95 91 L863 91 Q861.75 91 860.9 91.9 860 92.75 860 94 L860 127.95 Q860 129.95 858 129.95 L822 129.95 Q820 129.95 820 127.95 L820 94 Q820 92.75 819.15 91.9 818.25 91 817 91 L782 91 Q780 91 780 89 L780 53 Q780 51 782 51 L817 51 Q818.25 51 819.15 50.15 820 49.25 820 48 L820 13 Q820 11 822 11 L858 11 Q860 11 860 13 L860 48 Q860 49.25 860.9 50.15 861.75 51 863 51 L896.95 51 Q898.95 51 898.95 53 L898.95 89"/>
    <path stroke="none" fill="#000000" fill-opacity="0.10196078431372549" d="M777 89.25 Q777.15 94 782 94 L817 94 817 96 782 96 Q777 96 777 91 L777 89.25 M817 128.2 Q817.15 132.95 822 132.95 L858 132.95 Q862.85 132.95 863 128.2 L863 129.95 Q863 134.95 858 134.95 L822 134.95 Q817 134.95 817 129.95 L817 128.2 M863 96 L863 94 896.95 94 Q901.8 94 901.95 89.25 L901.95 91 Q901.95 96 896.95 96 L863 96"/>
    <path stroke="none" fill="#666666" d="M846.9 31.4 Q846.65 32 846 32 L835.95 32 Q835.3 32 835.05 31.4 L835 31 Q834.95 30.65 835.25 30.35 L835.3 30.35 840.3 25.3 Q840.6 25 841 25 841.35 25 841.65 25.3 L846.7 30.35 Q847.15 30.8 846.9 31.4 M878.6 65.1 Q879.2 64.85 879.65 65.3 L884.7 70.35 885 71 884.7 71.7 879.65 76.7 879.65 76.75 Q879.35 77.05 879 77 L878.6 76.95 Q878 76.7 878 76.05 L878 66 Q878 65.35 878.6 65.1 M846.9 108.6 Q847.15 109.2 846.7 109.65 L841.65 114.7 841 115 Q840.6 115 840.3 114.7 L835.3 109.65 835.25 109.65 Q834.95 109.35 835 109 L835.05 108.6 Q835.3 108 835.95 108 L846 108 Q846.65 108 846.9 108.6 M800.35 65.3 Q800.8 64.85 801.4 65.1 802 65.35 802 66 L802 76.05 Q802 76.7 801.4 76.95 L801 77 Q800.65 77.05 800.35 76.75 L800.35 76.7 795.3 71.7 Q795 71.4 795 71 795 70.65 795.3 70.35 L800.35 65.3"/>
    <path stroke="none" fill="#666666" fill-opacity="0.30196078431372547" d="M837.2 67.15 Q838.4 66 840 66 841.65 66 842.85 67.15 843.8 68.15 844 69.5 L844 70 Q844 71.6 842.85 72.8 841.65 74 840 74 838.4 74 837.2 72.8 836 71.6 836 70 L836.05 69.5 Q836.2 68.15 837.2 67.15"/>
    <path stroke="none" fill="url(#gradient38)" d="M676 80 Q681 80 681 85 L681 125 650.5 155.5 620 125 620 85 Q620 80 625 80 L676 80 M677 85 Q677 84 676 84 L625 84 Q624 84 624 85 L624 123.35 650.5 149.85 677 123.35 677 85"/>
    <path stroke="none" fill="#383838" d="M677 85 L677 123.35 650.5 149.85 624 123.35 624 85 Q624 84 625 84 L676 84 Q677 84 677 85 M651 95 Q650.6 95 650.3 95.3 L645.3 100.35 645.25 100.35 Q644.95 100.65 645 101 L645.05 101.4 Q645.3 102 645.95 102 L656 102 Q656.65 102 656.9 101.4 657.15 100.8 656.7 100.35 L651.65 95.3 Q651.35 95 651 95 M709.65 195.3 Q709.2 194.85 708.6 195.1 708 195.35 708 196 L708 206.05 Q708 206.7 708.6 206.95 L709 207 709.65 206.75 709.65 206.7 714.7 201.7 715 201 714.7 200.35 709.65 195.3 M725.95 175 L725.95 226 Q725.95 227 724.95 227 L687.65 227 661.15 200.5 687.65 174 724.95 174 Q725.95 174 725.95 175 M677 277.65 L677 314.95 Q677 315.95 676 315.95 L625 315.95 Q624 315.95 624 314.95 L624 277.65 650.5 251.15 677 277.65 M651 305 L651.65 304.7 656.7 299.65 Q657.15 299.2 656.9 298.6 656.65 298 656 298 L645.95 298 Q645.3 298 645.05 298.6 L645 299 Q644.95 299.35 645.25 299.65 L645.3 299.65 650.3 304.7 651 305 M591.4 195.1 Q590.8 194.85 590.35 195.3 L585.3 200.35 Q585 200.65 585 201 585 201.4 585.3 201.7 L590.35 206.7 590.35 206.75 Q590.65 207.05 591 207 L591.4 206.95 Q592 206.7 592 206.05 L592 196 Q592 195.35 591.4 195.1 M575 174 L613.35 174 639.85 200.5 613.35 227 575 227 Q574 227 574 226 L574 175 Q574 174 575 174"/>
    <path stroke="none" fill="#666666" d="M651 95 Q651.35 95 651.65 95.3 L656.7 100.35 Q657.15 100.8 656.9 101.4 656.65 102 656 102 L645.95 102 Q645.3 102 645.05 101.4 L645 101 Q644.95 100.65 645.25 100.35 L645.3 100.35 650.3 95.3 Q650.6 95 651 95 M709.65 195.3 L714.7 200.35 715 201 714.7 201.7 709.65 206.7 709.65 206.75 709 207 708.6 206.95 Q708 206.7 708 206.05 L708 196 Q708 195.35 708.6 195.1 709.2 194.85 709.65 195.3 M651 305 L650.3 304.7 645.3 299.65 645.25 299.65 Q644.95 299.35 645 299 L645.05 298.6 Q645.3 298 645.95 298 L656 298 Q656.65 298 656.9 298.6 657.15 299.2 656.7 299.65 L651.65 304.7 651 305 M591.4 195.1 Q592 195.35 592 196 L592 206.05 Q592 206.7 591.4 206.95 L591 207 Q590.65 207.05 590.35 206.75 L590.35 206.7 585.3 201.7 Q585 201.4 585 201 585 200.65 585.3 200.35 L590.35 195.3 Q590.8 194.85 591.4 195.1"/>
    <path stroke="none" fill="url(#gradient39)" d="M725.95 175 Q725.95 174 724.95 174 L687.65 174 661.15 200.5 687.65 227 724.95 227 Q725.95 227 725.95 226 L725.95 175 M686 170 L724.95 170 Q729.95 170 729.95 175 L729.95 226 Q729.95 231 724.95 231 L686 231 655.5 200.5 686 170"/>
    <path stroke="none" fill="url(#gradient40)" d="M677 277.65 L650.5 251.15 624 277.65 624 314.95 Q624 315.95 625 315.95 L676 315.95 Q677 315.95 677 314.95 L677 277.65 M650.5 245.5 L681 276 681 314.95 Q681 319.95 676 319.95 L625 319.95 Q620 319.95 620 314.95 L620 276 650.5 245.5"/>
    <path stroke="none" fill="url(#gradient41)" d="M570 175 Q570 170 575 170 L615 170 645.5 200.5 615 231 575 231 Q570 231 570 226 L570 175 M575 174 Q574 174 574 175 L574 226 Q574 227 575 227 L613.35 227 639.85 200.5 613.35 174 575 174"/>
    <path stroke="none" fill="url(#gradient42)" d="M153 186.95 Q131.05 165 100 165 68.75 165 46.85 186.95 25 208.95 25 240 25 271.05 46.85 293 68.8 315 100 315 131 315 152.95 293 L153 292.95 Q175 271 175 240 175 208.95 153 186.95 M156.5 183.4 Q180 206.9 180 240 180 273.1 156.5 296.5 133.1 320 100 320 66.7 320 43.3 296.5 20 273.1 20 240 20 206.9 43.3 183.4 66.7 160 100 160 133.1 160 156.5 183.4"/>
    <path stroke="none" fill="#383838" d="M153 186.95 Q175 208.95 175 240 175 271 153 292.95 L152.95 293 Q131 315 100 315 68.8 315 46.85 293 25 271.05 25 240 25 208.95 46.85 186.95 68.75 165 100 165 131.05 165 153 186.95"/>
    <path stroke="none" fill="#FFFFFF" fill-opacity="0.050980392156862744" d="M100 175.05 Q100.35 175.05 100.65 175.35 L105.7 180.4 Q106.15 180.85 105.9 181.45 105.65 182.05 105 182.05 L94.95 182.05 Q94.3 182.05 94.05 181.45 L94 181.05 Q93.95 180.7 94.25 180.4 L94.3 180.4 99.3 175.35 Q99.6 175.05 100 175.05 M159.5 236.55 Q159.5 235.9 160.1 235.65 160.7 235.4 161.15 235.85 L166.2 240.9 166.5 241.55 166.2 242.25 161.15 247.25 161.15 247.3 160.5 247.55 160.1 247.5 Q159.5 247.25 159.5 246.6 L159.5 236.55 M40.5 236.55 L40.5 246.6 Q40.5 247.25 39.9 247.5 L39.5 247.55 Q39.15 247.6 38.85 247.3 L38.85 247.25 33.8 242.25 Q33.5 241.95 33.5 241.55 33.5 241.2 33.8 240.9 L38.85 235.85 Q39.3 235.4 39.9 235.65 40.5 235.9 40.5 236.55 M105.9 301.65 Q106.15 302.25 105.7 302.7 L100.65 307.75 100 308.05 99.3 307.75 94.3 302.7 94.25 302.7 Q93.95 302.4 94 302.05 L94.05 301.65 Q94.3 301.05 94.95 301.05 L105 301.05 Q105.65 301.05 105.9 301.65"/>
    <path stroke="none" fill="url(#gradient43)" d="M65.75 96.35 Q60.6 89.8 58.45 82 57.3 77.8 57 73.25 L56.9 70.15 Q56.95 52.25 69.55 39.6 L73.1 36.35 Q78.5 31.95 84.75 29.6 90.15 27.6 96.1 27.1 L100.1 26.95 Q117 27 129.25 38.25 L130.5 39.45 130.65 39.6 Q140.1 49.05 142.45 61.45 143.1 65 143.2 68.8 L143.2 70 143.2 71 Q142.85 88.2 130.5 100.5 117.85 113.2 100 113.2 L95.25 113 Q88.3 112.3 82.2 109.55 77 107.15 72.45 103.3 L69.5 100.55 65.75 96.35"/>
    <path stroke="none" fill="url(#gradient44)" d="M65.75 96.35 Q67.45 98.6 69.5 100.65 82.1 113.35 100.15 113.35 L103.6 113.25 Q108.6 112.85 113.25 111.4 120.5 109.15 126.6 104.25 L130.6 100.65 Q142.05 89.15 143.2 73.5 L143.2 73.15 143.2 73 143.25 72.6 143.3 71.1 143.3 70.15 Q143.3 65.6 142.45 61.45 140.1 49.05 130.65 39.6 L130.5 39.45 129.25 38.25 Q117 27 100.1 26.95 L96.1 27.1 Q90.15 27.6 84.75 29.6 78.5 31.95 73.1 36.35 L69.55 39.6 Q56.95 52.25 56.9 70.15 L57 73.25 Q57.3 77.8 58.45 82 60.6 89.8 65.75 96.35 M52.15 71.85 L52.1 71.15 52.1 70.15 Q52.1 50.35 66.1 36.15 80.1 22.15 100.1 22.15 119.9 22.15 133.95 36.15 148.05 50.3 148.1 70.15 L148.1 71.15 148.1 71.85 Q147.45 90.6 134 104.05 119.9 118.15 100.1 118.15 80.1 118.15 66.1 104.05 52.7 90.55 52.15 71.85"/>
    <path stroke="none" fill="#000000" fill-opacity="0.30196078431372547" d="M143.2 71 L143.2 70 143.2 68.8 143.3 71.1 143.25 72.6 143.2 72 143.2 71.8 143.2 71"/>
    <path stroke="none" fill="#000000" fill-opacity="0.2" d="M143.2 71 L143.2 71.8 143.2 72 143.2 72.65 143.2 73 143.2 73.15 143.2 73.5 Q142.05 89.15 130.6 100.65 L126.6 104.25 Q120.5 109.15 113.25 111.4 108.6 112.85 103.6 113.25 L100.15 113.35 Q82.1 113.35 69.5 100.65 67.45 98.6 65.75 96.35 L69.5 100.55 72.45 103.3 Q77 107.15 82.2 109.55 88.3 112.3 95.25 113 L100 113.2 Q117.85 113.2 130.5 100.5 142.85 88.2 143.2 71 M143.2 68.8 Q143.1 65 142.45 61.45 143.3 65.6 143.3 70.15 L143.3 71.1 143.2 68.8"/>
    <path stroke="none" fill="#000000" fill-opacity="0.10196078431372549" d="M148.1 71.85 L148.1 73.15 148.1 74.15 Q147.7 93.35 134 107.05 119.9 121.15 100.1 121.15 80.1 121.15 66.1 107.05 52.45 93.3 52.1 74.15 L52.1 73.15 52.15 71.85 Q52.7 90.55 66.1 104.05 80.1 118.15 100.1 118.15 119.9 118.15 134 104.05 147.45 90.6 148.1 71.85"/>
    <path stroke="none" fill="#666666" d="M100 35 Q101.6 35 102.8 36.15 103.8 37.15 104 38.5 L104 39 Q104 40.6 102.8 41.8 101.6 43 100 43 98.35 43 97.15 41.8 96 40.6 96 39 L96.05 38.5 Q96.2 37.15 97.15 36.15 98.35 35 100 35 M102.8 98.15 Q103.8 99.15 104 100.5 L104 101 Q104 102.6 102.8 103.8 101.6 105 100 105 98.35 105 97.15 103.8 96 102.6 96 101 L96.05 100.5 Q96.2 99.15 97.15 98.15 98.35 97 100 97 101.6 97 102.8 98.15 M128.2 67.15 Q129.4 66 131 66 132.65 66 133.85 67.15 134.8 68.15 135 69.5 L135 70 Q135 71.6 133.85 72.8 132.65 74 131 74 129.4 74 128.2 72.8 127 71.6 127 70 L127.05 69.5 Q127.2 68.15 128.2 67.15 M66.2 67.15 Q67.4 66 69 66 70.65 66 71.85 67.15 72.8 68.15 73 69.5 L73 70 Q73 71.6 71.85 72.8 70.65 74 69 74 67.4 74 66.2 72.8 65 71.6 65 70 L65.05 69.5 Q65.2 68.15 66.2 67.15"/>
    <path stroke="none" fill="url(#gradient45)" d="M904.2 494.2 Q914.3 484.25 914.3 470 914.3 455.85 904.2 445.75 894.25 435.7 880 435.7 865.75 435.7 855.75 445.75 845.7 455.85 845.7 470 845.7 484.25 855.75 494.2 865.75 504.3 880 504.3 894.25 504.3 904.2 494.2 M920 470 Q920 486.55 908.25 498.25 896.55 510 880 510 863.35 510 851.65 498.25 840 486.55 840 470 840 453.45 851.65 441.7 863.35 430 880 430 896.55 430 908.25 441.7 920 453.45 920 470"/>
    <path stroke="none" fill="#383838" d="M904.2 494.2 Q894.25 504.3 880 504.3 865.75 504.3 855.75 494.2 845.7 484.25 845.7 470 845.7 455.85 855.75 445.75 865.75 435.7 880 435.7 894.25 435.7 904.2 445.75 914.3 455.85 914.3 470 914.3 484.25 904.2 494.2"/>
    <path stroke="none" fill="url(#gradient46)" d="M814.2 494.2 Q824.3 484.25 824.3 470 824.3 455.85 814.2 445.75 804.25 435.7 790 435.7 775.75 435.7 765.75 445.75 755.7 455.85 755.7 470 755.7 484.25 765.75 494.2 775.75 504.3 790 504.3 804.25 504.3 814.2 494.2 M830 470 Q830 486.55 818.25 498.25 806.55 510 790 510 773.35 510 761.65 498.25 750 486.55 750 470 750 453.45 761.65 441.7 773.35 430 790 430 806.55 430 818.25 441.7 830 453.45 830 470"/>
    <path stroke="none" fill="#383838" d="M814.2 494.2 Q804.25 504.3 790 504.3 775.75 504.3 765.75 494.2 755.7 484.25 755.7 470 755.7 455.85 765.75 445.75 775.75 435.7 790 435.7 804.25 435.7 814.2 445.75 824.3 455.85 824.3 470 824.3 484.25 814.2 494.2"/>
    <path stroke="none" fill="url(#gradient47)" d="M728.25 531.7 Q740 543.45 740 560 740 576.55 728.25 588.25 716.55 600 700 600 683.35 600 671.65 588.25 660 576.55 660 560 660 543.45 671.65 531.7 683.35 520 700 520 716.55 520 728.25 531.7 M724.2 535.75 Q714.25 525.7 700 525.7 685.75 525.7 675.75 535.75 665.7 545.85 665.7 560 665.7 574.25 675.75 584.2 685.75 594.3 700 594.3 714.25 594.3 724.2 584.2 734.3 574.25 734.3 560 734.3 545.85 724.2 535.75"/>
    <path stroke="none" fill="#383838" d="M724.2 535.75 Q734.3 545.85 734.3 560 734.3 574.25 724.2 584.2 714.25 594.3 700 594.3 685.75 594.3 675.75 584.2 665.7 574.25 665.7 560 665.7 545.85 675.75 535.75 685.75 525.7 700 525.7 714.25 525.7 724.2 535.75"/>
    <path stroke="none" fill="url(#gradient48)" d="M634.2 535.75 Q624.25 525.7 610 525.7 595.75 525.7 585.75 535.75 575.7 545.85 575.7 560 575.7 574.25 585.75 584.2 595.75 594.3 610 594.3 624.25 594.3 634.2 584.2 644.3 574.25 644.3 560 644.3 545.85 634.2 535.75 M638.25 531.7 Q650 543.45 650 560 650 576.55 638.25 588.25 626.55 600 610 600 593.35 600 581.65 588.25 570 576.55 570 560 570 543.45 581.65 531.7 593.35 520 610 520 626.55 520 638.25 531.7"/>
    <path stroke="none" fill="#383838" d="M634.2 535.75 Q644.3 545.85 644.3 560 644.3 574.25 634.2 584.2 624.25 594.3 610 594.3 595.75 594.3 585.75 584.2 575.7 574.25 575.7 560 575.7 545.85 585.75 535.75 595.75 525.7 610 525.7 624.25 525.7 634.2 535.75"/>
    <path stroke="none" fill="url(#gradient49)" d="M520 520 Q536.55 520 548.25 531.7 560 543.45 560 560 560 576.55 548.25 588.25 536.55 600 520 600 503.35 600 491.65 588.25 480 576.55 480 560 480 543.45 491.65 531.7 503.35 520 520 520 M520 525.7 Q505.75 525.7 495.75 535.75 485.7 545.85 485.7 560 485.7 574.25 495.75 584.2 505.75 594.3 520 594.3 534.25 594.3 544.2 584.2 554.3 574.25 554.3 560 554.3 545.85 544.2 535.75 534.25 525.7 520 525.7"/>
    <path stroke="none" fill="#383838" d="M520 525.7 Q534.25 525.7 544.2 535.75 554.3 545.85 554.3 560 554.3 574.25 544.2 584.2 534.25 594.3 520 594.3 505.75 594.3 495.75 584.2 485.7 574.25 485.7 560 485.7 545.85 495.75 535.75 505.75 525.7 520 525.7"/>
    <path stroke="none" fill="url(#gradient50)" d="M880 520 Q896.55 520 908.25 531.7 920 543.45 920 560 920 576.55 908.25 588.25 896.55 600 880 600 863.35 600 851.65 588.25 840 576.55 840 560 840 543.45 851.65 531.7 863.35 520 880 520 M880 525.7 Q865.75 525.7 855.75 535.75 845.7 545.85 845.7 560 845.7 574.25 855.75 584.2 865.75 594.3 880 594.3 894.25 594.3 904.2 584.2 914.3 574.25 914.3 560 914.3 545.85 904.2 535.75 894.25 525.7 880 525.7"/>
    <path stroke="none" fill="#383838" d="M880 525.7 Q894.25 525.7 904.2 535.75 914.3 545.85 914.3 560 914.3 574.25 904.2 584.2 894.25 594.3 880 594.3 865.75 594.3 855.75 584.2 845.7 574.25 845.7 560 845.7 545.85 855.75 535.75 865.75 525.7 880 525.7"/>
    <path stroke="none" fill="url(#gradient51)" d="M818.25 588.25 Q806.55 600 790 600 773.35 600 761.65 588.25 750 576.55 750 560 750 543.45 761.65 531.7 773.35 520 790 520 806.55 520 818.25 531.7 830 543.45 830 560 830 576.55 818.25 588.25 M814.2 584.2 Q824.3 574.25 824.3 560 824.3 545.85 814.2 535.75 804.25 525.7 790 525.7 775.75 525.7 765.75 535.75 755.7 545.85 755.7 560 755.7 574.25 765.75 584.2 775.75 594.3 790 594.3 804.25 594.3 814.2 584.2"/>
    <path stroke="none" fill="#383838" d="M814.2 584.2 Q804.25 594.3 790 594.3 775.75 594.3 765.75 584.2 755.7 574.25 755.7 560 755.7 545.85 765.75 535.75 775.75 525.7 790 525.7 804.25 525.7 814.2 535.75 824.3 545.85 824.3 560 824.3 574.25 814.2 584.2"/>
    <path stroke="none" fill="#FFFFFF" fill-opacity="0.050980392156862744" d="M346.2 240.9 L346.5 241.55 346.2 242.25 341.15 247.25 341.15 247.3 340.5 247.55 340.1 247.5 Q339.5 247.25 339.5 246.6 L339.5 236.55 Q339.5 235.9 340.1 235.65 340.7 235.4 341.15 235.85 L346.2 240.9 M213.8 240.9 L218.85 235.85 Q219.3 235.4 219.9 235.65 220.5 235.9 220.5 236.55 L220.5 246.6 Q220.5 247.25 219.9 247.5 L219.5 247.55 218.85 247.3 218.85 247.25 213.8 242.25 213.5 241.55 Q213.5 241.2 213.8 240.9 M280 175.05 Q280.35 175.05 280.65 175.35 L285.7 180.4 Q286.15 180.85 285.9 181.45 285.65 182.05 285 182.05 L274.95 182.05 Q274.3 182.05 274.05 181.45 L274 181.05 Q273.95 180.7 274.25 180.4 L274.3 180.4 279.3 175.35 Q279.6 175.05 280 175.05 M285.9 301.65 Q286.15 302.25 285.7 302.7 L280.65 307.75 280 308.05 Q279.6 308.05 279.3 307.75 L274.3 302.7 274.25 302.7 Q273.95 302.4 274 302.05 L274.05 301.65 Q274.3 301.05 274.95 301.05 L285 301.05 Q285.65 301.05 285.9 301.65"/>
    <path stroke="none" fill="url(#gradient52)" d="M390 560 Q390 543.45 401.65 531.7 413.35 520 430 520 446.55 520 458.25 531.7 470 543.45 470 560 470 576.55 458.25 588.25 446.55 600 430 600 413.35 600 401.65 588.25 390 576.55 390 560 M430 525.7 Q415.75 525.7 405.75 535.75 395.7 545.85 395.7 560 395.7 574.25 405.75 584.2 415.75 594.3 430 594.3 444.25 594.3 454.2 584.2 464.3 574.25 464.3 560 464.3 545.85 454.2 535.75 444.25 525.7 430 525.7"/>
    <path stroke="none" fill="#383838" d="M430 525.7 Q444.25 525.7 454.2 535.75 464.3 545.85 464.3 560 464.3 574.25 454.2 584.2 444.25 594.3 430 594.3 415.75 594.3 405.75 584.2 395.7 574.25 395.7 560 395.7 545.85 405.75 535.75 415.75 525.7 430 525.7"/>
    <path stroke="none" fill="#FFFFFF" d="M886.5 364.65 Q887.2 363.9 888.45 364.05 889.5 364.2 890.25 365 L890.7 365.45 Q891.2 366.1 891.2 366.9 L891.3 366.9 Q891.35 367.85 890.9 368.55 L895.1 372.75 Q896.35 374 895.1 375.2 L894.15 376.15 893.75 376.4 Q893.55 376.4 893.35 376.2 L892.7 375.55 890.45 377.8 891.1 378.45 891.2 378.85 891.05 379.25 890.15 380.2 Q888.9 381.45 887.65 380.2 L883.45 376 879.4 380.1 Q880.6 382.1 881.05 384.4 L881 384.5 Q881.75 388.75 879.05 391.25 876.45 394 872.2 393.35 868.8 392.75 866.05 390.2 L865.6 389.8 Q862.7 386.95 862.15 383.35 L862.15 383.3 Q861.9 381.9 862.1 380.75 862.2 378.15 864.1 376.4 865.9 374.5 868.5 374.25 L870.95 374.35 871.1 374.35 Q873.25 374.75 875.2 376 L886.5 364.65 M790.05 362.45 L796.8 370.9 807 374.65 801 383.7 800.45 394.45 790.05 391.6 779.5 394.45 779 383.7 773 374.65 783.2 370.9 790.05 362.45 M682.3 378.65 Q683.15 376.25 686 376 L691.1 376 691.1 364 Q691.1 363.25 691.65 362.65 692.15 362 693.05 362 L705.95 362 Q706.75 362 707.35 362.6 707.95 363.2 707.95 364 L708 376 713 376 Q715.7 376.15 716.75 378.55 L716.8 378.85 Q717.55 381.05 715.9 382.65 L715.95 382.65 702.15 396.8 702 397 Q700.85 398 699.5 398 698 398 696.9 396.8 L696.9 396.85 683.2 382.75 683 382.6 682.95 382.55 Q681.9 381.35 682 380.05 L682 380 Q682 379.3 682.3 378.6 L682.3 378.65 M868.25 380.5 Q867.75 381.2 867.9 382.3 868.25 384.1 869.75 385.65 L870.2 386.05 Q871.5 387.25 873.15 387.5 L873.25 387.55 Q874.25 387.7 874.9 387.1 875.4 386.5 875.25 385.55 L875.25 385.35 Q874.95 383.8 873.8 382.4 L873.45 382.05 873.3 381.9 Q871.8 380.5 870.05 380.15 869 379.95 868.25 380.5 M890.4 568.55 Q889.85 567.95 889 567.95 888.15 567.95 887.55 568.55 887 569.15 887 569.95 887 570.8 887.55 571.35 888.15 571.95 889 571.95 889.85 571.95 890.4 571.35 891 570.8 891 569.95 891 569.15 890.4 568.55 M882.4 568.55 Q881.85 567.95 881 567.95 880.15 567.95 879.55 568.55 879 569.15 879 569.95 879 570.8 879.55 571.35 880.15 571.95 881 571.95 881.85 571.95 882.4 571.35 883 570.8 883 569.95 883 569.15 882.4 568.55 M890.4 560.55 Q889.85 559.95 889 559.95 888.15 559.95 887.55 560.55 887 561.15 887 561.95 887 562.8 887.55 563.35 888.15 563.95 889 563.95 889.85 563.95 890.4 563.35 891 562.8 891 561.95 891 561.15 890.4 560.55 M873 567.95 Q872.15 567.95 871.55 568.55 871 569.15 871 569.95 871 570.8 871.55 571.35 872.15 571.95 873 571.95 873.85 571.95 874.4 571.35 875 570.8 875 569.95 875 569.15 874.4 568.55 873.85 567.95 873 567.95 M874.4 560.55 Q873.85 559.95 873 559.95 872.15 559.95 871.55 560.55 871 561.15 871 561.95 871 562.8 871.55 563.35 872.15 563.95 873 563.95 873.85 563.95 874.4 563.35 875 562.8 875 561.95 875 561.15 874.4 560.55 M879.55 560.55 Q879 561.15 879 561.95 879 562.8 879.55 563.35 880.15 563.95 881 563.95 881.85 563.95 882.4 563.35 883 562.8 883 561.95 883 561.15 882.4 560.55 881.85 559.95 881 559.95 880.15 559.95 879.55 560.55 M871 553.95 Q871 554.8 871.55 555.35 872.15 555.95 873 555.95 873.85 555.95 874.4 555.35 875 554.8 875 553.95 875 553.15 874.4 552.55 873.85 551.95 873 551.95 872.15 551.95 871.55 552.55 871 553.15 871 553.95 M889 551.95 Q888.15 551.95 887.55 552.55 887 553.15 887 553.95 887 554.8 887.55 555.35 888.15 555.95 889 555.95 889.85 555.95 890.4 555.35 891 554.8 891 553.95 891 553.15 890.4 552.55 889.85 551.95 889 551.95 M882.4 555.35 Q883 554.8 883 553.95 883 553.15 882.4 552.55 881.85 551.95 881 551.95 880.15 551.95 879.55 552.55 879 553.15 879 553.95 879 554.8 879.55 555.35 880.15 555.95 881 555.95 881.85 555.95 882.4 555.35 M811.55 559 L811.95 559.8 811.95 560 811.95 560.2 811.55 561 810.85 561.45 793.55 566.1 799.45 573.15 799.75 573.95 799.5 574.85 798.85 575.35 797.95 575.4 778.3 569.7 778.2 569.65 Q769.8 566.25 769.85 560 769.8 553.75 778.2 550.35 L778.3 550.3 797.95 544.6 798.85 544.65 799.5 545.15 Q799.8 545.55 799.75 546.05 L799.45 546.85 793.55 553.9 810.85 558.55 811.55 559 M869.3 545 L892.7 545 Q895.35 545 896.4 546.75 897.5 548.15 897.2 550.95 L894.65 574.2 Q894.2 578.3 890.15 578.3 L871.9 578.3 Q867.8 578.3 867.35 574.2 L864.8 550.95 Q864.55 548.15 865.6 546.75 866.65 545 869.3 545 M708.55 553.45 Q705.4 550.35 701 550.35 696.55 550.35 693.45 553.45 690.3 556.6 690.3 561 690.3 565.45 693.45 568.55 696.55 571.7 701 571.7 705.4 571.7 708.5 568.55 L708.55 568.55 Q711.65 565.45 711.65 561 711.65 556.6 708.55 553.45 M713 549 Q718 554 718 561 718 568.05 713 573.05 708 578 701 578 693.95 578 688.95 573.05 684 568.05 684 561 684 554 688.9 549 L688.95 549 688.95 548.95 Q693.95 544 701 544 708 544 713 549 M705.25 556.75 Q707 558.5 707 561 707 563.5 705.25 565.25 703.45 567.05 701 567.05 698.45 567.05 696.7 565.25 694.95 563.5 694.95 561 694.95 558.5 696.7 556.75 698.45 555 701 555 703.45 555 705.25 556.75 M347.5 358.8 L347.5 358.95 347.5 359.95 347.35 361.1 354.65 368.25 Q355.8 369.3 355.95 370.8 L356 371.45 Q356 373.4 354.65 374.7 353.4 376 351.35 376 349.5 376 348.1 374.7 L343.45 370.05 343.5 369.95 340.75 367.3 Q339.7 367.6 338.65 367.3 336.1 366.9 334.3 365.15 331.75 362.45 332.05 359.15 332.1 358.1 332.5 357 L336.95 361.5 Q338.25 362.8 339.45 361.5 L341.35 359.55 Q342.25 358.65 341.8 357.65 L341.35 357 336.8 352.65 337.75 352.25 341.2 352.15 Q343.45 352.55 345.15 354.3 347.15 356.15 347.5 358.8 M94 352 L100 352 Q102 352 102 354 L102 374 Q102 376 100 376 L94 376 Q92 376 92 374 L92 354 Q92 352 94 352 M114 352 Q116 352 116 354 L116 374 Q116 376 114 376 L108 376 Q106 376 106 374 L106 354 Q106 352 108 352 L114 352 M594.15 377.35 L594.1 377.35 607.9 363.2 608.05 363 Q609.2 362 610.55 362 612.05 362 613.15 363.2 L613.15 363.15 626.85 377.25 627.05 377.4 627.1 377.45 Q628.15 378.65 628.05 379.95 L628.05 380 627.75 381.4 627.75 381.35 Q626.9 383.75 624.05 384 L618.95 384 618.95 396 Q618.95 396.75 618.4 397.35 617.9 398 617 398 L604.1 398 Q603.3 398 602.7 397.4 602.1 396.8 602.1 396 L602.05 384 597.05 384 Q594.35 383.85 593.3 381.45 L593.25 381.15 Q592.5 378.95 594.15 377.35 M522.65 364.15 L522.65 364.1 536.8 377.9 537 378.05 Q538 379.2 538 380.55 538 382.05 536.8 383.15 L536.85 383.15 522.75 396.85 522.6 397.05 522.55 397.1 Q521.35 398.15 520.05 398.05 L520 398.05 518.6 397.75 518.65 397.75 Q516.25 396.9 516 394.05 L516 388.95 504 388.95 Q503.25 388.95 502.65 388.4 502 387.9 502 387 L502 374.1 Q502 373.3 502.6 372.7 503.2 372.1 504 372.1 L516 372.05 516 367.05 Q516.15 364.35 518.55 363.3 L518.85 363.25 Q521.05 362.5 522.65 364.15 M427.25 364.2 L427.4 364 427.45 363.95 Q428.65 362.9 429.95 363 L430 363 431.4 363.3 431.35 363.3 Q433.75 364.15 434 367 L434 372.1 446 372.1 Q446.75 372.1 447.35 372.65 448 373.15 448 374.05 L448 386.95 Q448 387.75 447.4 388.35 446.8 388.95 446 388.95 L434 389 434 394 Q433.85 396.7 431.45 397.75 L431.15 397.8 Q428.95 398.55 427.35 396.9 L427.35 396.95 413.2 383.15 413 383 Q412 381.85 412 380.5 412 379 413.2 377.9 L413.15 377.9 427.25 364.2 M353.85 370.95 L353.2 369.95 Q351.5 368.5 349.8 369.95 349.35 370.4 349.25 370.95 L349.15 371.6 Q349.15 372.55 349.8 373.3 350.55 373.95 351.5 373.95 352.5 373.95 353.2 373.3 353.95 372.55 353.95 371.6 L353.85 370.95 M158.25 352.15 Q159.4 351.7 160.3 352.55 L170.2 362.2 170.25 362.2 Q170.8 362.8 170.8 363.5 170.8 364.3 170.2 364.85 L160.3 374.45 160.25 374.5 Q159.65 375.05 158.95 375 L158.25 374.85 Q157 374.4 157 373.15 L157 353.9 Q157 352.65 158.2 352.15 L158.25 352.15 M270.2 365.9 Q270.3 363.8 271.8 362.4 273.25 360.9 275.3 360.7 L277.25 360.8 277.4 360.8 Q279.1 361.1 280.65 362.1 L289.65 353.05 Q290.2 352.45 291.2 352.6 292.05 352.7 292.65 353.35 L293 353.7 Q293.4 354.2 293.4 354.85 L293.45 354.85 Q293.5 355.6 293.15 356.15 L296.5 359.5 Q297.5 360.5 296.5 361.45 L295.75 362.2 295.4 362.4 295.1 362.25 294.6 361.75 292.8 363.55 293.3 364.05 293.4 364.35 293.25 364.7 292.55 365.45 Q291.55 366.45 290.55 365.45 L287.2 362.1 284 365.35 Q284.95 366.95 285.3 368.8 L285.25 368.85 Q285.85 372.25 283.7 374.25 281.65 376.45 278.25 375.9 275.55 375.45 273.35 373.4 L273 373.1 Q270.7 370.8 270.25 367.95 L270.25 367.9 Q270.05 366.8 270.2 365.9 M224.05 352 L228.8 358.05 236 360.75 231.8 367.25 231.4 375 224.05 372.95 216.6 375 216.25 367.25 212 360.75 219.2 358.05 224.05 352 M276.65 370.1 Q277.7 371.05 279 371.25 L279.1 371.3 Q279.9 371.4 280.4 370.95 280.8 370.45 280.7 369.7 L280.7 369.55 Q280.45 368.3 279.55 367.2 L279.25 366.9 279.15 366.8 Q277.95 365.7 276.55 365.4 275.7 365.25 275.1 365.7 274.7 366.25 274.85 367.1 275.1 368.55 276.3 369.8 L276.65 370.1 M284.85 415.25 L285.5 415.35 296.55 424.5 296.75 425 296.55 425.45 296.5 425.45 285.35 433.9 Q285.05 434.1 284.65 433.9 284.3 433.7 284.35 433.3 L284.85 429.05 Q276.4 429.25 271.15 432.45 273 422.6 284.95 420.15 L284.5 415.85 Q284.5 415.5 284.85 415.25 M278 474 L278 481 290 481 290 474 278 474 M276 485 L276 494 292 494 292 485 276 485 M286 475 L289 475 289 480 286 480 286 475 M295.95 476.1 L295.95 495.95 273 495.95 273 471.95 291.85 471.95 295.95 476.1 M162.55 419.75 L162.55 431 Q162.55 433.05 161.05 434.4 L161 434.5 Q159.75 435.75 158.1 435.95 L158.05 435.95 Q156.2 436.1 155.05 434.9 153.85 433.75 154.05 431.9 154.2 430.15 155.45 428.85 L155.5 428.8 Q156.65 427.65 158.05 427.4 L158.1 427.4 159.35 427.35 159.35 416.05 Q159.35 414 161.4 414 L170.95 414 Q173.05 414 173.05 416.05 L173.05 426.9 173.05 427 Q172.85 428.95 171.65 430.2 L171.6 430.2 Q170.3 431.6 168.6 431.75 L168.55 431.75 Q166.75 431.9 165.55 430.65 164.4 429.5 164.55 427.6 164.75 425.9 166 424.6 167.15 423.4 168.6 423.2 L168.55 423.2 169.8 423.1 169.8 419.75 162.55 419.75 M34.05 478.9 L31.95 480.95 31.95 473 39.95 473 37.85 475.1 40.2 477.4 36.4 481.2 34.05 478.9 M46.35 413 L47.75 413 47.75 421.95 48.05 422.2 Q49 423.15 49 424.5 49 425.8 48.05 426.7 L47.75 427.05 47.75 436 46.35 436 36.8 427.2 Q36.1 427.7 35.15 427.7 33.85 427.7 32.9 426.7 32 425.8 32 424.5 32 423.15 32.9 422.2 33.85 421.3 35.15 421.3 36.1 421.3 36.85 421.75 L46.35 413 M51.2 418 Q52.6 418.45 53.85 419.7 56.05 421.85 56.05 425 56.05 428.1 53.85 430.25 52.6 431.45 51.2 432 L50.05 428.85 Q50.9 428.65 51.55 428 52.8 426.7 52.8 425 52.8 423.25 51.55 422 50.9 421.3 50.05 421.15 L51.2 418 M100.9 483.6 Q100.85 484.5 101.2 485.35 101.55 486.25 102.3 486.75 103 487.3 103.95 487.4 L105.65 487.1 Q106.5 486.75 107.05 486 L107.7 484.35 Q107.8 483.45 107.4 482.6 107.05 481.75 106.3 481.25 105.6 480.7 104.7 480.6 L102.95 480.85 Q101.15 481.65 100.9 483.6 M95.75 475.6 Q97.85 476.3 99.6 477.5 100.15 477.05 101.1 476.65 101.8 476.3 102.75 476.1 103.15 474 104.3 472 L107.25 472.4 Q107.7 474.5 107.55 476.65 L109.05 477.5 110.35 478.7 Q112.35 478 114.65 478 L115.8 480.75 Q114.2 482.25 112.25 483.1 L112.25 484.85 111.9 486.6 Q113.55 488 114.65 490 L112.85 492.35 Q110.7 491.65 109.05 490.45 L107.55 491.35 105.85 491.85 Q105.45 494.05 104.3 496 L101.35 495.6 Q100.9 493.5 101.1 491.35 L99.6 490.45 98.3 489.3 Q96.2 490 93.95 490 L92.8 487.25 Q94.4 485.75 96.35 484.85 L96.35 483.1 96.7 481.4 Q95.05 480 93.95 478 L95.75 475.6 M106.35 413 L107.75 413 107.75 421.95 108.05 422.2 Q109 423.15 109 424.5 109 425.8 108.05 426.7 L107.75 427.05 107.75 436 106.35 436 96.8 427.2 Q96.1 427.7 95.15 427.7 93.85 427.7 92.9 426.7 92 425.8 92 424.5 92 423.15 92.9 422.2 93.85 421.3 95.15 421.3 96.1 421.3 96.85 421.75 L106.35 413 M212 493 L212 491 Q212 489 214 489 L234 489 Q236 489 236 491 L236 493 Q236 495 234 495 L214 495 Q212 495 212 493 M214 479 Q212 479 212 477 L212 475 Q212 473 214 473 L234 473 Q236 473 236 475 L236 477 Q236 479 234 479 L214 479 M212 483 Q212 481 214 481 L234 481 Q236 481 236 483 L236 485 Q236 487 234 487 L214 487 Q212 487 212 485 L212 483 M165.1 480.95 Q165.1 479.2 163.85 477.9 162.6 476.65 160.85 476.65 159.1 476.65 157.9 477.9 L157.85 477.95 Q156.6 479.2 156.6 480.95 156.6 482.7 157.85 483.95 159.1 485.25 160.85 485.25 162.6 485.25 163.85 484 L163.85 483.95 Q165.1 482.7 165.1 480.95 M166.7 475.05 Q169.15 477.5 169.15 480.95 169.15 482.85 168.4 484.4 L174.8 490.9 Q175.65 491.7 175.6 492.85 175.6 493.95 174.8 494.8 174 495.6 172.9 495.6 171.75 495.6 170.95 494.8 L164.65 488.4 Q162.95 489.3 160.85 489.3 157.45 489.3 155 486.85 152.6 484.4 152.6 480.95 152.6 477.5 155 475.05 L155.05 475.05 Q157.45 472.6 160.85 472.6 164.3 472.6 166.7 475.05 M34.05 490.1 L36.4 487.75 40.2 491.55 37.85 493.9 39.95 496 31.95 496 31.95 488 34.05 490.1 M54.95 481 L52.9 478.9 50.55 481.2 46.75 477.4 49.1 475.1 47 473 54.95 473 54.95 481 M46.75 491.55 L50.55 487.75 52.9 490.1 54.95 488 54.95 496 47 496 49.1 493.9 46.75 491.55 M518.25 559.55 L529.25 546.5 Q529.65 546 530.3 545.9 530.95 545.85 531.45 546.3 L538 551.9 Q538.5 552.3 538.55 552.95 L538.2 554.15 519.5 576.55 518.75 577.05 517.85 577.05 517.05 576.55 503.8 560.65 Q503.35 560.15 503.4 559.5 503.45 558.8 503.95 558.4 L510.45 552.8 Q511 552.35 511.65 552.4 512.3 552.45 512.75 552.95 L518.25 559.55 M334.85 472.85 Q336.55 471.2 338.2 472.85 L344.2 478.85 349.85 473.25 Q351.55 471.55 353.2 473.25 L354.95 474.9 Q356.65 476.65 354.95 478.3 L349.3 483.9 355.2 489.75 Q356.85 491.45 355.2 493.1 L353.5 494.8 Q351.75 496.5 350.1 494.85 L344.2 489 337.95 495.2 Q336.3 496.85 334.6 495.15 L332.85 493.45 Q331.2 491.8 332.85 490.15 L339.1 483.9 333.1 477.95 Q331.45 476.3 333.15 474.55 L334.85 472.85 M356 418 L342.55 434 333 422.65 337.7 418.65 342.55 424.35 351.3 414 356 418 M599.35 546.8 Q601.5 544.7 603.6 546.8 L611.25 554.45 618.45 547.3 Q620.6 545.1 622.75 547.3 L624.95 549.4 Q627.15 551.65 624.95 553.75 L617.75 560.85 625.3 568.35 Q627.4 570.5 625.3 572.6 L623.1 574.75 618.8 574.85 611.25 567.35 603.3 575.3 599 575.2 596.8 573.05 Q594.7 570.95 596.8 568.85 L604.75 560.85 597.1 553.3 Q595 551.2 597.15 548.95 L599.35 546.8 M431.45 543.2 Q432 542.8 432.35 543 L450.45 551.25 450.95 551.8 450.8 552.5 450.75 552.5 438.85 567.5 Q438.5 567.9 437.95 567.75 437.3 567.65 437.3 567.1 L436.45 561.45 Q430.3 563.85 426.65 569.2 424 572.8 423.2 577.25 L422.8 577.8 422.15 577.9 411.75 575.55 Q410.85 575.4 411.05 574.6 412.45 567.95 416.4 562.3 422.8 553.15 433.35 549.6 L431.2 544.15 Q431.1 543.65 431.45 543.2"/>
    <path stroke="none" fill="#FFFFFF" fill-opacity="0.30196078431372547" d="M233.05 416.05 L233.05 426.9 233.05 427 Q232.85 428.95 231.65 430.2 L231.6 430.2 Q230.3 431.6 228.6 431.75 L228.55 431.75 Q226.75 431.9 225.55 430.65 224.4 429.5 224.55 427.6 224.75 425.9 226 424.6 227.15 423.4 228.6 423.2 L228.55 423.2 229.8 423.1 229.8 419.75 222.55 419.75 222.55 431 Q222.55 433.05 221.05 434.4 L221 434.5 Q219.75 435.75 218.1 435.95 L218.05 435.95 Q216.2 436.1 215.05 434.9 213.85 433.75 214.05 431.9 214.2 430.15 215.45 428.85 L215.5 428.8 Q216.65 427.65 218.05 427.4 L218.1 427.4 219.35 427.35 219.35 416.05 Q219.35 414 221.4 414 L230.95 414 Q233.05 414 233.05 416.05"/>
  </g>
</svg>