<svg xmlns="http://www.w3.org/2000/svg" xmlns:xlink="http://www.w3.org/1999/xlink">
  <defs/>
  <g>
    <path stroke="none" fill="#999999" d="M461 175 Q461.35 175 461.65 175.3 L466.7 180.35 Q467.15 180.8 466.9 181.4 466.65 182 466 182 L455.95 182 Q455.3 182 455.05 181.4 L455 181 Q454.95 180.65 455.25 180.35 L455.3 180.35 460.3 175.3 Q460.6 175 461 175 M395 241 Q395 240.65 395.3 240.35 L400.35 235.3 Q400.8 234.85 401.4 235.1 402 235.35 402 236 L402 246.05 Q402 246.7 401.4 246.95 L401 247 Q400.65 247.05 400.35 246.75 L400.35 246.7 395.3 241.7 Q395 241.4 395 241 M466.7 299.65 L461.65 304.7 461 305 460.3 304.7 455.3 299.65 455.25 299.65 Q454.95 299.35 455 299 L455.05 298.6 Q455.3 298 455.95 298 L466 298 Q466.65 298 466.9 298.6 467.15 299.2 466.7 299.65 M525 241 L524.7 241.7 519.65 246.7 519.65 246.75 519 247 518.6 246.95 Q518 246.7 518 246.05 L518 236 Q518 235.35 518.6 235.1 519.2 234.85 519.65 235.3 L524.7 240.35 525 241"/>
    <path stroke="none" fill="#D4D4D4" d="M464 239.5 L464 240 Q464 241.6 462.85 242.8 461.65 244 460 244 458.4 244 457.2 242.8 456 241.6 456 240 L456.05 239.5 Q456.2 238.15 457.2 237.15 458.4 236 460 236 461.65 236 462.85 237.15 463.8 238.15 464 239.5"/>
    <path stroke="none" fill="#D4D4D4" d="M100 175.05 Q100.35 175.05 100.65 175.35 L105.7 180.4 Q106.15 180.85 105.9 181.45 105.65 182.05 105 182.05 L94.95 182.05 Q94.3 182.05 94.05 181.45 L94 181.05 Q93.95 180.7 94.25 180.4 L94.3 180.4 99.3 175.35 Q99.6 175.05 100 175.05 M159.5 236.55 Q159.5 235.9 160.1 235.65 160.7 235.4 161.15 235.85 L166.2 240.9 166.5 241.55 166.2 242.25 161.15 247.25 161.15 247.3 160.5 247.55 160.1 247.5 Q159.5 247.25 159.5 246.6 L159.5 236.55 M40.5 236.55 L40.5 246.6 Q40.5 247.25 39.9 247.5 L39.5 247.55 Q39.15 247.6 38.85 247.3 L38.85 247.25 33.8 242.25 Q33.5 241.95 33.5 241.55 33.5 241.2 33.8 240.9 L38.85 235.85 Q39.3 235.4 39.9 235.65 40.5 235.9 40.5 236.55 M105.9 301.65 Q106.15 302.25 105.7 302.7 L100.65 307.75 100 308.05 99.3 307.75 94.3 302.7 94.25 302.7 Q93.95 302.4 94 302.05 L94.05 301.65 Q94.3 301.05 94.95 301.05 L105 301.05 Q105.65 301.05 105.9 301.65"/>
    <path stroke="none" fill="#D4D4D4" d="M346.2 240.9 L346.5 241.55 346.2 242.25 341.15 247.25 341.15 247.3 340.5 247.55 340.1 247.5 Q339.5 247.25 339.5 246.6 L339.5 236.55 Q339.5 235.9 340.1 235.65 340.7 235.4 341.15 235.85 L346.2 240.9 M213.8 240.9 L218.85 235.85 Q219.3 235.4 219.9 235.65 220.5 235.9 220.5 236.55 L220.5 246.6 Q220.5 247.25 219.9 247.5 L219.5 247.55 218.85 247.3 218.85 247.25 213.8 242.25 213.5 241.55 Q213.5 241.2 213.8 240.9 M280 175.05 Q280.35 175.05 280.65 175.35 L285.7 180.4 Q286.15 180.85 285.9 181.45 285.65 182.05 285 182.05 L274.95 182.05 Q274.3 182.05 274.05 181.45 L274 181.05 Q273.95 180.7 274.25 180.4 L274.3 180.4 279.3 175.35 Q279.6 175.05 280 175.05 M285.9 301.65 Q286.15 302.25 285.7 302.7 L280.65 307.75 280 308.05 Q279.6 308.05 279.3 307.75 L274.3 302.7 274.25 302.7 Q273.95 302.4 274 302.05 L274.05 301.65 Q274.3 301.05 274.95 301.05 L285 301.05 Q285.65 301.05 285.9 301.65"/>
    <path stroke="none" fill="#D4D4D4" d="M901.95 53 L901.95 89.25 Q901.8 94 896.95 94 L863 94 863 128.2 Q862.85 132.95 858 132.95 L822 132.95 Q817.15 132.95 817 128.2 L817 94 782 94 Q777.15 94 777 89.25 L777 53 Q777 48 782 48 L817 48 817 13 Q817 8 822 8 L858 8 Q863 8 863 13 L863 48 896.95 48 Q901.95 48 901.95 53"/>
    <path stroke="none" fill="#999999" d="M846.9 31.4 Q846.65 32 846 32 L835.95 32 Q835.3 32 835.05 31.4 L835 31 Q834.95 30.65 835.25 30.35 L835.3 30.35 840.3 25.3 Q840.6 25 841 25 841.35 25 841.65 25.3 L846.7 30.35 Q847.15 30.8 846.9 31.4 M878.6 65.1 Q879.2 64.85 879.65 65.3 L884.7 70.35 885 71 884.7 71.7 879.65 76.7 879.65 76.75 Q879.35 77.05 879 77 L878.6 76.95 Q878 76.7 878 76.05 L878 66 Q878 65.35 878.6 65.1 M846.7 109.65 L841.65 114.7 841 115 Q840.6 115 840.3 114.7 L835.3 109.65 835.25 109.65 Q834.95 109.35 835 109 L835.05 108.6 Q835.3 108 835.95 108 L846 108 Q846.65 108 846.9 108.6 847.15 109.2 846.7 109.65 M800.35 65.3 Q800.8 64.85 801.4 65.1 802 65.35 802 66 L802 76.05 Q802 76.7 801.4 76.95 L801 77 Q800.65 77.05 800.35 76.75 L800.35 76.7 795.3 71.7 Q795 71.4 795 71 795 70.65 795.3 70.35 L800.35 65.3"/>
    <path stroke="none" fill="#FFFFFF" d="M837.2 67.15 Q838.4 66 840 66 841.65 66 842.85 67.15 843.8 68.15 844 69.5 L844 70 Q844 71.6 842.85 72.8 841.65 74 840 74 838.4 74 837.2 72.8 836 71.6 836 70 L836.05 69.5 Q836.2 68.15 837.2 67.15"/>
    <path stroke="none" fill="#D4D4D4" d="M327.95 27.2 L327.95 113.1 Q327.8 118 322.75 118 L237.1 118 Q232.1 118 231.95 113.1 L231.95 27.2 Q231.95 22 237.1 22 L322.75 22 Q327.95 22 327.95 27.2"/>
    <path stroke="none" fill="#999999" d="M284 39 Q284 40.6 282.8 41.8 281.6 43 280 43 278.35 43 277.15 41.8 276 40.6 276 39 L276.05 38.5 Q276.2 37.15 277.15 36.15 278.35 35 280 35 281.6 35 282.8 36.15 283.8 37.15 284 38.5 L284 39 M251.85 67.15 Q252.8 68.15 253 69.5 L253 70 Q253 71.6 251.85 72.8 250.65 74 249 74 247.4 74 246.2 72.8 245 71.6 245 70 L245.05 69.5 Q245.2 68.15 246.2 67.15 247.4 66 249 66 250.65 66 251.85 67.15 M280 97 Q281.6 97 282.8 98.15 283.8 99.15 284 100.5 L284 101 Q284 102.6 282.8 103.8 281.6 105 280 105 278.35 105 277.15 103.8 276 102.6 276 101 L276.05 100.5 Q276.2 99.15 277.15 98.15 278.35 97 280 97 M308.2 67.15 Q309.4 66 311 66 312.65 66 313.85 67.15 314.8 68.15 315 69.5 L315 70 Q315 71.6 313.85 72.8 312.65 74 311 74 309.4 74 308.2 72.8 307 71.6 307 70 L307.05 69.5 Q307.2 68.15 308.2 67.15"/>
    <path stroke="none" fill="#D4D4D4" d="M143.25 72.6 L143.2 72 143.2 72.65 143.2 73 143.25 72.6 M148.1 71.85 Q147.45 90.6 134 104.05 119.9 118.15 100.1 118.15 80.1 118.15 66.1 104.05 52.7 90.55 52.15 71.85 L52.1 71.15 52.1 70.15 Q52.1 50.35 66.1 36.15 80.1 22.15 100.1 22.15 119.9 22.15 133.95 36.15 148.05 50.3 148.1 70.15 L148.1 71.15 148.1 71.85"/>
    <path stroke="none" fill="#999999" d="M100 35 Q101.6 35 102.8 36.15 103.8 37.15 104 38.5 L104 39 Q104 40.6 102.8 41.8 101.6 43 100 43 98.35 43 97.15 41.8 96 40.6 96 39 L96.05 38.5 Q96.2 37.15 97.15 36.15 98.35 35 100 35 M102.8 98.15 Q103.8 99.15 104 100.5 L104 101 Q104 102.6 102.8 103.8 101.6 105 100 105 98.35 105 97.15 103.8 96 102.6 96 101 L96.05 100.5 Q96.2 99.15 97.15 98.15 98.35 97 100 97 101.6 97 102.8 98.15 M128.2 67.15 Q129.4 66 131 66 132.65 66 133.85 67.15 134.8 68.15 135 69.5 L135 70 Q135 71.6 133.85 72.8 132.65 74 131 74 129.4 74 128.2 72.8 127 71.6 127 70 L127.05 69.5 Q127.2 68.15 128.2 67.15 M66.2 67.15 Q67.4 66 69 66 70.65 66 71.85 67.15 72.8 68.15 73 69.5 L73 70 Q73 71.6 71.85 72.8 70.65 74 69 74 67.4 74 66.2 72.8 65 71.6 65 70 L65.05 69.5 Q65.2 68.15 66.2 67.15"/>
  </g>
</svg>