<svg xmlns="http://www.w3.org/2000/svg" xmlns:xlink="http://www.w3.org/1999/xlink">
  <defs/>
  <g>
    <path stroke="none" fill="#666666" d="M461 175 Q461.35 175 461.65 175.3 L466.7 180.35 Q467.15 180.8 466.9 181.4 466.65 182 466 182 L455.95 182 Q455.3 182 455.05 181.4 L455 181 Q454.95 180.65 455.25 180.35 L455.3 180.35 460.3 175.3 Q460.6 175 461 175 M395 241 Q395 240.65 395.3 240.35 L400.35 235.3 Q400.8 234.85 401.4 235.1 402 235.35 402 236 L402 246.05 Q402 246.7 401.4 246.95 L401 247 Q400.65 247.05 400.35 246.75 L400.35 246.7 395.3 241.7 Q395 241.4 395 241 M466.7 299.65 L461.65 304.7 461 305 460.3 304.7 455.3 299.65 455.25 299.65 Q454.95 299.35 455 299 L455.05 298.6 Q455.3 298 455.95 298 L466 298 Q466.65 298 466.9 298.6 467.15 299.2 466.7 299.65 M525 241 L524.7 241.7 519.65 246.7 519.65 246.75 519 247 518.6 246.95 Q518 246.7 518 246.05 L518 236 Q518 235.35 518.6 235.1 519.2 234.85 519.65 235.3 L524.7 240.35 525 241"/>
    <path stroke="none" fill="#666666" fill-opacity="0.30196078431372547" d="M464 239.5 L464 240 Q464 241.6 462.85 242.8 461.65 244 460 244 458.4 244 457.2 242.8 456 241.6 456 240 L456.05 239.5 Q456.2 238.15 457.2 237.15 458.4 236 460 236 461.65 236 462.85 237.15 463.8 238.15 464 239.5"/>
    <path stroke="none" fill="#666666" d="M846.9 31.4 Q846.65 32 846 32 L835.95 32 Q835.3 32 835.05 31.4 L835 31 Q834.95 30.65 835.25 30.35 L835.3 30.35 840.3 25.3 Q840.6 25 841 25 841.35 25 841.65 25.3 L846.7 30.35 Q847.15 30.8 846.9 31.4 M878.6 65.1 Q879.2 64.85 879.65 65.3 L884.7 70.35 885 71 884.7 71.7 879.65 76.7 879.65 76.75 Q879.35 77.05 879 77 L878.6 76.95 Q878 76.7 878 76.05 L878 66 Q878 65.35 878.6 65.1 M846.9 108.6 Q847.15 109.2 846.7 109.65 L841.65 114.7 841 115 Q840.6 115 840.3 114.7 L835.3 109.65 835.25 109.65 Q834.95 109.35 835 109 L835.05 108.6 Q835.3 108 835.95 108 L846 108 Q846.65 108 846.9 108.6 M800.35 65.3 Q800.8 64.85 801.4 65.1 802 65.35 802 66 L802 76.05 Q802 76.7 801.4 76.95 L801 77 Q800.65 77.05 800.35 76.75 L800.35 76.7 795.3 71.7 Q795 71.4 795 71 795 70.65 795.3 70.35 L800.35 65.3"/>
    <path stroke="none" fill="#666666" fill-opacity="0.30196078431372547" d="M837.2 67.15 Q838.4 66 840 66 841.65 66 842.85 67.15 843.8 68.15 844 69.5 L844 70 Q844 71.6 842.85 72.8 841.65 74 840 74 838.4 74 837.2 72.8 836 71.6 836 70 L836.05 69.5 Q836.2 68.15 837.2 67.15"/>
    <path stroke="none" fill="#666666" d="M284 39 Q284 40.6 282.8 41.8 281.6 43 280 43 278.35 43 277.15 41.8 276 40.6 276 39 L276.05 38.5 Q276.2 37.15 277.15 36.15 278.35 35 280 35 281.6 35 282.8 36.15 283.8 37.15 284 38.5 L284 39 M251.85 67.15 Q252.8 68.15 253 69.5 L253 70 Q253 71.6 251.85 72.8 250.65 74 249 74 247.4 74 246.2 72.8 245 71.6 245 70 L245.05 69.5 Q245.2 68.15 246.2 67.15 247.4 66 249 66 250.65 66 251.85 67.15 M280 97 Q281.6 97 282.8 98.15 283.8 99.15 284 100.5 L284 101 Q284 102.6 282.8 103.8 281.6 105 280 105 278.35 105 277.15 103.8 276 102.6 276 101 L276.05 100.5 Q276.2 99.15 277.15 98.15 278.35 97 280 97 M308.2 67.15 Q309.4 66 311 66 312.65 66 313.85 67.15 314.8 68.15 315 69.5 L315 70 Q315 71.6 313.85 72.8 312.65 74 311 74 309.4 74 308.2 72.8 307 71.6 307 70 L307.05 69.5 Q307.2 68.15 308.2 67.15"/>
    <path stroke="none" fill="#666666" d="M100 35 Q101.6 35 102.8 36.15 103.8 37.15 104 38.5 L104 39 Q104 40.6 102.8 41.8 101.6 43 100 43 98.35 43 97.15 41.8 96 40.6 96 39 L96.05 38.5 Q96.2 37.15 97.15 36.15 98.35 35 100 35 M102.8 98.15 Q103.8 99.15 104 100.5 L104 101 Q104 102.6 102.8 103.8 101.6 105 100 105 98.35 105 97.15 103.8 96 102.6 96 101 L96.05 100.5 Q96.2 99.15 97.15 98.15 98.35 97 100 97 101.6 97 102.8 98.15 M128.2 67.15 Q129.4 66 131 66 132.65 66 133.85 67.15 134.8 68.15 135 69.5 L135 70 Q135 71.6 133.85 72.8 132.65 74 131 74 129.4 74 128.2 72.8 127 71.6 127 70 L127.05 69.5 Q127.2 68.15 128.2 67.15 M66.2 67.15 Q67.4 66 69 66 70.65 66 71.85 67.15 72.8 68.15 73 69.5 L73 70 Q73 71.6 71.85 72.8 70.65 74 69 74 67.4 74 66.2 72.8 65 71.6 65 70 L65.05 69.5 Q65.2 68.15 66.2 67.15"/>
  </g>
</svg>