<svg xmlns="http://www.w3.org/2000/svg" xmlns:xlink="http://www.w3.org/1999/xlink">
  <defs/>
  <g>
    <path stroke="none" fill="#383838" d="M898.95 53 Q898.95 51 896.95 51 L863 51 Q861.75 51 860.9 50.15 860 49.25 860 48 L860 13 Q860 11 858 11 L822 11 Q820 11 820 13 L820 48 Q820 49.25 819.15 50.15 818.25 51 817 51 L782 51 Q780 51 780 53 L780 89.25 Q780.15 91 782 91 L817 91 Q818.25 91 819.15 91.9 820 92.75 820 94 L820 128.2 Q820.15 129.95 822 129.95 L858 129.95 Q859.9 129.95 860 128.1 L860 94 Q860 92.75 860.9 91.9 861.75 91 863 91 L896.95 91 Q898.85 91 898.95 89.15 L898.95 53 M901.95 89.25 Q901.8 94 896.95 94 L863 94 863 128.2 Q862.85 132.95 858 132.95 L822 132.95 Q817.15 132.95 817 128.2 L817 94 782 94 Q777.15 94 777 89.25 L777 53 Q777 48 782 48 L817 48 817 13 Q817 8 822 8 L858 8 Q863 8 863 13 L863 48 896.95 48 Q901.95 48 901.95 53 L901.95 89.25 M846.9 31.4 Q846.65 32 846 32 L835.95 32 Q835.3 32 835.05 31.4 L835 31 Q834.95 30.65 835.25 30.35 L835.3 30.35 840.3 25.3 Q840.6 25 841 25 841.35 25 841.65 25.3 L846.7 30.35 Q847.15 30.8 846.9 31.4 M840 66 Q841.65 66 842.85 67.15 843.8 68.15 844 69.5 L844 70 Q844 71.6 842.85 72.8 841.65 74 840 74 838.4 74 837.2 72.8 836 71.6 836 70 L836.05 69.5 Q836.2 68.15 837.2 67.15 838.4 66 840 66 M878.6 65.1 Q879.2 64.85 879.65 65.3 L884.7 70.35 885 71 884.7 71.7 879.65 76.7 879.65 76.75 Q879.35 77.05 879 77 L878.6 76.95 Q878 76.7 878 76.05 L878 66 Q878 65.35 878.6 65.1 M846.7 109.65 L841.65 114.7 841 115 Q840.6 115 840.3 114.7 L835.3 109.65 835.25 109.65 Q834.95 109.35 835 109 L835.05 108.6 Q835.3 108 835.95 108 L846 108 Q846.65 108 846.9 108.6 847.15 109.2 846.7 109.65 M896.5 183.4 Q920 206.9 920 240 L920 240.5 920 241 920 241.25 920 242 920 242.25 Q919.2 273.9 896.5 296.5 883.95 309.1 868.6 314.95 855.35 320 840 320 824.55 320 811.25 314.95 795.85 309.1 783.3 296.5 L781.95 295.15 Q760.8 272.95 760 242.3 L760 242 760 241.75 760 241 760 240 Q760 207.85 781.95 184.8 L783.3 183.4 Q806.7 160 840 160 873.1 160 896.5 183.4 M651 95 Q651.35 95 651.65 95.3 L656.7 100.35 Q657.15 100.8 656.9 101.4 656.65 102 656 102 L645.95 102 Q645.3 102 645.05 101.4 L645 101 Q644.95 100.65 645.25 100.35 L645.3 100.35 650.3 95.3 Q650.6 95 651 95 M795.3 71.7 Q795 71.4 795 71 795 70.65 795.3 70.35 L800.35 65.3 Q800.8 64.85 801.4 65.1 802 65.35 802 66 L802 76.05 Q802 76.7 801.4 76.95 L801 77 Q800.65 77.05 800.35 76.75 L800.35 76.7 795.3 71.7 M894.4 185.55 Q871.85 163 840 163 807.95 163 785.45 185.55 L785.45 185.5 784.15 186.85 784.15 186.9 Q763 209.1 763 240 L763 241 763 241.75 763 242 763 242.3 Q763.75 271.75 784.15 293.05 L784.1 293.05 785.45 294.4 Q797.5 306.5 812.35 312.15 825.15 317 840 317 854.75 317 867.55 312.15 882.3 306.5 894.4 294.4 916.2 272.65 917 242.2 L917 242 917 241.25 917 241 917 240.5 917 240 Q917 208.15 894.4 185.55 M676 80 Q681 80 681 85 L681 125 650.5 155.5 620 125 620 85 Q620 80 625 80 L676 80 M678 85 Q678 83 676 83 L625 83 Q623 83 623 85 L623 123.75 650.5 151.25 678 123.75 678 85 M708.6 195.1 Q709.2 194.85 709.65 195.3 L714.7 200.35 715 201 714.7 201.7 709.65 206.7 709.65 206.75 709 207 708.6 206.95 Q708 206.7 708 206.05 L708 196 Q708 195.35 708.6 195.1 M726.95 175 Q726.95 173 724.95 173 L687.25 173 659.75 200.5 687.25 228 724.95 228 Q726.95 228 726.95 226 L726.95 175 M686 170 L724.95 170 Q729.95 170 729.95 175 L729.95 226 Q729.95 231 724.95 231 L686 231 655.5 200.5 686 170 M678 277.25 L650.5 249.75 623 277.25 623 314.95 Q623 316.95 625 316.95 L676 316.95 Q678 316.95 678 314.95 L678 277.25 M650.5 245.5 L681 276 681 314.95 Q681 319.95 676 319.95 L625 319.95 Q620 319.95 620 314.95 L620 276 650.5 245.5 M651 305 L650.3 304.7 645.3 299.65 645.25 299.65 Q644.95 299.35 645 299 L645.05 298.6 Q645.3 298 645.95 298 L656 298 Q656.65 298 656.9 298.6 657.15 299.2 656.7 299.65 L651.65 304.7 651 305 M682.3 378.65 Q683.15 376.25 686 376 L691.1 376 691.1 364 Q691.1 363.25 691.65 362.65 692.15 362 693.05 362 L705.95 362 Q706.75 362 707.35 362.6 707.95 363.2 707.95 364 L708 376 713 376 Q715.7 376.15 716.75 378.55 L716.8 378.85 Q717.55 381.05 715.9 382.65 L715.95 382.65 702.15 396.8 702 397 Q700.85 398 699.5 398 698 398 696.9 396.8 L696.9 396.85 683.2 382.75 683 382.6 682.95 382.55 Q681.9 381.35 682 380.05 L682 380 Q682 379.3 682.3 378.6 L682.3 378.65 M673.8 353.85 L673.8 353.8 Q663 364.7 663 380 663 395.3 673.8 406.15 684.6 417 700 417 715.3 417 726.15 406.15 737 395.3 737 380 737 364.7 726.15 353.85 715.3 343 700 343 684.6 343 673.8 353.85 M671.65 351.7 Q683.35 340 700 340 716.55 340 728.25 351.7 740 363.45 740 380 740 396.55 728.25 408.25 716.55 420 700 420 683.35 420 671.65 408.25 660 396.55 660 380 660 363.45 671.65 351.7 M763.8 353.85 L763.8 353.8 Q753 364.7 753 380 753 395.3 763.8 406.15 774.6 417 790 417 805.3 417 816.15 406.15 827 395.3 827 380 827 364.7 816.15 353.85 805.3 343 790 343 774.6 343 763.8 353.85 M761.65 351.7 Q773.35 340 790 340 806.55 340 818.25 351.7 830 363.45 830 380 830 396.55 818.25 408.25 806.55 420 790 420 773.35 420 761.65 408.25 750 396.55 750 380 750 363.45 761.65 351.7 M853.8 353.85 L853.8 353.8 Q843 364.7 843 380 843 395.3 853.8 406.15 864.6 417 880 417 895.3 417 906.15 406.15 917 395.3 917 380 917 364.7 906.15 353.85 895.3 343 880 343 864.6 343 853.8 353.85 M890.25 365 L890.7 365.45 Q891.2 366.1 891.2 366.9 L891.3 366.9 Q891.35 367.85 890.9 368.55 L895.1 372.75 Q896.35 374 895.1 375.2 L894.15 376.15 893.75 376.4 Q893.55 376.4 893.35 376.2 L892.7 375.55 890.45 377.8 891.1 378.45 891.2 378.85 891.05 379.25 890.15 380.2 Q888.9 381.45 887.65 380.2 L883.45 376 879.4 380.1 Q880.6 382.1 881.05 384.4 L881 384.5 Q881.75 388.75 879.05 391.25 876.45 394 872.2 393.35 868.8 392.75 866.05 390.2 L865.6 389.8 Q862.7 386.95 862.15 383.35 L862.15 383.3 Q861.9 381.9 862.1 380.75 862.2 378.15 864.1 376.4 865.9 374.5 868.5 374.25 L870.95 374.35 871.1 374.35 Q873.25 374.75 875.2 376 L886.5 364.65 Q887.2 363.9 888.45 364.05 889.5 364.2 890.25 365 M790.05 362.45 L796.8 370.9 807 374.65 801 383.7 800.45 394.45 790.05 391.6 779.5 394.45 779 383.7 773 374.65 783.2 370.9 790.05 362.45 M867.9 382.3 Q868.25 384.1 869.75 385.65 L870.2 386.05 Q871.5 387.25 873.15 387.5 L873.25 387.55 Q874.25 387.7 874.9 387.1 875.4 386.5 875.25 385.55 L875.25 385.35 Q874.95 383.8 873.8 382.4 L873.45 382.05 873.3 381.9 Q871.8 380.5 870.05 380.15 869 379.95 868.25 380.5 867.75 381.2 867.9 382.3 M851.65 351.7 Q863.35 340 880 340 896.55 340 908.25 351.7 920 363.45 920 380 920 396.55 908.25 408.25 896.55 420 880 420 863.35 420 851.65 408.25 840 396.55 840 380 840 363.45 851.65 351.7 M920 470 Q920 486.55 908.25 498.25 896.55 510 880 510 863.35 510 851.65 498.25 840 486.55 840 470 840 453.45 851.65 441.7 863.35 430 880 430 896.55 430 908.25 441.7 920 453.45 920 470 M917 470 Q917 454.7 906.15 443.85 895.3 433 880 433 864.6 433 853.8 443.85 L853.8 443.8 Q843 454.7 843 470 843 485.3 853.8 496.15 864.6 507 880 507 895.3 507 906.15 496.15 917 485.3 917 470 M830 470 Q830 486.55 818.25 498.25 806.55 510 790 510 773.35 510 761.65 498.25 750 486.55 750 470 750 453.45 761.65 441.7 773.35 430 790 430 806.55 430 818.25 441.7 830 453.45 830 470 M853.8 533.85 L853.8 533.8 Q843 544.7 843 560 843 575.3 853.8 586.15 864.6 597 880 597 895.3 597 906.15 586.15 917 575.3 917 560 917 544.7 906.15 533.85 895.3 523 880 523 864.6 523 853.8 533.85 M827 470 Q827 454.7 816.15 443.85 805.3 433 790 433 774.6 433 763.8 443.85 L763.8 443.8 Q753 454.7 753 470 753 485.3 763.8 496.15 774.6 507 790 507 805.3 507 816.15 496.15 827 485.3 827 470 M880 520 Q896.55 520 908.25 531.7 920 543.45 920 560 920 576.55 908.25 588.25 896.55 600 880 600 863.35 600 851.65 588.25 840 576.55 840 560 840 543.45 851.65 531.7 863.35 520 880 520 M816.15 586.15 Q827 575.3 827 560 827 544.7 816.15 533.85 805.3 523 790 523 774.6 523 763.8 533.85 L763.8 533.8 Q753 544.7 753 560 753 575.3 763.8 586.15 774.6 597 790 597 805.3 597 816.15 586.15 M811.55 561 L810.85 561.45 793.55 566.1 799.45 573.15 799.75 573.95 799.5 574.85 798.85 575.35 797.95 575.4 778.3 569.7 778.2 569.65 Q769.8 566.25 769.85 560 769.8 553.75 778.2 550.35 L778.3 550.3 797.95 544.6 798.85 544.65 799.5 545.15 Q799.8 545.55 799.75 546.05 L799.45 546.85 793.55 553.9 810.85 558.55 811.55 559 811.95 559.8 811.95 560 811.95 560.2 811.55 561 M818.25 588.25 Q806.55 600 790 600 773.35 600 761.65 588.25 750 576.55 750 560 750 543.45 761.65 531.7 773.35 520 790 520 806.55 520 818.25 531.7 830 543.45 830 560 830 576.55 818.25 588.25 M889 567.95 Q888.15 567.95 887.55 568.55 887 569.15 887 569.95 887 570.8 887.55 571.35 888.15 571.95 889 571.95 889.85 571.95 890.4 571.35 891 570.8 891 569.95 891 569.15 890.4 568.55 889.85 567.95 889 567.95 M882.4 568.55 Q881.85 567.95 881 567.95 880.15 567.95 879.55 568.55 879 569.15 879 569.95 879 570.8 879.55 571.35 880.15 571.95 881 571.95 881.85 571.95 882.4 571.35 883 570.8 883 569.95 883 569.15 882.4 568.55 M890.4 560.55 Q889.85 559.95 889 559.95 888.15 559.95 887.55 560.55 887 561.15 887 561.95 887 562.8 887.55 563.35 888.15 563.95 889 563.95 889.85 563.95 890.4 563.35 891 562.8 891 561.95 891 561.15 890.4 560.55 M874.4 568.55 Q873.85 567.95 873 567.95 872.15 567.95 871.55 568.55 871 569.15 871 569.95 871 570.8 871.55 571.35 872.15 571.95 873 571.95 873.85 571.95 874.4 571.35 875 570.8 875 569.95 875 569.15 874.4 568.55 M873 559.95 Q872.15 559.95 871.55 560.55 871 561.15 871 561.95 871 562.8 871.55 563.35 872.15 563.95 873 563.95 873.85 563.95 874.4 563.35 875 562.8 875 561.95 875 561.15 874.4 560.55 873.85 559.95 873 559.95 M879.55 560.55 Q879 561.15 879 561.95 879 562.8 879.55 563.35 880.15 563.95 881 563.95 881.85 563.95 882.4 563.35 883 562.8 883 561.95 883 561.15 882.4 560.55 881.85 559.95 881 559.95 880.15 559.95 879.55 560.55 M874.4 552.55 Q873.85 551.95 873 551.95 872.15 551.95 871.55 552.55 871 553.15 871 553.95 871 554.8 871.55 555.35 872.15 555.95 873 555.95 873.85 555.95 874.4 555.35 875 554.8 875 553.95 875 553.15 874.4 552.55 M889 551.95 Q888.15 551.95 887.55 552.55 887 553.15 887 553.95 887 554.8 887.55 555.35 888.15 555.95 889 555.95 889.85 555.95 890.4 555.35 891 554.8 891 553.95 891 553.15 890.4 552.55 889.85 551.95 889 551.95 M882.4 552.55 Q881.85 551.95 881 551.95 880.15 551.95 879.55 552.55 879 553.15 879 553.95 879 554.8 879.55 555.35 880.15 555.95 881 555.95 881.85 555.95 882.4 555.35 883 554.8 883 553.95 883 553.15 882.4 552.55 M869.3 545 L892.7 545 Q895.35 545 896.4 546.75 897.5 548.15 897.2 550.95 L894.65 574.2 Q894.2 578.3 890.15 578.3 L871.9 578.3 Q867.8 578.3 867.35 574.2 L864.8 550.95 Q864.55 548.15 865.6 546.75 866.65 545 869.3 545 M726.15 443.85 Q715.3 433 700 433 684.6 433 673.8 443.85 L673.8 443.8 Q663 454.7 663 470 663 485.3 673.8 496.15 684.6 507 700 507 715.3 507 726.15 496.15 737 485.3 737 470 737 454.7 726.15 443.85 M728.25 441.7 Q740 453.45 740 470 740 486.55 728.25 498.25 716.55 510 700 510 683.35 510 671.65 498.25 660 486.55 660 470 660 453.45 671.65 441.7 683.35 430 700 430 716.55 430 728.25 441.7 M728.25 531.7 Q740 543.45 740 560 740 576.55 728.25 588.25 716.55 600 700 600 683.35 600 671.65 588.25 660 576.55 660 560 660 543.45 671.65 531.7 683.35 520 700 520 716.55 520 728.25 531.7 M708.55 553.45 Q705.4 550.35 701 550.35 696.55 550.35 693.45 553.45 690.3 556.6 690.3 561 690.3 565.45 693.45 568.55 696.55 571.7 701 571.7 705.4 571.7 708.5 568.55 L708.55 568.55 Q711.65 565.45 711.65 561 711.65 556.6 708.55 553.45 M713 549 Q718 554 718 561 718 568.05 713 573.05 708 578 701 578 693.95 578 688.95 573.05 684 568.05 684 561 684 554 688.9 549 L688.95 549 688.95 548.95 Q693.95 544 701 544 708 544 713 549 M726.15 533.85 Q715.3 523 700 523 684.6 523 673.8 533.85 L673.8 533.8 Q663 544.7 663 560 663 575.3 673.8 586.15 684.6 597 700 597 715.3 597 726.15 586.15 737 575.3 737 560 737 544.7 726.15 533.85 M705.25 556.75 Q707 558.5 707 561 707 563.5 705.25 565.25 703.45 567.05 701 567.05 698.45 567.05 696.7 565.25 694.95 563.5 694.95 561 694.95 558.5 696.7 556.75 698.45 555 701 555 703.45 555 705.25 556.75 M486 160 Q491 160 491 165 L491 210 534.95 210 Q539.95 210 539.95 215 L539.95 266 Q539.95 271 534.95 271 L491 271 491 314.95 Q491 319.95 486 319.95 L435 319.95 Q430 319.95 430 314.95 L430 271 385 271 Q380 271 380 266 L380 215 Q380 210 385 210 L430 210 430 165 Q430 160 435 160 L486 160 M590.35 195.3 Q590.8 194.85 591.4 195.1 592 195.35 592 196 L592 206.05 Q592 206.7 591.4 206.95 L591 207 Q590.65 207.05 590.35 206.75 L590.35 206.7 585.3 201.7 Q585 201.4 585 201 585 200.65 585.3 200.35 L590.35 195.3 M488 165 Q488 163 486 163 L435 163 Q433 163 433 165 L433 210 Q433 211.25 432.15 212.15 431.25 213 430 213 L385 213 Q383 213 383 215 L383 266 Q383 268 385 268 L430 268 Q431.25 268 432.15 268.9 433 269.75 433 271 L433 314.95 Q433 316.95 435 316.95 L486 316.95 Q488 316.95 488 314.95 L488 271 Q488 269.75 488.9 268.9 489.75 268 491 268 L534.95 268 Q536.95 268 536.95 266 L536.95 215 Q536.95 213 534.95 213 L491 213 Q489.75 213 488.9 212.15 488 211.25 488 210 L488 165 M570 175 Q570 170 575 170 L615 170 645.5 200.5 615 231 575 231 Q570 231 570 226 L570 175 M575 173 Q573 173 573 175 L573 226 Q573 228 575 228 L613.75 228 641.25 200.5 613.75 173 575 173 M354.75 160 Q359.95 160 359.95 165.2 L359.95 314.85 Q359.95 320 354.75 320 L205.1 320 Q199.95 320 199.95 314.85 L199.95 165.2 Q199.95 160 205.1 160 L354.75 160 M461 175 Q461.35 175 461.65 175.3 L466.7 180.35 Q467.15 180.8 466.9 181.4 466.65 182 466 182 L455.95 182 Q455.3 182 455.05 181.4 L455 181 Q454.95 180.65 455.25 180.35 L455.3 180.35 460.3 175.3 Q460.6 175 461 175 M356.95 165.2 Q356.95 163 354.75 163 L205.1 163 Q202.95 163 202.95 165.2 L202.95 314.85 Q202.95 317 205.1 317 L354.75 317 Q356.95 317 356.95 314.85 L356.95 165.2 M327.95 27.2 L327.95 113.1 Q327.8 118 322.75 118 L237.1 118 Q232.1 118 231.95 113.1 L231.95 27.2 Q231.95 22 237.1 22 L322.75 22 Q327.95 22 327.95 27.2 M324.95 113 L324.95 27.2 Q324.95 25 322.75 25 L237.1 25 Q234.95 25 234.95 27.2 L234.95 113.1 Q235.1 115 237.1 115 L322.75 115 Q324.85 115 324.95 113 M464 240 Q464 241.6 462.85 242.8 461.65 244 460 244 458.4 244 457.2 242.8 456 241.6 456 240 L456.05 239.5 Q456.2 238.15 457.2 237.15 458.4 236 460 236 461.65 236 462.85 237.15 463.8 238.15 464 239.5 L464 240 M395 241 Q395 240.65 395.3 240.35 L400.35 235.3 Q400.8 234.85 401.4 235.1 402 235.35 402 236 L402 246.05 Q402 246.7 401.4 246.95 L401 247 Q400.65 247.05 400.35 246.75 L400.35 246.7 395.3 241.7 Q395 241.4 395 241 M325.2 340 L362.85 340 Q368 340 368 345.2 L368 383.05 Q367.9 388 362.85 388 L325.2 388 Q320.1 388 320 383.05 L320 345.2 Q320 340 325.2 340 M362.85 343 L325.2 343 Q323 343 323 345.2 L323 383.05 Q323.1 385 325.2 385 L362.85 385 Q364.95 385 365 383 L365 345.2 Q365 343 362.85 343 M347.5 358.8 L347.5 358.95 347.5 359.95 347.35 361.1 354.65 368.25 Q355.8 369.3 355.95 370.8 L356 371.45 Q356 373.4 354.65 374.7 353.4 376 351.35 376 349.5 376 348.1 374.7 L343.45 370.05 343.5 369.95 340.75 367.3 Q339.7 367.6 338.65 367.3 336.1 366.9 334.3 365.15 331.75 362.45 332.05 359.15 332.1 358.1 332.5 357 L336.95 361.5 Q338.25 362.8 339.45 361.5 L341.35 359.55 Q342.25 358.65 341.8 357.65 L341.35 357 336.8 352.65 337.75 352.25 341.2 352.15 Q343.45 352.55 345.15 354.3 347.15 356.15 347.5 358.8 M403.8 353.85 L403.8 353.8 Q393 364.7 393 380 393 395.3 403.8 406.15 414.6 417 430 417 445.3 417 456.15 406.15 467 395.3 467 380 467 364.7 456.15 353.85 445.3 343 430 343 414.6 343 403.8 353.85 M349.8 369.95 Q349.35 370.4 349.25 370.95 L349.15 371.6 Q349.15 372.55 349.8 373.3 350.55 373.95 351.5 373.95 352.5 373.95 353.2 373.3 353.95 372.55 353.95 371.6 L353.85 370.95 353.2 369.95 Q351.5 368.5 349.8 369.95 M401.65 351.7 Q413.35 340 430 340 446.55 340 458.25 351.7 470 363.45 470 380 470 396.55 458.25 408.25 446.55 420 430 420 413.35 420 401.65 408.25 390 396.55 390 380 390 363.45 401.65 351.7 M466.7 299.65 L461.65 304.7 461 305 460.3 304.7 455.3 299.65 455.25 299.65 Q454.95 299.35 455 299 L455.05 298.6 Q455.3 298 455.95 298 L466 298 Q466.65 298 466.9 298.6 467.15 299.2 466.7 299.65 M431.35 363.3 Q433.75 364.15 434 367 L434 372.1 446 372.1 Q446.75 372.1 447.35 372.65 448 373.15 448 374.05 L448 386.95 Q448 387.75 447.4 388.35 446.8 388.95 446 388.95 L434 389 434 394 Q433.85 396.7 431.45 397.75 L431.15 397.8 Q428.95 398.55 427.35 396.9 L427.35 396.95 413.2 383.15 413 383 Q412 381.85 412 380.5 412 379 413.2 377.9 L413.15 377.9 427.25 364.2 427.4 364 427.45 363.95 Q428.65 362.9 429.95 363 L430 363 431.4 363.3 431.35 363.3 M525 241 L524.7 241.7 519.65 246.7 519.65 246.75 519 247 518.6 246.95 Q518 246.7 518 246.05 L518 236 Q518 235.35 518.6 235.1 519.2 234.85 519.65 235.3 L524.7 240.35 525 241 M493.8 353.85 L493.8 353.8 Q483 364.7 483 380 483 395.3 493.8 406.15 504.6 417 520 417 535.3 417 546.15 406.15 557 395.3 557 380 557 364.7 546.15 353.85 535.3 343 520 343 504.6 343 493.8 353.85 M522.65 364.15 L522.65 364.1 536.8 377.9 537 378.05 Q538 379.2 538 380.55 538 382.05 536.8 383.15 L536.85 383.15 522.75 396.85 522.6 397.05 522.55 397.1 Q521.35 398.15 520.05 398.05 L520 398.05 518.6 397.75 518.65 397.75 Q516.25 396.9 516 394.05 L516 388.95 504 388.95 Q503.25 388.95 502.65 388.4 502 387.9 502 387 L502 374.1 Q502 373.3 502.6 372.7 503.2 372.1 504 372.1 L516 372.05 516 367.05 Q516.15 364.35 518.55 363.3 L518.85 363.25 Q521.05 362.5 522.65 364.15 M560 380 Q560 396.55 548.25 408.25 536.55 420 520 420 503.35 420 491.65 408.25 480 396.55 480 380 480 363.45 491.65 351.7 503.35 340 520 340 536.55 340 548.25 351.7 560 363.45 560 380 M594.15 377.35 L594.1 377.35 607.9 363.2 608.05 363 Q609.2 362 610.55 362 612.05 362 613.15 363.2 L613.15 363.15 626.85 377.25 627.05 377.4 627.1 377.45 Q628.15 378.65 628.05 379.95 L628.05 380 627.75 381.4 627.75 381.35 Q626.9 383.75 624.05 384 L618.95 384 618.95 396 Q618.95 396.75 618.4 397.35 617.9 398 617 398 L604.1 398 Q603.3 398 602.7 397.4 602.1 396.8 602.1 396 L602.05 384 597.05 384 Q594.35 383.85 593.3 381.45 L593.25 381.15 Q592.5 378.95 594.15 377.35 M583.8 353.85 L583.8 353.8 Q573 364.7 573 380 573 395.3 583.8 406.15 594.6 417 610 417 625.3 417 636.15 406.15 647 395.3 647 380 647 364.7 636.15 353.85 625.3 343 610 343 594.6 343 583.8 353.85 M581.65 351.7 Q593.35 340 610 340 626.55 340 638.25 351.7 650 363.45 650 380 650 396.55 638.25 408.25 626.55 420 610 420 593.35 420 581.65 408.25 570 396.55 570 380 570 363.45 581.65 351.7 M284 39 Q284 40.6 282.8 41.8 281.6 43 280 43 278.35 43 277.15 41.8 276 40.6 276 39 L276.05 38.5 Q276.2 37.15 277.15 36.15 278.35 35 280 35 281.6 35 282.8 36.15 283.8 37.15 284 38.5 L284 39 M251.85 67.15 Q252.8 68.15 253 69.5 L253 70 Q253 71.6 251.85 72.8 250.65 74 249 74 247.4 74 246.2 72.8 245 71.6 245 70 L245.05 69.5 Q245.2 68.15 246.2 67.15 247.4 66 249 66 250.65 66 251.85 67.15 M282.8 98.15 Q283.8 99.15 284 100.5 L284 101 Q284 102.6 282.8 103.8 281.6 105 280 105 278.35 105 277.15 103.8 276 102.6 276 101 L276.05 100.5 Q276.2 99.15 277.15 98.15 278.35 97 280 97 281.6 97 282.8 98.15 M313.85 67.15 Q314.8 68.15 315 69.5 L315 70 Q315 71.6 313.85 72.8 312.65 74 311 74 309.4 74 308.2 72.8 307 71.6 307 70 L307.05 69.5 Q307.2 68.15 308.2 67.15 309.4 66 311 66 312.65 66 313.85 67.15 M140.95 44.85 Q148.05 56.05 148.1 70.15 L148.1 71.15 148.1 71.85 Q147.65 84.95 140.95 95.45 138.05 100 134 104.05 125.4 112.65 114.7 116 107.85 118.15 100.1 118.15 92.3 118.15 85.4 116 74.65 112.65 66.1 104.05 52.7 90.55 52.15 71.85 L52.1 71.15 52.1 70.15 Q52.1 50.35 66.1 36.15 80.1 22.15 100.1 22.15 119.9 22.15 133.95 36.15 138.05 40.25 140.95 44.85 M100 35 Q101.6 35 102.8 36.15 103.8 37.15 104 38.5 L104 39 Q104 40.6 102.8 41.8 101.6 43 100 43 98.35 43 97.15 41.8 96 40.6 96 39 L96.05 38.5 Q96.2 37.15 97.15 36.15 98.35 35 100 35 M100 97 Q101.6 97 102.8 98.15 103.8 99.15 104 100.5 L104 101 Q104 102.6 102.8 103.8 101.6 105 100 105 98.35 105 97.15 103.8 96 102.6 96 101 L96.05 100.5 Q96.2 99.15 97.15 98.15 98.35 97 100 97 M131 66 Q132.65 66 133.85 67.15 134.8 68.15 135 69.5 L135 70 Q135 71.6 133.85 72.8 132.65 74 131 74 129.4 74 128.2 72.8 127 71.6 127 70 L127.05 69.5 Q127.2 68.15 128.2 67.15 129.4 66 131 66 M145.1 69.5 Q144.95 59.5 140.95 51.1 137.7 44.15 131.85 38.3 118.65 25.15 100.1 25.15 81.35 25.15 68.25 38.3 L68.25 38.25 Q55.1 51.55 55.1 70.15 L55.1 71.1 55.1 71.15 55.15 71.65 55.15 71.75 Q55.65 89.25 68.25 101.95 81.35 115.15 100.1 115.15 118.65 115.15 131.9 101.95 137.7 96.1 140.95 89.25 143.95 82.9 144.8 75.7 L145.1 69.5 M69 66 Q70.65 66 71.85 67.15 72.8 68.15 73 69.5 L73 70 Q73 71.6 71.85 72.8 70.65 74 69 74 67.4 74 66.2 72.8 65 71.6 65 70 L65.05 69.5 Q65.2 68.15 66.2 67.15 67.4 66 69 66 M45.45 185.55 L45.45 185.5 Q23 208.15 23 240 23 271.85 45.45 294.4 67.95 317 100 317 131.85 317 154.4 294.4 177 271.85 177 240 177 208.15 154.4 185.55 131.85 163 100 163 67.95 163 45.45 185.55 M156.5 183.4 Q180 206.9 180 240 180 273.1 156.5 296.5 133.1 320 100 320 66.7 320 43.3 296.5 20 273.1 20 240 20 206.9 43.3 183.4 66.7 160 100 160 133.1 160 156.5 183.4 M62.85 340 Q68 340 68 345.2 L68 383.05 Q67.9 388 62.85 388 L25.2 388 Q20.1 388 20 383.05 L20 345.2 Q20 340 25.2 340 L62.85 340 M65 345.2 Q65 343 62.85 343 L25.2 343 Q23 343 23 345.2 L23 383.05 Q23.1 385 25.2 385 L62.85 385 Q64.95 385 65 383 L65 345.2 M80 383.05 L80 345.2 Q80 340 85.2 340 L122.85 340 Q128 340 128 345.2 L128 383.05 Q127.9 388 122.85 388 L85.2 388 Q80.1 388 80 383.05 M145.2 343 Q143 343 143 345.2 L143 383.05 Q143.1 385 145.2 385 L182.85 385 Q184.95 385 185 383 L185 345.2 Q185 343 182.85 343 L145.2 343 M125 345.2 Q125 343 122.85 343 L85.2 343 Q83 343 83 345.2 L83 383.05 Q83.1 385 85.2 385 L122.85 385 Q124.95 385 125 383 L125 345.2 M140 345.2 Q140 340 145.2 340 L182.85 340 Q188 340 188 345.2 L188 383.05 Q187.9 388 182.85 388 L145.2 388 Q140.1 388 140 383.05 L140 345.2 M92 354 Q92 352 94 352 L100 352 Q102 352 102 354 L102 374 Q102 376 100 376 L94 376 Q92 376 92 374 L92 354 M108 352 L114 352 Q116 352 116 354 L116 374 Q116 376 114 376 L108 376 Q106 376 106 374 L106 354 Q106 352 108 352 M158.25 352.15 Q159.4 351.7 160.3 352.55 L170.2 362.2 170.25 362.2 Q170.8 362.8 170.8 363.5 170.8 364.3 170.2 364.85 L160.3 374.45 160.25 374.5 Q159.65 375.05 158.95 375 L158.25 374.85 Q157 374.4 157 373.15 L157 353.9 Q157 352.65 158.2 352.15 L158.25 352.15 M205.2 343 Q203 343 203 345.2 L203 383.05 Q203.1 385 205.2 385 L242.85 385 Q244.95 385 245 383 L245 345.2 Q245 343 242.85 343 L205.2 343 M205.2 340 L242.85 340 Q248 340 248 345.2 L248 383.05 Q247.9 388 242.85 388 L205.2 388 Q200.1 388 200 383.05 L200 345.2 Q200 340 205.2 340 M236 360.75 L231.8 367.25 231.4 375 224.05 372.95 216.6 375 216.25 367.25 212 360.75 219.2 358.05 224.05 352 228.8 358.05 236 360.75 M302.85 340 Q308 340 308 345.2 L308 383.05 Q307.9 388 302.85 388 L265.2 388 Q260.1 388 260 383.05 L260 345.2 Q260 340 265.2 340 L302.85 340 M270.2 365.9 Q270.3 363.8 271.8 362.4 273.25 360.9 275.3 360.7 L277.25 360.8 277.4 360.8 Q279.1 361.1 280.65 362.1 L289.65 353.05 Q290.2 352.45 291.2 352.6 292.05 352.7 292.65 353.35 L293 353.7 Q293.4 354.2 293.4 354.85 L293.45 354.85 Q293.5 355.6 293.15 356.15 L296.5 359.5 Q297.5 360.5 296.5 361.45 L295.75 362.2 295.4 362.4 295.1 362.25 294.6 361.75 292.8 363.55 293.3 364.05 293.4 364.35 293.25 364.7 292.55 365.45 Q291.55 366.45 290.55 365.45 L287.2 362.1 284 365.35 Q284.95 366.95 285.3 368.8 L285.25 368.85 Q285.85 372.25 283.7 374.25 281.65 376.45 278.25 375.9 275.55 375.45 273.35 373.4 L273 373.1 Q270.7 370.8 270.25 367.95 L270.25 367.9 Q270.05 366.8 270.2 365.9 M305 345.2 Q305 343 302.85 343 L265.2 343 Q263 343 263 345.2 L263 383.05 Q263.1 385 265.2 385 L302.85 385 Q304.95 385 305 383 L305 345.2 M276.3 369.8 L276.65 370.1 Q277.7 371.05 279 371.25 L279.1 371.3 Q279.9 371.4 280.4 370.95 280.8 370.45 280.7 369.7 L280.7 369.55 Q280.45 368.3 279.55 367.2 L279.25 366.9 279.15 366.8 Q277.95 365.7 276.55 365.4 275.7 365.25 275.1 365.7 274.7 366.25 274.85 367.1 275.1 368.55 276.3 369.8 M285.5 415.35 L296.55 424.5 296.75 425 296.55 425.45 296.5 425.45 285.35 433.9 Q285.05 434.1 284.65 433.9 284.3 433.7 284.35 433.3 L284.85 429.05 Q276.4 429.25 271.15 432.45 273 422.6 284.95 420.15 L284.5 415.85 Q284.5 415.5 284.85 415.25 L285.5 415.35 M302.85 400 Q308 400 308 405.2 L308 443.05 Q307.9 448 302.85 448 L265.2 448 Q260.1 448 260 443.05 L260 405.2 Q260 400 265.2 400 L302.85 400 M320 443.05 L320 405.2 Q320 400 325.2 400 L362.85 400 Q368 400 368 405.2 L368 443.05 Q367.9 448 362.85 448 L325.2 448 Q320.1 448 320 443.05 M305 443 L305 405.2 Q305 403 302.85 403 L265.2 403 Q263 403 263 405.2 L263 443.05 Q263.1 445 265.2 445 L302.85 445 Q304.95 445 305 443 M323 405.2 L323 443.05 Q323.1 445 325.2 445 L362.85 445 Q364.95 445 365 443 L365 405.2 Q365 403 362.85 403 L325.2 403 Q323 403 323 405.2 M248 405.2 L248 443.05 Q247.9 448 242.85 448 L205.2 448 Q200.1 448 200 443.05 L200 405.2 Q200 400 205.2 400 L242.85 400 Q248 400 248 405.2 M278 474 L278 481 290 481 290 474 278 474 M276 485 L276 494 292 494 292 485 276 485 M245 443 L245 405.2 Q245 403 242.85 403 L205.2 403 Q203 403 203 405.2 L203 443.05 Q203.1 445 205.2 445 L242.85 445 Q244.95 445 245 443 M260 465.2 Q260 460 265.2 460 L302.85 460 Q308 460 308 465.2 L308 503.05 Q307.9 508 302.85 508 L265.2 508 Q260.1 508 260 503.05 L260 465.2 M265.2 463 Q263 463 263 465.2 L263 503.05 Q263.1 505 265.2 505 L302.85 505 Q304.95 505 305 503 L305 465.2 Q305 463 302.85 463 L265.2 463 M295.95 476.1 L295.95 495.95 273 495.95 273 471.95 291.85 471.95 295.95 476.1 M289 475 L289 480 286 480 286 475 289 475 M182.85 400 Q188 400 188 405.2 L188 443.05 Q187.9 448 182.85 448 L145.2 448 Q140.1 448 140 443.05 L140 405.2 Q140 400 145.2 400 L182.85 400 M185 405.2 Q185 403 182.85 403 L145.2 403 Q143 403 143 405.2 L143 443.05 Q143.1 445 145.2 445 L182.85 445 Q184.95 445 185 443 L185 405.2 M173.05 416.05 L173.05 426.9 173.05 427 Q172.85 428.95 171.65 430.2 L171.6 430.2 Q170.3 431.6 168.6 431.75 L168.55 431.75 Q166.75 431.9 165.55 430.65 164.4 429.5 164.55 427.6 164.75 425.9 166 424.6 167.15 423.4 168.6 423.2 L168.55 423.2 169.8 423.1 169.8 419.75 162.55 419.75 162.55 431 Q162.55 433.05 161.05 434.4 L161 434.5 Q159.75 435.75 158.1 435.95 L158.05 435.95 Q156.2 436.1 155.05 434.9 153.85 433.75 154.05 431.9 154.2 430.15 155.45 428.85 L155.5 428.8 Q156.65 427.65 158.05 427.4 L158.1 427.4 159.35 427.35 159.35 416.05 Q159.35 414 161.4 414 L170.95 414 Q173.05 414 173.05 416.05 M182.85 460 Q188 460 188 465.2 L188 503.05 Q187.9 508 182.85 508 L145.2 508 Q140.1 508 140 503.05 L140 465.2 Q140 460 145.2 460 L182.85 460 M212 477 L212 475 Q212 473 214 473 L234 473 Q236 473 236 475 L236 477 Q236 479 234 479 L214 479 Q212 479 212 477 M212 485 L212 483 Q212 481 214 481 L234 481 Q236 481 236 483 L236 485 Q236 487 234 487 L214 487 Q212 487 212 485 M212 493 L212 491 Q212 489 214 489 L234 489 Q236 489 236 491 L236 493 Q236 495 234 495 L214 495 Q212 495 212 493 M205.2 463 Q203 463 203 465.2 L203 503.05 Q203.1 505 205.2 505 L242.85 505 Q244.95 505 245 503 L245 465.2 Q245 463 242.85 463 L205.2 463 M166.7 475.05 Q169.15 477.5 169.15 480.95 169.15 482.85 168.4 484.4 L174.8 490.9 Q175.65 491.7 175.6 492.85 175.6 493.95 174.8 494.8 174 495.6 172.9 495.6 171.75 495.6 170.95 494.8 L164.65 488.4 Q162.95 489.3 160.85 489.3 157.45 489.3 155 486.85 152.6 484.4 152.6 480.95 152.6 477.5 155 475.05 L155.05 475.05 Q157.45 472.6 160.85 472.6 164.3 472.6 166.7 475.05 M165.1 480.95 Q165.1 479.2 163.85 477.9 162.6 476.65 160.85 476.65 159.1 476.65 157.9 477.9 L157.85 477.95 Q156.6 479.2 156.6 480.95 156.6 482.7 157.85 483.95 159.1 485.25 160.85 485.25 162.6 485.25 163.85 484 L163.85 483.95 Q165.1 482.7 165.1 480.95 M185 465.2 Q185 463 182.85 463 L145.2 463 Q143 463 143 465.2 L143 503.05 Q143.1 505 145.2 505 L182.85 505 Q184.95 505 185 503 L185 465.2 M260 555.2 Q260 550 265.2 550 L362.85 550 Q368 550 368 555.2 L368 593.05 Q367.9 598 362.85 598 L265.2 598 Q260.1 598 260 593.05 L260 555.2 M248 555.2 L248 593.05 Q247.9 598 242.85 598 L145.2 598 Q140.1 598 140 593.05 L140 555.2 Q140 550 145.2 550 L242.85 550 Q248 550 248 555.2 M205.2 460 L242.85 460 Q248 460 248 465.2 L248 503.05 Q247.9 508 242.85 508 L205.2 508 Q200.1 508 200 503.05 L200 465.2 Q200 460 205.2 460 M263 555.2 L263 593.05 Q263.1 595 265.2 595 L362.85 595 Q364.95 595 365 593 L365 555.2 Q365 553 362.85 553 L265.2 553 Q263 553 263 555.2 M245 593 L245 555.2 Q245 553 242.85 553 L145.2 553 Q143 553 143 555.2 L143 593.05 Q143.1 595 145.2 595 L242.85 595 Q244.95 595 245 593 M320 503.05 L320 465.2 Q320 460 325.2 460 L362.85 460 Q368 460 368 465.2 L368 503.05 Q367.9 508 362.85 508 L325.2 508 Q320.1 508 320 503.05 M323 465.2 L323 503.05 Q323.1 505 325.2 505 L362.85 505 Q364.95 505 365 503 L365 465.2 Q365 463 362.85 463 L325.2 463 Q323 463 323 465.2 M122.85 400 Q128 400 128 405.2 L128 443.05 Q127.9 448 122.85 448 L85.2 448 Q80.1 448 80 443.05 L80 405.2 Q80 400 85.2 400 L122.85 400 M100.9 483.6 Q100.85 484.5 101.2 485.35 101.55 486.25 102.3 486.75 103 487.3 103.95 487.4 L105.65 487.1 Q106.5 486.75 107.05 486 L107.7 484.35 Q107.8 483.45 107.4 482.6 107.05 481.75 106.3 481.25 105.6 480.7 104.7 480.6 L102.95 480.85 Q101.15 481.65 100.9 483.6 M99.6 477.5 Q100.15 477.05 101.1 476.65 101.8 476.3 102.75 476.1 103.15 474 104.3 472 L107.25 472.4 Q107.7 474.5 107.55 476.65 L109.05 477.5 110.35 478.7 Q112.35 478 114.65 478 L115.8 480.75 Q114.2 482.25 112.25 483.1 L112.25 484.85 111.9 486.6 Q113.55 488 114.65 490 L112.85 492.35 Q110.7 491.65 109.05 490.45 L107.55 491.35 105.85 491.85 Q105.45 494.05 104.3 496 L101.35 495.6 Q100.9 493.5 101.1 491.35 L99.6 490.45 98.3 489.3 Q96.2 490 93.95 490 L92.8 487.25 Q94.4 485.75 96.35 484.85 L96.35 483.1 96.7 481.4 Q95.05 480 93.95 478 L95.75 475.6 Q97.85 476.3 99.6 477.5 M85.2 463 Q83 463 83 465.2 L83 503.05 Q83.1 505 85.2 505 L122.85 505 Q124.95 505 125 503 L125 465.2 Q125 463 122.85 463 L85.2 463 M106.35 413 L107.75 413 107.75 421.95 108.05 422.2 Q109 423.15 109 424.5 109 425.8 108.05 426.7 L107.75 427.05 107.75 436 106.35 436 96.8 427.2 Q96.1 427.7 95.15 427.7 93.85 427.7 92.9 426.7 92 425.8 92 424.5 92 423.15 92.9 422.2 93.85 421.3 95.15 421.3 96.1 421.3 96.85 421.75 L106.35 413 M125 405.2 Q125 403 122.85 403 L85.2 403 Q83 403 83 405.2 L83 443.05 Q83.1 445 85.2 445 L122.85 445 Q124.95 445 125 443 L125 405.2 M62.85 400 Q68 400 68 405.2 L68 443.05 Q67.9 448 62.85 448 L25.2 448 Q20.1 448 20 443.05 L20 405.2 Q20 400 25.2 400 L62.85 400 M122.85 460 Q128 460 128 465.2 L128 503.05 Q127.9 508 122.85 508 L85.2 508 Q80.1 508 80 503.05 L80 465.2 Q80 460 85.2 460 L122.85 460 M31.95 473 L39.95 473 37.85 475.1 40.2 477.4 36.4 481.2 34.05 478.9 31.95 480.95 31.95 473 M25.2 463 Q23 463 23 465.2 L23 503.05 Q23.1 505 25.2 505 L62.85 505 Q64.95 505 65 503 L65 465.2 Q65 463 62.85 463 L25.2 463 M46.35 413 L47.75 413 47.75 421.95 48.05 422.2 Q49 423.15 49 424.5 49 425.8 48.05 426.7 L47.75 427.05 47.75 436 46.35 436 36.8 427.2 Q36.1 427.7 35.15 427.7 33.85 427.7 32.9 426.7 32 425.8 32 424.5 32 423.15 32.9 422.2 33.85 421.3 35.15 421.3 36.1 421.3 36.85 421.75 L46.35 413 M51.2 418 Q52.6 418.45 53.85 419.7 56.05 421.85 56.05 425 56.05 428.1 53.85 430.25 52.6 431.45 51.2 432 L50.05 428.85 Q50.9 428.65 51.55 428 52.8 426.7 52.8 425 52.8 423.25 51.55 422 50.9 421.3 50.05 421.15 L51.2 418 M65 405.2 Q65 403 62.85 403 L25.2 403 Q23 403 23 405.2 L23 443.05 Q23.1 445 25.2 445 L62.85 445 Q64.95 445 65 443 L65 405.2 M34.05 490.1 L36.4 487.75 40.2 491.55 37.85 493.9 39.95 496 31.95 496 31.95 488 34.05 490.1 M20 465.2 Q20 460 25.2 460 L62.85 460 Q68 460 68 465.2 L68 503.05 Q67.9 508 62.85 508 L25.2 508 Q20.1 508 20 503.05 L20 465.2 M54.95 481 L52.9 478.9 50.55 481.2 46.75 477.4 49.1 475.1 47 473 54.95 473 54.95 481 M50.55 487.75 L52.9 490.1 54.95 488 54.95 496 47 496 49.1 493.9 46.75 491.55 50.55 487.75 M25.2 553 Q23 553 23 555.2 L23 593.05 Q23.1 595 25.2 595 L122.85 595 Q124.95 595 125 593 L125 555.2 Q125 553 122.85 553 L25.2 553 M20 555.2 Q20 550 25.2 550 L122.85 550 Q128 550 128 555.2 L128 593.05 Q127.9 598 122.85 598 L25.2 598 Q20.1 598 20 593.05 L20 555.2 M638.25 441.7 Q650 453.45 650 470 650 486.55 638.25 498.25 626.55 510 610 510 593.35 510 581.65 498.25 570 486.55 570 470 570 453.45 581.65 441.7 593.35 430 610 430 626.55 430 638.25 441.7 M493.8 443.85 L493.8 443.8 Q483 454.7 483 470 483 485.3 493.8 496.15 504.6 507 520 507 535.3 507 546.15 496.15 557 485.3 557 470 557 454.7 546.15 443.85 535.3 433 520 433 504.6 433 493.8 443.85 M636.15 443.85 Q625.3 433 610 433 594.6 433 583.8 443.85 L583.8 443.8 Q573 454.7 573 470 573 485.3 583.8 496.15 594.6 507 610 507 625.3 507 636.15 496.15 647 485.3 647 470 647 454.7 636.15 443.85 M520 430 Q536.55 430 548.25 441.7 560 453.45 560 470 560 486.55 548.25 498.25 536.55 510 520 510 503.35 510 491.65 498.25 480 486.55 480 470 480 453.45 491.65 441.7 503.35 430 520 430 M493.8 533.85 L493.8 533.8 Q483 544.7 483 560 483 575.3 493.8 586.15 504.6 597 520 597 535.3 597 546.15 586.15 557 575.3 557 560 557 544.7 546.15 533.85 535.3 523 520 523 504.6 523 493.8 533.85 M520 520 Q536.55 520 548.25 531.7 560 543.45 560 560 560 576.55 548.25 588.25 536.55 600 520 600 503.35 600 491.65 588.25 480 576.55 480 560 480 543.45 491.65 531.7 503.35 520 520 520 M518.25 559.55 L529.25 546.5 Q529.65 546 530.3 545.9 530.95 545.85 531.45 546.3 L538 551.9 Q538.5 552.3 538.55 552.95 L538.2 554.15 519.5 576.55 518.75 577.05 517.85 577.05 517.05 576.55 503.8 560.65 Q503.35 560.15 503.4 559.5 503.45 558.8 503.95 558.4 L510.45 552.8 Q511 552.35 511.65 552.4 512.3 552.45 512.75 552.95 L518.25 559.55 M638.25 531.7 Q650 543.45 650 560 650 576.55 638.25 588.25 626.55 600 610 600 593.35 600 581.65 588.25 570 576.55 570 560 570 543.45 581.65 531.7 593.35 520 610 520 626.55 520 638.25 531.7 M599.35 546.8 Q601.5 544.7 603.6 546.8 L611.25 554.45 618.45 547.3 Q620.6 545.1 622.75 547.3 L624.95 549.4 Q627.15 551.65 624.95 553.75 L617.75 560.85 625.3 568.35 Q627.4 570.5 625.3 572.6 L623.1 574.75 618.8 574.85 611.25 567.35 603.3 575.3 599 575.2 596.8 573.05 Q594.7 570.95 596.8 568.85 L604.75 560.85 597.1 553.3 Q595 551.2 597.15 548.95 L599.35 546.8 M636.15 533.85 Q625.3 523 610 523 594.6 523 583.8 533.85 L583.8 533.8 Q573 544.7 573 560 573 575.3 583.8 586.15 594.6 597 610 597 625.3 597 636.15 586.15 647 575.3 647 560 647 544.7 636.15 533.85 M470 470 Q470 486.55 458.25 498.25 446.55 510 430 510 413.35 510 401.65 498.25 390 486.55 390 470 390 453.45 401.65 441.7 413.35 430 430 430 446.55 430 458.25 441.7 470 453.45 470 470 M403.8 533.85 L403.8 533.8 Q393 544.7 393 560 393 575.3 403.8 586.15 414.6 597 430 597 445.3 597 456.15 586.15 467 575.3 467 560 467 544.7 456.15 533.85 445.3 523 430 523 414.6 523 403.8 533.85 M338.2 472.85 L344.2 478.85 349.85 473.25 Q351.55 471.55 353.2 473.25 L354.95 474.9 Q356.65 476.65 354.95 478.3 L349.3 483.9 355.2 489.75 Q356.85 491.45 355.2 493.1 L353.5 494.8 Q351.75 496.5 350.1 494.85 L344.2 489 337.95 495.2 Q336.3 496.85 334.6 495.15 L332.85 493.45 Q331.2 491.8 332.85 490.15 L339.1 483.9 333.1 477.95 Q331.45 476.3 333.15 474.55 L334.85 472.85 Q336.55 471.2 338.2 472.85 M351.3 414 L356 418 342.55 434 333 422.65 337.7 418.65 342.55 424.35 351.3 414 M456.15 443.85 Q445.3 433 430 433 414.6 433 403.8 443.85 L403.8 443.8 Q393 454.7 393 470 393 485.3 403.8 496.15 414.6 507 430 507 445.3 507 456.15 496.15 467 485.3 467 470 467 454.7 456.15 443.85 M390 560 Q390 543.45 401.65 531.7 413.35 520 430 520 446.55 520 458.25 531.7 470 543.45 470 560 470 576.55 458.25 588.25 446.55 600 430 600 413.35 600 401.65 588.25 390 576.55 390 560 M432.35 543 L450.45 551.25 450.95 551.8 450.8 552.5 450.75 552.5 438.85 567.5 Q438.5 567.9 437.95 567.75 437.3 567.65 437.3 567.1 L436.45 561.45 Q430.3 563.85 426.65 569.2 424 572.8 423.2 577.25 L422.8 577.8 422.15 577.9 411.75 575.55 Q410.85 575.4 411.05 574.6 412.45 567.95 416.4 562.3 422.8 553.15 433.35 549.6 L431.2 544.15 Q431.1 543.65 431.45 543.2 432 542.8 432.35 543"/>
    <path stroke="none" fill="#383838" fill-opacity="0.30196078431372547" d="M233.05 416.05 L233.05 426.9 233.05 427 Q232.85 428.95 231.65 430.2 L231.6 430.2 Q230.3 431.6 228.6 431.75 L228.55 431.75 Q226.75 431.9 225.55 430.65 224.4 429.5 224.55 427.6 224.75 425.9 226 424.6 227.15 423.4 228.6 423.2 L228.55 423.2 229.8 423.1 229.8 419.75 222.55 419.75 222.55 431 Q222.55 433.05 221.05 434.4 L221 434.5 Q219.75 435.75 218.1 435.95 L218.05 435.95 Q216.2 436.1 215.05 434.9 213.85 433.75 214.05 431.9 214.2 430.15 215.45 428.85 L215.5 428.8 Q216.65 427.65 218.05 427.4 L218.1 427.4 219.35 427.35 219.35 416.05 Q219.35 414 221.4 414 L230.95 414 Q233.05 414 233.05 416.05"/>
    <path stroke="none" fill="#FFFFFF" fill-opacity="0.011764705882352941" d="M233.05 416.05 Q233.05 414 230.95 414 L221.4 414 Q219.35 414 219.35 416.05 L219.35 427.35 218.1 427.4 218.05 427.4 Q216.65 427.65 215.5 428.8 L215.45 428.85 Q214.2 430.15 214.05 431.9 213.85 433.75 215.05 434.9 216.2 436.1 218.05 435.95 L218.1 435.95 Q219.75 435.75 221 434.5 L221.05 434.4 Q222.55 433.05 222.55 431 L222.55 419.75 229.8 419.75 229.8 423.1 228.55 423.2 228.6 423.2 Q227.15 423.4 226 424.6 224.75 425.9 224.55 427.6 224.4 429.5 225.55 430.65 226.75 431.9 228.55 431.75 L228.6 431.75 Q230.3 431.6 231.6 430.2 L231.65 430.2 Q232.85 428.95 233.05 427 L233.05 426.9 233.05 416.05 M898.95 53 L898.95 89.15 Q898.85 91 896.95 91 L863 91 Q861.75 91 860.9 91.9 860 92.75 860 94 L860 128.1 Q859.9 129.95 858 129.95 L822 129.95 Q820.15 129.95 820 128.2 L820 94 Q820 92.75 819.15 91.9 818.25 91 817 91 L782 91 Q780.15 91 780 89.25 L780 53 Q780 51 782 51 L817 51 Q818.25 51 819.15 50.15 820 49.25 820 48 L820 13 Q820 11 822 11 L858 11 Q860 11 860 13 L860 48 Q860 49.25 860.9 50.15 861.75 51 863 51 L896.95 51 Q898.95 51 898.95 53 M846.9 31.4 Q847.15 30.8 846.7 30.35 L841.65 25.3 Q841.35 25 841 25 840.6 25 840.3 25.3 L835.3 30.35 835.25 30.35 Q834.95 30.65 835 31 L835.05 31.4 Q835.3 32 835.95 32 L846 32 Q846.65 32 846.9 31.4 M846.7 109.65 Q847.15 109.2 846.9 108.6 846.65 108 846 108 L835.95 108 Q835.3 108 835.05 108.6 L835 109 Q834.95 109.35 835.25 109.65 L835.3 109.65 840.3 114.7 Q840.6 115 841 115 L841.65 114.7 846.7 109.65 M878.6 65.1 Q878 65.35 878 66 L878 76.05 Q878 76.7 878.6 76.95 L879 77 Q879.35 77.05 879.65 76.75 L879.65 76.7 884.7 71.7 885 71 884.7 70.35 879.65 65.3 Q879.2 64.85 878.6 65.1 M840 66 Q838.4 66 837.2 67.15 836.2 68.15 836.05 69.5 L836 70 Q836 71.6 837.2 72.8 838.4 74 840 74 841.65 74 842.85 72.8 844 71.6 844 70 L844 69.5 Q843.8 68.15 842.85 67.15 841.65 66 840 66 M894.4 185.55 Q917 208.15 917 240 L917 240.5 917 241 917 241.25 917 242 917 242.2 Q916.2 272.65 894.4 294.4 882.3 306.5 867.55 312.15 854.75 317 840 317 825.15 317 812.35 312.15 797.5 306.5 785.45 294.4 L784.1 293.05 784.15 293.05 Q763.75 271.75 763 242.3 L763 242 763 241.75 763 241 763 240 Q763 209.1 784.15 186.9 L784.15 186.85 785.45 185.5 785.45 185.55 Q807.95 163 840 163 871.85 163 894.4 185.55 M795.3 71.7 L800.35 76.7 800.35 76.75 Q800.65 77.05 801 77 L801.4 76.95 Q802 76.7 802 76.05 L802 66 Q802 65.35 801.4 65.1 800.8 64.85 800.35 65.3 L795.3 70.35 Q795 70.65 795 71 795 71.4 795.3 71.7 M651 95 Q650.6 95 650.3 95.3 L645.3 100.35 645.25 100.35 Q644.95 100.65 645 101 L645.05 101.4 Q645.3 102 645.95 102 L656 102 Q656.65 102 656.9 101.4 657.15 100.8 656.7 100.35 L651.65 95.3 Q651.35 95 651 95 M678 85 L678 123.75 650.5 151.25 623 123.75 623 85 Q623 83 625 83 L676 83 Q678 83 678 85 M708.6 195.1 Q708 195.35 708 196 L708 206.05 Q708 206.7 708.6 206.95 L709 207 709.65 206.75 709.65 206.7 714.7 201.7 715 201 714.7 200.35 709.65 195.3 Q709.2 194.85 708.6 195.1 M726.95 175 L726.95 226 Q726.95 228 724.95 228 L687.25 228 659.75 200.5 687.25 173 724.95 173 Q726.95 173 726.95 175 M678 277.25 L678 314.95 Q678 316.95 676 316.95 L625 316.95 Q623 316.95 623 314.95 L623 277.25 650.5 249.75 678 277.25 M651 305 L651.65 304.7 656.7 299.65 Q657.15 299.2 656.9 298.6 656.65 298 656 298 L645.95 298 Q645.3 298 645.05 298.6 L645 299 Q644.95 299.35 645.25 299.65 L645.3 299.65 650.3 304.7 651 305 M673.8 353.85 Q684.6 343 700 343 715.3 343 726.15 353.85 737 364.7 737 380 737 395.3 726.15 406.15 715.3 417 700 417 684.6 417 673.8 406.15 663 395.3 663 380 663 364.7 673.8 353.8 L673.8 353.85 M682.3 378.65 L682.3 378.6 Q682 379.3 682 380 L682 380.05 Q681.9 381.35 682.95 382.55 L683 382.6 683.2 382.75 696.9 396.85 696.9 396.8 Q698 398 699.5 398 700.85 398 702 397 L702.15 396.8 715.95 382.65 715.9 382.65 Q717.55 381.05 716.8 378.85 L716.75 378.55 Q715.7 376.15 713 376 L708 376 707.95 364 Q707.95 363.2 707.35 362.6 706.75 362 705.95 362 L693.05 362 Q692.15 362 691.65 362.65 691.1 363.25 691.1 364 L691.1 376 686 376 Q683.15 376.25 682.3 378.65 M763.8 353.85 Q774.6 343 790 343 805.3 343 816.15 353.85 827 364.7 827 380 827 395.3 816.15 406.15 805.3 417 790 417 774.6 417 763.8 406.15 753 395.3 753 380 753 364.7 763.8 353.8 L763.8 353.85 M790.05 362.45 L783.2 370.9 773 374.65 779 383.7 779.5 394.45 790.05 391.6 800.45 394.45 801 383.7 807 374.65 796.8 370.9 790.05 362.45 M890.25 365 Q889.5 364.2 888.45 364.05 887.2 363.9 886.5 364.65 L875.2 376 Q873.25 374.75 871.1 374.35 L870.95 374.35 868.5 374.25 Q865.9 374.5 864.1 376.4 862.2 378.15 862.1 380.75 861.9 381.9 862.15 383.3 L862.15 383.35 Q862.7 386.95 865.6 389.8 L866.05 390.2 Q868.8 392.75 872.2 393.35 876.45 394 879.05 391.25 881.75 388.75 881 384.5 L881.05 384.4 Q880.6 382.1 879.4 380.1 L883.45 376 887.65 380.2 Q888.9 381.45 890.15 380.2 L891.05 379.25 891.2 378.85 891.1 378.45 890.45 377.8 892.7 375.55 893.35 376.2 Q893.55 376.4 893.75 376.4 L894.15 376.15 895.1 375.2 Q896.35 374 895.1 372.75 L890.9 368.55 Q891.35 367.85 891.3 366.9 L891.2 366.9 Q891.2 366.1 890.7 365.45 L890.25 365 M853.8 353.85 Q864.6 343 880 343 895.3 343 906.15 353.85 917 364.7 917 380 917 395.3 906.15 406.15 895.3 417 880 417 864.6 417 853.8 406.15 843 395.3 843 380 843 364.7 853.8 353.8 L853.8 353.85 M867.9 382.3 Q867.75 381.2 868.25 380.5 869 379.95 870.05 380.15 871.8 380.5 873.3 381.9 L873.45 382.05 873.8 382.4 Q874.95 383.8 875.25 385.35 L875.25 385.55 Q875.4 386.5 874.9 387.1 874.25 387.7 873.25 387.55 L873.15 387.5 Q871.5 387.25 870.2 386.05 L869.75 385.65 Q868.25 384.1 867.9 382.3 M917 470 Q917 485.3 906.15 496.15 895.3 507 880 507 864.6 507 853.8 496.15 843 485.3 843 470 843 454.7 853.8 443.8 L853.8 443.85 Q864.6 433 880 433 895.3 433 906.15 443.85 917 454.7 917 470 M827 470 Q827 485.3 816.15 496.15 805.3 507 790 507 774.6 507 763.8 496.15 753 485.3 753 470 753 454.7 763.8 443.8 L763.8 443.85 Q774.6 433 790 433 805.3 433 816.15 443.85 827 454.7 827 470 M853.8 533.85 Q864.6 523 880 523 895.3 523 906.15 533.85 917 544.7 917 560 917 575.3 906.15 586.15 895.3 597 880 597 864.6 597 853.8 586.15 843 575.3 843 560 843 544.7 853.8 533.8 L853.8 533.85 M811.55 561 L811.95 560.2 811.95 560 811.95 559.8 811.55 559 810.85 558.55 793.55 553.9 799.45 546.85 799.75 546.05 Q799.8 545.55 799.5 545.15 L798.85 544.65 797.95 544.6 778.3 550.3 778.2 550.35 Q769.8 553.75 769.85 560 769.8 566.25 778.2 569.65 L778.3 569.7 797.95 575.4 798.85 575.35 799.5 574.85 799.75 573.95 799.45 573.15 793.55 566.1 810.85 561.45 811.55 561 M816.15 586.15 Q805.3 597 790 597 774.6 597 763.8 586.15 753 575.3 753 560 753 544.7 763.8 533.8 L763.8 533.85 Q774.6 523 790 523 805.3 523 816.15 533.85 827 544.7 827 560 827 575.3 816.15 586.15 M882.4 552.55 Q883 553.15 883 553.95 883 554.8 882.4 555.35 881.85 555.95 881 555.95 880.15 555.95 879.55 555.35 879 554.8 879 553.95 879 553.15 879.55 552.55 880.15 551.95 881 551.95 881.85 551.95 882.4 552.55 M889 551.95 Q889.85 551.95 890.4 552.55 891 553.15 891 553.95 891 554.8 890.4 555.35 889.85 555.95 889 555.95 888.15 555.95 887.55 555.35 887 554.8 887 553.95 887 553.15 887.55 552.55 888.15 551.95 889 551.95 M874.4 552.55 Q875 553.15 875 553.95 875 554.8 874.4 555.35 873.85 555.95 873 555.95 872.15 555.95 871.55 555.35 871 554.8 871 553.95 871 553.15 871.55 552.55 872.15 551.95 873 551.95 873.85 551.95 874.4 552.55 M879.55 560.55 Q880.15 559.95 881 559.95 881.85 559.95 882.4 560.55 883 561.15 883 561.95 883 562.8 882.4 563.35 881.85 563.95 881 563.95 880.15 563.95 879.55 563.35 879 562.8 879 561.95 879 561.15 879.55 560.55 M873 559.95 Q873.85 559.95 874.4 560.55 875 561.15 875 561.95 875 562.8 874.4 563.35 873.85 563.95 873 563.95 872.15 563.95 871.55 563.35 871 562.8 871 561.95 871 561.15 871.55 560.55 872.15 559.95 873 559.95 M874.4 568.55 Q875 569.15 875 569.95 875 570.8 874.4 571.35 873.85 571.95 873 571.95 872.15 571.95 871.55 571.35 871 570.8 871 569.95 871 569.15 871.55 568.55 872.15 567.95 873 567.95 873.85 567.95 874.4 568.55 M890.4 560.55 Q891 561.15 891 561.95 891 562.8 890.4 563.35 889.85 563.95 889 563.95 888.15 563.95 887.55 563.35 887 562.8 887 561.95 887 561.15 887.55 560.55 888.15 559.95 889 559.95 889.85 559.95 890.4 560.55 M882.4 568.55 Q883 569.15 883 569.95 883 570.8 882.4 571.35 881.85 571.95 881 571.95 880.15 571.95 879.55 571.35 879 570.8 879 569.95 879 569.15 879.55 568.55 880.15 567.95 881 567.95 881.85 567.95 882.4 568.55 M889 567.95 Q889.85 567.95 890.4 568.55 891 569.15 891 569.95 891 570.8 890.4 571.35 889.85 571.95 889 571.95 888.15 571.95 887.55 571.35 887 570.8 887 569.95 887 569.15 887.55 568.55 888.15 567.95 889 567.95 M869.3 545 Q866.65 545 865.6 546.75 864.55 548.15 864.8 550.95 L867.35 574.2 Q867.8 578.3 871.9 578.3 L890.15 578.3 Q894.2 578.3 894.65 574.2 L897.2 550.95 Q897.5 548.15 896.4 546.75 895.35 545 892.7 545 L869.3 545 M726.15 443.85 Q737 454.7 737 470 737 485.3 726.15 496.15 715.3 507 700 507 684.6 507 673.8 496.15 663 485.3 663 470 663 454.7 673.8 443.8 L673.8 443.85 Q684.6 433 700 433 715.3 433 726.15 443.85 M726.15 533.85 Q737 544.7 737 560 737 575.3 726.15 586.15 715.3 597 700 597 684.6 597 673.8 586.15 663 575.3 663 560 663 544.7 673.8 533.8 L673.8 533.85 Q684.6 523 700 523 715.3 523 726.15 533.85 M713 549 Q708 544 701 544 693.95 544 688.95 548.95 L688.95 549 688.9 549 Q684 554 684 561 684 568.05 688.95 573.05 693.95 578 701 578 708 578 713 573.05 718 568.05 718 561 718 554 713 549 M708.55 553.45 Q711.65 556.6 711.65 561 711.65 565.45 708.55 568.55 L708.5 568.55 Q705.4 571.7 701 571.7 696.55 571.7 693.45 568.55 690.3 565.45 690.3 561 690.3 556.6 693.45 553.45 696.55 550.35 701 550.35 705.4 550.35 708.55 553.45 M705.25 556.75 Q703.45 555 701 555 698.45 555 696.7 556.75 694.95 558.5 694.95 561 694.95 563.5 696.7 565.25 698.45 567.05 701 567.05 703.45 567.05 705.25 565.25 707 563.5 707 561 707 558.5 705.25 556.75 M488 165 L488 210 Q488 211.25 488.9 212.15 489.75 213 491 213 L534.95 213 Q536.95 213 536.95 215 L536.95 266 Q536.95 268 534.95 268 L491 268 Q489.75 268 488.9 268.9 488 269.75 488 271 L488 314.95 Q488 316.95 486 316.95 L435 316.95 Q433 316.95 433 314.95 L433 271 Q433 269.75 432.15 268.9 431.25 268 430 268 L385 268 Q383 268 383 266 L383 215 Q383 213 385 213 L430 213 Q431.25 213 432.15 212.15 433 211.25 433 210 L433 165 Q433 163 435 163 L486 163 Q488 163 488 165 M590.35 195.3 L585.3 200.35 Q585 200.65 585 201 585 201.4 585.3 201.7 L590.35 206.7 590.35 206.75 Q590.65 207.05 591 207 L591.4 206.95 Q592 206.7 592 206.05 L592 196 Q592 195.35 591.4 195.1 590.8 194.85 590.35 195.3 M575 173 L613.75 173 641.25 200.5 613.75 228 575 228 Q573 228 573 226 L573 175 Q573 173 575 173 M356.95 165.2 L356.95 314.85 Q356.95 317 354.75 317 L205.1 317 Q202.95 317 202.95 314.85 L202.95 165.2 Q202.95 163 205.1 163 L354.75 163 Q356.95 163 356.95 165.2 M461 175 Q460.6 175 460.3 175.3 L455.3 180.35 455.25 180.35 Q454.95 180.65 455 181 L455.05 181.4 Q455.3 182 455.95 182 L466 182 Q466.65 182 466.9 181.4 467.15 180.8 466.7 180.35 L461.65 175.3 Q461.35 175 461 175 M324.95 113 Q324.85 115 322.75 115 L237.1 115 Q235.1 115 234.95 113.1 L234.95 27.2 Q234.95 25 237.1 25 L322.75 25 Q324.95 25 324.95 27.2 L324.95 113 M464 240 L464 239.5 Q463.8 238.15 462.85 237.15 461.65 236 460 236 458.4 236 457.2 237.15 456.2 238.15 456.05 239.5 L456 240 Q456 241.6 457.2 242.8 458.4 244 460 244 461.65 244 462.85 242.8 464 241.6 464 240 M395 241 Q395 241.4 395.3 241.7 L400.35 246.7 400.35 246.75 Q400.65 247.05 401 247 L401.4 246.95 Q402 246.7 402 246.05 L402 236 Q402 235.35 401.4 235.1 400.8 234.85 400.35 235.3 L395.3 240.35 Q395 240.65 395 241 M362.85 343 Q365 343 365 345.2 L365 383 Q364.95 385 362.85 385 L325.2 385 Q323.1 385 323 383.05 L323 345.2 Q323 343 325.2 343 L362.85 343 M347.5 358.8 Q347.15 356.15 345.15 354.3 343.45 352.55 341.2 352.15 L337.75 352.25 336.8 352.65 341.35 357 341.8 357.65 Q342.25 358.65 341.35 359.55 L339.45 361.5 Q338.25 362.8 336.95 361.5 L332.5 357 Q332.1 358.1 332.05 359.15 331.75 362.45 334.3 365.15 336.1 366.9 338.65 367.3 339.7 367.6 340.75 367.3 L343.5 369.95 343.45 370.05 348.1 374.7 Q349.5 376 351.35 376 353.4 376 354.65 374.7 356 373.4 356 371.45 L355.95 370.8 Q355.8 369.3 354.65 368.25 L347.35 361.1 347.5 359.95 347.5 358.95 347.5 358.8 M349.8 369.95 Q351.5 368.5 353.2 369.95 L353.85 370.95 353.95 371.6 Q353.95 372.55 353.2 373.3 352.5 373.95 351.5 373.95 350.55 373.95 349.8 373.3 349.15 372.55 349.15 371.6 L349.25 370.95 Q349.35 370.4 349.8 369.95 M403.8 353.85 Q414.6 343 430 343 445.3 343 456.15 353.85 467 364.7 467 380 467 395.3 456.15 406.15 445.3 417 430 417 414.6 417 403.8 406.15 393 395.3 393 380 393 364.7 403.8 353.8 L403.8 353.85 M466.7 299.65 Q467.15 299.2 466.9 298.6 466.65 298 466 298 L455.95 298 Q455.3 298 455.05 298.6 L455 299 Q454.95 299.35 455.25 299.65 L455.3 299.65 460.3 304.7 461 305 461.65 304.7 466.7 299.65 M431.35 363.3 L431.4 363.3 430 363 429.95 363 Q428.65 362.9 427.45 363.95 L427.4 364 427.25 364.2 413.15 377.9 413.2 377.9 Q412 379 412 380.5 412 381.85 413 383 L413.2 383.15 427.35 396.95 427.35 396.9 Q428.95 398.55 431.15 397.8 L431.45 397.75 Q433.85 396.7 434 394 L434 389 446 388.95 Q446.8 388.95 447.4 388.35 448 387.75 448 386.95 L448 374.05 Q448 373.15 447.35 372.65 446.75 372.1 446 372.1 L434 372.1 434 367 Q433.75 364.15 431.35 363.3 M525 241 L524.7 240.35 519.65 235.3 Q519.2 234.85 518.6 235.1 518 235.35 518 236 L518 246.05 Q518 246.7 518.6 246.95 L519 247 519.65 246.75 519.65 246.7 524.7 241.7 525 241 M522.65 364.15 Q521.05 362.5 518.85 363.25 L518.55 363.3 Q516.15 364.35 516 367.05 L516 372.05 504 372.1 Q503.2 372.1 502.6 372.7 502 373.3 502 374.1 L502 387 Q502 387.9 502.65 388.4 503.25 388.95 504 388.95 L516 388.95 516 394.05 Q516.25 396.9 518.65 397.75 L518.6 397.75 520 398.05 520.05 398.05 Q521.35 398.15 522.55 397.1 L522.6 397.05 522.75 396.85 536.85 383.15 536.8 383.15 Q538 382.05 538 380.55 538 379.2 537 378.05 L536.8 377.9 522.65 364.1 522.65 364.15 M493.8 353.85 Q504.6 343 520 343 535.3 343 546.15 353.85 557 364.7 557 380 557 395.3 546.15 406.15 535.3 417 520 417 504.6 417 493.8 406.15 483 395.3 483 380 483 364.7 493.8 353.8 L493.8 353.85 M583.8 353.85 Q594.6 343 610 343 625.3 343 636.15 353.85 647 364.7 647 380 647 395.3 636.15 406.15 625.3 417 610 417 594.6 417 583.8 406.15 573 395.3 573 380 573 364.7 583.8 353.8 L583.8 353.85 M594.15 377.35 Q592.5 378.95 593.25 381.15 L593.3 381.45 Q594.35 383.85 597.05 384 L602.05 384 602.1 396 Q602.1 396.8 602.7 397.4 603.3 398 604.1 398 L617 398 Q617.9 398 618.4 397.35 618.95 396.75 618.95 396 L618.95 384 624.05 384 Q626.9 383.75 627.75 381.35 L627.75 381.4 628.05 380 628.05 379.95 Q628.15 378.65 627.1 377.45 L627.05 377.4 626.85 377.25 613.15 363.15 613.15 363.2 Q612.05 362 610.55 362 609.2 362 608.05 363 L607.9 363.2 594.1 377.35 594.15 377.35 M313.85 67.15 Q312.65 66 311 66 309.4 66 308.2 67.15 307.2 68.15 307.05 69.5 L307 70 Q307 71.6 308.2 72.8 309.4 74 311 74 312.65 74 313.85 72.8 315 71.6 315 70 L315 69.5 Q314.8 68.15 313.85 67.15 M282.8 98.15 Q281.6 97 280 97 278.35 97 277.15 98.15 276.2 99.15 276.05 100.5 L276 101 Q276 102.6 277.15 103.8 278.35 105 280 105 281.6 105 282.8 103.8 284 102.6 284 101 L284 100.5 Q283.8 99.15 282.8 98.15 M251.85 67.15 Q250.65 66 249 66 247.4 66 246.2 67.15 245.2 68.15 245.05 69.5 L245 70 Q245 71.6 246.2 72.8 247.4 74 249 74 250.65 74 251.85 72.8 253 71.6 253 70 L253 69.5 Q252.8 68.15 251.85 67.15 M284 39 L284 38.5 Q283.8 37.15 282.8 36.15 281.6 35 280 35 278.35 35 277.15 36.15 276.2 37.15 276.05 38.5 L276 39 Q276 40.6 277.15 41.8 278.35 43 280 43 281.6 43 282.8 41.8 284 40.6 284 39 M131 66 Q129.4 66 128.2 67.15 127.2 68.15 127.05 69.5 L127 70 Q127 71.6 128.2 72.8 129.4 74 131 74 132.65 74 133.85 72.8 135 71.6 135 70 L135 69.5 Q134.8 68.15 133.85 67.15 132.65 66 131 66 M100 97 Q98.35 97 97.15 98.15 96.2 99.15 96.05 100.5 L96 101 Q96 102.6 97.15 103.8 98.35 105 100 105 101.6 105 102.8 103.8 104 102.6 104 101 L104 100.5 Q103.8 99.15 102.8 98.15 101.6 97 100 97 M100 35 Q98.35 35 97.15 36.15 96.2 37.15 96.05 38.5 L96 39 Q96 40.6 97.15 41.8 98.35 43 100 43 101.6 43 102.8 41.8 104 40.6 104 39 L104 38.5 Q103.8 37.15 102.8 36.15 101.6 35 100 35 M145.1 69.5 L144.8 75.7 Q143.95 82.9 140.95 89.25 137.7 96.1 131.9 101.95 118.65 115.15 100.1 115.15 81.35 115.15 68.25 101.95 55.65 89.25 55.15 71.75 L55.15 71.65 55.1 71.15 55.1 71.1 55.1 70.15 Q55.1 51.55 68.25 38.25 L68.25 38.3 Q81.35 25.15 100.1 25.15 118.65 25.15 131.85 38.3 137.7 44.15 140.95 51.1 144.95 59.5 145.1 69.5 M69 66 Q67.4 66 66.2 67.15 65.2 68.15 65.05 69.5 L65 70 Q65 71.6 66.2 72.8 67.4 74 69 74 70.65 74 71.85 72.8 73 71.6 73 70 L73 69.5 Q72.8 68.15 71.85 67.15 70.65 66 69 66 M45.45 185.55 Q67.95 163 100 163 131.85 163 154.4 185.55 177 208.15 177 240 177 271.85 154.4 294.4 131.85 317 100 317 67.95 317 45.45 294.4 23 271.85 23 240 23 208.15 45.45 185.5 L45.45 185.55 M65 345.2 L65 383 Q64.95 385 62.85 385 L25.2 385 Q23.1 385 23 383.05 L23 345.2 Q23 343 25.2 343 L62.85 343 Q65 343 65 345.2 M125 345.2 L125 383 Q124.95 385 122.85 385 L85.2 385 Q83.1 385 83 383.05 L83 345.2 Q83 343 85.2 343 L122.85 343 Q125 343 125 345.2 M145.2 343 L182.85 343 Q185 343 185 345.2 L185 383 Q184.95 385 182.85 385 L145.2 385 Q143.1 385 143 383.05 L143 345.2 Q143 343 145.2 343 M108 352 Q106 352 106 354 L106 374 Q106 376 108 376 L114 376 Q116 376 116 374 L116 354 Q116 352 114 352 L108 352 M92 354 L92 374 Q92 376 94 376 L100 376 Q102 376 102 374 L102 354 Q102 352 100 352 L94 352 Q92 352 92 354 M158.25 352.15 L158.2 352.15 Q157 352.65 157 353.9 L157 373.15 Q157 374.4 158.25 374.85 L158.95 375 Q159.65 375.05 160.25 374.5 L160.3 374.45 170.2 364.85 Q170.8 364.3 170.8 363.5 170.8 362.8 170.25 362.2 L170.2 362.2 160.3 352.55 Q159.4 351.7 158.25 352.15 M205.2 343 L242.85 343 Q245 343 245 345.2 L245 383 Q244.95 385 242.85 385 L205.2 385 Q203.1 385 203 383.05 L203 345.2 Q203 343 205.2 343 M236 360.75 L228.8 358.05 224.05 352 219.2 358.05 212 360.75 216.25 367.25 216.6 375 224.05 372.95 231.4 375 231.8 367.25 236 360.75 M305 345.2 L305 383 Q304.95 385 302.85 385 L265.2 385 Q263.1 385 263 383.05 L263 345.2 Q263 343 265.2 343 L302.85 343 Q305 343 305 345.2 M270.2 365.9 Q270.05 366.8 270.25 367.9 L270.25 367.95 Q270.7 370.8 273 373.1 L273.35 373.4 Q275.55 375.45 278.25 375.9 281.65 376.45 283.7 374.25 285.85 372.25 285.25 368.85 L285.3 368.8 Q284.95 366.95 284 365.35 L287.2 362.1 290.55 365.45 Q291.55 366.45 292.55 365.45 L293.25 364.7 293.4 364.35 293.3 364.05 292.8 363.55 294.6 361.75 295.1 362.25 295.4 362.4 295.75 362.2 296.5 361.45 Q297.5 360.5 296.5 359.5 L293.15 356.15 Q293.5 355.6 293.45 354.85 L293.4 354.85 Q293.4 354.2 293 353.7 L292.65 353.35 Q292.05 352.7 291.2 352.6 290.2 352.45 289.65 353.05 L280.65 362.1 Q279.1 361.1 277.4 360.8 L277.25 360.8 275.3 360.7 Q273.25 360.9 271.8 362.4 270.3 363.8 270.2 365.9 M285.5 415.35 L284.85 415.25 Q284.5 415.5 284.5 415.85 L284.95 420.15 Q273 422.6 271.15 432.45 276.4 429.25 284.85 429.05 L284.35 433.3 Q284.3 433.7 284.65 433.9 285.05 434.1 285.35 433.9 L296.5 425.45 296.55 425.45 296.75 425 296.55 424.5 285.5 415.35 M276.3 369.8 Q275.1 368.55 274.85 367.1 274.7 366.25 275.1 365.7 275.7 365.25 276.55 365.4 277.95 365.7 279.15 366.8 L279.25 366.9 279.55 367.2 Q280.45 368.3 280.7 369.55 L280.7 369.7 Q280.8 370.45 280.4 370.95 279.9 371.4 279.1 371.3 L279 371.25 Q277.7 371.05 276.65 370.1 L276.3 369.8 M323 405.2 Q323 403 325.2 403 L362.85 403 Q365 403 365 405.2 L365 443 Q364.95 445 362.85 445 L325.2 445 Q323.1 445 323 443.05 L323 405.2 M305 443 Q304.95 445 302.85 445 L265.2 445 Q263.1 445 263 443.05 L263 405.2 Q263 403 265.2 403 L302.85 403 Q305 403 305 405.2 L305 443 M245 443 Q244.95 445 242.85 445 L205.2 445 Q203.1 445 203 443.05 L203 405.2 Q203 403 205.2 403 L242.85 403 Q245 403 245 405.2 L245 443 M276 485 L292 485 292 494 276 494 276 485 M278 474 L290 474 290 481 278 481 278 474 M265.2 463 L302.85 463 Q305 463 305 465.2 L305 503 Q304.95 505 302.85 505 L265.2 505 Q263.1 505 263 503.05 L263 465.2 Q263 463 265.2 463 M289 475 L286 475 286 480 289 480 289 475 M295.95 476.1 L291.85 471.95 273 471.95 273 495.95 295.95 495.95 295.95 476.1 M185 405.2 L185 443 Q184.95 445 182.85 445 L145.2 445 Q143.1 445 143 443.05 L143 405.2 Q143 403 145.2 403 L182.85 403 Q185 403 185 405.2 M173.05 416.05 Q173.05 414 170.95 414 L161.4 414 Q159.35 414 159.35 416.05 L159.35 427.35 158.1 427.4 158.05 427.4 Q156.65 427.65 155.5 428.8 L155.45 428.85 Q154.2 430.15 154.05 431.9 153.85 433.75 155.05 434.9 156.2 436.1 158.05 435.95 L158.1 435.95 Q159.75 435.75 161 434.5 L161.05 434.4 Q162.55 433.05 162.55 431 L162.55 419.75 169.8 419.75 169.8 423.1 168.55 423.2 168.6 423.2 Q167.15 423.4 166 424.6 164.75 425.9 164.55 427.6 164.4 429.5 165.55 430.65 166.75 431.9 168.55 431.75 L168.6 431.75 Q170.3 431.6 171.6 430.2 L171.65 430.2 Q172.85 428.95 173.05 427 L173.05 426.9 173.05 416.05 M185 465.2 L185 503 Q184.95 505 182.85 505 L145.2 505 Q143.1 505 143 503.05 L143 465.2 Q143 463 145.2 463 L182.85 463 Q185 463 185 465.2 M165.1 480.95 Q165.1 482.7 163.85 483.95 L163.85 484 Q162.6 485.25 160.85 485.25 159.1 485.25 157.85 483.95 156.6 482.7 156.6 480.95 156.6 479.2 157.85 477.95 L157.9 477.9 Q159.1 476.65 160.85 476.65 162.6 476.65 163.85 477.9 165.1 479.2 165.1 480.95 M166.7 475.05 Q164.3 472.6 160.85 472.6 157.45 472.6 155.05 475.05 L155 475.05 Q152.6 477.5 152.6 480.95 152.6 484.4 155 486.85 157.45 489.3 160.85 489.3 162.95 489.3 164.65 488.4 L170.95 494.8 Q171.75 495.6 172.9 495.6 174 495.6 174.8 494.8 175.6 493.95 175.6 492.85 175.65 491.7 174.8 490.9 L168.4 484.4 Q169.15 482.85 169.15 480.95 169.15 477.5 166.7 475.05 M205.2 463 L242.85 463 Q245 463 245 465.2 L245 503 Q244.95 505 242.85 505 L205.2 505 Q203.1 505 203 503.05 L203 465.2 Q203 463 205.2 463 M212 493 Q212 495 214 495 L234 495 Q236 495 236 493 L236 491 Q236 489 234 489 L214 489 Q212 489 212 491 L212 493 M212 485 Q212 487 214 487 L234 487 Q236 487 236 485 L236 483 Q236 481 234 481 L214 481 Q212 481 212 483 L212 485 M212 477 Q212 479 214 479 L234 479 Q236 479 236 477 L236 475 Q236 473 234 473 L214 473 Q212 473 212 475 L212 477 M245 593 Q244.95 595 242.85 595 L145.2 595 Q143.1 595 143 593.05 L143 555.2 Q143 553 145.2 553 L242.85 553 Q245 553 245 555.2 L245 593 M263 555.2 Q263 553 265.2 553 L362.85 553 Q365 553 365 555.2 L365 593 Q364.95 595 362.85 595 L265.2 595 Q263.1 595 263 593.05 L263 555.2 M323 465.2 Q323 463 325.2 463 L362.85 463 Q365 463 365 465.2 L365 503 Q364.95 505 362.85 505 L325.2 505 Q323.1 505 323 503.05 L323 465.2 M125 405.2 L125 443 Q124.95 445 122.85 445 L85.2 445 Q83.1 445 83 443.05 L83 405.2 Q83 403 85.2 403 L122.85 403 Q125 403 125 405.2 M106.35 413 L96.85 421.75 Q96.1 421.3 95.15 421.3 93.85 421.3 92.9 422.2 92 423.15 92 424.5 92 425.8 92.9 426.7 93.85 427.7 95.15 427.7 96.1 427.7 96.8 427.2 L106.35 436 107.75 436 107.75 427.05 108.05 426.7 Q109 425.8 109 424.5 109 423.15 108.05 422.2 L107.75 421.95 107.75 413 106.35 413 M85.2 463 L122.85 463 Q125 463 125 465.2 L125 503 Q124.95 505 122.85 505 L85.2 505 Q83.1 505 83 503.05 L83 465.2 Q83 463 85.2 463 M99.6 477.5 Q97.85 476.3 95.75 475.6 L93.95 478 Q95.05 480 96.7 481.4 L96.35 483.1 96.35 484.85 Q94.4 485.75 92.8 487.25 L93.95 490 Q96.2 490 98.3 489.3 L99.6 490.45 101.1 491.35 Q100.9 493.5 101.35 495.6 L104.3 496 Q105.45 494.05 105.85 491.85 L107.55 491.35 109.05 490.45 Q110.7 491.65 112.85 492.35 L114.65 490 Q113.55 488 111.9 486.6 L112.25 484.85 112.25 483.1 Q114.2 482.25 115.8 480.75 L114.65 478 Q112.35 478 110.35 478.7 L109.05 477.5 107.55 476.65 Q107.7 474.5 107.25 472.4 L104.3 472 Q103.15 474 102.75 476.1 101.8 476.3 101.1 476.65 100.15 477.05 99.6 477.5 M100.9 483.6 Q101.15 481.65 102.95 480.85 L104.7 480.6 Q105.6 480.7 106.3 481.25 107.05 481.75 107.4 482.6 107.8 483.45 107.7 484.35 L107.05 486 Q106.5 486.75 105.65 487.1 L103.95 487.4 Q103 487.3 102.3 486.75 101.55 486.25 101.2 485.35 100.85 484.5 100.9 483.6 M65 405.2 L65 443 Q64.95 445 62.85 445 L25.2 445 Q23.1 445 23 443.05 L23 405.2 Q23 403 25.2 403 L62.85 403 Q65 403 65 405.2 M51.2 418 L50.05 421.15 Q50.9 421.3 51.55 422 52.8 423.25 52.8 425 52.8 426.7 51.55 428 50.9 428.65 50.05 428.85 L51.2 432 Q52.6 431.45 53.85 430.25 56.05 428.1 56.05 425 56.05 421.85 53.85 419.7 52.6 418.45 51.2 418 M46.35 413 L36.85 421.75 Q36.1 421.3 35.15 421.3 33.85 421.3 32.9 422.2 32 423.15 32 424.5 32 425.8 32.9 426.7 33.85 427.7 35.15 427.7 36.1 427.7 36.8 427.2 L46.35 436 47.75 436 47.75 427.05 48.05 426.7 Q49 425.8 49 424.5 49 423.15 48.05 422.2 L47.75 421.95 47.75 413 46.35 413 M25.2 463 L62.85 463 Q65 463 65 465.2 L65 503 Q64.95 505 62.85 505 L25.2 505 Q23.1 505 23 503.05 L23 465.2 Q23 463 25.2 463 M31.95 473 L31.95 480.95 34.05 478.9 36.4 481.2 40.2 477.4 37.85 475.1 39.95 473 31.95 473 M34.05 490.1 L31.95 488 31.95 496 39.95 496 37.85 493.9 40.2 491.55 36.4 487.75 34.05 490.1 M54.95 481 L54.95 473 47 473 49.1 475.1 46.75 477.4 50.55 481.2 52.9 478.9 54.95 481 M50.55 487.75 L46.75 491.55 49.1 493.9 47 496 54.95 496 54.95 488 52.9 490.1 50.55 487.75 M25.2 553 L122.85 553 Q125 553 125 555.2 L125 593 Q124.95 595 122.85 595 L25.2 595 Q23.1 595 23 593.05 L23 555.2 Q23 553 25.2 553 M636.15 443.85 Q647 454.7 647 470 647 485.3 636.15 496.15 625.3 507 610 507 594.6 507 583.8 496.15 573 485.3 573 470 573 454.7 583.8 443.8 L583.8 443.85 Q594.6 433 610 433 625.3 433 636.15 443.85 M493.8 443.85 Q504.6 433 520 433 535.3 433 546.15 443.85 557 454.7 557 470 557 485.3 546.15 496.15 535.3 507 520 507 504.6 507 493.8 496.15 483 485.3 483 470 483 454.7 493.8 443.8 L493.8 443.85 M493.8 533.85 Q504.6 523 520 523 535.3 523 546.15 533.85 557 544.7 557 560 557 575.3 546.15 586.15 535.3 597 520 597 504.6 597 493.8 586.15 483 575.3 483 560 483 544.7 493.8 533.8 L493.8 533.85 M518.25 559.55 L512.75 552.95 Q512.3 552.45 511.65 552.4 511 552.35 510.45 552.8 L503.95 558.4 Q503.45 558.8 503.4 559.5 503.35 560.15 503.8 560.65 L517.05 576.55 517.85 577.05 518.75 577.05 519.5 576.55 538.2 554.15 538.55 552.95 Q538.5 552.3 538 551.9 L531.45 546.3 Q530.95 545.85 530.3 545.9 529.65 546 529.25 546.5 L518.25 559.55 M636.15 533.85 Q647 544.7 647 560 647 575.3 636.15 586.15 625.3 597 610 597 594.6 597 583.8 586.15 573 575.3 573 560 573 544.7 583.8 533.8 L583.8 533.85 Q594.6 523 610 523 625.3 523 636.15 533.85 M599.35 546.8 L597.15 548.95 Q595 551.2 597.1 553.3 L604.75 560.85 596.8 568.85 Q594.7 570.95 596.8 573.05 L599 575.2 603.3 575.3 611.25 567.35 618.8 574.85 623.1 574.75 625.3 572.6 Q627.4 570.5 625.3 568.35 L617.75 560.85 624.95 553.75 Q627.15 551.65 624.95 549.4 L622.75 547.3 Q620.6 545.1 618.45 547.3 L611.25 554.45 603.6 546.8 Q601.5 544.7 599.35 546.8 M456.15 443.85 Q467 454.7 467 470 467 485.3 456.15 496.15 445.3 507 430 507 414.6 507 403.8 496.15 393 485.3 393 470 393 454.7 403.8 443.8 L403.8 443.85 Q414.6 433 430 433 445.3 433 456.15 443.85 M351.3 414 L342.55 424.35 337.7 418.65 333 422.65 342.55 434 356 418 351.3 414 M338.2 472.85 Q336.55 471.2 334.85 472.85 L333.15 474.55 Q331.45 476.3 333.1 477.95 L339.1 483.9 332.85 490.15 Q331.2 491.8 332.85 493.45 L334.6 495.15 Q336.3 496.85 337.95 495.2 L344.2 489 350.1 494.85 Q351.75 496.5 353.5 494.8 L355.2 493.1 Q356.85 491.45 355.2 489.75 L349.3 483.9 354.95 478.3 Q356.65 476.65 354.95 474.9 L353.2 473.25 Q351.55 471.55 349.85 473.25 L344.2 478.85 338.2 472.85 M403.8 533.85 Q414.6 523 430 523 445.3 523 456.15 533.85 467 544.7 467 560 467 575.3 456.15 586.15 445.3 597 430 597 414.6 597 403.8 586.15 393 575.3 393 560 393 544.7 403.8 533.8 L403.8 533.85 M432.35 543 Q432 542.8 431.45 543.2 431.1 543.65 431.2 544.15 L433.35 549.6 Q422.8 553.15 416.4 562.3 412.45 567.95 411.05 574.6 410.85 575.4 411.75 575.55 L422.15 577.9 422.8 577.8 423.2 577.25 Q424 572.8 426.65 569.2 430.3 563.85 436.45 561.45 L437.3 567.1 Q437.3 567.65 437.95 567.75 438.5 567.9 438.85 567.5 L450.75 552.5 450.8 552.5 450.95 551.8 450.45 551.25 432.35 543"/>
  </g>
</svg>