<svg xmlns="http://www.w3.org/2000/svg" xmlns:xlink="http://www.w3.org/1999/xlink">
  <defs/>
  <g>
    <path stroke="none" fill="#D4D4D4" d="M346.2 240.9 L346.5 241.55 346.2 242.25 341.15 247.25 341.15 247.3 340.5 247.55 340.1 247.5 Q339.5 247.25 339.5 246.6 L339.5 236.55 Q339.5 235.9 340.1 235.65 340.7 235.4 341.15 235.85 L346.2 240.9 M213.8 240.9 L218.85 235.85 Q219.3 235.4 219.9 235.65 220.5 235.9 220.5 236.55 L220.5 246.6 Q220.5 247.25 219.9 247.5 L219.5 247.55 218.85 247.3 218.85 247.25 213.8 242.25 213.5 241.55 Q213.5 241.2 213.8 240.9 M280 175.05 Q280.35 175.05 280.65 175.35 L285.7 180.4 Q286.15 180.85 285.9 181.45 285.65 182.05 285 182.05 L274.95 182.05 Q274.3 182.05 274.05 181.45 L274 181.05 Q273.95 180.7 274.25 180.4 L274.3 180.4 279.3 175.35 Q279.6 175.05 280 175.05 M285.9 301.65 Q286.15 302.25 285.7 302.7 L280.65 307.75 280 308.05 Q279.6 308.05 279.3 307.75 L274.3 302.7 274.25 302.7 Q273.95 302.4 274 302.05 L274.05 301.65 Q274.3 301.05 274.95 301.05 L285 301.05 Q285.65 301.05 285.9 301.65"/>
    <path stroke="none" fill="#D4D4D4" d="M461 175 Q461.35 175 461.65 175.3 L466.7 180.35 Q467.15 180.8 466.9 181.4 466.65 182 466 182 L455.95 182 Q455.3 182 455.05 181.4 L455 181 Q454.95 180.65 455.25 180.35 L455.3 180.35 460.3 175.3 Q460.6 175 461 175 M464 239.5 L464 240 Q464 241.6 462.85 242.8 461.65 244 460 244 458.4 244 457.2 242.8 456 241.6 456 240 L456.05 239.5 Q456.2 238.15 457.2 237.15 458.4 236 460 236 461.65 236 462.85 237.15 463.8 238.15 464 239.5 M395 241 Q395 240.65 395.3 240.35 L400.35 235.3 Q400.8 234.85 401.4 235.1 402 235.35 402 236 L402 246.05 Q402 246.7 401.4 246.95 L401 247 Q400.65 247.05 400.35 246.75 L400.35 246.7 395.3 241.7 Q395 241.4 395 241 M466.7 299.65 L461.65 304.7 461 305 460.3 304.7 455.3 299.65 455.25 299.65 Q454.95 299.35 455 299 L455.05 298.6 Q455.3 298 455.95 298 L466 298 Q466.65 298 466.9 298.6 467.15 299.2 466.7 299.65 M525 241 L524.7 241.7 519.65 246.7 519.65 246.75 519 247 518.6 246.95 Q518 246.7 518 246.05 L518 236 Q518 235.35 518.6 235.1 519.2 234.85 519.65 235.3 L524.7 240.35 525 241"/>
  </g>
</svg>