<?xml version="1.0" encoding="utf-8"?>
<!DOCTYPE svg PUBLIC "-//W3C//DTD SVG 1.1//EN" "http://www.w3.org/Graphics/SVG/1.1/DTD/svg11.dtd">
<svg version="1.1" xmlns="http://www.w3.org/2000/svg" xmlns:xlink="http://www.w3.org/1999/xlink" xmlns:ev="http://www.w3.org/2001/xml-events" width="1200.0px" height="600.0px" overflow="visible" viewBox="0.0 0.0 1200.0 600.0" enable-background="new 0.0 0.0 1200.0 600.0">
	<defs>
		<linearGradient id="Grad1" gradientUnits="userSpaceOnUse" gradientTransform="matrix(0.002670288 0.005340576 -0.012588501 0.00630188 675.0 282.2)" x1="-819.2" y1="0" x2="819.2" y2="0">
			<stop offset="0.0" stop-color="#9CD5E2"/>
			<stop offset="1.0" stop-color="#7BC7D9"/>
		</linearGradient>
		<linearGradient id="Grad2" gradientUnits="userSpaceOnUse" gradientTransform="matrix(-0.002670288 0.005340576 0.012588501 0.00630188 625.0 197.2)" x1="-819.2" y1="0" x2="819.2" y2="0">
			<stop offset="0.0" stop-color="#9CD5E2"/>
			<stop offset="1.0" stop-color="#88CDDD"/>
		</linearGradient>
		<linearGradient id="Grad3" gradientUnits="userSpaceOnUse" gradientTransform="matrix(0.002670288 0.005340576 -0.012588501 0.00630188 675.0 452.2)" x1="-819.2" y1="0" x2="819.2" y2="0">
			<stop offset="0.0" stop-color="#9CD5E2"/>
			<stop offset="1.0" stop-color="#7BC7D9"/>
		</linearGradient>
		<linearGradient id="Grad4" gradientUnits="userSpaceOnUse" gradientTransform="matrix(-0.002670288 0.005340576 0.012588501 0.00630188 625.0 367.2)" x1="-819.2" y1="0" x2="819.2" y2="0">
			<stop offset="0.0" stop-color="#9CD5E2"/>
			<stop offset="1.0" stop-color="#88CDDD"/>
		</linearGradient>
	</defs>
	<rect width="1200.0px" height="600.0px" x="0px" y="0px" fill="#FFFFFF"/>
	<g>
		<g transform="matrix(1.0 0.0 0.0 1.0 0.0 0.0)">
			<path fill="#D9D3BF" stroke-linecap="round" stroke-linejoin="round" d="M 288.8 426.9 L 307.5 417.55 L 313.8 414.4 L 307.5 411.25 L 313.75 408.1 L 320.05 411.3 L 326.25 408.15 L 326.85 408.45 L 332.5 411.25 L 282.5 436.25 L 276.25 433.15 L 282.5 430.05 L 276.25 426.9 L 282.5 423.75 L 288.8 426.9 Z M 276.25 433.15 L 276.3 433.15 Z M 313.75 408.1 L 313.8 408.15 Z M 307.5 448.75 L 357.5 423.75 L 363.2 426.6 L 363.75 426.9 L 357.55 430.0 L 363.75 433.1 C 363.48334 433.26666 363.2 433.41666 362.9 433.55 L 357.5 436.25 L 351.3 433.15 L 326.3 445.65 L 332.5 448.75 L 326.25 451.9 L 320.0 448.8 L 313.8 451.9 L 307.5 448.75 Z M 351.25 433.15 L 351.25 433.2 L 351.25 433.15 Z M 313.8 451.9 L 313.75 451.9 Z"/>
			<path fill="#8BB54A" stroke-linecap="round" stroke-linejoin="round" d="M 276.25 426.9 L 282.5 430.05 L 276.3 433.15 L 270.0 430.0 L 276.25 426.9 Z M 326.85 408.45 L 326.25 408.15 L 320.05 411.3 L 313.8 408.15 L 320.0 405.0 L 326.85 408.45 Z M 313.8 451.9 L 320.0 448.8 L 326.25 451.9 L 320.0 455.0 L 313.8 451.9 Z M 357.55 430.0 L 363.75 426.9 L 363.2 426.6 L 370.0 430.0 C 367.93332 431.06668 365.84998 432.11667 363.75 433.15 L 357.55 430.0 Z M 363.75 433.15 L 362.9 433.55 C 363.2 433.41666 363.48334 433.26666 363.75 433.1 Z"/>
			<path fill="#7DA343" stroke-linecap="round" stroke-linejoin="round" d="M 276.3 433.15 L 276.25 433.15 L 276.25 440.65 L 270.0 437.5 L 270.0 430.0 L 276.3 433.15 Z M 320.0 462.5 L 313.75 459.4 L 313.75 451.9 L 320.0 455.0 L 320.0 462.5 Z M 313.75 451.9 L 313.8 451.9 Z"/>
			<path fill="#BCB38F" stroke-linecap="round" stroke-linejoin="round" d="M 276.25 433.15 L 282.5 436.25 L 282.5 443.75 L 276.25 440.65 L 276.25 433.15 Z M 307.5 411.25 L 313.8 414.4 L 307.5 417.55 L 307.5 411.25 Z M 313.75 459.4 L 307.5 456.25 L 307.5 448.75 L 313.75 451.9 L 313.75 459.4 Z M 357.5 436.25 L 357.5 443.75 L 351.25 440.65 L 351.25 433.2 L 357.5 436.25 Z"/>
			<path fill="#6A6A6A" stroke-linecap="round" stroke-linejoin="round" d="M 282.5 436.25 L 332.5 411.25 L 357.5 423.75 L 307.5 448.75 L 282.5 436.25 Z"/>
			<path fill="#BB8D5D" stroke-linecap="round" stroke-linejoin="round" d="M 276.25 440.65 L 282.5 443.75 L 307.5 456.25 L 313.75 459.4 L 320.0 462.5 L 320.0 470.0 L 270.0 445.0 L 270.0 437.5 L 276.25 440.65 Z"/>
			<path fill="#9E7758" stroke-linecap="round" stroke-linejoin="round" d="M 320.0 470.0 L 320.0 462.5 L 326.25 459.4 L 330.75 457.15 L 332.5 456.3 L 357.45 443.75 L 370.0 437.5 L 370.0 445.0 L 320.0 470.0 Z M 357.45 443.75 L 357.5 443.8 Z M 332.5 456.3 L 332.5 456.25 Z"/>
			<path fill="#595959" stroke-linecap="round" stroke-linejoin="round" d="M 307.5 456.25 L 282.5 443.75 L 282.5 436.25 L 307.5 448.75 L 307.5 456.25 Z"/>
			<path fill="#ACA075" stroke-linecap="round" stroke-linejoin="round" d="M 326.25 451.9 L 332.5 448.75 L 326.3 445.65 L 351.25 433.2 L 351.25 440.65 L 332.5 450.0 L 332.5 456.25 L 330.75 457.15 L 326.25 459.4 L 326.25 451.9 Z M 357.5 436.25 L 362.9 433.55 L 363.75 433.15 L 363.75 440.6 C 361.68332 441.6667 359.59998 442.71667 357.5 443.75 L 357.5 436.25 Z"/>
			<path fill="#9CD5E2" stroke-linecap="round" stroke-linejoin="round" d="M 332.5 450.0 L 351.25 440.65 L 357.5 443.75 L 332.5 456.25 L 332.5 450.0 Z M 357.5 443.75 L 357.45 443.75 Z"/>
			<path fill="#74973E" stroke-linecap="round" stroke-linejoin="round" d="M 357.5 443.8 L 357.5 443.75 C 359.6 442.71667 361.68335 441.6667 363.75 440.6 L 363.75 433.15 C 365.85 432.11667 367.93335 431.06668 370.0 430.0 L 370.0 437.5 L 357.5 443.8 Z M 320.0 455.0 L 326.25 451.9 L 326.25 459.4 L 320.0 462.5 L 320.0 455.0 Z M 332.5 456.25 L 332.5 456.3 L 330.75 457.15 L 332.5 456.25 Z"/>
			<path fill="#7DA343" stroke-linecap="round" stroke-linejoin="round" d="M 270.0 352.5 L 270.0 345.0 L 276.25 348.15 L 276.25 355.6 L 282.5 358.75 L 270.0 352.5 Z M 282.5 358.75 L 282.5 358.8 Z M 320.0 370.0 L 320.0 377.5 L 313.75 374.4 L 313.75 366.9 L 320.0 370.0 Z M 313.75 366.9 L 313.35 366.7 L 313.8 366.9 Z M 307.5 371.3 L 307.5 371.25 L 309.3 372.15 L 307.5 371.3 Z"/>
			<path fill="#8BB54A" stroke-linecap="round" stroke-linejoin="round" d="M 270.0 345.0 L 276.25 341.9 L 282.45 345.0 L 276.25 348.1 L 270.0 345.0 Z M 276.25 348.1 L 277.15 348.55 L 276.25 348.15 Z M 313.8 323.15 L 320.0 320.0 L 326.25 323.15 L 320.0 326.3 L 313.8 323.15 Z M 363.2 341.6 L 370.0 345.0 C 367.93332 346.06668 365.84998 347.11667 363.75 348.15 L 357.5 345.05 C 359.6 344.01666 361.68335 342.96667 363.75 341.9 L 363.2 341.6 Z M 313.8 366.9 L 320.0 363.8 L 326.25 366.9 L 320.0 370.0 L 313.8 366.9 Z"/>
			<path fill="#D9D3BF" stroke-linecap="round" stroke-linejoin="round" d="M 276.25 341.9 L 282.5 338.75 L 332.5 363.75 L 326.25 366.9 L 320.0 363.8 L 313.8 366.9 L 313.35 366.7 L 307.5 363.75 L 313.7 360.65 L 288.75 348.2 L 282.5 351.25 L 277.85 348.9 L 277.15 348.55 L 276.25 348.1 L 282.45 345.0 L 276.25 341.9 Z M 288.75 348.2 L 288.75 348.15 Z M 313.75 323.15 L 313.8 323.15 L 320.0 326.3 L 326.25 323.15 L 332.5 326.25 L 326.25 329.4 L 332.5 332.55 L 351.25 341.9 C 353.35 340.86667 355.43335 339.81668 357.5 338.75 L 363.2 341.6 L 363.75 341.9 C 361.68332 342.96667 359.59998 344.01666 357.5 345.05 L 363.75 348.15 L 357.5 351.25 L 307.5 326.25 L 313.75 323.15 Z M 326.25 323.15 L 326.25 323.1 Z"/>
			<path fill="#6A6A6A" stroke-linecap="round" stroke-linejoin="round" d="M 282.5 338.75 L 307.5 326.25 L 357.5 351.25 L 332.5 363.75 L 282.5 338.75 Z"/>
			<path fill="#ACA075" stroke-linecap="round" stroke-linejoin="round" d="M 332.5 326.25 L 332.5 332.55 L 326.25 329.4 L 332.5 326.25 Z M 363.75 348.15 L 363.75 355.65 L 357.5 358.75 L 357.5 351.25 L 363.75 348.15 Z M 332.5 363.75 L 332.5 371.25 L 326.25 374.4 L 326.25 366.9 L 332.5 363.75 Z M 288.75 348.15 L 288.75 348.2 L 288.75 355.65 L 282.5 358.75 L 282.5 351.25 L 288.75 348.15 Z"/>
			<path fill="#74973E" stroke-linecap="round" stroke-linejoin="round" d="M 370.0 345.0 L 370.0 352.5 C 367.93332 353.56668 365.84998 354.61667 363.75 355.65 L 363.75 348.15 C 365.85 347.11667 367.93335 346.06668 370.0 345.0 Z M 320.0 370.0 L 326.25 366.9 L 326.25 374.4 L 320.0 377.5 L 320.0 370.0 Z"/>
			<path fill="#9E7758" stroke-linecap="round" stroke-linejoin="round" d="M 370.0 352.5 L 370.0 360.0 L 320.0 385.0 L 320.0 377.5 L 326.25 374.4 L 332.5 371.25 L 357.5 358.75 L 363.75 355.65 C 365.85 354.61667 367.93335 353.56668 370.0 352.5 Z"/>
			<path fill="#BB8D5D" stroke-linecap="round" stroke-linejoin="round" d="M 320.0 385.0 L 270.0 360.0 L 270.0 352.5 L 282.5 358.8 L 307.5 371.25 L 309.3 372.15 L 313.75 374.4 L 320.0 377.5 L 320.0 385.0 Z M 282.5 358.8 L 282.55 358.75 Z M 307.5 371.25 L 307.5 371.3 Z"/>
			<path fill="#BCB38F" stroke-linecap="round" stroke-linejoin="round" d="M 282.5 358.75 L 276.25 355.6 L 276.25 348.15 L 277.15 348.55 L 277.85 348.9 L 282.5 351.25 L 282.5 358.75 Z M 288.75 348.2 L 313.7 360.65 L 307.5 363.75 L 313.35 366.7 L 313.75 366.9 L 313.75 374.4 L 309.3 372.15 L 307.5 371.25 L 307.5 365.0 L 288.75 355.65 L 288.75 348.2 Z"/>
			<path fill="#515151" stroke-linecap="round" stroke-linejoin="round" d="M 357.5 351.25 L 357.5 358.75 L 332.5 371.25 L 332.5 363.75 L 357.5 351.25 Z"/>
			<path fill="#9CD5E2" stroke-linecap="round" stroke-linejoin="round" d="M 282.55 358.75 L 282.5 358.75 L 288.75 355.65 L 307.5 365.0 L 307.5 371.25 L 282.55 358.75 Z"/>
			<path fill="#8BB54A" stroke-linecap="round" stroke-linejoin="round" d="M 313.8 153.15 L 320.0 150.0 L 332.5 156.25 L 326.25 159.4 L 313.8 153.15 Z M 351.25 171.9 C 353.35 170.86667 355.43335 169.81667 357.5 168.75 L 370.0 175.0 C 367.93332 176.06667 365.84998 177.11667 363.75 178.15 L 351.25 171.9 Z M 270.0 175.0 L 276.3 171.9 L 288.75 178.15 L 282.5 181.25 L 270.0 175.0 Z M 307.5 193.75 L 313.7 190.65 L 326.25 196.9 L 320.0 200.0 L 307.5 193.75 Z"/>
			<path fill="#74973E" stroke-linecap="round" stroke-linejoin="round" d="M 332.5 156.25 L 332.5 162.55 L 326.25 159.4 L 332.5 156.25 Z M 370.0 175.0 L 370.0 182.5 C 367.93332 183.56667 365.84998 184.61667 363.75 185.65 L 363.75 178.15 C 365.85 177.11667 367.93335 176.06667 370.0 175.0 Z M 288.75 178.15 L 288.75 178.2 L 288.75 185.65 L 282.5 188.75 L 282.5 181.25 L 288.75 178.15 Z M 320.0 200.0 L 326.25 196.9 L 326.25 204.4 L 320.0 207.5 L 320.0 200.0 Z"/>
			<path fill="#D9D3BF" stroke-linecap="round" stroke-linejoin="round" d="M 332.5 162.55 L 351.25 171.9 L 363.75 178.15 L 357.5 181.25 L 307.5 156.25 L 313.6 153.25 L 313.75 153.15 L 326.25 159.4 L 332.5 162.55 Z M 313.75 153.15 L 313.8 153.15 Z M 282.5 168.75 L 332.5 193.75 L 326.25 196.9 L 313.7 190.65 L 288.75 178.2 L 276.3 171.9 L 282.5 168.75 Z M 276.3 171.9 L 276.7 171.7 L 276.25 171.9 Z M 288.75 178.2 L 288.75 178.15 Z"/>
			<path fill="#9E7758" stroke-linecap="round" stroke-linejoin="round" d="M 370.0 182.5 L 370.0 190.0 L 320.0 215.0 L 320.0 207.5 L 326.25 204.4 L 332.5 201.25 L 357.5 188.75 L 363.75 185.65 C 365.85 184.61667 367.93335 183.56667 370.0 182.5 Z"/>
			<path fill="#BB8D5D" stroke-linecap="round" stroke-linejoin="round" d="M 320.0 215.0 L 270.0 190.0 L 270.0 182.5 L 282.5 188.8 L 307.5 201.25 L 320.0 207.5 L 320.0 215.0 Z M 282.5 188.8 L 282.55 188.75 Z M 307.5 201.25 L 307.5 201.3 Z"/>
			<path fill="#7DA343" stroke-linecap="round" stroke-linejoin="round" d="M 270.0 182.5 L 270.0 175.0 L 282.5 181.25 L 282.5 188.75 L 270.0 182.5 Z M 282.5 188.75 L 282.5 188.8 Z M 307.5 195.0 L 307.5 193.75 L 320.0 200.0 L 320.0 207.5 L 307.5 201.3 L 307.5 195.0 Z M 307.5 201.3 L 307.5 201.25 Z"/>
			<path fill="#6A6A6A" stroke-linecap="round" stroke-linejoin="round" d="M 282.5 168.75 L 307.5 156.25 L 357.5 181.25 L 332.5 193.75 L 282.5 168.75 Z"/>
			<path fill="#ACA075" stroke-linecap="round" stroke-linejoin="round" d="M 363.75 178.15 L 363.75 185.65 L 357.5 188.75 L 357.5 181.25 L 363.75 178.15 Z M 332.5 193.75 L 332.5 201.25 L 326.25 204.4 L 326.25 196.9 L 332.5 193.75 Z"/>
			<path fill="#515151" stroke-linecap="round" stroke-linejoin="round" d="M 357.5 181.25 L 357.5 188.75 L 332.5 201.25 L 332.5 193.75 L 357.5 181.25 Z"/>
			<path fill="#BCB38F" stroke-linecap="round" stroke-linejoin="round" d="M 313.7 190.65 L 307.5 193.75 L 307.5 195.0 L 288.75 185.65 L 288.75 178.2 L 313.7 190.65 Z"/>
			<path fill="#9CD5E2" stroke-linecap="round" stroke-linejoin="round" d="M 288.75 185.65 L 307.5 195.0 L 307.5 201.25 L 282.55 188.75 L 288.75 185.65 Z M 282.55 188.75 L 282.5 188.75 Z"/>
			<path fill="#D9D3BF" stroke-linecap="round" stroke-linejoin="round" d="M 313.75 244.4 L 326.25 238.15 L 332.5 241.25 L 282.5 266.25 L 276.25 263.15 L 288.75 256.9 L 307.5 247.55 L 313.75 244.4 Z M 357.5 253.75 L 363.75 256.9 L 351.25 263.15 L 326.3 275.65 L 313.75 281.9 L 307.5 278.75 L 357.5 253.75 Z M 351.25 263.15 L 351.25 263.2 Z"/>
			<path fill="#8BB54A" stroke-linecap="round" stroke-linejoin="round" d="M 326.25 238.15 L 313.75 244.4 L 307.5 241.25 L 320.0 235.0 L 326.25 238.15 Z M 288.75 256.9 L 276.25 263.15 L 270.0 260.0 L 282.5 253.75 L 288.75 256.9 Z M 351.25 263.15 L 363.75 256.9 L 370.0 260.0 L 357.5 266.25 L 351.25 263.15 Z M 313.75 281.9 L 326.3 275.65 L 332.5 278.75 L 320.0 285.0 L 313.75 281.9 Z"/>
			<path fill="#7DA343" stroke-linecap="round" stroke-linejoin="round" d="M 307.5 241.25 L 313.75 244.4 L 307.5 247.55 L 307.5 241.25 Z M 351.25 263.2 L 351.25 263.15 L 357.5 266.25 L 357.5 273.75 L 351.25 270.65 L 351.25 263.2 Z M 270.0 260.0 L 276.25 263.15 L 276.25 270.65 L 270.0 267.5 L 270.0 260.0 Z M 313.75 289.4 L 313.75 281.9 L 320.0 285.0 L 320.0 292.5 L 313.75 289.4 Z"/>
			<path fill="#BCB38F" stroke-linecap="round" stroke-linejoin="round" d="M 276.25 263.15 L 282.5 266.25 L 282.5 273.75 L 276.25 270.65 L 276.25 263.15 Z M 307.5 278.75 L 313.75 281.9 L 313.75 289.4 L 307.5 286.25 L 307.5 278.75 Z"/>
			<path fill="#6A6A6A" stroke-linecap="round" stroke-linejoin="round" d="M 282.5 266.25 L 332.5 241.25 L 357.5 253.75 L 307.5 278.75 L 282.5 266.25 Z"/>
			<path fill="#74973E" stroke-linecap="round" stroke-linejoin="round" d="M 357.5 266.25 L 370.0 260.0 L 370.0 267.5 L 357.5 273.8 L 357.5 266.25 Z M 357.5 273.8 L 357.5 273.75 Z M 320.0 285.0 L 332.5 278.75 L 332.5 280.0 L 332.5 286.25 L 320.0 292.5 L 320.0 285.0 Z M 332.5 286.25 L 332.5 286.3 Z"/>
			<path fill="#ACA075" stroke-linecap="round" stroke-linejoin="round" d="M 326.3 275.65 L 351.25 263.2 L 351.25 270.65 L 332.5 280.0 L 332.5 278.75 L 326.3 275.65 Z"/>
			<path fill="#BB8D5D" stroke-linecap="round" stroke-linejoin="round" d="M 276.25 270.65 L 282.5 273.75 L 307.5 286.25 L 313.75 289.4 L 320.0 292.5 L 320.0 300.0 L 270.0 275.0 L 270.0 267.5 L 276.25 270.65 Z"/>
			<path fill="#595959" stroke-linecap="round" stroke-linejoin="round" d="M 282.5 273.75 L 282.5 266.25 L 307.5 278.75 L 307.5 286.25 L 282.5 273.75 Z"/>
			<path fill="#9E7758" stroke-linecap="round" stroke-linejoin="round" d="M 320.0 300.0 L 320.0 292.5 L 332.5 286.3 L 357.45 273.75 L 370.0 267.5 L 370.0 275.0 L 320.0 300.0 Z M 357.45 273.75 L 357.5 273.8 Z M 332.5 286.3 L 332.5 286.25 Z"/>
			<path fill="#9CD5E2" stroke-linecap="round" stroke-linejoin="round" d="M 357.5 273.75 L 357.45 273.75 L 332.5 286.25 L 332.5 280.0 L 351.25 270.65 L 357.5 273.75 Z"/>
			<path fill="#BB8D5D" stroke-linecap="round" stroke-linejoin="round" d="M 380.0 445.0 L 380.0 437.5 L 430.0 462.5 L 430.0 470.0 L 380.0 445.0 Z"/>
			<path fill="#9E7758" stroke-linecap="round" stroke-linejoin="round" d="M 430.0 470.0 L 430.0 462.5 L 442.5 456.3 L 467.45 443.75 L 480.0 437.5 L 480.0 445.0 L 430.0 470.0 Z M 467.45 443.75 L 467.5 443.8 Z M 442.5 456.3 L 442.5 456.25 Z"/>
			<path fill="#7DA343" stroke-linecap="round" stroke-linejoin="round" d="M 430.0 462.5 L 380.0 437.5 L 430.0 455.0 L 430.0 462.5 Z M 467.5 436.25 L 467.5 443.75 L 417.5 418.75 L 467.5 436.25 Z"/>
			<path fill="#9ABE63" stroke-linecap="round" stroke-linejoin="round" d="M 380.0 437.5 L 392.5 431.25 L 442.5 448.75 L 430.0 455.0 L 380.0 437.5 Z M 417.5 418.75 L 430.0 412.5 L 480.0 430.0 L 467.5 436.25 L 417.5 418.75 Z"/>
			<path fill="#9CD5E2" stroke-linecap="round" stroke-linejoin="round" d="M 392.5 431.25 L 417.5 418.75 L 467.5 443.75 L 442.5 456.25 L 442.5 448.75 L 392.5 431.25 Z M 467.5 443.75 L 467.45 443.75 Z"/>
			<path fill="#74973E" stroke-linecap="round" stroke-linejoin="round" d="M 480.0 430.0 L 480.0 437.5 L 467.5 443.8 L 467.5 436.25 L 480.0 430.0 Z M 467.5 443.8 L 467.5 443.75 Z M 430.0 462.5 L 430.0 455.0 L 442.5 448.75 L 442.5 456.25 L 430.0 462.5 Z M 442.5 456.25 L 442.5 456.3 Z"/>
			<path fill="#74973E" stroke-linecap="round" stroke-linejoin="round" d="M 392.5 358.75 L 392.5 351.25 L 442.5 333.75 L 392.5 358.75 Z M 430.0 377.5 L 430.0 370.0 L 480.0 352.5 L 430.0 377.5 Z"/>
			<path fill="#7DA343" stroke-linecap="round" stroke-linejoin="round" d="M 380.0 345.0 L 392.5 351.25 L 392.5 358.75 L 380.0 352.5 L 380.0 345.0 Z M 392.5 358.75 L 392.5 358.8 Z M 417.5 363.75 L 430.0 370.0 L 430.0 377.5 L 417.5 371.3 L 417.5 363.75 Z M 417.5 371.3 L 417.5 371.25 Z"/>
			<path fill="#93BA56" stroke-linecap="round" stroke-linejoin="round" d="M 392.5 351.25 L 380.0 345.0 L 430.0 327.5 L 442.5 333.75 L 392.5 351.25 Z M 430.0 370.0 L 417.5 363.75 L 467.5 346.25 L 480.0 352.5 L 430.0 370.0 Z"/>
			<path fill="#BB8D5D" stroke-linecap="round" stroke-linejoin="round" d="M 392.5 358.8 L 392.55 358.75 L 417.5 371.25 L 430.0 377.5 L 430.0 385.0 L 380.0 360.0 L 380.0 352.5 L 392.5 358.8 Z M 417.5 371.25 L 417.5 371.3 Z"/>
			<path fill="#9CD5E2" stroke-linecap="round" stroke-linejoin="round" d="M 392.55 358.75 L 392.5 358.75 L 442.5 333.75 L 467.5 346.25 L 417.5 363.75 L 417.5 371.25 L 392.55 358.75 Z"/>
			<path fill="#9E7758" stroke-linecap="round" stroke-linejoin="round" d="M 480.0 352.5 L 480.0 360.0 L 430.0 385.0 L 430.0 377.5 L 480.0 352.5 Z"/>
			<path fill="#7DA343" stroke-linecap="round" stroke-linejoin="round" d="M 417.5 248.75 L 417.5 241.25 L 467.2 273.6 L 417.5 248.75 Z M 380.0 267.5 L 380.0 260.0 L 429.7 292.35 L 380.0 267.5 Z"/>
			<path fill="#9CD5E2" stroke-linecap="round" stroke-linejoin="round" d="M 417.5 248.75 L 467.2 273.6 L 467.5 273.75 L 442.5 286.25 L 442.5 286.15 L 399.05 258.0 L 417.5 248.75 Z M 467.5 273.75 L 467.45 273.75 Z"/>
			<path fill="#9ABE63" stroke-linecap="round" stroke-linejoin="round" d="M 467.2 273.6 L 417.5 241.25 L 430.0 235.0 L 479.9 267.55 L 467.55 273.8 L 467.2 273.6 Z M 467.55 273.8 L 467.5 273.75 Z M 380.0 260.0 L 392.5 253.75 L 399.05 258.0 L 442.5 286.15 L 442.5 286.25 L 430.0 292.5 L 429.7 292.35 L 380.0 260.0 Z M 442.5 286.25 L 442.5 286.3 Z"/>
			<path fill="#9E7758" stroke-linecap="round" stroke-linejoin="round" d="M 479.9 267.55 L 480.0 267.5 L 480.0 275.0 L 430.0 300.0 L 430.0 292.5 L 442.5 286.3 L 467.45 273.75 L 467.5 273.8 L 479.9 267.55 Z M 442.5 286.3 L 442.5 286.25 Z M 467.5 273.8 L 467.55 273.8 Z"/>
			<path fill="#BB8D5D" stroke-linecap="round" stroke-linejoin="round" d="M 430.0 300.0 L 380.0 275.0 L 380.0 267.5 L 429.7 292.35 L 430.0 292.5 L 430.0 300.0 Z"/>
			<path fill="#74973E" stroke-linecap="round" stroke-linejoin="round" d="M 480.0 175.0 L 480.0 182.5 L 430.45 207.3 L 480.0 175.0 Z M 442.5 156.25 L 442.5 163.75 L 392.8 188.6 L 442.5 156.25 Z"/>
			<path fill="#9E7758" stroke-linecap="round" stroke-linejoin="round" d="M 480.0 182.5 L 480.0 190.0 L 430.0 215.0 L 430.0 207.5 L 430.45 207.3 L 480.0 182.5 Z"/>
			<path fill="#BB8D5D" stroke-linecap="round" stroke-linejoin="round" d="M 430.0 215.0 L 380.0 190.0 L 380.0 182.5 L 380.15 182.6 L 392.5 188.8 L 417.5 201.25 L 417.65 201.4 L 430.0 207.5 L 430.0 215.0 Z M 417.5 201.25 L 417.5 201.3 Z M 392.5 188.8 L 392.55 188.75 Z"/>
			<path fill="#93BA56" stroke-linecap="round" stroke-linejoin="round" d="M 380.15 182.6 L 430.0 150.0 L 442.5 156.25 L 392.8 188.6 L 392.5 188.75 L 380.15 182.6 Z M 392.5 188.75 L 392.5 188.8 Z M 461.0 173.0 L 467.5 168.75 L 480.0 175.0 L 430.45 207.3 L 430.0 207.5 L 417.65 201.4 L 461.0 173.0 Z"/>
			<path fill="#9CD5E2" stroke-linecap="round" stroke-linejoin="round" d="M 442.5 163.75 L 461.0 173.0 L 417.65 201.4 L 417.5 201.3 L 392.55 188.75 L 392.8 188.6 L 442.5 163.75 Z M 392.55 188.75 L 392.5 188.75 Z M 417.5 201.3 L 417.5 201.25 Z"/>
			<path fill="#7DA343" stroke-linecap="round" stroke-linejoin="round" d="M 392.5 188.8 L 392.5 188.75 L 392.5 188.8 Z"/>
			<path fill="#DFDBCA" stroke-linecap="round" stroke-linejoin="round" d="M 527.5 418.75 L 533.8 415.6 L 583.75 433.15 L 577.5 436.25 L 527.5 418.75 Z M 496.3 434.35 L 502.5 431.25 L 552.5 448.75 L 546.25 451.9 L 496.3 434.35 Z M 546.25 451.9 L 546.2 451.9 Z"/>
			<path fill="#9ABE63" stroke-linecap="round" stroke-linejoin="round" d="M 533.8 415.6 L 540.0 412.5 L 590.0 430.0 L 583.75 433.15 L 533.8 415.6 Z M 490.0 437.5 L 496.3 434.35 L 546.2 451.9 L 540.0 455.0 L 490.0 437.5 Z"/>
			<path fill="#74973E" stroke-linecap="round" stroke-linejoin="round" d="M 590.0 430.0 L 590.0 437.5 L 583.75 440.65 L 583.75 433.15 L 590.0 430.0 Z M 546.2 459.45 L 540.0 462.5 L 540.0 455.0 L 546.2 451.9 L 546.2 459.45 Z"/>
			<path fill="#9E7758" stroke-linecap="round" stroke-linejoin="round" d="M 590.0 437.5 L 590.0 445.0 L 540.0 470.0 L 540.0 462.5 L 546.2 459.45 L 552.5 456.3 L 577.45 443.75 L 577.55 443.8 L 583.75 440.65 L 590.0 437.5 Z M 577.45 443.75 L 577.5 443.8 Z M 552.5 456.3 L 552.5 456.25 Z"/>
			<path fill="#BB8D5D" stroke-linecap="round" stroke-linejoin="round" d="M 540.0 470.0 L 490.0 445.0 L 490.0 437.5 L 540.0 462.5 L 540.0 470.0 Z"/>
			<path fill="#9CD5E2" stroke-linecap="round" stroke-linejoin="round" d="M 502.5 431.25 L 527.5 418.75 L 577.5 443.75 L 552.5 456.25 L 552.5 448.75 L 502.5 431.25 Z M 577.5 443.75 L 577.45 443.75 Z"/>
			<path fill="#BCB38F" stroke-linecap="round" stroke-linejoin="round" d="M 527.5 418.75 L 577.5 436.25 L 577.5 443.75 L 527.5 418.75 Z"/>
			<path fill="#ACA075" stroke-linecap="round" stroke-linejoin="round" d="M 577.5 436.25 L 583.75 433.15 L 583.75 440.65 L 577.55 443.8 L 577.5 436.25 Z M 577.55 443.8 L 577.5 443.75 Z M 546.2 451.9 L 546.25 451.9 L 552.5 448.75 L 552.5 456.25 L 546.2 459.45 L 546.2 451.9 Z M 552.5 456.25 L 552.5 456.3 Z"/>
			<path fill="#7DA343" stroke-linecap="round" stroke-linejoin="round" d="M 540.0 455.0 L 540.0 462.5 L 490.0 437.5 L 540.0 455.0 Z"/>
			<path fill="#DFDBCA" stroke-linecap="round" stroke-linejoin="round" d="M 496.3 348.2 L 496.3 348.15 L 546.25 330.6 L 552.5 333.75 L 502.5 351.25 L 496.3 348.2 Z M 533.8 366.9 L 533.75 366.9 L 527.5 363.75 L 577.5 346.25 L 583.75 349.35 L 533.8 366.9 Z"/>
			<path fill="#93BA56" stroke-linecap="round" stroke-linejoin="round" d="M 540.0 327.5 L 546.25 330.6 L 496.3 348.15 L 490.0 345.0 L 540.0 327.5 Z M 496.3 348.15 L 496.3 348.2 L 496.3 348.15 Z M 590.0 352.5 L 540.0 370.0 L 533.8 366.95 L 583.75 349.35 L 590.0 352.5 Z M 533.8 366.95 L 533.8 366.9 Z"/>
			<path fill="#7DA343" stroke-linecap="round" stroke-linejoin="round" d="M 496.3 348.15 L 496.3 348.2 L 496.3 355.7 L 490.0 352.5 L 490.0 345.0 L 496.3 348.15 Z M 502.5 358.75 L 502.5 358.8 L 502.5 358.75 Z M 540.0 377.5 L 533.8 374.45 L 533.8 366.95 L 540.0 370.0 L 540.0 377.5 Z M 533.75 366.9 L 533.8 366.9 L 533.75 366.9 Z"/>
			<path fill="#BCB38F" stroke-linecap="round" stroke-linejoin="round" d="M 496.3 348.2 L 502.5 351.25 L 502.5 358.75 L 496.3 355.7 L 496.3 348.2 Z M 502.5 358.75 L 502.5 358.8 Z M 527.5 371.3 L 527.5 371.25 L 527.5 363.75 L 533.75 366.9 L 533.8 374.45 L 527.5 371.3 Z M 533.75 366.9 L 533.8 366.9 L 533.8 366.95 Z"/>
			<path fill="#ACA075" stroke-linecap="round" stroke-linejoin="round" d="M 502.5 351.25 L 552.5 333.75 L 502.5 358.75 L 502.5 351.25 Z"/>
			<path fill="#BB8D5D" stroke-linecap="round" stroke-linejoin="round" d="M 490.0 352.5 L 496.3 355.7 L 502.5 358.8 L 527.5 371.25 L 533.8 374.45 L 540.0 377.5 L 540.0 385.0 L 490.0 360.0 L 490.0 352.5 Z M 502.5 358.8 L 502.55 358.75 Z M 527.5 371.25 L 527.5 371.3 Z"/>
			<path fill="#9CD5E2" stroke-linecap="round" stroke-linejoin="round" d="M 502.55 358.75 L 502.5 358.75 L 552.5 333.75 L 577.5 346.25 L 527.5 363.75 L 527.5 371.25 L 502.55 358.75 Z"/>
			<path fill="#74973E" stroke-linecap="round" stroke-linejoin="round" d="M 540.0 377.5 L 540.0 370.0 L 590.0 352.5 L 540.0 377.5 Z"/>
			<path fill="#9E7758" stroke-linecap="round" stroke-linejoin="round" d="M 540.0 385.0 L 540.0 377.5 L 590.0 352.5 L 590.0 360.0 L 540.0 385.0 Z"/>
			<path fill="#DFDBCA" stroke-linecap="round" stroke-linejoin="round" d="M 496.25 256.9 L 502.5 253.75 L 509.05 258.0 L 552.5 286.15 L 552.5 286.25 L 546.25 289.4 L 496.25 256.9 Z M 552.5 286.25 L 552.5 286.3 Z M 527.5 241.25 L 533.75 238.15 L 583.75 270.7 L 577.55 273.8 L 577.2 273.6 L 527.5 241.25 Z M 577.55 273.8 L 577.5 273.75 Z"/>
			<path fill="#9CD5E2" stroke-linecap="round" stroke-linejoin="round" d="M 509.05 258.0 L 527.5 248.75 L 577.2 273.6 L 577.5 273.75 L 552.5 286.25 L 552.5 286.15 L 509.05 258.0 Z M 577.5 273.75 L 577.45 273.75 Z"/>
			<path fill="#BCB38F" stroke-linecap="round" stroke-linejoin="round" d="M 527.5 248.75 L 527.5 241.25 L 577.2 273.6 L 527.5 248.75 Z"/>
			<path fill="#9ABE63" stroke-linecap="round" stroke-linejoin="round" d="M 533.75 238.15 L 540.0 235.0 L 589.9 267.55 L 583.75 270.7 L 533.75 238.15 Z M 490.0 260.0 L 496.25 256.9 L 546.25 289.4 L 540.0 292.5 L 539.7 292.35 L 490.0 260.0 Z"/>
			<path fill="#9E7758" stroke-linecap="round" stroke-linejoin="round" d="M 589.9 267.55 L 590.0 267.5 L 590.0 275.0 L 540.0 300.0 L 540.0 292.5 L 546.25 289.4 L 552.5 286.3 L 577.45 273.75 L 577.55 273.8 L 583.75 270.7 L 589.9 267.55 Z M 552.5 286.3 L 552.5 286.25 Z M 577.45 273.75 L 577.5 273.8 Z"/>
			<path fill="#BB8D5D" stroke-linecap="round" stroke-linejoin="round" d="M 540.0 300.0 L 490.0 275.0 L 490.0 267.5 L 539.7 292.35 L 540.0 292.5 L 540.0 300.0 Z"/>
			<path fill="#7DA343" stroke-linecap="round" stroke-linejoin="round" d="M 490.0 267.5 L 490.0 260.0 L 539.7 292.35 L 490.0 267.5 Z"/>
			<path fill="#93BA56" stroke-linecap="round" stroke-linejoin="round" d="M 490.15 182.6 L 540.0 150.0 L 546.25 153.15 L 496.3 185.7 L 490.15 182.6 Z M 583.75 171.9 L 590.0 175.0 L 540.45 207.3 L 540.0 207.5 L 533.8 204.45 L 583.75 171.9 Z"/>
			<path fill="#D9D3BF" stroke-linecap="round" stroke-linejoin="round" d="M 546.25 153.15 L 552.5 156.25 L 502.8 188.6 L 502.5 188.75 L 496.3 185.7 L 546.25 153.15 Z M 502.5 188.75 L 502.5 188.8 Z M 571.0 173.0 L 577.5 168.75 L 583.75 171.9 L 533.8 204.45 L 527.65 201.4 L 571.0 173.0 Z"/>
			<path fill="#ACA075" stroke-linecap="round" stroke-linejoin="round" d="M 552.5 156.25 L 552.5 163.75 L 502.8 188.6 L 552.5 156.25 Z"/>
			<path fill="#9CD5E2" stroke-linecap="round" stroke-linejoin="round" d="M 552.5 163.75 L 571.0 173.0 L 527.65 201.4 L 527.5 201.3 L 502.55 188.75 L 502.8 188.6 L 552.5 163.75 Z M 502.55 188.75 L 502.5 188.75 Z M 527.5 201.3 L 527.5 201.25 Z"/>
			<path fill="#74973E" stroke-linecap="round" stroke-linejoin="round" d="M 590.0 175.0 L 590.0 182.5 L 540.45 207.3 L 590.0 175.0 Z"/>
			<path fill="#9E7758" stroke-linecap="round" stroke-linejoin="round" d="M 590.0 182.5 L 590.0 190.0 L 540.0 215.0 L 540.0 207.5 L 540.45 207.3 L 590.0 182.5 Z"/>
			<path fill="#BB8D5D" stroke-linecap="round" stroke-linejoin="round" d="M 540.0 215.0 L 490.0 190.0 L 490.0 182.5 L 490.15 182.6 L 496.3 185.7 L 502.5 188.8 L 527.5 201.25 L 527.65 201.4 L 533.8 204.45 L 540.0 207.5 L 540.0 215.0 Z M 527.5 201.25 L 527.5 201.3 Z M 502.5 188.8 L 502.55 188.75 Z"/>
			<path fill="#8BB54A" stroke-linecap="round" stroke-linejoin="round" d="M 596.95 181.4 L 596.9 181.35 L 597.1 181.3 L 596.95 181.4 Z"/>
			<path fill="#9ABE63" stroke-linecap="round" stroke-linejoin="round" d="M 597.1 181.3 L 597.05 181.45 L 597.85 181.9 L 596.95 181.45 L 597.1 181.3 Z M 596.95 181.45 L 596.95 181.4 Z"/>
			<path fill="#C59D76" stroke-linecap="round" stroke-linejoin="round" d="M 857.65 193.85 L 832.5 181.25 L 820.0 175.0 L 870.0 150.0 L 920.0 175.0 L 870.0 200.0 L 857.65 193.85 Z"/>
			<path fill="#88CDDD" stroke-linecap="round" stroke-linejoin="round" d="M 832.5 181.25 L 857.65 193.85 L 857.65 208.85 L 832.5 196.25 L 832.5 181.25 Z"/>
			<path fill="#BB8D5D" stroke-linecap="round" stroke-linejoin="round" d="M 832.5 181.25 L 832.5 196.25 L 820.0 190.0 L 820.0 175.0 L 832.5 181.25 Z M 857.65 208.85 L 857.65 193.85 L 870.0 200.0 L 870.0 215.0 L 857.65 208.85 Z"/>
			<path fill="#9E7758" stroke-linecap="round" stroke-linejoin="round" d="M 870.0 200.0 L 920.0 175.0 L 920.0 190.0 L 870.0 215.0 L 870.0 200.0 Z"/>
			<path fill="#C59D76" stroke-linecap="round" stroke-linejoin="round" d="M 870.0 235.0 L 920.0 260.0 L 907.5 266.25 L 882.35 278.85 C 878.25 280.9167 874.13336 282.96667 870.0 285.0 L 820.0 260.0 L 870.0 235.0 Z"/>
			<path fill="#BB8D5D" stroke-linecap="round" stroke-linejoin="round" d="M 820.0 260.0 L 870.0 285.0 L 870.0 300.0 L 820.0 275.0 L 820.0 260.0 Z"/>
			<path fill="#9E7758" stroke-linecap="round" stroke-linejoin="round" d="M 870.0 285.0 C 874.13336 282.96667 878.25 280.9167 882.35 278.85 L 882.35 293.85 C 878.25 295.9167 874.13336 297.96667 870.0 300.0 L 870.0 285.0 Z M 907.5 266.25 L 920.0 260.0 L 920.0 275.0 L 907.5 281.25 L 907.5 266.25 Z"/>
			<path fill="#7BC7D9" stroke-linecap="round" stroke-linejoin="round" d="M 882.35 278.85 L 907.5 266.25 L 907.5 281.25 L 882.35 293.85 L 882.35 278.85 Z"/>
			<path fill="#74973E" stroke-linecap="round" stroke-linejoin="round" d="M 662.5 278.75 L 662.5 280.05 L 662.5 286.3 L 650.0 292.5 L 650.0 285.0 L 662.5 278.75 Z M 687.5 273.8 L 687.5 273.75 L 687.5 266.25 L 700.0 260.0 L 700.0 267.5 L 687.5 273.8 Z"/>
			<path fill="#9CD5E2" stroke-linecap="round" stroke-linejoin="round" d="M 662.5 280.05 L 662.5 278.75 L 620.0 257.5 L 637.5 248.75 L 681.25 270.65 L 662.5 280.05 Z"/>
			<path fill="url(#Grad1)" stroke-linecap="round" stroke-linejoin="round" d="M 662.5 280.05 L 681.25 270.65 L 681.6 270.85 C 685.39996 272.85 687.36664 276.0 687.5 280.3 L 687.5 281.25 L 662.5 293.75 L 662.5 286.3 L 662.5 280.05 Z M 687.5 281.25 L 687.45 281.3 Z"/>
			<path fill="#7DA343" stroke-linecap="round" stroke-linejoin="round" d="M 681.25 270.65 L 637.5 248.75 L 637.5 241.25 L 687.5 266.25 L 687.5 273.75 L 681.6 270.85 L 681.25 270.65 Z M 687.5 273.75 L 687.45 273.75 Z M 650.0 285.0 L 650.0 292.5 L 600.0 267.5 L 600.0 260.0 L 650.0 285.0 Z"/>
			<path fill="#8BB54A" stroke-linecap="round" stroke-linejoin="round" d="M 620.0 257.5 L 662.5 278.75 L 650.0 285.0 L 600.0 260.0 L 612.5 253.75 L 620.0 257.5 Z M 687.5 266.25 L 637.5 241.25 L 650.0 235.0 L 700.0 260.0 L 687.5 266.25 Z"/>
			<path fill="#9E7758" stroke-linecap="round" stroke-linejoin="round" d="M 650.0 292.5 L 662.5 286.3 L 662.5 293.75 L 650.0 300.0 L 650.0 292.5 Z M 700.0 275.0 L 687.5 281.25 L 687.5 280.3 L 687.5 273.8 L 700.0 267.5 L 700.0 275.0 Z"/>
			<path fill="#BB8D5D" stroke-linecap="round" stroke-linejoin="round" d="M 687.45 273.75 L 687.5 273.8 L 687.5 280.3 C 687.36664 276.0 685.39996 272.85 681.6 270.85 L 687.45 273.75 Z M 650.0 300.0 L 600.0 275.0 L 600.0 267.5 L 650.0 292.5 L 650.0 300.0 Z"/>
			<path fill="#8BB54A" stroke-linecap="round" stroke-linejoin="round" d="M 160.0 430.0 L 166.25 426.9 L 216.25 451.9 L 210.0 455.0 L 160.0 430.0 Z M 246.25 423.15 L 260.0 430.0 L 253.75 433.15 L 240.05 426.25 L 246.25 423.15 Z M 253.75 433.15 L 252.9 433.55 L 253.75 433.1 Z"/>
			<path fill="#7DA343" stroke-linecap="round" stroke-linejoin="round" d="M 160.0 430.0 L 210.0 455.0 L 210.0 462.5 L 160.0 437.5 L 160.0 430.0 Z"/>
			<path fill="#74973E" stroke-linecap="round" stroke-linejoin="round" d="M 210.0 455.0 L 216.25 451.9 L 216.25 459.4 L 210.0 462.5 L 210.0 455.0 Z M 260.0 430.0 L 260.0 437.5 L 247.5 443.8 L 253.75 440.6 L 253.75 433.15 L 260.0 430.0 Z M 247.5 443.8 L 247.5 443.75 Z M 222.5 456.25 L 222.5 456.3 L 220.75 457.15 L 222.5 456.25 Z"/>
			<path fill="#D9D3BF" stroke-linecap="round" stroke-linejoin="round" d="M 216.25 451.9 L 166.25 426.9 L 167.5 426.3 L 172.45 428.75 L 197.45 441.25 L 203.7 444.4 L 208.8 441.9 L 222.5 448.75 L 216.25 451.9 Z M 203.7 444.4 L 203.75 444.4 Z M 166.2 418.15 L 216.2 393.15 L 222.45 396.25 L 172.45 421.25 L 166.2 418.15 Z M 247.45 408.75 L 253.7 411.9 L 203.7 436.9 L 197.45 433.75 L 247.45 408.75 Z M 233.8 429.4 C 235.86667 428.3333 237.95 427.28333 240.05 426.25 L 253.75 433.1 L 252.9 433.55 L 247.5 436.25 L 233.8 429.4 Z"/>
			<path fill="#BCB38F" stroke-linecap="round" stroke-linejoin="round" d="M 167.5 426.3 L 166.2 425.65 L 166.2 418.15 L 172.45 421.25 L 172.45 428.75 L 167.5 426.3 Z M 197.45 441.25 L 197.45 433.75 L 203.7 436.9 L 203.7 444.4 L 197.45 441.25 Z M 233.8 429.4 L 247.5 436.25 L 247.5 443.75 L 226.25 433.15 L 233.8 429.4 Z"/>
			<path fill="#6A6A6A" stroke-linecap="round" stroke-linejoin="round" d="M 222.45 396.25 L 247.45 408.75 L 197.45 433.75 L 172.45 421.25 L 222.45 396.25 Z"/>
			<path fill="#ACA075" stroke-linecap="round" stroke-linejoin="round" d="M 253.7 411.9 L 253.7 419.4 L 246.25 423.15 L 240.05 426.25 C 237.95 427.28333 235.86667 428.3333 233.8 429.4 L 226.25 433.15 L 208.8 441.9 L 203.75 444.4 L 203.7 436.9 L 253.7 411.9 Z M 203.75 444.4 L 203.7 444.4 Z M 247.5 436.25 L 252.9 433.55 L 253.75 433.15 L 253.75 440.6 L 247.5 443.75 L 247.5 436.25 Z M 222.5 448.75 L 222.5 456.25 L 220.75 457.15 L 216.25 459.4 L 216.25 451.9 L 222.5 448.75 Z"/>
			<path fill="#9E7758" stroke-linecap="round" stroke-linejoin="round" d="M 260.0 437.5 L 260.0 445.0 L 210.0 470.0 L 210.0 462.5 L 216.25 459.4 L 220.75 457.15 L 222.5 456.3 L 247.45 443.75 L 260.0 437.5 Z M 247.45 443.75 L 247.5 443.8 Z M 222.5 456.3 L 222.5 456.25 Z"/>
			<path fill="#BB8D5D" stroke-linecap="round" stroke-linejoin="round" d="M 210.0 470.0 L 160.0 445.0 L 160.0 437.5 L 210.0 462.5 L 210.0 470.0 Z"/>
			<path fill="#595959" stroke-linecap="round" stroke-linejoin="round" d="M 172.45 428.75 L 172.45 421.25 L 197.45 433.75 L 197.45 441.25 L 172.45 428.75 Z"/>
			<path fill="#9CD5E2" stroke-linecap="round" stroke-linejoin="round" d="M 247.5 443.75 L 247.45 443.75 L 222.5 456.25 L 222.5 448.75 L 208.8 441.9 L 226.25 433.15 L 247.5 443.75 Z"/>
			<path fill="#ACA075" stroke-linecap="round" stroke-linejoin="round" d="M 253.75 333.15 L 253.75 340.65 L 252.55 341.25 L 247.5 343.75 L 247.5 336.25 L 253.75 333.15 Z M 216.25 351.9 L 222.5 348.75 L 222.5 356.25 L 216.25 359.4 L 216.25 351.9 Z M 172.5 358.75 L 172.5 351.25 L 186.25 344.4 L 193.75 348.15 L 172.5 358.75 Z"/>
			<path fill="#D9D3BF" stroke-linecap="round" stroke-linejoin="round" d="M 252.55 341.25 L 253.2 341.6 L 253.75 341.9 L 203.8 366.9 L 203.35 366.7 L 197.5 363.75 L 211.25 356.9 L 216.25 359.4 L 222.5 356.25 L 247.5 343.75 L 252.55 341.25 Z M 166.25 326.9 L 172.5 323.75 L 222.5 348.75 L 216.25 351.9 L 166.25 326.9 Z M 197.5 311.25 L 203.75 308.15 L 253.75 333.15 L 247.5 336.25 L 197.5 311.25 Z M 167.15 348.55 L 166.25 348.1 L 180.0 341.25 L 186.25 344.4 L 172.5 351.25 L 167.85 348.9 L 167.15 348.55 Z"/>
			<path fill="#8BB54A" stroke-linecap="round" stroke-linejoin="round" d="M 253.2 341.6 L 260.0 345.0 L 210.0 370.0 L 203.8 366.9 L 253.75 341.9 L 253.2 341.6 Z M 160.0 345.0 L 173.75 338.15 L 180.0 341.25 L 166.25 348.1 L 160.0 345.0 Z M 166.25 348.1 L 167.15 348.55 L 166.25 348.15 Z"/>
			<path fill="#74973E" stroke-linecap="round" stroke-linejoin="round" d="M 260.0 345.0 L 260.0 352.5 L 210.0 377.5 L 210.0 370.0 L 260.0 345.0 Z"/>
			<path fill="#9E7758" stroke-linecap="round" stroke-linejoin="round" d="M 260.0 352.5 L 260.0 360.0 L 210.0 385.0 L 210.0 377.5 L 260.0 352.5 Z"/>
			<path fill="#BB8D5D" stroke-linecap="round" stroke-linejoin="round" d="M 210.0 385.0 L 160.0 360.0 L 160.0 352.5 L 172.5 358.8 L 197.5 371.25 L 199.3 372.15 L 203.75 374.4 L 210.0 377.5 L 210.0 385.0 Z M 197.5 371.25 L 197.5 371.3 Z M 172.5 358.8 L 172.55 358.75 Z"/>
			<path fill="#7DA343" stroke-linecap="round" stroke-linejoin="round" d="M 160.0 352.5 L 160.0 345.0 L 166.25 348.15 L 166.25 355.6 L 172.5 358.75 L 160.0 352.5 Z M 172.5 358.75 L 172.5 358.8 Z M 197.5 371.3 L 197.5 371.25 L 199.3 372.15 L 197.5 371.3 Z M 210.0 377.5 L 203.75 374.4 L 203.75 366.9 L 210.0 370.0 L 210.0 377.5 Z M 203.75 366.9 L 203.35 366.7 L 203.8 366.9 Z"/>
			<path fill="#BCB38F" stroke-linecap="round" stroke-linejoin="round" d="M 173.75 338.15 L 166.25 334.4 L 166.25 326.9 L 216.25 351.9 L 216.25 359.4 L 211.25 356.9 L 193.75 348.15 L 186.25 344.4 L 180.0 341.25 L 173.75 338.15 Z M 166.25 348.15 L 167.15 348.55 L 167.85 348.9 L 172.5 351.25 L 172.5 358.75 L 166.25 355.6 L 166.25 348.15 Z M 199.3 372.15 L 197.5 371.25 L 197.5 363.75 L 203.35 366.7 L 203.75 366.9 L 203.75 374.4 L 199.3 372.15 Z"/>
			<path fill="#6A6A6A" stroke-linecap="round" stroke-linejoin="round" d="M 172.5 323.75 L 197.5 311.25 L 247.5 336.25 L 222.5 348.75 L 172.5 323.75 Z"/>
			<path fill="#515151" stroke-linecap="round" stroke-linejoin="round" d="M 247.5 336.25 L 247.5 343.75 L 222.5 356.25 L 222.5 348.75 L 247.5 336.25 Z"/>
			<path fill="#9CD5E2" stroke-linecap="round" stroke-linejoin="round" d="M 172.55 358.75 L 172.5 358.75 L 193.75 348.15 L 211.25 356.9 L 197.5 363.75 L 197.5 371.25 L 172.55 358.75 Z"/>
			<path fill="#8BB54A" stroke-linecap="round" stroke-linejoin="round" d="M 160.0 260.0 L 167.5 256.25 L 172.5 258.75 L 197.5 271.25 L 203.75 274.4 L 208.8 271.9 L 222.5 278.75 L 210.0 285.0 L 160.0 260.0 Z M 203.75 274.4 L 203.8 274.4 Z M 246.3 253.15 L 260.0 260.0 L 247.5 266.25 L 233.8 259.4 L 246.3 253.15 Z"/>
			<path fill="#7DA343" stroke-linecap="round" stroke-linejoin="round" d="M 160.0 260.0 L 210.0 285.0 L 210.0 292.5 L 160.0 267.5 L 160.0 260.0 Z M 233.8 259.4 L 247.5 266.25 L 247.5 273.75 L 226.3 263.15 L 233.8 259.4 Z"/>
			<path fill="#74973E" stroke-linecap="round" stroke-linejoin="round" d="M 210.0 285.0 L 222.5 278.75 L 222.5 286.25 L 210.0 292.5 L 210.0 285.0 Z M 222.5 286.25 L 222.5 286.3 Z M 260.0 260.0 L 260.0 267.5 L 247.5 273.8 L 247.5 266.25 L 260.0 260.0 Z M 247.5 273.8 L 247.5 273.75 Z"/>
			<path fill="#9CD5E2" stroke-linecap="round" stroke-linejoin="round" d="M 222.5 278.75 L 208.8 271.9 L 226.3 263.15 L 247.5 273.75 L 222.5 286.25 L 222.5 278.75 Z M 247.5 273.75 L 247.45 273.75 Z"/>
			<path fill="#ACA075" stroke-linecap="round" stroke-linejoin="round" d="M 203.8 274.4 L 203.75 274.4 L 203.75 266.9 L 253.75 241.9 L 253.75 249.4 L 246.3 253.15 L 233.8 259.4 L 226.3 263.15 L 208.8 271.9 L 203.8 274.4 Z"/>
			<path fill="#BCB38F" stroke-linecap="round" stroke-linejoin="round" d="M 203.75 274.4 L 197.5 271.25 L 197.5 263.75 L 203.75 266.9 L 203.75 274.4 Z M 172.5 258.75 L 167.5 256.25 L 166.25 255.65 L 166.25 248.15 L 172.5 251.25 L 172.5 258.75 Z"/>
			<path fill="#595959" stroke-linecap="round" stroke-linejoin="round" d="M 197.5 271.25 L 172.5 258.75 L 172.5 251.25 L 197.5 263.75 L 197.5 271.25 Z"/>
			<path fill="#D9D3BF" stroke-linecap="round" stroke-linejoin="round" d="M 166.25 248.15 L 216.25 223.15 L 222.5 226.25 L 172.5 251.25 L 166.25 248.15 Z M 247.5 238.75 L 253.75 241.9 L 203.75 266.9 L 197.5 263.75 L 247.5 238.75 Z"/>
			<path fill="#6A6A6A" stroke-linecap="round" stroke-linejoin="round" d="M 222.5 226.25 L 247.5 238.75 L 197.5 263.75 L 172.5 251.25 L 222.5 226.25 Z"/>
			<path fill="#9E7758" stroke-linecap="round" stroke-linejoin="round" d="M 260.0 267.5 L 260.0 275.0 L 210.0 300.0 L 210.0 292.5 L 222.5 286.3 L 247.45 273.75 L 260.0 267.5 Z M 247.45 273.75 L 247.5 273.8 Z M 222.5 286.3 L 222.5 286.25 Z"/>
			<path fill="#BB8D5D" stroke-linecap="round" stroke-linejoin="round" d="M 210.0 300.0 L 160.0 275.0 L 160.0 267.5 L 210.0 292.5 L 210.0 300.0 Z"/>
			<path fill="#D9D3BF" stroke-linecap="round" stroke-linejoin="round" d="M 203.75 138.15 L 253.75 163.15 L 247.5 166.25 L 197.5 141.25 L 203.75 138.15 Z M 166.25 156.9 L 172.5 153.75 L 222.5 178.75 L 216.25 181.9 L 166.25 156.9 Z"/>
			<path fill="#6A6A6A" stroke-linecap="round" stroke-linejoin="round" d="M 197.5 141.25 L 247.5 166.25 L 222.5 178.75 L 172.5 153.75 L 197.5 141.25 Z"/>
			<path fill="#ACA075" stroke-linecap="round" stroke-linejoin="round" d="M 247.5 166.25 L 253.75 163.15 L 253.75 170.65 L 252.55 171.25 L 247.5 173.75 L 247.5 166.25 Z M 216.25 189.4 L 216.25 181.9 L 222.5 178.75 L 222.5 186.25 L 216.25 189.4 Z"/>
			<path fill="#8BB54A" stroke-linecap="round" stroke-linejoin="round" d="M 252.55 171.25 L 260.0 175.0 L 210.0 200.0 L 197.5 193.75 L 211.25 186.9 L 216.25 189.4 L 222.5 186.25 L 247.5 173.75 L 252.55 171.25 Z M 160.0 175.0 L 173.75 168.15 L 186.2 174.4 L 172.5 181.25 L 160.0 175.0 Z"/>
			<path fill="#74973E" stroke-linecap="round" stroke-linejoin="round" d="M 260.0 175.0 L 260.0 182.5 L 210.0 207.5 L 210.0 200.0 L 260.0 175.0 Z M 193.7 178.15 L 172.5 188.75 L 172.5 181.25 L 186.2 174.4 L 193.7 178.15 Z"/>
			<path fill="#9E7758" stroke-linecap="round" stroke-linejoin="round" d="M 260.0 182.5 L 260.0 190.0 L 210.0 215.0 L 210.0 207.5 L 260.0 182.5 Z"/>
			<path fill="#BB8D5D" stroke-linecap="round" stroke-linejoin="round" d="M 210.0 215.0 L 160.0 190.0 L 160.0 182.5 L 172.5 188.8 L 197.5 201.25 L 210.0 207.5 L 210.0 215.0 Z M 197.5 201.25 L 197.5 201.3 Z M 172.5 188.8 L 172.55 188.75 Z"/>
			<path fill="#7DA343" stroke-linecap="round" stroke-linejoin="round" d="M 160.0 182.5 L 160.0 175.0 L 172.5 181.25 L 172.5 188.75 L 160.0 182.5 Z M 172.5 188.75 L 172.5 188.8 Z M 197.5 193.75 L 210.0 200.0 L 210.0 207.5 L 197.5 201.3 L 197.5 193.75 Z M 197.5 201.3 L 197.5 201.25 Z"/>
			<path fill="#BCB38F" stroke-linecap="round" stroke-linejoin="round" d="M 173.75 168.15 L 166.25 164.4 L 166.25 156.9 L 216.25 181.9 L 216.25 189.4 L 211.25 186.9 L 193.7 178.15 L 186.2 174.4 L 173.75 168.15 Z"/>
			<path fill="#9CD5E2" stroke-linecap="round" stroke-linejoin="round" d="M 193.7 178.15 L 211.25 186.9 L 197.5 193.75 L 197.5 201.25 L 172.55 188.75 L 193.7 178.15 Z M 172.55 188.75 L 172.5 188.75 Z"/>
			<path fill="#515151" stroke-linecap="round" stroke-linejoin="round" d="M 247.5 173.75 L 222.5 186.25 L 222.5 178.75 L 247.5 166.25 L 247.5 173.75 Z"/>
			<path fill="url(#Grad2)" stroke-linecap="round" stroke-linejoin="round" d="M 618.4 185.85 L 618.75 185.65 L 637.5 195.05 L 637.5 201.3 L 637.5 208.75 L 612.55 196.3 L 612.5 195.3 C 612.63336 191.0 614.60004 187.85 618.4 185.85 Z M 612.55 196.3 L 612.5 196.25 Z"/>
			<path fill="#74973E" stroke-linecap="round" stroke-linejoin="round" d="M 618.75 185.65 L 618.4 185.85 L 612.55 188.75 L 612.5 181.25 L 662.5 156.25 L 662.5 163.75 L 618.75 185.65 Z M 612.55 188.75 L 612.5 188.75 Z M 700.0 175.0 L 700.0 182.5 L 650.0 207.5 L 650.0 200.0 L 700.0 175.0 Z"/>
			<path fill="#9CD5E2" stroke-linecap="round" stroke-linejoin="round" d="M 618.75 185.65 L 662.5 163.75 L 680.0 172.5 L 637.5 193.75 L 637.5 195.05 L 618.75 185.65 Z"/>
			<path fill="#8BB54A" stroke-linecap="round" stroke-linejoin="round" d="M 662.5 156.25 L 612.5 181.25 L 600.0 175.0 L 650.0 150.0 L 662.5 156.25 Z M 680.0 172.5 L 687.5 168.75 L 700.0 175.0 L 650.0 200.0 L 637.5 193.75 L 680.0 172.5 Z"/>
			<path fill="#7DA343" stroke-linecap="round" stroke-linejoin="round" d="M 612.5 188.75 L 612.5 188.8 L 600.0 182.5 L 600.0 175.0 L 612.5 181.25 L 612.5 188.75 Z M 637.5 201.3 L 637.5 195.05 L 637.5 193.75 L 650.0 200.0 L 650.0 207.5 L 637.5 201.3 Z"/>
			<path fill="#9E7758" stroke-linecap="round" stroke-linejoin="round" d="M 618.4 185.85 C 614.60004 187.85 612.63336 191.0 612.5 195.3 L 612.5 188.8 L 618.4 185.85 Z M 612.5 188.8 L 612.55 188.75 Z M 700.0 182.5 L 700.0 190.0 L 650.0 215.0 L 650.0 207.5 L 700.0 182.5 Z"/>
			<path fill="#BB8D5D" stroke-linecap="round" stroke-linejoin="round" d="M 612.5 195.3 L 612.5 196.25 L 600.0 190.0 L 600.0 182.5 L 612.5 188.8 L 612.5 195.3 Z M 637.5 208.75 L 637.5 201.3 L 650.0 207.5 L 650.0 215.0 L 637.5 208.75 Z"/>
			<path fill="#8BB54A" stroke-linecap="round" stroke-linejoin="round" d="M 650.0 405.0 L 700.0 430.0 L 692.9 433.55 L 693.75 433.1 L 643.8 408.15 L 650.0 405.0 Z M 600.0 430.0 L 606.25 426.9 L 656.25 451.9 L 650.0 455.0 L 600.0 430.0 Z"/>
			<path fill="#74973E" stroke-linecap="round" stroke-linejoin="round" d="M 692.9 433.55 L 700.0 430.0 L 700.0 437.5 L 687.5 443.8 L 693.75 440.6 L 693.75 433.15 L 692.9 433.55 Z M 687.5 443.8 L 687.5 443.75 Z M 656.25 451.9 L 656.25 459.4 L 650.0 462.5 L 650.0 455.0 L 656.25 451.9 Z M 662.5 456.25 L 662.5 456.3 L 660.75 457.15 L 662.5 456.25 Z"/>
			<path fill="#9E7758" stroke-linecap="round" stroke-linejoin="round" d="M 700.0 437.5 L 700.0 445.0 L 687.5 451.25 L 687.5 450.3 L 687.5 443.8 L 700.0 437.5 Z M 662.5 463.75 L 650.0 470.0 L 650.0 462.5 L 656.25 459.4 L 660.75 457.15 L 662.5 456.3 L 662.5 463.75 Z"/>
			<path fill="url(#Grad3)" stroke-linecap="round" stroke-linejoin="round" d="M 687.5 451.25 L 687.45 451.3 L 662.5 463.75 L 662.5 456.3 L 662.5 450.05 L 681.25 440.65 L 681.6 440.85 C 685.39996 442.85 687.36664 446.0 687.5 450.3 L 687.5 451.25 Z M 662.5 456.3 L 662.5 456.25 Z"/>
			<path fill="#BB8D5D" stroke-linecap="round" stroke-linejoin="round" d="M 650.0 470.0 L 600.0 445.0 L 600.0 437.5 L 650.0 462.5 L 650.0 470.0 Z M 687.45 443.75 L 687.5 443.8 L 687.5 450.3 C 687.36664 446.0 685.39996 442.85 681.6 440.85 L 687.45 443.75 Z"/>
			<path fill="#7DA343" stroke-linecap="round" stroke-linejoin="round" d="M 600.0 437.5 L 600.0 430.0 L 650.0 455.0 L 650.0 462.5 L 600.0 437.5 Z M 687.5 443.75 L 687.45 443.75 L 681.6 440.85 L 681.25 440.65 L 687.5 443.75 Z"/>
			<path fill="#9CD5E2" stroke-linecap="round" stroke-linejoin="round" d="M 662.5 450.05 L 662.5 448.75 L 620.0 427.5 L 637.5 418.75 L 681.25 440.65 L 662.5 450.05 Z"/>
			<path fill="#D9D3BF" stroke-linecap="round" stroke-linejoin="round" d="M 693.75 433.1 L 692.9 433.55 L 687.5 436.25 L 637.5 411.25 L 643.75 408.1 L 693.75 433.1 Z M 643.75 408.1 L 643.8 408.15 Z M 612.5 423.75 L 662.5 448.75 L 656.25 451.9 L 606.25 426.9 L 612.5 423.75 Z"/>
			<path fill="#BCB38F" stroke-linecap="round" stroke-linejoin="round" d="M 637.5 411.25 L 687.5 436.25 L 687.5 443.75 L 637.5 418.75 L 637.5 411.25 Z"/>
			<path fill="#ACA075" stroke-linecap="round" stroke-linejoin="round" d="M 687.5 436.25 L 692.9 433.55 L 693.75 433.15 L 693.75 440.6 L 687.5 443.75 L 687.5 436.25 Z M 656.25 451.9 L 662.5 448.75 L 662.5 456.25 L 656.25 459.4 L 656.25 451.9 Z"/>
			<path fill="#8BB54A" stroke-linecap="round" stroke-linejoin="round" d="M 600.0 345.0 L 650.0 320.0 L 656.25 323.15 L 606.25 348.1 L 607.15 348.55 L 606.7 348.35 L 600.0 345.0 Z M 693.2 341.6 L 700.0 345.0 L 650.0 370.0 L 643.8 366.9 L 693.75 341.9 L 693.2 341.6 Z"/>
			<path fill="#D9D3BF" stroke-linecap="round" stroke-linejoin="round" d="M 656.25 323.15 L 656.25 323.1 L 662.5 326.25 L 612.5 351.25 L 609.0 349.5 L 607.85 348.9 L 607.15 348.55 L 606.25 348.1 L 656.25 323.15 Z M 680.0 342.5 L 687.5 338.75 L 693.2 341.6 L 693.75 341.9 L 643.8 366.9 L 643.35 366.7 L 637.5 363.75 L 680.0 342.5 Z"/>
			<path fill="#ACA075" stroke-linecap="round" stroke-linejoin="round" d="M 662.5 326.25 L 662.5 333.75 L 618.75 355.65 L 618.4 355.85 L 613.65 358.2 C 613.25 358.4 612.86664 358.5833 612.5 358.75 L 612.5 351.25 L 662.5 326.25 Z"/>
			<path fill="#9CD5E2" stroke-linecap="round" stroke-linejoin="round" d="M 662.5 333.75 L 680.0 342.5 L 637.5 363.75 L 637.5 365.05 L 618.8 355.7 L 662.5 333.75 Z M 618.8 355.7 L 618.75 355.65 Z"/>
			<path fill="#74973E" stroke-linecap="round" stroke-linejoin="round" d="M 700.0 345.0 L 700.0 352.5 L 650.0 377.5 L 650.0 370.0 L 700.0 345.0 Z M 612.55 358.75 L 612.5 358.75 C 612.86664 358.58334 613.25 358.40002 613.65 358.2 L 612.55 358.75 Z"/>
			<path fill="#9E7758" stroke-linecap="round" stroke-linejoin="round" d="M 700.0 352.5 L 700.0 360.0 L 650.0 385.0 L 650.0 377.5 L 700.0 352.5 Z M 612.5 358.8 L 612.55 358.75 L 613.65 358.2 L 618.4 355.85 C 614.60004 357.85 612.63336 361.0 612.5 365.3 L 612.5 358.8 Z"/>
			<path fill="#BB8D5D" stroke-linecap="round" stroke-linejoin="round" d="M 650.0 385.0 L 637.5 378.75 L 637.5 371.3 L 639.3 372.15 L 643.75 374.4 L 650.0 377.5 L 650.0 385.0 Z M 612.5 366.25 L 600.0 360.0 L 600.0 352.5 L 612.5 358.8 L 612.5 365.3 L 612.5 366.25 Z"/>
			<path fill="url(#Grad4)" stroke-linecap="round" stroke-linejoin="round" d="M 612.55 366.3 L 612.5 366.25 L 612.5 365.3 C 612.63336 361.0 614.60004 357.85 618.4 355.85 L 618.75 355.65 L 637.5 365.05 L 637.5 371.25 L 637.5 378.75 L 612.55 366.3 Z M 637.5 371.25 L 637.5 371.3 Z M 618.75 355.65 L 618.8 355.7 Z"/>
			<path fill="#7DA343" stroke-linecap="round" stroke-linejoin="round" d="M 600.0 352.5 L 600.0 345.0 L 606.7 348.35 L 606.25 348.15 L 606.25 355.6 L 612.5 358.75 L 600.0 352.5 Z M 612.5 358.75 L 612.5 358.8 Z M 637.5 371.3 L 637.5 371.25 L 639.3 372.15 L 637.5 371.3 Z M 650.0 377.5 L 643.75 374.4 L 643.75 366.9 L 650.0 370.0 L 650.0 377.5 Z M 643.35 366.7 L 643.8 366.9 L 643.35 366.7 Z"/>
			<path fill="#BCB38F" stroke-linecap="round" stroke-linejoin="round" d="M 606.7 348.35 L 607.15 348.55 L 607.85 348.9 L 609.0 349.5 L 612.5 351.25 L 612.5 358.75 L 606.25 355.6 L 606.25 348.15 L 606.7 348.35 Z M 637.5 365.05 L 637.5 363.75 L 643.35 366.7 L 643.75 366.9 L 643.75 374.4 L 639.3 372.15 L 637.5 371.25 L 637.5 365.05 Z"/>
			<path fill="#9CD5E2" stroke-linecap="round" stroke-linejoin="round" d="M 747.5 193.75 L 747.5 201.25 L 722.55 188.75 L 766.25 166.9 C 767.95 166.86667 769.31665 167.13333 770.35 167.7 L 770.9 168.05 L 772.5 168.85 L 784.95 175.05 L 747.5 193.75 Z M 722.55 188.75 L 722.5 188.75 Z"/>
			<path fill="#7DA343" stroke-linecap="round" stroke-linejoin="round" d="M 747.5 201.3 L 747.5 201.25 L 747.5 193.75 L 760.0 200.0 L 760.0 207.5 L 747.5 201.3 Z M 722.5 188.75 L 722.5 188.8 L 710.0 182.5 L 710.0 175.0 L 722.5 181.25 L 722.5 188.75 Z"/>
			<path fill="#88CDDD" stroke-linecap="round" stroke-linejoin="round" d="M 747.5 201.25 L 747.5 201.3 L 747.5 208.75 L 722.55 196.3 L 722.55 188.75 L 747.5 201.25 Z"/>
			<path fill="#BB8D5D" stroke-linecap="round" stroke-linejoin="round" d="M 747.5 201.3 L 760.0 207.5 L 760.0 215.0 L 747.5 208.75 L 747.5 201.3 Z M 722.5 188.8 L 722.55 188.75 L 722.55 196.3 L 710.0 190.0 L 710.0 182.5 L 722.5 188.8 Z"/>
			<path fill="#74973E" stroke-linecap="round" stroke-linejoin="round" d="M 760.0 207.5 L 760.0 200.0 L 810.0 175.0 L 810.0 182.5 L 760.0 207.5 Z M 766.25 166.9 L 722.5 188.75 L 722.5 181.25 L 772.5 156.25 L 772.5 163.75 L 766.25 166.9 Z"/>
			<path fill="#8BB54A" stroke-linecap="round" stroke-linejoin="round" d="M 760.0 200.0 L 747.5 193.75 L 784.95 175.05 L 797.5 168.75 L 810.0 175.0 L 760.0 200.0 Z M 710.0 175.0 L 760.0 150.0 L 772.5 156.25 L 722.5 181.25 L 710.0 175.0 Z"/>
			<path fill="#9E7758" stroke-linecap="round" stroke-linejoin="round" d="M 772.5 168.85 L 770.9 168.05 L 770.35 167.7 C 769.31665 167.13333 767.95 166.86667 766.25 166.9 L 772.5 163.75 L 772.5 168.85 Z M 810.0 182.5 L 810.0 190.0 L 760.0 215.0 L 760.0 207.5 L 810.0 182.5 Z"/>
			<path fill="#BB8D5D" stroke-linecap="round" stroke-linejoin="round" d="M 753.75 251.9 C 752.05 251.86667 750.68335 252.13333 749.65 252.7 L 749.1 253.05 L 747.5 253.85 L 747.5 248.75 L 753.75 251.9 Z M 760.0 300.0 L 710.0 275.0 L 710.0 267.5 L 760.0 292.5 L 760.0 300.0 Z"/>
			<path fill="#9CD5E2" stroke-linecap="round" stroke-linejoin="round" d="M 749.65 252.7 C 750.68335 252.13333 752.05 251.86667 753.75 251.9 L 797.5 273.75 L 772.5 286.25 L 772.5 278.75 L 735.05 260.05 L 747.5 253.85 L 749.1 253.05 L 749.65 252.7 Z M 797.5 273.75 L 797.45 273.75 Z"/>
			<path fill="#8BB54A" stroke-linecap="round" stroke-linejoin="round" d="M 735.05 260.05 L 772.5 278.75 L 760.0 285.0 L 710.0 260.0 L 722.5 253.75 L 735.05 260.05 Z M 747.5 241.25 L 760.0 235.0 L 810.0 260.0 L 797.5 266.25 L 747.5 241.25 Z"/>
			<path fill="#74973E" stroke-linecap="round" stroke-linejoin="round" d="M 772.5 286.25 L 772.5 286.3 L 760.0 292.5 L 760.0 285.0 L 772.5 278.75 L 772.5 286.25 Z M 810.0 260.0 L 810.0 267.5 L 797.5 273.8 L 797.5 266.25 L 810.0 260.0 Z M 797.5 273.8 L 797.5 273.75 Z"/>
			<path fill="#7BC7D9" stroke-linecap="round" stroke-linejoin="round" d="M 797.45 273.75 L 797.45 281.3 L 772.5 293.75 L 772.5 286.3 L 797.45 273.75 Z M 772.5 286.3 L 772.5 286.25 Z"/>
			<path fill="#7DA343" stroke-linecap="round" stroke-linejoin="round" d="M 797.5 273.75 L 753.75 251.9 L 747.5 248.75 L 747.5 241.25 L 797.5 266.25 L 797.5 273.75 Z M 710.0 267.5 L 710.0 260.0 L 760.0 285.0 L 760.0 292.5 L 710.0 267.5 Z"/>
			<path fill="#9E7758" stroke-linecap="round" stroke-linejoin="round" d="M 810.0 267.5 L 810.0 275.0 L 797.45 281.3 L 797.45 273.75 L 810.0 267.5 Z M 797.45 273.75 L 797.5 273.8 Z M 772.5 293.75 L 760.0 300.0 L 760.0 292.5 L 772.5 286.3 L 772.5 293.75 Z"/>
			<path fill="#93BA56" stroke-linecap="round" stroke-linejoin="round" d="M 253.75 71.85 L 260.0 75.0 L 210.0 115.05 L 203.75 111.9 L 253.75 71.85 Z M 160.2 89.9 L 210.0 50.0 L 216.25 53.1 L 166.25 93.1 L 160.05 90.05 L 160.2 89.9 Z M 160.05 90.05 L 160.05 90.0 Z"/>
			<path fill="#74973E" stroke-linecap="round" stroke-linejoin="round" d="M 260.0 75.0 L 260.0 97.45 L 210.0 122.5 L 210.0 115.05 L 260.0 75.0 Z"/>
			<path fill="#9E7758" stroke-linecap="round" stroke-linejoin="round" d="M 260.0 97.45 L 260.0 105.0 L 210.0 130.0 L 210.0 122.5 L 260.0 97.45 Z"/>
			<path fill="#BB8D5D" stroke-linecap="round" stroke-linejoin="round" d="M 210.0 130.0 L 160.0 105.0 L 160.0 97.45 L 166.25 100.65 L 172.5 103.75 L 197.5 116.25 L 203.75 119.4 L 210.0 122.5 L 210.0 130.0 Z"/>
			<path fill="#7DA343" stroke-linecap="round" stroke-linejoin="round" d="M 166.25 100.65 L 160.0 97.45 L 160.0 90.0 L 166.25 93.1 L 166.25 100.65 Z M 203.75 111.9 L 210.0 115.05 L 210.0 122.5 L 203.75 119.4 L 203.75 111.9 Z"/>
			<path fill="#8BB54A" stroke-linecap="round" stroke-linejoin="round" d="M 160.05 90.0 L 160.0 89.95 L 160.2 89.9 L 160.05 90.0 Z"/>
			<path fill="#DFDBCA" stroke-linecap="round" stroke-linejoin="round" d="M 216.25 53.1 L 222.5 56.2 L 172.5 96.2 L 166.25 93.1 L 216.25 53.1 Z M 241.7 73.35 L 247.5 68.7 L 253.75 71.85 L 203.75 111.9 L 197.5 108.75 L 241.7 73.35 Z"/>
			<path fill="#ACA075" stroke-linecap="round" stroke-linejoin="round" d="M 222.5 56.2 L 222.5 63.75 L 172.5 103.75 L 172.5 96.2 L 222.5 56.2 Z"/>
			<path fill="#A9DBE7" stroke-linecap="round" stroke-linejoin="round" d="M 222.5 63.75 L 241.7 73.35 L 197.5 108.75 L 197.5 116.25 L 172.5 103.75 L 222.5 63.75 Z"/>
			<path fill="#BCB38F" stroke-linecap="round" stroke-linejoin="round" d="M 197.5 108.75 L 203.75 111.9 L 203.75 119.4 L 197.5 116.25 L 197.5 108.75 Z M 172.5 96.2 L 172.5 103.75 L 166.25 100.65 L 166.25 93.1 L 172.5 96.2 Z"/>
			<path fill="#74973E" stroke-linecap="round" stroke-linejoin="round" d="M 149.95 90.05 L 150.0 90.0 L 150.0 97.45 L 143.75 100.65 L 143.75 93.1 L 149.95 90.05 Z M 106.25 111.9 L 106.25 119.4 L 100.0 122.5 L 100.0 115.05 L 106.25 111.9 Z"/>
			<path fill="#7DA343" stroke-linecap="round" stroke-linejoin="round" d="M 50.0 75.0 L 100.0 115.05 L 100.0 122.5 L 50.0 97.45 L 50.0 75.0 Z"/>
			<path fill="#9ABE63" stroke-linecap="round" stroke-linejoin="round" d="M 149.95 90.0 L 149.95 90.05 L 143.75 93.1 L 93.75 53.1 L 100.0 50.0 L 149.8 89.9 L 149.95 90.0 Z M 56.25 71.85 L 106.25 111.9 L 100.0 115.05 L 50.0 75.0 L 56.25 71.85 Z"/>
			<path fill="#ACA075" stroke-linecap="round" stroke-linejoin="round" d="M 143.75 93.1 L 143.75 100.65 L 137.5 103.75 L 137.5 96.2 L 143.75 93.1 Z M 106.25 111.9 L 112.5 108.75 L 112.5 116.25 L 106.25 119.4 L 106.25 111.9 Z"/>
			<path fill="#9E7758" stroke-linecap="round" stroke-linejoin="round" d="M 143.75 100.65 L 150.0 97.45 L 150.0 105.0 L 100.0 130.0 L 100.0 122.5 L 106.25 119.4 L 112.5 116.25 L 137.5 103.75 L 143.75 100.65 Z"/>
			<path fill="#8BB54A" stroke-linecap="round" stroke-linejoin="round" d="M 150.0 89.95 L 149.95 90.0 L 149.8 89.9 L 150.0 89.95 Z"/>
			<path fill="#DFDBCA" stroke-linecap="round" stroke-linejoin="round" d="M 93.75 53.1 L 143.75 93.1 L 137.5 96.2 L 87.5 56.2 L 93.75 53.1 Z M 112.5 108.75 L 106.25 111.9 L 56.25 71.85 L 62.5 68.7 L 68.3 73.35 L 112.5 108.75 Z"/>
			<path fill="#BCB38F" stroke-linecap="round" stroke-linejoin="round" d="M 137.5 96.2 L 137.5 103.75 L 87.5 63.75 L 87.5 56.2 L 137.5 96.2 Z"/>
			<path fill="#A9DBE7" stroke-linecap="round" stroke-linejoin="round" d="M 112.5 108.75 L 68.3 73.35 L 87.5 63.75 L 137.5 103.75 L 112.5 116.25 L 112.5 108.75 Z"/>
			<path fill="#BB8D5D" stroke-linecap="round" stroke-linejoin="round" d="M 50.0 105.0 L 50.0 97.45 L 100.0 122.5 L 100.0 130.0 L 50.0 105.0 Z"/>
			<path fill="#93BA56" stroke-linecap="round" stroke-linejoin="round" d="M 473.75 86.9 L 480.0 90.0 L 430.05 100.05 L 423.75 96.9 L 473.75 86.9 Z M 430.05 100.05 L 430.0 100.05 Z M 380.05 75.05 L 430.0 65.0 L 436.25 68.15 L 386.25 78.15 L 380.05 75.05 Z"/>
			<path fill="#74973E" stroke-linecap="round" stroke-linejoin="round" d="M 480.0 90.0 L 480.0 97.5 L 430.0 122.5 L 430.0 100.05 L 480.0 90.0 Z M 430.0 100.05 L 430.05 100.05 Z"/>
			<path fill="#9E7758" stroke-linecap="round" stroke-linejoin="round" d="M 480.0 97.5 L 480.0 105.0 L 430.0 130.0 L 430.0 122.5 L 480.0 97.5 Z"/>
			<path fill="#BB8D5D" stroke-linecap="round" stroke-linejoin="round" d="M 430.0 130.0 L 380.0 105.0 L 380.0 97.5 L 386.25 100.65 L 392.5 103.75 L 417.5 116.25 L 423.75 119.4 L 430.0 122.5 L 430.0 130.0 Z"/>
			<path fill="#7DA343" stroke-linecap="round" stroke-linejoin="round" d="M 380.0 75.05 L 380.05 75.05 L 386.25 78.15 L 386.25 100.65 L 380.0 97.5 L 380.0 75.05 Z M 423.75 96.9 L 430.0 100.05 L 430.0 122.5 L 423.75 119.4 L 423.75 96.9 Z"/>
			<path fill="#DFDBCA" stroke-linecap="round" stroke-linejoin="round" d="M 436.25 68.15 L 442.5 71.25 L 392.5 81.25 L 386.25 78.15 L 436.25 68.15 Z M 456.75 85.9 L 467.5 83.75 L 473.75 86.9 L 423.75 96.9 L 417.5 93.75 L 456.75 85.9 Z"/>
			<path fill="#ACA075" stroke-linecap="round" stroke-linejoin="round" d="M 442.5 71.25 L 442.5 78.8 L 392.5 88.8 L 392.5 81.25 L 442.5 71.25 Z"/>
			<path fill="#A9DBE7" stroke-linecap="round" stroke-linejoin="round" d="M 442.5 78.8 L 456.75 85.9 L 417.5 93.75 L 417.5 101.3 L 392.5 88.8 L 442.5 78.8 Z"/>
			<path fill="#BCB38F" stroke-linecap="round" stroke-linejoin="round" d="M 423.75 119.4 L 417.5 116.25 L 417.5 101.3 L 417.5 93.75 L 423.75 96.9 L 423.75 119.4 Z M 392.5 103.75 L 386.25 100.65 L 386.25 78.15 L 392.5 81.25 L 392.5 88.8 L 392.5 103.75 Z"/>
			<path fill="#88CDDD" stroke-linecap="round" stroke-linejoin="round" d="M 417.5 116.25 L 392.5 103.75 L 392.5 88.8 L 417.5 101.3 L 417.5 116.25 Z"/>
			<path fill="#9ABE63" stroke-linecap="round" stroke-linejoin="round" d="M 370.0 75.05 L 363.75 78.15 L 313.75 68.15 L 320.0 65.0 L 370.0 75.05 Z M 276.25 86.9 L 326.25 96.9 L 320.0 100.05 L 270.0 90.0 L 276.25 86.9 Z"/>
			<path fill="#74973E" stroke-linecap="round" stroke-linejoin="round" d="M 363.75 78.15 L 370.0 75.05 L 370.0 97.5 C 367.93332 98.566666 365.84998 99.61667 363.75 100.65 L 363.75 78.15 Z M 320.0 100.05 L 326.25 96.9 L 326.25 119.4 L 320.0 122.5 L 320.0 100.05 Z"/>
			<path fill="#ACA075" stroke-linecap="round" stroke-linejoin="round" d="M 363.75 78.15 L 363.75 100.65 L 357.5 103.75 L 357.5 88.8 L 357.5 81.25 L 363.75 78.15 Z M 326.25 96.9 L 332.5 93.75 L 332.5 101.3 L 332.5 116.25 L 326.25 119.4 L 326.25 96.9 Z"/>
			<path fill="#9E7758" stroke-linecap="round" stroke-linejoin="round" d="M 363.75 100.65 C 365.85 99.61667 367.93335 98.566666 370.0 97.5 L 370.0 105.0 L 320.0 130.0 L 320.0 122.5 L 326.25 119.4 L 332.5 116.25 L 357.5 103.75 L 363.75 100.65 Z"/>
			<path fill="#DFDBCA" stroke-linecap="round" stroke-linejoin="round" d="M 313.75 68.15 L 363.75 78.15 L 357.5 81.25 L 307.5 71.25 L 313.75 68.15 Z M 282.5 83.75 L 293.3 85.9 L 332.5 93.75 L 326.25 96.9 L 276.25 86.9 L 282.5 83.75 Z"/>
			<path fill="#BCB38F" stroke-linecap="round" stroke-linejoin="round" d="M 357.5 81.25 L 357.5 88.8 L 307.5 78.8 L 307.5 71.25 L 357.5 81.25 Z"/>
			<path fill="#7BC7D9" stroke-linecap="round" stroke-linejoin="round" d="M 357.5 88.8 L 357.5 103.75 L 332.5 116.25 L 332.5 101.3 L 357.5 88.8 Z"/>
			<path fill="#A9DBE7" stroke-linecap="round" stroke-linejoin="round" d="M 332.5 93.75 L 293.3 85.9 L 307.5 78.8 L 357.5 88.8 L 332.5 101.3 L 332.5 93.75 Z"/>
			<path fill="#7DA343" stroke-linecap="round" stroke-linejoin="round" d="M 270.0 90.0 L 320.0 100.05 L 320.0 122.5 L 270.0 97.5 L 270.0 90.0 Z"/>
			<path fill="#BB8D5D" stroke-linecap="round" stroke-linejoin="round" d="M 270.0 105.0 L 270.0 97.5 L 320.0 122.5 L 320.0 130.0 L 270.0 105.0 Z"/>
			<path fill="#BB8D5D" stroke-linecap="round" stroke-linejoin="round" d="M 100.0 470.0 L 50.0 445.0 L 50.0 437.5 L 100.0 462.5 L 100.0 470.0 Z"/>
			<path fill="#9ABE63" stroke-linecap="round" stroke-linejoin="round" d="M 50.0 437.5 L 100.0 412.5 L 150.0 430.0 L 100.0 455.0 L 50.0 437.5 Z"/>
			<path fill="#74973E" stroke-linecap="round" stroke-linejoin="round" d="M 150.0 430.0 L 150.0 437.5 L 100.0 462.5 L 100.0 455.0 L 150.0 430.0 Z"/>
			<path fill="#9E7758" stroke-linecap="round" stroke-linejoin="round" d="M 150.0 437.5 L 150.0 445.0 L 100.0 470.0 L 100.0 462.5 L 150.0 437.5 Z"/>
			<path fill="#7DA343" stroke-linecap="round" stroke-linejoin="round" d="M 100.0 462.5 L 50.0 437.5 L 100.0 455.0 L 100.0 462.5 Z"/>
			<path fill="#7DA343" stroke-linecap="round" stroke-linejoin="round" d="M 50.0 352.5 L 50.0 345.0 L 100.0 370.0 L 100.0 377.5 L 50.0 352.5 Z"/>
			<path fill="#93BA56" stroke-linecap="round" stroke-linejoin="round" d="M 50.0 345.0 L 100.0 327.5 L 150.0 352.5 L 100.0 370.0 L 50.0 345.0 Z"/>
			<path fill="#9E7758" stroke-linecap="round" stroke-linejoin="round" d="M 150.0 352.5 L 150.0 360.0 L 100.0 385.0 L 100.0 377.5 L 150.0 352.5 Z"/>
			<path fill="#BB8D5D" stroke-linecap="round" stroke-linejoin="round" d="M 100.0 385.0 L 50.0 360.0 L 50.0 352.5 L 100.0 377.5 L 100.0 385.0 Z"/>
			<path fill="#74973E" stroke-linecap="round" stroke-linejoin="round" d="M 100.0 377.5 L 100.0 370.0 L 150.0 352.5 L 100.0 377.5 Z"/>
			<path fill="#9ABE63" stroke-linecap="round" stroke-linejoin="round" d="M 50.0 260.0 L 100.0 235.0 L 150.0 267.5 L 100.0 292.5 L 50.0 260.0 Z"/>
			<path fill="#9E7758" stroke-linecap="round" stroke-linejoin="round" d="M 150.0 267.5 L 150.0 275.0 L 100.0 300.0 L 100.0 292.5 L 150.0 267.5 Z"/>
			<path fill="#BB8D5D" stroke-linecap="round" stroke-linejoin="round" d="M 100.0 300.0 L 50.0 275.0 L 50.0 267.5 L 100.0 292.5 L 100.0 300.0 Z"/>
			<path fill="#7DA343" stroke-linecap="round" stroke-linejoin="round" d="M 50.0 267.5 L 50.0 260.0 L 100.0 292.5 L 50.0 267.5 Z"/>
			<path fill="#BB8D5D" stroke-linecap="round" stroke-linejoin="round" d="M 100.0 215.0 L 50.0 190.0 L 50.0 182.5 L 100.0 207.5 L 100.0 215.0 Z"/>
			<path fill="#93BA56" stroke-linecap="round" stroke-linejoin="round" d="M 50.0 182.5 L 100.0 150.0 L 150.0 175.0 L 100.0 207.5 L 50.0 182.5 Z"/>
			<path fill="#74973E" stroke-linecap="round" stroke-linejoin="round" d="M 150.0 175.0 L 150.0 182.5 L 100.0 207.5 L 150.0 175.0 Z"/>
			<path fill="#9E7758" stroke-linecap="round" stroke-linejoin="round" d="M 150.0 182.5 L 150.0 190.0 L 100.0 215.0 L 100.0 207.5 L 150.0 182.5 Z"/>
			<path fill="#8BB54A" stroke-linecap="round" stroke-linejoin="round" d="M 802.9 433.55 L 803.75 433.1 L 753.8 408.15 L 760.0 405.0 L 810.0 430.0 L 802.9 433.55 Z M 716.85 426.6 L 716.25 426.9 L 766.25 451.9 L 760.0 455.0 L 710.0 430.0 L 716.85 426.6 Z"/>
			<path fill="#D9D3BF" stroke-linecap="round" stroke-linejoin="round" d="M 803.75 433.1 L 802.9 433.55 L 797.5 436.25 L 747.5 411.25 L 753.8 408.15 L 803.75 433.1 Z M 735.1 430.05 L 735.05 430.05 L 772.5 448.75 L 766.7 451.7 L 766.25 451.9 L 716.25 426.9 L 716.85 426.6 L 722.5 423.75 L 735.1 430.05 Z"/>
			<path fill="#BCB38F" stroke-linecap="round" stroke-linejoin="round" d="M 747.5 411.25 L 797.5 436.25 L 797.5 443.75 L 754.2 422.1 L 753.35 421.7 L 747.5 418.75 L 747.5 411.25 Z"/>
			<path fill="#ACA075" stroke-linecap="round" stroke-linejoin="round" d="M 797.5 436.25 L 802.9 433.55 L 803.75 433.15 L 803.75 440.6 L 797.5 443.75 L 797.5 436.25 Z M 772.5 448.75 L 772.5 456.25 L 770.75 457.15 L 766.25 459.4 L 766.25 451.9 L 766.7 451.7 L 772.5 448.75 Z"/>
			<path fill="#74973E" stroke-linecap="round" stroke-linejoin="round" d="M 802.9 433.55 L 810.0 430.0 L 810.0 437.5 L 797.5 443.8 L 803.75 440.6 L 803.75 433.15 L 802.9 433.55 Z M 797.5 443.8 L 797.5 443.75 Z M 760.0 462.5 L 760.0 455.0 L 766.25 451.9 L 766.25 459.4 L 760.0 462.5 Z M 766.25 451.9 L 766.7 451.7 L 766.25 451.9 Z M 772.5 456.25 L 772.5 456.3 L 770.75 457.15 L 772.5 456.25 Z"/>
			<path fill="#9CD5E2" stroke-linecap="round" stroke-linejoin="round" d="M 747.5 423.85 L 749.1 423.05 L 749.65 422.7 C 750.68335 422.13333 752.05 421.86667 753.75 421.9 L 754.2 422.1 L 797.5 443.75 L 772.5 456.25 L 772.5 448.75 L 735.05 430.05 L 747.5 423.85 Z M 735.05 430.05 L 735.1 430.05 Z M 797.5 443.75 L 797.45 443.75 Z"/>
			<path fill="#BB8D5D" stroke-linecap="round" stroke-linejoin="round" d="M 749.1 423.05 L 747.5 423.85 L 747.5 418.75 L 753.35 421.7 L 753.75 421.9 C 752.05 421.86667 750.68335 422.13333 749.65 422.7 L 749.1 423.05 Z M 760.0 470.0 L 710.0 445.0 L 710.0 437.5 L 760.0 462.5 L 760.0 470.0 Z"/>
			<path fill="#7DA343" stroke-linecap="round" stroke-linejoin="round" d="M 753.75 421.9 L 753.35 421.7 L 754.2 422.1 L 753.75 421.9 Z M 710.0 437.5 L 710.0 430.0 L 760.0 455.0 L 760.0 462.5 L 710.0 437.5 Z"/>
			<path fill="#7BC7D9" stroke-linecap="round" stroke-linejoin="round" d="M 772.5 456.3 L 772.5 456.25 L 797.45 443.75 L 797.45 451.3 L 772.5 463.75 L 772.5 456.3 Z"/>
			<path fill="#9E7758" stroke-linecap="round" stroke-linejoin="round" d="M 770.75 457.15 L 772.5 456.3 L 772.5 463.75 L 760.0 470.0 L 760.0 462.5 L 766.25 459.4 L 770.75 457.15 Z M 797.45 443.75 L 797.5 443.8 L 810.0 437.5 L 810.0 445.0 L 797.45 451.3 L 797.45 443.75 Z"/>
			<path fill="#D9D3BF" stroke-linecap="round" stroke-linejoin="round" d="M 719.0 349.5 L 717.85 348.9 L 716.25 348.1 L 766.25 323.15 L 772.5 326.25 L 722.5 351.25 L 719.0 349.5 Z M 784.95 345.05 L 797.5 338.75 L 803.2 341.6 L 803.75 341.9 L 753.8 366.9 L 752.9 366.5 C 751.10004 365.56668 749.30005 364.65002 747.5 363.75 L 784.95 345.05 Z"/>
			<path fill="#8BB54A" stroke-linecap="round" stroke-linejoin="round" d="M 717.85 348.9 L 719.0 349.5 L 716.7 348.35 L 710.0 345.0 L 760.0 320.0 L 766.25 323.15 L 716.25 348.1 L 717.85 348.9 Z M 803.2 341.6 L 810.0 345.0 L 760.0 370.0 L 753.8 366.9 L 803.75 341.9 L 803.2 341.6 Z"/>
			<path fill="#7DA343" stroke-linecap="round" stroke-linejoin="round" d="M 710.0 345.0 L 716.7 348.35 L 716.25 348.15 L 716.25 355.6 L 722.5 358.75 L 710.0 352.5 L 710.0 345.0 Z M 722.5 358.75 L 722.5 358.8 Z M 747.5 371.3 L 747.5 371.25 L 749.3 372.15 L 747.5 371.3 Z M 760.0 377.5 L 753.75 374.4 L 753.75 366.9 L 760.0 370.0 L 760.0 377.5 Z M 752.9 366.5 L 753.8 366.9 L 752.9 366.5 Z"/>
			<path fill="#BCB38F" stroke-linecap="round" stroke-linejoin="round" d="M 716.7 348.35 L 719.0 349.5 L 722.5 351.25 L 722.5 358.75 L 716.25 355.6 L 716.25 348.15 L 716.7 348.35 Z M 747.5 363.75 C 749.3 364.65 751.1 365.56665 752.9 366.5 L 753.75 366.9 L 753.75 374.4 L 749.3 372.15 L 747.5 371.25 L 747.5 363.75 Z"/>
			<path fill="#ACA075" stroke-linecap="round" stroke-linejoin="round" d="M 722.5 351.25 L 772.5 326.25 L 772.5 333.75 L 766.7 336.7 L 765.75 337.15 L 722.5 358.75 L 722.5 351.25 Z"/>
			<path fill="#BB8D5D" stroke-linecap="round" stroke-linejoin="round" d="M 722.55 366.3 L 710.0 360.0 L 710.0 352.5 L 722.5 358.8 L 722.55 366.3 Z M 722.5 358.8 L 722.55 358.75 Z M 747.5 378.75 L 747.5 371.3 L 749.3 372.15 L 753.75 374.4 L 760.0 377.5 L 760.0 385.0 L 747.5 378.75 Z"/>
			<path fill="#9CD5E2" stroke-linecap="round" stroke-linejoin="round" d="M 722.55 358.75 L 722.5 358.75 L 765.75 337.15 L 766.25 336.9 C 767.95 336.86667 769.31665 337.13333 770.35 337.7 L 770.9 338.05 L 772.5 338.85 L 784.95 345.05 L 747.5 363.75 L 747.5 371.25 L 722.55 358.75 Z"/>
			<path fill="#88CDDD" stroke-linecap="round" stroke-linejoin="round" d="M 722.55 366.3 L 722.55 358.75 L 747.5 371.25 L 747.5 378.75 L 722.55 366.3 Z M 747.5 371.25 L 747.5 371.3 Z"/>
			<path fill="#74973E" stroke-linecap="round" stroke-linejoin="round" d="M 765.75 337.15 L 766.7 336.7 L 766.25 336.9 L 765.75 337.15 Z M 810.0 345.0 L 810.0 352.5 L 760.0 377.5 L 760.0 370.0 L 810.0 345.0 Z"/>
			<path fill="#9E7758" stroke-linecap="round" stroke-linejoin="round" d="M 766.7 336.7 L 772.5 333.75 L 772.5 338.85 L 770.9 338.05 L 770.35 337.7 C 769.31665 337.13333 767.95 336.86667 766.25 336.9 L 766.7 336.7 Z M 810.0 352.5 L 810.0 360.0 L 760.0 385.0 L 760.0 377.5 L 810.0 352.5 Z"/>
			<path fill="#93BA56" stroke-linecap="round" stroke-linejoin="round" d="M 896.75 85.9 L 907.5 83.75 L 920.0 90.0 L 870.05 100.05 L 857.5 93.75 L 896.75 85.9 Z M 870.05 100.05 L 870.0 100.05 Z M 820.05 75.05 L 870.0 65.0 L 882.5 71.25 L 832.5 81.25 L 820.05 75.05 Z"/>
			<path fill="#74973E" stroke-linecap="round" stroke-linejoin="round" d="M 920.0 90.0 L 920.0 97.5 L 870.0 122.5 L 870.0 100.05 L 920.0 90.0 Z M 870.0 100.05 L 870.05 100.05 Z M 882.5 71.25 L 882.5 78.8 L 832.5 88.8 L 832.5 81.25 L 882.5 71.25 Z"/>
			<path fill="#9E7758" stroke-linecap="round" stroke-linejoin="round" d="M 920.0 97.5 L 920.0 105.0 L 870.0 130.0 L 870.0 122.5 L 920.0 97.5 Z"/>
			<path fill="#BB8D5D" stroke-linecap="round" stroke-linejoin="round" d="M 870.0 130.0 L 820.0 105.0 L 820.0 97.5 L 832.5 103.75 L 857.5 116.25 L 870.0 122.5 L 870.0 130.0 Z"/>
			<path fill="#7DA343" stroke-linecap="round" stroke-linejoin="round" d="M 820.0 75.05 L 820.05 75.05 L 832.5 81.25 L 832.5 88.8 L 832.5 103.75 L 820.0 97.5 L 820.0 75.05 Z M 857.5 93.75 L 870.0 100.05 L 870.0 122.5 L 857.5 116.25 L 857.5 101.3 L 857.5 93.75 Z"/>
			<path fill="#A9DBE7" stroke-linecap="round" stroke-linejoin="round" d="M 882.5 78.8 L 896.75 85.9 L 857.5 93.75 L 857.5 101.3 L 832.5 88.8 L 882.5 78.8 Z"/>
			<path fill="#88CDDD" stroke-linecap="round" stroke-linejoin="round" d="M 857.5 116.25 L 832.5 103.75 L 832.5 88.8 L 857.5 101.3 L 857.5 116.25 Z"/>
			<path fill="#7DA343" stroke-linecap="round" stroke-linejoin="round" d="M 747.5 78.8 L 747.5 71.25 L 797.5 81.25 L 797.5 88.8 L 747.5 78.8 Z M 710.0 97.5 L 710.0 90.0 L 760.0 100.05 L 760.0 122.5 L 710.0 97.5 Z"/>
			<path fill="#9ABE63" stroke-linecap="round" stroke-linejoin="round" d="M 747.5 71.25 L 760.0 65.0 L 810.0 75.05 L 797.5 81.25 L 747.5 71.25 Z M 710.0 90.0 L 722.5 83.75 L 733.3 85.9 L 772.5 93.75 L 760.0 100.05 L 710.0 90.0 Z"/>
			<path fill="#74973E" stroke-linecap="round" stroke-linejoin="round" d="M 810.0 75.05 L 810.0 97.5 L 797.5 103.75 L 797.5 88.8 L 797.5 81.25 L 810.0 75.05 Z M 760.0 122.5 L 760.0 100.05 L 772.5 93.75 L 772.5 101.3 L 772.5 116.25 L 760.0 122.5 Z"/>
			<path fill="#9E7758" stroke-linecap="round" stroke-linejoin="round" d="M 810.0 97.5 L 810.0 105.0 L 760.0 130.0 L 760.0 122.5 L 772.5 116.25 L 797.5 103.75 L 810.0 97.5 Z"/>
			<path fill="#BB8D5D" stroke-linecap="round" stroke-linejoin="round" d="M 760.0 130.0 L 710.0 105.0 L 710.0 97.5 L 760.0 122.5 L 760.0 130.0 Z"/>
			<path fill="#A9DBE7" stroke-linecap="round" stroke-linejoin="round" d="M 733.3 85.9 L 747.5 78.8 L 797.5 88.8 L 772.5 101.3 L 772.5 93.75 L 733.3 85.9 Z"/>
			<path fill="#7BC7D9" stroke-linecap="round" stroke-linejoin="round" d="M 772.5 116.25 L 772.5 101.3 L 797.5 88.8 L 797.5 103.75 L 772.5 116.25 Z"/>
			<path fill="#A9DBE7" stroke-linecap="round" stroke-linejoin="round" d="M 662.5 63.75 L 681.7 73.35 L 637.5 108.75 L 637.5 116.25 L 612.5 103.75 L 662.5 63.75 Z"/>
			<path fill="#93BA56" stroke-linecap="round" stroke-linejoin="round" d="M 681.7 73.35 L 687.5 68.7 L 700.0 75.0 L 650.0 115.05 L 637.5 108.75 L 681.7 73.35 Z M 600.2 89.9 L 650.0 50.0 L 662.5 56.2 L 612.5 96.2 L 600.05 90.05 L 600.2 89.9 Z M 600.05 90.05 L 600.05 90.0 Z"/>
			<path fill="#74973E" stroke-linecap="round" stroke-linejoin="round" d="M 700.0 75.0 L 700.0 97.45 L 650.0 122.5 L 650.0 115.05 L 700.0 75.0 Z M 662.5 56.2 L 662.5 63.75 L 612.5 103.75 L 612.5 96.2 L 662.5 56.2 Z"/>
			<path fill="#9E7758" stroke-linecap="round" stroke-linejoin="round" d="M 700.0 97.45 L 700.0 105.0 L 650.0 130.0 L 650.0 122.5 L 700.0 97.45 Z"/>
			<path fill="#BB8D5D" stroke-linecap="round" stroke-linejoin="round" d="M 650.0 130.0 L 600.0 105.0 L 600.0 97.45 L 612.5 103.75 L 637.5 116.25 L 650.0 122.5 L 650.0 130.0 Z"/>
			<path fill="#7DA343" stroke-linecap="round" stroke-linejoin="round" d="M 612.5 96.2 L 612.5 103.75 L 600.0 97.45 L 600.0 90.0 L 612.5 96.2 Z M 637.5 116.25 L 637.5 108.75 L 650.0 115.05 L 650.0 122.5 L 637.5 116.25 Z"/>
			<path fill="#8BB54A" stroke-linecap="round" stroke-linejoin="round" d="M 600.05 90.0 L 600.0 89.95 L 600.2 89.9 L 600.05 90.0 Z"/>
			<path fill="#7DA343" stroke-linecap="round" stroke-linejoin="round" d="M 490.0 97.45 L 490.0 75.0 L 540.0 115.05 L 540.0 122.5 L 490.0 97.45 Z M 527.5 63.75 L 527.5 56.2 L 577.5 96.2 L 577.5 103.75 L 527.5 63.75 Z"/>
			<path fill="#8BB54A" stroke-linecap="round" stroke-linejoin="round" d="M 590.0 89.95 L 589.95 90.0 L 589.8 89.9 L 590.0 89.95 Z"/>
			<path fill="#74973E" stroke-linecap="round" stroke-linejoin="round" d="M 589.95 90.05 L 590.0 90.0 L 590.0 97.45 L 577.5 103.75 L 577.5 96.2 L 589.95 90.05 Z M 540.0 122.5 L 540.0 115.05 L 552.5 108.75 L 552.5 116.25 L 540.0 122.5 Z"/>
			<path fill="#9E7758" stroke-linecap="round" stroke-linejoin="round" d="M 590.0 97.45 L 590.0 105.0 L 540.0 130.0 L 540.0 122.5 L 552.5 116.25 L 577.5 103.75 L 590.0 97.45 Z"/>
			<path fill="#BB8D5D" stroke-linecap="round" stroke-linejoin="round" d="M 540.0 130.0 L 490.0 105.0 L 490.0 97.45 L 540.0 122.5 L 540.0 130.0 Z"/>
			<path fill="#9ABE63" stroke-linecap="round" stroke-linejoin="round" d="M 490.0 75.0 L 502.5 68.7 L 508.3 73.35 L 552.5 108.75 L 540.0 115.05 L 490.0 75.0 Z M 527.5 56.2 L 540.0 50.0 L 589.8 89.9 L 589.95 90.0 L 577.5 96.2 L 527.5 56.2 Z M 589.95 90.0 L 589.95 90.05 Z"/>
			<path fill="#A9DBE7" stroke-linecap="round" stroke-linejoin="round" d="M 508.3 73.35 L 527.5 63.75 L 577.5 103.75 L 552.5 116.25 L 552.5 108.75 L 508.3 73.35 Z"/>
			<path fill="#9CD5E2" stroke-linecap="round" stroke-linejoin="round" d="M 832.35 346.35 L 836.55 348.45 C 841.9166 350.61667 847.2166 350.73334 852.45 348.8 L 857.9 346.1 C 865.26666 342.1 865.9166 338.38333 859.85 334.95 L 857.5 333.75 L 870.0 327.5 L 920.0 352.5 L 870.0 377.5 L 820.0 352.5 L 832.35 346.35 Z"/>
			<path fill="#B7E0EA" stroke-linecap="round" stroke-linejoin="round" d="M 836.55 348.45 L 832.35 346.35 L 857.5 333.75 L 859.85 334.95 C 865.9167 338.38333 865.2667 342.1 857.9 346.1 L 852.45 348.8 C 847.2167 350.73334 841.9167 350.61667 836.55 348.45 Z"/>
			<path fill="#BB8D5D" stroke-linecap="round" stroke-linejoin="round" d="M 820.0 352.5 L 870.0 377.5 L 870.0 385.0 L 820.0 360.0 L 820.0 352.5 Z"/>
			<path fill="#9E7758" stroke-linecap="round" stroke-linejoin="round" d="M 870.0 377.5 L 920.0 352.5 L 920.0 360.0 L 870.0 385.0 L 870.0 377.5 Z"/>
			<path fill="#BB8D5D" stroke-linecap="round" stroke-linejoin="round" d="M 930.0 360.0 L 930.0 352.5 L 980.0 377.5 L 980.0 385.0 L 930.0 360.0 Z"/>
			<path fill="#9E7758" stroke-linecap="round" stroke-linejoin="round" d="M 980.0 385.0 L 980.0 377.5 L 1030.0 352.5 L 1030.0 360.0 L 980.0 385.0 Z"/>
			<path fill="#9CD5E2" stroke-linecap="round" stroke-linejoin="round" d="M 980.0 377.5 L 930.0 352.5 L 980.0 327.5 L 992.5 333.75 L 990.15 334.95 C 984.0833 338.38333 984.7333 342.1 992.1 346.1 L 997.55 348.8 C 1002.7833 350.73334 1008.0833 350.61667 1013.45 348.45 L 1017.65 346.35 L 1030.0 352.5 L 980.0 377.5 Z"/>
			<path fill="#B7E0EA" stroke-linecap="round" stroke-linejoin="round" d="M 992.5 333.75 L 1017.65 346.35 L 1013.45 348.45 C 1008.0834 350.61667 1002.7834 350.73334 997.55 348.8 L 992.1 346.1 C 984.73334 342.1 984.0834 338.38333 990.15 334.95 L 992.5 333.75 Z"/>
			<path fill="#BB8D5D" stroke-linecap="round" stroke-linejoin="round" d="M 930.0 445.0 L 930.0 437.5 L 980.0 462.5 L 980.0 470.0 L 930.0 445.0 Z"/>
			<path fill="#9E7758" stroke-linecap="round" stroke-linejoin="round" d="M 980.0 470.0 L 980.0 462.5 L 992.5 456.25 L 1017.25 443.9 L 1030.0 437.5 L 1030.0 445.0 L 980.0 470.0 Z"/>
			<path fill="#9CD5E2" stroke-linecap="round" stroke-linejoin="round" d="M 980.0 462.5 L 930.0 437.5 L 980.0 412.5 L 1030.0 437.5 L 1017.25 443.9 L 1017.65 443.65 L 1013.45 441.55 C 1008.0834 439.38333 1002.7834 439.26666 997.55 441.2 L 992.1 443.9 C 984.73334 447.9 984.0834 451.61667 990.15 455.05 L 992.5 456.25 L 980.0 462.5 Z"/>
			<path fill="#B7E0EA" stroke-linecap="round" stroke-linejoin="round" d="M 1017.25 443.9 L 992.5 456.25 L 990.15 455.05 C 984.0833 451.61667 984.7333 447.9 992.1 443.9 L 997.55 441.2 C 1002.7833 439.26666 1008.0833 439.38333 1013.45 441.55 L 1017.65 443.65 L 1017.25 443.9 Z"/>
			<path fill="#BB8D5D" stroke-linecap="round" stroke-linejoin="round" d="M 870.0 470.0 L 820.0 445.0 L 820.0 437.5 L 832.8 443.9 L 857.5 456.25 L 870.0 462.5 L 870.0 470.0 Z"/>
			<path fill="#9CD5E2" stroke-linecap="round" stroke-linejoin="round" d="M 820.0 437.5 L 870.0 412.5 L 920.0 437.5 L 870.0 462.5 L 857.5 456.25 L 859.85 455.05 C 865.9167 451.61667 865.2667 447.9 857.9 443.9 L 852.45 441.2 C 847.2167 439.26666 841.9167 439.38333 836.55 441.55 L 832.35 443.65 L 832.8 443.9 L 820.0 437.5 Z"/>
			<path fill="#9E7758" stroke-linecap="round" stroke-linejoin="round" d="M 920.0 437.5 L 920.0 445.0 L 870.0 470.0 L 870.0 462.5 L 920.0 437.5 Z"/>
			<path fill="#B7E0EA" stroke-linecap="round" stroke-linejoin="round" d="M 857.5 456.25 L 832.8 443.9 L 832.35 443.65 L 836.55 441.55 C 841.9166 439.38333 847.2166 439.26666 852.45 441.2 L 857.9 443.9 C 865.26666 447.9 865.9166 451.61667 859.85 455.05 L 857.5 456.25 Z"/>
		</g>
	</g>
</svg>
