
<svg xmlns="http://www.w3.org/2000/svg" version="1.1" xmlns:xlink="http://www.w3.org/1999/xlink" preserveAspectRatio="none" x="0px" y="0px" width="444px" height="486px" viewBox="0 0 444 486">
<defs>
<g id="Layer0_0_FILL">
<path fill="#000000" fill-opacity="0.2" stroke="none" d="
M 0 470.8
L 0 474.3
Q 0 479.75 2.9 482.4 5.55 485.25 11 485.25
L 421 485.25
Q 426.45 485.25 429.15 482.4 432 479.75 432 474.3
L 432 470.8
Q 431.9 475.85 429.15 478.4 426.45 481.25 421 481.25
L 11 481.25
Q 5.55 481.25 2.9 478.4 0.1 475.85 0 470.8 Z"/>

<path fill="#1C8348" stroke="none" d="
M 432 60.25
Q 432 49.25 421 49.25
L 11 49.25
Q 0 49.25 0 60.25
L 0 470.8
Q 0.1 475.85 2.9 478.4 5.55 481.25 11 481.25
L 421 481.25
Q 426.45 481.25 429.15 478.4 431.9 475.85 432 470.8
L 432 60.25
M 421 52.25
Q 425.3 52.25 427.3 54.6 429 56.55 429 60.25
L 429 470.3
Q 429 478.25 421 478.25
L 11 478.25
Q 3 478.25 3 470.3
L 3 60.25
Q 3 56.55 4.7 54.6 6.7 52.25 11 52.25
L 421 52.25 Z"/>

<path fill="#33E57E" stroke="none" d="
M 427.3 54.6
Q 425.3 52.25 421 52.25
L 11 52.25
Q 6.7 52.25 4.7 54.6 3 56.55 3 60.25
L 3 470.3
Q 3 478.25 11 478.25
L 421 478.25
Q 429 478.25 429 470.3
L 429 60.25
Q 429 56.55 427.3 54.6
M 421 55.25
Q 426 55.25 426 60.25
L 426 470.3
Q 426 475.25 421 475.25
L 11 475.25
Q 6 475.25 6 470.3
L 6 60.25
Q 6 55.25 11 55.25
L 421 55.25 Z"/>

<path fill="#2ECC71" stroke="none" d="
M 426 60.25
Q 426 55.25 421 55.25
L 11 55.25
Q 6 55.25 6 60.25
L 6 470.3
Q 6 475.25 11 475.25
L 421 475.25
Q 426 475.25 426 470.3
L 426 60.25 Z"/>
</g>

<g id="Layer0_1_FILL">
<path fill="#000000" fill-opacity="0.09803921568627451" stroke="none" d="
M 590 58.75
Q 589.8734375 54 585 54
L 215 54
Q 210.1263671875 54 210 58.75
L 210 345.3
Q 210.15 350 215 350
L 585 350
Q 589.85 350 590 345.3
L 590 58.75 Z"/>

<path fill="#000000" fill-opacity="0.2" stroke="none" d="
M 585 54
Q 589.8734375 54 590 58.75
L 590 55
Q 590 50 585 50
L 215 50
Q 210 50 210 55
L 210 58.75
Q 210.1263671875 54 215 54
L 585 54 Z"/>
</g>

<g id="Layer0_2_FILL">
<path fill="#000000" fill-opacity="0.09803921568627451" stroke="none" d="
M 315.5 433.95
Q 307.75390625 433.95 307.5 426.45
L 307.5 429.95
Q 307.5 437.95 315.5 437.95
L 484.5 437.95
Q 492.5 437.95 492.5 429.95
L 492.5 426.45
Q 492.24609375 433.95 484.5 433.95
L 315.5 433.95 Z"/>

<path fill="#A8A8A8" stroke="none" d="
M 492.5 375.95
Q 492.5 367.95 484.5 367.95
L 315.5 367.95
Q 307.5 367.95 307.5 375.95
L 307.5 426.45
Q 307.75390625 433.95 315.5 433.95
L 484.5 433.95
Q 492.24609375 433.95 492.5 426.45
L 492.5 375.95
M 488.65 372.7
Q 489.5 373.9173828125 489.5 375.95
L 489.5 418.2 489.5 425.95
Q 489.5 430.95 484.5 430.95
L 315.5 430.95
Q 310.5 430.95 310.5 425.95
L 310.5 418.2 310.5 375.95
Q 310.5 373.9173828125 311.3 372.7 312.5326171875 370.95 315.5 370.95
L 484.5 370.95
Q 487.4673828125 370.95 488.65 372.7 Z"/>

<path fill="#E7E7E7" stroke="none" d="
M 315.5 422.95
Q 310.65 422.95 310.5 418.2
L 310.5 425.95
Q 310.5 430.95 315.5 430.95
L 484.5 430.95
Q 489.5 430.95 489.5 425.95
L 489.5 418.2
Q 489.35 422.95 484.5 422.95
L 315.5 422.95 Z"/>

<path fill="#FFFFFF" stroke="none" d="
M 489.5 375.95
Q 489.5 373.9173828125 488.65 372.7 487.4673828125 370.95 484.5 370.95
L 315.5 370.95
Q 312.5326171875 370.95 311.3 372.7 310.5 373.9173828125 310.5 375.95
L 310.5 418.2
Q 310.65 422.95 315.5 422.95
L 484.5 422.95
Q 489.35 422.95 489.5 418.2
L 489.5 375.95 Z"/>
</g>

<g id="Layer0_3_FILL">
<path fill="#000000" fill-opacity="0.09803921568627451" stroke="none" d="
M 627.25 31.5
Q 627.25 30.75 627.2 30 626.7 36.15 622.2 40.65
L 622.15 40.7
Q 617.15 45.75 610 45.75 602.85 45.75 597.8 40.7 593.3 36.2 592.8 30 592.75 30.75 592.75 31.5 592.75 38.65 597.8 43.7 602.85 48.75 610 48.75 617.15 48.75 622.15 43.7
L 622.2 43.65
Q 627.25 38.65 627.25 31.5 Z"/>

<path fill="#999999" stroke="none" d="
M 622.2 16.3
Q 617.15 11.25 610 11.25 602.85 11.25 597.8 16.3 592.75 21.35 592.75 28.5 592.75 29.25 592.8 30 593.3 36.2 597.8 40.7 602.85 45.75 610 45.75 617.15 45.75 622.15 40.7
L 622.2 40.65
Q 626.7 36.15 627.2 30 627.25 29.25 627.25 28.5 627.25 21.35 622.2 16.3
M 608.55 14.3
Q 609.25 14.25 610 14.25 610.75 14.25 611.45 14.3 616.4 14.75 620.05 18.4 624.25 22.6 624.25 28.5 624.25 34.4 620.05 38.55 615.9 42.75 610 42.75 604.1 42.75 599.9 38.55 595.75 34.4 595.75 28.5 595.75 22.6 599.9 18.4 603.6 14.75 608.55 14.3 Z"/>

<path fill="#FFFFFF" stroke="none" d="
M 610 14.25
Q 609.25 14.25 608.55 14.3 603.6 14.75 599.9 18.4 595.75 22.6 595.75 28.5 595.75 34.4 599.9 38.55 604.1 42.75 610 42.75 615.9 42.75 620.05 38.55 624.25 34.4 624.25 28.5 624.25 22.6 620.05 18.4 616.4 14.75 611.45 14.3 610.75 14.25 610 14.25 Z"/>
</g>

<g id="Layer0_4_FILL">
<path fill="#999999" stroke="none" d="
M 614.8 21.65
Q 614.4 21.25 614 21.6
L 610 25.65 605.95 21.6
Q 605.6 21.2 605.2 21.6
L 602.65 24.15
Q 602.25 24.55 602.6 24.95
L 606.65 29 602.65 33
Q 602.25 33.4 602.65 33.8
L 605.2 36.35
Q 605.6 36.7 606 36.3
L 610 32.3 614 36.35
Q 614.4 36.75 614.8 36.35
L 617.35 33.8
Q 617.75 33.4 617.35 33
L 613.35 28.95 617.35 24.9
Q 617.75 24.55 617.35 24.2
L 614.8 21.65 Z"/>
</g>

<g id="Layer0_5_FILL">
<path fill="#000000" fill-opacity="0.09803921568627451" stroke="none" d="
M 344.65 83.85
L 353.7 65.95
Q 354 65.45 354.05 64.85 354.1 64.25 353.85 63.75
L 349.85 53.3
Q 349.6 52.55 349 52.1 348.4 51.6 347.6 51.55
L 325.8 48.95 310.25 33.45
Q 309.6 32.75 308.7 32.7 307.8 32.55 307 33 306.2 33.4 305.8 34.25
L 296.6 54.2 277.05 64.25
Q 276.25 64.65 275.85 65.45 275.45 66.2 275.55 67.15 275.75 68 276.35 68.65
L 285.75 78.1
Q 285.8 78.1 285.85 78.15
L 292.7 84.55 296.1 105.25
Q 296.3 106.25 297.05 106.95
L 304.9 113.4
Q 305.5 113.9 306.35 114 307.2 114.05 307.95 113.65
L 325.55 103.85 345.5 106.9
Q 346.35 107 347.2 106.6 348 106.2 348.4 105.35 348.8 104.55 348.6 103.6
L 344.65 83.85
M 491.35 32.7
Q 490.45 32.75 489.8 33.45
L 474.2 48.95 452.45 51.55
Q 451.65 51.6 451.05 52.1 450.45 52.55 450.2 53.3
L 446.2 63.75
Q 445.95 64.25 446 64.85 446.05 65.45 446.3 65.95
L 455.35 83.85 451.4 103.6
Q 451.25 104.55 451.65 105.35 452 106.2 452.85 106.6 453.65 107 454.55 106.9
L 474.5 103.85 492.1 113.65
Q 492.8 114.05 493.7 114 494.5 113.9 495.15 113.4
L 502.95 106.95
Q 503.75 106.25 503.95 105.25
L 507.35 84.55 514.2 78.15
Q 514.2 78.1 514.25 78.1
L 523.7 68.65
Q 524.3 68 524.45 67.15 524.55 66.2 524.2 65.45 523.8 64.65 523 64.25
L 503.45 54.2 494.25 34.25
Q 493.85 33.4 493.05 33 492.2 32.55 491.35 32.7
M 399.2 -11.55
Q 398.3 -11.3 397.8 -10.5
L 378.45 17.15 346.1 27.05
Q 345.35 27.3 344.85 27.85 344.3 28.4 344.15 29.2 344 29.9 344.3 30.65
L 348.5 42.35
Q 348.65 42.7 348.9 43
L 364.9 64.3 364.4 92.1
Q 364.4 92.7 364.6 93.2
L 367.2 99.9
Q 367.65 100.9 368.65 101.4 369.65 101.85 370.7 101.5
L 400.05 91.45 429.45 101.5
Q 430.5 101.85 431.55 101.4 432.5 100.9 432.9 99.9
L 435.5 93.2
Q 435.65 92.65 435.65 92.1
L 435.2 64.35 451.25 43
Q 451.45 42.7 451.65 42.3
L 455.85 30.6
Q 456.05 29.9 455.95 29.2 455.8 28.4 455.3 27.85 454.75 27.3 454.05 27.05
L 421.65 17.15 402.3 -10.5
Q 401.8 -11.3 400.95 -11.55 400.05 -11.85 399.2 -11.55 Z"/>
</g>

<g id="Layer0_5_MEMBER_0_MEMBER_0_FILL">
<path fill="#A88500" stroke="none" d="
M 399.1 -25.1
Q 398.166015625 -24.787109375 397.6 -24
L 376.5 6.1 341.25 16.9
Q 340.48046875 17.17890625 339.9 17.8 339.366015625 18.4146484375 339.2 19.2 339.0404296875 20.036328125 339.3 20.8
L 343.9 33.5
Q 344.0783203125 33.9376953125 344.35 34.3
L 361.75 57.4 361.25 87.75
Q 361.237109375 88.3388671875 361.45 88.9
L 364.3 96.2
Q 364.7443359375 97.3158203125 365.85 97.8 366.9462890625 98.3396484375 368.05 97.95
L 400.05 86.95 432 97.95
Q 433.1724609375 98.341796875 434.25 97.8 435.3693359375 97.3041015625 435.8 96.15
L 438.6 88.85
Q 438.8091796875 88.322265625 438.8 87.75
L 438.25 57.45 455.75 34.3
Q 456.0208984375 33.9287109375 456.15 33.5
L 460.7 20.8
Q 461.0080078125 20.02734375 460.85 19.2 460.6859375 18.416015625 460.1 17.8 459.562890625 17.175 458.75 16.9
L 423.55 6.1 402.5 -24
Q 401.9333984375 -24.7880859375 401 -25.1 400.05 -25.4138671875 399.1 -25.1
M 457.9 19.8
L 453.35 32.5 435.25 56.5 435.8 87.8 433 95.1 400.05 83.8 367.1 95.1 364.25 87.8 364.8 56.45 346.75 32.5 342.15 19.8 378.35 8.7 400.05 -22.25 421.7 8.7 457.9 19.8 Z"/>

<path fill="#D7AC00" stroke="none" d="
M 400.05 83.8
L 400.05 75.5 364.25 87.8 367.1 95.1 400.05 83.8
M 342.15 19.8
L 346.75 32.5 364.8 56.45 364.9 50 342.15 19.8
M 453.35 32.5
L 457.9 19.8 435.15 50 435.25 56.5 453.35 32.5 Z"/>

<path fill="#C29A00" stroke="none" d="
M 433 95.1
L 435.8 87.8 400.05 75.5 400.05 83.8 433 95.1 Z"/>

<path fill="#FFCC00" stroke="none" d="
M 435.25 56.5
L 435.15 50 457.9 19.8 421.7 8.7 400.05 -22.25 378.35 8.7 342.15 19.8 364.9 50 364.8 56.45 364.25 87.8 400.05 75.5 435.8 87.8 435.25 56.5
M 416.75 12.15
Q 417.9693359375 13.8205078125 419.95 14.4
L 447.95 23 430.35 46.4
Q 429.1173828125 48.042578125 429.15 50.1
L 429.65 79.35 402 69.8
Q 400.0490234375 69.153515625 398.1 69.8
L 370.4 79.35 370.9 50.1
Q 370.9326171875 48.042578125 369.7 46.4
L 352.05 23 380.1 14.4
Q 382.08125 13.8181640625 383.25 12.15
L 400.05 -11.8 416.75 12.15 Z"/>

<path fill="#FFD943" stroke="none" d="
M 419.95 14.4
Q 417.9693359375 13.8205078125 416.75 12.15
L 400.05 -11.8 383.25 12.15
Q 382.08125 13.8181640625 380.1 14.4
L 352.05 23 369.7 46.4
Q 370.9326171875 48.042578125 370.9 50.1
L 370.4 79.35 398.1 69.8
Q 400.0490234375 69.153515625 402 69.8
L 429.65 79.35 429.15 50.1
Q 429.1173828125 48.042578125 430.35 46.4
L 447.95 23 419.95 14.4 Z"/>
</g>

<g id="Layer0_5_MEMBER_0_MEMBER_1_FILL">
<path fill="#A88500" stroke="none" d="
M 512.55 46.45
L 502.55 24.75
Q 502.1 23.85 501.25 23.4 500.35 22.9 499.4 23.05 498.4 23.15 497.7 23.9
L 480.75 40.75 457.05 43.6
Q 456.2 43.65 455.55 44.2 454.9 44.7 454.6 45.5
L 450.25 56.85
Q 450 57.4 450.05 58.05 450.1 58.7 450.4 59.25
L 460.25 78.75 455.95 100.25
Q 455.75 101.25 456.2 102.15 456.6 103.05 457.5 103.5 458.4 103.95 459.35 103.85
L 481.05 100.5 500.2 111.2
Q 501 111.6 501.95 111.55 502.85 111.45 503.55 110.9
L 512.05 103.9
Q 512.9 103.15 513.1 102.05
L 516.8 79.5 524.25 72.55
Q 524.3 72.5 524.35 72.5
L 534.6 62.2
Q 535.25 61.5 535.45 60.55 535.55 59.55 535.15 58.7 534.7 57.85 533.85 57.4
L 512.55 46.45
M 499.8 26
L 510.25 48.65 532.45 60.05 522.2 70.35 514 77.95 510.15 101.55 501.65 108.55 481.6 97.35 458.9 100.85 463.4 78.35 453.05 57.9 457.4 46.55 482.15 43.6 499.8 26 Z"/>

<path fill="#D7AC00" stroke="none" d="
M 453.05 57.9
L 463.4 78.35 458.9 100.85 463.75 93.2 468.6 68.75 457.4 46.55 453.05 57.9
M 514.15 76.95
L 514 77.95 522.2 70.35 532.45 60.05 514.15 76.95 Z"/>

<path fill="#C29A00" stroke="none" d="
M 501.65 108.55
L 510.15 101.55 488.4 89.4 463.75 93.2 458.9 100.85 481.6 97.35 501.65 108.55 Z"/>

<path fill="#FFCC00" stroke="none" d="
M 510.25 48.65
L 499.8 26 482.15 43.6 457.4 46.55 468.6 68.75 463.75 93.2 488.4 89.4 510.15 101.55 514 77.95 514.15 76.95 532.45 60.05 510.25 48.65
M 486.4 47.85
L 497.95 36.35 504.8 51.2
Q 505.65 53.05 507.5 54
L 522.1 61.5 510.1 72.55
Q 508.55 73.95 508.25 76
L 505.6 92.15 491.35 84.15
Q 489.5 83.15 487.5 83.5
L 471.3 86 474.5 69.95
Q 474.9 67.9 473.95 66.05
L 466.6 51.5 482.85 49.55
Q 484.9 49.3 486.4 47.85 Z"/>

<path fill="#FFD943" stroke="none" d="
M 497.95 36.35
L 486.4 47.85
Q 484.9 49.3 482.85 49.55
L 466.6 51.5 473.95 66.05
Q 474.9 67.9 474.5 69.95
L 471.3 86 487.5 83.5
Q 489.5 83.15 491.35 84.15
L 505.6 92.15 508.25 76
Q 508.55 73.95 510.1 72.55
L 522.1 61.5 507.5 54
Q 505.65 53.05 504.8 51.2
L 497.95 36.35 Z"/>
</g>

<g id="Layer0_5_MEMBER_0_MEMBER_2_FILL">
<path fill="#A88500" stroke="none" d="
M 345.4 45.5
Q 345.1 44.7 344.45 44.2 343.8 43.65 342.95 43.6
L 319.25 40.75 302.3 23.9
Q 301.6 23.15 300.6 23.05 299.65 22.9 298.75 23.4 297.9 23.85 297.45 24.75
L 287.45 46.45 266.15 57.4
Q 265.3 57.85 264.85 58.7 264.45 59.55 264.55 60.55 264.75 61.5 265.4 62.2
L 275.65 72.5
Q 275.7 72.5 275.75 72.55
L 283.2 79.5 286.9 102.05
Q 287.1 103.15 287.95 103.9
L 296.45 110.9
Q 297.15 111.45 298.05 111.55 299 111.6 299.8 111.2
L 318.95 100.5 340.65 103.85
Q 341.6 103.95 342.5 103.5 343.4 103.05 343.8 102.15 344.25 101.25 344.05 100.25
L 339.75 78.75 349.6 59.25
Q 349.9 58.7 349.95 58.05 350 57.4 349.75 56.85
L 345.4 45.5
M 346.95 57.9
L 336.6 78.35 341.1 100.85 318.4 97.35 298.35 108.55 289.85 101.55 286 77.95 277.8 70.35 267.55 60.05 289.75 48.65 300.2 26 317.85 43.6 342.6 46.55 346.95 57.9 Z"/>

<path fill="#D7AC00" stroke="none" d="
M 267.55 60.05
L 277.8 70.35 286 77.95 285.85 76.95 267.55 60.05
M 336.6 78.35
L 346.95 57.9 342.6 46.55 331.4 68.75 336.25 93.2 341.1 100.85 336.6 78.35 Z"/>

<path fill="#C29A00" stroke="none" d="
M 341.1 100.85
L 336.25 93.2 311.6 89.4 289.85 101.55 298.35 108.55 318.4 97.35 341.1 100.85 Z"/>

<path fill="#FFCC00" stroke="none" d="
M 336.25 93.2
L 331.4 68.75 342.6 46.55 317.85 43.6 300.2 26 289.75 48.65 267.55 60.05 285.85 76.95 286 77.95 289.85 101.55 311.6 89.4 336.25 93.2
M 325.5 69.95
L 328.7 86 312.5 83.5
Q 310.5 83.15 308.65 84.15
L 294.4 92.15 291.75 76
Q 291.45 73.95 289.9 72.55
L 277.9 61.5 292.5 54
Q 294.35 53.05 295.2 51.2
L 302.05 36.35 313.6 47.85
Q 315.1 49.3 317.15 49.55
L 333.4 51.5 326.05 66.05
Q 325.1 67.9 325.5 69.95 Z"/>

<path fill="#FFD943" stroke="none" d="
M 328.7 86
L 325.5 69.95
Q 325.1 67.9 326.05 66.05
L 333.4 51.5 317.15 49.55
Q 315.1 49.3 313.6 47.85
L 302.05 36.35 295.2 51.2
Q 294.35 53.05 292.5 54
L 277.9 61.5 289.9 72.55
Q 291.45 73.95 291.75 76
L 294.4 92.15 308.65 84.15
Q 310.5 83.15 312.5 83.5
L 328.7 86 Z"/>
</g>
</defs>

<g transform="matrix( 1, 0, 0, 1, 0,0) ">
<use xlink:href="#Layer0_0_FILL"/>
</g>

<g transform="matrix( 1, 0, 0, 1, -184,25.25) ">
<use xlink:href="#Layer0_1_FILL"/>
</g>

<g transform="matrix( 1, 0, 0, 1, -184,25.25) ">
<use xlink:href="#Layer0_2_FILL"/>
</g>

<g transform="matrix( 1, 0, 0, 1, -184,25.25) ">
<use xlink:href="#Layer0_3_FILL"/>
</g>

<g transform="matrix( 1, 0, 0, 1, -184,25.25) ">
<use xlink:href="#Layer0_4_FILL"/>
</g>

<g transform="matrix( 1, 0, 0, 1, -184,25.25) ">
<use xlink:href="#Layer0_5_FILL"/>
</g>

<g transform="matrix( 1, 0, 0, 1, -184,25.25) ">
<use xlink:href="#Layer0_5_MEMBER_0_MEMBER_0_FILL"/>
</g>

<g transform="matrix( 1, 0, 0, 1, -184,25.25) ">
<use xlink:href="#Layer0_5_MEMBER_0_MEMBER_1_FILL"/>
</g>

<g transform="matrix( 1, 0, 0, 1, -184,25.25) ">
<use xlink:href="#Layer0_5_MEMBER_0_MEMBER_2_FILL"/>
</g>
</svg>
