<svg xmlns="http://www.w3.org/2000/svg" xmlns:xlink="http://www.w3.org/1999/xlink">
  <defs/>
  <g>
    <path stroke="none" fill="#D7D7D7" d="M274.85 258.95 L286.35 258.95 286.35 262.55 274.85 262.55 274.85 258.95"/>
    <path stroke="none" fill="#FFCC00" d="M274.85 258.95 L263 258.95 260.8 258.95 260.8 256.75 300.45 256.75 300.45 258.95 298.25 258.95 286.35 258.95 274.85 258.95"/>
    <path stroke="none" fill="#3A67A8" d="M274.85 258.95 L274.85 262.55 263 262.55 263 258.95 274.85 258.95 M286.35 262.55 L286.35 258.95 298.25 258.95 298.25 262.55 286.35 262.55"/>
    <path stroke="none" fill="#EFEFEF" d="M286.35 262.55 L286.35 299.05 274.85 299.05 274.85 262.55 286.35 262.55"/>
    <path stroke="none" fill="#4E84D3" d="M286.35 262.55 L298.25 262.55 298.25 287.15 286.35 299.05 286.35 262.55 M274.85 299.05 L263 287.15 263 262.55 274.85 262.55 274.85 299.05"/>
    <path stroke="none" fill="#D7D7D7" d="M94.85 258.95 L106.35 258.95 106.35 262.55 94.85 262.55 94.85 258.95"/>
    <path stroke="none" fill="#BB3838" d="M94.85 258.95 L94.85 262.55 83 262.55 83 258.95 94.85 258.95 M106.35 258.95 L118.25 258.95 118.25 262.55 106.35 262.55 106.35 258.95"/>
    <path stroke="none" fill="#D03E3E" d="M106.35 262.55 L118.25 262.55 118.25 287.15 106.35 299.05 106.35 262.55 M83 262.55 L94.85 262.55 94.85 299.05 83 287.15 83 262.55"/>
    <path stroke="none" fill="#FFCC00" d="M118.25 258.95 L106.35 258.95 94.85 258.95 83 258.95 80.8 258.95 80.8 256.75 120.45 256.75 120.45 258.95 118.25 258.95"/>
    <path stroke="none" fill="#EFEFEF" d="M94.85 299.05 L94.85 262.55 106.35 262.55 106.35 299.05 94.85 299.05"/>
    <path stroke="none" fill="#E1E1E1" d="M90.8 311.8 Q90.8 307.65 93.65 304.85 96.55 301.95 100.75 302 104.7 301.95 107.6 304.85 110.5 307.65 110.55 311.8 110.5 315.9 107.6 318.8 104.7 321.7 100.75 321.7 96.55 321.7 93.65 318.8 90.8 315.9 90.8 311.8 M92.75 311.8 Q92.75 315.05 95.05 317.35 97.35 319.65 100.75 319.65 103.85 319.65 106.15 317.35 108.55 315.05 108.55 311.8 108.55 308.5 106.15 306.2 103.85 303.9 100.75 303.95 97.35 303.9 95.05 306.2 92.75 308.5 92.75 311.8"/>
    <path stroke="none" fill="#F3F3F3" d="M92.75 311.8 Q92.75 308.5 95.05 306.2 97.35 303.9 100.75 303.95 103.85 303.9 106.15 306.2 108.55 308.5 108.55 311.8 108.55 315.05 106.15 317.35 103.85 319.65 100.75 319.65 97.35 319.65 95.05 317.35 92.75 315.05 92.75 311.8"/>
    <path stroke="none" fill="#CCCCCC" d="M88.3 311.8 Q88.3 316.95 91.9 320.55 95.55 324.15 100.75 324.15 105.7 324.15 109.35 320.55 112.95 316.95 113 311.8 112.95 306.65 109.35 303.1 105.7 299.5 100.75 299.55 95.55 299.5 91.9 303.1 88.3 306.65 88.3 311.8 M88.2 299.35 Q93.4 294.2 100.75 294.2 108 294.2 113.1 299.35 118.3 304.55 118.3 311.8 118.3 319.15 113.1 324.3 108 329.4 100.75 329.4 93.4 329.4 88.2 324.3 83.05 319.15 83.05 311.8 83.05 304.55 88.2 299.35"/>
    <path stroke="none" fill="#E9E9E9" d="M90.8 311.8 Q90.8 315.9 93.65 318.8 96.55 321.7 100.75 321.7 104.7 321.7 107.6 318.8 110.5 315.9 110.55 311.8 110.5 307.65 107.6 304.85 104.7 301.95 100.75 302 96.55 301.95 93.65 304.85 90.8 307.65 90.8 311.8 M88.3 311.8 Q88.3 306.65 91.9 303.1 95.55 299.5 100.75 299.55 105.7 299.5 109.35 303.1 112.95 306.65 113 311.8 112.95 316.95 109.35 320.55 105.7 324.15 100.75 324.15 95.55 324.15 91.9 320.55 88.3 316.95 88.3 311.8"/>
    <path stroke="none" fill="#E2A010" d="M154.85 262.55 L154.85 258.95 166.35 258.95 166.35 262.55 154.85 262.55"/>
    <path stroke="none" fill="#3A67A8" d="M154.85 262.55 L143 262.55 143 258.95 154.85 258.95 154.85 262.55 M166.35 262.55 L166.35 258.95 178.25 258.95 178.25 262.55 166.35 262.55"/>
    <path stroke="none" fill="#4E84D3" d="M166.35 262.55 L178.25 262.55 178.25 287.15 166.35 299.05 166.35 262.55 M143 262.55 L154.85 262.55 154.85 299.05 143 287.15 143 262.55"/>
    <path stroke="none" fill="#FFCC00" d="M166.35 258.95 L154.85 258.95 143 258.95 140.8 258.95 140.8 256.75 180.45 256.75 180.45 258.95 178.25 258.95 166.35 258.95"/>
    <path stroke="none" fill="#F2A90C" d="M154.85 262.55 L166.35 262.55 166.35 299.05 154.85 299.05 154.85 262.55"/>
    <path stroke="none" fill="#C7A006" d="M166.15 306.2 Q163.85 303.9 160.75 303.95 157.35 303.9 155.05 306.2 152.75 308.5 152.75 311.8 152.75 315.05 155.05 317.35 157.35 319.65 160.75 319.65 163.85 319.65 166.15 317.35 168.55 315.05 168.55 311.8 168.55 308.5 166.15 306.2 M150.8 311.8 Q150.8 307.65 153.65 304.85 156.55 301.95 160.75 302 164.7 301.95 167.6 304.85 170.5 307.65 170.55 311.8 170.5 315.9 167.6 318.8 164.7 321.7 160.75 321.7 156.55 321.7 153.65 318.8 150.8 315.9 150.8 311.8"/>
    <path stroke="none" fill="#E5B90A" d="M166.15 306.2 Q168.55 308.5 168.55 311.8 168.55 315.05 166.15 317.35 163.85 319.65 160.75 319.65 157.35 319.65 155.05 317.35 152.75 315.05 152.75 311.8 152.75 308.5 155.05 306.2 157.35 303.9 160.75 303.95 163.85 303.9 166.15 306.2"/>
    <path stroke="none" fill="#C09A04" d="M148.3 311.8 Q148.3 316.95 151.9 320.55 155.55 324.15 160.75 324.15 165.7 324.15 169.35 320.55 172.95 316.95 173 311.8 172.95 306.65 169.35 303.1 165.7 299.5 160.75 299.55 155.55 299.5 151.9 303.1 148.3 306.65 148.3 311.8 M178.3 311.8 Q178.3 319.15 173.1 324.3 168 329.4 160.75 329.4 153.4 329.4 148.2 324.3 143.05 319.15 143.05 311.8 143.05 304.55 148.2 299.35 153.4 294.2 160.75 294.2 168 294.2 173.1 299.35 178.3 304.55 178.3 311.8"/>
    <path stroke="none" fill="#DEB307" d="M150.8 311.8 Q150.8 315.9 153.65 318.8 156.55 321.7 160.75 321.7 164.7 321.7 167.6 318.8 170.5 315.9 170.55 311.8 170.5 307.65 167.6 304.85 164.7 301.95 160.75 302 156.55 301.95 153.65 304.85 150.8 307.65 150.8 311.8 M148.3 311.8 Q148.3 306.65 151.9 303.1 155.55 299.5 160.75 299.55 165.7 299.5 169.35 303.1 172.95 306.65 173 311.8 172.95 316.95 169.35 320.55 165.7 324.15 160.75 324.15 155.55 324.15 151.9 320.55 148.3 316.95 148.3 311.8"/>
    <path stroke="none" fill="#3A67A8" d="M203 262.55 L203 258.95 214.85 258.95 214.85 262.55 203 262.55 M238.25 258.95 L238.25 262.55 226.35 262.55 226.35 258.95 238.25 258.95"/>
    <path stroke="none" fill="#FFCC00" d="M238.25 258.95 L226.35 258.95 214.85 258.95 203 258.95 200.8 258.95 200.8 256.75 240.45 256.75 240.45 258.95 238.25 258.95"/>
    <path stroke="none" fill="#D7D7D7" d="M214.85 262.55 L214.85 258.95 226.35 258.95 226.35 262.55 214.85 262.55"/>
    <path stroke="none" fill="#EFEFEF" d="M214.85 262.55 L226.35 262.55 226.35 299.05 214.85 299.05 214.85 262.55"/>
    <path stroke="none" fill="#4E84D3" d="M214.85 262.55 L214.85 299.05 203 287.15 203 262.55 214.85 262.55 M238.25 262.55 L238.25 287.15 226.35 299.05 226.35 262.55 238.25 262.55"/>
    <path stroke="none" fill="#E9E9E9" d="M208.8 311.8 Q208.8 316.7 212.25 320.2 215.7 323.7 220.75 323.7 225.5 323.7 228.95 320.2 232.45 316.7 232.5 311.8 232.45 306.8 228.95 303.45 225.5 300 220.75 300.05 215.7 300 212.25 303.45 208.8 306.8 208.8 311.8 M205.8 311.8 Q205.8 305.6 210.15 301.35 214.5 297.05 220.75 297.1 226.7 297.05 231.05 301.35 235.4 305.6 235.45 311.8 235.4 318 231.05 322.3 226.7 326.6 220.75 326.6 214.5 326.6 210.15 322.3 205.8 318 205.8 311.8"/>
    <path stroke="none" fill="#E1E1E1" d="M208.8 311.8 Q208.8 306.8 212.25 303.45 215.7 300 220.75 300.05 225.5 300 228.95 303.45 232.45 306.8 232.5 311.8 232.45 316.7 228.95 320.2 225.5 323.7 220.75 323.7 215.7 323.7 212.25 320.2 208.8 316.7 208.8 311.8 M213.9 305.1 Q211.15 307.85 211.15 311.8 211.15 315.7 213.9 318.45 216.65 321.2 220.75 321.2 224.45 321.2 227.25 318.45 230.1 315.7 230.1 311.8 230.1 307.85 227.25 305.1 224.45 302.3 220.75 302.4 216.65 302.3 213.9 305.1"/>
    <path stroke="none" fill="#F3F3F3" d="M213.9 305.1 Q216.65 302.3 220.75 302.4 224.45 302.3 227.25 305.1 230.1 307.85 230.1 311.8 230.1 315.7 227.25 318.45 224.45 321.2 220.75 321.2 216.65 321.2 213.9 318.45 211.15 315.7 211.15 311.8 211.15 307.85 213.9 305.1"/>
    <path stroke="none" fill="#CCCCCC" d="M220.75 294.2 Q228 294.2 233.1 299.35 238.3 304.55 238.3 311.8 238.3 319.15 233.1 324.3 228 329.4 220.75 329.4 213.4 329.4 208.2 324.3 203.05 319.15 203.05 311.8 203.05 304.55 208.2 299.35 213.4 294.2 220.75 294.2 M205.8 311.8 Q205.8 318 210.15 322.3 214.5 326.6 220.75 326.6 226.7 326.6 231.05 322.3 235.4 318 235.45 311.8 235.4 305.6 231.05 301.35 226.7 297.05 220.75 297.1 214.5 297.05 210.15 301.35 205.8 305.6 205.8 311.8"/>
    <path stroke="none" fill="#C7A006" d="M287.25 305.1 Q284.45 302.3 280.75 302.4 276.65 302.3 273.9 305.1 271.15 307.85 271.15 311.8 271.15 315.7 273.9 318.45 276.65 321.2 280.75 321.2 284.45 321.2 287.25 318.45 290.1 315.7 290.1 311.8 290.1 307.85 287.25 305.1 M268.8 311.8 Q268.8 306.8 272.25 303.45 275.7 300 280.75 300.05 285.5 300 288.95 303.45 292.45 306.8 292.5 311.8 292.45 316.7 288.95 320.2 285.5 323.7 280.75 323.7 275.7 323.7 272.25 320.2 268.8 316.7 268.8 311.8"/>
    <path stroke="none" fill="#E5B90A" d="M287.25 305.1 Q290.1 307.85 290.1 311.8 290.1 315.7 287.25 318.45 284.45 321.2 280.75 321.2 276.65 321.2 273.9 318.45 271.15 315.7 271.15 311.8 271.15 307.85 273.9 305.1 276.65 302.3 280.75 302.4 284.45 302.3 287.25 305.1"/>
    <path stroke="none" fill="#DEB307" d="M268.8 311.8 Q268.8 316.7 272.25 320.2 275.7 323.7 280.75 323.7 285.5 323.7 288.95 320.2 292.45 316.7 292.5 311.8 292.45 306.8 288.95 303.45 285.5 300 280.75 300.05 275.7 300 272.25 303.45 268.8 306.8 268.8 311.8 M291.05 322.3 Q286.7 326.6 280.75 326.6 274.5 326.6 270.15 322.3 265.8 318 265.8 311.8 265.8 305.6 270.15 301.35 274.5 297.05 280.75 297.1 286.7 297.05 291.05 301.35 295.4 305.6 295.45 311.8 295.4 318 291.05 322.3"/>
    <path stroke="none" fill="#C09A04" d="M291.05 322.3 Q295.4 318 295.45 311.8 295.4 305.6 291.05 301.35 286.7 297.05 280.75 297.1 274.5 297.05 270.15 301.35 265.8 305.6 265.8 311.8 265.8 318 270.15 322.3 274.5 326.6 280.75 326.6 286.7 326.6 291.05 322.3 M298.3 311.8 Q298.3 319.15 293.1 324.3 288 329.4 280.75 329.4 273.4 329.4 268.2 324.3 263.05 319.15 263.05 311.8 263.05 304.55 268.2 299.35 273.4 294.2 280.75 294.2 288 294.2 293.1 299.35 298.3 304.55 298.3 311.8"/>
    <path stroke="none" fill="#3A67A8" d="M358.25 258.95 L358.25 262.55 346.35 262.55 346.35 258.95 358.25 258.95 M323 262.55 L323 258.95 334.85 258.95 334.85 262.55 323 262.55"/>
    <path stroke="none" fill="#FFCC00" d="M323 258.95 L320.8 258.95 320.8 256.75 360.45 256.75 360.45 258.95 358.25 258.95 346.35 258.95 334.85 258.95 323 258.95"/>
    <path stroke="none" fill="#D7D7D7" d="M334.85 258.95 L346.35 258.95 346.35 262.55 334.85 262.55 334.85 258.95"/>
    <path stroke="none" fill="#EFEFEF" d="M346.35 299.05 L334.85 299.05 334.85 262.55 346.35 262.55 346.35 299.05"/>
    <path stroke="none" fill="#4E84D3" d="M346.35 299.05 L346.35 262.55 358.25 262.55 358.25 287.15 346.35 299.05 M334.85 299.05 L323 287.15 323 262.55 334.85 262.55 334.85 299.05"/>
    <path stroke="none" fill="#7C468A" d="M383 258.95 L394.85 258.95 394.85 262.55 383 262.55 383 258.95 M406.35 258.95 L418.25 258.95 418.25 262.55 406.35 262.55 406.35 258.95"/>
    <path stroke="none" fill="#FFCC00" d="M406.35 258.95 L394.85 258.95 383 258.95 380.8 258.95 380.8 256.75 420.45 256.75 420.45 258.95 418.25 258.95 406.35 258.95 M406.35 299.05 L394.85 299.05 394.85 262.55 406.35 262.55 406.35 299.05"/>
    <path stroke="none" fill="#8C4E9C" d="M406.35 299.05 L406.35 262.55 418.25 262.55 418.25 287.15 406.35 299.05 M394.85 299.05 L383 287.15 383 262.55 394.85 262.55 394.85 299.05"/>
    <path stroke="none" fill="#ECBE08" d="M394.85 258.95 L406.35 258.95 406.35 262.55 394.85 262.55 394.85 258.95"/>
    <path stroke="none" fill="#D7D7D7" d="M478.25 258.95 L478.25 262.55 466.35 262.55 466.35 258.95 478.25 258.95 M443 262.55 L443 258.95 454.85 258.95 454.85 262.55 443 262.55"/>
    <path stroke="none" fill="#FFCC00" d="M443 258.95 L440.8 258.95 440.8 256.75 480.45 256.75 480.45 258.95 478.25 258.95 466.35 258.95 454.85 258.95 443 258.95"/>
    <path stroke="none" fill="#EFEFEF" d="M478.25 262.55 L478.25 287.15 466.35 299.05 466.35 262.55 478.25 262.55 M454.85 299.05 L443 287.15 443 262.55 454.85 262.55 454.85 299.05"/>
    <path stroke="none" fill="#79A64C" d="M454.85 258.95 L466.35 258.95 466.35 262.55 454.85 262.55 454.85 258.95"/>
    <path stroke="none" fill="#98C568" d="M466.35 299.05 L454.85 299.05 454.85 262.55 466.35 262.55 466.35 299.05"/>
    <path stroke="none" fill="#FFCC00" d="M526.35 258.95 L514.85 258.95 503 258.95 500.8 258.95 500.8 256.75 540.45 256.75 540.45 258.95 538.25 258.95 526.35 258.95"/>
    <path stroke="none" fill="#7C468A" d="M526.35 258.95 L526.35 262.55 514.85 262.55 514.85 258.95 526.35 258.95"/>
    <path stroke="none" fill="#8C4E9C" d="M514.85 262.55 L526.35 262.55 526.35 299.05 514.85 299.05 514.85 262.55"/>
    <path stroke="none" fill="#D7D7D7" d="M514.85 262.55 L503 262.55 503 258.95 514.85 258.95 514.85 262.55 M526.35 258.95 L538.25 258.95 538.25 262.55 526.35 262.55 526.35 258.95"/>
    <path stroke="none" fill="#EFEFEF" d="M526.35 262.55 L538.25 262.55 538.25 287.15 526.35 299.05 526.35 262.55 M514.85 299.05 L503 287.15 503 262.55 514.85 262.55 514.85 299.05"/>
    <path stroke="none" fill="#CCCCCC" d="M328.2 299.35 Q333.4 294.2 340.75 294.2 348 294.2 353.1 299.35 358.3 304.55 358.3 311.8 358.3 319.15 353.1 324.3 348 329.4 340.75 329.4 333.4 329.4 328.2 324.3 323.05 319.15 323.05 311.8 323.05 304.55 328.2 299.35 M325.8 311.8 Q325.8 318 330.15 322.3 334.5 326.6 340.75 326.6 346.7 326.6 351.05 322.3 355.4 318 355.45 311.8 355.4 305.6 351.05 301.35 346.7 297.05 340.75 297.1 334.5 297.05 330.15 301.35 325.8 305.6 325.8 311.8"/>
    <path stroke="none" fill="#E1E1E1" d="M347.25 305.1 Q344.45 302.3 340.75 302.4 336.65 302.3 333.9 305.1 331.15 307.85 331.15 311.8 331.15 315.7 333.9 318.45 336.65 321.2 340.75 321.2 344.45 321.2 347.25 318.45 350.1 315.7 350.1 311.8 350.1 307.85 347.25 305.1 M328.8 311.8 Q328.8 306.8 332.25 303.45 335.7 300 340.75 300.05 345.5 300 348.95 303.45 352.45 306.8 352.5 311.8 352.45 316.7 348.95 320.2 345.5 323.7 340.75 323.7 335.7 323.7 332.25 320.2 328.8 316.7 328.8 311.8"/>
    <path stroke="none" fill="#F3F3F3" d="M347.25 305.1 Q350.1 307.85 350.1 311.8 350.1 315.7 347.25 318.45 344.45 321.2 340.75 321.2 336.65 321.2 333.9 318.45 331.15 315.7 331.15 311.8 331.15 307.85 333.9 305.1 336.65 302.3 340.75 302.4 344.45 302.3 347.25 305.1"/>
    <path stroke="none" fill="#E9E9E9" d="M328.8 311.8 Q328.8 316.7 332.25 320.2 335.7 323.7 340.75 323.7 345.5 323.7 348.95 320.2 352.45 316.7 352.5 311.8 352.45 306.8 348.95 303.45 345.5 300 340.75 300.05 335.7 300 332.25 303.45 328.8 306.8 328.8 311.8 M325.8 311.8 Q325.8 305.6 330.15 301.35 334.5 297.05 340.75 297.1 346.7 297.05 351.05 301.35 355.4 305.6 355.45 311.8 355.4 318 351.05 322.3 346.7 326.6 340.75 326.6 334.5 326.6 330.15 322.3 325.8 318 325.8 311.8"/>
    <path stroke="none" fill="#C09A04" d="M388.2 299.35 Q393.4 294.2 400.75 294.2 408 294.2 413.1 299.35 418.3 304.55 418.3 311.8 418.3 319.15 413.1 324.3 408 329.4 400.75 329.4 393.4 329.4 388.2 324.3 383.05 319.15 383.05 311.8 383.05 304.55 388.2 299.35 M411.05 322.3 Q415.4 318 415.45 311.8 415.4 305.6 411.05 301.35 406.7 297.05 400.75 297.1 394.5 297.05 390.15 301.35 385.8 305.6 385.8 311.8 385.8 318 390.15 322.3 394.5 326.6 400.75 326.6 406.7 326.6 411.05 322.3"/>
    <path stroke="none" fill="#DEB307" d="M411.05 322.3 Q406.7 326.6 400.75 326.6 394.5 326.6 390.15 322.3 385.8 318 385.8 311.8 385.8 305.6 390.15 301.35 394.5 297.05 400.75 297.1 406.7 297.05 411.05 301.35 415.4 305.6 415.45 311.8 415.4 318 411.05 322.3 M400.75 300.05 Q395.7 300 392.25 303.45 388.8 306.8 388.8 311.8 388.8 316.7 392.25 320.2 395.7 323.7 400.75 323.7 405.5 323.7 408.95 320.2 412.45 316.7 412.5 311.8 412.45 306.8 408.95 303.45 405.5 300 400.75 300.05"/>
    <path stroke="none" fill="#C7A006" d="M400.75 300.05 Q405.5 300 408.95 303.45 412.45 306.8 412.5 311.8 412.45 316.7 408.95 320.2 405.5 323.7 400.75 323.7 395.7 323.7 392.25 320.2 388.8 316.7 388.8 311.8 388.8 306.8 392.25 303.45 395.7 300 400.75 300.05 M393.9 305.1 Q391.15 307.85 391.15 311.8 391.15 315.7 393.9 318.45 396.65 321.2 400.75 321.2 404.45 321.2 407.25 318.45 410.1 315.7 410.1 311.8 410.1 307.85 407.25 305.1 404.45 302.3 400.75 302.4 396.65 302.3 393.9 305.1"/>
    <path stroke="none" fill="#E5B90A" d="M393.9 305.1 Q396.65 302.3 400.75 302.4 404.45 302.3 407.25 305.1 410.1 307.85 410.1 311.8 410.1 315.7 407.25 318.45 404.45 321.2 400.75 321.2 396.65 321.2 393.9 318.45 391.15 315.7 391.15 311.8 391.15 307.85 393.9 305.1"/>
    <path stroke="none" fill="#EAEAEA" d="M478.3 306.6 L476.45 312.1 478.05 317.5 473.3 320.9 471.3 326.3 465.25 326.3 460.3 329.4 455.5 326.1 449.55 325.8 447.7 320.45 443.05 316.9 444.9 311.45 443.25 306 448.05 302.65 450.15 297.35 456.05 297.3 460.95 294.2 465.8 297.5 471.75 297.65 473.6 303.15 478.3 306.6 M475.4 307.5 L471.55 304.6 470 299.9 464.95 299.8 460.95 296.9 456.8 299.7 451.85 299.7 450 304.2 446.05 307 447.3 311.6 445.85 316.1 449.7 319.05 451.25 323.7 456.3 323.8 460.35 326.6 464.55 324.05 469.5 324.05 471.25 319.5 475.25 316.65 473.85 312.05 475.4 307.5"/>
    <path stroke="none" fill="#D5D5D5" d="M475.4 307.5 L473.85 312.05 475.25 316.65 471.25 319.5 469.5 324.05 464.55 324.05 460.35 326.6 456.3 323.8 451.25 323.7 449.7 319.05 445.85 316.1 447.3 311.6 446.05 307 450 304.2 451.85 299.7 456.8 299.7 460.95 296.9 464.95 299.8 470 299.9 471.55 304.6 475.4 307.5 M465.55 308.6 L467.3 309.9 466.6 311.95 467.25 314 465.45 315.3 464.65 317.3 462.45 317.3 460.55 318.45 458.75 317.2 456.5 317.2 455.8 315.1 454.05 313.75 454.7 311.75 454.15 309.7 455.95 308.45 456.75 306.4 458.95 306.4 460.85 305.15 462.6 306.45 464.9 306.5 465.55 308.6 M467.65 307.2 L466.7 304.2 463.45 304.15 460.9 302.3 458.25 304.05 455.05 304.05 453.9 306.95 451.35 308.75 452.15 311.7 451.2 314.55 453.7 316.45 454.7 319.45 457.9 319.5 460.5 321.3 463.2 319.65 466.35 319.65 467.5 316.75 470.05 314.9 469.15 312 470.15 309.05 467.65 307.2"/>
    <path stroke="none" fill="#B8B8B8" d="M467.65 307.2 L470.15 309.05 469.15 312 470.05 314.9 467.5 316.75 466.35 319.65 463.2 319.65 460.5 321.3 457.9 319.5 454.7 319.45 453.7 316.45 451.2 314.55 452.15 311.7 451.35 308.75 453.9 306.95 455.05 304.05 458.25 304.05 460.9 302.3 463.45 304.15 466.7 304.2 467.65 307.2 M465.55 308.6 L464.9 306.5 462.6 306.45 460.85 305.15 458.95 306.4 456.75 306.4 455.95 308.45 454.15 309.7 454.7 311.75 454.05 313.75 455.8 315.1 456.5 317.2 458.75 317.2 460.55 318.45 462.45 317.3 464.65 317.3 465.45 315.3 467.25 314 466.6 311.95 467.3 309.9 465.55 308.6"/>
    <path stroke="none" fill="#F5C504" d="M510 304.2 L506.05 307 507.3 311.6 505.85 316.1 509.7 319.05 511.25 323.7 516.3 323.8 520.35 326.6 524.55 324.05 529.5 324.05 531.25 319.5 535.25 316.65 533.85 312.05 535.4 307.5 531.55 304.6 530 299.9 524.95 299.8 520.95 296.9 516.8 299.7 511.85 299.7 510 304.2 M504.9 311.45 L503.25 306 508.05 302.65 510.15 297.35 516.05 297.3 520.95 294.2 525.8 297.5 531.75 297.65 533.6 303.15 538.3 306.6 536.45 312.1 538.05 317.5 533.3 320.9 531.3 326.3 525.25 326.3 520.3 329.4 515.5 326.1 509.55 325.8 507.7 320.45 503.05 316.9 504.9 311.45"/>
    <path stroke="none" fill="#DEB307" d="M510 304.2 L511.85 299.7 516.8 299.7 520.95 296.9 524.95 299.8 530 299.9 531.55 304.6 535.4 307.5 533.85 312.05 535.25 316.65 531.25 319.5 529.5 324.05 524.55 324.05 520.35 326.6 516.3 323.8 511.25 323.7 509.7 319.05 505.85 316.1 507.3 311.6 506.05 307 510 304.2 M523.45 304.15 L520.9 302.3 518.25 304.05 515.05 304.05 513.9 306.95 511.35 308.75 512.15 311.7 511.2 314.55 513.7 316.45 514.7 319.45 517.9 319.5 520.5 321.3 523.2 319.65 526.35 319.65 527.5 316.75 530.05 314.9 529.15 312 530.15 309.05 527.65 307.2 526.7 304.2 523.45 304.15 M524.9 306.5 L525.55 308.6 527.3 309.9 526.6 311.95 527.25 314 525.45 315.3 524.65 317.3 522.45 317.3 520.55 318.45 518.75 317.2 516.5 317.2 515.8 315.1 514.05 313.75 514.7 311.75 514.15 309.7 515.95 308.45 516.75 306.4 518.95 306.4 520.85 305.15 522.6 306.45 524.9 306.5"/>
    <path stroke="none" fill="#C7A006" d="M524.9 306.5 L522.6 306.45 520.85 305.15 518.95 306.4 516.75 306.4 515.95 308.45 514.15 309.7 514.7 311.75 514.05 313.75 515.8 315.1 516.5 317.2 518.75 317.2 520.55 318.45 522.45 317.3 524.65 317.3 525.45 315.3 527.25 314 526.6 311.95 527.3 309.9 525.55 308.6 524.9 306.5 M523.45 304.15 L526.7 304.2 527.65 307.2 530.15 309.05 529.15 312 530.05 314.9 527.5 316.75 526.35 319.65 523.2 319.65 520.5 321.3 517.9 319.5 514.7 319.45 513.7 316.45 511.2 314.55 512.15 311.7 511.35 308.75 513.9 306.95 515.05 304.05 518.25 304.05 520.9 302.3 523.45 304.15"/>
    <path stroke="none" fill="#D7D7D7" d="M35.05 263.9 L34.85 258.95 46.35 258.95 46.15 263.9 35.05 263.9"/>
    <path stroke="none" fill="#BB3838" d="M35.05 263.9 L23.65 263.9 23 258.95 34.85 258.95 35.05 263.9 M46.15 263.9 L46.35 258.95 58.25 258.95 57.6 263.9 46.15 263.9"/>
    <path stroke="none" fill="#FFCC00" d="M46.35 258.95 L34.85 258.95 23 258.95 20.8 258.95 20.8 256.75 60.45 256.75 60.45 258.95 58.25 258.95 46.35 258.95"/>
    <path stroke="none" fill="#D03E3E" d="M23.65 263.9 L35.05 263.9 36.6 306.55 27.05 295.45 23.65 263.9 M44.65 306.55 L46.15 263.9 57.6 263.9 54.2 295.45 44.65 306.55"/>
    <path stroke="none" fill="#EFEFEF" d="M44.65 306.55 L36.6 306.55 35.05 263.9 46.15 263.9 44.65 306.55"/>
    <path stroke="none" fill="#A28D70" d="M31.4 316.3 Q31.4 320.2 34.1 322.9 36.8 325.6 40.7 325.6 44.45 325.6 47.15 322.9 49.85 320.2 49.9 316.3 49.85 312.45 47.15 309.8 44.45 307.1 40.7 307.15 36.8 307.1 34.1 309.8 31.4 312.45 31.4 316.3 M34.7 316.3 Q34.7 318.75 36.45 320.5 38.15 322.2 40.7 322.2 43.05 322.2 44.75 320.5 46.55 318.75 46.55 316.3 46.55 313.85 44.75 312.1 43.05 310.4 40.7 310.45 38.15 310.4 36.45 312.1 34.7 313.85 34.7 316.3 M40.7 308.95 Q43.7 308.95 45.85 311.1 48.05 313.2 48.05 316.3 48.05 319.4 45.85 321.55 43.7 323.75 40.7 323.75 37.55 323.75 35.4 321.55 33.25 319.4 33.25 316.3 33.25 313.2 35.4 311.1 37.55 308.95 40.7 308.95 M40.7 303.1 Q46.15 303.1 50 307 53.9 310.9 53.9 316.3 53.9 321.85 50 325.7 46.15 329.5 40.7 329.5 35.2 329.5 31.3 325.7 27.45 321.85 27.45 316.3 27.45 310.9 31.3 307 35.2 303.1 40.7 303.1"/>
    <path stroke="none" fill="#C9B18F" d="M31.4 316.3 Q31.4 312.45 34.1 309.8 36.8 307.1 40.7 307.15 44.45 307.1 47.15 309.8 49.85 312.45 49.9 316.3 49.85 320.2 47.15 322.9 44.45 325.6 40.7 325.6 36.8 325.6 34.1 322.9 31.4 320.2 31.4 316.3 M40.7 308.95 Q37.55 308.95 35.4 311.1 33.25 313.2 33.25 316.3 33.25 319.4 35.4 321.55 37.55 323.75 40.7 323.75 43.7 323.75 45.85 321.55 48.05 319.4 48.05 316.3 48.05 313.2 45.85 311.1 43.7 308.95 40.7 308.95"/>
    <path stroke="none" fill="#B59E7D" d="M34.7 316.3 Q34.7 313.85 36.45 312.1 38.15 310.4 40.7 310.45 43.05 310.4 44.75 312.1 46.55 313.85 46.55 316.3 46.55 318.75 44.75 320.5 43.05 322.2 40.7 322.2 38.15 322.2 36.45 320.5 34.7 318.75 34.7 316.3"/>
    <path stroke="none" fill="#000000" fill-opacity="0.14901960784313725" d="M217.65 311.8 L213.85 308.05 217.05 304.85 220.8 308.6 224.6 304.85 227.7 308.05 223.95 311.8 227.7 315.6 224.6 318.8 220.8 315 217.05 318.8 213.85 315.6 217.65 311.8"/>
    <path stroke="none" fill="#000000" fill-opacity="0.14901960784313725" d="M287.7 308.05 L283.95 311.8 287.7 315.6 284.6 318.8 280.8 315 277.05 318.8 273.85 315.6 277.65 311.8 273.85 308.05 277.05 304.85 280.8 308.6 284.6 304.85 287.7 308.05"/>
    <path stroke="none" fill="#000000" fill-opacity="0.14901960784313725" d="M340.7 315.45 L335.9 318.75 337.6 313.1 333 309.55 338.85 309.45 340.8 303.95 342.7 309.45 348.55 309.7 343.9 313.15 345.55 318.8 340.7 315.45"/>
    <path stroke="none" fill="#000000" fill-opacity="0.14901960784313725" d="M408.55 309.7 L403.9 313.15 405.55 318.8 400.7 315.45 395.9 318.75 397.6 313.1 393 309.55 398.85 309.45 400.8 303.95 402.7 309.45 408.55 309.7"/>
    <path stroke="none" fill="#000000" fill-opacity="0.2" d="M480.45 160.95 L478.25 160.95 478.25 189.15 467.85 199.55 471.75 199.65 473.6 205.15 478.3 208.6 476.45 214.1 478.05 219.5 473.3 222.9 471.3 228.3 465.25 228.3 460.3 231.4 455.5 228.1 449.55 227.8 447.7 222.45 443.05 218.9 444.9 213.45 443.25 208 448.05 204.65 450.15 199.35 453.15 199.35 443 189.15 443 160.95 440.8 160.95 440.8 158.75 480.45 158.75 480.45 160.95 M540.45 160.95 L538.25 160.95 538.25 189.15 527.85 199.55 531.75 199.65 533.6 205.15 538.3 208.6 536.45 214.1 538.05 219.5 533.3 222.9 531.3 228.3 525.25 228.3 520.3 231.4 515.5 228.1 509.55 227.8 507.7 222.45 503.05 218.9 504.9 213.45 503.25 208 508.05 204.65 510.15 199.35 513.15 199.35 503 189.15 503 160.95 500.8 160.95 500.8 158.75 540.45 158.75 540.45 160.95 M298.25 160.95 L298.25 189.15 289.1 198.3 Q291.25 199.5 293.1 201.35 298.3 206.55 298.3 213.8 298.3 221.15 293.1 226.3 288 231.4 280.75 231.4 273.4 231.4 268.2 226.3 263.05 221.15 263.05 213.8 263.05 206.55 268.2 201.35 270.05 199.5 272.15 198.35 L263 189.15 263 160.95 260.8 160.95 260.8 158.75 300.45 158.75 300.45 160.95 298.25 160.95 M240.45 160.95 L238.25 160.95 238.25 189.15 229.1 198.3 Q231.25 199.5 233.1 201.35 238.3 206.55 238.3 213.8 238.3 221.15 233.1 226.3 228 231.4 220.75 231.4 213.4 231.4 208.2 226.3 203.05 221.15 203.05 213.8 203.05 206.55 208.2 201.35 210.05 199.5 212.15 198.35 L203 189.15 203 160.95 200.8 160.95 200.8 158.75 240.45 158.75 240.45 160.95 M178.25 160.95 L178.25 189.15 169.1 198.3 Q171.25 199.5 173.1 201.35 178.3 206.55 178.3 213.8 178.3 221.15 173.1 226.3 168 231.4 160.75 231.4 153.4 231.4 148.2 226.3 143.05 221.15 143.05 213.8 143.05 206.55 148.2 201.35 150.05 199.5 152.15 198.35 L143 189.15 143 160.95 140.8 160.95 140.8 158.75 180.45 158.75 180.45 160.95 178.25 160.95 M360.45 160.95 L358.25 160.95 358.25 189.15 349.1 198.3 Q351.25 199.5 353.1 201.35 358.3 206.55 358.3 213.8 358.3 221.15 353.1 226.3 348 231.4 340.75 231.4 333.4 231.4 328.2 226.3 323.05 221.15 323.05 213.8 323.05 206.55 328.2 201.35 330.05 199.5 332.15 198.35 L323 189.15 323 160.95 320.8 160.95 320.8 158.75 360.45 158.75 360.45 160.95 M420.45 158.75 L420.45 160.95 418.25 160.95 418.25 189.15 409.1 198.3 Q411.25 199.5 413.1 201.35 418.3 206.55 418.3 213.8 418.3 221.15 413.1 226.3 408 231.4 400.75 231.4 393.4 231.4 388.2 226.3 383.05 221.15 383.05 213.8 383.05 206.55 388.2 201.35 390.05 199.5 392.15 198.35 L383 189.15 383 160.95 380.8 160.95 380.8 158.75 420.45 158.75 M120.45 160.95 L118.25 160.95 118.25 189.15 109.1 198.3 Q111.25 199.5 113.1 201.35 118.3 206.55 118.3 213.8 118.3 221.15 113.1 226.3 108 231.4 100.75 231.4 93.4 231.4 88.2 226.3 83.05 221.15 83.05 213.8 83.05 206.55 88.2 201.35 90.05 199.5 92.15 198.35 L83 189.15 83 160.95 80.8 160.95 80.8 158.75 120.45 158.75 120.45 160.95 M60.45 160.95 L58.25 160.95 54.2 197.45 46.5 206.4 Q48.4 207.35 50 209 53.9 212.9 53.9 218.3 53.9 223.85 50 227.7 46.15 231.5 40.7 231.5 35.2 231.5 31.3 227.7 27.45 223.85 27.45 218.3 27.45 212.9 31.3 209 32.9 207.4 34.8 206.45 L27.05 197.45 23 160.95 20.8 160.95 20.8 158.75 60.45 158.75 60.45 160.95"/>
    <path stroke="none" fill="#D7D7D7" d="M286.35 158.95 L286.35 162.55 274.85 162.55 274.85 158.95 286.35 158.95"/>
    <path stroke="none" fill="#3A67A8" d="M286.35 158.95 L298.25 158.95 298.25 162.55 286.35 162.55 286.35 158.95 M274.85 158.95 L274.85 162.55 263 162.55 263 158.95 274.85 158.95"/>
    <path stroke="none" fill="#FFCC00" d="M274.85 158.95 L263 158.95 260.8 158.95 260.8 156.75 300.45 156.75 300.45 158.95 298.25 158.95 286.35 158.95 274.85 158.95"/>
    <path stroke="none" fill="#EFEFEF" d="M274.85 162.55 L286.35 162.55 286.35 199.05 274.85 199.05 274.85 162.55"/>
    <path stroke="none" fill="#4E84D3" d="M274.85 162.55 L274.85 199.05 263 187.15 263 162.55 274.85 162.55 M286.35 162.55 L298.25 162.55 298.25 187.15 286.35 199.05 286.35 162.55"/>
    <path stroke="none" fill="#FFCC00" d="M118.25 158.95 L106.35 158.95 94.85 158.95 83 158.95 80.8 158.95 80.8 156.75 120.45 156.75 120.45 158.95 118.25 158.95"/>
    <path stroke="none" fill="#BB3838" d="M118.25 158.95 L118.25 162.55 106.35 162.55 106.35 158.95 118.25 158.95 M94.85 162.55 L83 162.55 83 158.95 94.85 158.95 94.85 162.55"/>
    <path stroke="none" fill="#D7D7D7" d="M94.85 162.55 L94.85 158.95 106.35 158.95 106.35 162.55 94.85 162.55"/>
    <path stroke="none" fill="#D03E3E" d="M94.85 162.55 L94.85 199.05 83 187.15 83 162.55 94.85 162.55 M106.35 162.55 L118.25 162.55 118.25 187.15 106.35 199.05 106.35 162.55"/>
    <path stroke="none" fill="#EFEFEF" d="M106.35 162.55 L106.35 199.05 94.85 199.05 94.85 162.55 106.35 162.55"/>
    <path stroke="none" fill="#CCCCCC" d="M88.3 211.8 Q88.3 216.95 91.9 220.55 95.55 224.15 100.75 224.15 105.7 224.15 109.35 220.55 112.95 216.95 113 211.8 112.95 206.65 109.35 203.1 105.7 199.5 100.75 199.55 95.55 199.5 91.9 203.1 88.3 206.65 88.3 211.8 M88.2 199.35 Q93.4 194.2 100.75 194.2 108 194.2 113.1 199.35 118.3 204.55 118.3 211.8 118.3 219.15 113.1 224.3 108 229.4 100.75 229.4 93.4 229.4 88.2 224.3 83.05 219.15 83.05 211.8 83.05 204.55 88.2 199.35"/>
    <path stroke="none" fill="#E9E9E9" d="M90.8 211.8 Q90.8 215.9 93.65 218.8 96.55 221.7 100.75 221.7 104.7 221.7 107.6 218.8 110.5 215.9 110.55 211.8 110.5 207.65 107.6 204.85 104.7 201.95 100.75 202 96.55 201.95 93.65 204.85 90.8 207.65 90.8 211.8 M88.3 211.8 Q88.3 206.65 91.9 203.1 95.55 199.5 100.75 199.55 105.7 199.5 109.35 203.1 112.95 206.65 113 211.8 112.95 216.95 109.35 220.55 105.7 224.15 100.75 224.15 95.55 224.15 91.9 220.55 88.3 216.95 88.3 211.8"/>
    <path stroke="none" fill="#E1E1E1" d="M90.8 211.8 Q90.8 207.65 93.65 204.85 96.55 201.95 100.75 202 104.7 201.95 107.6 204.85 110.5 207.65 110.55 211.8 110.5 215.9 107.6 218.8 104.7 221.7 100.75 221.7 96.55 221.7 93.65 218.8 90.8 215.9 90.8 211.8 M92.75 211.8 Q92.75 215.05 95.05 217.35 97.35 219.65 100.75 219.65 103.85 219.65 106.15 217.35 108.55 215.05 108.55 211.8 108.55 208.5 106.15 206.2 103.85 203.9 100.75 203.95 97.35 203.9 95.05 206.2 92.75 208.5 92.75 211.8"/>
    <path stroke="none" fill="#F3F3F3" d="M92.75 211.8 Q92.75 208.5 95.05 206.2 97.35 203.9 100.75 203.95 103.85 203.9 106.15 206.2 108.55 208.5 108.55 211.8 108.55 215.05 106.15 217.35 103.85 219.65 100.75 219.65 97.35 219.65 95.05 217.35 92.75 215.05 92.75 211.8"/>
    <path stroke="none" fill="#E2A010" d="M154.85 162.55 L154.85 158.95 166.35 158.95 166.35 162.55 154.85 162.55"/>
    <path stroke="none" fill="#3A67A8" d="M154.85 162.55 L143 162.55 143 158.95 154.85 158.95 154.85 162.55 M166.35 162.55 L166.35 158.95 178.25 158.95 178.25 162.55 166.35 162.55"/>
    <path stroke="none" fill="#4E84D3" d="M166.35 162.55 L178.25 162.55 178.25 187.15 166.35 199.05 166.35 162.55 M143 162.55 L154.85 162.55 154.85 199.05 143 187.15 143 162.55"/>
    <path stroke="none" fill="#FFCC00" d="M166.35 158.95 L154.85 158.95 143 158.95 140.8 158.95 140.8 156.75 180.45 156.75 180.45 158.95 178.25 158.95 166.35 158.95"/>
    <path stroke="none" fill="#F2A90C" d="M154.85 162.55 L166.35 162.55 166.35 199.05 154.85 199.05 154.85 162.55"/>
    <path stroke="none" fill="#C7A006" d="M166.15 206.2 Q163.85 203.9 160.75 203.95 157.35 203.9 155.05 206.2 152.75 208.5 152.75 211.8 152.75 215.05 155.05 217.35 157.35 219.65 160.75 219.65 163.85 219.65 166.15 217.35 168.55 215.05 168.55 211.8 168.55 208.5 166.15 206.2 M150.8 211.8 Q150.8 207.65 153.65 204.85 156.55 201.95 160.75 202 164.7 201.95 167.6 204.85 170.5 207.65 170.55 211.8 170.5 215.9 167.6 218.8 164.7 221.7 160.75 221.7 156.55 221.7 153.65 218.8 150.8 215.9 150.8 211.8"/>
    <path stroke="none" fill="#E5B90A" d="M166.15 206.2 Q168.55 208.5 168.55 211.8 168.55 215.05 166.15 217.35 163.85 219.65 160.75 219.65 157.35 219.65 155.05 217.35 152.75 215.05 152.75 211.8 152.75 208.5 155.05 206.2 157.35 203.9 160.75 203.95 163.85 203.9 166.15 206.2"/>
    <path stroke="none" fill="#C09A04" d="M148.3 211.8 Q148.3 216.95 151.9 220.55 155.55 224.15 160.75 224.15 165.7 224.15 169.35 220.55 172.95 216.95 173 211.8 172.95 206.65 169.35 203.1 165.7 199.5 160.75 199.55 155.55 199.5 151.9 203.1 148.3 206.65 148.3 211.8 M178.3 211.8 Q178.3 219.15 173.1 224.3 168 229.4 160.75 229.4 153.4 229.4 148.2 224.3 143.05 219.15 143.05 211.8 143.05 204.55 148.2 199.35 153.4 194.2 160.75 194.2 168 194.2 173.1 199.35 178.3 204.55 178.3 211.8"/>
    <path stroke="none" fill="#DEB307" d="M150.8 211.8 Q150.8 215.9 153.65 218.8 156.55 221.7 160.75 221.7 164.7 221.7 167.6 218.8 170.5 215.9 170.55 211.8 170.5 207.65 167.6 204.85 164.7 201.95 160.75 202 156.55 201.95 153.65 204.85 150.8 207.65 150.8 211.8 M148.3 211.8 Q148.3 206.65 151.9 203.1 155.55 199.5 160.75 199.55 165.7 199.5 169.35 203.1 172.95 206.65 173 211.8 172.95 216.95 169.35 220.55 165.7 224.15 160.75 224.15 155.55 224.15 151.9 220.55 148.3 216.95 148.3 211.8"/>
    <path stroke="none" fill="#FFCC00" d="M203 158.95 L200.8 158.95 200.8 156.75 240.45 156.75 240.45 158.95 238.25 158.95 226.35 158.95 214.85 158.95 203 158.95"/>
    <path stroke="none" fill="#3A67A8" d="M203 158.95 L214.85 158.95 214.85 162.55 203 162.55 203 158.95 M238.25 158.95 L238.25 162.55 226.35 162.55 226.35 158.95 238.25 158.95"/>
    <path stroke="none" fill="#4E84D3" d="M238.25 162.55 L238.25 187.15 226.35 199.05 226.35 162.55 238.25 162.55 M214.85 199.05 L203 187.15 203 162.55 214.85 162.55 214.85 199.05"/>
    <path stroke="none" fill="#D7D7D7" d="M226.35 158.95 L226.35 162.55 214.85 162.55 214.85 158.95 226.35 158.95"/>
    <path stroke="none" fill="#EFEFEF" d="M226.35 199.05 L214.85 199.05 214.85 162.55 226.35 162.55 226.35 199.05"/>
    <path stroke="none" fill="#E1E1E1" d="M232.5 211.8 Q232.45 216.7 228.95 220.2 225.5 223.7 220.75 223.7 215.7 223.7 212.25 220.2 208.8 216.7 208.8 211.8 208.8 206.8 212.25 203.45 215.7 200 220.75 200.05 225.5 200 228.95 203.45 232.45 206.8 232.5 211.8 M230.1 211.8 Q230.1 207.85 227.25 205.1 224.45 202.3 220.75 202.4 216.65 202.3 213.9 205.1 211.15 207.85 211.15 211.8 211.15 215.7 213.9 218.45 216.65 221.2 220.75 221.2 224.45 221.2 227.25 218.45 230.1 215.7 230.1 211.8"/>
    <path stroke="none" fill="#F3F3F3" d="M230.1 211.8 Q230.1 215.7 227.25 218.45 224.45 221.2 220.75 221.2 216.65 221.2 213.9 218.45 211.15 215.7 211.15 211.8 211.15 207.85 213.9 205.1 216.65 202.3 220.75 202.4 224.45 202.3 227.25 205.1 230.1 207.85 230.1 211.8"/>
    <path stroke="none" fill="#E9E9E9" d="M231.05 222.3 Q226.7 226.6 220.75 226.6 214.5 226.6 210.15 222.3 205.8 218 205.8 211.8 205.8 205.6 210.15 201.35 214.5 197.05 220.75 197.1 226.7 197.05 231.05 201.35 235.4 205.6 235.45 211.8 235.4 218 231.05 222.3 M232.5 211.8 Q232.45 206.8 228.95 203.45 225.5 200 220.75 200.05 215.7 200 212.25 203.45 208.8 206.8 208.8 211.8 208.8 216.7 212.25 220.2 215.7 223.7 220.75 223.7 225.5 223.7 228.95 220.2 232.45 216.7 232.5 211.8"/>
    <path stroke="none" fill="#CCCCCC" d="M231.05 222.3 Q235.4 218 235.45 211.8 235.4 205.6 231.05 201.35 226.7 197.05 220.75 197.1 214.5 197.05 210.15 201.35 205.8 205.6 205.8 211.8 205.8 218 210.15 222.3 214.5 226.6 220.75 226.6 226.7 226.6 231.05 222.3 M238.3 211.8 Q238.3 219.15 233.1 224.3 228 229.4 220.75 229.4 213.4 229.4 208.2 224.3 203.05 219.15 203.05 211.8 203.05 204.55 208.2 199.35 213.4 194.2 220.75 194.2 228 194.2 233.1 199.35 238.3 204.55 238.3 211.8"/>
    <path stroke="none" fill="#C7A006" d="M287.25 205.1 Q284.45 202.3 280.75 202.4 276.65 202.3 273.9 205.1 271.15 207.85 271.15 211.8 271.15 215.7 273.9 218.45 276.65 221.2 280.75 221.2 284.45 221.2 287.25 218.45 290.1 215.7 290.1 211.8 290.1 207.85 287.25 205.1 M268.8 211.8 Q268.8 206.8 272.25 203.45 275.7 200 280.75 200.05 285.5 200 288.95 203.45 292.45 206.8 292.5 211.8 292.45 216.7 288.95 220.2 285.5 223.7 280.75 223.7 275.7 223.7 272.25 220.2 268.8 216.7 268.8 211.8"/>
    <path stroke="none" fill="#E5B90A" d="M287.25 205.1 Q290.1 207.85 290.1 211.8 290.1 215.7 287.25 218.45 284.45 221.2 280.75 221.2 276.65 221.2 273.9 218.45 271.15 215.7 271.15 211.8 271.15 207.85 273.9 205.1 276.65 202.3 280.75 202.4 284.45 202.3 287.25 205.1"/>
    <path stroke="none" fill="#DEB307" d="M268.8 211.8 Q268.8 216.7 272.25 220.2 275.7 223.7 280.75 223.7 285.5 223.7 288.95 220.2 292.45 216.7 292.5 211.8 292.45 206.8 288.95 203.45 285.5 200 280.75 200.05 275.7 200 272.25 203.45 268.8 206.8 268.8 211.8 M295.45 211.8 Q295.4 218 291.05 222.3 286.7 226.6 280.75 226.6 274.5 226.6 270.15 222.3 265.8 218 265.8 211.8 265.8 205.6 270.15 201.35 274.5 197.05 280.75 197.1 286.7 197.05 291.05 201.35 295.4 205.6 295.45 211.8"/>
    <path stroke="none" fill="#C09A04" d="M295.45 211.8 Q295.4 205.6 291.05 201.35 286.7 197.05 280.75 197.1 274.5 197.05 270.15 201.35 265.8 205.6 265.8 211.8 265.8 218 270.15 222.3 274.5 226.6 280.75 226.6 286.7 226.6 291.05 222.3 295.4 218 295.45 211.8 M298.3 211.8 Q298.3 219.15 293.1 224.3 288 229.4 280.75 229.4 273.4 229.4 268.2 224.3 263.05 219.15 263.05 211.8 263.05 204.55 268.2 199.35 273.4 194.2 280.75 194.2 288 194.2 293.1 199.35 298.3 204.55 298.3 211.8"/>
    <path stroke="none" fill="#3A67A8" d="M323 158.95 L334.85 158.95 334.85 162.55 323 162.55 323 158.95 M346.35 158.95 L358.25 158.95 358.25 162.55 346.35 162.55 346.35 158.95"/>
    <path stroke="none" fill="#FFCC00" d="M346.35 158.95 L334.85 158.95 323 158.95 320.8 158.95 320.8 156.75 360.45 156.75 360.45 158.95 358.25 158.95 346.35 158.95"/>
    <path stroke="none" fill="#D7D7D7" d="M346.35 158.95 L346.35 162.55 334.85 162.55 334.85 158.95 346.35 158.95"/>
    <path stroke="none" fill="#EFEFEF" d="M346.35 199.05 L334.85 199.05 334.85 162.55 346.35 162.55 346.35 199.05"/>
    <path stroke="none" fill="#4E84D3" d="M346.35 199.05 L346.35 162.55 358.25 162.55 358.25 187.15 346.35 199.05 M334.85 199.05 L323 187.15 323 162.55 334.85 162.55 334.85 199.05"/>
    <path stroke="none" fill="#ECBE08" d="M406.35 162.55 L394.85 162.55 394.85 158.95 406.35 158.95 406.35 162.55"/>
    <path stroke="none" fill="#FFCC00" d="M406.35 162.55 L406.35 199.05 394.85 199.05 394.85 162.55 406.35 162.55 M406.35 158.95 L394.85 158.95 383 158.95 380.8 158.95 380.8 156.75 420.45 156.75 420.45 158.95 418.25 158.95 406.35 158.95"/>
    <path stroke="none" fill="#7C468A" d="M406.35 158.95 L418.25 158.95 418.25 162.55 406.35 162.55 406.35 158.95 M394.85 158.95 L394.85 162.55 383 162.55 383 158.95 394.85 158.95"/>
    <path stroke="none" fill="#8C4E9C" d="M394.85 162.55 L394.85 199.05 383 187.15 383 162.55 394.85 162.55 M406.35 199.05 L406.35 162.55 418.25 162.55 418.25 187.15 406.35 199.05"/>
    <path stroke="none" fill="#D7D7D7" d="M443 158.95 L454.85 158.95 454.85 162.55 443 162.55 443 158.95 M466.35 158.95 L478.25 158.95 478.25 162.55 466.35 162.55 466.35 158.95"/>
    <path stroke="none" fill="#FFCC00" d="M466.35 158.95 L454.85 158.95 443 158.95 440.8 158.95 440.8 156.75 480.45 156.75 480.45 158.95 478.25 158.95 466.35 158.95"/>
    <path stroke="none" fill="#EFEFEF" d="M478.25 162.55 L478.25 187.15 466.35 199.05 466.35 162.55 478.25 162.55 M454.85 199.05 L443 187.15 443 162.55 454.85 162.55 454.85 199.05"/>
    <path stroke="none" fill="#79A64C" d="M454.85 158.95 L466.35 158.95 466.35 162.55 454.85 162.55 454.85 158.95"/>
    <path stroke="none" fill="#98C568" d="M466.35 199.05 L454.85 199.05 454.85 162.55 466.35 162.55 466.35 199.05"/>
    <path stroke="none" fill="#7C468A" d="M526.35 162.55 L514.85 162.55 514.85 158.95 526.35 158.95 526.35 162.55"/>
    <path stroke="none" fill="#8C4E9C" d="M526.35 162.55 L526.35 199.05 514.85 199.05 514.85 162.55 526.35 162.55"/>
    <path stroke="none" fill="#D7D7D7" d="M526.35 162.55 L526.35 158.95 538.25 158.95 538.25 162.55 526.35 162.55 M514.85 158.95 L514.85 162.55 503 162.55 503 158.95 514.85 158.95"/>
    <path stroke="none" fill="#FFCC00" d="M514.85 158.95 L503 158.95 500.8 158.95 500.8 156.75 540.45 156.75 540.45 158.95 538.25 158.95 526.35 158.95 514.85 158.95"/>
    <path stroke="none" fill="#EFEFEF" d="M514.85 162.55 L514.85 199.05 503 187.15 503 162.55 514.85 162.55 M526.35 199.05 L526.35 162.55 538.25 162.55 538.25 187.15 526.35 199.05"/>
    <path stroke="none" fill="#CCCCCC" d="M328.2 199.35 Q333.4 194.2 340.75 194.2 348 194.2 353.1 199.35 358.3 204.55 358.3 211.8 358.3 219.15 353.1 224.3 348 229.4 340.75 229.4 333.4 229.4 328.2 224.3 323.05 219.15 323.05 211.8 323.05 204.55 328.2 199.35 M325.8 211.8 Q325.8 218 330.15 222.3 334.5 226.6 340.75 226.6 346.7 226.6 351.05 222.3 355.4 218 355.45 211.8 355.4 205.6 351.05 201.35 346.7 197.05 340.75 197.1 334.5 197.05 330.15 201.35 325.8 205.6 325.8 211.8"/>
    <path stroke="none" fill="#E1E1E1" d="M347.25 205.1 Q344.45 202.3 340.75 202.4 336.65 202.3 333.9 205.1 331.15 207.85 331.15 211.8 331.15 215.7 333.9 218.45 336.65 221.2 340.75 221.2 344.45 221.2 347.25 218.45 350.1 215.7 350.1 211.8 350.1 207.85 347.25 205.1 M328.8 211.8 Q328.8 206.8 332.25 203.45 335.7 200 340.75 200.05 345.5 200 348.95 203.45 352.45 206.8 352.5 211.8 352.45 216.7 348.95 220.2 345.5 223.7 340.75 223.7 335.7 223.7 332.25 220.2 328.8 216.7 328.8 211.8"/>
    <path stroke="none" fill="#F3F3F3" d="M347.25 205.1 Q350.1 207.85 350.1 211.8 350.1 215.7 347.25 218.45 344.45 221.2 340.75 221.2 336.65 221.2 333.9 218.45 331.15 215.7 331.15 211.8 331.15 207.85 333.9 205.1 336.65 202.3 340.75 202.4 344.45 202.3 347.25 205.1"/>
    <path stroke="none" fill="#E9E9E9" d="M328.8 211.8 Q328.8 216.7 332.25 220.2 335.7 223.7 340.75 223.7 345.5 223.7 348.95 220.2 352.45 216.7 352.5 211.8 352.45 206.8 348.95 203.45 345.5 200 340.75 200.05 335.7 200 332.25 203.45 328.8 206.8 328.8 211.8 M325.8 211.8 Q325.8 205.6 330.15 201.35 334.5 197.05 340.75 197.1 346.7 197.05 351.05 201.35 355.4 205.6 355.45 211.8 355.4 218 351.05 222.3 346.7 226.6 340.75 226.6 334.5 226.6 330.15 222.3 325.8 218 325.8 211.8"/>
    <path stroke="none" fill="#DEB307" d="M408.95 203.45 Q405.5 200 400.75 200.05 395.7 200 392.25 203.45 388.8 206.8 388.8 211.8 388.8 216.7 392.25 220.2 395.7 223.7 400.75 223.7 405.5 223.7 408.95 220.2 412.45 216.7 412.5 211.8 412.45 206.8 408.95 203.45 M411.05 222.3 Q406.7 226.6 400.75 226.6 394.5 226.6 390.15 222.3 385.8 218 385.8 211.8 385.8 205.6 390.15 201.35 394.5 197.05 400.75 197.1 406.7 197.05 411.05 201.35 415.4 205.6 415.45 211.8 415.4 218 411.05 222.3"/>
    <path stroke="none" fill="#C7A006" d="M407.25 205.1 Q404.45 202.3 400.75 202.4 396.65 202.3 393.9 205.1 391.15 207.85 391.15 211.8 391.15 215.7 393.9 218.45 396.65 221.2 400.75 221.2 404.45 221.2 407.25 218.45 410.1 215.7 410.1 211.8 410.1 207.85 407.25 205.1 M408.95 203.45 Q412.45 206.8 412.5 211.8 412.45 216.7 408.95 220.2 405.5 223.7 400.75 223.7 395.7 223.7 392.25 220.2 388.8 216.7 388.8 211.8 388.8 206.8 392.25 203.45 395.7 200 400.75 200.05 405.5 200 408.95 203.45"/>
    <path stroke="none" fill="#E5B90A" d="M407.25 205.1 Q410.1 207.85 410.1 211.8 410.1 215.7 407.25 218.45 404.45 221.2 400.75 221.2 396.65 221.2 393.9 218.45 391.15 215.7 391.15 211.8 391.15 207.85 393.9 205.1 396.65 202.3 400.75 202.4 404.45 202.3 407.25 205.1"/>
    <path stroke="none" fill="#C09A04" d="M418.3 211.8 Q418.3 219.15 413.1 224.3 408 229.4 400.75 229.4 393.4 229.4 388.2 224.3 383.05 219.15 383.05 211.8 383.05 204.55 388.2 199.35 393.4 194.2 400.75 194.2 408 194.2 413.1 199.35 418.3 204.55 418.3 211.8 M411.05 222.3 Q415.4 218 415.45 211.8 415.4 205.6 411.05 201.35 406.7 197.05 400.75 197.1 394.5 197.05 390.15 201.35 385.8 205.6 385.8 211.8 385.8 218 390.15 222.3 394.5 226.6 400.75 226.6 406.7 226.6 411.05 222.3"/>
    <path stroke="none" fill="#EAEAEA" d="M478.3 206.6 L476.45 212.1 478.05 217.5 473.3 220.9 471.3 226.3 465.25 226.3 460.3 229.4 455.5 226.1 449.55 225.8 447.7 220.45 443.05 216.9 444.9 211.45 443.25 206 448.05 202.65 450.15 197.35 456.05 197.3 460.95 194.2 465.8 197.5 471.75 197.65 473.6 203.15 478.3 206.6 M475.4 207.5 L471.55 204.6 470 199.9 464.95 199.8 460.95 196.9 456.8 199.7 451.85 199.7 450 204.2 446.05 207 447.3 211.6 445.85 216.1 449.7 219.05 451.25 223.7 456.3 223.8 460.35 226.6 464.55 224.05 469.5 224.05 471.25 219.5 475.25 216.65 473.85 212.05 475.4 207.5"/>
    <path stroke="none" fill="#D5D5D5" d="M475.4 207.5 L473.85 212.05 475.25 216.65 471.25 219.5 469.5 224.05 464.55 224.05 460.35 226.6 456.3 223.8 451.25 223.7 449.7 219.05 445.85 216.1 447.3 211.6 446.05 207 450 204.2 451.85 199.7 456.8 199.7 460.95 196.9 464.95 199.8 470 199.9 471.55 204.6 475.4 207.5 M466.7 204.2 L463.45 204.15 460.9 202.3 458.25 204.05 455.05 204.05 453.9 206.95 451.35 208.75 452.15 211.7 451.2 214.55 453.7 216.45 454.7 219.45 457.9 219.5 460.5 221.3 463.2 219.65 466.35 219.65 467.5 216.75 470.05 214.9 469.15 212 470.15 209.05 467.65 207.2 466.7 204.2 M465.55 208.6 L467.3 209.9 466.6 211.95 467.25 214 465.45 215.3 464.65 217.3 462.45 217.3 460.55 218.45 458.75 217.2 456.5 217.2 455.8 215.1 454.05 213.75 454.7 211.75 454.15 209.7 455.95 208.45 456.75 206.4 458.95 206.4 460.85 205.15 462.6 206.45 464.9 206.5 465.55 208.6"/>
    <path stroke="none" fill="#B8B8B8" d="M465.55 208.6 L464.9 206.5 462.6 206.45 460.85 205.15 458.95 206.4 456.75 206.4 455.95 208.45 454.15 209.7 454.7 211.75 454.05 213.75 455.8 215.1 456.5 217.2 458.75 217.2 460.55 218.45 462.45 217.3 464.65 217.3 465.45 215.3 467.25 214 466.6 211.95 467.3 209.9 465.55 208.6 M466.7 204.2 L467.65 207.2 470.15 209.05 469.15 212 470.05 214.9 467.5 216.75 466.35 219.65 463.2 219.65 460.5 221.3 457.9 219.5 454.7 219.45 453.7 216.45 451.2 214.55 452.15 211.7 451.35 208.75 453.9 206.95 455.05 204.05 458.25 204.05 460.9 202.3 463.45 204.15 466.7 204.2"/>
    <path stroke="none" fill="#F5C504" d="M505.85 216.1 L509.7 219.05 511.25 223.7 516.3 223.8 520.35 226.6 524.55 224.05 529.5 224.05 531.25 219.5 535.25 216.65 533.85 212.05 535.4 207.5 531.55 204.6 530 199.9 524.95 199.8 520.95 196.9 516.8 199.7 511.85 199.7 510 204.2 506.05 207 507.3 211.6 505.85 216.1 M504.9 211.45 L503.25 206 508.05 202.65 510.15 197.35 516.05 197.3 520.95 194.2 525.8 197.5 531.75 197.65 533.6 203.15 538.3 206.6 536.45 212.1 538.05 217.5 533.3 220.9 531.3 226.3 525.25 226.3 520.3 229.4 515.5 226.1 509.55 225.8 507.7 220.45 503.05 216.9 504.9 211.45"/>
    <path stroke="none" fill="#DEB307" d="M505.85 216.1 L507.3 211.6 506.05 207 510 204.2 511.85 199.7 516.8 199.7 520.95 196.9 524.95 199.8 530 199.9 531.55 204.6 535.4 207.5 533.85 212.05 535.25 216.65 531.25 219.5 529.5 224.05 524.55 224.05 520.35 226.6 516.3 223.8 511.25 223.7 509.7 219.05 505.85 216.1 M523.45 204.15 L520.9 202.3 518.25 204.05 515.05 204.05 513.9 206.95 511.35 208.75 512.15 211.7 511.2 214.55 513.7 216.45 514.7 219.45 517.9 219.5 520.5 221.3 523.2 219.65 526.35 219.65 527.5 216.75 530.05 214.9 529.15 212 530.15 209.05 527.65 207.2 526.7 204.2 523.45 204.15 M525.55 208.6 L527.3 209.9 526.6 211.95 527.25 214 525.45 215.3 524.65 217.3 522.45 217.3 520.55 218.45 518.75 217.2 516.5 217.2 515.8 215.1 514.05 213.75 514.7 211.75 514.15 209.7 515.95 208.45 516.75 206.4 518.95 206.4 520.85 205.15 522.6 206.45 524.9 206.5 525.55 208.6"/>
    <path stroke="none" fill="#C7A006" d="M525.55 208.6 L524.9 206.5 522.6 206.45 520.85 205.15 518.95 206.4 516.75 206.4 515.95 208.45 514.15 209.7 514.7 211.75 514.05 213.75 515.8 215.1 516.5 217.2 518.75 217.2 520.55 218.45 522.45 217.3 524.65 217.3 525.45 215.3 527.25 214 526.6 211.95 527.3 209.9 525.55 208.6 M523.45 204.15 L526.7 204.2 527.65 207.2 530.15 209.05 529.15 212 530.05 214.9 527.5 216.75 526.35 219.65 523.2 219.65 520.5 221.3 517.9 219.5 514.7 219.45 513.7 216.45 511.2 214.55 512.15 211.7 511.35 208.75 513.9 206.95 515.05 204.05 518.25 204.05 520.9 202.3 523.45 204.15"/>
    <path stroke="none" fill="#D7D7D7" d="M35.05 163.9 L34.85 158.95 46.35 158.95 46.15 163.9 35.05 163.9"/>
    <path stroke="none" fill="#BB3838" d="M35.05 163.9 L23.65 163.9 23 158.95 34.85 158.95 35.05 163.9 M46.15 163.9 L46.35 158.95 58.25 158.95 57.6 163.9 46.15 163.9"/>
    <path stroke="none" fill="#FFCC00" d="M46.35 158.95 L34.85 158.95 23 158.95 20.8 158.95 20.8 156.75 60.45 156.75 60.45 158.95 58.25 158.95 46.35 158.95"/>
    <path stroke="none" fill="#D03E3E" d="M23.65 163.9 L35.05 163.9 36.6 206.55 27.05 195.45 23.65 163.9 M44.65 206.55 L46.15 163.9 57.6 163.9 54.2 195.45 44.65 206.55"/>
    <path stroke="none" fill="#EFEFEF" d="M44.65 206.55 L36.6 206.55 35.05 163.9 46.15 163.9 44.65 206.55"/>
    <path stroke="none" fill="#C9B18F" d="M40.7 208.95 Q37.55 208.95 35.4 211.1 33.25 213.2 33.25 216.3 33.25 219.4 35.4 221.55 37.55 223.75 40.7 223.75 43.7 223.75 45.85 221.55 48.05 219.4 48.05 216.3 48.05 213.2 45.85 211.1 43.7 208.95 40.7 208.95 M31.4 216.3 Q31.4 212.45 34.1 209.8 36.8 207.1 40.7 207.15 44.45 207.1 47.15 209.8 49.85 212.45 49.9 216.3 49.85 220.2 47.15 222.9 44.45 225.6 40.7 225.6 36.8 225.6 34.1 222.9 31.4 220.2 31.4 216.3"/>
    <path stroke="none" fill="#A28D70" d="M31.4 216.3 Q31.4 220.2 34.1 222.9 36.8 225.6 40.7 225.6 44.45 225.6 47.15 222.9 49.85 220.2 49.9 216.3 49.85 212.45 47.15 209.8 44.45 207.1 40.7 207.15 36.8 207.1 34.1 209.8 31.4 212.45 31.4 216.3 M40.7 208.95 Q43.7 208.95 45.85 211.1 48.05 213.2 48.05 216.3 48.05 219.4 45.85 221.55 43.7 223.75 40.7 223.75 37.55 223.75 35.4 221.55 33.25 219.4 33.25 216.3 33.25 213.2 35.4 211.1 37.55 208.95 40.7 208.95 M36.45 212.1 Q34.7 213.85 34.7 216.3 34.7 218.75 36.45 220.5 38.15 222.2 40.7 222.2 43.05 222.2 44.75 220.5 46.55 218.75 46.55 216.3 46.55 213.85 44.75 212.1 43.05 210.4 40.7 210.45 38.15 210.4 36.45 212.1 M31.3 207 Q35.2 203.1 40.7 203.1 46.15 203.1 50 207 53.9 210.9 53.9 216.3 53.9 221.85 50 225.7 46.15 229.5 40.7 229.5 35.2 229.5 31.3 225.7 27.45 221.85 27.45 216.3 27.45 210.9 31.3 207"/>
    <path stroke="none" fill="#B59E7D" d="M36.45 212.1 Q38.15 210.4 40.7 210.45 43.05 210.4 44.75 212.1 46.55 213.85 46.55 216.3 46.55 218.75 44.75 220.5 43.05 222.2 40.7 222.2 38.15 222.2 36.45 220.5 34.7 218.75 34.7 216.3 34.7 213.85 36.45 212.1"/>
    <path stroke="none" fill="#000000" fill-opacity="0.14901960784313725" d="M217.65 211.8 L213.85 208.05 217.05 204.85 220.8 208.6 224.6 204.85 227.7 208.05 223.95 211.8 227.7 215.6 224.6 218.8 220.8 215 217.05 218.8 213.85 215.6 217.65 211.8"/>
    <path stroke="none" fill="#000000" fill-opacity="0.14901960784313725" d="M284.6 204.85 L287.7 208.05 283.95 211.8 287.7 215.6 284.6 218.8 280.8 215 277.05 218.8 273.85 215.6 277.65 211.8 273.85 208.05 277.05 204.85 280.8 208.6 284.6 204.85"/>
    <path stroke="none" fill="#000000" fill-opacity="0.14901960784313725" d="M338.85 209.45 L340.8 203.95 342.7 209.45 348.55 209.7 343.9 213.15 345.55 218.8 340.7 215.45 335.9 218.75 337.6 213.1 333 209.55 338.85 209.45"/>
    <path stroke="none" fill="#000000" fill-opacity="0.14901960784313725" d="M402.7 209.45 L408.55 209.7 403.9 213.15 405.55 218.8 400.7 215.45 395.9 218.75 397.6 213.1 393 209.55 398.85 209.45 400.8 203.95 402.7 209.45"/>
  </g>
</svg>