<?xml version="1.0" encoding="utf-8"?>
<!DOCTYPE svg PUBLIC "-//W3C//DTD SVG 1.1//EN" "http://www.w3.org/Graphics/SVG/1.1/DTD/svg11.dtd">
<svg version="1.1" xmlns="http://www.w3.org/2000/svg" xmlns:xlink="http://www.w3.org/1999/xlink" xmlns:ev="http://www.w3.org/2001/xml-events" width="800.0px" height="600.0px" overflow="visible" viewBox="0.0 0.0 800.0 600.0" enable-background="new 0.0 0.0 800.0 600.0">
	<defs/>
	<rect width="800.0px" height="600.0px" x="0px" y="0px" fill="#5E3F6B"/>
	<g>
		<g transform="matrix(1.0 0.0 0.0 1.0 0.0 0.0)">
			<path fill="#C4C4C4" stroke-linecap="round" stroke-linejoin="round" d="M 653.45 -155.9 L 653.45 -154.3 L 651.25 -154.3 L 651.25 -150.9 L 649.65 -152.15 L 649.65 -154.3 C 649.65 -154.73334 649.8167 -155.1 650.15 -155.4 C 650.45 -155.73332 650.81665 -155.9 651.25 -155.9 L 653.45 -155.9 Z M 642.95 -107.5 L 642.95 -105.9 L 639.4 -105.9 C 639.0667 -105.9 638.75006 -106.0 638.45 -106.2 C 638.15 -106.433334 637.9667 -106.700005 637.9 -107.0 C 637.76666 -107.333336 637.76666 -107.66667 637.9 -108.0 L 648.4 -137.8 L 651.25 -141.2 L 639.4 -107.5 L 642.95 -107.5 Z M 608.5 -153.7 L 608.5 -155.3 L 628.5 -155.3 L 628.5 -153.7 L 608.5 -153.7 Z M 583.55 -154.3 L 583.55 -155.9 L 585.75 -155.9 C 586.18335 -155.9 586.5667 -155.73332 586.9 -155.4 C 587.2 -155.09999 587.35 -154.73332 587.35 -154.3 L 587.35 -152.15 L 585.75 -150.9 L 585.75 -154.3 L 583.55 -154.3 Z M 594.1 -105.9 L 594.1 -107.5 L 597.6 -107.5 L 585.75 -141.2 L 588.65 -137.8 L 599.1 -108.0 L 599.15 -107.0 L 598.55 -106.2 C 598.25 -106.0 597.93335 -105.9 597.6 -105.9 L 594.1 -105.9 Z"/>
			<path fill="#8F9746" stroke-linecap="round" stroke-linejoin="round" d="M 653.45 -154.3 L 653.45 -155.9 L 658.0 -155.9 L 658.9 -155.6 L 659.5 -154.85 L 667.4 -134.4 L 667.5 -133.55 L 667.1 -132.7 L 644.15 -106.4 L 643.65 -106.0 L 642.95 -105.9 L 642.95 -107.5 L 653.95 -120.15 L 665.9 -133.8 L 663.05 -141.2 L 658.0 -154.3 L 653.45 -154.3 Z M 636.4 -133.0 L 637.65 -131.8 L 630.5 -117.55 L 629.9 -116.9 L 629.1 -116.65 L 607.95 -116.65 L 607.1 -116.9 C 606.8333 -117.066666 606.6333 -117.28333 606.5 -117.55 L 599.4 -131.8 L 600.6 -133.0 L 607.95 -118.25 L 629.1 -118.25 L 636.4 -133.0 Z M 608.5 -155.3 L 608.5 -153.7 L 600.6 -147.35 L 600.25 -149.05 L 607.55 -154.95 C 607.81665 -155.18333 608.1333 -155.3 608.5 -155.3 Z M 628.5 -153.7 L 628.5 -155.3 L 629.45 -154.95 L 636.8 -149.05 L 636.4 -147.35 L 628.5 -153.7 Z M 583.55 -155.9 L 583.55 -154.3 L 579.05 -154.3 L 573.95 -141.2 L 571.1 -133.8 L 583.05 -120.15 L 594.1 -107.5 L 594.1 -105.9 L 593.45 -106.0 L 592.9 -106.4 L 569.9 -132.7 C 569.73334 -132.93333 569.61664 -133.21667 569.55 -133.55 C 569.48334 -133.85 569.51666 -134.13333 569.65 -134.4 L 577.6 -154.85 L 578.15 -155.6 L 579.05 -155.9 L 583.55 -155.9 Z"/>
			<path fill="#AEB762" stroke-linecap="round" stroke-linejoin="round" d="M 653.45 -154.3 L 658.0 -154.3 L 663.05 -141.2 L 657.15 -141.2 L 660.0 -133.8 L 650.95 -120.15 L 653.95 -120.15 L 642.95 -107.5 L 653.45 -141.2 L 653.45 -154.3 Z M 600.6 -147.35 L 608.5 -153.7 L 608.5 -128.8 L 608.5 -128.7 C 608.5 -127.666664 608.86664 -126.799995 609.6 -126.1 C 610.3 -125.36667 611.1667 -125.0 612.2 -125.0 L 624.85 -125.0 C 625.88336 -125.0 626.75006 -125.36667 627.45 -126.1 C 628.15 -126.8 628.5 -127.66667 628.5 -128.7 L 628.5 -128.9 L 628.5 -153.7 L 636.4 -147.35 L 636.4 -133.0 L 629.1 -118.25 L 624.85 -121.05 L 612.2 -121.05 L 607.95 -118.25 L 600.6 -133.0 L 600.6 -147.35 Z M 594.1 -107.5 L 583.05 -120.15 L 586.0 -120.15 L 577.05 -133.8 L 579.9 -141.2 L 573.95 -141.2 L 579.05 -154.3 L 583.55 -154.3 L 583.55 -141.2 L 594.1 -107.5 Z"/>
			<path fill="#9AA34B" stroke-linecap="round" stroke-linejoin="round" d="M 663.05 -141.2 L 665.9 -133.8 L 653.95 -120.15 L 650.95 -120.15 L 660.0 -133.8 L 657.15 -141.2 L 663.05 -141.2 Z M 583.05 -120.15 L 571.1 -133.8 L 573.95 -141.2 L 579.9 -141.2 L 577.05 -133.8 L 586.0 -120.15 L 583.05 -120.15 Z M 607.95 -118.25 L 612.2 -121.05 L 624.85 -121.05 L 629.1 -118.25 L 607.95 -118.25 Z"/>
			<path fill="#9EBBC7" stroke-linecap="round" stroke-linejoin="round" d="M 649.65 -152.15 L 651.25 -150.9 L 648.8 -150.3 L 639.0 -147.95 L 636.4 -147.35 L 636.8 -149.05 L 649.65 -152.15 Z M 651.25 -141.2 L 648.4 -137.8 L 637.65 -131.8 L 636.4 -133.0 L 639.05 -134.45 L 648.8 -139.85 L 651.25 -141.2 Z M 600.25 -149.05 L 600.6 -147.35 L 598.0 -147.95 L 588.2 -150.3 L 585.75 -150.9 L 587.35 -152.15 L 600.25 -149.05 Z M 597.95 -134.45 C 598.85 -133.95 599.7333 -133.46666 600.6 -133.0 L 599.4 -131.8 L 588.65 -137.8 L 585.75 -141.2 L 588.2 -139.85 L 597.95 -134.45 Z"/>
			<path fill="#EEEEEE" stroke-linecap="round" stroke-linejoin="round" d="M 651.25 -150.9 L 651.25 -154.3 L 653.45 -154.3 L 653.45 -141.2 L 642.95 -107.5 L 639.4 -107.5 L 651.25 -141.2 L 651.25 -150.9 Z M 608.5 -153.7 L 628.5 -153.7 L 628.5 -128.9 C 628.4667 -129.83333 628.1167 -130.63333 627.45 -131.3 C 626.75 -132.03333 625.8833 -132.4 624.85 -132.4 L 612.2 -132.4 C 611.1667 -132.4 610.3 -132.03333 609.6 -131.3 C 608.89996 -130.6 608.5333 -129.76668 608.5 -128.8 L 608.5 -153.7 Z M 583.55 -154.3 L 585.75 -154.3 L 585.75 -150.9 L 585.75 -141.2 L 597.6 -107.5 L 594.1 -107.5 L 583.55 -141.2 L 583.55 -154.3 Z"/>
			<path fill="#BDD6DB" stroke-linecap="round" stroke-linejoin="round" d="M 648.8 -150.3 L 651.25 -150.9 L 651.25 -141.2 L 648.8 -139.85 L 648.8 -150.3 Z M 639.05 -134.45 L 636.4 -133.0 L 636.4 -147.35 L 639.0 -147.95 L 639.05 -134.45 Z M 598.0 -147.95 L 600.6 -147.35 L 600.6 -133.0 C 599.73334 -133.46666 598.85004 -133.95 597.95 -134.45 L 598.0 -147.95 Z M 588.2 -150.3 L 588.2 -139.85 L 585.75 -141.2 L 585.75 -150.9 L 588.2 -150.3 Z"/>
			<path fill="#D3E1E7" stroke-linecap="round" stroke-linejoin="round" d="M 648.8 -139.85 L 639.05 -134.45 L 639.0 -147.95 L 648.8 -150.3 L 648.8 -139.85 Z M 598.0 -147.95 L 597.95 -134.45 L 588.2 -139.85 L 588.2 -150.3 L 598.0 -147.95 Z"/>
			<path fill="#4A3C55" stroke-linecap="round" stroke-linejoin="round" d="M 628.5 -128.9 L 628.5 -128.7 C 628.5 -127.666664 628.15 -126.799995 627.45 -126.1 C 626.75 -125.36667 625.8833 -125.0 624.85 -125.0 L 612.2 -125.0 C 611.1667 -125.0 610.3 -125.36667 609.6 -126.1 C 608.86664 -126.8 608.5 -127.66667 608.5 -128.7 L 608.5 -128.8 C 608.5333 -129.76666 608.89996 -130.59999 609.6 -131.3 C 610.3 -132.03333 611.1667 -132.4 612.2 -132.4 L 624.85 -132.4 C 625.88336 -132.4 626.75006 -132.03333 627.45 -131.3 C 628.1167 -130.63333 628.4667 -129.83333 628.5 -128.9 Z"/>
			<path fill="#AEB762" stroke-linecap="round" stroke-linejoin="round" d="M 152.0 79.2 L 156.1 79.2 L 163.35 93.45 L 152.5 130.85 L 137.2 130.85 L 126.35 93.45 L 133.6 79.2 L 137.7 79.2 L 137.7 93.45 L 133.7 93.45 L 133.7 101.35 L 133.7 103.1 L 140.2 126.35 L 149.5 126.35 L 156.0 103.1 L 156.0 101.35 L 156.0 93.45 L 152.0 93.45 L 152.0 79.2 Z M 146.6 79.2 L 146.6 93.45 L 143.1 93.45 L 143.1 79.2 L 146.6 79.2 Z"/>
			<path fill="#8F9746" stroke-linecap="round" stroke-linejoin="round" d="M 156.1 79.2 L 152.0 79.2 L 152.0 77.7 L 156.1 77.7 L 156.9 77.95 L 157.45 78.55 L 164.7 92.8 C 164.86667 93.13334 164.90001 93.50001 164.8 93.9 L 153.95 131.3 L 153.4 132.05 L 152.5 132.35 L 137.2 132.35 C 136.86667 132.35 136.56667 132.25 136.3 132.05 L 135.75 131.3 L 124.9 93.9 C 124.8 93.5 124.850006 93.13333 125.05 92.8 L 132.3 78.55 L 132.85 77.95 C 133.08333 77.78333 133.33333 77.7 133.6 77.7 L 137.7 77.7 L 137.7 79.2 L 133.6 79.2 L 126.35 93.45 L 137.2 130.85 L 152.5 130.85 L 163.35 93.45 L 156.1 79.2 Z M 143.1 79.2 L 143.1 77.7 L 146.6 77.7 L 146.6 79.2 L 143.1 79.2 Z"/>
			<path fill="#C4C4C4" stroke-linecap="round" stroke-linejoin="round" d="M 137.7 79.2 L 137.7 77.7 L 143.1 77.7 L 143.1 79.2 L 137.7 79.2 Z M 152.0 77.7 L 152.0 79.2 L 146.6 79.2 L 146.6 77.7 L 152.0 77.7 Z"/>
			<path fill="#EEEEEE" stroke-linecap="round" stroke-linejoin="round" d="M 152.0 79.2 L 152.0 93.45 L 146.6 93.45 L 146.6 79.2 L 152.0 79.2 Z M 137.7 93.45 L 137.7 79.2 L 143.1 79.2 L 143.1 93.45 L 137.7 93.45 Z"/>
			<path fill="#4A3C55" stroke-linecap="round" stroke-linejoin="round" d="M 152.0 93.45 L 156.0 93.45 L 156.0 101.35 L 149.5 124.6 L 140.2 124.6 L 133.7 101.35 L 133.7 93.45 L 137.7 93.45 L 143.1 93.45 L 146.6 93.45 L 152.0 93.45 Z"/>
			<path fill="#544763" stroke-linecap="round" stroke-linejoin="round" d="M 156.0 101.35 L 156.0 103.1 L 149.5 126.35 L 140.2 126.35 L 133.7 103.1 L 133.7 101.35 L 140.2 124.6 L 149.5 124.6 L 156.0 101.35 Z"/>
			<path fill="#C4C4C4" stroke-linecap="round" stroke-linejoin="round" d="M 242.45 85.3 L 243.95 85.3 L 243.95 93.05 L 242.45 93.05 L 242.45 85.3 Z M 185.45 85.3 L 186.95 85.3 L 186.95 93.05 L 185.45 93.05 L 185.45 85.3 Z"/>
			<path fill="#8F9746" stroke-linecap="round" stroke-linejoin="round" d="M 243.95 85.3 L 242.45 85.3 L 242.45 81.55 L 230.2 81.55 L 214.7 76.55 L 199.2 81.55 L 186.95 81.55 L 186.95 85.3 L 185.45 85.3 L 185.45 81.55 C 185.45 81.15 185.59999 80.8 185.9 80.5 C 186.2 80.200005 186.55 80.05 186.95 80.05 L 199.0 80.05 L 214.25 75.15 C 214.55 75.05 214.85 75.05 215.15 75.15 L 230.45 80.05 L 242.45 80.05 C 242.85 80.05 243.20001 80.200005 243.5 80.5 C 243.8 80.799995 243.95 81.149994 243.95 81.55 L 243.95 85.3 Z M 242.45 93.05 L 243.95 93.05 L 243.95 114.7 L 243.8 115.4 L 243.3 115.95 L 215.55 134.7 L 214.7 134.95 L 213.85 134.7 L 186.1 115.95 L 185.65 115.4 L 185.45 114.7 L 185.45 93.05 L 186.95 93.05 L 186.95 114.7 L 214.7 133.45 L 242.45 114.7 L 242.45 93.05 Z"/>
			<path fill="#AEB762" stroke-linecap="round" stroke-linejoin="round" d="M 186.95 85.3 L 186.95 81.55 L 199.2 81.55 L 214.7 76.55 L 230.2 81.55 L 242.45 81.55 L 242.45 85.3 L 234.6 85.3 L 228.45 95.9 L 200.95 95.9 L 194.8 85.3 L 186.95 85.3 Z M 186.95 93.05 L 189.45 93.05 L 193.3 100.9 L 236.1 100.9 L 239.95 93.05 L 242.45 93.05 L 242.45 114.7 L 214.7 133.45 L 186.95 114.7 L 186.95 93.05 Z M 195.4 106.95 L 195.4 110.45 L 195.4 112.2 L 200.95 116.1 L 228.45 116.1 L 234.0 112.2 L 234.0 110.45 L 234.0 106.95 L 195.4 106.95 Z"/>
			<path fill="#EEEEEE" stroke-linecap="round" stroke-linejoin="round" d="M 242.45 85.3 L 242.45 93.05 L 239.95 93.05 L 236.1 100.9 L 193.3 100.9 L 189.45 93.05 L 186.95 93.05 L 186.95 85.3 L 194.8 85.3 L 200.95 95.9 L 228.45 95.9 L 234.6 85.3 L 242.45 85.3 Z"/>
			<path fill="#4A3C55" stroke-linecap="round" stroke-linejoin="round" d="M 195.4 110.45 L 195.4 106.95 L 234.0 106.95 L 234.0 110.45 L 228.45 114.35 L 200.95 114.35 L 195.4 110.45 Z"/>
			<path fill="#544763" stroke-linecap="round" stroke-linejoin="round" d="M 234.0 110.45 L 234.0 112.2 L 228.45 116.1 L 200.95 116.1 L 195.4 112.2 L 195.4 110.45 L 200.95 114.35 L 228.45 114.35 L 234.0 110.45 Z"/>
			<path fill="#8F9746" stroke-linecap="round" stroke-linejoin="round" d="M 289.45 72.05 L 290.1 72.2 L 299.75 76.85 L 300.4 77.4 L 300.6 78.2 L 300.6 100.2 L 312.0 111.6 C 312.30002 111.9 312.45 112.25 312.45 112.65 L 312.45 130.45 L 312.0 131.5 L 306.0 137.5 L 304.95 137.95 L 273.95 137.95 C 273.55002 137.95 273.2 137.8 272.9 137.5 L 266.9 131.5 C 266.6 131.2 266.45 130.84999 266.45 130.45 L 266.45 112.65 C 266.45 112.25 266.6 111.9 266.9 111.6 L 278.3 100.2 L 278.3 78.2 C 278.3 77.9 278.38333 77.63334 278.55 77.4 L 279.15 76.85 L 288.8 72.2 L 289.45 72.05 Z M 299.1 100.8 L 299.1 78.2 L 289.45 73.55 L 279.8 78.2 L 279.8 100.8 L 267.95 112.65 L 267.95 130.45 L 273.95 136.45 L 304.95 136.45 L 310.95 130.45 L 310.95 112.65 L 299.1 100.8 Z"/>
			<path fill="#AEB762" stroke-linecap="round" stroke-linejoin="round" d="M 299.1 78.2 L 299.1 100.8 L 310.95 112.65 L 310.95 130.45 L 304.95 136.45 L 273.95 136.45 L 267.95 130.45 L 267.95 112.65 L 279.8 100.8 L 279.8 78.2 L 289.45 73.55 L 299.1 78.2 Z M 272.15 122.7 L 272.15 124.45 L 281.9 131.45 L 286.9 131.45 L 286.9 129.7 L 286.9 120.45 L 272.15 120.45 L 272.15 122.7 Z M 292.0 120.45 L 292.0 129.7 L 292.0 131.45 L 297.0 131.45 L 306.75 124.45 L 306.75 122.7 L 306.75 120.45 L 292.0 120.45 Z M 306.75 113.8 L 272.15 113.8 L 272.15 116.55 L 306.75 116.55 L 306.75 113.8 Z"/>
			<path fill="#544763" stroke-linecap="round" stroke-linejoin="round" d="M 272.15 124.45 L 272.15 122.7 L 281.9 129.7 L 286.9 129.7 L 286.9 131.45 L 281.9 131.45 L 272.15 124.45 Z M 306.75 122.7 L 306.75 124.45 L 297.0 131.45 L 292.0 131.45 L 292.0 129.7 L 297.0 129.7 L 306.75 122.7 Z"/>
			<path fill="#4A3C55" stroke-linecap="round" stroke-linejoin="round" d="M 286.9 129.7 L 281.9 129.7 L 272.15 122.7 L 272.15 120.45 L 286.9 120.45 L 286.9 129.7 Z M 292.0 129.7 L 292.0 120.45 L 306.75 120.45 L 306.75 122.7 L 297.0 129.7 L 292.0 129.7 Z"/>
			<path fill="#EEEEEE" stroke-linecap="round" stroke-linejoin="round" d="M 272.15 113.8 L 306.75 113.8 L 306.75 116.55 L 272.15 116.55 L 272.15 113.8 Z"/>
			<path fill="#8F9746" stroke-linecap="round" stroke-linejoin="round" d="M 359.1 68.3 L 376.45 68.3 L 377.35 68.6 L 377.9 69.4 L 377.85 70.4 L 375.1 77.15 L 374.55 77.8 L 373.7 78.05 L 366.85 78.05 L 366.85 91.55 L 376.2 99.85 L 376.6 100.35 L 376.7 100.95 L 376.7 115.05 L 376.6 115.65 L 366.1 140.8 L 365.55 141.45 L 364.7 141.7 L 345.7 141.7 L 344.9 141.45 L 344.35 140.8 L 333.85 115.65 C 333.75 115.45 333.7 115.25 333.7 115.05 L 333.7 100.95 C 333.7 100.71667 333.75 100.51667 333.85 100.35 C 333.9167 100.15 334.03336 99.98334 334.2 99.85 L 343.55 91.55 L 343.55 78.05 L 336.7 78.05 L 335.9 77.8 L 335.3 77.15 L 332.55 70.4 C 332.41666 70.066666 332.4 69.73333 332.5 69.4 C 332.6 69.066666 332.78333 68.799995 333.05 68.6 C 333.31668 68.4 333.6167 68.3 333.95 68.3 L 351.3 68.3 L 351.3 69.8 L 333.95 69.8 L 336.7 76.55 L 345.05 76.55 L 345.05 92.2 L 335.2 100.95 L 335.2 115.05 L 345.7 140.2 L 364.7 140.2 L 375.2 115.05 L 375.2 100.95 L 365.35 92.2 L 365.35 76.55 L 373.7 76.55 L 376.45 69.8 L 359.1 69.8 L 359.1 68.3 Z"/>
			<path fill="#C4C4C4" stroke-linecap="round" stroke-linejoin="round" d="M 351.3 68.3 L 359.1 68.3 L 359.1 69.8 L 351.3 69.8 L 351.3 68.3 Z"/>
			<path fill="#AEB762" stroke-linecap="round" stroke-linejoin="round" d="M 359.1 69.8 L 376.45 69.8 L 373.7 76.55 L 365.35 76.55 L 365.35 92.2 L 375.2 100.95 L 375.2 115.05 L 364.7 140.2 L 345.7 140.2 L 335.2 115.05 L 335.2 100.95 L 345.05 92.2 L 345.05 76.55 L 336.7 76.55 L 333.95 69.8 L 351.3 69.8 L 351.3 106.05 L 346.55 114.2 L 344.15 114.2 L 344.15 115.95 L 344.15 117.7 L 355.2 121.95 L 366.25 117.7 L 366.25 115.95 L 366.25 114.2 L 363.85 114.2 L 359.1 106.05 L 359.1 69.8 Z"/>
			<path fill="#4A3C55" stroke-linecap="round" stroke-linejoin="round" d="M 344.15 115.95 L 344.15 114.2 L 346.55 114.2 L 363.85 114.2 L 366.25 114.2 L 366.25 115.95 L 355.2 120.2 L 344.15 115.95 Z"/>
			<path fill="#EEEEEE" stroke-linecap="round" stroke-linejoin="round" d="M 346.55 114.2 L 351.3 106.05 L 351.3 69.8 L 359.1 69.8 L 359.1 106.05 L 363.85 114.2 L 346.55 114.2 Z"/>
			<path fill="#544763" stroke-linecap="round" stroke-linejoin="round" d="M 366.25 115.95 L 366.25 117.7 L 355.2 121.95 L 344.15 117.7 L 344.15 115.95 L 355.2 120.2 L 366.25 115.95 Z"/>
			<path fill="#8F9746" stroke-linecap="round" stroke-linejoin="round" d="M 94.0 85.8 C 94.36667 85.8 94.683334 85.91667 94.95 86.15 L 102.85 92.5 L 103.25 93.0 L 103.4 93.65 L 103.4 108.0 L 103.25 108.7 L 95.95 123.45 L 95.4 124.05 L 94.6 124.25 L 73.45 124.25 L 72.65 124.05 L 72.1 123.45 L 64.75 108.7 L 64.6 108.0 L 64.6 93.65 C 64.6 93.41667 64.65 93.200005 64.75 93.0 L 65.15 92.5 L 73.05 86.15 C 73.316666 85.91667 73.63333 85.8 74.0 85.8 L 74.0 87.3 L 66.1 93.65 L 66.1 108.0 L 73.45 122.75 L 94.6 122.75 L 101.9 108.0 L 101.9 93.65 L 94.0 87.3 L 94.0 85.8 Z"/>
			<path fill="#C4C4C4" stroke-linecap="round" stroke-linejoin="round" d="M 74.0 85.8 L 94.0 85.8 L 94.0 87.3 L 74.0 87.3 L 74.0 85.8 Z"/>
			<path fill="#AEB762" stroke-linecap="round" stroke-linejoin="round" d="M 94.0 87.3 L 101.9 93.65 L 101.9 108.0 L 94.6 122.75 L 90.35 119.95 L 77.7 119.95 L 73.45 122.75 L 66.1 108.0 L 66.1 93.65 L 74.0 87.3 L 74.0 112.2 L 74.0 112.3 C 74.0 113.333336 74.36667 114.200005 75.1 114.9 C 75.8 115.63333 76.66667 116.0 77.7 116.0 L 90.35 116.0 C 91.38333 116.0 92.25 115.63333 92.95 114.9 C 93.65 114.2 94.0 113.33333 94.0 112.3 L 94.0 112.1 L 94.0 87.3 Z"/>
			<path fill="#9AA34B" stroke-linecap="round" stroke-linejoin="round" d="M 94.6 122.75 L 73.45 122.75 L 77.7 119.95 L 90.35 119.95 L 94.6 122.75 Z"/>
			<path fill="#4A3C55" stroke-linecap="round" stroke-linejoin="round" d="M 74.0 112.3 L 74.0 112.2 C 74.03333 111.23333 74.4 110.399994 75.1 109.7 C 75.8 108.96667 76.66667 108.6 77.7 108.6 L 90.35 108.6 C 91.38333 108.6 92.25 108.96667 92.95 109.7 C 93.61666 110.36666 93.96666 111.166664 94.0 112.1 L 94.0 112.3 C 94.0 113.333336 93.65 114.200005 92.95 114.9 C 92.25 115.63333 91.38333 116.0 90.35 116.0 L 77.7 116.0 C 76.666664 116.0 75.799995 115.63333 75.1 114.9 C 74.36667 114.2 74.0 113.33333 74.0 112.3 Z"/>
			<path fill="#EEEEEE" stroke-linecap="round" stroke-linejoin="round" d="M 94.0 112.1 C 93.96667 111.166664 93.61667 110.36666 92.95 109.7 C 92.25 108.96667 91.38333 108.6 90.35 108.6 L 77.7 108.6 C 76.666664 108.6 75.799995 108.96667 75.1 109.7 C 74.4 110.4 74.03333 111.23334 74.0 112.2 L 74.0 87.3 L 94.0 87.3 L 94.0 112.1 Z"/>
			<path fill="#FFCC00" stroke-linecap="round" stroke-linejoin="round" d="M 94.0 357.3 L 101.9 363.65 L 101.9 378.0 L 94.6 392.75 L 90.35 389.95 L 77.7 389.95 L 73.45 392.75 L 66.1 378.0 L 66.1 363.65 L 74.0 357.3 L 74.0 382.2 L 74.0 382.3 C 74.0 383.33334 74.36667 384.2 75.1 384.9 C 75.8 385.63333 76.66667 386.0 77.7 386.0 L 90.35 386.0 C 91.38333 386.0 92.25 385.63333 92.95 384.9 C 93.65 384.2 94.0 383.33334 94.0 382.3 L 94.0 382.1 L 94.0 357.3 Z"/>
			<path fill="#E3B602" stroke-linecap="round" stroke-linejoin="round" d="M 101.9 363.65 L 94.0 357.3 L 94.0 355.8 C 94.36667 355.8 94.683334 355.91666 94.95 356.15 L 102.85 362.5 L 103.25 363.0 L 103.4 363.65 L 103.4 378.0 L 103.25 378.7 L 95.95 393.45 L 95.4 394.05 L 94.6 394.25 L 73.45 394.25 L 72.65 394.05 L 72.1 393.45 L 64.75 378.7 L 64.6 378.0 L 64.6 363.65 C 64.6 363.41666 64.65 363.19998 64.75 363.0 L 65.15 362.5 L 73.05 356.15 C 73.316666 355.91666 73.63333 355.8 74.0 355.8 L 74.0 357.3 L 66.1 363.65 L 66.1 378.0 L 73.45 392.75 L 77.7 389.95 L 90.35 389.95 L 94.6 392.75 L 101.9 378.0 L 101.9 363.65 Z"/>
			<path fill="#C4C4C4" stroke-linecap="round" stroke-linejoin="round" d="M 74.0 357.3 L 74.0 355.8 L 94.0 355.8 L 94.0 357.3 L 74.0 357.3 Z"/>
			<path fill="#EEEEEE" stroke-linecap="round" stroke-linejoin="round" d="M 94.0 357.3 L 94.0 382.1 C 93.96667 381.1667 93.61667 380.3667 92.95 379.7 C 92.25 378.96667 91.38333 378.6 90.35 378.6 L 77.7 378.6 C 76.666664 378.6 75.799995 378.96667 75.1 379.7 C 74.4 380.4 74.03333 381.23334 74.0 382.2 L 74.0 357.3 L 94.0 357.3 Z"/>
			<path fill="#4A3C55" stroke-linecap="round" stroke-linejoin="round" d="M 94.0 382.1 L 94.0 382.3 C 94.0 383.33334 93.65 384.2 92.95 384.9 C 92.25 385.63333 91.38333 386.0 90.35 386.0 L 77.7 386.0 C 76.666664 386.0 75.799995 385.63333 75.1 384.9 C 74.36667 384.2 74.0 383.33334 74.0 382.3 L 74.0 382.2 C 74.03333 381.23334 74.4 380.4 75.1 379.7 C 75.8 378.96667 76.66667 378.6 77.7 378.6 L 90.35 378.6 C 91.38333 378.6 92.25 378.96667 92.95 379.7 C 93.61666 380.36667 93.96666 381.16666 94.0 382.1 Z"/>
			<path fill="#FFCC00" stroke-linecap="round" stroke-linejoin="round" d="M 152.0 349.2 L 156.1 349.2 L 163.35 363.45 L 152.5 400.85 L 137.2 400.85 L 126.35 363.45 L 133.6 349.2 L 137.7 349.2 L 137.7 363.45 L 133.7 363.45 L 133.7 371.35 L 133.7 373.1 L 140.2 396.35 L 149.5 396.35 L 156.0 373.1 L 156.0 371.35 L 156.0 363.45 L 152.0 363.45 L 152.0 349.2 Z M 143.1 349.2 L 146.6 349.2 L 146.6 363.45 L 143.1 363.45 L 143.1 349.2 Z"/>
			<path fill="#E3B602" stroke-linecap="round" stroke-linejoin="round" d="M 156.1 349.2 L 152.0 349.2 L 152.0 347.7 L 156.1 347.7 L 156.9 347.95 L 157.45 348.55 L 164.7 362.8 C 164.86667 363.13333 164.90001 363.5 164.8 363.9 L 153.95 401.3 L 153.4 402.05 L 152.5 402.35 L 137.2 402.35 C 136.86667 402.35 136.56667 402.25 136.3 402.05 L 135.75 401.3 L 124.9 363.9 C 124.8 363.5 124.850006 363.13333 125.05 362.8 L 132.3 348.55 L 132.85 347.95 C 133.08333 347.78336 133.33333 347.7 133.6 347.7 L 137.7 347.7 L 137.7 349.2 L 133.6 349.2 L 126.35 363.45 L 137.2 400.85 L 152.5 400.85 L 163.35 363.45 L 156.1 349.2 Z M 143.1 349.2 L 143.1 347.7 L 146.6 347.7 L 146.6 349.2 L 143.1 349.2 Z"/>
			<path fill="#C4C4C4" stroke-linecap="round" stroke-linejoin="round" d="M 137.7 349.2 L 137.7 347.7 L 143.1 347.7 L 143.1 349.2 L 137.7 349.2 Z M 152.0 347.7 L 152.0 349.2 L 146.6 349.2 L 146.6 347.7 L 152.0 347.7 Z"/>
			<path fill="#EEEEEE" stroke-linecap="round" stroke-linejoin="round" d="M 152.0 349.2 L 152.0 363.45 L 146.6 363.45 L 146.6 349.2 L 152.0 349.2 Z M 137.7 363.45 L 137.7 349.2 L 143.1 349.2 L 143.1 363.45 L 137.7 363.45 Z"/>
			<path fill="#4A3C55" stroke-linecap="round" stroke-linejoin="round" d="M 152.0 363.45 L 156.0 363.45 L 156.0 371.35 L 149.5 394.6 L 140.2 394.6 L 133.7 371.35 L 133.7 363.45 L 137.7 363.45 L 143.1 363.45 L 146.6 363.45 L 152.0 363.45 Z"/>
			<path fill="#544763" stroke-linecap="round" stroke-linejoin="round" d="M 156.0 371.35 L 156.0 373.1 L 149.5 396.35 L 140.2 396.35 L 133.7 373.1 L 133.7 371.35 L 140.2 394.6 L 149.5 394.6 L 156.0 371.35 Z"/>
			<path fill="#E3B602" stroke-linecap="round" stroke-linejoin="round" d="M 243.95 351.55 L 243.95 355.3 L 242.45 355.3 L 242.45 351.55 L 230.2 351.55 L 214.7 346.55 L 199.2 351.55 L 186.95 351.55 L 186.95 355.3 L 185.45 355.3 L 185.45 351.55 C 185.45 351.15 185.59999 350.8 185.9 350.5 C 186.2 350.19998 186.55 350.05 186.95 350.05 L 199.0 350.05 L 214.25 345.15 C 214.55 345.05 214.85 345.05 215.15 345.15 L 230.45 350.05 L 242.45 350.05 C 242.85 350.05 243.20001 350.19998 243.5 350.5 C 243.8 350.80002 243.95 351.15002 243.95 351.55 Z M 243.95 363.05 L 243.95 384.7 L 243.8 385.4 L 243.3 385.95 L 215.55 404.7 L 214.7 404.95 L 213.85 404.7 L 186.1 385.95 L 185.65 385.4 L 185.45 384.7 L 185.45 363.05 L 186.95 363.05 L 186.95 384.7 L 214.7 403.45 L 242.45 384.7 L 242.45 363.05 L 243.95 363.05 Z"/>
			<path fill="#C4C4C4" stroke-linecap="round" stroke-linejoin="round" d="M 185.45 355.3 L 186.95 355.3 L 186.95 363.05 L 185.45 363.05 L 185.45 355.3 Z M 242.45 355.3 L 243.95 355.3 L 243.95 363.05 L 242.45 363.05 L 242.45 355.3 Z"/>
			<path fill="#FFCC00" stroke-linecap="round" stroke-linejoin="round" d="M 186.95 355.3 L 186.95 351.55 L 199.2 351.55 L 214.7 346.55 L 230.2 351.55 L 242.45 351.55 L 242.45 355.3 L 234.6 355.3 L 228.45 365.9 L 200.95 365.9 L 194.8 355.3 L 186.95 355.3 Z M 186.95 363.05 L 189.45 363.05 L 193.3 370.9 L 236.1 370.9 L 239.95 363.05 L 242.45 363.05 L 242.45 384.7 L 214.7 403.45 L 186.95 384.7 L 186.95 363.05 Z M 234.0 382.2 L 234.0 380.45 L 234.0 376.95 L 195.4 376.95 L 195.4 380.45 L 195.4 382.2 L 200.95 386.1 L 228.45 386.1 L 234.0 382.2 Z"/>
			<path fill="#EEEEEE" stroke-linecap="round" stroke-linejoin="round" d="M 186.95 363.05 L 186.95 355.3 L 194.8 355.3 L 200.95 365.9 L 228.45 365.9 L 234.6 355.3 L 242.45 355.3 L 242.45 363.05 L 239.95 363.05 L 236.1 370.9 L 193.3 370.9 L 189.45 363.05 L 186.95 363.05 Z"/>
			<path fill="#544763" stroke-linecap="round" stroke-linejoin="round" d="M 234.0 380.45 L 234.0 382.2 L 228.45 386.1 L 200.95 386.1 L 195.4 382.2 L 195.4 380.45 L 200.95 384.35 L 228.45 384.35 L 234.0 380.45 Z"/>
			<path fill="#4A3C55" stroke-linecap="round" stroke-linejoin="round" d="M 195.4 380.45 L 195.4 376.95 L 234.0 376.95 L 234.0 380.45 L 228.45 384.35 L 200.95 384.35 L 195.4 380.45 Z"/>
			<path fill="#FFCC00" stroke-linecap="round" stroke-linejoin="round" d="M 299.1 348.2 L 299.1 370.8 L 310.95 382.65 L 310.95 400.45 L 304.95 406.45 L 273.95 406.45 L 267.95 400.45 L 267.95 382.65 L 279.8 370.8 L 279.8 348.2 L 289.45 343.55 L 299.1 348.2 Z M 286.9 399.7 L 286.9 390.45 L 272.15 390.45 L 272.15 392.7 L 272.15 394.45 L 281.9 401.45 L 286.9 401.45 L 286.9 399.7 Z M 306.75 383.8 L 272.15 383.8 L 272.15 386.55 L 306.75 386.55 L 306.75 383.8 Z M 292.0 399.7 L 292.0 401.45 L 297.0 401.45 L 306.75 394.45 L 306.75 392.7 L 306.75 390.45 L 292.0 390.45 L 292.0 399.7 Z"/>
			<path fill="#E3B602" stroke-linecap="round" stroke-linejoin="round" d="M 299.1 370.8 L 299.1 348.2 L 289.45 343.55 L 279.8 348.2 L 279.8 370.8 L 267.95 382.65 L 267.95 400.45 L 273.95 406.45 L 304.95 406.45 L 310.95 400.45 L 310.95 382.65 L 299.1 370.8 Z M 300.6 348.2 L 300.6 370.2 L 312.0 381.6 C 312.30002 381.9 312.45 382.25 312.45 382.65 L 312.45 400.45 L 312.0 401.5 L 306.0 407.5 L 304.95 407.95 L 273.95 407.95 C 273.55002 407.95 273.2 407.80002 272.9 407.5 L 266.9 401.5 C 266.6 401.19998 266.45 400.84998 266.45 400.45 L 266.45 382.65 C 266.45 382.25 266.6 381.9 266.9 381.6 L 278.3 370.2 L 278.3 348.2 C 278.3 347.9 278.38333 347.63333 278.55 347.4 L 279.15 346.85 L 288.8 342.2 L 289.45 342.05 L 290.1 342.2 L 299.75 346.85 L 300.4 347.4 L 300.6 348.2 Z"/>
			<path fill="#4A3C55" stroke-linecap="round" stroke-linejoin="round" d="M 286.9 390.45 L 286.9 399.7 L 281.9 399.7 L 272.15 392.7 L 272.15 390.45 L 286.9 390.45 Z M 306.75 392.7 L 297.0 399.7 L 292.0 399.7 L 292.0 390.45 L 306.75 390.45 L 306.75 392.7 Z"/>
			<path fill="#544763" stroke-linecap="round" stroke-linejoin="round" d="M 272.15 392.7 L 281.9 399.7 L 286.9 399.7 L 286.9 401.45 L 281.9 401.45 L 272.15 394.45 L 272.15 392.7 Z M 297.0 399.7 L 306.75 392.7 L 306.75 394.45 L 297.0 401.45 L 292.0 401.45 L 292.0 399.7 L 297.0 399.7 Z"/>
			<path fill="#EEEEEE" stroke-linecap="round" stroke-linejoin="round" d="M 272.15 383.8 L 306.75 383.8 L 306.75 386.55 L 272.15 386.55 L 272.15 383.8 Z"/>
			<path fill="#E3B602" stroke-linecap="round" stroke-linejoin="round" d="M 359.1 338.3 L 376.45 338.3 L 377.35 338.6 L 377.9 339.4 L 377.85 340.4 L 375.1 347.15 L 374.55 347.8 L 373.7 348.05 L 366.85 348.05 L 366.85 361.55 L 376.2 369.85 L 376.6 370.35 L 376.7 370.95 L 376.7 385.05 L 376.6 385.65 L 366.1 410.8 L 365.55 411.45 L 364.7 411.7 L 345.7 411.7 L 344.9 411.45 L 344.35 410.8 L 333.85 385.65 C 333.75 385.45 333.7 385.25 333.7 385.05 L 333.7 370.95 C 333.7 370.71667 333.75 370.51666 333.85 370.35 C 333.9167 370.15 334.03336 369.98334 334.2 369.85 L 343.55 361.55 L 343.55 348.05 L 336.7 348.05 L 335.9 347.8 L 335.3 347.15 L 332.55 340.4 C 332.41666 340.06665 332.4 339.7333 332.5 339.4 C 332.6 339.06665 332.78333 338.8 333.05 338.6 C 333.31668 338.4 333.6167 338.3 333.95 338.3 L 351.3 338.3 L 351.3 339.8 L 333.95 339.8 L 336.7 346.55 L 345.05 346.55 L 345.05 362.2 L 335.2 370.95 L 335.2 385.05 L 345.7 410.2 L 364.7 410.2 L 375.2 385.05 L 375.2 370.95 L 365.35 362.2 L 365.35 346.55 L 373.7 346.55 L 376.45 339.8 L 359.1 339.8 L 359.1 338.3 Z"/>
			<path fill="#C4C4C4" stroke-linecap="round" stroke-linejoin="round" d="M 351.3 338.3 L 359.1 338.3 L 359.1 339.8 L 351.3 339.8 L 351.3 338.3 Z"/>
			<path fill="#FFCC00" stroke-linecap="round" stroke-linejoin="round" d="M 359.1 339.8 L 376.45 339.8 L 373.7 346.55 L 365.35 346.55 L 365.35 362.2 L 375.2 370.95 L 375.2 385.05 L 364.7 410.2 L 345.7 410.2 L 335.2 385.05 L 335.2 370.95 L 345.05 362.2 L 345.05 346.55 L 336.7 346.55 L 333.95 339.8 L 351.3 339.8 L 351.3 376.05 L 346.55 384.2 L 344.15 384.2 L 344.15 385.95 L 344.15 387.7 L 355.2 391.95 L 366.25 387.7 L 366.25 385.95 L 366.25 384.2 L 363.85 384.2 L 359.1 376.05 L 359.1 339.8 Z"/>
			<path fill="#EEEEEE" stroke-linecap="round" stroke-linejoin="round" d="M 351.3 339.8 L 359.1 339.8 L 359.1 376.05 L 363.85 384.2 L 346.55 384.2 L 351.3 376.05 L 351.3 339.8 Z"/>
			<path fill="#4A3C55" stroke-linecap="round" stroke-linejoin="round" d="M 363.85 384.2 L 366.25 384.2 L 366.25 385.95 L 355.2 390.2 L 344.15 385.95 L 344.15 384.2 L 346.55 384.2 L 363.85 384.2 Z"/>
			<path fill="#544763" stroke-linecap="round" stroke-linejoin="round" d="M 366.25 385.95 L 366.25 387.7 L 355.2 391.95 L 344.15 387.7 L 344.15 385.95 L 355.2 390.2 L 366.25 385.95 Z"/>
			<path fill="#698585" stroke-linecap="round" stroke-linejoin="round" d="M 359.1 248.3 L 376.45 248.3 L 377.35 248.6 L 377.9 249.4 L 377.85 250.4 L 375.1 257.15 L 374.55 257.8 L 373.7 258.05 L 366.85 258.05 L 366.85 271.55 L 376.2 279.85 L 376.6 280.35 L 376.7 280.95 L 376.7 295.05 L 376.6 295.65 L 366.1 320.8 L 365.55 321.45 L 364.7 321.7 L 345.7 321.7 L 344.9 321.45 L 344.35 320.8 L 333.85 295.65 C 333.75 295.45 333.7 295.25 333.7 295.05 L 333.7 280.95 C 333.7 280.71667 333.75 280.51666 333.85 280.35 C 333.9167 280.15 334.03336 279.98334 334.2 279.85 L 343.55 271.55 L 343.55 258.05 L 336.7 258.05 L 335.9 257.8 L 335.3 257.15 L 332.55 250.4 C 332.41666 250.06667 332.4 249.73334 332.5 249.4 C 332.6 249.06667 332.78333 248.8 333.05 248.6 C 333.31668 248.40001 333.6167 248.3 333.95 248.3 L 351.3 248.3 L 351.3 249.8 L 333.95 249.8 L 336.7 256.55 L 345.05 256.55 L 345.05 272.2 L 335.2 280.95 L 335.2 295.05 L 345.7 320.2 L 364.7 320.2 L 375.2 295.05 L 375.2 280.95 L 365.35 272.2 L 365.35 256.55 L 373.7 256.55 L 376.45 249.8 L 359.1 249.8 L 359.1 248.3 Z"/>
			<path fill="#C4C4C4" stroke-linecap="round" stroke-linejoin="round" d="M 351.3 248.3 L 359.1 248.3 L 359.1 249.8 L 351.3 249.8 L 351.3 248.3 Z"/>
			<path fill="#7E989A" stroke-linecap="round" stroke-linejoin="round" d="M 359.1 249.8 L 376.45 249.8 L 373.7 256.55 L 365.35 256.55 L 365.35 272.2 L 375.2 280.95 L 375.2 295.05 L 364.7 320.2 L 345.7 320.2 L 335.2 295.05 L 335.2 280.95 L 345.05 272.2 L 345.05 256.55 L 336.7 256.55 L 333.95 249.8 L 351.3 249.8 L 351.3 286.05 L 346.55 294.2 L 344.15 294.2 L 344.15 295.95 L 344.15 297.7 L 355.2 301.95 L 366.25 297.7 L 366.25 295.95 L 366.25 294.2 L 363.85 294.2 L 359.1 286.05 L 359.1 249.8 Z"/>
			<path fill="#EEEEEE" stroke-linecap="round" stroke-linejoin="round" d="M 351.3 249.8 L 359.1 249.8 L 359.1 286.05 L 363.85 294.2 L 346.55 294.2 L 351.3 286.05 L 351.3 249.8 Z"/>
			<path fill="#4A3C55" stroke-linecap="round" stroke-linejoin="round" d="M 363.85 294.2 L 366.25 294.2 L 366.25 295.95 L 355.2 300.2 L 344.15 295.95 L 344.15 294.2 L 346.55 294.2 L 363.85 294.2 Z"/>
			<path fill="#544763" stroke-linecap="round" stroke-linejoin="round" d="M 366.25 295.95 L 366.25 297.7 L 355.2 301.95 L 344.15 297.7 L 344.15 295.95 L 355.2 300.2 L 366.25 295.95 Z"/>
			<path fill="#698585" stroke-linecap="round" stroke-linejoin="round" d="M 290.1 252.2 L 299.75 256.85 L 300.4 257.4 L 300.6 258.2 L 300.6 280.2 L 312.0 291.6 C 312.30002 291.9 312.45 292.25 312.45 292.65 L 312.45 310.45 L 312.0 311.5 L 306.0 317.5 L 304.95 317.95 L 273.95 317.95 C 273.55002 317.95 273.2 317.80002 272.9 317.5 L 266.9 311.5 C 266.6 311.19998 266.45 310.84998 266.45 310.45 L 266.45 292.65 C 266.45 292.25 266.6 291.9 266.9 291.6 L 278.3 280.2 L 278.3 258.2 C 278.3 257.9 278.38333 257.63333 278.55 257.4 L 279.15 256.85 L 288.8 252.2 L 289.45 252.05 L 290.1 252.2 Z M 279.8 258.2 L 279.8 280.8 L 267.95 292.65 L 267.95 310.45 L 273.95 316.45 L 304.95 316.45 L 310.95 310.45 L 310.95 292.65 L 299.1 280.8 L 299.1 258.2 L 289.45 253.55 L 279.8 258.2 Z"/>
			<path fill="#7E989A" stroke-linecap="round" stroke-linejoin="round" d="M 279.8 280.8 L 279.8 258.2 L 289.45 253.55 L 299.1 258.2 L 299.1 280.8 L 310.95 292.65 L 310.95 310.45 L 304.95 316.45 L 273.95 316.45 L 267.95 310.45 L 267.95 292.65 L 279.8 280.8 Z M 306.75 293.8 L 272.15 293.8 L 272.15 296.55 L 306.75 296.55 L 306.75 293.8 Z M 292.0 300.45 L 292.0 309.7 L 292.0 311.45 L 297.0 311.45 L 306.75 304.45 L 306.75 302.7 L 306.75 300.45 L 292.0 300.45 Z M 286.9 309.7 L 286.9 300.45 L 272.15 300.45 L 272.15 302.7 L 272.15 304.45 L 281.9 311.45 L 286.9 311.45 L 286.9 309.7 Z"/>
			<path fill="#EEEEEE" stroke-linecap="round" stroke-linejoin="round" d="M 272.15 293.8 L 306.75 293.8 L 306.75 296.55 L 272.15 296.55 L 272.15 293.8 Z"/>
			<path fill="#4A3C55" stroke-linecap="round" stroke-linejoin="round" d="M 292.0 309.7 L 292.0 300.45 L 306.75 300.45 L 306.75 302.7 L 297.0 309.7 L 292.0 309.7 Z M 286.9 300.45 L 286.9 309.7 L 281.9 309.7 L 272.15 302.7 L 272.15 300.45 L 286.9 300.45 Z"/>
			<path fill="#544763" stroke-linecap="round" stroke-linejoin="round" d="M 306.75 302.7 L 306.75 304.45 L 297.0 311.45 L 292.0 311.45 L 292.0 309.7 L 297.0 309.7 L 306.75 302.7 Z M 272.15 302.7 L 281.9 309.7 L 286.9 309.7 L 286.9 311.45 L 281.9 311.45 L 272.15 304.45 L 272.15 302.7 Z"/>
			<path fill="#698585" stroke-linecap="round" stroke-linejoin="round" d="M 185.45 294.7 L 185.45 273.05 L 186.95 273.05 L 186.95 294.7 L 214.7 313.45 L 242.45 294.7 L 242.45 273.05 L 243.95 273.05 L 243.95 294.7 L 243.8 295.4 L 243.3 295.95 L 215.55 314.7 L 214.7 314.95 L 213.85 314.7 L 186.1 295.95 L 185.65 295.4 L 185.45 294.7 Z M 185.45 265.3 L 185.45 261.55 C 185.45 261.15 185.59999 260.8 185.9 260.5 C 186.2 260.19998 186.55 260.05 186.95 260.05 L 199.0 260.05 L 214.25 255.15 C 214.55 255.05 214.85 255.05 215.15 255.15 L 230.45 260.05 L 242.45 260.05 C 242.85 260.05 243.20001 260.19998 243.5 260.5 C 243.8 260.80002 243.95 261.15002 243.95 261.55 L 243.95 265.3 L 242.45 265.3 L 242.45 261.55 L 230.2 261.55 L 214.7 256.55 L 199.2 261.55 L 186.95 261.55 L 186.95 265.3 L 185.45 265.3 Z"/>
			<path fill="#C4C4C4" stroke-linecap="round" stroke-linejoin="round" d="M 243.95 273.05 L 242.45 273.05 L 242.45 265.3 L 243.95 265.3 L 243.95 273.05 Z M 186.95 273.05 L 185.45 273.05 L 185.45 265.3 L 186.95 265.3 L 186.95 273.05 Z"/>
			<path fill="#7E989A" stroke-linecap="round" stroke-linejoin="round" d="M 242.45 273.05 L 242.45 294.7 L 214.7 313.45 L 186.95 294.7 L 186.95 273.05 L 189.45 273.05 L 193.3 280.9 L 236.1 280.9 L 239.95 273.05 L 242.45 273.05 Z M 242.45 265.3 L 234.6 265.3 L 228.45 275.9 L 200.95 275.9 L 194.8 265.3 L 186.95 265.3 L 186.95 261.55 L 199.2 261.55 L 214.7 256.55 L 230.2 261.55 L 242.45 261.55 L 242.45 265.3 Z M 234.0 292.2 L 234.0 290.45 L 234.0 286.95 L 195.4 286.95 L 195.4 290.45 L 195.4 292.2 L 200.95 296.1 L 228.45 296.1 L 234.0 292.2 Z"/>
			<path fill="#EEEEEE" stroke-linecap="round" stroke-linejoin="round" d="M 186.95 273.05 L 186.95 265.3 L 194.8 265.3 L 200.95 275.9 L 228.45 275.9 L 234.6 265.3 L 242.45 265.3 L 242.45 273.05 L 239.95 273.05 L 236.1 280.9 L 193.3 280.9 L 189.45 273.05 L 186.95 273.05 Z"/>
			<path fill="#544763" stroke-linecap="round" stroke-linejoin="round" d="M 234.0 290.45 L 234.0 292.2 L 228.45 296.1 L 200.95 296.1 L 195.4 292.2 L 195.4 290.45 L 200.95 294.35 L 228.45 294.35 L 234.0 290.45 Z"/>
			<path fill="#4A3C55" stroke-linecap="round" stroke-linejoin="round" d="M 195.4 290.45 L 195.4 286.95 L 234.0 286.95 L 234.0 290.45 L 228.45 294.35 L 200.95 294.35 L 195.4 290.45 Z"/>
			<path fill="#7E989A" stroke-linecap="round" stroke-linejoin="round" d="M 152.0 259.2 L 156.1 259.2 L 163.35 273.45 L 152.5 310.85 L 137.2 310.85 L 126.35 273.45 L 133.6 259.2 L 137.7 259.2 L 137.7 273.45 L 133.7 273.45 L 133.7 281.35 L 133.7 283.1 L 140.2 306.35 L 149.5 306.35 L 156.0 283.1 L 156.0 281.35 L 156.0 273.45 L 152.0 273.45 L 152.0 259.2 Z M 143.1 259.2 L 146.6 259.2 L 146.6 273.45 L 143.1 273.45 L 143.1 259.2 Z"/>
			<path fill="#698585" stroke-linecap="round" stroke-linejoin="round" d="M 156.1 259.2 L 152.0 259.2 L 152.0 257.7 L 156.1 257.7 L 156.9 257.95 L 157.45 258.55 L 164.7 272.8 C 164.86667 273.13333 164.90001 273.5 164.8 273.9 L 153.95 311.3 L 153.4 312.05 L 152.5 312.35 L 137.2 312.35 C 136.86667 312.35 136.56667 312.25 136.3 312.05 L 135.75 311.3 L 124.9 273.9 C 124.8 273.5 124.850006 273.13333 125.05 272.8 L 132.3 258.55 L 132.85 257.95 C 133.08333 257.78336 133.33333 257.7 133.6 257.7 L 137.7 257.7 L 137.7 259.2 L 133.6 259.2 L 126.35 273.45 L 137.2 310.85 L 152.5 310.85 L 163.35 273.45 L 156.1 259.2 Z M 143.1 259.2 L 143.1 257.7 L 146.6 257.7 L 146.6 259.2 L 143.1 259.2 Z"/>
			<path fill="#C4C4C4" stroke-linecap="round" stroke-linejoin="round" d="M 137.7 259.2 L 137.7 257.7 L 143.1 257.7 L 143.1 259.2 L 137.7 259.2 Z M 152.0 257.7 L 152.0 259.2 L 146.6 259.2 L 146.6 257.7 L 152.0 257.7 Z"/>
			<path fill="#EEEEEE" stroke-linecap="round" stroke-linejoin="round" d="M 152.0 259.2 L 152.0 273.45 L 146.6 273.45 L 146.6 259.2 L 152.0 259.2 Z M 137.7 273.45 L 137.7 259.2 L 143.1 259.2 L 143.1 273.45 L 137.7 273.45 Z"/>
			<path fill="#4A3C55" stroke-linecap="round" stroke-linejoin="round" d="M 152.0 273.45 L 156.0 273.45 L 156.0 281.35 L 149.5 304.6 L 140.2 304.6 L 133.7 281.35 L 133.7 273.45 L 137.7 273.45 L 143.1 273.45 L 146.6 273.45 L 152.0 273.45 Z"/>
			<path fill="#544763" stroke-linecap="round" stroke-linejoin="round" d="M 156.0 281.35 L 156.0 283.1 L 149.5 306.35 L 140.2 306.35 L 133.7 283.1 L 133.7 281.35 L 140.2 304.6 L 149.5 304.6 L 156.0 281.35 Z"/>
			<path fill="#698585" stroke-linecap="round" stroke-linejoin="round" d="M 94.0 265.8 C 94.36667 265.8 94.683334 265.91666 94.95 266.15 L 102.85 272.5 L 103.25 273.0 L 103.4 273.65 L 103.4 288.0 L 103.25 288.7 L 95.95 303.45 L 95.4 304.05 L 94.6 304.25 L 73.45 304.25 L 72.65 304.05 L 72.1 303.45 L 64.75 288.7 L 64.6 288.0 L 64.6 273.65 C 64.6 273.41666 64.65 273.19998 64.75 273.0 L 65.15 272.5 L 73.05 266.15 C 73.316666 265.91666 73.63333 265.8 74.0 265.8 L 74.0 267.3 L 66.1 273.65 L 66.1 288.0 L 73.45 302.75 L 77.7 299.95 L 90.35 299.95 L 94.6 302.75 L 101.9 288.0 L 101.9 273.65 L 94.0 267.3 L 94.0 265.8 Z"/>
			<path fill="#C4C4C4" stroke-linecap="round" stroke-linejoin="round" d="M 74.0 265.8 L 94.0 265.8 L 94.0 267.3 L 74.0 267.3 L 74.0 265.8 Z"/>
			<path fill="#7E989A" stroke-linecap="round" stroke-linejoin="round" d="M 94.0 267.3 L 101.9 273.65 L 101.9 288.0 L 94.6 302.75 L 90.35 299.95 L 77.7 299.95 L 73.45 302.75 L 66.1 288.0 L 66.1 273.65 L 74.0 267.3 L 74.0 292.2 L 74.0 292.3 C 74.0 293.33334 74.36667 294.2 75.1 294.9 C 75.8 295.63333 76.66667 296.0 77.7 296.0 L 90.35 296.0 C 91.38333 296.0 92.25 295.63333 92.95 294.9 C 93.65 294.2 94.0 293.33334 94.0 292.3 L 94.0 292.1 L 94.0 267.3 Z"/>
			<path fill="#EEEEEE" stroke-linecap="round" stroke-linejoin="round" d="M 94.0 292.1 C 93.96667 291.1667 93.61667 290.3667 92.95 289.7 C 92.25 288.96667 91.38333 288.6 90.35 288.6 L 77.7 288.6 C 76.666664 288.6 75.799995 288.96667 75.1 289.7 C 74.4 290.4 74.03333 291.23334 74.0 292.2 L 74.0 267.3 L 94.0 267.3 L 94.0 292.1 Z"/>
			<path fill="#4A3C55" stroke-linecap="round" stroke-linejoin="round" d="M 92.95 289.7 C 93.61666 290.36667 93.96666 291.16666 94.0 292.1 L 94.0 292.3 C 94.0 293.33334 93.65 294.2 92.95 294.9 C 92.25 295.63333 91.38333 296.0 90.35 296.0 L 77.7 296.0 C 76.666664 296.0 75.799995 295.63333 75.1 294.9 C 74.36667 294.2 74.0 293.33334 74.0 292.3 L 74.0 292.2 C 74.03333 291.23334 74.4 290.4 75.1 289.7 C 75.8 288.96667 76.66667 288.6 77.7 288.6 L 90.35 288.6 C 91.38333 288.6 92.25 288.96667 92.95 289.7 Z"/>
			<path fill="#C4C4C4" stroke-linecap="round" stroke-linejoin="round" d="M 74.0 177.3 L 74.0 175.8 L 94.0 175.8 L 94.0 177.3 L 74.0 177.3 Z"/>
			<path fill="#933131" stroke-linecap="round" stroke-linejoin="round" d="M 74.0 175.8 L 74.0 177.3 L 66.1 183.65 L 66.1 198.0 L 73.45 212.75 L 77.7 209.95 L 90.35 209.95 L 94.6 212.75 L 101.9 198.0 L 101.9 183.65 L 94.0 177.3 L 94.0 175.8 C 94.36667 175.8 94.683334 175.91667 94.95 176.15 L 102.85 182.5 L 103.25 183.0 L 103.4 183.65 L 103.4 198.0 L 103.25 198.7 L 95.95 213.45 L 95.4 214.05 L 94.6 214.25 L 73.45 214.25 L 72.65 214.05 L 72.1 213.45 L 64.75 198.7 L 64.6 198.0 L 64.6 183.65 C 64.6 183.41667 64.65 183.20001 64.75 183.0 L 65.15 182.5 L 73.05 176.15 C 73.316666 175.91667 73.63333 175.8 74.0 175.8 Z"/>
			<path fill="#AC3939" stroke-linecap="round" stroke-linejoin="round" d="M 94.0 177.3 L 101.9 183.65 L 101.9 198.0 L 94.6 212.75 L 90.35 209.95 L 77.7 209.95 L 73.45 212.75 L 66.1 198.0 L 66.1 183.65 L 74.0 177.3 L 74.0 202.2 L 74.0 202.3 C 74.0 203.33334 74.36667 204.20001 75.1 204.9 C 75.8 205.63333 76.66667 206.0 77.7 206.0 L 90.35 206.0 C 91.38333 206.0 92.25 205.63333 92.95 204.9 C 93.65 204.2 94.0 203.33333 94.0 202.3 L 94.0 202.1 L 94.0 177.3 Z"/>
			<path fill="#EEEEEE" stroke-linecap="round" stroke-linejoin="round" d="M 74.0 177.3 L 94.0 177.3 L 94.0 202.1 C 93.96667 201.16667 93.61667 200.36667 92.95 199.7 C 92.25 198.96667 91.38333 198.6 90.35 198.6 L 77.7 198.6 C 76.666664 198.6 75.799995 198.96667 75.1 199.7 C 74.4 200.4 74.03333 201.23332 74.0 202.2 L 74.0 177.3 Z"/>
			<path fill="#4A3C55" stroke-linecap="round" stroke-linejoin="round" d="M 94.0 202.1 L 94.0 202.3 C 94.0 203.33334 93.65 204.20001 92.95 204.9 C 92.25 205.63333 91.38333 206.0 90.35 206.0 L 77.7 206.0 C 76.666664 206.0 75.799995 205.63333 75.1 204.9 C 74.36667 204.2 74.0 203.33333 74.0 202.3 L 74.0 202.2 C 74.03333 201.23334 74.4 200.40001 75.1 199.7 C 75.8 198.96667 76.66667 198.6 77.7 198.6 L 90.35 198.6 C 91.38333 198.6 92.25 198.96667 92.95 199.7 C 93.61666 200.36667 93.96666 201.16667 94.0 202.1 Z"/>
			<path fill="#933131" stroke-linecap="round" stroke-linejoin="round" d="M 152.0 167.7 L 156.1 167.7 L 156.9 167.95 L 157.45 168.55 L 164.7 182.8 C 164.86667 183.13333 164.90001 183.5 164.8 183.9 L 153.95 221.3 L 153.4 222.05 L 152.5 222.35 L 137.2 222.35 C 136.86667 222.35 136.56667 222.25 136.3 222.05 L 135.75 221.3 L 124.9 183.9 C 124.8 183.5 124.850006 183.13333 125.05 182.8 L 132.3 168.55 L 132.85 167.95 C 133.08333 167.78333 133.33333 167.7 133.6 167.7 L 137.7 167.7 L 137.7 169.2 L 133.6 169.2 L 126.35 183.45 L 137.2 220.85 L 152.5 220.85 L 163.35 183.45 L 156.1 169.2 L 152.0 169.2 L 152.0 167.7 Z M 143.1 167.7 L 146.6 167.7 L 146.6 169.2 L 143.1 169.2 L 143.1 167.7 Z"/>
			<path fill="#C4C4C4" stroke-linecap="round" stroke-linejoin="round" d="M 137.7 167.7 L 143.1 167.7 L 143.1 169.2 L 137.7 169.2 L 137.7 167.7 Z M 146.6 167.7 L 152.0 167.7 L 152.0 169.2 L 146.6 169.2 L 146.6 167.7 Z"/>
			<path fill="#AC3939" stroke-linecap="round" stroke-linejoin="round" d="M 152.0 169.2 L 156.1 169.2 L 163.35 183.45 L 152.5 220.85 L 137.2 220.85 L 126.35 183.45 L 133.6 169.2 L 137.7 169.2 L 137.7 183.45 L 133.7 183.45 L 133.7 191.35 L 133.7 193.1 L 140.2 216.35 L 149.5 216.35 L 156.0 193.1 L 156.0 191.35 L 156.0 183.45 L 152.0 183.45 L 152.0 169.2 Z M 143.1 169.2 L 146.6 169.2 L 146.6 183.45 L 143.1 183.45 L 143.1 169.2 Z"/>
			<path fill="#EEEEEE" stroke-linecap="round" stroke-linejoin="round" d="M 143.1 169.2 L 143.1 183.45 L 137.7 183.45 L 137.7 169.2 L 143.1 169.2 Z M 146.6 183.45 L 146.6 169.2 L 152.0 169.2 L 152.0 183.45 L 146.6 183.45 Z"/>
			<path fill="#4A3C55" stroke-linecap="round" stroke-linejoin="round" d="M 143.1 183.45 L 146.6 183.45 L 152.0 183.45 L 156.0 183.45 L 156.0 191.35 L 149.5 214.6 L 140.2 214.6 L 133.7 191.35 L 133.7 183.45 L 137.7 183.45 L 143.1 183.45 Z"/>
			<path fill="#544763" stroke-linecap="round" stroke-linejoin="round" d="M 156.0 191.35 L 156.0 193.1 L 149.5 216.35 L 140.2 216.35 L 133.7 193.1 L 133.7 191.35 L 140.2 214.6 L 149.5 214.6 L 156.0 191.35 Z"/>
			<path fill="#EEEEEE" stroke-linecap="round" stroke-linejoin="round" d="M 186.95 175.3 L 194.8 175.3 L 200.95 185.9 L 228.45 185.9 L 234.6 175.3 L 242.45 175.3 L 242.45 183.05 L 239.95 183.05 L 236.1 190.9 L 193.3 190.9 L 189.45 183.05 L 186.95 183.05 L 186.95 175.3 Z"/>
			<path fill="#AC3939" stroke-linecap="round" stroke-linejoin="round" d="M 194.8 175.3 L 186.95 175.3 L 186.95 171.55 L 199.2 171.55 L 214.7 166.55 L 230.2 171.55 L 242.45 171.55 L 242.45 175.3 L 234.6 175.3 L 228.45 185.9 L 200.95 185.9 L 194.8 175.3 Z M 186.95 183.05 L 189.45 183.05 L 193.3 190.9 L 236.1 190.9 L 239.95 183.05 L 242.45 183.05 L 242.45 204.7 L 214.7 223.45 L 186.95 204.7 L 186.95 183.05 Z M 234.0 202.2 L 234.0 200.45 L 234.0 196.95 L 195.4 196.95 L 195.4 200.45 L 195.4 202.2 L 200.95 206.1 L 228.45 206.1 L 234.0 202.2 Z"/>
			<path fill="#933131" stroke-linecap="round" stroke-linejoin="round" d="M 242.45 175.3 L 242.45 171.55 L 230.2 171.55 L 214.7 166.55 L 199.2 171.55 L 186.95 171.55 L 186.95 175.3 L 185.45 175.3 L 185.45 171.55 C 185.45 171.15 185.59999 170.79999 185.9 170.5 C 186.2 170.2 186.55 170.05 186.95 170.05 L 199.0 170.05 L 214.25 165.15 C 214.55 165.05 214.85 165.05 215.15 165.15 L 230.45 170.05 L 242.45 170.05 C 242.85 170.05 243.20001 170.2 243.5 170.5 C 243.8 170.8 243.95 171.15001 243.95 171.55 L 243.95 175.3 L 242.45 175.3 Z M 185.45 183.05 L 186.95 183.05 L 186.95 204.7 L 214.7 223.45 L 242.45 204.7 L 242.45 183.05 L 243.95 183.05 L 243.95 204.7 L 243.8 205.4 L 243.3 205.95 L 215.55 224.7 L 214.7 224.95 L 213.85 224.7 L 186.1 205.95 L 185.65 205.4 L 185.45 204.7 L 185.45 183.05 Z"/>
			<path fill="#C4C4C4" stroke-linecap="round" stroke-linejoin="round" d="M 186.95 175.3 L 186.95 183.05 L 185.45 183.05 L 185.45 175.3 L 186.95 175.3 Z M 242.45 183.05 L 242.45 175.3 L 243.95 175.3 L 243.95 183.05 L 242.45 183.05 Z"/>
			<path fill="#544763" stroke-linecap="round" stroke-linejoin="round" d="M 234.0 200.45 L 234.0 202.2 L 228.45 206.1 L 200.95 206.1 L 195.4 202.2 L 195.4 200.45 L 200.95 204.35 L 228.45 204.35 L 234.0 200.45 Z"/>
			<path fill="#4A3C55" stroke-linecap="round" stroke-linejoin="round" d="M 195.4 200.45 L 195.4 196.95 L 234.0 196.95 L 234.0 200.45 L 228.45 204.35 L 200.95 204.35 L 195.4 200.45 Z"/>
			<path fill="#AC3939" stroke-linecap="round" stroke-linejoin="round" d="M 279.8 190.8 L 279.8 168.2 L 289.45 163.55 L 299.1 168.2 L 299.1 190.8 L 310.95 202.65 L 310.95 220.45 L 304.95 226.45 L 273.95 226.45 L 267.95 220.45 L 267.95 202.65 L 279.8 190.8 Z M 292.0 210.45 L 292.0 219.7 L 292.0 221.45 L 297.0 221.45 L 306.75 214.45 L 306.75 212.7 L 306.75 210.45 L 292.0 210.45 Z M 272.15 206.55 L 306.75 206.55 L 306.75 203.8 L 272.15 203.8 L 272.15 206.55 Z M 272.15 212.7 L 272.15 214.45 L 281.9 221.45 L 286.9 221.45 L 286.9 219.7 L 286.9 210.45 L 272.15 210.45 L 272.15 212.7 Z"/>
			<path fill="#933131" stroke-linecap="round" stroke-linejoin="round" d="M 279.8 168.2 L 279.8 190.8 L 267.95 202.65 L 267.95 220.45 L 273.95 226.45 L 304.95 226.45 L 310.95 220.45 L 310.95 202.65 L 299.1 190.8 L 299.1 168.2 L 289.45 163.55 L 279.8 168.2 Z M 279.15 166.85 L 288.8 162.2 L 289.45 162.05 L 290.1 162.2 L 299.75 166.85 L 300.4 167.4 L 300.6 168.2 L 300.6 190.2 L 312.0 201.6 C 312.30002 201.90001 312.45 202.25 312.45 202.65 L 312.45 220.45 L 312.0 221.5 L 306.0 227.5 L 304.95 227.95 L 273.95 227.95 C 273.55002 227.95 273.2 227.8 272.9 227.5 L 266.9 221.5 C 266.6 221.2 266.45 220.84999 266.45 220.45 L 266.45 202.65 C 266.45 202.25 266.6 201.90001 266.9 201.6 L 278.3 190.2 L 278.3 168.2 C 278.3 167.9 278.38333 167.63333 278.55 167.4 L 279.15 166.85 Z"/>
			<path fill="#4A3C55" stroke-linecap="round" stroke-linejoin="round" d="M 292.0 219.7 L 292.0 210.45 L 306.75 210.45 L 306.75 212.7 L 297.0 219.7 L 292.0 219.7 Z M 286.9 219.7 L 281.9 219.7 L 272.15 212.7 L 272.15 210.45 L 286.9 210.45 L 286.9 219.7 Z"/>
			<path fill="#544763" stroke-linecap="round" stroke-linejoin="round" d="M 306.75 212.7 L 306.75 214.45 L 297.0 221.45 L 292.0 221.45 L 292.0 219.7 L 297.0 219.7 L 306.75 212.7 Z M 272.15 214.45 L 272.15 212.7 L 281.9 219.7 L 286.9 219.7 L 286.9 221.45 L 281.9 221.45 L 272.15 214.45 Z"/>
			<path fill="#EEEEEE" stroke-linecap="round" stroke-linejoin="round" d="M 306.75 206.55 L 272.15 206.55 L 272.15 203.8 L 306.75 203.8 L 306.75 206.55 Z"/>
			<path fill="#EEEEEE" stroke-linecap="round" stroke-linejoin="round" d="M 351.3 159.8 L 359.1 159.8 L 359.1 196.05 L 363.85 204.2 L 346.55 204.2 L 351.3 196.05 L 351.3 159.8 Z"/>
			<path fill="#C4C4C4" stroke-linecap="round" stroke-linejoin="round" d="M 359.1 159.8 L 351.3 159.8 L 351.3 158.3 L 359.1 158.3 L 359.1 159.8 Z"/>
			<path fill="#933131" stroke-linecap="round" stroke-linejoin="round" d="M 359.1 159.8 L 359.1 158.3 L 376.45 158.3 L 377.35 158.6 L 377.9 159.4 L 377.85 160.4 L 375.1 167.15 L 374.55 167.8 L 373.7 168.05 L 366.85 168.05 L 366.85 181.55 L 376.2 189.85 L 376.6 190.35 L 376.7 190.95 L 376.7 205.05 L 376.6 205.65 L 366.1 230.8 L 365.55 231.45 L 364.7 231.7 L 345.7 231.7 L 344.9 231.45 L 344.35 230.8 L 333.85 205.65 C 333.75 205.45 333.7 205.25 333.7 205.05 L 333.7 190.95 C 333.7 190.71667 333.75 190.51668 333.85 190.35 C 333.9167 190.15001 334.03336 189.98334 334.2 189.85 L 343.55 181.55 L 343.55 168.05 L 336.7 168.05 L 335.9 167.8 L 335.3 167.15 L 332.55 160.4 C 332.41666 160.06667 332.4 159.73334 332.5 159.4 C 332.6 159.06667 332.78333 158.8 333.05 158.6 C 333.31668 158.40001 333.6167 158.3 333.95 158.3 L 351.3 158.3 L 351.3 159.8 L 333.95 159.8 L 336.7 166.55 L 345.05 166.55 L 345.05 182.2 L 335.2 190.95 L 335.2 205.05 L 345.7 230.2 L 364.7 230.2 L 375.2 205.05 L 375.2 190.95 L 365.35 182.2 L 365.35 166.55 L 373.7 166.55 L 376.45 159.8 L 359.1 159.8 Z"/>
			<path fill="#AC3939" stroke-linecap="round" stroke-linejoin="round" d="M 351.3 159.8 L 351.3 196.05 L 346.55 204.2 L 344.15 204.2 L 344.15 205.95 L 344.15 207.7 L 355.2 211.95 L 366.25 207.7 L 366.25 205.95 L 366.25 204.2 L 363.85 204.2 L 359.1 196.05 L 359.1 159.8 L 376.45 159.8 L 373.7 166.55 L 365.35 166.55 L 365.35 182.2 L 375.2 190.95 L 375.2 205.05 L 364.7 230.2 L 345.7 230.2 L 335.2 205.05 L 335.2 190.95 L 345.05 182.2 L 345.05 166.55 L 336.7 166.55 L 333.95 159.8 L 351.3 159.8 Z"/>
			<path fill="#4A3C55" stroke-linecap="round" stroke-linejoin="round" d="M 346.55 204.2 L 363.85 204.2 L 366.25 204.2 L 366.25 205.95 L 355.2 210.2 L 344.15 205.95 L 344.15 204.2 L 346.55 204.2 Z"/>
			<path fill="#544763" stroke-linecap="round" stroke-linejoin="round" d="M 366.25 205.95 L 366.25 207.7 L 355.2 211.95 L 344.15 207.7 L 344.15 205.95 L 355.2 210.2 L 366.25 205.95 Z"/>
			<path fill="#C4C4C4" stroke-linecap="round" stroke-linejoin="round" d="M 574.05 137.0 L 573.9 137.15 L 573.65 137.35 L 571.1 139.85 C 570.8 140.11667 570.45 140.25 570.05 140.25 L 566.5 140.25 C 566.1667 140.25 565.8667 140.15 565.6 139.95 C 565.3 139.71667 565.11664 139.43335 565.05 139.1 C 564.98334 138.76668 565.01666 138.43335 565.15 138.1 L 577.8 111.5 L 568.95 102.05 C 568.68335 101.75 568.55 101.4 568.55 101.0 L 568.55 81.0 C 568.55 80.76667 568.6 80.56667 568.7 80.4 L 569.1 79.85 L 580.4 70.15 C 580.63336 69.95 580.9167 69.83333 581.25 69.8 C 581.55 69.76667 581.85 69.833336 582.15 70.0 L 582.75 70.7 L 585.0 75.85 L 583.75 76.8 L 581.35 71.3 L 570.05 81.0 L 570.05 101.0 L 579.6 111.2 L 566.5 138.75 L 570.05 138.75 L 572.75 136.1 L 572.85 136.05 L 574.05 137.0 Z"/>
			<path fill="#85864C" stroke-linecap="round" stroke-linejoin="round" d="M 585.0 75.85 L 590.35 88.05 L 589.0 88.65 L 583.75 76.8 L 585.0 75.85 Z M 592.7 93.35 L 594.3 97.0 L 592.9 97.6 L 591.35 94.1 L 591.3 94.0 L 592.7 93.35 Z M 596.6 102.3 L 600.05 110.05 L 600.15 110.95 L 599.7 111.75 L 574.05 137.0 L 572.85 136.05 L 598.65 110.65 L 595.3 103.0 L 595.25 102.9 L 596.6 102.3 Z"/>
			<path fill="#767545" stroke-linecap="round" stroke-linejoin="round" d="M 590.35 88.05 L 592.7 93.35 L 591.3 94.0 L 589.05 88.8 L 589.0 88.65 L 590.35 88.05 Z M 594.3 97.0 L 596.6 102.3 L 595.25 102.9 L 592.95 97.7 L 592.9 97.6 L 594.3 97.0 Z"/>
			<path fill="#EEEEEE" stroke-linecap="round" stroke-linejoin="round" d="M 572.85 136.05 L 572.75 136.1 L 570.05 138.75 L 566.5 138.75 L 579.6 111.2 L 570.05 101.0 L 570.05 81.0 L 581.35 71.3 L 583.75 76.8 L 573.15 85.9 L 573.15 99.45 L 586.85 113.95 L 572.85 136.05 Z"/>
			<path fill="#AEB762" stroke-linecap="round" stroke-linejoin="round" d="M 573.15 85.9 L 583.75 76.8 L 589.0 88.65 L 589.05 88.8 L 580.5 92.6 C 579.73334 92.933334 579.55 93.5 579.95 94.3 L 581.2 97.25 C 581.56665 98.01667 582.1333 98.23334 582.9 97.9 L 591.35 94.1 L 592.9 97.6 L 592.95 97.7 L 584.15 101.65 C 583.35004 101.98334 583.15 102.53334 583.55 103.3 L 584.85 106.3 C 585.1833 107.066666 585.7333 107.28333 586.5 106.95 L 595.3 103.0 L 598.65 110.65 L 572.85 136.05 L 586.85 113.95 L 573.15 99.45 L 573.15 85.9 Z"/>
			<path fill="#9AA34B" stroke-linecap="round" stroke-linejoin="round" d="M 595.3 103.0 L 586.5 106.95 C 585.73334 107.28333 585.18335 107.066666 584.85 106.3 L 583.55 103.3 C 583.15 102.53333 583.35004 101.98333 584.15 101.65 L 592.95 97.7 L 595.25 102.9 L 595.3 103.0 Z M 591.35 94.1 L 582.9 97.9 C 582.13336 98.23334 581.5667 98.01667 581.2 97.25 L 579.95 94.3 C 579.55 93.5 579.73334 92.933334 580.5 92.6 L 589.05 88.8 L 591.3 94.0 L 591.35 94.1 Z"/>
			<path fill="#85864C" stroke-linecap="round" stroke-linejoin="round" d="M 627.9 78.0 L 628.75 76.15 L 639.7 103.2 C 639.8667 103.566666 639.8667 103.95 639.7 104.35 L 622.45 145.15 L 621.9 145.8 L 621.05 146.05 L 621.05 144.55 L 638.3 103.75 L 627.9 78.0 Z"/>
			<path fill="#C4C4C4" stroke-linecap="round" stroke-linejoin="round" d="M 628.75 76.15 L 627.9 78.0 L 622.8 65.5 L 616.9 73.45 L 616.9 144.55 L 621.05 144.55 L 621.05 146.05 L 616.9 146.05 C 616.5 146.05 616.14996 145.90001 615.85 145.6 C 615.55 145.3 615.4 144.95 615.4 144.55 L 615.4 73.45 C 615.4 73.11666 615.5 72.816666 615.7 72.55 L 621.6 64.6 C 621.8333 64.3 622.1333 64.11667 622.5 64.05 L 623.5 64.2 C 623.8333 64.333336 624.06665 64.583336 624.2 64.95 L 628.75 76.15 Z"/>
			<path fill="#EEEEEE" stroke-linecap="round" stroke-linejoin="round" d="M 621.05 144.55 L 616.9 144.55 L 616.9 73.45 L 622.8 65.5 L 627.9 78.0 L 621.05 93.75 L 621.05 144.55 Z"/>
			<path fill="#AEB762" stroke-linecap="round" stroke-linejoin="round" d="M 627.9 78.0 L 638.3 103.75 L 621.05 144.55 L 621.05 93.75 L 627.9 78.0 Z M 631.35 101.9 C 632.14996 101.03333 632.55 100.01666 632.55 98.85 C 632.55 97.683334 632.14996 96.700005 631.35 95.9 C 630.51666 95.066666 629.5 94.65 628.3 94.65 C 627.1333 94.65 626.14996 95.066666 625.35 95.9 C 624.51666 96.7 624.1 97.68333 624.1 98.85 C 624.1 100.01666 624.51666 101.03333 625.35 101.9 C 626.14996 102.7 627.1333 103.1 628.3 103.1 C 629.5 103.1 630.51666 102.7 631.35 101.9 Z M 628.75 106.6 C 628.25 106.03333 627.6 105.75 626.8 105.75 C 626.06665 105.75 625.43335 106.03333 624.9 106.6 C 624.36664 107.13333 624.1 107.78333 624.1 108.55 C 624.1 109.28333 624.36664 109.916664 624.9 110.45 C 625.43335 110.98333 626.06665 111.25 626.8 111.25 C 627.6 111.25 628.25 110.98333 628.75 110.45 C 629.31665 109.916664 629.6 109.28333 629.6 108.55 C 629.6 107.78333 629.31665 107.13333 628.75 106.6 Z"/>
			<path fill="#9AA34B" stroke-linecap="round" stroke-linejoin="round" d="M 632.55 98.85 C 632.55 100.01666 632.14996 101.03333 631.35 101.9 C 630.51666 102.7 629.5 103.1 628.3 103.1 C 627.1333 103.1 626.14996 102.7 625.35 101.9 C 624.51666 101.03333 624.1 100.01666 624.1 98.85 C 624.1 97.683334 624.51666 96.700005 625.35 95.9 C 626.14996 95.066666 627.1333 94.65 628.3 94.65 C 629.5 94.65 630.51666 95.066666 631.35 95.9 C 632.14996 96.7 632.55 97.68333 632.55 98.85 Z M 626.8 105.75 C 627.6 105.75 628.25 106.03333 628.75 106.6 C 629.31665 107.13333 629.6 107.78333 629.6 108.55 C 629.6 109.28333 629.31665 109.916664 628.75 110.45 C 628.25 110.98333 627.6 111.25 626.8 111.25 C 626.06665 111.25 625.43335 110.98333 624.9 110.45 C 624.36664 109.916664 624.1 109.28333 624.1 108.55 C 624.1 107.78333 624.36664 107.13333 624.9 106.6 C 625.43335 106.03333 626.06665 105.75 626.8 105.75 Z"/>
			<path fill="#EEEEEE" stroke-linecap="round" stroke-linejoin="round" d="M 652.7 69.75 L 652.75 69.75 L 668.65 95.45 L 660.1 140.3 L 653.0 140.3 L 661.2 95.25 L 647.65 69.75 L 652.7 69.75 Z"/>
			<path fill="#85864C" stroke-linecap="round" stroke-linejoin="round" d="M 652.75 69.75 L 652.7 69.75 L 651.8 68.25 L 657.8 68.25 C 658.1666 68.25 658.4833 68.36667 658.75 68.6 L 679.0 85.35 L 678.45 86.85 L 657.8 69.75 L 652.75 69.75 Z M 663.45 140.3 L 663.05 141.8 L 659.85 141.8 L 660.15 140.3 L 663.45 140.3 Z"/>
			<path fill="#AEB762" stroke-linecap="round" stroke-linejoin="round" d="M 652.75 69.75 L 657.8 69.75 L 678.45 86.85 L 663.5 140.3 L 660.15 140.3 L 668.65 95.45 L 652.75 69.75 Z M 663.5 140.3 L 663.45 140.3 Z M 660.15 140.3 L 660.1 140.3 Z"/>
			<path fill="#767545" stroke-linecap="round" stroke-linejoin="round" d="M 678.45 86.85 L 679.0 85.35 L 694.4 85.35 C 694.8 85.35 695.14996 85.5 695.45 85.8 C 695.75 86.1 695.9 86.45 695.9 86.85 L 695.9 92.0 L 695.7 92.75 L 668.3 141.05 L 667.75 141.6 L 667.0 141.8 L 663.05 141.8 L 663.45 140.3 L 667.0 140.3 L 694.4 92.0 L 694.4 86.85 L 678.45 86.85 Z M 663.45 140.3 L 663.5 140.3 Z"/>
			<path fill="#C4C4C4" stroke-linecap="round" stroke-linejoin="round" d="M 651.8 68.25 L 652.7 69.75 L 647.65 69.75 L 661.2 95.25 L 653.0 140.3 L 660.1 140.3 L 659.85 141.8 L 653.0 141.8 L 652.2 141.55 L 651.65 140.9 C 651.51666 140.59999 651.48334 140.31667 651.55 140.05 L 659.65 95.5 L 646.35 70.45 C 646.14996 70.15 646.1 69.816666 646.2 69.45 C 646.26666 69.11666 646.43335 68.83333 646.7 68.6 C 646.9667 68.36667 647.2833 68.25 647.65 68.25 L 651.8 68.25 Z M 660.1 140.3 L 660.15 140.3 Z"/>
			<path fill="#9AA34B" stroke-linecap="round" stroke-linejoin="round" d="M 678.45 86.85 L 694.4 86.85 L 694.4 92.0 L 667.0 140.3 L 663.5 140.3 L 678.45 86.85 Z"/>
			<path fill="#AEB762" stroke-linecap="round" stroke-linejoin="round" d="M 709.8 142.85 L 704.95 142.85 L 719.45 130.75 L 719.45 107.65 L 711.7 102.7 L 711.7 67.2 L 718.95 67.2 L 719.15 67.2 L 738.05 82.05 L 738.05 123.45 L 710.05 142.85 L 709.8 142.85 Z M 731.8 84.5 L 725.15 84.5 C 724.2833 84.5 723.85 84.933334 723.85 85.8 L 723.85 92.45 C 723.85 93.28333 724.2833 93.7 725.15 93.7 L 731.8 93.7 C 732.6333 93.7 733.05 93.28333 733.05 92.45 L 733.05 85.8 C 733.05 84.933334 732.6333 84.5 731.8 84.5 Z M 723.85 104.05 C 723.85 104.916664 724.2833 105.35 725.15 105.35 L 731.8 105.35 C 732.6333 105.35 733.05 104.916664 733.05 104.05 L 733.05 97.4 C 733.05 96.53333 732.6333 96.1 731.8 96.1 L 725.15 96.1 C 724.2833 96.1 723.85 96.53333 723.85 97.4 L 723.85 104.05 Z"/>
			<path fill="#85864C" stroke-linecap="round" stroke-linejoin="round" d="M 704.95 142.85 L 709.8 142.85 L 707.6 144.35 L 704.95 144.35 L 704.1 144.1 C 703.8333 143.90001 703.64996 143.65001 703.55 143.35 C 703.45 143.05 703.43335 142.75 703.5 142.45 C 703.60004 142.15 703.7667 141.9 704.0 141.7 L 717.95 130.05 L 717.95 108.5 L 710.9 104.0 L 710.4 103.45 L 710.2 102.7 L 710.2 67.2 C 710.2 66.799995 710.35004 66.45 710.65 66.15 C 710.95 65.85 711.3 65.7 711.7 65.7 L 717.0 65.7 L 718.95 67.2 L 711.7 67.2 L 711.7 102.7 L 719.45 107.65 L 719.45 130.75 L 704.95 142.85 Z"/>
			<path fill="#C4C4C4" stroke-linecap="round" stroke-linejoin="round" d="M 718.95 67.2 L 717.0 65.7 L 721.05 65.7 L 721.8 65.9 L 742.65 77.85 L 743.2 78.4 L 743.4 79.15 L 743.4 125.9 L 743.2 126.65 L 742.65 127.2 L 713.6 144.15 L 712.85 144.35 L 707.6 144.35 L 709.8 142.85 L 710.05 142.85 L 712.85 142.85 L 741.9 125.9 L 741.9 79.15 L 721.05 67.2 L 719.15 67.2 L 718.95 67.2 Z"/>
			<path fill="#EEEEEE" stroke-linecap="round" stroke-linejoin="round" d="M 710.05 142.85 L 738.05 123.45 L 738.05 82.05 L 719.15 67.2 L 721.05 67.2 L 741.9 79.15 L 741.9 125.9 L 712.85 142.85 L 710.05 142.85 Z"/>
			<path fill="#9AA34B" stroke-linecap="round" stroke-linejoin="round" d="M 725.15 84.5 L 731.8 84.5 C 732.6333 84.5 733.05 84.933334 733.05 85.8 L 733.05 92.45 C 733.05 93.28333 732.6333 93.7 731.8 93.7 L 725.15 93.7 C 724.2833 93.7 723.85 93.28333 723.85 92.45 L 723.85 85.8 C 723.85 84.933334 724.2833 84.5 725.15 84.5 Z M 725.15 105.35 C 724.2833 105.35 723.85 104.916664 723.85 104.05 L 723.85 97.4 C 723.85 96.53333 724.2833 96.1 725.15 96.1 L 731.8 96.1 C 732.6333 96.1 733.05 96.53333 733.05 97.4 L 733.05 104.05 C 733.05 104.916664 732.6333 105.35 731.8 105.35 L 725.15 105.35 Z"/>
			<path fill="#EEEEEE" stroke-linecap="round" stroke-linejoin="round" d="M 572.85 226.05 L 572.75 226.1 L 570.05 228.75 L 566.5 228.75 L 579.6 201.2 L 570.05 191.0 L 570.05 171.0 L 581.35 161.3 L 583.75 166.8 L 573.15 175.9 L 573.15 189.45 L 586.85 203.95 L 572.85 226.05 Z"/>
			<path fill="#C4C4C4" stroke-linecap="round" stroke-linejoin="round" d="M 572.75 226.1 L 572.85 226.05 L 574.05 227.0 L 573.9 227.15 L 573.65 227.35 L 571.1 229.85 C 570.8 230.11667 570.45 230.25 570.05 230.25 L 566.5 230.25 C 566.1667 230.25 565.8667 230.15 565.6 229.95 C 565.3 229.71667 565.11664 229.43335 565.05 229.1 C 564.98334 228.76668 565.01666 228.43335 565.15 228.1 L 577.8 201.5 L 568.95 192.05 C 568.68335 191.75 568.55 191.4 568.55 191.0 L 568.55 171.0 C 568.55 170.76666 568.6 170.56667 568.7 170.4 L 569.1 169.85 L 580.4 160.15 C 580.63336 159.95 580.9167 159.83333 581.25 159.8 C 581.55 159.76666 581.85 159.83333 582.15 160.0 L 582.75 160.7 L 585.0 165.85 L 583.75 166.8 L 581.35 161.3 L 570.05 171.0 L 570.05 191.0 L 579.6 201.2 L 566.5 228.75 L 570.05 228.75 L 572.75 226.1 Z"/>
			<path fill="#933131" stroke-linecap="round" stroke-linejoin="round" d="M 583.75 166.8 L 585.0 165.85 L 590.35 178.05 L 589.0 178.65 L 583.75 166.8 Z M 574.05 227.0 L 572.85 226.05 L 598.65 200.65 L 595.3 193.0 L 586.5 196.95 C 585.73334 197.28333 585.18335 197.06667 584.85 196.3 L 583.55 193.3 C 583.15 192.53333 583.35004 191.98332 584.15 191.65 L 592.95 187.7 L 595.25 192.9 L 596.6 192.3 L 600.05 200.05 L 600.15 200.95 L 599.7 201.75 L 574.05 227.0 Z M 589.05 178.8 L 591.3 184.0 L 592.7 183.35 L 594.3 187.0 L 592.9 187.6 L 591.35 184.1 L 582.9 187.9 C 582.13336 188.23332 581.5667 188.01666 581.2 187.25 L 579.95 184.3 C 579.55 183.5 579.73334 182.93333 580.5 182.6 L 589.05 178.8 Z"/>
			<path fill="#AC3939" stroke-linecap="round" stroke-linejoin="round" d="M 572.85 226.05 L 586.85 203.95 L 573.15 189.45 L 573.15 175.9 L 583.75 166.8 L 589.0 178.65 L 589.05 178.8 L 580.5 182.6 C 579.73334 182.93333 579.55 183.5 579.95 184.3 L 581.2 187.25 C 581.56665 188.01666 582.1333 188.23332 582.9 187.9 L 591.35 184.1 L 592.9 187.6 L 592.95 187.7 L 584.15 191.65 C 583.35004 191.98332 583.15 192.53333 583.55 193.3 L 584.85 196.3 C 585.1833 197.06667 585.7333 197.28333 586.5 196.95 L 595.3 193.0 L 598.65 200.65 L 572.85 226.05 Z"/>
			<path fill="#792828" stroke-linecap="round" stroke-linejoin="round" d="M 589.0 178.65 L 590.35 178.05 L 592.7 183.35 L 591.3 184.0 L 589.05 178.8 L 589.0 178.65 Z M 592.95 187.7 L 592.9 187.6 L 594.3 187.0 L 596.6 192.3 L 595.25 192.9 L 592.95 187.7 Z"/>
			<path fill="#EEEEEE" stroke-linecap="round" stroke-linejoin="round" d="M 621.05 234.55 L 616.9 234.55 L 616.9 163.45 L 622.8 155.5 L 627.9 168.0 L 621.05 183.75 L 621.05 234.55 Z"/>
			<path fill="#C4C4C4" stroke-linecap="round" stroke-linejoin="round" d="M 616.9 234.55 L 621.05 234.55 L 621.05 236.05 L 616.9 236.05 C 616.5 236.05 616.14996 235.90001 615.85 235.6 C 615.55 235.3 615.4 234.95 615.4 234.55 L 615.4 163.45 C 615.4 163.11667 615.5 162.81667 615.7 162.55 L 621.6 154.6 C 621.8333 154.3 622.1333 154.11667 622.5 154.05 L 623.5 154.2 C 623.8333 154.33333 624.06665 154.58333 624.2 154.95 L 628.75 166.15 L 627.9 168.0 L 622.8 155.5 L 616.9 163.45 L 616.9 234.55 Z"/>
			<path fill="#933131" stroke-linecap="round" stroke-linejoin="round" d="M 627.9 168.0 L 628.75 166.15 L 639.7 193.2 C 639.8667 193.56667 639.8667 193.95 639.7 194.35 L 622.45 235.15 L 621.9 235.8 L 621.05 236.05 L 621.05 234.55 L 638.3 193.75 L 627.9 168.0 Z M 631.35 191.9 C 630.51666 192.7 629.5 193.1 628.3 193.1 C 627.1333 193.1 626.14996 192.7 625.35 191.9 C 624.51666 191.03334 624.1 190.01668 624.1 188.85 C 624.1 187.68333 624.51666 186.7 625.35 185.9 C 626.14996 185.06667 627.1333 184.65 628.3 184.65 C 629.5 184.65 630.51666 185.06667 631.35 185.9 C 632.14996 186.7 632.55 187.68333 632.55 188.85 C 632.55 190.01668 632.14996 191.03334 631.35 191.9 Z M 626.8 195.75 C 627.6 195.75 628.25 196.03334 628.75 196.6 C 629.31665 197.13333 629.6 197.78333 629.6 198.55 C 629.6 199.28333 629.31665 199.91666 628.75 200.45 C 628.25 200.98334 627.6 201.25 626.8 201.25 C 626.06665 201.25 625.43335 200.98334 624.9 200.45 C 624.36664 199.91666 624.1 199.28333 624.1 198.55 C 624.1 197.78333 624.36664 197.13333 624.9 196.6 C 625.43335 196.03334 626.06665 195.75 626.8 195.75 Z"/>
			<path fill="#AC3939" stroke-linecap="round" stroke-linejoin="round" d="M 621.05 234.55 L 621.05 183.75 L 627.9 168.0 L 638.3 193.75 L 621.05 234.55 Z M 628.3 193.1 C 629.5 193.1 630.51666 192.7 631.35 191.9 C 632.14996 191.03334 632.55 190.01668 632.55 188.85 C 632.55 187.68333 632.14996 186.7 631.35 185.9 C 630.51666 185.06667 629.5 184.65 628.3 184.65 C 627.1333 184.65 626.14996 185.06667 625.35 185.9 C 624.51666 186.7 624.1 187.68333 624.1 188.85 C 624.1 190.01668 624.51666 191.03334 625.35 191.9 C 626.14996 192.7 627.1333 193.1 628.3 193.1 Z M 628.75 196.6 C 628.25 196.03334 627.6 195.75 626.8 195.75 C 626.06665 195.75 625.43335 196.03334 624.9 196.6 C 624.36664 197.13333 624.1 197.78333 624.1 198.55 C 624.1 199.28333 624.36664 199.91666 624.9 200.45 C 625.43335 200.98334 626.06665 201.25 626.8 201.25 C 627.6 201.25 628.25 200.98334 628.75 200.45 C 629.31665 199.91666 629.6 199.28333 629.6 198.55 C 629.6 197.78333 629.31665 197.13333 628.75 196.6 Z"/>
			<path fill="#C4C4C4" stroke-linecap="round" stroke-linejoin="round" d="M 651.8 158.25 L 652.7 159.75 L 647.65 159.75 L 661.2 185.25 L 653.0 230.3 L 660.1 230.3 L 659.85 231.8 L 653.0 231.8 L 652.2 231.55 L 651.65 230.9 C 651.51666 230.59999 651.48334 230.31667 651.55 230.05 L 659.65 185.5 L 646.35 160.45 C 646.14996 160.15 646.1 159.81667 646.2 159.45 C 646.26666 159.11667 646.43335 158.83334 646.7 158.6 C 646.9667 158.36667 647.2833 158.25 647.65 158.25 L 651.8 158.25 Z M 660.1 230.3 L 660.15 230.3 Z"/>
			<path fill="#933131" stroke-linecap="round" stroke-linejoin="round" d="M 652.75 159.75 L 652.7 159.75 L 651.8 158.25 L 657.8 158.25 C 658.1666 158.25 658.4833 158.36667 658.75 158.6 L 679.0 175.35 L 678.45 176.85 L 657.8 159.75 L 652.75 159.75 Z M 678.45 176.85 L 694.4 176.85 L 694.4 182.0 L 667.0 230.3 L 663.5 230.3 L 678.45 176.85 Z M 663.45 230.3 L 663.05 231.8 L 659.85 231.8 L 660.15 230.3 L 663.45 230.3 Z"/>
			<path fill="#EEEEEE" stroke-linecap="round" stroke-linejoin="round" d="M 652.7 159.75 L 652.75 159.75 L 668.65 185.45 L 660.1 230.3 L 653.0 230.3 L 661.2 185.25 L 647.65 159.75 L 652.7 159.75 Z"/>
			<path fill="#AC3939" stroke-linecap="round" stroke-linejoin="round" d="M 652.75 159.75 L 657.8 159.75 L 678.45 176.85 L 663.5 230.3 L 660.15 230.3 L 668.65 185.45 L 652.75 159.75 Z M 660.15 230.3 L 660.1 230.3 Z M 663.5 230.3 L 663.45 230.3 Z"/>
			<path fill="#792828" stroke-linecap="round" stroke-linejoin="round" d="M 678.45 176.85 L 679.0 175.35 L 694.4 175.35 C 694.8 175.35 695.14996 175.5 695.45 175.8 C 695.75 176.1 695.9 176.45001 695.9 176.85 L 695.9 182.0 L 695.7 182.75 L 668.3 231.05 L 667.75 231.6 L 667.0 231.8 L 663.05 231.8 L 663.45 230.3 L 667.0 230.3 L 694.4 182.0 L 694.4 176.85 L 678.45 176.85 Z M 663.45 230.3 L 663.5 230.3 Z"/>
			<path fill="#C4C4C4" stroke-linecap="round" stroke-linejoin="round" d="M 717.0 155.7 L 721.05 155.7 L 721.8 155.9 L 742.65 167.85 L 743.2 168.4 L 743.4 169.15 L 743.4 215.9 L 743.2 216.65 L 742.65 217.2 L 713.6 234.15 L 712.85 234.35 L 707.6 234.35 L 709.8 232.85 L 710.05 232.85 L 712.85 232.85 L 741.9 215.9 L 741.9 169.15 L 721.05 157.2 L 719.15 157.2 L 718.95 157.2 L 717.0 155.7 Z"/>
			<path fill="#933131" stroke-linecap="round" stroke-linejoin="round" d="M 707.6 234.35 L 704.95 234.35 L 704.1 234.1 C 703.8333 233.90001 703.64996 233.65001 703.55 233.35 C 703.45 233.05 703.43335 232.75 703.5 232.45 C 703.60004 232.15 703.7667 231.9 704.0 231.7 L 717.95 220.05 L 717.95 198.5 L 710.9 194.0 L 710.4 193.45 L 710.2 192.7 L 710.2 157.2 C 710.2 156.8 710.35004 156.45 710.65 156.15 C 710.95 155.84999 711.3 155.7 711.7 155.7 L 717.0 155.7 L 718.95 157.2 L 711.7 157.2 L 711.7 192.7 L 719.45 197.65 L 719.45 220.75 L 704.95 232.85 L 709.8 232.85 L 707.6 234.35 Z M 723.85 194.05 L 723.85 187.4 C 723.85 186.53334 724.2833 186.1 725.15 186.1 L 731.8 186.1 C 732.6333 186.1 733.05 186.53334 733.05 187.4 L 733.05 194.05 C 733.05 194.91667 732.6333 195.35 731.8 195.35 L 725.15 195.35 C 724.2833 195.35 723.85 194.91667 723.85 194.05 Z M 725.15 183.7 C 724.2833 183.7 723.85 183.28333 723.85 182.45 L 723.85 175.8 C 723.85 174.93333 724.2833 174.5 725.15 174.5 L 731.8 174.5 C 732.6333 174.5 733.05 174.93333 733.05 175.8 L 733.05 182.45 C 733.05 183.28333 732.6333 183.7 731.8 183.7 L 725.15 183.7 Z"/>
			<path fill="#AC3939" stroke-linecap="round" stroke-linejoin="round" d="M 718.95 157.2 L 719.15 157.2 L 738.05 172.05 L 738.05 213.45 L 710.05 232.85 L 709.8 232.85 L 704.95 232.85 L 719.45 220.75 L 719.45 197.65 L 711.7 192.7 L 711.7 157.2 L 718.95 157.2 Z M 723.85 187.4 L 723.85 194.05 C 723.85 194.91667 724.2833 195.35 725.15 195.35 L 731.8 195.35 C 732.6333 195.35 733.05 194.91667 733.05 194.05 L 733.05 187.4 C 733.05 186.53334 732.6333 186.1 731.8 186.1 L 725.15 186.1 C 724.2833 186.1 723.85 186.53334 723.85 187.4 Z M 723.85 182.45 C 723.85 183.28333 724.2833 183.7 725.15 183.7 L 731.8 183.7 C 732.6333 183.7 733.05 183.28333 733.05 182.45 L 733.05 175.8 C 733.05 174.93333 732.6333 174.5 731.8 174.5 L 725.15 174.5 C 724.2833 174.5 723.85 174.93333 723.85 175.8 L 723.85 182.45 Z"/>
			<path fill="#EEEEEE" stroke-linecap="round" stroke-linejoin="round" d="M 719.15 157.2 L 721.05 157.2 L 741.9 169.15 L 741.9 215.9 L 712.85 232.85 L 710.05 232.85 L 738.05 213.45 L 738.05 172.05 L 719.15 157.2 Z"/>
			<path fill="#C4C4C4" stroke-linecap="round" stroke-linejoin="round" d="M 574.05 317.0 L 573.9 317.15 L 573.65 317.35 L 571.1 319.85 C 570.8 320.11667 570.45 320.25 570.05 320.25 L 566.5 320.25 C 566.1667 320.25 565.8667 320.15 565.6 319.95 C 565.3 319.71667 565.11664 319.43335 565.05 319.1 C 564.98334 318.76666 565.01666 318.43332 565.15 318.1 L 577.8 291.5 L 568.95 282.05 C 568.68335 281.75 568.55 281.4 568.55 281.0 L 568.55 261.0 C 568.55 260.76666 568.6 260.56665 568.7 260.4 L 569.1 259.85 L 580.4 250.15 C 580.63336 249.95 580.9167 249.83333 581.25 249.8 C 581.55 249.76666 581.85 249.83333 582.15 250.0 L 582.75 250.7 L 585.0 255.85 L 583.75 256.8 L 581.35 251.3 L 570.05 261.0 L 570.05 281.0 L 579.6 291.2 L 566.5 318.75 L 570.05 318.75 L 572.75 316.1 L 572.85 316.05 L 574.05 317.0 Z"/>
			<path fill="#698585" stroke-linecap="round" stroke-linejoin="round" d="M 585.0 255.85 L 590.35 268.05 L 589.0 268.65 L 583.75 256.8 L 585.0 255.85 Z M 592.7 273.35 L 594.3 277.0 L 592.9 277.6 L 591.35 274.1 L 582.9 277.9 C 582.13336 278.23334 581.5667 278.01666 581.2 277.25 L 579.95 274.3 C 579.55 273.5 579.73334 272.93335 580.5 272.6 L 589.05 268.8 L 591.3 274.0 L 592.7 273.35 Z M 596.6 282.3 L 600.05 290.05 L 600.15 290.95 L 599.7 291.75 L 574.05 317.0 L 572.85 316.05 L 598.65 290.65 L 595.3 283.0 L 586.5 286.95 C 585.73334 287.28336 585.18335 287.06668 584.85 286.3 L 583.55 283.3 C 583.15 282.53333 583.35004 281.98334 584.15 281.65 L 592.95 277.7 L 595.25 282.9 L 596.6 282.3 Z"/>
			<path fill="#62797B" stroke-linecap="round" stroke-linejoin="round" d="M 590.35 268.05 L 592.7 273.35 L 591.3 274.0 L 589.05 268.8 L 589.0 268.65 L 590.35 268.05 Z M 594.3 277.0 L 596.6 282.3 L 595.25 282.9 L 592.95 277.7 L 592.9 277.6 L 594.3 277.0 Z"/>
			<path fill="#EEEEEE" stroke-linecap="round" stroke-linejoin="round" d="M 572.85 316.05 L 572.75 316.1 L 570.05 318.75 L 566.5 318.75 L 579.6 291.2 L 570.05 281.0 L 570.05 261.0 L 581.35 251.3 L 583.75 256.8 L 573.15 265.9 L 573.15 279.45 L 586.85 293.95 L 572.85 316.05 Z"/>
			<path fill="#7E989A" stroke-linecap="round" stroke-linejoin="round" d="M 572.85 316.05 L 586.85 293.95 L 573.15 279.45 L 573.15 265.9 L 583.75 256.8 L 589.0 268.65 L 589.05 268.8 L 580.5 272.6 C 579.73334 272.93335 579.55 273.5 579.95 274.3 L 581.2 277.25 C 581.56665 278.01666 582.1333 278.23334 582.9 277.9 L 591.35 274.1 L 592.9 277.6 L 592.95 277.7 L 584.15 281.65 C 583.35004 281.98334 583.15 282.53333 583.55 283.3 L 584.85 286.3 C 585.1833 287.06668 585.7333 287.28336 586.5 286.95 L 595.3 283.0 L 598.65 290.65 L 572.85 316.05 Z"/>
			<path fill="#EEEEEE" stroke-linecap="round" stroke-linejoin="round" d="M 621.05 324.55 L 616.9 324.55 L 616.9 253.45 L 622.8 245.5 L 627.9 258.0 L 621.05 273.75 L 621.05 324.55 Z"/>
			<path fill="#C4C4C4" stroke-linecap="round" stroke-linejoin="round" d="M 616.9 324.55 L 621.05 324.55 L 621.05 326.05 L 616.9 326.05 C 616.5 326.05 616.14996 325.9 615.85 325.6 C 615.55 325.3 615.4 324.94998 615.4 324.55 L 615.4 253.45 C 615.4 253.11667 615.5 252.81667 615.7 252.55 L 621.6 244.6 C 621.8333 244.3 622.1333 244.11667 622.5 244.05 L 623.5 244.2 C 623.8333 244.33333 624.06665 244.58333 624.2 244.95 L 628.75 256.15 L 627.9 258.0 L 622.8 245.5 L 616.9 253.45 L 616.9 324.55 Z"/>
			<path fill="#698585" stroke-linecap="round" stroke-linejoin="round" d="M 627.9 258.0 L 628.75 256.15 L 639.7 283.2 C 639.8667 283.56668 639.8667 283.95 639.7 284.35 L 622.45 325.15 L 621.9 325.8 L 621.05 326.05 L 621.05 324.55 L 638.3 283.75 L 627.9 258.0 Z M 629.6 288.55 C 629.6 289.28333 629.31665 289.91666 628.75 290.45 C 628.25 290.98334 627.6 291.25 626.8 291.25 C 626.06665 291.25 625.43335 290.98334 624.9 290.45 C 624.36664 289.91666 624.1 289.28333 624.1 288.55 C 624.1 287.78333 624.36664 287.13333 624.9 286.6 C 625.43335 286.03333 626.06665 285.75 626.8 285.75 C 627.6 285.75 628.25 286.03333 628.75 286.6 C 629.31665 287.13333 629.6 287.78333 629.6 288.55 Z M 632.55 278.85 C 632.55 280.01666 632.14996 281.03333 631.35 281.9 C 630.51666 282.7 629.5 283.1 628.3 283.1 C 627.1333 283.1 626.14996 282.7 625.35 281.9 C 624.51666 281.03333 624.1 280.01666 624.1 278.85 C 624.1 277.68335 624.51666 276.7 625.35 275.9 C 626.14996 275.06665 627.1333 274.65 628.3 274.65 C 629.5 274.65 630.51666 275.06665 631.35 275.9 C 632.14996 276.7 632.55 277.68335 632.55 278.85 Z"/>
			<path fill="#7E989A" stroke-linecap="round" stroke-linejoin="round" d="M 621.05 324.55 L 621.05 273.75 L 627.9 258.0 L 638.3 283.75 L 621.05 324.55 Z M 628.75 290.45 C 629.31665 289.91666 629.6 289.28333 629.6 288.55 C 629.6 287.78333 629.31665 287.13333 628.75 286.6 C 628.25 286.03333 627.6 285.75 626.8 285.75 C 626.06665 285.75 625.43335 286.03333 624.9 286.6 C 624.36664 287.13333 624.1 287.78333 624.1 288.55 C 624.1 289.28333 624.36664 289.91666 624.9 290.45 C 625.43335 290.98334 626.06665 291.25 626.8 291.25 C 627.6 291.25 628.25 290.98334 628.75 290.45 Z M 631.35 281.9 C 632.14996 281.03333 632.55 280.01666 632.55 278.85 C 632.55 277.68335 632.14996 276.7 631.35 275.9 C 630.51666 275.06665 629.5 274.65 628.3 274.65 C 627.1333 274.65 626.14996 275.06665 625.35 275.9 C 624.51666 276.7 624.1 277.68335 624.1 278.85 C 624.1 280.01666 624.51666 281.03333 625.35 281.9 C 626.14996 282.7 627.1333 283.1 628.3 283.1 C 629.5 283.1 630.51666 282.7 631.35 281.9 Z"/>
			<path fill="#62797B" stroke-linecap="round" stroke-linejoin="round" d="M 679.0 265.35 L 694.4 265.35 C 694.8 265.35 695.14996 265.5 695.45 265.8 C 695.75 266.1 695.9 266.45 695.9 266.85 L 695.9 272.0 L 695.7 272.75 L 668.3 321.05 L 667.75 321.6 L 667.0 321.8 L 663.05 321.8 L 663.45 320.3 L 667.0 320.3 L 694.4 272.0 L 694.4 266.85 L 678.45 266.85 L 679.0 265.35 Z M 663.45 320.3 L 663.5 320.3 Z"/>
			<path fill="#698585" stroke-linecap="round" stroke-linejoin="round" d="M 663.05 321.8 L 659.85 321.8 L 660.15 320.3 L 663.45 320.3 L 663.05 321.8 Z M 694.4 266.85 L 694.4 272.0 L 667.0 320.3 L 663.5 320.3 L 678.45 266.85 L 694.4 266.85 Z M 678.45 266.85 L 657.8 249.75 L 652.75 249.75 L 651.8 248.25 L 657.8 248.25 C 658.1666 248.25 658.4833 248.36667 658.75 248.6 L 679.0 265.35 L 678.45 266.85 Z M 652.75 249.75 L 652.7 249.75 Z"/>
			<path fill="#C4C4C4" stroke-linecap="round" stroke-linejoin="round" d="M 659.85 321.8 L 653.0 321.8 L 652.2 321.55 L 651.65 320.9 C 651.51666 320.6 651.48334 320.31668 651.55 320.05 L 659.65 275.5 L 646.35 250.45 C 646.14996 250.15 646.1 249.81667 646.2 249.45 C 646.26666 249.11667 646.43335 248.83334 646.7 248.6 C 646.9667 248.36667 647.2833 248.25 647.65 248.25 L 651.8 248.25 L 652.7 249.75 L 647.65 249.75 L 661.2 275.25 L 653.0 320.3 L 660.1 320.3 L 659.85 321.8 Z M 660.1 320.3 L 660.15 320.3 Z"/>
			<path fill="#7E989A" stroke-linecap="round" stroke-linejoin="round" d="M 663.5 320.3 L 663.45 320.3 L 660.15 320.3 L 668.65 275.45 L 652.75 249.75 L 657.8 249.75 L 678.45 266.85 L 663.5 320.3 Z M 660.15 320.3 L 660.1 320.3 Z"/>
			<path fill="#EEEEEE" stroke-linecap="round" stroke-linejoin="round" d="M 652.7 249.75 L 652.75 249.75 L 668.65 275.45 L 660.1 320.3 L 653.0 320.3 L 661.2 275.25 L 647.65 249.75 L 652.7 249.75 Z"/>
			<path fill="#C4C4C4" stroke-linecap="round" stroke-linejoin="round" d="M 717.0 245.7 L 721.05 245.7 L 721.8 245.9 L 742.65 257.85 L 743.2 258.4 L 743.4 259.15 L 743.4 305.9 L 743.2 306.65 L 742.65 307.2 L 713.6 324.15 L 712.85 324.35 L 707.6 324.35 L 709.8 322.85 L 710.05 322.85 L 712.85 322.85 L 741.9 305.9 L 741.9 259.15 L 721.05 247.2 L 719.15 247.2 L 718.95 247.2 L 717.0 245.7 Z"/>
			<path fill="#698585" stroke-linecap="round" stroke-linejoin="round" d="M 707.6 324.35 L 704.95 324.35 L 704.1 324.1 C 703.8333 323.9 703.64996 323.65 703.55 323.35 C 703.45 323.05 703.43335 322.75 703.5 322.45 C 703.60004 322.15 703.7667 321.9 704.0 321.7 L 717.95 310.05 L 717.95 288.5 L 710.9 284.0 L 710.4 283.45 L 710.2 282.7 L 710.2 247.2 C 710.2 246.8 710.35004 246.45 710.65 246.15 C 710.95 245.84999 711.3 245.7 711.7 245.7 L 717.0 245.7 L 718.95 247.2 L 711.7 247.2 L 711.7 282.7 L 719.45 287.65 L 719.45 310.75 L 704.95 322.85 L 709.8 322.85 L 707.6 324.35 Z M 725.15 264.5 L 731.8 264.5 C 732.6333 264.5 733.05 264.93332 733.05 265.8 L 733.05 272.45 C 733.05 273.28336 732.6333 273.7 731.8 273.7 L 725.15 273.7 C 724.2833 273.7 723.85 273.28336 723.85 272.45 L 723.85 265.8 C 723.85 264.93332 724.2833 264.5 725.15 264.5 Z M 725.15 276.1 L 731.8 276.1 C 732.6333 276.1 733.05 276.53333 733.05 277.4 L 733.05 284.05 C 733.05 284.91666 732.6333 285.35 731.8 285.35 L 725.15 285.35 C 724.2833 285.35 723.85 284.91666 723.85 284.05 L 723.85 277.4 C 723.85 276.53333 724.2833 276.1 725.15 276.1 Z"/>
			<path fill="#7E989A" stroke-linecap="round" stroke-linejoin="round" d="M 718.95 247.2 L 719.15 247.2 L 738.05 262.05 L 738.05 303.45 L 710.05 322.85 L 709.8 322.85 L 704.95 322.85 L 719.45 310.75 L 719.45 287.65 L 711.7 282.7 L 711.7 247.2 L 718.95 247.2 Z M 731.8 264.5 L 725.15 264.5 C 724.2833 264.5 723.85 264.93332 723.85 265.8 L 723.85 272.45 C 723.85 273.28336 724.2833 273.7 725.15 273.7 L 731.8 273.7 C 732.6333 273.7 733.05 273.28336 733.05 272.45 L 733.05 265.8 C 733.05 264.93332 732.6333 264.5 731.8 264.5 Z M 731.8 276.1 L 725.15 276.1 C 724.2833 276.1 723.85 276.53333 723.85 277.4 L 723.85 284.05 C 723.85 284.91666 724.2833 285.35 725.15 285.35 L 731.8 285.35 C 732.6333 285.35 733.05 284.91666 733.05 284.05 L 733.05 277.4 C 733.05 276.53333 732.6333 276.1 731.8 276.1 Z"/>
			<path fill="#EEEEEE" stroke-linecap="round" stroke-linejoin="round" d="M 719.15 247.2 L 721.05 247.2 L 741.9 259.15 L 741.9 305.9 L 712.85 322.85 L 710.05 322.85 L 738.05 303.45 L 738.05 262.05 L 719.15 247.2 Z"/>
			<path fill="#C4C4C4" stroke-linecap="round" stroke-linejoin="round" d="M 574.05 407.0 L 573.9 407.15 L 573.65 407.35 L 571.1 409.85 C 570.8 410.11667 570.45 410.25 570.05 410.25 L 566.5 410.25 C 566.1667 410.25 565.8667 410.15 565.6 409.95 C 565.3 409.71667 565.11664 409.43335 565.05 409.1 C 564.98334 408.76666 565.01666 408.43332 565.15 408.1 L 577.8 381.5 L 568.95 372.05 C 568.68335 371.75 568.55 371.4 568.55 371.0 L 568.55 351.0 C 568.55 350.76666 568.6 350.56665 568.7 350.4 L 569.1 349.85 L 580.4 340.15 C 580.63336 339.95 580.9167 339.83334 581.25 339.8 C 581.55 339.76666 581.85 339.83334 582.15 340.0 L 582.75 340.7 L 585.0 345.85 L 583.75 346.8 L 581.35 341.3 L 570.05 351.0 L 570.05 371.0 L 579.6 381.2 L 566.5 408.75 L 570.05 408.75 L 572.75 406.1 L 572.85 406.05 L 574.05 407.0 Z"/>
			<path fill="#E3B602" stroke-linecap="round" stroke-linejoin="round" d="M 585.0 345.85 L 590.35 358.05 L 589.0 358.65 L 583.75 346.8 L 585.0 345.85 Z M 592.7 363.35 L 594.3 367.0 L 592.9 367.6 L 591.35 364.1 L 582.9 367.9 C 582.13336 368.23334 581.5667 368.01666 581.2 367.25 L 579.95 364.3 C 579.55 363.5 579.73334 362.93335 580.5 362.6 L 589.05 358.8 L 591.3 364.0 L 592.7 363.35 Z M 596.6 372.3 L 600.05 380.05 L 600.15 380.95 L 599.7 381.75 L 574.05 407.0 L 572.85 406.05 L 598.65 380.65 L 595.3 373.0 L 586.5 376.95 C 585.73334 377.28336 585.18335 377.06668 584.85 376.3 L 583.55 373.3 C 583.15 372.53333 583.35004 371.98334 584.15 371.65 L 592.95 367.7 L 595.25 372.9 L 596.6 372.3 Z"/>
			<path fill="#C19A02" stroke-linecap="round" stroke-linejoin="round" d="M 590.35 358.05 L 592.7 363.35 L 591.3 364.0 L 589.05 358.8 L 589.0 358.65 L 590.35 358.05 Z M 594.3 367.0 L 596.6 372.3 L 595.25 372.9 L 592.95 367.7 L 592.9 367.6 L 594.3 367.0 Z"/>
			<path fill="#EEEEEE" stroke-linecap="round" stroke-linejoin="round" d="M 572.85 406.05 L 572.75 406.1 L 570.05 408.75 L 566.5 408.75 L 579.6 381.2 L 570.05 371.0 L 570.05 351.0 L 581.35 341.3 L 583.75 346.8 L 573.15 355.9 L 573.15 369.45 L 586.85 383.95 L 572.85 406.05 Z"/>
			<path fill="#FFCC00" stroke-linecap="round" stroke-linejoin="round" d="M 591.35 364.1 L 592.9 367.6 L 592.95 367.7 L 584.15 371.65 C 583.35004 371.98334 583.15 372.53333 583.55 373.3 L 584.85 376.3 C 585.1833 377.06668 585.7333 377.28336 586.5 376.95 L 595.3 373.0 L 598.65 380.65 L 572.85 406.05 L 586.85 383.95 L 573.15 369.45 L 573.15 355.9 L 583.75 346.8 L 589.0 358.65 L 589.05 358.8 L 580.5 362.6 C 579.73334 362.93335 579.55 363.5 579.95 364.3 L 581.2 367.25 C 581.56665 368.01666 582.1333 368.23334 582.9 367.9 L 591.35 364.1 Z"/>
			<path fill="#C4C4C4" stroke-linecap="round" stroke-linejoin="round" d="M 624.2 334.95 L 628.75 346.15 L 627.9 348.0 L 622.8 335.5 L 616.9 343.45 L 616.9 414.55 L 621.05 414.55 L 621.05 416.05 L 616.9 416.05 C 616.5 416.05 616.14996 415.9 615.85 415.6 C 615.55 415.3 615.4 414.94998 615.4 414.55 L 615.4 343.45 C 615.4 343.11667 615.5 342.81665 615.7 342.55 L 621.6 334.6 C 621.8333 334.3 622.1333 334.11664 622.5 334.05 L 623.5 334.2 C 623.8333 334.33334 624.06665 334.58334 624.2 334.95 Z"/>
			<path fill="#E3B602" stroke-linecap="round" stroke-linejoin="round" d="M 621.05 416.05 L 621.05 414.55 L 638.3 373.75 L 627.9 348.0 L 628.75 346.15 L 639.7 373.2 C 639.8667 373.56668 639.8667 373.95 639.7 374.35 L 622.45 415.15 L 621.9 415.8 L 621.05 416.05 Z M 631.35 365.9 C 632.14996 366.7 632.55 367.68335 632.55 368.85 C 632.55 370.01666 632.14996 371.03333 631.35 371.9 C 630.51666 372.7 629.5 373.1 628.3 373.1 C 627.1333 373.1 626.14996 372.7 625.35 371.9 C 624.51666 371.03333 624.1 370.01666 624.1 368.85 C 624.1 367.68335 624.51666 366.7 625.35 365.9 C 626.14996 365.06665 627.1333 364.65 628.3 364.65 C 629.5 364.65 630.51666 365.06665 631.35 365.9 Z M 628.75 380.45 C 628.25 380.98334 627.6 381.25 626.8 381.25 C 626.06665 381.25 625.43335 380.98334 624.9 380.45 C 624.36664 379.91666 624.1 379.28333 624.1 378.55 C 624.1 377.78333 624.36664 377.13333 624.9 376.6 C 625.43335 376.03333 626.06665 375.75 626.8 375.75 C 627.6 375.75 628.25 376.03333 628.75 376.6 C 629.31665 377.13333 629.6 377.78333 629.6 378.55 C 629.6 379.28333 629.31665 379.91666 628.75 380.45 Z"/>
			<path fill="#EEEEEE" stroke-linecap="round" stroke-linejoin="round" d="M 621.05 414.55 L 616.9 414.55 L 616.9 343.45 L 622.8 335.5 L 627.9 348.0 L 621.05 363.75 L 621.05 414.55 Z"/>
			<path fill="#FFCC00" stroke-linecap="round" stroke-linejoin="round" d="M 632.55 368.85 C 632.55 367.68335 632.14996 366.7 631.35 365.9 C 630.51666 365.06665 629.5 364.65 628.3 364.65 C 627.1333 364.65 626.14996 365.06665 625.35 365.9 C 624.51666 366.7 624.1 367.68335 624.1 368.85 C 624.1 370.01666 624.51666 371.03333 625.35 371.9 C 626.14996 372.7 627.1333 373.1 628.3 373.1 C 629.5 373.1 630.51666 372.7 631.35 371.9 C 632.14996 371.03333 632.55 370.01666 632.55 368.85 Z M 621.05 363.75 L 627.9 348.0 L 638.3 373.75 L 621.05 414.55 L 621.05 363.75 Z M 626.8 381.25 C 627.6 381.25 628.25 380.98334 628.75 380.45 C 629.31665 379.91666 629.6 379.28333 629.6 378.55 C 629.6 377.78333 629.31665 377.13333 628.75 376.6 C 628.25 376.03333 627.6 375.75 626.8 375.75 C 626.06665 375.75 625.43335 376.03333 624.9 376.6 C 624.36664 377.13333 624.1 377.78333 624.1 378.55 C 624.1 379.28333 624.36664 379.91666 624.9 380.45 C 625.43335 380.98334 626.06665 381.25 626.8 381.25 Z"/>
			<path fill="#C19A02" stroke-linecap="round" stroke-linejoin="round" d="M 667.0 411.8 L 663.05 411.8 L 663.45 410.3 L 667.0 410.3 L 694.4 362.0 L 694.4 356.85 L 678.45 356.85 L 679.0 355.35 L 694.4 355.35 C 694.8 355.35 695.14996 355.5 695.45 355.8 C 695.75 356.1 695.9 356.45 695.9 356.85 L 695.9 362.0 L 695.7 362.75 L 668.3 411.05 L 667.75 411.6 L 667.0 411.8 Z M 663.45 410.3 L 663.5 410.3 Z"/>
			<path fill="#E3B602" stroke-linecap="round" stroke-linejoin="round" d="M 694.4 356.85 L 694.4 362.0 L 667.0 410.3 L 663.5 410.3 L 678.45 356.85 L 694.4 356.85 Z M 663.45 410.3 L 663.05 411.8 L 659.85 411.8 L 660.15 410.3 L 663.45 410.3 Z M 658.75 338.6 L 679.0 355.35 L 678.45 356.85 L 657.8 339.75 L 652.75 339.75 L 651.8 338.25 L 657.8 338.25 C 658.1666 338.25 658.4833 338.36667 658.75 338.6 Z M 652.75 339.75 L 652.7 339.75 Z"/>
			<path fill="#FFCC00" stroke-linecap="round" stroke-linejoin="round" d="M 663.5 410.3 L 663.45 410.3 L 660.15 410.3 L 668.65 365.45 L 652.75 339.75 L 657.8 339.75 L 678.45 356.85 L 663.5 410.3 Z M 660.15 410.3 L 660.1 410.3 Z"/>
			<path fill="#C4C4C4" stroke-linecap="round" stroke-linejoin="round" d="M 659.85 411.8 L 653.0 411.8 L 652.2 411.55 L 651.65 410.9 C 651.51666 410.6 651.48334 410.31668 651.55 410.05 L 659.65 365.5 L 646.35 340.45 C 646.14996 340.15 646.1 339.81665 646.2 339.45 C 646.26666 339.11667 646.43335 338.83334 646.7 338.6 C 646.9667 338.36667 647.2833 338.25 647.65 338.25 L 651.8 338.25 L 652.7 339.75 L 647.65 339.75 L 661.2 365.25 L 653.0 410.3 L 660.1 410.3 L 659.85 411.8 Z M 660.1 410.3 L 660.15 410.3 Z"/>
			<path fill="#EEEEEE" stroke-linecap="round" stroke-linejoin="round" d="M 652.7 339.75 L 652.75 339.75 L 668.65 365.45 L 660.1 410.3 L 653.0 410.3 L 661.2 365.25 L 647.65 339.75 L 652.7 339.75 Z"/>
			<path fill="#E3B602" stroke-linecap="round" stroke-linejoin="round" d="M 711.7 335.7 L 717.0 335.7 L 718.95 337.2 L 711.7 337.2 L 711.7 372.7 L 719.45 377.65 L 719.45 400.75 L 704.95 412.85 L 709.8 412.85 L 707.6 414.35 L 704.95 414.35 L 704.1 414.1 C 703.8333 413.9 703.64996 413.65 703.55 413.35 C 703.45 413.05 703.43335 412.75 703.5 412.45 C 703.60004 412.15 703.7667 411.9 704.0 411.7 L 717.95 400.05 L 717.95 378.5 L 710.9 374.0 L 710.4 373.45 L 710.2 372.7 L 710.2 337.2 C 710.2 336.80002 710.35004 336.45 710.65 336.15 C 710.95 335.85 711.3 335.7 711.7 335.7 Z M 725.15 363.7 C 724.2833 363.7 723.85 363.28336 723.85 362.45 L 723.85 355.8 C 723.85 354.93332 724.2833 354.5 725.15 354.5 L 731.8 354.5 C 732.6333 354.5 733.05 354.93332 733.05 355.8 L 733.05 362.45 C 733.05 363.28336 732.6333 363.7 731.8 363.7 L 725.15 363.7 Z M 725.15 375.35 C 724.2833 375.35 723.85 374.91666 723.85 374.05 L 723.85 367.4 C 723.85 366.53333 724.2833 366.1 725.15 366.1 L 731.8 366.1 C 732.6333 366.1 733.05 366.53333 733.05 367.4 L 733.05 374.05 C 733.05 374.91666 732.6333 375.35 731.8 375.35 L 725.15 375.35 Z"/>
			<path fill="#C4C4C4" stroke-linecap="round" stroke-linejoin="round" d="M 707.6 414.35 L 709.8 412.85 L 710.05 412.85 L 712.85 412.85 L 741.9 395.9 L 741.9 349.15 L 721.05 337.2 L 719.15 337.2 L 718.95 337.2 L 717.0 335.7 L 721.05 335.7 L 721.8 335.9 L 742.65 347.85 L 743.2 348.4 L 743.4 349.15 L 743.4 395.9 L 743.2 396.65 L 742.65 397.2 L 713.6 414.15 L 712.85 414.35 L 707.6 414.35 Z"/>
			<path fill="#FFCC00" stroke-linecap="round" stroke-linejoin="round" d="M 709.8 412.85 L 704.95 412.85 L 719.45 400.75 L 719.45 377.65 L 711.7 372.7 L 711.7 337.2 L 718.95 337.2 L 719.15 337.2 L 738.05 352.05 L 738.05 393.45 L 710.05 412.85 L 709.8 412.85 Z M 723.85 362.45 C 723.85 363.28336 724.2833 363.7 725.15 363.7 L 731.8 363.7 C 732.6333 363.7 733.05 363.28336 733.05 362.45 L 733.05 355.8 C 733.05 354.93332 732.6333 354.5 731.8 354.5 L 725.15 354.5 C 724.2833 354.5 723.85 354.93332 723.85 355.8 L 723.85 362.45 Z M 723.85 374.05 C 723.85 374.91666 724.2833 375.35 725.15 375.35 L 731.8 375.35 C 732.6333 375.35 733.05 374.91666 733.05 374.05 L 733.05 367.4 C 733.05 366.53333 732.6333 366.1 731.8 366.1 L 725.15 366.1 C 724.2833 366.1 723.85 366.53333 723.85 367.4 L 723.85 374.05 Z"/>
			<path fill="#EEEEEE" stroke-linecap="round" stroke-linejoin="round" d="M 712.85 412.85 L 710.05 412.85 L 738.05 393.45 L 738.05 352.05 L 719.15 337.2 L 721.05 337.2 L 741.9 349.15 L 741.9 395.9 L 712.85 412.85 Z"/>
			<path fill="#BDD6DB" stroke-linecap="round" stroke-linejoin="round" d="M 483.7 170.0 L 487.7 170.0 L 487.7 185.15 L 483.7 184.6 L 483.7 170.0 Z M 457.85 180.8 L 452.35 180.0 L 452.35 170.0 L 457.85 170.0 L 457.85 180.8 Z"/>
			<path fill="#9EBBC7" stroke-linecap="round" stroke-linejoin="round" d="M 487.7 170.0 L 483.7 170.0 L 457.85 170.0 L 452.35 170.0 L 452.35 180.0 L 457.85 180.8 L 483.7 184.6 L 487.7 185.15 L 487.7 170.0 Z M 489.2 170.0 L 489.2 185.15 L 488.95 185.95 L 488.35 186.55 L 487.5 186.65 L 452.15 181.5 C 451.78333 181.43333 451.48334 181.26666 451.25 181.0 C 450.98334 180.7 450.85 180.36667 450.85 180.0 L 450.85 170.0 C 450.85 169.59999 451.0 169.24998 451.3 168.95 C 451.6 168.65 451.95 168.5 452.35 168.5 L 487.7 168.5 C 488.1 168.5 488.45 168.65 488.75 168.95 C 489.05002 169.25 489.2 169.6 489.2 170.0 Z"/>
			<path fill="#D3E1E7" stroke-linecap="round" stroke-linejoin="round" d="M 483.7 184.6 L 457.85 180.8 L 457.85 170.0 L 483.7 170.0 L 483.7 184.6 Z"/>
			<path fill="#9EBBC7" stroke-linecap="round" stroke-linejoin="round" d="M 456.75 278.9 C 456.48334 278.6 456.35 278.26666 456.35 277.9 L 456.35 260.15 C 456.35 259.81665 456.46667 259.51666 456.7 259.25 C 456.9 258.94998 457.16666 258.76666 457.5 258.7 L 481.85 252.55 L 482.75 252.6 L 483.45 253.15 L 483.7 254.0 L 483.7 262.1 L 483.55 262.85 L 483.05 263.35 L 458.7 279.15 L 457.65 279.4 L 456.75 278.9 Z M 476.95 255.35 L 457.85 260.15 L 457.85 277.9 L 476.95 265.5 L 482.2 262.1 L 482.2 254.0 L 476.95 255.35 Z"/>
			<path fill="#D3E1E7" stroke-linecap="round" stroke-linejoin="round" d="M 457.85 260.15 L 476.95 255.35 L 476.95 265.5 L 457.85 277.9 L 457.85 260.15 Z"/>
			<path fill="#BDD6DB" stroke-linecap="round" stroke-linejoin="round" d="M 476.95 265.5 L 476.95 255.35 L 482.2 254.0 L 482.2 262.1 L 476.95 265.5 Z"/>
			<path fill="#9EBBC7" stroke-linecap="round" stroke-linejoin="round" d="M 489.55 303.75 L 488.7 304.3 L 451.95 311.55 L 451.1 311.45 C 450.8 311.31668 450.56665 311.13333 450.4 310.9 L 450.15 310.05 L 450.15 297.55 C 450.15 297.15 450.3 296.8 450.6 296.5 C 450.9 296.19998 451.25 296.05 451.65 296.05 L 488.4 296.05 C 488.8 296.05 489.15 296.19998 489.45 296.5 C 489.75 296.80002 489.9 297.15002 489.9 297.55 L 489.9 302.8 L 489.55 303.75 Z M 451.65 310.05 L 488.4 302.8 L 488.4 297.55 L 451.65 297.55 L 451.65 310.05 Z M 454.65 300.55 L 484.25 300.55 L 454.65 306.4 L 454.65 300.55 Z M 456.15 304.6 L 468.95 302.05 L 456.15 302.05 L 456.15 304.6 Z"/>
			<path fill="#D3E1E7" stroke-linecap="round" stroke-linejoin="round" d="M 488.4 302.8 L 451.65 310.05 L 451.65 297.55 L 488.4 297.55 L 488.4 302.8 Z M 484.25 300.55 L 454.65 300.55 L 454.65 306.4 L 484.25 300.55 Z"/>
			<path fill="#9EBBC7" stroke-linecap="round" stroke-linejoin="round" d="M 488.1 202.45 L 488.3 203.25 L 488.3 207.9 L 488.0 208.8 L 487.2 209.35 L 458.9 217.45 L 486.65 214.75 L 487.45 214.9 L 488.1 215.45 L 488.3 216.25 L 488.3 220.9 L 488.0 221.8 L 487.2 222.35 L 453.6 231.95 L 452.7 231.95 L 452.0 231.4 C 451.80002 231.13333 451.7 230.83333 451.7 230.5 L 451.7 219.5 C 451.7 219.13333 451.83334 218.81667 452.1 218.55 L 452.0 218.4 C 451.80002 218.13333 451.7 217.83333 451.7 217.5 L 451.7 206.5 C 451.7 206.13333 451.83334 205.8 452.1 205.5 C 452.36667 205.2 452.68332 205.03333 453.05 205.0 L 486.65 201.75 L 487.45 201.9 L 488.1 202.45 Z M 485.05 208.4 L 486.8 207.9 L 486.8 203.25 L 485.05 203.45 L 456.8 206.15 L 453.2 206.5 L 453.2 217.5 L 456.8 216.5 L 485.05 208.4 Z M 485.05 221.4 L 486.8 220.9 L 486.8 216.25 L 485.05 216.45 L 456.8 219.15 L 453.2 219.5 L 453.2 230.5 L 456.8 229.5 L 485.05 221.4 Z"/>
			<path fill="#BDD6DB" stroke-linecap="round" stroke-linejoin="round" d="M 486.8 207.9 L 485.05 208.4 L 485.05 203.45 L 486.8 203.25 L 486.8 207.9 Z M 456.8 216.5 L 453.2 217.5 L 453.2 206.5 L 456.8 206.15 L 456.8 216.5 Z M 485.05 221.4 L 485.05 216.45 L 486.8 216.25 L 486.8 220.9 L 485.05 221.4 Z M 456.8 219.15 L 456.8 229.5 L 453.2 230.5 L 453.2 219.5 L 456.8 219.15 Z"/>
			<path fill="#D3E1E7" stroke-linecap="round" stroke-linejoin="round" d="M 485.05 203.45 L 485.05 208.4 L 456.8 216.5 L 456.8 206.15 L 485.05 203.45 Z M 485.05 216.45 L 485.05 221.4 L 456.8 229.5 L 456.8 219.15 L 485.05 216.45 Z"/>
		</g>
	</g>
</svg>
