<?xml version="1.0" encoding="utf-8"?>
<!-- Generator: Adobe Illustrator 16.0.0, SVG Export Plug-In . SVG Version: 6.00 Build 0)  -->
<!DOCTYPE svg PUBLIC "-//W3C//DTD SVG 1.1//EN" "http://www.w3.org/Graphics/SVG/1.1/DTD/svg11.dtd">
<svg version="1.1" id="Layer_1" xmlns:ev="http://www.w3.org/2001/xml-events"
	 xmlns="http://www.w3.org/2000/svg" xmlns:xlink="http://www.w3.org/1999/xlink" x="0px" y="0px" width="1200px" height="800px"
	 viewBox="0 0 1200 800" enable-background="new 0 0 1200 800" xml:space="preserve">
<g>
	<g transform="matrix(1.0 0.0 0.0 1.0 0.0 0.0)">
		<path fill="#8BB54A" d="M980,340l50,25l-6.25,3.15l-0.45,0.25L980,390l-6.2-3.1l43.7-21.85l-43.75-21.9L980,340z"/>
		<path fill="#D9D3BF" d="M973.75,343.15l43.75,21.9l-43.7,21.85l-6.3-3.15L1005,365l-37.5-18.75L973.75,343.15z M1023.3,368.4
			l0.45-0.25L1023.3,368.4z"/>
		<path fill="#7DA343" d="M973.8,386.9l6.2,3.1v7.5l-6.2-3.1V386.9z"/>
		<path fill="#74973E" d="M980,390l43.3-21.6l0.45-0.25L1030,365v7.5l-50,25V390z"/>
		<path fill="#9E7758" d="M1030,372.5v7.5l-50,25v-7.5L1030,372.5z"/>
		<path fill="#BB8D5D" d="M980,405l-50-25v-7.5l37.5,18.75l6.3,3.15l6.2,3.1V405z"/>
		<path fill="#595959" d="M930,372.5V365l37.5,18.75v7.5L930,372.5z"/>
		<path fill="#6A6A6A" d="M930,365l37.5-18.75L1005,365l-37.5,18.75L930,365z"/>
		<path fill="#BCB38F" d="M973.8,386.9v7.5l-6.3-3.15v-7.5L973.8,386.9z"/>
		<path fill="#6A6A6A" d="M882.5,346.25L920,365l-37.5,18.75L845,365L882.5,346.25z"/>
		<path fill="#8BB54A" d="M876.2,343.15v0.05l-43.7,21.85l43.75,21.85L870,390l-50-25l50-25L876.2,343.15z"/>
		<path fill="#D9D3BF" d="M876.2,343.2l0.05-0.05l6.25,3.1L845,365l37.5,18.75c-2.066,1.067-4.15,2.117-6.25,3.15l-43.75-21.85
			L876.2,343.2z"/>
		<path fill="#515151" d="M920,365v7.5l-37.5,18.75v-7.5L920,365z"/>
		<path fill="#9E7758" d="M920,372.5v7.5l-50,25v-7.5l6.25-3.1c2.1-1.033,4.184-2.083,6.25-3.15L920,372.5z"/>
		<path fill="#BB8D5D" d="M870,405l-50-25v-7.5l50,25V405z"/>
		<path fill="#7DA343" d="M820,372.5V365l50,25v7.5L820,372.5z"/>
		<path fill="#ACA075" d="M882.5,391.25c-2.066,1.067-4.15,2.117-6.25,3.15v-7.5c2.1-1.033,4.184-2.083,6.25-3.15V391.25z"/>
		<path fill="#74973E" d="M876.25,394.4l-6.25,3.1V390l6.25-3.1V394.4z"/>
		<path fill="#DFDBCA" d="M326.25,183.15l6.25,3.1l-50,10l-6.25-3.1l29.1-5.8L326.25,183.15z M357.5,198.75l6.25,3.15l-50,10
			l-6.25-3.15L357.5,198.75z"/>
		<path fill="#777777" d="M332.5,186.25l25,12.5l-50,10l-25-12.5L332.5,186.25z"/>
		<path fill="#8BB54A" d="M363.75,201.9L370,205l-50,25l-6.25-3.1L363.75,201.9z M270,205l6.25-3.1v6.25L270,205z M305.35,187.35
			L320,180l6.25,3.15L305.35,187.35z"/>
		<path fill="#74973E" d="M370,205v7.5l-50,25V230L370,205z"/>
		<path fill="#9E7758" d="M370,212.5v7.5l-50,25v-7.5L370,212.5z"/>
		<path fill="#BB8D5D" d="M320,245l-50-25v-7.5l6.25,3.15l6.25,3.1l25,12.5l6.25,3.15l6.25,3.1V245z"/>
		<path fill="#7DA343" d="M270,212.5V205l6.25,3.15v7.5L270,212.5z M313.75,226.9L320,230v7.5l-6.25-3.1V226.9z"/>
		<path fill="#BCB38F" d="M276.25,201.9v-8.75l6.25,3.1v22.5l-6.25-3.1v-7.5V201.9z M307.5,208.75l6.25,3.15v15v7.5l-6.25-3.15
			V208.75z"/>
		<path fill="#ACA075" d="M313.75,211.9l50-10l-50,25V211.9z"/>
		<path fill="#595959" d="M307.5,231.25l-25-12.5v-22.5l25,12.5V231.25z"/>
		<path fill="#DFDBCA" d="M222.5,208.75l-6.25,3.15l-50-10l6.25-3.15L222.5,208.75z M247.5,196.25l-50-10l6.25-3.1l20.9,4.2
			l29.1,5.8L247.5,196.25z"/>
		<path fill="#ACA075" d="M216.25,211.9l6.25-3.15v22.5l-6.25,3.15v-7.5V211.9z M253.75,201.9v6.25v7.5l-6.25,3.1v-22.5l6.25-3.1
			V201.9z"/>
		<path fill="#BCB38F" d="M216.25,211.9v15l-50-25L216.25,211.9z"/>
		<path fill="#74973E" d="M216.25,226.9v7.5l-6.25,3.1V230L216.25,226.9z M253.75,208.15L260,205v7.5l-6.25,3.15V208.15z"/>
		<path fill="#9E7758" d="M216.25,234.4l6.25-3.15l25-12.5l6.25-3.1l6.25-3.15v7.5l-50,25v-7.5L216.25,234.4z"/>
		<path fill="#515151" d="M222.5,231.25v-22.5l25-12.5v22.5L222.5,231.25z"/>
		<path fill="#777777" d="M222.5,208.75l-50-10l25-12.5l50,10L222.5,208.75z"/>
		<path fill="#8BB54A" d="M260,205l-6.25,3.15v-6.25L260,205z M224.65,187.35l-20.9-4.2L210,180L224.65,187.35z M160,205l6.25-3.1
			l50,25L210,230L160,205z"/>
		<path fill="#7DA343" d="M160,205l50,25v7.5l-50-25V205z"/>
		<path fill="#BB8D5D" d="M210,237.5v7.5l-50-25v-7.5L210,237.5z"/>
		<path fill="#93BA56" d="M490.05,190.05L540,180l6.25,3.15l-50,10L490.05,190.05z M583.75,201.9L590,205l-49.95,10.05l-6.3-3.15
			L583.75,201.9z M540.05,215.05H540H540.05z"/>
		<path fill="#DFDBCA" d="M546.25,183.15l6.25,3.1l-50,10l-6.25-3.1L546.25,183.15z M577.5,198.75l6.25,3.15l-50,10l-6.25-3.15
			L577.5,198.75z"/>
		<path fill="#777777" d="M552.5,186.25l25,12.5l-50,10l-25-12.5L552.5,186.25z"/>
		<path fill="#74973E" d="M590,205v7.5l-50,25v-22.45L590,205z M540,215.05h0.05H540z"/>
		<path fill="#9E7758" d="M590,212.5v7.5l-50,25v-7.5L590,212.5z"/>
		<path fill="#BB8D5D" d="M540,245l-50-25v-7.5l6.25,3.15l6.25,3.1l25,12.5l6.25,3.15l6.25,3.1V245z"/>
		<path fill="#7DA343" d="M490,190.05h0.05l6.2,3.1v22.5L490,212.5V190.05z M540,215.05v22.45l-6.25-3.1v-22.5L540,215.05z"/>
		<path fill="#BCB38F" d="M527.5,208.75l6.25,3.15v22.5l-6.25-3.15V208.75z M502.5,196.25v22.5l-6.25-3.1v-22.5L502.5,196.25z"/>
		<path fill="#595959" d="M502.5,196.25l25,12.5v22.5l-25-12.5V196.25z"/>
		<path fill="#ACA075" d="M540,215.05h0.05H540z"/>
		<path fill="#9ABE63" d="M380,205l6.25-3.1l50,10l-6.25,3.15L380,205z M423.75,183.15L430,180l50,10.05l-6.25,3.1L423.75,183.15z"
			/>
		<path fill="#7DA343" d="M380,205l50,10.05v22.45l-50-25V205z"/>
		<path fill="#74973E" d="M430,215.05l6.25-3.15v22.5l-6.25,3.1V215.05z M480,190.05v22.45l-6.25,3.15v-22.5L480,190.05z"/>
		<path fill="#DFDBCA" d="M436.25,211.9l-50-10l6.25-3.15l50,10L436.25,211.9z M417.5,186.25l6.25-3.1l50,10l-6.25,3.1L417.5,186.25
			z"/>
		<path fill="#777777" d="M392.5,198.75l25-12.5l50,10l-25,12.5L392.5,198.75z"/>
		<path fill="#9E7758" d="M480,212.5v7.5l-50,25v-7.5l6.25-3.1l6.25-3.15l25-12.5l6.25-3.1L480,212.5z"/>
		<path fill="#BB8D5D" d="M430,245l-50-25v-7.5l50,25V245z"/>
		<path fill="#ACA075" d="M436.25,211.9l6.25-3.15v22.5l-6.25,3.15V211.9z M473.75,193.15v22.5l-6.25,3.1v-22.5L473.75,193.15z"/>
		<path fill="#515151" d="M442.5,208.75l25-12.5v22.5l-25,12.5V208.75z"/>
		<path fill="#6A6A6A" d="M942.5,211.25l3.85-1.9c22.134-10.5,44.018-10.784,65.65-0.85l5.5,2.75l-25,12.5l-3.55-1.8
			c-6.101-2.5-12.3-2.367-18.601,0.4l-2.85,1.4L942.5,211.25z"/>
		<path fill="#D9D3BF" d="M946.35,209.35l-3.85,1.9l-6.25-3.1l6.25-3.1c2.3-1.066,4.583-2.017,6.85-2.85
			c13.067-4.967,25.95-6.867,38.65-5.7c8.833,0.833,17.583,3.133,26.25,6.9l9.5,4.75l-6.25,3.1l-5.5-2.75
			C990.366,198.566,968.483,198.85,946.35,209.35z M967.5,223.75l2.85-1.4c6.301-2.767,12.5-2.9,18.601-0.4l3.55,1.8l-6.25,3.15
			l-1.4-0.7c-3.333-1.434-6.767-1.317-10.3,0.35l-0.75,0.35L967.5,223.75z M973.8,226.9h-0.05H973.8z"/>
		<path fill="#ACA075" d="M1017.5,211.25l6.25-3.1v7.5l-6.25,3.1V211.25z M992.5,223.75v7.5l-6.25,3.15v-7.5L992.5,223.75z"/>
		<path fill="#8BB54A" d="M1023.75,208.15l-9.5-4.75c-8.667-3.767-17.417-6.066-26.25-6.9c-12.7-1.167-25.583,0.733-38.65,5.7
			c-2.267,0.833-4.55,1.783-6.85,2.85l-6.25,3.1L930,205l50-25l50,25L1023.75,208.15z M973.75,226.9h0.05l0.75-0.35
			c3.533-1.667,6.967-1.783,10.3-0.35l1.4,0.7L980,230L973.75,226.9z"/>
		<path fill="#BCB38F" d="M936.25,208.15l6.25,3.1v7.5l-6.25-3.1V208.15z M967.5,231.25v-7.5l6.25,3.15v7.5L967.5,231.25z"/>
		<path fill="#595959" d="M942.5,211.25l25,12.5v7.5l-25-12.5V211.25z"/>
		<path fill="#515151" d="M992.5,223.75l25-12.5v7.5l-25,12.5V223.75z"/>
		<path fill="#9E7758" d="M1017.5,218.75l6.25-3.1l6.25-3.15v7.5l-50,25v-7.5l6.25-3.1l6.25-3.15L1017.5,218.75z"/>
		<path fill="#74973E" d="M1023.75,215.65v-7.5L1030,205v7.5L1023.75,215.65z M986.25,226.9v7.5l-6.25,3.1V230L986.25,226.9z"/>
		<path fill="#7DA343" d="M930,205l6.25,3.15v7.5L930,212.5V205z M980,230v7.5l-6.25-3.1v-7.5L980,230z"/>
		<path fill="#BB8D5D" d="M936.25,215.65l6.25,3.1l25,12.5l6.25,3.15l6.25,3.1v7.5l-50-25v-7.5L936.25,215.65z"/>
		<path fill="#BB8D5D" d="M100,405l-50-25v-7.5l50,25V405z"/>
		<path fill="#7DA343" d="M50,372.5V365l50,25v7.5L50,372.5z"/>
		<path fill="#8BB54A" d="M50,365l50-25l50,25l-50,25L50,365z"/>
		<path fill="#74973E" d="M150,365v7.5l-50,25V390L150,365z"/>
		<path fill="#9E7758" d="M150,372.5v7.5l-50,25v-7.5L150,372.5z"/>
		<path fill="#D9D3BF" d="M56.25,201.9l6.25-3.15l50,25l-6.25,3.15L56.25,201.9z M87.5,186.25l6.25-3.1l50,25l-6.25,3.1L87.5,186.25
			z"/>
		<path fill="#8BB54A" d="M56.25,201.9l50,25L100,230l-50-25L56.25,201.9z M93.75,183.15L100,180l50,25l-6.25,3.15L93.75,183.15z"/>
		<path fill="#ACA075" d="M106.25,226.9l6.25-3.15v7.5l-6.25,3.15V226.9z M137.5,218.75v-7.5l6.25-3.1v7.5L137.5,218.75z"/>
		<path fill="#6A6A6A" d="M112.5,223.75l-50-25l25-12.5l50,25L112.5,223.75z"/>
		<path fill="#74973E" d="M150,205v7.5l-6.25,3.15v-7.5L150,205z M100,237.5V230l6.25-3.1v7.5L100,237.5z"/>
		<path fill="#9E7758" d="M150,212.5v7.5l-50,25v-7.5l6.25-3.1l6.25-3.15l25-12.5l6.25-3.1L150,212.5z"/>
		<path fill="#BB8D5D" d="M100,245l-50-25v-7.5l50,25V245z"/>
		<path fill="#7DA343" d="M50,212.5V205l50,25v7.5L50,212.5z"/>
		<path fill="#515151" d="M112.5,231.25v-7.5l25-12.5v7.5L112.5,231.25z"/>
		<path fill="#8BB54A" d="M56.25,133.15L50,130l50-25l6.25,3.15L56.25,133.15z M100,155l-6.25-3.1l50-25L150,130L100,155z"/>
		<path fill="#7DA343" d="M50,130l6.25,3.15v7.5L50,137.5V130z M93.75,159.4v-7.5L100,155v7.5L93.75,159.4z"/>
		<path fill="#BB8D5D" d="M50,137.5l6.25,3.15l6.25,3.1l25,12.5l6.25,3.15l6.25,3.1v7.5l-50-25V137.5z"/>
		<path fill="#BCB38F" d="M56.25,140.65v-7.5l6.25,3.1v7.5L56.25,140.65z M93.75,151.9v7.5l-6.25-3.15v-7.5L93.75,151.9z"/>
		<path fill="#D9D3BF" d="M56.25,133.15l50-25l6.25,3.1l-50,25L56.25,133.15z M93.75,151.9l-6.25-3.15l50-25l6.25,3.15L93.75,151.9z
			"/>
		<path fill="#74973E" d="M100,162.5V155l50-25v7.5L100,162.5z"/>
		<path fill="#595959" d="M87.5,148.75v7.5l-25-12.5v-7.5L87.5,148.75z"/>
		<path fill="#9E7758" d="M100,170v-7.5l50-25v7.5L100,170z"/>
		<path fill="#6A6A6A" d="M87.5,148.75l-25-12.5l50-25l25,12.5L87.5,148.75z"/>
		<path fill="#BB8D5D" d="M160,297.5l6.25,3.15l6.25,3.1l25,12.5l6.25,3.15l6.25,3.1v7.5l-50-25V297.5z"/>
		<path fill="#7DA343" d="M166.25,300.65L160,297.5V290l6.25,3.15V300.65z M210,322.5l-6.25-3.1v-7.5L210,315V322.5z"/>
		<path fill="#BCB38F" d="M166.25,300.65v-7.5l6.25,3.1v7.5L166.25,300.65z M203.75,319.4l-6.25-3.15v-7.5l6.25,3.15V319.4z"/>
		<path fill="#8BB54A" d="M166.25,293.15L160,290l27.2-13.55L166.25,293.15z M210,315l-6.25-3.1l50-25L260,290L210,315z"/>
		<path fill="#9E7758" d="M210,330v-7.5l50-25v7.5L210,330z"/>
		<path fill="#595959" d="M197.5,316.25l-25-12.5v-7.5l25,12.5V316.25z"/>
		<path fill="#777777" d="M197.5,308.75l-25-12.5l50-40l25,12.5L197.5,308.75z"/>
		<path fill="#DFDBCA" d="M172.5,296.25l-6.25-3.1l20.95-16.7l29.05-23.3l6.25,3.1L172.5,296.25z M203.75,311.9l-6.25-3.15l50-40
			l6.25,3.15L203.75,311.9z"/>
		<path fill="#74973E" d="M210,322.5V315l50-25v7.5L210,322.5z"/>
		<path fill="#ACA075" d="M253.75,286.9l-50,25l50-40V286.9z"/>
		<path fill="#74973E" d="M150,290v15l-50,25v-15L150,290z"/>
		<path fill="#7DA343" d="M100,330l-50-25v-15l50,25V330z"/>
		<path fill="#8BB54A" d="M50,290l50-25l50,25l-50,25L50,290z"/>
		<path fill="#DFDBCA" d="M307.5,256.25l6.25-3.1l29.05,23.3l20.95,16.7l-6.25,3.1L307.5,256.25z M276.25,271.9l6.25-3.15l50,40
			l-6.25,3.15L276.25,271.9z"/>
		<path fill="#8BB54A" d="M342.8,276.45L370,290c-2.066,1.067-4.15,2.117-6.25,3.15L342.8,276.45z M270,290l6.25-3.1l50,25L320,315
			L270,290z"/>
		<path fill="#74973E" d="M370,290v7.5c-2.066,1.067-4.15,2.117-6.25,3.15v-7.5C365.85,292.117,367.934,291.067,370,290z
			 M326.25,311.9v7.5l-6.25,3.1V315L326.25,311.9z"/>
		<path fill="#9E7758" d="M370,297.5v7.5l-50,25v-7.5l6.25-3.1l6.25-3.15l25-12.5l6.25-3.1
			C365.85,299.617,367.934,298.567,370,297.5z"/>
		<path fill="#BB8D5D" d="M320,330l-50-25v-7.5l50,25V330z"/>
		<path fill="#7DA343" d="M270,297.5V290l50,25v7.5L270,297.5z"/>
		<path fill="#BCB38F" d="M276.25,286.9v-15l50,40L276.25,286.9z"/>
		<path fill="#777777" d="M282.5,268.75l25-12.5l50,40l-25,12.5L282.5,268.75z"/>
		<path fill="#ACA075" d="M357.5,296.25l6.25-3.1v7.5l-6.25,3.1V296.25z M326.25,319.4v-7.5l6.25-3.15v7.5L326.25,319.4z"/>
		<path fill="#515151" d="M332.5,316.25v-7.5l25-12.5v7.5L332.5,316.25z"/>
		<path fill="#9E7758" d="M150,52.5V60l-50,25v-7.5l6.25-3.1l6.25-3.15l25-12.5l6.25-3.1L150,52.5z"/>
		<path fill="#BB8D5D" d="M100,85L50,60v-7.5l6.25,3.15l6.25,3.1l25,12.5l6.25,3.15l6.25,3.1V85z"/>
		<path fill="#7DA343" d="M50,52.5V45l6.25,3.15v7.5L50,52.5z M93.75,74.4v-7.5L100,70v7.5L93.75,74.4z"/>
		<path fill="#8BB54A" d="M50,45l6.25-3.1l6.25,3.15l-6.25,3.1L50,45z M93.8,23.15L100,20l6.25,3.15L100,26.3L93.8,23.15z
			 M143.75,41.9L150,45l-6.25,3.15l-6.25-3.1L143.75,41.9z M100,70l-6.25-3.1l6.25-3.1l6.25,3.1L100,70z"/>
		<path fill="#D9D3BF" d="M56.25,41.9l6.25-3.15L75,45l-12.5,6.25l-6.25-3.1l6.25-3.1L56.25,41.9z M93.75,23.15h0.05l6.2,3.15
			l6.25-3.15l6.25,3.1L100,32.5l-12.5-6.25L93.75,23.15z M137.5,38.75l6.25,3.15l-6.25,3.15l6.25,3.1l-6.25,3.1L125,45L137.5,38.75z
			 M93.75,66.9l-6.25-3.15L100,57.5l12.5,6.25l-6.25,3.15L100,63.8L93.75,66.9z"/>
		<path fill="#6A6A6A" d="M62.5,38.75l25-12.5L100,32.5l12.5-6.25l25,12.5L125,45l12.5,6.25l-25,12.5L100,57.5l-12.5,6.25l-25-12.5
			L75,45L62.5,38.75z"/>
		<path fill="#74973E" d="M150,45v7.5l-6.25,3.15v-7.5L150,45z M106.25,74.4L100,77.5V70l6.25-3.1V74.4z"/>
		<path fill="#ACA075" d="M143.75,55.65l-6.25,3.1v-7.5l6.25-3.1V55.65z M112.5,71.25l-6.25,3.15v-7.5l6.25-3.15V71.25z"/>
		<path fill="#515151" d="M137.5,58.75l-25,12.5v-7.5l25-12.5V58.75z"/>
		<path fill="#BCB38F" d="M56.25,48.15l6.25,3.1v7.5l-6.25-3.1V48.15z M87.5,71.25v-7.5l6.25,3.15v7.5L87.5,71.25z"/>
		<path fill="#595959" d="M62.5,58.75v-7.5l25,12.5v7.5L62.5,58.75z"/>
		<path fill="#6A6A6A" d="M722.5,283.75l25-12.5l12.5,6.25l12.5-6.25l25,12.5l-50,25l-25-12.5L735,290L722.5,283.75z"/>
		<path fill="#D9D3BF" d="M753.75,268.15h0.05l6.2,3.15l6.25-3.15l6.25,3.1L760,277.5l-12.5-6.25L753.75,268.15z M797.5,283.75
			l6.25,3.15l-50,25l-6.25-3.15L797.5,283.75z M716.25,286.9c2.1-1.033,4.184-2.083,6.25-3.15L735,290l-12.5,6.25l-6.25-3.1
			l6.25-3.1L716.25,286.9z"/>
		<path fill="#8BB54A" d="M753.8,268.15L760,265l6.25,3.15L760,271.3L753.8,268.15z M803.75,286.9L810,290l-50,25l-6.25-3.1
			L803.75,286.9z M710,290l6.25-3.1l6.25,3.15l-6.25,3.1L710,290z"/>
		<path fill="#74973E" d="M810,290v7.5l-50,25V315L810,290z"/>
		<path fill="#9E7758" d="M810,297.5v7.5l-50,25v-7.5L810,297.5z"/>
		<path fill="#BB8D5D" d="M760,330l-50-25v-7.5l6.25,3.15l6.25,3.1l25,12.5l6.25,3.15l6.25,3.1V330z"/>
		<path fill="#7DA343" d="M710,297.5V290l6.25,3.15v7.5L710,297.5z M753.75,319.4v-7.5L760,315v7.5L753.75,319.4z"/>
		<path fill="#595959" d="M722.5,296.25l25,12.5v7.5l-25-12.5V296.25z"/>
		<path fill="#BCB38F" d="M722.5,296.25v7.5l-6.25-3.1v-7.5L722.5,296.25z M747.5,316.25v-7.5l6.25,3.15v7.5L747.5,316.25z"/>
		<path fill="#D9D3BF" d="M747.5,186.25l6.25-3.1l6.25,3.15l6.2-3.15l6.3,3.1L760,192.5L747.5,186.25z M766.2,183.15h0.05H766.2z
			 M797.5,198.75l6.25,3.15l-6.25,3.15l6.25,3.1l-6.25,3.1L785,205L797.5,198.75z M716.25,201.9c2.1-1.033,4.184-2.083,6.25-3.15
			l50,25l-6.25,3.15L716.25,201.9z"/>
		<path fill="#8BB54A" d="M753.75,183.15L760,180l6.2,3.15l-6.2,3.15L753.75,183.15z M803.75,201.9L810,205l-6.25,3.15l-6.25-3.1
			L803.75,201.9z M710,205l6.25-3.1l50,25L760,230L710,205z"/>
		<path fill="#6A6A6A" d="M772.5,186.25l25,12.5L785,205l12.5,6.25l-25,12.5l-50-25l25-12.5l12.5,6.25L772.5,186.25z"/>
		<path fill="#74973E" d="M810,205v7.5l-6.25,3.15v-7.5L810,205z M760,230l6.25-3.1v7.5l-6.25,3.1V230z"/>
		<path fill="#9E7758" d="M810,212.5v7.5l-50,25v-7.5l6.25-3.1l6.25-3.15l25-12.5l6.25-3.1L810,212.5z"/>
		<path fill="#BB8D5D" d="M760,245l-50-25v-7.5l50,25V245z"/>
		<path fill="#7DA343" d="M710,212.5V205l50,25v7.5L710,212.5z"/>
		<path fill="#ACA075" d="M766.25,234.4v-7.5l6.25-3.15v7.5L766.25,234.4z M797.5,218.75v-7.5l6.25-3.1v7.5L797.5,218.75z"/>
		<path fill="#515151" d="M772.5,231.25v-7.5l25-12.5v7.5L772.5,231.25z"/>
		<path fill="#D9D3BF" d="M693.75,208.15l-6.25,3.1l-50-25l6.25-3.1L693.75,208.15z M606.25,208.15l6.25-3.1l-6.25-3.15l6.25-3.15
			L625,205l-12.5,6.25L606.25,208.15z M637.5,223.75l12.5-6.25l12.5,6.25l-6.25,3.15l-6.25-3.1l-6.25,3.1L637.5,223.75z"/>
		<path fill="#ACA075" d="M687.5,211.25l6.25-3.1v7.5l-6.25,3.1V211.25z M662.5,223.75v7.5l-6.25,3.15v-7.5L662.5,223.75z"/>
		<path fill="#515151" d="M687.5,211.25v7.5l-25,12.5v-7.5L687.5,211.25z"/>
		<path fill="#9E7758" d="M687.5,218.75l6.25-3.1l6.25-3.15v7.5l-50,25v-7.5l6.25-3.1l6.25-3.15L687.5,218.75z"/>
		<path fill="#74973E" d="M693.75,215.65v-7.5L700,205v7.5L693.75,215.65z M656.25,226.9v7.5l-6.25,3.1V230L656.25,226.9z"/>
		<path fill="#8BB54A" d="M693.75,208.15l-50-25L650,180l50,25L693.75,208.15z M606.25,208.15L600,205l6.25-3.1l6.25,3.15
			L606.25,208.15z M650,230l-6.25-3.1l6.25-3.1l6.25,3.1L650,230z"/>
		<path fill="#6A6A6A" d="M637.5,186.25l50,25l-25,12.5L650,217.5l-12.5,6.25l-25-12.5L625,205l-12.5-6.25L637.5,186.25z"/>
		<path fill="#7DA343" d="M600,205l6.25,3.15v7.5L600,212.5V205z M650,237.5l-6.25-3.1v-7.5L650,230V237.5z"/>
		<path fill="#BB8D5D" d="M600,212.5l6.25,3.15l6.25,3.1l25,12.5l6.25,3.15l6.25,3.1v7.5l-50-25V212.5z"/>
		<path fill="#BCB38F" d="M606.25,215.65v-7.5l6.25,3.1v7.5L606.25,215.65z M643.75,234.4l-6.25-3.15v-7.5l6.25,3.15V234.4z"/>
		<path fill="#595959" d="M637.5,231.25l-25-12.5v-7.5l25,12.5V231.25z"/>
		<path fill="#D9D3BF" d="M656.25,268.15l6.25,3.1l-50,25l-6.25-3.1L656.25,268.15z M687.5,283.75l6.25,3.15l-6.25,3.15l6.25,3.1
			l-0.45,0.25l-5.8,2.85L675,290L687.5,283.75z M650,302.5l12.5,6.25l-5.8,2.95l-0.45,0.2l-6.25-3.1l-6.25,3.1l-6.25-3.15L650,302.5
			z"/>
		<path fill="#6A6A6A" d="M662.5,271.25l25,12.5L675,290l12.5,6.25l-25,12.5L650,302.5l-12.5,6.25l-25-12.5L662.5,271.25z"/>
		<path fill="#8BB54A" d="M693.75,286.9L700,290l-6.25,3.15l-6.25-3.1L693.75,286.9z M600,290l50-25l6.25,3.15l-50,25L600,290z
			 M643.75,311.9l6.25-3.1l6.25,3.1L650,315L643.75,311.9z"/>
		<path fill="#74973E" d="M700,290v7.5l-6.25,3.15v-7.5L700,290z M693.75,293.15l-0.45,0.25L693.75,293.15z M656.25,319.4l-6.25,3.1
			V315l6.25-3.1V319.4z M656.25,311.9l0.45-0.2L656.25,311.9z"/>
		<path fill="#9E7758" d="M700,297.5v7.5l-50,25v-7.5l6.25-3.1l6.25-3.15l25-12.5l6.25-3.1L700,297.5z"/>
		<path fill="#BB8D5D" d="M650,330l-50-25v-7.5l6.25,3.15l6.25,3.1l25,12.5l6.25,3.15l6.25,3.1V330z"/>
		<path fill="#7DA343" d="M600,297.5V290l6.25,3.15v7.5L600,297.5z M643.75,311.9L650,315v7.5l-6.25-3.1V311.9z"/>
		<path fill="#BCB38F" d="M606.25,293.15l6.25,3.1v7.5l-6.25-3.1V293.15z M637.5,316.25v-7.5l6.25,3.15v7.5L637.5,316.25z"/>
		<path fill="#595959" d="M612.5,303.75v-7.5l25,12.5v7.5L612.5,303.75z"/>
		<path fill="#ACA075" d="M662.5,308.75v7.5l-6.25,3.15v-7.5l0.45-0.2L662.5,308.75z M687.5,303.75v-7.5l5.8-2.85l0.45-0.25v7.5
			L687.5,303.75z"/>
		<path fill="#515151" d="M662.5,316.25v-7.5l25-12.5v7.5L662.5,316.25z"/>
		<path fill="#8BB54A" d="M863.8,268.1l6.2-3.1l6.25,3.15l-1.4,0.65c-3.333,1.434-6.767,1.317-10.3-0.35L863.8,268.1z M913.75,286.9
			L920,290l-50,25l-50-25l6.3-3.1l6.2,3.05c2.3,1.066,4.583,2.017,6.85,2.85c13.067,4.967,25.95,6.867,38.65,5.7
			c8.833-0.833,17.583-3.133,26.25-6.9L913.75,286.9z"/>
		<path fill="#D9D3BF" d="M876.25,268.15l6.25,3.1l-3.55,1.8c-6.101,2.5-12.3,2.367-18.601-0.4l-2.85-1.4l6.3-3.15l0.75,0.35
			c3.533,1.667,6.967,1.783,10.3,0.35L876.25,268.15z M907.5,283.75l6.25,3.15l-9.5,4.7c-8.667,3.767-17.417,6.066-26.25,6.9
			c-12.7,1.167-25.583-0.733-38.65-5.7c-2.267-0.833-4.55-1.783-6.85-2.85l-6.2-3.05l6.2-3.15l3.85,1.9
			c22.134,10.5,44.018,10.783,65.65,0.85L907.5,283.75z"/>
		<path fill="#6A6A6A" d="M882.5,271.25l25,12.5l-5.5,2.75c-21.634,9.933-43.517,9.65-65.65-0.85l-3.85-1.9l25-12.5l2.85,1.4
			c6.301,2.767,12.5,2.9,18.601,0.4L882.5,271.25z"/>
		<path fill="#74973E" d="M920,290v7.5l-50,25V315L920,290z"/>
		<path fill="#9E7758" d="M920,297.5v7.5l-50,25v-7.5L920,297.5z"/>
		<path fill="#BB8D5D" d="M870,330l-50-25v-7.5l50,25V330z"/>
		<path fill="#7DA343" d="M820,297.5V290l50,25v7.5L820,297.5z"/>
		<path fill="#8BB54A" d="M320,415l50,25c-2.066,1.066-4.15,2.116-6.25,3.15l-0.45,0.25l-36.6,18.3l-0.45,0.2L320,465l-50-25
			l6.25-3.1L320,458.8l37.5-18.75l-43.75-21.899L320,415z"/>
		<path fill="#D9D3BF" d="M313.75,418.15l43.75,21.899L320,458.8L276.25,436.9l6.25-3.15L320,452.5l25-12.5l-37.5-18.75
			L313.75,418.15z M326.25,461.9l0.45-0.2L326.25,461.9z M363.3,443.4l0.45-0.25L363.3,443.4z"/>
		<path fill="#7DA343" d="M270,440l50,25v7.5l-50-25V440z"/>
		<path fill="#74973E" d="M320,465l6.25-3.1l0.45-0.2l36.6-18.3l0.45-0.25c2.1-1.034,4.184-2.084,6.25-3.15v7.5l-50,25V465z"/>
		<path fill="#9E7758" d="M370,447.5v7.5l-50,25v-7.5L370,447.5z"/>
		<path fill="#BB8D5D" d="M320,480l-50-25v-7.5l50,25V480z"/>
		<path fill="#6A6A6A" d="M307.5,421.25L345,440l-25,12.5l-37.5-18.75L307.5,421.25z"/>
		<path fill="#9E7758" d="M260,455l-50,25v-7.5l50-25V455z"/>
		<path fill="#74973E" d="M260,447.5l-50,25V465l50-25V447.5z"/>
		<path fill="#BB8D5D" d="M210,472.5v7.5l-50-25v-7.5L210,472.5z"/>
		<path fill="#7DA343" d="M160,447.5V440l6.25,3.15l0.45,0.25l36.65,18.3l0.4,0.2L210,465v7.5L160,447.5z"/>
		<path fill="#8BB54A" d="M160,440l50-25l6.25,3.15L172.5,440.05L210,458.8l43.75-21.899L260,440l-50,25l-6.25-3.1l-0.4-0.2
			l-36.65-18.3l-0.4-0.25L160,440z M166.3,443.15h-0.05H166.3z M203.75,461.9h0.05H203.75z"/>
		<path fill="#D9D3BF" d="M216.25,418.15l6.25,3.1L185,440l25,12.5l37.5-18.75l6.25,3.15L210,458.8l-37.5-18.75L216.25,418.15z
			 M166.25,443.15h0.05l0.4,0.25L166.25,443.15z M203.8,461.9h-0.05l-0.4-0.2L203.8,461.9z"/>
		<path fill="#6A6A6A" d="M222.5,421.25l25,12.5L210,452.5L185,440L222.5,421.25z"/>
		<path fill="#ACA075" d="M363.75,375.65l-6.25,3.1v-7.5l6.25-3.1V375.65z M332.5,391.25l-6.25,3.15v-7.5l6.25-3.15V391.25z"/>
		<path fill="#9E7758" d="M357.5,378.75l6.25-3.1c2.1-1.033,4.184-2.083,6.25-3.15v7.5l-50,25v-7.5l6.25-3.1l6.25-3.15L357.5,378.75
			z"/>
		<path fill="#515151" d="M357.5,378.75l-25,12.5v-7.5l25-12.5V378.75z"/>
		<path fill="#74973E" d="M326.25,394.4l-6.25,3.1V390l6.25-3.1V394.4z M370,372.5c-2.066,1.067-4.15,2.117-6.25,3.15v-7.5
			c2.1-1.033,4.184-2.083,6.25-3.15V372.5z"/>
		<path fill="#BB8D5D" d="M320,397.5v7.5l-50-25v-7.5L320,397.5z"/>
		<path fill="#D9D3BF" d="M363.75,368.15l-6.25,3.1L320,352.5L295,365l37.5,18.75l-6.25,3.15l-43.75-21.85L320,346.3L363.75,368.15z
			"/>
		<path fill="#8BB54A" d="M370,365c-2.066,1.067-4.15,2.117-6.25,3.15L320,346.3l-37.5,18.75l43.75,21.85L320,390l-50-25l50-25
			L370,365z"/>
		<path fill="#6A6A6A" d="M332.5,383.75L295,365l25-12.5l37.5,18.75L332.5,383.75z"/>
		<path fill="#7DA343" d="M270,365l50,25v7.5l-50-25V365z"/>
		<path fill="#9E7758" d="M260,372.5v7.5l-50,25v-7.5L260,372.5z"/>
		<path fill="#BB8D5D" d="M210,405l-50-25v-7.5l6.25,3.15l6.25,3.1l25,12.5l6.25,3.15l6.25,3.1V405z"/>
		<path fill="#7DA343" d="M160,372.5V365l6.25,3.15v7.5L160,372.5z M203.75,394.4v-7.5L210,390v7.5L203.75,394.4z"/>
		<path fill="#8BB54A" d="M160,365l50-25l50,25l-50,25l-6.25-3.1l43.75-21.85L210,346.3c-14.567,7.267-29.15,14.55-43.75,21.85
			L160,365z"/>
		<path fill="#74973E" d="M260,365v7.5l-50,25V390L260,365z"/>
		<path fill="#D9D3BF" d="M203.75,386.9l-6.25-3.15L235,365l-25-12.5l-37.5,18.75l-6.25-3.1c14.6-7.3,29.183-14.583,43.75-21.85
			l37.5,18.75L203.75,386.9z"/>
		<path fill="#BCB38F" d="M197.5,383.75l6.25,3.15v7.5l-6.25-3.15V383.75z M166.25,368.15l6.25,3.1v7.5l-6.25-3.1V368.15z"/>
		<path fill="#595959" d="M197.5,383.75v7.5l-25-12.5v-7.5L197.5,383.75z"/>
		<path fill="#6A6A6A" d="M172.5,371.25L210,352.5l25,12.5l-37.5,18.75L172.5,371.25z"/>
		<path fill="#9E7758" d="M480,297.5v7.5l-50,25v-7.5L480,297.5z"/>
		<path fill="#BB8D5D" d="M430,330l-50-25v-7.5l6.25,3.15l6.25,3.1l25,12.5l6.25,3.15l6.25,3.1V330z"/>
		<path fill="#7DA343" d="M386.25,300.65L380,297.5v-7.45l6.25,3.1V300.65z M423.75,319.4v-7.5l6.25,3.15v7.45L423.75,319.4z"/>
		<path fill="#8BB54A" d="M380.05,290.05L380,290l0.2-0.05L380.05,290.05z"/>
		<path fill="#93BA56" d="M380.2,289.95l49.8-39.9l6.25,3.1l-50,40l-6.2-3.05L380.2,289.95z M380.05,290.1v-0.05V290.1z
			 M473.75,271.9l6.25,3.15l-50,40l-6.25-3.15L473.75,271.9z"/>
		<path fill="#DFDBCA" d="M436.25,253.15l6.25,3.1l-50,40l-6.25-3.1L436.25,253.15z M467.5,268.75l6.25,3.15l-50,40l-6.25-3.15
			L467.5,268.75z"/>
		<path fill="#777777" d="M442.5,256.25l25,12.5l-50,40l-25-12.5L442.5,256.25z"/>
		<path fill="#74973E" d="M480,275.05v22.45l-50,25v-7.45L480,275.05z"/>
		<path fill="#BCB38F" d="M392.5,303.75l-6.25-3.1v-7.5l6.25,3.1V303.75z M417.5,316.25v-7.5l6.25,3.15v7.5L417.5,316.25z"/>
		<path fill="#595959" d="M392.5,303.75v-7.5l25,12.5v7.5L392.5,303.75z"/>
		<path fill="#DFDBCA" d="M527.5,256.25l6.25-3.1l50,40l-6.25,3.1L527.5,256.25z M496.25,271.9l6.25-3.15l50,40l-6.25,3.15
			L496.25,271.9z"/>
		<path fill="#9ABE63" d="M533.75,253.15l6.25-3.1l49.8,39.85l0.15,0.15l-6.2,3.1L533.75,253.15z M589.95,290.05H590H589.95z
			 M490,275.05l6.25-3.15l50,40L540,315L490,275.05z"/>
		<path fill="#8BB54A" d="M590,290l-0.05,0.05l-0.15-0.15L590,290z"/>
		<path fill="#74973E" d="M583.75,300.65v-7.5l6.25-3.1v7.45L583.75,300.65z M546.25,311.9v7.5l-6.25,3.1V315L546.25,311.9z"/>
		<path fill="#9E7758" d="M590,297.5v7.5l-50,25v-7.5l6.25-3.1l6.25-3.15l25-12.5l6.25-3.1L590,297.5z"/>
		<path fill="#BB8D5D" d="M540,330l-50-25v-7.5l50,25V330z"/>
		<path fill="#7DA343" d="M490,297.5v-22.45L540,315v7.5L490,297.5z"/>
		<path fill="#777777" d="M502.5,268.75l25-12.5l50,40l-25,12.5L502.5,268.75z"/>
		<path fill="#ACA075" d="M577.5,296.25l6.25-3.1v7.5l-6.25,3.1V296.25z M546.25,319.4v-7.5l6.25-3.15v7.5L546.25,319.4z"/>
		<path fill="#515151" d="M552.5,316.25v-7.5l25-12.5v7.5L552.5,316.25z"/>
		<path fill="#74973E" d="M590,45v7.5l-50,25V55.05L590,45z M540,55.05h0.05H540z"/>
		<path fill="#9E7758" d="M590,52.5V60l-50,25v-7.5L590,52.5z"/>
		<path fill="#BB8D5D" d="M540,85l-50-25v-7.5l50,25V85z"/>
		<path fill="#7DA343" d="M490,30.05h0.05l49.95,25V77.5l-50-25V30.05z"/>
		<path fill="#93BA56" d="M490.05,30.05L540,20l50,25l-49.95,10.05L490.05,30.05z M540.05,55.05H540H540.05z"/>
		<path fill="#74973E" d="M480,30.05V52.5l-50,25V55.05L480,30.05z"/>
		<path fill="#9ABE63" d="M480,30.05l-50,25L380,45l50-25L480,30.05z"/>
		<path fill="#7DA343" d="M430,55.05V77.5l-50-25V45L430,55.05z"/>
		<path fill="#9E7758" d="M430,77.5l50-25V60l-50,25V77.5z"/>
		<path fill="#BB8D5D" d="M430,85l-50-25v-7.5l50,25V85z"/>
		<path fill="#8BB54A" d="M380.05,130.05L380,130l0.2-0.05L380.05,130.05z"/>
		<path fill="#7DA343" d="M430,155.05v7.45l-50-25v-7.45L430,155.05z"/>
		<path fill="#93BA56" d="M380.2,129.95l49.8-39.9l50,25l-50,40l-49.95-24.95L380.2,129.95z M380.05,130.1v-0.05V130.1z"/>
		<path fill="#74973E" d="M480,115.05v22.45l-50,25v-7.45L480,115.05z"/>
		<path fill="#9E7758" d="M480,137.5v7.5l-50,25v-7.5L480,137.5z"/>
		<path fill="#BB8D5D" d="M430,170l-50-25v-7.5l50,25V170z"/>
		<path fill="#74973E" d="M540,162.5V155l50-24.95v7.45L540,162.5z"/>
		<path fill="#9E7758" d="M590,137.5v7.5l-50,25v-7.5L590,137.5z"/>
		<path fill="#BB8D5D" d="M540,170l-50-25v-7.5l50,25V170z"/>
		<path fill="#7DA343" d="M490,137.5v-22.45L540,155v7.5L490,137.5z"/>
		<path fill="#9ABE63" d="M490,115.05l50-25l49.8,39.85l0.15,0.15L540,155L490,115.05z M589.95,130.05H590H589.95z"/>
		<path fill="#8BB54A" d="M590,130l-0.05,0.05l-0.15-0.15L590,130z"/>
		<path fill="#74973E" d="M370,45v7.5l-50,25V70L370,45z"/>
		<path fill="#9E7758" d="M370,52.5V60l-50,25v-7.5L370,52.5z"/>
		<path fill="#BB8D5D" d="M320,85l-50-25v-7.5l50,25V85z"/>
		<path fill="#7DA343" d="M270,52.5V30.05h0.1L320,70v7.5L270,52.5z M270.1,30.05l0.05,0.05L270.1,30.05z"/>
		<path fill="#93BA56" d="M320,20l50,25l-99.85-14.95L320,20z M270.15,30.05h-0.05H270.15z"/>
		<path fill="#9ABE63" d="M370,45l-50,25l-49.85-39.9L370,45z"/>
		<path fill="#74973E" d="M260,30.05V52.5l-50,25V70L260,30.05z"/>
		<path fill="#93BA56" d="M260,30.05L210,70l-50-25L260,30.05z"/>
		<path fill="#7DA343" d="M210,70v7.5l-50-25V45L210,70z"/>
		<path fill="#9E7758" d="M210,77.5l50-25V60l-50,25V77.5z"/>
		<path fill="#BB8D5D" d="M210,85l-50-25v-7.5l50,25V85z"/>
		<path fill="#9ABE63" d="M160,45l50-25l50,10.05L160,45z"/>
		<path fill="#74973E" d="M260,130.05v7.45l-50,25v-7.45L260,130.05z"/>
		<path fill="#9E7758" d="M260,137.5v7.5l-50,25v-7.5L260,137.5z"/>
		<path fill="#BB8D5D" d="M210,170l-50-25v-7.5l50,25V170z"/>
		<path fill="#7DA343" d="M160.95,130.55l49.05,24.5v7.45l-50-25v-7.45L160.95,130.55z"/>
		<path fill="#8BB54A" d="M160.05,130.05L160,130l0.2-0.05L160.05,130.05z"/>
		<path fill="#93BA56" d="M160.2,129.95l49.8-39.9v65l-49.05-24.5l-0.8-0.45L160.2,129.95z"/>
		<path fill="#9ABE63" d="M210,90.05l50,40l-50,25V90.05z M160.05,130.1v-0.05l0.15-0.1l-0.05,0.15l0.8,0.45L160.05,130.1z"/>
		<path fill="#7DA343" d="M270,137.5V130l50,2.55v29.95L270,137.5z"/>
		<path fill="#9ABE63" d="M270,130l50-25v27.55L270,130z"/>
		<path fill="#93BA56" d="M320,105l49.8,24.9l-49.8,2.65V105z"/>
		<path fill="#8BB54A" d="M370,130l-0.05,0.05l-0.15-0.15L370,130z"/>
		<path fill="#74973E" d="M320,132.55l49.8-2.65l0.101,0.15L370,130v7.5l-50,25V132.55z M369.9,130.05l-2.301,1.2l2.4-1.2h-0.05
			H369.9z M370,130v0.05h-0.05L370,130z"/>
		<path fill="#9E7758" d="M370,137.5v7.5l-50,25v-7.5L370,137.5z"/>
		<path fill="#BB8D5D" d="M320,170l-50-25v-7.5l50,25V170z"/>
		<path fill="#BB8D5D" d="M100,547.5v7.5l-50-25v-7.5L100,547.5z"/>
		<path fill="#9E7758" d="M100,555v-7.5l50-25v7.5L100,555z"/>
		<path fill="#9CD5E2" d="M150,522.5l-50,25l-50-25l50-25L150,522.5z"/>
		<path fill="#6A6A6A" d="M93.75,418.15h0.05L100,415l50,25l-50,25l-50-25L93.75,418.15z"/>
		<path fill="#515151" d="M150,440v7.5l-50,25V465L150,440z"/>
		<path fill="#9E7758" d="M150,447.5v7.5l-50,25v-7.5L150,447.5z"/>
		<path fill="#BB8D5D" d="M100,480l-50-25v-7.5l50,25V480z"/>
		<path fill="#595959" d="M50,447.5V440l50,25v7.5L50,447.5z"/>
		<path fill="#9E7758" d="M700,447.5v7.5l-50,25v-7.5l6.25-3.1l6.25-3.15l25-12.5l6.25-3.1L700,447.5z"/>
		<path fill="#BB8D5D" d="M650,480l-50-25v-7.5l37.5,18.75l6.25,3.15l6.25,3.1V480z"/>
		<path fill="#595959" d="M600,447.5V440l37.5,18.75v7.5L600,447.5z"/>
		<path fill="#6A6A6A" d="M600,440l50-25l37.5,18.75L675,440l12.5,6.25l-25,12.5L650,452.5l-12.5,6.25L600,440z"/>
		<path fill="#D9D3BF" d="M687.5,433.75l6.25,3.15l-6.25,3.149l6.25,3.101l-6.25,3.1L675,440L687.5,433.75z M643.75,461.9
			l-6.25-3.15l12.5-6.25l12.5,6.25l-6.25,3.15L650,458.8L643.75,461.9z"/>
		<path fill="#8BB54A" d="M693.75,436.9L700,440l-6.25,3.15l-6.25-3.101L693.75,436.9z M656.25,461.9L650,465l-6.25-3.1L650,458.8
			L656.25,461.9z"/>
		<path fill="#74973E" d="M700,440v7.5l-6.25,3.15v-7.5L700,440z M656.25,469.4l-6.25,3.1V465l6.25-3.1V469.4z"/>
		<path fill="#ACA075" d="M693.75,450.65l-6.25,3.1v-7.5l6.25-3.1V450.65z M662.5,466.25l-6.25,3.15v-7.5l6.25-3.15V466.25z"/>
		<path fill="#515151" d="M687.5,453.75l-25,12.5v-7.5l25-12.5V453.75z"/>
		<path fill="#BCB38F" d="M637.5,466.25v-7.5l6.25,3.15v7.5L637.5,466.25z"/>
		<path fill="#7DA343" d="M643.75,469.4v-7.5L650,465v7.5L643.75,469.4z"/>
		<path fill="#8BB54A" d="M710,440l6.25-3.1l6.25,3.149l-6.25,3.101L710,440z M753.8,418.15L760,415l6.25,3.15L760,421.3
			L753.8,418.15z"/>
		<path fill="#D9D3BF" d="M716.25,436.9c2.1-1.034,4.184-2.084,6.25-3.15L735,440l-12.5,6.25l-6.25-3.1l6.25-3.101L716.25,436.9z
			 M753.75,418.15h0.05l6.2,3.149l6.25-3.149l6.25,3.1L760,427.5l-12.5-6.25L753.75,418.15z"/>
		<path fill="#6A6A6A" d="M722.5,433.75l25-12.5l12.5,6.25l12.5-6.25L810,440l-50,25l-37.5-18.75L735,440L722.5,433.75z"/>
		<path fill="#515151" d="M810,440v7.5l-50,25V465L810,440z"/>
		<path fill="#9E7758" d="M810,447.5v7.5l-50,25v-7.5L810,447.5z"/>
		<path fill="#BB8D5D" d="M760,480l-50-25v-7.5l6.25,3.15l6.25,3.1L760,472.5V480z"/>
		<path fill="#7DA343" d="M710,447.5V440l6.25,3.15v7.5L710,447.5z"/>
		<path fill="#595959" d="M760,465v7.5l-37.5-18.75v-7.5L760,465z"/>
		<path fill="#BCB38F" d="M722.5,446.25v7.5l-6.25-3.1v-7.5L722.5,446.25z"/>
		<path fill="#8BB54A" d="M753.75,343.15L760,340l6.2,3.15l-6.2,3.15L753.75,343.15z M803.75,361.9L810,365l-6.25,3.15l-6.25-3.1
			L803.75,361.9z"/>
		<path fill="#D9D3BF" d="M766.2,343.15h0.05l6.25,3.1L760,352.5l-12.5-6.25l6.25-3.1l6.25,3.15L766.2,343.15z M797.5,358.75
			l6.25,3.15l-6.25,3.15l6.25,3.1l-6.25,3.1L785,365L797.5,358.75z"/>
		<path fill="#6A6A6A" d="M772.5,346.25l25,12.5L785,365l12.5,6.25L760,390l-50-25l37.5-18.75l12.5,6.25L772.5,346.25z"/>
		<path fill="#74973E" d="M810,365v7.5l-6.25,3.15v-7.5L810,365z"/>
		<path fill="#9E7758" d="M810,372.5v7.5l-50,25v-7.5l37.5-18.75l6.25-3.1L810,372.5z"/>
		<path fill="#BB8D5D" d="M760,405l-50-25v-7.5l50,25V405z"/>
		<path fill="#595959" d="M710,372.5V365l50,25v7.5L710,372.5z"/>
		<path fill="#ACA075" d="M797.5,378.75v-7.5l6.25-3.1v7.5L797.5,378.75z"/>
		<path fill="#515151" d="M797.5,371.25v7.5L760,397.5V390L797.5,371.25z"/>
		<path fill="#9E7758" d="M700,380l-50,25v-7.5l6.25-3.1l6.25-3.15L700,372.5V380z"/>
		<path fill="#515151" d="M700,372.5l-37.5,18.75v-7.5L700,365V372.5z"/>
		<path fill="#ACA075" d="M662.5,391.25l-6.25,3.15v-7.5l6.25-3.15V391.25z"/>
		<path fill="#74973E" d="M656.25,394.4l-6.25,3.1V390l6.25-3.1V394.4z"/>
		<path fill="#BB8D5D" d="M650,397.5v7.5l-50-25v-7.5l6.25,3.15l6.25,3.1l25,12.5l6.25,3.15L650,397.5z"/>
		<path fill="#7DA343" d="M600,372.5V365l6.25,3.15v7.5L600,372.5z M643.75,394.4v-7.5L650,390v7.5L643.75,394.4z"/>
		<path fill="#8BB54A" d="M600,365l6.25-3.1l6.25,3.15l-6.25,3.1L600,365z M643.75,386.9l6.25-3.1l6.25,3.1L650,390L643.75,386.9z"
			/>
		<path fill="#D9D3BF" d="M606.25,361.9l6.25-3.15L625,365l-12.5,6.25l-6.25-3.1l6.25-3.1L606.25,361.9z M643.75,386.9l-6.25-3.15
			l12.5-6.25l12.5,6.25l-6.25,3.15l-6.25-3.1L643.75,386.9z"/>
		<path fill="#6A6A6A" d="M612.5,358.75L650,340l50,25l-37.5,18.75L650,377.5l-12.5,6.25l-25-12.5L625,365L612.5,358.75z"/>
		<path fill="#BCB38F" d="M637.5,383.75l6.25,3.15v7.5l-6.25-3.15V383.75z M612.5,371.25v7.5l-6.25-3.1v-7.5L612.5,371.25z"/>
		<path fill="#595959" d="M637.5,383.75v7.5l-25-12.5v-7.5L637.5,383.75z"/>
		<path fill="#8BB54A" d="M430,340l50,25l-6.25,3.15l-50-25L430,340z"/>
		<path fill="#D9D3BF" d="M423.75,343.15l50,25l-6.25,3.1l-50-25L423.75,343.15z"/>
		<path fill="#74973E" d="M473.75,368.15L480,365v7.5l-6.25,3.15V368.15z"/>
		<path fill="#9E7758" d="M480,372.5v7.5l-50,25v-7.5l37.5-18.75l6.25-3.1L480,372.5z"/>
		<path fill="#BB8D5D" d="M430,405l-50-25v-7.5l50,25V405z"/>
		<path fill="#595959" d="M380,372.5V365l50,25v7.5L380,372.5z"/>
		<path fill="#6A6A6A" d="M380,365l37.5-18.75l50,25L430,390L380,365z"/>
		<path fill="#ACA075" d="M473.75,368.15v7.5l-6.25,3.1v-7.5L473.75,368.15z"/>
		<path fill="#515151" d="M467.5,371.25v7.5L430,397.5V390L467.5,371.25z"/>
		<path fill="#8BB54A" d="M386.25,443.15L380,440l50-25l6.25,3.15L386.25,443.15z"/>
		<path fill="#7DA343" d="M380,440l6.25,3.15v7.5L380,447.5V440z"/>
		<path fill="#BB8D5D" d="M380,447.5l6.25,3.15l6.25,3.1L430,472.5v7.5l-50-25V447.5z"/>
		<path fill="#BCB38F" d="M386.25,450.65v-7.5l6.25,3.1v7.5L386.25,450.65z"/>
		<path fill="#D9D3BF" d="M386.25,443.15l50-25l6.25,3.1l-50,25L386.25,443.15z"/>
		<path fill="#6A6A6A" d="M442.5,421.25L480,440l-50,25l-37.5-18.75L442.5,421.25z"/>
		<path fill="#515151" d="M480,440v7.5l-50,25V465L480,440z"/>
		<path fill="#9E7758" d="M480,447.5v7.5l-50,25v-7.5L480,447.5z"/>
		<path fill="#595959" d="M430,465v7.5l-37.5-18.75v-7.5L430,465z"/>
		<path fill="#D9D3BF" d="M577.5,433.75l6.25,3.15l-50,25l-6.25-3.15L577.5,433.75z"/>
		<path fill="#8BB54A" d="M583.75,436.9L590,440l-50,25l-6.25-3.1L583.75,436.9z"/>
		<path fill="#74973E" d="M590,440v7.5l-50,25V465L590,440z"/>
		<path fill="#9E7758" d="M590,447.5v7.5l-50,25v-7.5L590,447.5z"/>
		<path fill="#BB8D5D" d="M540,480l-50-25v-7.5l37.5,18.75l6.25,3.15l6.25,3.1V480z"/>
		<path fill="#595959" d="M490,447.5V440l37.5,18.75v7.5L490,447.5z"/>
		<path fill="#6A6A6A" d="M533.75,418.15h0.05L540,415l37.5,18.75l-50,25L490,440L533.75,418.15z"/>
		<path fill="#BCB38F" d="M527.5,458.75l6.25,3.15v7.5l-6.25-3.15V458.75z"/>
		<path fill="#7DA343" d="M540,465v7.5l-6.25-3.1v-7.5L540,465z"/>
		<path fill="#6A6A6A" d="M502.5,358.75L540,340l6.2,3.15L590,365l-37.5,18.75L502.5,358.75z M546.2,343.15h0.05H546.2z"/>
		<path fill="#515151" d="M590,365v7.5l-37.5,18.75v-7.5L590,365z"/>
		<path fill="#9E7758" d="M590,372.5v7.5l-50,25v-7.5l6.25-3.1l6.25-3.15L590,372.5z"/>
		<path fill="#BB8D5D" d="M540,405l-50-25v-7.5l50,25V405z"/>
		<path fill="#7DA343" d="M490,372.5V365l50,25v7.5L490,372.5z"/>
		<path fill="#8BB54A" d="M490,365l6.25-3.1l50,25L540,390L490,365z"/>
		<path fill="#D9D3BF" d="M496.25,361.9l6.25-3.15l50,25l-6.25,3.15L496.25,361.9z"/>
		<path fill="#74973E" d="M540,390l6.25-3.1v7.5l-6.25,3.1V390z"/>
		<path fill="#ACA075" d="M546.25,394.4v-7.5l6.25-3.15v7.5L546.25,394.4z"/>
		<path fill="#8BB54A" d="M920,440l-6.25,3.15L870,421.3l-43.75,21.851L820,440l50-25L920,440z"/>
		<path fill="#74973E" d="M913.75,443.15L920,440v7.5l-6.25,3.15V443.15z"/>
		<path fill="#ACA075" d="M913.75,443.15v7.5l-6.25,3.1v-7.5L913.75,443.15z"/>
		<path fill="#9E7758" d="M913.75,450.65l6.25-3.15v7.5l-50,25v-7.5l37.5-18.75L913.75,450.65z"/>
		<path fill="#7DA343" d="M820,440l6.25,3.15v7.5L820,447.5V440z"/>
		<path fill="#D9D3BF" d="M826.25,443.15L870,421.3l43.75,21.851l-6.25,3.1L870,427.5l-37.5,18.75L826.25,443.15z"/>
		<path fill="#515151" d="M907.5,446.25v7.5L870,472.5V465L907.5,446.25z"/>
		<path fill="#BB8D5D" d="M870,480l-50-25v-7.5l6.25,3.15l6.25,3.1L870,472.5V480z"/>
		<path fill="#595959" d="M870,465v7.5l-37.5-18.75v-7.5L870,465z"/>
		<path fill="#6A6A6A" d="M907.5,446.25L870,465l-37.5-18.75L870,427.5L907.5,446.25z"/>
		<path fill="#BCB38F" d="M832.5,446.25v7.5l-6.25-3.1v-7.5L832.5,446.25z"/>
		<path fill="#8BB54A" d="M1023.75,436.9l6.25,3.1l-50,25l-6.25-3.1l-0.4-0.2L930,440l5.7-2.8l0.55-0.3L980,458.8L1023.75,436.9z
			 M973.75,461.9h0.05H973.75z"/>
		<path fill="#74973E" d="M1030,440v7.5l-50,25V465L1030,440z"/>
		<path fill="#9E7758" d="M1030,447.5v7.5l-50,25v-7.5L1030,447.5z"/>
		<path fill="#BB8D5D" d="M980,480l-50-25v-7.5l50,25V480z"/>
		<path fill="#7DA343" d="M930,447.5V440l43.35,21.7l0.4,0.2L980,465v7.5L930,447.5z"/>
		<path fill="#6A6A6A" d="M935.7,437.2l1-0.5l-0.45,0.2L935.7,437.2z M973.75,418.15h0.05L980,415l37.5,18.75L980,452.5l-37.5-18.75
			L973.75,418.15z"/>
		<path fill="#D9D3BF" d="M936.7,436.7l5.8-2.95L980,452.5l37.5-18.75l6.25,3.15L980,458.8L936.25,436.9L936.7,436.7z M973.8,461.9
			h-0.05l-0.4-0.2L973.8,461.9z"/>
		<path fill="#BB8D5D" d="M100,630l-50-25v-7.5l50,25V630z"/>
		<path fill="#C59D76" d="M50,597.5l50-25l50,25l-50,25L50,597.5z"/>
		<path fill="#9E7758" d="M150,597.5v7.5l-50,25v-7.5L150,597.5z"/>
		<path fill="#9E7758" d="M1030,297.5v7.5l-50,25v-7.5L1030,297.5z"/>
		<path fill="#BB8D5D" d="M980,330l-50-25v-7.5l6.25,3.15l6.25,3.1l25,12.5l6.25,3.15l6.25,3.1V330z"/>
		<path fill="#7DA343" d="M930,297.5V290l6.25,3.15v7.5L930,297.5z M973.75,311.9L980,315v7.5l-6.25-3.1V311.9z"/>
		<path fill="#8BB54A" d="M930,290l6.25-3.1l2.75,1.4c1.733,1.367,0.934,2.934-2.4,4.7l-0.35,0.15L930,290z M973.75,268.15h0.05
			L980,265l50,25l-50,25l-6.25-3.1C1001.884,297.2,1001.884,282.617,973.75,268.15z"/>
		<path fill="#D9D3BF" d="M936.25,286.9l6.25-3.15l4.35,2.2c4.434,2.966,3.25,6.267-3.55,9.9l-0.8,0.4l-6.25-3.1l0.35-0.15
			c3.334-1.767,4.134-3.333,2.4-4.7L936.25,286.9z M967.5,271.25l6.25-3.1c28.134,14.467,28.134,29.05,0,43.75l-6.25-3.15l5.6-2.8
			l0.65-0.35c18.3-10.1,19.6-19.867,3.9-29.3L967.5,271.25z"/>
		<path fill="#6A6A6A" d="M942.5,283.75l25-12.5l10.15,5.05c15.699,9.434,14.399,19.2-3.9,29.3l-0.65,0.35l-5.6,2.8l-25-12.5
			l0.8-0.4c6.8-3.633,7.983-6.934,3.55-9.9L942.5,283.75z"/>
		<path fill="#74973E" d="M1030,290v7.5l-50,25V315L1030,290z"/>
		<path fill="#595959" d="M942.5,296.25l25,12.5v7.5l-25-12.5V296.25z"/>
		<path fill="#BCB38F" d="M942.5,303.75l-6.25-3.1v-7.5l6.25,3.1V303.75z M967.5,316.25v-7.5l6.25,3.15v7.5L967.5,316.25z"/>
		<path fill="#8BB54A" d="M876.2,183.15h0.05c-28.134,14.467-28.134,29.05,0,43.75L870,230l-50-25l50-25L876.2,183.15z
			 M913.75,201.9L920,205l-6.25,3.15L913.4,208c-3.334-1.767-4.134-3.333-2.4-4.7L913.75,201.9z"/>
		<path fill="#7DA343" d="M820,205l50,25v7.5l-50-25V205z"/>
		<path fill="#74973E" d="M870,230l6.25-3.1v7.5l-6.25,3.1V230z M920,205v7.5l-6.25,3.15v-7.5L920,205z"/>
		<path fill="#D9D3BF" d="M876.25,226.9c-28.134-14.7-28.134-29.283,0-43.75l6.25,3.1c-3.366,1.7-6.75,3.383-10.15,5.05
			c-15.699,9.434-14.399,19.2,3.9,29.3l0.65,0.35l5.6,2.8C880.434,224.816,878.35,225.867,876.25,226.9z M907.5,198.75l6.25,3.15
			l-2.75,1.4c-1.733,1.367-0.934,2.934,2.4,4.7l0.35,0.15l-6.25,3.1l-0.8-0.4c-6.8-3.633-7.983-6.934-3.55-9.9L907.5,198.75z"/>
		<path fill="#6A6A6A" d="M882.5,186.25l25,12.5l-4.35,2.2c-4.434,2.966-3.25,6.267,3.55,9.9l0.8,0.4l-25,12.5l-5.6-2.8l-0.65-0.35
			c-18.3-10.1-19.6-19.867-3.9-29.3C875.75,189.633,879.134,187.95,882.5,186.25z"/>
		<path fill="#9E7758" d="M920,212.5v7.5l-50,25v-7.5l6.25-3.1c2.1-1.033,4.184-2.083,6.25-3.15l25-12.5l6.25-3.1L920,212.5z"/>
		<path fill="#BB8D5D" d="M870,245l-50-25v-7.5l50,25V245z"/>
		<path fill="#ACA075" d="M907.5,211.25l6.25-3.1v7.5l-6.25,3.1V211.25z M882.5,231.25c-2.066,1.066-4.15,2.117-6.25,3.15v-7.5
			c2.1-1.033,4.184-2.083,6.25-3.15V231.25z"/>
		<path fill="#515151" d="M907.5,211.25v7.5l-25,12.5v-7.5L907.5,211.25z"/>
		<path fill="#BB8D5D" d="M100,705l-50-25v-15l50,25V705z"/>
		<path fill="#C59D76" d="M50,665l50-25l50,25l-50,25L50,665z"/>
		<path fill="#9E7758" d="M150,665v15l-50,25v-15L150,665z"/>
		<path fill="#9E7758" d="M700,530l-50,25v-7.5l12.5-6.25L700,522.5V530z"/>
		<path fill="#9CD5E2" d="M700,522.5l-37.5,18.75v-7.5l-5.6-2.8l-0.65-0.351c-7.5-4.133-12.134-8.216-13.9-12.25
			c1.434-3.233,4.767-6.416,10-9.55l10.15-5.05L700,522.5z"/>
		<path fill="#74973E" d="M662.5,541.25L650,547.5V540l12.5-6.25V541.25z M662.5,496.25v7.5l-10.15,5.05
			c-5.233,3.134-8.566,6.316-10,9.55c-2.6-5.8,0.733-11.483,10-17.05L662.5,496.25z"/>
		<path fill="#BB8D5D" d="M650,547.5v7.5l-50-25v-7.5L650,547.5z"/>
		<path fill="#7DA343" d="M600,522.5V515l50,25v7.5L600,522.5z"/>
		<path fill="#8BB54A" d="M600,515l50-25l6.2,3.15l6.3,3.1l-10.15,5.05c-9.267,5.566-12.6,11.25-10,17.05
			c1.767,4.034,6.4,8.117,13.9,12.25l0.65,0.351l5.6,2.8L650,540L600,515z M656.2,493.15h0.05H656.2z"/>
		<path fill="#8BB54A" d="M760,490l50,25l-12.5,6.25l-5.5-2.75c-21.634-9.934-43.517-9.65-65.65,0.85l-3.85,1.9L710,515L760,490z"/>
		<path fill="#7DA343" d="M710,515l12.5,6.25v7.5L710,522.5V515z"/>
		
			<linearGradient id="SVGID_1_" gradientUnits="userSpaceOnUse" x1="-6958.1563" y1="1217.459" x2="-5319.75" y2="1217.459" gradientTransform="matrix(0.0458 0 0 -0.0107 1041.019 533.0073)">
			<stop  offset="0" style="stop-color:#74973E"/>
			<stop  offset="1" style="stop-color:#7DA343"/>
		</linearGradient>
		<path fill="url(#SVGID_1_)" d="M722.5,521.25l3.85-1.9c22.134-10.5,44.018-10.783,65.65-0.85l5.5,2.75v7.5L792,526l-2.1-0.95
			c-19.7-8.399-39.584-8.366-59.65,0.101l-3.9,1.699l-3.85,1.9V521.25z"/>
		<path fill="#74973E" d="M797.5,521.25L810,515v7.5l-12.5,6.25V521.25z"/>
		<path fill="#9E7758" d="M810,522.5v7.5l-50,25v-7.5l37.5-18.75L810,522.5z"/>
		<path fill="#BB8D5D" d="M760,555l-50-25v-7.5l12.5,6.25L760,547.5V555z"/>
		<path fill="#9CD5E2" d="M722.5,528.75l3.85-1.9l3.9-1.699c20.066-8.467,39.95-8.5,59.65-0.101L792,526l5.5,2.75L760,547.5
			L722.5,528.75z"/>
		<path fill="#8BB54A" d="M753.75,568.15h0.05L760,565l50,25l-50,25l-12.5-6.25l5.6-2.8l0.65-0.351
			c7.5-4.133,12.15-8.216,13.95-12.25c2.566-5.8-0.783-11.483-10.05-17.05l-10.15-5.05L753.75,568.15z"/>
		<path fill="#74973E" d="M810,590v7.5l-50,25V615L810,590z"/>
		<path fill="#9E7758" d="M810,597.5v7.5l-50,25v-7.5L810,597.5z"/>
		<path fill="#BB8D5D" d="M760,630l-50-25v-7.5l37.5,18.75l12.5,6.25V630z"/>
		<path fill="#9CD5E2" d="M710,597.5l37.5-18.75l10.15,5.05c5.233,3.134,8.583,6.317,10.05,9.55c-1.8,4.034-6.45,8.117-13.95,12.25
			l-0.65,0.351l-5.6,2.8v7.5L710,597.5z"/>
		<path fill="#7DA343" d="M747.5,578.75v-7.5l10.15,5.05c9.267,5.567,12.616,11.25,10.05,17.05c-1.467-3.233-4.816-6.416-10.05-9.55
			L747.5,578.75z M747.5,608.75L760,615v7.5l-12.5-6.25V608.75z"/>
		<path fill="#9E7758" d="M700,597.5v7.5l-50,25v-7.5L700,597.5z"/>
		<path fill="#BB8D5D" d="M650,630l-50-25v-7.5l50,25V630z"/>
		<path fill="#7DA343" d="M600,597.5V590l50,25v7.5L600,597.5z"/>
		<path fill="#8BB54A" d="M600,590l12.5-6.25l3.85,1.9l3.9,1.75c2.9,1.199,5.8,2.25,8.7,3.149c14.2,4.233,28.283,4.25,42.25,0.05
			c2.899-0.866,5.8-1.916,8.7-3.149l2.1-0.95l5.5-2.75L700,590l-50,25L600,590z"/>
		<path fill="#9CD5E2" d="M620.25,587.4L650,572.5l29.9,14.95c-2.9,1.233-5.801,2.283-8.7,3.149c-13.967,4.2-28.05,4.184-42.25-0.05
			C626.05,589.65,623.15,588.6,620.25,587.4z"/>
		<path fill="#74973E" d="M700,590v7.5l-50,25V615L700,590z"/>
		<path fill="#9CD5E2" d="M882.5,503.75l17.5,8.75l-42.5,21.25v7.5l-24.95-12.5L882.5,503.75z M832.55,528.75h-0.05H832.55z"/>
		<path fill="#8BB54A" d="M900,512.5l7.5-3.75L920,515l-50,25l-12.5-6.25L900,512.5z M820,515l50-25l12.5,6.25l-50,25L820,515z"/>
		<path fill="#74973E" d="M920,515v7.5l-50,25V540L920,515z M882.5,496.25v7.5l-50,25v-7.5L882.5,496.25z"/>
		<path fill="#9E7758" d="M920,522.5v7.5l-50,25v-7.5L920,522.5z"/>
		<path fill="#BB8D5D" d="M870,555l-50-25v-7.5l12.5,6.3l25,12.45l12.5,6.25V555z M857.5,541.25v0.05V541.25z M832.5,528.8
			l0.05-0.05L832.5,528.8z"/>
		<path fill="#7DA343" d="M820,522.5V515l12.5,6.25v7.5L820,522.5z M832.5,528.75v0.05V528.75z M857.5,533.75L870,540v7.5l-12.5-6.2
			V533.75z M857.5,541.3v-0.05V541.3z"/>
		<path fill="#9E7758" d="M1030,530l-50,25v-7.5l12.5-6.25l25-12.5l12.5-6.25V530z"/>
		<path fill="#74973E" d="M1030,522.5l-12.5,6.25v-7.5L1030,515V522.5z M992.5,541.25L980,547.5V540l12.5-6.25V541.25z"/>
		<path fill="#9CD5E2" d="M1017.5,528.75l-25,12.5v-7.5l-3.55-1.8c-6.101-2.5-12.3-2.367-18.601,0.399l-2.85,1.4v7.5l-25-12.5
			l3.85-1.9l3.9-1.699c20.066-8.467,39.95-8.5,59.65-0.101l2.1,0.95L1017.5,528.75z"/>
		<path fill="#BB8D5D" d="M980,547.5v7.5l-50-25v-7.5l12.5,6.25l25,12.5L980,547.5z"/>
		<path fill="#7DA343" d="M930,522.5V515l12.5,6.25v7.5L930,522.5z M967.5,533.75L980,540v7.5l-12.5-6.25V533.75z"/>
		<path fill="#8BB54A" d="M930,515l50-25l50,25l-12.5,6.25l-5.5-2.75c-21.634-9.934-43.517-9.65-65.65,0.85l-3.85,1.9L930,515z
			 M988.95,531.95l3.55,1.8L980,540l-12.5-6.25l2.85-1.4C976.65,529.583,982.85,529.45,988.95,531.95z"/>
		
			<linearGradient id="SVGID_2_" gradientUnits="userSpaceOnUse" x1="-6958.1563" y1="1217.459" x2="-5319.7656" y2="1217.459" gradientTransform="matrix(0.0458 0 0 -0.0107 1261.019 533.0073)">
			<stop  offset="0" style="stop-color:#74973E"/>
			<stop  offset="1" style="stop-color:#7DA343"/>
		</linearGradient>
		<path fill="url(#SVGID_2_)" d="M946.35,526.85l-3.85,1.9v-7.5l3.85-1.9c22.134-10.5,44.018-10.783,65.65-0.85l5.5,2.75v7.5
			L1012,526l-2.1-0.95c-19.7-8.399-39.584-8.366-59.65,0.101L946.35,526.85z"/>
		<path fill="#8BB54A" d="M1119.9,512.45l2.1-0.95l5.5-2.75L1140,515l-50,25l-50-25l12.5-6.25l3.85,1.9l3.9,1.75
			C1080.316,520.833,1100.2,520.85,1119.9,512.45z M1077.5,496.25L1090,490l12.5,6.25l-3.55,1.8c-6.101,2.5-12.3,2.367-18.601-0.399
			L1077.5,496.25z"/>
		<path fill="#74973E" d="M1140,515v7.5l-50,25V540L1140,515z"/>
		<path fill="#9E7758" d="M1140,522.5v7.5l-50,25v-7.5L1140,522.5z"/>
		<path fill="#BB8D5D" d="M1090,555l-50-25v-7.5l50,25V555z"/>
		<path fill="#7DA343" d="M1040,522.5V515l50,25v7.5L1040,522.5z"/>
		<path fill="#9CD5E2" d="M1060.25,512.4l17.25-8.65l2.85,1.4c6.301,2.767,12.5,2.899,18.601,0.399l3.55-1.8l17.4,8.7
			C1100.2,520.85,1080.316,520.833,1060.25,512.4z"/>
		
			<linearGradient id="SVGID_3_" gradientUnits="userSpaceOnUse" x1="-19825" y1="1462.1191" x2="-18186.625" y2="1462.1191" gradientTransform="matrix(0.0153 0 0 -0.0068 1380.0061 511.6958)">
			<stop  offset="0" style="stop-color:#7DA343"/>
			<stop  offset="1" style="stop-color:#74973E"/>
		</linearGradient>
		<path fill="url(#SVGID_3_)" d="M1077.5,503.75v-7.5l2.85,1.4c6.301,2.767,12.5,2.899,18.601,0.399l3.55-1.8v7.5l-3.55,1.8
			c-6.101,2.5-12.3,2.367-18.601-0.399L1077.5,503.75z"/>
		<path fill="#8BB54A" d="M1083.75,568.15h0.05l6.2-3.15l50,25l-50,25l-12.5-6.25l5.6-2.8l0.65-0.351
			c7.5-4.133,12.15-8.216,13.95-12.25c2.566-5.8-0.783-11.483-10.05-17.05l-10.15-5.05L1083.75,568.15z M1040,590l12.5-6.25
			l4.35,2.2c1,0.667,1.717,1.35,2.15,2.05c0.3,0.467,0.467,0.95,0.5,1.45v0.3c-0.066,1.2-0.917,2.467-2.55,3.8l-3.65,2.3l-0.8,0.4
			L1040,590z"/>
		<path fill="#74973E" d="M1140,590v7.5l-50,25V615L1140,590z M1059.5,589.75l-0.05,7v0.8l-0.8,1.8c-0.967,1.267-2.75,2.601-5.351,4
			l-0.8,0.4v-7.5l0.8-0.4l3.65-2.3C1058.583,592.217,1059.434,590.95,1059.5,589.75z"/>
		<path fill="#9E7758" d="M1140,597.5v7.5l-50,25v-7.5L1140,597.5z"/>
		<path fill="#BB8D5D" d="M1090,630l-50-25v-7.5l12.5,6.25l25,12.5l12.5,6.25V630z"/>
		<path fill="#7DA343" d="M1040,597.5V590l12.5,6.25v7.5L1040,597.5z M1077.5,578.75l-0.2-7.4l0.2-0.1l10.15,5.05
			c9.267,5.567,12.616,11.25,10.05,17.05c-1.467-3.233-4.817-6.416-10.05-9.55L1077.5,578.75z M1077.5,608.75L1090,615v7.5
			l-12.5-6.25V608.75z"/>
		<path fill="#9CD5E2" d="M1059,588l18.5-9.25l10.15,5.05c5.232,3.134,8.583,6.317,10.05,9.55c-1.8,4.034-6.45,8.117-13.95,12.25
			l-0.65,0.351l-5.6,2.8v7.5l-25-12.5l0.8-0.4c2.601-1.399,4.384-2.732,5.351-4l0.8-1.8v-0.8l0.05-7v-0.3
			C1059.467,588.95,1059.3,588.467,1059,588z"/>
		<path fill="#9E7758" d="M1030,605l-50,25v-7.5l12.5-6.25l25-12.5l12.5-6.25V605z"/>
		<path fill="#74973E" d="M1030,597.5l-12.5,6.25v-7.5L1030,590V597.5z M992.5,616.25L980,622.5V615l12.5-6.25V616.25z
			 M992.5,571.25v7.5l-10.15,5.05c-5.233,3.134-8.566,6.317-10,9.55c-2.6-5.8,0.733-11.483,10-17.05L992.5,571.25z"/>
		<path fill="#9CD5E2" d="M1017.5,603.75l-25,12.5v-7.5l-5.6-2.8l-0.65-0.351c-7.5-4.133-12.134-8.216-13.9-12.25
			c1.434-3.233,4.767-6.416,10-9.55l10.15-5.05L1011,588c-0.267,0.434-0.417,0.867-0.45,1.3v0.65l0.05,6.5
			c-0.1,0.467-0.083,0.95,0.051,1.45l0.699,1.449c0.967,1.267,2.75,2.601,5.351,4L1017.5,603.75z"/>
		<path fill="#BB8D5D" d="M980,622.5v7.5l-50-25v-7.5L980,622.5z"/>
		<path fill="#7DA343" d="M930,597.5V590l50,25v7.5L930,597.5z M1010.55,589.95c0.134,1.133,0.967,2.333,2.5,3.6
			c0.934,0.733,2.15,1.5,3.65,2.3l0.8,0.4v7.5l-0.8-0.4c-2.601-1.399-4.384-2.732-5.351-4l-0.699-1.449
			c-0.134-0.5-0.15-0.983-0.051-1.45L1010.55,589.95z"/>
		<path fill="#8BB54A" d="M930,590l50-25l6.2,3.15l6.3,3.1l-10.15,5.05c-9.267,5.567-12.6,11.25-10,17.05
			c1.767,4.034,6.4,8.117,13.9,12.25l0.65,0.351l5.6,2.8L980,615L930,590z M986.2,568.15h0.05H986.2z M1011,588
			c0.434-0.7,1.15-1.384,2.15-2.05l4.35-2.2L1030,590l-12.5,6.25l-0.8-0.4c-1.5-0.8-2.717-1.566-3.65-2.3
			c-1.533-1.267-2.366-2.467-2.5-3.6v-0.65C1010.583,588.867,1010.733,588.434,1011,588z"/>
		<path fill="#74973E" d="M870,615l12.5-6.25v7.5L870,622.5V615z M882.5,616.25v0.05V616.25z M920,590v7.5l-12.5,6.3v-7.55L920,590z
			 M907.5,603.8v-0.05V603.8z"/>
		<path fill="#8BB54A" d="M882.5,608.75L870,615l-50-25l12.5-6.25l7.5,3.75L882.5,608.75z M920,590l-12.5,6.25l-50-25L870,565
			L920,590z"/>
		<path fill="#9CD5E2" d="M882.5,608.75L840,587.5l17.5-8.75l50,25l-25,12.5V608.75z M907.5,603.75h-0.05H907.5z"/>
		<path fill="#7DA343" d="M820,590l50,25v7.5l-50-25V590z M907.5,603.75l-50-25v-7.5l50,25V603.75z"/>
		<path fill="#9E7758" d="M882.5,616.3v-0.05l24.95-12.5L920,597.5v7.5l-50,25v-7.5L882.5,616.3z M907.45,603.75l0.05,0.05
			L907.45,603.75z"/>
		<path fill="#BB8D5D" d="M870,630l-50-25v-7.5l50,25V630z"/>
		<path fill="#9E7758" d="M700,145l-50,25v-7.5l50-25V145z"/>
		<path fill="#9CD5E2" d="M700,137.5l-50,25l-6.2-3.1l49.95-25L700,137.5z M600,137.5l6.25-3.1v6.25L600,137.5z"/>
		<path fill="#BB8D5D" d="M650,162.5v7.5l-50-25v-7.5l6.25,3.15l6.25,3.1l25,12.5l6.25,3.15L650,162.5z M643.75,159.4h0.05H643.75z"
			/>
		<path fill="#BCB38F" d="M606.25,134.4v-1.25l6.25,3.1v7.5l-6.25-3.1V134.4z M637.5,156.25v-7.5l6.25,3.15v7.5L637.5,156.25z"/>
		<path fill="#D9D3BF" d="M606.25,133.15l50-25l6.25,3.1l-50,25L606.25,133.15z M687.5,123.75l6.25,3.15l-50,25l-6.25-3.15
			L687.5,123.75z"/>
		<path fill="#6A6A6A" d="M662.5,111.25l25,12.5l-50,25l-25-12.5L662.5,111.25z"/>
		<path fill="#ACA075" d="M693.75,126.9v7.5l-49.95,25l-0.05-7.5L693.75,126.9z M643.8,159.4h-0.05H643.8z"/>
		<path fill="#595959" d="M612.5,143.75v-7.5l25,12.5v7.5L612.5,143.75z"/>
		<path fill="#D9D3BF" d="M753.75,108.15l50,25l-6.25,3.1l-50-25L753.75,108.15z M716.25,126.9c2.1-1.033,4.184-2.083,6.25-3.15
			l50,25l-6.25,3.15L716.25,126.9z"/>
		<path fill="#6A6A6A" d="M747.5,111.25l50,25l-25,12.5l-50-25L747.5,111.25z"/>
		<path fill="#ACA075" d="M797.5,136.25l6.25-3.1v1.25v6.25l-6.25,3.1V136.25z M772.5,148.75v7.5l-6.25,3.15v-7.5L772.5,148.75z"/>
		<path fill="#9CD5E2" d="M803.75,134.4l6.25,3.1l-6.25,3.15V134.4z M710,137.5l6.25-3.1l50,25l-6.25,3.1L710,137.5z"/>
		<path fill="#9E7758" d="M810,137.5v7.5l-50,25v-7.5l6.25-3.1l6.25-3.15l25-12.5l6.25-3.1L810,137.5z"/>
		<path fill="#BB8D5D" d="M760,170l-50-25v-7.5l50,25V170z"/>
		<path fill="#BCB38F" d="M716.25,134.4v-7.5l50,25v7.5L716.25,134.4z"/>
		<path fill="#515151" d="M772.5,156.25v-7.5l25-12.5v7.5L772.5,156.25z"/>
		<path opacity="0.051" enable-background="new    " d="M1056.6,392.75c1.067-0.5,2.367-0.75,3.9-0.75s2.833,0.25,3.9,0.75
			c1.066,0.467,1.6,1.05,1.6,1.75s-0.533,1.3-1.6,1.8c-1.067,0.467-2.367,0.7-3.9,0.7s-2.833-0.233-3.9-0.7
			c-1.066-0.5-1.6-1.1-1.6-1.8S1055.533,393.217,1056.6,392.75z"/>
		<path opacity="0.051" enable-background="new    " d="M1071.6,392.75c1.067-0.5,2.367-0.75,3.9-0.75s2.833,0.25,3.9,0.75
			c1.066,0.467,1.6,1.05,1.6,1.75s-0.533,1.3-1.6,1.8c-1.067,0.467-2.367,0.7-3.9,0.7s-2.833-0.233-3.9-0.7
			c-1.066-0.5-1.6-1.1-1.6-1.8S1070.533,393.217,1071.6,392.75z"/>
		<path fill="#BB8D5D" d="M1059.45,381.45c0.3-0.3,0.649-0.45,1.05-0.45s0.75,0.15,1.05,0.45c0.3,0.3,0.45,0.65,0.45,1.05v11.05
			l-0.45,0.7l-1.05,0.35c-0.4,0-0.75-0.117-1.05-0.35c-0.3-0.2-0.45-0.433-0.45-0.7V382.5C1059,382.1,1059.15,381.75,1059.45,381.45
			z"/>
		<path fill="#74973E" d="M1056.55,384.7c-1.033-0.8-1.55-1.8-1.55-3v-21.4c0-1.167,0.517-2.183,1.55-3.05
			c1.033-0.833,2.267-1.25,3.7-1.25h0.55c1.4,0,2.617,0.417,3.65,1.25c1.033,0.867,1.55,1.883,1.55,3.05v21.4
			c0,1.2-0.517,2.2-1.55,3c-1.033,0.867-2.25,1.3-3.65,1.3h-0.55C1058.816,386,1057.583,385.567,1056.55,384.7z"/>
		<path fill="#BB8D5D" d="M1074.45,381.45c0.3-0.3,0.649-0.45,1.05-0.45s0.75,0.15,1.05,0.45c0.3,0.3,0.45,0.65,0.45,1.05v11.05
			l-0.45,0.7l-1.05,0.35c-0.4,0-0.75-0.117-1.05-0.35c-0.3-0.2-0.45-0.433-0.45-0.7V382.5C1074,382.1,1074.15,381.75,1074.45,381.45
			z"/>
		<path fill="#74973E" d="M1070,369.3c0-1.167,0.517-2.183,1.55-3.05c1.033-0.833,2.267-1.25,3.7-1.25h0.55
			c1.4,0,2.617,0.417,3.65,1.25c1.033,0.867,1.55,1.883,1.55,3.05v14.4c0,1.2-0.517,2.2-1.55,3c-1.033,0.867-2.25,1.3-3.65,1.3
			h-0.55c-1.434,0-2.667-0.433-3.7-1.3c-1.033-0.8-1.55-1.8-1.55-3V369.3z"/>
		<path opacity="0.051" enable-background="new    " d="M1090.6,392.75c1.067-0.5,2.367-0.75,3.9-0.75s2.833,0.25,3.9,0.75
			c1.066,0.467,1.6,1.05,1.6,1.75s-0.533,1.3-1.6,1.8c-1.067,0.467-2.367,0.7-3.9,0.7s-2.833-0.233-3.9-0.7
			c-1.066-0.5-1.6-1.1-1.6-1.8S1089.533,393.217,1090.6,392.75z"/>
		<path fill="#BB8D5D" d="M1093.45,381.45c0.3-0.3,0.649-0.45,1.05-0.45s0.75,0.15,1.05,0.45c0.3,0.3,0.45,0.65,0.45,1.05v11.05
			l-0.45,0.7l-1.05,0.35c-0.4,0-0.75-0.117-1.05-0.35c-0.3-0.2-0.45-0.433-0.45-0.7V382.5C1093,382.1,1093.15,381.75,1093.45,381.45
			z"/>
		<path fill="#74973E" d="M1102.95,386.35c-5.634,2.966-11.167,3.017-16.601,0.15c-1.033-0.6-1.467-1.467-1.3-2.6l8.55-34.2
			c0.634-0.934,1.268-0.934,1.9,0l8.45,34C1104.116,384.967,1103.783,385.85,1102.95,386.35z"/>
		<path opacity="0.051" enable-background="new    " d="M1110.6,392.75c1.067-0.5,2.367-0.75,3.9-0.75s2.833,0.25,3.9,0.75
			c1.066,0.467,1.6,1.05,1.6,1.75s-0.533,1.3-1.6,1.8c-1.067,0.467-2.367,0.7-3.9,0.7s-2.833-0.233-3.9-0.7
			c-1.066-0.5-1.6-1.1-1.6-1.8S1109.533,393.217,1110.6,392.75z"/>
		<path fill="#BB8D5D" d="M1113.45,381.45c0.3-0.3,0.649-0.45,1.05-0.45s0.75,0.15,1.05,0.45c0.3,0.3,0.45,0.65,0.45,1.05v11.05
			l-0.45,0.7l-1.05,0.35c-0.4,0-0.75-0.117-1.05-0.35c-0.3-0.2-0.45-0.433-0.45-0.7V382.5C1113,382.1,1113.15,381.75,1113.45,381.45
			z"/>
		<path fill="#74973E" d="M1120.7,387.3c-4,2.1-7.917,2.15-11.75,0.15c-0.733-0.434-1.05-1.05-0.95-1.85l6.05-24.05
			c0.434-0.667,0.884-0.667,1.351,0l6,23.9C1121.5,386.35,1121.267,386.967,1120.7,387.3z"/>
		<path opacity="0.051" enable-background="new    " d="M1056.6,452.75c1.067-0.5,2.367-0.75,3.9-0.75s2.833,0.25,3.9,0.75
			c1.066,0.467,1.6,1.05,1.6,1.75s-0.533,1.3-1.6,1.8c-1.067,0.467-2.367,0.7-3.9,0.7s-2.833-0.233-3.9-0.7
			c-1.066-0.5-1.6-1.1-1.6-1.8S1055.533,453.217,1056.6,452.75z"/>
		<path opacity="0.051" enable-background="new    " d="M1071.6,452.75c1.067-0.5,2.367-0.75,3.9-0.75s2.833,0.25,3.9,0.75
			c1.066,0.467,1.6,1.05,1.6,1.75s-0.533,1.3-1.6,1.8c-1.067,0.467-2.367,0.7-3.9,0.7s-2.833-0.233-3.9-0.7
			c-1.066-0.5-1.6-1.1-1.6-1.8S1070.533,453.217,1071.6,452.75z"/>
		<path fill="#BB8D5D" d="M1059.45,441.45c0.3-0.3,0.649-0.45,1.05-0.45s0.75,0.15,1.05,0.45s0.45,0.649,0.45,1.05v11.05l-0.45,0.7
			l-1.05,0.35c-0.4,0-0.75-0.116-1.05-0.35c-0.3-0.2-0.45-0.434-0.45-0.7V442.5C1059,442.1,1059.15,441.75,1059.45,441.45z"/>
		<path fill="#BCA85C" d="M1064.45,417.25c1.033,0.866,1.55,1.884,1.55,3.05v21.4c0,1.2-0.517,2.2-1.55,3
			c-1.033,0.866-2.25,1.3-3.65,1.3h-0.55c-1.434,0-2.667-0.434-3.7-1.3c-1.033-0.8-1.55-1.8-1.55-3v-21.4
			c0-1.166,0.517-2.184,1.55-3.05c1.033-0.833,2.267-1.25,3.7-1.25h0.55C1062.2,416,1063.417,416.417,1064.45,417.25z"/>
		<path fill="#BB8D5D" d="M1074.45,441.45c0.3-0.3,0.649-0.45,1.05-0.45s0.75,0.15,1.05,0.45s0.45,0.649,0.45,1.05v11.05l-0.45,0.7
			l-1.05,0.35c-0.4,0-0.75-0.116-1.05-0.35c-0.3-0.2-0.45-0.434-0.45-0.7V442.5C1074,442.1,1074.15,441.75,1074.45,441.45z"/>
		<path fill="#D2A02D" d="M1071.55,426.25c1.033-0.833,2.267-1.25,3.7-1.25h0.55c1.4,0,2.617,0.417,3.65,1.25
			c1.033,0.866,1.55,1.884,1.55,3.05v14.4c0,1.2-0.517,2.2-1.55,3c-1.033,0.866-2.25,1.3-3.65,1.3h-0.55
			c-1.434,0-2.667-0.434-3.7-1.3c-1.033-0.8-1.55-1.8-1.55-3v-14.4C1070,428.134,1070.517,427.116,1071.55,426.25z"/>
		<path opacity="0.051" enable-background="new    " d="M1090.6,452.75c1.067-0.5,2.367-0.75,3.9-0.75s2.833,0.25,3.9,0.75
			c1.066,0.467,1.6,1.05,1.6,1.75s-0.533,1.3-1.6,1.8c-1.067,0.467-2.367,0.7-3.9,0.7s-2.833-0.233-3.9-0.7
			c-1.066-0.5-1.6-1.1-1.6-1.8S1089.533,453.217,1090.6,452.75z"/>
		<path fill="#BB8D5D" d="M1093.45,441.45c0.3-0.3,0.649-0.45,1.05-0.45s0.75,0.15,1.05,0.45s0.45,0.649,0.45,1.05v11.05l-0.45,0.7
			l-1.05,0.35c-0.4,0-0.75-0.116-1.05-0.35c-0.3-0.2-0.45-0.434-0.45-0.7V442.5C1093,442.1,1093.15,441.75,1093.45,441.45z"/>
		<path fill="#4A8A7D" d="M1085.05,443.9l8.55-34.2c0.634-0.934,1.268-0.934,1.9,0l8.45,34c0.166,1.267-0.167,2.149-1,2.649
			c-5.634,2.967-11.167,3.017-16.601,0.15C1085.316,445.9,1084.883,445.033,1085.05,443.9z"/>
		<path opacity="0.051" enable-background="new    " d="M1110.6,452.75c1.067-0.5,2.367-0.75,3.9-0.75s2.833,0.25,3.9,0.75
			c1.066,0.467,1.6,1.05,1.6,1.75s-0.533,1.3-1.6,1.8c-1.067,0.467-2.367,0.7-3.9,0.7s-2.833-0.233-3.9-0.7
			c-1.066-0.5-1.6-1.1-1.6-1.8S1109.533,453.217,1110.6,452.75z"/>
		<path fill="#BB8D5D" d="M1113.45,441.45c0.3-0.3,0.649-0.45,1.05-0.45s0.75,0.15,1.05,0.45s0.45,0.649,0.45,1.05v11.05l-0.45,0.7
			l-1.05,0.35c-0.4,0-0.75-0.116-1.05-0.35c-0.3-0.2-0.45-0.434-0.45-0.7V442.5C1113,442.1,1113.15,441.75,1113.45,441.45z"/>
		<path fill="#9A9A3A" d="M1108,445.6l6.05-24.05c0.434-0.666,0.884-0.666,1.351,0l6,23.9c0.1,0.899-0.134,1.517-0.7,1.85
			c-4,2.101-7.917,2.15-11.75,0.15C1108.217,447.017,1107.9,446.4,1108,445.6z"/>
		<path fill="#7DA343" d="M307.5,503.75v-7.5l50,25v7.5L307.5,503.75z"/>
		<path fill="#9CD5E2" d="M307.5,503.75l50,25L320,547.5l-50-25L307.5,503.75z"/>
		<path fill="#74973E" d="M357.5,528.8v-0.05v-7.5L370,515v7.5L357.5,528.8z"/>
		<path fill="#8BB54A" d="M357.5,521.25l-50-25L320,490l50,25L357.5,521.25z"/>
		<path fill="#9E7758" d="M370,522.5v7.5l-50,25v-7.5l37.5-18.75L370,522.5z M357.5,528.75v0.05V528.75z"/>
		<path fill="#BB8D5D" d="M320,555l-50-25v-7.5l50,25V555z"/>
		<path fill="#74973E" d="M222.5,496.25v7.5l-50,25v-7.5L222.5,496.25z"/>
		<path fill="#9CD5E2" d="M222.5,503.75L260,522.5l-50,25l-37.5-18.75L222.5,503.75z"/>
		<path fill="#9E7758" d="M260,522.5v7.5l-50,25v-7.5L260,522.5z"/>
		<path fill="#BB8D5D" d="M210,555l-50-25v-7.5l12.5,6.3l37.5,18.7V555z M172.5,528.8v-0.05V528.8z"/>
		<path fill="#7DA343" d="M160,522.5V515l12.5,6.25v7.5L160,522.5z M172.5,528.75v0.05V528.75z"/>
		<path fill="#8BB54A" d="M160,515l50-25l12.5,6.25l-50,25L160,515z"/>
		<path fill="#9CD5E2" d="M270,597.5h0.05l0.85,0.45L270,597.5z M290.05,587.5l29.95-15l50,25l-38.05,19l0.55-0.3v-7.5L290.05,587.5
			z"/>
		<path fill="#BB8D5D" d="M270,597.5l0.9,0.45L320,622.5v7.5l-50-25V597.5z"/>
		<path fill="#9E7758" d="M320,630v-7.5l11.95-6l38.05-19v7.5L320,630z"/>
		<path fill="#7DA343" d="M320,622.5l-49.1-24.55l-0.85-0.45l-0.05-7.55l50,25V622.5z M270.05,597.5l-0.05-0.05L270.05,597.5z"/>
		<path fill="#8BB54A" d="M270,589.95l12.5-6.25l7.55,3.8l42.45,21.2l-12.5,6.25L270,589.95z"/>
		<path fill="#74973E" d="M320,614.95l12.5-6.25v7.5l-0.55,0.3l-11.95,6V614.95z"/>
		<path fill="#8BB54A" d="M239.95,587.5l7.55-3.8l12.5,6.25l-50,25l-12.5-6.25L239.95,587.5z"/>
		<path fill="#74973E" d="M260,597.45l-0.05,0.05l-0.85,0.45l-49.1,24.5v-7.5l50-25V597.45z"/>
		<path fill="#9CD5E2" d="M259.95,597.5H260l-0.9,0.45L259.95,597.5z M160,597.5l50-25l29.95,15l-42.45,21.2v7.5L160,597.5z"/>
		<path fill="#9E7758" d="M260,597.5v7.5l-50,25v-7.55l49.1-24.5L260,597.5z"/>
		<path fill="#BB8D5D" d="M210,630l-50-25v-7.5l37.5,18.7l12.5,6.25V630z"/>
		<path fill="#7DA343" d="M197.5,608.7l12.5,6.25v7.5l-12.5-6.25V608.7z"/>
		<path fill="#BB8D5D" d="M430,630l-50-25v-7.5l50,25V630z"/>
		<path fill="#9CD5E2" d="M380,597.5l50-25l31,15.5c-0.267,0.434-0.417,0.867-0.45,1.3v0.65l0.05,6.5
			c-0.1,0.467-0.083,0.95,0.051,1.45l0.699,1.449c0.967,1.267,2.75,2.601,5.351,4l0.8,0.4L430,622.5L380,597.5z"/>
		<path fill="#8BB54A" d="M461,588c0.434-0.7,1.15-1.384,2.15-2.05l4.35-2.2L480,590l-12.5,6.25l-0.8-0.4l-3.65-2.3
			c-1.533-1.267-2.366-2.467-2.5-3.6v-0.65C460.583,588.867,460.733,588.434,461,588z"/>
		<path fill="#74973E" d="M480,590v7.5l-12.5,6.25v-7.5L480,590z"/>
		<path fill="#9E7758" d="M480,597.5v7.5l-50,25v-7.5l37.5-18.75L480,597.5z"/>
		<path fill="#7DA343" d="M460.55,589.95c0.134,1.133,0.967,2.333,2.5,3.6l3.65,2.3l0.8,0.4v7.5l-0.8-0.4
			c-2.601-1.399-4.384-2.732-5.351-4l-0.699-1.449c-0.134-0.5-0.15-0.983-0.051-1.45L460.55,589.95z"/>
		<path fill="#9E7758" d="M590,605l-50,25v-7.5l50-25V605z"/>
		<path fill="#9CD5E2" d="M590,597.5l-50,25l-37.5-18.75l0.8-0.4c2.601-1.399,4.384-2.732,5.351-4l0.8-1.8v-0.8l0.05-7v-0.3
			c-0.033-0.5-0.2-0.983-0.5-1.45l31-15.5L590,597.5z"/>
		<path fill="#BB8D5D" d="M540,622.5v7.5l-50-25v-7.5l12.5,6.25L540,622.5z"/>
		<path fill="#7DA343" d="M490,597.5V590l12.5,6.25v7.5L490,597.5z"/>
		<path fill="#8BB54A" d="M490,590l12.5-6.25l4.35,2.2c1,0.667,1.717,1.35,2.15,2.05c0.3,0.467,0.467,0.95,0.5,1.45v0.3
			c-0.066,1.2-0.917,2.467-2.55,3.8l-3.65,2.3l-0.8,0.4L490,590z"/>
		<path fill="#74973E" d="M509.5,589.75l-0.05,7v0.8l-0.8,1.8c-0.967,1.267-2.75,2.601-5.351,4l-0.8,0.4v-7.5l0.8-0.4l3.65-2.3
			C508.583,592.217,509.434,590.95,509.5,589.75z"/>
		
			<linearGradient id="SVGID_4_" gradientUnits="userSpaceOnUse" x1="-19825.0625" y1="1462.1191" x2="-18186.6875" y2="1462.1191" gradientTransform="matrix(0.0153 0 0 -0.0068 830.006 511.6958)">
			<stop  offset="0" style="stop-color:#7DA343"/>
			<stop  offset="1" style="stop-color:#74973E"/>
		</linearGradient>
		<path fill="url(#SVGID_4_)" d="M552.5,496.25v7.5l-3.55,1.8c-6.101,2.5-12.3,2.367-18.601-0.399l-2.85-1.4v-7.5l2.85,1.4
			c1.934,0.833,3.851,1.433,5.75,1.8c2.667,0.5,5.301,0.517,7.9,0.05c1.667-0.3,3.316-0.783,4.95-1.45L552.5,496.25z"/>
		<path fill="#9CD5E2" d="M552.5,503.75L590,522.5l-50,25l-50-25l37.5-18.75l2.85,1.4c6.301,2.767,12.5,2.899,18.601,0.399
			L552.5,503.75z"/>
		<path fill="#9E7758" d="M590,522.5v7.5l-50,25v-7.5L590,522.5z"/>
		<path fill="#BB8D5D" d="M540,555l-50-25v-7.5l50,25V555z"/>
		<path fill="#8BB54A" d="M527.5,496.25L540,490l12.5,6.25l-3.55,1.8c-1.634,0.667-3.283,1.15-4.95,1.45
			c-2.6,0.467-5.233,0.45-7.9-0.05c-1.899-0.367-3.816-0.967-5.75-1.8L527.5,496.25z"/>
		<path fill="#9CD5E2" d="M442.5,541.25v-7.5l-3.55-1.8c-6.101-2.5-12.3-2.367-18.601,0.399l-2.85,1.4v7.5L380,522.5l50-25l50,25
			L442.5,541.25z"/>
		<path fill="#74973E" d="M442.5,533.75v7.5L430,547.5V540L442.5,533.75z"/>
		<path fill="#8BB54A" d="M442.5,533.75L430,540l-12.5-6.25l2.85-1.4c6.301-2.767,12.5-2.899,18.601-0.399L442.5,533.75z"/>
		<path fill="#7DA343" d="M430,540v7.5l-12.5-6.25v-7.5L430,540z"/>
		<path fill="#9E7758" d="M430,547.5l12.5-6.25L480,522.5v7.5l-50,25V547.5z"/>
		<path fill="#BB8D5D" d="M380,522.5l37.5,18.75l12.5,6.25v7.5l-50-25V522.5z"/>
		<path fill="#9E7758" d="M700,680l-50,25v-7.5l12.5-6.25L700,672.5V680z"/>
		<path fill="#9CD5E2" d="M700,672.5l-37.5,18.75c-2.667-1.3-5.083-2.583-7.25-3.85c-11.033-6.567-15.316-12.884-12.85-18.95
			l-0.051-0.101l1.15-2c1.333-2.066,3.483-4.083,6.45-6.05l2.25-1.45l0.149-0.05l10.15-5.05L700,672.5z M649.95,660.3H650v-0.05
			L649.95,660.3z"/>
		<path fill="#C1B868" d="M662.5,691.25L650,697.5V690L662.5,691.25z"/>
		<path fill="#BB8D5D" d="M650,697.5v7.5l-50-25v-7.5L650,697.5z"/>
		<path fill="#7DA343" d="M600,672.5V665l50,25v7.5L600,672.5z"/>
		<path fill="#8BB54A" d="M600,665l50-25c-28.134,16.866-28.134,33.533,0,50L600,665z"/>
		
			<linearGradient id="SVGID_5_" gradientUnits="userSpaceOnUse" x1="-4032.9189" y1="9829.9727" x2="-2394.519" y2="9829.9727" gradientTransform="matrix(0.0053 -0.0198 -0.0302 -0.0081 962.6506 682.3865)">
			<stop  offset="0" style="stop-color:#E1DCB7"/>
			<stop  offset="1" style="stop-color:#E7DFC2"/>
		</linearGradient>
		<path fill="url(#SVGID_5_)" d="M650,640l12.5,13.75l-10.15,5.05l-0.149,0.05l-2.2,1.4c-3,2-5.167,4.033-6.5,6.1l-1.15,2
			l0.051,0.101c-2.467,6.066,1.816,12.383,12.85,18.95c2.167,1.267,4.583,2.55,7.25,3.85L650,690
			C621.866,673.533,621.866,656.866,650,640z M650,660.25l-0.05,0.05L650,660.25z"/>
		
			<linearGradient id="SVGID_6_" gradientUnits="userSpaceOnUse" x1="-5349.7969" y1="1063.8711" x2="-3711.3906" y2="1063.8711" gradientTransform="matrix(0.061 0 0 -0.0168 1036.5251 682.8688)">
			<stop  offset="0" style="stop-color:#E7DFC2"/>
			<stop  offset="1" style="stop-color:#E1DCB7"/>
		</linearGradient>
		<path fill="url(#SVGID_6_)" d="M801.3,660.65L810,665l-12.5,13.75L792,676l-2.1-0.95c-19.7-8.399-39.584-8.366-59.65,0.101
			l-3.9,1.699l-3.85,1.9L710,665l9.35-4.65C746.55,648.15,773.866,648.25,801.3,660.65z"/>
		<path fill="#8BB54A" d="M801.3,660.65c-27.433-12.4-54.75-12.5-81.95-0.301L760,640L801.3,660.65z"/>
		<path fill="#CDC687" d="M710,665l12.5,13.75L710,672.5V665z"/>
		<path fill="#9CD5E2" d="M722.5,678.75l3.85-1.9l3.9-1.699c20.066-8.467,39.95-8.5,59.65-0.101L792,676l5.5,2.75L760,697.5
			L722.5,678.75z"/>
		<path fill="#C1B868" d="M797.5,678.75L810,665v7.5L797.5,678.75z"/>
		<path fill="#9E7758" d="M810,672.5v7.5l-50,25v-7.5l37.5-18.75L810,672.5z"/>
		<path fill="#BB8D5D" d="M760,705l-50-25v-7.5l12.5,6.25L760,697.5V705z"/>
		<path fill="#74973E" d="M700,740v7.5l-50,25V765l37.1-18.55L700,740z"/>
		<path fill="#9E7758" d="M700,747.5v7.5l-50,25v-7.5L700,747.5z"/>
		<path fill="#BB8D5D" d="M650,780l-50-25v-7.5l50,25V780z"/>
		<path fill="#7DA343" d="M600,747.5V740l11.6,5.8L650,765v7.5L600,747.5z"/>
		
			<linearGradient id="SVGID_7_" gradientUnits="userSpaceOnUse" x1="-5349.7813" y1="1311.5352" x2="-3711.3906" y2="1311.5352" gradientTransform="matrix(0.061 0 0 -0.0087 926.5251 758.5273)">
			<stop  offset="0" style="stop-color:#E1DCB7"/>
			<stop  offset="1" style="stop-color:#E7DFC2"/>
		</linearGradient>
		<path fill="url(#SVGID_7_)" d="M600,740l12.5,1.25c25,12.667,50,12.667,75,0L700,740l-12.9,6.45
			c-24.966,10.6-50.133,10.383-75.5-0.65L600,740z"/>
		<path fill="#9CD5E2" d="M612.5,741.25l7.75-3.85L650,722.5l37.5,18.75C662.5,753.917,637.5,753.917,612.5,741.25z"/>
		<path fill="#8BB54A" d="M687.1,746.45L650,765l-38.4-19.2C636.967,756.833,662.134,757.05,687.1,746.45z"/>
		<path fill="#E1DCB7" d="M307.5,653.75L320,640l50,25l-12.5,13.75L307.5,653.75z"/>
		<path fill="#C1B868" d="M370,665v7.5l-12.45,6.3L370,665z M357.55,678.8l-0.05-0.05L357.55,678.8z"/>
		<path fill="#9E7758" d="M370,672.5v7.5l-50,25v-7.5l37.5-18.75L370,672.5z"/>
		<path fill="#BB8D5D" d="M320,705l-50-25v-7.5l50,25V705z"/>
		<path fill="#9CD5E2" d="M270,672.5l37.5-18.75l50,25L320,697.5L270,672.5z"/>
		<path fill="#BB8D5D" d="M210,705l-50-25v-7.5l12.5,6.3l37.5,18.7V705z M172.5,678.8v-0.05V678.8z"/>
		<path fill="#CDC687" d="M160,672.5V665l12.5,13.8L160,672.5z"/>
		<path fill="#E7DFC2" d="M160,665l50-25l12.5,13.75l-50,25L160,665z M172.5,678.75v0.05V678.75z"/>
		<path fill="#9CD5E2" d="M222.5,653.75L260,672.5l-50,25l-37.5-18.75L222.5,653.75z"/>
		<path fill="#9E7758" d="M260,672.5v7.5l-50,25v-7.5L260,672.5z"/>
		<path fill="#7DA343" d="M172.5,678.75v0.05V678.75z"/>
		<path fill="#9CD5E2" d="M290,737.5h0.05l2.8-1.4l0.95-0.5l26.2-13.1l50,25l-38.05,19l0.55-0.3l-50-25L290,737.5z M270,747.5h0.05
			l0.85,0.45L270,747.5z"/>
		<path fill="#9E7758" d="M370,747.5v7.5l-50,25v-7.5l11.95-6L370,747.5z"/>
		<path fill="#BB8D5D" d="M320,780l-50-25v-7.5l0.9,0.45L320,772.5V780z"/>
		<path fill="#CDC687" d="M270.05,747.5l-0.05-0.05v-7.5l50,25v7.55l-49.1-24.55L270.05,747.5z"/>
		<path fill="#E1DCB7" d="M270,739.95l12.5,1.25l50,25l-12.5-1.25L270,739.95z"/>
		<path fill="#C1B868" d="M332.5,766.2l-0.55,0.3l-11.95,6v-7.55L332.5,766.2z"/>
		<path fill="#CDC687" d="M197.5,766.2l12.5-1.25v7.55L197.5,766.2z"/>
		<path fill="#E7DFC2" d="M210,764.95l-12.5,1.25l50-25l12.5-1.25L210,764.95z"/>
		<path fill="#C1B868" d="M210,764.95l50-25v7.5l-0.9,0.5L210,772.5V764.95z M260,747.45l-0.05,0.05L260,747.45z"/>
		<path fill="#9CD5E2" d="M247.5,741.2l-50,25L160,747.5l50-25l29.95,15h0.1L247.5,741.2z M259.95,747.5H260l-0.9,0.45L259.95,747.5
			z"/>
		<path fill="#BB8D5D" d="M160,747.5l37.5,18.7l12.5,6.3v7.5l-50-25V747.5z"/>
		<path fill="#9E7758" d="M210,780v-7.5l49.1-24.55l0.9-0.45v7.5L210,780z"/>
		
			<linearGradient id="SVGID_8_" gradientUnits="userSpaceOnUse" x1="3407.4561" y1="-8357.6436" x2="5045.856" y2="-8357.6436" gradientTransform="matrix(-0.0053 -0.0198 0.0302 -0.0081 1036.3494 757.3865)">
			<stop  offset="0" style="stop-color:#E7DFC2"/>
			<stop  offset="1" style="stop-color:#E1DCB7"/>
		</linearGradient>
		<path fill="url(#SVGID_8_)" d="M760.05,735.3l-0.05-0.05l-2.2-1.4l-0.149-0.05l-10.15-5.05L760,715
			c28.134,16.866,28.134,33.533,0,50l-12.5,1.25l7.25-3.85c11.033-6.567,15.316-12.884,12.85-18.95l0.051-0.101l-1.15-2
			C765.167,739.283,763.017,737.267,760.05,735.3z"/>
		<path fill="#9CD5E2" d="M766.5,741.35l1.15,2l-0.051,0.101c2.467,6.066-1.816,12.383-12.85,18.95l-7.25,3.85L710,747.5l37.5-18.75
			l10.15,5.05l0.149,0.05l2.2,1.4C763,737.25,765.167,739.283,766.5,741.35z"/>
		<path fill="#CDC687" d="M747.5,766.25L760,765v7.5L747.5,766.25z"/>
		<path fill="#8BB54A" d="M760,765c28.134-16.467,28.134-33.134,0-50l50,25L760,765z"/>
		<path fill="#9E7758" d="M760,780l-50-25v-7.5l37.5,18.75l12.5,6.25V780z"/>
		<path fill="#BB8D5D" d="M760,780v-7.5l50-25v7.5L760,780z"/>
		<path fill="#7DA343" d="M810,747.5l-50,25V765l50-25V747.5z"/>
		
			<linearGradient id="SVGID_9_" gradientUnits="userSpaceOnUse" x1="-19825.0625" y1="1220.0352" x2="-18186.6875" y2="1220.0352" gradientTransform="matrix(0.0153 0 0 -0.0106 830.006 661.5849)">
			<stop  offset="0" style="stop-color:#E1DCB7"/>
			<stop  offset="1" style="stop-color:#E7DFC2"/>
		</linearGradient>
		<path fill="url(#SVGID_9_)" d="M552.5,653.75l-3.55,1.8c-6.101,2.5-12.3,2.367-18.601-0.399l-2.85-1.4L540,640L552.5,653.75z"/>
		<path fill="#9CD5E2" d="M548.95,655.55l3.55-1.8L590,672.5l-50,25l-50-25l37.5-18.75l2.85,1.4
			C536.65,657.917,542.85,658.05,548.95,655.55z"/>
		<path fill="#BB8D5D" d="M490,672.5l50,25v7.5l-50-25V672.5z"/>
		<path fill="#9E7758" d="M540,697.5l50-25v7.5l-50,25V697.5z"/>
		<path fill="#9E7758" d="M480,680l-50,25v-7.5l12.5-6.25L480,672.5V680z"/>
		<path fill="#9CD5E2" d="M480,672.5l-37.5,18.75l-3.55-1.8c-1.634-0.667-3.283-1.15-4.95-1.45c-2.6-0.467-5.233-0.45-7.9,0.05
			c-1.899,0.367-3.816,0.967-5.75,1.8l-2.85,1.4L380,672.5l50-25L480,672.5z"/>
		<path fill="#C1B868" d="M442.5,691.25L430,697.5V690L442.5,691.25z"/>
		<path fill="#BB8D5D" d="M430,697.5v7.5l-50-25v-7.5l37.5,18.75L430,697.5z"/>
		
			<linearGradient id="SVGID_10_" gradientUnits="userSpaceOnUse" x1="-819.2002" y1="689.4561" x2="819.1998" y2="689.4561" gradientTransform="matrix(0.0153 0 0 -0.0022 720.006 695.7003)">
			<stop  offset="0" style="stop-color:#E7DFC2"/>
			<stop  offset="1" style="stop-color:#E1DCB7"/>
		</linearGradient>
		<path fill="url(#SVGID_10_)" d="M438.95,689.45l3.55,1.8L430,690l-12.5,1.25l2.85-1.4c1.934-0.833,3.851-1.433,5.75-1.8
			c2.667-0.5,5.301-0.517,7.9-0.05C435.667,688.3,437.316,688.783,438.95,689.45z"/>
		<path fill="#CDC687" d="M417.5,691.25L430,690v7.5L417.5,691.25z"/>
		<path fill="#BB8D5D" d="M430,780l-50-25v-7.5l50,25V780z"/>
		<path fill="#9CD5E2" d="M380,747.5l50-25l37.5,18.75c-5.5,3.833-5.5,8,0,12.5L430,772.5L380,747.5z"/>
		
			<linearGradient id="SVGID_11_" gradientUnits="userSpaceOnUse" x1="-819.2002" y1="746.875" x2="819.1998" y2="746.875" gradientTransform="matrix(0 0.0102 0.0084 0 759.5158 748.4073)">
			<stop  offset="0" style="stop-color:#E7DFC2"/>
			<stop  offset="1" style="stop-color:#E1DCB7"/>
		</linearGradient>
		<path fill="url(#SVGID_11_)" d="M467.5,741.25L480,740l-12.5,13.75C462,749.25,462,745.083,467.5,741.25z"/>
		<path fill="#C1B868" d="M480,740v7.5l-12.5,6.25L480,740z"/>
		<path fill="#9E7758" d="M480,747.5v7.5l-50,25v-7.5l37.5-18.75L480,747.5z"/>
		
			<linearGradient id="SVGID_12_" gradientUnits="userSpaceOnUse" x1="-819.2002" y1="746.875" x2="819.1998" y2="746.875" gradientTransform="matrix(0 0.0101 0.0084 0 786.1652 748.4168)">
			<stop  offset="0" style="stop-color:#E1DCB7"/>
			<stop  offset="1" style="stop-color:#E7DFC2"/>
		</linearGradient>
		<path fill="url(#SVGID_12_)" d="M502.5,741.25c5.5,3.833,5.5,8,0,12.5L490,740L502.5,741.25z"/>
		<path fill="#9CD5E2" d="M502.5,753.75c5.5-4.5,5.5-8.667,0-12.5L540,722.5l50,25l-50,25L502.5,753.75z"/>
		<path fill="#BB8D5D" d="M502.5,753.75L540,772.5v7.5l-50-25v-7.5L502.5,753.75z"/>
		<path fill="#9E7758" d="M540,772.5l50-25v7.5l-50,25V772.5z"/>
		<path fill="#CDC687" d="M490,740l12.5,13.75L490,747.5V740z"/>
		<path fill="#9E7758" d="M150,747.5v7.5l-50,25v-7.5L150,747.5z"/>
		<path fill="#BB8D5D" d="M100,780l-50-25v-7.5l50,25V780z"/>
		<path fill="#CDC687" d="M50,747.5V740l50,25v7.5L50,747.5z"/>
		<path fill="#D8D19E" d="M50,740l50-25l50,25l-50,25L50,740z"/>
		<path fill="#C1B868" d="M150,740v7.5l-50,25V765L150,740z"/>
		<path fill="#D9D3BF" d="M1083.75,718.15h0.05c30.067,14.566,30.067,29.149,0,43.75l-6.3-3.15l5.6-2.8l0.65-0.351
			c7.5-4.133,12.133-8.216,13.9-12.25c2.6-5.8-0.733-11.483-10-17.05l-10.15-5.05L1083.75,718.15z M1083.75,755.6h0.05H1083.75z
			 M1083.8,761.9h-0.05H1083.8z M1045.7,737.2l1.149-0.601l0.95-0.5l4.7-2.35l4.35,2.2c1,0.667,1.717,1.35,2.15,2.05l0.45,1.3v0.65
			c-0.134,1.133-0.967,2.333-2.5,3.6l-3.65,2.3l-0.8,0.4l-6.2-3.1c4.5-2.167,4.483-4.25-0.05-6.25L1045.7,737.2z"/>
		<path fill="#8BB54A" d="M1083.8,718.15l6.2-3.15l50,25l-50,25l-6.2-3.1C1113.867,747.3,1113.867,732.717,1083.8,718.15z M1040,740
			l5.7-2.8l0.55-0.3c4.533,2,4.55,4.083,0.05,6.25L1040,740z"/>
		<path fill="#74973E" d="M1140,740v7.5l-50,25V765L1140,740z"/>
		<path fill="#BB8D5D" d="M1140,747.5v7.5l-50,25v-7.5L1140,747.5z"/>
		<path fill="#9E7758" d="M1090,780l-50-25v-7.5l6.25,3.15l6.25,3.1l25,12.5l6.25,3.15l6.25,3.1V780z"/>
		<path fill="#7DA343" d="M1040,747.5V740l6.3,3.15l-0.05,7.5L1040,747.5z M1046.3,743.15h-0.05H1046.3z M1083.75,761.9h0.05
			l6.2,3.1v7.5l-6.25-3.1V761.9z"/>
		<path fill="#9CD5E2" d="M1059,738l18.5-9.25l10.15,5.05c5.232,3.134,8.566,6.317,10,9.55c-1.768,4.034-6.384,8.117-13.851,12.25
			l-0.7,0.351l-5.6,2.8v7.5l-25-12.5l0.8-0.4c2.601-1.399,4.384-2.732,5.351-4l0.699-1.449l0.051-1.45l0.05-6.5v-0.65L1059,738z
			 M1083.8,755.6h-0.05H1083.8z"/>
		<path fill="#BCB38F" d="M1077.5,728.75v-7.5l10.15,5.05c9.267,5.567,12.6,11.25,10,17.05c-1.434-3.233-4.768-6.416-10-9.55
			L1077.5,728.75z M1077.5,758.75l6.25,3.15v7.5l-6.25-3.15V758.75z M1052.5,746.25v7.5l-6.25-3.1v-7.5L1052.5,746.25z
			 M1046.25,743.15h0.05H1046.25z"/>
		<path fill="#ACA075" d="M1052.5,746.25l0.8-0.4l3.65-2.3c1.533-1.267,2.366-2.467,2.5-3.6l-0.05,6.5l-0.051,1.45l-0.699,1.449
			c-0.967,1.267-2.75,2.601-5.351,4l-0.8,0.4V746.25z"/>
		<path fill="#8BB54A" d="M1023.75,736.9l6.25,3.1l-4.7,2.35l-0.95,0.5l-0.6,0.301C1019.217,740.983,1019.217,738.9,1023.75,736.9z
			 M930,740l50-25l6.2,3.15c-30.067,14.566-30.067,29.149,0,43.75L980,765L930,740z"/>
		<path fill="#D9D3BF" d="M1023.75,736.9c-4.533,2-4.533,4.083,0,6.25l-6.25,3.1l-0.8-0.4c-1.5-0.8-2.717-1.566-3.65-2.3
			c-1.533-1.267-2.366-2.467-2.5-3.6v-0.65c0.033-0.433,0.184-0.866,0.45-1.3c0.434-0.7,1.15-1.384,2.15-2.05l4.35-2.2
			L1023.75,736.9z M986.2,718.15h0.05l6.25,3.1l-10.15,5.05c-9.267,5.567-12.6,11.25-10,17.05c1.767,4.034,6.384,8.117,13.851,12.25
			l0.7,0.351l5.6,2.8l-5.8,2.95l-0.45,0.2C956.15,747.3,956.133,732.717,986.2,718.15z M986.2,755.6h0.05H986.2z M986.25,761.9
			h-0.05H986.25z"/>
		<path fill="#74973E" d="M1023.75,743.15l0.6-0.301l0.95-0.5l4.7-2.35v7.5c-1.566,0.8-3.117,1.583-4.65,2.35L1023,751l0.75-0.4
			V743.15z M986.25,769.4l-6.25,3.1V765l6.2-3.1L986.25,769.4z"/>
		<path fill="#9E7758" d="M1030,747.5v7.5l-50,25v-7.5l6.25-3.1l6.25-3.15l25-12.5l5.5-2.75l2.35-1.15
			C1026.883,749.083,1028.434,748.3,1030,747.5z"/>
		<path fill="#BB8D5D" d="M980,780l-50-25v-7.5l50,25V780z"/>
		<path fill="#7DA343" d="M930,747.5V740l50,25v7.5L930,747.5z"/>
		<path fill="#ACA075" d="M992.5,721.25v7.5l-10.15,5.05c-5.233,3.134-8.566,6.317-10,9.55c-2.6-5.8,0.733-11.483,10-17.05
			L992.5,721.25z M1023,751l-5.5,2.75v-7.5l6.25-3.1v7.449L1023,751z M992.5,766.25l-6.25,3.15v-7.5l0.45-0.2l5.8-2.95V766.25z"/>
		<path fill="#9CD5E2" d="M992.5,728.75L1011,738c-0.267,0.434-0.417,0.867-0.45,1.3v0.65l0.05,6.5
			c-0.1,0.467-0.083,0.95,0.051,1.45l0.699,1.449c0.967,1.267,2.75,2.601,5.351,4l0.8,0.4l-25,12.5v-7.5l-5.6-2.8l-0.65-0.351
			c-7.5-4.133-12.134-8.216-13.9-12.25c1.434-3.233,4.767-6.416,10-9.55L992.5,728.75z M986.25,755.6h-0.05H986.25z"/>
		<path fill="#BCB38F" d="M1010.55,739.95c0.134,1.133,0.967,2.333,2.5,3.6c0.934,0.733,2.15,1.5,3.65,2.3l0.8,0.4v7.5l-0.8-0.4
			c-2.601-1.399-4.384-2.732-5.351-4l-0.699-1.449c-0.134-0.5-0.15-0.983-0.051-1.45L1010.55,739.95z"/>
		<path fill="#9E7758" d="M1030,680l-50,25v-7.5l4.7-2.35l1.55-0.75l6.25-3.15l25-12.5l5.7-2.85l6.8-3.4V680z"/>
		<path fill="#74973E" d="M1030,672.5l-6.8,3.4l0.55-0.301v-7.449L1030,665V672.5z M986.25,694.4l-1.55,0.75l-4.7,2.35V690l4.7-2.35
			l1.5-0.75L986.25,694.4z M986.2,686.9l0.85-0.4l-0.8,0.4H986.2z"/>
		<path fill="#ACA075" d="M1023.2,675.9l-5.7,2.85v-7.5l5.4-2.7l0.85-0.399v7.449L1023.2,675.9z M992.5,691.25l-6.25,3.15v-7.5
			l0.8-0.4l5.45-2.75V691.25z"/>
		<path fill="#9CD5E2" d="M1017.5,678.75l-25,12.5v-7.5l-3.55-1.8c-6.101-2.5-12.3-2.367-18.601,0.399l-2.85,1.4v7.5l-25-12.5
			l3.85-1.9l3.9-1.699c20.066-8.467,39.95-8.5,59.65-0.101l1.399,0.65l0.7,0.3L1017.5,678.75z"/>
		<path fill="#BB8D5D" d="M980,697.5v7.5l-50-25v-7.5l6.85,3.4l5.65,2.85l25,12.5l6.25,3.15l1.55,0.75L980,697.5z"/>
		<path fill="#7DA343" d="M930,672.5V665l6.25,3.15v7.449l0.6,0.301L930,672.5z M975.35,687.65L980,690v7.5l-4.7-2.35l-1.55-0.75
			v-7.5L975.35,687.65z M973.75,686.9l-0.75-0.4l0.8,0.4H973.75z"/>
		<path fill="#8BB54A" d="M930,665l50-25l6.25,3.15L1030,665l-6.25,3.15c-29.5-16-58.667-16.017-87.5-0.051L930,665z
			 M1023.75,668.15l-0.85,0.399l0.85-0.45V668.15z M936.25,668.1l0.9,0.45l-0.9-0.399V668.1z M986.25,643.15V643.1V643.15z
			 M975.35,687.65l-1.55-0.75c4.467-2.601,8.601-2.601,12.4,0l-1.5,0.75L980,690L975.35,687.65z"/>
		<path fill="#D9D3BF" d="M1022.9,668.55l-5.4,2.7l-5.5-2.75l-0.85-0.4c-9.467-4.233-18.983-6.5-28.551-6.8
			c-1.733-0.066-3.467-0.05-5.199,0.05c-9.4,0.367-18.834,2.617-28.301,6.75l-2.75,1.25l-3.85,1.9l-5.35-2.7l-0.9-0.45
			c28.833-15.966,58-15.966,87.5,0L1022.9,668.55z M967.5,683.75l2.85-1.4c6.301-2.767,12.5-2.899,18.601-0.399l3.55,1.8l-5.45,2.75
			l-0.85,0.4c-3.8-2.601-7.934-2.601-12.4,0l-0.8-0.4L967.5,683.75z"/>
		
			<linearGradient id="SVGID_13_" gradientUnits="userSpaceOnUse" x1="-6958.1563" y1="1217.29" x2="-5319.7656" y2="1217.29" gradientTransform="matrix(0.0458 0 0 -0.0107 1261.019 683.0073)">
			<stop  offset="0" style="stop-color:#ACA075"/>
			<stop  offset="1" style="stop-color:#BCB38F"/>
		</linearGradient>
		<path fill="url(#SVGID_13_)" d="M1017.5,671.25v7.5L1012,676l-0.7-0.3l-1.399-0.65c-19.7-8.399-39.584-8.366-59.65,0.101
			l-3.9,1.699l-3.85,1.9v-7.5l3.85-1.9l2.75-1.25c9.467-4.133,18.9-6.383,28.301-6.75c1.733-0.1,3.467-0.116,5.199-0.05
			c9.567,0.3,19.084,2.566,28.551,6.8l0.85,0.4L1017.5,671.25z"/>
		<path fill="#BCB38F" d="M967.5,691.25v-7.5l5.5,2.75l0.75,0.4v7.5L967.5,691.25z M937.15,668.55l5.35,2.7v7.5l-5.65-2.85
			l-0.6-0.301v-7.449L937.15,668.55z"/>
		<path fill="#D9D3BF" d="M1132.9,661.45l0.85,0.45c-29.5,15.966-58.667,15.966-87.5,0l6.25-3.15l3.85,1.9l3.9,1.75
			c20.066,8.433,39.95,8.449,59.65,0.05l2.1-0.95l5.5-2.75L1132.9,661.45z M1077.5,646.25l6.3-3.15c4.467,2.601,8.601,2.601,12.4,0
			l6.3,3.15l-3.55,1.8c-6.101,2.5-12.3,2.367-18.601-0.399L1077.5,646.25z"/>
		<path fill="#8BB54A" d="M1133.75,661.9l-0.85-0.45l7.1,3.55l-50,25l-50-25l6.25-3.1
			C1075.083,677.866,1104.25,677.866,1133.75,661.9z M1083.8,643.1l6.2-3.1l6.2,3.1C1092.4,645.7,1088.267,645.7,1083.8,643.1z"/>
		<path fill="#7DA343" d="M1040,665l50,25v7.5l-50-25V665z"/>
		<path fill="#74973E" d="M1090,690l50-25v7.5l-50,25V690z"/>
		<path fill="#9CD5E2" d="M1119.9,662.45c-19.7,8.399-39.584,8.383-59.65-0.05l17.25-8.65l2.85,1.4
			c6.301,2.767,12.5,2.899,18.601,0.399l3.55-1.8L1119.9,662.45z"/>
		<path fill="#9E7758" d="M1140,672.5v7.5l-50,25v-7.5L1140,672.5z"/>
		<path fill="#BB8D5D" d="M1090,705l-50-25v-7.5l50,25V705z"/>
		
			<linearGradient id="SVGID_14_" gradientUnits="userSpaceOnUse" x1="-19825" y1="1462.1758" x2="-18186.625" y2="1462.1758" gradientTransform="matrix(0.0153 0 0 -0.0068 1380.0061 661.6958)">
			<stop  offset="0" style="stop-color:#BCB38F"/>
			<stop  offset="1" style="stop-color:#ACA075"/>
		</linearGradient>
		<path fill="url(#SVGID_14_)" d="M1102.5,653.75l-3.55,1.8c-6.101,2.5-12.3,2.367-18.601-0.399l-2.85-1.4v-7.5l2.85,1.4
			c6.301,2.767,12.5,2.899,18.601,0.399l3.55-1.8V653.75z"/>
		<path fill="#BCB38F" d="M857.5,728.75v-7.5l50,25v7.5L857.5,728.75z"/>
		<path fill="#9CD5E2" d="M840,737.5l17.5-8.75l50,25l-25,12.5v-7.5L840,737.5z M907.5,753.75h-0.05H907.5z"/>
		<path fill="#ACA075" d="M907.5,753.75v-7.5l5.4-2.7l0.85-0.399v7.449L907.5,753.75z M876.7,761.7l5.8-2.95v7.5l-1.75,0.9
			l-4.5,2.25v-7.5L876.7,761.7z"/>
		<path fill="#D9D3BF" d="M907.5,746.25l-50-25c2.1-1.033,4.184-2.083,6.25-3.15l50,25l-0.85,0.45L907.5,746.25z M863.75,718.1
			l0.05,0.051L863.75,718.1z M826.85,736.6l5.65-2.85l7.5,3.75l42.5,21.25l-5.8,2.95l-0.45,0.2l-50-25L826.85,736.6z"/>
		<path fill="#8BB54A" d="M863.8,718.15L870,715l50,25l-6.25,3.15L863.8,718.15z M913.75,743.15l-0.85,0.399l0.85-0.45V743.15z
			 M820,740l6.85-3.4l-0.6,0.301l50,25L870,765L820,740z"/>
		<path fill="#74973E" d="M920,740v7.5l-12.5,6.3l6.25-3.2v-7.449L920,740z M907.5,753.8v-0.05V753.8z M870,772.5V765l6.25-3.1v7.5
			L870,772.5z M876.25,761.9l0.45-0.2L876.25,761.9z M882.5,766.25v0.05l-1.75,0.851L882.5,766.25z"/>
		<path fill="#9E7758" d="M920,747.5v7.5l-50,25v-7.5l6.25-3.1l4.5-2.25l1.75-0.851l24.95-12.55L920,747.5z M907.45,753.75
			l0.05,0.05L907.45,753.75z M882.5,766.3v-0.05V766.3z"/>
		<path fill="#BB8D5D" d="M870,780l-50-25v-7.5l50,25V780z"/>
		<path fill="#7DA343" d="M820,747.5V740l50,25v7.5L820,747.5z"/>
		<path fill="#BCB38F" d="M859.3,692.15l-1.8-0.9v-7.5l5.85,2.95l0.4,0.2v7.5L859.3,692.15z M832.5,671.25v7.5l-6.25-3.15v-7.449
			l0.9,0.399l0.699,0.351L832.5,671.25z"/>
		<path fill="#7DA343" d="M857.5,691.3v-0.05l1.8,0.9L857.5,691.3z M870,697.5l-6.25-3.1v-7.5L870,690V697.5z M863.75,686.9
			l-0.4-0.2l0.45,0.2H863.75z M832.5,678.75v0.05l-12.5-6.3V665l6.25,3.15v7.449L832.5,678.75z"/>
		<path fill="#BB8D5D" d="M857.5,691.25v0.05l1.8,0.851l4.45,2.25l6.25,3.1v7.5l-50-25v-7.5l12.5,6.3L857.5,691.25z M832.5,678.8
			l0.05-0.05L832.5,678.8z"/>
		<path fill="#D9D3BF" d="M863.35,686.7l-5.85-2.95L900,662.5l7.5-3.75l5.7,2.85l0.55,0.301l-49.95,25L863.35,686.7z M832.5,671.25
			l-4.65-2.35l-0.699-0.351l-0.9-0.45l50-24.949l6.25,3.1L832.5,671.25z M876.25,643.15V643.1V643.15z"/>
		<path fill="#9CD5E2" d="M857.5,683.75v7.5l-24.95-12.5l49.95-25l17.5,8.75L857.5,683.75z M832.55,678.75h-0.05H832.55z"/>
		<path fill="#9E7758" d="M870,705v-7.5l50-25v7.5L870,705z"/>
		<path fill="#ACA075" d="M832.5,678.75v-7.5l50-25v7.5L832.5,678.75z"/>
		<path fill="#8BB54A" d="M870,640l6.25,3.15l-50,24.949L820,665L870,640z M827.15,668.55l-0.9-0.399L827.15,668.55z M913.2,661.6
			l6.8,3.4l-50,25l-6.2-3.1l49.95-25L913.2,661.6z"/>
		<path fill="#74973E" d="M920,665v7.5l-50,25V690L920,665z"/>
	</g>
</g>
</svg>
