<svg xmlns="http://www.w3.org/2000/svg" xmlns:xlink="http://www.w3.org/1999/xlink">
  <defs/>
  <g>
    <path stroke="none" fill="#E28556" d="M926.3 721.15 L934.15 719.45 941.2 717.9 941.15 721.75 922.2 725.25 921.2 722.25 926.3 721.15 M940.6 748.15 L946.6 746.95 946.45 750.95 926.4 754.15 925.55 751.05 930.8 750.05 940.6 748.15 M945.5 777.1 L950.9 776 950.75 778.8 928.85 782.65 928.4 780.55 933.35 779.55 945.5 777.1 M949.1 807.9 L953.4 807.3 953.2 810.4 929.1 812.85 928.85 810.6 933.85 809.95 949.1 807.9 M951.1 838.05 L955.05 837.75 954.7 840.65 928.05 842.55 927.8 840 932.55 839.65 951.1 838.05"/>
    <path stroke="none" fill="#AF6742" d="M951.1 838.05 L932.55 839.65 932 835.25 951.45 833.55 951.1 838.05 M933.7 715.85 L934.15 719.45 926.3 721.15 924.85 717.7 933.7 715.85 M940.7 743.95 L940.6 748.15 930.8 750.05 930.75 749.95 929.3 745.65 940.7 743.95 M945.65 773.55 L945.5 777.1 933.35 779.55 933.35 779.45 932.1 775 945.65 773.55 M949.3 804.15 L949.1 807.9 933.85 809.95 933.1 805.8 949.3 804.15"/>
    <path stroke="none" fill="#C9764D" d="M949.3 804.15 L933.1 805.8 928.85 782.65 950.75 778.8 949.3 804.15 M933.7 715.85 L924.85 717.7 915 694.25 930.7 693 933.7 715.85 M941.15 721.75 L940.7 743.95 929.3 745.65 922.2 725.25 941.15 721.75 M946.45 750.95 L945.65 773.55 932.1 775 926.4 754.15 946.45 750.95 M953.2 810.4 L951.45 833.55 932 835.25 929.1 812.85 953.2 810.4 M954.7 840.65 L951.75 865 930.05 865 928.05 842.55 954.7 840.65"/>
    <path stroke="none" fill="#FFFFFF" d="M1947.1 139.65 L1947 133.3 1947.1 131.3 Q1947.7 120.35 1955.65 112.4 1964.3 103.8 1976.5 103.8 1981.25 103.8 1985.4 105.1 1987 103.05 1988.95 101.1 1994.7 95.3 2001.6 92.4 L2001.55 91.4 2001.6 90.3 Q2001.95 84.15 2006.4 79.7 2011.25 74.85 2018.1 74.85 2023.3 74.85 2027.35 77.65 2038.75 69.8 2053.25 69.55 2055.85 62.35 2061.7 56.5 2063.45 54.75 2065.35 53.3 2074.75 46 2087.15 46 2102.05 46 2112.55 56.5 2115.1 59.05 2117.05 61.85 2121.7 60.75 2126.85 60.75 2143.7 60.75 2155.55 72.65 2166.5 83.6 2167.45 98.75 L2167.5 101.45 2167.45 103.8 2167.5 103.8 Q2179.75 103.8 2188.35 112.4 2196.3 120.35 2196.95 131.3 L2197 133.3 Q2197 141.5 2193.2 148 L2192.3 148.7 Q2193.65 144.65 2193.65 140 L2193.6 138.25 Q2193 128.5 2186 121.5 2178.35 113.85 2167.5 113.85 L2167.45 113.85 Q2166.55 113.85 2165.75 113.4 L2164.5 112.1 Q2164.05 111.3 2164.1 110.35 L2164.15 108.15 2164.1 105.6 Q2163.2 91.75 2153.2 81.75 L2153.25 81.75 Q2142.3 70.8 2126.85 70.8 2122.1 70.8 2117.8 71.85 L2115.85 71.7 Q2114.85 71.3 2114.3 70.45 2112.5 67.9 2110.2 65.6 2107.3 62.7 2104 60.65 2096.55 56.05 2087.15 56.05 2073.6 56.05 2064.1 65.6 2058.75 70.9 2056.45 77.4 2056.05 78.4 2055.2 79 2054.4 79.6 2053.35 79.6 2039.85 79.8 2029.25 87.15 2028.35 87.7 2027.35 87.7 2026.3 87.7 2025.45 87.15 2022.25 84.9 2018.1 84.9 2012.65 84.9 2008.8 88.8 2005.25 92.3 2004.95 97.25 L2004.9 98.15 2004.95 99 Q2004.95 100.05 2004.4 100.9 2003.85 101.8 2002.9 102.25 1996.6 104.9 1991.35 110.15 1989.5 111.95 1988.05 113.85 1987.4 114.65 1986.4 115 1985.4 115.3 1984.45 115 1980.7 113.85 1976.5 113.85 1965.65 113.85 1958 121.5 1951 128.5 1950.45 138.2 L1950.45 138.25 1950.35 140 Q1950.35 141.9 1950.6 143.7 1950.95 146.35 1951.8 148.8 L1950.9 148.1 Q1948.05 143.2 1947.1 139.65"/>
    <path stroke="none" fill="#F0F9FB" d="M1951.8 148.8 Q1950.95 146.35 1950.6 143.7 1950.35 141.9 1950.35 140 L1950.45 138.25 1950.45 138.2 Q1951 128.5 1958 121.5 1965.65 113.85 1976.5 113.85 1980.7 113.85 1984.45 115 1985.4 115.3 1986.4 115 1987.4 114.65 1988.05 113.85 1989.5 111.95 1991.35 110.15 1996.6 104.9 2002.9 102.25 2003.85 101.8 2004.4 100.9 2004.95 100.05 2004.95 99 L2004.9 98.15 2004.95 97.25 Q2005.25 92.3 2008.8 88.8 2012.65 84.9 2018.1 84.9 2022.25 84.9 2025.45 87.15 2026.3 87.7 2027.35 87.7 2028.35 87.7 2029.25 87.15 2039.85 79.8 2053.35 79.6 2054.4 79.6 2055.2 79 2056.05 78.4 2056.45 77.4 2058.75 70.9 2064.1 65.6 2073.6 56.05 2087.15 56.05 2096.55 56.05 2104 60.65 2107.3 62.7 2110.2 65.6 2112.5 67.9 2114.3 70.45 2114.85 71.3 2115.85 71.7 L2117.8 71.85 Q2122.1 70.8 2126.85 70.8 2142.3 70.8 2153.25 81.75 L2153.2 81.75 Q2163.2 91.75 2164.1 105.6 L2164.15 108.15 2164.1 110.35 Q2164.05 111.3 2164.5 112.1 L2165.75 113.4 Q2166.55 113.85 2167.45 113.85 L2167.5 113.85 Q2178.35 113.85 2186 121.5 2193 128.5 2193.6 138.25 L2193.65 140 Q2193.65 144.65 2192.3 148.7 L2192.15 148.8 Q2183.45 155.55 2171.65 156.55 L2167.5 156.7 2161.15 156.3 Q2155.2 155.5 2150.1 153.2 2155.45 150.55 2160.05 145.95 L2161.95 143.95 Q2164.3 141.25 2166.05 138.25 L2164.8 139.3 Q2155.15 146.75 2142.45 148.55 L2142.2 148.6 2134.85 149.1 2133.8 150.95 2132.3 152.15 Q2129.5 154.3 2126.5 156.05 2116.45 161.95 2104 163.35 L2095.9 163.8 2088.25 163.45 Q2081.95 162.75 2076.3 160.95 2082.8 157.55 2088.4 151.95 2090.7 149.7 2092.6 147.25 L2092.65 147.25 2096.3 141.9 2094.55 143.2 Q2081.5 153.3 2064.25 155.5 L2061.25 155.8 2055.75 156.1 2054.3 156.1 2047.85 155.85 2048.4 155.15 Q2050.7 152.45 2052.4 149.6 L2051 150.7 Q2047.5 153.4 2043.65 155.4 2037.6 158.55 2030.65 160.1 2024.4 161.4 2017.4 161.4 2004.6 161.4 1994.25 156.9 L1989.9 154.75 Q1986.65 152.95 1983.75 150.7 L1982.5 149.7 Q1984.15 152.55 1986.4 155.2 L1986.75 155.6 1979.15 156.65 1976.5 156.7 Q1962.05 156.7 1951.85 148.8 L1951.8 148.8"/>
    <path stroke="none" fill="#D7F0F6" d="M1951.8 148.8 L1951.85 148.8 Q1962.05 156.7 1976.5 156.7 L1979.15 156.65 1986.75 155.6 1986.4 155.2 Q1984.15 152.55 1982.5 149.7 L1983.75 150.7 Q1986.65 152.95 1989.9 154.75 L1994.25 156.9 Q2004.6 161.4 2017.4 161.4 2024.4 161.4 2030.65 160.1 2037.6 158.55 2043.65 155.4 2047.5 153.4 2051 150.7 L2052.4 149.6 Q2050.7 152.45 2048.4 155.15 L2047.85 155.85 2054.3 156.1 2055.75 156.1 2061.25 155.8 2064.25 155.5 Q2081.5 153.3 2094.55 143.2 L2096.3 141.9 2092.65 147.25 2092.6 147.25 Q2090.7 149.7 2088.4 151.95 2082.8 157.55 2076.3 160.95 2081.95 162.75 2088.25 163.45 L2095.9 163.8 2104 163.35 Q2116.45 161.95 2126.5 156.05 2129.5 154.3 2132.3 152.15 L2133.8 150.95 2134.85 149.1 2142.2 148.6 2142.45 148.55 Q2155.15 146.75 2164.8 139.3 L2166.05 138.25 Q2164.3 141.25 2161.95 143.95 L2160.05 145.95 Q2155.45 150.55 2150.1 153.2 2155.2 155.5 2161.15 156.3 L2167.5 156.7 2171.65 156.55 Q2183.45 155.55 2192.15 148.8 L2192.3 148.7 2193.2 148 2191.65 150.35 2188.4 154.1 2188.35 154.15 Q2180.2 162.35 2168.8 162.75 2166.55 166.5 2163.2 169.9 2153.1 180.05 2138.75 180.05 L2137.4 180.05 Q2135.85 182.4 2133.7 184.55 2126.3 192 2115.7 192 2109.3 192 2104 189.25 2100.6 187.45 2097.7 184.55 L2095.7 182.3 Q2085.55 187.7 2073.2 187.7 2060.05 187.7 2049.4 181.6 2040 187.5 2028.15 187.5 2011.3 187.5 1999.4 175.6 L1997.15 173.15 Q1990.15 176.7 1981.6 176.7 1967.3 176.7 1957.15 166.55 1953.8 163.15 1951.6 159.4 1947 151.65 1947 142.05 L1947.1 139.7 1947.1 139.65 Q1948.05 143.2 1950.9 148.1 L1951.8 148.8"/>
    <path stroke="none" fill="#FFFFFF" d="M1673.35 155.7 L1672.6 155.05 Q1669.15 149.25 1668.3 142.25 1668 140 1668 137.6 L1668.1 135.15 Q1668.85 122.25 1678.25 112.85 1688.1 102.95 1702.05 102.65 1703.6 86.5 1715.5 74.75 1729.2 61 1748.55 61 1763.85 61 1775.65 69.65 1782.1 64.5 1790.7 64.5 1800.9 64.5 1808.05 71.7 1810 73.6 1811.4 75.75 1827.1 75.9 1838.25 87.05 1843.25 92.05 1846.05 97.95 L1849.45 97.95 Q1864.5 98.75 1874.6 109.95 1883.85 120.2 1884 133.6 L1883.95 136.1 1883.35 141.1 Q1882.1 148.15 1878.2 153.95 L1877.95 154.15 Q1879.35 150.85 1880.1 147.2 L1880.6 142.65 1880.65 140.35 1880.65 140.3 Q1880.5 128.1 1872.1 118.9 1862.95 108.75 1849.3 108.05 L1846.15 108 Q1845.15 108.05 1844.3 107.55 1843.4 107 1843 106.1 1840.45 100.7 1835.9 96.15 L1835.85 96.15 Q1825.65 85.9 1811.35 85.75 1810.5 85.75 1809.8 85.35 L1808.6 84.25 1805.7 80.75 1805.65 80.75 Q1799.5 74.55 1790.7 74.55 1783.3 74.55 1777.75 79 1776.85 79.7 1775.75 79.7 1774.6 79.7 1773.7 79.05 1762.75 71.05 1748.55 71.05 1730.6 71.05 1717.85 83.75 1706.85 94.7 1705.35 109.65 1705.25 110.9 1704.35 111.8 1703.4 112.65 1702.1 112.7 1689.55 113 1680.6 121.95 1672.15 130.35 1671.45 142.05 L1671.35 144.3 Q1671.35 146.5 1671.65 148.6 L1671.6 148.55 Q1672.05 152.3 1673.35 155.7"/>
    <path stroke="none" fill="#F0F9FB" d="M1673.35 155.7 Q1672.05 152.3 1671.6 148.55 L1671.65 148.6 Q1671.35 146.5 1671.35 144.3 L1671.45 142.05 Q1672.15 130.35 1680.6 121.95 1689.55 113 1702.1 112.7 1703.4 112.65 1704.35 111.8 1705.25 110.9 1705.35 109.65 1706.85 94.7 1717.85 83.75 1730.6 71.05 1748.55 71.05 1762.75 71.05 1773.7 79.05 1774.6 79.7 1775.75 79.7 1776.85 79.7 1777.75 79 1783.3 74.55 1790.7 74.55 1799.5 74.55 1805.65 80.75 L1805.7 80.75 1808.6 84.25 1809.8 85.35 Q1810.5 85.75 1811.35 85.75 1825.65 85.9 1835.85 96.15 L1835.9 96.15 Q1840.45 100.7 1843 106.1 1843.4 107 1844.3 107.55 1845.15 108.05 1846.15 108 L1849.3 108.05 Q1862.95 108.75 1872.1 118.9 1880.5 128.1 1880.65 140.3 L1880.65 140.35 1880.6 142.65 1880.1 147.2 Q1879.35 150.85 1877.95 154.15 L1876.9 154.85 Q1874.05 156.85 1870.95 158.35 1859.95 163.7 1846.05 162.95 1839.7 162.6 1834.05 161.05 1830.95 160.25 1828.1 159.05 L1828.5 158.4 1830.65 154.15 1829.45 155.35 1826.25 158.2 Q1815 167.35 1798.75 169.25 L1792.65 169.7 Q1786.3 169.8 1780.45 168.6 1785.1 165.85 1789.2 161.75 L1792.55 158.1 1796.3 152.65 1794.8 153.85 Q1783.65 162.45 1769 164.7 L1758.25 165.5 Q1741.6 165.5 1728.75 158.5 1725 156.45 1721.65 153.85 L1720.25 152.75 Q1721.95 155.6 1724.1 158.2 L1725.8 160.15 Q1722.35 161.9 1718.6 163.1 1711.4 165.3 1703.05 165.3 L1698.1 165.1 Q1684.05 163.9 1673.7 156 L1673.35 155.7"/>
    <path stroke="none" fill="#D7F0F6" d="M1673.35 155.7 L1673.7 156 Q1684.05 163.9 1698.1 165.1 L1703.05 165.3 Q1711.4 165.3 1718.6 163.1 1722.35 161.9 1725.8 160.15 L1724.1 158.2 Q1721.95 155.6 1720.25 152.75 L1721.65 153.85 Q1725 156.45 1728.75 158.5 1741.6 165.5 1758.25 165.5 L1769 164.7 Q1783.65 162.45 1794.8 153.85 L1796.3 152.65 1792.55 158.1 1789.2 161.75 Q1785.1 165.85 1780.45 168.6 1786.3 169.8 1792.65 169.7 L1798.75 169.25 Q1815 167.35 1826.25 158.2 L1829.45 155.35 1830.65 154.15 1828.5 158.4 1828.1 159.05 Q1830.95 160.25 1834.05 161.05 1839.7 162.6 1846.05 162.95 1859.95 163.7 1870.95 158.35 1874.05 156.85 1876.9 154.85 L1877.95 154.15 1878.2 153.95 1877.7 154.65 Q1875.7 157.5 1873.15 160.05 L1871.9 161.15 1866.25 165.45 1863.95 167.9 Q1853.55 178.3 1838.8 178.3 1832.3 178.3 1826.7 176.3 L1825.05 177.95 Q1813.8 189.3 1797.8 189.3 L1795.65 189.25 Q1784.5 200 1768.9 200 1752.95 200 1741.6 188.7 L1740.7 187.75 1733.7 188.35 Q1717.65 188.35 1706.35 177 1704.15 174.85 1702.4 172.55 1688.25 172.35 1678.25 162.3 L1676.9 160.9 1674.1 157.35 1672.6 155.05 1673.35 155.7"/>
    <path stroke="none" fill="#FFFFFF" d="M1421.6 169.8 Q1418.15 163.9 1417.3 156.95 1417 154.6 1417 152.2 L1417.1 149.8 Q1417.85 136.75 1427.25 127.3 L1431.3 123.8 Q1432.3 112.35 1440.8 104 1450.35 94.4 1463.85 94.4 L1464.35 94.4 1464.4 92 Q1465.3 76.45 1476.6 65.2 1488 53.8 1503.95 53.05 L1506.15 53 1508.35 53.05 Q1524.2 53.8 1535.6 65.2 1540.65 70.25 1543.65 76.15 1555.05 78.6 1563.85 87.45 1575.1 98.75 1576 114.35 L1576.05 117.1 1575.8 122.9 1575.2 126.4 Q1577.75 127.45 1580.1 129.1 L1583.75 132.2 1585.7 134.3 1590.35 133.9 Q1599.7 133.9 1606.35 140.5 1612.45 146.65 1612.95 155.05 L1613 156.6 1612.8 159.75 Q1612.25 164.2 1610.05 167.95 L1609.25 168.55 1608.95 168.8 1609.5 166.05 1609.65 163.35 1609.6 161.95 Q1609.15 154.8 1604 149.65 1598.35 144 1590.35 144 L1586.4 144.35 1584.6 144.25 Q1583.7 143.9 1583.15 143.15 L1581.45 141.25 Q1578.05 137.9 1573.95 136.25 1572.8 135.8 1572.25 134.7 1571.65 133.65 1571.9 132.45 L1572.5 129.35 1572.5 129.1 1572.7 123.8 1572.65 121.2 Q1571.8 106.9 1561.5 96.55 L1561.45 96.55 Q1553.4 88.4 1542.95 86.15 1542.2 85.95 1541.6 85.55 L1540.65 84.4 Q1537.85 78.95 1533.3 74.35 L1533.25 74.35 Q1522 63.05 1506.15 63.05 1490.25 63.05 1478.95 74.35 1468.6 84.7 1467.75 98.95 L1467.7 101.15 Q1467.7 102.55 1466.7 103.5 1465.7 104.5 1464.35 104.5 L1463.85 104.5 Q1451.7 104.5 1443.15 113.1 1435.55 120.6 1434.65 130.85 L1434.25 132.2 1433.3 133.25 Q1431.4 134.65 1429.65 136.45 1421.15 145 1420.45 156.7 L1420.45 156.8 1420.35 158.9 Q1420.35 161.15 1420.6 163.25 L1420.65 163.3 Q1421.1 167 1422.4 170.4 L1421.6 169.8"/>
    <path stroke="none" fill="#F0F9FB" d="M1422.4 170.4 Q1421.1 167 1420.65 163.3 L1420.6 163.25 Q1420.35 161.15 1420.35 158.9 L1420.45 156.8 1420.45 156.7 Q1421.15 145 1429.65 136.45 1431.4 134.65 1433.3 133.25 L1434.25 132.2 1434.65 130.85 Q1435.55 120.6 1443.15 113.1 1451.7 104.5 1463.85 104.5 L1464.35 104.5 Q1465.7 104.5 1466.7 103.5 1467.7 102.55 1467.7 101.15 L1467.75 98.95 Q1468.6 84.7 1478.95 74.35 1490.25 63.05 1506.15 63.05 1522 63.05 1533.25 74.35 L1533.3 74.35 Q1537.85 78.95 1540.65 84.4 L1541.6 85.55 Q1542.2 85.95 1542.95 86.15 1553.4 88.4 1561.45 96.55 L1561.5 96.55 Q1571.8 106.9 1572.65 121.2 L1572.7 123.8 1572.5 129.1 1572.5 129.35 1571.9 132.45 Q1571.65 133.65 1572.25 134.7 1572.8 135.8 1573.95 136.25 1578.05 137.9 1581.45 141.25 L1583.15 143.15 Q1583.7 143.9 1584.6 144.25 L1586.4 144.35 1590.35 144 Q1598.35 144 1604 149.65 1609.15 154.8 1609.6 161.95 L1609.65 163.35 1609.5 166.05 1608.95 168.8 Q1602.2 173.85 1593.2 174.5 L1590.35 174.6 1589 174.6 Q1583.45 174.4 1578.8 172.65 L1582.75 169.7 1583.75 168.7 Q1586.3 166.2 1588 163.35 L1587.1 164.05 Q1581.15 168.6 1573.6 170.1 L1565.55 170.9 1563.35 170.85 1562.4 172.55 1561.25 173.45 Q1550.2 182 1534.5 182 L1524.1 180.95 Q1519.15 179.9 1514.75 177.8 1518.25 175.35 1521.45 172.15 L1524.8 168.5 Q1526.9 165.85 1528.6 163 L1527.05 164.2 Q1518.55 170.8 1508.1 173.65 L1500.85 175.25 1490.55 175.95 Q1482.7 175.95 1475.75 174.35 1463.55 171.65 1453.95 164.2 L1452.6 163.15 Q1454.25 165.95 1456.4 168.6 L1459.6 172.15 Q1463.05 175.6 1466.8 178.1 1461.7 179.55 1456 179.95 L1452.1 180.05 1442.4 179.25 Q1431.3 177.3 1422.75 170.65 L1422.4 170.4"/>
    <path stroke="none" fill="#D7F0F6" d="M1422.4 170.4 L1422.75 170.65 Q1431.3 177.3 1442.4 179.25 L1452.1 180.05 1456 179.95 Q1461.7 179.55 1466.8 178.1 1463.05 175.6 1459.6 172.15 L1456.4 168.6 Q1454.25 165.95 1452.6 163.15 L1453.95 164.2 Q1463.55 171.65 1475.75 174.35 1482.7 175.95 1490.55 175.95 L1500.85 175.25 1508.1 173.65 Q1518.55 170.8 1527.05 164.2 L1528.6 163 Q1526.9 165.85 1524.8 168.5 L1521.45 172.15 Q1518.25 175.35 1514.75 177.8 1519.15 179.9 1524.1 180.95 L1534.5 182 Q1550.2 182 1561.25 173.45 L1562.4 172.55 1563.35 170.85 1565.55 170.9 1573.6 170.1 Q1581.15 168.6 1587.1 164.05 L1588 163.35 Q1586.3 166.2 1583.75 168.7 L1582.75 169.7 1578.8 172.65 Q1583.45 174.4 1589 174.6 L1590.35 174.6 1593.2 174.5 Q1602.2 173.85 1608.95 168.8 L1609.25 168.55 1610.05 167.95 1608.45 170.3 1606.35 172.65 1604.15 174.65 Q1598.85 178.85 1592 179.3 1591.25 181.35 1590.1 183.25 1588.4 186.2 1585.8 188.7 1578.1 196.45 1567.3 196.45 1562.9 196.45 1559.1 195.2 1549.65 203.85 1536.65 203.85 1531.55 203.85 1527 202.55 1517.6 209 1505.6 209 L1500.85 208.7 Q1487.85 207.25 1478.3 197.6 L1477.1 196.4 1474.55 196.45 Q1460.2 196.45 1449.65 187.25 1436.65 186.45 1427.25 177.05 L1425.8 175.55 1423.05 172.05 1421.6 169.8 1422.4 170.4"/>
    <path stroke="none" fill="#FFFFFF" d="M1146.1 158.45 Q1144.75 156.2 1144 153.75 1143.45 151.9 1143.2 149.9 L1143 146.75 1143.05 145.15 Q1143.2 142.3 1144 139.75 1145.3 135.35 1148.4 131.7 L1149.95 130 Q1150.9 129 1151.95 128.15 L1151.8 125.9 1151.9 124.55 Q1152.3 117.5 1157.55 112.35 1163.15 106.75 1171.1 106.75 1177 106.75 1181.6 109.8 1184.35 108.65 1187.35 108.05 1188.4 98.35 1195.7 91.15 1204.2 82.75 1216.25 82.75 L1223.6 83.55 1224.9 82.2 Q1237.2 70 1254.5 70 1271.8 70 1284.05 82.2 1293.25 91.3 1295.6 103.25 1300.45 105.05 1304.7 108.5 L1308.9 108.1 Q1316.85 108.1 1322.5 113.7 1327.55 118.7 1328.1 125.6 1334.25 126.9 1339.05 131.6 1345.4 137.8 1345.95 146.5 L1346 148.05 1345.8 151.3 Q1345.2 155.9 1342.95 159.85 L1342.1 160.5 1341.85 160.7 1342.5 157.55 1342.5 157.65 1342.65 154.7 1342.6 153.35 Q1342.15 145.95 1336.7 140.6 1332.6 136.65 1327.35 135.45 1326.3 135.25 1325.55 134.4 1324.8 133.55 1324.75 132.55 1324.3 126.8 1320.15 122.75 1315.4 118.1 1308.9 118.1 L1305.45 118.45 1303.95 118.4 1302.6 117.75 Q1298.8 114.65 1294.35 112.95 1293.55 112.6 1293 112 1292.4 111.35 1292.25 110.5 1290.15 99.55 1281.7 91.2 1270.4 80 1254.5 80 1238.6 80 1227.3 91.2 L1226 92.5 Q1225.4 93.15 1224.5 93.45 1223.65 93.7 1222.75 93.45 L1216.25 92.7 Q1205.6 92.7 1198.1 100.2 1191.6 106.5 1190.65 115.05 1190.55 116.15 1189.8 117 1189.05 117.8 1188 118 1185.35 118.5 1182.95 119.5 L1181.3 119.8 Q1180.45 119.7 1179.75 119.2 1176 116.7 1171.1 116.75 1164.55 116.75 1159.9 121.4 1155.6 125.6 1155.3 131.4 L1155.3 131.6 1155.2 132.55 1155.35 134.4 1155.1 136 1154.15 137.35 Q1153.2 138.1 1152.35 139 L1150.95 140.45 1150.95 140.5 Q1146.8 145.5 1146.4 152 L1146.4 152.1 1146.35 153.4 Q1146.35 154.75 1146.5 156.1 L1146.55 156.15 1147.2 159.25 1146.85 159 1146.1 158.45"/>
    <path stroke="none" fill="#F0F9FB" d="M1147.2 159.25 L1146.55 156.15 1146.5 156.1 Q1146.35 154.75 1146.35 153.4 L1146.4 152.1 1146.4 152 Q1146.8 145.5 1150.95 140.5 L1150.95 140.45 1152.35 139 Q1153.2 138.1 1154.15 137.35 L1155.1 136 1155.35 134.4 1155.2 132.55 1155.3 131.6 1155.3 131.4 Q1155.6 125.6 1159.9 121.4 1164.55 116.75 1171.1 116.75 1176 116.7 1179.75 119.2 1180.45 119.7 1181.3 119.8 L1182.95 119.5 Q1185.35 118.5 1188 118 1189.05 117.8 1189.8 117 1190.55 116.15 1190.65 115.05 1191.6 106.5 1198.1 100.2 1205.6 92.7 1216.25 92.7 L1222.75 93.45 Q1223.65 93.7 1224.5 93.45 1225.4 93.15 1226 92.5 L1227.3 91.2 Q1238.6 80 1254.5 80 1270.4 80 1281.7 91.2 1290.15 99.55 1292.25 110.5 1292.4 111.35 1293 112 1293.55 112.6 1294.35 112.95 1298.8 114.65 1302.6 117.75 L1303.95 118.4 1305.45 118.45 1308.9 118.1 Q1315.4 118.1 1320.15 122.75 1324.3 126.8 1324.75 132.55 1324.8 133.55 1325.55 134.4 1326.3 135.25 1327.35 135.45 1332.6 136.65 1336.7 140.6 1342.15 145.95 1342.6 153.35 L1342.65 154.7 1342.5 157.65 1342.5 157.55 1341.85 160.7 Q1334.3 166.45 1324 167.05 L1322.3 167.15 1313.75 166.35 Q1309.5 165.45 1305.8 163.4 L1307.45 161.8 1309.35 159.8 Q1311.7 157.1 1313.4 154.2 1312.75 154.7 1312.15 155.15 1307.55 158.8 1302.3 161.15 1293.1 165.15 1281.85 165.35 L1270.65 164.55 Q1266.05 163.7 1261.9 162.1 L1264.65 159.6 1267.3 156.65 Q1269.55 154 1271.2 151.1 L1269.8 152.25 Q1263.8 156.95 1256.75 159.75 1247.35 163.3 1236.15 163.55 1219.5 163.9 1206.95 156.6 1204.6 155.2 1202.4 153.6 L1201.15 152.65 Q1202.6 155.1 1204.55 157.4 L1204.3 157.45 Q1201.15 158.4 1197.8 158.8 L1192.75 159.15 1185.8 158.8 Q1176 157.5 1168.45 151.9 L1167.55 151.2 Q1169.4 154.35 1172.2 157.05 L1172.5 157.35 Q1175.8 160.45 1179.6 162.3 1174.55 164.4 1168.6 164.8 L1166.7 164.85 1165.45 164.9 Q1155.7 164.8 1148.4 160.1 L1147.2 159.25"/>
    <path stroke="none" fill="#D7F0F6" d="M1147.2 159.25 L1148.4 160.1 Q1155.7 164.8 1165.45 164.9 L1166.7 164.85 1168.6 164.8 Q1174.55 164.4 1179.6 162.3 1175.8 160.45 1172.5 157.35 L1172.2 157.05 Q1169.4 154.35 1167.55 151.2 L1168.45 151.9 Q1176 157.5 1185.8 158.8 L1192.75 159.15 1197.8 158.8 Q1201.15 158.4 1204.3 157.45 L1204.55 157.4 Q1202.6 155.1 1201.15 152.65 L1202.4 153.6 Q1204.6 155.2 1206.95 156.6 1219.5 163.9 1236.15 163.55 1247.35 163.3 1256.75 159.75 1263.8 156.95 1269.8 152.25 L1271.2 151.1 Q1269.55 154 1267.3 156.65 L1264.65 159.6 1261.9 162.1 Q1266.05 163.7 1270.65 164.55 L1281.85 165.35 Q1293.1 165.15 1302.3 161.15 1307.55 158.8 1312.15 155.15 1312.75 154.7 1313.4 154.2 1311.7 157.1 1309.35 159.8 L1307.45 161.8 1305.8 163.4 Q1309.5 165.45 1313.75 166.35 L1322.3 167.15 1324 167.05 Q1334.3 166.45 1341.85 160.7 L1342.1 160.5 1342.95 159.85 1341.3 162.2 1339.05 164.8 1337.45 166.35 Q1330.95 171.85 1322.3 172 L1320.7 172 1319.3 173.55 Q1312.35 180.55 1302.55 180.75 L1295.9 180 Q1287.75 186.35 1277.05 186.55 1268.6 186.75 1261.8 183 1251.3 190.75 1237.75 191 1221.6 191.35 1209.8 181.05 1203.25 184.7 1195.15 184.8 1182.1 185.1 1172.9 176.1 1169.85 173.2 1167.8 169.85 L1167.75 169.75 1166.7 169.75 Q1158.3 169.9 1152 165 L1149.95 163.2 1148.4 161.6 1147.7 160.8 1146.1 158.45 1146.85 159 1147.2 159.25"/>
    <path stroke="none" fill="#DECA98" d="M1300.95 609.9 L1299.6 629.5 1254.15 629.5 1253.8 647.05 1206.7 647.05 1206.15 629.5 1254.15 629.5 1254.55 609.9 1300.95 609.9 M1192.15 647.05 L1171.2 647.05 1170 629.5 1187.85 629.5 1185.7 586.2 1189.4 586.2 1192.15 647.05 M1204.4 463.6 L1207 471.4 1168.6 608.5 1167.8 596.5 1204.4 463.6 M1270.25 562.15 L1271.5 526 1278.65 526 1277.15 562.15 1270.25 562.15 M1220.9 586.2 L1221.45 626.1 1218.05 626.1 1217.35 586.2 1220.9 586.2"/>
    <path stroke="none" fill="#B12736" d="M1318.4 607.05 L1312.15 609.9 1300.95 609.9 1254.55 609.9 1252.65 609.9 1258.85 607.05 1318.4 607.05"/>
    <path stroke="none" fill="#CDB77E" d="M1299.6 629.5 L1298.45 647.05 1253.8 647.05 1254.15 629.5 1299.6 629.5"/>
    <path stroke="none" fill="#E24253" d="M1157.55 609.9 L1151.2 607.05 1199.45 423 1258.85 607.05 1252.65 609.9 1207 471.4 1204.4 463.6 1204.8 464.65 1204.3 463.2 1200.3 451.1 1157.55 609.9"/>
    <path stroke="none" fill="#C23141" d="M1157.55 609.9 L1200.3 451.1 1204.3 463.2 1204.4 463.6 1167.8 596.5 1168.6 608.5 1168.7 609.9 1157.55 609.9 M1199.45 423 L1270.25 423 1318.4 607.05 1258.85 607.05 1199.45 423 M1271.5 526 L1265.4 526 1264.9 543.85 1270.25 562.15 1277.15 562.15 1278.65 526 1271.5 526"/>
    <path stroke="none" fill="#F0E3C2" d="M1271.5 526 L1270.25 562.15 1264.9 543.85 1265.4 526 1271.5 526 M1170 629.5 L1168.7 609.9 1168.6 608.5 1207 471.4 1252.65 609.9 1254.55 609.9 1254.15 629.5 1206.15 629.5 1204.85 586.2 1189.4 586.2 1185.7 586.2 1187.85 629.5 1170 629.5 M1221.45 626.1 L1236.4 626.1 1236.5 586.2 1220.9 586.2 1217.35 586.2 1218.05 626.1 1221.45 626.1"/>
    <path stroke="none" fill="#C9764D" d="M1221.45 626.1 L1220.9 586.2 1236.5 586.2 1236.4 626.1 1221.45 626.1 M1206.7 647.05 L1192.15 647.05 1189.4 586.2 1204.85 586.2 1206.15 629.5 1206.7 647.05 M1201.85 589.75 L1192.15 589.75 1193.65 622.1 1202.85 622.1 1201.85 589.75 M1224 622.3 L1233.7 622.3 1233.75 590 1223.65 590 1224 622.3"/>
    <path stroke="none" fill="#FFFFFF" d="M1224 622.3 L1223.65 590 1233.75 590 1233.7 622.3 1224 622.3 M1201.85 589.75 L1202.85 622.1 1193.65 622.1 1192.15 589.75 1201.85 589.75"/>
    <path stroke="none" fill="#FFF8E7" d="M1967.5 670 L1970.55 675.7 2003.8 860 1997.7 860 1970 685.6 1970 685.5 1967.5 670"/>
    <path stroke="none" fill="#F0E3C2" d="M1967.5 670 L1970 685.5 1970 685.6 1997.7 860 2003.8 860 2005.6 870 1999.3 870 1997.7 860 1952.8 860 1954.95 838.95 1924.35 838.95 1919.35 860 1874.9 860 1967.5 670 M1923.7 807.95 Q1922 807.95 1921.45 809.7 L1919.6 815.3 Q1919.05 817.05 1920.75 817.05 L1935 817.05 Q1936.75 817.05 1937.3 815.3 L1939.15 809.7 Q1939.7 807.95 1937.95 807.95 L1923.7 807.95 M1917.3 797.4 L1916.6 797.5 Q1915.5 797.75 1915 799.05 L1913.4 803.95 Q1913 805.25 1914 805.5 L1914.6 805.6 1926.05 805.6 Q1927.75 805.6 1928.3 803.85 L1929.9 799.1 Q1930.45 797.4 1928.75 797.4 L1917.3 797.4 M1936.55 799.75 Q1935.85 799.75 1935.2 800.3 1934.55 800.8 1934.3 801.5 L1933.8 803 Q1933.6 803.7 1933.9 804.2 1934.25 804.75 1934.95 804.75 L1939.95 804.75 Q1940.6 804.75 1941.3 804.2 1942 803.7 1942.2 803 L1942.7 801.5 Q1942.95 800.8 1942.6 800.3 1942.2 799.75 1941.55 799.75 L1936.55 799.75 M1967 735 Q1966.5 735 1966.15 735.35 1965.75 735.7 1965.7 736.2 L1965.6 737.25 Q1965.6 737.7 1965.9 738.05 1966.25 738.45 1966.7 738.45 L1970.2 738.45 Q1970.65 738.45 1971.05 738.05 L1971.45 737.25 1971.55 736.2 Q1971.6 735.7 1971.3 735.35 1970.9 735 1970.45 735 L1967 735 M1958.2 725.7 Q1957 725.7 1956.95 726.9 L1956.65 730.8 Q1956.55 732 1957.75 732 L1967.65 732 Q1968.85 732 1968.95 730.8 L1969.25 726.9 Q1969.3 725.7 1968.1 725.7 L1958.2 725.7"/>
    <path stroke="none" fill="#DEC298" d="M1958.2 725.7 L1968.1 725.7 Q1969.3 725.7 1969.25 726.9 L1968.95 730.8 Q1968.85 732 1967.65 732 L1957.75 732 Q1956.55 732 1956.65 730.8 L1956.95 726.9 Q1957 725.7 1958.2 725.7 M2003.8 860 L1970.55 675.7 2068.65 860 2003.8 860 M1999.3 870 L1870 870 1874.9 860 1919.35 860 1916.95 869.95 1951.75 869.95 1952.8 860 1997.7 860 1999.3 870 M1967 735 L1970.45 735 Q1970.9 735 1971.3 735.35 1971.6 735.7 1971.55 736.2 L1971.45 737.25 1971.05 738.05 Q1970.65 738.45 1970.2 738.45 L1966.7 738.45 Q1966.25 738.45 1965.9 738.05 1965.6 737.7 1965.6 737.25 L1965.7 736.2 Q1965.75 735.7 1966.15 735.35 1966.5 735 1967 735 M1936.55 799.75 L1941.55 799.75 Q1942.2 799.75 1942.6 800.3 1942.95 800.8 1942.7 801.5 L1942.2 803 Q1942 803.7 1941.3 804.2 1940.6 804.75 1939.95 804.75 L1934.95 804.75 Q1934.25 804.75 1933.9 804.2 1933.6 803.7 1933.8 803 L1934.3 801.5 Q1934.55 800.8 1935.2 800.3 1935.85 799.75 1936.55 799.75 M1917.3 797.4 L1928.75 797.4 Q1930.45 797.4 1929.9 799.1 L1928.3 803.85 Q1927.75 805.6 1926.05 805.6 L1914.6 805.6 1914 805.5 Q1913 805.25 1913.4 803.95 L1915 799.05 Q1915.5 797.75 1916.6 797.5 L1917.3 797.4 M1923.7 807.95 L1937.95 807.95 Q1939.7 807.95 1939.15 809.7 L1937.3 815.3 Q1936.75 817.05 1935 817.05 L1920.75 817.05 Q1919.05 817.05 1919.6 815.3 L1921.45 809.7 Q1922 807.95 1923.7 807.95 M2024.05 837.5 L2009.8 837.5 Q2008.05 837.5 2008.35 839.25 L2009.5 844.85 Q2009.85 846.6 2011.6 846.6 L2025.85 846.6 Q2027.55 846.6 2027.2 844.85 L2026.05 839.25 Q2025.75 837.5 2024.05 837.5 M2009.7 829.3 L2004.7 829.3 Q2004.05 829.3 2003.6 829.85 2003.2 830.35 2003.35 831.05 L2003.65 832.55 Q2003.75 833.25 2004.4 833.75 2005.05 834.3 2005.7 834.3 L2010.7 834.3 Q2011.4 834.3 2011.8 833.75 2012.15 833.25 2012.05 832.55 L2011.75 831.05 Q2011.6 830.35 2011 829.85 2010.4 829.3 2009.7 829.3"/>
    <path stroke="none" fill="#9F8763" d="M1952.8 860 L1951.75 869.95 1916.95 869.95 1919.35 860 1924.35 838.95 1954.95 838.95 1952.8 860"/>
    <path stroke="none" fill="#C6A87D" d="M2068.65 860 L2073.95 870 2005.6 870 2003.8 860 2068.65 860 M2009.7 829.3 Q2010.4 829.3 2011 829.85 2011.6 830.35 2011.75 831.05 L2012.05 832.55 Q2012.15 833.25 2011.8 833.75 2011.4 834.3 2010.7 834.3 L2005.7 834.3 Q2005.05 834.3 2004.4 833.75 2003.75 833.25 2003.65 832.55 L2003.35 831.05 Q2003.2 830.35 2003.6 829.85 2004.05 829.3 2004.7 829.3 L2009.7 829.3 M2024.05 837.5 Q2025.75 837.5 2026.05 839.25 L2027.2 844.85 Q2027.55 846.6 2025.85 846.6 L2011.6 846.6 Q2009.85 846.6 2009.5 844.85 L2008.35 839.25 Q2008.05 837.5 2009.8 837.5 L2024.05 837.5"/>
    <path stroke="none" fill="#B5CDD2" d="M2231.65 860 L2206.85 860 2200.8 763.95 2216.4 763.95 2209.45 721.9 2213.05 721.9 2220.45 763.95 2216.4 763.95 2231.65 860 2237.75 860 2239.55 870 2233.25 870 2231.65 860 M2166.2 763.95 L2178.7 763.95 2141.05 860 2108.85 860 2155.7 763.95 2166.2 763.95 M2122.75 850.5 Q2122.05 850.5 2121.4 851.05 2120.75 851.55 2120.5 852.25 L2120 853.75 Q2119.8 854.45 2120.1 854.95 2120.45 855.5 2121.15 855.5 L2126.15 855.5 Q2126.8 855.5 2127.5 854.95 2128.2 854.45 2128.4 853.75 L2128.9 852.25 Q2129.15 851.55 2128.8 851.05 2128.4 850.5 2127.75 850.5 L2122.75 850.5 M2129 843.25 Q2128.3 843.25 2127.65 843.8 L2126.75 845 2126.25 846.5 Q2126.05 847.2 2126.35 847.7 2126.7 848.25 2127.4 848.25 L2132.4 848.25 Q2133.05 848.25 2133.75 847.7 2134.45 847.2 2134.65 846.5 L2135.15 845 Q2135.4 844.3 2135.05 843.8 2134.65 843.25 2134 843.25 L2129 843.25"/>
    <path stroke="none" fill="#A9C0C4" d="M2129 843.25 L2134 843.25 Q2134.65 843.25 2135.05 843.8 2135.4 844.3 2135.15 845 L2134.65 846.5 Q2134.45 847.2 2133.75 847.7 2133.05 848.25 2132.4 848.25 L2127.4 848.25 Q2126.7 848.25 2126.35 847.7 2126.05 847.2 2126.25 846.5 L2126.75 845 2127.65 843.8 Q2128.3 843.25 2129 843.25 M2200.8 763.95 L2200.8 744.25 2185.9 744.25 2178.7 763.95 2166.2 763.95 2184.4 721.9 2209.45 721.9 2216.4 763.95 2200.8 763.95 2206.85 860 2231.65 860 2233.25 870 2178.45 870 2200.8 763.95 M2108.85 860 L2141.05 860 2137.1 870 2103.95 870 2108.85 860 M2237.75 860 L2235.65 848.35 2222.4 774.5 2221.45 769.25 2220.45 763.95 2242.15 763.95 2251.5 763.95 2302.6 860 2237.75 860 M2252.4 802.75 L2238.15 802.75 Q2236.4 802.75 2236.7 804.5 L2237.85 810.1 Q2238.2 811.85 2239.95 811.85 L2254.2 811.85 Q2255.9 811.85 2255.55 810.1 L2254.4 804.5 Q2254.1 802.75 2252.4 802.75 M2238.05 794.55 L2233.05 794.55 Q2232.4 794.55 2231.95 795.1 2231.55 795.6 2231.7 796.3 L2232 797.8 Q2232.1 798.5 2232.75 799 2233.4 799.55 2234.05 799.55 L2239.05 799.55 Q2239.75 799.55 2240.15 799 L2240.4 797.8 2240.1 796.3 Q2239.95 795.6 2239.35 795.1 2238.75 794.55 2238.05 794.55 M2122.75 850.5 L2127.75 850.5 Q2128.4 850.5 2128.8 851.05 2129.15 851.55 2128.9 852.25 L2128.4 853.75 Q2128.2 854.45 2127.5 854.95 2126.8 855.5 2126.15 855.5 L2121.15 855.5 Q2120.45 855.5 2120.1 854.95 2119.8 854.45 2120 853.75 L2120.5 852.25 Q2120.75 851.55 2121.4 851.05 2122.05 850.5 2122.75 850.5"/>
    <path stroke="none" fill="#6E7C80" d="M2178.7 763.95 L2185.9 744.25 2200.8 744.25 2200.8 763.95 2178.7 763.95"/>
    <path stroke="none" fill="#97ABAF" d="M2178.7 763.95 L2200.8 763.95 2178.45 870 2137.1 870 2141.05 860 2178.7 763.95 M2220.45 763.95 L2213.05 721.9 2222.1 721.9 2242.15 763.95 2220.45 763.95 M2237.75 860 L2302.6 860 2307.9 870 2239.55 870 2237.75 860 M2238.05 794.55 Q2238.75 794.55 2239.35 795.1 2239.95 795.6 2240.1 796.3 L2240.4 797.8 2240.15 799 Q2239.75 799.55 2239.05 799.55 L2234.05 799.55 Q2233.4 799.55 2232.75 799 2232.1 798.5 2232 797.8 L2231.7 796.3 Q2231.55 795.6 2231.95 795.1 2232.4 794.55 2233.05 794.55 L2238.05 794.55 M2252.4 802.75 Q2254.1 802.75 2254.4 804.5 L2255.55 810.1 Q2255.9 811.85 2254.2 811.85 L2239.95 811.85 Q2238.2 811.85 2237.85 810.1 L2236.7 804.5 Q2236.4 802.75 2238.15 802.75 L2252.4 802.75"/>
    <path stroke="none" fill="#D3EFF5" d="M2231.65 860 L2216.4 763.95 2220.45 763.95 2221.45 769.25 2222.4 774.5 2235.65 848.35 2237.75 860 2231.65 860"/>
    <path stroke="none" fill="#F7F0DE" fill-opacity="0.10196078431372549" d="M1247 795.1 Q1248.9 792.25 1251.55 789.65 1262.95 777.95 1279.2 777.95 1286.35 777.95 1292.6 780.25 L1292.7 780.3 1294.3 780.95 1294.15 780.9 Q1297.55 782.25 1299.35 785.55 1300.95 788.5 1300.55 791.95 L1300.55 792 Q1300.15 795.5 1297.65 798.05 L1297.45 798.25 Q1294.95 800.7 1291.65 801.1 1288.75 801.45 1286.7 803.65 L1286.6 803.8 Q1285.6 804.75 1284.95 805.9 L1285 805.85 Q1283.85 807.75 1283.9 810.2 1283.9 814.05 1286.6 816.85 1289.25 819.55 1293 819.5 1296.7 819.5 1299.35 816.95 L1300.3 815.95 1300.45 815.75 Q1302.7 813.25 1305.95 812.75 L1306 812.75 Q1309.25 812.2 1312.4 813.75 L1312.65 813.9 1312.85 814 Q1315.4 815.4 1316.85 818.25 L1316.95 818.45 Q1318.45 821.5 1317.85 824.9 L1317.9 824.85 Q1315.95 836.95 1307 846.3 L1306.95 846.3 Q1295.4 857.95 1279.2 857.95 1262.95 857.95 1251.55 846.3 1240 834.45 1240 817.95 1240.05 805.1 1247 795.1 M1313.55 819.9 L1313.4 819.8 1311.45 819.5 Q1310.55 819.65 1309.85 820.4 L1308.8 821.6 Q1303.5 826.9 1296.15 826.9 1288.65 826.9 1283.45 821.6 1278.2 816.2 1278.2 808.55 1278.2 803.65 1280.45 799.7 1281.6 797.55 1283.45 795.7 1287.75 791.2 1293.65 790.45 1294.6 790.35 1295.35 789.6 1296.1 788.85 1296.2 787.85 1296.3 786.9 1295.85 785.95 1295.35 785.05 1294.4 784.7 L1293.05 784.15 Q1287.55 782.1 1281.25 782.1 1267.15 782.1 1257.15 792.3 1254.95 794.55 1253.15 797.1 1247.15 805.75 1247.15 816.9 1247.15 831.3 1257.15 841.6 1267.15 851.7 1281.25 851.7 1295.4 851.7 1305.4 841.6 1313.25 833.5 1314.95 822.95 1315.1 822 1314.65 821.15 1314.25 820.3 1313.55 819.9"/>
    <path stroke="none" fill="#E9DBB6" d="M1313.55 819.9 Q1314.25 820.3 1314.65 821.15 1315.1 822 1314.95 822.95 1313.25 833.5 1305.4 841.6 1295.4 851.7 1281.25 851.7 1267.15 851.7 1257.15 841.6 1247.15 831.3 1247.15 816.9 1247.15 805.75 1253.15 797.1 1251.2 802.45 1251.2 808.55 1251.2 822.15 1260.6 831.75 1270 841.35 1283.3 841.35 1296.55 841.35 1306 831.75 1311.2 826.45 1313.55 819.9 M1267.85 796 Q1267.85 797.15 1267 798 1266.2 798.75 1265.25 798.85 L1265 798.85 Q1263.8 798.85 1262.95 798 1262.15 797.15 1262.15 796 1262.15 794.8 1262.95 793.9 1263.8 793.05 1265 793.05 L1265.7 793.15 1267 793.9 Q1267.85 794.8 1267.85 796 M1253.9 805.75 Q1254.3 804.9 1255 804.15 1256.85 802.4 1259.25 802.4 1261.65 802.4 1263.45 804.15 1265.2 806 1265.2 808.45 1265.2 809.95 1264.6 811.15 1262.95 812.25 1260.85 812.25 1258.05 812.25 1255.9 810.15 1254.05 808.3 1253.9 805.75"/>
    <path stroke="none" fill="#F0E4C6" d="M1253.9 805.75 Q1253.25 807 1253.25 808.45 1253.25 811 1255 812.75 1256.85 814.55 1259.25 814.55 1261.65 814.55 1263.45 812.75 L1264.6 811.15 Q1265.2 809.95 1265.2 808.45 1265.2 806 1263.45 804.15 1261.65 802.4 1259.25 802.4 1256.85 802.4 1255 804.15 1254.3 804.9 1253.9 805.75 M1253.15 797.1 Q1254.95 794.55 1257.15 792.3 1267.15 782.1 1281.25 782.1 1287.55 782.1 1293.05 784.15 L1294.4 784.7 Q1295.35 785.05 1295.85 785.95 1296.3 786.9 1296.2 787.85 1296.1 788.85 1295.35 789.6 1294.6 790.35 1293.65 790.45 1287.75 791.2 1283.45 795.7 1281.6 797.55 1280.45 799.7 1278.2 803.65 1278.2 808.55 1278.2 816.2 1283.45 821.6 1288.65 826.9 1296.15 826.9 1303.5 826.9 1308.8 821.6 L1309.85 820.4 Q1310.55 819.65 1311.45 819.5 L1313.4 819.8 1313.55 819.9 Q1311.2 826.45 1306 831.75 1296.55 841.35 1283.3 841.35 1270 841.35 1260.6 831.75 1251.2 822.15 1251.2 808.55 1251.2 802.45 1253.15 797.1 M1267.85 796 Q1267.85 794.8 1267 793.9 L1265.7 793.15 1265 793.05 Q1263.8 793.05 1262.95 793.9 1262.15 794.8 1262.15 796 1262.15 797.15 1262.95 798 1263.8 798.85 1265 798.85 L1265.25 798.85 Q1266.2 798.75 1267 798 1267.85 797.15 1267.85 796"/>
    <path stroke="none" fill="#E0D1A8" d="M1264.6 811.15 L1263.45 812.75 Q1261.65 814.55 1259.25 814.55 1256.85 814.55 1255 812.75 1253.25 811 1253.25 808.45 1253.25 807 1253.9 805.75 1254.05 808.3 1255.9 810.15 1258.05 812.25 1260.85 812.25 1262.95 812.25 1264.6 811.15"/>
    <path stroke="none" fill="#F7F0DE" fill-opacity="0.10196078431372549" d="M1083.8 783.25 L1083.45 783.25 Q1069.2 783.25 1059.1 793.3 1049 803.4 1049 817.65 1049 831.95 1059.1 842 L1062.05 844.65 Q1071.2 852.1 1083.45 852.1 1097.7 852.1 1107.8 842 1117.9 831.95 1117.9 817.65 1117.9 803.4 1107.8 793.3 1097.8 783.35 1083.8 783.25 M1082.45 774 Q1099.55 774.1 1111.7 786.3 1124 798.55 1124 816 1124 833.35 1111.7 845.7 1099.4 858 1082 858 1067.05 858 1055.85 848.95 L1052.25 845.7 Q1040 833.35 1040 816 1040 798.55 1052.25 786.3 1064.6 774 1082 774 L1082.45 774"/>
    <path stroke="none" fill="#F0E4C6" d="M1062.05 844.65 L1059.1 842 Q1049 831.95 1049 817.65 1049 803.4 1059.1 793.3 1069.2 783.25 1083.45 783.25 L1083.8 783.25 Q1090.05 785.6 1095.1 790.7 1104.65 800.25 1104.65 813.65 1104.65 827.1 1095.1 836.65 1085.6 846.2 1072.15 846.2 1066.8 846.2 1062.05 844.65 M1082.15 809.9 Q1084.05 811.15 1086.55 811.15 1090 811.15 1092.45 808.65 1094.9 806.15 1094.9 802.7 1094.9 799.2 1092.45 796.75 1091.65 795.95 1090.8 795.4 1088.9 794.3 1086.55 794.3 1083.05 794.3 1080.55 796.75 1078.1 799.2 1078.1 802.7 1078.1 806.15 1080.55 808.65 1081.3 809.35 1082.15 809.9 M1067.25 815.9 Q1067.8 814.75 1067.8 813.25 1067.8 810.8 1066.1 809 1064.25 807.25 1061.8 807.25 1059.35 807.25 1057.55 809 1056.8 809.75 1056.4 810.55 1055.75 811.8 1055.75 813.25 1055.75 815.75 1057.55 817.55 1059.35 819.25 1061.8 819.25 1064.25 819.25 1066.1 817.55 L1067.25 815.9 M1075.6 799.5 Q1075.6 798.3 1074.75 797.45 1074.15 796.9 1073.4 796.7 L1072.75 796.65 Q1071.55 796.65 1070.7 797.45 1069.85 798.3 1069.85 799.5 1069.85 800.65 1070.7 801.5 1071.55 802.3 1072.75 802.3 L1073 802.3 Q1073.95 802.2 1074.75 801.5 1075.6 800.65 1075.6 799.5"/>
    <path stroke="none" fill="#E9DBB6" d="M1083.8 783.25 Q1097.8 783.35 1107.8 793.3 1117.9 803.4 1117.9 817.65 1117.9 831.95 1107.8 842 1097.7 852.1 1083.45 852.1 1071.2 852.1 1062.05 844.65 1066.8 846.2 1072.15 846.2 1085.6 846.2 1095.1 836.65 1104.65 827.1 1104.65 813.65 1104.65 800.25 1095.1 790.7 1090.05 785.6 1083.8 783.25 M1090.8 795.4 Q1092.05 797.6 1092.05 800.25 1092.05 804.25 1089.25 807.05 1086.45 809.9 1082.4 809.9 L1082.15 809.9 Q1081.3 809.35 1080.55 808.65 1078.1 806.15 1078.1 802.7 1078.1 799.2 1080.55 796.75 1083.05 794.3 1086.55 794.3 1088.9 794.3 1090.8 795.4 M1075.6 799.5 Q1075.6 800.65 1074.75 801.5 1073.95 802.2 1073 802.3 L1072.75 802.3 Q1071.55 802.3 1070.7 801.5 1069.85 800.65 1069.85 799.5 1069.85 798.3 1070.7 797.45 1071.55 796.65 1072.75 796.65 L1073.4 796.7 Q1074.15 796.9 1074.75 797.45 1075.6 798.3 1075.6 799.5 M1056.4 810.55 Q1056.8 809.75 1057.55 809 1059.35 807.25 1061.8 807.25 1064.25 807.25 1066.1 809 1067.8 810.8 1067.8 813.25 1067.8 814.75 1067.25 815.9 1065.55 817.05 1063.4 817.05 1060.6 817.05 1058.45 814.95 1056.55 813.1 1056.4 810.55"/>
    <path stroke="none" fill="#E0D1A8" d="M1056.4 810.55 Q1056.55 813.1 1058.45 814.95 1060.6 817.05 1063.4 817.05 1065.55 817.05 1067.25 815.9 L1066.1 817.55 Q1064.25 819.25 1061.8 819.25 1059.35 819.25 1057.55 817.55 1055.75 815.75 1055.75 813.25 1055.75 811.8 1056.4 810.55 M1082.15 809.9 L1082.4 809.9 Q1086.45 809.9 1089.25 807.05 1092.05 804.25 1092.05 800.25 1092.05 797.6 1090.8 795.4 1091.65 795.95 1092.45 796.75 1094.9 799.2 1094.9 802.7 1094.9 806.15 1092.45 808.65 1090 811.15 1086.55 811.15 1084.05 811.15 1082.15 809.9"/>
    <path stroke="none" fill="#FFFFFF" fill-opacity="0.10196078431372549" d="M1182.4 775.95 Q1199.5 776.05 1211.65 788.25 1224 800.5 1224 817.95 1224 835.3 1211.65 847.65 1199.35 859.95 1181.95 859.95 1167.05 859.95 1155.9 850.9 L1152.25 847.65 Q1140 835.3 1140 817.95 1140 800.5 1152.25 788.25 1164.55 775.95 1181.95 775.95 L1182.4 775.95 M1162 846.6 Q1171.15 854.05 1183.4 854.05 1197.7 854.05 1207.75 843.95 1217.85 833.9 1217.85 819.6 1217.85 805.35 1207.75 795.25 1197.75 785.3 1183.8 785.2 L1183.4 785.2 Q1169.15 785.2 1159.05 795.25 1149 805.35 1149 819.6 1149 833.9 1159.05 843.95 L1162 846.6"/>
    <path stroke="none" fill="#F0E4C6" d="M1162 846.6 L1159.05 843.95 Q1149 833.9 1149 819.6 1149 805.35 1159.05 795.25 1169.15 785.2 1183.4 785.2 L1183.8 785.2 Q1197.75 785.3 1207.75 795.25 1217.85 805.35 1217.85 819.6 1217.85 833.9 1207.75 843.95 1197.7 854.05 1183.4 854.05 1171.15 854.05 1162 846.6 M1167.8 843.5 Q1175.35 849.6 1185.45 849.6 1197.25 849.6 1205.5 841.3 1213.8 833 1213.8 821.2 1213.8 809.5 1205.5 801.15 1197.3 793 1185.8 792.9 L1185.45 792.9 Q1173.75 792.9 1165.4 801.15 1157.15 809.5 1157.15 821.2 1157.15 833 1165.4 841.3 L1167.8 843.5"/>
    <path stroke="none" fill="#FFFFFF" d="M1167.8 843.5 L1165.4 841.3 Q1157.15 833 1157.15 821.2 1157.15 809.5 1165.4 801.15 1173.75 792.9 1185.45 792.9 L1185.8 792.9 Q1197.3 793 1205.5 801.15 1213.8 809.5 1213.8 821.2 1213.8 833 1205.5 841.3 1197.25 849.6 1185.45 849.6 1175.35 849.6 1167.8 843.5"/>
    <path stroke="none" fill="#FFFFFF" d="M1146.1 338.45 Q1144.75 336.2 1144 333.75 1143.45 331.9 1143.2 329.9 L1143 326.75 1143.05 325.15 Q1143.2 322.3 1144 319.75 1145.3 315.35 1148.4 311.7 L1149.95 310 Q1150.9 309 1151.95 308.15 L1151.8 305.9 1151.9 304.55 Q1152.3 297.5 1157.55 292.35 1163.15 286.75 1171.1 286.75 1177 286.75 1181.6 289.8 1184.35 288.65 1187.35 288.05 1188.4 278.35 1195.7 271.15 1204.2 262.75 1216.25 262.75 L1223.6 263.55 1224.9 262.2 Q1227.4 259.7 1230.15 257.75 1224.25 256.55 1224.25 255.15 1224.25 252.85 1239.7 251.25 L1247 250.65 1254.5 250 1256.8 250.05 1258.05 250 1258.05 250.15 Q1273.1 251.25 1284.05 262.2 1293.25 271.3 1295.6 283.25 1300.45 285.05 1304.7 288.5 L1308.9 288.1 Q1316.85 288.1 1322.5 293.7 1327.55 298.7 1328.1 305.6 1334.25 306.9 1339.05 311.6 1345.4 317.8 1345.95 326.5 L1346 328.05 1345.8 331.3 Q1345.2 335.9 1342.95 339.85 L1342.1 340.5 1341.85 340.7 1342.5 337.55 1342.5 337.65 1342.65 334.7 1342.6 333.35 Q1342.15 325.95 1336.7 320.6 1332.6 316.65 1327.35 315.45 1326.3 315.25 1325.55 314.4 1324.8 313.55 1324.75 312.55 1324.3 306.8 1320.15 302.75 1315.4 298.1 1308.9 298.1 L1305.45 298.45 1303.95 298.4 1302.6 297.75 Q1298.8 294.65 1294.35 292.95 1293.55 292.6 1293 292 1292.4 291.35 1292.25 290.5 1290.15 279.55 1281.7 271.2 1271.7 261.25 1258.05 260.15 L1254.5 260 1252.6 260.05 Q1237.9 260.7 1227.3 271.2 L1226 272.5 Q1225.4 273.15 1224.5 273.45 1223.65 273.7 1222.75 273.45 L1216.25 272.7 Q1205.6 272.7 1198.1 280.2 1191.6 286.5 1190.65 295.05 1190.55 296.15 1189.8 297 1189.05 297.8 1188 298 1185.35 298.5 1182.95 299.5 L1181.3 299.8 Q1180.45 299.7 1179.75 299.2 1176 296.7 1171.1 296.75 1164.55 296.75 1159.9 301.4 1155.6 305.6 1155.3 311.4 L1155.3 311.6 1155.2 312.55 1155.35 314.4 1155.1 316 1154.15 317.35 Q1153.2 318.1 1152.35 319 L1150.95 320.45 1150.95 320.5 Q1146.8 325.5 1146.4 332 L1146.4 332.1 1146.35 333.4 Q1146.35 334.75 1146.5 336.1 L1146.55 336.15 1147.2 339.25 1146.85 339 1146.1 338.45"/>
    <path stroke="none" fill="#F0F9FB" d="M1147.2 339.25 L1146.55 336.15 1146.5 336.1 Q1146.35 334.75 1146.35 333.4 L1146.4 332.1 1146.4 332 Q1146.8 325.5 1150.95 320.5 L1150.95 320.45 1152.35 319 Q1153.2 318.1 1154.15 317.35 L1155.1 316 1155.35 314.4 1155.2 312.55 1155.3 311.6 1155.3 311.4 Q1155.6 305.6 1159.9 301.4 1164.55 296.75 1171.1 296.75 1176 296.7 1179.75 299.2 1180.45 299.7 1181.3 299.8 L1182.95 299.5 Q1185.35 298.5 1188 298 1189.05 297.8 1189.8 297 1190.55 296.15 1190.65 295.05 1191.6 286.5 1198.1 280.2 1205.6 272.7 1216.25 272.7 L1222.75 273.45 Q1223.65 273.7 1224.5 273.45 1225.4 273.15 1226 272.5 L1227.3 271.2 Q1237.9 260.7 1252.6 260.05 L1254.5 260 1258.05 260.15 Q1271.7 261.25 1281.7 271.2 1290.15 279.55 1292.25 290.5 1292.4 291.35 1293 292 1293.55 292.6 1294.35 292.95 1298.8 294.65 1302.6 297.75 L1303.95 298.4 1305.45 298.45 1308.9 298.1 Q1315.4 298.1 1320.15 302.75 1324.3 306.8 1324.75 312.55 1324.8 313.55 1325.55 314.4 1326.3 315.25 1327.35 315.45 1332.6 316.65 1336.7 320.6 1342.15 325.95 1342.6 333.35 L1342.65 334.7 1342.5 337.65 1342.5 337.55 1341.85 340.7 Q1334.3 346.45 1324 347.05 L1322.3 347.15 1313.75 346.35 Q1309.5 345.45 1305.8 343.4 L1307.45 341.8 1309.35 339.8 Q1311.7 337.1 1313.4 334.2 1312.75 334.7 1312.15 335.15 1307.55 338.8 1302.3 341.15 1293.1 345.15 1281.85 345.35 L1270.65 344.55 Q1266.05 343.7 1261.9 342.1 L1264.65 339.6 1267.3 336.65 Q1269.55 334 1271.2 331.1 L1269.8 332.25 Q1263.8 336.95 1256.75 339.75 1247.35 343.3 1236.15 343.55 1219.5 343.9 1206.95 336.6 1204.6 335.2 1202.4 333.6 L1201.15 332.65 Q1202.6 335.1 1204.55 337.4 L1204.3 337.45 Q1201.15 338.4 1197.8 338.8 L1192.75 339.15 1185.8 338.8 Q1176 337.5 1168.45 331.9 L1167.55 331.2 Q1169.4 334.35 1172.2 337.05 L1172.5 337.35 Q1175.8 340.45 1179.6 342.3 1174.55 344.4 1168.6 344.8 L1166.7 344.85 1165.45 344.9 Q1155.7 344.8 1148.4 340.1 L1147.2 339.25"/>
    <path stroke="none" fill="#D7F0F6" d="M1147.2 339.25 L1148.4 340.1 Q1155.7 344.8 1165.45 344.9 L1166.7 344.85 1168.6 344.8 Q1174.55 344.4 1179.6 342.3 1175.8 340.45 1172.5 337.35 L1172.2 337.05 Q1169.4 334.35 1167.55 331.2 L1168.45 331.9 Q1176 337.5 1185.8 338.8 L1192.75 339.15 1197.8 338.8 Q1201.15 338.4 1204.3 337.45 L1204.55 337.4 Q1202.6 335.1 1201.15 332.65 L1202.4 333.6 Q1204.6 335.2 1206.95 336.6 1219.5 343.9 1236.15 343.55 1247.35 343.3 1256.75 339.75 1263.8 336.95 1269.8 332.25 L1271.2 331.1 Q1269.55 334 1267.3 336.65 L1264.65 339.6 1261.9 342.1 Q1266.05 343.7 1270.65 344.55 L1281.85 345.35 Q1293.1 345.15 1302.3 341.15 1307.55 338.8 1312.15 335.15 1312.75 334.7 1313.4 334.2 1311.7 337.1 1309.35 339.8 L1307.45 341.8 1305.8 343.4 Q1309.5 345.45 1313.75 346.35 L1322.3 347.15 1324 347.05 Q1334.3 346.45 1341.85 340.7 L1342.1 340.5 1342.95 339.85 1341.3 342.2 1339.05 344.8 1337.45 346.35 Q1330.95 351.85 1322.3 352 L1320.7 352 1319.3 353.55 Q1312.35 360.55 1302.55 360.75 L1295.9 360 Q1287.75 366.35 1277.05 366.55 1268.6 366.75 1261.8 363 1251.3 370.75 1237.75 371 1221.6 371.35 1209.8 361.05 1203.25 364.7 1195.15 364.8 L1191.1 364.65 1172.55 363.4 Q1157.1 361.8 1157.1 359.5 1157.1 357.2 1172.4 355.65 1169.7 352.9 1167.8 349.85 L1167.75 349.75 1166.7 349.75 Q1158.3 349.9 1152 345 L1149.95 343.2 1148.4 341.6 1147.7 340.8 1146.1 338.45 1146.85 339 1147.2 339.25"/>
    <path stroke="none" fill="#FFFFFF" d="M1421.6 349.8 Q1418.15 343.9 1417.3 336.95 1417 334.6 1417 332.2 L1417.1 329.8 Q1417.85 316.75 1427.25 307.3 L1431.3 303.8 Q1432.3 292.35 1440.8 284 1443.15 281.6 1445.8 279.85 1436.2 278.45 1436.2 276.65 1436.2 274.35 1451.65 272.75 L1464.45 271.8 Q1465.4 256.35 1476.6 245.2 L1480 242.15 Q1468.2 240.65 1468.2 238.65 1468.2 236.35 1483.65 234.75 L1498.4 233.65 1503.95 233.05 1506.15 233 1508.35 233.05 Q1524.2 233.8 1535.6 245.2 1540.65 250.25 1543.65 256.15 1555.05 258.6 1563.85 267.45 1575.1 278.75 1576 294.35 L1576.05 297.1 1575.8 302.9 1575.2 306.4 Q1577.75 307.45 1580.1 309.1 L1583.75 312.2 1585.7 314.3 1590.35 313.9 Q1599.7 313.9 1606.35 320.5 1612.45 326.65 1612.95 335.05 L1613 336.6 1612.8 339.75 Q1612.25 344.2 1610.05 347.95 L1609.25 348.55 1608.95 348.8 1609.5 346.05 1609.65 343.35 1609.6 341.95 Q1609.15 334.8 1604 329.65 1598.35 324 1590.35 324 L1586.4 324.35 1584.6 324.25 Q1583.7 323.9 1583.15 323.15 L1581.45 321.25 Q1578.05 317.9 1573.95 316.25 1572.8 315.8 1572.25 314.7 1571.65 313.65 1571.9 312.45 L1572.5 309.35 1572.5 309.1 1572.7 303.8 1572.65 301.2 Q1571.8 286.9 1561.5 276.55 L1561.45 276.55 Q1553.4 268.4 1542.95 266.15 1542.2 265.95 1541.6 265.55 L1540.65 264.4 Q1537.85 258.95 1533.3 254.35 L1533.25 254.35 Q1522 243.05 1506.15 243.05 L1502 243.25 1499 243.7 Q1487.6 245.7 1478.95 254.35 1471.4 261.9 1468.9 271.55 L1470 271.5 1470 281.8 1467.65 281.7 Q1467.5 282.75 1466.7 283.5 1465.7 284.5 1464.35 284.5 L1463.85 284.5 Q1451.7 284.5 1443.15 293.1 1435.55 300.6 1434.65 310.85 L1434.25 312.2 1433.3 313.25 Q1431.4 314.65 1429.65 316.45 1421.15 325 1420.45 336.7 L1420.45 336.8 1420.35 338.9 Q1420.35 341.15 1420.6 343.25 L1420.65 343.3 Q1421.1 347 1422.4 350.4 L1421.6 349.8"/>
    <path stroke="none" fill="#F0F9FB" d="M1422.4 350.4 Q1421.1 347 1420.65 343.3 L1420.6 343.25 Q1420.35 341.15 1420.35 338.9 L1420.45 336.8 1420.45 336.7 Q1421.15 325 1429.65 316.45 1431.4 314.65 1433.3 313.25 L1434.25 312.2 1434.65 310.85 Q1435.55 300.6 1443.15 293.1 1451.7 284.5 1463.85 284.5 L1464.35 284.5 Q1465.7 284.5 1466.7 283.5 1467.5 282.75 1467.65 281.7 L1470 281.8 1470 271.5 1468.9 271.55 Q1471.4 261.9 1478.95 254.35 1487.6 245.7 1499 243.7 L1502 243.25 1506.15 243.05 Q1522 243.05 1533.25 254.35 L1533.3 254.35 Q1537.85 258.95 1540.65 264.4 L1541.6 265.55 Q1542.2 265.95 1542.95 266.15 1553.4 268.4 1561.45 276.55 L1561.5 276.55 Q1571.8 286.9 1572.65 301.2 L1572.7 303.8 1572.5 309.1 1572.5 309.35 1571.9 312.45 Q1571.65 313.65 1572.25 314.7 1572.8 315.8 1573.95 316.25 1578.05 317.9 1581.45 321.25 L1583.15 323.15 Q1583.7 323.9 1584.6 324.25 L1586.4 324.35 1590.35 324 Q1598.35 324 1604 329.65 1609.15 334.8 1609.6 341.95 L1609.65 343.35 1609.5 346.05 1608.95 348.8 Q1602.2 353.85 1593.2 354.5 L1590.35 354.6 1589 354.6 Q1583.45 354.4 1578.8 352.65 L1582.75 349.7 1583.75 348.7 Q1586.3 346.2 1588 343.35 L1587.1 344.05 Q1581.15 348.6 1573.6 350.1 L1565.55 350.9 1563.35 350.85 1562.4 352.55 1561.25 353.45 Q1550.2 362 1534.5 362 L1524.1 360.95 Q1519.15 359.9 1514.75 357.8 1518.25 355.35 1521.45 352.15 L1524.8 348.5 Q1526.9 345.85 1528.6 343 L1527.05 344.2 Q1518.55 350.8 1508.1 353.65 L1500.85 355.25 1490.55 355.95 Q1482.7 355.95 1475.75 354.35 1463.55 351.65 1453.95 344.2 L1452.6 343.15 Q1454.25 345.95 1456.4 348.6 L1459.6 352.15 Q1463.05 355.6 1466.8 358.1 1461.7 359.55 1456 359.95 L1452.1 360.05 1442.4 359.25 Q1431.3 357.3 1422.75 350.65 L1422.4 350.4"/>
    <path stroke="none" fill="#D7F0F6" d="M1422.4 350.4 L1422.75 350.65 Q1431.3 357.3 1442.4 359.25 L1452.1 360.05 1456 359.95 Q1461.7 359.55 1466.8 358.1 1463.05 355.6 1459.6 352.15 L1456.4 348.6 Q1454.25 345.95 1452.6 343.15 L1453.95 344.2 Q1463.55 351.65 1475.75 354.35 1482.7 355.95 1490.55 355.95 L1500.85 355.25 1508.1 353.65 Q1518.55 350.8 1527.05 344.2 L1528.6 343 Q1526.9 345.85 1524.8 348.5 L1521.45 352.15 Q1518.25 355.35 1514.75 357.8 1519.15 359.9 1524.1 360.95 L1534.5 362 Q1550.2 362 1561.25 353.45 L1562.4 352.55 1563.35 350.85 1565.55 350.9 1573.6 350.1 Q1581.15 348.6 1587.1 344.05 L1588 343.35 Q1586.3 346.2 1583.75 348.7 L1582.75 349.7 1578.8 352.65 Q1583.45 354.4 1589 354.6 L1590.35 354.6 1593.2 354.5 Q1602.2 353.85 1608.95 348.8 L1609.25 348.55 1610.05 347.95 1608.45 350.3 1606.35 352.65 1604.15 354.65 Q1598.85 358.85 1592 359.3 1591.25 361.35 1590.1 363.25 1588.4 366.2 1585.8 368.7 1578.1 376.45 1567.3 376.45 1562.9 376.45 1559.1 375.2 1549.65 383.85 1536.65 383.85 1531.55 383.85 1527 382.55 1517.6 389 1505.6 389 L1500.85 388.7 Q1489.4 387.4 1480.65 379.8 L1458.5 378.4 Q1443.05 376.8 1443.05 374.5 1443.05 372.5 1454.75 371.05 1452.1 369.4 1449.65 367.25 1436.65 366.45 1427.25 357.05 L1425.8 355.55 1423.05 352.05 1421.6 349.8 1422.4 350.4"/>
    <path stroke="none" fill="#FFFFFF" d="M1672.6 335.05 Q1669.15 329.25 1668.3 322.25 1668 320 1668 317.6 L1668.1 315.15 Q1668.85 302.25 1678.25 292.85 1684.95 286.1 1693.6 283.8 1679 282.25 1679 280 1679 277.7 1694.45 276.1 L1703.35 275.35 Q1706.4 263.75 1715.5 254.75 1718.45 251.8 1721.65 249.5 1712.2 248.1 1712.2 246.3 1712.2 244 1727.65 242.4 L1743.25 241.3 1748.55 241 Q1763.85 241 1775.65 249.65 1782.1 244.5 1790.7 244.5 1800.9 244.5 1808.05 251.7 1810 253.6 1811.4 255.75 1827.1 255.9 1838.25 267.05 1843.25 272.05 1846.05 277.95 L1849.45 277.95 Q1864.5 278.75 1874.6 289.95 1883.85 300.2 1884 313.6 L1883.95 316.1 1883.35 321.1 Q1882.1 328.15 1878.2 333.95 L1877.95 334.15 Q1879.35 330.85 1880.1 327.2 L1880.6 322.65 1880.65 320.35 1880.65 320.3 Q1880.5 308.1 1872.1 298.9 1862.95 288.75 1849.3 288.05 L1846.15 288 Q1845.15 288.05 1844.3 287.55 1843.4 287 1843 286.1 1840.45 280.7 1835.9 276.15 L1835.85 276.15 Q1825.65 265.9 1811.35 265.75 1810.5 265.75 1809.8 265.35 L1808.6 264.25 1805.7 260.75 1805.65 260.75 Q1799.5 254.55 1790.7 254.55 1783.3 254.55 1777.75 259 1776.85 259.7 1775.75 259.7 1774.6 259.7 1773.7 259.05 1762.75 251.05 1748.55 251.05 L1746 251.15 1743.35 251.35 Q1728.7 252.95 1717.85 263.75 1712.65 268.9 1709.6 275 1707.2 279.65 1706.1 284.85 1705.6 287.2 1705.35 289.65 1705.25 290.9 1704.35 291.8 1703.4 292.65 1702.1 292.7 1689.55 293 1680.6 301.95 1672.15 310.35 1671.45 322.05 L1671.35 324.3 Q1671.35 326.5 1671.65 328.6 L1671.6 328.55 Q1672.05 332.3 1673.35 335.7 L1672.6 335.05"/>
    <path stroke="none" fill="#F0F9FB" d="M1673.35 335.7 Q1672.05 332.3 1671.6 328.55 L1671.65 328.6 Q1671.35 326.5 1671.35 324.3 L1671.45 322.05 Q1672.15 310.35 1680.6 301.95 1689.55 293 1702.1 292.7 1703.4 292.65 1704.35 291.8 1705.25 290.9 1705.35 289.65 1705.6 287.2 1706.1 284.85 1707.2 279.65 1709.6 275 1712.65 268.9 1717.85 263.75 1728.7 252.95 1743.35 251.35 L1746 251.15 1748.55 251.05 Q1762.75 251.05 1773.7 259.05 1774.6 259.7 1775.75 259.7 1776.85 259.7 1777.75 259 1783.3 254.55 1790.7 254.55 1799.5 254.55 1805.65 260.75 L1805.7 260.75 1808.6 264.25 1809.8 265.35 Q1810.5 265.75 1811.35 265.75 1825.65 265.9 1835.85 276.15 L1835.9 276.15 Q1840.45 280.7 1843 286.1 1843.4 287 1844.3 287.55 1845.15 288.05 1846.15 288 L1849.3 288.05 Q1862.95 288.75 1872.1 298.9 1880.5 308.1 1880.65 320.3 L1880.65 320.35 1880.6 322.65 1880.1 327.2 Q1879.35 330.85 1877.95 334.15 L1876.9 334.85 Q1874.05 336.85 1870.95 338.35 1859.95 343.7 1846.05 342.95 1839.7 342.6 1834.05 341.05 1830.95 340.25 1828.1 339.05 L1828.5 338.4 1830.65 334.15 1829.45 335.35 1826.25 338.2 Q1815 347.35 1798.75 349.25 L1792.65 349.7 Q1786.3 349.8 1780.45 348.6 1785.1 345.85 1789.2 341.75 L1792.55 338.1 1796.3 332.65 1794.8 333.85 Q1783.65 342.45 1769 344.7 L1758.25 345.5 Q1741.6 345.5 1728.75 338.5 1725 336.45 1721.65 333.85 L1720.25 332.75 Q1721.95 335.6 1724.1 338.2 L1725.8 340.15 Q1722.35 341.9 1718.6 343.1 1711.4 345.3 1703.05 345.3 L1698.1 345.1 Q1684.05 343.9 1673.7 336 L1673.35 335.7"/>
    <path stroke="none" fill="#D7F0F6" d="M1673.35 335.7 L1673.7 336 Q1684.05 343.9 1698.1 345.1 L1703.05 345.3 Q1711.4 345.3 1718.6 343.1 1722.35 341.9 1725.8 340.15 L1724.1 338.2 Q1721.95 335.6 1720.25 332.75 L1721.65 333.85 Q1725 336.45 1728.75 338.5 1741.6 345.5 1758.25 345.5 L1769 344.7 Q1783.65 342.45 1794.8 333.85 L1796.3 332.65 1792.55 338.1 1789.2 341.75 Q1785.1 345.85 1780.45 348.6 1786.3 349.8 1792.65 349.7 L1798.75 349.25 Q1815 347.35 1826.25 338.2 L1829.45 335.35 1830.65 334.15 1828.5 338.4 1828.1 339.05 Q1830.95 340.25 1834.05 341.05 1839.7 342.6 1846.05 342.95 1859.95 343.7 1870.95 338.35 1874.05 336.85 1876.9 334.85 L1877.95 334.15 1878.2 333.95 1877.7 334.65 Q1875.7 337.5 1873.15 340.05 L1871.9 341.15 1866.25 345.45 1863.95 347.9 Q1853.55 358.3 1838.8 358.3 1832.3 358.3 1826.7 356.3 L1825.05 357.95 Q1813.8 369.3 1797.8 369.3 L1795.65 369.25 Q1784.5 380 1768.9 380 1753.8 380 1742.8 369.85 L1717.75 368.4 Q1702.3 366.8 1702.3 364.5 1702.3 362.75 1711.45 361.4 L1706.35 357 Q1704.15 354.85 1702.4 352.55 1688.25 352.35 1678.25 342.3 L1676.9 340.9 1674.1 337.35 1672.6 335.05 1673.35 335.7"/>
    <path stroke="none" fill="#FFFFFF" d="M2192.3 328.7 Q2193.65 324.65 2193.65 320 L2193.6 318.25 Q2193 308.5 2186 301.5 2178.35 293.85 2167.5 293.85 L2167.45 293.85 Q2166.55 293.85 2165.75 293.4 L2164.5 292.1 Q2164.05 291.3 2164.1 290.35 L2164.15 288.15 2164.1 285.6 Q2163.2 271.75 2153.2 261.75 L2153.25 261.75 Q2142.3 250.8 2126.85 250.8 2122.1 250.8 2117.8 251.85 L2115.85 251.7 Q2114.85 251.3 2114.3 250.45 2112.5 247.9 2110.2 245.6 2107.3 242.7 2104 240.65 2096.85 236.25 2087.95 236.05 L2087.15 236.05 2082.25 236.4 Q2071.85 237.8 2064.1 245.6 2058.75 250.9 2056.45 257.4 2056.05 258.4 2055.2 259 2054.4 259.6 2053.35 259.6 2042.55 259.75 2033.6 264.55 2031.35 265.7 2029.25 267.15 2028.35 267.7 2027.35 267.7 2026.3 267.7 2025.45 267.15 2022.25 264.9 2018.1 264.9 L2017.65 264.9 2017.25 264.95 2017.1 264.95 Q2012.3 265.25 2008.8 268.8 2006.35 271.2 2005.45 274.35 2005.05 275.7 2004.95 277.25 L2004.9 278.15 2004.95 279 Q2004.95 280.05 2004.4 280.9 2003.85 281.8 2002.9 282.25 1996.6 284.9 1991.35 290.15 1989.5 291.95 1988.05 293.85 1987.4 294.65 1986.4 295 1985.4 295.3 1984.45 295 1980.7 293.85 1976.5 293.85 1965.65 293.85 1958 301.5 1951 308.5 1950.45 318.2 L1950.45 318.25 1950.35 320 Q1950.35 321.9 1950.6 323.7 1950.95 326.35 1951.8 328.8 L1950.9 328.1 Q1948.05 323.2 1947.1 319.65 L1947 313.3 1947.1 311.3 Q1947.7 300.35 1955.65 292.4 1964.3 283.8 1976.5 283.8 1981.25 283.8 1985.4 285.1 1987 283.05 1988.95 281.1 1993.55 276.5 1998.85 273.7 1985.3 272.15 1985.3 270 1985.3 267.7 2000.75 266.1 L2002.45 265.95 Q2003.6 262.5 2006.4 259.7 2011.25 254.85 2018.1 254.85 2023.3 254.85 2027.35 257.65 2038.75 249.8 2053.25 249.55 2055.85 242.35 2061.7 236.5 L2063.65 234.7 Q2054.15 233.3 2054.15 231.5 2054.15 229.2 2069.6 227.6 L2079.3 226.8 2087.15 226 Q2102.05 226 2112.55 236.5 2115.1 239.05 2117.05 241.85 2121.7 240.75 2126.85 240.75 2143.7 240.75 2155.55 252.65 2166.5 263.6 2167.45 278.75 L2167.5 281.45 2167.45 283.8 2167.5 283.8 Q2179.75 283.8 2188.35 292.4 2196.3 300.35 2196.95 311.3 L2197 313.3 Q2197 321.5 2193.2 328 L2192.3 328.7"/>
    <path stroke="none" fill="#F0F9FB" d="M2192.3 328.7 L2192.15 328.8 Q2183.45 335.55 2171.65 336.55 L2167.5 336.7 2161.15 336.3 Q2155.2 335.5 2150.1 333.2 2155.45 330.55 2160.05 325.95 L2161.95 323.95 Q2164.3 321.25 2166.05 318.25 L2164.8 319.3 Q2155.15 326.75 2142.45 328.55 L2142.2 328.6 2134.85 329.1 2133.8 330.95 2132.3 332.15 Q2129.5 334.3 2126.5 336.05 2116.45 341.95 2104 343.35 L2095.9 343.8 2088.25 343.45 Q2081.95 342.75 2076.3 340.95 2082.8 337.55 2088.4 331.95 2090.7 329.7 2092.6 327.25 L2092.65 327.25 2096.3 321.9 2094.55 323.2 Q2081.5 333.3 2064.25 335.5 L2061.25 335.8 2055.75 336.1 2054.3 336.1 2047.85 335.85 2048.4 335.15 Q2050.7 332.45 2052.4 329.6 L2051 330.7 Q2047.5 333.4 2043.65 335.4 2037.6 338.55 2030.65 340.1 2024.4 341.4 2017.4 341.4 2004.6 341.4 1994.25 336.9 L1989.9 334.75 Q1986.65 332.95 1983.75 330.7 L1982.5 329.7 Q1984.15 332.55 1986.4 335.2 L1986.75 335.6 1979.15 336.65 1976.5 336.7 Q1962.05 336.7 1951.85 328.8 L1951.8 328.8 Q1950.95 326.35 1950.6 323.7 1950.35 321.9 1950.35 320 L1950.45 318.25 1950.45 318.2 Q1951 308.5 1958 301.5 1965.65 293.85 1976.5 293.85 1980.7 293.85 1984.45 295 1985.4 295.3 1986.4 295 1987.4 294.65 1988.05 293.85 1989.5 291.95 1991.35 290.15 1996.6 284.9 2002.9 282.25 2003.85 281.8 2004.4 280.9 2004.95 280.05 2004.95 279 L2004.9 278.15 2004.95 277.25 Q2005.05 275.7 2005.45 274.35 2006.35 271.2 2008.8 268.8 2012.3 265.25 2017.1 264.95 L2017.25 264.95 2017.65 264.9 2018.1 264.9 Q2022.25 264.9 2025.45 267.15 2026.3 267.7 2027.35 267.7 2028.35 267.7 2029.25 267.15 2031.35 265.7 2033.6 264.55 2042.55 259.75 2053.35 259.6 2054.4 259.6 2055.2 259 2056.05 258.4 2056.45 257.4 2058.75 250.9 2064.1 245.6 2071.85 237.8 2082.25 236.4 L2087.15 236.05 2087.95 236.05 Q2096.85 236.25 2104 240.65 2107.3 242.7 2110.2 245.6 2112.5 247.9 2114.3 250.45 2114.85 251.3 2115.85 251.7 L2117.8 251.85 Q2122.1 250.8 2126.85 250.8 2142.3 250.8 2153.25 261.75 L2153.2 261.75 Q2163.2 271.75 2164.1 285.6 L2164.15 288.15 2164.1 290.35 Q2164.05 291.3 2164.5 292.1 L2165.75 293.4 Q2166.55 293.85 2167.45 293.85 L2167.5 293.85 Q2178.35 293.85 2186 301.5 2193 308.5 2193.6 318.25 L2193.65 320 Q2193.65 324.65 2192.3 328.7"/>
    <path stroke="none" fill="#D7F0F6" d="M2192.3 328.7 L2193.2 328 2191.65 330.35 2188.4 334.1 2188.35 334.15 Q2180.2 342.35 2168.8 342.75 2166.55 346.5 2163.2 349.9 2153.1 360.05 2138.75 360.05 L2137.4 360.05 Q2135.85 362.4 2133.7 364.55 2126.3 372 2115.7 372 2109.3 372 2104 369.25 2100.6 367.45 2097.7 364.55 L2095.7 362.3 Q2085.55 367.7 2073.2 367.7 2060.05 367.7 2049.4 361.6 2040 367.5 2028.15 367.5 2012.3 367.5 2000.85 357 L1982.9 356.7 1981.6 356.7 1976.8 356.4 1963.75 355.4 Q1948.3 353.8 1948.3 351.5 1948.3 349.6 1958.9 348.2 L1957.15 346.55 Q1953.8 343.15 1951.6 339.4 1947 331.65 1947 322.05 L1947.1 319.7 1947.1 319.65 Q1948.05 323.2 1950.9 328.1 L1951.8 328.8 1951.85 328.8 Q1962.05 336.7 1976.5 336.7 L1979.15 336.65 1986.75 335.6 1986.4 335.2 Q1984.15 332.55 1982.5 329.7 L1983.75 330.7 Q1986.65 332.95 1989.9 334.75 L1994.25 336.9 Q2004.6 341.4 2017.4 341.4 2024.4 341.4 2030.65 340.1 2037.6 338.55 2043.65 335.4 2047.5 333.4 2051 330.7 L2052.4 329.6 Q2050.7 332.45 2048.4 335.15 L2047.85 335.85 2054.3 336.1 2055.75 336.1 2061.25 335.8 2064.25 335.5 Q2081.5 333.3 2094.55 323.2 L2096.3 321.9 2092.65 327.25 2092.6 327.25 Q2090.7 329.7 2088.4 331.95 2082.8 337.55 2076.3 340.95 2081.95 342.75 2088.25 343.45 L2095.9 343.8 2104 343.35 Q2116.45 341.95 2126.5 336.05 2129.5 334.3 2132.3 332.15 L2133.8 330.95 2134.85 329.1 2142.2 328.6 2142.45 328.55 Q2155.15 326.75 2164.8 319.3 L2166.05 318.25 Q2164.3 321.25 2161.95 323.95 L2160.05 325.95 Q2155.45 330.55 2150.1 333.2 2155.2 335.5 2161.15 336.3 L2167.5 336.7 2171.65 336.55 Q2183.45 335.55 2192.15 328.8 L2192.3 328.7"/>
    <path stroke="none" fill="#F0E3C2" d="M1501.8 605.05 L1501.2 627.95 1479.75 627.95 1480.25 582.1 1465.95 582.1 1459.8 582.1 1459.65 627.95 1353.7 627.95 1352.6 599.65 1352.5 595.8 1369.75 563 1481.85 563 1501.9 599.65 1501.75 599.55 1501.8 605.05 M1514.4 483 L1514.5 478.2 1538.95 478.2 1537.1 535.35 1514.2 491.5 1514.4 483 M1475.8 552 L1375.55 552 1422.05 463.55 1422.05 463.45 1424.65 458.6 1475.8 552 M1421.1 452.1 L1421.9 453.65 1421.35 452.65 1421.1 452.1 M1409 532.2 L1441.8 532.2 1441.85 530.95 Q1441.85 524.15 1437 519.3 1432.2 514.5 1425.4 514.5 L1424.55 514.5 1421.5 514.5 Q1414.95 514.65 1410.25 519.3 1405.45 524.15 1405.45 530.95 L1405.5 532.2 1409 532.2 M1380.3 624.2 L1397.25 624.2 1396.35 582.1 1379.1 582.1 1376.05 582.1 1377.25 624.2 1380.3 624.2 M1420.4 624.2 L1438 624.2 1437.25 582.1 1419.85 582.1 1416.8 582.1 1417.35 624.2 1420.4 624.2"/>
    <path stroke="none" fill="#C23141" d="M1545.3 542.5 L1572.75 595.25 1572.6 595.25 1507.95 595.25 1429.9 451.85 1427.25 446.95 1424.6 442.2 1417.95 430.05 1486.85 430.05 1514.4 483 1514.2 491.5 1537.1 535.35 1541.6 535.35 1545.3 542.5 M1352.6 599.65 L1338.3 599.65 1418.15 446.95 1421.1 452.1 1421.35 452.65 1422 454 1352.15 586.9 1352.5 595.8 1352.6 599.65"/>
    <path stroke="none" fill="#DECA98" d="M1538.95 478.2 L1547.55 478.2 1545.3 542.5 1541.6 535.35 1537.1 535.35 1538.95 478.2 M1552.2 599.65 L1551.15 627.95 1501.2 627.95 1500.85 647.05 1479.55 647.05 1479.75 627.95 1501.2 627.95 1501.8 605.05 1501.9 599.65 1552.2 599.65 M1465.6 647.05 L1354.45 647.05 1353.7 627.95 1459.65 627.95 1459.8 582.1 1465.95 582.1 1465.6 647.05 M1475.8 552 L1481.85 563 1369.75 563 1352.5 595.8 1352.15 586.9 1422 454 1421.35 452.65 1421.9 453.65 1421.1 452.1 1424.65 458.55 1424.65 458.6 1422.05 463.45 1422.05 463.55 1375.55 552 1475.8 552 M1409 532.2 L1405.5 532.2 1405.45 530.95 Q1405.45 524.15 1410.25 519.3 1414.95 514.65 1421.5 514.5 L1424.55 514.5 1423.65 514.6 Q1417.95 515.15 1413.75 519.3 1408.95 524.15 1408.95 530.95 L1409 532.2 M1379.1 582.1 L1380.3 624.2 1377.25 624.2 1376.05 582.1 1379.1 582.1 M1419.85 582.1 L1420.4 624.2 1417.35 624.2 1416.8 582.1 1419.85 582.1"/>
    <path stroke="none" fill="#E24253" d="M1338.3 599.65 L1332.2 595.25 1417.95 430.05 1424.6 442.2 1427.1 446.95 1429.9 451.85 1507.95 595.25 1501.9 599.65 1481.85 563 1475.8 552 1424.65 458.6 1424.65 458.55 1421.1 452.1 1418.15 446.95 1338.3 599.65"/>
    <path stroke="none" fill="#FFFFFF" d="M1477.85 585 L1477.5 624.35 1468.05 624.35 1468.3 585 1477.85 585 M1434.9 521.45 L1436.6 523.5 Q1438.35 526.1 1438.75 529.2 L1412.05 529.2 Q1412.6 524.75 1415.85 521.45 L1415.9 521.4 Q1419.85 517.5 1425.4 517.5 1430.95 517.5 1434.9 521.45 M1393.75 585.45 L1394.3 609.95 1382.7 609.95 1382.05 585.45 1393.75 585.45 M1383 621.85 L1382.8 612.7 1394.35 612.7 1394.55 621.85 1383 621.85 M1435.3 621.85 L1423.75 621.85 1423.55 612.7 1435.1 612.7 1435.3 621.85 M1434.5 585.45 L1435.05 609.95 1423.45 609.95 1422.8 585.45 1434.5 585.45"/>
    <path stroke="none" fill="#C9764D" d="M1434.5 585.45 L1422.8 585.45 1423.45 609.95 1435.05 609.95 1434.5 585.45 M1479.55 647.05 L1465.6 647.05 1465.95 582.1 1480.25 582.1 1479.75 627.95 1479.55 647.05 M1477.85 585 L1468.3 585 1468.05 624.35 1477.5 624.35 1477.85 585 M1424.55 514.5 L1425.4 514.5 Q1432.2 514.5 1437 519.3 1441.85 524.15 1441.85 530.95 L1441.8 532.2 1409 532.2 1408.95 530.95 Q1408.95 524.15 1413.75 519.3 1417.95 515.15 1423.65 514.6 L1424.55 514.5 M1434.9 521.45 Q1430.95 517.5 1425.4 517.5 1419.85 517.5 1415.9 521.4 L1415.85 521.45 Q1412.6 524.75 1412.05 529.2 L1438.75 529.2 Q1438.35 526.1 1436.6 523.5 L1434.9 521.45 M1379.1 582.1 L1396.35 582.1 1397.25 624.2 1380.3 624.2 1379.1 582.1 M1393.75 585.45 L1382.05 585.45 1382.7 609.95 1394.3 609.95 1393.75 585.45 M1419.85 582.1 L1437.25 582.1 1438 624.2 1420.4 624.2 1419.85 582.1 M1435.3 621.85 L1435.1 612.7 1423.55 612.7 1423.75 621.85 1435.3 621.85 M1383 621.85 L1394.55 621.85 1394.35 612.7 1382.8 612.7 1383 621.85"/>
    <path stroke="none" fill="#B7B7B7" d="M1429.9 451.85 L1427.1 446.95 1427.25 446.95 1429.9 451.85"/>
    <path stroke="none" fill="#B12736" d="M1572.6 595.25 L1566.55 599.65 1552.2 599.65 1501.9 599.65 1507.95 595.25 1572.6 595.25"/>
    <path stroke="none" fill="#CDB77E" d="M1551.15 627.95 L1550.4 647.05 1500.85 647.05 1501.2 627.95 1551.15 627.95"/>
    <path stroke="none" fill="#C6C6C6" d="M1501.8 605.05 L1501.75 599.55 1501.9 599.65 1501.8 605.05"/>
    <path stroke="none" fill="#19A389" d="M1907.95 430.05 L2016.85 430.05 2042.65 479.7 2043.1 480.55 2044.4 483 2044.4 483.15 2071.5 535.35 2071.6 535.35 2102.75 595.25 2102.6 595.25 1997.95 595.25 1954.05 514.55 1954 514.5 1919.9 451.85 1917.25 446.95 1914.6 442.2 1907.95 430.05 M2027.1 535.35 L2035.55 535.35 2037.55 478.2 2028.95 478.2 2004.5 478.2 2004.2 491.5 2027.1 535.35"/>
    <path stroke="none" fill="#97B6BD" d="M2027.1 535.35 L2028.95 478.2 2037.55 478.2 2035.55 535.35 2027.1 535.35 M2082.2 599.65 L2081.15 627.95 1991.2 627.95 1990.85 647.05 1969.55 647.05 1969.75 627.95 1991.2 627.95 1991.8 605.05 1991.9 599.65 2082.2 599.65 M1955.6 647.05 L1844.45 647.05 1843.7 627.95 1949.65 627.95 1949.8 582.1 1955.95 582.1 1955.6 647.05 M1965.8 552 L1971.85 563 1859.75 563 1842.5 595.8 1842.15 586.9 1912 454 1911.35 452.65 1911.9 453.65 1911.1 452.1 1914.65 458.55 1914.65 458.6 1912.05 463.45 1912.05 463.55 1865.55 552 1965.8 552 M1899 532.2 L1895.5 532.2 1895.45 531.2 1895.45 530.95 Q1895.45 524.15 1900.25 519.3 1901.4 518.15 1902.7 517.3 1906.55 514.6 1911.5 514.5 L1914.35 514.5 1913.65 514.6 1912.75 514.75 Q1907.6 515.5 1903.75 519.3 1898.95 524.15 1898.95 530.95 L1899 532.2 M1870.3 624.2 L1867.25 624.2 1866.05 582.1 1869.1 582.1 1870.3 624.2 M1910.4 624.2 L1907.35 624.2 1906.8 582.1 1909.85 582.1 1910.4 624.2"/>
    <path stroke="none" fill="#ADD0D7" d="M1910.4 624.2 L1928 624.2 1927.25 582.1 1909.85 582.1 1906.8 582.1 1907.35 624.2 1910.4 624.2 M1843.7 627.95 L1842.6 599.65 1842.5 595.8 1859.75 563 1971.85 563 1991.9 599.65 1991.75 599.55 1991.8 605.05 1991.2 627.95 1969.75 627.95 1970.25 582.1 1955.95 582.1 1949.8 582.1 1949.65 627.95 1843.7 627.95 M2027.1 535.35 L2004.2 491.5 2004.5 478.2 2028.95 478.2 2027.1 535.35 M1965.8 552 L1865.55 552 1912.05 463.55 1912.05 463.45 1914.65 458.6 1965.8 552 M1899 532.2 L1931.8 532.2 1931.85 530.95 Q1931.85 524.15 1927 519.3 1925.6 517.9 1924 516.9 1922.1 515.7 1919.9 515.1 L1915.4 514.5 1914.35 514.5 1911.5 514.5 Q1906.55 514.6 1902.7 517.3 1901.4 518.15 1900.25 519.3 1895.45 524.15 1895.45 530.95 L1895.45 531.2 1895.5 532.2 1899 532.2 M1869.1 582.1 L1866.05 582.1 1867.25 624.2 1870.3 624.2 1887.25 624.2 1886.35 582.1 1869.1 582.1"/>
    <path stroke="none" fill="#1EBC9E" d="M1828.3 599.65 L1822.2 595.25 1907.95 430.05 1914.6 442.2 1917.1 446.95 1919.9 451.85 1954 514.5 1954.05 514.55 1997.95 595.25 1991.9 599.65 1971.85 563 1965.8 552 1914.65 458.6 1914.65 458.55 1911.1 452.1 1908.15 446.95 1828.3 599.65"/>
    <path stroke="none" fill="#C9764D" d="M1969.55 647.05 L1955.6 647.05 1955.95 582.1 1970.25 582.1 1969.75 627.95 1969.55 647.05 M1967.85 585 L1958.3 585 1958.05 624.35 1967.5 624.35 1967.85 585 M1914.35 514.5 L1915.4 514.5 1919.9 515.1 Q1922.1 515.7 1924 516.9 1925.6 517.9 1927 519.3 1931.85 524.15 1931.85 530.95 L1931.8 532.2 1899 532.2 1898.95 530.95 Q1898.95 524.15 1903.75 519.3 1907.6 515.5 1912.75 514.75 L1913.65 514.6 1914.35 514.5 M1924.9 521.45 Q1923.8 520.35 1922.6 519.6 1920.7 518.3 1918.45 517.85 L1915.4 517.5 Q1913 517.5 1910.9 518.25 1908.15 519.2 1905.9 521.4 L1905.85 521.45 Q1902.6 524.75 1902.05 529.2 L1928.75 529.2 Q1928.35 526.1 1926.6 523.5 1925.85 522.4 1924.9 521.45 M1869.1 582.1 L1886.35 582.1 1887.25 624.2 1870.3 624.2 1869.1 582.1 M1883.75 585.45 L1872.05 585.45 1872.7 609.95 1884.3 609.95 1883.75 585.45 M1909.85 582.1 L1927.25 582.1 1928 624.2 1910.4 624.2 1909.85 582.1 M1924.5 585.45 L1912.8 585.45 1913.45 609.95 1925.05 609.95 1924.5 585.45 M1925.3 621.85 L1925.1 612.7 1913.55 612.7 1913.75 621.85 1925.3 621.85 M1873 621.85 L1884.55 621.85 1884.35 612.7 1872.8 612.7 1873 621.85"/>
    <path stroke="none" fill="#FFFFFF" d="M1873 621.85 L1872.8 612.7 1884.35 612.7 1884.55 621.85 1873 621.85 M1967.85 585 L1967.5 624.35 1958.05 624.35 1958.3 585 1967.85 585 M1924.9 521.45 Q1925.85 522.4 1926.6 523.5 1928.35 526.1 1928.75 529.2 L1902.05 529.2 Q1902.6 524.75 1905.85 521.45 L1905.9 521.4 Q1908.15 519.2 1910.9 518.25 1913 517.5 1915.4 517.5 L1918.45 517.85 Q1920.7 518.3 1922.6 519.6 1923.8 520.35 1924.9 521.45 M1883.75 585.45 L1884.3 609.95 1872.7 609.95 1872.05 585.45 1883.75 585.45 M1925.3 621.85 L1913.75 621.85 1913.55 612.7 1925.1 612.7 1925.3 621.85 M1924.5 585.45 L1925.05 609.95 1913.45 609.95 1912.8 585.45 1924.5 585.45"/>
    <path stroke="none" fill="#158C75" d="M2102.6 595.25 L2096.55 599.65 2082.2 599.65 1991.9 599.65 1997.95 595.25 2102.6 595.25 M1842.6 599.65 L1828.3 599.65 1908.15 446.95 1911.1 452.1 1911.35 452.65 1912 454 1842.15 586.9 1842.5 595.8 1842.6 599.65"/>
    <path stroke="none" fill="#819BA1" d="M2081.15 627.95 L2080.4 647.05 1990.85 647.05 1991.2 627.95 2081.15 627.95"/>
    <path stroke="none" fill="#C6C6C6" d="M1991.8 605.05 L1991.75 599.55 1991.9 599.65 1991.8 605.05"/>
    <path stroke="none" fill="#B7B7B7" d="M1917.25 446.95 L1919.9 451.85 1917.1 446.95 1917.25 446.95"/>
    <path stroke="none" fill="#F0E3C2" d="M1911.1 452.1 L1911.9 453.65 1911.35 452.65 1911.1 452.1"/>
    <path stroke="none" fill="#ADD0D7" d="M1610 629.5 L1608.7 609.9 1608.6 608.5 1647 471.4 1692.65 609.9 1694.55 609.9 1694.15 629.5 1646.15 629.5 1644.85 586.2 1629.4 586.2 1625.7 586.2 1627.85 629.5 1610 629.5 M1661.45 626.1 L1676.4 626.1 1676.5 586.2 1660.9 586.2 1657.35 586.2 1658.05 626.1 1661.45 626.1 M1710.25 562.15 L1704.9 543.85 1705.4 526 1711.5 526 1710.25 562.15"/>
    <path stroke="none" fill="#158C75" d="M1608.7 609.9 L1597.55 609.9 1640.3 451.1 1644.3 463.2 1644.4 463.6 1607.8 596.5 1608.6 608.5 1608.7 609.9 M1798.4 607.05 L1792.15 609.9 1780.95 609.9 1694.55 609.9 1692.65 609.9 1698.85 607.05 1798.4 607.05"/>
    <path stroke="none" fill="#97B6BD" d="M1780.95 609.9 L1779.6 629.5 1694.15 629.5 1693.8 647.05 1646.7 647.05 1646.15 629.5 1694.15 629.5 1694.55 609.9 1780.95 609.9 M1632.15 647.05 L1611.2 647.05 1610 629.5 1627.85 629.5 1625.7 586.2 1629.4 586.2 1632.15 647.05 M1608.6 608.5 L1607.8 596.5 1644.4 463.6 1647 471.4 1608.6 608.5 M1660.9 586.2 L1661.45 626.1 1658.05 626.1 1657.35 586.2 1660.9 586.2 M1710.25 562.15 L1711.5 526 1718.65 526 1717.15 562.15 1710.25 562.15"/>
    <path stroke="none" fill="#1EBC9E" d="M1597.55 609.9 L1591.2 607.05 1639.45 423 1698.85 607.05 1692.65 609.9 1647 471.4 1644.4 463.6 1644.8 464.65 1644.3 463.2 1640.3 451.1 1597.55 609.9"/>
    <path stroke="none" fill="#C9764D" d="M1646.7 647.05 L1632.15 647.05 1629.4 586.2 1644.85 586.2 1646.15 629.5 1646.7 647.05 M1641.85 589.75 L1632.15 589.75 1633.65 622.1 1642.85 622.1 1641.85 589.75 M1660.9 586.2 L1676.5 586.2 1676.4 626.1 1661.45 626.1 1660.9 586.2 M1664 622.3 L1673.7 622.3 1673.75 590 1663.65 590 1664 622.3"/>
    <path stroke="none" fill="#FFFFFF" d="M1664 622.3 L1663.65 590 1673.75 590 1673.7 622.3 1664 622.3 M1641.85 589.75 L1642.85 622.1 1633.65 622.1 1632.15 589.75 1641.85 589.75"/>
    <path stroke="none" fill="#19A389" d="M1639.45 423 L1750.25 423 1798.4 607.05 1698.85 607.05 1639.45 423 M1711.5 526 L1705.4 526 1704.9 543.85 1710.25 562.15 1717.15 562.15 1718.65 526 1711.5 526"/>
    <path stroke="none" fill="#819BA1" d="M1779.6 629.5 L1778.45 647.05 1693.8 647.05 1694.15 629.5 1779.6 629.5"/>
    <path stroke="none" fill="#ADD0D7" d="M1700 705 L1690 705 1690 700 1700 700 1700 705 M1680 705 L1670 705 1670 700 1680 700 1680 705 M1660 705 L1650 705 1650 700 1660 700 1660 705 M1680 725 L1685 720 1705 720 1705 755 1680 755 1680 725 M1645 720 L1665 720 1670 725 1670 755 1645 755 1645 720"/>
    <path stroke="none" fill="#97B6BD" d="M1690 705 L1700 705 1705 705 1705 715 1645 715 1645 705 1650 705 1660 705 1670 705 1680 705 1690 705 M1670 725 L1680 725 1680 755 1705 755 1705 760 1645 760 1645 755 1670 755 1670 725"/>
    <path stroke="none" fill="#819BA1" d="M1645 715 L1705 715 1705 720 1685 720 1680 725 1670 725 1665 720 1645 720 1645 715"/>
    <path stroke="none" fill="#1EBC9E" d="M1726.15 696.5 L1735 675 1740 675 1750.6 696.5 1750.75 701.75 1741 701.75 1740.8 696.5 1735.95 696.5 1736.15 701.75 1726.45 701.75 1726.15 696.5 M1799.45 696.5 L1810 675 1815 675 1823.85 696.5 1823.6 701.75 1813.85 701.75 1814.1 696.5 1809.2 696.5 1809 701.75 1799.3 701.75 1799.45 696.5"/>
    <path stroke="none" fill="#ADD0D7" d="M1755.6 701.75 L1760.45 701.75 1760.5 706.9 1755.7 706.9 1755.6 701.75 M1770.2 706.9 L1770.15 701.75 1779.85 701.75 1779.85 706.9 1770.2 706.9 M1789.5 706.9 L1789.6 701.75 1794.45 701.75 1794.35 706.9 1789.5 706.9 M1751.15 717.05 L1798.9 717.05 1797.85 755.45 1788.7 755.45 1789.2 726.95 1760.85 726.95 1761.3 755.45 1752.15 755.45 1751.15 717.05 M1803.65 717.05 L1803.85 712 1818.25 712 1818 717.05 1816.15 755.45 1802.45 755.45 1803.65 717.05 M1732.05 717.05 L1731.8 712 1746.2 712 1746.35 717.05 1747.6 755.45 1733.9 755.45 1732.05 717.05 M1736.8 717.05 L1737.45 731.85 1742.15 731.85 1741.6 717.05 1736.8 717.05 M1808.45 717.05 L1807.9 731.85 1812.6 731.85 1813.2 717.05 1808.45 717.05"/>
    <path stroke="none" fill="#97B6BD" d="M1726.45 701.75 L1736.15 701.75 1741 701.75 1750.75 701.75 1755.6 701.75 1755.7 706.9 1760.5 706.9 1770.2 706.9 1779.85 706.9 1789.5 706.9 1794.35 706.9 1799 712 1751 712 1755.7 706.9 1721.9 706.9 1721.6 701.75 1726.45 701.75 M1828.45 701.75 L1828.15 706.9 1794.35 706.9 1794.45 701.75 1799.3 701.75 1809 701.75 1813.85 701.75 1823.6 701.75 1828.45 701.75 M1822.75 717.05 L1820.95 750.8 1820.7 755.45 1816.15 755.45 1818 717.05 1822.75 717.05 M1797.75 760 L1784.1 760 1784.4 731.85 1765.6 731.85 1765.9 760 1752.3 760 1752.15 755.45 1761.3 755.45 1760.85 726.95 1789.2 726.95 1788.7 755.45 1797.85 755.45 1798.9 717.05 1803.65 717.05 1802.45 755.45 1797.85 755.45 1797.75 760 M1729.05 750.8 L1727.25 717.05 1732.05 717.05 1733.9 755.45 1729.3 755.45 1729.05 750.8 M1746.35 717.05 L1751.15 717.05 1752.15 755.45 1747.6 755.45 1746.35 717.05"/>
    <path stroke="none" fill="#A4C6CD" d="M1726.15 696.5 L1726.45 701.75 1721.6 701.75 1721.3 696.5 1726.15 696.5 M1736.15 701.75 L1735.95 696.5 1740.8 696.5 1741 701.75 1736.15 701.75 M1750.75 701.75 L1750.6 696.5 1755.45 696.5 1755.6 701.75 1750.75 701.75 M1794.45 701.75 L1794.55 696.5 1799.45 696.5 1799.3 701.75 1794.45 701.75 M1823.85 696.5 L1828.75 696.5 1828.45 701.75 1823.6 701.75 1823.85 696.5 M1809 701.75 L1809.2 696.5 1814.1 696.5 1813.85 701.75 1809 701.75"/>
    <path stroke="none" fill="#819BA1" d="M1828.15 706.9 L1823.05 712 1822.75 717.05 1818 717.05 1818.25 712 1803.85 712 1803.65 717.05 1798.9 717.05 1751.15 717.05 1746.35 717.05 1746.2 712 1731.8 712 1732.05 717.05 1727.25 717.05 1727 712 1721.9 706.9 1755.7 706.9 1751 712 1799 712 1794.35 706.9 1828.15 706.9 M1820.95 750.8 L1825.3 755.45 1825 760 1797.75 760 1797.85 755.45 1802.45 755.45 1816.15 755.45 1820.7 755.45 1820.95 750.8 M1784.1 760 L1765.9 760 1765.6 731.85 1784.4 731.85 1784.1 760 M1752.3 760 L1725 760 1724.75 755.45 1729.05 750.8 1729.3 755.45 1733.9 755.45 1747.6 755.45 1752.15 755.45 1752.3 760 M1736.8 717.05 L1741.6 717.05 1742.15 731.85 1737.45 731.85 1736.8 717.05 M1808.45 717.05 L1813.2 717.05 1812.6 731.85 1807.9 731.85 1808.45 717.05"/>
    <path stroke="none" fill="#1EBC9E" d="M1624 694.85 L1619.3 694.85 1619.15 700.5 1614.6 700.5 1614.65 694.85 1605.35 694.85 1605.45 700.5 1600.85 700.5 1600.7 694.85 1596.05 694.85 1610 670 1624 694.85"/>
    <path stroke="none" fill="#97B6BD" d="M1600.85 700.5 L1605.45 700.5 1614.6 700.5 1619.15 700.5 1628.3 700.5 1627.7 711.3 1592.3 711.3 1591.7 700.5 1600.85 700.5 M1618.6 721.45 L1622.85 721.45 1621.6 752.3 1621.4 756.2 1617.6 756.2 1618.6 721.45 M1597.15 721.45 L1601.45 721.45 1602.4 756.2 1598.6 756.2 1598.45 752.3 1597.15 721.45"/>
    <path stroke="none" fill="#A4C6CD" d="M1619.15 700.5 L1619.3 694.85 1624 694.85 1628.65 694.85 1628.3 700.5 1619.15 700.5 M1596.05 694.85 L1600.7 694.85 1600.85 700.5 1591.7 700.5 1591.4 694.85 1596.05 694.85 M1605.45 700.5 L1605.35 694.85 1614.65 694.85 1614.6 700.5 1605.45 700.5"/>
    <path stroke="none" fill="#819BA1" d="M1618.6 721.45 L1618.7 716.45 1601.3 716.45 1601.45 721.45 1597.15 721.45 1596.95 716.45 1592.3 711.3 1627.7 711.3 1623.1 716.45 1622.85 721.45 1618.6 721.45 M1602.4 756.2 L1617.6 756.2 1621.4 756.2 1621.6 752.3 1625.2 756.2 1625 760 1595 760 1594.8 756.2 1598.45 752.3 1598.6 756.2 1602.4 756.2 M1614.1 735.45 L1605.9 735.45 1605.8 726.25 1610 721.45 1614.25 726.25 1614.1 735.45"/>
    <path stroke="none" fill="#ADD0D7" d="M1614.1 735.45 L1614.25 726.25 1610 721.45 1605.8 726.25 1605.9 735.45 1614.1 735.45 M1601.45 721.45 L1601.3 716.45 1618.7 716.45 1618.6 721.45 1617.6 756.2 1602.4 756.2 1601.45 721.45"/>
    <path stroke="none" fill="#97B6BD" d="M1513.2 732.3 L1521.5 732.3 1521.85 741.85 1513.7 741.85 1513.2 732.3 M1507.35 727.35 L1507.05 722.3 1525.3 701.2 1544.7 722.3 1544.7 727.35 1525.45 706.65 1507.35 727.35 M1564.75 695.65 L1569.7 695.65 1569.1 706.65 1568.85 711.95 1564.05 711.95 1564.75 695.65 M1572.7 727.35 L1570.9 755.6 1544.45 755.6 1544.4 760 1509.4 760 1509.1 755.6 1522.35 755.6 1522.05 746.55 1531 746.55 1531.2 755.6 1544.45 755.6 1544.7 727.35 1572.7 727.35 M1540 741.85 L1530.95 741.85 1530.75 732.3 1540 732.3 1540 741.85 M1549.25 732.3 L1549.1 741.85 1567.25 741.85 1567.75 732.3 1549.25 732.3"/>
    <path stroke="none" fill="#ADD0D7" d="M1513.2 732.3 L1513.7 741.85 1521.85 741.85 1521.5 732.3 1513.2 732.3 M1559.8 695.65 L1564.75 695.65 1564.05 711.95 1554.7 701.2 1554.85 695.65 1559.8 695.65 M1509.1 755.6 L1507.35 727.35 1525.45 706.65 1544.7 727.35 1544.45 755.6 1531.2 755.6 1531 746.55 1522.05 746.55 1522.35 755.6 1509.1 755.6 M1540 741.85 L1540 732.3 1530.75 732.3 1530.95 741.85 1540 741.85"/>
    <path stroke="none" fill="#1EBC9E" d="M1507.05 722.3 L1501.95 717.2 1525 690 1549.55 717.2 1578.05 717.2 1573 722.3 1544.7 722.3 1525.3 701.2 1507.05 722.3"/>
    <path stroke="none" fill="#19A389" d="M1525 690 L1555 690 1559.8 695.65 1554.85 695.65 1554.7 701.2 1564.05 711.95 1568.85 711.95 1569.1 706.65 1578.05 717.2 1549.55 717.2 1525 690"/>
    <path stroke="none" fill="#819BA1" d="M1573 722.3 L1572.7 727.35 1544.7 727.35 1544.7 722.3 1573 722.3 M1570.9 755.6 L1570.65 760 1544.4 760 1544.45 755.6 1570.9 755.6 M1549.25 732.3 L1567.75 732.3 1567.25 741.85 1549.1 741.85 1549.25 732.3"/>
    <path stroke="none" fill="#1EBC9E" d="M1422.8 741.6 L1417.7 736.7 1440 710 1464.35 736.7 1492.35 736.7 1487.25 741.6 1459.6 741.6 1440.45 721.1 1422.8 741.6"/>
    <path stroke="none" fill="#97B6BD" d="M1422.8 741.6 L1440.45 721.1 1459.6 741.6 1459.55 746.4 1486.85 746.4 1486.05 755.6 1459.45 755.6 1459.4 760 1424.4 760 1424 755.6 1437.3 755.6 1436.85 746.4 1445.9 746.4 1446.15 755.6 1459.45 755.6 1459.55 746.4 1440.65 726.45 1423.2 746.4 1422.8 741.6 M1469.8 715.65 L1474.75 715.65 1474.2 726.45 1469.4 726.45 1469.8 715.65"/>
    <path stroke="none" fill="#ADD0D7" d="M1469.8 715.65 L1469.4 726.45 1464.75 721.1 1464.85 715.65 1469.8 715.65 M1423.2 746.4 L1440.65 726.45 1459.55 746.4 1459.45 755.6 1446.15 755.6 1445.9 746.4 1436.85 746.4 1437.3 755.6 1424 755.6 1423.2 746.4"/>
    <path stroke="none" fill="#19A389" d="M1492.35 736.7 L1464.35 736.7 1440 710 1470 710 1474.75 715.65 1492.35 736.7 M1469.8 715.65 L1464.85 715.65 1464.75 721.1 1469.4 726.45 1474.2 726.45 1474.75 715.65 1469.8 715.65"/>
    <path stroke="none" fill="#819BA1" d="M1459.6 741.6 L1487.25 741.6 1486.85 746.4 1459.55 746.4 1459.6 741.6 M1459.4 760 L1459.45 755.6 1486.05 755.6 1485.65 760 1459.4 760"/>
    <path stroke="none" fill="#E24253" d="M1726.15 796.45 L1735 774.95 1740 774.95 1750.6 796.45 1750.75 801.7 1741 801.7 1740.8 796.45 1735.95 796.45 1736.15 801.7 1726.45 801.7 1726.15 796.45 M1799.45 796.45 L1810 774.95 1815 774.95 1823.85 796.45 1823.6 801.7 1813.85 801.7 1814.1 796.45 1809.2 796.45 1809 801.7 1799.3 801.7 1799.45 796.45 M1808.65 811.95 L1813.45 811.95 1812.6 831.85 1810.15 834.25 1807.9 831.85 1808.65 811.95 M1736.6 811.95 L1741.4 811.95 1742.15 831.85 1739.9 834.25 1737.45 831.85 1736.6 811.95"/>
    <path stroke="none" fill="#E5D8B9" d="M1736.6 811.95 L1737.45 831.85 1739.9 834.25 1742.15 831.85 1741.4 811.95 1746.2 811.95 1746.35 817 1747.6 855.4 1733.9 855.4 1732.05 817 1731.8 811.95 1736.6 811.95 M1726.15 796.45 L1726.45 801.7 1721.6 801.7 1721.3 796.45 1726.15 796.45 M1736.15 801.7 L1735.95 796.45 1740.8 796.45 1741 801.7 1736.15 801.7 M1750.75 801.7 L1750.6 796.45 1755.45 796.45 1755.6 801.7 1760.45 801.7 1760.5 806.85 1755.7 806.85 1755.6 801.7 1750.75 801.7 M1770.2 806.85 L1770.15 801.7 1779.85 801.7 1779.85 806.85 1770.2 806.85 M1789.5 806.85 L1789.6 801.7 1794.45 801.7 1794.55 796.45 1799.45 796.45 1799.3 801.7 1794.45 801.7 1794.35 806.85 1789.5 806.85 M1823.85 796.45 L1828.75 796.45 1828.45 801.7 1823.6 801.7 1823.85 796.45 M1813.85 801.7 L1809 801.7 1809.2 796.45 1814.1 796.45 1813.85 801.7 M1813.45 811.95 L1818.25 811.95 1818 817 1816.15 855.4 1802.45 855.4 1803.65 817 1803.85 811.95 1808.65 811.95 1807.9 831.85 1810.15 834.25 1812.6 831.85 1813.45 811.95 M1751.25 822 L1760.75 822 1760.7 817 1770.25 817 1770.25 822 1779.75 822 1779.8 817 1789.35 817 1789.25 822 1798.75 822 1797.85 855.4 1788.7 855.4 1789.2 826.9 1760.85 826.9 1761.3 855.4 1752.15 855.4 1751.25 822"/>
    <path stroke="none" fill="#D0C4A8" d="M1751.25 822 L1752.15 855.4 1761.3 855.4 1760.85 826.9 1789.2 826.9 1788.7 855.4 1797.85 855.4 1798.75 822 1798.9 817 1803.65 817 1802.45 855.4 1797.85 855.4 1797.75 859.95 1784.1 859.95 1784.4 831.8 1765.6 831.8 1765.9 859.95 1752.3 859.95 1752.15 855.4 1747.6 855.4 1746.35 817 1751.15 817 1751.25 822 M1726.45 801.7 L1736.15 801.7 1741 801.7 1750.75 801.7 1755.6 801.7 1755.7 806.85 1760.5 806.85 1770.2 806.85 1779.85 806.85 1789.5 806.85 1794.35 806.85 1794.45 801.7 1799.3 801.7 1809 801.7 1813.85 801.7 1823.6 801.7 1828.45 801.7 1828.15 806.85 1794.35 806.85 1799 811.95 1751 811.95 1755.7 806.85 1721.9 806.85 1721.6 801.7 1726.45 801.7 M1822.75 817 L1820.95 850.75 1820.7 855.4 1816.15 855.4 1818 817 1822.75 817 M1729.05 850.75 L1727.25 817 1732.05 817 1733.9 855.4 1729.3 855.4 1729.05 850.75"/>
    <path stroke="none" fill="#B6AB93" d="M1828.15 806.85 L1823.05 811.95 1822.75 817 1818 817 1818.25 811.95 1813.45 811.95 1808.65 811.95 1803.85 811.95 1803.65 817 1798.9 817 1798.75 822 1789.25 822 1789.35 817 1779.8 817 1779.75 822 1770.25 822 1770.25 817 1760.7 817 1760.75 822 1751.25 822 1751.15 817 1746.35 817 1746.2 811.95 1741.4 811.95 1736.6 811.95 1731.8 811.95 1732.05 817 1727.25 817 1727 811.95 1721.9 806.85 1755.7 806.85 1751 811.95 1799 811.95 1794.35 806.85 1828.15 806.85 M1820.95 850.75 L1825.3 855.4 1825 859.95 1797.75 859.95 1797.85 855.4 1802.45 855.4 1816.15 855.4 1820.7 855.4 1820.95 850.75 M1784.1 859.95 L1765.9 859.95 1765.6 831.8 1784.4 831.8 1784.1 859.95 M1752.3 859.95 L1725 859.95 1724.75 855.4 1729.05 850.75 1729.3 855.4 1733.9 855.4 1747.6 855.4 1752.15 855.4 1752.3 859.95"/>
    <path stroke="none" fill="#C23141" d="M1492.35 836.65 L1464.35 836.65 1440 809.95 1470 809.95 1492.35 836.65"/>
    <path stroke="none" fill="#E24253" d="M1492.35 836.65 L1487.25 841.55 1459.6 841.55 1440.45 821.05 1422.8 841.55 1417.7 836.65 1440 809.95 1464.35 836.65 1492.35 836.65"/>
    <path stroke="none" fill="#B6AB93" d="M1459.6 841.55 L1487.25 841.55 1486.85 846.35 1459.55 846.35 1459.6 841.55 M1486.05 855.55 L1485.65 859.95 1459.4 859.95 1459.45 855.55 1486.05 855.55"/>
    <path stroke="none" fill="#D0C4A8" d="M1486.05 855.55 L1459.45 855.55 1459.4 859.95 1424.4 859.95 1424 855.55 1437.3 855.55 1436.85 846.35 1445.9 846.35 1446.15 855.55 1459.45 855.55 1459.55 846.35 1440.65 826.4 1423.2 846.35 1422.8 841.55 1440.45 821.05 1459.6 841.55 1459.55 846.35 1486.85 846.35 1486.05 855.55"/>
    <path stroke="none" fill="#E5D8B9" d="M1424 855.55 L1423.2 846.35 1440.65 826.4 1459.55 846.35 1459.45 855.55 1446.15 855.55 1445.9 846.35 1436.85 846.35 1437.3 855.55 1424 855.55"/>
    <path stroke="none" fill="#C23141" d="M1525 789.95 L1555 789.95 1578.05 817.15 1549.55 817.15 1525 789.95"/>
    <path stroke="none" fill="#B6AB93" d="M1573 822.25 L1572.7 827.3 1544.7 827.3 1544.7 822.25 1573 822.25 M1570.9 855.55 L1570.65 859.95 1544.4 859.95 1544.45 855.55 1570.9 855.55 M1549.25 832.25 L1567.75 832.25 1567.25 841.8 1549.1 841.8 1549.25 832.25"/>
    <path stroke="none" fill="#E24253" d="M1525 789.95 L1549.55 817.15 1578.05 817.15 1573 822.25 1544.7 822.25 1525.3 801.15 1507.05 822.25 1501.95 817.15 1525 789.95"/>
    <path stroke="none" fill="#D0C4A8" d="M1572.7 827.3 L1570.9 855.55 1544.45 855.55 1544.4 859.95 1509.4 859.95 1509.1 855.55 1522.35 855.55 1522.05 846.5 1531 846.5 1531.2 855.55 1544.45 855.55 1544.7 827.3 1572.7 827.3 M1507.35 827.3 L1507.05 822.25 1525.3 801.15 1544.7 822.25 1544.7 827.3 1525.45 806.6 1507.35 827.3 M1549.25 832.25 L1549.1 841.8 1567.25 841.8 1567.75 832.25 1549.25 832.25 M1513.2 832.25 L1521.5 832.25 1521.85 841.8 1513.7 841.8 1513.2 832.25 M1540 841.8 L1530.95 841.8 1530.75 832.25 1540 832.25 1540 841.8"/>
    <path stroke="none" fill="#E5D8B9" d="M1540 841.8 L1540 832.25 1530.75 832.25 1530.95 841.8 1540 841.8 M1509.1 855.55 L1507.35 827.3 1525.45 806.6 1544.7 827.3 1544.45 855.55 1531.2 855.55 1531 846.5 1522.05 846.5 1522.35 855.55 1509.1 855.55 M1513.2 832.25 L1513.7 841.8 1521.85 841.8 1521.5 832.25 1513.2 832.25"/>
    <path stroke="none" fill="#E5D8B9" d="M1624 794.8 L1628.65 794.8 1628.3 800.45 1619.15 800.45 1619.3 794.8 1624 794.8 M1591.7 800.45 L1591.4 794.8 1596.05 794.8 1600.7 794.8 1600.85 800.45 1591.7 800.45 M1605.45 800.45 L1605.35 794.8 1614.65 794.8 1614.6 800.45 1605.45 800.45 M1601.45 821.4 L1601.3 816.4 1605.65 816.4 1605.9 835.4 1610 839.8 1614.1 835.4 1614.35 816.4 1618.7 816.4 1618.6 821.4 1617.6 856.15 1602.4 856.15 1601.45 821.4"/>
    <path stroke="none" fill="#D0C4A8" d="M1601.45 821.4 L1602.4 856.15 1598.6 856.15 1598.45 852.25 1597.15 821.4 1601.45 821.4 M1628.3 800.45 L1627.7 811.25 1592.3 811.25 1591.7 800.45 1600.85 800.45 1605.45 800.45 1614.6 800.45 1619.15 800.45 1628.3 800.45 M1622.85 821.4 L1621.6 852.25 1621.4 856.15 1617.6 856.15 1618.6 821.4 1622.85 821.4"/>
    <path stroke="none" fill="#B6AB93" d="M1622.85 821.4 L1618.6 821.4 1618.7 816.4 1614.35 816.4 1605.65 816.4 1601.3 816.4 1601.45 821.4 1597.15 821.4 1596.95 816.4 1592.3 811.25 1627.7 811.25 1623.1 816.4 1622.85 821.4 M1621.6 852.25 L1625.2 856.15 1625 859.95 1595 859.95 1594.8 856.15 1598.45 852.25 1598.6 856.15 1602.4 856.15 1617.6 856.15 1621.4 856.15 1621.6 852.25"/>
    <path stroke="none" fill="#E24253" d="M1596.05 794.8 L1610 769.95 1624 794.8 1619.3 794.8 1619.15 800.45 1614.6 800.45 1614.65 794.8 1605.35 794.8 1605.45 800.45 1600.85 800.45 1600.7 794.8 1596.05 794.8 M1605.65 816.4 L1614.35 816.4 1614.1 835.4 1610 839.8 1605.9 835.4 1605.65 816.4"/>
    <path stroke="none" fill="#D0C4A8" d="M1690 804.95 L1700 804.95 1705 804.95 1705 814.95 1645 814.95 1645 804.95 1650 804.95 1660 804.95 1670 804.95 1680 804.95 1690 804.95 M1705 854.95 L1705 859.95 1645 859.95 1645 854.95 1670 854.95 1670 819.95 1680 820 1680 854.95 1705 854.95"/>
    <path stroke="none" fill="#B6AB93" d="M1705 814.95 L1705 819.95 1700 819.95 1700 825 1690 825 1690 820 1680 820 1670 819.95 1660 819.95 1660 825 1650 825 1650 819.95 1645 819.95 1645 814.95 1705 814.95"/>
    <path stroke="none" fill="#E5D8B9" d="M1705 819.95 L1705 854.95 1680 854.95 1680 820 1690 820 1690 825 1700 825 1700 819.95 1705 819.95 M1645 854.95 L1645 819.95 1650 819.95 1650 825 1660 825 1660 819.95 1670 819.95 1670 854.95 1645 854.95 M1650 804.95 L1650 799.95 1660 799.95 1660 804.95 1650 804.95 M1670 804.95 L1670 799.95 1680 799.95 1680 804.95 1670 804.95 M1690 804.95 L1690 799.95 1700 799.95 1700 804.95 1690 804.95"/>
    <path stroke="none" fill="#C23141" d="M2274.75 466.75 L2274.75 461.35 2260.25 461.35 2260.3 466.75 2245.85 466.75 2245.75 461.35 2236.1 461.35 2238.65 455.95 2296.4 455.95 2298.95 461.35 2289.25 461.35 2289.2 466.75 2274.75 466.75 M2260.45 508.6 L2260.45 503.45 2274.6 503.45 2274.55 508.6 2260.45 508.6"/>
    <path stroke="none" fill="#E5D8B9" d="M2260.3 466.75 L2260.25 461.35 2274.75 461.35 2274.75 466.75 2260.3 466.75 M2289.2 466.75 L2289.25 461.35 2298.95 461.35 2303.75 461.35 2303.65 466.75 2289.2 466.75 M2236.1 461.35 L2245.75 461.35 2245.85 466.75 2231.35 466.75 2231.25 461.35 2236.1 461.35 M2247.5 605.05 L2287.5 605.05 2291.95 605.05 2296.3 609.55 2238.7 609.55 2243.1 605.05 2247.5 605.05"/>
    <path stroke="none" fill="#D0C4A8" d="M2247.5 605.05 L2247.4 595.9 2242.95 595.9 2242.8 586.6 2247.3 586.6 2247.2 577.25 2242.65 577.25 2242.5 567.75 2247.05 567.75 2246.95 558.2 2242.4 558.2 2242.25 548.5 2246.85 548.5 2246.7 538.7 2242.1 538.7 2241.95 528.75 2246.6 528.75 2246.45 518.75 2241.8 518.75 2241.65 508.6 2246.35 508.6 2246.3 503.45 2260.45 503.45 2260.45 508.6 2260.6 538.7 2267.5 546.05 2274.45 538.7 2274.55 508.6 2274.6 503.45 2288.75 503.45 2288.7 508.6 2293.4 508.6 2293.25 518.75 2288.55 518.75 2288.45 528.75 2293.1 528.75 2292.95 538.7 2288.3 538.7 2288.2 548.5 2292.8 548.5 2292.65 558.2 2288.1 558.2 2287.95 567.75 2292.5 567.75 2292.35 577.95 2287.85 577.95 2287.75 586.6 2292.2 586.6 2292.1 595.9 2287.6 595.9 2287.5 605.05 2247.5 605.05 M2274.75 466.75 L2289.2 466.75 2303.65 466.75 2303.35 482.65 2231.7 482.65 2231.35 466.75 2245.85 466.75 2260.3 466.75 2274.75 466.75 M2296.3 609.55 L2300 645 2235 645 2238.7 609.55 2296.3 609.55"/>
    <path stroke="none" fill="#B6AB93" d="M2231.7 482.65 L2303.35 482.65 2303.2 487.9 2293.55 498.3 2293.4 508.6 2288.7 508.6 2288.75 503.45 2274.6 503.45 2260.45 503.45 2246.3 503.45 2246.35 508.6 2241.65 508.6 2241.5 498.3 2231.8 487.9 2231.7 482.65 M2241.8 518.75 L2246.45 518.75 2246.6 528.75 2241.95 528.75 2241.8 518.75 M2242.1 538.7 L2246.7 538.7 2246.85 548.5 2242.25 548.5 2242.1 538.7 M2242.4 558.2 L2246.95 558.2 2247.05 567.75 2242.5 567.75 2242.4 558.2 M2242.65 577.25 L2247.2 577.25 2247.3 586.6 2242.8 586.6 2242.65 577.25 M2242.95 595.9 L2247.4 595.9 2247.5 605.05 2243.1 605.05 2242.95 595.9 M2287.5 605.05 L2287.6 595.9 2292.1 595.9 2291.95 605.05 2287.5 605.05 M2292.2 586.6 L2287.75 586.6 2287.85 577.95 2292.35 577.95 2292.2 586.6 M2292.5 567.75 L2287.95 567.75 2288.1 558.2 2292.65 558.2 2292.5 567.75 M2292.8 548.5 L2288.2 548.5 2288.3 538.7 2292.95 538.7 2292.8 548.5 M2293.1 528.75 L2288.45 528.75 2288.55 518.75 2293.25 518.75 2293.1 528.75"/>
    <path stroke="none" fill="#E24253" d="M2296.4 455.95 L2238.65 455.95 2265 400 2270 400 2296.4 455.95 M2260.45 508.6 L2274.55 508.6 2274.45 538.7 2267.5 546.05 2260.6 538.7 2260.45 508.6"/>
    <path stroke="none" fill="#C0E7EE" d="M2186.95 605.05 L2191.3 609.55 2133.7 609.55 2138.1 605.05 2142.5 605.05 2182.5 605.05 2186.95 605.05 M2126.35 466.75 L2126.25 461.35 2131.1 461.35 2140.75 461.35 2140.85 466.75 2126.35 466.75 M2193.95 461.35 L2198.75 461.35 2198.65 466.75 2184.2 466.75 2184.25 461.35 2193.95 461.35 M2169.75 466.75 L2155.3 466.75 2155.25 461.35 2169.75 461.35 2169.75 466.75 M2169.4 548.5 L2169.4 553.35 2155.65 553.35 2155.6 548.5 2169.4 548.5"/>
    <path stroke="none" fill="#97B6BD" d="M2198.35 482.65 L2198.2 487.9 2188.55 498.3 2188.4 508.6 2183.7 508.6 2183.8 498.3 2141.2 498.3 2141.35 508.6 2136.65 508.6 2136.5 498.3 2126.8 487.9 2126.7 482.65 2198.35 482.65 M2188.25 518.75 L2188.1 528.75 2183.45 528.75 2183.55 518.75 2188.25 518.75 M2187.95 538.7 L2187.8 548.5 2183.2 548.5 2183.3 538.7 2187.95 538.7 M2187.65 558.2 L2187.5 567.75 2182.95 567.75 2183.1 558.2 2187.65 558.2 M2187.35 577.95 L2187.2 586.6 2182.75 586.6 2182.85 577.95 2187.35 577.95 M2187.1 595.9 L2186.95 605.05 2182.5 605.05 2182.6 595.9 2187.1 595.9 M2191.3 609.55 L2195 645 2130 645 2133.7 609.55 2191.3 609.55 M2138.1 605.05 L2137.95 595.9 2142.4 595.9 2142.5 605.05 2138.1 605.05 M2137.8 586.6 L2137.65 577.25 2142.2 577.25 2142.3 586.6 2137.8 586.6 M2137.5 567.75 L2137.4 558.2 2141.95 558.2 2142.05 567.75 2137.5 567.75 M2137.25 548.5 L2137.1 538.7 2141.7 538.7 2141.85 548.5 2137.25 548.5 M2136.95 528.75 L2136.8 518.75 2141.45 518.75 2141.6 528.75 2136.95 528.75"/>
    <path stroke="none" fill="#19A389" d="M2131.1 461.35 L2133.65 455.95 2191.4 455.95 2193.95 461.35 2184.25 461.35 2184.2 466.75 2169.75 466.75 2169.75 461.35 2155.25 461.35 2155.3 466.75 2140.85 466.75 2140.75 461.35 2131.1 461.35"/>
    <path stroke="none" fill="#ADD0D7" d="M2198.65 466.75 L2198.35 482.65 2126.7 482.65 2126.35 466.75 2140.85 466.75 2155.3 466.75 2169.75 466.75 2184.2 466.75 2198.65 466.75 M2188.4 508.6 L2188.25 518.75 2183.55 518.75 2183.45 528.75 2188.1 528.75 2187.95 538.7 2183.3 538.7 2183.2 548.5 2187.8 548.5 2187.65 558.2 2183.1 558.2 2182.95 567.75 2187.5 567.75 2187.35 577.95 2182.85 577.95 2182.75 586.6 2187.2 586.6 2187.1 595.9 2182.6 595.9 2182.5 605.05 2142.5 605.05 2142.4 595.9 2137.95 595.9 2137.8 586.6 2142.3 586.6 2142.2 577.25 2137.65 577.25 2137.5 567.75 2142.05 567.75 2141.95 558.2 2137.4 558.2 2137.25 548.5 2141.85 548.5 2141.7 538.7 2137.1 538.7 2136.95 528.75 2141.6 528.75 2141.45 518.75 2136.8 518.75 2136.65 508.6 2141.35 508.6 2141.2 498.3 2183.8 498.3 2183.7 508.6 2188.4 508.6 M2169.4 548.5 L2169.5 523.75 2162.5 516.2 2155.5 523.75 2155.6 548.5 2155.65 553.35 2169.4 553.35 2169.4 548.5"/>
    <path stroke="none" fill="#1EBC9E" d="M2133.65 455.95 L2160 400 2165 400 2191.4 455.95 2133.65 455.95"/>
    <path stroke="none" fill="#6E7C80" d="M2155.6 548.5 L2155.5 523.75 2162.5 516.2 2169.5 523.75 2169.4 548.5 2155.6 548.5"/>
  </g>
</svg>