<svg xmlns="http://www.w3.org/2000/svg" xmlns:xlink="http://www.w3.org/1999/xlink">
  <defs>
    <linearGradient gradientUnits="userSpaceOnUse" x1="-819.2" x2="819.2" spreadMethod="pad" gradientTransform="matrix(0 -0.0054931640625 0.003662109375 0 276 323.5)" id="gradient0">
      <stop offset="0" stop-color="#FFFFFF"/>
      <stop offset="1" stop-color="#E2E2E2"/>
    </linearGradient>
    <linearGradient gradientUnits="userSpaceOnUse" x1="-819.2" x2="819.2" spreadMethod="pad" gradientTransform="matrix(0 -0.0048828125 0.003662109375 0 116 324)" id="gradient1">
      <stop offset="0" stop-color="#FFFFFF"/>
      <stop offset="1" stop-color="#E2E2E2"/>
    </linearGradient>
    <linearGradient gradientUnits="userSpaceOnUse" x1="-819.2" x2="819.2" spreadMethod="pad" gradientTransform="matrix(0 -0.003662109375 0.003662109375 0 116 135)" id="gradient2">
      <stop offset="0" stop-color="#FFFFFF"/>
      <stop offset="1" stop-color="#E2E2E2"/>
    </linearGradient>
    <linearGradient gradientUnits="userSpaceOnUse" x1="-819.2" x2="819.2" spreadMethod="pad" gradientTransform="matrix(0 -0.003662109375 0.003662109375 0 156 95)" id="gradient3">
      <stop offset="0" stop-color="#FFFFFF"/>
      <stop offset="1" stop-color="#E2E2E2"/>
    </linearGradient>
    <linearGradient gradientUnits="userSpaceOnUse" x1="-819.2" x2="819.2" spreadMethod="pad" gradientTransform="matrix(0 -0.003662109375 0.003662109375 0 236 135)" id="gradient4">
      <stop offset="0" stop-color="#FFFFFF"/>
      <stop offset="1" stop-color="#E2E2E2"/>
    </linearGradient>
    <linearGradient gradientUnits="userSpaceOnUse" x1="-819.2" x2="819.2" spreadMethod="pad" gradientTransform="matrix(0 -0.003662109375 0.003662109375 0 156 55)" id="gradient5">
      <stop offset="0" stop-color="#FFFFFF"/>
      <stop offset="1" stop-color="#E2E2E2"/>
    </linearGradient>
    <linearGradient gradientUnits="userSpaceOnUse" x1="-819.2" x2="819.2" spreadMethod="pad" gradientTransform="matrix(0 -0.003662109375 0.003662109375 0 116 55)" id="gradient6">
      <stop offset="0" stop-color="#FFFFFF"/>
      <stop offset="1" stop-color="#E2E2E2"/>
    </linearGradient>
    <linearGradient gradientUnits="userSpaceOnUse" x1="-819.2" x2="819.2" spreadMethod="pad" gradientTransform="matrix(0 -0.003662109375 0.003662109375 0 76 55)" id="gradient7">
      <stop offset="0" stop-color="#FFFFFF"/>
      <stop offset="1" stop-color="#E2E2E2"/>
    </linearGradient>
    <linearGradient gradientUnits="userSpaceOnUse" x1="-819.2" x2="819.2" spreadMethod="pad" gradientTransform="matrix(0 -0.003662109375 0.003662109375 0 36 55)" id="gradient8">
      <stop offset="0" stop-color="#FFFFFF"/>
      <stop offset="1" stop-color="#E2E2E2"/>
    </linearGradient>
    <linearGradient gradientUnits="userSpaceOnUse" x1="-819.2" x2="819.2" spreadMethod="pad" gradientTransform="matrix(0 -0.003662109375 0.003662109375 0 196 55)" id="gradient9">
      <stop offset="0" stop-color="#FFFFFF"/>
      <stop offset="1" stop-color="#E2E2E2"/>
    </linearGradient>
    <linearGradient gradientUnits="userSpaceOnUse" x1="-819.2" x2="819.2" spreadMethod="pad" gradientTransform="matrix(0 -0.003662109375 0.003662109375 0 236 55)" id="gradient10">
      <stop offset="0" stop-color="#FFFFFF"/>
      <stop offset="1" stop-color="#E2E2E2"/>
    </linearGradient>
    <linearGradient gradientUnits="userSpaceOnUse" x1="-819.2" x2="819.2" spreadMethod="pad" gradientTransform="matrix(0 -0.003662109375 0.003662109375 0 356 55)" id="gradient11">
      <stop offset="0" stop-color="#FFFFFF"/>
      <stop offset="1" stop-color="#E2E2E2"/>
    </linearGradient>
    <linearGradient gradientUnits="userSpaceOnUse" x1="-819.2" x2="819.2" spreadMethod="pad" gradientTransform="matrix(0 -0.003662109375 0.003662109375 0 396 55)" id="gradient12">
      <stop offset="0" stop-color="#FFFFFF"/>
      <stop offset="1" stop-color="#E2E2E2"/>
    </linearGradient>
    <linearGradient gradientUnits="userSpaceOnUse" x1="-819.2" x2="819.2" spreadMethod="pad" gradientTransform="matrix(0 -0.003662109375 0.003662109375 0 316 55)" id="gradient13">
      <stop offset="0" stop-color="#FFFFFF"/>
      <stop offset="1" stop-color="#E2E2E2"/>
    </linearGradient>
    <linearGradient gradientUnits="userSpaceOnUse" x1="-819.2" x2="819.2" spreadMethod="pad" gradientTransform="matrix(0 -0.003662109375 0.003662109375 0 196 95)" id="gradient14">
      <stop offset="0" stop-color="#FFFFFF"/>
      <stop offset="1" stop-color="#E2E2E2"/>
    </linearGradient>
    <linearGradient gradientUnits="userSpaceOnUse" x1="-819.2" x2="819.2" spreadMethod="pad" gradientTransform="matrix(0 -0.003662109375 0.003662109375 0 236 95)" id="gradient15">
      <stop offset="0" stop-color="#FFFFFF"/>
      <stop offset="1" stop-color="#E2E2E2"/>
    </linearGradient>
    <linearGradient gradientUnits="userSpaceOnUse" x1="-819.2" x2="819.2" spreadMethod="pad" gradientTransform="matrix(0 -0.003662109375 0.003662109375 0 276 55)" id="gradient16">
      <stop offset="0" stop-color="#FFFFFF"/>
      <stop offset="1" stop-color="#E2E2E2"/>
    </linearGradient>
    <linearGradient gradientUnits="userSpaceOnUse" x1="-819.2" x2="819.2" spreadMethod="pad" gradientTransform="matrix(0 -0.003662109375 0.003662109375 0 36 95)" id="gradient17">
      <stop offset="0" stop-color="#FFFFFF"/>
      <stop offset="1" stop-color="#E2E2E2"/>
    </linearGradient>
    <linearGradient gradientUnits="userSpaceOnUse" x1="-819.2" x2="819.2" spreadMethod="pad" gradientTransform="matrix(0 -0.003662109375 0.003662109375 0 76 95)" id="gradient18">
      <stop offset="0" stop-color="#FFFFFF"/>
      <stop offset="1" stop-color="#E2E2E2"/>
    </linearGradient>
    <linearGradient gradientUnits="userSpaceOnUse" x1="-819.2" x2="819.2" spreadMethod="pad" gradientTransform="matrix(0 -0.003662109375 0.003662109375 0 276 95)" id="gradient19">
      <stop offset="0" stop-color="#FFFFFF"/>
      <stop offset="1" stop-color="#E2E2E2"/>
    </linearGradient>
    <linearGradient gradientUnits="userSpaceOnUse" x1="-819.2" x2="819.2" spreadMethod="pad" gradientTransform="matrix(0 -0.003662109375 0.003662109375 0 316 95)" id="gradient20">
      <stop offset="0" stop-color="#FFFFFF"/>
      <stop offset="1" stop-color="#E2E2E2"/>
    </linearGradient>
    <linearGradient gradientUnits="userSpaceOnUse" x1="-819.2" x2="819.2" spreadMethod="pad" gradientTransform="matrix(0 -0.003662109375 0.003662109375 0 356 95)" id="gradient21">
      <stop offset="0" stop-color="#FFFFFF"/>
      <stop offset="1" stop-color="#E2E2E2"/>
    </linearGradient>
    <linearGradient gradientUnits="userSpaceOnUse" x1="-819.2" x2="819.2" spreadMethod="pad" gradientTransform="matrix(0 -0.003662109375 0.003662109375 0 396 95)" id="gradient22">
      <stop offset="0" stop-color="#FFFFFF"/>
      <stop offset="1" stop-color="#E2E2E2"/>
    </linearGradient>
    <linearGradient gradientUnits="userSpaceOnUse" x1="-819.2" x2="819.2" spreadMethod="pad" gradientTransform="matrix(0 -0.003662109375 0.003662109375 0 36 135)" id="gradient23">
      <stop offset="0" stop-color="#FFFFFF"/>
      <stop offset="1" stop-color="#E2E2E2"/>
    </linearGradient>
    <linearGradient gradientUnits="userSpaceOnUse" x1="-819.2" x2="819.2" spreadMethod="pad" gradientTransform="matrix(0 -0.003662109375 0.003662109375 0 76 135)" id="gradient24">
      <stop offset="0" stop-color="#FFFFFF"/>
      <stop offset="1" stop-color="#E2E2E2"/>
    </linearGradient>
    <linearGradient gradientUnits="userSpaceOnUse" x1="-819.2" x2="819.2" spreadMethod="pad" gradientTransform="matrix(0 -0.003662109375 0.003662109375 0 116 95)" id="gradient25">
      <stop offset="0" stop-color="#FFFFFF"/>
      <stop offset="1" stop-color="#E2E2E2"/>
    </linearGradient>
    <linearGradient gradientUnits="userSpaceOnUse" x1="-819.2" x2="819.2" spreadMethod="pad" gradientTransform="matrix(0 -0.009765625 0.009765625 0 108 77)" id="gradient26">
      <stop offset="0" stop-color="#312D2D" stop-opacity="0"/>
      <stop offset="1" stop-color="#312D2D"/>
    </linearGradient>
    <linearGradient gradientUnits="userSpaceOnUse" x1="-819.2" x2="819.2" spreadMethod="pad" gradientTransform="matrix(0 -0.009765625 0.009765625 0 112 75)" id="gradient27">
      <stop offset="0" stop-color="#312D2D" stop-opacity="0"/>
      <stop offset="1" stop-color="#312D2D"/>
    </linearGradient>
    <linearGradient gradientUnits="userSpaceOnUse" x1="-819.2" x2="819.2" spreadMethod="pad" gradientTransform="matrix(0 -0.009765625 0.009765625 0 124 77)" id="gradient28">
      <stop offset="0" stop-color="#312D2D" stop-opacity="0"/>
      <stop offset="1" stop-color="#312D2D"/>
    </linearGradient>
    <linearGradient gradientUnits="userSpaceOnUse" x1="-819.2" x2="819.2" spreadMethod="pad" gradientTransform="matrix(0 -0.009765625 0.009765625 0 116 77)" id="gradient29">
      <stop offset="0" stop-color="#312D2D" stop-opacity="0"/>
      <stop offset="1" stop-color="#312D2D"/>
    </linearGradient>
    <linearGradient gradientUnits="userSpaceOnUse" x1="-819.2" x2="819.2" spreadMethod="pad" gradientTransform="matrix(0 -0.009765625 0.009765625 0 120 79)" id="gradient30">
      <stop offset="0" stop-color="#312D2D" stop-opacity="0"/>
      <stop offset="1" stop-color="#312D2D"/>
    </linearGradient>
    <linearGradient gradientUnits="userSpaceOnUse" x1="-819.2" x2="819.2" spreadMethod="pad" gradientTransform="matrix(0 -0.003662109375 0.003662109375 0 156 135)" id="gradient31">
      <stop offset="0" stop-color="#FFFFFF"/>
      <stop offset="1" stop-color="#E2E2E2"/>
    </linearGradient>
    <linearGradient gradientUnits="userSpaceOnUse" x1="-819.2" x2="819.2" spreadMethod="pad" gradientTransform="matrix(0 -0.003662109375 0.003662109375 0 196 135)" id="gradient32">
      <stop offset="0" stop-color="#FFFFFF"/>
      <stop offset="1" stop-color="#E2E2E2"/>
    </linearGradient>
    <linearGradient gradientUnits="userSpaceOnUse" x1="-819.2" x2="819.2" spreadMethod="pad" gradientTransform="matrix(0 -0.003662109375 0.003662109375 0 316 135)" id="gradient33">
      <stop offset="0" stop-color="#FFFFFF"/>
      <stop offset="1" stop-color="#E2E2E2"/>
    </linearGradient>
    <linearGradient gradientUnits="userSpaceOnUse" x1="-819.2" x2="819.2" spreadMethod="pad" gradientTransform="matrix(0 -0.003662109375 0.003662109375 0 356 135)" id="gradient34">
      <stop offset="0" stop-color="#FFFFFF"/>
      <stop offset="1" stop-color="#E2E2E2"/>
    </linearGradient>
    <linearGradient gradientUnits="userSpaceOnUse" x1="-819.2" x2="819.2" spreadMethod="pad" gradientTransform="matrix(0 -0.003662109375 0.003662109375 0 396 135)" id="gradient35">
      <stop offset="0" stop-color="#FFFFFF"/>
      <stop offset="1" stop-color="#E2E2E2"/>
    </linearGradient>
    <linearGradient gradientUnits="userSpaceOnUse" x1="-819.2" x2="819.2" spreadMethod="pad" gradientTransform="matrix(0 -0.003662109375 0.003662109375 0 276 135)" id="gradient36">
      <stop offset="0" stop-color="#FFFFFF"/>
      <stop offset="1" stop-color="#E2E2E2"/>
    </linearGradient>
    <linearGradient gradientUnits="userSpaceOnUse" x1="-819.2" x2="819.2" spreadMethod="pad" gradientTransform="matrix(0 -0.003662109375 0.003662109375 0 36 325)" id="gradient37">
      <stop offset="0" stop-color="#FFFFFF"/>
      <stop offset="1" stop-color="#E2E2E2"/>
    </linearGradient>
    <linearGradient gradientUnits="userSpaceOnUse" x1="-819.2" x2="819.2" spreadMethod="pad" gradientTransform="matrix(0 -0.0048828125 0.003662109375 0 156 322)" id="gradient38">
      <stop offset="0" stop-color="#FFFFFF"/>
      <stop offset="1" stop-color="#E2E2E2"/>
    </linearGradient>
  </defs>
  <g>
    <path stroke="none" fill="url(#gradient0)" d="M282 319 L276 328 270 319 282 319"/>
    <path stroke="none" fill="url(#gradient1)" d="M122 320 L116 328 110 320 122 320"/>
    <path stroke="none" fill="#FFFFFF" d="M104 100 L128 100 Q132 100 132 104 L132 128 Q132 132 128 132 L104 132 Q100 132 100 128 L100 104 Q100 100 104 100"/>
    <path stroke="none" fill="url(#gradient2)" d="M122 132 L116 138 110 132 122 132"/>
    <path stroke="none" fill="#FFFFFF" d="M144 60 L168 60 Q172 60 172 64 L172 88 Q172 92 168 92 L144 92 Q140 92 140 88 L140 64 Q140 60 144 60"/>
    <path stroke="none" fill="url(#gradient3)" d="M162 92 L156 98 150 92 162 92"/>
    <path stroke="none" fill="#FFFFFF" d="M224 100 L248 100 Q252 100 252 104 L252 128 Q252 132 248 132 L224 132 Q220 132 220 128 L220 104 Q220 100 224 100"/>
    <path stroke="none" fill="url(#gradient4)" d="M242 132 L236 138 230 132 242 132"/>
    <path stroke="none" fill="#FFFFFF" d="M24 20 L48 20 Q52 20 52 24 L52 48 Q52 52 48 52 L24 52 Q20 52 20 48 L20 24 Q20 20 24 20"/>
    <path stroke="none" fill="#FFFFFF" d="M64 20 L88 20 Q92 20 92 24 L92 48 Q92 52 88 52 L64 52 Q60 52 60 48 L60 24 Q60 20 64 20"/>
    <path stroke="none" fill="#312D2D" d="M71 37 Q71 38.25 70.1 39.1 69.25 40 68 40 66.75 40 65.85 39.1 65 38.25 65 37 65 35.8 65.85 34.9 66.75 34 68 34 69.25 34 70.1 34.9 71 35.8 71 37"/>
    <path stroke="none" fill="#FFFFFF" d="M104 20 L128 20 Q132 20 132 24 L132 48 Q132 52 128 52 L104 52 Q100 52 100 48 L100 24 Q100 20 104 20"/>
    <path stroke="none" fill="#312D2D" d="M119 37 Q119 38.25 118.1 39.1 117.25 40 116 40 114.75 40 113.85 39.1 113 38.25 113 37 113 35.8 113.85 34.9 114.75 34 116 34 117.25 34 118.1 34.9 119 35.8 119 37 M111 37 Q111 38.25 110.1 39.1 109.25 40 108 40 106.75 40 105.85 39.1 105 38.25 105 37 105 35.8 105.85 34.9 106.75 34 108 34 109.25 34 110.1 34.9 111 35.8 111 37"/>
    <path stroke="none" fill="#FFFFFF" d="M144 20 L168 20 Q172 20 172 24 L172 48 Q172 52 168 52 L144 52 Q140 52 140 48 L140 24 Q140 20 144 20"/>
    <path stroke="none" fill="url(#gradient5)" d="M162 52 L156 58 150 52 162 52"/>
    <path stroke="none" fill="#312D2D" d="M159 37 Q159 38.25 158.1 39.1 157.25 40 156 40 154.75 40 153.85 39.1 153 38.25 153 37 153 35.8 153.85 34.9 154.75 34 156 34 157.25 34 158.1 34.9 159 35.8 159 37 M167 37 Q167 38.25 166.1 39.1 165.25 40 164 40 162.75 40 161.85 39.1 161 38.25 161 37 161 35.8 161.85 34.9 162.75 34 164 34 165.25 34 166.1 34.9 167 35.8 167 37 M151 37 Q151 38.25 150.1 39.1 149.25 40 148 40 146.75 40 145.85 39.1 145 38.25 145 37 145 35.8 145.85 34.9 146.75 34 148 34 149.25 34 150.1 34.9 151 35.8 151 37"/>
    <path stroke="none" fill="#FFFFFF" d="M184 20 L208 20 Q212 20 212 24 L212 48 Q212 52 208 52 L184 52 Q180 52 180 48 L180 24 Q180 20 184 20"/>
    <path stroke="none" fill="#FFFFFF" d="M224 20 L248 20 Q252 20 252 24 L252 48 Q252 52 248 52 L224 52 Q220 52 220 48 L220 24 Q220 20 224 20"/>
    <path stroke="none" fill="#FF0054" d="M236.5 30.55 Q237.9 29 240 29 242.05 29 243.55 30.55 L243.6 30.55 Q245 32.1 245 34.15 245 35.9 244 37.2 L243.55 37.75 236.7 44.7 236 45 Q235.6 45 235.3 44.7 L228.45 37.75 228 37.2 Q227 35.9 227 34.15 227 32.1 228.45 30.55 229.95 29 232 29 234.1 29 235.5 30.55 L236 31.15 236.5 30.55"/>
    <path stroke="none" fill="url(#gradient6)" d="M122 52 L116 58 110 52 122 52"/>
    <path stroke="none" fill="url(#gradient7)" d="M82 52 L76 58 70 52 82 52"/>
    <path stroke="none" fill="url(#gradient8)" d="M42 52 L36 58 30 52 42 52"/>
    <path stroke="none" fill="url(#gradient9)" d="M202 52 L196 58 190 52 202 52"/>
    <path stroke="none" fill="url(#gradient10)" d="M242 52 L236 58 230 52 242 52"/>
    <path stroke="none" fill="#FF0054" d="M201.3 29.75 Q203.05 28.6 205.1 29.15 207.1 29.7 208.15 31.6 L208.2 31.6 Q209.15 33.45 208.6 35.4 208.15 37.1 206.8 38.1 L206.25 38.55 197.8 43.45 197.1 43.6 200.8 37.45 198.3 33.25 201.3 29.75 M194.9 43.55 L194.15 43.45 185.75 38.5 185.15 38.1 Q183.85 37.1 183.4 35.4 182.85 33.45 183.85 31.55 184.9 29.7 186.85 29.15 188.9 28.6 190.7 29.75 L191.35 30.15 190.15 35.1 194.95 37.6 194.9 43.55"/>
    <path stroke="none" fill="#FFFFFF" d="M344 20 L368 20 Q372 20 372 24 L372 48 Q372 52 368 52 L344 52 Q340 52 340 48 L340 24 Q340 20 344 20"/>
    <path stroke="none" fill="url(#gradient11)" d="M362 52 L356 58 350 52 362 52"/>
    <path stroke="none" fill="#FF3300" d="M352.95 37 L352.95 29 Q352.95 28.15 353.55 27.6 354.1 27 354.95 27 L357 27 Q357.85 27 358.45 27.6 359 28.15 359 29 L359 37 Q359 37.85 358.45 38.45 357.85 39 357 39 L354.95 39 Q354.1 39 353.55 38.45 352.95 37.85 352.95 37 M359 44 Q359 45.25 358.1 46.1 357.25 47 356 47 354.75 47 353.85 46.1 353 45.25 353 44 353 42.8 353.85 41.9 354.75 41 356 41 357.25 41 358.1 41.9 359 42.8 359 44"/>
    <path stroke="none" fill="#FFFFFF" d="M384 20 L408 20 Q412 20 412 24 L412 48 Q412 52 408 52 L384 52 Q380 52 380 48 L380 24 Q380 20 384 20"/>
    <path stroke="none" fill="url(#gradient12)" d="M402 52 L396 58 390 52 402 52"/>
    <path stroke="none" fill="#3498DB" d="M396.15 26 Q398.8 26.05 400.3 27.25 L400.35 27.3 Q401.95 28.6 402 31.05 L402 31.1 Q401.95 32.75 401.35 33.8 L399.9 35.55 398.7 36.85 Q398.35 37.4 398.35 38.15 L398.05 38.8 397.45 39 394.75 39 394.15 38.75 Q393.85 38.45 393.85 38.15 393.85 36.5 394.45 35.5 L394.45 35.45 395.6 33.9 395.6 33.85 396.6 32.7 396.9 31.65 396.65 31.05 395.8 30.8 Q395.25 30.8 394.9 31.15 394.6 31.55 394.55 32.3 L394.25 32.9 393.65 33.1 390.85 33.1 390.25 32.85 390 32.25 Q390.05 29.25 391.75 27.7 393.3 26.05 396.1 26 L396.15 26 M396 41 Q397.3 41 398.1 41.85 399 42.65 399 44 399 45.35 398.1 46.2 397.3 47 396 47 394.6 47 393.85 46.2 393 45.35 393 44 393 42.65 393.85 41.85 394.6 41 396 41"/>
    <path stroke="none" fill="#FFFFFF" d="M304 20 L328 20 Q332 20 332 24 L332 48 Q332 52 328 52 L304 52 Q300 52 300 48 L300 24 Q300 20 304 20"/>
    <path stroke="none" fill="url(#gradient13)" d="M322 52 L316 58 310 52 322 52"/>
    <path stroke="none" fill="#312D2D" d="M316.95 37 L316.95 28 Q316.95 27.15 317.55 26.6 318.1 26 318.95 26 L321 26 Q321.85 26 322.45 26.6 323 27.15 323 28 L323 37 Q323 37.85 322.45 38.45 321.85 39 321 39 L318.95 39 Q318.1 39 317.55 38.45 316.95 37.85 316.95 37 M308.95 37 L308.95 28 Q308.95 27.15 309.55 26.6 310.1 26 310.95 26 L313 26 Q313.85 26 314.45 26.6 315 27.15 315 28 L315 37 Q315 37.85 314.45 38.45 313.85 39 313 39 L310.95 39 Q310.1 39 309.55 38.45 308.95 37.85 308.95 37 M323 44 Q323 45.25 322.1 46.1 321.25 47 320 47 318.75 47 317.85 46.1 317 45.25 317 44 317 42.8 317.85 41.9 318.75 41 320 41 321.25 41 322.1 41.9 323 42.8 323 44 M315 44 Q315 45.25 314.1 46.1 313.25 47 312 47 310.75 47 309.85 46.1 309 45.25 309 44 309 42.8 309.85 41.9 310.75 41 312 41 313.25 41 314.1 41.9 315 42.8 315 44"/>
    <path stroke="none" fill="#FF3300" d="M227.3 111.3 L231.3 107.3 Q231.6 107 232 107 232.4 107 232.7 107.3 L236 110.6 239.3 107.3 Q239.6 107 240 107 240.4 107 240.7 107.3 L244.7 111.3 245 112 244.7 112.7 241.4 116 244.7 119.3 245 120 244.7 120.7 240.7 124.7 Q240.4 125 240 125 L239.3 124.7 236 121.4 232.7 124.7 232 125 Q231.6 125 231.3 124.7 L227.3 120.7 Q227 120.4 227 120 227 119.6 227.3 119.3 L230.6 116 227.3 112.7 Q227 112.4 227 112 227 111.6 227.3 111.3"/>
    <path stroke="none" fill="#FFFFFF" d="M184 60 L208 60 Q212 60 212 64 L212 88 Q212 92 208 92 L184 92 Q180 92 180 88 L180 64 Q180 60 184 60"/>
    <path stroke="none" fill="url(#gradient14)" d="M202 92 L196 98 190 92 202 92"/>
    <path stroke="none" fill="#FFFFFF" d="M224 60 L248 60 Q252 60 252 64 L252 88 Q252 92 248 92 L224 92 Q220 92 220 88 L220 64 Q220 60 224 60"/>
    <path stroke="none" fill="url(#gradient15)" d="M242 92 L236 98 230 92 242 92"/>
    <path stroke="none" fill="#312D2D" d="M229.55 72.6 L229.6 72.55 227 71.7 227.7 70 235 72.25 234.25 74 233 73.6 233 74 Q233 74.9 232.4 75.5 231.85 76 231 76 230.05 76 229.55 75.5 229 74.9 229 74 229 73.1 229.55 72.6 M239 74 L239.05 73.6 237.75 74 237 72.25 244.3 70 245 71.7 242.35 72.55 242.4 72.6 Q243 73.1 243 74 243 74.9 242.4 75.5 241.85 76 241 76 240.05 76 239.55 75.5 239 74.9 239 74 M240.35 78.8 Q241.4 79.8 241.9 81 242.1 81.6 241.8 82.15 L240.85 82.9 239.6 82.85 Q238.95 82.55 238.8 81.95 L238 80.9 237.95 80.85 Q237.15 80 235.95 80 234.75 80 233.85 80.85 L233.85 80.9 233.15 82.05 232.25 82.85 231.05 82.9 230.15 82.1 Q229.85 81.55 230.1 80.95 230.6 79.85 231.4 78.9 L231.5 78.8 Q233.4 77 235.95 77 238.55 77 240.45 78.85 L240.35 78.8"/>
    <path stroke="none" fill="#312D2D" d="M191 72 Q191.85 72 192.4 72.6 193 73.1 193 74 193 74.9 192.4 75.5 191.85 76 191 76 190.05 76 189.55 75.5 189 74.9 189 74 189 73.1 189.55 72.6 190.05 72 191 72 M200.35 78.8 Q201.4 79.8 201.9 81 202.1 81.6 201.8 82.15 L200.85 82.9 199.6 82.85 Q198.95 82.55 198.8 81.95 L198 80.9 197.95 80.85 Q197.15 80 195.95 80 194.75 80 193.85 80.85 L193.85 80.9 193.15 82.05 192.25 82.85 191.05 82.9 190.15 82.1 Q189.85 81.55 190.1 80.95 190.6 79.85 191.4 78.9 L191.5 78.8 Q193.4 77 195.95 77 198.55 77 200.45 78.85 L200.35 78.8 M201 72 Q201.85 72 202.4 72.6 203 73.1 203 74 203 74.9 202.4 75.5 201.85 76 201 76 200.05 76 199.55 75.5 199 74.9 199 74 199 73.1 199.55 72.6 200.05 72 201 72"/>
    <path stroke="none" fill="#312D2D" d="M160.35 81.2 L160.45 81.15 Q158.55 83 155.95 83 153.4 83 151.5 81.2 L151.4 81.1 Q150.6 80.15 150.1 79.05 149.85 78.45 150.15 77.9 150.4 77.35 151.05 77.1 L152.25 77.15 153.15 77.95 153.85 79.1 153.85 79.15 Q154.75 80 155.95 80 157.15 80 157.95 79.15 L158 79.1 158.8 78.05 Q158.95 77.45 159.6 77.15 L160.85 77.1 Q161.45 77.25 161.8 77.85 162.1 78.4 161.9 79 161.4 80.2 160.35 81.2 M151 72 Q151.85 72 152.4 72.6 153 73.1 153 74 153 74.9 152.4 75.5 151.85 76 151 76 150.05 76 149.55 75.5 149 74.9 149 74 149 73.1 149.55 72.6 150.05 72 151 72 M161 72 Q161.85 72 162.4 72.6 163 73.1 163 74 163 74.9 162.4 75.5 161.85 76 161 76 160.05 76 159.55 75.5 159 74.9 159 74 159 73.1 159.55 72.6 160.05 72 161 72"/>
    <path stroke="none" fill="#FFFFFF" d="M264 20 L288 20 Q292 20 292 24 L292 48 Q292 52 288 52 L264 52 Q260 52 260 48 L260 24 Q260 20 264 20"/>
    <path stroke="none" fill="#FF0054" d="M270.75 30.8 Q271.45 30 272.5 30 273.55 30 274.3 30.8 275 31.55 275 32.6 275 33.45 274.5 34.1 L274.3 34.4 270.85 37.85 270.5 38 270.15 37.85 266.75 34.4 266.5 34.1 Q266 33.45 266 32.6 266 31.55 266.75 30.8 267.5 30 268.5 30 269.55 30 270.25 30.8 L270.5 31.1 270.75 30.8 M281.75 36.8 Q282.45 36 283.5 36 284.55 36 285.3 36.8 286 37.55 286 38.6 286 39.45 285.5 40.1 L285.3 40.4 281.85 43.85 281.5 44 281.15 43.85 277.75 40.4 277.5 40.1 Q277 39.45 277 38.6 277 37.55 277.75 36.8 278.5 36 279.5 36 280.55 36 281.25 36.8 L281.5 37.1 281.75 36.8"/>
    <path stroke="none" fill="url(#gradient16)" d="M282 52 L276 58 270 52 282 52"/>
    <path stroke="none" fill="#FFFFFF" d="M24 60 L48 60 Q52 60 52 64 L52 88 Q52 92 48 92 L24 92 Q20 92 20 88 L20 64 Q20 60 24 60"/>
    <path stroke="none" fill="url(#gradient17)" d="M42 92 L36 98 30 92 42 92"/>
    <path stroke="none" fill="#FFFFFF" d="M64 60 L88 60 Q92 60 92 64 L92 88 Q92 92 88 92 L64 92 Q60 92 60 88 L60 64 Q60 60 64 60"/>
    <path stroke="none" fill="url(#gradient18)" d="M82 92 L76 98 70 92 82 92"/>
    <path stroke="none" fill="#312D2D" d="M42.9 69 L42.9 71.1 42.7 71.75 36.4 79.35 42 79.35 Q42.4 79.35 42.7 79.65 L43 80.35 43 83 42.7 83.7 42 84 30 84 29.3 83.7 Q29 83.4 29 83 L29 80.9 29.25 80.25 35.6 72.65 30.25 72.65 29.55 72.35 Q29.25 72.05 29.25 71.65 L29.25 69 Q29.25 68.6 29.55 68.3 29.85 68 30.25 68 L41.9 68 Q42.3 68 42.6 68.3 L42.9 69"/>
    <path stroke="none" fill="#312D2D" d="M86.9 69 L86.9 71.1 86.7 71.75 80.4 79.35 86 79.35 Q86.4 79.35 86.7 79.65 L87 80.35 87 83 86.7 83.7 86 84 74 84 Q73.6 84 73.3 83.7 73 83.4 73 83 L73 80.9 73.25 80.25 79.6 72.65 74.25 72.65 73.55 72.35 73.25 71.65 73.25 69 Q73.25 68.6 73.55 68.3 73.85 68 74.25 68 L85.9 68 Q86.3 68 86.6 68.3 L86.9 69 M65 81 L65 79 67 75 65 75 65 73 71 73 71 75 69 79 71 79 71 81 65 81"/>
    <path stroke="none" fill="#FFFFFF" d="M264 60 L288 60 Q292 60 292 64 L292 88 Q292 92 288 92 L264 92 Q260 92 260 88 L260 64 Q260 60 264 60"/>
    <path stroke="none" fill="url(#gradient19)" d="M282 92 L276 98 270 92 282 92"/>
    <path stroke="none" fill="#FF9900" d="M264.85 79.15 Q263.9 78.2 263.9 76.9 263.85 75.65 264.75 74.75 265.6 73.9 266.9 73.9 268.15 73.95 269.1 74.9 L269.3 75.1 Q271.55 77.45 272.7 79.7 274.1 82.4 273.25 83.25 272.35 84.15 269.7 82.7 267.45 81.55 265.05 79.35 L264.85 79.15 M273 71.2 Q273 69.85 273.9 68.95 274.75 68 276 68 277.25 68 278.15 68.95 279 69.85 279 71.2 L279 71.45 Q278.9 74.7 278.15 77.15 277.25 80 276 80 274.75 80 273.9 77.15 273.1 74.7 273 71.45 L273 71.2 M281.8 75.05 Q282.5 73.9 283.75 73.55 284.95 73.15 286 73.8 287.1 74.4 287.45 75.65 287.7 76.9 287 78.05 L286.9 78.3 Q285.15 81.05 283.35 82.75 281.1 84.8 280 84.2 278.95 83.55 279.65 80.65 280.15 78.15 281.7 75.3 L281.8 75.05"/>
    <path stroke="none" fill="#FFFFFF" d="M304 60 L328 60 Q332 60 332 64 L332 88 Q332 92 328 92 L304 92 Q300 92 300 88 L300 64 Q300 60 304 60"/>
    <path stroke="none" fill="url(#gradient20)" d="M322 92 L316 98 310 92 322 92"/>
    <path stroke="none" fill="#FF9900" d="M316.9 68.5 L319.15 72 323.25 73 Q323.6 73.05 323.8 73.35 L324 74 323.75 74.6 321.05 77.75 321.35 81.95 321.2 82.6 320.65 82.95 320 82.95 316.05 81.35 312.05 82.95 311.35 82.95 310.85 82.55 Q310.6 82.25 310.65 81.95 L311 77.75 308.25 74.6 308 74 308.2 73.35 Q308.4 73.05 308.8 73 L312.9 72 315.2 68.45 Q315.4 68.15 315.75 68.05 L316.4 68.05 316.9 68.5"/>
    <path stroke="none" fill="#FFFFFF" d="M344 60 L368 60 Q372 60 372 64 L372 88 Q372 92 368 92 L344 92 Q340 92 340 88 L340 64 Q340 60 344 60"/>
    <path stroke="none" fill="url(#gradient21)" d="M362 92 L356 98 350 92 362 92"/>
    <path stroke="none" fill="#FF9900" d="M348.7 76.7 L348 77 347.3 76.7 Q347 76.4 347 76 347 75.6 347.3 75.3 L348.6 74 347.3 72.7 Q347 72.4 347 72 347 71.6 347.3 71.3 347.6 71 348 71 348.4 71 348.7 71.3 L350 72.6 351.3 71.3 Q351.6 71 352 71 352.4 71 352.7 71.3 L353 72 352.7 72.7 351.4 74 352.7 75.3 353 76 352.7 76.7 352 77 351.3 76.7 350 75.4 348.7 76.7 M353 82.5 Q353 83.15 352.55 83.55 352.15 84 351.5 84 350.9 84 350.45 83.55 350 83.15 350 82.5 350 81.9 350.45 81.45 350.9 81 351.5 81 352.15 81 352.55 81.45 353 81.9 353 82.5 M363 69.5 L362.55 70.55 361.5 71 Q360.9 71 360.45 70.55 360 70.15 360 69.5 360 68.9 360.45 68.45 360.9 68 361.5 68 362.15 68 362.55 68.45 363 68.9 363 69.5 M360.7 84.7 L360 85 Q359.6 85 359.3 84.7 359 84.4 359 84 359 83.6 359.3 83.3 L360.6 82 359.3 80.7 Q359 80.4 359 80 359 79.6 359.3 79.3 359.6 79 360 79 360.4 79 360.7 79.3 L362 80.6 363.3 79.3 Q363.6 79 364 79 364.4 79 364.7 79.3 L365 80 364.7 80.7 363.4 82 364.7 83.3 365 84 364.7 84.7 364 85 Q363.6 85 363.3 84.7 L362 83.4 360.7 84.7"/>
    <path stroke="none" fill="#FFFFFF" d="M384 60 L408 60 Q412 60 412 64 L412 88 Q412 92 408 92 L384 92 Q380 92 380 88 L380 64 Q380 60 384 60"/>
    <path stroke="none" fill="url(#gradient22)" d="M402 92 L396 98 390 92 402 92"/>
    <path stroke="none" fill="#312D2D" d="M397.2 78 Q398.35 77 400 77 L400 73 394 73 394 82 394 82.2 394 82.5 Q394 84.05 392.75 85.05 L392.75 85 Q391.65 86 390 86 388.35 86 387.2 85.05 L387.25 85.05 Q386 84 386 82.5 386 81.05 387.2 80 388.35 79 390 79 L390 68 Q390 67.6 390.3 67.3 390.6 67 391 67 L403 67 Q403.4 67 403.7 67.3 L404 68 404 80 404 80.2 404 80.5 Q404 82.05 402.75 83.05 L402.75 83 Q401.65 84 400 84 398.35 84 397.2 83.05 L397.25 83.05 Q396 82 396 80.5 396 79.05 397.2 78"/>
    <path stroke="none" fill="#FFFFFF" d="M24 100 L48 100 Q52 100 52 104 L52 128 Q52 132 48 132 L24 132 Q20 132 20 128 L20 104 Q20 100 24 100"/>
    <path stroke="none" fill="url(#gradient23)" d="M42 132 L36 138 30 132 42 132"/>
    <path stroke="none" fill="#3498DB" d="M32.45 123.6 Q31 122.15 31 120.3 L31.05 120.05 35.05 109.6 35.4 109.2 36 109 36.6 109.2 36.95 109.6 40.95 120.05 41 120.3 Q41 122.15 39.6 123.6 38.1 125 36 125 33.95 125.05 32.45 123.6"/>
    <path stroke="none" fill="#FFFFFF" d="M64 100 L88 100 Q92 100 92 104 L92 128 Q92 132 88 132 L64 132 Q60 132 60 128 L60 104 Q60 100 64 100"/>
    <path stroke="none" fill="url(#gradient24)" d="M82 132 L76 138 70 132 82 132"/>
    <path stroke="none" fill="#3498DB" d="M68.45 121.6 Q67 120.15 67 118.3 L67.05 118.05 71.05 107.6 71.4 107.2 72 107 72.6 107.2 72.95 107.6 76.95 118.05 77 118.3 Q77 120.15 75.6 121.6 74.1 123 72 123 69.95 123.05 68.45 121.6 M80.9 125.15 Q80 124.25 80 123.1 L80.05 122.95 82.45 116.4 82.65 116.15 83 116 Q83.2 116 83.35 116.15 L83.6 116.4 86 122.95 86 123.1 Q86 124.25 85.15 125.15 84.25 126 83 126 81.8 126.05 80.9 125.15"/>
    <path stroke="none" fill="#FFFFFF" d="M104 60 L128 60 Q132 60 132 64 L132 88 Q132 92 128 92 L104 92 Q100 92 100 88 L100 64 Q100 60 104 60"/>
    <path stroke="none" fill="url(#gradient25)" d="M122 92 L116 98 110 92 122 92"/>
    <path stroke="none" fill="url(#gradient26)" d="M107 69 L109 69 109 85 107 85 107 69"/>
    <path stroke="none" fill="url(#gradient27)" d="M111 67 L113 67 113 83 111 83 111 67"/>
    <path stroke="none" fill="url(#gradient28)" d="M123 69 L125 69 125 85 123 85 123 69"/>
    <path stroke="none" fill="url(#gradient29)" d="M115 69 L117 69 117 85 115 85 115 69"/>
    <path stroke="none" fill="url(#gradient30)" d="M119 71 L121 71 121 87 119 87 119 71"/>
    <path stroke="none" fill="#FF3300" d="M113.05 108 L114.65 108 114.9 108.1 115 108.35 115 114.6 114.9 114.9 114.65 115 108.4 115 108.1 114.9 108 114.6 108 113.05 108.1 112.75 108.4 112.65 111.35 112.65 112.7 111.35 112.7 108.35 112.8 108.1 113.05 108 M118.95 108 L119.2 108.1 119.3 108.35 119.3 111.35 120.65 112.65 123.6 112.65 123.9 112.75 124 113.05 124 114.6 123.9 114.9 123.6 115 117.35 115 117.1 114.9 117 114.6 117 108.35 117.1 108.1 117.35 108 118.95 108 M118.95 124 L117.35 124 117.1 123.9 117 123.65 117 117.4 117.1 117.1 117.35 117 123.6 117 123.9 117.1 124 117.4 124 118.95 123.9 119.25 123.6 119.35 120.65 119.35 119.3 120.65 119.3 123.65 119.2 123.9 118.95 124 M113.05 124 L112.8 123.9 112.7 123.65 112.7 120.65 111.35 119.35 108.4 119.35 108.1 119.25 108 118.95 108 117.4 108.1 117.1 108.4 117 114.65 117 114.9 117.1 115 117.4 115 123.65 114.9 123.9 114.65 124 113.05 124"/>
    <path stroke="none" fill="#FFFFFF" d="M144 100 L168 100 Q172 100 172 104 L172 128 Q172 132 168 132 L144 132 Q140 132 140 128 L140 104 Q140 100 144 100"/>
    <path stroke="none" fill="url(#gradient31)" d="M162 132 L156 138 150 132 162 132"/>
    <path stroke="none" fill="#FFFFFF" d="M184 100 L208 100 Q212 100 212 104 L212 128 Q212 132 208 132 L184 132 Q180 132 180 128 L180 104 Q180 100 184 100"/>
    <path stroke="none" fill="url(#gradient32)" d="M202 132 L196 138 190 132 202 132"/>
    <path stroke="none" fill="#FFFFFF" d="M304 100 L328 100 Q332 100 332 104 L332 128 Q332 132 328 132 L304 132 Q300 132 300 128 L300 104 Q300 100 304 100"/>
    <path stroke="none" fill="url(#gradient33)" d="M322 132 L316 138 310 132 322 132"/>
    <path stroke="none" fill="#FFFFFF" d="M344 100 L368 100 Q372 100 372 104 L372 128 Q372 132 368 132 L344 132 Q340 132 340 128 L340 104 Q340 100 344 100"/>
    <path stroke="none" fill="url(#gradient34)" d="M362 132 L356 138 350 132 362 132"/>
    <path stroke="none" fill="#FFFFFF" d="M384 100 L408 100 Q412 100 412 104 L412 128 Q412 132 408 132 L384 132 Q380 132 380 128 L380 104 Q380 100 384 100"/>
    <path stroke="none" fill="url(#gradient35)" d="M402 132 L396 138 390 132 402 132"/>
    <path stroke="none" fill="#FF9900" d="M155.65 113.15 L154.95 113.25 154.9 113.3 155.05 113.55 155.1 113.55 156.15 114 157.85 114.5 Q158.85 114.8 159.75 115.35 L159.7 115.3 Q160.75 115.8 161.4 116.8 162.05 117.7 162.05 119.2 162.05 120.75 161.35 121.75 160.65 122.8 159.5 123.45 L157.8 124.05 157.8 126.1 157.5 126.75 156.85 127 154.55 127 153.95 126.75 153.65 126.1 153.65 124 151.7 123.3 151.7 123.35 149.3 121.85 149.05 121.35 Q148.95 121 149.1 120.75 L150.3 118.25 150.75 117.9 Q150.95 117.7 151.3 117.75 L151.8 118.05 153.1 119 154.6 119.6 155.9 119.75 156.9 119.6 157 119.45 156.8 119.2 Q156.4 118.9 155.8 118.75 L154.05 118.2 152.2 117.5 Q151.15 117 150.55 116.05 149.8 115.1 149.8 113.6 149.8 111.6 151.15 110.35 152.1 109.35 153.65 109 L153.65 106.95 Q153.65 106.55 153.95 106.3 154.2 106 154.55 106 L156.85 106 Q157.25 106 157.5 106.3 L157.8 106.95 157.8 108.85 159.45 109.25 Q160.6 109.7 161.6 110.3 L161.95 110.85 161.9 111.5 160.7 114 160.4 114.35 159.95 114.5 159.45 114.4 158.05 113.7 158.1 113.7 156.75 113.3 155.65 113.15"/>
    <path stroke="none" fill="#FFFFFF" d="M264 100 L288 100 Q292 100 292 104 L292 128 Q292 132 288 132 L264 132 Q260 132 260 128 L260 104 Q260 100 264 100"/>
    <path stroke="none" fill="url(#gradient36)" d="M282 132 L276 138 270 132 282 132"/>
    <path stroke="none" fill="#3498DB" d="M285 116 Q285 119.7 282.4 122.35 279.75 125 276 125 272.3 125 269.65 122.35 267 119.7 267 116 267 112.25 269.65 109.65 272.3 107 276 107 279.75 107 282.4 109.65 285 112.25 285 116 M276 111 Q273.95 111 272.5 112.5 L272.45 112.5 Q271 113.95 271 116 271 118.05 272.5 119.55 273.95 121 276 121 278.1 121 279.55 119.55 L279.6 119.55 Q281 118.05 281 116 281 113.9 279.6 112.5 278.1 111 276 111"/>
    <path stroke="none" fill="#312D2D" d="M196.35 108.1 L197.85 108.5 197.8 108.5 Q198.6 108.7 199.25 109.15 L199.5 109.25 199.6 109.3 201 110.4 Q202.1 111.4 202.8 112.75 L202.8 112.7 Q203.55 114 203.8 115.5 204.1 116.95 203.95 118.45 L203.95 118.5 Q203.7 120.25 202.9 121.9 L202.9 121.85 Q202.15 123.45 200.95 124.65 L200.9 124.7 200.15 125.05 199.25 124.9 198.7 124.45 198.65 124.4 198.45 124 198.4 123.75 198.4 123.35 198.45 123.2 198.6 122.85 198.65 122.8 198.9 122.45 199.1 122.25 Q200.15 121.15 200.65 119.55 201.15 118.1 200.95 116.55 L200.7 115.35 200.7 115.3 200.2 114.15 199.05 112.7 197.65 111.65 197.7 111.65 196.05 111.1 194.35 111.05 Q193.35 111.2 192.5 111.7 191.65 112.2 191.05 112.95 L191.05 113 Q190.6 113.5 190.4 114.15 L190.35 114.2 Q190.1 114.7 190 115.4 L190.05 116.65 Q190.2 117.35 190.5 117.95 L190.5 117.9 191.4 119 Q191.9 119.45 192.5 119.7 L193.45 119.85 193.55 119.85 194.45 119.8 194.5 119.8 195.35 119.35 195.35 119.3 196.1 118.55 196.35 117.95 196.35 117.9 196.4 117.4 196.4 117.3 196.25 116.5 196.2 116.5 195.85 116 195.8 115.95 195.65 115.85 195.7 115.95 195.75 116.05 195.8 116.6 195.75 117.3 195.75 117.4 195.35 118 195.3 118.05 194.65 118.45 193.9 118.5 193.35 118.45 193.25 118.45 192.6 118.15 192.1 117.75 192.05 117.7 191.7 117.1 191.5 115.95 191.7 114.8 191.7 114.75 Q192 114.15 192.4 113.85 L192.45 113.8 193.3 113.05 193.35 113 Q193.9 112.7 194.55 112.65 L195.8 112.7 197 113.1 197 113.15 198 113.85 198.85 115.05 199.35 116.4 199.35 116.45 199.35 118 198.95 119.45 199 119.45 198.05 120.85 196.8 122.05 196.85 122.05 195.55 122.7 195.5 122.7 194.15 122.95 192.45 122.85 190.9 122.35 190.85 122.35 190.45 122.1 190.5 122.1 190.2 121.95 190.2 121.9 190.15 121.9 188.85 120.75 187.85 119.3 187.8 119.3 187.3 117.95 187 116.65 187 116.6 Q186.95 115.7 187.05 114.8 L187.05 114.75 187.55 113.1 187.55 113.05 Q188.2 111.55 189.3 110.4 190.5 109.25 192 108.65 L192.05 108.65 194.15 108.05 196.35 108.1"/>
    <path stroke="none" fill="#FF9900" d="M313 119.25 L311.75 118.25 Q310 116.5 310 114 310 111.5 311.75 109.75 313.5 108 316 108 318.5 108 320.25 109.75 322 111.5 322 114 322 116.5 320.25 118.25 L319 119.25 318 119.7 318 115 314 115 314 119.7 313 119.25 M315 119.95 L315 116 317 116 317 119.95 316 120 315 119.95"/>
    <path stroke="none" fill="#F7BD66" d="M315 119.95 L314 119.7 314 115 318 115 318 119.7 317 119.95 317 116 315 116 315 119.95"/>
    <path stroke="none" fill="#CCCCCC" d="M315 119.95 L316 120 317 119.95 318 119.7 319 119.25 319 122.05 318.7 122.7 318 123 314 123 313.3 122.7 Q313 122.45 313 122.05 L313 119.25 314 119.7 315 119.95"/>
    <path stroke="none" fill="#666666" d="M318 123 L318 124.1 317.7 124.7 317 125 315 125 314.3 124.7 Q314 124.45 314 124.1 L314 123 318 123"/>
    <path stroke="none" fill="#312D2D" d="M355.45 115 L353.15 115 353.15 112 350.35 112 350.35 115 348 115 348 107 350.35 107 350.35 110.15 353.15 110.15 353.15 107 355.45 107 355.45 115 M355.45 125 L353.15 125 353.15 122 350.35 122 350.35 125 348 125 348 117 350.35 117 350.35 120.15 353.15 120.15 353.15 117 355.45 117 355.45 125 M361.45 121.95 L360.5 119.35 359.5 121.95 361.45 121.95 M362.05 123.7 L358.9 123.7 358.4 125 356 125 359.35 117 361.75 117 365 125 362.55 125 362.05 123.7 M362.05 113.7 L358.9 113.7 358.4 115 356 115 359.35 107 361.75 107 365 115 362.55 115 362.05 113.7 M361.45 111.95 L360.5 109.35 359.5 111.95 361.45 111.95"/>
    <path stroke="none" fill="#666666" d="M401.7 122.6 Q399.3 125 396 125 392.7 125 390.4 122.6 L389.8 121.95 389 122 Q386.95 122 385.5 120.5 384 119.05 384 117 384 114.9 385.5 113.4 386.95 112 389 112 L389.75 112.05 390.4 111.3 Q392.7 109 396 109 399.3 109 401.7 111.3 L402.35 112.05 403 112 Q405.05 112 406.55 113.4 408 114.9 408 117 408 119.05 406.55 120.5 405.05 122 403 122 L402.3 121.95 401.7 122.6"/>
    <path stroke="none" fill="#9EC2E9" d="M66 292 Q62 292 62 296 L62 316 Q62 320 66 320 L70 320 76 326 82 320 86 320 Q90 320 90 316 L90 296 Q90 292 86 292 L66 292 M86 290 Q92 290 92 296 L92 316 Q92 322 86 322 L82.85 322 77.45 327.45 Q76.85 328 76 328 75.15 328 74.6 327.45 L69.15 322 66 322 Q60 322 60 316 L60 296 Q60 290 66 290 L86 290"/>
    <path stroke="none" fill="#FFFFFF" d="M66 292 L86 292 Q90 292 90 296 L90 316 Q90 320 86 320 L82 320 76 326 70 320 66 320 Q62 320 62 316 L62 296 Q62 292 66 292"/>
    <path stroke="none" fill="#FFFFFF" d="M24 290 L48 290 Q52 290 52 294 L52 318 Q52 322 48 322 L24 322 Q20 322 20 318 L20 294 Q20 290 24 290"/>
    <path stroke="none" fill="url(#gradient37)" d="M42 322 L36 328 30 322 42 322"/>
    <path stroke="none" fill="#FFFFFF" d="M132 306 Q132 312.65 127.3 317.3 122.6 322 116 322 109.35 322 104.65 317.3 100 312.65 100 306 100 299.4 104.65 294.65 109.35 290 116 290 122.6 290 127.3 294.65 132 299.4 132 306"/>
    <path stroke="none" fill="#9EC2E9" d="M161.25 319.05 Q163.8 318 165.9 315.9 170 311.8 170 306 170 300.25 165.9 296.05 161.8 292 156 292 150.2 292 146.05 296.05 142 300.25 142 306 142 311.8 146.05 315.9 148.2 318 150.8 319.05 L156 326 161.25 319.05 M172 306 Q172 312.65 167.35 317.35 165.15 319.5 162.5 320.65 L157.6 327.2 156.6 327.9 Q156 328.1 155.4 327.9 154.8 327.7 154.4 327.2 L149.5 320.7 Q146.85 319.5 144.65 317.35 L144.65 317.3 Q140 312.6 140 306 140 299.45 144.6 294.65 L144.65 294.65 Q149.4 290 156 290 162.6 290 167.3 294.65 L167.35 294.65 Q172 299.45 172 306"/>
    <path stroke="none" fill="#FFFFFF" d="M150.8 319.05 Q148.2 318 146.05 315.9 142 311.8 142 306 142 300.25 146.05 296.05 150.2 292 156 292 161.8 292 165.9 296.05 170 300.25 170 306 170 311.8 165.9 315.9 163.8 318 161.25 319.05 158.8 320 156 320 153.2 320 150.8 319.05"/>
    <path stroke="none" fill="url(#gradient38)" d="M150.8 319.05 Q153.2 320 156 320 158.8 320 161.25 319.05 L156 326 150.8 319.05"/>
    <path stroke="none" fill="#FFFFFF" d="M184 290 L208 290 Q212 290 212 294 L212 316 Q212 320 208 320 L184 320 Q180 320 180 316 L180 294 Q180 290 184 290 M197 323.5 Q197 324.55 196.3 325.25 195.55 326 194.5 326 193.45 326 192.75 325.25 192 324.55 192 323.5 192 322.45 192.75 321.7 193.45 321 194.5 321 195.55 321 196.3 321.7 197 322.45 197 323.5 M202 326 Q202 326.85 201.4 327.4 200.85 328 200 328 199.15 328 198.55 327.4 198 326.85 198 326 198 325.15 198.55 324.55 199.15 324 200 324 200.85 324 201.4 324.55 202 325.15 202 326"/>
    <path stroke="none" fill="#9EC2E9" d="M226 290 L246 290 Q252 290 252 296 L252 316 Q252 322 246 322 L240.55 322 240.55 322.05 Q241.9 322.15 242.85 323.15 244 324.3 244 326 244 327.65 242.9 328.75 L242.75 328.9 Q241.65 330 240 330 238.3 330 237.15 328.85 L236.3 327.65 234.5 328 Q232.65 328 231.4 326.7 L231.3 326.65 Q230 325.35 230 323.5 230 322.7 230.25 322 L226 322 Q220 322 220 316 L220 296 Q220 290 226 290 M242 326 Q242 325.15 241.4 324.55 240.85 324 240 324 239.15 324 238.55 324.55 238 325.15 238 326 238 326.85 238.55 327.4 239.15 328 240 328 240.85 328 241.4 327.4 242 326.85 242 326 M237 323.5 Q237 322.45 236.3 321.7 235.55 321 234.5 321 233.45 321 232.75 321.7 232 322.45 232 323.5 232 324.55 232.75 325.25 233.45 326 234.5 326 235.55 326 236.3 325.25 237 324.55 237 323.5 M226 292 Q222 292 222 296 L222 316 Q222 320 226 320 L246 320 Q250 320 250 316 L250 296 Q250 292 246 292 L226 292"/>
    <path stroke="none" fill="#FFFFFF" d="M226 292 L246 292 Q250 292 250 296 L250 316 Q250 320 246 320 L226 320 Q222 320 222 316 L222 296 Q222 292 226 292 M237 323.5 Q237 324.55 236.3 325.25 235.55 326 234.5 326 233.45 326 232.75 325.25 232 324.55 232 323.5 232 322.45 232.75 321.7 233.45 321 234.5 321 235.55 321 236.3 321.7 237 322.45 237 323.5 M242 326 Q242 326.85 241.4 327.4 240.85 328 240 328 239.15 328 238.55 327.4 238 326.85 238 326 238 325.15 238.55 324.55 239.15 324 240 324 240.85 324 241.4 324.55 242 325.15 242 326"/>
    <path stroke="none" fill="#FFFFFF" d="M267 293 L285 293 Q289 293 289 297 L289 315 Q289 319 285 319 L267 319 Q263 319 263 315 L263 297 Q263 293 267 293"/>
    <path stroke="none" fill="#FFFFFF" d="M278.15 291.1 L290.95 303.9 Q293.05 306 290.9 308.15 L278.1 320.95 Q276 323.05 273.9 320.95 L261.1 308.15 Q258.95 306 261.05 303.9 L273.85 291.1 Q276 288.95 278.15 291.1"/>
    <path stroke="none" fill="#E6E6E6" d="M344 161 L344 163 342 163 342 161 344 161 M342 163 L342 165 340 165 340 163 342 163 M340 183 L342 183 342 185 344 185 344 187 342 187 342 185 340 185 340 183 M350 187 L362 187 362 189 360 189 360 191 358 191 358 189 354 189 354 191 358 191 358 193 354 193 354 191 352 191 352 189 350 189 350 187 M368 187 L368 185 370 185 370 183 372 183 372 185 370 185 370 187 368 187 M372 165 L370 165 370 163 368 163 368 161 370 161 370 163 372 163 372 165 M328 161 L330 161 330 163 332 163 332 165 330 165 330 163 328 163 328 161 M332 183 L332 185 330 185 330 187 328 187 328 185 330 185 330 183 332 183 M322 187 L322 189 320 189 320 191 318 191 318 193 314 193 314 191 312 191 312 189 310 189 310 187 322 187 M304 187 L302 187 302 185 300 185 300 183 302 183 302 185 304 185 304 187 M300 165 L300 163 302 163 302 161 304 161 304 163 302 163 302 165 300 165 M380 165 L380 163 382 163 382 161 384 161 384 163 382 163 382 165 380 165 M408 161 L410 161 410 163 412 163 412 165 410 165 410 163 408 163 408 161 M412 183 L412 185 410 185 410 187 408 187 408 185 410 185 410 183 412 183 M402 187 L402 189 400 189 400 191 398 191 398 193 394 193 394 191 392 191 392 189 390 189 390 187 402 187 M384 187 L382 187 382 185 380 185 380 183 382 183 382 185 384 185 384 187 M410 199 L408 199 408 197 410 197 410 199 412 199 412 201 410 201 410 199 M384 197 L384 199 382 199 382 201 380 201 380 199 382 199 382 197 384 197 M380 219 L382 219 382 221 384 221 384 223 382 223 382 221 380 221 380 219 M390 223 L402 223 402 225 400 225 400 227 398 227 398 229 394 229 394 227 398 227 398 225 394 225 394 227 392 227 392 225 390 225 390 223 M408 223 L408 221 410 221 410 219 412 219 412 221 410 221 410 223 408 223 M394 191 L398 191 398 189 394 189 394 191 M412 237 L410 237 410 235 412 235 412 237 M408 233 L410 233 410 235 408 235 408 233 M402 259 L402 261 400 261 400 263 398 263 398 261 394 261 394 263 392 263 392 261 390 261 390 259 402 259 M398 263 L398 265 394 265 394 263 398 263 M412 255 L412 257 410 257 410 255 412 255 M410 257 L410 259 408 259 408 257 410 257 M370 199 L368 199 368 197 370 197 370 199 372 199 372 201 370 201 370 199 M344 197 L344 199 342 199 342 201 340 201 340 199 342 199 342 197 344 197 M340 219 L342 219 342 221 344 221 344 223 342 223 342 221 340 221 340 219 M350 223 L362 223 362 225 360 225 360 227 358 227 358 229 354 229 354 227 358 227 358 225 354 225 354 227 352 227 352 225 350 225 350 223 M368 223 L368 221 370 221 370 219 372 219 372 221 370 221 370 223 368 223 M368 233 L370 233 370 235 372 235 372 237 370 237 370 235 368 235 368 233 M372 255 L372 257 370 257 370 259 368 259 368 257 370 257 370 255 372 255 M362 259 L362 261 360 261 360 263 358 263 358 265 354 265 354 263 352 263 352 261 350 261 350 259 362 259 M344 259 L342 259 342 257 340 257 340 255 342 255 342 257 344 257 344 259 M340 237 L340 235 342 235 342 233 344 233 344 235 342 235 342 237 340 237 M382 235 L382 237 380 237 380 235 382 235 382 233 384 233 384 235 382 235 M380 255 L382 255 382 257 384 257 384 259 382 259 382 257 380 257 380 255 M330 199 L328 199 328 197 330 197 330 199 332 199 332 201 330 201 330 199 M304 197 L304 199 302 199 302 201 300 201 300 199 302 199 302 197 304 197 M300 219 L302 219 302 221 304 221 304 223 302 223 302 221 300 221 300 219 M310 223 L322 223 322 225 320 225 320 227 318 227 318 225 314 225 314 227 318 227 318 229 314 229 314 227 312 227 312 225 310 225 310 223 M328 223 L328 221 330 221 330 219 332 219 332 221 330 221 330 223 328 223 M314 191 L318 191 318 189 314 189 314 191 M328 233 L330 233 330 235 332 235 332 237 330 237 330 235 328 235 328 233 M332 255 L332 257 330 257 330 259 328 259 328 257 330 257 330 255 332 255 M322 259 L322 261 320 261 320 263 318 263 318 265 314 265 314 263 312 263 312 261 310 261 310 259 322 259 M304 259 L302 259 302 257 300 257 300 255 302 255 302 257 304 257 304 259 M300 237 L300 235 302 235 302 233 304 233 304 235 302 235 302 237 300 237 M320 251 L320 253 318 253 318 251 320 251 M314 253 L312 253 312 251 314 251 314 253 M314 263 L318 263 318 261 314 261 314 263 M354 263 L358 263 358 261 354 261 354 263 M180 165 L180 163 182 163 182 161 184 161 184 163 182 163 182 165 180 165 M208 161 L210 161 210 163 212 163 212 165 210 165 210 163 208 163 208 161 M212 183 L212 185 210 185 210 187 208 187 208 185 210 185 210 183 212 183 M202 187 L202 189 200 189 200 191 198 191 198 193 194 193 194 191 192 191 192 189 190 189 190 187 202 187 M184 187 L182 187 182 185 180 185 180 183 182 183 182 185 184 185 184 187 M170 163 L168 163 168 161 170 161 170 163 172 163 172 165 170 165 170 163 M144 161 L144 163 142 163 142 165 140 165 140 163 142 163 142 161 144 161 M140 183 L142 183 142 185 144 185 144 187 142 187 142 185 140 185 140 183 M150 187 L162 187 162 189 160 189 160 191 158 191 158 189 154 189 154 191 158 191 158 193 154 193 154 191 152 191 152 189 150 189 150 187 M168 187 L168 185 170 185 170 183 172 183 172 185 170 185 170 187 168 187 M224 161 L224 163 222 163 222 161 224 161 M222 163 L222 165 220 165 220 163 222 163 M220 183 L222 183 222 185 224 185 224 187 222 187 222 185 220 185 220 183 M230 187 L242 187 242 189 240 189 240 191 238 191 238 189 234 189 234 191 232 191 232 189 230 189 230 187 M248 187 L248 185 250 185 250 183 252 183 252 185 250 185 250 187 248 187 M252 165 L250 165 250 163 248 163 248 161 250 161 250 163 252 163 252 165 M264 161 L264 163 262 163 262 161 264 161 M262 163 L262 165 260 165 260 163 262 163 M260 183 L262 183 262 185 264 185 264 187 262 187 262 185 260 185 260 183 M270 187 L282 187 282 189 280 189 280 191 278 191 278 189 274 189 274 191 278 191 278 193 274 193 274 191 272 191 272 189 270 189 270 187 M288 187 L288 185 290 185 290 183 292 183 292 185 290 185 290 187 288 187 M292 165 L290 165 290 163 288 163 288 161 290 161 290 163 292 163 292 165 M20 165 L20 163 22 163 22 161 24 161 24 163 22 163 22 165 20 165 M48 161 L50 161 50 163 52 163 52 165 50 165 50 163 48 163 48 161 M52 183 L52 185 50 185 50 187 48 187 48 185 50 185 50 183 52 183 M42 187 L42 189 40 189 40 191 38 191 38 193 34 193 34 191 32 191 32 189 30 189 30 187 42 187 M24 187 L22 187 22 185 20 185 20 183 22 183 22 185 24 185 24 187 M60 165 L60 163 62 163 62 161 64 161 64 163 62 163 62 165 60 165 M88 161 L90 161 90 163 92 163 92 165 90 165 90 163 88 163 88 161 M92 183 L92 185 90 185 90 187 88 187 88 185 90 185 90 183 92 183 M82 187 L82 189 80 189 80 191 78 191 78 193 74 193 74 191 72 191 72 189 70 189 70 187 82 187 M64 187 L62 187 62 185 60 185 60 183 62 183 62 185 64 185 64 187 M104 161 L104 163 102 163 102 161 104 161 M102 163 L102 165 100 165 100 163 102 163 M100 183 L102 183 102 185 104 185 104 187 102 187 102 185 100 185 100 183 M110 187 L122 187 122 189 120 189 120 191 118 191 118 189 114 189 114 191 118 191 118 193 114 193 114 191 112 191 112 189 110 189 110 187 M128 187 L128 185 130 185 130 183 132 183 132 185 130 185 130 187 128 187 M132 165 L130 165 130 163 128 163 128 161 130 161 130 163 132 163 132 165 M140 201 L140 199 142 199 142 197 144 197 144 199 142 199 142 201 140 201 M168 197 L170 197 170 199 172 199 172 201 170 201 170 199 168 199 168 197 M172 219 L172 221 170 221 170 223 168 223 168 221 170 221 170 219 172 219 M162 223 L162 225 160 225 160 227 158 227 158 229 154 229 154 227 152 227 152 225 150 225 150 223 162 223 M144 223 L142 223 142 221 140 221 140 219 142 219 142 221 144 221 144 223 M128 197 L130 197 130 199 132 199 132 201 130 201 130 199 128 199 128 197 M132 219 L132 221 130 221 130 223 128 223 128 221 130 221 130 219 132 219 M122 223 L122 225 120 225 120 227 118 227 118 229 114 229 114 227 112 227 112 225 110 225 110 223 122 223 M104 223 L102 223 102 221 100 221 100 219 102 219 102 221 104 221 104 223 M100 201 L100 199 102 199 102 197 104 197 104 199 102 199 102 201 100 201 M114 227 L118 227 118 225 114 225 114 227 M130 235 L128 235 128 233 130 233 130 235 132 235 132 237 130 237 130 235 M104 233 L104 235 102 235 102 237 100 237 100 235 102 235 102 233 104 233 M100 255 L102 255 102 257 104 257 104 259 102 259 102 257 100 257 100 255 M110 259 L122 259 122 261 120 261 120 263 118 263 118 261 114 261 114 263 112 263 112 261 110 261 110 259 M128 259 L128 257 130 257 130 255 132 255 132 257 130 257 130 259 128 259 M140 237 L140 235 142 235 142 233 144 233 144 235 142 235 142 237 140 237 M168 233 L170 233 170 235 172 235 172 237 170 237 170 235 168 235 168 233 M172 255 L172 257 170 257 170 259 168 259 168 257 170 257 170 255 172 255 M162 259 L162 261 160 261 160 263 158 263 158 265 154 265 154 263 152 263 152 261 150 261 150 259 162 259 M144 259 L142 259 142 257 140 257 140 255 142 255 142 257 144 257 144 259 M88 197 L90 197 90 199 92 199 92 201 90 201 90 199 88 199 88 197 M92 219 L92 221 90 221 90 223 88 223 88 221 90 221 90 219 92 219 M82 223 L82 225 80 225 80 227 78 227 78 229 74 229 74 227 72 227 72 225 70 225 70 223 82 223 M64 223 L62 223 62 221 60 221 60 219 62 219 62 221 64 221 64 223 M60 201 L60 199 62 199 62 197 64 197 64 199 62 199 62 201 60 201 M74 191 L78 191 78 189 74 189 74 191 M90 235 L88 235 88 233 90 233 90 235 92 235 92 237 90 237 90 235 M74 227 L78 227 78 225 74 225 74 227 M64 233 L64 235 62 235 62 237 60 237 60 235 62 235 62 233 64 233 M60 255 L62 255 62 257 64 257 64 259 62 259 62 257 60 257 60 255 M70 259 L82 259 82 261 80 261 80 263 78 263 78 261 74 261 74 263 78 263 78 265 74 265 74 263 72 263 72 261 70 261 70 259 M88 259 L88 257 90 257 90 255 92 255 92 257 90 257 90 259 88 259 M118 263 L118 265 114 265 114 263 118 263 M48 197 L50 197 50 199 52 199 52 201 50 201 50 199 48 199 48 197 M52 219 L52 221 50 221 50 223 48 223 48 221 50 221 50 219 52 219 M42 223 L42 225 40 225 40 227 38 227 38 229 34 229 34 227 32 227 32 225 30 225 30 223 42 223 M24 223 L22 223 22 221 20 221 20 219 22 219 22 221 24 221 24 223 M20 201 L20 199 22 199 22 197 24 197 24 199 22 199 22 201 20 201 M34 191 L38 191 38 189 34 189 34 191 M34 227 L38 227 38 225 34 225 34 227 M50 235 L48 235 48 233 50 233 50 235 52 235 52 237 50 237 50 235 M24 233 L24 235 22 235 22 237 20 237 20 235 22 235 22 233 24 233 M20 255 L22 255 22 257 24 257 24 259 22 259 22 257 20 257 20 255 M30 259 L42 259 42 261 40 261 40 263 38 263 38 265 34 265 34 263 32 263 32 261 30 261 30 259 M48 259 L48 257 50 257 50 255 52 255 52 257 50 257 50 259 48 259 M38 263 L38 261 34 261 34 263 38 263 M290 199 L288 199 288 197 290 197 290 199 292 199 292 201 290 201 290 199 M264 197 L264 199 262 199 262 201 260 201 260 199 262 199 262 197 264 197 M260 219 L262 219 262 221 264 221 264 223 262 223 262 221 260 221 260 219 M270 223 L282 223 282 225 280 225 280 227 278 227 278 225 274 225 274 227 272 227 272 225 270 225 270 223 M288 223 L288 221 290 221 290 219 292 219 292 221 290 221 290 223 288 223 M278 227 L278 229 274 229 274 227 278 227 M288 233 L290 233 290 235 292 235 292 237 290 237 290 235 288 235 288 233 M292 255 L292 257 290 257 290 259 288 259 288 257 290 257 290 255 292 255 M282 259 L282 261 280 261 280 263 278 263 278 265 274 265 274 263 272 263 272 261 270 261 270 259 282 259 M264 259 L262 259 262 257 260 257 260 255 262 255 262 257 264 257 264 259 M260 237 L260 235 262 235 262 233 264 233 264 235 262 235 262 237 260 237 M248 197 L250 197 250 199 252 199 252 201 250 201 250 199 248 199 248 197 M252 219 L252 221 250 221 250 223 248 223 248 221 250 221 250 219 252 219 M242 223 L242 225 240 225 240 227 238 227 238 229 234 229 234 227 232 227 232 225 230 225 230 223 242 223 M224 223 L222 223 222 221 220 221 220 219 222 219 222 221 224 221 224 223 M220 201 L220 199 222 199 222 197 224 197 224 199 222 199 222 201 220 201 M238 191 L238 193 234 193 234 191 238 191 M252 237 L250 237 250 235 252 235 252 237 M234 227 L238 227 238 225 234 225 234 227 M248 233 L250 233 250 235 248 235 248 233 M242 259 L242 261 240 261 240 263 238 263 238 261 234 261 234 263 232 263 232 261 230 261 230 259 242 259 M238 263 L238 265 234 265 234 263 238 263 M248 259 L248 257 250 257 250 255 252 255 252 257 250 257 250 259 248 259 M274 263 L278 263 278 261 274 261 274 263 M208 197 L210 197 210 199 212 199 212 201 210 201 210 199 208 199 208 197 M212 219 L212 221 210 221 210 223 208 223 208 221 210 221 210 219 212 219 M202 223 L202 225 200 225 200 227 198 227 198 229 194 229 194 227 192 227 192 225 190 225 190 223 202 223 M184 223 L182 223 182 221 180 221 180 219 182 219 182 221 184 221 184 223 M180 201 L180 199 182 199 182 197 184 197 184 199 182 199 182 201 180 201 M194 191 L198 191 198 189 194 189 194 191 M194 227 L198 227 198 225 194 225 194 227 M208 233 L210 233 210 235 212 235 212 237 210 237 210 235 208 235 208 233 M212 255 L212 257 210 257 210 259 208 259 208 257 210 257 210 255 212 255 M202 259 L202 261 200 261 200 263 198 263 198 265 194 265 194 263 192 263 192 261 190 261 190 259 202 259 M184 259 L182 259 182 257 180 257 180 255 182 255 182 257 184 257 184 259 M180 237 L180 235 182 235 182 233 184 233 184 235 182 235 182 237 180 237 M222 235 L222 237 220 237 220 235 222 235 222 233 224 233 224 235 222 235 M220 255 L222 255 222 257 224 257 224 259 222 259 222 257 220 257 220 255 M154 227 L158 227 158 225 154 225 154 227 M154 263 L158 263 158 261 154 261 154 263 M194 263 L198 263 198 261 194 261 194 263"/>
    <path stroke="none" fill="#FFFFFF" d="M194 263 L194 261 198 261 198 263 194 263 M342 163 L344 163 344 161 368 161 368 163 370 163 370 165 372 165 372 183 370 183 370 185 368 185 368 187 362 187 350 187 344 187 344 185 342 185 342 183 340 183 340 165 342 165 342 163 M332 165 L332 183 330 183 330 185 328 185 328 187 322 187 310 187 304 187 304 185 302 185 302 183 300 183 300 165 302 165 302 163 304 163 304 161 328 161 328 163 330 163 330 165 332 165 M324 175 L326 175 326 173 326 167 326 165 324 165 320 165 318 165 318 167 318 173 318 175 320 175 320 177 324 177 324 175 M314 167 L314 165 312 165 308 165 306 165 306 167 306 173 306 175 308 175 308 177 312 177 312 175 314 175 314 173 314 167 M320 179 L320 183 324 183 324 179 320 179 M354 165 L352 165 352 167 352 173 352 175 354 175 354 177 358 177 358 175 360 175 360 173 360 167 360 165 358 165 354 165 M354 179 L354 183 358 183 358 179 354 179 M384 161 L408 161 408 163 410 163 410 165 412 165 412 183 410 183 410 185 408 185 408 187 402 187 390 187 384 187 384 185 382 185 382 183 380 183 380 165 382 165 382 163 384 163 384 161 M392 165 L390 165 390 167 390 171 394 171 394 169 398 169 398 173 396 173 394 173 394 175 394 177 400 177 402 177 402 175 402 167 402 165 400 165 392 165 M394 179 L394 183 398 183 398 179 394 179 M408 197 L408 199 410 199 410 201 412 201 412 219 410 219 410 221 408 221 408 223 402 223 390 223 384 223 384 221 382 221 382 219 380 219 380 201 382 201 382 199 384 199 384 197 408 197 M394 191 L394 189 398 189 398 191 394 191 M388 219 L392 219 392 217 394 217 394 207 400 207 400 211 398 211 398 213 396 213 396 215 396 217 398 217 402 217 402 215 404 215 404 201 390 201 390 213 388 213 388 215 386 215 386 217 386 219 388 219 M398 227 L394 227 394 225 398 225 398 227 M410 235 L410 237 412 237 412 255 410 255 410 257 408 257 408 259 402 259 390 259 384 259 384 257 382 257 382 255 380 255 380 237 382 237 382 235 384 235 384 233 408 233 408 235 410 235 M404 251 L406 251 406 249 408 249 408 243 406 243 406 241 404 241 402 241 402 239 400 239 400 237 392 237 392 239 390 239 390 241 388 241 386 241 386 243 384 243 384 249 386 249 386 251 388 251 390 251 390 253 392 253 392 255 400 255 400 253 402 253 402 251 404 251 M394 263 L394 261 398 261 398 263 394 263 M368 197 L368 199 370 199 370 201 372 201 372 219 370 219 370 221 368 221 368 223 362 223 350 223 344 223 344 221 342 221 342 219 340 219 340 201 342 201 342 199 344 199 344 197 368 197 M358 191 L354 191 354 189 358 189 358 191 M364 203 L362 203 360 203 360 205 360 207 360 209 362 209 364 209 366 209 366 207 366 205 366 203 364 203 M356 203 L356 201 354 201 352 201 350 201 350 203 350 205 350 207 352 207 354 207 356 207 356 205 356 203 M362 215 L362 213 360 213 358 213 356 213 356 215 356 217 356 219 358 219 360 219 362 219 362 217 362 215 M358 227 L354 227 354 225 358 225 358 227 M360 237 L358 237 358 239 358 245 360 245 360 243 364 243 364 245 366 245 366 239 366 237 364 237 360 237 M372 237 L372 255 370 255 370 257 368 257 368 259 362 259 350 259 344 259 344 257 342 257 342 255 340 255 340 237 342 237 342 235 344 235 344 233 368 233 368 235 370 235 370 237 372 237 M348 211 L346 211 346 213 346 215 346 217 348 217 350 217 352 217 352 215 352 213 352 211 350 211 348 211 M328 197 L328 199 330 199 330 201 332 201 332 219 330 219 330 221 328 221 328 223 322 223 310 223 304 223 304 221 302 221 302 219 300 219 300 201 302 201 302 199 304 199 304 197 328 197 M314 191 L314 189 318 189 318 191 314 191 M324 207 L324 205 320 205 318 205 318 201 314 201 314 205 312 205 308 205 308 207 308 209 308 211 310 211 310 215 310 217 312 217 314 217 314 215 318 215 318 217 320 217 322 217 322 215 322 211 324 211 324 209 324 207 M314 227 L314 225 318 225 318 227 314 227 M332 237 L332 255 330 255 330 257 328 257 328 259 322 259 310 259 304 259 304 257 302 257 302 255 300 255 300 237 302 237 302 235 304 235 304 233 328 233 328 235 330 235 330 237 332 237 M348 239 L348 237 346 237 346 245 348 245 348 243 352 243 352 245 354 245 354 237 352 237 352 239 348 239 M348 249 L348 247 346 247 346 255 348 255 348 253 352 253 352 255 354 255 354 247 352 247 352 249 348 249 M320 249 L320 247 322 247 322 239 320 239 320 237 312 237 312 239 310 239 310 247 312 247 312 249 312 251 312 253 314 253 314 255 318 255 318 253 320 253 320 251 320 249 M314 263 L314 261 318 261 318 263 314 263 M354 263 L354 261 358 261 358 263 354 263 M366 249 L366 247 364 247 360 247 358 247 358 249 358 255 360 255 360 253 364 253 364 255 366 255 366 249 M184 161 L208 161 208 163 210 163 210 165 212 165 212 183 210 183 210 185 208 185 208 187 202 187 190 187 184 187 184 185 182 185 182 183 180 183 180 165 182 165 182 163 184 163 184 161 M168 161 L168 163 170 163 170 165 172 165 172 183 170 183 170 185 168 185 168 187 162 187 150 187 144 187 144 185 142 185 142 183 140 183 140 165 142 165 142 163 144 163 144 161 168 161 M154 173 L154 177 158 177 158 173 154 173 M148 173 L148 177 152 177 152 173 148 173 M160 173 L160 177 164 177 164 173 160 173 M192 173 L192 171 194 171 194 167 188 167 188 169 186 169 186 175 188 175 188 177 190 177 190 179 194 179 194 181 198 181 198 179 202 179 202 177 204 177 204 175 206 175 206 169 204 169 204 167 200 167 200 169 198 169 198 171 196 171 196 173 196 175 194 175 194 173 192 173 M198 175 L198 177 196 177 196 175 198 175 M222 163 L224 163 224 161 248 161 248 163 250 163 250 165 252 165 252 183 250 183 250 185 248 185 248 187 242 187 230 187 224 187 224 185 222 185 222 183 220 183 220 165 222 165 222 163 M228 169 L228 175 230 175 230 177 232 177 232 179 234 179 234 181 238 181 238 179 240 179 240 177 242 177 242 175 244 175 244 169 242 169 242 167 238 167 238 169 234 169 234 167 230 167 230 169 228 169 M262 163 L264 163 264 161 288 161 288 163 290 163 290 165 292 165 292 183 290 183 290 185 288 185 288 187 282 187 270 187 264 187 264 185 262 185 262 183 260 183 260 165 262 165 262 163 M272 167 L270 167 268 167 268 169 266 169 266 171 268 171 268 173 270 173 270 175 272 175 272 173 274 173 274 171 276 171 276 169 274 169 274 167 272 167 M280 173 L278 173 278 175 276 175 276 177 278 177 278 179 280 179 280 181 282 181 282 179 284 179 284 177 286 177 286 175 284 175 284 173 282 173 280 173 M308 179 L308 183 312 183 312 179 308 179 M24 161 L48 161 48 163 50 163 50 165 52 165 52 183 50 183 50 185 48 185 48 187 42 187 30 187 24 187 24 185 22 185 22 183 20 183 20 165 22 165 22 163 24 163 24 161 M64 161 L88 161 88 163 90 163 90 165 92 165 92 183 90 183 90 185 88 185 88 187 82 187 70 187 64 187 64 185 62 185 62 183 60 183 60 165 62 165 62 163 64 163 64 161 M68 173 L68 177 72 177 72 173 68 173 M102 163 L104 163 104 161 128 161 128 163 130 163 130 165 132 165 132 183 130 183 130 185 128 185 128 187 122 187 110 187 104 187 104 185 102 185 102 183 100 183 100 165 102 165 102 163 M108 173 L108 177 112 177 112 173 108 173 M114 173 L114 177 118 177 118 173 114 173 M144 197 L168 197 168 199 170 199 170 201 172 201 172 219 170 219 170 221 168 221 168 223 162 223 150 223 144 223 144 221 142 221 142 219 140 219 140 201 142 201 142 199 144 199 144 197 M150 205 L150 209 154 209 154 205 150 205 M132 201 L132 219 130 219 130 221 128 221 128 223 122 223 110 223 104 223 104 221 102 221 102 219 100 219 100 201 102 201 102 199 104 199 104 197 128 197 128 199 130 199 130 201 132 201 M118 191 L114 191 114 189 118 189 118 191 M120 207 L120 203 118 203 118 207 118 211 118 215 120 215 120 211 120 207 M114 209 L114 205 112 205 112 209 112 213 112 217 114 217 114 213 114 209 M124 209 L124 205 122 205 122 209 122 213 122 217 124 217 124 213 124 209 M114 227 L114 225 118 225 118 227 114 227 M128 233 L128 235 130 235 130 237 132 237 132 255 130 255 130 257 128 257 128 259 122 259 110 259 104 259 104 257 102 257 102 255 100 255 100 237 102 237 102 235 104 235 104 233 128 233 M150 215 L150 217 152 217 160 217 162 217 162 215 162 213 160 213 158 213 158 215 154 215 154 213 152 213 150 213 150 215 M144 233 L168 233 168 235 170 235 170 237 172 237 172 255 170 255 170 257 168 257 168 259 162 259 150 259 144 259 144 257 142 257 142 255 140 255 140 237 142 237 142 235 144 235 144 233 M110 207 L110 203 108 203 108 207 108 211 108 215 110 215 110 211 110 207 M92 201 L92 219 90 219 90 221 88 221 88 223 82 223 70 223 64 223 64 221 62 221 62 219 60 219 60 201 62 201 62 199 64 199 64 197 88 197 88 199 90 199 90 201 92 201 M74 191 L74 189 78 189 78 191 74 191 M80 209 L78 209 78 211 76 211 76 213 76 217 88 217 88 213 86 213 86 211 88 211 88 209 88 203 76 203 76 207 80 207 80 209 M72 211 L72 205 64 205 64 209 66 209 66 211 64 211 64 213 64 217 72 217 72 213 72 211 M74 227 L74 225 78 225 78 227 74 227 M88 233 L88 235 90 235 90 237 92 237 92 255 90 255 90 257 88 257 88 259 82 259 70 259 64 259 64 257 62 257 62 255 60 255 60 237 62 237 62 235 64 235 64 233 88 233 M110 243 L108 243 108 245 112 245 114 245 114 243 114 239 112 239 112 241 110 241 110 243 M112 247 L108 247 108 249 110 249 110 251 112 251 112 253 114 253 114 249 114 247 112 247 M114 263 L114 261 118 261 118 263 114 263 M82 245 L82 243 78 243 78 245 78 247 76 247 76 243 74 243 74 239 74 237 70 237 70 239 70 243 68 243 68 249 70 249 70 251 74 251 74 249 76 249 76 253 78 253 78 255 82 255 82 253 84 253 84 249 84 247 82 247 82 245 M74 263 L74 261 78 261 78 263 74 263 M150 241 L150 245 152 245 152 247 154 247 154 249 150 249 150 253 154 253 154 255 158 255 158 253 160 253 160 251 162 251 162 247 160 247 160 245 158 245 158 243 162 243 162 239 158 239 158 237 154 237 154 239 152 239 152 241 150 241 M120 245 L124 245 124 243 122 243 122 241 120 241 120 239 118 239 118 243 118 245 120 245 M122 249 L124 249 124 247 120 247 118 247 118 249 118 253 120 253 120 251 122 251 122 249 M52 201 L52 219 50 219 50 221 48 221 48 223 42 223 30 223 24 223 24 221 22 221 22 219 20 219 20 201 22 201 22 199 24 199 24 197 48 197 48 199 50 199 50 201 52 201 M34 191 L34 189 38 189 38 191 34 191 M34 207 L34 209 32 209 32 211 30 211 30 213 30 217 42 217 42 213 40 213 40 211 42 211 42 209 42 203 30 203 30 207 34 207 M34 227 L34 225 38 225 38 227 34 227 M38 239 L38 237 34 237 34 239 34 243 32 243 32 245 32 251 34 251 34 253 38 253 38 251 40 251 40 245 40 243 38 243 38 239 M48 233 L48 235 50 235 50 237 52 237 52 255 50 255 50 257 48 257 48 259 42 259 30 259 24 259 24 257 22 257 22 255 20 255 20 237 22 237 22 235 24 235 24 233 48 233 M34 263 L34 261 38 261 38 263 34 263 M288 197 L288 199 290 199 290 201 292 201 292 219 290 219 290 221 288 221 288 223 282 223 270 223 264 223 264 221 262 221 262 219 260 219 260 201 262 201 262 199 264 199 264 197 288 197 M278 191 L274 191 274 189 278 189 278 191 M280 203 L280 201 278 201 274 201 272 201 272 203 272 209 272 211 270 211 270 209 270 207 268 207 264 207 264 211 264 213 266 213 266 215 268 215 268 217 270 217 272 217 272 213 272 211 274 211 274 213 278 213 278 211 280 211 280 213 280 217 282 217 284 217 284 215 286 215 286 213 288 213 288 211 288 207 284 207 282 207 282 209 282 211 280 211 280 209 280 203 M274 227 L274 225 278 225 278 227 274 227 M292 237 L292 255 290 255 290 257 288 257 288 259 282 259 270 259 264 259 264 257 262 257 262 255 260 255 260 237 262 237 262 235 264 235 264 233 288 233 288 235 290 235 290 237 292 237 M252 201 L252 219 250 219 250 221 248 221 248 223 242 223 230 223 224 223 224 221 222 221 222 219 220 219 220 201 222 201 222 199 224 199 224 197 248 197 248 199 250 199 250 201 252 201 M234 191 L234 189 238 189 238 191 234 191 M242 205 L240 205 240 207 238 207 238 211 242 211 242 209 244 209 244 205 242 205 M230 205 L228 205 228 209 230 209 230 211 234 211 234 207 232 207 232 205 230 205 M242 215 L242 213 240 213 232 213 230 213 230 215 230 217 232 217 234 217 234 215 238 215 238 217 240 217 242 217 242 215 M234 227 L234 225 238 225 238 227 234 227 M250 235 L250 237 252 237 252 255 250 255 250 257 248 257 248 259 242 259 230 259 224 259 224 257 222 257 222 255 220 255 220 237 222 237 222 235 224 235 224 233 248 233 248 235 250 235 M272 247 L272 245 274 245 274 243 278 243 278 245 280 245 280 247 278 247 278 249 274 249 274 247 272 247 M268 243 L268 249 270 249 270 251 272 251 272 253 280 253 280 251 282 251 282 249 284 249 284 243 282 243 282 241 280 241 280 239 272 239 272 241 270 241 270 243 268 243 M244 241 L244 239 242 239 240 239 240 241 238 241 238 243 234 243 234 241 232 241 232 239 230 239 228 239 228 241 228 243 230 243 230 245 232 245 232 247 230 247 230 249 228 249 228 251 228 253 230 253 232 253 232 251 234 251 234 249 238 249 238 251 240 251 240 253 242 253 244 253 244 251 244 249 242 249 242 247 240 247 240 245 242 245 242 243 244 243 244 241 M234 263 L234 261 238 261 238 263 234 263 M274 263 L274 261 278 261 278 263 274 263 M212 201 L212 219 210 219 210 221 208 221 208 223 202 223 190 223 184 223 184 221 182 221 182 219 180 219 180 201 182 201 182 199 184 199 184 197 208 197 208 199 210 199 210 201 212 201 M194 191 L194 189 198 189 198 191 194 191 M190 205 L190 209 194 209 194 205 190 205 M198 205 L198 209 202 209 202 205 198 205 M202 215 L202 213 200 213 192 213 190 213 190 215 190 217 192 217 194 217 194 215 198 215 198 217 200 217 202 217 202 215 M194 227 L194 225 198 225 198 227 194 227 M212 237 L212 255 210 255 210 257 208 257 208 259 202 259 190 259 184 259 184 257 182 257 182 255 180 255 180 237 182 237 182 235 184 235 184 233 208 233 208 235 210 235 210 237 212 237 M158 191 L154 191 154 189 158 189 158 191 M158 205 L158 209 162 209 162 205 158 205 M154 227 L154 225 158 225 158 227 154 227 M192 245 L192 249 196 249 196 247 198 247 198 249 196 249 196 251 192 251 192 249 190 249 190 243 192 243 192 245 M198 245 L198 243 194 243 192 243 192 241 200 241 200 243 202 243 202 251 200 251 200 253 202 253 202 251 204 251 204 241 202 241 202 239 190 239 190 241 188 241 188 251 190 251 190 253 198 253 198 251 200 251 200 245 198 245 M154 263 L154 261 158 261 158 263 154 263"/>
    <path stroke="none" fill="#CBCACA" d="M326 173 L326 175 324 175 324 173 326 173 M320 175 L318 175 318 173 320 173 320 175 M318 167 L318 165 320 165 320 167 318 167 M324 165 L326 165 326 167 324 167 324 165 M312 165 L314 165 314 167 312 167 312 165 M314 173 L314 175 312 175 312 173 314 173 M308 175 L306 175 306 173 308 173 308 175 M306 167 L306 165 308 165 308 167 306 167"/>
    <path stroke="none" fill="#312D2D" d="M306 167 L308 167 308 165 312 165 312 167 314 167 314 173 312 173 312 175 312 177 308 177 308 175 308 173 306 173 306 167 M326 173 L324 173 324 175 324 177 320 177 320 175 320 173 318 173 318 167 320 167 320 165 324 165 324 167 326 167 326 173 M320 179 L324 179 324 183 320 183 320 179 M396 215 L396 213 398 213 398 211 400 211 400 207 394 207 394 217 392 217 392 219 388 219 388 217 386 217 386 215 388 215 388 213 390 213 390 201 404 201 404 215 402 215 402 217 398 217 398 215 396 215 M360 237 L364 237 364 239 360 239 360 241 364 241 364 239 366 239 366 245 364 245 364 243 360 243 360 245 358 245 358 239 360 239 360 237 M352 239 L352 237 354 237 354 245 352 245 352 243 348 243 348 245 346 245 346 237 348 237 348 239 348 241 352 241 352 239 M352 249 L352 247 354 247 354 255 352 255 352 253 348 253 348 255 346 255 346 247 348 247 348 249 348 251 352 251 352 249 M366 249 L366 255 364 255 364 253 360 253 360 255 358 255 358 249 360 249 360 251 364 251 364 249 360 249 360 247 364 247 364 249 366 249 M154 173 L158 173 158 177 154 177 154 173 M160 173 L164 173 164 177 160 177 160 173 M148 173 L152 173 152 177 148 177 148 173 M308 179 L312 179 312 183 308 183 308 179 M68 173 L72 173 72 177 68 177 68 173 M108 173 L112 173 112 177 108 177 108 173 M114 173 L118 173 118 177 114 177 114 173 M150 205 L154 205 154 209 150 209 150 205 M152 217 L152 215 150 215 150 213 152 213 152 215 154 215 158 215 160 215 160 213 162 213 162 215 160 215 160 217 152 217 M78 211 L80 211 80 209 82 209 82 207 80 207 76 207 76 203 88 203 88 209 86 209 86 211 84 211 84 213 86 213 88 213 88 217 76 217 76 213 78 213 78 211 M66 209 L64 209 64 205 72 205 72 211 70 211 70 213 72 213 72 217 64 217 64 213 66 213 66 211 68 211 68 209 66 209 M34 207 L30 207 30 203 42 203 42 209 40 209 40 211 38 211 38 213 40 213 42 213 42 217 30 217 30 213 32 213 32 211 34 211 34 209 36 209 36 207 34 207 M242 205 L244 205 244 209 242 209 242 211 238 211 238 207 240 207 242 207 242 205 M232 207 L234 207 234 211 230 211 230 209 228 209 228 205 230 205 230 207 232 207 M240 213 L240 215 242 215 242 217 240 217 240 215 238 215 234 215 232 215 232 213 240 213 M198 205 L202 205 202 209 198 209 198 205 M190 205 L194 205 194 209 190 209 190 205 M202 215 L202 217 200 217 200 215 198 215 194 215 192 215 192 217 190 217 190 215 192 215 192 213 200 213 200 215 202 215 M232 217 L230 217 230 215 232 215 232 217 M158 205 L162 205 162 209 158 209 158 205 M196 247 L196 249 192 249 192 245 194 245 194 243 198 243 198 245 196 245 196 247 M192 243 L190 243 190 249 192 249 192 251 196 251 196 249 198 249 198 247 198 245 200 245 200 251 202 251 202 243 200 243 200 241 192 241 192 243 M200 251 L198 251 198 253 190 253 190 251 188 251 188 241 190 241 190 239 202 239 202 241 204 241 204 251 202 251 202 253 200 253 200 251"/>
    <path stroke="none" fill="#FFCCBF" d="M352 167 L352 165 354 165 354 167 352 167 M358 165 L360 165 360 167 358 167 358 165 M360 173 L360 175 358 175 358 173 360 173 M354 175 L352 175 352 173 354 173 354 175 M110 243 L110 241 112 241 112 243 114 243 114 245 112 245 112 243 110 243 M112 247 L114 247 114 249 112 249 112 251 110 251 110 249 112 249 112 247 M122 243 L120 243 120 245 118 245 118 243 120 243 120 241 122 241 122 243 M122 249 L122 251 120 251 120 249 118 249 118 247 120 247 120 249 122 249"/>
    <path stroke="none" fill="#FF3300" d="M122 249 L120 249 120 247 124 247 124 249 122 249 M354 165 L358 165 358 167 360 167 360 173 358 173 358 175 358 177 354 177 354 175 354 173 352 173 352 167 354 167 354 165 M354 179 L358 179 358 183 354 183 354 179 M112 245 L108 245 108 243 110 243 112 243 112 245 M112 241 L112 239 114 239 114 243 112 243 112 241 M110 249 L108 249 108 247 112 247 112 249 110 249 M114 249 L114 253 112 253 112 251 112 249 114 249 M122 243 L124 243 124 245 120 245 120 243 122 243 M118 243 L118 239 120 239 120 241 120 243 118 243 M120 251 L120 253 118 253 118 249 120 249 120 251 M244 241 L244 243 242 243 242 245 240 245 240 247 242 247 242 249 244 249 244 251 242 251 242 253 240 253 240 251 238 251 238 249 234 249 234 251 232 251 232 253 230 253 230 251 228 251 228 249 230 249 230 247 232 247 232 245 230 245 230 243 228 243 228 241 230 241 230 239 232 239 232 241 234 241 234 243 238 243 238 241 240 241 240 239 242 239 242 241 244 241"/>
    <path stroke="none" fill="#E5F2FA" d="M390 167 L390 165 392 165 392 167 390 167 M400 165 L402 165 402 167 400 167 400 165 M402 175 L402 177 400 177 400 175 402 175"/>
    <path stroke="none" fill="#3498DB" d="M402 175 L400 175 400 177 394 177 394 175 396 175 396 173 398 173 398 169 394 169 394 171 390 171 390 167 392 167 392 165 400 165 400 167 402 167 402 175 M394 179 L398 179 398 183 394 183 394 179 M82 245 L82 247 82 249 84 249 84 253 82 253 82 255 78 255 78 253 76 253 76 249 74 249 74 251 70 251 70 249 68 249 68 243 70 243 70 239 74 239 74 243 76 243 76 247 76 249 78 249 78 247 78 245 82 245 M38 239 L38 243 38 245 40 245 40 251 38 251 38 253 34 253 34 251 32 251 32 245 34 245 34 243 34 239 38 239 M268 243 L270 243 270 241 272 241 272 239 280 239 280 241 282 241 282 243 284 243 284 249 282 249 282 251 280 251 280 253 272 253 272 251 270 251 270 249 268 249 268 243 M272 245 L272 247 272 249 274 249 278 249 280 249 280 247 280 245 280 243 278 243 274 243 272 243 272 245"/>
    <path stroke="none" fill="#99CBED" d="M394 175 L394 173 396 173 396 175 394 175"/>
    <path stroke="none" fill="#989696" d="M396 215 L398 215 398 217 396 217 396 215 M386 217 L388 217 388 219 386 219 386 217"/>
    <path stroke="none" fill="#666666" d="M404 241 L406 241 406 243 408 243 408 249 406 249 406 251 404 251 404 249 400 249 400 253 400 255 392 255 392 253 392 249 388 249 388 251 386 251 386 249 384 249 384 243 386 243 386 241 388 241 388 243 392 243 392 239 392 237 400 237 400 239 400 243 404 243 404 241 M318 253 L318 255 314 255 314 253 318 253"/>
    <path stroke="none" fill="#8C8C8C" d="M404 251 L402 251 402 253 400 253 400 249 404 249 404 251 M392 253 L390 253 390 251 388 251 388 249 392 249 392 253 M388 241 L390 241 390 239 392 239 392 243 388 243 388 241 M400 239 L402 239 402 241 404 241 404 243 400 243 400 239"/>
    <path stroke="none" fill="#FF9900" d="M362 203 L364 203 364 205 366 205 366 207 364 207 364 209 362 209 362 207 360 207 360 205 362 205 362 203 M354 201 L356 201 356 203 354 203 354 201 M356 205 L356 207 354 207 354 205 352 205 352 203 354 203 354 205 356 205 M352 207 L350 207 350 205 352 205 352 207 M350 203 L350 201 352 201 352 203 350 203 M362 215 L360 215 360 213 362 213 362 215 M358 213 L358 215 360 215 360 217 362 217 362 219 360 219 360 217 358 217 358 219 356 219 356 217 358 217 358 215 356 215 356 213 358 213 M348 211 L350 211 350 213 352 213 352 215 350 215 350 217 348 217 348 215 346 215 346 213 348 213 348 211 M324 207 L324 209 322 209 322 211 320 211 320 215 318 215 314 215 312 215 312 211 310 211 310 209 308 209 308 207 312 207 312 205 314 205 314 201 318 201 318 205 320 205 320 207 324 207 M312 249 L312 247 310 247 310 239 312 239 312 237 320 237 320 239 322 239 322 247 320 247 320 249 318 249 318 245 314 245 314 249 312 249 M150 241 L152 241 152 239 154 239 154 237 158 237 158 239 162 239 162 243 158 243 158 245 160 245 160 247 162 247 162 251 160 251 160 253 158 253 158 255 154 255 154 253 150 253 150 249 154 249 154 247 152 247 152 245 150 245 150 241 M280 203 L280 209 278 209 278 211 278 213 274 213 274 211 274 209 272 209 272 203 274 203 274 201 278 201 278 203 280 203 M282 211 L282 209 284 209 284 207 288 207 288 211 286 211 286 213 284 213 284 215 282 215 282 217 280 217 280 213 282 213 282 211 M272 213 L272 217 270 217 270 215 268 215 268 213 266 213 266 211 264 211 264 207 268 207 268 209 270 209 270 211 270 213 272 213"/>
    <path stroke="none" fill="#FFEBCF" d="M272 213 L270 213 270 211 272 211 272 209 274 209 274 211 272 211 272 213 M364 203 L366 203 366 205 364 205 364 203 M366 207 L366 209 364 209 364 207 366 207 M362 209 L360 209 360 207 362 207 362 209 M360 205 L360 203 362 203 362 205 360 205 M356 203 L356 205 354 205 354 203 352 203 352 201 354 201 354 203 356 203 M354 207 L352 207 352 205 350 205 350 203 352 203 352 205 354 205 354 207 M360 213 L360 215 362 215 362 217 360 217 360 215 358 215 358 213 360 213 M356 217 L356 215 358 215 358 217 356 217 M358 219 L358 217 360 217 360 219 358 219 M346 213 L346 211 348 211 348 213 346 213 M350 211 L352 211 352 213 350 213 350 211 M352 215 L352 217 350 217 350 215 352 215 M348 217 L346 217 346 215 348 215 348 217 M278 201 L280 201 280 203 278 203 278 201 M280 209 L280 211 282 211 282 213 280 213 280 211 278 211 278 209 280 209 M282 209 L282 207 284 207 284 209 282 209 M288 211 L288 213 286 213 286 215 284 215 284 217 282 217 282 215 284 215 284 213 286 213 286 211 288 211 M270 217 L268 217 268 215 266 215 266 213 264 213 264 211 266 211 266 213 268 213 268 215 270 215 270 217 M268 207 L270 207 270 209 268 209 268 207 M272 203 L272 201 274 201 274 203 272 203"/>
    <path stroke="none" fill="#D8D7D7" d="M358 239 L358 237 360 237 360 239 358 239 M364 237 L366 237 366 239 364 239 364 241 360 241 360 239 364 239 364 237 M348 239 L352 239 352 241 348 241 348 239 M348 249 L352 249 352 251 348 251 348 249 M364 247 L366 247 366 249 364 249 364 247 M358 249 L358 247 360 247 360 249 364 249 364 251 360 251 360 249 358 249 M120 211 L120 215 118 215 118 211 120 211 M114 213 L114 217 112 217 112 213 114 213 M122 213 L124 213 124 217 122 217 122 213 M152 217 L150 217 150 215 152 215 152 217 M152 213 L154 213 154 215 152 215 152 213 M158 215 L158 213 160 213 160 215 162 215 162 217 160 217 160 215 158 215 M110 211 L110 215 108 215 108 211 110 211 M80 209 L80 211 78 211 78 209 80 209 80 207 82 207 82 209 80 209 M78 211 L78 213 76 213 76 211 78 211 M86 213 L84 213 84 211 86 211 86 209 88 209 88 211 86 211 86 213 M72 211 L72 213 70 213 70 211 72 211 M64 213 L64 211 66 211 66 209 68 209 68 211 66 211 66 213 64 213 M30 213 L30 211 32 211 32 209 34 209 34 207 36 207 36 209 34 209 34 211 32 211 32 213 30 213 M42 209 L42 211 40 211 40 213 38 213 38 211 40 211 40 209 42 209 M240 207 L240 205 242 205 242 207 240 207 M230 205 L232 205 232 207 230 207 230 205 M242 215 L240 215 240 213 242 213 242 215 M232 213 L232 215 234 215 234 217 232 217 232 215 230 215 230 213 232 213 M238 215 L240 215 240 217 238 217 238 215 M200 213 L202 213 202 215 200 215 200 213 M200 217 L198 217 198 215 200 215 200 217 M194 215 L194 217 192 217 192 215 194 215 M190 215 L190 213 192 213 192 215 190 215 M196 247 L196 245 198 245 198 247 196 247 M194 243 L194 245 192 245 192 243 194 243"/>
    <path stroke="none" fill="#FFCC7F" d="M320 205 L324 205 324 207 320 207 320 205 M322 211 L322 215 320 215 320 217 318 217 318 215 320 215 320 211 322 211 M314 215 L314 217 312 217 312 215 310 215 310 211 312 211 312 215 314 215 M308 207 L308 205 312 205 312 207 308 207"/>
    <path stroke="none" fill="#FFE5BF" d="M324 209 L324 211 322 211 322 209 324 209 M322 215 L322 217 320 217 320 215 322 215 M312 217 L310 217 310 215 312 215 312 217 M310 211 L308 211 308 209 310 209 310 211"/>
    <path stroke="none" fill="#F7BD66" d="M314 249 L314 245 318 245 318 249 314 249"/>
    <path stroke="none" fill="#CCCCCC" d="M314 249 L318 249 320 249 320 251 318 251 318 253 314 253 314 251 312 251 312 249 314 249"/>
    <path stroke="none" fill="#FF0054" d="M196 173 L196 171 198 171 198 169 200 169 200 167 204 167 204 169 206 169 206 175 204 175 204 177 202 177 202 179 198 179 198 181 194 181 194 179 190 179 190 177 188 177 188 175 186 175 186 169 188 169 188 167 194 167 194 171 192 171 192 173 192 175 194 175 196 175 196 177 196 179 198 179 198 177 198 175 198 173 196 173 M228 169 L230 169 230 167 234 167 234 169 238 169 238 167 242 167 242 169 244 169 244 175 242 175 242 177 240 177 240 179 238 179 238 181 234 181 234 179 232 179 232 177 230 177 230 175 228 175 228 169 M272 167 L274 167 274 169 276 169 276 171 274 171 274 173 272 173 272 175 270 175 270 173 268 173 268 171 266 171 266 169 268 169 268 167 270 167 270 169 272 169 272 167 M282 173 L284 173 284 175 286 175 286 177 284 177 284 179 282 179 282 181 280 181 280 179 278 179 278 177 276 177 276 175 278 175 278 173 280 173 280 175 282 175 282 173"/>
    <path stroke="none" fill="#FFBFD4" d="M282 173 L282 175 280 175 280 173 282 173 M192 173 L194 173 194 175 192 175 192 173 M196 175 L196 173 198 173 198 175 196 175 M198 177 L198 179 196 179 196 177 198 177 M270 167 L272 167 272 169 270 169 270 167"/>
    <path stroke="none" fill="#3D3939" d="M118 207 L118 203 120 203 120 207 118 207 M112 209 L112 205 114 205 114 209 112 209 M124 209 L122 209 122 205 124 205 124 209 M108 207 L108 203 110 203 110 207 108 207"/>
    <path stroke="none" fill="#979595" d="M108 207 L110 207 110 211 108 211 108 207 M120 207 L120 211 118 211 118 207 120 207 M114 209 L114 213 112 213 112 209 114 209 M122 209 L124 209 124 213 122 213 122 209"/>
    <path stroke="none" fill="#CCE5F6" d="M78 245 L78 243 82 243 82 245 78 245 M82 247 L84 247 84 249 82 249 82 247 M70 239 L70 237 74 237 74 239 70 239 M76 247 L78 247 78 249 76 249 76 247 M34 239 L34 237 38 237 38 239 34 239 M38 243 L40 243 40 245 38 245 38 243 M32 245 L32 243 34 243 34 245 32 245 M272 247 L274 247 274 249 272 249 272 247 M278 249 L278 247 280 247 280 249 278 249 M280 245 L278 245 278 243 280 243 280 245 M274 243 L274 245 272 245 272 243 274 243"/>
    <path stroke="none" fill="#FFD8CF" d="M242 239 L244 239 244 241 242 241 242 239 M244 251 L244 253 242 253 242 251 244 251 M230 253 L228 253 228 251 230 251 230 253 M228 241 L228 239 230 239 230 241 228 241"/>
    <path stroke="none" fill="#E6E6E6" d="M20 344 L20 342 22 342 22 340 24 340 24 342 22 342 22 344 20 344 M48 340 L50 340 50 342 52 342 52 344 50 344 50 342 48 342 48 340 M52 362 L52 364 50 364 50 366 48 366 48 364 50 364 50 362 52 362 M42 366 L42 368 40 368 40 370 38 370 38 372 34 372 34 370 32 370 32 368 30 368 30 366 42 366 M24 366 L22 366 22 364 20 364 20 362 22 362 22 364 24 364 24 366 M34 370 L38 370 38 368 34 368 34 370"/>
    <path stroke="none" fill="#FFFFFF" d="M34 370 L34 368 38 368 38 370 34 370 M24 340 L48 340 48 342 50 342 50 344 52 344 52 362 50 362 50 364 48 364 48 366 42 366 30 366 24 366 24 364 22 364 22 362 20 362 20 344 22 344 22 342 24 342 24 340"/>
    <path stroke="none" fill="#E6EFF9" d="M62 344 L62 342 64 342 64 344 62 344 M88 342 L90 342 90 344 88 344 88 342 M62 364 L62 362 64 362 64 364 62 364 M88 364 L88 362 90 362 90 364 88 364"/>
    <path stroke="none" fill="#9EC2E9" d="M88 364 L90 364 90 362 90 344 90 342 88 342 64 342 62 342 62 344 62 362 62 364 60 364 60 342 62 342 62 340 90 340 90 342 92 342 92 364 90 364 90 366 82 366 82 364 88 364 M64 364 L70 364 70 366 72 366 72 368 70 368 70 366 62 366 62 364 64 364 M80 366 L82 366 82 368 80 368 80 366 M72 368 L74 368 74 370 72 370 72 368 M78 368 L80 368 80 370 78 370 78 368 M78 370 L78 372 74 372 74 370 78 370"/>
    <path stroke="none" fill="#FFFFFF" d="M78 370 L74 370 74 368 78 368 78 370 M62 344 L64 344 64 342 88 342 88 344 90 344 90 362 88 362 88 364 82 364 82 366 80 366 72 366 70 366 70 364 64 364 64 362 62 362 62 344"/>
    <path stroke="none" fill="#E6E6E6" d="M72 366 L80 366 80 368 78 368 74 368 72 368 72 366"/>
    <path stroke="none" fill="#E6E6E6" d="M114 370 L112 370 112 368 110 368 110 366 108 366 108 364 110 364 110 366 122 366 122 364 124 364 124 366 122 366 122 368 120 368 120 370 118 370 118 368 114 368 114 370 118 370 118 372 114 372 114 370 M110 340 L110 342 108 342 108 340 110 340 M106 342 L106 344 104 344 104 346 102 346 102 344 104 344 104 342 106 342 M102 348 L102 350 100 350 100 348 102 348 M100 356 L102 356 102 358 100 358 100 356 M102 360 L104 360 104 362 106 362 106 364 104 364 104 362 102 362 102 360 M126 364 L126 362 128 362 128 360 130 360 130 362 128 362 128 364 126 364 M130 358 L130 356 132 356 132 358 130 358 M132 350 L130 350 130 348 132 348 132 350 M130 346 L128 346 128 344 126 344 126 342 128 342 128 344 130 344 130 346 M124 342 L122 342 122 340 124 340 124 342"/>
    <path stroke="none" fill="#FFFFFF" d="M108 342 L110 342 110 340 122 340 122 342 124 342 126 342 126 344 128 344 128 346 130 346 130 348 130 350 132 350 132 356 130 356 130 358 130 360 128 360 128 362 126 362 126 364 124 364 122 364 122 366 110 366 110 364 108 364 106 364 106 362 104 362 104 360 102 360 102 358 102 356 100 356 100 350 102 350 102 348 102 346 104 346 104 344 106 344 106 342 108 342 M114 370 L114 368 118 368 118 370 114 370"/>
    <path stroke="none" fill="#9EC2E9" d="M142 348 L142 344 144 344 144 342 148 342 148 340 164 340 164 342 168 342 168 344 170 344 170 348 172 348 172 358 170 358 170 362 168 362 168 364 164 364 164 366 162 366 162 368 160 368 160 370 158 370 158 372 154 372 154 370 152 370 152 368 150 368 150 366 148 366 148 364 144 364 144 362 142 362 142 358 140 358 140 348 142 348 142 350 142 356 142 358 144 358 144 360 144 362 146 362 148 362 148 364 150 364 150 366 152 366 152 368 154 368 154 370 158 370 158 368 160 368 160 366 162 366 162 364 164 364 164 362 166 362 168 362 168 360 168 358 170 358 170 356 170 350 170 348 168 348 168 346 168 344 166 344 164 344 164 342 162 342 150 342 148 342 148 344 146 344 144 344 144 346 144 348 142 348"/>
    <path stroke="none" fill="#E6EFF9" d="M142 348 L144 348 144 350 142 350 142 348 M144 346 L144 344 146 344 146 346 144 346 M148 344 L148 342 150 342 150 344 148 344 M162 342 L164 342 164 344 162 344 162 342 M166 344 L168 344 168 346 166 346 166 344 M168 348 L170 348 170 350 168 350 168 348 M170 356 L170 358 168 358 168 356 170 356 M168 360 L168 362 166 362 166 360 168 360 M146 362 L144 362 144 360 146 360 146 362 M144 358 L142 358 142 356 144 356 144 358"/>
    <path stroke="none" fill="#FFFFFF" d="M144 358 L144 356 142 356 142 350 144 350 144 348 144 346 146 346 146 344 148 344 150 344 150 342 162 342 162 344 164 344 166 344 166 346 168 346 168 348 168 350 170 350 170 356 168 356 168 358 168 360 166 360 166 362 164 362 164 364 162 364 162 366 160 366 152 366 150 366 150 364 148 364 148 362 146 362 146 360 144 360 144 358 M158 368 L158 370 154 370 154 368 158 368"/>
    <path stroke="none" fill="#E6E6E6" d="M158 368 L154 368 152 368 152 366 160 366 160 368 158 368"/>
    <path stroke="none" fill="#E6E6E6" d="M184 340 L184 342 182 342 182 340 184 340 M182 342 L182 344 180 344 180 342 182 342 M180 362 L182 362 182 364 184 364 184 366 182 366 182 364 180 364 180 362 M208 366 L208 364 210 364 210 362 212 362 212 364 210 364 210 366 208 366 M212 344 L210 344 210 342 208 342 208 340 210 340 210 342 212 342 212 344"/>
    <path stroke="none" fill="#FFFFFF" d="M212 344 L212 362 210 362 210 364 208 364 208 366 184 366 184 364 182 364 182 362 180 362 180 344 182 344 182 342 184 342 184 340 208 340 208 342 210 342 210 344 212 344 M202 370 L204 370 204 372 202 372 202 370 M196 368 L200 368 200 372 196 372 196 368"/>
    <path stroke="none" fill="#E6EFF9" d="M224 342 L224 344 222 344 222 342 224 342 M222 362 L224 362 224 364 222 364 222 362 M248 364 L248 362 250 362 250 364 248 364 M250 344 L248 344 248 342 250 342 250 344"/>
    <path stroke="none" fill="#FFFFFF" d="M222 344 L224 344 224 342 248 342 248 344 250 344 250 362 248 362 248 364 224 364 224 362 222 362 222 344 M242 370 L242 368 244 368 244 370 242 370 M236 370 L236 366 240 366 240 370 236 370"/>
    <path stroke="none" fill="#9EC2E9" d="M236 370 L234 370 234 366 222 366 222 364 220 364 220 342 222 342 222 344 222 362 222 364 224 364 248 364 250 364 250 362 250 344 250 342 252 342 252 364 250 364 250 366 246 366 246 370 244 370 244 372 242 372 242 370 240 370 240 372 236 372 236 370 240 370 240 366 236 366 236 370 M224 342 L222 342 222 340 250 340 250 342 248 342 224 342 M242 370 L244 370 244 368 242 368 242 370"/>
    <path stroke="none" fill="#E6E6E6" d="M264 344 L264 346 262 346 262 344 264 344 264 342 266 342 266 344 264 344 M262 352 L262 356 260 356 260 352 262 352 M262 362 L264 362 264 364 266 364 266 366 264 366 264 364 262 364 262 362 M270 366 L282 366 282 368 280 368 280 370 278 370 278 368 274 368 274 370 272 370 272 368 270 368 270 366 M286 366 L286 364 288 364 288 362 290 362 290 364 288 364 288 366 286 366 M290 356 L290 352 292 352 292 356 290 356 M278 342 L274 342 274 340 278 340 278 342 M278 370 L278 372 274 372 274 370 278 370"/>
    <path stroke="none" fill="#FFFFFF" d="M278 370 L274 370 274 368 278 368 278 370 M262 346 L264 346 264 344 266 344 266 342 274 342 278 342 288 342 288 344 290 344 290 352 290 356 290 362 288 362 288 364 286 364 286 366 282 366 270 366 266 366 266 364 264 364 264 362 262 362 262 356 262 352 262 346"/>
  </g>
</svg>