<svg xmlns="http://www.w3.org/2000/svg" xmlns:xlink="http://www.w3.org/1999/xlink">
  <defs/>
  <g>
    <path stroke="none" fill="#2C383A" d="M138 128 L142 128 142 192 138 192 138 128"/>
    <path stroke="none" fill="#344143" d="M142 128 L192 128 192 192 142 192 142 128"/>
    <path stroke="none" fill="#21BF8F" d="M134 192 L128 192 128 128 134 128 134 192"/>
    <path stroke="none" fill="#BFD5D9" d="M134 192 L134 128 138 128 138 192 134 192"/>
    <path stroke="none" fill="#BFD5D9" d="M64 70 L64 74 0 74 0 70 64 70 M64 118 L64 122 0 122 0 118 64 118"/>
    <path stroke="none" fill="#2C383A" d="M64 118 L0 118 0 114 64 114 64 118 M64 74 L64 78 0 78 0 74 64 74"/>
    <path stroke="none" fill="#21BF8F" d="M0 70 L0 64 64 64 64 70 0 70 M64 122 L64 128 0 128 0 122 64 122"/>
    <path stroke="none" fill="#344143" d="M64 78 L64 95 0 95 0 78 64 78 M64 97 L64 114 0 114 0 97 64 97"/>
    <path stroke="none" fill="#435254" d="M64 97 L0 97 0 95 64 95 64 97"/>
    <path stroke="none" fill="#21BF8F" d="M58 0 L64 0 64 64 58 64 58 0 M6 64 L0 64 0 0 6 0 6 64"/>
    <path stroke="none" fill="#2C383A" d="M54 64 L50 64 50 0 54 0 54 64 M14 64 L10 64 10 0 14 0 14 64"/>
    <path stroke="none" fill="#344143" d="M14 64 L14 0 31 0 31 64 14 64 M50 64 L33 64 33 0 50 0 50 64"/>
    <path stroke="none" fill="#BFD5D9" d="M54 0 L58 0 58 64 54 64 54 0 M10 64 L6 64 6 0 10 0 10 64"/>
    <path stroke="none" fill="#435254" d="M33 64 L31 64 31 0 33 0 33 64"/>
    <path stroke="none" fill="#344143" d="M161 64 L178 64 Q178 84.6 163.65 99.65 148.6 114 128 114 L128 97 Q141.6 97 151.5 87.5 161 77.6 161 64 M128 94.95 L128 78 130.8 77.75 Q134.8 77 137.95 73.95 139.45 72.4 140.4 70.6 142 67.6 142 64 L158.95 64 Q158.95 76.75 150.05 86.05 140.75 94.95 128 94.95"/>
    <path stroke="none" fill="#2C383A" d="M178 64 L182 64 Q182 86.25 166.5 102.5 150.25 118 128 118 L128 114 Q148.6 114 163.65 99.65 178 84.6 178 64 M128 78 L128 74 130.8 73.6 Q133.2 72.95 135.1 71.1 136.25 69.9 136.95 68.5 138 66.45 138 64 L142 64 Q142 67.6 140.4 70.6 139.45 72.4 137.95 73.95 134.8 77 130.8 77.75 L128 78"/>
    <path stroke="none" fill="#435254" d="M158.95 64 L161 64 Q161 77.6 151.5 87.5 141.6 97 128 97 L128 94.95 Q140.75 94.95 150.05 86.05 158.95 76.75 158.95 64"/>
    <path stroke="none" fill="#21BF8F" d="M186 64 L192 64 192 128 128 128 128 122 Q151.9 122 169.35 105.35 186 87.9 186 64 M128 70 L128 64 134 64 Q134 66.45 132.25 68.25 L131.95 68.5 130.8 69.3 Q129.55 70 128 70"/>
    <path stroke="none" fill="#BFD5D9" d="M128 70 Q129.55 70 130.8 69.3 L131.95 68.5 132.25 68.25 Q134 66.45 134 64 L138 64 Q138 66.45 136.95 68.5 136.25 69.9 135.1 71.1 133.2 72.95 130.8 73.6 L128 74 128 70 M182 64 L186 64 Q186 87.9 169.35 105.35 151.9 122 128 122 L128 118 Q150.25 118 166.5 102.5 182 86.25 182 64"/>
    <path stroke="none" fill="#344143" d="M158.95 64 L142 64 Q142 60.4 140.4 57.4 139.45 55.6 137.95 54.05 134.8 51 130.8 50.25 L128 50 128 33.05 Q140.75 33.05 150.05 41.95 158.95 51.25 158.95 64 M161 64 Q161 50.4 151.5 40.5 141.6 31 128 31 L128 14 Q148.6 14 163.65 28.35 178 43.4 178 64 L161 64"/>
    <path stroke="none" fill="#435254" d="M161 64 L158.95 64 Q158.95 51.25 150.05 41.95 140.75 33.05 128 33.05 L128 31 Q141.6 31 151.5 40.5 161 50.4 161 64"/>
    <path stroke="none" fill="#2C383A" d="M128 50 L130.8 50.25 Q134.8 51 137.95 54.05 139.45 55.6 140.4 57.4 142 60.4 142 64 L138 64 Q138 61.55 136.95 59.5 136.25 58.1 135.1 56.9 133.2 55.05 130.8 54.4 L128 54 128 50 M182 64 L178 64 Q178 43.4 163.65 28.35 148.6 14 128 14 L128 10 Q150.25 10 166.5 25.5 182 41.75 182 64"/>
    <path stroke="none" fill="#BFD5D9" d="M182 64 Q182 41.75 166.5 25.5 150.25 10 128 10 L128 6 Q151.9 6 169.35 22.65 186 40.1 186 64 L182 64 M138 64 L134 64 Q134 61.55 132.25 59.75 L131.95 59.5 130.8 58.7 Q129.55 58 128 58 L128 54 130.8 54.4 Q133.2 55.05 135.1 56.9 136.25 58.1 136.95 59.5 138 61.55 138 64"/>
    <path stroke="none" fill="#21BF8F" d="M134 64 L128 64 128 58 Q129.55 58 130.8 58.7 L131.95 59.5 132.25 59.75 Q134 61.55 134 64 M128 6 L128 0 192 0 192 64 186 64 Q186 40.1 169.35 22.65 151.9 6 128 6"/>
    <path stroke="none" fill="#21BF8F" d="M128 6 Q104.1 6 86.65 22.65 70 40.1 70 64 L64 64 64 0 128 0 128 6 M128 58 L128 64 122 64 Q122 61.55 123.75 59.75 L124.05 59.5 Q124.6 59 125.2 58.7 126.45 58 128 58"/>
    <path stroke="none" fill="#344143" d="M128 14 L128 31 Q114.4 31 104.5 40.5 95 50.4 95 64 L78 64 Q78 43.4 92.35 28.35 107.4 14 128 14 M128 33.05 L128 50 125.2 50.25 Q121.2 51 118.05 54.05 116.55 55.6 115.6 57.4 114 60.4 114 64 L97.05 64 Q97.05 51.25 105.95 41.95 115.25 33.05 128 33.05"/>
    <path stroke="none" fill="#435254" d="M128 33.05 Q115.25 33.05 105.95 41.95 97.05 51.25 97.05 64 L95 64 Q95 50.4 104.5 40.5 114.4 31 128 31 L128 33.05"/>
    <path stroke="none" fill="#2C383A" d="M74 64 Q74 41.75 89.5 25.5 105.75 10 128 10 L128 14 Q107.4 14 92.35 28.35 78 43.4 78 64 L74 64 M128 50 L128 54 125.2 54.4 Q122.8 55.05 120.9 56.9 119.75 58.1 119.05 59.5 118 61.55 118 64 L114 64 Q114 60.4 115.6 57.4 116.55 55.6 118.05 54.05 121.2 51 125.2 50.25 L128 50"/>
    <path stroke="none" fill="#BFD5D9" d="M128 6 L128 10 Q105.75 10 89.5 25.5 74 41.75 74 64 L70 64 Q70 40.1 86.65 22.65 104.1 6 128 6 M128 54 L128 58 Q126.45 58 125.2 58.7 124.6 59 124.05 59.5 L123.75 59.75 Q122 61.55 122 64 L118 64 Q118 61.55 119.05 59.5 119.75 58.1 120.9 56.9 122.8 55.05 125.2 54.4 L128 54"/>
    <path stroke="none" fill="#344143" d="M95 64 Q95 77.6 104.5 87.5 114.4 97 128 97 L128 114 Q107.4 114 92.35 99.65 78 84.6 78 64 L95 64 M128 94.95 Q115.25 94.95 105.95 86.05 97.05 76.75 97.05 64 L114 64 Q114 67.6 115.6 70.6 116.55 72.4 118.05 73.95 121.2 77 125.2 77.75 L128 78 128 94.95"/>
    <path stroke="none" fill="#2C383A" d="M114 64 L118 64 Q118 66.45 119.05 68.5 119.75 69.9 120.9 71.1 122.8 72.95 125.2 73.6 L128 74 128 78 125.2 77.75 Q121.2 77 118.05 73.95 116.55 72.4 115.6 70.6 114 67.6 114 64 M74 64 L78 64 Q78 84.6 92.35 99.65 107.4 114 128 114 L128 118 Q105.75 118 89.5 102.5 74 86.25 74 64"/>
    <path stroke="none" fill="#BFD5D9" d="M118 64 L122 64 Q122 66.45 123.75 68.25 L124.05 68.5 Q124.6 69 125.2 69.3 126.45 70 128 70 L128 74 125.2 73.6 Q122.8 72.95 120.9 71.1 119.75 69.9 119.05 68.5 118 66.45 118 64 M70 64 L74 64 Q74 86.25 89.5 102.5 105.75 118 128 118 L128 122 Q104.1 122 86.65 105.35 70 87.9 70 64"/>
    <path stroke="none" fill="#435254" d="M95 64 L97.05 64 Q97.05 76.75 105.95 86.05 115.25 94.95 128 94.95 L128 97 Q114.4 97 104.5 87.5 95 77.6 95 64"/>
    <path stroke="none" fill="#21BF8F" d="M122 64 L128 64 128 70 Q126.45 70 125.2 69.3 124.6 69 124.05 68.5 L123.75 68.25 Q122 66.45 122 64 M128 122 L128 128 64 128 64 64 70 64 Q70 87.9 86.65 105.35 104.1 122 128 122"/>
    <path stroke="none" fill="#2C383A" d="M448 138 L454.1 138 Q455.7 137.95 456.85 136.8 457.95 135.7 458 134.1 L458 128 462 128 462 134.3 Q461.9 137.4 459.7 139.6 457.35 141.95 454.2 142 L448 142 448 138 M462 192 L458 192 458 185.9 Q457.95 184.3 456.85 183.15 455.7 182.05 454.1 182 L448 182 448 178 454.2 178 Q457.35 178.05 459.7 180.3 461.9 182.6 462 185.7 L462 192"/>
    <path stroke="none" fill="#344143" d="M462 192 L462 185.7 Q461.9 182.6 459.7 180.3 457.35 178.05 454.2 178 L448 178 448 161 462 161 462 159 448 159 448 142 454.2 142 Q457.35 141.95 459.7 139.6 461.9 137.4 462 134.3 L462 128 512 128 512 192 462 192"/>
    <path stroke="none" fill="#BFD5D9" d="M448 134 L454 134 454 128 458 128 458 134.1 Q457.95 135.7 456.85 136.8 455.7 137.95 454.1 138 L448 138 448 134 M458 192 L454 192 454 186 448 186 448 182 454.1 182 Q455.7 182.05 456.85 183.15 457.95 184.3 458 185.9 L458 192"/>
    <path stroke="none" fill="#21BF8F" d="M454 128 L454 134 448 134 448 128 454 128 M454 192 L448 192 448 186 454 186 454 192"/>
    <path stroke="none" fill="#435254" d="M448 161 L448 159 462 159 462 161 448 161"/>
    <path stroke="none" fill="#21BF8F" d="M448 134 L442 134 442 128 448 128 448 134 M442 192 L442 186 448 186 448 192 442 192"/>
    <path stroke="none" fill="#BFD5D9" d="M442 192 L438 192 438 185.9 Q438.05 184.3 439.15 183.15 440.3 182.05 441.9 182 L448 182 448 186 442 186 442 192 M442 128 L442 134 448 134 448 138 441.9 138 Q440.3 137.95 439.15 136.8 438.05 135.7 438 134.1 L438 128 442 128"/>
    <path stroke="none" fill="#2C383A" d="M438 128 L438 134.1 Q438.05 135.7 439.15 136.8 440.3 137.95 441.9 138 L448 138 448 142 441.8 142 Q438.65 141.95 436.3 139.6 434.1 137.4 434 134.3 L434 128 438 128 M434 192 L434 185.7 Q434.1 182.6 436.3 180.3 438.65 178.05 441.8 178 L448 178 448 182 441.9 182 Q440.3 182.05 439.15 183.15 438.05 184.3 438 185.9 L438 192 434 192"/>
    <path stroke="none" fill="#344143" d="M434 192 L384 192 384 128 434 128 434 134.3 Q434.1 137.4 436.3 139.6 438.65 141.95 441.8 142 L448 142 448 159 434 159 434 161 448 161 448 178 441.8 178 Q438.65 178.05 436.3 180.3 434.1 182.6 434 185.7 L434 192"/>
    <path stroke="none" fill="#435254" d="M448 161 L434 161 434 159 448 159 448 161"/>
    <path stroke="none" fill="#BFD5D9" d="M502 256 L502 249.9 Q502.05 248.3 503.15 247.15 504.3 246.05 505.9 246 L512 246 512 250 506 250 506 256 502 256 M448 246 L454.1 246 Q455.7 246.05 456.8 247.15 457.95 248.3 458 249.9 L458 256 454 256 454 250 448 250 448 246"/>
    <path stroke="none" fill="#2C383A" d="M448 246 L448 242 454.3 242 Q457.4 242.1 459.6 244.3 461.95 246.65 462 249.8 L462 256 458 256 458 249.9 Q457.95 248.3 456.8 247.15 455.7 246.05 454.1 246 L448 246 M498 256 L498 249.8 Q498.05 246.65 500.3 244.3 502.6 242.1 505.7 242 L512 242 512 246 505.9 246 Q504.3 246.05 503.15 247.15 502.05 248.3 502 249.9 L502 256 498 256"/>
    <path stroke="none" fill="#21BF8F" d="M506 256 L506 250 512 250 512 256 506 256 M448 250 L454 250 454 256 448 256 448 250"/>
    <path stroke="none" fill="#344143" d="M512 242 L505.7 242 Q502.6 242.1 500.3 244.3 498.05 246.65 498 249.8 L498 256 481 256 481 242 479 242 479 256 462 256 462 249.8 Q461.95 246.65 459.6 244.3 457.4 242.1 454.3 242 L448 242 448 192 512 192 512 242"/>
    <path stroke="none" fill="#435254" d="M479 256 L479 242 481 242 481 256 479 256"/>
    <path stroke="none" fill="#BFD5D9" d="M394 192 L394 198.1 Q393.95 199.7 392.8 200.85 391.7 201.95 390.1 202 L384 202 384 198 390 198 390 192 394 192 M448 198 L448 202 441.9 202 Q440.3 201.95 439.15 200.85 438.05 199.7 438 198.1 L438 192 442 192 442 198 448 198"/>
    <path stroke="none" fill="#2C383A" d="M398 192 L398 198.2 Q397.95 201.35 395.6 203.7 393.4 205.9 390.3 206 L384 206 384 202 390.1 202 Q391.7 201.95 392.8 200.85 393.95 199.7 394 198.1 L394 192 398 192 M448 206 L441.7 206 Q438.6 205.9 436.3 203.7 434.05 201.35 434 198.2 L434 192 438 192 438 198.1 Q438.05 199.7 439.15 200.85 440.3 201.95 441.9 202 L448 202 448 206"/>
    <path stroke="none" fill="#21BF8F" d="M390 192 L390 198 384 198 384 192 390 192 M442 192 L448 192 448 198 442 198 442 192"/>
    <path stroke="none" fill="#344143" d="M384 206 L390.3 206 Q393.4 205.9 395.6 203.7 397.95 201.35 398 198.2 L398 192 415 192 415 206 417 206 417 192 434 192 434 198.2 Q434.05 201.35 436.3 203.7 438.6 205.9 441.7 206 L448 206 448 256 384 256 384 206"/>
    <path stroke="none" fill="#435254" d="M417 192 L417 206 415 206 415 192 417 192"/>
    <path stroke="none" fill="#2C383A" d="M242 128 L246 128 246 192 242 192 242 128"/>
    <path stroke="none" fill="#BFD5D9" d="M246 128 L250 128 250 192 246 192 246 128"/>
    <path stroke="none" fill="#21BF8F" d="M250 192 L250 128 256 128 256 192 250 192"/>
    <path stroke="none" fill="#344143" d="M242 128 L242 192 192 192 192 128 242 128"/>
    <path stroke="none" fill="#21BF8F" d="M128 250 L192 250 192 256 128 256 128 250"/>
    <path stroke="none" fill="#2C383A" d="M192 246 L128 246 128 242 192 242 192 246"/>
    <path stroke="none" fill="#BFD5D9" d="M192 246 L192 250 128 250 128 246 192 246"/>
    <path stroke="none" fill="#344143" d="M128 242 L128 192 192 192 192 242 128 242"/>
    <path stroke="none" fill="#2C383A" d="M256 206 L192 206 192 202 256 202 256 206"/>
    <path stroke="none" fill="#BFD5D9" d="M256 198 L256 202 192 202 192 198 256 198"/>
    <path stroke="none" fill="#21BF8F" d="M256 198 L192 198 192 192 256 192 256 198"/>
    <path stroke="none" fill="#344143" d="M256 206 L256 256 192 256 192 206 256 206"/>
    <path stroke="none" fill="#21BF8F" d="M314 128 L320 128 320 134 314 134 314 128 M320 186 L320 192 314 192 314 186 320 186 M262 192 L256 192 256 128 262 128 262 192"/>
    <path stroke="none" fill="#BFD5D9" d="M262 192 L262 128 266 128 266 192 262 192 M320 134 L320 138 313.9 138 Q312.3 137.95 311.15 136.8 310.05 135.7 310 134.1 L310 128 314 128 314 134 320 134 M320 182 L320 186 314 186 314 192 310 192 310 185.9 Q310.05 184.3 311.15 183.15 312.3 182.05 313.9 182 L320 182"/>
    <path stroke="none" fill="#2C383A" d="M320 182 L313.9 182 Q312.3 182.05 311.15 183.15 310.05 184.3 310 185.9 L310 192 306 192 306 185.8 Q306.05 182.65 308.3 180.3 310.65 178.05 313.8 178 L320 178 320 182 M320 138 L320 142 313.8 142 Q310.65 141.95 308.3 139.6 306.05 137.35 306 134.2 L306 128 310 128 310 134.1 Q310.05 135.7 311.15 136.8 312.3 137.95 313.9 138 L320 138 M270 192 L266 192 266 128 270 128 270 192"/>
    <path stroke="none" fill="#344143" d="M270 192 L270 128 287 128 287 192 270 192 M320 142 L320 159 289 159 289 128 306 128 306 134.2 Q306.05 137.35 308.3 139.6 310.65 141.95 313.8 142 L320 142 M320 161 L320 178 313.8 178 Q310.65 178.05 308.3 180.3 306.05 182.65 306 185.8 L306 192 289 192 289 161 320 161"/>
    <path stroke="none" fill="#435254" d="M320 161 L289 161 289 192 287 192 287 128 289 128 289 159 320 159 320 161"/>
    <path stroke="none" fill="#435254" d="M287 192 L289 192 289 223 320 223 320 225 256 225 256 223 287 223 287 192"/>
    <path stroke="none" fill="#21BF8F" d="M314 192 L320 192 320 198 314 198 314 192 M320 250 L320 256 256 256 256 250 320 250 M256 198 L256 192 262 192 262 198 256 198"/>
    <path stroke="none" fill="#BFD5D9" d="M256 198 L262 198 262 192 266 192 266 198.1 Q265.95 199.7 264.8 200.85 263.7 201.95 262.1 202 L256 202 256 198 M310 192 L314 192 314 198 320 198 320 202 313.9 202 Q312.3 201.95 311.15 200.85 310.05 199.7 310 198.1 L310 192 M256 250 L256 246 320 246 320 250 256 250"/>
    <path stroke="none" fill="#344143" d="M287 192 L287 223 256 223 256 206 262.2 206 Q265.35 205.95 267.6 203.7 269.95 201.35 270 198.2 L270 192 287 192 M256 225 L320 225 320 242 256 242 256 225 M320 223 L289 223 289 192 306 192 306 198.2 Q306.05 201.35 308.3 203.7 310.65 205.95 313.8 206 L320 206 320 223"/>
    <path stroke="none" fill="#2C383A" d="M306 192 L310 192 310 198.1 Q310.05 199.7 311.15 200.85 312.3 201.95 313.9 202 L320 202 320 206 313.8 206 Q310.65 205.95 308.3 203.7 306.05 201.35 306 198.2 L306 192 M256 246 L256 242 320 242 320 246 256 246 M266 192 L270 192 270 198.2 Q269.95 201.35 267.6 203.7 265.35 205.95 262.2 206 L256 206 256 202 262.1 202 Q263.7 201.95 264.8 200.85 265.95 199.7 266 198.1 L266 192"/>
    <path stroke="none" fill="#BFD5D9" d="M320 198 L384 198 384 202 320 202 320 198 M384 246 L384 250 378 250 378 256 374 256 374 249.9 Q374.05 248.3 375.15 247.15 376.3 246.05 377.9 246 L384 246 M330 256 L326 256 326 250 320 250 320 246 326.1 246 Q327.7 246.05 328.8 247.15 329.95 248.3 330 249.9 L330 256"/>
    <path stroke="none" fill="#2C383A" d="M330 256 L330 249.9 Q329.95 248.3 328.8 247.15 327.7 246.05 326.1 246 L320 246 320 242 326.2 242 Q329.35 242.05 331.6 244.3 333.95 246.65 334 249.8 L334 256 330 256 M384 202 L384 206 320 206 320 202 384 202 M384 242 L384 246 377.9 246 Q376.3 246.05 375.15 247.15 374.05 248.3 374 249.9 L374 256 370 256 370 249.8 Q370.05 246.65 372.3 244.3 374.65 242.05 377.8 242 L384 242"/>
    <path stroke="none" fill="#21BF8F" d="M320 198 L320 192 384 192 384 198 320 198 M384 250 L384 256 378 256 378 250 384 250 M326 256 L320 256 320 250 326 250 326 256"/>
    <path stroke="none" fill="#435254" d="M384 223 L384 225 353 225 353 256 351 256 351 225 320 225 320 223 384 223"/>
    <path stroke="none" fill="#344143" d="M384 223 L320 223 320 206 384 206 384 223 M384 225 L384 242 377.8 242 Q374.65 242.05 372.3 244.3 370.05 246.65 370 249.8 L370 256 353 256 353 225 384 225 M351 256 L334 256 334 249.8 Q333.95 246.65 331.6 244.3 329.35 242.05 326.2 242 L320 242 320 225 351 225 351 256"/>
    <path stroke="none" fill="#435254" d="M351 128 L353 128 353 192 351 192 351 161 320 161 320 159 351 159 351 128"/>
    <path stroke="none" fill="#2C383A" d="M370 128 L374 128 374 192 370 192 370 128 M320 138 L326.1 138 Q327.7 137.95 328.85 136.8 329.95 135.7 330 134.1 L330 128 334 128 334 134.2 Q333.95 137.35 331.7 139.6 329.35 141.95 326.2 142 L320 142 320 138 M330 192 L330 185.9 Q329.95 184.3 328.85 183.15 327.7 182.05 326.1 182 L320 182 320 178 326.2 178 Q329.35 178.05 331.7 180.3 333.95 182.65 334 185.8 L334 192 330 192"/>
    <path stroke="none" fill="#BFD5D9" d="M330 192 L326 192 326 186 320 186 320 182 326.1 182 Q327.7 182.05 328.85 183.15 329.95 184.3 330 185.9 L330 192 M374 128 L378 128 378 192 374 192 374 128 M330 128 L330 134.1 Q329.95 135.7 328.85 136.8 327.7 137.95 326.1 138 L320 138 320 134 326 134 326 128 330 128"/>
    <path stroke="none" fill="#344143" d="M351 128 L351 159 320 159 320 142 326.2 142 Q329.35 141.95 331.7 139.6 333.95 137.35 334 134.2 L334 128 351 128 M320 161 L351 161 351 192 334 192 334 185.8 Q333.95 182.65 331.7 180.3 329.35 178.05 326.2 178 L320 178 320 161 M353 192 L353 128 370 128 370 192 353 192"/>
    <path stroke="none" fill="#21BF8F" d="M378 128 L384 128 384 192 378 192 378 128 M326 128 L326 134 320 134 320 128 326 128 M320 186 L326 186 326 192 320 192 320 186"/>
    <path stroke="none" fill="#BFD5D9" d="M630 0 L634 0 634 6 640 6 640 10 633.9 10 Q632.3 9.95 631.15 8.8 630.05 7.7 630 6.1 L630 0 M582 0 L586 0 586 6.1 Q585.95 7.7 584.85 8.8 583.7 9.95 582.1 10 L576 10 576 6 582 6 582 0 M582 64 L582 58 576 58 576 54 582.1 54 Q583.7 54.05 584.85 55.15 585.95 56.3 586 57.9 L586 64 582 64 M630 64 L630 57.9 Q630.05 56.3 631.15 55.15 632.3 54.05 633.9 54 L640 54 640 58 634 58 634 64 630 64"/>
    <path stroke="none" fill="#2C383A" d="M630 0 L630 6.1 Q630.05 7.7 631.15 8.8 632.3 9.95 633.9 10 L640 10 640 14 633.8 14 Q631.75 13.95 630 12.95 L628.3 11.6 Q626.1 9.4 626 6.3 L626 0 630 0 M590 0 L590 6.3 Q589.9 9.4 587.7 11.6 585.4 13.9 582.3 14 L576 14 576 10 582.1 10 Q583.7 9.95 584.85 8.8 585.95 7.7 586 6.1 L586 0 590 0 M576 50 L582.3 50 Q585.4 50.1 587.7 52.3 589.9 54.6 590 57.7 L590 64 586 64 586 57.9 Q585.95 56.3 584.85 55.15 583.7 54.05 582.1 54 L576 54 576 50 M626 64 L626 57.7 Q626.1 54.6 628.3 52.3 L630 51.05 Q631.75 50.05 633.8 50 L640 50 640 54 633.9 54 Q632.3 54.05 631.15 55.15 630.05 56.3 630 57.9 L630 64 626 64"/>
    <path stroke="none" fill="#344143" d="M626 64 L609 64 609 50 607 50 607 64 590 64 590 57.7 Q589.9 54.6 587.7 52.3 585.4 50.1 582.3 50 L576 50 576 33 590 33 590 31 576 31 576 14 582.3 14 Q585.4 13.9 587.7 11.6 589.9 9.4 590 6.3 L590 0 607 0 607 14 609 14 609 0 626 0 626 6.3 Q626.1 9.4 628.3 11.6 L630 12.95 Q631.75 13.95 633.8 14 L640 14 640 31 626 31 626 33 640 33 640 50 633.8 50 Q631.75 50.05 630 51.05 L628.3 52.3 Q626.1 54.6 626 57.7 L626 64"/>
    <path stroke="none" fill="#21BF8F" d="M640 6 L634 6 634 0 640 0 640 6 M582 0 L582 6 576 6 576 0 582 0 M582 64 L576 64 576 58 582 58 582 64 M634 64 L634 58 640 58 640 64 634 64"/>
    <path stroke="none" fill="#435254" d="M609 0 L609 14 607 14 607 0 609 0 M576 31 L590 31 590 33 576 33 576 31 M607 64 L607 50 609 50 609 64 607 64 M640 33 L626 33 626 31 640 31 640 33"/>
    <path stroke="none" fill="#21BF8F" d="M0 128 L64 128 64 192 0 192 0 128"/>
    <path stroke="none" fill="#344143" d="M64 192 L128 192 128 256 64 256 64 192"/>
    <path stroke="none" fill="#BFD5D9" d="M576 250 L544 250 544 249.9 Q536.4 249.9 530.3 246 527.8 244.4 525.55 242.15 L525.4 242 Q518.45 234.95 518.15 225 L518.1 224 518.15 223 Q518.35 215.95 521.9 210.25 523.25 208.05 525.15 206 L525.55 205.55 Q527.7 203.5 530.05 202 536.25 198.1 544 198.1 L544 198 576 198 576 202 542.4 202 Q536.1 202.4 531.05 206 L528.3 208.3 526.6 210.25 Q522.25 215.8 522 223 L521.95 224 522 225 Q522.3 233.45 528.3 239.45 L531.3 242 Q536.25 245.6 542.45 246 L576 246 576 250"/>
    <path stroke="none" fill="#2C383A" d="M576 202 L576 206 543.6 206 Q537.15 206.15 532.25 210.25 L531.2 211.2 Q526.35 216.25 526.05 223 L526 224 526.05 225 Q526.35 231.8 531.2 236.6 536.45 241.85 543.55 242 L576 242 576 246 542.45 246 Q536.25 245.6 531.3 242 L528.3 239.45 Q522.3 233.45 522 225 L521.95 224 522 223 Q522.25 215.8 526.6 210.25 L528.3 208.3 531.05 206 Q536.1 202.4 542.4 202 L576 202"/>
    <path stroke="none" fill="#21BF8F" d="M576 250 L576 256 512 256 512 192 576 192 576 198 544 198 544 198.1 Q536.25 198.1 530.05 202 527.7 203.5 525.55 205.55 L525.15 206 Q523.25 208.05 521.9 210.25 518.35 215.95 518.15 223 L518.1 224 518.15 225 Q518.45 234.95 525.4 242 L525.55 242.15 Q527.8 244.4 530.3 246 536.4 249.9 544 249.9 L544 250 576 250"/>
    <path stroke="none" fill="#435254" d="M576 223 L576 225 544 225 544 223 576 223"/>
    <path stroke="none" fill="#344143" d="M576 223 L544 223 544 225 576 225 576 242 543.55 242 Q536.45 241.85 531.2 236.6 526.35 231.8 526.05 225 L526 224 526.05 223 Q526.35 216.25 531.2 211.2 L532.25 210.25 Q537.15 206.15 543.6 206 L576 206 576 223"/>
    <path stroke="none" fill="#2C383A" d="M576 202 L609.55 202 Q615.75 202.4 620.7 206 L623.7 208.55 Q629.7 214.55 630 223 L630.05 224 630 225 Q629.75 232.2 625.4 237.75 L623.7 239.7 620.95 242 Q615.9 245.6 609.6 246 L576 246 576 242 608.4 242 Q614.85 241.85 619.75 237.75 L620.8 236.8 Q625.65 231.75 625.95 225 L626 224 625.95 223 Q625.65 216.2 620.8 211.4 615.55 206.15 608.45 206 L576 206 576 202"/>
    <path stroke="none" fill="#BFD5D9" d="M576 202 L576 198 608 198 608 198.1 Q615.6 198.1 621.7 202 624.2 203.6 626.45 205.85 L626.6 206 Q633.55 213.05 633.85 223 L633.9 224 633.85 225 Q633.65 232.05 630.1 237.75 628.75 239.95 626.85 242 L626.45 242.45 Q624.3 244.5 621.95 246 615.75 249.9 608 249.9 L608 250 576 250 576 246 609.6 246 Q615.9 245.6 620.95 242 L623.7 239.7 625.4 237.75 Q629.75 232.2 630 225 L630.05 224 630 223 Q629.7 214.55 623.7 208.55 L620.7 206 Q615.75 202.4 609.55 202 L576 202"/>
    <path stroke="none" fill="#21BF8F" d="M576 250 L608 250 608 249.9 Q615.75 249.9 621.95 246 624.3 244.5 626.45 242.45 L626.85 242 Q628.75 239.95 630.1 237.75 633.65 232.05 633.85 225 L633.9 224 633.85 223 Q633.55 213.05 626.6 206 L626.45 205.85 Q624.2 203.6 621.7 202 615.6 198.1 608 198.1 L608 198 576 198 576 192 640 192 640 256 576 256 576 250"/>
    <path stroke="none" fill="#344143" d="M576 206 L608.45 206 Q615.55 206.15 620.8 211.4 625.65 216.2 625.95 223 L626 224 625.95 225 Q625.65 231.75 620.8 236.8 L619.75 237.75 Q614.85 241.85 608.4 242 L576 242 576 225 608 225 608 223 576 223 576 206"/>
    <path stroke="none" fill="#435254" d="M576 223 L608 223 608 225 576 225 576 223"/>
    <path stroke="none" fill="#21BF8F" d="M518 192 L512 192 512 128 576 128 576 192 570 192 570 160 569.9 160 Q569.9 152.4 566 146.3 564.4 143.8 562.15 141.55 L562 141.4 Q554.95 134.45 545 134.15 L544 134.1 543 134.15 Q535.95 134.35 530.25 137.9 528.05 139.25 526 141.15 L525.55 141.55 Q523.5 143.7 522 146.05 518.1 152.25 518.1 160 L518 160 518 192"/>
    <path stroke="none" fill="#2C383A" d="M566 192 L562 192 562 159.55 Q561.85 152.45 556.6 147.2 551.8 142.35 545 142.05 L544 142 543 142.05 Q536.25 142.35 531.2 147.2 L530.25 148.25 Q526.15 153.15 526 159.6 L526 192 522 192 522 158.4 Q522.4 152.1 526 147.05 L528.3 144.3 530.25 142.6 Q535.8 138.25 543 138 L544 137.95 545 138 Q553.45 138.3 559.45 144.3 L562 147.3 Q565.6 152.25 566 158.45 L566 192"/>
    <path stroke="none" fill="#344143" d="M562 192 L545 192 545 160 543 160 543 192 526 192 526 159.6 Q526.15 153.15 530.25 148.25 L531.2 147.2 Q536.25 142.35 543 142.05 L544 142 545 142.05 Q551.8 142.35 556.6 147.2 561.85 152.45 562 159.55 L562 192"/>
    <path stroke="none" fill="#BFD5D9" d="M570 192 L566 192 566 158.45 Q565.6 152.25 562 147.3 L559.45 144.3 Q553.45 138.3 545 138 L544 137.95 543 138 Q535.8 138.25 530.25 142.6 L528.3 144.3 526 147.05 Q522.4 152.1 522 158.4 L522 192 518 192 518 160 518.1 160 Q518.1 152.25 522 146.05 523.5 143.7 525.55 141.55 L526 141.15 Q528.05 139.25 530.25 137.9 535.95 134.35 543 134.15 L544 134.1 545 134.15 Q554.95 134.45 562 141.4 L562.15 141.55 Q564.4 143.8 566 146.3 569.9 152.4 569.9 160 L570 160 570 192"/>
    <path stroke="none" fill="#435254" d="M545 192 L543 192 543 160 545 160 545 192"/>
    <path stroke="none" fill="#344143" d="M607 128 L607 160 609 160 609 128 626 128 626 160.45 Q625.85 167.55 620.6 172.8 615.8 177.65 609 177.95 L608 178 607 177.95 Q600.25 177.65 595.2 172.8 L594.25 171.75 Q590.15 166.85 590 160.4 L590 128 607 128"/>
    <path stroke="none" fill="#BFD5D9" d="M630 128 L634 128 634 160 633.9 160 Q633.9 167.6 630 173.7 628.4 176.2 626.15 178.45 L626 178.6 Q618.95 185.55 609 185.85 L608 185.9 607 185.85 Q599.95 185.65 594.25 182.1 592.05 180.75 590 178.85 L589.55 178.45 Q587.5 176.3 586 173.95 582.1 167.75 582.1 160 L582 160 582 128 586 128 586 161.6 Q586.4 167.9 590 172.95 L592.3 175.7 594.25 177.4 Q599.8 181.75 607 182 L608 182.05 609 182 Q617.45 181.7 623.45 175.7 L626 172.7 Q629.6 167.75 630 161.55 L630 128"/>
    <path stroke="none" fill="#21BF8F" d="M634 128 L640 128 640 192 576 192 576 128 582 128 582 160 582.1 160 Q582.1 167.75 586 173.95 587.5 176.3 589.55 178.45 L590 178.85 Q592.05 180.75 594.25 182.1 599.95 185.65 607 185.85 L608 185.9 609 185.85 Q618.95 185.55 626 178.6 L626.15 178.45 Q628.4 176.2 630 173.7 633.9 167.6 633.9 160 L634 160 634 128"/>
    <path stroke="none" fill="#2C383A" d="M626 128 L630 128 630 161.55 Q629.6 167.75 626 172.7 L623.45 175.7 Q617.45 181.7 609 182 L608 182.05 607 182 Q599.8 181.75 594.25 177.4 L592.3 175.7 590 172.95 Q586.4 167.9 586 161.6 L586 128 590 128 590 160.4 Q590.15 166.85 594.25 171.75 L595.2 172.8 Q600.25 177.65 607 177.95 L608 178 609 177.95 Q615.8 177.65 620.6 172.8 625.85 167.55 626 160.45 L626 128"/>
    <path stroke="none" fill="#435254" d="M607 128 L609 128 609 160 607 160 607 128"/>
    <path stroke="none" fill="#2C383A" d="M310 64 Q310 86.25 294.5 102.5 278.25 118 256 118 L256 114 Q276.6 114 291.65 99.65 306 84.6 306 64 L310 64"/>
    <path stroke="none" fill="#21BF8F" d="M256 122 Q279.9 122 297.35 105.35 314 87.9 314 64 L320 64 320 128 256 128 256 122"/>
    <path stroke="none" fill="#BFD5D9" d="M256 122 L256 118 Q278.25 118 294.5 102.5 310 86.25 310 64 L314 64 Q314 87.9 297.35 105.35 279.9 122 256 122"/>
    <path stroke="none" fill="#344143" d="M306 64 Q306 84.6 291.65 99.65 276.6 114 256 114 L256 64 306 64"/>
    <path stroke="none" fill="#2C383A" d="M306 64 Q306 43.4 291.65 28.35 276.6 14 256 14 L256 10 Q278.25 10 294.5 25.5 310 41.75 310 64 L306 64"/>
    <path stroke="none" fill="#BFD5D9" d="M314 64 L310 64 Q310 41.75 294.5 25.5 278.25 10 256 10 L256 6 Q279.9 6 297.35 22.65 314 40.1 314 64"/>
    <path stroke="none" fill="#21BF8F" d="M256 6 L256 0 320 0 320 64 314 64 Q314 40.1 297.35 22.65 279.9 6 256 6"/>
    <path stroke="none" fill="#344143" d="M306 64 L256 64 256 14 Q276.6 14 291.65 28.35 306 43.4 306 64"/>
    <path stroke="none" fill="#21BF8F" d="M256 6 Q232.1 6 214.65 22.65 198 40.1 198 64 L192 64 192 0 256 0 256 6"/>
    <path stroke="none" fill="#2C383A" d="M202 64 Q202 41.75 217.5 25.5 233.75 10 256 10 L256 14 Q235.4 14 220.35 28.35 206 43.4 206 64 L202 64"/>
    <path stroke="none" fill="#BFD5D9" d="M202 64 L198 64 Q198 40.1 214.65 22.65 232.1 6 256 6 L256 10 Q233.75 10 217.5 25.5 202 41.75 202 64"/>
    <path stroke="none" fill="#344143" d="M256 14 L256 64 206 64 Q206 43.4 220.35 28.35 235.4 14 256 14"/>
    <path stroke="none" fill="#21BF8F" d="M256 122 L256 128 192 128 192 64 198 64 Q198 87.9 214.65 105.35 232.1 122 256 122"/>
    <path stroke="none" fill="#2C383A" d="M202 64 L206 64 Q206 84.6 220.35 99.65 235.4 114 256 114 L256 118 Q233.75 118 217.5 102.5 202 86.25 202 64"/>
    <path stroke="none" fill="#BFD5D9" d="M198 64 L202 64 Q202 86.25 217.5 102.5 233.75 118 256 118 L256 122 Q232.1 122 214.65 105.35 198 87.9 198 64"/>
    <path stroke="none" fill="#344143" d="M206 64 L256 64 256 114 Q235.4 114 220.35 99.65 206 84.6 206 64"/>
    <path stroke="none" fill="#2C383A" d="M458 64 L462 64 462 114 512 114 512 118 461.9 118 Q460.3 117.95 459.15 116.85 458.05 115.7 458 114.1 L458 64"/>
    <path stroke="none" fill="#BFD5D9" d="M458 64 L458 114.1 Q458.05 115.7 459.15 116.85 460.3 117.95 461.9 118 L512 118 512 122 461.8 122 Q458.65 121.95 456.3 119.7 454.05 117.35 454 114.2 L454 64 458 64"/>
    <path stroke="none" fill="#21BF8F" d="M512 122 L512 128 448 128 448 64 454 64 454 114.2 Q454.05 117.35 456.3 119.7 458.65 121.95 461.8 122 L512 122"/>
    <path stroke="none" fill="#344143" d="M462 64 L512 64 512 114 462 114 462 64"/>
    <path stroke="none" fill="#21BF8F" d="M454 64 L448 64 448 0 512 0 512 6 461.8 6 Q458.65 6.05 456.3 8.3 454.05 10.65 454 13.8 L454 64"/>
    <path stroke="none" fill="#2C383A" d="M512 10 L512 14 462 14 462 64 458 64 458 13.9 Q458.05 12.3 459.15 11.15 460.3 10.05 461.9 10 L512 10"/>
    <path stroke="none" fill="#BFD5D9" d="M512 6 L512 10 461.9 10 Q460.3 10.05 459.15 11.15 458.05 12.3 458 13.9 L458 64 454 64 454 13.8 Q454.05 10.65 456.3 8.3 458.65 6.05 461.8 6 L512 6"/>
    <path stroke="none" fill="#344143" d="M512 14 L512 64 462 64 462 14 512 14"/>
    <path stroke="none" fill="#21BF8F" d="M512 6 L512 0 576 0 576 64 570 64 570 13.8 Q569.95 10.65 567.7 8.3 565.35 6.05 562.2 6 L512 6"/>
    <path stroke="none" fill="#BFD5D9" d="M512 6 L562.2 6 Q565.35 6.05 567.7 8.3 569.95 10.65 570 13.8 L570 64 566 64 566 13.9 Q565.95 12.3 564.85 11.15 563.7 10.05 562.1 10 L512 10 512 6"/>
    <path stroke="none" fill="#2C383A" d="M566 64 L562 64 562 14 512 14 512 10 562.1 10 Q563.7 10.05 564.85 11.15 565.95 12.3 566 13.9 L566 64"/>
    <path stroke="none" fill="#344143" d="M562 64 L512 64 512 14 562 14 562 64"/>
    <path stroke="none" fill="#21BF8F" d="M570 64 L576 64 576 128 512 128 512 122 562.2 122 Q565.35 121.95 567.7 119.7 569.95 117.35 570 114.2 L570 64"/>
    <path stroke="none" fill="#BFD5D9" d="M570 64 L570 114.2 Q569.95 117.35 567.7 119.7 565.35 121.95 562.2 122 L512 122 512 118 562.1 118 Q563.7 117.95 564.85 116.85 565.95 115.7 566 114.1 L566 64 570 64"/>
    <path stroke="none" fill="#2C383A" d="M512 118 L512 114 562 114 562 64 566 64 566 114.1 Q565.95 115.7 564.85 116.85 563.7 117.95 562.1 118 L512 118"/>
    <path stroke="none" fill="#344143" d="M512 114 L512 64 562 64 562 114 512 114"/>
    <path stroke="none" fill="#2C383A" d="M370 64 L374 64 374 70.1 Q374.05 71.7 375.15 72.85 376.3 73.95 377.9 74 L384 74 384 78 377.8 78 Q375.75 77.95 374 76.95 L372.3 75.7 Q370.1 73.4 370 70.3 L370 64 M384 114 L384 118 333.9 118 Q332.3 117.95 331.15 116.85 330.05 115.7 330 114.1 L330 64 334 64 334 114 384 114"/>
    <path stroke="none" fill="#344143" d="M384 114 L334 114 334 64 351 64 351 97 384 97 384 114 M384 78 L384 95 353 95 353 64 370 64 370 70.3 Q370.1 73.4 372.3 75.7 L374 76.95 Q375.75 77.95 377.8 78 L384 78"/>
    <path stroke="none" fill="#BFD5D9" d="M374 64 L378 64 378 70 384 70 384 74 377.9 74 Q376.3 73.95 375.15 72.85 374.05 71.7 374 70.1 L374 64 M384 118 L384 122 333.8 122 Q330.65 121.95 328.3 119.7 326.05 117.35 326 114.2 L326 64 330 64 330 114.1 Q330.05 115.7 331.15 116.85 332.3 117.95 333.9 118 L384 118"/>
    <path stroke="none" fill="#21BF8F" d="M378 64 L384 64 384 70 378 70 378 64 M384 122 L384 128 320 128 320 64 326 64 326 114.2 Q326.05 117.35 328.3 119.7 330.65 121.95 333.8 122 L384 122"/>
    <path stroke="none" fill="#435254" d="M384 95 L384 97 351 97 351 64 353 64 353 95 384 95"/>
    <path stroke="none" fill="#21BF8F" d="M442 64 L448 64 448 128 384 128 384 122 434.2 122 Q437.35 121.95 439.7 119.7 441.95 117.35 442 114.2 L442 64 M384 70 L384 64 390 64 390 70 384 70"/>
    <path stroke="none" fill="#2C383A" d="M384 118 L384 114 434 114 434 64 438 64 438 114.1 Q437.95 115.7 436.85 116.85 435.7 117.95 434.1 118 L384 118 M384 78 L384 74 390.1 74 Q391.7 73.95 392.85 72.85 393.95 71.7 394 70.1 L394 64 398 64 398 70.3 Q397.9 73.4 395.7 75.7 L394 76.95 Q392.25 77.95 390.2 78 L384 78"/>
    <path stroke="none" fill="#BFD5D9" d="M438 64 L442 64 442 114.2 Q441.95 117.35 439.7 119.7 437.35 121.95 434.2 122 L384 122 384 118 434.1 118 Q435.7 117.95 436.85 116.85 437.95 115.7 438 114.1 L438 64 M384 74 L384 70 390 70 390 64 394 64 394 70.1 Q393.95 71.7 392.85 72.85 391.7 73.95 390.1 74 L384 74"/>
    <path stroke="none" fill="#344143" d="M384 114 L384 97 417 97 417 64 434 64 434 114 384 114 M384 95 L384 78 390.2 78 Q392.25 77.95 394 76.95 L395.7 75.7 Q397.9 73.4 398 70.3 L398 64 415 64 415 95 384 95"/>
    <path stroke="none" fill="#435254" d="M384 95 L415 95 415 64 417 64 417 97 384 97 384 95"/>
    <path stroke="none" fill="#BFD5D9" d="M384 6 L434.2 6 Q437.35 6.05 439.7 8.3 441.95 10.65 442 13.8 L442 64 438 64 438 13.9 Q437.95 12.3 436.85 11.15 435.7 10.05 434.1 10 L384 10 384 6 M394 64 L390 64 390 58 384 58 384 54 390.1 54 Q391.7 54.05 392.85 55.15 393.95 56.3 394 57.9 L394 64"/>
    <path stroke="none" fill="#2C383A" d="M394 64 L394 57.9 Q393.95 56.3 392.85 55.15 391.7 54.05 390.1 54 L384 54 384 50 390.2 50 Q392.25 50.05 394 51.05 L395.7 52.3 Q397.9 54.6 398 57.7 L398 64 394 64 M384 10 L434.1 10 Q435.7 10.05 436.85 11.15 437.95 12.3 438 13.9 L438 64 434 64 434 14 384 14 384 10"/>
    <path stroke="none" fill="#21BF8F" d="M442 64 L442 13.8 Q441.95 10.65 439.7 8.3 437.35 6.05 434.2 6 L384 6 384 0 448 0 448 64 442 64 M390 64 L384 64 384 58 390 58 390 64"/>
    <path stroke="none" fill="#344143" d="M384 14 L434 14 434 64 417 64 417 31 384 31 384 14 M415 64 L398 64 398 57.7 Q397.9 54.6 395.7 52.3 L394 51.05 Q392.25 50.05 390.2 50 L384 50 384 33 415 33 415 64"/>
    <path stroke="none" fill="#435254" d="M417 64 L415 64 415 33 384 33 384 31 417 31 417 64"/>
    <path stroke="none" fill="#344143" d="M384 14 L384 31 351 31 351 64 334 64 334 14 384 14 M384 33 L384 50 377.8 50 Q375.75 50.05 374 51.05 373.1 51.55 372.3 52.3 370.1 54.6 370 57.7 L370 64 353 64 353 33 384 33"/>
    <path stroke="none" fill="#435254" d="M384 33 L353 33 353 64 351 64 351 31 384 31 384 33"/>
    <path stroke="none" fill="#2C383A" d="M384 10 L384 14 334 14 334 64 330 64 330 13.9 Q330.05 12.3 331.15 11.15 332.3 10.05 333.9 10 L384 10 M384 50 L384 54 377.9 54 Q376.3 54.05 375.15 55.15 374.05 56.3 374 57.9 L374 64 370 64 370 57.7 Q370.1 54.6 372.3 52.3 373.1 51.55 374 51.05 375.75 50.05 377.8 50 L384 50"/>
    <path stroke="none" fill="#BFD5D9" d="M384 6 L384 10 333.9 10 Q332.3 10.05 331.15 11.15 330.05 12.3 330 13.9 L330 64 326 64 326 13.8 Q326.05 10.65 328.3 8.3 330.65 6.05 333.8 6 L384 6 M384 54 L384 58 378 58 378 64 374 64 374 57.9 Q374.05 56.3 375.15 55.15 376.3 54.05 377.9 54 L384 54"/>
    <path stroke="none" fill="#21BF8F" d="M326 64 L320 64 320 0 384 0 384 6 333.8 6 Q330.65 6.05 328.3 8.3 326.05 10.65 326 13.8 L326 64 M384 58 L384 64 378 64 378 58 384 58"/>
    <path stroke="none" fill="#83D9FF" d="M256 270 Q235.4 270 220.35 284.35 206 299.4 206 320 L202 320 Q202 297.75 217.5 281.5 233.75 266 256 266 L256 270"/>
    <path stroke="none" fill="#1BB184" d="M198 320 Q198 296.1 214.65 278.65 232.1 262 256 262 L256 266 Q233.75 266 217.5 281.5 202 297.75 202 320 L198 320"/>
    <path stroke="none" fill="#21BF8F" d="M198 320 L192 320 192 256 256 256 256 262 Q232.1 262 214.65 278.65 198 296.1 198 320"/>
    <path stroke="none" fill="#67CAF5" d="M256 270 L256 320 206 320 Q206 299.4 220.35 284.35 235.4 270 256 270"/>
    <path stroke="none" fill="#21BF8F" d="M256 262 L256 256 320 256 320 320 314 320 Q314 296.1 297.35 278.65 279.9 262 256 262"/>
    <path stroke="none" fill="#1BB184" d="M256 262 Q279.9 262 297.35 278.65 314 296.1 314 320 L310 320 Q310 297.75 294.5 281.5 278.25 266 256 266 L256 262"/>
    <path stroke="none" fill="#83D9FF" d="M310 320 L306 320 Q306 299.4 291.65 284.35 276.6 270 256 270 L256 266 Q278.25 266 294.5 281.5 310 297.75 310 320"/>
    <path stroke="none" fill="#67CAF5" d="M306 320 L256 320 256 270 Q276.6 270 291.65 284.35 306 299.4 306 320"/>
    <path stroke="none" fill="#21BF8F" d="M256 378 L256 384 192 384 192 320 198 320 Q198 343.9 214.65 361.35 232.1 378 256 378"/>
    <path stroke="none" fill="#1BB184" d="M256 378 Q232.1 378 214.65 361.35 198 343.9 198 320 L202 320 Q202 342.25 217.5 358.5 233.75 374 256 374 L256 378"/>
    <path stroke="none" fill="#83D9FF" d="M202 320 L206 320 Q206 340.6 220.35 355.65 235.4 370 256 370 L256 374 Q233.75 374 217.5 358.5 202 342.25 202 320"/>
    <path stroke="none" fill="#67CAF5" d="M206 320 L256 320 256 370 Q235.4 370 220.35 355.65 206 340.6 206 320"/>
    <path stroke="none" fill="#83D9FF" d="M256 374 L256 370 Q276.6 370 291.65 355.65 306 340.6 306 320 L310 320 Q310 342.25 294.5 358.5 278.25 374 256 374"/>
    <path stroke="none" fill="#1BB184" d="M256 374 Q278.25 374 294.5 358.5 310 342.25 310 320 L314 320 Q314 343.9 297.35 361.35 279.9 378 256 378 L256 374"/>
    <path stroke="none" fill="#21BF8F" d="M314 320 L320 320 320 384 256 384 256 378 Q279.9 378 297.35 361.35 314 343.9 314 320"/>
    <path stroke="none" fill="#67CAF5" d="M256 370 L256 320 306 320 Q306 340.6 291.65 355.65 276.6 370 256 370"/>
    <path stroke="none" fill="#1BB184" d="M6 256 L10 256 10 320 6 320 6 256 M54 256 L58 256 58 320 54 320 54 256"/>
    <path stroke="none" fill="#83D9FF" d="M54 256 L54 320 50 320 50 256 54 256 M10 256 L14 256 14 320 10 320 10 256"/>
    <path stroke="none" fill="#21BF8F" d="M6 320 L0 320 0 256 6 256 6 320 M58 256 L64 256 64 320 58 320 58 256"/>
    <path stroke="none" fill="#67CAF5" d="M14 256 L50 256 50 320 14 320 14 256"/>
    <path stroke="none" fill="#21BF8F" d="M0 326 L0 320 64 320 64 326 0 326 M64 378 L64 384 0 384 0 378 64 378"/>
    <path stroke="none" fill="#83D9FF" d="M64 330 L64 334 0 334 0 330 64 330 M64 370 L64 374 0 374 0 370 64 370"/>
    <path stroke="none" fill="#1BB184" d="M0 330 L0 326 64 326 64 330 0 330 M64 374 L64 378 0 378 0 374 64 374"/>
    <path stroke="none" fill="#67CAF5" d="M64 334 L64 370 0 370 0 334 64 334"/>
    <path stroke="none" fill="#21BF8F" d="M58 384 L64 384 64 448 58 448 58 384 M6 448 L0 448 0 384 6 384 6 448"/>
    <path stroke="none" fill="#D9B783" d="M6 448 L6 384 10 384 10 448 6 448 M54 384 L58 384 58 448 54 448 54 384"/>
    <path stroke="none" fill="#83D9FF" d="M46 448 L42 448 42 384 46 384 46 448 M22 448 L18 448 18 384 22 384 22 448"/>
    <path stroke="none" fill="#EED1A6" d="M46 384 L54 384 54 448 46 448 46 384 M18 448 L10 448 10 384 18 384 18 448"/>
    <path stroke="none" fill="#67CAF5" d="M42 448 L22 448 22 384 42 384 42 448"/>
    <path stroke="none" fill="#D9B783" d="M64 454 L64 458 0 458 0 454 64 454 M64 502 L64 506 0 506 0 502 64 502"/>
    <path stroke="none" fill="#83D9FF" d="M64 466 L64 470 0 470 0 466 64 466 M64 490 L64 494 0 494 0 490 64 490"/>
    <path stroke="none" fill="#EED1A6" d="M64 458 L64 466 0 466 0 458 64 458 M64 494 L64 502 0 502 0 494 64 494"/>
    <path stroke="none" fill="#21BF8F" d="M0 454 L0 448 64 448 64 454 0 454 M64 506 L64 512 0 512 0 506 64 506"/>
    <path stroke="none" fill="#67CAF5" d="M64 470 L64 490 0 490 0 470 64 470"/>
    <path stroke="none" fill="#1BB184" d="M74 320 L70 320 70 256 74 256 74 320"/>
    <path stroke="none" fill="#83D9FF" d="M74 320 L74 256 78 256 78 320 74 320"/>
    <path stroke="none" fill="#67CAF5" d="M78 256 L128 256 128 320 78 320 78 256"/>
    <path stroke="none" fill="#21BF8F" d="M70 320 L64 320 64 256 70 256 70 320"/>
    <path stroke="none" fill="#67CAF5" d="M178 320 L128 320 128 256 178 256 178 320"/>
    <path stroke="none" fill="#21BF8F" d="M186 256 L192 256 192 320 186 320 186 256"/>
    <path stroke="none" fill="#1BB184" d="M186 256 L186 320 182 320 182 256 186 256"/>
    <path stroke="none" fill="#83D9FF" d="M178 320 L178 256 182 256 182 320 178 320"/>
    <path stroke="none" fill="#1BB184" d="M128 326 L192 326 192 330 128 330 128 326"/>
    <path stroke="none" fill="#83D9FF" d="M192 330 L192 334 128 334 128 330 192 330"/>
    <path stroke="none" fill="#21BF8F" d="M128 326 L128 320 192 320 192 326 128 326"/>
    <path stroke="none" fill="#67CAF5" d="M192 334 L192 384 128 384 128 334 192 334"/>
    <path stroke="none" fill="#67CAF5" d="M64 370 L64 320 128 320 128 370 64 370"/>
    <path stroke="none" fill="#83D9FF" d="M64 370 L128 370 128 374 64 374 64 370"/>
    <path stroke="none" fill="#1BB184" d="M128 374 L128 378 64 378 64 374 128 374"/>
    <path stroke="none" fill="#21BF8F" d="M128 378 L128 384 64 384 64 378 128 378"/>
    <path stroke="none" fill="#EED1A6" d="M384 393.95 Q395.45 393.95 405.3 398.05 414.6 401.95 422.5 409.5 428.35 415.6 432 422.6 L433.6 425.95 Q438.05 436.1 438.05 448 L430 448 Q430 435.95 424.65 425.95 421.6 420.25 416.8 415.2 411.45 410.1 405.3 406.95 395.6 402 384 402 L384 393.95 M402 448 L394 448 Q394 443.9 391.1 440.9 388.1 438 384 438 L384 430 Q391.4 430 396.8 435.2 402 440.6 402 448"/>
    <path stroke="none" fill="#D9B783" d="M384 390 Q392.25 390 399.75 392 402.6 392.75 405.3 393.8 416.2 397.95 425.35 406.65 429.1 410.6 432 414.9 435.6 420.15 437.9 425.95 442 436.2 442 448 L438.05 448 Q438.05 436.1 433.6 425.95 L432 422.6 Q428.35 415.6 422.5 409.5 414.6 401.95 405.3 398.05 395.45 393.95 384 393.95 L384 390 M394 448 L390 448 Q390 445.55 388.25 443.75 386.45 442 384 442 L384 438 Q388.1 438 391.1 440.9 394 443.9 394 448"/>
    <path stroke="none" fill="#21BF8F" d="M442 448 Q442 436.2 437.9 425.95 435.6 420.15 432 414.9 429.1 410.6 425.35 406.65 416.2 397.95 405.3 393.8 402.6 392.75 399.75 392 392.25 390 384 390 L384 384 448 384 448 448 442 448 M390 448 L384 448 384 442 Q386.45 442 388.25 443.75 390 445.55 390 448"/>
    <path stroke="none" fill="#83D9FF" d="M430 448 L426 448 Q426 435.8 420 425.95 417.5 421.8 413.95 418.05 409.85 414.15 405.3 411.55 395.7 406 384 406 L384 402 Q395.6 402 405.3 406.95 411.45 410.1 416.8 415.2 421.6 420.25 424.65 425.95 430 435.95 430 448 M406 448 L402 448 Q402 440.6 396.8 435.2 391.4 430 384 430 L384 426 Q393.05 426 399.65 432.35 406 438.95 406 448"/>
    <path stroke="none" fill="#67CAF5" d="M406 448 Q406 438.95 399.65 432.35 393.05 426 384 426 L384 406 Q395.7 406 405.3 411.55 409.85 414.15 413.95 418.05 417.5 421.8 420 425.95 426 435.8 426 448 L406 448"/>
    <path stroke="none" fill="#D9B783" d="M384 390 L384 393.95 Q372.55 393.95 362.7 398.05 353.4 401.95 345.5 409.5 339.65 415.6 336 422.6 L334.4 425.95 Q329.95 436.1 329.95 448 L326 448 Q326 436.2 330.1 425.95 332.4 420.15 336 414.9 338.9 410.6 342.65 406.65 351.8 397.95 362.7 393.8 365.4 392.75 368.25 392 375.75 390 384 390 M384 438 L384 442 Q381.55 442 379.75 443.75 378 445.55 378 448 L374 448 Q374 443.9 376.9 440.9 379.9 438 384 438"/>
    <path stroke="none" fill="#83D9FF" d="M384 402 L384 406 Q372.3 406 362.7 411.55 358.15 414.15 354.05 418.05 350.5 421.8 348 425.95 342 435.8 342 448 L338 448 Q338 435.95 343.35 425.95 346.4 420.25 351.2 415.2 356.55 410.1 362.7 406.95 372.4 402 384 402 M384 426 L384 430 Q376.6 430 371.2 435.2 366 440.6 366 448 L362 448 Q362 438.95 368.35 432.35 374.95 426 384 426"/>
    <path stroke="none" fill="#EED1A6" d="M329.95 448 Q329.95 436.1 334.4 425.95 L336 422.6 Q339.65 415.6 345.5 409.5 353.4 401.95 362.7 398.05 372.55 393.95 384 393.95 L384 402 Q372.4 402 362.7 406.95 356.55 410.1 351.2 415.2 346.4 420.25 343.35 425.95 338 435.95 338 448 L329.95 448 M384 430 L384 438 Q379.9 438 376.9 440.9 374 443.9 374 448 L366 448 Q366 440.6 371.2 435.2 376.6 430 384 430"/>
    <path stroke="none" fill="#21BF8F" d="M384 390 Q375.75 390 368.25 392 365.4 392.75 362.7 393.8 351.8 397.95 342.65 406.65 338.9 410.6 336 414.9 332.4 420.15 330.1 425.95 326 436.2 326 448 L320 448 320 384 384 384 384 390 M384 442 L384 448 378 448 Q378 445.55 379.75 443.75 381.55 442 384 442"/>
    <path stroke="none" fill="#67CAF5" d="M384 406 L384 426 Q374.95 426 368.35 432.35 362 438.95 362 448 L342 448 Q342 435.8 348 425.95 350.5 421.8 354.05 418.05 358.15 414.15 362.7 411.55 372.3 406 384 406"/>
    <path stroke="none" fill="#83D9FF" d="M338 448 L342 448 Q342 460.2 348 470.05 350.5 474.2 354.05 477.95 358.15 481.85 362.7 484.45 372.3 490 384 490 L384 494 Q372.4 494 362.7 489.05 356.55 485.9 351.2 480.8 346.4 475.75 343.35 470.05 338 460.05 338 448 M362 448 L366 448 Q366 455.4 371.2 460.8 376.6 466 384 466 L384 470 Q374.95 470 368.35 463.65 362 457.05 362 448"/>
    <path stroke="none" fill="#D9B783" d="M374 448 L378 448 Q378 450.45 379.75 452.25 381.55 454 384 454 L384 458 Q379.9 458 376.9 455.1 374 452.1 374 448 M384 502.05 L384 506 Q375.75 506 368.25 504 365.4 503.25 362.7 502.2 351.8 498.05 342.65 489.35 338.9 485.4 336 481.1 332.4 475.85 330.1 470.05 326 459.8 326 448 L329.95 448 Q329.95 459.9 334.4 470.05 L336 473.4 Q339.65 480.4 345.5 486.5 353.4 494.05 362.7 497.95 372.55 502.05 384 502.05"/>
    <path stroke="none" fill="#21BF8F" d="M378 448 L384 448 384 454 Q381.55 454 379.75 452.25 378 450.45 378 448 M384 506 L384 512 320 512 320 448 326 448 Q326 459.8 330.1 470.05 332.4 475.85 336 481.1 338.9 485.4 342.65 489.35 351.8 498.05 362.7 502.2 365.4 503.25 368.25 504 375.75 506 384 506"/>
    <path stroke="none" fill="#EED1A6" d="M366 448 L374 448 Q374 452.1 376.9 455.1 379.9 458 384 458 L384 466 Q376.6 466 371.2 460.8 366 455.4 366 448 M384 494 L384 502.05 Q372.55 502.05 362.7 497.95 353.4 494.05 345.5 486.5 339.65 480.4 336 473.4 L334.4 470.05 Q329.95 459.9 329.95 448 L338 448 Q338 460.05 343.35 470.05 346.4 475.75 351.2 480.8 356.55 485.9 362.7 489.05 372.4 494 384 494"/>
    <path stroke="none" fill="#67CAF5" d="M342 448 L362 448 Q362 457.05 368.35 463.65 374.95 470 384 470 L384 490 Q372.3 490 362.7 484.45 358.15 481.85 354.05 477.95 350.5 474.2 348 470.05 342 460.2 342 448"/>
    <path stroke="none" fill="#D9B783" d="M384 502.05 Q395.45 502.05 405.3 497.95 414.6 494.05 422.5 486.5 428.35 480.4 432 473.4 L433.6 470.05 Q438.05 459.9 438.05 448 L442 448 Q442 459.8 437.9 470.05 435.6 475.85 432 481.1 429.1 485.4 425.35 489.35 416.2 498.05 405.3 502.2 L399.75 504 Q392.25 506 384 506 L384 502.05 M390 448 L394 448 Q394 452.1 391.1 455.1 388.1 458 384 458 L384 454 Q386.45 454 388.25 452.25 390 450.45 390 448"/>
    <path stroke="none" fill="#21BF8F" d="M384 506 Q392.25 506 399.75 504 L405.3 502.2 Q416.2 498.05 425.35 489.35 429.1 485.4 432 481.1 435.6 475.85 437.9 470.05 442 459.8 442 448 L448 448 448 512 384 512 384 506 M390 448 Q390 450.45 388.25 452.25 386.45 454 384 454 L384 448 390 448"/>
    <path stroke="none" fill="#EED1A6" d="M438.05 448 Q438.05 459.9 433.6 470.05 L432 473.4 Q428.35 480.4 422.5 486.5 414.6 494.05 405.3 497.95 395.45 502.05 384 502.05 L384 494 Q395.6 494 405.3 489.05 411.45 485.9 416.8 480.8 421.6 475.75 424.65 470.05 430 460.05 430 448 L438.05 448 M384 458 Q388.1 458 391.1 455.1 394 452.1 394 448 L402 448 Q402 455.4 396.8 460.8 391.4 466 384 466 L384 458"/>
    <path stroke="none" fill="#83D9FF" d="M430 448 Q430 460.05 424.65 470.05 421.6 475.75 416.8 480.8 411.45 485.9 405.3 489.05 395.6 494 384 494 L384 490 Q395.7 490 405.3 484.45 409.85 481.85 413.95 477.95 417.5 474.2 420 470.05 426 460.2 426 448 L430 448 M402 448 L406 448 Q406 457.05 399.65 463.65 393.05 470 384 470 L384 466 Q391.4 466 396.8 460.8 402 455.4 402 448"/>
    <path stroke="none" fill="#67CAF5" d="M406 448 L426 448 Q426 460.2 420 470.05 417.5 474.2 413.95 477.95 409.85 481.85 405.3 484.45 395.7 490 384 490 L384 470 Q393.05 470 399.65 463.65 406 457.05 406 448"/>
    <path stroke="none" fill="#D9B783" d="M384 262 L384 265.95 Q372.55 265.95 362.7 270.05 353.4 273.95 345.5 281.5 339.65 287.6 336 294.6 L334.4 297.95 Q329.95 308.1 329.95 320 L326 320 Q326 308.2 330.1 297.95 332.4 292.15 336 286.9 338.9 282.6 342.65 278.65 351.8 269.95 362.7 265.8 365.4 264.75 368.25 264 375.75 262 384 262"/>
    <path stroke="none" fill="#EED1A6" d="M329.95 320 Q329.95 308.1 334.4 297.95 L336 294.6 Q339.65 287.6 345.5 281.5 353.4 273.95 362.7 270.05 372.55 265.95 384 265.95 L384 274 Q372.4 274 362.7 278.95 356.55 282.1 351.2 287.2 346.4 292.25 343.35 297.95 338 307.95 338 320 L329.95 320"/>
    <path stroke="none" fill="#83D9FF" d="M338 320 Q338 307.95 343.35 297.95 346.4 292.25 351.2 287.2 356.55 282.1 362.7 278.95 372.4 274 384 274 L384 278 Q372.3 278 362.7 283.55 358.15 286.15 354.05 290.05 350.5 293.8 348 297.95 342 307.8 342 320 L338 320"/>
    <path stroke="none" fill="#67CAF5" d="M342 320 Q342 307.8 348 297.95 350.5 293.8 354.05 290.05 358.15 286.15 362.7 283.55 372.3 278 384 278 L384 320 342 320"/>
    <path stroke="none" fill="#21BF8F" d="M384 262 Q375.75 262 368.25 264 365.4 264.75 362.7 265.8 351.8 269.95 342.65 278.65 338.9 282.6 336 286.9 332.4 292.15 330.1 297.95 326 308.2 326 320 L320 320 320 256 384 256 384 262"/>
    <path stroke="none" fill="#D9B783" d="M438.05 320 Q438.05 308.1 433.6 297.95 L432 294.6 Q428.35 287.6 422.5 281.5 414.6 273.95 405.3 270.05 395.45 265.95 384 265.95 L384 262 Q392.25 262 399.75 264 402.6 264.75 405.3 265.8 416.2 269.95 425.35 278.65 429.1 282.6 432 286.9 435.6 292.15 437.9 297.95 442 308.2 442 320 L438.05 320"/>
    <path stroke="none" fill="#21BF8F" d="M442 320 Q442 308.2 437.9 297.95 435.6 292.15 432 286.9 429.1 282.6 425.35 278.65 416.2 269.95 405.3 265.8 402.6 264.75 399.75 264 392.25 262 384 262 L384 256 448 256 448 320 442 320"/>
    <path stroke="none" fill="#83D9FF" d="M384 274 Q395.6 274 405.3 278.95 411.45 282.1 416.8 287.2 421.6 292.25 424.65 297.95 430 307.95 430 320 L426 320 Q426 307.8 420 297.95 417.5 293.8 413.95 290.05 409.85 286.15 405.3 283.55 395.7 278 384 278 L384 274"/>
    <path stroke="none" fill="#EED1A6" d="M384 274 L384 265.95 Q395.45 265.95 405.3 270.05 414.6 273.95 422.5 281.5 428.35 287.6 432 294.6 L433.6 297.95 Q438.05 308.1 438.05 320 L430 320 Q430 307.95 424.65 297.95 421.6 292.25 416.8 287.2 411.45 282.1 405.3 278.95 395.6 274 384 274"/>
    <path stroke="none" fill="#67CAF5" d="M384 278 Q395.7 278 405.3 283.55 409.85 286.15 413.95 290.05 417.5 293.8 420 297.95 426 307.8 426 320 L384 320 384 278"/>
    <path stroke="none" fill="#83D9FF" d="M384 366 L384 362 Q395.7 362 405.3 356.45 409.85 353.85 413.95 349.95 417.5 346.2 420 342.05 426 332.2 426 320 L430 320 Q430 332.05 424.65 342.05 421.6 347.75 416.8 352.8 411.45 357.9 405.3 361.05 395.6 366 384 366"/>
    <path stroke="none" fill="#67CAF5" d="M426 320 Q426 332.2 420 342.05 417.5 346.2 413.95 349.95 409.85 353.85 405.3 356.45 395.7 362 384 362 L384 320 426 320"/>
    <path stroke="none" fill="#21BF8F" d="M384 378 Q392.25 378 399.75 376 L405.3 374.2 Q416.2 370.05 425.35 361.35 429.1 357.4 432 353.1 435.6 347.85 437.9 342.05 442 331.8 442 320 L448 320 448 384 384 384 384 378"/>
    <path stroke="none" fill="#D9B783" d="M384 378 L384 374.05 Q395.45 374.05 405.3 369.95 414.6 366.05 422.5 358.5 428.35 352.4 432 345.4 L433.6 342.05 Q438.05 331.9 438.05 320 L442 320 Q442 331.8 437.9 342.05 435.6 347.85 432 353.1 429.1 357.4 425.35 361.35 416.2 370.05 405.3 374.2 L399.75 376 Q392.25 378 384 378"/>
    <path stroke="none" fill="#EED1A6" d="M384 366 Q395.6 366 405.3 361.05 411.45 357.9 416.8 352.8 421.6 347.75 424.65 342.05 430 332.05 430 320 L438.05 320 Q438.05 331.9 433.6 342.05 L432 345.4 Q428.35 352.4 422.5 358.5 414.6 366.05 405.3 369.95 395.45 374.05 384 374.05 L384 366"/>
    <path stroke="none" fill="#83D9FF" d="M338 320 L342 320 Q342 332.2 348 342.05 350.5 346.2 354.05 349.95 358.15 353.85 362.7 356.45 372.3 362 384 362 L384 366 Q372.4 366 362.7 361.05 356.55 357.9 351.2 352.8 346.4 347.75 343.35 342.05 338 332.05 338 320"/>
    <path stroke="none" fill="#D9B783" d="M384 374.05 L384 378 Q375.75 378 368.25 376 365.4 375.25 362.7 374.2 351.8 370.05 342.65 361.35 338.9 357.4 336 353.1 332.4 347.85 330.1 342.05 326 331.8 326 320 L329.95 320 Q329.95 331.9 334.4 342.05 L336 345.4 Q339.65 352.4 345.5 358.5 353.4 366.05 362.7 369.95 372.55 374.05 384 374.05"/>
    <path stroke="none" fill="#21BF8F" d="M384 378 L384 384 320 384 320 320 326 320 Q326 331.8 330.1 342.05 332.4 347.85 336 353.1 338.9 357.4 342.65 361.35 351.8 370.05 362.7 374.2 365.4 375.25 368.25 376 375.75 378 384 378"/>
    <path stroke="none" fill="#EED1A6" d="M384 366 L384 374.05 Q372.55 374.05 362.7 369.95 353.4 366.05 345.5 358.5 339.65 352.4 336 345.4 L334.4 342.05 Q329.95 331.9 329.95 320 L338 320 Q338 332.05 343.35 342.05 346.4 347.75 351.2 352.8 356.55 357.9 362.7 361.05 372.4 366 384 366"/>
    <path stroke="none" fill="#67CAF5" d="M342 320 L384 320 384 362 Q372.3 362 362.7 356.45 358.15 353.85 354.05 349.95 350.5 346.2 348 342.05 342 332.2 342 320"/>
    <path stroke="none" fill="#67CAF5" d="M306 448 L270 448 Q270 444.4 268.4 441.4 267.45 439.6 265.95 438.05 262.8 435 258.8 434.25 L256 434 256 398 Q276.6 398 291.65 412.35 306 427.4 306 448"/>
    <path stroke="none" fill="#83D9FF" d="M306 448 Q306 427.4 291.65 412.35 276.6 398 256 398 L256 394 Q278.25 394 294.5 409.5 310 425.75 310 448 L306 448 M270 448 L266 448 Q266 445.55 264.95 443.5 264.25 442.1 263.1 440.9 261.2 439.05 258.8 438.4 L256 438 256 434 258.8 434.25 Q262.8 435 265.95 438.05 267.45 439.6 268.4 441.4 270 444.4 270 448"/>
    <path stroke="none" fill="#1BB184" d="M256 394 L256 390 Q279.9 390 297.35 406.65 314 424.1 314 448 L310 448 Q310 425.75 294.5 409.5 278.25 394 256 394 M266 448 L262 448 Q262 445.55 260.25 443.75 L259.95 443.5 258.8 442.7 Q257.55 442 256 442 L256 438 258.8 438.4 Q261.2 439.05 263.1 440.9 264.25 442.1 264.95 443.5 266 445.55 266 448"/>
    <path stroke="none" fill="#21BF8F" d="M256 390 L256 384 320 384 320 448 314 448 Q314 424.1 297.35 406.65 279.9 390 256 390 M262 448 L256 448 256 442 Q257.55 442 258.8 442.7 L259.95 443.5 260.25 443.75 Q262 445.55 262 448"/>
    <path stroke="none" fill="#83D9FF" d="M266 448 L270 448 269.75 450.8 Q269 454.8 265.95 457.95 264.4 459.45 262.6 460.4 259.6 462 256 462 L256 458 Q258.45 458 260.5 456.95 L263.1 455.1 Q264.95 453.2 265.6 450.8 266 449.45 266 448 M306 448 L310 448 Q310 470.25 294.5 486.5 278.25 502 256 502 L256 498 Q276.6 498 291.65 483.65 306 468.6 306 448"/>
    <path stroke="none" fill="#1BB184" d="M310 448 L314 448 Q314 471.9 297.35 489.35 279.9 506 256 506 L256 502 Q278.25 502 294.5 486.5 310 470.25 310 448 M256 458 L256 454 Q258.45 454 260.25 452.25 L260.5 451.95 261.3 450.8 Q262 449.55 262 448 L266 448 Q266 449.45 265.6 450.8 264.95 453.2 263.1 455.1 L260.5 456.95 Q258.45 458 256 458"/>
    <path stroke="none" fill="#67CAF5" d="M270 448 L306 448 Q306 468.6 291.65 483.65 276.6 498 256 498 L256 462 Q259.6 462 262.6 460.4 264.4 459.45 265.95 457.95 269 454.8 269.75 450.8 L270 448"/>
    <path stroke="none" fill="#21BF8F" d="M314 448 L320 448 320 512 256 512 256 506 Q279.9 506 297.35 489.35 314 471.9 314 448 M256 454 L256 448 262 448 Q262 449.55 261.3 450.8 L260.5 451.95 260.25 452.25 Q258.45 454 256 454"/>
    <path stroke="none" fill="#1BB184" d="M256 438 L256 442 Q254.45 442 253.2 442.7 252.6 443 252.05 443.5 L251.75 443.75 Q250 445.55 250 448 L246 448 Q246 445.55 247.05 443.5 247.75 442.1 248.9 440.9 250.8 439.05 253.2 438.4 L256 438 M202 448 L198 448 Q198 424.1 214.65 406.65 232.1 390 256 390 L256 394 Q233.75 394 217.5 409.5 202 425.75 202 448"/>
    <path stroke="none" fill="#83D9FF" d="M202 448 Q202 425.75 217.5 409.5 233.75 394 256 394 L256 398 Q235.4 398 220.35 412.35 206 427.4 206 448 L202 448 M256 434 L256 438 253.2 438.4 Q250.8 439.05 248.9 440.9 247.75 442.1 247.05 443.5 246 445.55 246 448 L242 448 Q242 444.4 243.6 441.4 244.55 439.6 246.05 438.05 249.2 435 253.2 434.25 L256 434"/>
    <path stroke="none" fill="#67CAF5" d="M256 434 L253.2 434.25 Q249.2 435 246.05 438.05 244.55 439.6 243.6 441.4 242 444.4 242 448 L206 448 Q206 427.4 220.35 412.35 235.4 398 256 398 L256 434"/>
    <path stroke="none" fill="#21BF8F" d="M256 442 L256 448 250 448 Q250 445.55 251.75 443.75 L252.05 443.5 Q252.6 443 253.2 442.7 254.45 442 256 442 M198 448 L192 448 192 384 256 384 256 390 Q232.1 390 214.65 406.65 198 424.1 198 448"/>
    <path stroke="none" fill="#21BF8F" d="M198 448 Q198 471.9 214.65 489.35 232.1 506 256 506 L256 512 192 512 192 448 198 448 M250 448 L256 448 256 454 Q253.55 454 251.75 452.25 L251.5 451.95 250.7 450.8 Q250 449.55 250 448"/>
    <path stroke="none" fill="#83D9FF" d="M256 502 Q233.75 502 217.5 486.5 202 470.25 202 448 L206 448 Q206 468.6 220.35 483.65 235.4 498 256 498 L256 502 M242 448 L246 448 Q246 449.45 246.4 450.8 247.05 453.2 248.9 455.1 250.1 456.25 251.5 456.95 253.55 458 256 458 L256 462 Q252.4 462 249.4 460.4 247.6 459.45 246.05 457.95 243 454.8 242.25 450.8 L242 448"/>
    <path stroke="none" fill="#1BB184" d="M198 448 L202 448 Q202 470.25 217.5 486.5 233.75 502 256 502 L256 506 Q232.1 506 214.65 489.35 198 471.9 198 448 M246 448 L250 448 Q250 449.55 250.7 450.8 L251.5 451.95 251.75 452.25 Q253.55 454 256 454 L256 458 Q253.55 458 251.5 456.95 250.1 456.25 248.9 455.1 247.05 453.2 246.4 450.8 246 449.45 246 448"/>
    <path stroke="none" fill="#67CAF5" d="M206 448 L242 448 242.25 450.8 Q243 454.8 246.05 457.95 247.6 459.45 249.4 460.4 252.4 462 256 462 L256 498 Q235.4 498 220.35 483.65 206 468.6 206 448"/>
    <path stroke="none" fill="#67CAF5" d="M0 192 L64 192 64 256 0 256 0 192"/>
    <path stroke="none" fill="#D9B783" d="M74 448 L70 448 70 384 74 384 74 448"/>
    <path stroke="none" fill="#83D9FF" d="M82 384 L86 384 86 448 82 448 82 384"/>
    <path stroke="none" fill="#EED1A6" d="M82 384 L82 448 74 448 74 384 82 384"/>
    <path stroke="none" fill="#67CAF5" d="M86 384 L128 384 128 448 86 448 86 384"/>
    <path stroke="none" fill="#21BF8F" d="M70 448 L64 448 64 384 70 384 70 448"/>
    <path stroke="none" fill="#D9B783" d="M186 384 L186 448 182 448 182 384 186 384"/>
    <path stroke="none" fill="#21BF8F" d="M186 384 L192 384 192 448 186 448 186 384"/>
    <path stroke="none" fill="#83D9FF" d="M174 448 L170 448 170 384 174 384 174 448"/>
    <path stroke="none" fill="#EED1A6" d="M174 448 L174 384 182 384 182 448 174 448"/>
    <path stroke="none" fill="#67CAF5" d="M170 448 L128 448 128 384 170 384 170 448"/>
    <path stroke="none" fill="#EED1A6" d="M192 458 L192 466 128 466 128 458 192 458"/>
    <path stroke="none" fill="#83D9FF" d="M192 466 L192 470 128 470 128 466 192 466"/>
    <path stroke="none" fill="#D9B783" d="M128 454 L192 454 192 458 128 458 128 454"/>
    <path stroke="none" fill="#21BF8F" d="M128 454 L128 448 192 448 192 454 128 454"/>
    <path stroke="none" fill="#67CAF5" d="M192 470 L192 512 128 512 128 470 192 470"/>
    <path stroke="none" fill="#D9B783" d="M64 506 L64 502 128 502 128 506 64 506"/>
    <path stroke="none" fill="#83D9FF" d="M64 494 L64 490 128 490 128 494 64 494"/>
    <path stroke="none" fill="#EED1A6" d="M64 494 L128 494 128 502 64 502 64 494"/>
    <path stroke="none" fill="#21BF8F" d="M128 506 L128 512 64 512 64 506 128 506"/>
    <path stroke="none" fill="#67CAF5" d="M64 490 L64 448 128 448 128 490 64 490"/>
    <path stroke="none" fill="#BFD5D9" d="M576 70 Q577.55 70 578.8 69.3 L579.95 68.5 580.25 68.25 Q582 66.45 582 64 L586 64 Q586 66.45 584.95 68.5 L583.1 71.1 Q581.2 72.95 578.8 73.6 L576 74 576 70 M640 74 Q634.3 74 629 75.05 L629.3 73.4 629.65 70.85 Q630 67.5 630 64 L634 64 633.7 70.3 640 70 640 74 M640 118 L640 122 Q638.45 122 637.2 122.7 L636.05 123.5 635.75 123.75 Q634 125.55 634 128 L630 128 Q630 125.55 631.05 123.5 631.75 122.1 632.9 120.9 634.8 119.05 637.2 118.4 L640 118 M576 118 L582.85 117.65 584 117.5 587.05 117 Q586 122.3 586 128 L582 128 Q582 124.8 582.3 121.7 L576 122 576 118"/>
    <path stroke="none" fill="#21BF8F" d="M582 64 Q582 66.45 580.25 68.25 L579.95 68.5 578.8 69.3 Q577.55 70 576 70 L576 64 582 64 M634 64 L640 64 640 70 633.7 70.3 634 64 M640 122 L640 128 634 128 Q634 125.55 635.75 123.75 L636.05 123.5 637.2 122.7 Q638.45 122 640 122 M576 122 L582.3 121.7 Q582 124.8 582 128 L576 128 576 122"/>
    <path stroke="none" fill="#2C383A" d="M576 74 L578.8 73.6 Q581.2 72.95 583.1 71.1 L584.95 68.5 Q586 66.45 586 64 L590 64 Q590 67.6 588.4 70.6 587.45 72.4 585.95 73.95 582.8 77 578.8 77.75 L576 78 576 74 M640 78 Q631.15 78 623.35 80.65 L624 78.55 624.65 76.05 625.1 73.95 625.5 71.7 Q626 67.95 626 64 L630 64 Q630 67.5 629.65 70.85 L629.3 73.4 629 75.05 Q634.3 74 640 74 L640 78 M640 114 L640 118 637.2 118.4 Q634.8 119.05 632.9 120.9 631.75 122.1 631.05 123.5 630 125.55 630 128 L626 128 Q626 124.4 627.6 121.4 628.55 119.6 630.05 118.05 633.2 115 637.2 114.25 L640 114 M586 128 Q586 122.3 587.05 117 L584 117.5 582.85 117.65 576 118 576 114 583.7 113.5 584 113.45 588.05 112.7 589.45 112.35 592.65 111.4 Q590 119.2 590 128 L586 128"/>
    <path stroke="none" fill="#344143" d="M576 78 L578.8 77.75 Q582.8 77 585.95 73.95 587.45 72.4 588.4 70.6 590 67.6 590 64 L606.95 64 Q606.95 70.8 604.45 76.6 602.2 81.7 598.05 86.05 588.75 94.95 576 94.95 L576 78 M576 97 L584 96.1 Q589.5 94.8 594.35 91.65 L599.5 87.5 Q601.9 85 603.65 82.35 605.55 79.45 606.8 76.3 609 70.6 609 64 L626 64 Q626 67.95 625.5 71.7 L625.1 73.95 624.65 76.05 624 78.55 623.35 80.65 Q631.15 78 640 78 L640 95 Q626.4 95 616.5 104.5 607 114.4 607 128 L590 128 Q590 119.2 592.65 111.4 L589.45 112.35 588.05 112.7 584 113.45 583.7 113.5 576 114 576 97 M609.05 128 Q609.05 115.25 617.95 105.95 627.25 97.05 640 97.05 L640 114 637.2 114.25 Q633.2 115 630.05 118.05 628.55 119.6 627.6 121.4 626 124.4 626 128 L609.05 128"/>
    <path stroke="none" fill="#435254" d="M609.05 128 L607 128 Q607 114.4 616.5 104.5 626.4 95 640 95 L640 97.05 Q627.25 97.05 617.95 105.95 609.05 115.25 609.05 128 M576 94.95 Q588.75 94.95 598.05 86.05 602.2 81.7 604.45 76.6 606.95 70.8 606.95 64 L609 64 Q609 70.6 606.8 76.3 605.55 79.45 603.65 82.35 601.9 85 599.5 87.5 L594.35 91.65 Q589.5 94.8 584 96.1 L576 97 576 94.95"/>
    <path stroke="none" fill="#67CAF5" d="M766 256 L768 256 768 320 766 320 766 256 M706 320 L704 320 704 256 706 256 706 320"/>
    <path stroke="none" fill="#4FB6E2" d="M706 320 L706 256 710 256 710 320 706 320 M762 256 L766 256 766 320 762 320 762 256"/>
    <path stroke="none" fill="#BFD5D9" d="M762 256 L762 320 758 320 758 256 762 256 M710 256 L714 256 714 320 710 320 710 256"/>
    <path stroke="none" fill="#2C383A" d="M714 256 L718 256 718 320 714 320 714 256 M754 256 L758 256 758 320 754 320 754 256"/>
    <path stroke="none" fill="#344143" d="M754 256 L754 320 737 320 737 256 754 256 M718 256 L735 256 735 320 718 320 718 256"/>
    <path stroke="none" fill="#435254" d="M735 256 L737 256 737 320 735 320 735 256"/>
    <path stroke="none" fill="#67CAF5" d="M704 322 L704 320 768 320 768 322 704 322 M768 382 L768 384 704 384 704 382 768 382"/>
    <path stroke="none" fill="#BFD5D9" d="M768 326 L768 330 704 330 704 326 768 326 M768 374 L768 378 704 378 704 374 768 374"/>
    <path stroke="none" fill="#2C383A" d="M768 374 L704 374 704 370 768 370 768 374 M768 330 L768 334 704 334 704 330 768 330"/>
    <path stroke="none" fill="#4FB6E2" d="M704 326 L704 322 768 322 768 326 704 326 M768 378 L768 382 704 382 704 378 768 378"/>
    <path stroke="none" fill="#344143" d="M768 334 L768 351 704 351 704 334 768 334 M768 353 L768 370 704 370 704 353 768 353"/>
    <path stroke="none" fill="#435254" d="M768 353 L704 353 704 351 768 351 768 353"/>
    <path stroke="none" fill="#BFD5D9" d="M762 448 L758 448 758 384 762 384 762 390 762 394 762 398 762 434 762 438 762 442 762 448 M714 448 L710 448 710 442 710 438 710 434 710 398 710 394 710 390 710 384 714 384 714 448"/>
    <path stroke="none" fill="#21BF8F" d="M762 384 L768 384 768 390 762 390 762 384 M768 442 L768 448 762 448 762 442 768 442 M710 448 L704 448 704 442 710 442 710 448 M704 390 L704 384 710 384 710 390 704 390"/>
    <path stroke="none" fill="#2C383A" d="M758 448 L754 448 754 384 758 384 758 448 M718 448 L714 448 714 384 718 384 718 448"/>
    <path stroke="none" fill="#435254" d="M737 448 L735 448 735 384 737 384 737 448"/>
    <path stroke="none" fill="#344143" d="M737 448 L737 384 754 384 754 448 737 448 M735 448 L718 448 718 384 735 384 735 448"/>
    <path stroke="none" fill="#83D9FF" d="M768 394 L768 398 766 398 762 398 762 394 768 394 M768 434 L768 438 762 438 762 434 766 434 768 434 M704 438 L704 434 706 434 710 434 710 438 704 438 M704 398 L704 394 710 394 710 398 706 398 704 398"/>
    <path stroke="none" fill="#1BB184" d="M768 390 L768 394 762 394 762 390 768 390 M768 438 L768 442 762 442 762 438 768 438 M704 442 L704 438 710 438 710 442 704 442 M704 394 L704 390 710 390 710 394 704 394"/>
    <path stroke="none" fill="#67CAF5" d="M768 398 L768 434 766 434 766 398 768 398 M704 434 L704 398 706 398 706 434 704 434"/>
    <path stroke="none" fill="#4FB6E2" d="M762 398 L766 398 766 434 762 434 762 398 M710 398 L710 434 706 434 706 398 710 398"/>
    <path stroke="none" fill="#21BF8F" d="M762 448 L768 448 768 454 762 454 762 448 M768 506 L768 512 762 512 762 506 768 506 M710 512 L704 512 704 506 710 506 710 512 M704 454 L704 448 710 448 710 454 704 454"/>
    <path stroke="none" fill="#BFD5D9" d="M768 454 L768 458 704 458 704 454 710 454 714 454 718 454 754 454 758 454 762 454 768 454 M768 502 L768 506 762 506 758 506 754 506 718 506 714 506 710 506 704 506 704 502 768 502"/>
    <path stroke="none" fill="#1BB184" d="M762 512 L758 512 758 506 762 506 762 512 M714 512 L710 512 710 506 714 506 714 512 M710 448 L714 448 714 454 710 454 710 448 M758 448 L762 448 762 454 758 454 758 448"/>
    <path stroke="none" fill="#83D9FF" d="M758 448 L758 454 754 454 754 450 754 448 758 448 M758 512 L754 512 754 510 754 506 758 506 758 512 M718 512 L714 512 714 506 718 506 718 510 718 512 M714 448 L718 448 718 450 718 454 714 454 714 448"/>
    <path stroke="none" fill="#344143" d="M768 462 L768 479 704 479 704 462 768 462 M768 481 L768 498 704 498 704 481 768 481"/>
    <path stroke="none" fill="#2C383A" d="M768 458 L768 462 704 462 704 458 768 458 M768 498 L768 502 704 502 704 498 768 498"/>
    <path stroke="none" fill="#67CAF5" d="M754 512 L718 512 718 510 754 510 754 512 M718 448 L754 448 754 450 718 450 718 448"/>
    <path stroke="none" fill="#4FB6E2" d="M754 454 L718 454 718 450 754 450 754 454 M718 510 L718 506 754 506 754 510 718 510"/>
    <path stroke="none" fill="#435254" d="M768 479 L768 481 704 481 704 479 768 479"/>
    <path stroke="none" fill="#67CAF5" d="M512 434 L512 384 576 384 576 448 526 448 Q526 444.4 524.4 441.4 523.45 439.6 521.95 438.05 518.8 435 514.8 434.25 L512 434"/>
    <path stroke="none" fill="#83D9FF" d="M512 434 L514.8 434.25 Q518.8 435 521.95 438.05 523.45 439.6 524.4 441.4 526 444.4 526 448 L522 448 Q522 445.55 520.95 443.5 520.25 442.1 519.1 440.9 517.2 439.05 514.8 438.4 L512 438 512 434"/>
    <path stroke="none" fill="#1BB184" d="M522 448 L518 448 Q518 445.55 516.25 443.75 L515.95 443.5 514.8 442.7 Q513.55 442 512 442 L512 438 514.8 438.4 Q517.2 439.05 519.1 440.9 520.25 442.1 520.95 443.5 522 445.55 522 448"/>
    <path stroke="none" fill="#21BF8F" d="M518 448 L512 448 512 442 Q513.55 442 514.8 442.7 L515.95 443.5 516.25 443.75 Q518 445.55 518 448"/>
    <path stroke="none" fill="#67CAF5" d="M526 448 L576 448 576 512 512 512 512 462 Q515.6 462 518.6 460.4 520.4 459.45 521.95 457.95 525 454.8 525.75 450.8 L526 448"/>
    <path stroke="none" fill="#1BB184" d="M512 458 L512 454 Q514.45 454 516.25 452.25 L516.5 451.95 517.3 450.8 Q518 449.55 518 448 L522 448 Q522 449.45 521.6 450.8 520.95 453.2 519.1 455.1 517.9 456.25 516.5 456.95 514.45 458 512 458"/>
    <path stroke="none" fill="#21BF8F" d="M512 454 L512 448 518 448 Q518 449.55 517.3 450.8 L516.5 451.95 516.25 452.25 Q514.45 454 512 454"/>
    <path stroke="none" fill="#83D9FF" d="M512 462 L512 458 Q514.45 458 516.5 456.95 517.9 456.25 519.1 455.1 520.95 453.2 521.6 450.8 522 449.45 522 448 L526 448 525.75 450.8 Q525 454.8 521.95 457.95 520.4 459.45 518.6 460.4 515.6 462 512 462"/>
    <path stroke="none" fill="#83D9FF" d="M498 448 Q498 444.4 499.6 441.4 500.55 439.6 502.05 438.05 505.2 435 509.2 434.25 L512 434 512 438 509.2 438.4 Q506.8 439.05 504.9 440.9 503.75 442.1 503.05 443.5 502 445.55 502 448 L498 448"/>
    <path stroke="none" fill="#1BB184" d="M502 448 Q502 445.55 503.05 443.5 503.75 442.1 504.9 440.9 506.8 439.05 509.2 438.4 L512 438 512 442 Q510.45 442 509.2 442.7 L508.05 443.5 507.75 443.75 Q506 445.55 506 448 L502 448"/>
    <path stroke="none" fill="#67CAF5" d="M512 434 L509.2 434.25 Q505.2 435 502.05 438.05 500.55 439.6 499.6 441.4 498 444.4 498 448 L448 448 448 384 512 384 512 434"/>
    <path stroke="none" fill="#21BF8F" d="M506 448 Q506 445.55 507.75 443.75 L508.05 443.5 509.2 442.7 Q510.45 442 512 442 L512 448 506 448"/>
    <path stroke="none" fill="#83D9FF" d="M502 448 Q502 449.45 502.4 450.8 503.05 453.2 504.9 455.1 L507.5 456.95 Q509.55 458 512 458 L512 462 Q508.4 462 505.4 460.4 503.6 459.45 502.05 457.95 499 454.8 498.25 450.8 L498 448 502 448"/>
    <path stroke="none" fill="#67CAF5" d="M498 448 L498.25 450.8 Q499 454.8 502.05 457.95 503.6 459.45 505.4 460.4 508.4 462 512 462 L512 512 448 512 448 448 498 448"/>
    <path stroke="none" fill="#1BB184" d="M512 458 Q509.55 458 507.5 456.95 L504.9 455.1 Q503.05 453.2 502.4 450.8 502 449.45 502 448 L506 448 Q506 449.55 506.7 450.8 L507.5 451.95 507.75 452.25 Q509.55 454 512 454 L512 458"/>
    <path stroke="none" fill="#21BF8F" d="M512 454 Q509.55 454 507.75 452.25 L507.5 451.95 506.7 450.8 Q506 449.55 506 448 L512 448 512 454"/>
    <path stroke="none" fill="#EED1A6" d="M658 448 L650 448 Q650 443.9 647.1 440.9 644.1 438 640 438 L640 430 Q647.4 430 652.8 435.2 658 440.6 658 448"/>
    <path stroke="none" fill="#83D9FF" d="M658 448 Q658 440.6 652.8 435.2 647.4 430 640 430 L640 426 Q649.05 426 655.65 432.35 662 438.95 662 448 L658 448"/>
    <path stroke="none" fill="#67CAF5" d="M640 426 L640 384 704 384 704 448 662 448 Q662 438.95 655.65 432.35 649.05 426 640 426"/>
    <path stroke="none" fill="#21BF8F" d="M646 448 L640 448 640 442 Q642.45 442 644.25 443.75 646 445.55 646 448"/>
    <path stroke="none" fill="#D9B783" d="M646 448 Q646 445.55 644.25 443.75 642.45 442 640 442 L640 438 Q644.1 438 647.1 440.9 650 443.9 650 448 L646 448"/>
    <path stroke="none" fill="#67CAF5" d="M640 426 Q630.95 426 624.35 432.35 618 438.95 618 448 L576 448 576 384 640 384 640 426"/>
    <path stroke="none" fill="#83D9FF" d="M640 426 L640 430 Q632.6 430 627.2 435.2 622 440.6 622 448 L618 448 Q618 438.95 624.35 432.35 630.95 426 640 426"/>
    <path stroke="none" fill="#EED1A6" d="M640 430 L640 438 Q635.9 438 632.9 440.9 630 443.9 630 448 L622 448 Q622 440.6 627.2 435.2 632.6 430 640 430"/>
    <path stroke="none" fill="#D9B783" d="M630 448 Q630 443.9 632.9 440.9 635.9 438 640 438 L640 442 Q637.55 442 635.75 443.75 634 445.55 634 448 L630 448"/>
    <path stroke="none" fill="#21BF8F" d="M640 442 L640 448 634 448 Q634 445.55 635.75 443.75 637.55 442 640 442"/>
    <path stroke="none" fill="#21BF8F" d="M640 454 Q637.55 454 635.75 452.25 634 450.45 634 448 L640 448 640 454"/>
    <path stroke="none" fill="#D9B783" d="M640 454 L640 458 Q635.9 458 632.9 455.1 630 452.1 630 448 L634 448 Q634 450.45 635.75 452.25 637.55 454 640 454"/>
    <path stroke="none" fill="#EED1A6" d="M630 448 Q630 452.1 632.9 455.1 635.9 458 640 458 L640 466 Q632.6 466 627.2 460.8 622 455.4 622 448 L630 448"/>
    <path stroke="none" fill="#83D9FF" d="M618 448 L622 448 Q622 455.4 627.2 460.8 632.6 466 640 466 L640 470 Q630.95 470 624.35 463.65 618 457.05 618 448"/>
    <path stroke="none" fill="#67CAF5" d="M618 448 Q618 457.05 624.35 463.65 630.95 470 640 470 L640 512 576 512 576 448 618 448"/>
    <path stroke="none" fill="#83D9FF" d="M640 470 L640 466 Q647.4 466 652.8 460.8 658 455.4 658 448 L662 448 Q662 457.05 655.65 463.65 649.05 470 640 470"/>
    <path stroke="none" fill="#EED1A6" d="M640 458 Q644.1 458 647.1 455.1 650 452.1 650 448 L658 448 Q658 455.4 652.8 460.8 647.4 466 640 466 L640 458"/>
    <path stroke="none" fill="#21BF8F" d="M646 448 Q646 450.45 644.25 452.25 642.45 454 640 454 L640 448 646 448"/>
    <path stroke="none" fill="#D9B783" d="M646 448 L650 448 Q650 452.1 647.1 455.1 644.1 458 640 458 L640 454 Q642.45 454 644.25 452.25 646 450.45 646 448"/>
    <path stroke="none" fill="#67CAF5" d="M640 470 Q649.05 470 655.65 463.65 662 457.05 662 448 L704 448 704 512 640 512 640 470"/>
    <path stroke="none" fill="#2C383A" d="M718 64 Q718 67.6 716.4 70.6 715.45 72.4 713.95 73.95 710.8 77 706.8 77.75 L704 78 704 74 706.8 73.6 Q709.2 72.95 711.1 71.1 L712.95 68.5 Q714 66.45 714 64 L718 64"/>
    <path stroke="none" fill="#344143" d="M718 64 L768 64 768 128 704 128 704 78 706.8 77.75 Q710.8 77 713.95 73.95 715.45 72.4 716.4 70.6 718 67.6 718 64"/>
    <path stroke="none" fill="#21BF8F" d="M710 64 Q710 66.45 708.25 68.25 L707.95 68.5 706.8 69.3 Q705.55 70 704 70 L704 64 710 64"/>
    <path stroke="none" fill="#BFD5D9" d="M710 64 L714 64 Q714 66.45 712.95 68.5 L711.1 71.1 Q709.2 72.95 706.8 73.6 L704 74 704 70 Q705.55 70 706.8 69.3 L707.95 68.5 708.25 68.25 Q710 66.45 710 64"/>
    <path stroke="none" fill="#2C383A" d="M718 64 L714 64 Q714 61.55 712.95 59.5 L711.1 56.9 Q709.2 55.05 706.8 54.4 L704 54 704 50 706.8 50.25 Q710.8 51 713.95 54.05 715.45 55.6 716.4 57.4 718 60.4 718 64"/>
    <path stroke="none" fill="#344143" d="M718 64 Q718 60.4 716.4 57.4 715.45 55.6 713.95 54.05 710.8 51 706.8 50.25 L704 50 704 0 768 0 768 64 718 64"/>
    <path stroke="none" fill="#BFD5D9" d="M714 64 L710 64 Q710 61.55 708.25 59.75 L707.95 59.5 706.8 58.7 Q705.55 58 704 58 L704 54 706.8 54.4 Q709.2 55.05 711.1 56.9 L712.95 59.5 Q714 61.55 714 64"/>
    <path stroke="none" fill="#21BF8F" d="M710 64 L704 64 704 58 Q705.55 58 706.8 58.7 L707.95 59.5 708.25 59.75 Q710 61.55 710 64"/>
    <path stroke="none" fill="#BFD5D9" d="M704 54 L704 58 Q702.45 58 701.2 58.7 700.6 59 700.05 59.5 L699.75 59.75 Q698 61.55 698 64 L694 64 Q694 61.55 695.05 59.5 695.75 58.1 696.9 56.9 698.8 55.05 701.2 54.4 L704 54"/>
    <path stroke="none" fill="#21BF8F" d="M698 64 Q698 61.55 699.75 59.75 L700.05 59.5 Q700.6 59 701.2 58.7 702.45 58 704 58 L704 64 698 64"/>
    <path stroke="none" fill="#2C383A" d="M704 54 L701.2 54.4 Q698.8 55.05 696.9 56.9 695.75 58.1 695.05 59.5 694 61.55 694 64 L690 64 Q690 60.4 691.6 57.4 692.55 55.6 694.05 54.05 697.2 51 701.2 50.25 L704 50 704 54"/>
    <path stroke="none" fill="#344143" d="M704 50 L701.2 50.25 Q697.2 51 694.05 54.05 692.55 55.6 691.6 57.4 690 60.4 690 64 L640 64 640 0 704 0 704 50"/>
    <path stroke="none" fill="#21BF8F" d="M704 70 Q702.45 70 701.2 69.3 700.6 69 700.05 68.5 L699.75 68.25 Q698 66.45 698 64 L704 64 704 70"/>
    <path stroke="none" fill="#BFD5D9" d="M704 70 L704 74 701.2 73.6 Q698.8 72.95 696.9 71.1 695.75 69.9 695.05 68.5 694 66.45 694 64 L698 64 Q698 66.45 699.75 68.25 L700.05 68.5 Q700.6 69 701.2 69.3 702.45 70 704 70"/>
    <path stroke="none" fill="#2C383A" d="M694 64 Q694 66.45 695.05 68.5 695.75 69.9 696.9 71.1 698.8 72.95 701.2 73.6 L704 74 704 78 701.2 77.75 Q697.2 77 694.05 73.95 692.55 72.4 691.6 70.6 690 67.6 690 64 L694 64"/>
    <path stroke="none" fill="#344143" d="M690 64 Q690 67.6 691.6 70.6 692.55 72.4 694.05 73.95 697.2 77 701.2 77.75 L704 78 704 128 640 128 640 64 690 64"/>
    <path stroke="none" fill="#BFD5D9" d="M698 192 L698 198 704 198 704 202 697.9 202 Q696.3 201.95 695.15 200.85 694.05 199.7 694 198.1 L694 192 698 192"/>
    <path stroke="none" fill="#2C383A" d="M694 192 L694 198.1 Q694.05 199.7 695.15 200.85 696.3 201.95 697.9 202 L704 202 704 206 697.8 206 Q695.75 205.95 694 204.95 693.1 204.45 692.3 203.7 690.1 201.4 690 198.3 L690 192 694 192"/>
    <path stroke="none" fill="#21BF8F" d="M704 198 L698 198 698 192 704 192 704 198"/>
    <path stroke="none" fill="#344143" d="M690 192 L690 198.3 Q690.1 201.4 692.3 203.7 693.1 204.45 694 204.95 695.75 205.95 697.8 206 L704 206 704 256 640 256 640 192 690 192"/>
    <path stroke="none" fill="#BFD5D9" d="M704 198 L710 198 710 192 714 192 714 198.1 Q713.95 199.7 712.85 200.85 711.7 201.95 710.1 202 L704 202 704 198"/>
    <path stroke="none" fill="#2C383A" d="M714 192 L718 192 718 198.3 Q717.9 201.4 715.7 203.7 L714 204.95 Q712.25 205.95 710.2 206 L704 206 704 202 710.1 202 Q711.7 201.95 712.85 200.85 713.95 199.7 714 198.1 L714 192"/>
    <path stroke="none" fill="#21BF8F" d="M704 198 L704 192 710 192 710 198 704 198"/>
    <path stroke="none" fill="#344143" d="M718 192 L768 192 768 256 704 256 704 206 710.2 206 Q712.25 205.95 714 204.95 L715.7 203.7 Q717.9 201.4 718 198.3 L718 192"/>
    <path stroke="none" fill="#BFD5D9" d="M704 182 L710.1 182 Q711.7 182.05 712.85 183.15 713.95 184.3 714 185.9 L714 192 710 192 710 186 704 186 704 182"/>
    <path stroke="none" fill="#21BF8F" d="M704 186 L710 186 710 192 704 192 704 186"/>
    <path stroke="none" fill="#344143" d="M718 192 L718 185.7 Q717.9 182.6 715.7 180.3 L714 179.05 Q712.25 178.05 710.2 178 L704 178 704 128 768 128 768 192 718 192"/>
    <path stroke="none" fill="#2C383A" d="M718 192 L714 192 714 185.9 Q713.95 184.3 712.85 183.15 711.7 182.05 710.1 182 L704 182 704 178 710.2 178 Q712.25 178.05 714 179.05 L715.7 180.3 Q717.9 182.6 718 185.7 L718 192"/>
    <path stroke="none" fill="#344143" d="M690 192 L640 192 640 128 704 128 704 178 697.8 178 Q695.75 178.05 694 179.05 693.1 179.55 692.3 180.3 690.1 182.6 690 185.7 L690 192"/>
    <path stroke="none" fill="#BFD5D9" d="M704 182 L704 186 698 186 698 192 694 192 694 185.9 Q694.05 184.3 695.15 183.15 696.3 182.05 697.9 182 L704 182"/>
    <path stroke="none" fill="#2C383A" d="M704 182 L697.9 182 Q696.3 182.05 695.15 183.15 694.05 184.3 694 185.9 L694 192 690 192 690 185.7 Q690.1 182.6 692.3 180.3 693.1 179.55 694 179.05 695.75 178.05 697.8 178 L704 178 704 182"/>
    <path stroke="none" fill="#21BF8F" d="M704 186 L704 192 698 192 698 186 704 186"/>
    <path stroke="none" fill="#21BF8F" d="M506 256 L512 256 512 262 506 262 506 256 M512 314 L512 320 506 320 506 314 512 314"/>
    <path stroke="none" fill="#83D9FF" d="M512 266 L512 270 505.8 270 Q502.65 269.95 500.3 267.6 498.05 265.35 498 262.2 L498 256 502 256 502 262.1 Q502.05 263.7 503.15 264.8 504.3 265.95 505.9 266 L512 266 M512 306 L512 310 505.9 310 Q504.3 310.05 503.15 311.15 502.05 312.3 502 313.9 L502 320 498 320 498 313.8 Q498.05 310.65 500.3 308.3 502.65 306.05 505.8 306 L512 306"/>
    <path stroke="none" fill="#67CAF5" d="M512 306 L505.8 306 Q502.65 306.05 500.3 308.3 498.05 310.65 498 313.8 L498 320 448 320 448 256 498 256 498 262.2 Q498.05 265.35 500.3 267.6 502.65 269.95 505.8 270 L512 270 512 306"/>
    <path stroke="none" fill="#1BB184" d="M512 262 L512 266 505.9 266 Q504.3 265.95 503.15 264.8 502.05 263.7 502 262.1 L502 256 506 256 506 262 512 262 M512 310 L512 314 506 314 506 320 502 320 502 313.9 Q502.05 312.3 503.15 311.15 504.3 310.05 505.9 310 L512 310"/>
    <path stroke="none" fill="#67CAF5" d="M526 256 L576 256 576 320 526 320 526 313.8 Q525.95 310.65 523.7 308.3 521.35 306.05 518.2 306 L512 306 512 270 518.2 270 Q521.35 269.95 523.7 267.6 525.95 265.35 526 262.2 L526 256"/>
    <path stroke="none" fill="#21BF8F" d="M518 320 L512 320 512 314 518 314 518 320 M518 256 L518 262 512 262 512 256 518 256"/>
    <path stroke="none" fill="#83D9FF" d="M526 256 L526 262.2 Q525.95 265.35 523.7 267.6 521.35 269.95 518.2 270 L512 270 512 266 518.1 266 Q519.7 265.95 520.85 264.8 521.95 263.7 522 262.1 L522 256 526 256 M512 306 L518.2 306 Q521.35 306.05 523.7 308.3 525.95 310.65 526 313.8 L526 320 522 320 522 313.9 Q521.95 312.3 520.85 311.15 519.7 310.05 518.1 310 L512 310 512 306"/>
    <path stroke="none" fill="#1BB184" d="M522 320 L518 320 518 314 512 314 512 310 518.1 310 Q519.7 310.05 520.85 311.15 521.95 312.3 522 313.9 L522 320 M518 256 L522 256 522 262.1 Q521.95 263.7 520.85 264.8 519.7 265.95 518.1 266 L512 266 512 262 518 262 518 256"/>
    <path stroke="none" fill="#21BF8F" d="M576 378 L576 384 570 384 570 378 576 378 M518 384 L512 384 512 378 518 378 518 384"/>
    <path stroke="none" fill="#1BB184" d="M518 384 L518 378 512 378 512 374 518.1 374 Q519.7 374.05 520.8 375.15 521.95 376.3 522 377.9 L522 384 518 384 M566 384 L566 377.9 Q566.05 376.3 567.15 375.15 568.3 374.05 569.9 374 L576 374 576 378 570 378 570 384 566 384"/>
    <path stroke="none" fill="#83D9FF" d="M566 384 L562 384 562 377.8 Q562.05 374.65 564.3 372.3 566.65 370.05 569.8 370 L576 370 576 374 569.9 374 Q568.3 374.05 567.15 375.15 566.05 376.3 566 377.9 L566 384 M512 370 L518.2 370 Q521.35 370.05 523.6 372.3 525.95 374.65 526 377.8 L526 384 522 384 522 377.9 Q521.95 376.3 520.8 375.15 519.7 374.05 518.1 374 L512 374 512 370"/>
    <path stroke="none" fill="#67CAF5" d="M512 370 L512 320 576 320 576 370 569.8 370 Q566.65 370.05 564.3 372.3 562.05 374.65 562 377.8 L562 384 526 384 526 377.8 Q525.95 374.65 523.6 372.3 521.35 370.05 518.2 370 L512 370"/>
    <path stroke="none" fill="#1BB184" d="M454 320 L458 320 458 326.1 Q457.95 327.7 456.8 328.85 455.7 329.95 454.1 330 L448 330 448 326 454 326 454 320 M502 320 L506 320 506 326 512 326 512 330 505.9 330 Q504.3 329.95 503.15 328.85 502.05 327.7 502 326.1 L502 320"/>
    <path stroke="none" fill="#83D9FF" d="M502 320 L502 326.1 Q502.05 327.7 503.15 328.85 504.3 329.95 505.9 330 L512 330 512 334 505.8 334 Q502.65 333.95 500.3 331.7 498.05 329.35 498 326.2 L498 320 502 320 M448 330 L454.1 330 Q455.7 329.95 456.8 328.85 457.95 327.7 458 326.1 L458 320 462 320 462 326.2 Q461.95 329.35 459.6 331.7 457.35 333.95 454.2 334 L448 334 448 330"/>
    <path stroke="none" fill="#21BF8F" d="M454 320 L454 326 448 326 448 320 454 320 M506 320 L512 320 512 326 506 326 506 320"/>
    <path stroke="none" fill="#67CAF5" d="M462 320 L498 320 498 326.2 Q498.05 329.35 500.3 331.7 502.65 333.95 505.8 334 L512 334 512 384 448 384 448 334 454.2 334 Q457.35 333.95 459.6 331.7 461.95 329.35 462 326.2 L462 320"/>
    <path stroke="none" fill="#EED1A6" d="M64 128 L128 128 128 192 64 192 64 128"/>
    <path stroke="none" fill="#83D9FF" d="M654 256 L654 262.2 Q653.95 265.35 651.7 267.6 649.35 269.95 646.2 270 L640 270 640 266 646.1 266 Q647.7 265.95 648.85 264.8 649.95 263.7 650 262.1 L650 256 654 256 M690 256 L694 256 694 320 690 320 690 256 M654 320 L650 320 650 313.9 Q649.95 312.3 648.85 311.15 647.7 310.05 646.1 310 L640 310 640 306 646.2 306 Q649.35 306.05 651.7 308.3 653.95 310.65 654 313.8 L654 320"/>
    <path stroke="none" fill="#1BB184" d="M646 256 L650 256 650 262.1 Q649.95 263.7 648.85 264.8 647.7 265.95 646.1 266 L640 266 640 262 646 262 646 256 M694 256 L698 256 698 320 694 320 694 256 M650 320 L646 320 646 314 640 314 640 310 646.1 310 Q647.7 310.05 648.85 311.15 649.95 312.3 650 313.9 L650 320"/>
    <path stroke="none" fill="#21BF8F" d="M646 256 L646 262 640 262 640 256 646 256 M698 256 L704 256 704 320 698 320 698 256 M646 320 L640 320 640 314 646 314 646 320"/>
    <path stroke="none" fill="#67CAF5" d="M654 256 L690 256 690 320 654 320 654 313.8 Q653.95 310.65 651.7 308.3 649.35 306.05 646.2 306 L640 306 640 270 646.2 270 Q649.35 269.95 651.7 267.6 653.95 265.35 654 262.2 L654 256"/>
    <path stroke="none" fill="#1BB184" d="M586 256 L586 320 582 320 582 256 586 256 M630 256 L634 256 634 262 640 262 640 266 633.9 266 Q632.3 265.95 631.15 264.85 630.05 263.7 630 262.1 L630 256 M640 310 L640 314 634 314 634 320 630 320 630 313.9 Q630.05 312.3 631.15 311.2 632.3 310.05 633.9 310 L640 310"/>
    <path stroke="none" fill="#21BF8F" d="M634 256 L640 256 640 262 634 262 634 256 M640 314 L640 320 634 320 634 314 640 314 M582 320 L576 320 576 256 582 256 582 320"/>
    <path stroke="none" fill="#83D9FF" d="M586 256 L590 256 590 320 586 320 586 256 M626 256 L630 256 630 262.1 Q630.05 263.7 631.15 264.85 632.3 265.95 633.9 266 L640 266 640 270 633.8 270 Q630.65 269.95 628.3 267.7 626.05 265.35 626 262.2 L626 256 M640 306 L640 310 633.9 310 Q632.3 310.05 631.15 311.2 630.05 312.3 630 313.9 L630 320 626 320 626 313.8 Q626.05 310.65 628.3 308.4 630.65 306.05 633.8 306 L640 306"/>
    <path stroke="none" fill="#67CAF5" d="M640 306 L633.8 306 Q630.65 306.05 628.3 308.4 626.05 310.65 626 313.8 L626 320 590 320 590 256 626 256 626 262.2 Q626.05 265.35 628.3 267.7 630.65 269.95 633.8 270 L640 270 640 306"/>
    <path stroke="none" fill="#21BF8F" d="M576 326 L576 320 582 320 582 326 576 326 M634 320 L640 320 640 326 634 326 634 320 M640 378 L640 384 576 384 576 378 640 378"/>
    <path stroke="none" fill="#1BB184" d="M640 378 L576 378 576 374 640 374 640 378 M576 326 L582 326 582 320 586 320 586 326.1 Q585.95 327.7 584.85 328.85 583.7 329.95 582.1 330 L576 330 576 326 M630 320 L634 320 634 326 640 326 640 330 633.9 330 Q632.3 329.95 631.2 328.85 630.05 327.7 630 326.1 L630 320"/>
    <path stroke="none" fill="#83D9FF" d="M630 320 L630 326.1 Q630.05 327.7 631.2 328.85 632.3 329.95 633.9 330 L640 330 640 334 633.8 334 Q630.65 333.95 628.4 331.7 626.05 329.35 626 326.2 L626 320 630 320 M586 320 L590 320 590 326.2 Q589.95 329.35 587.7 331.7 585.35 333.95 582.2 334 L576 334 576 330 582.1 330 Q583.7 329.95 584.85 328.85 585.95 327.7 586 326.1 L586 320 M640 370 L640 374 576 374 576 370 640 370"/>
    <path stroke="none" fill="#67CAF5" d="M590 320 L626 320 626 326.2 Q626.05 329.35 628.4 331.7 630.65 333.95 633.8 334 L640 334 640 370 576 370 576 334 582.2 334 Q585.35 333.95 587.7 331.7 589.95 329.35 590 326.2 L590 320"/>
    <path stroke="none" fill="#83D9FF" d="M650 384 L650 320 654 320 654 384 650 384 M690 320 L694 320 694 326.1 Q694.05 327.7 695.15 328.85 696.3 329.95 697.9 330 L704 330 704 334 697.8 334 Q694.65 333.95 692.3 331.7 690.05 329.35 690 326.2 L690 320 M704 370 L704 374 697.9 374 Q696.3 374.05 695.15 375.2 694.05 376.3 694 377.9 L694 384 690 384 690 377.8 Q690.05 374.65 692.3 372.4 694.65 370.05 697.8 370 L704 370"/>
    <path stroke="none" fill="#1BB184" d="M646 320 L650 320 650 384 646 384 646 320 M694 320 L698 320 698 326 704 326 704 330 697.9 330 Q696.3 329.95 695.15 328.85 694.05 327.7 694 326.1 L694 320 M704 374 L704 378 698 378 698 384 694 384 694 377.9 Q694.05 376.3 695.15 375.2 696.3 374.05 697.9 374 L704 374"/>
    <path stroke="none" fill="#67CAF5" d="M654 320 L690 320 690 326.2 Q690.05 329.35 692.3 331.7 694.65 333.95 697.8 334 L704 334 704 370 697.8 370 Q694.65 370.05 692.3 372.4 690.05 374.65 690 377.8 L690 384 654 384 654 320"/>
    <path stroke="none" fill="#21BF8F" d="M646 320 L646 384 640 384 640 320 646 320 M698 320 L704 320 704 326 698 326 698 320 M704 378 L704 384 698 384 698 378 704 378"/>
  </g>
</svg>