# Alias OBJ Model File
# Exported from SketchUp, (c) 2000-2012 Trimble Navigation Limited
# File units = meters

mtllib Grey_Door_Square_01.mtl

g Mesh1 Grey_Door_Square Model

usemtl Light_Stone
v 0.5 2.2 -0
vt 19.685 0
vn 0 1 -0
v 0.5 2.2 -0.5
vt 19.685 19.685
v 0.4 2.2 -0.5
vt 15.748 19.685
v 0.1 2.2 -0.5
vt 3.93701 19.685
v 0 2.2 -0.5
vt 0 19.685
v 0 2.2 -0
vt 0 0
f 1/1/1 2/2/1 3/3/1 4/4/1 5/5/1 6/6/1 

v 0.5 0 -0
vn 1 0 -0
v 0.5 0 -0.5
vt 19.685 86.6142
vt 0 86.6142
f 7/6/2 8/1/2 2/7/2 1/8/2 

v 0 0 -0.5
vn 0 -1 -0
v 0.1 0 -0.5
vt -3.93701 19.685
v 0.4 0 -0.5
vt -15.748 19.685
vt -19.685 19.685
vt -19.685 0
v 0 0 -0
f 9/5/3 10/9/3 11/10/3 8/11/3 7/12/3 12/6/3 

vn 0 0 -1
vt -3.93701 86.6142
vt -3.93701 0
f 9/6/4 5/8/4 4/13/4 10/14/4 

vn -1 0 -0
vt -19.685 86.6142
f 6/8/5 5/15/5 9/12/5 12/6/5 

vn 0 0 1
f 12/6/6 7/1/6 1/7/6 6/8/6 

usemtl Dark_Stone
v 0.1 0 -2.5
vt -98.4252 1.08318e-016
vn -1 2.75127e-017 1.03857e-017
v 0.1 -2.25597e-017 -2.11114
vt -83.1158 -7.79861e-016
v 0.1 1.91562 -2.11114
vt -83.1158 75.4183
v 0.1 1.91562 -0.888859
vt -34.9945 75.4183
v 0.1 -2.25597e-017 -0.888859
vt -34.9945 -7.79861e-016
vt -19.685 1.08318e-016
v 0.1 2.2 -2.5
vt -98.4252 86.6142
f 13/16/7 14/17/7 15/18/7 16/19/7 17/20/7 10/21/7 4/15/7 18/22/7 

v 0.4 0 -2.5
vt -15.748 98.4252
vn -1.82867e-033 -1 -5.80152e-017
v 0.4 -2.25597e-017 -2.11114
vt -15.748 83.1158
vt -3.93701 83.1158
vt -3.93701 98.4252
f 19/23/8 20/24/8 14/25/8 13/26/8 

v 0.4 1.91562 -0.888859
vt 34.9945 75.4183
vn 1 2.80184e-032 -5.01334e-047
v 0.4 1.91562 -2.11114
vt 83.1158 75.4183
vt 83.1158 -8.88178e-016
vt 98.4252 -4.41234e-031
v 0.4 2.2 -2.5
vt 98.4252 86.6142
vt 19.685 -4.41234e-031
v 0.4 -2.25597e-017 -0.888859
vt 34.9945 -8.88178e-016
f 21/27/9 22/28/9 20/29/9 19/30/9 23/31/9 3/7/9 11/32/9 24/33/9 

vt -15.748 34.9945
vt -3.93701 34.9945
f 15/25/3 22/24/3 21/34/3 16/35/3 

vt 15.748 -2.69951e-013
vn 0 -3.23721e-015 1
vt 15.748 75.4183
vt 3.93701 75.4183
vt 3.93701 -2.69951e-013
f 20/36/10 22/37/10 15/38/10 14/39/10 

vt -3.93701 75.4183
vt -15.748 75.4183
vt -15.748 -8.88178e-016
vt -3.93701 -8.88178e-016
f 16/40/4 21/41/4 24/42/4 17/43/4 

vn 1.12632e-033 -1 5.80152e-017
f 10/9/11 17/35/11 24/34/11 11/10/11 

usemtl Light_Stone
v 0.5 0 -2.5
v 0.5 2.2 -2.5
vt 15.748 86.6142
vt 15.748 0
f 25/1/6 26/7/6 23/44/6 19/45/6 

v 0.5 2.2 -3
vt 118.11 86.6142
vt 98.4252 0
v 0.5 0 -3
vt 118.11 0
f 27/46/2 26/31/2 25/47/2 28/48/2 

v 0 2.2 -3
vt 0 118.11
v 0 2.2 -2.5
vt 0 98.4252
vt 3.93701 98.4252
vt 15.748 98.4252
vt 19.685 98.4252
vt 19.685 118.11
f 29/49/1 30/50/1 18/51/1 23/52/1 26/53/1 27/54/1 

v 0 0 -3
vt -118.11 0
v 0 0 -2.5
vt -98.4252 0
vt -118.11 86.6142
f 31/55/5 32/56/5 30/22/5 29/57/5 

vt -19.685 98.4252
vt -19.685 118.11
f 25/58/3 19/23/3 13/26/3 32/50/3 31/49/3 28/59/3 

vt 3.93701 0
vt 3.93701 86.6142
f 30/8/6 32/6/6 13/60/6 18/61/6 

f 28/12/4 31/6/4 29/8/4 27/15/4 

usemtl Dark_Stone
f 23/52/1 18/51/1 4/4/1 3/3/1 

usemtl Light_Stone
vt -15.748 0
vt -15.748 86.6142
f 2/15/4 8/12/4 11/62/4 3/63/4 

