# Alias OBJ Model File
# Exported from SketchUp, (c) 2000-2012 Trimble Navigation Limited
# File units = meters

mtllib Grey_Arch_01.mtl

g Mesh1 Grey_Arch Model

usemtl Light_Stone
v 0.5 0 -3
vt -19.685 0
vn 0 0 -1
v 0 0 -3
vt 0 0
v 0 2.2 -3
vt 0 86.6142
v 0.5 2.2 -3
vt -19.685 86.6142
f 1/1/1 2/2/1 3/3/1 4/4/1 

v 0.5 0 -2.5
vt -19.685 98.4252
vn 0 -1 -0
v 0.4 0 -2.5
vt -15.748 98.4252
v 0.1 0 -2.5
vt -3.93701 98.4252
v 0 0 -2.5
vt 0 98.4252
vt 0 118.11
vt -19.685 118.11
f 5/5/2 6/6/2 7/7/2 8/8/2 2/9/2 1/10/2 

vt 19.685 0
vn 0 0 1
v 0.5 2.2 -2.5
vt 19.685 86.6142
v 0.4 2.2 -2.5
vt 15.748 86.6142
vt 15.748 0
f 5/11/3 9/12/3 10/13/3 6/14/3 

vt 118.11 86.6142
vn 1 0 -0
vt 98.4252 86.6142
vt 98.4252 0
vt 118.11 0
f 4/15/4 9/16/4 5/17/4 1/18/4 

vn 0 1 -0
v 0 2.2 -2.5
v 0.1 2.2 -2.5
vt 3.93701 98.4252
vt 15.748 98.4252
vt 19.685 98.4252
vt 19.685 118.11
f 3/9/5 11/8/5 12/19/5 10/20/5 9/21/5 4/22/5 

vt -118.11 0
vn -1 0 -0
vt -98.4252 0
vt -98.4252 86.6142
vt -118.11 86.6142
f 2/23/6 8/24/6 11/25/6 3/26/6 

vt 3.93701 0
vt 3.93701 86.6142
f 11/3/3 8/2/3 7/27/3 12/28/3 

usemtl Dark_Stone
v 0.1 0 -2.49
vt -98.0315 0
v 0.1 0.76154 -2.33852
vt -92.0677 29.9819
v 0.1 1.40714 -1.90714
vt -75.0844 55.3993
v 0.1 1.83852 -1.26154
vt -49.6669 72.3827
v 0.1 1.99 -0.5
vt -19.685 78.3465
v 0.1 1.99 1.15506e-014
vt 4.54747e-013 78.3465
v 0.1 2.2 1.15506e-014
vt 4.54747e-013 86.6142
f 7/24/6 13/29/6 14/30/6 15/31/6 16/32/6 17/33/6 18/34/6 19/35/6 12/25/6 

v 0.4 0 -2.49
vt -15.748 98.0315
vt -3.93701 98.0315
f 20/36/2 13/37/2 7/7/2 6/6/2 

vt 15.748 -19.125
vn -4.54349e-029 -0.19509 0.980785
v 0.4 0.76154 -2.33852
vt 15.748 11.4443
vt 3.93701 11.4443
vt 3.93701 -19.125
f 20/38/7 21/39/7 14/40/7 13/41/7 

v 0.4 2.2 1.15506e-014
vt -4.54747e-013 86.6142
v 0.4 1.99 1.15506e-014
vt -4.54747e-013 78.3465
v 0.4 1.99 -0.5
vt 19.685 78.3465
v 0.4 1.83852 -1.26154
vt 49.6669 72.3827
v 0.4 1.40714 -1.90714
vt 75.0844 55.3993
vt 92.0677 29.9819
vt 98.0315 0
f 10/16/4 22/42/4 23/43/4 24/44/4 25/45/4 26/46/4 21/47/4 20/48/4 6/17/4 

vt 3.93701 -4.54747e-013
vt 15.748 -4.54747e-013
f 10/20/5 12/19/5 19/49/5 22/50/5 

usemtl Light_Stone
vt 3.93701 78.3465
vt 15.748 78.3465
f 22/13/3 19/28/3 18/51/3 23/52/3 

vt -3.93701 19.685
vn 9.98498e-018 -0.995185 0.0980171
vt -15.748 19.685
vt -15.748 -4.54747e-013
vt -3.93701 -4.54747e-013
f 17/53/8 24/54/8 23/55/2 18/56/2 

usemtl Dark_Stone
vt 15.748 -34.5914
vn 1.98738e-017 -0.980785 0.19509
vt 15.748 -4.02216
vt 3.93701 -4.02216
vt 3.93701 -34.5914
f 25/57/9 24/58/8 17/59/8 16/60/9 

vt 15.748 -31.6521
vn 0 -0.83147 0.55557
vt 15.748 -1.08288
vt 3.93701 -1.08288
vt 3.93701 -31.6521
f 26/61/10 25/62/10 16/63/10 15/64/10 

vt 15.748 -26.2211
vn 0 -0.55557 0.83147
vt 15.748 4.34821
vt 3.93701 4.34821
vt 3.93701 -26.2211
f 21/65/11 26/66/11 15/67/11 14/68/11 

