# Alias OBJ Model File
# Exported from SketchUp, (c) 2000-2012 Trimble Navigation Limited
# File units = meters

mtllib Iron_Door_01.mtl

g Mesh1 Iron_Door Model

usemtl Light_Stone
v 0 0 -0
vt 0 0
vn 1 0 -0
v 0 0.205883 -0.205883
vt 8.10564 8.10564
v 0 1.30448 -0
vt 0 51.3576
f 1/1/1 2/2/1 3/3/1

v 0 0 -1.22228
vt 48.1213 0
f 2/2/1 1/1/1 4/4/1

vt 0 48.1213
vn 0 -1 -0
v -0.3 0 -0
vt 11.811 0
v -0.3 0 -1.22228
vt 11.811 48.1213
f 4/5/2 1/1/2 5/6/2 6/7/2 

vn 0 0 1
v -0.3 1.30448 -0
vt -11.811 51.3576
vt -11.811 0
f 1/1/3 3/3/3 7/8/3 5/9/3 

vt 0 47.4482
vn 0 0.382683 0.92388
v 0 1.69114 -0.160159
vt 0 63.9252
v -0.3 1.69114 -0.160159
vt -11.811 63.9252
vt -11.811 47.4482
f 3/10/4 8/11/4 9/12/4 7/13/4 

vt 6.30546 66.5803
f 3/3/1 2/2/1 8/14/1

v 0 1.73662 -0.178999
vt 7.0472 68.3711
f 8/14/1 2/2/1 10/15/1

v 0 1.26353 -0.205883
vt 8.10564 49.7453
f 11/16/1 10/15/1 2/2/1

v 0 1.57905 -0.336575
vt 13.251 62.1673
f 12/17/1 10/15/1 11/16/1

v 0 1.91562 -0.611141
vt 24.0607 75.4183
f 10/15/1 12/17/1 13/18/1

v 0 1.69278 -0.611141
vt 24.0607 66.6448
f 13/18/1 12/17/1 14/19/1

usemtl FrontColor
vt -13.251 62.1673
vn -1 0 -0
vt -24.0607 66.6448
v 0 1.57905 -0.885706
vt -34.8703 62.1673
v 0 1.26353 -1.0164
vt -40.0157 49.7453
v 0 0.205883 -1.0164
vt -40.0157 8.10564
vt -8.10564 8.10564
vt -8.10564 49.7453
f 12/20/5 14/21/5 15/22/5 16/23/5 17/24/5 2/25/5 11/26/5 

vt 0 36.0327
vn 0 0.92388 0.382683
vt 0 47.733
vn 0 1 -3.39479e-015
v -0.3 1.69278 -0.611141
vt -11.811 47.733
v -0.3 1.57905 -0.336575
vt -11.811 36.0327
f 12/27/6 14/28/7 18/29/7 19/30/6 

vt 0 3.27471
vt 0 -8.4256
vn 0 0.92388 -0.382683
v -0.3 1.57905 -0.885706
vt 11.811 -8.4256
vt 11.811 3.27471
f 14/31/7 15/32/8 20/33/8 18/34/7 

usemtl Light_Stone
vt 34.8703 62.1673
f 13/18/1 14/19/1 15/35/1

v 0 1.73662 -1.04328
vt 41.0741 68.3711
f 13/18/1 15/35/1 21/36/1

vt 40.0157 49.7453
f 21/36/1 15/35/1 16/37/1

usemtl FrontColor
vt 0 44.0908
vn 0 0.382683 -0.92388
vt 0 30.6453
v -0.3 1.26353 -1.0164
vt 11.811 30.6453
vt 11.811 44.0908
f 15/38/9 16/39/9 22/40/9 20/41/9 

vt 0 49.7453
vn 0 5.46051e-015 -1
vt 0 8.10564
v -0.3 0.205883 -1.0164
vt 11.811 8.10564
vt 11.811 49.7453
f 16/42/10 17/43/10 23/44/10 22/45/10 

usemtl Light_Stone
vt 40.0157 8.10564
f 21/36/1 16/37/1 17/46/1

f 17/46/1 4/4/1 21/36/1

f 2/2/1 4/4/1 17/46/1

usemtl FrontColor
vt 0 40.0157
v -0.3 0.205883 -0.205883
vt 11.811 40.0157
f 17/47/2 2/43/2 24/44/2 23/48/2 

v -0.3 1.26353 -0.205883
vt -11.811 49.7453
vt -11.811 8.10564
f 2/43/3 11/42/3 25/49/3 24/50/3 

vt 0 49.0606
vt 0 62.506
vt -11.811 62.506
vt -11.811 49.0606
f 11/51/4 12/52/4 19/53/4 25/54/4 

usemtl Light_Stone
v -0.3 1.73662 -0.178999
vt -7.0472 68.3711
f 26/55/5 19/20/5 25/26/5

v -0.3 1.91562 -0.611141
vt -24.0607 75.4183
f 19/20/5 26/55/5 27/56/5

vt 0 32.6752
vn 0 0.707107 0.707107
vt 0 51.0905
vn 0 1 -4.29607e-015
vt -11.811 51.0905
vt -11.811 32.6752
f 10/57/11 13/58/12 27/59/12 26/60/11 

vt 0 6.63217
vt 0 -11.7831
vn 0 0.707107 -0.707107
v -0.3 1.73662 -1.04328
vt 11.811 -11.7831
vt 11.811 6.63217
f 13/61/12 21/62/13 28/63/13 27/64/12 

v 0 1.69114 -1.06212
vt 0 45.51
v -0.3 1.69114 -1.06212
vt 11.811 45.51
vt 11.811 47.4482
f 21/10/13 29/65/9 30/66/9 28/67/13 

vt 41.8159 66.5803
f 21/36/1 4/4/1 29/68/1

v 0 1.30448 -1.22228
vt 48.1213 51.3576
f 29/68/1 4/4/1 31/69/1

vn 0 4.42726e-015 -1
vt 0 -2.13046e-013
vt 11.811 -2.13046e-013
v -0.3 1.30448 -1.22228
vt 11.811 51.3576
f 31/3/14 4/70/14 6/71/14 32/72/14 

vt -48.1213 0
vt -41.8159 66.5803
vt -48.1213 51.3576
f 6/73/5 30/74/5 32/75/5

vt -41.0741 68.3711
f 6/73/5 28/76/5 30/74/5

f 6/73/5 23/24/5 28/76/5

f 6/73/5 24/25/5 23/24/5

f 5/1/5 24/25/5 6/73/5

vt -6.30546 66.5803
f 5/1/5 9/77/5 24/25/5

f 9/77/5 5/1/5 7/3/5

f 24/25/5 9/77/5 26/55/5

vt 0 65.8635
vt -11.811 65.8635
f 8/11/4 10/78/11 26/79/11 9/12/4 

f 24/25/5 26/55/5 25/26/5

usemtl Wood
f 22/23/5 23/24/5 24/25/5 25/26/5 19/20/5 18/21/5 20/22/5 

usemtl Light_Stone
f 22/23/5 28/76/5 23/24/5

f 20/22/5 28/76/5 22/23/5

f 20/22/5 27/56/5 28/76/5

f 18/21/5 27/56/5 20/22/5

f 19/20/5 27/56/5 18/21/5

vt 0 29.033
vt 11.811 29.033
f 29/65/9 31/80/9 32/81/9 30/66/9 

