# Alias OBJ Model File
# Exported from SketchUp, (c) 2000-2012 Trimble Navigation Limited
# File units = meters

mtllib Plate_Corner_01.mtl

g Mesh1 Plate_Corner Model

usemtl Dark_Stone
v 3 0 -0
vt 0 0
vn 1 0 -0
v 3 0 -3
vt 118.11 0
v 3 0.25 -3
vt 118.11 9.84252
v 3 0.25 -0
vt 0 9.84252
f 1/1/1 2/2/1 3/3/1 4/4/1 

vt -118.11 118.11
vn 0 -1 -0
vt -118.11 0
v 0 0 -0
v 0 0 -3
vt 0 118.11
f 2/5/2 1/6/2 5/1/2 6/7/2 

usemtl FrontColor
v 1.04035 0.25 -0
vt 40.9585 9.84252
vn 0 0 1
v 0.71151 0.3 -0
vt 28.0122 11.811
v 0 0.3 -0
vt 0 11.811
f 7/8/3 8/9/3 9/10/3 5/1/3 1/2/3 4/3/3 

usemtl Light_Stone
v 0.961155 0.25 -0.398123
vt 7.99061 -38.1894
vn 0.092808 0.994942 -0.0384423
v 0.657349 0.3 -0.272283
vt 5.46491 -25.3402
vt -5.46491 -25.3402
vn 0.0753508 0.997044 -0.0149882
vt -7.99061 -38.1894
f 10/11/4 11/12/4 8/13/5 7/14/5 

v 0.735636 0.25 -0.735636
vn 0.0710321 0.994942 -0.0710321
v 0.503113 0.3 -0.503113
f 11/13/4 10/14/4 12/11/6 13/12/6 

usemtl Dark_Stone
v 0 0.25 -3
vt -1.7062e-016 118.11
vn 1.73349e-017 1 -4.02756e-017
v -1.08229e-011 0.25 -1.04035
vt -4.26098e-010 40.9585
vn 0.0149882 0.997044 -0.0753508
v 0.398123 0.25 -0.961155
vt 15.6741 37.8407
vn 0.0384423 0.994942 -0.092808
vt 28.962 28.962
vt 37.8407 15.6741
vt 40.9585 -3.96413e-016
vt 118.11 -3.96413e-016
vt 118.11 118.11
f 14/15/7 15/16/8 16/17/9 12/18/6 10/19/4 7/20/5 4/21/7 3/22/7 

usemtl FrontColor
vn -1 -1.75943e-011 -5.47369e-013
v -1.03262e-011 0.3 -0.71151
vt -28.0122 11.811
vt -40.9585 9.84252
vt -118.11 9.84252
vt -118.11 1.13747e-021
f 9/10/10 17/23/10 15/24/10 14/25/10 6/26/10 5/1/10 

usemtl Light_Stone
vt 3.0608e-014 3.50243e-014
vn -2.59147e-015 1 2.96539e-015
vt 28.0122 3.50243e-014
vt 25.8799 10.7198
vt 19.8076 19.8076
v 0.272283 0.3 -0.657349
vt 10.7198 25.8799
vt -4.06514e-010 28.0122
f 9/27/11 8/28/5 11/29/4 13/30/6 18/31/9 17/32/8 

f 13/13/6 12/14/6 16/11/9 18/12/9 

f 18/13/9 16/14/9 15/11/8 17/12/8 

usemtl Dark_Stone
vn 0 0 -1
f 2/6/12 6/1/12 14/4/12 3/25/12 

