# Alias OBJ Model File
# Exported from SketchUp, (c) 2000-2012 Trimble Navigation Limited
# File units = meters

mtllib Roof_Point_Green_01.mtl

g Mesh1 Roof_Point_Green Model

usemtl Dark_Stone
v 1.32943 2.8137 -1.5
vt -59.0551 121.826
vn -0.853692 0.520779 -0
v 1.19667 2.59607 -1.63276
vt -64.2819 111.789
v 1.19667 2.59607 -1.36724
vt -53.8283 111.789
f 1/1/1 2/2/1 3/3/1

v 1.5 2.8137 -1.67057
vt -88.265 80.7739
vn -0.535399 0.65322 -0.535399
v 1.36724 2.59607 -1.80333
vt -88.265 69.4579
vt -78.7681 69.4579
vt -78.7681 80.7739
f 4/4/2 5/5/2 2/6/2 1/7/2 

vt -59.0551 60.3162
vn 0 0.520779 -0.853692
v 1.63276 2.59607 -1.80333
vt -64.2819 50.2797
vt -53.8283 50.2797
f 4/8/3 6/9/3 5/10/3

v 1.67057 2.8137 -1.5
vt -4.74848 26.2192
vn 0.535399 0.65322 -0.535399
v 1.80333 2.59607 -1.63276
vt -4.74848 14.9032
vt 4.74848 14.9032
vt 4.74848 26.2192
f 7/11/4 8/12/4 6/13/4 4/14/4 

vt 59.0551 60.3162
vn 0.853692 0.520779 -6.38538e-016
v 1.80333 2.59607 -1.36724
vt 53.8283 50.2797
vt 64.2819 50.2797
f 7/15/5 9/16/5 8/17/5

v 1.5 2.8137 -1.32943
vt 78.7681 80.7739
vn 0.535399 0.65322 0.535399
v 1.63276 2.59607 -1.19667
vt 78.7681 69.4579
vt 88.265 69.4579
vt 88.265 80.7739
f 10/18/6 11/19/6 9/20/6 7/21/6 

vt 59.0551 121.826
vn -6.38538e-016 0.520779 0.853692
v 1.36724 2.59607 -1.19667
vt 53.8283 111.789
vt 64.2819 111.789
f 10/22/7 12/23/7 11/24/7

vt -4.74848 135.329
vn -0.535399 0.65322 0.535399
vt -4.74848 124.013
vt 4.74848 124.013
vt 4.74848 135.329
f 1/25/8 3/26/8 12/27/8 10/28/8 

usemtl Green_Roof
v 0 0.35481 0.17057
vt 4.74848 7.47499
v -0.17057 0.35481 -0
vt -4.74848 7.47499
f 13/29/8 12/27/8 3/26/8 14/30/8 

v 3 0.35481 0.17057
vt 118.11 8.4279
vn 0 0.520779 0.853692
vt 0 8.4279
f 15/31/9 11/24/9 12/23/9 13/32/9 

v 3.17057 0.35481 -0
vt 88.265 -47.0797
vt 78.7681 -47.0797
f 16/33/6 9/20/6 11/19/6 15/34/6 

v 3.17057 0.35481 -3
vt 118.11 -53.0814
vn 0.853692 0.520779 1.07463e-017
vt 1.57131e-015 -53.0814
f 17/35/10 8/17/10 9/16/10 16/36/10 

v 3 0.35481 -3.17057
vt 4.74848 -101.634
vt -4.74848 -101.634
f 18/37/4 6/13/4 8/12/4 17/38/4 

v 0 0.35481 -3.17057
vt 1.57148e-029 -53.0814
vn 1.07475e-031 0.520779 -0.853692
vt -118.11 -53.0814
f 19/39/11 5/10/11 6/9/11 18/40/11 

v -0.17057 0.35481 -3
vt -78.7681 -47.0797
vt -88.265 -47.0797
f 20/41/2 2/6/2 5/5/2 19/42/2 

vt 1.53433e-016 8.4279
vn -0.853692 0.520779 -1.95052e-017
vt -118.11 8.4279
f 14/43/12 3/3/12 2/2/12 20/44/12 

usemtl FrontColor
vt 70.9973 64.2819
vn -3.22314e-016 1 -3.22314e-016
vt 64.2819 70.9973
vt 53.8283 70.9973
vt 47.1129 64.2819
vt 47.1129 53.8283
vt 53.8283 47.1129
vt 64.2819 47.1129
vt 70.9973 53.8283
f 8/45/13 6/46/13 5/47/13 2/48/13 3/49/13 12/50/13 11/51/13 9/52/13 

usemtl Green_Roof
v 0 0.25 -3
vt -118.11 5.15285
vn -0.52353 -0.852007 -0
v 0 0.25 -0
vt 0 5.15285
vt 0 13.0347
vt -118.11 13.0347
f 21/53/14 22/54/14 14/55/14 20/56/14 

vt 4.74848 12.7469
vn -0.463812 -0.754822 0.463812
vt -4.74848 12.7469
vt 0 6.456
f 13/57/15 14/58/15 22/59/15

vn 0 -0.852007 0.52353
v 3 0.25 -0
vt 118.11 5.15285
vt 118.11 13.0347
f 22/54/16 23/60/16 15/61/16 13/55/16 

vt 88.265 75.787
vn 0.463812 -0.754822 0.463812
vt 78.7681 75.787
vt 83.5165 69.4961
f 16/62/17 15/63/17 23/64/17

vt 0 105.784
vn 0.52353 -0.852007 -0
v 3 0.25 -3
vt 118.11 105.784
vt 118.11 113.665
vt 0 113.665
f 23/65/18 24/66/18 17/67/18 16/68/18 

vt 4.74848 138.827
vn 0.463812 -0.754822 -0.463812
vt -4.74848 138.827
vt 3.18323e-012 132.536
f 18/69/19 17/70/19 24/71/19

vt -118.11 105.784
vn 0 -0.852007 -0.52353
vt -118.11 113.665
f 24/72/20 21/65/20 19/68/20 18/73/20 

vt -78.7681 75.787
vn -0.463812 -0.754822 -0.463812
vt -88.265 75.787
vt -83.5165 69.4961
f 20/74/21 19/75/21 21/76/21

usemtl Dark_Stone
vt 52.3398 59.0551
vn 0 1 -2.12385e-015
vt 59.0551 52.3398
vt 65.7705 59.0551
vt 59.0551 65.7705
f 1/77/22 10/78/22 7/79/22 4/80/22 

