# Alias OBJ Model File
# Exported from SketchUp, (c) 2000-2012 Trimble Navigation Limited
# File units = meters

mtllib Shield_Red_01.mtl

g Mesh1 Shield_Red Model

usemtl Dark_Stone
v 0 0.7625 -0
vt 0 30.0197
vn 0 0 1
v 0 0.252338 -0
vt 0 9.93457
v 0.2 0.252338 -0
vt 7.87402 9.93457
v 0.2 0.38125 -0
vt 7.87402 15.0098
v 0.2 0.7625 -0
vt 7.87402 30.0197
f 1/1/1 2/2/1 3/3/1 4/4/1 5/5/1 

vn -1 0 -0
v 0 0.7625 -0.504676
vt -19.8691 30.0197
v 0 0.252338 -0.504676
vt -19.8691 9.93457
v 0 0.0739081 -0.430768
vt -16.9594 2.90977
v 0 0 -0.252338
vt -9.93457 0
v 0 0.0739081 -0.0739081
vt -2.90977 2.90977
f 2/2/2 1/1/2 6/6/2 7/7/2 8/8/2 9/9/2 10/10/2 

vt 0 19.8691
vn 0 1 -1.78806e-016
vt 0 -5.36768e-015
vt 7.87402 -5.36768e-015
v 0.2 0.7625 -0.252338
v 0.2 0.7625 -0.504676
vt 7.87402 19.8691
f 6/11/3 1/12/3 5/13/3 11/3/3 12/14/3 

usemtl Red_Roof
vn 1 0 -0
vt 0 15.0098
v 0.2 0.38125 -0.252338
vt 9.93457 15.0098
vt 9.93457 30.0197
f 5/1/4 4/15/4 13/16/4 11/17/4 

usemtl White
v 0.2 0 -0.252338
vt 9.93457 0
v 0.2 0.0739081 -0.0739081
vt 2.90977 2.90977
f 14/18/4 13/16/4 4/15/4 3/2/4 15/19/4 

usemtl Red_Roof
v 0.2 0.252338 -0.504676
vt 19.8691 9.93457
v 0.2 0.38125 -0.504676
vt 19.8691 15.0098
v 0.2 0.0739081 -0.430768
vt 16.9594 2.90977
f 16/20/4 17/21/4 13/16/4 14/18/4 18/22/4 

usemtl Dark_Stone
vn 0 0 -1
vt -7.87402 30.0197
vt -7.87402 15.0098
vt -7.87402 9.93457
f 7/2/5 6/1/5 12/23/5 17/24/5 16/25/5 

usemtl White
vt 19.8691 30.0197
f 11/17/4 13/16/4 17/21/4 12/26/4 

usemtl Dark_Stone
vt 0 9.17835
vn 0 -0.382683 -0.92388
vt 0 16.7819
vt -7.87402 16.7819
vt -7.87402 9.17835
f 8/27/6 7/28/6 16/29/6 18/30/6 

vn 0 -0.92388 -0.382683
f 9/27/7 8/28/7 18/29/7 14/30/7 

vt 0 -1.57476
vn 0 -0.92388 0.382683
vt 0 -9.17835
vt 7.87402 -9.17835
vt 7.87402 -1.57476
f 10/31/8 9/32/8 14/33/8 15/34/8 

vn 0 -0.382683 0.92388
vt 0 1.57476
vt 7.87402 1.57476
vt 7.87402 9.17835
f 2/27/9 10/35/9 15/36/9 3/37/9 

