# Alias OBJ Model File
# Exported from SketchUp, (c) 2000-2012 Trimble Navigation Limited
# File units = meters

mtllib Stairs_Stone_01.mtl

g Mesh1 Stairs_Stone Model

usemtl Light_Stone
v 0 0 -0
vt 0 0
vn 0 -1 -0
v 0 0 -1.5
vt 0 59.0551
v 3 0 -1.5
vt -118.11 59.0551
v 3 0 -0
vt -118.11 0
f 1/1/1 2/2/1 3/3/1 4/4/1 

vt -59.0551 0
vn -1 0 -0
v 0 2.2 -0
vt 0 86.6142
v 0 2.2 -1.5
vt -59.0551 86.6142
f 2/5/2 1/1/2 5/6/2 6/7/2 

vt 118.11 -4.56927e-028
vn -1.40922e-015 -2.74524e-015 1
v 3 0.275 -0
vt 118.11 10.8268
v 2.625 0.275 -0
vt 103.346 10.8268
v 2.625 0.55 -0
vt 103.346 21.6535
v 2.25 0.55 -0
vt 88.5827 21.6535
v 2.25 0.825 -0
vt 88.5827 32.4803
v 1.875 0.825 2.31012e-014
vt 73.8189 32.4803
v 1.875 1.1 2.31012e-014
vt 73.8189 43.3071
v 1.5 1.1 -0
vt 59.0551 43.3071
v 1.5 1.375 -0
vt 59.0551 54.1339
v 1.125 1.375 2.31012e-014
vt 44.2913 54.1339
v 1.125 1.65 2.31012e-014
vt 44.2913 64.9606
v 0.75 1.65 -0
vt 29.5276 64.9606
v 0.75 1.925 -0
vt 29.5276 75.7874
v 0.375 1.925 -0
vt 14.7638 75.7874
v 0.375 2.2 -0
vt 14.7638 86.6142
f 4/8/3 7/9/3 8/10/3 9/11/3 10/12/3 11/13/3 12/14/3 13/15/3 14/16/3 15/17/3 16/18/3 17/19/3 18/20/3 19/21/3 20/22/3 21/23/3 5/6/3 1/1/3 

vt 59.0551 4.15629e-010
vn 1 -3.51899e-012 -1.20319e-015
v 3 0.275 -1.5
vt 59.0551 10.8268
vt -1.42109e-013 10.8268
vt -1.42109e-013 4.15629e-010
f 3/24/4 22/25/4 7/26/4 4/27/4 

vt -118.11 -1.27858e-014
vn 1.58771e-016 2.16506e-016 -1
vt 9.37623e-015 -1.27858e-014
vt 9.37623e-015 86.6142
v 0.375 2.2 -1.5
vt -14.7638 86.6142
v 0.375 1.925 -1.5
vt -14.7638 75.7874
v 0.75 1.925 -1.5
vt -29.5276 75.7874
v 0.75 1.65 -1.5
vt -29.5276 64.9606
v 1.125 1.65 -1.5
vt -44.2913 64.9606
v 1.125 1.375 -1.5
vt -44.2913 54.1339
v 1.5 1.375 -1.5
vt -59.0551 54.1339
v 1.5 1.1 -1.5
vt -59.0551 43.3071
v 1.875 1.1 -1.5
vt -73.8189 43.3071
v 1.875 0.825 -1.5
vt -73.8189 32.4803
v 2.25 0.825 -1.5
vt -88.5827 32.4803
v 2.25 0.55 -1.5
vt -88.5827 21.6535
v 2.625 0.55 -1.5
vt -103.346 21.6535
v 2.625 0.275 -1.5
vt -103.346 10.8268
vt -118.11 10.8268
f 3/28/5 2/29/5 6/30/5 23/31/5 24/32/5 25/33/5 26/34/5 27/35/5 28/36/5 29/37/5 30/38/5 31/39/5 32/40/5 33/41/5 34/42/5 35/43/5 36/44/5 22/45/5 

vt 14.7638 -9.37916e-014
vn 4.33147e-015 1 -1.08287e-015
vt 14.7638 59.0551
vt -3.75167e-013 59.0551
vt -3.75167e-013 -9.37916e-014
f 21/46/6 23/47/6 6/48/6 5/49/6 

vt -3.55271e-014 86.6142
vn 1 1.47015e-031 -2.40637e-015
vt -3.55271e-014 75.7874
vt 59.0551 75.7874
vt 59.0551 86.6142
f 21/50/7 20/51/7 24/52/7 23/53/7 

vt 14.7638 -1.81899e-013
vn 0 1 -2.40012e-015
vt 29.5276 -1.81899e-013
vt 29.5276 59.0551
f 20/54/8 19/55/8 25/56/8 24/47/8 

vt -7.79567e-014 75.7874
vn 1 0 -2.64013e-015
vt -7.79567e-014 64.9606
vt 59.0551 64.9606
f 19/57/9 18/58/9 26/59/9 25/52/9 

vt 29.5276 -1.55913e-013
vn 1.47855e-028 1 -2.40012e-015
vt 44.2913 -1.06541e-012
vt 44.2913 59.0551
f 18/60/10 17/61/10 27/62/10 26/56/10 

vt -1.02643e-012 64.9606
vt -1.02643e-012 54.1339
f 17/63/9 16/64/9 28/17/9 27/59/9 

vt 44.2913 -1.03942e-012
vn -1.47855e-028 1 -2.40012e-015
vt 59.0551 -1.29928e-013
vt 59.0551 59.0551
f 16/65/11 15/66/11 29/67/11 28/62/11 

vt -1.55913e-013 54.1339
vt -1.55913e-013 43.3071
f 15/68/9 14/69/9 30/16/9 29/17/9 

vt 59.0551 -1.03942e-013
vt 73.8189 -1.01344e-012
vt 73.8189 59.0551
f 14/70/10 13/71/10 31/72/10 30/67/10 

vt -1.10439e-012 43.3071
vt -1.10439e-012 32.4803
vt 59.0551 32.4803
f 13/73/9 12/74/9 32/75/9 31/16/9 

vt 73.8189 -9.87451e-013
vt 88.5827 -7.79567e-014
vt 88.5827 59.0551
f 12/76/11 11/77/11 33/78/11 32/72/11 

vt -2.3387e-013 32.4803
vt -2.3387e-013 21.6535
vt 59.0551 21.6535
f 11/79/9 10/80/9 34/81/9 33/75/9 

vt 88.5827 -5.19711e-014
vt 103.346 -5.19711e-014
vt 103.346 59.0551
f 10/82/8 9/83/8 35/84/8 34/78/8 

vt -2.72848e-013 21.6535
vt -2.72848e-013 10.8268
f 9/85/9 8/86/9 36/25/9 35/81/9 

vt 103.346 -2.70302e-014
vn -5.52966e-031 1 -2.49661e-015
vt 118.11 -2.70302e-014
vt 118.11 59.0551
f 8/87/12 7/88/12 22/89/12 36/84/12 

