# Alias OBJ Model File
# Exported from SketchUp, (c) 2000-2012 Trimble Navigation Limited
# File units = meters

mtllib Wood_Window_Round_01.mtl

g Mesh1 Wood_Window_Round Model

usemtl Wood
v 0.5 2.2 -0
vt 19.685 0
vn 0 1 -0
v 0.5 2.2 -0.5
vt 19.685 19.685
v 0.4 2.2 -0.5
vt 15.748 19.685
v 0.1 2.2 -0.5
vt 3.93701 19.685
v 0 2.2 -0.5
vt 0 19.685
v 0 2.2 -0
vt 0 0
f 1/1/1 2/2/1 3/3/1 4/4/1 5/5/1 6/6/1 

v 0.5 0 -0
vn 1 0 -0
v 0.5 0 -0.5
vt 19.685 86.6142
vt 0 86.6142
f 7/6/2 8/1/2 2/7/2 1/8/2 

v 0 0 -0.5
vn 0 -1 -0
v 0.1 0 -0.5
vt -3.93701 19.685
v 0.4 0 -0.5
vt -15.748 19.685
vt -19.685 19.685
vt -19.685 0
v 0 0 -0
f 9/5/3 10/9/3 11/10/3 8/11/3 7/12/3 12/6/3 

vn 0 0 -1
vt -3.93701 86.6142
vt -3.93701 0
f 9/6/4 5/8/4 4/13/4 10/14/4 

vn -1 0 -0
vt -19.685 86.6142
f 6/8/5 5/15/5 9/12/5 12/6/5 

vn 0 0 1
f 12/6/6 7/1/6 1/7/6 6/8/6 

usemtl Dark_Stone
v 0.1 1.63077 -1.32157
vt -52.0303 64.2035
f 4/15/5 13/16/5 10/12/5

v 0.1 2.2 -2.5
vt -98.4252 86.6142
f 13/16/5 4/15/5 14/17/5

v 0.4 2.2 -2.5
vt 15.748 98.4252
vt 3.93701 98.4252
f 15/18/1 14/19/1 4/4/1 3/3/1 

usemtl Wood
v 0 2.2 -3
vt 0 118.11
v 0 2.2 -2.5
vt 0 98.4252
v 0.5 2.2 -2.5
vt 19.685 98.4252
v 0.5 2.2 -3
vt 19.685 118.11
f 16/20/1 17/21/1 14/19/1 15/18/1 18/22/1 19/23/1 

v 0 0 -3
vt -118.11 0
v 0 0 -2.5
vt -98.4252 0
vt -118.11 86.6142
f 20/24/5 21/25/5 17/17/5 16/26/5 

v 0.5 0 -2.5
vt -19.685 98.4252
v 0.4 0 -2.5
vt -15.748 98.4252
v 0.1 0 -2.5
vt -3.93701 98.4252
v 0.5 0 -3
vt -19.685 118.11
f 22/27/3 23/28/3 24/29/3 21/21/3 20/20/3 25/30/3 

vt 15.748 86.6142
vt 15.748 0
f 22/1/6 18/7/6 15/31/6 23/32/6 

vt 118.11 86.6142
vt 98.4252 86.6142
vt 98.4252 0
vt 118.11 0
f 19/33/2 18/34/2 22/35/2 25/36/2 

f 25/12/4 20/6/4 16/8/4 19/15/4 

usemtl Dark_Stone
v 0.4 1.45234 -1.75234
vt 68.9897 57.1787
f 15/34/2 26/37/2 23/35/2

v 0.4 1.63077 -1.67843
vt 66.0799 64.2035
f 15/34/2 27/38/2 26/37/2

v 0.4 1.70468 -1.5
vt 59.0551 67.1132
f 15/34/2 28/39/2 27/38/2

v 0.4 1.63077 -1.32157
vt 52.0303 64.2035
f 15/34/2 29/40/2 28/39/2

f 3/7/2 29/40/2 15/34/2

v 0.4 1.45234 -1.24766
vt 49.1205 57.1787
f 29/40/2 3/7/2 30/41/2

v 0.4 0.747662 -1.24766
vt 49.1205 29.4355
f 30/41/2 3/7/2 31/42/2

f 11/1/2 31/42/2 3/7/2

f 31/42/2 11/1/2 23/35/2

f 10/9/3 24/29/3 23/28/3 11/10/3 

v 0.1 0.747662 -1.24766
vt -49.1205 29.4355
f 10/12/5 32/43/5 24/25/5

v 0.1 1.45234 -1.24766
vt -49.1205 57.1787
f 32/43/5 10/12/5 33/44/5

f 10/12/5 13/16/5 33/44/5

vt -15.748 79.2274
vn 0 -0.382683 -0.92388
vt -15.748 71.6238
vt -3.93701 71.6238
vt -3.93701 79.2274
f 29/45/7 30/46/7 33/47/7 13/48/7 

vt -15.748 57.1787
vt -15.748 29.4355
vt -3.93701 29.4355
vt -3.93701 57.1787
f 30/49/4 31/50/4 32/51/4 33/52/4 

vt 15.748 49.1205
v 0.4 0.747662 -1.75234
vt 15.748 68.9897
v 0.1 0.747662 -1.75234
vt 3.93701 68.9897
vt 3.93701 49.1205
f 31/53/1 34/54/1 35/55/1 32/56/1 

vt 68.9897 29.4355
f 31/42/2 23/35/2 34/57/2

f 34/57/2 23/35/2 26/37/2

vt 15.748 29.4355
vt 15.748 57.1787
v 0.1 1.45234 -1.75234
vt 3.93701 57.1787
vt 3.93701 29.4355
f 34/58/6 26/59/6 36/60/6 35/61/6 

vt 15.748 26.425
vn 0 -0.382683 0.92388
vt 15.748 34.0286
v 0.1 1.63077 -1.67843
vt 3.93701 34.0286
vt 3.93701 26.425
f 26/62/8 27/63/8 37/64/8 36/65/8 

vt 15.748 -36.4803
vn 0 -0.92388 0.382683
vt 15.748 -28.8767
v 0.1 1.70468 -1.5
vt 3.93701 -28.8767
vt 3.93701 -36.4803
f 27/66/9 28/67/9 38/68/9 37/69/9 

vt -15.748 80.2429
vn 0 -0.92388 -0.382683
vt -15.748 72.6393
vt -3.93701 72.6393
vt -3.93701 80.2429
f 28/70/10 29/71/10 13/72/10 38/73/10 

vt -59.0551 67.1132
f 13/16/5 14/17/5 38/74/5

vt -66.0799 64.2035
f 38/74/5 14/17/5 37/75/5

vt -68.9897 57.1787
f 37/75/5 14/17/5 36/76/5

vt -68.9897 29.4355
f 36/76/5 14/17/5 35/77/5

f 24/25/5 35/77/5 14/17/5

f 24/25/5 32/43/5 35/77/5

usemtl Wood
vt 3.93701 0
vt 3.93701 86.6142
f 17/8/6 21/6/6 24/78/6 14/79/6 

vt -15.748 0
vt -15.748 86.6142
f 2/15/4 8/12/4 11/80/4 3/81/4 

