# Alias OBJ Model File
# Exported from SketchUp, (c) 2000-2012 Trimble Navigation Limited
# File units = meters

mtllib Wood_Tiny_Wall_01.mtl

g Mesh1 Wood_Tiny_Wall Model

usemtl Wood
v 0.5 1.1 -0
vt 19.685 0
vn 0 1 -0
v 0.5 1.1 -0.5
vt 19.685 19.685
v 0.4 1.1 -0.5
vt 15.748 19.685
v 0.1 1.1 -0.5
vt 3.93701 19.685
v 0 1.1 -0.5
vt 0 19.685
v 0 1.1 -0
vt 0 0
f 1/1/1 2/2/1 3/3/1 4/4/1 5/5/1 6/6/1 

v 0.5 0 -0
vt 7.95072e-027 0
vn 1 0 4.03897e-028
v 0.5 0 -0.5
vt 19.685 43.3071
vt 7.95072e-027 43.3071
f 7/7/2 8/1/2 2/8/2 1/9/2 

v 0 0 -0.5
vn 0 -1 -0
v 0.1 0 -0.5
vt -3.93701 19.685
v 0.4 0 -0.5
vt -15.748 19.685
vt -19.685 19.685
vt -19.685 0
v 0 0 -0
f 9/5/3 10/10/3 11/11/3 8/12/3 7/13/3 12/6/3 

vn 4.03897e-028 0 -1
vt -3.93701 43.3071
vt -3.93701 0
f 9/7/4 5/9/4 4/14/4 10/15/4 

vt 0 43.3071
vn -1 0 -4.03897e-028
vt -19.685 43.3071
f 6/16/5 5/17/5 9/13/5 12/6/5 

vn -4.03897e-028 0 1
f 12/6/6 7/1/6 1/8/6 6/16/6 

usemtl Dark_Stone
v 0.1 0 -2.5
vt -98.4252 0
v 0.1 1.1 -2.5
vt -98.4252 43.3071
f 13/18/5 10/13/5 4/17/5 14/19/5 

vt -3.93701 98.4252
v 0.4 0 -2.5
vt -15.748 98.4252
f 10/10/3 13/20/3 15/21/3 11/11/3 

usemtl Wood
v 0.5 0 -2.5
vt -19.685 98.4252
v 0 0 -2.5
vt 0 98.4252
v 0 0 -3
vt 0 118.11
v 0.5 0 -3
vt -19.685 118.11
f 16/22/3 15/21/3 13/20/3 17/23/3 18/24/3 19/25/3 

v 0.5 1.1 -2.5
v 0.4 1.1 -2.5
vt 15.748 43.3071
vt 15.748 0
f 16/1/6 20/8/6 21/26/6 15/27/6 

v 0.5 1.1 -3
vt 118.11 43.3071
vt 98.4252 43.3071
vt 98.4252 0
vt 118.11 0
f 22/28/2 20/29/2 16/30/2 19/31/2 

v 0 1.1 -3
v 0 1.1 -2.5
vt 3.93701 98.4252
vt 15.748 98.4252
vt 19.685 98.4252
vt 19.685 118.11
f 23/24/1 24/23/1 14/32/1 21/33/1 20/34/1 22/35/1 

vt -118.11 0
vt -118.11 43.3071
f 18/36/5 17/18/5 24/19/5 23/37/5 

vt -3.97536e-026 43.3071
vt -3.97536e-026 0
vt 3.93701 0
vt 3.93701 43.3071
f 24/38/6 17/39/6 13/40/6 14/41/6 

f 13/40/6 15/27/6 21/26/6 14/41/6 

usemtl Dark_Stone
f 11/1/2 15/30/2 21/29/2 3/8/2 

vn -8.96831e-044 1 3.60956e-016
f 21/33/7 14/32/7 4/4/7 3/3/7 

usemtl Wood
vt -15.748 0
vt -15.748 43.3071
f 11/42/4 10/15/4 4/14/4 3/43/4 

f 2/17/4 8/13/4 11/42/4 3/43/4 

vt 4.77043e-026 0
vt 4.77043e-026 43.3071
f 19/13/4 18/44/4 23/45/4 22/17/4 

