# Alias OBJ Model File
# Exported from SketchUp, (c) 2000-2012 Trimble Navigation Limited
# File units = meters

mtllib Wood_Door_01.mtl

g Mesh1 Wood_Door Model

usemtl Wood
v 0 0 -0
vt 0 0
vn 1 0 -0
v 0 0 -1.22228
vt 48.1213 0
v 0 1.30448 -1.22228
vt 48.1213 51.3576
v 0 1.69114 -1.06212
vt 41.8159 66.5803
v 0 1.73662 -1.04328
vt 41.0741 68.3711
v 0 1.91562 -0.611141
vt 24.0607 75.4183
v 0 1.73662 -0.178999
vt 7.0472 68.3711
v 0 1.69114 -0.160159
vt 6.30546 66.5803
v 0 1.30448 -0
vt 0 51.3576
f 1/1/1 2/2/1 3/3/1 4/4/1 5/5/1 6/6/1 7/7/1 8/8/1 9/9/1 

vt 0 48.1213
vn 0 -1 -0
v -0.3 0 -0
vt 11.811 0
v -0.3 0 -1.22228
vt 11.811 48.1213
f 2/10/2 1/1/2 10/11/2 11/12/2 

vn 0 0 1
v -0.3 1.30448 -0
vt -11.811 51.3576
vt -11.811 0
f 1/1/3 9/9/3 12/13/3 10/14/3 

vt 0 47.4482
vn 0 0.382683 0.92388
vt 0 63.9252
v -0.3 1.69114 -0.160159
vt -11.811 63.9252
vt -11.811 47.4482
f 9/15/4 8/16/4 13/17/4 12/18/4 

vt 0 65.8635
vn 0 0.707107 0.707107
v -0.3 1.73662 -0.178999
vt -11.811 65.8635
f 8/16/4 7/19/5 14/20/5 13/17/4 

vt 0 32.6752
vt 0 51.0905
vn 0 1 -4.29607e-015
v -0.3 1.91562 -0.611141
vt -11.811 51.0905
vt -11.811 32.6752
f 7/21/5 6/22/6 15/23/6 14/24/5 

vt 0 6.63217
vt 0 -11.7831
vn 0 0.707107 -0.707107
v -0.3 1.73662 -1.04328
vt 11.811 -11.7831
vt 11.811 6.63217
f 6/25/6 5/26/7 16/27/7 15/28/6 

vt 0 45.51
vn 0 0.382683 -0.92388
v -0.3 1.69114 -1.06212
vt 11.811 45.51
vt 11.811 47.4482
f 5/15/7 4/29/8 17/30/8 16/31/7 

vt 0 29.033
v -0.3 1.30448 -1.22228
vt 11.811 29.033
f 4/29/8 3/32/8 18/33/8 17/30/8 

vn 0 4.42726e-015 -1
vt 0 -2.13046e-013
vt 11.811 -2.13046e-013
vt 11.811 51.3576
f 3/9/9 2/34/9 11/35/9 18/36/9 

vt -48.1213 0
vn -1 0 -0
vt -6.30546 66.5803
vt -7.0472 68.3711
vt -24.0607 75.4183
vt -41.0741 68.3711
vt -41.8159 66.5803
vt -48.1213 51.3576
f 11/37/10 10/1/10 12/9/10 13/38/10 14/39/10 15/40/10 16/41/10 17/42/10 18/43/10 

