# Alias OBJ Model File
# Exported from SketchUp, (c) 2000-2012 Trimble Navigation Limited
# File units = meters

mtllib Wood_Door_Round_01.mtl

g Mesh1 Wood_Door_Round Model

usemtl Wood
v 0.5 2.2 -0
vt 19.685 0
vn 0 1 -0
v 0.5 2.2 -0.5
vt 19.685 19.685
v 0.4 2.2 -0.5
vt 15.748 19.685
v 0.1 2.2 -0.5
vt 3.93701 19.685
v 0 2.2 -0.5
vt 0 19.685
v 0 2.2 -0
vt 0 0
f 1/1/1 2/2/1 3/3/1 4/4/1 5/5/1 6/6/1 

v 0.5 0 -0
vn 1 0 -0
v 0.5 0 -0.5
vt 19.685 86.6142
vt 0 86.6142
f 7/6/2 8/1/2 2/7/2 1/8/2 

v 0 0 -0.5
vn 0 -1 -0
v 0.1 0 -0.5
vt -3.93701 19.685
v 0.4 0 -0.5
vt -15.748 19.685
vt -19.685 19.685
vt -19.685 0
v 0 0 -0
f 9/5/3 10/9/3 11/10/3 8/11/3 7/12/3 12/6/3 

vn 0 0 -1
vt -3.93701 86.6142
vt -3.93701 0
f 9/6/4 5/8/4 4/13/4 10/14/4 

vn -1 0 -0
vt -19.685 86.6142
f 6/8/5 5/15/5 9/12/5 12/6/5 

vn 0 0 1
f 12/6/6 7/1/6 1/7/6 6/8/6 

usemtl Dark_Stone
v 0.1 0 -2.5
vt -98.4252 1.3844e-016
vn -1 3.51637e-017 6.38338e-031
v 0.1 -2.25597e-017 -2.11114
vt -83.1158 -7.49739e-016
v 0.1 1.30448 -2.11114
vt -83.1158 51.3576
v 0.1 1.69114 -1.95098
vt -76.8103 66.5803
v 0.1 1.73662 -1.93214
vt -76.0686 68.3711
v 0.1 1.91562 -1.5
vt -59.0551 75.4183
v 0.1 1.73662 -1.06786
vt -42.0417 68.3711
v 0.1 1.69114 -1.04902
vt -41.2999 66.5803
v 0.1 1.30448 -0.888859
vt -34.9945 51.3576
v 0.1 -2.25597e-017 -0.888859
vt -34.9945 -7.49739e-016
vt -19.685 1.3844e-016
v 0.1 2.2 -2.5
vt -98.4252 86.6142
f 13/16/7 14/17/7 15/18/7 16/19/7 17/20/7 18/21/7 19/22/7 20/23/7 21/24/7 22/25/7 10/26/7 4/15/7 23/27/7 

v 0.4 0 -2.5
vt -15.748 98.4252
vn -1.82867e-033 -1 -5.80152e-017
v 0.4 -2.25597e-017 -2.11114
vt -15.748 83.1158
vt -3.93701 83.1158
vt -3.93701 98.4252
f 24/28/8 25/29/8 14/30/8 13/31/8 

v 0.4 -2.25597e-017 -0.888859
vt 34.9945 -8.88178e-016
v 0.4 1.30448 -0.888859
vt 34.9945 51.3576
v 0.4 1.69114 -1.04902
vt 41.2999 66.5803
v 0.4 1.73662 -1.06786
vt 42.0417 68.3711
v 0.4 1.91562 -1.5
vt 59.0551 75.4183
v 0.4 1.73662 -1.93214
vt 76.0686 68.3711
v 0.4 1.69114 -1.95098
vt 76.8103 66.5803
v 0.4 1.30448 -2.11114
vt 83.1158 51.3576
vt 83.1158 -8.88178e-016
vt 98.4252 0
v 0.4 2.2 -2.5
vt 98.4252 86.6142
f 11/1/2 26/32/2 27/33/2 28/34/2 29/35/2 30/36/2 31/37/2 32/38/2 33/39/2 25/40/2 24/41/2 34/42/2 3/7/2 

vn 1.12632e-033 -1 5.80152e-017
vt -3.93701 34.9945
vt -15.748 34.9945
f 10/9/9 22/43/9 26/44/9 11/10/9 

vt -15.748 51.3576
vt -15.748 -8.88178e-016
vt -3.93701 -8.88178e-016
vt -3.93701 51.3576
f 27/45/4 26/46/4 22/47/4 21/48/4 

vt -15.748 77.317
vn 0 -0.382683 -0.92388
vt -15.748 60.84
vt -3.93701 60.84
vt -3.93701 77.317
f 28/49/10 27/50/10 21/51/10 20/52/10 

vt -15.748 79.2553
vt -3.93701 79.2553
f 29/53/10 28/49/10 20/52/10 19/54/10 

vt -15.748 83.4211
vn 0 -0.92388 -0.382683
vt -15.748 65.0059
vt -3.93701 65.0059
vt -3.93701 83.4211
f 30/55/11 29/56/11 19/57/11 18/58/11 

vt 15.748 -44.1137
vn 0 -0.92388 0.382683
vt 15.748 -25.6985
vt 3.93701 -25.6985
vt 3.93701 -44.1137
f 31/59/12 30/60/12 18/61/12 17/62/12 

vt 15.748 32.1182
vn 0 -0.382683 0.92388
vt 15.748 34.0564
vt 3.93701 34.0564
vt 3.93701 32.1182
f 32/63/13 31/64/13 17/65/13 16/66/13 

vt 15.748 15.6412
vt 3.93701 15.6412
f 33/67/13 32/63/13 16/66/13 15/68/13 

vt 15.748 -3.68864e-013
vn 0 -4.42726e-015 1
vt 15.748 51.3576
vt 3.93701 51.3576
vt 3.93701 -3.68864e-013
f 25/69/14 33/70/14 15/71/14 14/72/14 

usemtl Wood
v 0.5 0 -2.5
v 0.5 2.2 -2.5
vt 15.748 86.6142
vt 15.748 0
f 35/1/6 36/7/6 34/73/6 24/74/6 

v 0.5 2.2 -3
vt 118.11 86.6142
v 0.5 0 -3
vt 118.11 0
f 37/75/2 36/42/2 35/41/2 38/76/2 

v 0 2.2 -3
vt 0 118.11
v 0 2.2 -2.5
vt 0 98.4252
vt 3.93701 98.4252
vt 15.748 98.4252
vt 19.685 98.4252
vt 19.685 118.11
f 39/77/1 40/78/1 23/79/1 34/80/1 36/81/1 37/82/1 

v 0 0 -3
vt -118.11 0
v 0 0 -2.5
vt -98.4252 0
vt -118.11 86.6142
f 41/83/5 42/84/5 40/27/5 39/85/5 

vt -19.685 98.4252
vt -19.685 118.11
f 35/86/3 24/28/3 13/31/3 42/78/3 41/77/3 38/87/3 

vt 3.93701 0
vt 3.93701 86.6142
f 40/8/6 42/6/6 13/88/6 23/89/6 

f 38/12/4 41/6/4 39/8/4 37/15/4 

usemtl Dark_Stone
f 34/80/1 23/79/1 4/4/1 3/3/1 

usemtl Wood
vt -15.748 0
vt -15.748 86.6142
f 2/15/4 8/12/4 11/90/4 3/91/4 

