
<svg xmlns="http://www.w3.org/2000/svg" version="1.1" xmlns:xlink="http://www.w3.org/1999/xlink" preserveAspectRatio="none" x="0px" y="0px" width="550px" height="400px" viewBox="0 0 550 400">
<defs>
<g id="Layer0_0_FILL">
<path fill="#C65353" stroke="none" d="
M 193.8 33.1
L 192.75 33.6
Q 187.05 36.65 186.25 42.3
L 192.5 45.45
Q 193.3 39.85 199 36.8
L 200.05 36.25 193.8 33.1
M 212.55 42.5
L 206.3 39.4 205.25 39.9
Q 199.55 42.95 198.75 48.55
L 198.75 48.6 205 51.7
Q 205.8 46.1 211.5 43.05
L 212.55 42.5 Z"/>

<path fill="#D26262" stroke="none" d="
M 192.75 33.6
L 193.8 33.1 187.55 30 186.5 30.55
Q 185.65 31 184.95 31.5 180.7 34.4 180 39.2
L 186.25 42.3
Q 187.05 36.65 192.75 33.6
M 205.25 39.9
L 206.3 39.4 200.05 36.25 199 36.8
Q 193.3 39.85 192.5 45.45
L 198.75 48.6 198.75 48.55
Q 199.55 42.95 205.25 39.9 Z"/>

<path fill="#9F3535" stroke="none" d="
M 212.55 47.9
L 212.55 42.5 211.5 43.05
Q 205.8 46.1 205 51.7
L 212.55 47.9 Z"/>
</g>

<g id="Layer0_1_FILL">
<path fill="#C65353" stroke="none" d="
M 156.3 39.4
L 148.75 48.6 155 51.7 162.55 42.5 156.3 39.4
M 150.05 36.25
L 143.8 33.15 136.25 42.35 142.5 45.45 150.05 36.25 Z"/>

<path fill="#D26262" stroke="none" d="
M 156.3 39.4
L 150.05 36.25 142.5 45.45 148.75 48.6 156.3 39.4
M 137.55 30
L 130 39.2 136.25 42.35 143.8 33.15 137.55 30 Z"/>

<path fill="#9F3535" stroke="none" d="
M 162.55 47.9
L 162.55 42.5 155 51.7 162.55 47.9 Z"/>
</g>

<g id="Layer0_2_FILL">
<path fill="#9F3535" stroke="none" d="
M 112.55 42.5
L 111.5 43.05
Q 105.8 46.1 105 51.7
L 112.55 47.9 112.55 42.5 Z"/>

<path fill="#C65353" stroke="none" d="
M 111.5 43.05
L 112.55 42.5 87.55 30 86.5 30.55
Q 80.8 33.6 80 39.2
L 105 51.7
Q 105.8 46.1 111.5 43.05 Z"/>
</g>

<g id="Layer0_3_FILL">
<path fill="#C65353" stroke="none" d="
M 37.55 30
L 30 39.2 55 51.7 62.55 42.5 37.55 30 Z"/>

<path fill="#9F3535" stroke="none" d="
M 62.55 47.9
L 62.55 42.5 55 51.7 62.55 47.9 Z"/>
</g>

<g id="Layer0_4_FILL">
<path fill="#9F3535" stroke="none" d="
M 231 43.05
L 229.95 42.5 229.95 47.9 237.5 51.7
Q 236.7 46.1 231 43.05 Z"/>

<path fill="#C65353" stroke="none" d="
M 243.75 48.6
L 243.75 48.55
Q 242.95 42.95 237.25 39.9
L 236.2 39.4 229.95 42.5 231 43.05
Q 236.7 46.1 237.5 51.7
L 243.75 48.6
M 249.75 33.6
L 248.7 33.1 242.45 36.25 243.5 36.8
Q 249.2 39.85 250 45.45
L 256.25 42.3
Q 255.45 36.65 249.75 33.6 Z"/>

<path fill="#D26262" stroke="none" d="
M 243.75 48.6
L 250 45.45
Q 249.2 39.85 243.5 36.8
L 242.45 36.25 236.2 39.4 237.25 39.9
Q 242.95 42.95 243.75 48.55
L 243.75 48.6
M 256 30.55
L 254.95 30 248.7 33.1 249.75 33.6
Q 255.45 36.65 256.25 42.3
L 262.5 39.2
Q 261.8 34.4 257.55 31.5 256.85 31 256 30.55 Z"/>
</g>

<g id="Layer0_5_FILL">
<path fill="#9F3535" stroke="none" d="
M 279.95 42.5
L 279.95 47.9 287.5 51.7 279.95 42.5 Z"/>

<path fill="#D26262" stroke="none" d="
M 312.5 39.2
L 304.95 30 298.7 33.15 306.25 42.35 312.5 39.2
M 300 45.45
L 292.45 36.25 286.2 39.4 293.75 48.6 300 45.45 Z"/>

<path fill="#C65353" stroke="none" d="
M 293.75 48.6
L 286.2 39.4 279.95 42.5 287.5 51.7 293.75 48.6
M 298.7 33.15
L 292.45 36.25 300 45.45 306.25 42.35 298.7 33.15 Z"/>
</g>

<g id="Layer0_6_FILL">
<path fill="#9F3535" stroke="none" d="
M 331 43.05
L 329.95 42.5 329.95 47.9 337.5 51.7
Q 336.7 46.1 331 43.05 Z"/>

<path fill="#C65353" stroke="none" d="
M 362.5 39.2
Q 361.7 33.6 356 30.55
L 354.95 30 329.95 42.5 331 43.05
Q 336.7 46.1 337.5 51.7
L 362.5 39.2 Z"/>
</g>

<g id="Layer0_7_FILL">
<path fill="#9F3535" stroke="none" d="
M 379.95 42.5
L 379.95 47.9 387.5 51.7 379.95 42.5 Z"/>

<path fill="#C65353" stroke="none" d="
M 404.95 30
L 379.95 42.5 387.5 51.7 412.5 39.2 404.95 30 Z"/>
</g>

<g id="Layer0_8_FILL">
<path fill="#AF8563" stroke="none" d="
M 55 116.7
L 62.55 107.5 37.55 95 30 104.2 55 116.7 Z"/>

<path fill="#916B4E" stroke="none" d="
M 62.55 112.9
L 62.55 107.5 55 116.7 62.55 112.9 Z"/>
</g>

<g id="Layer0_9_FILL">
<path fill="#AF8563" stroke="none" d="
M 136.25 107.35
L 142.5 110.45 150.05 101.25 143.8 98.15 136.25 107.35
M 156.3 104.4
L 148.75 113.6 155 116.7 162.55 107.5 156.3 104.4 Z"/>

<path fill="#B88F6E" stroke="none" d="
M 142.5 110.45
L 148.75 113.6 156.3 104.4 150.05 101.25 142.5 110.45
M 143.8 98.15
L 137.55 95 130 104.2 136.25 107.35 143.8 98.15 Z"/>

<path fill="#916B4E" stroke="none" d="
M 162.55 112.9
L 162.55 107.5 155 116.7 162.55 112.9 Z"/>
</g>

<g id="Layer0_10_FILL">
<path fill="#B88F6E" stroke="none" d="
M 205.25 104.9
L 206.3 104.4 200.05 101.25 199 101.8
Q 193.3 104.85 192.5 110.45
L 198.75 113.6 198.75 113.55
Q 199.55 107.95 205.25 104.9
M 186.5 95.55
Q 185.65 96 184.95 96.5 180.7 99.4 180 104.2
L 186.25 107.3
Q 187.05 101.65 192.75 98.6
L 193.8 98.1 187.55 95 186.5 95.55 Z"/>

<path fill="#AF8563" stroke="none" d="
M 205 116.7
Q 205.8 111.1 211.5 108.05
L 212.55 107.5 206.3 104.4 205.25 104.9
Q 199.55 107.95 198.75 113.55
L 198.75 113.6 205 116.7
M 193.8 98.1
L 192.75 98.6
Q 187.05 101.65 186.25 107.3
L 192.5 110.45
Q 193.3 104.85 199 101.8
L 200.05 101.25 193.8 98.1 Z"/>

<path fill="#916B4E" stroke="none" d="
M 212.55 112.9
L 212.55 107.5 211.5 108.05
Q 205.8 111.1 205 116.7
L 212.55 112.9 Z"/>
</g>

<g id="Layer0_11_FILL">
<path fill="#B88F6E" stroke="none" d="
M 242.45 101.25
L 236.2 104.4 237.25 104.9
Q 242.95 107.95 243.75 113.55
L 243.75 113.6 250 110.45
Q 249.2 104.85 243.5 101.8
L 242.45 101.25
M 254.95 95
L 248.7 98.1 249.75 98.6
Q 255.45 101.65 256.25 107.3
L 262.5 104.2
Q 262.25 102.35 261.45 100.85 260.2 98.3 257.55 96.5 256.85 96 256 95.55
L 254.95 95 Z"/>

<path fill="#916B4E" stroke="none" d="
M 237.5 116.7
Q 236.7 111.1 231 108.05
L 229.95 107.5 229.95 112.9 237.5 116.7 Z"/>

<path fill="#AF8563" stroke="none" d="
M 231 108.05
Q 236.7 111.1 237.5 116.7
L 243.75 113.6 243.75 113.55
Q 242.95 107.95 237.25 104.9
L 236.2 104.4 229.95 107.5 231 108.05
M 249.75 98.6
L 248.7 98.1 242.45 101.25 243.5 101.8
Q 249.2 104.85 250 110.45
L 256.25 107.3
Q 255.45 101.65 249.75 98.6 Z"/>
</g>

<g id="Layer0_12_FILL">
<path fill="#916B4E" stroke="none" d="
M 279.95 107.5
L 279.95 112.9 287.5 116.7 279.95 107.5 Z"/>

<path fill="#AF8563" stroke="none" d="
M 300 110.45
L 306.25 107.35 298.7 98.15 292.45 101.25 300 110.45
M 293.75 113.6
L 286.2 104.4 279.95 107.5 287.5 116.7 293.75 113.6 Z"/>

<path fill="#B88F6E" stroke="none" d="
M 286.2 104.4
L 293.75 113.6 300 110.45 292.45 101.25 286.2 104.4
M 304.95 95
L 298.7 98.15 306.25 107.35 312.5 104.2 304.95 95 Z"/>
</g>

<g id="Layer0_13_FILL">
<path fill="#916B4E" stroke="none" d="
M 329.95 107.5
L 329.95 112.9 337.5 116.7
Q 336.7 111.1 331 108.05
L 329.95 107.5 Z"/>

<path fill="#AF8563" stroke="none" d="
M 356 95.55
L 354.95 95 329.95 107.5 331 108.05
Q 336.7 111.1 337.5 116.7
L 362.5 104.2
Q 361.7 98.6 356 95.55 Z"/>
</g>

<g id="Layer0_14_FILL">
<path fill="#916B4E" stroke="none" d="
M 387.5 116.7
L 379.95 107.5 379.95 112.9 387.5 116.7 Z"/>

<path fill="#AF8563" stroke="none" d="
M 379.95 107.5
L 387.5 116.7 412.5 104.2 404.95 95 379.95 107.5 Z"/>
</g>

<g id="Layer0_15_FILL">
<path fill="#47936E" stroke="none" d="
M 379.95 167.5
L 379.95 172.9 387.5 176.7 379.95 167.5 Z"/>

<path fill="#53A67E" stroke="none" d="
M 404.95 155
L 379.95 167.5 387.5 176.7 412.5 164.2 404.95 155 Z"/>
</g>

<g id="Layer0_16_FILL">
<path fill="#47936E" stroke="none" d="
M 329.95 172.9
L 337.5 176.7
Q 336.7 171.1 331 168.05
L 329.95 167.5 329.95 172.9 Z"/>

<path fill="#53A67E" stroke="none" d="
M 362.5 164.2
Q 361.7 158.6 356 155.55
L 354.95 155 329.95 167.5 331 168.05
Q 336.7 171.1 337.5 176.7
L 362.5 164.2 Z"/>
</g>

<g id="Layer0_17_FILL">
<path fill="#53A67E" stroke="none" d="
M 287.5 176.7
L 293.75 173.6 286.2 164.4 279.95 167.5 287.5 176.7
M 298.7 158.15
L 292.45 161.25 300 170.45 306.25 167.35 298.7 158.15 Z"/>

<path fill="#64B88F" stroke="none" d="
M 300 170.45
L 292.45 161.25 286.2 164.4 293.75 173.6 300 170.45
M 312.5 164.2
L 304.95 155 298.7 158.15 306.25 167.35 312.5 164.2 Z"/>

<path fill="#47936E" stroke="none" d="
M 279.95 167.5
L 279.95 172.9 287.5 176.7 279.95 167.5 Z"/>
</g>

<g id="Layer0_18_FILL">
<path fill="#53A67E" stroke="none" d="
M 249.75 158.6
L 248.7 158.1 242.45 161.25 243.5 161.8
Q 249.2 164.85 250 170.45
L 256.25 167.3
Q 255.45 161.65 249.75 158.6
M 231 168.05
Q 236.7 171.1 237.5 176.7
L 243.75 173.6 243.75 173.55
Q 242.95 167.95 237.25 164.9
L 236.2 164.4 229.95 167.5 231 168.05 Z"/>

<path fill="#64B88F" stroke="none" d="
M 257.55 156.5
Q 256.85 156 256 155.55
L 254.95 155 248.7 158.1 249.75 158.6
Q 255.45 161.65 256.25 167.3
L 262.5 164.2
Q 261.8 159.4 257.55 156.5
M 242.45 161.25
L 236.2 164.4 237.25 164.9
Q 242.95 167.95 243.75 173.55
L 243.75 173.6 250 170.45
Q 249.2 164.85 243.5 161.8
L 242.45 161.25 Z"/>

<path fill="#47936E" stroke="none" d="
M 229.95 167.5
L 229.95 172.9 237.5 176.7
Q 236.7 171.1 231 168.05
L 229.95 167.5 Z"/>
</g>

<g id="Layer0_19_FILL">
<path fill="#47936E" stroke="none" d="
M 211.5 168.05
Q 205.8 171.1 205 176.7
L 212.55 172.9 212.55 167.5 211.5 168.05 Z"/>

<path fill="#53A67E" stroke="none" d="
M 198.75 173.55
L 198.75 173.6 205 176.7
Q 205.8 171.1 211.5 168.05
L 212.55 167.5 206.3 164.4 205.25 164.9
Q 199.55 167.95 198.75 173.55
M 193.8 158.1
L 192.75 158.6
Q 187.05 161.65 186.25 167.3
L 192.5 170.45
Q 193.3 164.85 199 161.8
L 200.05 161.25 193.8 158.1 Z"/>

<path fill="#64B88F" stroke="none" d="
M 200.05 161.25
L 199 161.8
Q 193.3 164.85 192.5 170.45
L 198.75 173.6 198.75 173.55
Q 199.55 167.95 205.25 164.9
L 206.3 164.4 200.05 161.25
M 192.75 158.6
L 193.8 158.1 187.55 155 186.5 155.55
Q 185.65 156 184.95 156.5 180.7 159.4 180 164.2
L 186.25 167.3
Q 187.05 161.65 192.75 158.6 Z"/>
</g>

<g id="Layer0_20_FILL">
<path fill="#53A67E" stroke="none" d="
M 148.75 173.6
L 155 176.7 162.55 167.5 156.3 164.4 148.75 173.6
M 150.05 161.25
L 143.8 158.15 136.25 167.35 142.5 170.45 150.05 161.25 Z"/>

<path fill="#64B88F" stroke="none" d="
M 137.55 155
L 130 164.2 136.25 167.35 143.8 158.15 137.55 155
M 156.3 164.4
L 150.05 161.25 142.5 170.45 148.75 173.6 156.3 164.4 Z"/>

<path fill="#47936E" stroke="none" d="
M 162.55 172.9
L 162.55 167.5 155 176.7 162.55 172.9 Z"/>
</g>

<g id="Layer0_21_FILL">
<path fill="#47936E" stroke="none" d="
M 111.5 168.05
Q 105.8 171.1 105 176.7
L 112.55 172.9 112.55 167.5 111.5 168.05 Z"/>

<path fill="#53A67E" stroke="none" d="
M 112.55 167.5
L 87.55 155 86.5 155.55
Q 83.6 157.1 81.95 159.35 80.4 161.45 80 164.2
L 105 176.7
Q 105.8 171.1 111.5 168.05
L 112.55 167.5 Z"/>
</g>

<g id="Layer0_22_FILL">
<path fill="#47936E" stroke="none" d="
M 62.55 167.5
L 55 176.7 62.55 172.9 62.55 167.5 Z"/>

<path fill="#53A67E" stroke="none" d="
M 37.55 155
L 30 164.2 55 176.7 62.55 167.5 37.55 155 Z"/>
</g>

<g id="Layer0_23_FILL">
<path fill="#6B685D" stroke="none" d="
M 55 241.7
L 62.55 232.5 37.55 220 30 229.2 55 241.7 Z"/>

<path fill="#5F5D52" stroke="none" d="
M 62.55 237.9
L 62.55 232.5 55 241.7 62.55 237.9 Z"/>
</g>

<g id="Layer0_24_FILL">
<path fill="#5F5D52" stroke="none" d="
M 111.5 233.05
Q 105.8 236.1 105 241.7
L 112.55 237.9 112.55 232.5 111.5 233.05 Z"/>

<path fill="#6B685D" stroke="none" d="
M 105 241.7
Q 105.8 236.1 111.5 233.05
L 112.55 232.5 87.55 220 86.5 220.55
Q 80.8 223.6 80 229.2
L 105 241.7 Z"/>
</g>

<g id="Layer0_25_FILL">
<path fill="#5F5D52" stroke="none" d="
M 162.55 237.9
L 162.55 232.5 155 241.7 162.55 237.9 Z"/>

<path fill="#6B685D" stroke="none" d="
M 156.3 229.4
L 148.75 238.6 155 241.7 162.55 232.5 156.3 229.4
M 150.05 226.25
L 143.8 223.15 136.25 232.35 142.5 235.45 150.05 226.25 Z"/>

<path fill="#79776F" stroke="none" d="
M 156.3 229.4
L 150.05 226.25 142.5 235.45 148.75 238.6 156.3 229.4
M 130 229.2
L 136.25 232.35 143.8 223.15 137.55 220 130 229.2 Z"/>
</g>

<g id="Layer0_26_FILL">
<path fill="#5F5D52" stroke="none" d="
M 279.95 232.5
L 279.95 237.9 287.5 241.7 279.95 232.5 Z"/>

<path fill="#79776F" stroke="none" d="
M 306.25 232.35
L 312.5 229.2 304.95 220 298.7 223.15 306.25 232.35
M 286.2 229.4
L 293.75 238.6 300 235.45 292.45 226.25 286.2 229.4 Z"/>

<path fill="#6B685D" stroke="none" d="
M 292.45 226.25
L 300 235.45 306.25 232.35 298.7 223.15 292.45 226.25
M 293.75 238.6
L 286.2 229.4 279.95 232.5 287.5 241.7 293.75 238.6 Z"/>
</g>

<g id="Layer0_27_FILL">
<path fill="#5F5D52" stroke="none" d="
M 329.95 237.9
L 337.5 241.7
Q 336.7 236.1 331 233.05
L 329.95 232.5 329.95 237.9 Z"/>

<path fill="#6B685D" stroke="none" d="
M 362.5 229.2
Q 361.7 223.6 356 220.55
L 354.95 220 329.95 232.5 331 233.05
Q 336.7 236.1 337.5 241.7
L 362.5 229.2 Z"/>
</g>

<g id="Layer0_28_FILL">
<path fill="#5F5D52" stroke="none" d="
M 387.5 241.7
L 379.95 232.5 379.95 237.9 387.5 241.7 Z"/>

<path fill="#6B685D" stroke="none" d="
M 404.95 220
L 379.95 232.5 387.5 241.7 412.5 229.2 404.95 220 Z"/>
</g>

<g id="Layer0_29_FILL">
<path fill="#5F5D52" stroke="none" d="
M 231 233.05
L 229.95 232.5 229.95 237.9 237.5 241.7
Q 236.7 236.1 231 233.05 Z"/>

<path fill="#6B685D" stroke="none" d="
M 249.75 223.6
L 248.7 223.1 242.45 226.25 243.5 226.8
Q 249.2 229.85 250 235.45
L 256.25 232.3
Q 255.45 226.65 249.75 223.6
M 243.75 238.6
L 243.75 238.55
Q 242.95 232.95 237.25 229.9
L 236.2 229.4 229.95 232.5 231 233.05
Q 236.7 236.1 237.5 241.7
L 243.75 238.6 Z"/>

<path fill="#79776F" stroke="none" d="
M 243.75 238.6
L 250 235.45
Q 249.2 229.85 243.5 226.8
L 242.45 226.25 236.2 229.4 237.25 229.9
Q 242.95 232.95 243.75 238.55
L 243.75 238.6
M 256 220.55
L 254.95 220 248.7 223.1 249.75 223.6
Q 255.45 226.65 256.25 232.3
L 262.5 229.2
Q 261.8 224.4 257.55 221.5 256.85 221 256 220.55 Z"/>
</g>

<g id="Layer0_30_FILL">
<path fill="#6B685D" stroke="none" d="
M 186.25 232.3
L 192.5 235.45
Q 193.3 229.85 199 226.8
L 200.05 226.25 193.8 223.1 192.75 223.6
Q 187.05 226.65 186.25 232.3
M 212.55 232.5
L 206.3 229.4 205.25 229.9
Q 199.55 232.95 198.75 238.55
L 198.75 238.6 205 241.7
Q 205.8 236.1 211.5 233.05
L 212.55 232.5 Z"/>

<path fill="#79776F" stroke="none" d="
M 186.5 220.55
Q 185.65 221 184.95 221.5 180.7 224.4 180 229.2
L 186.25 232.3
Q 187.05 226.65 192.75 223.6
L 193.8 223.1 187.55 220 186.5 220.55
M 205.25 229.9
L 206.3 229.4 200.05 226.25 199 226.8
Q 193.3 229.85 192.5 235.45
L 198.75 238.6 198.75 238.55
Q 199.55 232.95 205.25 229.9 Z"/>

<path fill="#5F5D52" stroke="none" d="
M 212.55 237.9
L 212.55 232.5 211.5 233.05
Q 205.8 236.1 205 241.7
L 212.55 237.9 Z"/>
</g>

<g id="Layer0_31_FILL">
<path fill="#916B4E" stroke="none" d="
M 111.5 108.05
Q 105.8 111.1 105 116.7
L 112.55 112.9 112.55 107.5 111.5 108.05 Z"/>

<path fill="#AF8563" stroke="none" d="
M 87.55 95
L 86.5 95.55
Q 80.8 98.6 80 104.2
L 105 116.7
Q 105.8 111.1 111.5 108.05
L 112.55 107.5 87.55 95 Z"/>
</g>
</defs>

<g transform="matrix( 1, 0, 0, 1, 0,0) ">
<use xlink:href="#Layer0_0_FILL"/>
</g>

<g transform="matrix( 1, 0, 0, 1, 0,0) ">
<use xlink:href="#Layer0_1_FILL"/>
</g>

<g transform="matrix( 1, 0, 0, 1, 0,0) ">
<use xlink:href="#Layer0_2_FILL"/>
</g>

<g transform="matrix( 1, 0, 0, 1, 0,0) ">
<use xlink:href="#Layer0_3_FILL"/>
</g>

<g transform="matrix( 1, 0, 0, 1, 0,0) ">
<use xlink:href="#Layer0_4_FILL"/>
</g>

<g transform="matrix( 1, 0, 0, 1, 0,0) ">
<use xlink:href="#Layer0_5_FILL"/>
</g>

<g transform="matrix( 1, 0, 0, 1, 0,0) ">
<use xlink:href="#Layer0_6_FILL"/>
</g>

<g transform="matrix( 1, 0, 0, 1, 0,0) ">
<use xlink:href="#Layer0_7_FILL"/>
</g>

<g transform="matrix( 1, 0, 0, 1, 0,0) ">
<use xlink:href="#Layer0_8_FILL"/>
</g>

<g transform="matrix( 1, 0, 0, 1, 0,0) ">
<use xlink:href="#Layer0_9_FILL"/>
</g>

<g transform="matrix( 1, 0, 0, 1, 0,0) ">
<use xlink:href="#Layer0_10_FILL"/>
</g>

<g transform="matrix( 1, 0, 0, 1, 0,0) ">
<use xlink:href="#Layer0_11_FILL"/>
</g>

<g transform="matrix( 1, 0, 0, 1, 0,0) ">
<use xlink:href="#Layer0_12_FILL"/>
</g>

<g transform="matrix( 1, 0, 0, 1, 0,0) ">
<use xlink:href="#Layer0_13_FILL"/>
</g>

<g transform="matrix( 1, 0, 0, 1, 0,0) ">
<use xlink:href="#Layer0_14_FILL"/>
</g>

<g transform="matrix( 1, 0, 0, 1, 0,0) ">
<use xlink:href="#Layer0_15_FILL"/>
</g>

<g transform="matrix( 1, 0, 0, 1, 0,0) ">
<use xlink:href="#Layer0_16_FILL"/>
</g>

<g transform="matrix( 1, 0, 0, 1, 0,0) ">
<use xlink:href="#Layer0_17_FILL"/>
</g>

<g transform="matrix( 1, 0, 0, 1, 0,0) ">
<use xlink:href="#Layer0_18_FILL"/>
</g>

<g transform="matrix( 1, 0, 0, 1, 0,0) ">
<use xlink:href="#Layer0_19_FILL"/>
</g>

<g transform="matrix( 1, 0, 0, 1, 0,0) ">
<use xlink:href="#Layer0_20_FILL"/>
</g>

<g transform="matrix( 1, 0, 0, 1, 0,0) ">
<use xlink:href="#Layer0_21_FILL"/>
</g>

<g transform="matrix( 1, 0, 0, 1, 0,0) ">
<use xlink:href="#Layer0_22_FILL"/>
</g>

<g transform="matrix( 1, 0, 0, 1, 0,0) ">
<use xlink:href="#Layer0_23_FILL"/>
</g>

<g transform="matrix( 1, 0, 0, 1, 0,0) ">
<use xlink:href="#Layer0_24_FILL"/>
</g>

<g transform="matrix( 1, 0, 0, 1, 0,0) ">
<use xlink:href="#Layer0_25_FILL"/>
</g>

<g transform="matrix( 1, 0, 0, 1, 0,0) ">
<use xlink:href="#Layer0_26_FILL"/>
</g>

<g transform="matrix( 1, 0, 0, 1, 0,0) ">
<use xlink:href="#Layer0_27_FILL"/>
</g>

<g transform="matrix( 1, 0, 0, 1, 0,0) ">
<use xlink:href="#Layer0_28_FILL"/>
</g>

<g transform="matrix( 1, 0, 0, 1, 0,0) ">
<use xlink:href="#Layer0_29_FILL"/>
</g>

<g transform="matrix( 1, 0, 0, 1, 0,0) ">
<use xlink:href="#Layer0_30_FILL"/>
</g>

<g transform="matrix( 1, 0, 0, 1, 0,0) ">
<use xlink:href="#Layer0_31_FILL"/>
</g>
</svg>
