
<svg xmlns="http://www.w3.org/2000/svg" version="1.1" xmlns:xlink="http://www.w3.org/1999/xlink" preserveAspectRatio="none" x="0px" y="0px" width="532px" height="532px" viewBox="0 0 532 532">
<defs>
<g id="Layer0_0_FILL">
<path fill="#BB8044" stroke="none" d="
M -187.6 231.05
L -230.15 266.05 -272.75 231.05 -272.75 414.05 -16.75 414.05 -16.75 231.05 -17.35 231.05 -59.9 266.05 -102.45 231.05 -145.05 266.05 -187.6 231.05
M -178.05 291.15
L -163.75 276.85 -149.5 291.1 -163.8 305.4 -178.05 291.15
M -245.4 290.25
L -256.15 279.5 -245.4 268.75 -234.65 279.5 -245.4 290.25
M -231.4 324
L -242.15 313.25 -231.4 302.5 -220.65 313.25 -231.4 324
M -238.4 355.05
L -220.65 372.8 -238.4 390.55 -256.15 372.8 -238.4 355.05
M -202.45 386.45
L -191.7 375.7 -180.95 386.45 -191.7 397.2 -202.45 386.45
M -165.45 362.45
L -180.95 346.95 -165.45 331.45 -149.95 346.95 -165.45 362.45
M -39.3 268.75
L -28.55 279.5 -39.3 290.25 -50.05 279.5 -39.3 268.75
M -117.85 307.05
L -104 320.9 -117.85 334.75 -131.7 320.9 -117.85 307.05
M -135.2 358.3
L -126.5 367 -135.2 375.7 -143.9 367 -135.2 358.3
M -50.05 301.25
L -72.8 324 -95.55 301.25 -72.8 278.5 -50.05 301.25
M -60 366.6
L -79.85 346.75 -60 326.9 -40.15 346.75 -60 366.6
M -72.85 375.7
L -59 389.55 -72.85 403.4 -86.7 389.55 -72.85 375.7 Z"/>

<path fill="#A6713C" stroke="none" d="
M -59 389.55
L -72.85 375.7 -86.7 389.55 -72.85 403.4 -59 389.55
M -79.85 346.75
L -60 366.6 -40.15 346.75 -60 326.9 -79.85 346.75
M -72.8 324
L -50.05 301.25 -72.8 278.5 -95.55 301.25 -72.8 324
M -126.5 367
L -135.2 358.3 -143.9 367 -135.2 375.7 -126.5 367
M -104 320.9
L -117.85 307.05 -131.7 320.9 -117.85 334.75 -104 320.9
M -28.55 279.5
L -39.3 268.75 -50.05 279.5 -39.3 290.25 -28.55 279.5
M -180.95 346.95
L -165.45 362.45 -149.95 346.95 -165.45 331.45 -180.95 346.95
M -191.7 375.7
L -202.45 386.45 -191.7 397.2 -180.95 386.45 -191.7 375.7
M -220.65 372.8
L -238.4 355.05 -256.15 372.8 -238.4 390.55 -220.65 372.8
M -242.15 313.25
L -231.4 324 -220.65 313.25 -231.4 302.5 -242.15 313.25
M -256.15 279.5
L -245.4 290.25 -234.65 279.5 -245.4 268.75 -256.15 279.5
M -163.75 276.85
L -178.05 291.15 -163.8 305.4 -149.5 291.1 -163.75 276.85
M -187.6 215.05
L -230.15 250.05 -272.75 215.05 -272.75 231.05 -230.15 266.05 -187.6 231.05 -145.05 266.05 -102.45 231.05 -59.9 266.05 -17.35 231.05 -16.75 231.05 -16.75 215.05 -17.35 215.05 -59.9 250.05 -102.45 215.05 -145.05 250.05 -187.6 215.05 Z"/>

<path fill="#32DE7B" stroke="none" d="
M -16.75 193.5
L -17.35 193.5 -59.9 236.65 -102.45 193.5 -145.05 236.65 -187.6 193.5 -230.15 236.65 -272.75 193.5 -272.75 215.05 -230.15 250.05 -187.6 215.05 -145.05 250.05 -102.45 215.05 -59.9 250.05 -17.35 215.05 -16.75 215.05 -16.75 193.5
M -16.75 173.05
L -16.75 158.05 -272.75 158.05 -272.75 173.05 -16.75 173.05 Z"/>

<path fill="#2ECC71" stroke="none" d="
M -17.35 193.5
L -16.75 193.5 -16.75 173.05 -272.75 173.05 -272.75 193.5 -230.15 236.65 -187.6 193.5 -145.05 236.65 -102.45 193.5 -59.9 236.65 -17.35 193.5 Z"/>
</g>

<g id="Layer0_1_FILL">
<path fill="#BB8044" stroke="none" d="
M 76.25 138.05
L 259.25 138.05 259.25 -44.95 76.25 138.05
M 236.7 21
L 225.95 10.25 236.7 -0.5 247.45 10.25 236.7 21
M 235.85 57.5
L 216 77.35 196.15 57.5 216 37.65 235.85 57.5
M 217 100.3
L 203.15 114.15 189.3 100.3 203.15 86.45 217 100.3
M 144.3 94.1
L 158.15 80.25 172 94.1 158.15 107.95 144.3 94.1
M 130.8 109.05
L 139.5 117.75 130.8 126.45 122.1 117.75 130.8 109.05 Z"/>

<path fill="#A6713C" stroke="none" d="
M 139.5 117.75
L 130.8 109.05 122.1 117.75 130.8 126.45 139.5 117.75
M 158.15 80.25
L 144.3 94.1 158.15 107.95 172 94.1 158.15 80.25
M 203.15 114.15
L 217 100.3 203.15 86.45 189.3 100.3 203.15 114.15
M 216 77.35
L 235.85 57.5 216 37.65 196.15 57.5 216 77.35
M 225.95 10.25
L 236.7 21 247.45 10.25 236.7 -0.5 225.95 10.25
M 259.25 -44.95
L 259.25 -60.95 60.25 138.05 76.25 138.05 259.25 -44.95 Z"/>

<path fill="#2ECC71" stroke="none" d="
M 259.25 -82.5
L 259.25 -102.95 18.25 138.05 38.7 138.05 259.25 -82.5 Z"/>

<path fill="#32DE7B" stroke="none" d="
M 259.25 -60.95
L 259.25 -82.5 38.7 138.05 60.25 138.05 259.25 -60.95
M 259.25 -102.95
L 259.25 -117.95 3.25 138.05 18.25 138.05 259.25 -102.95 Z"/>
</g>

<g id="Layer0_2_FILL">
<path fill="#BB8044" stroke="none" d="
M 259.25 158.05
L 76.25 158.05 3.25 231.05 3.25 414.05 259.25 414.05 259.25 158.05
M 167.45 194.05
L 190.2 171.3 212.95 194.05 190.2 216.8 167.45 194.05
M 144.3 202.95
L 130.45 216.8 116.6 202.95 130.45 189.1 144.3 202.95
M 97.95 291.15
L 112.25 276.85 126.5 291.1 112.2 305.4 97.95 291.15
M 161.25 268.75
L 150.5 258 161.25 247.25 172 258 161.25 268.75
M 62.8 216.8
L 73.55 227.55 62.8 238.3 52.05 227.55 62.8 216.8
M 30.6 290.25
L 19.85 279.5 30.6 268.75 41.35 279.5 30.6 290.25
M 44.6 302.5
L 55.35 313.25 44.6 324 33.85 313.25 44.6 302.5
M 37.6 390.55
L 19.85 372.8 37.6 355.05 55.35 372.8 37.6 390.55
M 158.15 334.75
L 144.3 320.9 158.15 307.05 172 320.9 158.15 334.75
M 84.3 375.7
L 95.05 386.45 84.3 397.2 73.55 386.45 84.3 375.7
M 110.55 362.45
L 95.05 346.95 110.55 331.45 126.05 346.95 110.55 362.45
M 140.8 358.3
L 149.5 367 140.8 375.7 132.1 367 140.8 358.3
M 236.7 238.3
L 225.95 227.55 236.7 216.8 247.45 227.55 236.7 238.3
M 236.7 290.25
L 225.95 279.5 236.7 268.75 247.45 279.5 236.7 290.25
M 225.95 301.25
L 203.2 324 180.45 301.25 203.2 278.5 225.95 301.25
M 203.15 375.7
L 217 389.55 203.15 403.4 189.3 389.55 203.15 375.7
M 235.85 346.75
L 216 366.6 196.15 346.75 216 326.9 235.85 346.75 Z"/>

<path fill="#A6713C" stroke="none" d="
M 216 366.6
L 235.85 346.75 216 326.9 196.15 346.75 216 366.6
M 217 389.55
L 203.15 375.7 189.3 389.55 203.15 403.4 217 389.55
M 203.2 324
L 225.95 301.25 203.2 278.5 180.45 301.25 203.2 324
M 225.95 279.5
L 236.7 290.25 247.45 279.5 236.7 268.75 225.95 279.5
M 225.95 227.55
L 236.7 238.3 247.45 227.55 236.7 216.8 225.95 227.55
M 149.5 367
L 140.8 358.3 132.1 367 140.8 375.7 149.5 367
M 95.05 346.95
L 110.55 362.45 126.05 346.95 110.55 331.45 95.05 346.95
M 95.05 386.45
L 84.3 375.7 73.55 386.45 84.3 397.2 95.05 386.45
M 144.3 320.9
L 158.15 334.75 172 320.9 158.15 307.05 144.3 320.9
M 19.85 372.8
L 37.6 390.55 55.35 372.8 37.6 355.05 19.85 372.8
M 55.35 313.25
L 44.6 302.5 33.85 313.25 44.6 324 55.35 313.25
M 19.85 279.5
L 30.6 290.25 41.35 279.5 30.6 268.75 19.85 279.5
M 73.55 227.55
L 62.8 216.8 52.05 227.55 62.8 238.3 73.55 227.55
M 150.5 258
L 161.25 268.75 172 258 161.25 247.25 150.5 258
M 112.25 276.85
L 97.95 291.15 112.2 305.4 126.5 291.1 112.25 276.85
M 130.45 216.8
L 144.3 202.95 130.45 189.1 116.6 202.95 130.45 216.8
M 190.2 171.3
L 167.45 194.05 190.2 216.8 212.95 194.05 190.2 171.3
M 76.25 158.05
L 60.25 158.05 3.25 215.05 3.25 231.05 76.25 158.05 Z"/>

<path fill="#32DE7B" stroke="none" d="
M 38.7 158.05
L 3.25 193.5 3.25 215.05 60.25 158.05 38.7 158.05
M 18.25 158.05
L 3.25 158.05 3.25 173.05 18.25 158.05 Z"/>

<path fill="#2ECC71" stroke="none" d="
M 18.25 158.05
L 3.25 173.05 3.25 193.5 38.7 158.05 18.25 158.05 Z"/>
</g>
</defs>

<g transform="matrix( 1, 0, 0, 1, 272.75,117.95) ">
<use xlink:href="#Layer0_0_FILL"/>
</g>

<g transform="matrix( 1, 0, 0, 1, 272.75,117.95) ">
<use xlink:href="#Layer0_1_FILL"/>
</g>

<g transform="matrix( 1, 0, 0, 1, 272.75,117.95) ">
<use xlink:href="#Layer0_2_FILL"/>
</g>
</svg>
