
<svg xmlns="http://www.w3.org/2000/svg" version="1.1" xmlns:xlink="http://www.w3.org/1999/xlink" preserveAspectRatio="none" x="0px" y="0px" width="832px" height="1024px" viewBox="0 0 832 1024">
<defs>
<g id="Layer0_0_FILL">
<path fill="#F5F6FF" stroke="none" d="
M 832 0
L 0 0 0 1024 832 1024 832 0 Z"/>
</g>

<g id="Layer0_1_FILL">
<path fill="#D7773F" stroke="none" d="
M 753.65 974.3
Q 746.35 967 736 967 725.7 967 718.35 974.3 711 981.65 711 992 711 1002.3 718.35 1009.65 725.7 1017 736 1017 746.35 1017 753.65 1009.65 761 1002.3 761 992 761 981.65 753.65 974.3
M 736 969
Q 745.55 969 752.25 975.7 759 982.45 759 992 759 1001.5 752.25 1008.25 745.55 1015 736 1015 726.5 1015 719.75 1008.25 713 1001.5 713 992 713 982.45 719.75 975.7 726.5 969 736 969
M 736 988
Q 734.35 988 733.15 989.15 732 990.35 732 992 732 993.7 733.15 994.85 734.35 996 736 996 737.65 996 738.85 994.85 740 993.7 740 992 740 990.35 738.85 989.15 737.65 988 736 988
M 672 967
Q 661.7 967 654.35 974.3 647 981.65 647 992 647 1002.3 654.35 1009.65 661.7 1017 672 1017 682.35 1017 689.65 1009.65 697 1002.3 697 992 697 981.65 689.65 974.3 682.35 967 672 967
M 655.75 975.7
Q 662.5 969 672 969 681.55 969 688.25 975.7 695 982.45 695 992 695 1001.5 688.25 1008.25 681.55 1015 672 1015 662.5 1015 655.75 1008.25 649 1001.5 649 992 649 982.45 655.75 975.7
M 714 906
L 712 906 712 950 714 950 714 906
M 822 952
L 822 950 778 950 778 952 822 952
M 824 969.35
L 822.65 968 800 990.6 777.35 968 776 969.35 798.65 992 776 1014.6 777.35 1016 800 993.35 822.65 1016 824 1014.6 801.35 992 824 969.35
M 822 842
L 822 840 778 840 778 842 822 842
M 102.15 972.3
L 86 972.3 86 979.9 93.6 979.9 93.6 1012.15 102.15 1012.15 102.15 972.3
M 120 906
L 118 906 118 950 120 950 120 906
M 31.65 971.4
Q 23.35 971.4 19.25 977 15.15 982.6 15.15 992 15.15 1001.4 19.25 1007 23.35 1012.6 31.65 1012.6 39.9 1012.6 44 1007 48.1 1001.4 48.1 992 48.1 982.6 44 977 39.9 971.4 31.65 971.4
M 31.65 978.75
Q 35.6 978.75 37.5 982.4 39.35 986.05 39.35 992.05 39.35 998 37.5 1001.65 35.6 1005.3 31.65 1005.3 27.6 1005.3 25.75 1001.65 23.85 998 23.85 992.05 23.85 986.05 25.75 982.4 27.6 978.75 31.65 978.75
M 48 832
L 32 832 32 896 40 896 40 960 56 960 56 896 48 896 48 832
M 16 832
L 0 832 0 896 8 896 8 960 24 960 24 896 16 896 16 832
M 296.55 988
L 288 988 288 994.95 282.35 994.95 295.9 972.3 286.2 972.3 272 995.85 272 1002.65 288 1002.65 288 1012.15 296.55 1012.15 296.55 1002.65 301.05 1002.65 301.05 994.95 296.55 994.95 296.55 988
M 236.75 972.3
L 212.4 972.3 212.4 979.9 224.85 979.9 217.25 988.9 217.25 995.45
Q 220.65 994.35 222.5 994.35 226.05 994.35 228.05 995.8 230.05 997.25 230.05 999.75 230.05 1002.25 228.3 1003.55 226.6 1004.85 223.9 1004.85 219.45 1004.85 213.8 1000.9
L 210.15 1007.9
Q 216.9 1012.6 223.55 1012.6 230.15 1012.6 234.4 1009.05 238.65 1005.45 238.65 999.2 238.65 995 236.05 991.8 233.4 988.55 228.6 987.75
L 236.75 978.45 236.75 972.3
M 164.45 983.7
Q 164.45 985.7 162.95 987.85 161.45 989.95 157.9 993.55
L 146.2 1005.55 146.2 1012.15 174.3 1012.15 174.3 1004.15 158.55 1004.15 165.75 996.7
Q 170 992.3 171.55 989.5 173.1 986.7 173.1 983.6 173.1 977.95 169.2 974.65 165.3 971.4 160.15 971.4 155 971.4 151.65 973.65 148.35 975.85 145.5 980.15
L 152.65 984.4
Q 156 979.05 159.75 979.05 161.85 979.05 163.15 980.35 164.45 981.7 164.45 983.7
M 256 886.7
L 256 884.7
Q 240.75 885.95 225 886
L 225 832 223 832 223 886
Q 207.25 885.95 192 884.7
L 192 886.7
Q 207.25 887.95 223 888
L 223 896 225 896 225 888
Q 240.75 887.95 256 886.7
M 418.2 979.05
Q 420 979.05 421.95 979.95 423.9 980.85 424.5 981.4 425.2 982 425.55 982.35
L 429.75 976.1
Q 428.1 974.75 426.7 973.9 425.35 973.05 422.85 972.2 420.3 971.4 417.5 971.4 410.75 971.4 406.2 976.2 403.85 978.6 402.55 982.7 401.2 986.85 401.2 992.3 401.2 1000.8 404.6 1006.45 406.3 1009.35 409.45 1011 412.55 1012.6 416.75 1012.6 422.85 1012.6 426.85 1008.95 430.9 1005.3 430.9 999.25 430.9 993.15 427.15 989.5 423.4 985.9 417.85 985.9 413.65 985.9 409.95 988.25 410.4 984 412.45 981.5 414.5 979.05 418.2 979.05
M 417 993.4
Q 419.65 993.4 421.2 995.15 422.75 996.85 422.75 999.4 422.75 1001.95 421 1003.55 419.3 1005.15 416.75 1005.15 414.2 1005.15 412.45 1003.35 410.75 1001.55 410.75 999.05 410.75 996.55 412.55 995 414.35 993.4 417 993.4
M 363.9 972.3
L 339.85 972.3 339.85 991.75 343.55 995.75
Q 347.55 993.55 350.55 993.55 353.6 993.55 355.5 995.05 357.4 996.5 357.4 999.15 357.4 1001.8 355.6 1003.2 353.85 1004.6 351.6 1004.6 349.3 1004.6 347 1003.35 344.75 1002.15 343.85 1001.4 343.05 1000.65 342.5 1000.15
L 337.85 1006.6
Q 343.25 1012.6 351.35 1012.6 357.7 1012.6 362 1008.75 366.3 1004.9 366.3 999 366.3 993.1 362.15 989.65 357.95 986.15 352.2 986.15 349.95 986.15 348.15 986.7
L 348.15 980 363.9 980 363.9 972.3
M 417 832
L 415 832 415 854
Q 398.9 853.9 384 850.85
L 384 852.9
Q 398.9 855.9 415 856
L 415 896 417 896 417 856
Q 433.1 855.9 448 852.9
L 448 850.85
Q 433.1 853.9 417 854
L 417 832
M 597 975.1
Q 593 978.75 593 984.8 593 990.85 596.7 994.5 600.45 998.2 606 998.2 610.25 998.2 613.9 995.75 613.45 1000 611.4 1002.5 609.35 1004.95 605.65 1004.95 604.05 1004.95 602.15 1004.05 600.25 1003.15 599.6 1002.6 598.95 1002.05 598.55 1001.7
L 594.1 1008
Q 595.8 1009.3 597.15 1010.1 598.45 1010.95 601 1011.8 603.55 1012.6 606.35 1012.6 613 1012.6 617.7 1007.8 620 1005.4 621.3 1001.3 622.65 997.15 622.65 991.7 622.65 983.2 619.3 977.55 617.55 974.65 614.45 973 611.3 971.4 607.1 971.4 601 971.4 597 975.1
M 602.9 980.5
Q 604.55 978.85 607.1 978.85 609.7 978.85 611.4 980.7 613.05 982.5 613.05 985 613.05 987.5 611.3 989.1 609.55 990.6 606.9 990.6 604.25 990.6 602.75 988.85 601.3 987.15 601.3 984.6 601.3 982.1 602.9 980.5
M 534.1 974.5
Q 530.15 977.65 530.15 982.25 530.15 986.8 533.75 990.15 528.8 994 528.8 1000.2 528.8 1005.4 533 1009 537.2 1012.6 544 1012.6 550.8 1012.6 555 1009 559.2 1005.4 559.2 1000.2 559.2 994 554.25 990.15 557.8 986.85 557.8 982.25 557.8 977.65 553.85 974.5 549.9 971.4 544 971.4 538.05 971.4 534.1 974.5
M 540.2 986.45
Q 538.6 985.05 538.6 983.05 538.6 981.05 540.15 979.65 541.8 978.3 544 978.3 546.2 978.3 547.85 979.65 549.4 981.05 549.4 983.05 549.4 985.05 547.8 986.45 546.15 987.8 544 987.8 541.85 987.8 540.2 986.45
M 548.4 996
Q 550.35 997.4 550.35 999.95 550.35 1002.5 548.35 1003.85 546.3 1005.2 544 1005.2 541.65 1005.2 539.65 1003.85 537.65 1002.5 537.65 999.95 537.65 997.4 539.6 996 541.55 994.65 544 994.65 546.45 994.65 548.4 996
M 494.55 979.05
L 494.55 972.3 465.7 972.3 465.7 985.05 474.05 985.05 474.05 979.95 484.1 979.95 468.7 1012.15 478.4 1012.15 494.55 979.05
M 512 822
L 488 821.95
Q 484 822 480 822 463.75 822 448 820.65 432.25 822 416 822 399.75 822 384 820.65 368.25 822 352 822
L 320 822 320 824 352 824
Q 368.25 824 384 822.65 399.75 824 416 824 432.25 824 448 822.65 463.75 824 480 824 484 824 488 823.95
L 512 824 512 822
M 576 886.7
Q 591.25 887.95 607 888
L 607 896 609 896 609 888
Q 624.75 887.95 640 886.7
L 640 884.7
Q 624.75 885.95 609 886
L 609 832 607 832 607 886
Q 591.25 885.95 576 884.7
L 576 886.7
M 640 822
L 640 824 669 824 669 829 675 829 675 824 704 824 704 822 675 822 675 805 669 805 669 822 640 822
M 605 776
L 576 776 576 778 605 778 605 795 611 795 611 778 640 778 640 776 611 776 611 771 605 771 605 776
M 630 640
L 630 641
Q 630 662.95 614.45 678.45 598.95 694 577 694
L 576 694 576 696 577 696
Q 599.75 696 615.85 679.85 632 663.75 632 641
L 632 640 630 640
M 576 520
L 576 522 577 522
Q 598.95 522 614.45 537.55 630 553.05 630 575
L 630 576 632 576 632 575
Q 632 552.25 615.85 536.15 599.75 520 577 520
L 576 520
M 248 768
L 246 768 246 797 229 797 229 803 246 803 246 832 248 832 248 803 253 803 253 797 248 797 248 768
M 266 768
L 264 768
Q 264 802.85 277.6 832 288.6 855.6 308.5 875.5 314.1 881.1 320 886 326.55 891.45 333.45 896 356.7 911.35 384 916.9 399.35 920 416 920 432.65 920 448 916.9 475.25 911.35 498.5 896 505.4 891.4 512 885.95 517.85 881.05 523.45 875.5 543.35 855.6 554.4 832 568 802.85 568 768
L 566 768
Q 566 802.9 552.2 832 541.35 854.8 522.05 874.1 517.15 879 512 883.4 503.7 890.4 494.85 896 473.15 909.65 448 914.85 432.65 918 416 918 399.35 918 384 914.85 358.8 909.65 337.15 896 328.25 890.4 320 883.4 314.85 879.05 309.9 874.1 290.6 854.8 279.8 832 266 802.9 266 768
M 202 640
L 200 640 200 641
Q 200 663.75 216.15 679.85 232.25 696 255 696
L 256 696 256 694 255 694
Q 233.05 694 217.55 678.45 202 662.95 202 641
L 202 640
M 138 768
L 136 768 136 797 131 797 131 803 136 803 136 832 138 832 138 803 155 803 155 797 138 797 138 768
M 74 736
Q 74 719.75 75.35 704
L 73.35 704
Q 72 719.75 72 736
L 72 768 74 768 74 736
M 72 448
L 72.05 472
Q 72 476 72 480 72 496.25 73.35 512
L 75.35 512
Q 74 496.25 74 480 74 476 74.05 472
L 74 448 72 448
M 308.55 500.5
Q 302.95 506.1 298.05 512 274.3 540.55 267.15 576 264 591.35 264 608 264 624.65 267.15 640 274.3 675.4 298.1 704 302.95 709.85 308.55 715.45 314.15 721.05 320 725.95 348.55 749.7 384 756.9 399.35 760 416 760 432.65 760 448 756.9 483.45 749.7 512 725.95 517.9 721.05 523.5 715.45 526.05 712.9 528.45 710.3 530.85 707.65 533.15 705 533.55 704.5 533.95 704 557.7 675.4 564.9 640 568 624.65 568 608 568 591.35 564.9 576 557.7 540.55 534 512 529.1 506.1 523.5 500.5 517.9 494.9 512 490 483.45 466.3 448 459.1 432.65 456 416 456 399.35 456 384 459.1 348.55 466.3 320 490.05 314.15 494.9 308.55 500.5
M 300.65 512
Q 305 506.85 309.95 501.9 314.85 497 320 492.65 348.5 468.45 384 461.15 399.35 458 416 458 432.65 458 448 461.15 483.5 468.45 512 492.6 517.15 496.95 522.1 501.9 527.05 506.85 531.4 512 555.55 540.5 562.85 576 566 591.35 566 608 566 624.65 562.85 640 555.55 675.5 531.4 704 530.95 704.5 530.55 705 529.5 706.2 528.45 707.4 525.4 710.75 522.1 714.05 517.15 719 512 723.4 483.5 747.55 448 754.85 432.65 758 416 758 399.35 758 384 754.85 348.5 747.55 320 723.35 314.85 718.95 309.95 714.05 305.05 709.15 300.7 704 276.45 675.5 269.15 640 266 624.65 266 608 266 591.35 269.15 576 276.45 540.5 300.65 512
M 477 694
L 448 694 448 696 504 696 504 640 502 640 502 669
Q 491.65 669 484.35 676.3 477 683.65 477 694
M 330 640
L 328 640 328 696 384 696 384 694 355 694
Q 355 683.65 347.65 676.3 340.35 669 330 669
L 330 640
M 384 522
L 384 520 328 520 328 576 330 576 330 547
Q 340.35 547 347.65 539.7 355 532.35 355 522
L 384 522
M 502 547
L 502 576 504 576 504 520 448 520 448 522 477 522
Q 477 532.35 484.35 539.7 491.65 547 502 547
M 320 607
L 320 609 328 609
Q 328.1 625.1 331.15 640
L 333.15 640
Q 330.1 625.1 330 609
L 415 609 415 694
Q 398.9 693.9 384 690.85
L 384 692.9
Q 398.9 695.9 415 696
L 415 704 417 704 417 696
Q 433.1 695.9 448 692.9
L 448 690.85
Q 433.1 693.9 417 694
L 417 609 502 609
Q 501.9 625.1 498.85 640
L 500.9 640
Q 503.9 625.1 504 609
L 512 609 512 607 504 607
Q 503.9 590.9 500.9 576
L 498.85 576
Q 501.9 590.9 502 607
L 417 607 417 522
Q 433.1 522.1 448 525.15
L 448 523.1
Q 433.1 520.1 417 520
L 417 512 415 512 415 520
Q 398.9 520.1 384 523.1
L 384 525.15
Q 398.9 522.1 415 522
L 415 607 330 607
Q 330.1 590.9 333.15 576
L 331.15 576
Q 328.1 590.9 328 607
L 320 607
M 237.15 576
L 235.1 576
Q 232.1 590.9 232 607
L 138 607
Q 138.05 591.25 139.3 576
L 137.3 576
Q 136.05 591.25 136 607
L 128 607 128 609 136 609
Q 136.05 624.75 137.3 640
L 139.3 640
Q 138.05 624.75 138 609
L 232 609
Q 232.1 625.1 235.1 640
L 237.15 640
Q 234.1 625.1 234 609
L 256 609 256 607 234 607
Q 234.1 590.9 237.15 576
M 202 576
L 202 575
Q 202 553.05 217.55 537.55 233.05 522 255 522
L 256 522 256 520 255 520
Q 232.25 520 216.15 536.15 200 552.25 200 575
L 200 576 202 576
M 256 458
L 256 456
Q 221.15 456 192 469.6 168.4 480.6 148.5 500.5 142.9 506.1 138 512 132.55 518.55 128 525.45 112.65 548.7 107.1 576 104 591.35 104 608 104 624.65 107.1 640 112.65 667.25 128 690.5 132.6 697.4 138.05 704 142.95 709.85 148.5 715.45 168.4 735.35 192 746.4 221.15 760 256 760
L 256 758
Q 221.1 758 192 744.2 169.2 733.35 149.9 714.05 145 709.15 140.6 704 133.6 695.7 128 686.85 114.35 665.15 109.15 640 106 624.65 106 608 106 591.35 109.15 576 114.35 550.8 128 529.15 133.6 520.25 140.6 512 144.95 506.85 149.9 501.9 169.2 482.6 192 471.8 221.1 458 256 458
M 72 8
L 72 248 312 248 312 8 72 8
M 223 128
L 225 128 225 10 310 10 310 159 163.9 159
Q 163.65 157.95 162.85 157.15 161.65 156 160 156 158.35 156 157.15 157.15 156.35 157.95 156.1 159
L 74 159 74 10 223 10 223 128
M 162.85 162.85
Q 163.65 162.05 163.9 161
L 310 161 310 246 225 246 225 192 223 192 223 246 74 246 74 161 156.1 161
Q 156.35 162.05 157.15 162.85 158.35 164 160 164 161.65 164 162.85 162.85
M 162.85 98.85
Q 163.45 98.2 163.75 97.45 164 96.75 164 96 164 95.55 163.9 95.1 163.65 94 162.85 93.15 162.05 92.35 161 92.1
L 161 64 159 64 159 92.1
Q 157.95 92.35 157.15 93.15 156.35 94 156.1 95.1 156 95.55 156 96 156 96.75 156.25 97.45 156.55 98.2 157.15 98.85 157.95 99.65 159 99.9
L 159 128 161 128 161 99.9
Q 162.05 99.65 162.85 98.85
M 235 425
L 235 407 225 416 235 425
M 223 320
L 223 328
Q 207.25 328.05 192 329.3
L 192 331.3
Q 207.25 330.05 223 330
L 223 448 225 448 225 416 225 330
Q 240.75 330.05 256 331.3
L 256 329.3
Q 240.75 328.05 225 328
L 225 320 223 320
M 149 407
L 149 425 159 416 149 407
M 161 384
L 159 384 159 416 159 448 161 448 161 384
M 108.8 364.8
Q 99.4 374.2 90.8 384 76.1 400.85 64 418.85 54.4 433.05 46.4 448 30.1 478.55 20.75 512 12.1 542.8 9.3 576 8 591.75 8 608 8 624.25 9.3 640 12.1 673.2 20.75 704 30.1 737.45 46.4 768 54.4 782.95 64 797.15 76.1 815.15 90.8 832 99.4 841.8 108.8 851.2 118.2 860.6 128 869.15 144.85 883.9 162.8 896 177.05 905.6 192 913.55 222.55 929.85 256 939.25 286.8 947.9 320 950.65
L 320 948.65
Q 286.8 945.9 256 937.15 222.55 927.7 192 911.3 178.95 904.3 166.4 896 146.55 882.85 128 866.5 118.95 858.55 110.2 849.8 101.45 841.05 93.45 832 77.15 813.45 64 793.6 55.7 781.05 48.65 768 32.25 737.45 22.8 704 14.1 673.2 11.3 640 10 624.25 10 608 10 591.75 11.3 576 14.1 542.8 22.8 512 32.25 478.55 48.65 448 55.7 434.95 64 422.4 77.15 402.55 93.45 384 101.45 374.95 110.2 366.2 118.95 357.45 128 349.5 146.55 333.15 166.4 320 178.95 311.7 192 304.7 222.55 288.3 256 278.85 286.8 270.1 320 267.35
L 320 265.35
Q 286.8 268.1 256 276.75 222.55 286.15 192 302.45 177.05 310.4 162.8 320 144.85 332.1 128 346.85 118.2 355.4 108.8 364.8
M 56 376
L 64 376 64 374 54 374 54 384 56 384 56 376
M 0 376
L 8 376 8 384 10 384 10 374 0 374 0 376
M 8 320
L 8 328 0 328 0 330 10 330 10 320 8 320
M 64 328
L 56 328 56 320 54 320 54 330 64 330 64 328
M 26.4 218.25
L 26.4 218.3
Q 26.3 218.3 26.3 218.4
L 26.25 218.4
Q 24 220.75 24 224 24 227.4 26.3 229.7 26.4 229.75 26.55 229.85
L 26.55 229.9
Q 28.85 232 32 232 35.1 232 37.45 230 37.45 229.95 37.5 229.9 37.6 229.8 37.7 229.7 40 227.4 40 224 40 220.75 37.75 218.4 37.7 218.3 37.65 218.3
L 37.6 218.25
Q 35.25 216 32 216 28.75 216 26.4 218.25
M 27.7 219.8
Q 27.75 219.75 27.8 219.7 29.55 218 32 218 34.45 218 36.25 219.7 36.25 219.75 36.3 219.8 38 221.55 38 224 38 226.55 36.3 228.3
L 36.25 228.3
Q 34.45 230 32 230 29.55 230 27.8 228.3
L 27.75 228.3
Q 26 226.55 26 224 26 221.55 27.7 219.8
M 34.85 221.15
Q 33.65 220 32 220 30.35 220 29.15 221.15 28 222.35 28 224 28 225.7 29.15 226.85 30.35 228 32 228 33.65 228 34.85 226.85 36 225.7 36 224 36 222.35 34.85 221.15
M 97 256
L 95 256 95 280.05
Q 92.4 280.35 90.4 282.25
L 90.4 282.3
Q 90.3 282.3 90.3 282.4
L 90.25 282.4
Q 88.35 284.4 88.05 287
L 35.9 287
Q 35.65 285.95 34.85 285.15 34.05 284.35 33 284.15
L 33 256 31 256 31 284.15
Q 29.95 284.35 29.15 285.15 28.35 285.95 28.15 287
L 0 287 0 289 28.1 289
Q 28.35 290.05 29.15 290.85 29.95 291.65 31 291.9
L 31 320 33 320 33 291.9
Q 34.05 291.65 34.85 290.85 35.65 290.05 35.9 289
L 88.05 289
Q 88.35 291.75 90.3 293.7 90.4 293.75 90.55 293.85
L 90.55 293.9
Q 92.5 295.65 95 295.95
L 95 320 97 320 97 295.95
Q 99.5 295.65 101.45 294 101.45 293.95 101.5 293.9 101.6 293.8 101.7 293.7 103.65 291.75 103.95 289
L 128 289 128 287 103.95 287
Q 103.65 284.4 101.75 282.4 101.7 282.3 101.65 282.3
L 101.6 282.25
Q 99.6 280.35 97 280.05
L 97 256
M 91.7 283.8
Q 91.75 283.75 91.8 283.7 93.2 282.35 95 282.1 95.5 282 96 282 96.5 282 97 282.1 98.85 282.35 100.25 283.7 100.25 283.75 100.3 283.8 101.65 285.2 101.95 287 102 287.5 102 288 102 288.5 101.95 289 101.65 290.9 100.3 292.3
L 100.25 292.3
Q 98.85 293.65 97 293.95 96.5 294 96 294 95.5 294 95 293.95 93.2 293.65 91.8 292.3
L 91.75 292.3
Q 90.35 290.9 90.1 289 90 288.5 90 288 90 287.5 90.1 287 90.35 285.2 91.7 283.8
M 38 160
Q 38 157.55 36.3 155.8 36.25 155.75 36.25 155.7 34.45 154 32 154 29.55 154 27.8 155.7 27.75 155.75 27.7 155.8 26 157.55 26 160 26 162.55 27.75 164.3
L 27.8 164.3
Q 29.55 166 32 166 34.45 166 36.25 164.3
L 36.3 164.3
Q 38 162.55 38 160
M 32 156
Q 33.65 156 34.85 157.15 36 158.35 36 160 36 161.7 34.85 162.85 33.65 164 32 164 30.35 164 29.15 162.85 28 161.7 28 160 28 158.35 29.15 157.15 30.35 156 32 156
M 34.85 98.85
Q 36 97.7 36 96 36 94.35 34.85 93.15 33.65 92 32 92 30.35 92 29.15 93.15 28 94.35 28 96 28 97.7 29.15 98.85 30.35 100 32 100 33.65 100 34.85 98.85
M 609 328
L 609 320 607 320 607 328
Q 591.25 328.05 576 329.3
L 576 331.3
Q 591.25 330.05 607 330
L 607 384 609 384 609 330
Q 624.75 330.05 640 331.3
L 640 329.3
Q 624.75 328.05 609 328
M 384 393.35
Q 368.25 392 352 392
L 320 392 320 394 352 394
Q 368.25 394 384 395.35 399.75 394 416 394 432.25 394 448 395.35 463.75 394 480 394 484 394 488 394.05
L 512 394 512 392 488 392.05
Q 484 392 480 392 463.75 392 448 393.35 432.25 392 416 392 399.75 392 384 393.35
M 337.15 320
Q 358.85 306.35 384 301.15 399.35 298 416 298 432.65 298 448 301.15 473.2 306.35 494.85 320 503.75 325.6 512 332.6 517.15 336.95 522.1 341.9 541.4 361.2 552.2 384 566 413.1 566 448
L 568 448
Q 568 413.15 554.4 384 543.4 360.4 523.5 340.5 517.9 334.9 512 330 505.45 324.55 498.55 320 475.3 304.65 448 299.1 432.65 296 416 296 399.35 296 384 299.1 356.75 304.65 333.5 320 326.6 324.6 320 330.05 314.15 334.95 308.55 340.5 288.65 360.4 277.6 384 264 413.15 264 448
L 266 448
Q 266 413.1 279.8 384 290.65 361.2 309.95 341.9 314.85 337 320 332.6 328.3 325.6 337.15 320
M 384 363.1
L 384 365.15
Q 398.9 362.1 415 362
L 415 384 417 384 417 362
Q 433.1 362.1 448 365.15
L 448 363.1
Q 433.1 360.1 417 360
L 417 320 415 320 415 360
Q 398.9 360.1 384 363.1
M 440 136
L 328 136 328 248 440 248 440 136
M 381 138
L 387 138
Q 387 159.1 401.95 174.05 416.9 189 438 189
L 438 195
Q 416.9 195 401.95 209.95 387 224.9 387 246
L 381 246
Q 381 224.9 366.05 209.95 351.1 195 330 195
L 330 189
Q 351.1 189 366.05 174.05 381 159.1 381 138
M 403.35 172.65
Q 389 158.3 389 138
L 438 138 438 187
Q 417.7 187 403.35 172.65
M 330 187
L 330 138 379 138
Q 379 158.3 364.65 172.65 350.3 187 330 187
M 389 246
Q 389 225.7 403.35 211.35 417.7 197 438 197
L 438 246 389 246
M 364.65 211.35
Q 379 225.7 379 246
L 330 246 330 197
Q 350.3 197 364.65 211.35
M 440 8
L 328 8 328 120 440 120 440 8
M 413 10
Q 413 20.35 420.35 27.7 427.65 35 438 35
L 438 93
Q 427.65 93 420.35 100.3 413 107.65 413 118
L 355 118
Q 355 107.65 347.65 100.3 340.35 93 330 93
L 330 35
Q 340.35 35 347.65 27.7 355 20.35 355 10
L 413 10
M 438 10
L 438 33
Q 428.45 33 421.75 26.3 415 19.55 415 10
L 438 10
M 330 33
L 330 10 353 10
Q 353 19.55 346.25 26.3 339.55 33 330 33
M 353 118
L 330 118 330 95
Q 339.55 95 346.25 101.7 353 108.45 353 118
M 438 118
L 415 118
Q 415 108.45 421.75 101.7 428.45 95 438 95
L 438 118
M 481 192
L 479 192 479 200
Q 462.35 200.15 448 205.75
L 448 207.9
Q 462.35 202.15 479 202
L 479 256 481 256 481 202
Q 497.65 202.15 512 207.9
L 512 205.75
Q 497.65 200.15 481 200
L 481 192
M 609 192
L 607 192 607 246
Q 590.35 245.85 576 240.15
L 576 242.25
Q 590.35 247.85 607 248
L 607 256 609 256 609 248
Q 625.65 247.85 640 242.3
L 640 240.15
Q 625.65 245.85 609 246
L 609 192
M 562.3 192
L 560.15 192
Q 565.85 206.35 566 223
L 512 223 512 225 566 225
Q 565.85 241.65 560.15 256
L 562.3 256
Q 567.85 241.65 568 225
L 576 225 576 223 568 223
Q 567.85 206.35 562.3 192
M 606.25 33.75
Q 592.6 20.15 576 13.75 561.2 8 544 8 526.8 8 512 13.75 495.4 20.15 481.8 33.75 468.15 47.4 461.75 64 456 78.8 456 96 456 113.2 461.75 128 468.2 144.6 481.8 158.2 495.4 171.85 512 178.25 526.8 184 544 184 561.2 184 576 178.3 580.8 176.45 585.4 173.95 596.55 167.9 606.25 158.2 619.85 144.6 626.3 128 632 113.2 632 96 632 78.8 626.3 64 619.85 47.4 606.25 33.75
M 576 15.9
Q 591.8 22.15 604.85 35.15 617.85 48.2 624.15 64 630 78.8 630 96 630 113.2 624.15 128 617.85 143.8 604.85 156.8 593.9 167.75 581 173.95 578.55 175.15 576 176.15 561.2 182 544 182 526.8 182 512 176.15 496.2 169.8 483.2 156.8 470.2 143.8 463.9 128 458 113.2 458 96 458 78.8 463.9 64 470.15 48.2 483.2 35.15 496.2 22.15 512 15.9 526.8 10 544 10 561.2 10 576 15.9
M 576 97
L 576 95 522 95
Q 522.15 78.35 527.9 64
L 525.75 64
Q 520.15 78.35 520 95
L 512 95 512 97 520 97
Q 520.15 113.65 525.75 128
L 527.9 128
Q 522.15 113.65 522 97
L 576 97
M 760 736
Q 760 719.75 758.65 704
L 756.65 704
Q 758 719.75 758 736
L 758 768 760 768 760 736
M 694.7 576
L 692.7 576
Q 693.95 591.25 694 607
L 600 607
Q 599.9 590.9 596.9 576
L 594.85 576
Q 597.9 590.9 598 607
L 576 607 576 609 598 609
Q 597.9 625.1 594.85 640
L 596.9 640
Q 599.9 625.1 600 609
L 694 609
Q 693.95 624.75 692.7 640
L 694.7 640
Q 695.95 624.75 696 609
L 704 609 704 607 696 607
Q 695.95 591.25 694.7 576
M 691.4 512
Q 698.4 520.25 704 529.15 717.65 550.8 722.85 576 726 591.35 726 608 726 624.65 722.85 640 717.65 665.15 704 686.85 698.4 695.7 691.4 704 687 709.15 682.1 714.05 662.8 733.35 640 744.2 610.9 758 576 758
L 576 760
Q 610.85 760 640 746.4 663.6 735.35 683.5 715.45 689.05 709.85 693.95 704 699.4 697.4 704 690.5 719.35 667.25 724.9 640 728 624.65 728 608 728 591.35 724.9 576 719.35 548.7 704 525.45 699.45 518.55 694 512 689.1 506.1 683.5 500.5 663.6 480.6 640 469.6 610.85 456 576 456
L 576 458
Q 610.9 458 640 471.8 662.8 482.6 682.1 501.9 687.05 506.85 691.4 512
M 608 415
L 617 405 599 405 608 415
M 681 427
L 672 417 663 427 681 427
M 704 417
L 704 415 608 415 576 415 576 417 672 417 704 417
M 758 448
L 757.95 472
Q 758 476 758 480 758 496.25 756.65 512
L 758.65 512
Q 760 496.25 760 480 760 476 759.95 472
L 760 448 758 448
M 776 136
L 776 248 824 248 824 136 776 136
M 778 246
L 778 138 822 138 822 246 778 246
M 723.2 364.8
Q 713.8 355.4 704 346.85 687.15 332.1 669.2 320 654.95 310.4 640 302.45 609.45 286.15 576 276.75 545.2 268.1 512 265.35
L 512 267.35
Q 545.2 270.1 576 278.85 609.45 288.3 640 304.7 653.05 311.7 665.6 320 685.45 333.15 704 349.5 713.05 357.45 721.8 366.2 730.55 374.95 738.55 384 754.85 402.55 768 422.4 776.3 434.95 783.35 448 799.75 478.55 809.2 512 817.9 542.8 820.7 576 822 591.75 822 608 822 624.25 820.7 640 817.9 673.2 809.2 704 799.75 737.45 783.35 768 776.3 781.05 768 793.6 754.85 813.45 738.55 832 730.55 841.05 721.8 849.8 713.05 858.55 704 866.5 685.45 882.85 665.6 896 653.05 904.3 640 911.3 609.45 927.7 576 937.15 545.2 945.9 512 948.65
L 512 950.65
Q 545.2 947.9 576 939.25 609.45 929.85 640 913.55 654.95 905.6 669.2 896 687.15 883.9 704 869.15 713.8 860.6 723.2 851.2 732.6 841.8 741.2 832 755.9 815.15 768 797.15 777.6 782.95 785.6 768 801.9 737.45 811.25 704 819.9 673.2 822.7 640 824 624.25 824 608 824 591.75 822.7 576 819.9 542.8 811.25 512 801.9 478.55 785.6 448 777.6 433.05 768 418.85 755.9 400.85 741.2 384 732.6 374.2 723.2 364.8
M 704 310
L 704 312 768 312 768 310 704 310
M 778 256
L 776 256 776 328 768 328 768 330 776 330 776 374 768 374 768 376 776 376 776 384 778 384 778 376 822 376 822 384 824 384 824 376 832 376 832 374 824 374 824 330 832 330 832 328 824 328 824 256 822 256 822 328 778 328 778 256
M 778 374
L 778 330 822 330 822 374 778 374
M 768 266
L 768 264 704 264 704 266 768 266
M 737 8
L 671 8 671 120 737 120 737 8
M 735 10
L 735 118 673 118 673 10 735 10
M 760 159
L 648 159 648 225 760 225 760 159
M 650 161
L 758 161 758 223 650 223 650 161
M 824 56
L 824 8 768 8 768 10 822 10 822 54 768 54 768 56 824 56
M 832 74
L 832 72 776 72 776 120 832 120 832 118 778 118 778 74 832 74 Z"/>
</g>
</defs>

<g transform="matrix( 1, 0, 0, 1, 0,0) ">
<use xlink:href="#Layer0_0_FILL"/>
</g>

<g transform="matrix( 1, 0, 0, 1, 0,0) ">
<use xlink:href="#Layer0_1_FILL"/>
</g>
</svg>
